0, 0, Header, 0, 1, 240
1, 0, Start_track
1, 0, Tempo, 555555
1, 5, Note_on_c, 1, 19, 96
1, 5, Note_on_c, 1, 61, 96
1, 5, Note_on_c, 1, 53, 96
1, 5, Note_on_c, 1, 25, 96
1, 5, Note_on_c, 1, 0, 96
1, 6, Note_off_c, 1, 19, 96
1, 6, Note_off_c, 1, 61, 96
1, 6, Note_off_c, 1, 53, 96
1, 6, Note_off_c, 1, 25, 96
1, 6, Note_off_c, 1, 0, 96
1, 42, Note_on_c, 1, 60, 96
1, 42, Note_on_c, 1, 67, 96
1, 42, Note_on_c, 1, 63, 96
1, 42, Note_on_c, 1, 67, 96
1, 42, Note_on_c, 1, 79, 96
1, 42, Note_on_c, 1, 51, 96
1, 42, Note_on_c, 1, 39, 96
1, 47, Note_off_c, 1, 60, 96
1, 47, Note_off_c, 1, 67, 96
1, 47, Note_off_c, 1, 63, 96
1, 47, Note_off_c, 1, 67, 96
1, 47, Note_off_c, 1, 79, 96
1, 47, Note_off_c, 1, 51, 96
1, 47, Note_off_c, 1, 39, 96
1, 47, Note_on_c, 1, 75, 96
1, 47, Note_on_c, 1, 51, 96
1, 47, Note_on_c, 1, 51, 96
1, 47, Note_on_c, 1, 39, 96
1, 50, Note_off_c, 1, 75, 96
1, 50, Note_off_c, 1, 51, 96
1, 50, Note_off_c, 1, 51, 96
1, 50, Note_off_c, 1, 39, 96
1, 50, Note_on_c, 1, 75, 96
1, 50, Note_on_c, 1, 46, 96
1, 52, Note_off_c, 1, 75, 96
1, 52, Note_off_c, 1, 46, 96
1, 52, Note_on_c, 1, 38, 96
1, 56, Note_off_c, 1, 38, 96
1, 56, Note_on_c, 1, 72, 96
1, 56, Note_on_c, 1, 60, 96
1, 56, Note_on_c, 1, 72, 96
1, 59, Note_off_c, 1, 72, 96
1, 59, Note_off_c, 1, 60, 96
1, 59, Note_off_c, 1, 72, 96
1, 59, Note_on_c, 1, 36, 96
1, 59, Note_on_c, 1, 38, 96
1, 63, Note_off_c, 1, 36, 96
1, 63, Note_off_c, 1, 38, 96
1, 63, Note_on_c, 1, 72, 96
1, 63, Note_on_c, 1, 72, 96
1, 63, Note_on_c, 1, 38, 96
1, 64, Note_off_c, 1, 72, 96
1, 64, Note_off_c, 1, 72, 96
1, 64, Note_off_c, 1, 38, 96
1, 179, Note_on_c, 1, 59, 96
1, 180, Note_off_c, 1, 59, 96
1, 187, Note_on_c, 1, 47, 96
1, 188, Note_off_c, 1, 47, 96
1, 304, Note_on_c, 1, 68, 96
1, 304, Note_on_c, 1, 56, 96
1, 304, Note_on_c, 1, 56, 96
1, 304, Note_on_c, 1, 65, 96
1, 309, Note_off_c, 1, 68, 96
1, 309, Note_off_c, 1, 56, 96
1, 309, Note_off_c, 1, 56, 96
1, 309, Note_off_c, 1, 65, 96
1, 309, Note_on_c, 1, 80, 96
1, 309, Note_on_c, 1, 74, 96
1, 309, Note_on_c, 1, 77, 96
1, 309, Note_on_c, 1, 56, 96
1, 311, Note_off_c, 1, 80, 96
1, 311, Note_off_c, 1, 74, 96
1, 311, Note_off_c, 1, 77, 96
1, 311, Note_off_c, 1, 56, 96
1, 311, Note_on_c, 1, 77, 96
1, 314, Note_off_c, 1, 77, 96
1, 314, Note_on_c, 1, 65, 96
1, 314, Note_on_c, 1, 44, 96
1, 315, Note_off_c, 1, 65, 96
1, 315, Note_off_c, 1, 44, 96
1, 370, Note_on_c, 1, 76, 96
1, 370, Note_on_c, 1, 88, 96
1, 371, Note_off_c, 1, 76, 96
1, 371, Note_off_c, 1, 88, 96
1, 432, Note_on_c, 1, 58, 96
1, 434, Note_off_c, 1, 58, 96
1, 434, Note_on_c, 1, 36, 96
1, 435, Note_off_c, 1, 36, 96
1, 497, Note_on_c, 1, 38, 96
1, 497, Note_on_c, 1, 50, 96
1, 498, Note_off_c, 1, 38, 96
1, 498, Note_off_c, 1, 50, 96
1, 615, Note_on_c, 1, 64, 96
1, 616, Note_off_c, 1, 64, 96
1, 619, Note_on_c, 1, 55, 96
1, 619, Note_on_c, 1, 71, 96
1, 620, Note_off_c, 1, 55, 96
1, 620, Note_off_c, 1, 71, 96
1, 625, Note_on_c, 1, 79, 96
1, 625, Note_on_c, 1, 67, 96
1, 626, Note_off_c, 1, 79, 96
1, 626, Note_off_c, 1, 67, 96
1, 628, Note_on_c, 1, 60, 96
1, 629, Note_off_c, 1, 60, 96
1, 710, Note_on_c, 1, 74, 96
1, 711, Note_off_c, 1, 74, 96
1, 741, Note_on_c, 1, 57, 96
1, 743, Note_off_c, 1, 57, 96
1, 743, Note_on_c, 1, 76, 96
1, 745, Note_off_c, 1, 76, 96
1, 745, Note_on_c, 1, 45, 96
1, 746, Note_off_c, 1, 45, 96
1, 748, Note_on_c, 1, 72, 96
1, 749, Note_off_c, 1, 72, 96
1, 812, Note_on_c, 1, 76, 96
1, 812, Note_on_c, 1, 72, 96
1, 813, Note_off_c, 1, 76, 96
1, 813, Note_off_c, 1, 72, 96
1, 860, Note_on_c, 1, 41, 96
1, 861, Note_off_c, 1, 41, 96
1, 906, Note_on_c, 1, 41, 96
1, 908, Note_off_c, 1, 41, 96
1, 908, Note_on_c, 1, 53, 96
1, 909, Note_off_c, 1, 53, 96
1, 980, Note_on_c, 1, 56, 96
1, 984, Note_off_c, 1, 56, 96
1, 984, Note_on_c, 1, 65, 96
1, 984, Note_on_c, 1, 77, 96
1, 984, Note_on_c, 1, 72, 96
1, 985, Note_off_c, 1, 65, 96
1, 985, Note_off_c, 1, 77, 96
1, 985, Note_off_c, 1, 72, 96
1, 1029, Note_on_c, 1, 51, 96
1, 1030, Note_off_c, 1, 51, 96
1, 1060, Note_on_c, 1, 83, 96
1, 1061, Note_off_c, 1, 83, 96
1, 1092, Note_on_c, 1, 84, 96
1, 1092, Note_on_c, 1, 80, 96
1, 1095, Note_off_c, 1, 84, 96
1, 1095, Note_off_c, 1, 80, 96
1, 1095, Note_on_c, 1, 60, 96
1, 1095, Note_on_c, 1, 44, 96
1, 1096, Note_off_c, 1, 60, 96
1, 1096, Note_off_c, 1, 44, 96
1, 1124, Note_on_c, 1, 77, 96
1, 1125, Note_off_c, 1, 77, 96
1, 1156, Note_on_c, 1, 60, 96
1, 1161, Note_off_c, 1, 60, 96
1, 1161, Note_on_c, 1, 72, 96
1, 1161, Note_on_c, 1, 77, 96
1, 1161, Note_on_c, 1, 84, 96
1, 1161, Note_on_c, 1, 51, 96
1, 1163, Note_off_c, 1, 72, 96
1, 1163, Note_off_c, 1, 77, 96
1, 1163, Note_off_c, 1, 84, 96
1, 1163, Note_off_c, 1, 51, 96
1, 1163, Note_on_c, 1, 56, 96
1, 1164, Note_off_c, 1, 56, 96
1, 1222, Note_on_c, 1, 82, 96
1, 1223, Note_off_c, 1, 82, 96
1, 1257, Note_on_c, 1, 82, 96
1, 1257, Note_on_c, 1, 56, 96
1, 1257, Note_on_c, 1, 46, 96
1, 1260, Note_off_c, 1, 82, 96
1, 1260, Note_off_c, 1, 56, 96
1, 1260, Note_off_c, 1, 46, 96
1, 1260, Note_on_c, 1, 75, 96
1, 1260, Note_on_c, 1, 86, 96
1, 1261, Note_off_c, 1, 75, 96
1, 1261, Note_off_c, 1, 86, 96
1, 1265, Note_on_c, 1, 88, 96
1, 1266, Note_off_c, 1, 88, 96
1, 1294, Note_on_c, 1, 88, 96
1, 1295, Note_off_c, 1, 88, 96
1, 1326, Note_on_c, 1, 93, 96
1, 1326, Note_on_c, 1, 60, 96
1, 1326, Note_on_c, 1, 56, 96
1, 1327, Note_off_c, 1, 93, 96
1, 1327, Note_off_c, 1, 60, 96
1, 1327, Note_off_c, 1, 56, 96
1, 1358, Note_on_c, 1, 96, 96
1, 1358, Note_on_c, 1, 92, 96
1, 1359, Note_off_c, 1, 96, 96
1, 1359, Note_off_c, 1, 92, 96
1, 1389, Note_on_c, 1, 48, 96
1, 1389, Note_on_c, 1, 60, 96
1, 1390, Note_off_c, 1, 48, 96
1, 1390, Note_off_c, 1, 60, 96
1, 1420, Note_on_c, 1, 96, 96
1, 1421, Note_off_c, 1, 96, 96
1, 1451, Note_on_c, 1, 57, 96
1, 1455, Note_off_c, 1, 57, 96
1, 1455, Note_on_c, 1, 81, 96
1, 1455, Note_on_c, 1, 60, 96
1, 1455, Note_on_c, 1, 63, 96
1, 1456, Note_off_c, 1, 81, 96
1, 1456, Note_off_c, 1, 60, 96
1, 1456, Note_off_c, 1, 63, 96
1, 1459, Note_on_c, 1, 87, 96
1, 1460, Note_off_c, 1, 87, 96
1, 1490, Note_on_c, 1, 83, 96
1, 1491, Note_off_c, 1, 83, 96
1, 1523, Note_on_c, 1, 84, 96
1, 1523, Note_on_c, 1, 89, 96
1, 1523, Note_on_c, 1, 58, 96
1, 1523, Note_on_c, 1, 46, 96
1, 1524, Note_off_c, 1, 84, 96
1, 1524, Note_off_c, 1, 89, 96
1, 1524, Note_off_c, 1, 58, 96
1, 1524, Note_off_c, 1, 46, 96
1, 1555, Note_on_c, 1, 91, 96
1, 1556, Note_off_c, 1, 91, 96
1, 1584, Note_on_c, 1, 96, 96
1, 1584, Note_on_c, 1, 91, 96
1, 1588, Note_off_c, 1, 96, 96
1, 1588, Note_off_c, 1, 91, 96
1, 1588, Note_on_c, 1, 84, 96
1, 1588, Note_on_c, 1, 62, 96
1, 1588, Note_on_c, 1, 58, 96
1, 1590, Note_off_c, 1, 84, 96
1, 1590, Note_off_c, 1, 62, 96
1, 1590, Note_off_c, 1, 58, 96
1, 1590, Note_on_c, 1, 53, 96
1, 1593, Note_off_c, 1, 53, 96
1, 1593, Note_on_c, 1, 83, 96
1, 1593, Note_on_c, 1, 89, 96
1, 1594, Note_off_c, 1, 83, 96
1, 1594, Note_off_c, 1, 89, 96
1, 1654, Note_on_c, 1, 91, 96
1, 1654, Note_on_c, 1, 96, 96
1, 1654, Note_on_c, 1, 38, 96
1, 1655, Note_off_c, 1, 91, 96
1, 1655, Note_off_c, 1, 96, 96
1, 1655, Note_off_c, 1, 38, 96
1, 1659, Note_on_c, 1, 84, 96
1, 1659, Note_on_c, 1, 91, 96
1, 1659, Note_on_c, 1, 94, 96
1, 1660, Note_off_c, 1, 84, 96
1, 1660, Note_off_c, 1, 91, 96
1, 1660, Note_off_c, 1, 94, 96
1, 1727, Note_on_c, 1, 85, 96
1, 1727, Note_on_c, 1, 82, 96
1, 1727, Note_on_c, 1, 88, 96
1, 1727, Note_on_c, 1, 93, 96
1, 1727, Note_on_c, 1, 67, 96
1, 1727, Note_on_c, 1, 62, 96
1, 1727, Note_on_c, 1, 58, 96
1, 1727, Note_on_c, 1, 53, 96
1, 1728, Note_off_c, 1, 85, 96
1, 1728, Note_off_c, 1, 82, 96
1, 1728, Note_off_c, 1, 88, 96
1, 1728, Note_off_c, 1, 93, 96
1, 1728, Note_off_c, 1, 67, 96
1, 1728, Note_off_c, 1, 62, 96
1, 1728, Note_off_c, 1, 58, 96
1, 1728, Note_off_c, 1, 53, 96
1, 1788, Note_on_c, 1, 76, 96
1, 1789, Note_off_c, 1, 76, 96
1, 1854, Note_on_c, 1, 82, 96
1, 1854, Note_on_c, 1, 91, 96
1, 1854, Note_on_c, 1, 87, 96
1, 1854, Note_on_c, 1, 91, 96
1, 1854, Note_on_c, 1, 82, 96
1, 1854, Note_on_c, 1, 66, 96
1, 1855, Note_off_c, 1, 82, 96
1, 1855, Note_off_c, 1, 91, 96
1, 1855, Note_off_c, 1, 87, 96
1, 1855, Note_off_c, 1, 91, 96
1, 1855, Note_off_c, 1, 82, 96
1, 1855, Note_off_c, 1, 66, 96
1, 1917, Note_on_c, 1, 84, 96
1, 1917, Note_on_c, 1, 94, 96
1, 1917, Note_on_c, 1, 65, 96
1, 1918, Note_off_c, 1, 84, 96
1, 1918, Note_off_c, 1, 94, 96
1, 1918, Note_off_c, 1, 65, 96
1, 1979, Note_on_c, 1, 85, 96
1, 1979, Note_on_c, 1, 82, 96
1, 1980, Note_off_c, 1, 85, 96
1, 1980, Note_off_c, 1, 82, 96
1, 2043, Note_on_c, 1, 89, 96
1, 2043, Note_on_c, 1, 84, 96
1, 2043, Note_on_c, 1, 80, 96
1, 2043, Note_on_c, 1, 65, 96
1, 2044, Note_off_c, 1, 89, 96
1, 2044, Note_off_c, 1, 84, 96
1, 2044, Note_off_c, 1, 80, 96
1, 2044, Note_off_c, 1, 65, 96
1, 2104, Note_on_c, 1, 83, 96
1, 2105, Note_off_c, 1, 83, 96
1, 2167, Note_on_c, 1, 87, 96
1, 2167, Note_on_c, 1, 63, 96
1, 2167, Note_on_c, 1, 60, 96
1, 2168, Note_off_c, 1, 87, 96
1, 2168, Note_off_c, 1, 63, 96
1, 2168, Note_off_c, 1, 60, 96
1, 2229, Note_on_c, 1, 87, 96
1, 2229, Note_on_c, 1, 82, 96
1, 2230, Note_off_c, 1, 87, 96
1, 2230, Note_off_c, 1, 82, 96
1, 2296, Note_on_c, 1, 84, 96
1, 2296, Note_on_c, 1, 78, 96
1, 2296, Note_on_c, 1, 75, 96
1, 2296, Note_on_c, 1, 57, 96
1, 2296, Note_on_c, 1, 66, 96
1, 2296, Note_on_c, 1, 60, 96
1, 2296, Note_on_c, 1, 63, 96
1, 2297, Note_off_c, 1, 84, 96
1, 2297, Note_off_c, 1, 78, 96
1, 2297, Note_off_c, 1, 75, 96
1, 2297, Note_off_c, 1, 57, 96
1, 2297, Note_off_c, 1, 66, 96
1, 2297, Note_off_c, 1, 60, 96
1, 2297, Note_off_c, 1, 63, 96
1, 2422, Note_on_c, 1, 86, 96
1, 2422, Note_on_c, 1, 78, 96
1, 2422, Note_on_c, 1, 74, 96
1, 2422, Note_on_c, 1, 81, 96
1, 2422, Note_on_c, 1, 42, 96
1, 2422, Note_on_c, 1, 54, 96
1, 2423, Note_off_c, 1, 86, 96
1, 2423, Note_off_c, 1, 78, 96
1, 2423, Note_off_c, 1, 74, 96
1, 2423, Note_off_c, 1, 81, 96
1, 2423, Note_off_c, 1, 42, 96
1, 2423, Note_off_c, 1, 54, 96
1, 2485, Note_on_c, 1, 86, 96
1, 2485, Note_on_c, 1, 81, 96
1, 2485, Note_on_c, 1, 74, 96
1, 2486, Note_off_c, 1, 86, 96
1, 2486, Note_off_c, 1, 81, 96
1, 2486, Note_off_c, 1, 74, 96
1, 2550, Note_on_c, 1, 75, 96
1, 2550, Note_on_c, 1, 81, 96
1, 2550, Note_on_c, 1, 78, 96
1, 2550, Note_on_c, 1, 57, 96
1, 2550, Note_on_c, 1, 45, 96
1, 2551, Note_off_c, 1, 75, 96
1, 2551, Note_off_c, 1, 81, 96
1, 2551, Note_off_c, 1, 78, 96
1, 2551, Note_off_c, 1, 57, 96
1, 2551, Note_off_c, 1, 45, 96
1, 2612, Note_on_c, 1, 78, 96
1, 2612, Note_on_c, 1, 90, 96
1, 2613, Note_off_c, 1, 78, 96
1, 2613, Note_off_c, 1, 90, 96
1, 2678, Note_on_c, 1, 78, 96
1, 2678, Note_on_c, 1, 90, 96
1, 2678, Note_on_c, 1, 62, 96
1, 2678, Note_on_c, 1, 54, 96
1, 2678, Note_on_c, 1, 50, 96
1, 2678, Note_on_c, 1, 60, 96
1, 2679, Note_off_c, 1, 78, 96
1, 2679, Note_off_c, 1, 90, 96
1, 2679, Note_off_c, 1, 62, 96
1, 2679, Note_off_c, 1, 54, 96
1, 2679, Note_off_c, 1, 50, 96
1, 2679, Note_off_c, 1, 60, 96
1, 2740, Note_on_c, 1, 78, 96
1, 2740, Note_on_c, 1, 90, 96
1, 2741, Note_off_c, 1, 78, 96
1, 2741, Note_off_c, 1, 90, 96
1, 2803, Note_on_c, 1, 57, 96
1, 2803, Note_on_c, 1, 62, 96
1, 2803, Note_on_c, 1, 54, 96
1, 2804, Note_off_c, 1, 57, 96
1, 2804, Note_off_c, 1, 62, 96
1, 2804, Note_off_c, 1, 54, 96
1, 2866, Note_on_c, 1, 82, 96
1, 2866, Note_on_c, 1, 94, 96
1, 2866, Note_on_c, 1, 91, 96
1, 2867, Note_off_c, 1, 82, 96
1, 2867, Note_off_c, 1, 94, 96
1, 2867, Note_off_c, 1, 91, 96
1, 2929, Note_on_c, 1, 55, 96
1, 2929, Note_on_c, 1, 58, 96
1, 2929, Note_on_c, 1, 62, 96
1, 2930, Note_off_c, 1, 55, 96
1, 2930, Note_off_c, 1, 58, 96
1, 2930, Note_off_c, 1, 62, 96
1, 3056, Note_on_c, 1, 77, 96
1, 3056, Note_on_c, 1, 70, 96
1, 3056, Note_on_c, 1, 74, 96
1, 3056, Note_on_c, 1, 65, 96
1, 3056, Note_on_c, 1, 62, 96
1, 3056, Note_on_c, 1, 58, 96
1, 3056, Note_on_c, 1, 53, 96
1, 3057, Note_off_c, 1, 77, 96
1, 3057, Note_off_c, 1, 70, 96
1, 3057, Note_off_c, 1, 74, 96
1, 3057, Note_off_c, 1, 65, 96
1, 3057, Note_off_c, 1, 62, 96
1, 3057, Note_off_c, 1, 58, 96
1, 3057, Note_off_c, 1, 53, 96
1, 3181, Note_on_c, 1, 76, 96
1, 3181, Note_on_c, 1, 69, 96
1, 3181, Note_on_c, 1, 62, 96
1, 3181, Note_on_c, 1, 65, 96
1, 3181, Note_on_c, 1, 59, 96
1, 3182, Note_off_c, 1, 76, 96
1, 3182, Note_off_c, 1, 69, 96
1, 3182, Note_off_c, 1, 62, 96
1, 3182, Note_off_c, 1, 65, 96
1, 3182, Note_off_c, 1, 59, 96
1, 3244, Note_on_c, 1, 77, 96
1, 3244, Note_on_c, 1, 71, 96
1, 3244, Note_on_c, 1, 67, 96
1, 3245, Note_off_c, 1, 77, 96
1, 3245, Note_off_c, 1, 71, 96
1, 3245, Note_off_c, 1, 67, 96
1, 3306, Note_on_c, 1, 55, 96
1, 3306, Note_on_c, 1, 43, 96
1, 3307, Note_off_c, 1, 55, 96
1, 3307, Note_off_c, 1, 43, 96
1, 3368, Note_on_c, 1, 76, 96
1, 3368, Note_on_c, 1, 71, 96
1, 3369, Note_off_c, 1, 76, 96
1, 3369, Note_off_c, 1, 71, 96
1, 3431, Note_on_c, 1, 55, 96
1, 3431, Note_on_c, 1, 60, 96
1, 3431, Note_on_c, 1, 64, 96
1, 3432, Note_off_c, 1, 55, 96
1, 3432, Note_off_c, 1, 60, 96
1, 3432, Note_off_c, 1, 64, 96
1, 3553, Note_on_c, 1, 57, 96
1, 3553, Note_on_c, 1, 45, 96
1, 3554, Note_off_c, 1, 57, 96
1, 3554, Note_off_c, 1, 45, 96
1, 3677, Note_on_c, 1, 79, 96
1, 3677, Note_on_c, 1, 77, 96
1, 3677, Note_on_c, 1, 71, 96
1, 3677, Note_on_c, 1, 47, 96
1, 3678, Note_off_c, 1, 79, 96
1, 3678, Note_off_c, 1, 77, 96
1, 3678, Note_off_c, 1, 71, 96
1, 3678, Note_off_c, 1, 47, 96
1, 3803, Note_on_c, 1, 68, 96
1, 3803, Note_on_c, 1, 77, 96
1, 3803, Note_on_c, 1, 71, 96
1, 3803, Note_on_c, 1, 80, 96
1, 3803, Note_on_c, 1, 37, 96
1, 3803, Note_on_c, 1, 52, 96
1, 3804, Note_off_c, 1, 68, 96
1, 3804, Note_off_c, 1, 77, 96
1, 3804, Note_off_c, 1, 71, 96
1, 3804, Note_off_c, 1, 80, 96
1, 3804, Note_off_c, 1, 37, 96
1, 3804, Note_off_c, 1, 52, 96
1, 3924, Note_on_c, 1, 76, 96
1, 3925, Note_off_c, 1, 76, 96
1, 3987, Note_on_c, 1, 77, 96
1, 3987, Note_on_c, 1, 70, 96
1, 3987, Note_on_c, 1, 46, 96
1, 3988, Note_off_c, 1, 77, 96
1, 3988, Note_off_c, 1, 70, 96
1, 3988, Note_off_c, 1, 46, 96
1, 4048, Note_on_c, 1, 72, 96
1, 4049, Note_off_c, 1, 72, 96
1, 4113, Note_on_c, 1, 77, 96
1, 4113, Note_on_c, 1, 62, 96
1, 4113, Note_on_c, 1, 58, 96
1, 4113, Note_on_c, 1, 56, 96
1, 4113, Note_on_c, 1, 53, 96
1, 4114, Note_off_c, 1, 77, 96
1, 4114, Note_off_c, 1, 62, 96
1, 4114, Note_off_c, 1, 58, 96
1, 4114, Note_off_c, 1, 56, 96
1, 4114, Note_off_c, 1, 53, 96
1, 4174, Note_on_c, 1, 76, 96
1, 4175, Note_off_c, 1, 76, 96
1, 4237, Note_on_c, 1, 81, 96
1, 4237, Note_on_c, 1, 50, 96
1, 4237, Note_on_c, 1, 38, 96
1, 4238, Note_off_c, 1, 81, 96
1, 4238, Note_off_c, 1, 50, 96
1, 4238, Note_off_c, 1, 38, 96
1, 4298, Note_on_c, 1, 83, 96
1, 4299, Note_off_c, 1, 83, 96
1, 4362, Note_on_c, 1, 81, 96
1, 4362, Note_on_c, 1, 60, 96
1, 4362, Note_on_c, 1, 55, 96
1, 4362, Note_on_c, 1, 52, 96
1, 4363, Note_off_c, 1, 81, 96
1, 4363, Note_off_c, 1, 60, 96
1, 4363, Note_off_c, 1, 55, 96
1, 4363, Note_off_c, 1, 52, 96
1, 4424, Note_on_c, 1, 84, 96
1, 4424, Note_on_c, 1, 72, 96
1, 4425, Note_off_c, 1, 84, 96
1, 4425, Note_off_c, 1, 72, 96
1, 4488, Note_on_c, 1, 81, 96
1, 4488, Note_on_c, 1, 78, 96
1, 4488, Note_on_c, 1, 35, 96
1, 4488, Note_on_c, 1, 47, 96
1, 4489, Note_off_c, 1, 81, 96
1, 4489, Note_off_c, 1, 78, 96
1, 4489, Note_off_c, 1, 35, 96
1, 4489, Note_off_c, 1, 47, 96
1, 4551, Note_on_c, 1, 86, 96
1, 4551, Note_on_c, 1, 79, 96
1, 4551, Note_on_c, 1, 74, 96
1, 4552, Note_off_c, 1, 86, 96
1, 4552, Note_off_c, 1, 79, 96
1, 4552, Note_off_c, 1, 74, 96
1, 4616, Note_on_c, 1, 77, 96
1, 4616, Note_on_c, 1, 83, 96
1, 4616, Note_on_c, 1, 55, 96
1, 4616, Note_on_c, 1, 60, 96
1, 4616, Note_on_c, 1, 65, 96
1, 4617, Note_off_c, 1, 77, 96
1, 4617, Note_off_c, 1, 83, 96
1, 4617, Note_off_c, 1, 55, 96
1, 4617, Note_off_c, 1, 60, 96
1, 4617, Note_off_c, 1, 65, 96
1, 4679, Note_on_c, 1, 86, 96
1, 4679, Note_on_c, 1, 77, 96
1, 4679, Note_on_c, 1, 74, 96
1, 4680, Note_off_c, 1, 86, 96
1, 4680, Note_off_c, 1, 77, 96
1, 4680, Note_off_c, 1, 74, 96
1, 4742, Note_on_c, 1, 67, 96
1, 4742, Note_on_c, 1, 60, 96
1, 4742, Note_on_c, 1, 57, 96
1, 4743, Note_off_c, 1, 67, 96
1, 4743, Note_off_c, 1, 60, 96
1, 4743, Note_off_c, 1, 57, 96
1, 4867, Note_on_c, 1, 71, 96
1, 4867, Note_on_c, 1, 77, 96
1, 4867, Note_on_c, 1, 65, 96
1, 4867, Note_on_c, 1, 43, 96
1, 4867, Note_on_c, 1, 55, 96
1, 4868, Note_off_c, 1, 71, 96
1, 4868, Note_off_c, 1, 77, 96
1, 4868, Note_off_c, 1, 65, 96
1, 4868, Note_off_c, 1, 43, 96
1, 4868, Note_off_c, 1, 55, 96
1, 4991, Note_on_c, 1, 72, 96
1, 4991, Note_on_c, 1, 76, 96
1, 4991, Note_on_c, 1, 36, 96
1, 4991, Note_on_c, 1, 48, 96
1, 4992, Note_off_c, 1, 72, 96
1, 4992, Note_off_c, 1, 76, 96
1, 4992, Note_off_c, 1, 36, 96
1, 4992, Note_off_c, 1, 48, 96
1, 5054, Note_on_c, 1, 67, 96
1, 5054, Note_on_c, 1, 72, 96
1, 5054, Note_on_c, 1, 77, 96
1, 5055, Note_off_c, 1, 67, 96
1, 5055, Note_off_c, 1, 72, 96
1, 5055, Note_off_c, 1, 77, 96
1, 5117, Note_on_c, 1, 56, 96
1, 5117, Note_on_c, 1, 60, 96
1, 5117, Note_on_c, 1, 65, 96
1, 5118, Note_off_c, 1, 56, 96
1, 5118, Note_off_c, 1, 60, 96
1, 5118, Note_off_c, 1, 65, 96
1, 5180, Note_on_c, 1, 65, 96
1, 5180, Note_on_c, 1, 72, 96
1, 5180, Note_on_c, 1, 68, 96
1, 5181, Note_off_c, 1, 65, 96
1, 5181, Note_off_c, 1, 72, 96
1, 5181, Note_off_c, 1, 68, 96
1, 5242, Note_on_c, 1, 57, 96
1, 5242, Note_on_c, 1, 45, 96
1, 5243, Note_off_c, 1, 57, 96
1, 5243, Note_off_c, 1, 45, 96
1, 5304, Note_on_c, 1, 73, 96
1, 5304, Note_on_c, 1, 76, 96
1, 5305, Note_off_c, 1, 73, 96
1, 5305, Note_off_c, 1, 76, 96
1, 5366, Note_on_c, 1, 49, 96
1, 5366, Note_on_c, 1, 37, 96
1, 5367, Note_off_c, 1, 49, 96
1, 5367, Note_off_c, 1, 37, 96
1, 5427, Note_on_c, 1, 76, 96
1, 5428, Note_off_c, 1, 76, 96
1, 5492, Note_on_c, 1, 77, 96
1, 5492, Note_on_c, 1, 65, 96
1, 5492, Note_on_c, 1, 73, 96
1, 5492, Note_on_c, 1, 61, 96
1, 5492, Note_on_c, 1, 57, 96
1, 5493, Note_off_c, 1, 77, 96
1, 5493, Note_off_c, 1, 65, 96
1, 5493, Note_off_c, 1, 73, 96
1, 5493, Note_off_c, 1, 61, 96
1, 5493, Note_off_c, 1, 57, 96
1, 5615, Note_on_c, 1, 79, 96
1, 5615, Note_on_c, 1, 73, 96
1, 5615, Note_on_c, 1, 46, 96
1, 5616, Note_off_c, 1, 79, 96
1, 5616, Note_off_c, 1, 73, 96
1, 5616, Note_off_c, 1, 46, 96
1, 5811, Note_on_c, 1, 67, 96
1, 5811, Note_on_c, 1, 79, 96
1, 5812, Note_off_c, 1, 67, 96
1, 5812, Note_off_c, 1, 79, 96
1, 6010, Note_on_c, 1, 73, 96
1, 6010, Note_on_c, 1, 85, 96
1, 6010, Note_on_c, 1, 49, 96
1, 6011, Note_off_c, 1, 73, 96
1, 6011, Note_off_c, 1, 85, 96
1, 6011, Note_off_c, 1, 49, 96
1, 6260, Note_on_c, 1, 80, 96
1, 6261, Note_off_c, 1, 80, 96
1, 6454, Note_on_c, 1, 88, 96
1, 6454, Note_on_c, 1, 85, 96
1, 6454, Note_on_c, 1, 73, 96
1, 6454, Note_on_c, 1, 47, 96
1, 6454, Note_on_c, 1, 59, 96
1, 6454, Note_on_c, 1, 62, 96
1, 6455, Note_off_c, 1, 88, 96
1, 6455, Note_off_c, 1, 85, 96
1, 6455, Note_off_c, 1, 73, 96
1, 6455, Note_off_c, 1, 47, 96
1, 6455, Note_off_c, 1, 59, 96
1, 6455, Note_off_c, 1, 62, 96
1, 6615, Note_on_c, 1, 85, 96
1, 6616, Note_off_c, 1, 85, 96
1, 6741, Note_on_c, 1, 75, 96
1, 6741, Note_on_c, 1, 87, 96
1, 6741, Note_on_c, 1, 66, 96
1, 6741, Note_on_c, 1, 56, 96
1, 6741, Note_on_c, 1, 60, 96
1, 6742, Note_off_c, 1, 75, 96
1, 6742, Note_off_c, 1, 87, 96
1, 6742, Note_off_c, 1, 66, 96
1, 6742, Note_off_c, 1, 56, 96
1, 6742, Note_off_c, 1, 60, 96
1, 6941, Note_on_c, 1, 77, 96
1, 6941, Note_on_c, 1, 80, 96
1, 6941, Note_on_c, 1, 71, 96
1, 6941, Note_on_c, 1, 68, 96
1, 6941, Note_on_c, 1, 49, 96
1, 6941, Note_on_c, 1, 37, 96
1, 6942, Note_off_c, 1, 77, 96
1, 6942, Note_off_c, 1, 80, 96
1, 6942, Note_off_c, 1, 71, 96
1, 6942, Note_off_c, 1, 68, 96
1, 6942, Note_off_c, 1, 49, 96
1, 6942, Note_off_c, 1, 37, 96
1, 7190, Note_on_c, 1, 75, 96
1, 7190, Note_on_c, 1, 67, 96
1, 7190, Note_on_c, 1, 48, 96
1, 7190, Note_on_c, 1, 72, 96
1, 7191, Note_off_c, 1, 75, 96
1, 7191, Note_off_c, 1, 67, 96
1, 7191, Note_off_c, 1, 48, 96
1, 7191, Note_off_c, 1, 72, 96
1, 7435, Note_on_c, 1, 82, 96
1, 7435, Note_on_c, 1, 78, 96
1, 7435, Note_on_c, 1, 75, 96
1, 7436, Note_off_c, 1, 82, 96
1, 7436, Note_off_c, 1, 78, 96
1, 7436, Note_off_c, 1, 75, 96
1, 7598, Note_on_c, 1, 84, 96
1, 7598, Note_on_c, 1, 79, 96
1, 7599, Note_off_c, 1, 84, 96
1, 7599, Note_off_c, 1, 79, 96
1, 7793, Note_on_c, 1, 74, 96
1, 7793, Note_on_c, 1, 71, 96
1, 7793, Note_on_c, 1, 83, 96
1, 7793, Note_on_c, 1, 56, 96
1, 7794, Note_off_c, 1, 74, 96
1, 7794, Note_off_c, 1, 71, 96
1, 7794, Note_off_c, 1, 83, 96
1, 7794, Note_off_c, 1, 56, 96
1, 7855, Note_on_c, 1, 90, 96
1, 7855, Note_on_c, 1, 78, 96
1, 7856, Note_off_c, 1, 90, 96
1, 7856, Note_off_c, 1, 78, 96
1, 7919, Note_on_c, 1, 57, 96
1, 7919, Note_on_c, 1, 54, 96
1, 7919, Note_on_c, 1, 63, 96
1, 7919, Note_on_c, 1, 59, 96
1, 7920, Note_off_c, 1, 57, 96
1, 7920, Note_off_c, 1, 54, 96
1, 7920, Note_off_c, 1, 63, 96
1, 7920, Note_off_c, 1, 59, 96
1, 7980, Note_on_c, 1, 82, 96
1, 7981, Note_off_c, 1, 82, 96
1, 8043, Note_on_c, 1, 84, 96
1, 8043, Note_on_c, 1, 77, 96
1, 8043, Note_on_c, 1, 44, 96
1, 8044, Note_off_c, 1, 84, 96
1, 8044, Note_off_c, 1, 77, 96
1, 8044, Note_off_c, 1, 44, 96
1, 8106, Note_on_c, 1, 74, 96
1, 8106, Note_on_c, 1, 80, 96
1, 8106, Note_on_c, 1, 77, 96
1, 8107, Note_off_c, 1, 74, 96
1, 8107, Note_off_c, 1, 80, 96
1, 8107, Note_off_c, 1, 77, 96
1, 8169, Note_on_c, 1, 76, 96
1, 8169, Note_on_c, 1, 60, 96
1, 8169, Note_on_c, 1, 45, 96
1, 8170, Note_off_c, 1, 76, 96
1, 8170, Note_off_c, 1, 60, 96
1, 8170, Note_off_c, 1, 45, 96
1, 8231, Note_on_c, 1, 82, 96
1, 8231, Note_on_c, 1, 73, 96
1, 8232, Note_off_c, 1, 82, 96
1, 8232, Note_off_c, 1, 73, 96
1, 8293, Note_on_c, 1, 48, 96
1, 8293, Note_on_c, 1, 60, 96
1, 8294, Note_off_c, 1, 48, 96
1, 8294, Note_off_c, 1, 60, 96
1, 8415, Note_on_c, 1, 87, 96
1, 8415, Note_on_c, 1, 41, 96
1, 8416, Note_off_c, 1, 87, 96
1, 8416, Note_off_c, 1, 41, 96
1, 8476, Note_on_c, 1, 79, 96
1, 8477, Note_off_c, 1, 79, 96
1, 8540, Note_on_c, 1, 84, 96
1, 8540, Note_on_c, 1, 57, 96
1, 8540, Note_on_c, 1, 63, 96
1, 8540, Note_on_c, 1, 53, 96
1, 8541, Note_off_c, 1, 84, 96
1, 8541, Note_off_c, 1, 57, 96
1, 8541, Note_off_c, 1, 63, 96
1, 8541, Note_off_c, 1, 53, 96
1, 8601, Note_on_c, 1, 82, 96
1, 8602, Note_off_c, 1, 82, 96
1, 8662, Note_on_c, 1, 86, 96
1, 8663, Note_off_c, 1, 86, 96
1, 8723, Note_on_c, 1, 80, 96
1, 8724, Note_off_c, 1, 80, 96
1, 8787, Note_on_c, 1, 79, 96
1, 8787, Note_on_c, 1, 58, 96
1, 8787, Note_on_c, 1, 62, 96
1, 8787, Note_on_c, 1, 53, 96
1, 8788, Note_off_c, 1, 79, 96
1, 8788, Note_off_c, 1, 58, 96
1, 8788, Note_off_c, 1, 62, 96
1, 8788, Note_off_c, 1, 53, 96
1, 8848, Note_on_c, 1, 75, 96
1, 8849, Note_off_c, 1, 75, 96
1, 8911, Note_on_c, 1, 65, 96
1, 8911, Note_on_c, 1, 56, 96
1, 8911, Note_on_c, 1, 68, 96
1, 8912, Note_off_c, 1, 65, 96
1, 8912, Note_off_c, 1, 56, 96
1, 8912, Note_off_c, 1, 68, 96
1, 8972, Note_on_c, 1, 70, 96
1, 8973, Note_off_c, 1, 70, 96
1, 9033, Note_on_c, 1, 65, 96
1, 9034, Note_off_c, 1, 65, 96
1, 9094, Note_on_c, 1, 72, 96
1, 9095, Note_off_c, 1, 72, 96
1, 9159, Note_on_c, 1, 74, 96
1, 9159, Note_on_c, 1, 77, 96
1, 9159, Note_on_c, 1, 74, 96
1, 9159, Note_on_c, 1, 68, 96
1, 9159, Note_on_c, 1, 46, 96
1, 9160, Note_off_c, 1, 74, 96
1, 9160, Note_off_c, 1, 77, 96
1, 9160, Note_off_c, 1, 74, 96
1, 9160, Note_off_c, 1, 68, 96
1, 9160, Note_off_c, 1, 46, 96
1, 9281, Note_on_c, 1, 46, 96
1, 9281, Note_on_c, 1, 34, 96
1, 9282, Note_off_c, 1, 46, 96
1, 9282, Note_off_c, 1, 34, 96
1, 9405, Note_on_c, 1, 75, 96
1, 9405, Note_on_c, 1, 72, 96
1, 9405, Note_on_c, 1, 68, 96
1, 9405, Note_on_c, 1, 44, 96
1, 9406, Note_off_c, 1, 75, 96
1, 9406, Note_off_c, 1, 72, 96
1, 9406, Note_off_c, 1, 68, 96
1, 9406, Note_off_c, 1, 44, 96
1, 9467, Note_on_c, 1, 61, 96
1, 9467, Note_on_c, 1, 49, 96
1, 9468, Note_off_c, 1, 61, 96
1, 9468, Note_off_c, 1, 49, 96
1, 9530, Note_on_c, 1, 77, 96
1, 9530, Note_on_c, 1, 65, 96
1, 9530, Note_on_c, 1, 39, 96
1, 9531, Note_off_c, 1, 77, 96
1, 9531, Note_off_c, 1, 65, 96
1, 9531, Note_off_c, 1, 39, 96
1, 9592, Note_on_c, 1, 82, 96
1, 9592, Note_on_c, 1, 73, 96
1, 9593, Note_off_c, 1, 82, 96
1, 9593, Note_off_c, 1, 73, 96
1, 9654, Note_on_c, 1, 51, 96
1, 9654, Note_on_c, 1, 39, 96
1, 9655, Note_off_c, 1, 51, 96
1, 9655, Note_off_c, 1, 39, 96
1, 9716, Note_on_c, 1, 82, 96
1, 9716, Note_on_c, 1, 73, 96
1, 9717, Note_off_c, 1, 82, 96
1, 9717, Note_off_c, 1, 73, 96
1, 9777, Note_on_c, 1, 49, 96
1, 9778, Note_off_c, 1, 49, 96
1, 9838, Note_on_c, 1, 73, 96
1, 9839, Note_off_c, 1, 73, 96
1, 9901, Note_on_c, 1, 58, 96
1, 9901, Note_on_c, 1, 53, 96
1, 9901, Note_on_c, 1, 61, 96
1, 9902, Note_off_c, 1, 58, 96
1, 9902, Note_off_c, 1, 53, 96
1, 9902, Note_off_c, 1, 61, 96
1, 9963, Note_on_c, 1, 75, 96
1, 9963, Note_on_c, 1, 73, 96
1, 9964, Note_off_c, 1, 75, 96
1, 9964, Note_off_c, 1, 73, 96
1, 10025, Note_on_c, 1, 49, 96
1, 10025, Note_on_c, 1, 37, 96
1, 10026, Note_off_c, 1, 49, 96
1, 10026, Note_off_c, 1, 37, 96
1, 10149, Note_on_c, 1, 53, 96
1, 10149, Note_on_c, 1, 56, 96
1, 10149, Note_on_c, 1, 58, 96
1, 10149, Note_on_c, 1, 61, 96
1, 10150, Note_off_c, 1, 53, 96
1, 10150, Note_off_c, 1, 56, 96
1, 10150, Note_off_c, 1, 58, 96
1, 10150, Note_off_c, 1, 61, 96
1, 10273, Note_on_c, 1, 72, 96
1, 10273, Note_on_c, 1, 79, 96
1, 10273, Note_on_c, 1, 43, 96
1, 10273, Note_on_c, 1, 55, 96
1, 10274, Note_off_c, 1, 72, 96
1, 10274, Note_off_c, 1, 79, 96
1, 10274, Note_off_c, 1, 43, 96
1, 10274, Note_off_c, 1, 55, 96
1, 10397, Note_on_c, 1, 83, 96
1, 10397, Note_on_c, 1, 79, 96
1, 10397, Note_on_c, 1, 59, 96
1, 10397, Note_on_c, 1, 47, 96
1, 10398, Note_off_c, 1, 83, 96
1, 10398, Note_off_c, 1, 79, 96
1, 10398, Note_off_c, 1, 59, 96
1, 10398, Note_off_c, 1, 47, 96
1, 10522, Note_on_c, 1, 75, 96
1, 10522, Note_on_c, 1, 53, 96
1, 10522, Note_on_c, 1, 63, 96
1, 10522, Note_on_c, 1, 60, 96
1, 10522, Note_on_c, 1, 56, 96
1, 10523, Note_off_c, 1, 75, 96
1, 10523, Note_off_c, 1, 53, 96
1, 10523, Note_off_c, 1, 63, 96
1, 10523, Note_off_c, 1, 60, 96
1, 10523, Note_off_c, 1, 56, 96
1, 10583, Note_on_c, 1, 75, 96
1, 10584, Note_off_c, 1, 75, 96
1, 10646, Note_on_c, 1, 56, 96
1, 10646, Note_on_c, 1, 44, 96
1, 10646, Note_on_c, 1, 77, 96
1, 10647, Note_off_c, 1, 56, 96
1, 10647, Note_off_c, 1, 44, 96
1, 10647, Note_off_c, 1, 77, 96
1, 10707, Note_on_c, 1, 72, 96
1, 10708, Note_off_c, 1, 72, 96
1, 10771, Note_on_c, 1, 72, 96
1, 10771, Note_on_c, 1, 60, 96
1, 10771, Note_on_c, 1, 56, 96
1, 10771, Note_on_c, 1, 51, 96
1, 10772, Note_off_c, 1, 72, 96
1, 10772, Note_off_c, 1, 60, 96
1, 10772, Note_off_c, 1, 56, 96
1, 10772, Note_off_c, 1, 51, 96
1, 10832, Note_on_c, 1, 77, 96
1, 10833, Note_off_c, 1, 77, 96
1, 10894, Note_on_c, 1, 44, 96
1, 10894, Note_on_c, 1, 56, 96
1, 10895, Note_off_c, 1, 44, 96
1, 10895, Note_off_c, 1, 56, 96
1, 10955, Note_on_c, 1, 72, 96
1, 10956, Note_off_c, 1, 72, 96
1, 11019, Note_on_c, 1, 80, 96
1, 11019, Note_on_c, 1, 63, 96
1, 11019, Note_on_c, 1, 60, 96
1, 11019, Note_on_c, 1, 56, 96
1, 11020, Note_off_c, 1, 80, 96
1, 11020, Note_off_c, 1, 63, 96
1, 11020, Note_off_c, 1, 60, 96
1, 11020, Note_off_c, 1, 56, 96
1, 11080, Note_on_c, 1, 84, 96
1, 11081, Note_off_c, 1, 84, 96
1, 11141, Note_on_c, 1, 82, 96
1, 11142, Note_off_c, 1, 82, 96
1, 11202, Note_on_c, 1, 80, 96
1, 11203, Note_off_c, 1, 80, 96
1, 11265, Note_on_c, 1, 80, 96
1, 11265, Note_on_c, 1, 54, 96
1, 11265, Note_on_c, 1, 42, 96
1, 11266, Note_off_c, 1, 80, 96
1, 11266, Note_off_c, 1, 54, 96
1, 11266, Note_off_c, 1, 42, 96
1, 11326, Note_on_c, 1, 82, 96
1, 11327, Note_off_c, 1, 82, 96
1, 11391, Note_on_c, 1, 78, 96
1, 11391, Note_on_c, 1, 75, 96
1, 11391, Note_on_c, 1, 63, 96
1, 11391, Note_on_c, 1, 58, 96
1, 11391, Note_on_c, 1, 55, 96
1, 11392, Note_off_c, 1, 78, 96
1, 11392, Note_off_c, 1, 75, 96
1, 11392, Note_off_c, 1, 63, 96
1, 11392, Note_off_c, 1, 58, 96
1, 11392, Note_off_c, 1, 55, 96
1, 11513, Note_on_c, 1, 41, 96
1, 11513, Note_on_c, 1, 53, 96
1, 11514, Note_off_c, 1, 41, 96
1, 11514, Note_off_c, 1, 53, 96
1, 11635, Note_on_c, 1, 50, 96
1, 11635, Note_on_c, 1, 62, 96
1, 11636, Note_off_c, 1, 50, 96
1, 11636, Note_off_c, 1, 62, 96
1, 11830, Note_on_c, 1, 66, 96
1, 11831, Note_off_c, 1, 66, 96
1, 11892, Note_on_c, 1, 37, 96
1, 11892, Note_on_c, 1, 49, 96
1, 11893, Note_off_c, 1, 37, 96
1, 11893, Note_off_c, 1, 49, 96
1, 12015, Note_on_c, 1, 44, 96
1, 12015, Note_on_c, 1, 60, 96
1, 12015, Note_on_c, 1, 56, 96
1, 12016, Note_off_c, 1, 44, 96
1, 12016, Note_off_c, 1, 60, 96
1, 12016, Note_off_c, 1, 56, 96
1, 12196, Note_on_c, 1, 48, 96
1, 12197, Note_off_c, 1, 48, 96
1, 12277, Note_on_c, 1, 70, 96
1, 12278, Note_off_c, 1, 70, 96
1, 12382, Note_on_c, 1, 72, 96
1, 12382, Note_on_c, 1, 74, 96
1, 12382, Note_on_c, 1, 84, 96
1, 12382, Note_on_c, 1, 48, 96
1, 12383, Note_off_c, 1, 72, 96
1, 12383, Note_off_c, 1, 74, 96
1, 12383, Note_off_c, 1, 84, 96
1, 12383, Note_off_c, 1, 48, 96
1, 12431, Note_on_c, 1, 60, 96
1, 12432, Note_off_c, 1, 60, 96
1, 12481, Note_on_c, 1, 69, 96
1, 12481, Note_on_c, 1, 57, 96
1, 12482, Note_off_c, 1, 69, 96
1, 12482, Note_off_c, 1, 57, 96
1, 12531, Note_on_c, 1, 69, 96
1, 12531, Note_on_c, 1, 60, 96
1, 12532, Note_off_c, 1, 69, 96
1, 12532, Note_off_c, 1, 60, 96
1, 12583, Note_on_c, 1, 77, 96
1, 12583, Note_on_c, 1, 53, 96
1, 12583, Note_on_c, 1, 57, 96
1, 12583, Note_on_c, 1, 63, 96
1, 12584, Note_off_c, 1, 77, 96
1, 12584, Note_off_c, 1, 53, 96
1, 12584, Note_off_c, 1, 57, 96
1, 12584, Note_off_c, 1, 63, 96
1, 12632, Note_on_c, 1, 75, 96
1, 12633, Note_off_c, 1, 75, 96
1, 12682, Note_on_c, 1, 74, 96
1, 12682, Note_on_c, 1, 46, 96
1, 12683, Note_off_c, 1, 74, 96
1, 12683, Note_off_c, 1, 46, 96
1, 12782, Note_on_c, 1, 65, 96
1, 12782, Note_on_c, 1, 53, 96
1, 12782, Note_on_c, 1, 58, 96
1, 12782, Note_on_c, 1, 62, 96
1, 12783, Note_off_c, 1, 65, 96
1, 12783, Note_off_c, 1, 53, 96
1, 12783, Note_off_c, 1, 58, 96
1, 12783, Note_off_c, 1, 62, 96
1, 12831, Note_on_c, 1, 66, 96
1, 12832, Note_off_c, 1, 66, 96
1, 12882, Note_on_c, 1, 64, 96
1, 12882, Note_on_c, 1, 58, 96
1, 12882, Note_on_c, 1, 55, 96
1, 12883, Note_off_c, 1, 64, 96
1, 12883, Note_off_c, 1, 58, 96
1, 12883, Note_off_c, 1, 55, 96
1, 12982, Note_on_c, 1, 63, 96
1, 12982, Note_on_c, 1, 66, 96
1, 12982, Note_on_c, 1, 67, 96
1, 12982, Note_on_c, 1, 51, 96
1, 12983, Note_off_c, 1, 63, 96
1, 12983, Note_off_c, 1, 66, 96
1, 12983, Note_off_c, 1, 67, 96
1, 12983, Note_off_c, 1, 51, 96
1, 13032, Note_on_c, 1, 79, 96
1, 13032, Note_on_c, 1, 67, 96
1, 13033, Note_off_c, 1, 79, 96
1, 13033, Note_off_c, 1, 67, 96
1, 13084, Note_on_c, 1, 67, 96
1, 13084, Note_on_c, 1, 79, 96
1, 13084, Note_on_c, 1, 75, 96
1, 13084, Note_on_c, 1, 70, 96
1, 13085, Note_off_c, 1, 67, 96
1, 13085, Note_off_c, 1, 79, 96
1, 13085, Note_off_c, 1, 75, 96
1, 13085, Note_off_c, 1, 70, 96
1, 13129, Note_on_c, 1, 70, 96
1, 13130, Note_off_c, 1, 70, 96
1, 13181, Note_on_c, 1, 79, 96
1, 13181, Note_on_c, 1, 67, 96
1, 13181, Note_on_c, 1, 55, 96
1, 13181, Note_on_c, 1, 43, 96
1, 13182, Note_off_c, 1, 79, 96
1, 13182, Note_off_c, 1, 67, 96
1, 13182, Note_off_c, 1, 55, 96
1, 13182, Note_off_c, 1, 43, 96
1, 13226, Note_on_c, 1, 70, 96
1, 13227, Note_off_c, 1, 70, 96
1, 13277, Note_on_c, 1, 79, 96
1, 13277, Note_on_c, 1, 74, 96
1, 13277, Note_on_c, 1, 72, 96
1, 13278, Note_off_c, 1, 79, 96
1, 13278, Note_off_c, 1, 74, 96
1, 13278, Note_off_c, 1, 72, 96
1, 13376, Note_on_c, 1, 76, 96
1, 13376, Note_on_c, 1, 79, 96
1, 13376, Note_on_c, 1, 82, 96
1, 13377, Note_off_c, 1, 76, 96
1, 13377, Note_off_c, 1, 79, 96
1, 13377, Note_off_c, 1, 82, 96
1, 13474, Note_on_c, 1, 84, 96
1, 13474, Note_on_c, 1, 76, 96
1, 13475, Note_off_c, 1, 84, 96
1, 13475, Note_off_c, 1, 76, 96
1, 13595, Note_on_c, 1, 58, 96
1, 13596, Note_off_c, 1, 58, 96
1, 13718, Note_on_c, 1, 68, 96
1, 13718, Note_on_c, 1, 77, 96
1, 13718, Note_on_c, 1, 80, 96
1, 13719, Note_off_c, 1, 68, 96
1, 13719, Note_off_c, 1, 77, 96
1, 13719, Note_off_c, 1, 80, 96
1, 13843, Note_on_c, 1, 74, 96
1, 13843, Note_on_c, 1, 74, 96
1, 13843, Note_on_c, 1, 70, 96
1, 13843, Note_on_c, 1, 82, 96
1, 13843, Note_on_c, 1, 62, 96
1, 13844, Note_off_c, 1, 74, 96
1, 13844, Note_off_c, 1, 74, 96
1, 13844, Note_off_c, 1, 70, 96
1, 13844, Note_off_c, 1, 82, 96
1, 13844, Note_off_c, 1, 62, 96
1, 13965, Note_on_c, 1, 65, 96
1, 13965, Note_on_c, 1, 58, 96
1, 13966, Note_off_c, 1, 65, 96
1, 13966, Note_off_c, 1, 58, 96
1, 14086, Note_on_c, 1, 62, 96
1, 14087, Note_off_c, 1, 62, 96
1, 14207, Note_on_c, 1, 55, 96
1, 14208, Note_off_c, 1, 55, 96
1, 14304, Note_on_c, 1, 60, 96
1, 14305, Note_off_c, 1, 60, 96
1, 14309, Note_on_c, 1, 75, 96
1, 14309, Note_on_c, 1, 63, 96
1, 14310, Note_off_c, 1, 75, 96
1, 14310, Note_off_c, 1, 63, 96
1, 14609, Note_on_c, 1, 76, 96
1, 14609, Note_on_c, 1, 43, 96
1, 14609, Note_on_c, 1, 51, 96
1, 14610, Note_off_c, 1, 76, 96
1, 14610, Note_off_c, 1, 43, 96
1, 14610, Note_off_c, 1, 51, 96
1, 14811, Note_on_c, 1, 74, 96
1, 14811, Note_on_c, 1, 71, 96
1, 14811, Note_on_c, 1, 55, 96
1, 14811, Note_on_c, 1, 43, 96
1, 14812, Note_off_c, 1, 74, 96
1, 14812, Note_off_c, 1, 71, 96
1, 14812, Note_off_c, 1, 55, 96
1, 14812, Note_off_c, 1, 43, 96
1, 15357, Note_on_c, 1, 55, 96
1, 15358, Note_off_c, 1, 55, 96
1, 15925, Note_on_c, 1, 36, 96
1, 15925, Note_on_c, 1, 48, 96
1, 15926, Note_off_c, 1, 36, 96
1, 15926, Note_off_c, 1, 48, 96
1, 16299, Note_on_c, 1, 62, 96
1, 16299, Note_on_c, 1, 71, 96
1, 16299, Note_on_c, 1, 74, 96
1, 16300, Note_off_c, 1, 62, 96
1, 16300, Note_off_c, 1, 71, 96
1, 16300, Note_off_c, 1, 74, 96
1, 16538, Note_on_c, 1, 67, 96
1, 16538, Note_on_c, 1, 52, 96
1, 16538, Note_on_c, 1, 55, 96
1, 16539, Note_off_c, 1, 67, 96
1, 16539, Note_off_c, 1, 52, 96
1, 16539, Note_off_c, 1, 55, 96
1, 17331, Note_on_c, 1, 57, 96
1, 17332, Note_off_c, 1, 57, 96
1, 17593, Note_on_c, 1, 45, 96
1, 17594, Note_off_c, 1, 45, 96
1, 17828, Note_on_c, 1, 59, 96
1, 17828, Note_on_c, 1, 36, 96
1, 17829, Note_off_c, 1, 59, 96
1, 17829, Note_off_c, 1, 36, 96
1, 17998, Note_on_c, 1, 69, 96
1, 17998, Note_on_c, 1, 33, 96
1, 17998, Note_on_c, 1, 45, 96
1, 17999, Note_off_c, 1, 69, 96
1, 17999, Note_off_c, 1, 33, 96
1, 17999, Note_off_c, 1, 45, 96
1, 18716, Note_on_c, 1, 62, 96
1, 18717, Note_off_c, 1, 62, 96
1, 19075, Note_on_c, 1, 60, 96
1, 19075, Note_on_c, 1, 62, 96
1, 19075, Note_on_c, 1, 66, 96
1, 19075, Note_on_c, 1, 69, 96
1, 19076, Note_off_c, 1, 60, 96
1, 19076, Note_off_c, 1, 62, 96
1, 19076, Note_off_c, 1, 66, 96
1, 19076, Note_off_c, 1, 69, 96
1, 19301, Note_on_c, 1, 64, 96
1, 19301, Note_on_c, 1, 51, 96
1, 19302, Note_off_c, 1, 64, 96
1, 19302, Note_off_c, 1, 51, 96
1, 19531, Note_on_c, 1, 62, 96
1, 19531, Note_on_c, 1, 60, 96
1, 19531, Note_on_c, 1, 57, 96
1, 19531, Note_on_c, 1, 54, 96
1, 19532, Note_off_c, 1, 62, 96
1, 19532, Note_off_c, 1, 60, 96
1, 19532, Note_off_c, 1, 57, 96
1, 19532, Note_off_c, 1, 54, 96
1, 19979, Note_on_c, 1, 69, 96
1, 19979, Note_on_c, 1, 48, 96
1, 19980, Note_off_c, 1, 69, 96
1, 19980, Note_off_c, 1, 48, 96
1, 20293, Note_on_c, 1, 68, 96
1, 20293, Note_on_c, 1, 55, 96
1, 20294, Note_off_c, 1, 68, 96
1, 20294, Note_off_c, 1, 55, 96
1, 20764, Note_on_c, 1, 60, 96
1, 20765, Note_off_c, 1, 60, 96
1, 20809, Note_on_c, 1, 49, 96
1, 20810, Note_off_c, 1, 49, 96
1, 21176, Note_on_c, 1, 60, 96
1, 21176, Note_on_c, 1, 68, 96
1, 21176, Note_on_c, 1, 60, 96
1, 21176, Note_on_c, 1, 64, 96
1, 21177, Note_off_c, 1, 60, 96
1, 21177, Note_off_c, 1, 68, 96
1, 21177, Note_off_c, 1, 60, 96
1, 21177, Note_off_c, 1, 64, 96
1, 21343, Note_on_c, 1, 60, 96
1, 21343, Note_on_c, 1, 64, 96
1, 21343, Note_on_c, 1, 57, 96
1, 21344, Note_off_c, 1, 60, 96
1, 21344, Note_off_c, 1, 64, 96
1, 21344, Note_off_c, 1, 57, 96
1, 21641, Note_on_c, 1, 60, 96
1, 21641, Note_on_c, 1, 67, 96
1, 21641, Note_on_c, 1, 52, 96
1, 21641, Note_on_c, 1, 43, 96
1, 21642, Note_off_c, 1, 60, 96
1, 21642, Note_off_c, 1, 67, 96
1, 21642, Note_off_c, 1, 52, 96
1, 21642, Note_off_c, 1, 43, 96
1, 21662, Note_on_c, 1, 64, 96
1, 21663, Note_off_c, 1, 64, 96
1, 21790, Note_on_c, 1, 70, 96
1, 21791, Note_off_c, 1, 70, 96
1, 21944, Note_on_c, 1, 46, 96
1, 21945, Note_off_c, 1, 46, 96
1, 22187, Note_on_c, 1, 60, 96
1, 22188, Note_off_c, 1, 60, 96
1, 22335, Note_on_c, 1, 62, 96
1, 22335, Note_on_c, 1, 53, 96
1, 22336, Note_off_c, 1, 62, 96
1, 22336, Note_off_c, 1, 53, 96
1, 22803, Note_on_c, 1, 58, 96
1, 22803, Note_on_c, 1, 65, 96
1, 22803, Note_on_c, 1, 60, 96
1, 22803, Note_on_c, 1, 53, 96
1, 22804, Note_off_c, 1, 58, 96
1, 22804, Note_off_c, 1, 65, 96
1, 22804, Note_off_c, 1, 60, 96
1, 22804, Note_off_c, 1, 53, 96
1, 23044, Note_on_c, 1, 37, 96
1, 23045, Note_off_c, 1, 37, 96
1, 23441, Note_on_c, 1, 58, 96
1, 23441, Note_on_c, 1, 55, 96
1, 23441, Note_on_c, 1, 49, 96
1, 23442, Note_off_c, 1, 58, 96
1, 23442, Note_off_c, 1, 55, 96
1, 23442, Note_off_c, 1, 49, 96
1, 23698, Note_on_c, 1, 71, 96
1, 23699, Note_off_c, 1, 71, 96
1, 23716, Note_on_c, 1, 60, 96
1, 23717, Note_off_c, 1, 60, 96
1, 23787, Note_on_c, 1, 68, 96
1, 23787, Note_on_c, 1, 60, 96
1, 23787, Note_on_c, 1, 65, 96
1, 23787, Note_on_c, 1, 50, 96
1, 23787, Note_on_c, 1, 38, 96
1, 23788, Note_off_c, 1, 68, 96
1, 23788, Note_off_c, 1, 60, 96
1, 23788, Note_off_c, 1, 65, 96
1, 23788, Note_off_c, 1, 50, 96
1, 23788, Note_off_c, 1, 38, 96
1, 23975, Note_on_c, 1, 59, 96
1, 23976, Note_off_c, 1, 59, 96
1, 24163, Note_on_c, 1, 62, 96
1, 24163, Note_on_c, 1, 53, 96
1, 24164, Note_off_c, 1, 62, 96
1, 24164, Note_off_c, 1, 53, 96
1, 24348, Note_on_c, 1, 62, 96
1, 24349, Note_off_c, 1, 62, 96
1, 24500, Note_on_c, 1, 59, 96
1, 24501, Note_off_c, 1, 59, 96
1, 24597, Note_on_c, 1, 70, 96
1, 24598, Note_off_c, 1, 70, 96
1, 24840, Note_on_c, 1, 68, 96
1, 24841, Note_off_c, 1, 68, 96
1, 25080, Note_on_c, 1, 71, 96
1, 25080, Note_on_c, 1, 53, 96
1, 25081, Note_off_c, 1, 71, 96
1, 25081, Note_off_c, 1, 53, 96
1, 25321, Note_on_c, 1, 59, 96
1, 25321, Note_on_c, 1, 65, 96
1, 25321, Note_on_c, 1, 68, 96
1, 25321, Note_on_c, 1, 59, 96
1, 25322, Note_off_c, 1, 59, 96
1, 25322, Note_off_c, 1, 65, 96
1, 25322, Note_off_c, 1, 68, 96
1, 25322, Note_off_c, 1, 59, 96
1, 25673, Note_on_c, 1, 64, 96
1, 25673, Note_on_c, 1, 52, 96
1, 25674, Note_off_c, 1, 64, 96
1, 25674, Note_off_c, 1, 52, 96
1, 25897, Note_on_c, 1, 60, 96
1, 25897, Note_on_c, 1, 68, 96
1, 25898, Note_off_c, 1, 60, 96
1, 25898, Note_off_c, 1, 68, 96
1, 26096, Note_on_c, 1, 65, 96
1, 26096, Note_on_c, 1, 47, 96
1, 26096, Note_on_c, 1, 43, 96
1, 26096, Note_on_c, 1, 55, 96
1, 26096, Note_on_c, 1, 59, 96
1, 26097, Note_off_c, 1, 65, 96
1, 26097, Note_off_c, 1, 47, 96
1, 26097, Note_off_c, 1, 43, 96
1, 26097, Note_off_c, 1, 55, 96
1, 26097, Note_off_c, 1, 59, 96
1, 26198, Note_on_c, 1, 43, 96
1, 26199, Note_off_c, 1, 43, 96
1, 26263, Note_on_c, 1, 67, 96
1, 26263, Note_on_c, 1, 62, 96
1, 26263, Note_on_c, 1, 58, 96
1, 26263, Note_on_c, 1, 53, 96
1, 26263, Note_on_c, 1, 38, 96
1, 26264, Note_off_c, 1, 67, 96
1, 26264, Note_off_c, 1, 62, 96
1, 26264, Note_off_c, 1, 58, 96
1, 26264, Note_off_c, 1, 53, 96
1, 26264, Note_off_c, 1, 38, 96
1, 26387, Note_on_c, 1, 74, 96
1, 26387, Note_on_c, 1, 70, 96
1, 26387, Note_on_c, 1, 41, 96
1, 26387, Note_on_c, 1, 53, 96
1, 26388, Note_off_c, 1, 74, 96
1, 26388, Note_off_c, 1, 70, 96
1, 26388, Note_off_c, 1, 41, 96
1, 26388, Note_off_c, 1, 53, 96
1, 26513, Note_on_c, 1, 72, 96
1, 26513, Note_on_c, 1, 79, 96
1, 26513, Note_on_c, 1, 67, 96
1, 26513, Note_on_c, 1, 75, 96
1, 26513, Note_on_c, 1, 51, 96
1, 26513, Note_on_c, 1, 39, 96
1, 26514, Note_off_c, 1, 72, 96
1, 26514, Note_off_c, 1, 79, 96
1, 26514, Note_off_c, 1, 67, 96
1, 26514, Note_off_c, 1, 75, 96
1, 26514, Note_off_c, 1, 51, 96
1, 26514, Note_off_c, 1, 39, 96
1, 26635, Note_on_c, 1, 46, 96
1, 26635, Note_on_c, 1, 34, 96
1, 26636, Note_off_c, 1, 46, 96
1, 26636, Note_off_c, 1, 34, 96
1, 26757, Note_on_c, 1, 34, 96
1, 26757, Note_on_c, 1, 46, 96
1, 26758, Note_off_c, 1, 34, 96
1, 26758, Note_off_c, 1, 46, 96
1, 27006, Note_on_c, 1, 75, 96
1, 27006, Note_on_c, 1, 70, 96
1, 27006, Note_on_c, 1, 51, 96
1, 27006, Note_on_c, 1, 39, 96
1, 27007, Note_off_c, 1, 75, 96
1, 27007, Note_off_c, 1, 70, 96
1, 27007, Note_off_c, 1, 51, 96
1, 27007, Note_off_c, 1, 39, 96
1, 27067, Note_on_c, 1, 77, 96
1, 27068, Note_off_c, 1, 77, 96
1, 27131, Note_on_c, 1, 75, 96
1, 27131, Note_on_c, 1, 55, 96
1, 27131, Note_on_c, 1, 51, 96
1, 27131, Note_on_c, 1, 61, 96
1, 27132, Note_off_c, 1, 75, 96
1, 27132, Note_off_c, 1, 55, 96
1, 27132, Note_off_c, 1, 51, 96
1, 27132, Note_off_c, 1, 61, 96
1, 27192, Note_on_c, 1, 72, 96
1, 27193, Note_off_c, 1, 72, 96
1, 27257, Note_on_c, 1, 67, 96
1, 27257, Note_on_c, 1, 70, 96
1, 27257, Note_on_c, 1, 76, 96
1, 27257, Note_on_c, 1, 36, 96
1, 27257, Note_on_c, 1, 48, 96
1, 27258, Note_off_c, 1, 67, 96
1, 27258, Note_off_c, 1, 70, 96
1, 27258, Note_off_c, 1, 76, 96
1, 27258, Note_off_c, 1, 36, 96
1, 27258, Note_off_c, 1, 48, 96
1, 27381, Note_on_c, 1, 77, 96
1, 27381, Note_on_c, 1, 65, 96
1, 27381, Note_on_c, 1, 53, 96
1, 27381, Note_on_c, 1, 41, 96
1, 27382, Note_off_c, 1, 77, 96
1, 27382, Note_off_c, 1, 65, 96
1, 27382, Note_off_c, 1, 53, 96
1, 27382, Note_off_c, 1, 41, 96
1, 27505, Note_on_c, 1, 66, 96
1, 27505, Note_on_c, 1, 75, 96
1, 27505, Note_on_c, 1, 56, 96
1, 27505, Note_on_c, 1, 44, 96
1, 27506, Note_off_c, 1, 66, 96
1, 27506, Note_off_c, 1, 75, 96
1, 27506, Note_off_c, 1, 56, 96
1, 27506, Note_off_c, 1, 44, 96
1, 27628, Note_on_c, 1, 61, 96
1, 27628, Note_on_c, 1, 58, 96
1, 27628, Note_on_c, 1, 70, 96
1, 27629, Note_off_c, 1, 61, 96
1, 27629, Note_off_c, 1, 58, 96
1, 27629, Note_off_c, 1, 70, 96
1, 27691, Note_on_c, 1, 67, 96
1, 27691, Note_on_c, 1, 58, 96
1, 27691, Note_on_c, 1, 52, 96
1, 27692, Note_off_c, 1, 67, 96
1, 27692, Note_off_c, 1, 58, 96
1, 27692, Note_off_c, 1, 52, 96
1, 27752, Note_on_c, 1, 63, 96
1, 27753, Note_off_c, 1, 63, 96
1, 27816, Note_on_c, 1, 61, 96
1, 27816, Note_on_c, 1, 54, 96
1, 27816, Note_on_c, 1, 50, 96
1, 27816, Note_on_c, 1, 42, 96
1, 27817, Note_off_c, 1, 61, 96
1, 27817, Note_off_c, 1, 54, 96
1, 27817, Note_off_c, 1, 50, 96
1, 27817, Note_off_c, 1, 42, 96
1, 27878, Note_on_c, 1, 63, 96
1, 27878, Note_on_c, 1, 57, 96
1, 27879, Note_off_c, 1, 63, 96
1, 27879, Note_off_c, 1, 57, 96
1, 27941, Note_on_c, 1, 55, 96
1, 27941, Note_on_c, 1, 67, 96
1, 27941, Note_on_c, 1, 43, 96
1, 27942, Note_off_c, 1, 55, 96
1, 27942, Note_off_c, 1, 67, 96
1, 27942, Note_off_c, 1, 43, 96
1, 28002, Note_on_c, 1, 69, 96
1, 28003, Note_off_c, 1, 69, 96
1, 28066, Note_on_c, 1, 59, 96
1, 28066, Note_on_c, 1, 53, 96
1, 28066, Note_on_c, 1, 65, 96
1, 28066, Note_on_c, 1, 55, 96
1, 28067, Note_off_c, 1, 59, 96
1, 28067, Note_off_c, 1, 53, 96
1, 28067, Note_off_c, 1, 65, 96
1, 28067, Note_off_c, 1, 55, 96
1, 28127, Note_on_c, 1, 69, 96
1, 28128, Note_off_c, 1, 69, 96
1, 28192, Note_on_c, 1, 72, 96
1, 28192, Note_on_c, 1, 67, 96
1, 28192, Note_on_c, 1, 55, 96
1, 28192, Note_on_c, 1, 60, 96
1, 28192, Note_on_c, 1, 51, 96
1, 28193, Note_off_c, 1, 72, 96
1, 28193, Note_off_c, 1, 67, 96
1, 28193, Note_off_c, 1, 55, 96
1, 28193, Note_off_c, 1, 60, 96
1, 28193, Note_off_c, 1, 51, 96
1, 28318, Note_on_c, 1, 71, 96
1, 28318, Note_on_c, 1, 67, 96
1, 28318, Note_on_c, 1, 65, 96
1, 28318, Note_on_c, 1, 59, 96
1, 28318, Note_on_c, 1, 55, 96
1, 28318, Note_on_c, 1, 47, 96
1, 28319, Note_off_c, 1, 71, 96
1, 28319, Note_off_c, 1, 67, 96
1, 28319, Note_off_c, 1, 65, 96
1, 28319, Note_off_c, 1, 59, 96
1, 28319, Note_off_c, 1, 55, 96
1, 28319, Note_off_c, 1, 47, 96
1, 28442, Note_on_c, 1, 67, 96
1, 28442, Note_on_c, 1, 76, 96
1, 28442, Note_on_c, 1, 48, 96
1, 28442, Note_on_c, 1, 60, 96
1, 28443, Note_off_c, 1, 67, 96
1, 28443, Note_off_c, 1, 76, 96
1, 28443, Note_off_c, 1, 48, 96
1, 28443, Note_off_c, 1, 60, 96
1, 28568, Note_on_c, 1, 75, 96
1, 28568, Note_on_c, 1, 77, 96
1, 28568, Note_on_c, 1, 67, 96
1, 28568, Note_on_c, 1, 55, 96
1, 28568, Note_on_c, 1, 60, 96
1, 28568, Note_on_c, 1, 63, 96
1, 28569, Note_off_c, 1, 75, 96
1, 28569, Note_off_c, 1, 77, 96
1, 28569, Note_off_c, 1, 67, 96
1, 28569, Note_off_c, 1, 55, 96
1, 28569, Note_off_c, 1, 60, 96
1, 28569, Note_off_c, 1, 63, 96
1, 28630, Note_on_c, 1, 81, 96
1, 28630, Note_on_c, 1, 76, 96
1, 28631, Note_off_c, 1, 81, 96
1, 28631, Note_off_c, 1, 76, 96
1, 28691, Note_on_c, 1, 48, 96
1, 28692, Note_off_c, 1, 48, 96
1, 28752, Note_on_c, 1, 83, 96
1, 28753, Note_off_c, 1, 83, 96
1, 28817, Note_on_c, 1, 48, 96
1, 28817, Note_on_c, 1, 81, 96
1, 28817, Note_on_c, 1, 79, 96
1, 28817, Note_on_c, 1, 76, 96
1, 28817, Note_on_c, 1, 60, 96
1, 28818, Note_off_c, 1, 48, 96
1, 28818, Note_off_c, 1, 81, 96
1, 28818, Note_off_c, 1, 79, 96
1, 28818, Note_off_c, 1, 76, 96
1, 28818, Note_off_c, 1, 60, 96
1, 28879, Note_on_c, 1, 76, 96
1, 28879, Note_on_c, 1, 83, 96
1, 28880, Note_off_c, 1, 76, 96
1, 28880, Note_off_c, 1, 83, 96
1, 28941, Note_on_c, 1, 36, 96
1, 28941, Note_on_c, 1, 48, 96
1, 28942, Note_off_c, 1, 36, 96
1, 28942, Note_off_c, 1, 48, 96
1, 29003, Note_on_c, 1, 83, 96
1, 29003, Note_on_c, 1, 71, 96
1, 29004, Note_off_c, 1, 83, 96
1, 29004, Note_off_c, 1, 71, 96
1, 29065, Note_on_c, 1, 72, 96
1, 29065, Note_on_c, 1, 59, 96
1, 29066, Note_off_c, 1, 72, 96
1, 29066, Note_off_c, 1, 59, 96
1, 29190, Note_on_c, 1, 76, 96
1, 29190, Note_on_c, 1, 74, 96
1, 29190, Note_on_c, 1, 81, 96
1, 29190, Note_on_c, 1, 79, 96
1, 29190, Note_on_c, 1, 71, 96
1, 29191, Note_off_c, 1, 76, 96
1, 29191, Note_off_c, 1, 74, 96
1, 29191, Note_off_c, 1, 81, 96
1, 29191, Note_off_c, 1, 79, 96
1, 29191, Note_off_c, 1, 71, 96
1, 29315, Note_on_c, 1, 50, 96
1, 29315, Note_on_c, 1, 68, 96
1, 29315, Note_on_c, 1, 74, 96
1, 29315, Note_on_c, 1, 80, 96
1, 29315, Note_on_c, 1, 56, 96
1, 29316, Note_off_c, 1, 50, 96
1, 29316, Note_off_c, 1, 68, 96
1, 29316, Note_off_c, 1, 74, 96
1, 29316, Note_off_c, 1, 80, 96
1, 29316, Note_off_c, 1, 56, 96
1, 29478, Note_on_c, 1, 85, 96
1, 29478, Note_on_c, 1, 76, 96
1, 29479, Note_off_c, 1, 85, 96
1, 29479, Note_off_c, 1, 76, 96
1, 29734, Note_on_c, 1, 62, 96
1, 29734, Note_on_c, 1, 67, 96
1, 29734, Note_on_c, 1, 58, 96
1, 29735, Note_off_c, 1, 62, 96
1, 29735, Note_off_c, 1, 67, 96
1, 29735, Note_off_c, 1, 58, 96
1, 29760, Note_on_c, 1, 81, 96
1, 29761, Note_off_c, 1, 81, 96
1, 29767, Note_on_c, 1, 79, 96
1, 29768, Note_off_c, 1, 79, 96
1, 29774, Note_on_c, 1, 81, 96
1, 29774, Note_on_c, 1, 43, 96
1, 29775, Note_off_c, 1, 81, 96
1, 29775, Note_off_c, 1, 43, 96
1, 29856, Note_on_c, 1, 79, 96
1, 29857, Note_off_c, 1, 79, 96
1, 29861, Note_on_c, 1, 45, 96
1, 29862, Note_off_c, 1, 45, 96
1, 29874, Note_on_c, 1, 53, 96
1, 29875, Note_off_c, 1, 53, 96
1, 29905, Note_on_c, 1, 81, 96
1, 29906, Note_off_c, 1, 81, 96
1, 29936, Note_on_c, 1, 80, 96
1, 29937, Note_off_c, 1, 80, 96
1, 29968, Note_on_c, 1, 75, 96
1, 29968, Note_on_c, 1, 83, 96
1, 29969, Note_off_c, 1, 75, 96
1, 29969, Note_off_c, 1, 83, 96
1, 29999, Note_on_c, 1, 57, 96
1, 30000, Note_off_c, 1, 57, 96
1, 30030, Note_on_c, 1, 57, 96
1, 30031, Note_off_c, 1, 57, 96
1, 30062, Note_on_c, 1, 75, 96
1, 30062, Note_on_c, 1, 51, 96
1, 30063, Note_off_c, 1, 75, 96
1, 30063, Note_off_c, 1, 51, 96
1, 30094, Note_on_c, 1, 76, 96
1, 30094, Note_on_c, 1, 52, 96
1, 30095, Note_off_c, 1, 76, 96
1, 30095, Note_off_c, 1, 52, 96
1, 30126, Note_on_c, 1, 74, 96
1, 30126, Note_on_c, 1, 62, 96
1, 30127, Note_off_c, 1, 74, 96
1, 30127, Note_off_c, 1, 62, 96
1, 30157, Note_on_c, 1, 55, 96
1, 30158, Note_off_c, 1, 55, 96
1, 30188, Note_on_c, 1, 62, 96
1, 30189, Note_off_c, 1, 62, 96
1, 30219, Note_on_c, 1, 65, 96
1, 30220, Note_off_c, 1, 65, 96
1, 30250, Note_on_c, 1, 67, 96
1, 30251, Note_off_c, 1, 67, 96
1, 30281, Note_on_c, 1, 66, 96
1, 30282, Note_off_c, 1, 66, 96
1, 30313, Note_on_c, 1, 71, 96
1, 30313, Note_on_c, 1, 67, 96
1, 30314, Note_off_c, 1, 71, 96
1, 30314, Note_off_c, 1, 67, 96
1, 30344, Note_on_c, 1, 57, 96
1, 30345, Note_off_c, 1, 57, 96
1, 30376, Note_on_c, 1, 74, 96
1, 30376, Note_on_c, 1, 71, 96
1, 30377, Note_off_c, 1, 74, 96
1, 30377, Note_off_c, 1, 71, 96
1, 30438, Note_on_c, 1, 69, 96
1, 30438, Note_on_c, 1, 60, 96
1, 30439, Note_off_c, 1, 69, 96
1, 30439, Note_off_c, 1, 60, 96
1, 30499, Note_on_c, 1, 57, 96
1, 30500, Note_off_c, 1, 57, 96
1, 30561, Note_on_c, 1, 72, 96
1, 30561, Note_on_c, 1, 62, 96
1, 30562, Note_off_c, 1, 72, 96
1, 30562, Note_off_c, 1, 62, 96
1, 30626, Note_on_c, 1, 79, 96
1, 30626, Note_on_c, 1, 70, 96
1, 30626, Note_on_c, 1, 82, 96
1, 30626, Note_on_c, 1, 54, 96
1, 30626, Note_on_c, 1, 42, 96
1, 30627, Note_off_c, 1, 79, 96
1, 30627, Note_off_c, 1, 70, 96
1, 30627, Note_off_c, 1, 82, 96
1, 30627, Note_off_c, 1, 54, 96
1, 30627, Note_off_c, 1, 42, 96
1, 30689, Note_on_c, 1, 72, 96
1, 30689, Note_on_c, 1, 84, 96
1, 30689, Note_on_c, 1, 50, 96
1, 30690, Note_off_c, 1, 72, 96
1, 30690, Note_off_c, 1, 84, 96
1, 30690, Note_off_c, 1, 50, 96
1, 30748, End_track
0, 0, End_of_file