0, 0, Header, 0, 1, 240
1, 0, Start_track
1, 0, Tempo, 697674
1, 405, Note_on_c, 1, 72, 96
1, 407, Note_off_c, 1, 72, 96
1, 407, Note_on_c, 1, 79, 96
1, 409, Note_off_c, 1, 79, 96
1, 409, Note_on_c, 1, 63, 96
1, 410, Note_off_c, 1, 63, 96
1, 468, Note_on_c, 1, 76, 96
1, 470, Note_off_c, 1, 76, 96
1, 470, Note_on_c, 1, 64, 96
1, 472, Note_off_c, 1, 64, 96
1, 472, Note_on_c, 1, 52, 96
1, 473, Note_off_c, 1, 52, 96
1, 529, Note_on_c, 1, 69, 96
1, 530, Note_off_c, 1, 69, 96
1, 533, Note_on_c, 1, 57, 96
1, 534, Note_off_c, 1, 57, 96
1, 594, Note_on_c, 1, 77, 96
1, 595, Note_off_c, 1, 77, 96
1, 653, Note_on_c, 1, 67, 96
1, 653, Note_on_c, 1, 59, 96
1, 653, Note_on_c, 1, 65, 96
1, 654, Note_off_c, 1, 67, 96
1, 654, Note_off_c, 1, 59, 96
1, 654, Note_off_c, 1, 65, 96
1, 656, Note_on_c, 1, 74, 96
1, 657, Note_off_c, 1, 74, 96
1, 720, Note_on_c, 1, 67, 96
1, 720, Note_on_c, 1, 79, 96
1, 721, Note_off_c, 1, 67, 96
1, 721, Note_off_c, 1, 79, 96
1, 844, Note_on_c, 1, 65, 96
1, 844, Note_on_c, 1, 62, 96
1, 845, Note_off_c, 1, 65, 96
1, 845, Note_off_c, 1, 62, 96
1, 847, Note_on_c, 1, 77, 96
1, 848, Note_off_c, 1, 77, 96
1, 904, Note_on_c, 1, 71, 96
1, 905, Note_off_c, 1, 71, 96
1, 961, Note_on_c, 1, 74, 96
1, 962, Note_off_c, 1, 74, 96
1, 1026, Note_on_c, 1, 60, 96
1, 1027, Note_off_c, 1, 60, 96
1, 1029, Note_on_c, 1, 72, 96
1, 1030, Note_off_c, 1, 72, 96
1, 1085, Note_on_c, 1, 69, 96
1, 1086, Note_off_c, 1, 69, 96
1, 1092, Note_on_c, 1, 57, 96
1, 1093, Note_off_c, 1, 57, 96
1, 1576, Note_on_c, 1, 67, 96
1, 1577, Note_off_c, 1, 67, 96
1, 1579, Note_on_c, 1, 55, 96
1, 1580, Note_off_c, 1, 55, 96
1, 1641, Note_on_c, 1, 69, 96
1, 1642, Note_off_c, 1, 69, 96
1, 1699, Note_on_c, 1, 60, 96
1, 1700, Note_off_c, 1, 60, 96
1, 1702, Note_on_c, 1, 72, 96
1, 1704, Note_off_c, 1, 72, 96
1, 1704, Note_on_c, 1, 57, 96
1, 1705, Note_off_c, 1, 57, 96
1, 1820, Note_on_c, 1, 63, 96
1, 1821, Note_off_c, 1, 63, 96
1, 1937, Note_on_c, 1, 60, 96
1, 1937, Note_on_c, 1, 57, 96
1, 1938, Note_off_c, 1, 60, 96
1, 1938, Note_off_c, 1, 57, 96
1, 1940, Note_on_c, 1, 65, 96
1, 1942, Note_off_c, 1, 65, 96
1, 1942, Note_on_c, 1, 69, 96
1, 1943, Note_off_c, 1, 69, 96
1, 2065, Note_on_c, 1, 58, 96
1, 2065, Note_on_c, 1, 46, 96
1, 2066, Note_off_c, 1, 58, 96
1, 2066, Note_off_c, 1, 46, 96
1, 2124, Note_on_c, 1, 62, 96
1, 2125, Note_off_c, 1, 62, 96
1, 2183, Note_on_c, 1, 58, 96
1, 2184, Note_off_c, 1, 58, 96
1, 2186, Note_on_c, 1, 55, 96
1, 2187, Note_off_c, 1, 55, 96
1, 2189, Note_on_c, 1, 62, 96
1, 2190, Note_off_c, 1, 62, 96
1, 2251, Note_on_c, 1, 67, 96
1, 2252, Note_off_c, 1, 67, 96
1, 2308, Note_on_c, 1, 57, 96
1, 2310, Note_off_c, 1, 57, 96
1, 2310, Note_on_c, 1, 65, 96
1, 2311, Note_off_c, 1, 65, 96
1, 2315, Note_on_c, 1, 48, 96
1, 2316, Note_off_c, 1, 48, 96
1, 2376, Note_on_c, 1, 67, 96
1, 2377, Note_off_c, 1, 67, 96
1, 2433, Note_on_c, 1, 72, 96
1, 2435, Note_off_c, 1, 72, 96
1, 2435, Note_on_c, 1, 38, 96
1, 2437, Note_off_c, 1, 38, 96
1, 2437, Note_on_c, 1, 50, 96
1, 2438, Note_off_c, 1, 50, 96
1, 2495, Note_on_c, 1, 69, 96
1, 2496, Note_off_c, 1, 69, 96
1, 2559, Note_on_c, 1, 65, 96
1, 2560, Note_off_c, 1, 65, 96
1, 2562, Note_on_c, 1, 74, 96
1, 2563, Note_off_c, 1, 74, 96
1, 2623, Note_on_c, 1, 75, 96
1, 2624, Note_off_c, 1, 75, 96
1, 2680, Note_on_c, 1, 63, 96
1, 2681, Note_off_c, 1, 63, 96
1, 2685, Note_on_c, 1, 65, 96
1, 2687, Note_off_c, 1, 65, 96
1, 2687, Note_on_c, 1, 69, 96
1, 2689, Note_off_c, 1, 69, 96
1, 2689, Note_on_c, 1, 60, 96
1, 2690, Note_off_c, 1, 60, 96
1, 2808, Note_on_c, 1, 48, 96
1, 2809, Note_off_c, 1, 48, 96
1, 2929, Note_on_c, 1, 58, 96
1, 2932, Note_off_c, 1, 58, 96
1, 2932, Note_on_c, 1, 74, 96
1, 2932, Note_on_c, 1, 62, 96
1, 2933, Note_off_c, 1, 74, 96
1, 2933, Note_off_c, 1, 62, 96
1, 2989, Note_on_c, 1, 79, 96
1, 2991, Note_off_c, 1, 79, 96
1, 2991, Note_on_c, 1, 59, 96
1, 2993, Note_off_c, 1, 59, 96
1, 2993, Note_on_c, 1, 71, 96
1, 2994, Note_off_c, 1, 71, 96
1, 3113, Note_on_c, 1, 62, 96
1, 3116, Note_off_c, 1, 62, 96
1, 3116, Note_on_c, 1, 74, 96
1, 3116, Note_on_c, 1, 59, 96
1, 3120, Note_off_c, 1, 74, 96
1, 3120, Note_off_c, 1, 59, 96
1, 3120, Note_on_c, 1, 69, 96
1, 3120, Note_on_c, 1, 53, 96
1, 3120, Note_on_c, 1, 55, 96
1, 3121, Note_off_c, 1, 69, 96
1, 3121, Note_off_c, 1, 53, 96
1, 3121, Note_off_c, 1, 55, 96
1, 3237, Note_on_c, 1, 67, 96
1, 3238, Note_off_c, 1, 67, 96
1, 3242, Note_on_c, 1, 48, 96
1, 3243, Note_off_c, 1, 48, 96
1, 3363, Note_on_c, 1, 63, 96
1, 3364, Note_off_c, 1, 63, 96
1, 3366, Note_on_c, 1, 67, 96
1, 3367, Note_off_c, 1, 67, 96
1, 3484, Note_on_c, 1, 71, 96
1, 3485, Note_off_c, 1, 71, 96
1, 3488, Note_on_c, 1, 55, 96
1, 3489, Note_off_c, 1, 55, 96
1, 3605, Note_on_c, 1, 63, 96
1, 3606, Note_off_c, 1, 63, 96
1, 3723, Note_on_c, 1, 67, 96
1, 3724, Note_off_c, 1, 67, 96
1, 3728, Note_on_c, 1, 62, 96
1, 3729, Note_off_c, 1, 62, 96
1, 3731, Note_on_c, 1, 57, 96
1, 3732, Note_off_c, 1, 57, 96
1, 3908, Note_on_c, 1, 60, 96
1, 3910, Note_off_c, 1, 60, 96
1, 3910, Note_on_c, 1, 64, 96
1, 3911, Note_off_c, 1, 64, 96
1, 3914, Note_on_c, 1, 67, 96
1, 3915, Note_off_c, 1, 67, 96
1, 4029, Note_on_c, 1, 64, 96
1, 4030, Note_off_c, 1, 64, 96
1, 4150, Note_on_c, 1, 57, 96
1, 4151, Note_off_c, 1, 57, 96
1, 4153, Note_on_c, 1, 69, 96
1, 4154, Note_off_c, 1, 69, 96
1, 4271, Note_on_c, 1, 66, 96
1, 4272, Note_off_c, 1, 66, 96
1, 4276, Note_on_c, 1, 50, 96
1, 4277, Note_off_c, 1, 50, 96
1, 4391, Note_on_c, 1, 50, 96
1, 4393, Note_off_c, 1, 50, 96
1, 4393, Note_on_c, 1, 67, 96
1, 4395, Note_off_c, 1, 67, 96
1, 4395, Note_on_c, 1, 38, 96
1, 4396, Note_off_c, 1, 38, 96
1, 4519, Note_on_c, 1, 68, 96
1, 4520, Note_off_c, 1, 68, 96
1, 4635, Note_on_c, 1, 59, 96
1, 4638, Note_off_c, 1, 59, 96
1, 4638, Note_on_c, 1, 63, 96
1, 4638, Note_on_c, 1, 66, 96
1, 4640, Note_off_c, 1, 63, 96
1, 4640, Note_off_c, 1, 66, 96
1, 4640, Note_on_c, 1, 69, 96
1, 4643, Note_off_c, 1, 69, 96
1, 4643, Note_on_c, 1, 57, 96
1, 4643, Note_on_c, 1, 45, 96
1, 4644, Note_off_c, 1, 57, 96
1, 4644, Note_off_c, 1, 45, 96
1, 4762, Note_on_c, 1, 35, 96
1, 4764, Note_off_c, 1, 35, 96
1, 4764, Note_on_c, 1, 47, 96
1, 4765, Note_off_c, 1, 47, 96
1, 4882, Note_on_c, 1, 55, 96
1, 4883, Note_off_c, 1, 55, 96
1, 4886, Note_on_c, 1, 64, 96
1, 4888, Note_off_c, 1, 64, 96
1, 4888, Note_on_c, 1, 60, 96
1, 4889, Note_off_c, 1, 60, 96
1, 4891, Note_on_c, 1, 67, 96
1, 4892, Note_off_c, 1, 67, 96
1, 5009, Note_on_c, 1, 60, 96
1, 5009, Note_on_c, 1, 58, 96
1, 5011, Note_off_c, 1, 60, 96
1, 5011, Note_off_c, 1, 58, 96
1, 5011, Note_on_c, 1, 66, 96
1, 5012, Note_off_c, 1, 66, 96
1, 5015, Note_on_c, 1, 63, 96
1, 5017, Note_off_c, 1, 63, 96
1, 5017, Note_on_c, 1, 67, 96
1, 5018, Note_off_c, 1, 67, 96
1, 5134, Note_on_c, 1, 64, 96
1, 5135, Note_off_c, 1, 64, 96
1, 5138, Note_on_c, 1, 67, 96
1, 5139, Note_off_c, 1, 67, 96
1, 5252, Note_on_c, 1, 65, 96
1, 5254, Note_off_c, 1, 65, 96
1, 5254, Note_on_c, 1, 53, 96
1, 5255, Note_off_c, 1, 53, 96
1, 5259, Note_on_c, 1, 57, 96
1, 5261, Note_off_c, 1, 57, 96
1, 5261, Note_on_c, 1, 41, 96
1, 5262, Note_off_c, 1, 41, 96
1, 5323, Note_on_c, 1, 67, 96
1, 5324, Note_off_c, 1, 67, 96
1, 5379, Note_on_c, 1, 72, 96
1, 5380, Note_off_c, 1, 72, 96
1, 5384, Note_on_c, 1, 41, 96
1, 5385, Note_off_c, 1, 41, 96
1, 5498, Note_on_c, 1, 53, 96
1, 5499, Note_off_c, 1, 53, 96
1, 5503, Note_on_c, 1, 41, 96
1, 5504, Note_off_c, 1, 41, 96
1, 5506, Note_on_c, 1, 69, 96
1, 5507, Note_off_c, 1, 69, 96
1, 5543, Note_on_c, 1, 67, 96
1, 5544, Note_off_c, 1, 67, 96
1, 5580, Note_on_c, 1, 70, 96
1, 5581, Note_off_c, 1, 70, 96
1, 5619, Note_on_c, 1, 43, 96
1, 5621, Note_off_c, 1, 43, 96
1, 5621, Note_on_c, 1, 72, 96
1, 5622, Note_off_c, 1, 72, 96
1, 5746, Note_on_c, 1, 42, 96
1, 5747, Note_off_c, 1, 42, 96
1, 5866, Note_on_c, 1, 50, 96
1, 5868, Note_off_c, 1, 50, 96
1, 5868, Note_on_c, 1, 38, 96
1, 5870, Note_off_c, 1, 38, 96
1, 5870, Note_on_c, 1, 58, 96
1, 5871, Note_off_c, 1, 58, 96
1, 5993, Note_on_c, 1, 39, 96
1, 5993, Note_on_c, 1, 51, 96
1, 5994, Note_off_c, 1, 39, 96
1, 5994, Note_off_c, 1, 51, 96
1, 6110, Note_on_c, 1, 59, 96
1, 6111, Note_off_c, 1, 59, 96
1, 6113, Note_on_c, 1, 71, 96
1, 6114, Note_off_c, 1, 71, 96
1, 6231, Note_on_c, 1, 71, 96
1, 6232, Note_off_c, 1, 71, 96
1, 6236, Note_on_c, 1, 74, 96
1, 6236, Note_on_c, 1, 50, 96
1, 6237, Note_off_c, 1, 74, 96
1, 6237, Note_off_c, 1, 50, 96
1, 6475, Note_on_c, 1, 73, 96
1, 6476, Note_off_c, 1, 73, 96
1, 6478, Note_on_c, 1, 57, 96
1, 6480, Note_off_c, 1, 57, 96
1, 6480, Note_on_c, 1, 50, 96
1, 6481, Note_off_c, 1, 50, 96
1, 6597, Note_on_c, 1, 43, 96
1, 6600, Note_off_c, 1, 43, 96
1, 6600, Note_on_c, 1, 62, 96
1, 6600, Note_on_c, 1, 55, 96
1, 6601, Note_off_c, 1, 62, 96
1, 6601, Note_off_c, 1, 55, 96
1, 6603, Note_on_c, 1, 71, 96
1, 6605, Note_off_c, 1, 71, 96
1, 6605, Note_on_c, 1, 67, 96
1, 6606, Note_off_c, 1, 67, 96
1, 6843, Note_on_c, 1, 76, 96
1, 6844, Note_off_c, 1, 76, 96
1, 6847, Note_on_c, 1, 64, 96
1, 6848, Note_off_c, 1, 64, 96
1, 6851, Note_on_c, 1, 60, 96
1, 6851, Note_on_c, 1, 70, 96
1, 6852, Note_off_c, 1, 60, 96
1, 6852, Note_off_c, 1, 70, 96
1, 6933, Note_on_c, 1, 72, 96
1, 6934, Note_off_c, 1, 72, 96
1, 6940, Note_on_c, 1, 60, 96
1, 6941, Note_off_c, 1, 60, 96
1, 7039, Note_on_c, 1, 79, 96
1, 7040, Note_off_c, 1, 79, 96
1, 7121, Note_on_c, 1, 81, 96
1, 7121, Note_on_c, 1, 52, 96
1, 7123, Note_off_c, 1, 81, 96
1, 7123, Note_off_c, 1, 52, 96
1, 7123, Note_on_c, 1, 69, 96
1, 7124, Note_off_c, 1, 69, 96
1, 7213, Note_on_c, 1, 83, 96
1, 7214, Note_off_c, 1, 83, 96
1, 7246, Note_on_c, 1, 69, 96
1, 7247, Note_off_c, 1, 69, 96
1, 7334, Note_on_c, 1, 84, 96
1, 7335, Note_off_c, 1, 84, 96
1, 7363, Note_on_c, 1, 81, 96
1, 7364, Note_off_c, 1, 81, 96
1, 7483, Note_on_c, 1, 65, 96
1, 7484, Note_off_c, 1, 65, 96
1, 7486, Note_on_c, 1, 57, 96
1, 7487, Note_off_c, 1, 57, 96
1, 7502, Note_on_c, 1, 82, 96
1, 7503, Note_off_c, 1, 82, 96
1, 7521, Note_on_c, 1, 65, 96
1, 7521, Note_on_c, 1, 62, 96
1, 7522, Note_off_c, 1, 65, 96
1, 7522, Note_off_c, 1, 62, 96
1, 7647, Note_on_c, 1, 70, 96
1, 7647, Note_on_c, 1, 34, 96
1, 7648, Note_off_c, 1, 70, 96
1, 7648, Note_off_c, 1, 34, 96
1, 7655, Note_on_c, 1, 82, 96
1, 7657, Note_off_c, 1, 82, 96
1, 7657, Note_on_c, 1, 89, 96
1, 7658, Note_off_c, 1, 89, 96
1, 7775, Note_on_c, 1, 66, 96
1, 7776, Note_off_c, 1, 66, 96
1, 7794, Note_on_c, 1, 84, 96
1, 7795, Note_off_c, 1, 84, 96
1, 7801, Note_on_c, 1, 79, 96
1, 7801, Note_on_c, 1, 82, 96
1, 7803, Note_off_c, 1, 79, 96
1, 7803, Note_off_c, 1, 82, 96
1, 7803, Note_on_c, 1, 39, 96
1, 7804, Note_off_c, 1, 39, 96
1, 7878, Note_on_c, 1, 82, 96
1, 7879, Note_off_c, 1, 82, 96
1, 7883, Note_on_c, 1, 74, 96
1, 7883, Note_on_c, 1, 77, 96
1, 7884, Note_off_c, 1, 74, 96
1, 7884, Note_off_c, 1, 77, 96
1, 7932, Note_on_c, 1, 46, 96
1, 7936, Note_off_c, 1, 46, 96
1, 7936, Note_on_c, 1, 77, 96
1, 7936, Note_on_c, 1, 82, 96
1, 7936, Note_on_c, 1, 58, 96
1, 7937, Note_off_c, 1, 77, 96
1, 7937, Note_off_c, 1, 82, 96
1, 7937, Note_off_c, 1, 58, 96
1, 7940, Note_on_c, 1, 53, 96
1, 7941, Note_off_c, 1, 53, 96
1, 8008, Note_on_c, 1, 79, 96
1, 8009, Note_off_c, 1, 79, 96
1, 8062, Note_on_c, 1, 84, 96
1, 8062, Note_on_c, 1, 63, 96
1, 8062, Note_on_c, 1, 53, 96
1, 8062, Note_on_c, 1, 60, 96
1, 8062, Note_on_c, 1, 57, 96
1, 8063, Note_off_c, 1, 84, 96
1, 8063, Note_off_c, 1, 63, 96
1, 8063, Note_off_c, 1, 53, 96
1, 8063, Note_off_c, 1, 60, 96
1, 8063, Note_off_c, 1, 57, 96
1, 8183, Note_on_c, 1, 72, 96
1, 8183, Note_on_c, 1, 57, 96
1, 8184, Note_off_c, 1, 72, 96
1, 8184, Note_off_c, 1, 57, 96
1, 8187, Note_on_c, 1, 79, 96
1, 8187, Note_on_c, 1, 60, 96
1, 8189, Note_off_c, 1, 79, 96
1, 8189, Note_off_c, 1, 60, 96
1, 8189, Note_on_c, 1, 65, 96
1, 8190, Note_off_c, 1, 65, 96
1, 8244, Note_on_c, 1, 75, 96
1, 8245, Note_off_c, 1, 75, 96
1, 8247, Note_on_c, 1, 77, 96
1, 8248, Note_off_c, 1, 77, 96
1, 8250, Note_on_c, 1, 71, 96
1, 8251, Note_off_c, 1, 71, 96
1, 8306, Note_on_c, 1, 77, 96
1, 8308, Note_off_c, 1, 77, 96
1, 8308, Note_on_c, 1, 74, 96
1, 8309, Note_off_c, 1, 74, 96
1, 8312, Note_on_c, 1, 43, 96
1, 8313, Note_off_c, 1, 43, 96
1, 8429, Note_on_c, 1, 43, 96
1, 8432, Note_off_c, 1, 43, 96
1, 8432, Note_on_c, 1, 74, 96
1, 8432, Note_on_c, 1, 55, 96
1, 8434, Note_off_c, 1, 74, 96
1, 8434, Note_off_c, 1, 55, 96
1, 8434, Note_on_c, 1, 71, 96
1, 8437, Note_off_c, 1, 71, 96
1, 8437, Note_on_c, 1, 67, 96
1, 8437, Note_on_c, 1, 53, 96
1, 8438, Note_off_c, 1, 67, 96
1, 8438, Note_off_c, 1, 53, 96
1, 8556, Note_on_c, 1, 81, 96
1, 8559, Note_off_c, 1, 81, 96
1, 8559, Note_on_c, 1, 69, 96
1, 8559, Note_on_c, 1, 77, 96
1, 8561, Note_off_c, 1, 69, 96
1, 8561, Note_off_c, 1, 77, 96
1, 8561, Note_on_c, 1, 43, 96
1, 8562, Note_off_c, 1, 43, 96
1, 8624, Note_on_c, 1, 67, 96
1, 8624, Note_on_c, 1, 79, 96
1, 8625, Note_off_c, 1, 67, 96
1, 8625, Note_off_c, 1, 79, 96
1, 8683, Note_on_c, 1, 77, 96
1, 8683, Note_on_c, 1, 50, 96
1, 8685, Note_off_c, 1, 77, 96
1, 8685, Note_off_c, 1, 50, 96
1, 8685, Note_on_c, 1, 38, 96
1, 8688, Note_off_c, 1, 38, 96
1, 8688, Note_on_c, 1, 81, 96
1, 8688, Note_on_c, 1, 71, 96
1, 8689, Note_off_c, 1, 81, 96
1, 8689, Note_off_c, 1, 71, 96
1, 8811, Note_on_c, 1, 80, 96
1, 8811, Note_on_c, 1, 68, 96
1, 8811, Note_on_c, 1, 68, 96
1, 8812, Note_off_c, 1, 80, 96
1, 8812, Note_off_c, 1, 68, 96
1, 8812, Note_off_c, 1, 68, 96
1, 8929, Note_on_c, 1, 72, 96
1, 8929, Note_on_c, 1, 41, 96
1, 8930, Note_off_c, 1, 72, 96
1, 8930, Note_off_c, 1, 41, 96
1, 8934, Note_on_c, 1, 84, 96
1, 8934, Note_on_c, 1, 77, 96
1, 8935, Note_off_c, 1, 84, 96
1, 8935, Note_off_c, 1, 77, 96
1, 8937, Note_on_c, 1, 53, 96
1, 8938, Note_off_c, 1, 53, 96
1, 9056, Note_on_c, 1, 77, 96
1, 9056, Note_on_c, 1, 58, 96
1, 9057, Note_off_c, 1, 77, 96
1, 9057, Note_off_c, 1, 58, 96
1, 9059, Note_on_c, 1, 46, 96
1, 9061, Note_off_c, 1, 46, 96
1, 9061, Note_on_c, 1, 72, 96
1, 9062, Note_off_c, 1, 72, 96
1, 9178, Note_on_c, 1, 58, 96
1, 9178, Note_on_c, 1, 55, 96
1, 9180, Note_off_c, 1, 58, 96
1, 9180, Note_off_c, 1, 55, 96
1, 9180, Note_on_c, 1, 82, 96
1, 9182, Note_off_c, 1, 82, 96
1, 9182, Note_on_c, 1, 74, 96
1, 9183, Note_off_c, 1, 74, 96
1, 9187, Note_on_c, 1, 62, 96
1, 9188, Note_off_c, 1, 62, 96
1, 9303, Note_on_c, 1, 72, 96
1, 9304, Note_off_c, 1, 72, 96
1, 9308, Note_on_c, 1, 80, 96
1, 9310, Note_off_c, 1, 80, 96
1, 9310, Note_on_c, 1, 84, 96
1, 9312, Note_off_c, 1, 84, 96
1, 9312, Note_on_c, 1, 46, 96
1, 9313, Note_off_c, 1, 46, 96
1, 9430, Note_on_c, 1, 79, 96
1, 9430, Note_on_c, 1, 55, 96
1, 9433, Note_off_c, 1, 79, 96
1, 9433, Note_off_c, 1, 55, 96
1, 9433, Note_on_c, 1, 70, 96
1, 9433, Note_on_c, 1, 75, 96
1, 9435, Note_off_c, 1, 70, 96
1, 9435, Note_off_c, 1, 75, 96
1, 9435, Note_on_c, 1, 58, 96
1, 9436, Note_off_c, 1, 58, 96
1, 9439, Note_on_c, 1, 63, 96
1, 9440, Note_off_c, 1, 63, 96
1, 9554, Note_on_c, 1, 63, 96
1, 9556, Note_off_c, 1, 63, 96
1, 9556, Note_on_c, 1, 55, 96
1, 9557, Note_off_c, 1, 55, 96
1, 9561, Note_on_c, 1, 58, 96
1, 9562, Note_off_c, 1, 58, 96
1, 9678, Note_on_c, 1, 86, 96
1, 9678, Note_on_c, 1, 58, 96
1, 9680, Note_off_c, 1, 86, 96
1, 9680, Note_off_c, 1, 58, 96
1, 9680, Note_on_c, 1, 46, 96
1, 9681, Note_off_c, 1, 46, 96
1, 9687, Note_on_c, 1, 74, 96
1, 9687, Note_on_c, 1, 82, 96
1, 9687, Note_on_c, 1, 77, 96
1, 9688, Note_off_c, 1, 74, 96
1, 9688, Note_off_c, 1, 82, 96
1, 9688, Note_off_c, 1, 77, 96
1, 9807, Note_on_c, 1, 77, 96
1, 9807, Note_on_c, 1, 82, 96
1, 9807, Note_on_c, 1, 70, 96
1, 9807, Note_on_c, 1, 46, 96
1, 9808, Note_off_c, 1, 77, 96
1, 9808, Note_off_c, 1, 82, 96
1, 9808, Note_off_c, 1, 70, 96
1, 9808, Note_off_c, 1, 46, 96
1, 9812, Note_on_c, 1, 34, 96
1, 9813, Note_off_c, 1, 34, 96
1, 10045, Note_on_c, 1, 77, 96
1, 10045, Note_on_c, 1, 50, 96
1, 10047, Note_off_c, 1, 77, 96
1, 10047, Note_off_c, 1, 50, 96
1, 10047, Note_on_c, 1, 89, 96
1, 10048, Note_off_c, 1, 89, 96
1, 10050, Note_on_c, 1, 68, 96
1, 10051, Note_off_c, 1, 68, 96
1, 10056, Note_on_c, 1, 62, 96
1, 10057, Note_off_c, 1, 62, 96
1, 10171, Note_on_c, 1, 58, 96
1, 10172, Note_off_c, 1, 58, 96
1, 10176, Note_on_c, 1, 63, 96
1, 10179, Note_off_c, 1, 63, 96
1, 10179, Note_on_c, 1, 87, 96
1, 10179, Note_on_c, 1, 65, 96
1, 10180, Note_off_c, 1, 87, 96
1, 10180, Note_off_c, 1, 65, 96
1, 10182, Note_on_c, 1, 89, 96
1, 10183, Note_off_c, 1, 89, 96
1, 10298, Note_on_c, 1, 87, 96
1, 10299, Note_off_c, 1, 87, 96
1, 10303, Note_on_c, 1, 82, 96
1, 10304, Note_off_c, 1, 82, 96
1, 10420, Note_on_c, 1, 79, 96
1, 10423, Note_off_c, 1, 79, 96
1, 10423, Note_on_c, 1, 65, 96
1, 10423, Note_on_c, 1, 55, 96
1, 10424, Note_off_c, 1, 65, 96
1, 10424, Note_off_c, 1, 55, 96
1, 10429, Note_on_c, 1, 63, 96
1, 10430, Note_off_c, 1, 63, 96
1, 10545, Note_on_c, 1, 73, 96
1, 10548, Note_off_c, 1, 73, 96
1, 10548, Note_on_c, 1, 82, 96
1, 10548, Note_on_c, 1, 70, 96
1, 10549, Note_off_c, 1, 82, 96
1, 10549, Note_off_c, 1, 70, 96
1, 10668, Note_on_c, 1, 63, 96
1, 10669, Note_off_c, 1, 63, 96
1, 10673, Note_on_c, 1, 39, 96
1, 10673, Note_on_c, 1, 51, 96
1, 10674, Note_off_c, 1, 39, 96
1, 10674, Note_off_c, 1, 51, 96
1, 10791, Note_on_c, 1, 39, 96
1, 10792, Note_off_c, 1, 39, 96
1, 10913, Note_on_c, 1, 48, 96
1, 10914, Note_off_c, 1, 48, 96
1, 10917, Note_on_c, 1, 63, 96
1, 10917, Note_on_c, 1, 68, 96
1, 10919, Note_off_c, 1, 63, 96
1, 10919, Note_off_c, 1, 68, 96
1, 10919, Note_on_c, 1, 77, 96
1, 10920, Note_off_c, 1, 77, 96
1, 10922, Note_on_c, 1, 71, 96
1, 10923, Note_off_c, 1, 71, 96
1, 11038, Note_on_c, 1, 38, 96
1, 11040, Note_off_c, 1, 38, 96
1, 11040, Note_on_c, 1, 50, 96
1, 11041, Note_off_c, 1, 50, 96
1, 11279, Note_on_c, 1, 44, 96
1, 11280, Note_off_c, 1, 44, 96
1, 11283, Note_on_c, 1, 72, 96
1, 11284, Note_off_c, 1, 72, 96
1, 11287, Note_on_c, 1, 84, 96
1, 11288, Note_off_c, 1, 84, 96
1, 11407, Note_on_c, 1, 86, 96
1, 11407, Note_on_c, 1, 51, 96
1, 11409, Note_off_c, 1, 86, 96
1, 11409, Note_off_c, 1, 51, 96
1, 11409, Note_on_c, 1, 77, 96
1, 11411, Note_off_c, 1, 77, 96
1, 11411, Note_on_c, 1, 75, 96
1, 11412, Note_off_c, 1, 75, 96
1, 11528, Note_on_c, 1, 63, 96
1, 11528, Note_on_c, 1, 55, 96
1, 11530, Note_off_c, 1, 63, 96
1, 11530, Note_off_c, 1, 55, 96
1, 11530, Note_on_c, 1, 58, 96
1, 11531, Note_off_c, 1, 58, 96
1, 11650, Note_on_c, 1, 39, 96
1, 11653, Note_off_c, 1, 39, 96
1, 11653, Note_on_c, 1, 70, 96
1, 11653, Note_on_c, 1, 79, 96
1, 11655, Note_off_c, 1, 70, 96
1, 11655, Note_off_c, 1, 79, 96
1, 11655, Note_on_c, 1, 67, 96
1, 11656, Note_off_c, 1, 67, 96
1, 11658, Note_on_c, 1, 51, 96
1, 11659, Note_off_c, 1, 51, 96
1, 11776, Note_on_c, 1, 79, 96
1, 11777, Note_off_c, 1, 79, 96
1, 11780, Note_on_c, 1, 82, 96
1, 11782, Note_off_c, 1, 82, 96
1, 11782, Note_on_c, 1, 70, 96
1, 11783, Note_off_c, 1, 70, 96
1, 11785, Note_on_c, 1, 51, 96
1, 11786, Note_off_c, 1, 51, 96
1, 11900, Note_on_c, 1, 74, 96
1, 11900, Note_on_c, 1, 54, 96
1, 11902, Note_off_c, 1, 74, 96
1, 11902, Note_off_c, 1, 54, 96
1, 11902, Note_on_c, 1, 42, 96
1, 11903, Note_off_c, 1, 42, 96
1, 11905, Note_on_c, 1, 82, 96
1, 11907, Note_off_c, 1, 82, 96
1, 11907, Note_on_c, 1, 70, 96
1, 11909, Note_off_c, 1, 70, 96
1, 11909, Note_on_c, 1, 78, 96
1, 11910, Note_off_c, 1, 78, 96
1, 12027, Note_on_c, 1, 46, 96
1, 12028, Note_off_c, 1, 46, 96
1, 12030, Note_on_c, 1, 34, 96
1, 12031, Note_off_c, 1, 34, 96
1, 12090, Note_on_c, 1, 77, 96
1, 12092, Note_off_c, 1, 77, 96
1, 12092, Note_on_c, 1, 74, 96
1, 12093, Note_off_c, 1, 74, 96
1, 12095, Note_on_c, 1, 65, 96
1, 12096, Note_off_c, 1, 65, 96
1, 12152, Note_on_c, 1, 46, 96
1, 12153, Note_off_c, 1, 46, 96
1, 12156, Note_on_c, 1, 76, 96
1, 12157, Note_off_c, 1, 76, 96
1, 12277, Note_on_c, 1, 84, 96
1, 12277, Note_on_c, 1, 67, 96
1, 12277, Note_on_c, 1, 58, 96
1, 12278, Note_off_c, 1, 84, 96
1, 12278, Note_off_c, 1, 67, 96
1, 12278, Note_off_c, 1, 58, 96
1, 12280, Note_on_c, 1, 63, 96
1, 12281, Note_off_c, 1, 63, 96
1, 12396, Note_on_c, 1, 82, 96
1, 12397, Note_off_c, 1, 82, 96
1, 12401, Note_on_c, 1, 79, 96
1, 12403, Note_off_c, 1, 79, 96
1, 12403, Note_on_c, 1, 74, 96
1, 12405, Note_off_c, 1, 74, 96
1, 12405, Note_on_c, 1, 46, 96
1, 12406, Note_off_c, 1, 46, 96
1, 12523, Note_on_c, 1, 86, 96
1, 12525, Note_off_c, 1, 86, 96
1, 12525, Note_on_c, 1, 53, 96
1, 12527, Note_off_c, 1, 53, 96
1, 12527, Note_on_c, 1, 74, 96
1, 12528, Note_off_c, 1, 74, 96
1, 12641, Note_on_c, 1, 46, 96
1, 12642, Note_off_c, 1, 46, 96
1, 12646, Note_on_c, 1, 82, 96
1, 12646, Note_on_c, 1, 77, 96
1, 12648, Note_off_c, 1, 82, 96
1, 12648, Note_off_c, 1, 77, 96
1, 12648, Note_on_c, 1, 74, 96
1, 12649, Note_off_c, 1, 74, 96
1, 12768, Note_on_c, 1, 86, 96
1, 12769, Note_off_c, 1, 86, 96
1, 12771, Note_on_c, 1, 74, 96
1, 12773, Note_off_c, 1, 74, 96
1, 12773, Note_on_c, 1, 46, 96
1, 12774, Note_off_c, 1, 46, 96
1, 12889, Note_on_c, 1, 74, 96
1, 12892, Note_off_c, 1, 74, 96
1, 12892, Note_on_c, 1, 82, 96
1, 12892, Note_on_c, 1, 46, 96
1, 12893, Note_off_c, 1, 82, 96
1, 12893, Note_off_c, 1, 46, 96
1, 12895, Note_on_c, 1, 86, 96
1, 12896, Note_off_c, 1, 86, 96
1, 13015, Note_on_c, 1, 62, 96
1, 13016, Note_off_c, 1, 62, 96
1, 13019, Note_on_c, 1, 53, 96
1, 13019, Note_on_c, 1, 58, 96
1, 13020, Note_off_c, 1, 53, 96
1, 13020, Note_off_c, 1, 58, 96
1, 13076, Note_on_c, 1, 86, 96
1, 13077, Note_off_c, 1, 86, 96
1, 13079, Note_on_c, 1, 74, 96
1, 13080, Note_off_c, 1, 74, 96
1, 13138, Note_on_c, 1, 84, 96
1, 13139, Note_off_c, 1, 84, 96
1, 13141, Note_on_c, 1, 46, 96
1, 13144, Note_off_c, 1, 46, 96
1, 13144, Note_on_c, 1, 77, 96
1, 13144, Note_on_c, 1, 72, 96
1, 13145, Note_off_c, 1, 77, 96
1, 13145, Note_off_c, 1, 72, 96
1, 13200, Note_on_c, 1, 83, 96
1, 13202, Note_off_c, 1, 83, 96
1, 13202, Note_on_c, 1, 71, 96
1, 13203, Note_off_c, 1, 71, 96
1, 13263, Note_on_c, 1, 48, 96
1, 13264, Note_off_c, 1, 48, 96
1, 13323, Note_on_c, 1, 86, 96
1, 13325, Note_off_c, 1, 86, 96
1, 13325, Note_on_c, 1, 74, 96
1, 13326, Note_off_c, 1, 74, 96
1, 13388, Note_on_c, 1, 58, 96
1, 13389, Note_off_c, 1, 58, 96
1, 13393, Note_on_c, 1, 46, 96
1, 13394, Note_off_c, 1, 46, 96
1, 13509, Note_on_c, 1, 72, 96
1, 13511, Note_off_c, 1, 72, 96
1, 13511, Note_on_c, 1, 81, 96
1, 13512, Note_off_c, 1, 81, 96
1, 13632, Note_on_c, 1, 40, 96
1, 13633, Note_off_c, 1, 40, 96
1, 13635, Note_on_c, 1, 52, 96
1, 13636, Note_off_c, 1, 52, 96
1, 13752, Note_on_c, 1, 48, 96
1, 13753, Note_off_c, 1, 48, 96
1, 13757, Note_on_c, 1, 76, 96
1, 13758, Note_off_c, 1, 76, 96
1, 13760, Note_on_c, 1, 82, 96
1, 13761, Note_off_c, 1, 82, 96
1, 13876, Note_on_c, 1, 60, 96
1, 13877, Note_off_c, 1, 60, 96
1, 13879, Note_on_c, 1, 64, 96
1, 13881, Note_off_c, 1, 64, 96
1, 13881, Note_on_c, 1, 58, 96
1, 13882, Note_off_c, 1, 58, 96
1, 13942, Note_on_c, 1, 82, 96
1, 13943, Note_off_c, 1, 82, 96
1, 13999, Note_on_c, 1, 55, 96
1, 13999, Note_on_c, 1, 63, 96
1, 14001, Note_off_c, 1, 55, 96
1, 14001, Note_off_c, 1, 63, 96
1, 14001, Note_on_c, 1, 58, 96
1, 14003, Note_off_c, 1, 58, 96
1, 14003, Note_on_c, 1, 83, 96
1, 14004, Note_off_c, 1, 83, 96
1, 14126, Note_on_c, 1, 79, 96
1, 14128, Note_off_c, 1, 79, 96
1, 14128, Note_on_c, 1, 67, 96
1, 14130, Note_off_c, 1, 67, 96
1, 14130, Note_on_c, 1, 48, 96
1, 14131, Note_off_c, 1, 48, 96
1, 14187, Note_on_c, 1, 72, 96
1, 14187, Note_on_c, 1, 81, 96
1, 14188, Note_off_c, 1, 72, 96
1, 14188, Note_off_c, 1, 81, 96
1, 14246, Note_on_c, 1, 60, 96
1, 14247, Note_off_c, 1, 60, 96
1, 14253, Note_on_c, 1, 67, 96
1, 14255, Note_off_c, 1, 67, 96
1, 14255, Note_on_c, 1, 64, 96
1, 14256, Note_off_c, 1, 64, 96
1, 14314, Note_on_c, 1, 76, 96
1, 14316, Note_off_c, 1, 76, 96
1, 14316, Note_on_c, 1, 67, 96
1, 14317, Note_off_c, 1, 67, 96
1, 14378, Note_on_c, 1, 64, 96
1, 14379, Note_off_c, 1, 64, 96
1, 14435, Note_on_c, 1, 81, 96
1, 14436, Note_off_c, 1, 81, 96
1, 14438, Note_on_c, 1, 72, 96
1, 14439, Note_off_c, 1, 72, 96
1, 14499, Note_on_c, 1, 55, 96
1, 14500, Note_off_c, 1, 55, 96
1, 14502, Note_on_c, 1, 60, 96
1, 14504, Note_off_c, 1, 60, 96
1, 14504, Note_on_c, 1, 52, 96
1, 14505, Note_off_c, 1, 52, 96
1, 14562, Note_on_c, 1, 79, 96
1, 14563, Note_off_c, 1, 79, 96
1, 14618, Note_on_c, 1, 64, 96
1, 14619, Note_off_c, 1, 64, 96
1, 14624, Note_on_c, 1, 72, 96
1, 14625, Note_off_c, 1, 72, 96
1, 14628, Note_on_c, 1, 60, 96
1, 14628, Note_on_c, 1, 58, 96
1, 14629, Note_off_c, 1, 60, 96
1, 14629, Note_off_c, 1, 58, 96
1, 14685, Note_on_c, 1, 72, 96
1, 14687, Note_off_c, 1, 72, 96
1, 14687, Note_on_c, 1, 67, 96
1, 14688, Note_off_c, 1, 67, 96
1, 14749, Note_on_c, 1, 67, 96
1, 14750, Note_off_c, 1, 67, 96
1, 14752, Note_on_c, 1, 41, 96
1, 14754, Note_off_c, 1, 41, 96
1, 14754, Note_on_c, 1, 77, 96
1, 14755, Note_off_c, 1, 77, 96
1, 14814, Note_on_c, 1, 70, 96
1, 14815, Note_off_c, 1, 70, 96
1, 14871, Note_on_c, 1, 50, 96
1, 14873, Note_off_c, 1, 50, 96
1, 14873, Note_on_c, 1, 77, 96
1, 14874, Note_off_c, 1, 77, 96
1, 14878, Note_on_c, 1, 81, 96
1, 14878, Note_on_c, 1, 53, 96
1, 14879, Note_off_c, 1, 81, 96
1, 14879, Note_off_c, 1, 53, 96
1, 14881, Note_on_c, 1, 70, 96
1, 14882, Note_off_c, 1, 70, 96
1, 14939, Note_on_c, 1, 70, 96
1, 14940, Note_off_c, 1, 70, 96
1, 14942, Note_on_c, 1, 74, 96
1, 14943, Note_off_c, 1, 74, 96
1, 15002, Note_on_c, 1, 51, 96
1, 15003, Note_off_c, 1, 51, 96
1, 15064, Note_on_c, 1, 70, 96
1, 15065, Note_off_c, 1, 70, 96
1, 15123, Note_on_c, 1, 67, 96
1, 15124, Note_off_c, 1, 67, 96
1, 15127, Note_on_c, 1, 51, 96
1, 15129, Note_off_c, 1, 51, 96
1, 15129, Note_on_c, 1, 70, 96
1, 15130, Note_off_c, 1, 70, 96
1, 15188, Note_on_c, 1, 75, 96
1, 15189, Note_off_c, 1, 75, 96
1, 15249, Note_on_c, 1, 75, 96
1, 15249, Note_on_c, 1, 55, 96
1, 15251, Note_off_c, 1, 75, 96
1, 15251, Note_off_c, 1, 55, 96
1, 15251, Note_on_c, 1, 58, 96
1, 15253, Note_off_c, 1, 58, 96
1, 15253, Note_on_c, 1, 63, 96
1, 15254, Note_off_c, 1, 63, 96
1, 15369, Note_on_c, 1, 58, 96
1, 15370, Note_off_c, 1, 58, 96
1, 15375, Note_on_c, 1, 55, 96
1, 15377, Note_off_c, 1, 55, 96
1, 15377, Note_on_c, 1, 63, 96
1, 15378, Note_off_c, 1, 63, 96
1, 15495, Note_on_c, 1, 46, 96
1, 15496, Note_off_c, 1, 46, 96
1, 15554, Note_on_c, 1, 68, 96
1, 15555, Note_off_c, 1, 68, 96
1, 15614, Note_on_c, 1, 72, 96
1, 15616, Note_off_c, 1, 72, 96
1, 15616, Note_on_c, 1, 34, 96
1, 15617, Note_off_c, 1, 34, 96
1, 15621, Note_on_c, 1, 46, 96
1, 15622, Note_off_c, 1, 46, 96
1, 15681, Note_on_c, 1, 70, 96
1, 15682, Note_off_c, 1, 70, 96
1, 15741, Note_on_c, 1, 72, 96
1, 15742, Note_off_c, 1, 72, 96
1, 15745, Note_on_c, 1, 55, 96
1, 15745, Note_on_c, 1, 43, 96
1, 15746, Note_off_c, 1, 55, 96
1, 15746, Note_off_c, 1, 43, 96
1, 15801, Note_on_c, 1, 72, 96
1, 15802, Note_off_c, 1, 72, 96
1, 15866, Note_on_c, 1, 70, 96
1, 15868, Note_off_c, 1, 70, 96
1, 15868, Note_on_c, 1, 55, 96
1, 15869, Note_off_c, 1, 55, 96
1, 15925, Note_on_c, 1, 66, 96
1, 15926, Note_off_c, 1, 66, 96
1, 15985, Note_on_c, 1, 67, 96
1, 15986, Note_off_c, 1, 67, 96
1, 15988, Note_on_c, 1, 63, 96
1, 15989, Note_off_c, 1, 63, 96
1, 15993, Note_on_c, 1, 58, 96
1, 15993, Note_on_c, 1, 51, 96
1, 15994, Note_off_c, 1, 58, 96
1, 15994, Note_off_c, 1, 51, 96
1, 16053, Note_on_c, 1, 67, 96
1, 16054, Note_off_c, 1, 67, 96
1, 16113, Note_on_c, 1, 70, 96
1, 16113, Note_on_c, 1, 63, 96
1, 16113, Note_on_c, 1, 55, 96
1, 16114, Note_off_c, 1, 70, 96
1, 16114, Note_off_c, 1, 63, 96
1, 16114, Note_off_c, 1, 55, 96
1, 16117, Note_on_c, 1, 67, 96
1, 16119, Note_off_c, 1, 67, 96
1, 16119, Note_on_c, 1, 58, 96
1, 16120, Note_off_c, 1, 58, 96
1, 16181, Note_on_c, 1, 72, 96
1, 16182, Note_off_c, 1, 72, 96
1, 16240, Note_on_c, 1, 58, 96
1, 16240, Note_on_c, 1, 55, 96
1, 16241, Note_off_c, 1, 58, 96
1, 16241, Note_off_c, 1, 55, 96
1, 16244, Note_on_c, 1, 63, 96
1, 16245, Note_off_c, 1, 63, 96
1, 16303, Note_on_c, 1, 72, 96
1, 16304, Note_off_c, 1, 72, 96
1, 16364, Note_on_c, 1, 46, 96
1, 16365, Note_off_c, 1, 46, 96
1, 16425, Note_on_c, 1, 58, 96
1, 16427, Note_off_c, 1, 58, 96
1, 16427, Note_on_c, 1, 63, 96
1, 16428, Note_off_c, 1, 63, 96
1, 16431, Note_on_c, 1, 67, 96
1, 16431, Note_on_c, 1, 51, 96
1, 16432, Note_off_c, 1, 67, 96
1, 16432, Note_off_c, 1, 51, 96
1, 16490, Note_on_c, 1, 72, 96
1, 16491, Note_off_c, 1, 72, 96
1, 16549, Note_on_c, 1, 74, 96
1, 16551, Note_off_c, 1, 74, 96
1, 16551, Note_on_c, 1, 68, 96
1, 16553, Note_off_c, 1, 68, 96
1, 16553, Note_on_c, 1, 62, 96
1, 16555, Note_off_c, 1, 62, 96
1, 16555, Note_on_c, 1, 55, 96
1, 16556, Note_off_c, 1, 55, 96
1, 16672, Note_on_c, 1, 58, 96
1, 16674, Note_off_c, 1, 58, 96
1, 16674, Note_on_c, 1, 52, 96
1, 16675, Note_off_c, 1, 52, 96
1, 16679, Note_on_c, 1, 67, 96
1, 16680, Note_off_c, 1, 67, 96
1, 16797, Note_on_c, 1, 60, 96
1, 16797, Note_on_c, 1, 55, 96
1, 16798, Note_off_c, 1, 60, 96
1, 16798, Note_off_c, 1, 55, 96
1, 16803, Note_on_c, 1, 51, 96
1, 16804, Note_off_c, 1, 51, 96
1, 16922, Note_on_c, 1, 60, 96
1, 16924, Note_off_c, 1, 60, 96
1, 16924, Note_on_c, 1, 48, 96
1, 16925, Note_off_c, 1, 48, 96
1, 16984, Note_on_c, 1, 62, 96
1, 16985, Note_off_c, 1, 62, 96
1, 17042, Note_on_c, 1, 62, 96
1, 17042, Note_on_c, 1, 65, 96
1, 17043, Note_off_c, 1, 62, 96
1, 17043, Note_off_c, 1, 65, 96
1, 17046, Note_on_c, 1, 53, 96
1, 17047, Note_off_c, 1, 53, 96
1, 17050, Note_on_c, 1, 57, 96
1, 17051, Note_off_c, 1, 57, 96
1, 17107, Note_on_c, 1, 63, 96
1, 17108, Note_off_c, 1, 63, 96
1, 17165, Note_on_c, 1, 69, 96
1, 17165, Note_on_c, 1, 53, 96
1, 17166, Note_off_c, 1, 69, 96
1, 17166, Note_off_c, 1, 53, 96
1, 17169, Note_on_c, 1, 41, 96
1, 17170, Note_off_c, 1, 41, 96
1, 17287, Note_on_c, 1, 69, 96
1, 17287, Note_on_c, 1, 65, 96
1, 17287, Note_on_c, 1, 63, 96
1, 17289, Note_off_c, 1, 69, 96
1, 17289, Note_off_c, 1, 65, 96
1, 17289, Note_off_c, 1, 63, 96
1, 17289, Note_on_c, 1, 41, 96
1, 17290, Note_off_c, 1, 41, 96
1, 17294, Note_on_c, 1, 53, 96
1, 17295, Note_off_c, 1, 53, 96
1, 17352, Note_on_c, 1, 72, 96
1, 17353, Note_off_c, 1, 72, 96
1, 17359, Note_on_c, 1, 69, 96
1, 17361, Note_off_c, 1, 69, 96
1, 17361, Note_on_c, 1, 72, 96
1, 17362, Note_off_c, 1, 72, 96
1, 17416, Note_on_c, 1, 41, 96
1, 17417, Note_off_c, 1, 41, 96
1, 17475, Note_on_c, 1, 75, 96
1, 17476, Note_off_c, 1, 75, 96
1, 17534, Note_on_c, 1, 75, 96
1, 17535, Note_off_c, 1, 75, 96
1, 17539, Note_on_c, 1, 48, 96
1, 17540, Note_off_c, 1, 48, 96
1, 17597, Note_on_c, 1, 61, 96
1, 17598, Note_off_c, 1, 61, 96
1, 17657, Note_on_c, 1, 66, 96
1, 17657, Note_on_c, 1, 70, 96
1, 17658, Note_off_c, 1, 66, 96
1, 17658, Note_off_c, 1, 70, 96
1, 17663, Note_on_c, 1, 70, 96
1, 17663, Note_on_c, 1, 49, 96
1, 17664, Note_off_c, 1, 70, 96
1, 17664, Note_off_c, 1, 49, 96
1, 17779, Note_on_c, 1, 65, 96
1, 17780, Note_off_c, 1, 65, 96
1, 17788, Note_on_c, 1, 70, 96
1, 17788, Note_on_c, 1, 62, 96
1, 17789, Note_off_c, 1, 70, 96
1, 17789, Note_off_c, 1, 62, 96
1, 17903, Note_on_c, 1, 71, 96
1, 17905, Note_off_c, 1, 71, 96
1, 17905, Note_on_c, 1, 69, 96
1, 17906, Note_off_c, 1, 69, 96
1, 18025, Note_on_c, 1, 69, 96
1, 18026, Note_off_c, 1, 69, 96
1, 18029, Note_on_c, 1, 66, 96
1, 18030, Note_off_c, 1, 66, 96
1, 18147, Note_on_c, 1, 71, 96
1, 18148, Note_off_c, 1, 71, 96
1, 18267, Note_on_c, 1, 67, 96
1, 18268, Note_off_c, 1, 67, 96
1, 18504, Note_on_c, 1, 54, 96
1, 18506, Note_off_c, 1, 54, 96
1, 18506, Note_on_c, 1, 62, 96
1, 18509, Note_off_c, 1, 62, 96
1, 18509, Note_on_c, 1, 60, 96
1, 18509, Note_on_c, 1, 42, 96
1, 18511, Note_off_c, 1, 60, 96
1, 18511, Note_off_c, 1, 42, 96
1, 18511, Note_on_c, 1, 69, 96
1, 18512, Note_off_c, 1, 69, 96
1, 18515, Note_on_c, 1, 72, 96
1, 18515, Note_on_c, 1, 57, 96
1, 18517, Note_off_c, 1, 72, 96
1, 18517, Note_off_c, 1, 57, 96
1, 18517, Note_on_c, 1, 63, 96
1, 18518, Note_off_c, 1, 63, 96
1, 18758, Note_on_c, 1, 66, 96
1, 18759, Note_off_c, 1, 66, 96
1, 18761, Note_on_c, 1, 60, 96
1, 18763, Note_off_c, 1, 60, 96
1, 18763, Note_on_c, 1, 55, 96
1, 18765, Note_off_c, 1, 55, 96
1, 18765, Note_on_c, 1, 70, 96
1, 18767, Note_off_c, 1, 70, 96
1, 18767, Note_on_c, 1, 58, 96
1, 18768, Note_off_c, 1, 58, 96
1, 18826, Note_on_c, 1, 64, 96
1, 18828, Note_off_c, 1, 64, 96
1, 18828, Note_on_c, 1, 73, 96
1, 18829, Note_off_c, 1, 73, 96
1, 18888, Note_on_c, 1, 62, 96
1, 18891, Note_off_c, 1, 62, 96
1, 18891, Note_on_c, 1, 74, 96
1, 18891, Note_on_c, 1, 50, 96
1, 18893, Note_off_c, 1, 74, 96
1, 18893, Note_off_c, 1, 50, 96
1, 18893, Note_on_c, 1, 38, 96
1, 18894, Note_off_c, 1, 38, 96
1, 18896, Note_on_c, 1, 66, 96
1, 18897, Note_off_c, 1, 66, 96
1, 18975, Note_on_c, 1, 70, 96
1, 18976, Note_off_c, 1, 70, 96
1, 19018, Note_on_c, 1, 66, 96
1, 19020, Note_off_c, 1, 66, 96
1, 19020, Note_on_c, 1, 69, 96
1, 19021, Note_off_c, 1, 69, 96
1, 19103, Note_on_c, 1, 43, 96
1, 19105, Note_off_c, 1, 43, 96
1, 19105, Note_on_c, 1, 59, 96
1, 19108, Note_off_c, 1, 59, 96
1, 19108, Note_on_c, 1, 79, 96
1, 19108, Note_on_c, 1, 67, 96
1, 19111, Note_off_c, 1, 79, 96
1, 19111, Note_off_c, 1, 67, 96
1, 19111, Note_on_c, 1, 74, 96
1, 19111, Note_on_c, 1, 71, 96
1, 19112, Note_off_c, 1, 74, 96
1, 19112, Note_off_c, 1, 71, 96
1, 19227, Note_on_c, 1, 43, 96
1, 19231, Note_off_c, 1, 43, 96
1, 19231, Note_on_c, 1, 71, 96
1, 19231, Note_on_c, 1, 65, 96
1, 19231, Note_on_c, 1, 67, 96
1, 19233, Note_off_c, 1, 71, 96
1, 19233, Note_off_c, 1, 65, 96
1, 19233, Note_off_c, 1, 67, 96
1, 19233, Note_on_c, 1, 74, 96
1, 19234, Note_off_c, 1, 74, 96
1, 19238, Note_on_c, 1, 55, 96
1, 19239, Note_off_c, 1, 55, 96
1, 19364, Note_on_c, 1, 51, 96
1, 19364, Note_on_c, 1, 39, 96
1, 19365, Note_off_c, 1, 51, 96
1, 19365, Note_off_c, 1, 39, 96
1, 19432, Note_on_c, 1, 57, 96
1, 19434, Note_off_c, 1, 57, 96
1, 19434, Note_on_c, 1, 66, 96
1, 19436, Note_off_c, 1, 66, 96
1, 19436, Note_on_c, 1, 54, 96
1, 19437, Note_off_c, 1, 54, 96
1, 19496, Note_on_c, 1, 48, 96
1, 19498, Note_off_c, 1, 48, 96
1, 19498, Note_on_c, 1, 70, 96
1, 19499, Note_off_c, 1, 70, 96
1, 19501, Note_on_c, 1, 70, 96
1, 19502, Note_off_c, 1, 70, 96
1, 19617, Note_on_c, 1, 57, 96
1, 19620, Note_off_c, 1, 57, 96
1, 19620, Note_on_c, 1, 69, 96
1, 19620, Note_on_c, 1, 72, 96
1, 19622, Note_off_c, 1, 69, 96
1, 19622, Note_off_c, 1, 72, 96
1, 19622, Note_on_c, 1, 36, 96
1, 19623, Note_off_c, 1, 36, 96
1, 19742, Note_on_c, 1, 69, 96
1, 19743, Note_off_c, 1, 69, 96
1, 19745, Note_on_c, 1, 69, 96
1, 19747, Note_off_c, 1, 69, 96
1, 19747, Note_on_c, 1, 57, 96
1, 19750, Note_off_c, 1, 57, 96
1, 19750, Note_on_c, 1, 75, 96
1, 19750, Note_on_c, 1, 60, 96
1, 19751, Note_off_c, 1, 75, 96
1, 19751, Note_off_c, 1, 60, 96
1, 19988, Note_on_c, 1, 52, 96
1, 19988, Note_on_c, 1, 64, 96
1, 19990, Note_off_c, 1, 52, 96
1, 19990, Note_off_c, 1, 64, 96
1, 19990, Note_on_c, 1, 67, 96
1, 19991, Note_off_c, 1, 67, 96
1, 20232, Note_on_c, 1, 59, 96
1, 20234, Note_off_c, 1, 59, 96
1, 20234, Note_on_c, 1, 50, 96
1, 20235, Note_off_c, 1, 50, 96
1, 20419, Note_on_c, 1, 59, 96
1, 20420, Note_off_c, 1, 59, 96
1, 20482, Note_on_c, 1, 48, 96
1, 20483, Note_off_c, 1, 48, 96
1, 20541, Note_on_c, 1, 58, 96
1, 20542, Note_off_c, 1, 58, 96
1, 20662, Note_on_c, 1, 60, 96
1, 20663, Note_off_c, 1, 60, 96
1, 20785, Note_on_c, 1, 69, 96
1, 20785, Note_on_c, 1, 57, 96
1, 20786, Note_off_c, 1, 69, 96
1, 20786, Note_off_c, 1, 57, 96
1, 20906, Note_on_c, 1, 56, 96
1, 20907, Note_off_c, 1, 56, 96
1, 20910, Note_on_c, 1, 70, 96
1, 20910, Note_on_c, 1, 44, 96
1, 20911, Note_off_c, 1, 70, 96
1, 20911, Note_off_c, 1, 44, 96
1, 21027, Note_on_c, 1, 69, 96
1, 21028, Note_off_c, 1, 69, 96
1, 21148, Note_on_c, 1, 69, 96
1, 21149, Note_off_c, 1, 69, 96
1, 21152, Note_on_c, 1, 60, 96
1, 21152, Note_on_c, 1, 57, 96
1, 21154, Note_off_c, 1, 60, 96
1, 21154, Note_off_c, 1, 57, 96
1, 21154, Note_on_c, 1, 65, 96
1, 21156, Note_off_c, 1, 65, 96
1, 21156, Note_on_c, 1, 72, 96
1, 21157, Note_off_c, 1, 72, 96
1, 21275, Note_on_c, 1, 53, 96
1, 21275, Note_on_c, 1, 60, 96
1, 21277, Note_off_c, 1, 53, 96
1, 21277, Note_off_c, 1, 60, 96
1, 21277, Note_on_c, 1, 72, 96
1, 21278, Note_off_c, 1, 72, 96
1, 21281, Note_on_c, 1, 69, 96
1, 21281, Note_on_c, 1, 57, 96
1, 21282, Note_off_c, 1, 69, 96
1, 21282, Note_off_c, 1, 57, 96
1, 21402, Note_on_c, 1, 46, 96
1, 21405, Note_off_c, 1, 46, 96
1, 21405, Note_on_c, 1, 70, 96
1, 21405, Note_on_c, 1, 65, 96
1, 21406, Note_off_c, 1, 70, 96
1, 21406, Note_off_c, 1, 65, 96
1, 21466, Note_on_c, 1, 70, 96
1, 21467, Note_off_c, 1, 70, 96
1, 21530, Note_on_c, 1, 77, 96
1, 21530, Note_on_c, 1, 53, 96
1, 21531, Note_off_c, 1, 77, 96
1, 21531, Note_off_c, 1, 53, 96
1, 21591, Note_on_c, 1, 70, 96
1, 21591, Note_on_c, 1, 67, 96
1, 21592, Note_off_c, 1, 70, 96
1, 21592, Note_off_c, 1, 67, 96
1, 21654, Note_on_c, 1, 57, 96
1, 21654, Note_on_c, 1, 29, 96
1, 21655, Note_off_c, 1, 57, 96
1, 21655, Note_off_c, 1, 29, 96
1, 21714, Note_on_c, 1, 67, 96
1, 21715, Note_off_c, 1, 67, 96
1, 21775, Note_on_c, 1, 70, 96
1, 21777, Note_off_c, 1, 70, 96
1, 21777, Note_on_c, 1, 46, 96
1, 21779, Note_off_c, 1, 46, 96
1, 21779, Note_on_c, 1, 34, 96
1, 21781, Note_off_c, 1, 34, 96
1, 21781, Note_on_c, 1, 62, 96
1, 21782, Note_off_c, 1, 62, 96
1, 21837, Note_on_c, 1, 69, 96
1, 21838, Note_off_c, 1, 69, 96
1, 21900, Note_on_c, 1, 70, 96
1, 21902, Note_off_c, 1, 70, 96
1, 21902, Note_on_c, 1, 50, 96
1, 21903, Note_off_c, 1, 50, 96
1, 21963, Note_on_c, 1, 70, 96
1, 21964, Note_off_c, 1, 70, 96
1, 22023, Note_on_c, 1, 77, 96
1, 22024, Note_off_c, 1, 77, 96
1, 22082, Note_on_c, 1, 71, 96
1, 22083, Note_off_c, 1, 71, 96
1, 22142, Note_on_c, 1, 69, 96
1, 22143, Note_off_c, 1, 69, 96
1, 22147, Note_on_c, 1, 41, 96
1, 22147, Note_on_c, 1, 53, 96
1, 22148, Note_off_c, 1, 41, 96
1, 22148, Note_off_c, 1, 53, 96
1, 22264, Note_on_c, 1, 72, 96
1, 22266, Note_off_c, 1, 72, 96
1, 22266, Note_on_c, 1, 57, 96
1, 22269, Note_off_c, 1, 57, 96
1, 22269, Note_on_c, 1, 69, 96
1, 22269, Note_on_c, 1, 53, 96
1, 22270, Note_off_c, 1, 69, 96
1, 22270, Note_off_c, 1, 53, 96
1, 22272, Note_on_c, 1, 65, 96
1, 22273, Note_off_c, 1, 65, 96
1, 22394, Note_on_c, 1, 60, 96
1, 22395, Note_off_c, 1, 60, 96
1, 22397, Note_on_c, 1, 69, 96
1, 22398, Note_off_c, 1, 69, 96
1, 22515, Note_on_c, 1, 53, 96
1, 22515, Note_on_c, 1, 57, 96
1, 22516, Note_off_c, 1, 53, 96
1, 22516, Note_off_c, 1, 57, 96
1, 22576, Note_on_c, 1, 77, 96
1, 22577, Note_off_c, 1, 77, 96
1, 22634, Note_on_c, 1, 70, 96
1, 22636, Note_off_c, 1, 70, 96
1, 22636, Note_on_c, 1, 46, 96
1, 22637, Note_off_c, 1, 46, 96
1, 22639, Note_on_c, 1, 82, 96
1, 22641, Note_off_c, 1, 82, 96
1, 22641, Note_on_c, 1, 74, 96
1, 22642, Note_off_c, 1, 74, 96
1, 22758, Note_on_c, 1, 55, 96
1, 22760, Note_off_c, 1, 55, 96
1, 22760, Note_on_c, 1, 58, 96
1, 22761, Note_off_c, 1, 58, 96
1, 22763, Note_on_c, 1, 62, 96
1, 22764, Note_off_c, 1, 62, 96
1, 22819, Note_on_c, 1, 81, 96
1, 22820, Note_off_c, 1, 81, 96
1, 22883, Note_on_c, 1, 53, 96
1, 22885, Note_off_c, 1, 53, 96
1, 22885, Note_on_c, 1, 81, 96
1, 22887, Note_off_c, 1, 81, 96
1, 22887, Note_on_c, 1, 57, 96
1, 22888, Note_off_c, 1, 57, 96
1, 22944, Note_on_c, 1, 81, 96
1, 22945, Note_off_c, 1, 81, 96
1, 23003, Note_on_c, 1, 60, 96
1, 23004, Note_off_c, 1, 60, 96
1, 23006, Note_on_c, 1, 57, 96
1, 23008, Note_off_c, 1, 57, 96
1, 23008, Note_on_c, 1, 77, 96
1, 23009, Note_off_c, 1, 77, 96
1, 23011, Note_on_c, 1, 65, 96
1, 23012, Note_off_c, 1, 65, 96
1, 23071, Note_on_c, 1, 84, 96
1, 23072, Note_off_c, 1, 84, 96
1, 23129, Note_on_c, 1, 48, 96
1, 23131, Note_off_c, 1, 48, 96
1, 23131, Note_on_c, 1, 81, 96
1, 23132, Note_off_c, 1, 81, 96
1, 23197, Note_on_c, 1, 77, 96
1, 23198, Note_off_c, 1, 77, 96
1, 23258, Note_on_c, 1, 72, 96
1, 23258, Note_on_c, 1, 52, 96
1, 23260, Note_off_c, 1, 72, 96
1, 23260, Note_off_c, 1, 52, 96
1, 23260, Note_on_c, 1, 79, 96
1, 23261, Note_off_c, 1, 79, 96
1, 23375, Note_on_c, 1, 63, 96
1, 23377, Note_off_c, 1, 63, 96
1, 23377, Note_on_c, 1, 57, 96
1, 23378, Note_off_c, 1, 57, 96
1, 23380, Note_on_c, 1, 60, 96
1, 23382, Note_off_c, 1, 60, 96
1, 23382, Note_on_c, 1, 65, 96
1, 23384, Note_off_c, 1, 65, 96
1, 23384, Note_on_c, 1, 69, 96
1, 23385, Note_off_c, 1, 69, 96
1, 23501, Note_on_c, 1, 77, 96
1, 23502, Note_off_c, 1, 77, 96
1, 23505, Note_on_c, 1, 81, 96
1, 23505, Note_on_c, 1, 53, 96
1, 23507, Note_off_c, 1, 81, 96
1, 23507, Note_off_c, 1, 53, 96
1, 23507, Note_on_c, 1, 89, 96
1, 23508, Note_off_c, 1, 89, 96
1, 23627, Note_on_c, 1, 84, 96
1, 23630, Note_off_c, 1, 84, 96
1, 23630, Note_on_c, 1, 77, 96
1, 23630, Note_on_c, 1, 41, 96
1, 23632, Note_off_c, 1, 77, 96
1, 23632, Note_off_c, 1, 41, 96
1, 23632, Note_on_c, 1, 89, 96
1, 23633, Note_off_c, 1, 89, 96
1, 23748, Note_on_c, 1, 89, 96
1, 23749, Note_off_c, 1, 89, 96
1, 23752, Note_on_c, 1, 77, 96
1, 23753, Note_off_c, 1, 77, 96
1, 23756, Note_on_c, 1, 86, 96
1, 23757, Note_off_c, 1, 86, 96
1, 23813, Note_on_c, 1, 67, 96
1, 23813, Note_on_c, 1, 79, 96
1, 23814, Note_off_c, 1, 67, 96
1, 23814, Note_off_c, 1, 79, 96
1, 23873, Note_on_c, 1, 82, 96
1, 23874, Note_off_c, 1, 82, 96
1, 23877, Note_on_c, 1, 74, 96
1, 23878, Note_off_c, 1, 74, 96
1, 23882, Note_on_c, 1, 86, 96
1, 23882, Note_on_c, 1, 50, 96
1, 23883, Note_off_c, 1, 86, 96
1, 23883, Note_off_c, 1, 50, 96
1, 23996, Note_on_c, 1, 58, 96
1, 23997, Note_off_c, 1, 58, 96
1, 24003, Note_on_c, 1, 62, 96
1, 24004, Note_off_c, 1, 62, 96
1, 24062, Note_on_c, 1, 86, 96
1, 24062, Note_on_c, 1, 74, 96
1, 24063, Note_off_c, 1, 86, 96
1, 24063, Note_off_c, 1, 74, 96
1, 24118, Note_on_c, 1, 67, 96
1, 24119, Note_off_c, 1, 67, 96
1, 24121, Note_on_c, 1, 79, 96
1, 24123, Note_off_c, 1, 79, 96
1, 24123, Note_on_c, 1, 60, 96
1, 24124, Note_off_c, 1, 60, 96
1, 24127, Note_on_c, 1, 91, 96
1, 24127, Note_on_c, 1, 70, 96
1, 24129, Note_off_c, 1, 91, 96
1, 24129, Note_off_c, 1, 70, 96
1, 24129, Note_on_c, 1, 64, 96
1, 24130, Note_off_c, 1, 64, 96
1, 24245, Note_on_c, 1, 56, 96
1, 24245, Note_on_c, 1, 62, 96
1, 24246, Note_off_c, 1, 56, 96
1, 24246, Note_off_c, 1, 62, 96
1, 24253, Note_on_c, 1, 53, 96
1, 24253, Note_on_c, 1, 58, 96
1, 24254, Note_off_c, 1, 53, 96
1, 24254, Note_off_c, 1, 58, 96
1, 24368, Note_on_c, 1, 77, 96
1, 24369, Note_off_c, 1, 77, 96
1, 24371, Note_on_c, 1, 70, 96
1, 24372, Note_off_c, 1, 70, 96
1, 24375, Note_on_c, 1, 74, 96
1, 24376, Note_off_c, 1, 74, 96
1, 24434, Note_on_c, 1, 74, 96
1, 24434, Note_on_c, 1, 81, 96
1, 24435, Note_off_c, 1, 74, 96
1, 24435, Note_off_c, 1, 81, 96
1, 24437, Note_on_c, 1, 69, 96
1, 24438, Note_off_c, 1, 69, 96
1, 24495, Note_on_c, 1, 58, 96
1, 24497, Note_off_c, 1, 58, 96
1, 24497, Note_on_c, 1, 53, 96
1, 24498, Note_off_c, 1, 53, 96
1, 24501, Note_on_c, 1, 62, 96
1, 24502, Note_off_c, 1, 62, 96
1, 24564, Note_on_c, 1, 82, 96
1, 24565, Note_off_c, 1, 82, 96
1, 24624, Note_on_c, 1, 79, 96
1, 24625, Note_off_c, 1, 79, 96
1, 24742, Note_on_c, 1, 77, 96
1, 24743, Note_off_c, 1, 77, 96
1, 24747, Note_on_c, 1, 74, 96
1, 24747, Note_on_c, 1, 53, 96
1, 24747, Note_on_c, 1, 58, 96
1, 24748, Note_off_c, 1, 74, 96
1, 24748, Note_off_c, 1, 53, 96
1, 24748, Note_off_c, 1, 58, 96
1, 24750, Note_on_c, 1, 70, 96
1, 24752, Note_off_c, 1, 70, 96
1, 24752, Note_on_c, 1, 62, 96
1, 24753, Note_off_c, 1, 62, 96
1, 24868, Note_on_c, 1, 70, 96
1, 24868, Note_on_c, 1, 46, 96
1, 24872, Note_off_c, 1, 70, 96
1, 24872, Note_off_c, 1, 46, 96
1, 24872, Note_on_c, 1, 77, 96
1, 24872, Note_on_c, 1, 74, 96
1, 24872, Note_on_c, 1, 58, 96
1, 24873, Note_off_c, 1, 77, 96
1, 24873, Note_off_c, 1, 74, 96
1, 24873, Note_off_c, 1, 58, 96
1, 24992, Note_on_c, 1, 74, 96
1, 24993, Note_off_c, 1, 74, 96
1, 24996, Note_on_c, 1, 58, 96
1, 24998, Note_off_c, 1, 58, 96
1, 24998, Note_on_c, 1, 77, 96
1, 24999, Note_off_c, 1, 77, 96
1, 25003, Note_on_c, 1, 70, 96
1, 25003, Note_on_c, 1, 62, 96
1, 25003, Note_on_c, 1, 53, 96
1, 25004, Note_off_c, 1, 70, 96
1, 25004, Note_off_c, 1, 62, 96
1, 25004, Note_off_c, 1, 53, 96
1, 25120, Note_on_c, 1, 62, 96
1, 25121, Note_off_c, 1, 62, 96
1, 25123, Note_on_c, 1, 58, 96
1, 25124, Note_off_c, 1, 58, 96
1, 25127, Note_on_c, 1, 53, 96
1, 25128, Note_off_c, 1, 53, 96
1, 25186, Note_on_c, 1, 76, 96
1, 25187, Note_off_c, 1, 76, 96
1, 25243, Note_on_c, 1, 74, 96
1, 25244, Note_off_c, 1, 74, 96
1, 25249, Note_on_c, 1, 41, 96
1, 25250, Note_off_c, 1, 41, 96
1, 25365, Note_on_c, 1, 62, 96
1, 25367, Note_off_c, 1, 62, 96
1, 25367, Note_on_c, 1, 53, 96
1, 25368, Note_off_c, 1, 53, 96
1, 25370, Note_on_c, 1, 81, 96
1, 25373, Note_off_c, 1, 81, 96
1, 25373, Note_on_c, 1, 71, 96
1, 25373, Note_on_c, 1, 58, 96
1, 25374, Note_off_c, 1, 71, 96
1, 25374, Note_off_c, 1, 58, 96
1, 25490, Note_on_c, 1, 41, 96
1, 25491, Note_off_c, 1, 41, 96
1, 25494, Note_on_c, 1, 53, 96
1, 25495, Note_off_c, 1, 53, 96
1, 25549, Note_on_c, 1, 84, 96
1, 25550, Note_off_c, 1, 84, 96
1, 25609, Note_on_c, 1, 48, 96
1, 25610, Note_off_c, 1, 48, 96
1, 25612, Note_on_c, 1, 72, 96
1, 25613, Note_off_c, 1, 72, 96
1, 25732, Note_on_c, 1, 38, 96
1, 25734, Note_off_c, 1, 38, 96
1, 25734, Note_on_c, 1, 50, 96
1, 25735, Note_off_c, 1, 50, 96
1, 25853, Note_on_c, 1, 78, 96
1, 25854, Note_off_c, 1, 78, 96
1, 25973, Note_on_c, 1, 38, 96
1, 25974, Note_off_c, 1, 38, 96
1, 25977, Note_on_c, 1, 79, 96
1, 25979, Note_off_c, 1, 79, 96
1, 25979, Note_on_c, 1, 50, 96
1, 25980, Note_off_c, 1, 50, 96
1, 26217, Note_on_c, 1, 78, 96
1, 26218, Note_off_c, 1, 78, 96
1, 26222, Note_on_c, 1, 66, 96
1, 26223, Note_off_c, 1, 66, 96
1, 26339, Note_on_c, 1, 63, 96
1, 26340, Note_off_c, 1, 63, 96
1, 26342, Note_on_c, 1, 72, 96
1, 26343, Note_off_c, 1, 72, 96
1, 26346, Note_on_c, 1, 47, 96
1, 26346, Note_on_c, 1, 54, 96
1, 26347, Note_off_c, 1, 47, 96
1, 26347, Note_off_c, 1, 54, 96
1, 26463, Note_on_c, 1, 44, 96
1, 26464, Note_off_c, 1, 44, 96
1, 26468, Note_on_c, 1, 72, 96
1, 26469, Note_off_c, 1, 72, 96
1, 26588, Note_on_c, 1, 38, 96
1, 26589, Note_off_c, 1, 38, 96
1, 26825, Note_on_c, 1, 65, 96
1, 26826, Note_off_c, 1, 65, 96
1, 26829, Note_on_c, 1, 74, 96
1, 26831, Note_off_c, 1, 74, 96
1, 26831, Note_on_c, 1, 62, 96
1, 26833, Note_off_c, 1, 62, 96
1, 26833, Note_on_c, 1, 55, 96
1, 26834, Note_off_c, 1, 55, 96
1, 26947, Note_on_c, 1, 55, 96
1, 26948, Note_off_c, 1, 55, 96
1, 26952, Note_on_c, 1, 43, 96
1, 26953, Note_off_c, 1, 43, 96
1, 27070, Note_on_c, 1, 74, 96
1, 27071, Note_off_c, 1, 74, 96
1, 27187, Note_on_c, 1, 50, 96
1, 27188, Note_off_c, 1, 50, 96
1, 27191, Note_on_c, 1, 62, 96
1, 27193, Note_off_c, 1, 62, 96
1, 27193, Note_on_c, 1, 74, 96
1, 27194, Note_off_c, 1, 74, 96
1, 27314, Note_on_c, 1, 65, 96
1, 27315, Note_off_c, 1, 65, 96
1, 27320, Note_on_c, 1, 59, 96
1, 27320, Note_on_c, 1, 55, 96
1, 27321, Note_off_c, 1, 59, 96
1, 27321, Note_off_c, 1, 55, 96
1, 27437, Note_on_c, 1, 59, 96
1, 27438, Note_off_c, 1, 59, 96
1, 27442, Note_on_c, 1, 74, 96
1, 27444, Note_off_c, 1, 74, 96
1, 27444, Note_on_c, 1, 55, 96
1, 27447, Note_off_c, 1, 55, 96
1, 27447, Note_on_c, 1, 50, 96
1, 27447, Note_on_c, 1, 53, 96
1, 27448, Note_off_c, 1, 50, 96
1, 27448, Note_off_c, 1, 53, 96
1, 27561, Note_on_c, 1, 81, 96
1, 27563, Note_off_c, 1, 81, 96
1, 27563, Note_on_c, 1, 69, 96
1, 27564, Note_off_c, 1, 69, 96
1, 27568, Note_on_c, 1, 78, 96
1, 27571, Note_off_c, 1, 78, 96
1, 27571, Note_on_c, 1, 52, 96
1, 27571, Note_on_c, 1, 62, 96
1, 27572, Note_off_c, 1, 52, 96
1, 27572, Note_off_c, 1, 62, 96
1, 27686, Note_on_c, 1, 79, 96
1, 27686, Note_on_c, 1, 52, 96
1, 27687, Note_off_c, 1, 79, 96
1, 27687, Note_off_c, 1, 52, 96
1, 27694, Note_on_c, 1, 76, 96
1, 27694, Note_on_c, 1, 60, 96
1, 27696, Note_off_c, 1, 76, 96
1, 27696, Note_off_c, 1, 60, 96
1, 27696, Note_on_c, 1, 71, 96
1, 27699, Note_off_c, 1, 71, 96
1, 27699, Note_on_c, 1, 57, 96
1, 27699, Note_on_c, 1, 55, 96
1, 27700, Note_off_c, 1, 57, 96
1, 27700, Note_off_c, 1, 55, 96
1, 27936, Note_on_c, 1, 43, 96
1, 27937, Note_off_c, 1, 43, 96
1, 27941, Note_on_c, 1, 67, 96
1, 27942, Note_off_c, 1, 67, 96
1, 28056, Note_on_c, 1, 58, 96
1, 28057, Note_off_c, 1, 58, 96
1, 28062, Note_on_c, 1, 43, 96
1, 28063, Note_off_c, 1, 43, 96
1, 28065, Note_on_c, 1, 67, 96
1, 28066, Note_off_c, 1, 67, 96
1, 28180, Note_on_c, 1, 62, 96
1, 28181, Note_off_c, 1, 62, 96
1, 28184, Note_on_c, 1, 50, 96
1, 28185, Note_off_c, 1, 50, 96
1, 28302, Note_on_c, 1, 54, 96
1, 28302, Note_on_c, 1, 60, 96
1, 28303, Note_off_c, 1, 54, 96
1, 28303, Note_off_c, 1, 60, 96
1, 28307, Note_on_c, 1, 72, 96
1, 28307, Note_on_c, 1, 50, 96
1, 28308, Note_off_c, 1, 72, 96
1, 28308, Note_off_c, 1, 50, 96
1, 28310, Note_on_c, 1, 66, 96
1, 28311, Note_off_c, 1, 66, 96
1, 28427, Note_on_c, 1, 48, 96
1, 28428, Note_off_c, 1, 48, 96
1, 28547, Note_on_c, 1, 60, 96
1, 28548, Note_off_c, 1, 60, 96
1, 28551, Note_on_c, 1, 55, 96
1, 28552, Note_off_c, 1, 55, 96
1, 28555, Note_on_c, 1, 52, 96
1, 28556, Note_off_c, 1, 52, 96
1, 28791, Note_on_c, 1, 67, 96
1, 28791, Note_on_c, 1, 55, 96
1, 28792, Note_off_c, 1, 67, 96
1, 28792, Note_off_c, 1, 55, 96
1, 28797, Note_on_c, 1, 43, 96
1, 28798, Note_off_c, 1, 43, 96
1, 29042, Note_on_c, 1, 52, 96
1, 29042, Note_on_c, 1, 55, 96
1, 29042, Note_on_c, 1, 60, 96
1, 29043, Note_off_c, 1, 52, 96
1, 29043, Note_off_c, 1, 55, 96
1, 29043, Note_off_c, 1, 60, 96
1, 29277, Note_on_c, 1, 43, 96
1, 29278, Note_off_c, 1, 43, 96
1, 29281, Note_on_c, 1, 69, 96
1, 29282, Note_off_c, 1, 69, 96
1, 29287, Note_on_c, 1, 64, 96
1, 29288, Note_off_c, 1, 64, 96
1, 29405, Note_on_c, 1, 64, 96
1, 29406, Note_off_c, 1, 64, 96
1, 29409, Note_on_c, 1, 45, 96
1, 29410, Note_off_c, 1, 45, 96
1, 29525, Note_on_c, 1, 60, 96
1, 29526, Note_off_c, 1, 60, 96
1, 29530, Note_on_c, 1, 64, 96
1, 29530, Note_on_c, 1, 55, 96
1, 29531, Note_off_c, 1, 64, 96
1, 29531, Note_off_c, 1, 55, 96
1, 29533, Note_on_c, 1, 48, 96
1, 29534, Note_off_c, 1, 48, 96
1, 29651, Note_on_c, 1, 60, 96
1, 29651, Note_on_c, 1, 64, 96
1, 29652, Note_off_c, 1, 60, 96
1, 29652, Note_off_c, 1, 64, 96
1, 29654, Note_on_c, 1, 55, 96
1, 29655, Note_off_c, 1, 55, 96
1, 29770, Note_on_c, 1, 74, 96
1, 29772, Note_off_c, 1, 74, 96
1, 29772, Note_on_c, 1, 55, 96
1, 29773, Note_off_c, 1, 55, 96
1, 29902, Note_on_c, 1, 70, 96
1, 29902, Note_on_c, 1, 48, 96
1, 29903, Note_off_c, 1, 70, 96
1, 29903, Note_off_c, 1, 48, 96
1, 30139, Note_on_c, 1, 69, 96
1, 30139, Note_on_c, 1, 60, 96
1, 30140, Note_off_c, 1, 69, 96
1, 30140, Note_off_c, 1, 60, 96
1, 30142, Note_on_c, 1, 57, 96
1, 30144, Note_off_c, 1, 57, 96
1, 30144, Note_on_c, 1, 53, 96
1, 30146, Note_off_c, 1, 53, 96
1, 30146, Note_on_c, 1, 63, 96
1, 30147, Note_off_c, 1, 63, 96
1, 30270, Note_on_c, 1, 43, 96
1, 30270, Note_on_c, 1, 55, 96
1, 30270, Note_on_c, 1, 74, 96
1, 30271, Note_off_c, 1, 43, 96
1, 30271, Note_off_c, 1, 55, 96
1, 30271, Note_off_c, 1, 74, 96
1, 30325, Note_on_c, 1, 67, 96
1, 30326, Note_off_c, 1, 67, 96
1, 30385, Note_on_c, 1, 60, 96
1, 30387, Note_off_c, 1, 60, 96
1, 30387, Note_on_c, 1, 52, 96
1, 30390, Note_off_c, 1, 52, 96
1, 30390, Note_on_c, 1, 64, 96
1, 30390, Note_on_c, 1, 55, 96
1, 30392, Note_off_c, 1, 64, 96
1, 30392, Note_off_c, 1, 55, 96
1, 30392, Note_on_c, 1, 64, 96
1, 30394, Note_off_c, 1, 64, 96
1, 30394, Note_on_c, 1, 72, 96
1, 30396, Note_off_c, 1, 72, 96
1, 30396, Note_on_c, 1, 48, 96
1, 30397, Note_off_c, 1, 48, 96
1, 30512, Note_on_c, 1, 67, 96
1, 30514, Note_off_c, 1, 67, 96
1, 30514, Note_on_c, 1, 43, 96
1, 30515, Note_off_c, 1, 43, 96
1, 30631, Note_on_c, 1, 63, 96
1, 30632, Note_off_c, 1, 63, 96
1, 30639, Note_on_c, 1, 60, 96
1, 30640, Note_off_c, 1, 60, 96
1, 30694, Note_on_c, 1, 69, 96
1, 30695, Note_off_c, 1, 69, 96
1, 30754, Note_on_c, 1, 48, 96
1, 30755, Note_off_c, 1, 48, 96
1, 30758, Note_on_c, 1, 43, 96
1, 30759, Note_off_c, 1, 43, 96
1, 30816, Note_on_c, 1, 66, 96
1, 30817, Note_off_c, 1, 66, 96
1, 30872, Note_on_c, 1, 67, 96
1, 30873, Note_off_c, 1, 67, 96
1, 30876, Note_on_c, 1, 64, 96
1, 30876, Note_on_c, 1, 52, 96
1, 30877, Note_off_c, 1, 64, 96
1, 30877, Note_off_c, 1, 52, 96
1, 30882, Note_on_c, 1, 60, 96
1, 30883, Note_off_c, 1, 60, 96
1, 30943, Note_on_c, 1, 67, 96
1, 30944, Note_off_c, 1, 67, 96
1, 31003, Note_on_c, 1, 43, 96
1, 31004, Note_off_c, 1, 43, 96
1, 31062, Note_on_c, 1, 67, 96
1, 31063, Note_off_c, 1, 67, 96
1, 31123, Note_on_c, 1, 48, 96
1, 31123, Note_on_c, 1, 52, 96
1, 31125, Note_off_c, 1, 48, 96
1, 31125, Note_off_c, 1, 52, 96
1, 31125, Note_on_c, 1, 55, 96
1, 31126, Note_off_c, 1, 55, 96
1, 31131, Note_on_c, 1, 60, 96
1, 31132, Note_off_c, 1, 60, 96
1, 31249, Note_on_c, 1, 52, 96
1, 31249, Note_on_c, 1, 55, 96
1, 31250, Note_off_c, 1, 52, 96
1, 31250, Note_off_c, 1, 55, 96
1, 31252, Note_on_c, 1, 60, 96
1, 31253, Note_off_c, 1, 60, 96
1, 31310, Note_on_c, 1, 67, 96
1, 31311, Note_off_c, 1, 67, 96
1, 31369, Note_on_c, 1, 71, 96
1, 31370, Note_off_c, 1, 71, 96
1, 31376, Note_on_c, 1, 52, 96
1, 31377, Note_off_c, 1, 52, 96
1, 31490, Note_on_c, 1, 52, 96
1, 31492, Note_off_c, 1, 52, 96
1, 31492, Note_on_c, 1, 55, 96
1, 31494, Note_off_c, 1, 55, 96
1, 31494, Note_on_c, 1, 59, 96
1, 31495, Note_off_c, 1, 59, 96
1, 31498, Note_on_c, 1, 69, 96
1, 31499, Note_off_c, 1, 69, 96
1, 31558, Note_on_c, 1, 69, 96
1, 31559, Note_off_c, 1, 69, 96
1, 31616, Note_on_c, 1, 55, 96
1, 31617, Note_off_c, 1, 55, 96
1, 31621, Note_on_c, 1, 74, 96
1, 31621, Note_on_c, 1, 59, 96
1, 31621, Note_on_c, 1, 53, 96
1, 31622, Note_off_c, 1, 74, 96
1, 31622, Note_off_c, 1, 59, 96
1, 31622, Note_off_c, 1, 53, 96
1, 31625, Note_on_c, 1, 71, 96
1, 31625, Note_on_c, 1, 53, 96
1, 31626, Note_off_c, 1, 71, 96
1, 31626, Note_off_c, 1, 53, 96
1, 31744, Note_on_c, 1, 43, 96
1, 31745, Note_off_c, 1, 43, 96
1, 31802, Note_on_c, 1, 69, 96
1, 31803, Note_off_c, 1, 69, 96
1, 31863, Note_on_c, 1, 65, 96
1, 31866, Note_off_c, 1, 65, 96
1, 31866, Note_on_c, 1, 43, 96
1, 31866, Note_on_c, 1, 67, 96
1, 31867, Note_off_c, 1, 43, 96
1, 31867, Note_off_c, 1, 67, 96
1, 31873, Note_on_c, 1, 74, 96
1, 31874, Note_off_c, 1, 74, 96
1, 31989, Note_on_c, 1, 55, 96
1, 31989, Note_on_c, 1, 53, 96
1, 31990, Note_off_c, 1, 55, 96
1, 31990, Note_off_c, 1, 53, 96
1, 31996, Note_on_c, 1, 59, 96
1, 31997, Note_off_c, 1, 59, 96
1, 32111, Note_on_c, 1, 48, 96
1, 32113, Note_off_c, 1, 48, 96
1, 32113, Note_on_c, 1, 72, 96
1, 32114, Note_off_c, 1, 72, 96
1, 32238, Note_on_c, 1, 65, 96
1, 32238, Note_on_c, 1, 74, 96
1, 32238, Note_on_c, 1, 71, 96
1, 32238, Note_on_c, 1, 59, 96
1, 32239, Note_off_c, 1, 65, 96
1, 32239, Note_off_c, 1, 74, 96
1, 32239, Note_off_c, 1, 71, 96
1, 32239, Note_off_c, 1, 59, 96
1, 32295, Note_on_c, 1, 79, 96
1, 32296, Note_off_c, 1, 79, 96
1, 32356, Note_on_c, 1, 43, 96
1, 32359, Note_off_c, 1, 43, 96
1, 32359, Note_on_c, 1, 72, 96
1, 32359, Note_on_c, 1, 31, 96
1, 32361, Note_off_c, 1, 72, 96
1, 32361, Note_off_c, 1, 31, 96
1, 32361, Note_on_c, 1, 75, 96
1, 32362, Note_off_c, 1, 75, 96
1, 32420, Note_on_c, 1, 74, 96
1, 32421, Note_off_c, 1, 74, 96
1, 32481, Note_on_c, 1, 81, 96
1, 32482, Note_off_c, 1, 81, 96
1, 32484, Note_on_c, 1, 43, 96
1, 32486, Note_off_c, 1, 43, 96
1, 32486, Note_on_c, 1, 77, 96
1, 32487, Note_off_c, 1, 77, 96
1, 32543, Note_on_c, 1, 74, 96
1, 32544, Note_off_c, 1, 74, 96
1, 32605, Note_on_c, 1, 59, 96
1, 32606, Note_off_c, 1, 59, 96
1, 32608, Note_on_c, 1, 55, 96
1, 32610, Note_off_c, 1, 55, 96
1, 32610, Note_on_c, 1, 74, 96
1, 32611, Note_off_c, 1, 74, 96
1, 32668, Note_on_c, 1, 79, 96
1, 32669, Note_off_c, 1, 79, 96
1, 32730, Note_on_c, 1, 65, 96
1, 32730, Note_on_c, 1, 43, 96
1, 32731, Note_off_c, 1, 65, 96
1, 32731, Note_off_c, 1, 43, 96
1, 32736, Note_on_c, 1, 69, 96
1, 32737, Note_off_c, 1, 69, 96
1, 32797, Note_on_c, 1, 74, 96
1, 32798, Note_off_c, 1, 74, 96
1, 32856, Note_on_c, 1, 72, 96
1, 32857, Note_off_c, 1, 72, 96
1, 32859, Note_on_c, 1, 48, 96
1, 32860, Note_off_c, 1, 48, 96
1, 32978, Note_on_c, 1, 77, 96
1, 32979, Note_off_c, 1, 77, 96
1, 32982, Note_on_c, 1, 47, 96
1, 32983, Note_off_c, 1, 47, 96
1, 33103, Note_on_c, 1, 59, 96
1, 33104, Note_off_c, 1, 59, 96
1, 33108, Note_on_c, 1, 65, 96
1, 33108, Note_on_c, 1, 50, 96
1, 33108, Note_on_c, 1, 55, 96
1, 33109, Note_off_c, 1, 65, 96
1, 33109, Note_off_c, 1, 50, 96
1, 33109, Note_off_c, 1, 55, 96
1, 33223, Note_on_c, 1, 48, 96
1, 33224, Note_off_c, 1, 48, 96
1, 33227, Note_on_c, 1, 60, 96
1, 33229, Note_off_c, 1, 60, 96
1, 33229, Note_on_c, 1, 72, 96
1, 33230, Note_off_c, 1, 72, 96
1, 33344, Note_on_c, 1, 62, 96
1, 33345, Note_off_c, 1, 62, 96
1, 33350, Note_on_c, 1, 50, 96
1, 33351, Note_off_c, 1, 50, 96
1, 33353, Note_on_c, 1, 71, 96
1, 33354, Note_off_c, 1, 71, 96
1, 33473, Note_on_c, 1, 50, 96
1, 33475, Note_off_c, 1, 50, 96
1, 33475, Note_on_c, 1, 62, 96
1, 33476, Note_off_c, 1, 62, 96
1, 33708, Note_on_c, 1, 69, 96
1, 33708, Note_on_c, 1, 45, 96
1, 33709, Note_off_c, 1, 69, 96
1, 33709, Note_off_c, 1, 45, 96
1, 33712, Note_on_c, 1, 57, 96
1, 33713, Note_off_c, 1, 57, 96
1, 33952, Note_on_c, 1, 69, 96
1, 33953, Note_off_c, 1, 69, 96
1, 33959, Note_on_c, 1, 50, 96
1, 33960, Note_off_c, 1, 50, 96
1, 34190, Note_on_c, 1, 69, 96
1, 34191, Note_off_c, 1, 69, 96
1, 34197, Note_on_c, 1, 60, 96
1, 34197, Note_on_c, 1, 54, 96
1, 34197, Note_on_c, 1, 50, 96
1, 34199, Note_off_c, 1, 60, 96
1, 34199, Note_off_c, 1, 54, 96
1, 34199, Note_off_c, 1, 50, 96
1, 34199, Note_on_c, 1, 66, 96
1, 34200, Note_off_c, 1, 66, 96
1, 34437, Note_on_c, 1, 57, 96
1, 34439, Note_off_c, 1, 57, 96
1, 34439, Note_on_c, 1, 74, 96
1, 34441, Note_off_c, 1, 74, 96
1, 34441, Note_on_c, 1, 60, 96
1, 34443, Note_off_c, 1, 60, 96
1, 34443, Note_on_c, 1, 54, 96
1, 34444, Note_off_c, 1, 54, 96
1, 34621, Note_on_c, 1, 69, 96
1, 34622, Note_off_c, 1, 69, 96
1, 34686, Note_on_c, 1, 43, 96
1, 34687, Note_off_c, 1, 43, 96
1, 34869, Note_on_c, 1, 71, 96
1, 34870, Note_off_c, 1, 71, 96
1, 34911, Note_on_c, 1, 71, 96
1, 34912, Note_off_c, 1, 71, 96
1, 34958, Note_on_c, 1, 48, 96
1, 34959, Note_off_c, 1, 48, 96
1, 34961, Note_on_c, 1, 72, 96
1, 34962, Note_off_c, 1, 72, 96
1, 35142, Note_on_c, 1, 42, 96
1, 35143, Note_off_c, 1, 42, 96
1, 35148, Note_on_c, 1, 54, 96
1, 35149, Note_off_c, 1, 54, 96
1, 35380, Note_on_c, 1, 40, 96
1, 35381, Note_off_c, 1, 40, 96
1, 35383, Note_on_c, 1, 52, 96
1, 35384, Note_off_c, 1, 52, 96
1, 35387, Note_on_c, 1, 40, 96
1, 35388, Note_off_c, 1, 40, 96
1, 35622, Note_on_c, 1, 35, 96
1, 35623, Note_off_c, 1, 35, 96
1, 35625, Note_on_c, 1, 47, 96
1, 35626, Note_off_c, 1, 47, 96
1, 35682, Note_on_c, 1, 43, 96
1, 35684, Note_off_c, 1, 43, 96
1, 35684, Note_on_c, 1, 69, 96
1, 35685, Note_off_c, 1, 69, 96
1, 35690, Note_on_c, 1, 55, 96
1, 35691, Note_off_c, 1, 55, 96
1, 35927, Note_on_c, 1, 59, 96
1, 35928, Note_off_c, 1, 59, 96
1, 35930, Note_on_c, 1, 67, 96
1, 35931, Note_off_c, 1, 67, 96
1, 36049, Note_on_c, 1, 62, 96
1, 36049, Note_on_c, 1, 59, 96
1, 36050, Note_off_c, 1, 62, 96
1, 36050, Note_off_c, 1, 59, 96
1, 36052, Note_on_c, 1, 65, 96
1, 36053, Note_off_c, 1, 65, 96
1, 36569, Note_on_c, 1, 71, 96
1, 36570, Note_off_c, 1, 71, 96
1, 36577, Note_on_c, 1, 80, 96
1, 36577, Note_on_c, 1, 68, 96
1, 36577, Note_on_c, 1, 44, 96
1, 36578, Note_off_c, 1, 80, 96
1, 36578, Note_off_c, 1, 68, 96
1, 36578, Note_off_c, 1, 44, 96
1, 36707, Note_on_c, 1, 84, 96
1, 36708, Note_off_c, 1, 84, 96
1, 36927, Note_on_c, 1, 84, 96
1, 36928, Note_off_c, 1, 84, 96
1, 36948, Note_on_c, 1, 42, 96
1, 36948, Note_on_c, 1, 54, 96
1, 36949, Note_off_c, 1, 42, 96
1, 36949, Note_off_c, 1, 54, 96
1, 37075, Note_on_c, 1, 76, 96
1, 37078, Note_off_c, 1, 76, 96
1, 37078, Note_on_c, 1, 88, 96
1, 37078, Note_on_c, 1, 54, 96
1, 37080, Note_off_c, 1, 88, 96
1, 37080, Note_off_c, 1, 54, 96
1, 37080, Note_on_c, 1, 80, 96
1, 37081, Note_off_c, 1, 80, 96
1, 37085, Note_on_c, 1, 60, 96
1, 37085, Note_on_c, 1, 50, 96
1, 37086, Note_off_c, 1, 60, 96
1, 37086, Note_off_c, 1, 50, 96
1, 37331, Note_on_c, 1, 48, 96
1, 37332, Note_off_c, 1, 48, 96
1, 37453, Note_on_c, 1, 76, 96
1, 37456, Note_off_c, 1, 76, 96
1, 37456, Note_on_c, 1, 71, 96
1, 37456, Note_on_c, 1, 83, 96
1, 37457, Note_off_c, 1, 71, 96
1, 37457, Note_off_c, 1, 83, 96
1, 37517, Note_on_c, 1, 74, 96
1, 37518, Note_off_c, 1, 74, 96
1, 37574, Note_on_c, 1, 55, 96
1, 37575, Note_off_c, 1, 55, 96
1, 37578, Note_on_c, 1, 60, 96
1, 37578, Note_on_c, 1, 72, 96
1, 37580, Note_off_c, 1, 60, 96
1, 37580, Note_off_c, 1, 72, 96
1, 37580, Note_on_c, 1, 64, 96
1, 37581, Note_off_c, 1, 64, 96
1, 37584, Note_on_c, 1, 84, 96
1, 37584, Note_on_c, 1, 76, 96
1, 37585, Note_off_c, 1, 84, 96
1, 37585, Note_off_c, 1, 76, 96
1, 37642, Note_on_c, 1, 79, 96
1, 37643, Note_off_c, 1, 79, 96
1, 37702, Note_on_c, 1, 57, 96
1, 37703, Note_off_c, 1, 57, 96
1, 37705, Note_on_c, 1, 84, 96
1, 37706, Note_off_c, 1, 84, 96
1, 37708, Note_on_c, 1, 79, 96
1, 37709, Note_off_c, 1, 79, 96
1, 37826, Note_on_c, 1, 48, 96
1, 37827, Note_off_c, 1, 48, 96
1, 37829, Note_on_c, 1, 60, 96
1, 37830, Note_off_c, 1, 60, 96
1, 37835, Note_on_c, 1, 69, 96
1, 37835, Note_on_c, 1, 81, 96
1, 37836, Note_off_c, 1, 69, 96
1, 37836, Note_off_c, 1, 81, 96
1, 37896, Note_on_c, 1, 79, 96
1, 37897, Note_off_c, 1, 79, 96
1, 37957, Note_on_c, 1, 79, 96
1, 37958, Note_off_c, 1, 79, 96
1, 38012, Note_on_c, 1, 79, 96
1, 38013, Note_off_c, 1, 79, 96
1, 38077, Note_on_c, 1, 79, 96
1, 38078, Note_off_c, 1, 79, 96
1, 38136, Note_on_c, 1, 63, 96
1, 38137, Note_off_c, 1, 63, 96
1, 38143, Note_on_c, 1, 81, 96
1, 38144, Note_off_c, 1, 81, 96
1, 38264, Note_on_c, 1, 79, 96
1, 38265, Note_off_c, 1, 79, 96
1, 38322, Note_on_c, 1, 75, 96
1, 38323, Note_off_c, 1, 75, 96
1, 38387, Note_on_c, 1, 76, 96
1, 38388, Note_off_c, 1, 76, 96
1, 38444, Note_on_c, 1, 65, 96
1, 38445, Note_off_c, 1, 65, 96
1, 38447, Note_on_c, 1, 77, 96
1, 38448, Note_off_c, 1, 77, 96
1, 38506, Note_on_c, 1, 72, 96
1, 38507, Note_off_c, 1, 72, 96
1, 38569, Note_on_c, 1, 71, 96
1, 38570, Note_off_c, 1, 71, 96
1, 38625, Note_on_c, 1, 72, 96
1, 38626, Note_off_c, 1, 72, 96
1, 38628, Note_on_c, 1, 48, 96
1, 38629, Note_off_c, 1, 48, 96
1, 38748, Note_on_c, 1, 76, 96
1, 38749, Note_off_c, 1, 76, 96
1, 38751, Note_on_c, 1, 55, 96
1, 38752, Note_off_c, 1, 55, 96
1, 38755, Note_on_c, 1, 65, 96
1, 38756, Note_off_c, 1, 65, 96
1, 38872, Note_on_c, 1, 67, 96
1, 38874, Note_off_c, 1, 67, 96
1, 38874, Note_on_c, 1, 59, 96
1, 38876, Note_off_c, 1, 59, 96
1, 38876, Note_on_c, 1, 65, 96
1, 38877, Note_off_c, 1, 65, 96
1, 38994, Note_on_c, 1, 67, 96
1, 38995, Note_off_c, 1, 67, 96
1, 38997, Note_on_c, 1, 59, 96
1, 38999, Note_off_c, 1, 59, 96
1, 38999, Note_on_c, 1, 47, 96
1, 39000, Note_off_c, 1, 47, 96
1, 39002, Note_on_c, 1, 65, 96
1, 39003, Note_off_c, 1, 65, 96
1, 39119, Note_on_c, 1, 46, 96
1, 39120, Note_off_c, 1, 46, 96
1, 39123, Note_on_c, 1, 74, 96
1, 39124, Note_off_c, 1, 74, 96
1, 39184, Note_on_c, 1, 65, 96
1, 39184, Note_on_c, 1, 68, 96
1, 39185, Note_off_c, 1, 65, 96
1, 39185, Note_off_c, 1, 68, 96
1, 39250, Note_on_c, 1, 45, 96
1, 39251, Note_off_c, 1, 45, 96
1, 39310, Note_on_c, 1, 72, 96
1, 39311, Note_off_c, 1, 72, 96
1, 39367, Note_on_c, 1, 60, 96
1, 39368, Note_off_c, 1, 60, 96
1, 39372, Note_on_c, 1, 76, 96
1, 39372, Note_on_c, 1, 55, 96
1, 39373, Note_off_c, 1, 76, 96
1, 39373, Note_off_c, 1, 55, 96
1, 39432, Note_on_c, 1, 69, 96
1, 39432, Note_on_c, 1, 57, 96
1, 39433, Note_off_c, 1, 69, 96
1, 39433, Note_off_c, 1, 57, 96
1, 39491, Note_on_c, 1, 67, 96
1, 39492, Note_off_c, 1, 67, 96
1, 39498, Note_on_c, 1, 58, 96
1, 39499, Note_off_c, 1, 58, 96
1, 39555, Note_on_c, 1, 70, 96
1, 39557, Note_off_c, 1, 70, 96
1, 39557, Note_on_c, 1, 58, 96
1, 39558, Note_off_c, 1, 58, 96
1, 39892, Note_on_c, 1, 70, 96
1, 39892, Note_on_c, 1, 46, 96
1, 39893, Note_off_c, 1, 70, 96
1, 39893, Note_off_c, 1, 46, 96
1, 39897, Note_on_c, 1, 58, 96
1, 39898, Note_off_c, 1, 58, 96
1, 40132, Note_on_c, 1, 70, 96
1, 40132, Note_on_c, 1, 34, 96
1, 40133, Note_off_c, 1, 70, 96
1, 40133, Note_off_c, 1, 34, 96
1, 40254, Note_on_c, 1, 58, 96
1, 40255, Note_off_c, 1, 58, 96
1, 40258, Note_on_c, 1, 67, 96
1, 40258, Note_on_c, 1, 48, 96
1, 40261, Note_off_c, 1, 67, 96
1, 40261, Note_off_c, 1, 48, 96
1, 40261, Note_on_c, 1, 63, 96
1, 40261, Note_on_c, 1, 51, 96
1, 40262, Note_off_c, 1, 63, 96
1, 40262, Note_off_c, 1, 51, 96
1, 40381, Note_on_c, 1, 38, 96
1, 40382, Note_off_c, 1, 38, 96
1, 40504, Note_on_c, 1, 79, 96
1, 40504, Note_on_c, 1, 75, 96
1, 40504, Note_on_c, 1, 46, 96
1, 40506, Note_off_c, 1, 79, 96
1, 40506, Note_off_c, 1, 75, 96
1, 40506, Note_off_c, 1, 46, 96
1, 40506, Note_on_c, 1, 58, 96
1, 40507, Note_off_c, 1, 58, 96
1, 40804, Note_on_c, 1, 77, 96
1, 40805, Note_off_c, 1, 77, 96
1, 40864, Note_on_c, 1, 69, 96
1, 40865, Note_off_c, 1, 69, 96
1, 40867, Note_on_c, 1, 48, 96
1, 40868, Note_off_c, 1, 48, 96
1, 40872, Note_on_c, 1, 76, 96
1, 40873, Note_off_c, 1, 76, 96
1, 40988, Note_on_c, 1, 69, 96
1, 40989, Note_off_c, 1, 69, 96
1, 40991, Note_on_c, 1, 81, 96
1, 40993, Note_off_c, 1, 81, 96
1, 40993, Note_on_c, 1, 41, 96
1, 40995, Note_off_c, 1, 41, 96
1, 40995, Note_on_c, 1, 53, 96
1, 40996, Note_off_c, 1, 53, 96
1, 41235, Note_on_c, 1, 70, 96
1, 41237, Note_off_c, 1, 70, 96
1, 41237, Note_on_c, 1, 46, 96
1, 41239, Note_off_c, 1, 46, 96
1, 41239, Note_on_c, 1, 58, 96
1, 41241, Note_off_c, 1, 58, 96
1, 41241, Note_on_c, 1, 74, 96
1, 41243, Note_off_c, 1, 74, 96
1, 41243, Note_on_c, 1, 65, 96
1, 41244, Note_off_c, 1, 65, 96
1, 41477, Note_on_c, 1, 70, 96
1, 41478, Note_off_c, 1, 70, 96
1, 41481, Note_on_c, 1, 65, 96
1, 41483, Note_off_c, 1, 65, 96
1, 41483, Note_on_c, 1, 77, 96
1, 41484, Note_off_c, 1, 77, 96
1, 41603, Note_on_c, 1, 41, 96
1, 41604, Note_off_c, 1, 41, 96
1, 41722, Note_on_c, 1, 72, 96
1, 41723, Note_off_c, 1, 72, 96
1, 41837, Note_on_c, 1, 58, 96
1, 41839, Note_off_c, 1, 58, 96
1, 41839, Note_on_c, 1, 50, 96
1, 41840, Note_off_c, 1, 50, 96
1, 41843, Note_on_c, 1, 74, 96
1, 41844, Note_off_c, 1, 74, 96
1, 41847, Note_on_c, 1, 48, 96
1, 41848, Note_off_c, 1, 48, 96
1, 41968, Note_on_c, 1, 41, 96
1, 41969, Note_off_c, 1, 41, 96
1, 42026, Note_on_c, 1, 72, 96
1, 42027, Note_off_c, 1, 72, 96
1, 42086, Note_on_c, 1, 56, 96
1, 42088, Note_off_c, 1, 56, 96
1, 42088, Note_on_c, 1, 77, 96
1, 42091, Note_off_c, 1, 77, 96
1, 42091, Note_on_c, 1, 62, 96
1, 42091, Note_on_c, 1, 58, 96
1, 42092, Note_off_c, 1, 62, 96
1, 42092, Note_off_c, 1, 58, 96
1, 42209, Note_on_c, 1, 45, 96
1, 42210, Note_off_c, 1, 45, 96
1, 42396, Note_on_c, 1, 70, 96
1, 42397, Note_off_c, 1, 70, 96
1, 42454, Note_on_c, 1, 72, 96
1, 42454, Note_on_c, 1, 57, 96
1, 42455, Note_off_c, 1, 72, 96
1, 42455, Note_off_c, 1, 57, 96
1, 42462, Note_on_c, 1, 60, 96
1, 42462, Note_on_c, 1, 45, 96
1, 42464, Note_off_c, 1, 60, 96
1, 42464, Note_off_c, 1, 45, 96
1, 42464, Note_on_c, 1, 84, 96
1, 42465, Note_off_c, 1, 84, 96
1, 42581, Note_on_c, 1, 53, 96
1, 42582, Note_off_c, 1, 53, 96
1, 42585, Note_on_c, 1, 41, 96
1, 42586, Note_off_c, 1, 41, 96
1, 42762, Note_on_c, 1, 57, 96
1, 42763, Note_off_c, 1, 57, 96
1, 42886, Note_on_c, 1, 74, 96
1, 42887, Note_off_c, 1, 74, 96
1, 43009, Note_on_c, 1, 79, 96
1, 43010, Note_off_c, 1, 79, 96
1, 43132, Note_on_c, 1, 57, 96
1, 43133, Note_off_c, 1, 57, 96
1, 43193, Note_on_c, 1, 55, 96
1, 43194, Note_off_c, 1, 55, 96
1, 43252, Note_on_c, 1, 78, 96
1, 43253, Note_off_c, 1, 78, 96
1, 43255, Note_on_c, 1, 50, 96
1, 43256, Note_off_c, 1, 50, 96
1, 43311, Note_on_c, 1, 67, 96
1, 43312, Note_off_c, 1, 67, 96
1, 43318, Note_on_c, 1, 79, 96
1, 43319, Note_off_c, 1, 79, 96
1, 43506, Note_on_c, 1, 81, 96
1, 43507, Note_off_c, 1, 81, 96
1, 43509, Note_on_c, 1, 65, 96
1, 43510, Note_off_c, 1, 65, 96
1, 43512, Note_on_c, 1, 69, 96
1, 43514, Note_off_c, 1, 69, 96
1, 43514, Note_on_c, 1, 72, 96
1, 43515, Note_off_c, 1, 72, 96
1, 43629, Note_on_c, 1, 77, 96
1, 43631, Note_off_c, 1, 77, 96
1, 43631, Note_on_c, 1, 65, 96
1, 43632, Note_off_c, 1, 65, 96
1, 43751, Note_on_c, 1, 74, 96
1, 43751, Note_on_c, 1, 67, 96
1, 43754, Note_off_c, 1, 74, 96
1, 43754, Note_off_c, 1, 67, 96
1, 43754, Note_on_c, 1, 59, 96
1, 43754, Note_on_c, 1, 53, 96
1, 43755, Note_off_c, 1, 59, 96
1, 43755, Note_off_c, 1, 53, 96
1, 43757, Note_on_c, 1, 55, 96
1, 43759, Note_off_c, 1, 55, 96
1, 43759, Note_on_c, 1, 65, 96
1, 43760, Note_off_c, 1, 65, 96
1, 43937, Note_on_c, 1, 43, 96
1, 43940, Note_off_c, 1, 43, 96
1, 43940, Note_on_c, 1, 81, 96
1, 43940, Note_on_c, 1, 50, 96
1, 43942, Note_off_c, 1, 81, 96
1, 43942, Note_off_c, 1, 50, 96
1, 43942, Note_on_c, 1, 71, 96
1, 43944, Note_off_c, 1, 71, 96
1, 43944, Note_on_c, 1, 71, 96
1, 43946, Note_off_c, 1, 71, 96
1, 43946, Note_on_c, 1, 79, 96
1, 43947, Note_off_c, 1, 79, 96
1, 44182, Note_on_c, 1, 62, 96
1, 44184, Note_off_c, 1, 62, 96
1, 44184, Note_on_c, 1, 55, 96
1, 44186, Note_off_c, 1, 55, 96
1, 44186, Note_on_c, 1, 59, 96
1, 44188, Note_off_c, 1, 59, 96
1, 44188, Note_on_c, 1, 65, 96
1, 44189, Note_off_c, 1, 65, 96
1, 44308, Note_on_c, 1, 74, 96
1, 44310, Note_off_c, 1, 74, 96
1, 44310, Note_on_c, 1, 78, 96
1, 44311, Note_off_c, 1, 78, 96
1, 44313, Note_on_c, 1, 47, 96
1, 44314, Note_off_c, 1, 47, 96
1, 44368, Note_on_c, 1, 75, 96
1, 44370, Note_off_c, 1, 75, 96
1, 44370, Note_on_c, 1, 79, 96
1, 44371, Note_off_c, 1, 79, 96
1, 44374, Note_on_c, 1, 71, 96
1, 44375, Note_off_c, 1, 71, 96
1, 44377, Note_on_c, 1, 74, 96
1, 44378, Note_off_c, 1, 74, 96
1, 44437, Note_on_c, 1, 55, 96
1, 44437, Note_on_c, 1, 59, 96
1, 44438, Note_off_c, 1, 55, 96
1, 44438, Note_off_c, 1, 59, 96
1, 44442, Note_on_c, 1, 65, 96
1, 44443, Note_off_c, 1, 65, 96
1, 44501, Note_on_c, 1, 76, 96
1, 44501, Note_on_c, 1, 67, 96
1, 44502, Note_off_c, 1, 76, 96
1, 44502, Note_off_c, 1, 67, 96
1, 44562, Note_on_c, 1, 50, 96
1, 44562, Note_on_c, 1, 55, 96
1, 44563, Note_off_c, 1, 50, 96
1, 44563, Note_off_c, 1, 55, 96
1, 44566, Note_on_c, 1, 59, 96
1, 44567, Note_off_c, 1, 59, 96
1, 44687, Note_on_c, 1, 59, 96
1, 44687, Note_on_c, 1, 55, 96
1, 44689, Note_off_c, 1, 59, 96
1, 44689, Note_off_c, 1, 55, 96
1, 44689, Note_on_c, 1, 77, 96
1, 44690, Note_off_c, 1, 77, 96
1, 44692, Note_on_c, 1, 50, 96
1, 44693, Note_off_c, 1, 50, 96
1, 44807, Note_on_c, 1, 77, 96
1, 44808, Note_off_c, 1, 77, 96
1, 44811, Note_on_c, 1, 48, 96
1, 44812, Note_off_c, 1, 48, 96
1, 44870, Note_on_c, 1, 67, 96
1, 44870, Note_on_c, 1, 79, 96
1, 44871, Note_off_c, 1, 67, 96
1, 44871, Note_off_c, 1, 79, 96
1, 44927, Note_on_c, 1, 43, 96
1, 44928, Note_off_c, 1, 43, 96
1, 45049, Note_on_c, 1, 71, 96
1, 45050, Note_off_c, 1, 71, 96
1, 45165, Note_on_c, 1, 71, 96
1, 45167, Note_off_c, 1, 71, 96
1, 45167, Note_on_c, 1, 55, 96
1, 45168, Note_off_c, 1, 55, 96
1, 45176, Note_on_c, 1, 59, 96
1, 45176, Note_on_c, 1, 53, 96
1, 45177, Note_off_c, 1, 59, 96
1, 45177, Note_off_c, 1, 53, 96
1, 45414, Note_on_c, 1, 59, 96
1, 45414, Note_on_c, 1, 65, 96
1, 45416, Note_off_c, 1, 59, 96
1, 45416, Note_off_c, 1, 65, 96
1, 45416, Note_on_c, 1, 62, 96
1, 45417, Note_off_c, 1, 62, 96
1, 45535, Note_on_c, 1, 64, 96
1, 45536, Note_off_c, 1, 64, 96
1, 45538, Note_on_c, 1, 36, 96
1, 45539, Note_off_c, 1, 36, 96
1, 45543, Note_on_c, 1, 48, 96
1, 45544, Note_off_c, 1, 48, 96
1, 45661, Note_on_c, 1, 55, 96
1, 45661, Note_on_c, 1, 52, 96
1, 45661, Note_on_c, 1, 43, 96
1, 45663, Note_off_c, 1, 55, 96
1, 45663, Note_off_c, 1, 52, 96
1, 45663, Note_off_c, 1, 43, 96
1, 45663, Note_on_c, 1, 64, 96
1, 45664, Note_off_c, 1, 64, 96
1, 45783, Note_on_c, 1, 60, 96
1, 45784, Note_off_c, 1, 60, 96
1, 45786, Note_on_c, 1, 55, 96
1, 45788, Note_off_c, 1, 55, 96
1, 45788, Note_on_c, 1, 67, 96
1, 45791, Note_off_c, 1, 67, 96
1, 45791, Note_on_c, 1, 64, 96
1, 45791, Note_on_c, 1, 52, 96
1, 45792, Note_off_c, 1, 64, 96
1, 45792, Note_off_c, 1, 52, 96
1, 45907, Note_on_c, 1, 67, 96
1, 45908, Note_off_c, 1, 67, 96
1, 45974, Note_on_c, 1, 72, 96
1, 45975, Note_off_c, 1, 72, 96
1, 46029, Note_on_c, 1, 52, 96
1, 46030, Note_off_c, 1, 52, 96
1, 46035, Note_on_c, 1, 69, 96
1, 46035, Note_on_c, 1, 55, 96
1, 46037, Note_off_c, 1, 69, 96
1, 46037, Note_off_c, 1, 55, 96
1, 46037, Note_on_c, 1, 60, 96
1, 46038, Note_off_c, 1, 60, 96
1, 46092, Note_on_c, 1, 69, 96
1, 46093, Note_off_c, 1, 69, 96
1, 46153, Note_on_c, 1, 72, 96
1, 46154, Note_off_c, 1, 72, 96
1, 46157, Note_on_c, 1, 48, 96
1, 46158, Note_off_c, 1, 48, 96
1, 46221, Note_on_c, 1, 70, 96
1, 46222, Note_off_c, 1, 70, 96
1, 46279, Note_on_c, 1, 70, 96
1, 46279, Note_on_c, 1, 60, 96
1, 46280, Note_off_c, 1, 70, 96
1, 46280, Note_off_c, 1, 60, 96
1, 46282, Note_on_c, 1, 58, 96
1, 46283, Note_off_c, 1, 58, 96
1, 46285, Note_on_c, 1, 55, 96
1, 46286, Note_off_c, 1, 55, 96
1, 46345, Note_on_c, 1, 71, 96
1, 46346, Note_off_c, 1, 71, 96
1, 46405, Note_on_c, 1, 60, 96
1, 46408, Note_off_c, 1, 60, 96
1, 46408, Note_on_c, 1, 55, 96
1, 46408, Note_on_c, 1, 52, 96
1, 46409, Note_off_c, 1, 55, 96
1, 46409, Note_off_c, 1, 52, 96
1, 46469, Note_on_c, 1, 74, 96
1, 46470, Note_off_c, 1, 74, 96
1, 46528, Note_on_c, 1, 74, 96
1, 46529, Note_off_c, 1, 74, 96
1, 46590, Note_on_c, 1, 67, 96
1, 46592, Note_off_c, 1, 67, 96
1, 46592, Note_on_c, 1, 76, 96
1, 46593, Note_off_c, 1, 76, 96
1, 46655, Note_on_c, 1, 69, 96
1, 46656, Note_off_c, 1, 69, 96
1, 46716, Note_on_c, 1, 71, 96
1, 46717, Note_off_c, 1, 71, 96
1, 46772, Note_on_c, 1, 72, 96
1, 46773, Note_off_c, 1, 72, 96
1, 46779, Note_on_c, 1, 60, 96
1, 46779, Note_on_c, 1, 55, 96
1, 46780, Note_off_c, 1, 60, 96
1, 46780, Note_off_c, 1, 55, 96
1, 46838, Note_on_c, 1, 69, 96
1, 46839, Note_off_c, 1, 69, 96
1, 46896, Note_on_c, 1, 45, 96
1, 46898, Note_off_c, 1, 45, 96
1, 46898, Note_on_c, 1, 69, 96
1, 46899, Note_off_c, 1, 69, 96
1, 46902, Note_on_c, 1, 64, 96
1, 46903, Note_off_c, 1, 64, 96
1, 47021, Note_on_c, 1, 62, 96
1, 47022, Note_off_c, 1, 62, 96
1, 47025, Note_on_c, 1, 68, 96
1, 47025, Note_on_c, 1, 59, 96
1, 47027, Note_off_c, 1, 68, 96
1, 47027, Note_off_c, 1, 59, 96
1, 47027, Note_on_c, 1, 56, 96
1, 47028, Note_off_c, 1, 56, 96
1, 47144, Note_on_c, 1, 71, 96
1, 47148, Note_off_c, 1, 71, 96
1, 47148, Note_on_c, 1, 56, 96
1, 47148, Note_on_c, 1, 52, 96
1, 47148, Note_on_c, 1, 62, 96
1, 47149, Note_off_c, 1, 56, 96
1, 47149, Note_off_c, 1, 52, 96
1, 47149, Note_off_c, 1, 62, 96
1, 47387, Note_on_c, 1, 64, 96
1, 47389, Note_off_c, 1, 64, 96
1, 47389, Note_on_c, 1, 62, 96
1, 47390, Note_off_c, 1, 62, 96
1, 47392, Note_on_c, 1, 59, 96
1, 47393, Note_off_c, 1, 59, 96
1, 47510, Note_on_c, 1, 64, 96
1, 47512, Note_off_c, 1, 64, 96
1, 47512, Note_on_c, 1, 45, 96
1, 47513, Note_off_c, 1, 45, 96
1, 47631, Note_on_c, 1, 64, 96
1, 47632, Note_off_c, 1, 64, 96
1, 47751, Note_on_c, 1, 64, 96
1, 47753, Note_off_c, 1, 64, 96
1, 47753, Note_on_c, 1, 59, 96
1, 47754, Note_off_c, 1, 59, 96
1, 47756, Note_on_c, 1, 64, 96
1, 47758, Note_off_c, 1, 64, 96
1, 47758, Note_on_c, 1, 54, 96
1, 47759, Note_off_c, 1, 54, 96
1, 47881, Note_on_c, 1, 62, 96
1, 47881, Note_on_c, 1, 47, 96
1, 47881, Note_on_c, 1, 59, 96
1, 47882, Note_off_c, 1, 62, 96
1, 47882, Note_off_c, 1, 47, 96
1, 47882, Note_off_c, 1, 59, 96
1, 47884, Note_on_c, 1, 68, 96
1, 47885, Note_off_c, 1, 68, 96
1, 48119, Note_on_c, 1, 64, 96
1, 48119, Note_on_c, 1, 67, 96
1, 48123, Note_off_c, 1, 64, 96
1, 48123, Note_off_c, 1, 67, 96
1, 48123, Note_on_c, 1, 60, 96
1, 48123, Note_on_c, 1, 72, 96
1, 48123, Note_on_c, 1, 55, 96
1, 48124, Note_off_c, 1, 60, 96
1, 48124, Note_off_c, 1, 72, 96
1, 48124, Note_off_c, 1, 55, 96
1, 48244, Note_on_c, 1, 60, 96
1, 48245, Note_off_c, 1, 60, 96
1, 48249, Note_on_c, 1, 64, 96
1, 48251, Note_off_c, 1, 64, 96
1, 48251, Note_on_c, 1, 52, 96
1, 48252, Note_off_c, 1, 52, 96
1, 48254, Note_on_c, 1, 55, 96
1, 48255, Note_off_c, 1, 55, 96
1, 48372, Note_on_c, 1, 69, 96
1, 48373, Note_off_c, 1, 69, 96
1, 48377, Note_on_c, 1, 48, 96
1, 48378, Note_off_c, 1, 48, 96
1, 48492, Note_on_c, 1, 59, 96
1, 48492, Note_on_c, 1, 55, 96
1, 48494, Note_off_c, 1, 59, 96
1, 48494, Note_off_c, 1, 55, 96
1, 48494, Note_on_c, 1, 50, 96
1, 48495, Note_off_c, 1, 50, 96
1, 48499, Note_on_c, 1, 66, 96
1, 48500, Note_off_c, 1, 66, 96
1, 48622, Note_on_c, 1, 66, 96
1, 48623, Note_off_c, 1, 66, 96
1, 48745, Note_on_c, 1, 66, 96
1, 48745, Note_on_c, 1, 60, 96
1, 48747, Note_off_c, 1, 66, 96
1, 48747, Note_off_c, 1, 60, 96
1, 48747, Note_on_c, 1, 62, 96
1, 48749, Note_off_c, 1, 62, 96
1, 48749, Note_on_c, 1, 54, 96
1, 48750, Note_off_c, 1, 54, 96
1, 48805, Note_on_c, 1, 66, 96
1, 48806, Note_off_c, 1, 66, 96
1, 48871, Note_on_c, 1, 50, 96
1, 48872, Note_off_c, 1, 50, 96
1, 48991, Note_on_c, 1, 64, 96
1, 48992, Note_off_c, 1, 64, 96
1, 48995, Note_on_c, 1, 60, 96
1, 48996, Note_off_c, 1, 60, 96
1, 49056, Note_on_c, 1, 65, 96
1, 49057, Note_off_c, 1, 65, 96
1, 49114, Note_on_c, 1, 66, 96
1, 49115, Note_off_c, 1, 66, 96
1, 49119, Note_on_c, 1, 54, 96
1, 49120, Note_off_c, 1, 54, 96
1, 49181, Note_on_c, 1, 62, 96
1, 49182, Note_off_c, 1, 62, 96
1, 49235, Note_on_c, 1, 66, 96
1, 49236, Note_off_c, 1, 66, 96
1, 49240, Note_on_c, 1, 48, 96
1, 49240, Note_on_c, 1, 62, 96
1, 49241, Note_off_c, 1, 48, 96
1, 49241, Note_off_c, 1, 62, 96
1, 49301, Note_on_c, 1, 66, 96
1, 49302, Note_off_c, 1, 66, 96
1, 49365, Note_on_c, 1, 68, 96
1, 49366, Note_off_c, 1, 68, 96
1, 49422, Note_on_c, 1, 67, 96
1, 49424, Note_off_c, 1, 67, 96
1, 49424, Note_on_c, 1, 64, 96
1, 49426, Note_off_c, 1, 64, 96
1, 49426, Note_on_c, 1, 58, 96
1, 49427, Note_off_c, 1, 58, 96
1, 49429, Note_on_c, 1, 48, 96
1, 49430, Note_off_c, 1, 48, 96
1, 49665, Note_on_c, 1, 71, 96
1, 49668, Note_off_c, 1, 71, 96
1, 49668, Note_on_c, 1, 55, 96
1, 49668, Note_on_c, 1, 50, 96
1, 49669, Note_off_c, 1, 55, 96
1, 49669, Note_off_c, 1, 50, 96
1, 49671, Note_on_c, 1, 59, 96
1, 49672, Note_off_c, 1, 59, 96
1, 49851, Note_on_c, 1, 71, 96
1, 49852, Note_off_c, 1, 71, 96
1, 49912, Note_on_c, 1, 67, 96
1, 49912, Note_on_c, 1, 59, 96
1, 49912, Note_on_c, 1, 55, 96
1, 49915, Note_off_c, 1, 67, 96
1, 49915, Note_off_c, 1, 59, 96
1, 49915, Note_off_c, 1, 55, 96
1, 49915, Note_on_c, 1, 76, 96
1, 49915, Note_on_c, 1, 50, 96
1, 49916, Note_off_c, 1, 76, 96
1, 49916, Note_off_c, 1, 50, 96
1, 50151, Note_on_c, 1, 76, 96
1, 50152, Note_off_c, 1, 76, 96
1, 50158, Note_on_c, 1, 55, 96
1, 50159, Note_off_c, 1, 55, 96
1, 50161, Note_on_c, 1, 62, 96
1, 50162, Note_off_c, 1, 62, 96
1, 50396, Note_on_c, 1, 71, 96
1, 50396, Note_on_c, 1, 50, 96
1, 50396, Note_on_c, 1, 59, 96
1, 50397, Note_off_c, 1, 71, 96
1, 50397, Note_off_c, 1, 50, 96
1, 50397, Note_off_c, 1, 59, 96
1, 50399, Note_on_c, 1, 55, 96
1, 50400, Note_off_c, 1, 55, 96
1, 50581, Note_on_c, 1, 74, 96
1, 50582, Note_off_c, 1, 74, 96
1, 50640, Note_on_c, 1, 50, 96
1, 50641, Note_off_c, 1, 50, 96
1, 50645, Note_on_c, 1, 79, 96
1, 50645, Note_on_c, 1, 59, 96
1, 50645, Note_on_c, 1, 55, 96
1, 50646, Note_off_c, 1, 79, 96
1, 50646, Note_off_c, 1, 59, 96
1, 50646, Note_off_c, 1, 55, 96
1, 50648, Note_on_c, 1, 76, 96
1, 50649, Note_off_c, 1, 76, 96
1, 50704, Note_on_c, 1, 76, 96
1, 50705, Note_off_c, 1, 76, 96
1, 50769, Note_on_c, 1, 74, 96
1, 50769, Note_on_c, 1, 43, 96
1, 50769, Note_on_c, 1, 55, 96
1, 50770, Note_off_c, 1, 74, 96
1, 50770, Note_off_c, 1, 43, 96
1, 50770, Note_off_c, 1, 55, 96
1, 50890, Note_on_c, 1, 50, 96
1, 50890, Note_on_c, 1, 54, 96
1, 50891, Note_off_c, 1, 50, 96
1, 50891, Note_off_c, 1, 54, 96
1, 51071, Note_on_c, 1, 71, 96
1, 51072, Note_off_c, 1, 71, 96
1, 51131, Note_on_c, 1, 59, 96
1, 51135, Note_off_c, 1, 59, 96
1, 51135, Note_on_c, 1, 67, 96
1, 51135, Note_on_c, 1, 54, 96
1, 51135, Note_on_c, 1, 50, 96
1, 51136, Note_off_c, 1, 67, 96
1, 51136, Note_off_c, 1, 54, 96
1, 51136, Note_off_c, 1, 50, 96
1, 51254, Note_on_c, 1, 76, 96
1, 51255, Note_off_c, 1, 76, 96
1, 51260, Note_on_c, 1, 43, 96
1, 51261, Note_off_c, 1, 43, 96
1, 51373, Note_on_c, 1, 50, 96
1, 51375, Note_off_c, 1, 50, 96
1, 51375, Note_on_c, 1, 66, 96
1, 51376, Note_off_c, 1, 66, 96
1, 51379, Note_on_c, 1, 74, 96
1, 51381, Note_off_c, 1, 74, 96
1, 51381, Note_on_c, 1, 54, 96
1, 51382, Note_off_c, 1, 54, 96
1, 51384, Note_on_c, 1, 60, 96
1, 51385, Note_off_c, 1, 60, 96
1, 51563, Note_on_c, 1, 71, 96
1, 51564, Note_off_c, 1, 71, 96
1, 51619, Note_on_c, 1, 47, 96
1, 51620, Note_off_c, 1, 47, 96
1, 51623, Note_on_c, 1, 69, 96
1, 51624, Note_off_c, 1, 69, 96
1, 51798, Note_on_c, 1, 69, 96
1, 51799, Note_off_c, 1, 69, 96
1, 51857, Note_on_c, 1, 69, 96
1, 51858, Note_off_c, 1, 69, 96
1, 51861, Note_on_c, 1, 52, 96
1, 51862, Note_off_c, 1, 52, 96
1, 51864, Note_on_c, 1, 40, 96
1, 51865, Note_off_c, 1, 40, 96
1, 52043, Note_on_c, 1, 71, 96
1, 52044, Note_off_c, 1, 71, 96
1, 52103, Note_on_c, 1, 55, 96
1, 52106, Note_off_c, 1, 55, 96
1, 52106, Note_on_c, 1, 71, 96
1, 52106, Note_on_c, 1, 43, 96
1, 52107, Note_off_c, 1, 71, 96
1, 52107, Note_off_c, 1, 43, 96
1, 52228, Note_on_c, 1, 77, 96
1, 52230, Note_off_c, 1, 77, 96
1, 52230, Note_on_c, 1, 59, 96
1, 52233, Note_off_c, 1, 59, 96
1, 52233, Note_on_c, 1, 65, 96
1, 52233, Note_on_c, 1, 62, 96
1, 52234, Note_off_c, 1, 65, 96
1, 52234, Note_off_c, 1, 62, 96
1, 52411, Note_on_c, 1, 71, 96
1, 52412, Note_off_c, 1, 71, 96
1, 52471, Note_on_c, 1, 71, 96
1, 52471, Note_on_c, 1, 67, 96
1, 52472, Note_off_c, 1, 71, 96
1, 52472, Note_off_c, 1, 67, 96
1, 52474, Note_on_c, 1, 59, 96
1, 52477, Note_off_c, 1, 59, 96
1, 52477, Note_on_c, 1, 50, 96
1, 52477, Note_on_c, 1, 55, 96
1, 52479, Note_off_c, 1, 50, 96
1, 52479, Note_off_c, 1, 55, 96
1, 52479, Note_on_c, 1, 69, 96
1, 52480, Note_off_c, 1, 69, 96
1, 52716, Note_on_c, 1, 51, 96
1, 52717, Note_off_c, 1, 51, 96
1, 52721, Note_on_c, 1, 63, 96
1, 52723, Note_off_c, 1, 63, 96
1, 52723, Note_on_c, 1, 61, 96
1, 52725, Note_off_c, 1, 61, 96
1, 52725, Note_on_c, 1, 69, 96
1, 52726, Note_off_c, 1, 69, 96
1, 52959, Note_on_c, 1, 70, 96
1, 52961, Note_off_c, 1, 70, 96
1, 52961, Note_on_c, 1, 61, 96
1, 52962, Note_off_c, 1, 61, 96
1, 52964, Note_on_c, 1, 55, 96
1, 52966, Note_off_c, 1, 55, 96
1, 52966, Note_on_c, 1, 42, 96
1, 52967, Note_off_c, 1, 42, 96
1, 53204, Note_on_c, 1, 37, 96
1, 53204, Note_on_c, 1, 53, 96
1, 53206, Note_off_c, 1, 37, 96
1, 53206, Note_off_c, 1, 53, 96
1, 53206, Note_on_c, 1, 65, 96
1, 53207, Note_off_c, 1, 65, 96
1, 53213, Note_on_c, 1, 57, 96
1, 53214, Note_off_c, 1, 57, 96
1, 53331, Note_on_c, 1, 72, 96
1, 53332, Note_off_c, 1, 72, 96
1, 53447, Note_on_c, 1, 59, 96
1, 53449, Note_off_c, 1, 59, 96
1, 53449, Note_on_c, 1, 53, 96
1, 53450, Note_off_c, 1, 53, 96
1, 53452, Note_on_c, 1, 62, 96
1, 53453, Note_off_c, 1, 62, 96
1, 53458, Note_on_c, 1, 71, 96
1, 53459, Note_off_c, 1, 71, 96
1, 53573, Note_on_c, 1, 64, 96
1, 53573, Note_on_c, 1, 76, 96
1, 53574, Note_off_c, 1, 64, 96
1, 53574, Note_off_c, 1, 76, 96
1, 53578, Note_on_c, 1, 46, 96
1, 53579, Note_off_c, 1, 46, 96
1, 53693, Note_on_c, 1, 43, 96
1, 53694, Note_off_c, 1, 43, 96
1, 53698, Note_on_c, 1, 71, 96
1, 53699, Note_off_c, 1, 71, 96
1, 53701, Note_on_c, 1, 55, 96
1, 53702, Note_off_c, 1, 55, 96
1, 53935, Note_on_c, 1, 55, 96
1, 53936, Note_off_c, 1, 55, 96
1, 53940, Note_on_c, 1, 67, 96
1, 53940, Note_on_c, 1, 59, 96
1, 53942, Note_off_c, 1, 67, 96
1, 53942, Note_off_c, 1, 59, 96
1, 53942, Note_on_c, 1, 62, 96
1, 53943, Note_off_c, 1, 62, 96
1, 53945, Note_on_c, 1, 71, 96
1, 53946, Note_off_c, 1, 71, 96
1, 54180, Note_on_c, 1, 65, 96
1, 54181, Note_off_c, 1, 65, 96
1, 54187, Note_on_c, 1, 67, 96
1, 54188, Note_off_c, 1, 67, 96
1, 54190, Note_on_c, 1, 47, 96
1, 54191, Note_off_c, 1, 47, 96
1, 54540, Note_on_c, 1, 70, 96
1, 54541, Note_off_c, 1, 70, 96
1, 54546, Note_on_c, 1, 75, 96
1, 54548, Note_off_c, 1, 75, 96
1, 54548, Note_on_c, 1, 55, 96
1, 54549, Note_off_c, 1, 55, 96
1, 54668, Note_on_c, 1, 62, 96
1, 54668, Note_on_c, 1, 71, 96
1, 54668, Note_on_c, 1, 67, 96
1, 54669, Note_off_c, 1, 62, 96
1, 54669, Note_off_c, 1, 71, 96
1, 54669, Note_off_c, 1, 67, 96
1, 54727, Note_on_c, 1, 60, 96
1, 54728, Note_off_c, 1, 60, 96
1, 54733, Note_on_c, 1, 64, 96
1, 54733, Note_on_c, 1, 48, 96
1, 54734, Note_off_c, 1, 64, 96
1, 54734, Note_off_c, 1, 48, 96
1, 54792, Note_on_c, 1, 67, 96
1, 54793, Note_off_c, 1, 67, 96
1, 54855, Note_on_c, 1, 72, 96
1, 54855, Note_on_c, 1, 52, 96
1, 54855, Note_on_c, 1, 60, 96
1, 54856, Note_off_c, 1, 72, 96
1, 54856, Note_off_c, 1, 52, 96
1, 54856, Note_off_c, 1, 60, 96
1, 54862, Note_on_c, 1, 55, 96
1, 54863, Note_off_c, 1, 55, 96
1, 54921, Note_on_c, 1, 71, 96
1, 54922, Note_off_c, 1, 71, 96
1, 54973, Note_on_c, 1, 67, 96
1, 54974, Note_off_c, 1, 67, 96
1, 54979, Note_on_c, 1, 52, 96
1, 54980, Note_off_c, 1, 52, 96
1, 55038, Note_on_c, 1, 69, 96
1, 55039, Note_off_c, 1, 69, 96
1, 55097, Note_on_c, 1, 65, 96
1, 55099, Note_off_c, 1, 65, 96
1, 55099, Note_on_c, 1, 55, 96
1, 55101, Note_off_c, 1, 55, 96
1, 55101, Note_on_c, 1, 57, 96
1, 55103, Note_off_c, 1, 57, 96
1, 55103, Note_on_c, 1, 53, 96
1, 55104, Note_off_c, 1, 53, 96
1, 55223, Note_on_c, 1, 57, 96
1, 55224, Note_off_c, 1, 57, 96
1, 55230, Note_on_c, 1, 41, 96
1, 55233, Note_off_c, 1, 41, 96
1, 55233, Note_on_c, 1, 65, 96
1, 55233, Note_on_c, 1, 53, 96
1, 55234, Note_off_c, 1, 65, 96
1, 55234, Note_off_c, 1, 53, 96
1, 55347, Note_on_c, 1, 69, 96
1, 55348, Note_off_c, 1, 69, 96
1, 55467, Note_on_c, 1, 53, 96
1, 55468, Note_off_c, 1, 53, 96
1, 55592, Note_on_c, 1, 53, 96
1, 55592, Note_on_c, 1, 41, 96
1, 55593, Note_off_c, 1, 53, 96
1, 55593, Note_off_c, 1, 41, 96
1, 55712, Note_on_c, 1, 41, 96
1, 55713, Note_off_c, 1, 41, 96
1, 55948, Note_on_c, 1, 65, 96
1, 55949, Note_off_c, 1, 65, 96
1, 55953, Note_on_c, 1, 69, 96
1, 55953, Note_on_c, 1, 53, 96
1, 55953, Note_on_c, 1, 48, 96
1, 55955, Note_off_c, 1, 69, 96
1, 55955, Note_off_c, 1, 53, 96
1, 55955, Note_off_c, 1, 48, 96
1, 55955, Note_on_c, 1, 57, 96
1, 55957, Note_off_c, 1, 57, 96
1, 55957, Note_on_c, 1, 53, 96
1, 55958, Note_off_c, 1, 53, 96
1, 56191, Note_on_c, 1, 63, 96
1, 56191, Note_on_c, 1, 57, 96
1, 56194, Note_off_c, 1, 63, 96
1, 56194, Note_off_c, 1, 57, 96
1, 56194, Note_on_c, 1, 51, 96
1, 56194, Note_on_c, 1, 60, 96
1, 56197, Note_off_c, 1, 51, 96
1, 56197, Note_off_c, 1, 60, 96
1, 56197, Note_on_c, 1, 60, 96
1, 56197, Note_on_c, 1, 69, 96
1, 56200, Note_off_c, 1, 60, 96
1, 56200, Note_off_c, 1, 69, 96
1, 56200, Note_on_c, 1, 72, 96
1, 56200, Note_on_c, 1, 53, 96
1, 56201, Note_off_c, 1, 72, 96
1, 56201, Note_off_c, 1, 53, 96
1, 56444, Note_on_c, 1, 72, 96
1, 56444, Note_on_c, 1, 57, 96
1, 56447, Note_off_c, 1, 72, 96
1, 56447, Note_off_c, 1, 57, 96
1, 56447, Note_on_c, 1, 76, 96
1, 56447, Note_on_c, 1, 60, 96
1, 56448, Note_off_c, 1, 76, 96
1, 56448, Note_off_c, 1, 60, 96
1, 56685, Note_on_c, 1, 75, 96
1, 56686, Note_off_c, 1, 75, 96
1, 56689, Note_on_c, 1, 57, 96
1, 56689, Note_on_c, 1, 63, 96
1, 56690, Note_off_c, 1, 57, 96
1, 56690, Note_off_c, 1, 63, 96
1, 56693, Note_on_c, 1, 60, 96
1, 56694, Note_off_c, 1, 60, 96
1, 56810, Note_on_c, 1, 70, 96
1, 56812, Note_off_c, 1, 70, 96
1, 56812, Note_on_c, 1, 82, 96
1, 56814, Note_off_c, 1, 82, 96
1, 56814, Note_on_c, 1, 74, 96
1, 56817, Note_off_c, 1, 74, 96
1, 56817, Note_on_c, 1, 58, 96
1, 56817, Note_on_c, 1, 65, 96
1, 56818, Note_off_c, 1, 58, 96
1, 56818, Note_off_c, 1, 65, 96
1, 56878, Note_on_c, 1, 74, 96
1, 56879, Note_off_c, 1, 74, 96
1, 56941, Note_on_c, 1, 77, 96
1, 56941, Note_on_c, 1, 72, 96
1, 56942, Note_off_c, 1, 77, 96
1, 56942, Note_off_c, 1, 72, 96
1, 56944, Note_on_c, 1, 46, 96
1, 56945, Note_off_c, 1, 46, 96
1, 57066, Note_on_c, 1, 81, 96
1, 57066, Note_on_c, 1, 57, 96
1, 57066, Note_on_c, 1, 45, 96
1, 57068, Note_off_c, 1, 81, 96
1, 57068, Note_off_c, 1, 57, 96
1, 57068, Note_off_c, 1, 45, 96
1, 57068, Note_on_c, 1, 69, 96
1, 57069, Note_off_c, 1, 69, 96
1, 57183, Note_on_c, 1, 57, 96
1, 57184, Note_off_c, 1, 57, 96
1, 57188, Note_on_c, 1, 60, 96
1, 57189, Note_off_c, 1, 60, 96
1, 57252, Note_on_c, 1, 76, 96
1, 57253, Note_off_c, 1, 76, 96
1, 57311, Note_on_c, 1, 77, 96
1, 57311, Note_on_c, 1, 48, 96
1, 57312, Note_off_c, 1, 77, 96
1, 57312, Note_off_c, 1, 48, 96
1, 57434, Note_on_c, 1, 37, 96
1, 57436, Note_off_c, 1, 37, 96
1, 57436, Note_on_c, 1, 76, 96
1, 57438, Note_off_c, 1, 76, 96
1, 57438, Note_on_c, 1, 49, 96
1, 57439, Note_off_c, 1, 49, 96
1, 57499, Note_on_c, 1, 71, 96
1, 57500, Note_off_c, 1, 71, 96
1, 57556, Note_on_c, 1, 57, 96
1, 57560, Note_off_c, 1, 57, 96
1, 57560, Note_on_c, 1, 69, 96
1, 57560, Note_on_c, 1, 72, 96
1, 57560, Note_on_c, 1, 53, 96
1, 57561, Note_off_c, 1, 69, 96
1, 57561, Note_off_c, 1, 72, 96
1, 57561, Note_off_c, 1, 53, 96
1, 57563, Note_on_c, 1, 63, 96
1, 57564, Note_off_c, 1, 63, 96
1, 57680, Note_on_c, 1, 67, 96
1, 57682, Note_off_c, 1, 67, 96
1, 57682, Note_on_c, 1, 57, 96
1, 57683, Note_off_c, 1, 57, 96
1, 57686, Note_on_c, 1, 61, 96
1, 57687, Note_off_c, 1, 61, 96
1, 57808, Note_on_c, 1, 69, 96
1, 57809, Note_off_c, 1, 69, 96
1, 57924, Note_on_c, 1, 69, 96
1, 57924, Note_on_c, 1, 55, 96
1, 57925, Note_off_c, 1, 69, 96
1, 57925, Note_off_c, 1, 55, 96
1, 57927, Note_on_c, 1, 59, 96
1, 57928, Note_off_c, 1, 59, 96
1, 57930, Note_on_c, 1, 65, 96
1, 57931, Note_off_c, 1, 65, 96
1, 58053, Note_on_c, 1, 76, 96
1, 58054, Note_off_c, 1, 76, 96
1, 58057, Note_on_c, 1, 67, 96
1, 58057, Note_on_c, 1, 43, 96
1, 58058, Note_off_c, 1, 67, 96
1, 58058, Note_off_c, 1, 43, 96
1, 58292, Note_on_c, 1, 50, 96
1, 58294, Note_off_c, 1, 50, 96
1, 58294, Note_on_c, 1, 65, 96
1, 58295, Note_off_c, 1, 65, 96
1, 58297, Note_on_c, 1, 71, 96
1, 58298, Note_off_c, 1, 71, 96
1, 58300, Note_on_c, 1, 38, 96
1, 58301, Note_off_c, 1, 38, 96
1, 58381, Note_on_c, 1, 65, 96
1, 58382, Note_off_c, 1, 65, 96
1, 58437, Note_on_c, 1, 67, 96
1, 58438, Note_off_c, 1, 67, 96
1, 58557, Note_on_c, 1, 74, 96
1, 58557, Note_on_c, 1, 47, 96
1, 58558, Note_off_c, 1, 74, 96
1, 58558, Note_off_c, 1, 47, 96
1, 58561, Note_on_c, 1, 62, 96
1, 58562, Note_off_c, 1, 62, 96
1, 58679, Note_on_c, 1, 62, 96
1, 58680, Note_off_c, 1, 62, 96
1, 58683, Note_on_c, 1, 74, 96
1, 58684, Note_off_c, 1, 74, 96
1, 58744, Note_on_c, 1, 62, 96
1, 58746, Note_off_c, 1, 62, 96
1, 58746, Note_on_c, 1, 71, 96
1, 58747, Note_off_c, 1, 71, 96
1, 58803, Note_on_c, 1, 65, 96
1, 58806, Note_off_c, 1, 65, 96
1, 58806, Note_on_c, 1, 62, 96
1, 58806, Note_on_c, 1, 55, 96
1, 58807, Note_off_c, 1, 62, 96
1, 58807, Note_off_c, 1, 55, 96
1, 58809, Note_on_c, 1, 58, 96
1, 58810, Note_off_c, 1, 58, 96
1, 58929, Note_on_c, 1, 67, 96
1, 58929, Note_on_c, 1, 65, 96
1, 58930, Note_off_c, 1, 67, 96
1, 58930, Note_off_c, 1, 65, 96
1, 59049, Note_on_c, 1, 55, 96
1, 59050, Note_off_c, 1, 55, 96
1, 59055, Note_on_c, 1, 43, 96
1, 59056, Note_off_c, 1, 43, 96
1, 59290, Note_on_c, 1, 66, 96
1, 59292, Note_off_c, 1, 66, 96
1, 59292, Note_on_c, 1, 70, 96
1, 59294, Note_off_c, 1, 70, 96
1, 59294, Note_on_c, 1, 58, 96
1, 59296, Note_off_c, 1, 58, 96
1, 59296, Note_on_c, 1, 54, 96
1, 59297, Note_off_c, 1, 54, 96
1, 59475, Note_on_c, 1, 72, 96
1, 59476, Note_off_c, 1, 72, 96
1, 59481, Note_on_c, 1, 60, 96
1, 59482, Note_off_c, 1, 60, 96
1, 59539, Note_on_c, 1, 69, 96
1, 59540, Note_off_c, 1, 69, 96
1, 59775, Note_on_c, 1, 62, 96
1, 59776, Note_off_c, 1, 62, 96
1, 59778, Note_on_c, 1, 56, 96
1, 59780, Note_off_c, 1, 56, 96
1, 59780, Note_on_c, 1, 64, 96
1, 59781, Note_off_c, 1, 64, 96
1, 59785, Note_on_c, 1, 47, 96
1, 59787, Note_off_c, 1, 47, 96
1, 59787, Note_on_c, 1, 71, 96
1, 59788, Note_off_c, 1, 71, 96
1, 60020, Note_on_c, 1, 71, 96
1, 60021, Note_off_c, 1, 71, 96
1, 60024, Note_on_c, 1, 47, 96
1, 60025, Note_off_c, 1, 47, 96
1, 60146, Note_on_c, 1, 76, 96
1, 60147, Note_off_c, 1, 76, 96
1, 60225, Note_on_c, 1, 74, 96
1, 60226, Note_off_c, 1, 74, 96
1, 60342, Note_on_c, 1, 72, 96
1, 60343, Note_off_c, 1, 72, 96
1, 60346, Note_on_c, 1, 48, 96
1, 60347, Note_off_c, 1, 48, 96
1, 60410, Note_on_c, 1, 71, 96
1, 60411, Note_off_c, 1, 71, 96
1, 60467, Note_on_c, 1, 59, 96
1, 60467, Note_on_c, 1, 45, 96
1, 60469, Note_off_c, 1, 59, 96
1, 60469, Note_off_c, 1, 45, 96
1, 60469, Note_on_c, 1, 71, 96
1, 60470, Note_off_c, 1, 71, 96
1, 60472, Note_on_c, 1, 81, 96
1, 60473, Note_off_c, 1, 81, 96
1, 60590, Note_on_c, 1, 48, 96
1, 60591, Note_off_c, 1, 48, 96
1, 60713, Note_on_c, 1, 72, 96
1, 60714, Note_off_c, 1, 72, 96
1, 60829, Note_on_c, 1, 60, 96
1, 60829, Note_on_c, 1, 52, 96
1, 60830, Note_off_c, 1, 60, 96
1, 60830, Note_off_c, 1, 52, 96
1, 60837, Note_on_c, 1, 69, 96
1, 60837, Note_on_c, 1, 55, 96
1, 60838, Note_off_c, 1, 69, 96
1, 60838, Note_off_c, 1, 55, 96
1, 61598, Note_on_c, 1, 49, 96
1, 61599, Note_off_c, 1, 49, 96
1, 61786, Note_on_c, 1, 57, 96
1, 61787, Note_off_c, 1, 57, 96
1, 62132, Note_on_c, 1, 76, 96
1, 62134, Note_off_c, 1, 76, 96
1, 62134, Note_on_c, 1, 71, 96
1, 62136, Note_off_c, 1, 71, 96
1, 62136, Note_on_c, 1, 67, 96
1, 62137, Note_off_c, 1, 67, 96
1, 62139, Note_on_c, 1, 40, 96
1, 62140, Note_off_c, 1, 40, 96
1, 62465, Note_on_c, 1, 54, 96
1, 62466, Note_off_c, 1, 54, 96
1, 62468, Note_on_c, 1, 71, 96
1, 62470, Note_off_c, 1, 71, 96
1, 62470, Note_on_c, 1, 50, 96
1, 62471, Note_off_c, 1, 50, 96
1, 62670, Note_on_c, 1, 54, 96
1, 62671, Note_off_c, 1, 54, 96
1, 62842, Note_on_c, 1, 59, 96
1, 62843, Note_off_c, 1, 59, 96
1, 63109, Note_on_c, 1, 67, 96
1, 63110, Note_off_c, 1, 67, 96
1, 63113, Note_on_c, 1, 62, 96
1, 63115, Note_off_c, 1, 62, 96
1, 63115, Note_on_c, 1, 55, 96
1, 63117, Note_off_c, 1, 55, 96
1, 63117, Note_on_c, 1, 59, 96
1, 63119, Note_off_c, 1, 59, 96
1, 63119, Note_on_c, 1, 74, 96
1, 63120, Note_off_c, 1, 74, 96
1, 63236, Note_on_c, 1, 74, 96
1, 63240, Note_off_c, 1, 74, 96
1, 63240, Note_on_c, 1, 79, 96
1, 63240, Note_on_c, 1, 67, 96
1, 63240, Note_on_c, 1, 71, 96
1, 63242, Note_off_c, 1, 79, 96
1, 63242, Note_off_c, 1, 67, 96
1, 63242, Note_off_c, 1, 71, 96
1, 63242, Note_on_c, 1, 71, 96
1, 63243, Note_off_c, 1, 71, 96
1, 63823, Note_on_c, 1, 51, 96
1, 63824, Note_off_c, 1, 51, 96
1, 64126, Note_on_c, 1, 34, 96
1, 64127, Note_off_c, 1, 34, 96
1, 64130, Note_on_c, 1, 46, 96
1, 64131, Note_off_c, 1, 46, 96
1, 64330, Note_on_c, 1, 56, 96
1, 64331, Note_off_c, 1, 56, 96
1, 64575, Note_on_c, 1, 60, 96
1, 64578, Note_off_c, 1, 60, 96
1, 64578, Note_on_c, 1, 72, 96
1, 64578, Note_on_c, 1, 63, 96
1, 64579, Note_off_c, 1, 72, 96
1, 64579, Note_off_c, 1, 63, 96
1, 64583, Note_on_c, 1, 68, 96
1, 64584, Note_off_c, 1, 68, 96
1, 64695, Note_on_c, 1, 56, 96
1, 64696, Note_off_c, 1, 56, 96
1, 64699, Note_on_c, 1, 68, 96
1, 64701, Note_off_c, 1, 68, 96
1, 64701, Note_on_c, 1, 60, 96
1, 64702, Note_off_c, 1, 60, 96
1, 64705, Note_on_c, 1, 72, 96
1, 64706, Note_off_c, 1, 72, 96
1, 64943, Note_on_c, 1, 50, 96
1, 64944, Note_off_c, 1, 50, 96
1, 64947, Note_on_c, 1, 62, 96
1, 64947, Note_on_c, 1, 38, 96
1, 64948, Note_off_c, 1, 62, 96
1, 64948, Note_off_c, 1, 38, 96
1, 65185, Note_on_c, 1, 43, 96
1, 65187, Note_off_c, 1, 43, 96
1, 65187, Note_on_c, 1, 67, 96
1, 65188, Note_off_c, 1, 67, 96
1, 65366, Note_on_c, 1, 47, 96
1, 65368, Note_off_c, 1, 47, 96
1, 65368, Note_on_c, 1, 40, 96
1, 65369, Note_off_c, 1, 40, 96
1, 65371, Note_on_c, 1, 64, 96
1, 65373, Note_off_c, 1, 64, 96
1, 65373, Note_on_c, 1, 67, 96
1, 65374, Note_off_c, 1, 67, 96
1, 65608, Note_on_c, 1, 57, 96
1, 65608, Note_on_c, 1, 45, 96
1, 65609, Note_off_c, 1, 57, 96
1, 65609, Note_off_c, 1, 45, 96
1, 65727, Note_on_c, 1, 60, 96
1, 65727, Note_on_c, 1, 57, 96
1, 65728, Note_off_c, 1, 60, 96
1, 65728, Note_off_c, 1, 57, 96
1, 65732, Note_on_c, 1, 78, 96
1, 65733, Note_off_c, 1, 78, 96
1, 65736, Note_on_c, 1, 54, 96
1, 65737, Note_off_c, 1, 54, 96
1, 65853, Note_on_c, 1, 69, 96
1, 65855, Note_off_c, 1, 69, 96
1, 65855, Note_on_c, 1, 78, 96
1, 65856, Note_off_c, 1, 78, 96
1, 65976, Note_on_c, 1, 71, 96
1, 65976, Note_on_c, 1, 43, 96
1, 65979, Note_off_c, 1, 71, 96
1, 65979, Note_off_c, 1, 43, 96
1, 65979, Note_on_c, 1, 83, 96
1, 65979, Note_on_c, 1, 79, 96
1, 65980, Note_off_c, 1, 83, 96
1, 65980, Note_off_c, 1, 79, 96
1, 66102, Note_on_c, 1, 61, 96
1, 66104, Note_off_c, 1, 61, 96
1, 66104, Note_on_c, 1, 49, 96
1, 66105, Note_off_c, 1, 49, 96
1, 66222, Note_on_c, 1, 77, 96
1, 66222, Note_on_c, 1, 50, 96
1, 66222, Note_on_c, 1, 38, 96
1, 66223, Note_off_c, 1, 77, 96
1, 66223, Note_off_c, 1, 50, 96
1, 66223, Note_off_c, 1, 38, 96
1, 66227, Note_on_c, 1, 67, 96
1, 66228, Note_off_c, 1, 67, 96
1, 66230, Note_on_c, 1, 79, 96
1, 66231, Note_off_c, 1, 79, 96
1, 66351, Note_on_c, 1, 55, 96
1, 66351, Note_on_c, 1, 53, 96
1, 66351, Note_on_c, 1, 59, 96
1, 66352, Note_off_c, 1, 55, 96
1, 66352, Note_off_c, 1, 53, 96
1, 66352, Note_off_c, 1, 59, 96
1, 66462, Note_on_c, 1, 65, 96
1, 66464, Note_off_c, 1, 65, 96
1, 66464, Note_on_c, 1, 59, 96
1, 66465, Note_off_c, 1, 59, 96
1, 66472, Note_on_c, 1, 55, 96
1, 66473, Note_off_c, 1, 55, 96
1, 66585, Note_on_c, 1, 67, 96
1, 66586, Note_off_c, 1, 67, 96
1, 66611, Note_on_c, 1, 76, 96
1, 66612, Note_off_c, 1, 76, 96
1, 66653, Note_on_c, 1, 79, 96
1, 66654, Note_off_c, 1, 79, 96
1, 66660, Note_on_c, 1, 48, 96
1, 66661, Note_off_c, 1, 48, 96
1, 66718, Note_on_c, 1, 76, 96
1, 66719, Note_off_c, 1, 76, 96
1, 66786, Note_on_c, 1, 48, 96
1, 66786, Note_on_c, 1, 54, 96
1, 66787, Note_off_c, 1, 48, 96
1, 66787, Note_off_c, 1, 54, 96
1, 66796, Note_on_c, 1, 71, 96
1, 66797, Note_off_c, 1, 71, 96
1, 66916, Note_on_c, 1, 52, 96
1, 66917, Note_off_c, 1, 52, 96
1, 66976, Note_on_c, 1, 55, 96
1, 66977, Note_off_c, 1, 55, 96
1, 67035, Note_on_c, 1, 69, 96
1, 67036, Note_off_c, 1, 69, 96
1, 67038, Note_on_c, 1, 57, 96
1, 67039, Note_off_c, 1, 57, 96
1, 67098, Note_on_c, 1, 69, 96
1, 67098, Note_on_c, 1, 60, 96
1, 67099, Note_off_c, 1, 69, 96
1, 67099, Note_off_c, 1, 60, 96
1, 67157, Note_on_c, 1, 71, 96
1, 67158, Note_off_c, 1, 71, 96
1, 67162, Note_on_c, 1, 53, 96
1, 67163, Note_off_c, 1, 53, 96
1, 67402, Note_on_c, 1, 45, 96
1, 67403, Note_off_c, 1, 45, 96
1, 67584, Note_on_c, 1, 34, 96
1, 67585, Note_off_c, 1, 34, 96
1, 67707, Note_on_c, 1, 47, 96
1, 67708, Note_off_c, 1, 47, 96
1, 67710, Note_on_c, 1, 59, 96
1, 67711, Note_off_c, 1, 59, 96
1, 67771, Note_on_c, 1, 45, 96
1, 67772, Note_off_c, 1, 45, 96
1, 67826, Note_on_c, 1, 38, 96
1, 67828, Note_off_c, 1, 38, 96
1, 67828, Note_on_c, 1, 50, 96
1, 67829, Note_off_c, 1, 50, 96
1, 67831, Note_on_c, 1, 69, 96
1, 67832, Note_off_c, 1, 69, 96
1, 67950, Note_on_c, 1, 55, 96
1, 67952, Note_off_c, 1, 55, 96
1, 67952, Note_on_c, 1, 62, 96
1, 67954, Note_off_c, 1, 62, 96
1, 67954, Note_on_c, 1, 60, 96
1, 67956, Note_off_c, 1, 60, 96
1, 67956, Note_on_c, 1, 40, 96
1, 67958, Note_off_c, 1, 40, 96
1, 67958, Note_on_c, 1, 52, 96
1, 67959, Note_off_c, 1, 52, 96
1, 68073, Note_on_c, 1, 57, 96
1, 68074, Note_off_c, 1, 57, 96
1, 68077, Note_on_c, 1, 60, 96
1, 68078, Note_off_c, 1, 60, 96
1, 68080, Note_on_c, 1, 52, 96
1, 68081, Note_off_c, 1, 52, 96
1, 68139, Note_on_c, 1, 64, 96
1, 68140, Note_off_c, 1, 64, 96
1, 68202, Note_on_c, 1, 63, 96
1, 68203, Note_off_c, 1, 63, 96
1, 68321, Note_on_c, 1, 65, 96
1, 68322, Note_off_c, 1, 65, 96
1, 68360, Note_on_c, 1, 54, 96
1, 68361, Note_off_c, 1, 54, 96
1, 68386, Note_on_c, 1, 62, 96
1, 68386, Note_on_c, 1, 50, 96
1, 68387, Note_off_c, 1, 62, 96
1, 68387, Note_off_c, 1, 50, 96
1, 68389, Note_on_c, 1, 60, 96
1, 68390, Note_off_c, 1, 60, 96
1, 68446, Note_on_c, 1, 62, 96
1, 68447, Note_off_c, 1, 62, 96
1, 68450, Note_on_c, 1, 38, 96
1, 68451, Note_off_c, 1, 38, 96
1, 68569, Note_on_c, 1, 43, 96
1, 68569, Note_on_c, 1, 59, 96
1, 68570, Note_off_c, 1, 43, 96
1, 68570, Note_off_c, 1, 59, 96
1, 68573, Note_on_c, 1, 67, 96
1, 68574, Note_off_c, 1, 67, 96
1, 68694, Note_on_c, 1, 59, 96
1, 68694, Note_on_c, 1, 53, 96
1, 68696, Note_off_c, 1, 59, 96
1, 68696, Note_off_c, 1, 53, 96
1, 68696, Note_on_c, 1, 43, 96
1, 68697, Note_off_c, 1, 43, 96
1, 68755, Note_on_c, 1, 62, 96
1, 68756, Note_off_c, 1, 62, 96
1, 68812, Note_on_c, 1, 53, 96
1, 68813, Note_off_c, 1, 53, 96
1, 68815, Note_on_c, 1, 59, 96
1, 68816, Note_off_c, 1, 59, 96
1, 68933, Note_on_c, 1, 64, 96
1, 68935, Note_off_c, 1, 64, 96
1, 68935, Note_on_c, 1, 55, 96
1, 68938, Note_off_c, 1, 55, 96
1, 68938, Note_on_c, 1, 70, 96
1, 68938, Note_on_c, 1, 60, 96
1, 68940, Note_off_c, 1, 70, 96
1, 68940, Note_off_c, 1, 60, 96
1, 68940, Note_on_c, 1, 36, 96
1, 68941, Note_off_c, 1, 36, 96
1, 69058, Note_on_c, 1, 58, 96
1, 69060, Note_off_c, 1, 58, 96
1, 69060, Note_on_c, 1, 60, 96
1, 69061, Note_off_c, 1, 60, 96
1, 69063, Note_on_c, 1, 72, 96
1, 69064, Note_off_c, 1, 72, 96
1, 69067, Note_on_c, 1, 52, 96
1, 69068, Note_off_c, 1, 52, 96
1, 69182, Note_on_c, 1, 72, 96
1, 69185, Note_off_c, 1, 72, 96
1, 69185, Note_on_c, 1, 60, 96
1, 69185, Note_on_c, 1, 55, 96
1, 69186, Note_off_c, 1, 60, 96
1, 69186, Note_off_c, 1, 55, 96
1, 69190, Note_on_c, 1, 58, 96
1, 69191, Note_off_c, 1, 58, 96
1, 69304, Note_on_c, 1, 67, 96
1, 69304, Note_on_c, 1, 48, 96
1, 69305, Note_off_c, 1, 67, 96
1, 69305, Note_off_c, 1, 48, 96
1, 69308, Note_on_c, 1, 72, 96
1, 69310, Note_off_c, 1, 72, 96
1, 69310, Note_on_c, 1, 64, 96
1, 69311, Note_off_c, 1, 64, 96
1, 69314, Note_on_c, 1, 58, 96
1, 69315, Note_off_c, 1, 58, 96
1, 69551, Note_on_c, 1, 64, 96
1, 69551, Note_on_c, 1, 60, 96
1, 69551, Note_on_c, 1, 58, 96
1, 69552, Note_off_c, 1, 64, 96
1, 69552, Note_off_c, 1, 60, 96
1, 69552, Note_off_c, 1, 58, 96
1, 69559, Note_on_c, 1, 74, 96
1, 69560, Note_off_c, 1, 74, 96
1, 69676, Note_on_c, 1, 77, 96
1, 69676, Note_on_c, 1, 69, 96
1, 69677, Note_off_c, 1, 77, 96
1, 69677, Note_off_c, 1, 69, 96
1, 69679, Note_on_c, 1, 65, 96
1, 69680, Note_off_c, 1, 65, 96
1, 69914, Note_on_c, 1, 65, 96
1, 69915, Note_off_c, 1, 65, 96
1, 69917, Note_on_c, 1, 53, 96
1, 69918, Note_off_c, 1, 53, 96
1, 70157, Note_on_c, 1, 65, 96
1, 70157, Note_on_c, 1, 57, 96
1, 70159, Note_off_c, 1, 65, 96
1, 70159, Note_off_c, 1, 57, 96
1, 70159, Note_on_c, 1, 53, 96
1, 70161, Note_off_c, 1, 53, 96
1, 70161, Note_on_c, 1, 41, 96
1, 70162, Note_off_c, 1, 41, 96
1, 70287, Note_on_c, 1, 69, 96
1, 70287, Note_on_c, 1, 60, 96
1, 70288, Note_off_c, 1, 69, 96
1, 70288, Note_off_c, 1, 60, 96
1, 70405, Note_on_c, 1, 65, 96
1, 70405, Note_on_c, 1, 53, 96
1, 70406, Note_off_c, 1, 65, 96
1, 70406, Note_off_c, 1, 53, 96
1, 70409, Note_on_c, 1, 57, 96
1, 70410, Note_off_c, 1, 57, 96
1, 70528, Note_on_c, 1, 62, 96
1, 70529, Note_off_c, 1, 62, 96
1, 70650, Note_on_c, 1, 65, 96
1, 70652, Note_off_c, 1, 65, 96
1, 70652, Note_on_c, 1, 57, 96
1, 70653, Note_off_c, 1, 57, 96
1, 70656, Note_on_c, 1, 63, 96
1, 70656, Note_on_c, 1, 60, 96
1, 70657, Note_off_c, 1, 63, 96
1, 70657, Note_off_c, 1, 60, 96
1, 70894, Note_on_c, 1, 68, 96
1, 70895, Note_off_c, 1, 68, 96
1, 70897, Note_on_c, 1, 65, 96
1, 70898, Note_off_c, 1, 65, 96
1, 70903, Note_on_c, 1, 48, 96
1, 70903, Note_on_c, 1, 57, 96
1, 70904, Note_off_c, 1, 48, 96
1, 70904, Note_off_c, 1, 57, 96
1, 70907, Note_on_c, 1, 72, 96
1, 70907, Note_on_c, 1, 48, 96
1, 70908, Note_off_c, 1, 72, 96
1, 70908, Note_off_c, 1, 48, 96
1, 71142, Note_on_c, 1, 60, 96
1, 71144, Note_off_c, 1, 60, 96
1, 71144, Note_on_c, 1, 48, 96
1, 71147, Note_off_c, 1, 48, 96
1, 71147, Note_on_c, 1, 72, 96
1, 71147, Note_on_c, 1, 36, 96
1, 71148, Note_off_c, 1, 72, 96
1, 71148, Note_off_c, 1, 36, 96
1, 71151, Note_on_c, 1, 69, 96
1, 71152, Note_off_c, 1, 69, 96
1, 71387, Note_on_c, 1, 53, 96
1, 71389, Note_off_c, 1, 53, 96
1, 71389, Note_on_c, 1, 57, 96
1, 71390, Note_off_c, 1, 57, 96
1, 71393, Note_on_c, 1, 69, 96
1, 71393, Note_on_c, 1, 60, 96
1, 71394, Note_off_c, 1, 69, 96
1, 71394, Note_off_c, 1, 60, 96
1, 71397, Note_on_c, 1, 65, 96
1, 71397, Note_on_c, 1, 41, 96
1, 71398, Note_off_c, 1, 65, 96
1, 71398, Note_off_c, 1, 41, 96
1, 71518, Note_on_c, 1, 57, 96
1, 71518, Note_on_c, 1, 60, 96
1, 71520, Note_off_c, 1, 57, 96
1, 71520, Note_off_c, 1, 60, 96
1, 71520, Note_on_c, 1, 69, 96
1, 71522, Note_off_c, 1, 69, 96
1, 71522, Note_on_c, 1, 65, 96
1, 71523, Note_off_c, 1, 65, 96
1, 71641, Note_on_c, 1, 63, 96
1, 71641, Note_on_c, 1, 69, 96
1, 71642, Note_off_c, 1, 63, 96
1, 71642, Note_off_c, 1, 69, 96
1, 71644, Note_on_c, 1, 41, 96
1, 71645, Note_off_c, 1, 41, 96
1, 71648, Note_on_c, 1, 72, 96
1, 71649, Note_off_c, 1, 72, 96
1, 71827, Note_on_c, 1, 70, 96
1, 71828, Note_off_c, 1, 70, 96
1, 71830, Note_on_c, 1, 82, 96
1, 71831, Note_off_c, 1, 82, 96
1, 71888, Note_on_c, 1, 81, 96
1, 71889, Note_off_c, 1, 81, 96
1, 71893, Note_on_c, 1, 84, 96
1, 71895, Note_off_c, 1, 84, 96
1, 71895, Note_on_c, 1, 57, 96
1, 71898, Note_off_c, 1, 57, 96
1, 71898, Note_on_c, 1, 65, 96
1, 71898, Note_on_c, 1, 60, 96
1, 71899, Note_off_c, 1, 65, 96
1, 71899, Note_off_c, 1, 60, 96
1, 72017, Note_on_c, 1, 84, 96
1, 72019, Note_off_c, 1, 84, 96
1, 72019, Note_on_c, 1, 72, 96
1, 72022, Note_off_c, 1, 72, 96
1, 72022, Note_on_c, 1, 45, 96
1, 72022, Note_on_c, 1, 57, 96
1, 72024, Note_off_c, 1, 45, 96
1, 72024, Note_off_c, 1, 57, 96
1, 72024, Note_on_c, 1, 76, 96
1, 72025, Note_off_c, 1, 76, 96
1, 72078, Note_on_c, 1, 81, 96
1, 72079, Note_off_c, 1, 81, 96
1, 72085, Note_on_c, 1, 85, 96
1, 72085, Note_on_c, 1, 40, 96
1, 72087, Note_off_c, 1, 85, 96
1, 72087, Note_off_c, 1, 40, 96
1, 72087, Note_on_c, 1, 76, 96
1, 72088, Note_off_c, 1, 76, 96
1, 72263, Note_on_c, 1, 93, 96
1, 72265, Note_off_c, 1, 93, 96
1, 72265, Note_on_c, 1, 64, 96
1, 72266, Note_off_c, 1, 64, 96
1, 72269, Note_on_c, 1, 88, 96
1, 72270, Note_off_c, 1, 88, 96
1, 72391, Note_on_c, 1, 55, 96
1, 72393, Note_off_c, 1, 55, 96
1, 72393, Note_on_c, 1, 43, 96
1, 72394, Note_off_c, 1, 43, 96
1, 72450, Note_on_c, 1, 88, 96
1, 72451, Note_off_c, 1, 88, 96
1, 72511, Note_on_c, 1, 66, 96
1, 72511, Note_on_c, 1, 54, 96
1, 72513, Note_off_c, 1, 66, 96
1, 72513, Note_off_c, 1, 54, 96
1, 72513, Note_on_c, 1, 61, 96
1, 72514, Note_off_c, 1, 61, 96
1, 72517, Note_on_c, 1, 81, 96
1, 72519, Note_off_c, 1, 81, 96
1, 72519, Note_on_c, 1, 50, 96
1, 72520, Note_off_c, 1, 50, 96
1, 72750, Note_on_c, 1, 81, 96
1, 72752, Note_off_c, 1, 81, 96
1, 72752, Note_on_c, 1, 75, 96
1, 72754, Note_off_c, 1, 75, 96
1, 72754, Note_on_c, 1, 38, 96
1, 72756, Note_off_c, 1, 38, 96
1, 72756, Note_on_c, 1, 50, 96
1, 72758, Note_off_c, 1, 50, 96
1, 72758, Note_on_c, 1, 77, 96
1, 72759, Note_off_c, 1, 77, 96
1, 72764, Note_on_c, 1, 86, 96
1, 72765, Note_off_c, 1, 86, 96
1, 72880, Note_on_c, 1, 89, 96
1, 72883, Note_off_c, 1, 89, 96
1, 72883, Note_on_c, 1, 42, 96
1, 72883, Note_on_c, 1, 54, 96
1, 72884, Note_off_c, 1, 42, 96
1, 72884, Note_off_c, 1, 54, 96
1, 72903, Note_on_c, 1, 91, 96
1, 72904, Note_off_c, 1, 91, 96
1, 72920, Note_on_c, 1, 90, 96
1, 72921, Note_off_c, 1, 90, 96
1, 72924, Note_on_c, 1, 93, 96
1, 72925, Note_off_c, 1, 93, 96
1, 72970, Note_on_c, 1, 96, 96
1, 72971, Note_off_c, 1, 96, 96
1, 72973, Note_on_c, 1, 55, 96
1, 72975, Note_off_c, 1, 55, 96
1, 72975, Note_on_c, 1, 62, 96
1, 72977, Note_off_c, 1, 62, 96
1, 72977, Note_on_c, 1, 60, 96
1, 72978, Note_off_c, 1, 60, 96
1, 73079, Note_on_c, 1, 85, 96
1, 73080, Note_off_c, 1, 85, 96
1, 73083, Note_on_c, 1, 90, 96
1, 73083, Note_on_c, 1, 79, 96
1, 73084, Note_off_c, 1, 90, 96
1, 73084, Note_off_c, 1, 79, 96
1, 73142, Note_on_c, 1, 45, 96
1, 73142, Note_on_c, 1, 57, 96
1, 73143, Note_off_c, 1, 45, 96
1, 73143, Note_off_c, 1, 57, 96
1, 73187, Note_on_c, 1, 66, 96
1, 73189, Note_off_c, 1, 66, 96
1, 73189, Note_on_c, 1, 62, 96
1, 73190, Note_off_c, 1, 62, 96
1, 73245, Note_on_c, 1, 74, 96
1, 73246, Note_off_c, 1, 74, 96
1, 73250, Note_on_c, 1, 86, 96
1, 73251, Note_off_c, 1, 86, 96
1, 73309, Note_on_c, 1, 43, 96
1, 73310, Note_off_c, 1, 43, 96
1, 73313, Note_on_c, 1, 88, 96
1, 73313, Note_on_c, 1, 76, 96
1, 73315, Note_off_c, 1, 88, 96
1, 73315, Note_off_c, 1, 76, 96
1, 73315, Note_on_c, 1, 79, 96
1, 73316, Note_off_c, 1, 79, 96
1, 73374, Note_on_c, 1, 78, 96
1, 73376, Note_off_c, 1, 78, 96
1, 73376, Note_on_c, 1, 90, 96
1, 73377, Note_off_c, 1, 90, 96
1, 73434, Note_on_c, 1, 62, 96
1, 73435, Note_off_c, 1, 62, 96
1, 73438, Note_on_c, 1, 50, 96
1, 73439, Note_off_c, 1, 50, 96
1, 73500, Note_on_c, 1, 93, 96
1, 73500, Note_on_c, 1, 81, 96
1, 73501, Note_off_c, 1, 93, 96
1, 73501, Note_off_c, 1, 81, 96
1, 73558, Note_on_c, 1, 57, 96
1, 73560, Note_off_c, 1, 57, 96
1, 73560, Note_on_c, 1, 78, 96
1, 73562, Note_off_c, 1, 78, 96
1, 73562, Note_on_c, 1, 90, 96
1, 73564, Note_off_c, 1, 90, 96
1, 73564, Note_on_c, 1, 62, 96
1, 73566, Note_off_c, 1, 62, 96
1, 73566, Note_on_c, 1, 66, 96
1, 73567, Note_off_c, 1, 66, 96
1, 73621, Note_on_c, 1, 77, 96
1, 73622, Note_off_c, 1, 77, 96
1, 73687, Note_on_c, 1, 90, 96
1, 73687, Note_on_c, 1, 78, 96
1, 73688, Note_off_c, 1, 90, 96
1, 73688, Note_off_c, 1, 78, 96
1, 73692, Note_on_c, 1, 93, 96
1, 73694, Note_off_c, 1, 93, 96
1, 73694, Note_on_c, 1, 83, 96
1, 73695, Note_off_c, 1, 83, 96
1, 73875, Note_on_c, 1, 62, 96
1, 73876, Note_off_c, 1, 62, 96
1, 74409, Note_on_c, 1, 56, 96
1, 74410, Note_off_c, 1, 56, 96
1, 74469, Note_on_c, 1, 69, 96
1, 74473, Note_off_c, 1, 69, 96
1, 74473, Note_on_c, 1, 81, 96
1, 74473, Note_on_c, 1, 73, 96
1, 74473, Note_on_c, 1, 45, 96
1, 74475, Note_off_c, 1, 81, 96
1, 74475, Note_off_c, 1, 73, 96
1, 74475, Note_off_c, 1, 45, 96
1, 74475, Note_on_c, 1, 33, 96
1, 74476, Note_off_c, 1, 33, 96
1, 74656, Note_on_c, 1, 80, 96
1, 74656, Note_on_c, 1, 68, 96
1, 74656, Note_on_c, 1, 62, 96
1, 74657, Note_off_c, 1, 80, 96
1, 74657, Note_off_c, 1, 68, 96
1, 74657, Note_off_c, 1, 62, 96
1, 74733, Note_on_c, 1, 74, 96
1, 74735, Note_off_c, 1, 74, 96
1, 74735, Note_on_c, 1, 95, 96
1, 74736, Note_off_c, 1, 95, 96
1, 74769, Note_on_c, 1, 74, 96
1, 74769, Note_on_c, 1, 56, 96
1, 74771, Note_off_c, 1, 74, 96
1, 74771, Note_off_c, 1, 56, 96
1, 74771, Note_on_c, 1, 65, 96
1, 74774, Note_off_c, 1, 65, 96
1, 74774, Note_on_c, 1, 62, 96
1, 74774, Note_on_c, 1, 59, 96
1, 74776, Note_off_c, 1, 62, 96
1, 74776, Note_off_c, 1, 59, 96
1, 74776, Note_on_c, 1, 86, 96
1, 74777, Note_off_c, 1, 86, 96
1, 74870, Note_on_c, 1, 56, 96
1, 74871, Note_off_c, 1, 56, 96
1, 74873, Note_on_c, 1, 59, 96
1, 74875, Note_off_c, 1, 59, 96
1, 74875, Note_on_c, 1, 65, 96
1, 74876, Note_off_c, 1, 65, 96
1, 74878, Note_on_c, 1, 62, 96
1, 74880, Note_off_c, 1, 62, 96
1, 74880, Note_on_c, 1, 86, 96
1, 74881, Note_off_c, 1, 86, 96
1, 74970, Note_on_c, 1, 89, 96
1, 74971, Note_off_c, 1, 89, 96
1, 74998, Note_on_c, 1, 40, 96
1, 75001, Note_off_c, 1, 40, 96
1, 75001, Note_on_c, 1, 52, 96
1, 75001, Note_on_c, 1, 58, 96
1, 75002, Note_off_c, 1, 52, 96
1, 75002, Note_off_c, 1, 58, 96
1, 75007, Note_on_c, 1, 70, 96
1, 75012, Note_off_c, 1, 70, 96
1, 75012, Note_on_c, 1, 86, 96
1, 75012, Note_on_c, 1, 79, 96
1, 75012, Note_on_c, 1, 76, 96
1, 75012, Note_on_c, 1, 52, 96
1, 75013, Note_off_c, 1, 86, 96
1, 75013, Note_off_c, 1, 79, 96
1, 75013, Note_off_c, 1, 76, 96
1, 75013, Note_off_c, 1, 52, 96
1, 75129, Note_on_c, 1, 93, 96
1, 75131, Note_off_c, 1, 93, 96
1, 75131, Note_on_c, 1, 76, 96
1, 75133, Note_off_c, 1, 76, 96
1, 75133, Note_on_c, 1, 36, 96
1, 75134, Note_off_c, 1, 36, 96
1, 75137, Note_on_c, 1, 72, 96
1, 75137, Note_on_c, 1, 72, 96
1, 75139, Note_off_c, 1, 72, 96
1, 75139, Note_off_c, 1, 72, 96
1, 75139, Note_on_c, 1, 96, 96
1, 75141, Note_off_c, 1, 96, 96
1, 75141, Note_on_c, 1, 48, 96
1, 75142, Note_off_c, 1, 48, 96
1, 75144, Note_on_c, 1, 88, 96
1, 75145, Note_off_c, 1, 88, 96
1, 75260, Note_on_c, 1, 84, 96
1, 75261, Note_off_c, 1, 84, 96
1, 75264, Note_on_c, 1, 64, 96
1, 75266, Note_off_c, 1, 64, 96
1, 75266, Note_on_c, 1, 96, 96
1, 75267, Note_off_c, 1, 96, 96
1, 75269, Note_on_c, 1, 60, 96
1, 75271, Note_off_c, 1, 60, 96
1, 75271, Note_on_c, 1, 58, 96
1, 75272, Note_off_c, 1, 58, 96
1, 75378, Note_on_c, 1, 91, 96
1, 75380, Note_off_c, 1, 91, 96
1, 75380, Note_on_c, 1, 88, 96
1, 75381, Note_off_c, 1, 88, 96
1, 75493, Note_on_c, 1, 96, 96
1, 75494, Note_off_c, 1, 96, 96
1, 75552, Note_on_c, 1, 84, 96
1, 75554, Note_off_c, 1, 84, 96
1, 75554, Note_on_c, 1, 43, 96
1, 75555, Note_off_c, 1, 43, 96
1, 75558, Note_on_c, 1, 55, 96
1, 75560, Note_off_c, 1, 55, 96
1, 75560, Note_on_c, 1, 89, 96
1, 75561, Note_off_c, 1, 89, 96
1, 75622, Note_on_c, 1, 56, 96
1, 75622, Note_on_c, 1, 44, 96
1, 75623, Note_off_c, 1, 56, 96
1, 75623, Note_off_c, 1, 44, 96
1, 75671, Note_on_c, 1, 65, 96
1, 75672, Note_off_c, 1, 65, 96
1, 75754, Note_on_c, 1, 85, 96
1, 75755, Note_off_c, 1, 85, 96
1, 75794, Note_on_c, 1, 38, 96
1, 75795, Note_off_c, 1, 38, 96
1, 75798, Note_on_c, 1, 86, 96
1, 75799, Note_off_c, 1, 86, 96
1, 75801, Note_on_c, 1, 74, 96
1, 75802, Note_off_c, 1, 74, 96
1, 76033, Note_on_c, 1, 77, 96
1, 76033, Note_on_c, 1, 70, 96
1, 76034, Note_off_c, 1, 77, 96
1, 76034, Note_off_c, 1, 70, 96
1, 76037, Note_on_c, 1, 34, 96
1, 76037, Note_on_c, 1, 46, 96
1, 76039, Note_off_c, 1, 34, 96
1, 76039, Note_off_c, 1, 46, 96
1, 76039, Note_on_c, 1, 38, 96
1, 76045, Note_off_c, 1, 38, 96
1, 76045, Note_on_c, 1, 74, 96
1, 76045, Note_on_c, 1, 53, 96
1, 76045, Note_on_c, 1, 56, 96
1, 76045, Note_on_c, 1, 62, 96
1, 76045, Note_on_c, 1, 38, 96
1, 76047, Note_off_c, 1, 74, 96
1, 76047, Note_off_c, 1, 53, 96
1, 76047, Note_off_c, 1, 56, 96
1, 76047, Note_off_c, 1, 62, 96
1, 76047, Note_off_c, 1, 38, 96
1, 76047, Note_on_c, 1, 68, 96
1, 76048, Note_off_c, 1, 68, 96
1, 76051, Note_on_c, 1, 56, 96
1, 76051, Note_on_c, 1, 56, 96
1, 76052, Note_off_c, 1, 56, 96
1, 76052, Note_off_c, 1, 56, 96
1, 76289, Note_on_c, 1, 70, 96
1, 76291, Note_off_c, 1, 70, 96
1, 76291, Note_on_c, 1, 70, 96
1, 76293, Note_off_c, 1, 70, 96
1, 76293, Note_on_c, 1, 82, 96
1, 76294, Note_off_c, 1, 82, 96
1, 76410, Note_on_c, 1, 94, 96
1, 76410, Note_on_c, 1, 86, 96
1, 76411, Note_off_c, 1, 94, 96
1, 76411, Note_off_c, 1, 86, 96
1, 76415, Note_on_c, 1, 58, 96
1, 76415, Note_on_c, 1, 46, 96
1, 76416, Note_off_c, 1, 58, 96
1, 76416, Note_off_c, 1, 46, 96
1, 76419, Note_on_c, 1, 34, 96
1, 76419, Note_on_c, 1, 46, 96
1, 76421, Note_off_c, 1, 34, 96
1, 76421, Note_off_c, 1, 46, 96
1, 76421, Note_on_c, 1, 82, 96
1, 76422, Note_off_c, 1, 82, 96
1, 76536, Note_on_c, 1, 89, 96
1, 76538, Note_off_c, 1, 89, 96
1, 76538, Note_on_c, 1, 46, 96
1, 76539, Note_off_c, 1, 46, 96
1, 76543, Note_on_c, 1, 77, 96
1, 76544, Note_off_c, 1, 77, 96
1, 76658, Note_on_c, 1, 38, 96
1, 76659, Note_off_c, 1, 38, 96
1, 76662, Note_on_c, 1, 62, 96
1, 76662, Note_on_c, 1, 65, 96
1, 76663, Note_off_c, 1, 62, 96
1, 76663, Note_off_c, 1, 65, 96
1, 76668, Note_on_c, 1, 77, 96
1, 76669, Note_off_c, 1, 77, 96
1, 76785, Note_on_c, 1, 65, 96
1, 76785, Note_on_c, 1, 57, 96
1, 76786, Note_off_c, 1, 65, 96
1, 76786, Note_off_c, 1, 57, 96
1, 76789, Note_on_c, 1, 77, 96
1, 76790, Note_off_c, 1, 77, 96
1, 77031, Note_on_c, 1, 62, 96
1, 77033, Note_off_c, 1, 62, 96
1, 77033, Note_on_c, 1, 81, 96
1, 77034, Note_off_c, 1, 81, 96
1, 77036, Note_on_c, 1, 69, 96
1, 77039, Note_off_c, 1, 69, 96
1, 77039, Note_on_c, 1, 50, 96
1, 77039, Note_on_c, 1, 38, 96
1, 77040, Note_off_c, 1, 50, 96
1, 77040, Note_off_c, 1, 38, 96
1, 77279, Note_on_c, 1, 38, 96
1, 77279, Note_on_c, 1, 50, 96
1, 77280, Note_off_c, 1, 38, 96
1, 77280, Note_off_c, 1, 50, 96
1, 77282, Note_on_c, 1, 50, 96
1, 77283, Note_off_c, 1, 50, 96
1, 77396, Note_on_c, 1, 66, 96
1, 77397, Note_off_c, 1, 66, 96
1, 77519, Note_on_c, 1, 64, 96
1, 77521, Note_off_c, 1, 64, 96
1, 77521, Note_on_c, 1, 43, 96
1, 77522, Note_off_c, 1, 43, 96
1, 77644, Note_on_c, 1, 43, 96
1, 77648, Note_off_c, 1, 43, 96
1, 77648, Note_on_c, 1, 62, 96
1, 77648, Note_on_c, 1, 59, 96
1, 77648, Note_on_c, 1, 55, 96
1, 77650, Note_off_c, 1, 62, 96
1, 77650, Note_off_c, 1, 59, 96
1, 77650, Note_off_c, 1, 55, 96
1, 77650, Note_on_c, 1, 50, 96
1, 77651, Note_off_c, 1, 50, 96
1, 77883, Note_on_c, 1, 50, 96
1, 77885, Note_off_c, 1, 50, 96
1, 77885, Note_on_c, 1, 62, 96
1, 77886, Note_off_c, 1, 62, 96
1, 77946, Note_on_c, 1, 62, 96
1, 77948, Note_off_c, 1, 62, 96
1, 77948, Note_on_c, 1, 66, 96
1, 77951, Note_off_c, 1, 66, 96
1, 77951, Note_on_c, 1, 57, 96
1, 77951, Note_on_c, 1, 54, 96
1, 77952, Note_off_c, 1, 57, 96
1, 77952, Note_off_c, 1, 54, 96
1, 78011, Note_on_c, 1, 67, 96
1, 78012, Note_off_c, 1, 67, 96
1, 78131, Note_on_c, 1, 61, 96
1, 78132, Note_off_c, 1, 61, 96
1, 78136, Note_on_c, 1, 67, 96
1, 78136, Note_on_c, 1, 40, 96
1, 78137, Note_off_c, 1, 67, 96
1, 78137, Note_off_c, 1, 40, 96
1, 78195, Note_on_c, 1, 61, 96
1, 78196, Note_off_c, 1, 61, 96
1, 78255, Note_on_c, 1, 66, 96
1, 78257, Note_off_c, 1, 66, 96
1, 78257, Note_on_c, 1, 62, 96
1, 78258, Note_off_c, 1, 62, 96
1, 78315, Note_on_c, 1, 62, 96
1, 78316, Note_off_c, 1, 62, 96
1, 78378, Note_on_c, 1, 54, 96
1, 78378, Note_on_c, 1, 57, 96
1, 78379, Note_off_c, 1, 54, 96
1, 78379, Note_off_c, 1, 57, 96
1, 78382, Note_on_c, 1, 69, 96
1, 78383, Note_off_c, 1, 69, 96
1, 78500, Note_on_c, 1, 64, 96
1, 78501, Note_off_c, 1, 64, 96
1, 78506, Note_on_c, 1, 59, 96
1, 78507, Note_off_c, 1, 59, 96
1, 78563, Note_on_c, 1, 65, 96
1, 78564, Note_off_c, 1, 65, 96
1, 78625, Note_on_c, 1, 67, 96
1, 78625, Note_on_c, 1, 43, 96
1, 78626, Note_off_c, 1, 67, 96
1, 78626, Note_off_c, 1, 43, 96
1, 78864, Note_on_c, 1, 68, 96
1, 78865, Note_off_c, 1, 68, 96
1, 78987, Note_on_c, 1, 72, 96
1, 78988, Note_off_c, 1, 72, 96
1, 79105, Note_on_c, 1, 43, 96
1, 79106, Note_off_c, 1, 43, 96
1, 79110, Note_on_c, 1, 55, 96
1, 79111, Note_off_c, 1, 55, 96
1, 79166, Note_on_c, 1, 66, 96
1, 79167, Note_off_c, 1, 66, 96
1, 79227, Note_on_c, 1, 75, 96
1, 79229, Note_off_c, 1, 75, 96
1, 79229, Note_on_c, 1, 69, 96
1, 79230, Note_off_c, 1, 69, 96
1, 79233, Note_on_c, 1, 39, 96
1, 79233, Note_on_c, 1, 51, 96
1, 79235, Note_off_c, 1, 39, 96
1, 79235, Note_off_c, 1, 51, 96
1, 79235, Note_on_c, 1, 67, 96
1, 79236, Note_off_c, 1, 67, 96
1, 79296, Note_on_c, 1, 67, 96
1, 79296, Note_on_c, 1, 73, 96
1, 79297, Note_off_c, 1, 67, 96
1, 79297, Note_off_c, 1, 73, 96
1, 79356, Note_on_c, 1, 48, 96
1, 79358, Note_off_c, 1, 48, 96
1, 79358, Note_on_c, 1, 36, 96
1, 79359, Note_off_c, 1, 36, 96
1, 79419, Note_on_c, 1, 65, 96
1, 79420, Note_off_c, 1, 65, 96
1, 79480, Note_on_c, 1, 50, 96
1, 79482, Note_off_c, 1, 50, 96
1, 79482, Note_on_c, 1, 65, 96
1, 79485, Note_off_c, 1, 65, 96
1, 79485, Note_on_c, 1, 60, 96
1, 79485, Note_on_c, 1, 57, 96
1, 79486, Note_off_c, 1, 60, 96
1, 79486, Note_off_c, 1, 57, 96
1, 79544, Note_on_c, 1, 69, 96
1, 79545, Note_off_c, 1, 69, 96
1, 79601, Note_on_c, 1, 67, 96
1, 79602, Note_off_c, 1, 67, 96
1, 79604, Note_on_c, 1, 41, 96
1, 79605, Note_off_c, 1, 41, 96
1, 79666, Note_on_c, 1, 69, 96
1, 79667, Note_off_c, 1, 69, 96
1, 79726, Note_on_c, 1, 60, 96
1, 79727, Note_off_c, 1, 60, 96
1, 79729, Note_on_c, 1, 57, 96
1, 79731, Note_off_c, 1, 57, 96
1, 79731, Note_on_c, 1, 65, 96
1, 79734, Note_off_c, 1, 65, 96
1, 79734, Note_on_c, 1, 65, 96
1, 79734, Note_on_c, 1, 69, 96
1, 79735, Note_off_c, 1, 65, 96
1, 79735, Note_off_c, 1, 69, 96
1, 79793, Note_on_c, 1, 70, 96
1, 79794, Note_off_c, 1, 70, 96
1, 79852, Note_on_c, 1, 41, 96
1, 79853, Note_off_c, 1, 41, 96
1, 79856, Note_on_c, 1, 72, 96
1, 79857, Note_off_c, 1, 72, 96
1, 79915, Note_on_c, 1, 69, 96
1, 79916, Note_off_c, 1, 69, 96
1, 79975, Note_on_c, 1, 68, 96
1, 79977, Note_off_c, 1, 68, 96
1, 79977, Note_on_c, 1, 41, 96
1, 79979, Note_off_c, 1, 41, 96
1, 79979, Note_on_c, 1, 53, 96
1, 79980, Note_off_c, 1, 53, 96
1, 80038, Note_on_c, 1, 74, 96
1, 80039, Note_off_c, 1, 74, 96
1, 80096, Note_on_c, 1, 58, 96
1, 80098, Note_off_c, 1, 58, 96
1, 80098, Note_on_c, 1, 61, 96
1, 80099, Note_off_c, 1, 61, 96
1, 80101, Note_on_c, 1, 53, 96
1, 80102, Note_off_c, 1, 53, 96
1, 80104, Note_on_c, 1, 70, 96
1, 80105, Note_off_c, 1, 70, 96
1, 80165, Note_on_c, 1, 75, 96
1, 80165, Note_on_c, 1, 67, 96
1, 80166, Note_off_c, 1, 75, 96
1, 80166, Note_off_c, 1, 67, 96
1, 80227, Note_on_c, 1, 62, 96
1, 80228, Note_off_c, 1, 62, 96
1, 80233, Note_on_c, 1, 41, 96
1, 80233, Note_on_c, 1, 53, 96
1, 80234, Note_off_c, 1, 41, 96
1, 80234, Note_off_c, 1, 53, 96
1, 80289, Note_on_c, 1, 73, 96
1, 80290, Note_off_c, 1, 73, 96
1, 80353, Note_on_c, 1, 74, 96
1, 80353, Note_on_c, 1, 53, 96
1, 80353, Note_on_c, 1, 41, 96
1, 80354, Note_off_c, 1, 74, 96
1, 80354, Note_off_c, 1, 53, 96
1, 80354, Note_off_c, 1, 41, 96
1, 80410, Note_on_c, 1, 74, 96
1, 80411, Note_off_c, 1, 74, 96
1, 80472, Note_on_c, 1, 62, 96
1, 80474, Note_off_c, 1, 62, 96
1, 80474, Note_on_c, 1, 58, 96
1, 80475, Note_off_c, 1, 58, 96
1, 80477, Note_on_c, 1, 67, 96
1, 80478, Note_off_c, 1, 67, 96
1, 80598, Note_on_c, 1, 70, 96
1, 80600, Note_off_c, 1, 70, 96
1, 80600, Note_on_c, 1, 46, 96
1, 80601, Note_off_c, 1, 46, 96
1, 80715, Note_on_c, 1, 79, 96
1, 80717, Note_off_c, 1, 79, 96
1, 80717, Note_on_c, 1, 45, 96
1, 80719, Note_off_c, 1, 45, 96
1, 80719, Note_on_c, 1, 68, 96
1, 80720, Note_off_c, 1, 68, 96
1, 80722, Note_on_c, 1, 71, 96
1, 80723, Note_off_c, 1, 71, 96
1, 80843, Note_on_c, 1, 59, 96
1, 80843, Note_on_c, 1, 55, 96
1, 80845, Note_off_c, 1, 59, 96
1, 80845, Note_off_c, 1, 55, 96
1, 80845, Note_on_c, 1, 53, 96
1, 80846, Note_off_c, 1, 53, 96
1, 80921, Note_on_c, 1, 72, 96
1, 80922, Note_off_c, 1, 72, 96
1, 80968, Note_on_c, 1, 67, 96
1, 80971, Note_off_c, 1, 67, 96
1, 80971, Note_on_c, 1, 48, 96
1, 80971, Note_on_c, 1, 60, 96
1, 80972, Note_off_c, 1, 48, 96
1, 80972, Note_off_c, 1, 60, 96
1, 81090, Note_on_c, 1, 79, 96
1, 81090, Note_on_c, 1, 55, 96
1, 81091, Note_off_c, 1, 79, 96
1, 81091, Note_off_c, 1, 55, 96
1, 81093, Note_on_c, 1, 76, 96
1, 81095, Note_off_c, 1, 76, 96
1, 81095, Note_on_c, 1, 60, 96
1, 81097, Note_off_c, 1, 60, 96
1, 81097, Note_on_c, 1, 64, 96
1, 81098, Note_off_c, 1, 64, 96
1, 81209, Note_on_c, 1, 64, 96
1, 81211, Note_off_c, 1, 64, 96
1, 81211, Note_on_c, 1, 60, 96
1, 81212, Note_off_c, 1, 60, 96
1, 81218, Note_on_c, 1, 79, 96
1, 81218, Note_on_c, 1, 55, 96
1, 81220, Note_off_c, 1, 79, 96
1, 81220, Note_off_c, 1, 55, 96
1, 81220, Note_on_c, 1, 76, 96
1, 81221, Note_off_c, 1, 76, 96
1, 81340, Note_on_c, 1, 48, 96
1, 81341, Note_off_c, 1, 48, 96
1, 81458, Note_on_c, 1, 57, 96
1, 81459, Note_off_c, 1, 57, 96
1, 81462, Note_on_c, 1, 66, 96
1, 81463, Note_off_c, 1, 66, 96
1, 81583, Note_on_c, 1, 76, 96
1, 81584, Note_off_c, 1, 76, 96
1, 81703, Note_on_c, 1, 75, 96
1, 81704, Note_off_c, 1, 75, 96
1, 81745, Note_on_c, 1, 52, 96
1, 81746, Note_off_c, 1, 52, 96
1, 81752, Note_on_c, 1, 81, 96
1, 81752, Note_on_c, 1, 40, 96
1, 81753, Note_off_c, 1, 81, 96
1, 81753, Note_off_c, 1, 40, 96
1, 81797, Note_on_c, 1, 80, 96
1, 81798, Note_off_c, 1, 80, 96
1, 81819, Note_on_c, 1, 88, 96
1, 81821, Note_off_c, 1, 88, 96
1, 81821, Note_on_c, 1, 76, 96
1, 81822, Note_off_c, 1, 76, 96
1, 81862, Note_on_c, 1, 81, 96
1, 81863, Note_off_c, 1, 81, 96
1, 81904, Note_on_c, 1, 79, 96
1, 81905, Note_off_c, 1, 79, 96
1, 82018, Note_on_c, 1, 60, 96
1, 82019, Note_off_c, 1, 60, 96
1, 82021, Note_on_c, 1, 79, 96
1, 82022, Note_off_c, 1, 79, 96
1, 82168, Note_on_c, 1, 69, 96
1, 82170, Note_off_c, 1, 69, 96
1, 82170, Note_on_c, 1, 57, 96
1, 82171, Note_off_c, 1, 57, 96
1, 82252, Note_on_c, 1, 61, 96
1, 82254, Note_off_c, 1, 61, 96
1, 82254, Note_on_c, 1, 81, 96
1, 82256, Note_off_c, 1, 81, 96
1, 82256, Note_on_c, 1, 52, 96
1, 82257, Note_off_c, 1, 52, 96
1, 82259, Note_on_c, 1, 57, 96
1, 82261, Note_off_c, 1, 57, 96
1, 82261, Note_on_c, 1, 73, 96
1, 82262, Note_off_c, 1, 73, 96
1, 82363, Note_on_c, 1, 85, 96
1, 82364, Note_off_c, 1, 85, 96
1, 82367, Note_on_c, 1, 73, 96
1, 82369, Note_off_c, 1, 73, 96
1, 82369, Note_on_c, 1, 76, 96
1, 82370, Note_off_c, 1, 76, 96
1, 82447, Note_on_c, 1, 81, 96
1, 82449, Note_off_c, 1, 81, 96
1, 82449, Note_on_c, 1, 93, 96
1, 82450, Note_off_c, 1, 93, 96
1, 82518, Note_on_c, 1, 79, 96
1, 82521, Note_off_c, 1, 79, 96
1, 82521, Note_on_c, 1, 57, 96
1, 82521, Note_on_c, 1, 45, 96
1, 82522, Note_off_c, 1, 57, 96
1, 82522, Note_off_c, 1, 45, 96
1, 82529, Note_on_c, 1, 73, 96
1, 82531, Note_off_c, 1, 73, 96
1, 82531, Note_on_c, 1, 85, 96
1, 82532, Note_off_c, 1, 85, 96
1, 82652, Note_on_c, 1, 83, 96
1, 82653, Note_off_c, 1, 83, 96
1, 82657, Note_on_c, 1, 88, 96
1, 82658, Note_off_c, 1, 88, 96
1, 82662, Note_on_c, 1, 64, 96
1, 82664, Note_off_c, 1, 64, 96
1, 82664, Note_on_c, 1, 61, 96
1, 82665, Note_off_c, 1, 61, 96
1, 82985, Note_on_c, 1, 77, 96
1, 82985, Note_on_c, 1, 81, 96
1, 82985, Note_on_c, 1, 83, 96
1, 82985, Note_on_c, 1, 89, 96
1, 82985, Note_on_c, 1, 38, 96
1, 82985, Note_on_c, 1, 50, 96
1, 82986, Note_off_c, 1, 77, 96
1, 82986, Note_off_c, 1, 81, 96
1, 82986, Note_off_c, 1, 83, 96
1, 82986, Note_off_c, 1, 89, 96
1, 82986, Note_off_c, 1, 38, 96
1, 82986, Note_off_c, 1, 50, 96
1, 83147, Note_on_c, 1, 70, 96
1, 83147, Note_on_c, 1, 67, 96
1, 83147, Note_on_c, 1, 79, 96
1, 83147, Note_on_c, 1, 64, 96
1, 83147, Note_on_c, 1, 55, 96
1, 83147, Note_on_c, 1, 60, 96
1, 83147, Note_on_c, 1, 91, 96
1, 83148, Note_off_c, 1, 70, 96
1, 83148, Note_off_c, 1, 67, 96
1, 83148, Note_off_c, 1, 79, 96
1, 83148, Note_off_c, 1, 64, 96
1, 83148, Note_off_c, 1, 55, 96
1, 83148, Note_off_c, 1, 60, 96
1, 83148, Note_off_c, 1, 91, 96
1, 83213, Note_on_c, 1, 60, 96
1, 83213, Note_on_c, 1, 64, 96
1, 83213, Note_on_c, 1, 58, 96
1, 83214, Note_off_c, 1, 60, 96
1, 83214, Note_off_c, 1, 64, 96
1, 83214, Note_off_c, 1, 58, 96
1, 83335, Note_on_c, 1, 98, 96
1, 83336, Note_off_c, 1, 98, 96
1, 83356, Note_on_c, 1, 60, 96
1, 83357, Note_off_c, 1, 60, 96
1, 83377, Note_on_c, 1, 79, 96
1, 83378, Note_off_c, 1, 79, 96
1, 83401, Note_on_c, 1, 55, 96
1, 83402, Note_off_c, 1, 55, 96
1, 83426, Note_on_c, 1, 79, 96
1, 83427, Note_off_c, 1, 79, 96
1, 83557, Note_on_c, 1, 67, 96
1, 83557, Note_on_c, 1, 63, 96
1, 83557, Note_on_c, 1, 58, 96
1, 83557, Note_on_c, 1, 55, 96
1, 83561, Note_off_c, 1, 67, 96
1, 83561, Note_off_c, 1, 63, 96
1, 83561, Note_off_c, 1, 58, 96
1, 83561, Note_off_c, 1, 55, 96
1, 83561, Note_on_c, 1, 75, 96
1, 83561, Note_on_c, 1, 84, 96
1, 83561, Note_on_c, 1, 46, 96
1, 83562, Note_off_c, 1, 75, 96
1, 83562, Note_off_c, 1, 84, 96
1, 83562, Note_off_c, 1, 46, 96
1, 83686, Note_on_c, 1, 58, 96
1, 83686, Note_on_c, 1, 63, 96
1, 83686, Note_on_c, 1, 55, 96
1, 83686, Note_on_c, 1, 75, 96
1, 83686, Note_on_c, 1, 87, 96
1, 83687, Note_off_c, 1, 58, 96
1, 83687, Note_off_c, 1, 63, 96
1, 83687, Note_off_c, 1, 55, 96
1, 83687, Note_off_c, 1, 75, 96
1, 83687, Note_off_c, 1, 87, 96
1, 83747, Note_on_c, 1, 82, 96
1, 83748, Note_off_c, 1, 82, 96
1, 83811, Note_on_c, 1, 80, 96
1, 83811, Note_on_c, 1, 84, 96
1, 83811, Note_on_c, 1, 72, 96
1, 83811, Note_on_c, 1, 39, 96
1, 83812, Note_off_c, 1, 80, 96
1, 83812, Note_off_c, 1, 84, 96
1, 83812, Note_off_c, 1, 72, 96
1, 83812, Note_off_c, 1, 39, 96
1, 83872, Note_on_c, 1, 63, 96
1, 83873, Note_off_c, 1, 63, 96
1, 83937, Note_on_c, 1, 79, 96
1, 83937, Note_on_c, 1, 67, 96
1, 83937, Note_on_c, 1, 58, 96
1, 83937, Note_on_c, 1, 63, 96
1, 83937, Note_on_c, 1, 55, 96
1, 83938, Note_off_c, 1, 79, 96
1, 83938, Note_off_c, 1, 67, 96
1, 83938, Note_off_c, 1, 58, 96
1, 83938, Note_off_c, 1, 63, 96
1, 83938, Note_off_c, 1, 55, 96
1, 84059, Note_on_c, 1, 55, 96
1, 84059, Note_on_c, 1, 46, 96
1, 84060, Note_off_c, 1, 55, 96
1, 84060, Note_off_c, 1, 46, 96
1, 84185, Note_on_c, 1, 75, 96
1, 84185, Note_on_c, 1, 67, 96
1, 84185, Note_on_c, 1, 70, 96
1, 84185, Note_on_c, 1, 63, 96
1, 84185, Note_on_c, 1, 63, 96
1, 84185, Note_on_c, 1, 58, 96
1, 84186, Note_off_c, 1, 75, 96
1, 84186, Note_off_c, 1, 67, 96
1, 84186, Note_off_c, 1, 70, 96
1, 84186, Note_off_c, 1, 63, 96
1, 84186, Note_off_c, 1, 63, 96
1, 84186, Note_off_c, 1, 58, 96
1, 84306, Note_on_c, 1, 46, 96
1, 84307, Note_off_c, 1, 46, 96
1, 84367, Note_on_c, 1, 42, 96
1, 84368, Note_off_c, 1, 42, 96
1, 84429, Note_on_c, 1, 30, 96
1, 84429, Note_on_c, 1, 42, 96
1, 84430, Note_off_c, 1, 30, 96
1, 84430, Note_off_c, 1, 42, 96
1, 84551, Note_on_c, 1, 80, 96
1, 84551, Note_on_c, 1, 77, 96
1, 84552, Note_off_c, 1, 80, 96
1, 84552, Note_off_c, 1, 77, 96
1, 84614, Note_on_c, 1, 72, 96
1, 84614, Note_on_c, 1, 82, 96
1, 84614, Note_on_c, 1, 75, 96
1, 84615, Note_off_c, 1, 72, 96
1, 84615, Note_off_c, 1, 82, 96
1, 84615, Note_off_c, 1, 75, 96
1, 84675, Note_on_c, 1, 46, 96
1, 84676, Note_off_c, 1, 46, 96
1, 84800, Note_on_c, 1, 79, 96
1, 84800, Note_on_c, 1, 85, 96
1, 84800, Note_on_c, 1, 73, 96
1, 84800, Note_on_c, 1, 46, 96
1, 84800, Note_on_c, 1, 58, 96
1, 84801, Note_off_c, 1, 79, 96
1, 84801, Note_off_c, 1, 85, 96
1, 84801, Note_off_c, 1, 73, 96
1, 84801, Note_off_c, 1, 46, 96
1, 84801, Note_off_c, 1, 58, 96
1, 84991, Note_on_c, 1, 77, 96
1, 84991, Note_on_c, 1, 73, 96
1, 84991, Note_on_c, 1, 82, 96
1, 84991, Note_on_c, 1, 39, 96
1, 84991, Note_on_c, 1, 51, 96
1, 84992, Note_off_c, 1, 77, 96
1, 84992, Note_off_c, 1, 73, 96
1, 84992, Note_off_c, 1, 82, 96
1, 84992, Note_off_c, 1, 39, 96
1, 84992, Note_off_c, 1, 51, 96
1, 85117, Note_on_c, 1, 89, 96
1, 85117, Note_on_c, 1, 82, 96
1, 85117, Note_on_c, 1, 80, 96
1, 85117, Note_on_c, 1, 62, 96
1, 85117, Note_on_c, 1, 58, 96
1, 85117, Note_on_c, 1, 56, 96
1, 85118, Note_off_c, 1, 89, 96
1, 85118, Note_off_c, 1, 82, 96
1, 85118, Note_off_c, 1, 80, 96
1, 85118, Note_off_c, 1, 62, 96
1, 85118, Note_off_c, 1, 58, 96
1, 85118, Note_off_c, 1, 56, 96
1, 85357, Note_on_c, 1, 84, 96
1, 85357, Note_on_c, 1, 87, 96
1, 85358, Note_off_c, 1, 84, 96
1, 85358, Note_off_c, 1, 87, 96
1, 85504, Note_on_c, 1, 85, 96
1, 85505, Note_off_c, 1, 85, 96
1, 85549, Note_on_c, 1, 70, 96
1, 85550, Note_off_c, 1, 70, 96
1, 85584, Note_on_c, 1, 87, 96
1, 85584, Note_on_c, 1, 51, 96
1, 85584, Note_on_c, 1, 77, 96
1, 85584, Note_on_c, 1, 55, 96
1, 85584, Note_on_c, 1, 61, 96
1, 85585, Note_off_c, 1, 87, 96
1, 85585, Note_off_c, 1, 51, 96
1, 85585, Note_off_c, 1, 77, 96
1, 85585, Note_off_c, 1, 55, 96
1, 85585, Note_off_c, 1, 61, 96
1, 85617, Note_on_c, 1, 82, 96
1, 85618, Note_off_c, 1, 82, 96
1, 85648, Note_on_c, 1, 79, 96
1, 85648, Note_on_c, 1, 61, 96
1, 85648, Note_on_c, 1, 58, 96
1, 85648, Note_on_c, 1, 55, 96
1, 85649, Note_off_c, 1, 79, 96
1, 85649, Note_off_c, 1, 61, 96
1, 85649, Note_off_c, 1, 58, 96
1, 85649, Note_off_c, 1, 55, 96
1, 85682, Note_on_c, 1, 82, 96
1, 85683, Note_off_c, 1, 82, 96
1, 85715, Note_on_c, 1, 81, 96
1, 85715, Note_on_c, 1, 82, 96
1, 85715, Note_on_c, 1, 58, 96
1, 85715, Note_on_c, 1, 61, 96
1, 85715, Note_on_c, 1, 67, 96
1, 85715, Note_on_c, 1, 63, 96
1, 85716, Note_off_c, 1, 81, 96
1, 85716, Note_off_c, 1, 82, 96
1, 85716, Note_off_c, 1, 58, 96
1, 85716, Note_off_c, 1, 61, 96
1, 85716, Note_off_c, 1, 67, 96
1, 85716, Note_off_c, 1, 63, 96
1, 85777, Note_on_c, 1, 39, 96
1, 85777, Note_on_c, 1, 51, 96
1, 85781, Note_off_c, 1, 39, 96
1, 85781, Note_off_c, 1, 51, 96
1, 85781, Note_on_c, 1, 87, 96
1, 85781, Note_on_c, 1, 75, 96
1, 85781, Note_on_c, 1, 78, 96
1, 85782, Note_off_c, 1, 87, 96
1, 85782, Note_off_c, 1, 75, 96
1, 85782, Note_off_c, 1, 78, 96
1, 85845, Note_on_c, 1, 68, 96
1, 85846, Note_off_c, 1, 68, 96
1, 85905, Note_on_c, 1, 36, 96
1, 85905, Note_on_c, 1, 40, 96
1, 85906, Note_off_c, 1, 36, 96
1, 85906, Note_off_c, 1, 40, 96
1, 85968, Note_on_c, 1, 70, 96
1, 85969, Note_off_c, 1, 70, 96
1, 86029, Note_on_c, 1, 57, 96
1, 86032, Note_off_c, 1, 57, 96
1, 86032, Note_on_c, 1, 77, 96
1, 86032, Note_on_c, 1, 60, 96
1, 86034, Note_off_c, 1, 77, 96
1, 86034, Note_off_c, 1, 60, 96
1, 86034, Note_on_c, 1, 45, 96
1, 86035, Note_off_c, 1, 45, 96
1, 86098, Note_on_c, 1, 64, 96
1, 86099, Note_off_c, 1, 64, 96
1, 86157, Note_on_c, 1, 55, 96
1, 86157, Note_on_c, 1, 53, 96
1, 86158, Note_off_c, 1, 55, 96
1, 86158, Note_off_c, 1, 53, 96
1, 86163, Note_on_c, 1, 63, 96
1, 86163, Note_on_c, 1, 63, 96
1, 86163, Note_on_c, 1, 66, 96
1, 86163, Note_on_c, 1, 58, 96
1, 86164, Note_off_c, 1, 63, 96
1, 86164, Note_off_c, 1, 63, 96
1, 86164, Note_off_c, 1, 66, 96
1, 86164, Note_off_c, 1, 58, 96
1, 86226, Note_on_c, 1, 70, 96
1, 86226, Note_on_c, 1, 64, 96
1, 86226, Note_on_c, 1, 62, 96
1, 86230, Note_off_c, 1, 70, 96
1, 86230, Note_off_c, 1, 64, 96
1, 86230, Note_off_c, 1, 62, 96
1, 86230, Note_on_c, 1, 56, 96
1, 86230, Note_on_c, 1, 50, 96
1, 86230, Note_on_c, 1, 38, 96
1, 86233, Note_off_c, 1, 56, 96
1, 86233, Note_off_c, 1, 50, 96
1, 86233, Note_off_c, 1, 38, 96
1, 86233, Note_on_c, 1, 68, 96
1, 86233, Note_on_c, 1, 58, 96
1, 86234, Note_off_c, 1, 68, 96
1, 86234, Note_off_c, 1, 58, 96
1, 86291, Note_on_c, 1, 46, 96
1, 86291, Note_on_c, 1, 34, 96
1, 86292, Note_off_c, 1, 46, 96
1, 86292, Note_off_c, 1, 34, 96
1, 86352, Note_on_c, 1, 46, 96
1, 86354, Note_off_c, 1, 46, 96
1, 86354, Note_on_c, 1, 34, 96
1, 86355, Note_off_c, 1, 34, 96
1, 86414, Note_on_c, 1, 34, 96
1, 86416, Note_off_c, 1, 34, 96
1, 86416, Note_on_c, 1, 68, 96
1, 86418, Note_off_c, 1, 68, 96
1, 86418, Note_on_c, 1, 47, 96
1, 86419, Note_off_c, 1, 47, 96
1, 86480, Note_on_c, 1, 51, 96
1, 86480, Note_on_c, 1, 39, 96
1, 86481, Note_off_c, 1, 51, 96
1, 86481, Note_off_c, 1, 39, 96
1, 86541, Note_on_c, 1, 46, 96
1, 86544, Note_off_c, 1, 46, 96
1, 86544, Note_on_c, 1, 56, 96
1, 86544, Note_on_c, 1, 34, 96
1, 86545, Note_off_c, 1, 56, 96
1, 86545, Note_off_c, 1, 34, 96
1, 86604, Note_on_c, 1, 34, 96
1, 86604, Note_on_c, 1, 46, 96
1, 86605, Note_off_c, 1, 34, 96
1, 86605, Note_off_c, 1, 46, 96
1, 86664, Note_on_c, 1, 45, 96
1, 86666, Note_off_c, 1, 45, 96
1, 86666, Note_on_c, 1, 57, 96
1, 86667, Note_off_c, 1, 57, 96
1, 86753, Note_on_c, 1, 64, 96
1, 86754, Note_off_c, 1, 64, 96
1, 86785, Note_on_c, 1, 61, 96
1, 86787, Note_off_c, 1, 61, 96
1, 86787, Note_on_c, 1, 49, 96
1, 86788, Note_off_c, 1, 49, 96
1, 86907, Note_on_c, 1, 72, 96
1, 86907, Note_on_c, 1, 60, 96
1, 86910, Note_off_c, 1, 72, 96
1, 86910, Note_off_c, 1, 60, 96
1, 86910, Note_on_c, 1, 57, 96
1, 86910, Note_on_c, 1, 51, 96
1, 86913, Note_off_c, 1, 57, 96
1, 86913, Note_off_c, 1, 51, 96
1, 86913, Note_on_c, 1, 63, 96
1, 86913, Note_on_c, 1, 67, 96
1, 86914, Note_off_c, 1, 63, 96
1, 86914, Note_off_c, 1, 67, 96
1, 87091, Note_on_c, 1, 63, 96
1, 87093, Note_off_c, 1, 63, 96
1, 87093, Note_on_c, 1, 54, 96
1, 87095, Note_off_c, 1, 54, 96
1, 87095, Note_on_c, 1, 42, 96
1, 87096, Note_off_c, 1, 42, 96
1, 87214, Note_on_c, 1, 70, 96
1, 87215, Note_off_c, 1, 70, 96
1, 87272, Note_on_c, 1, 67, 96
1, 87272, Note_on_c, 1, 52, 96
1, 87273, Note_off_c, 1, 67, 96
1, 87273, Note_off_c, 1, 52, 96
1, 87276, Note_on_c, 1, 40, 96
1, 87277, Note_off_c, 1, 40, 96
1, 87510, Note_on_c, 1, 62, 96
1, 87512, Note_off_c, 1, 62, 96
1, 87512, Note_on_c, 1, 50, 96
1, 87513, Note_off_c, 1, 50, 96
1, 87641, Note_on_c, 1, 47, 96
1, 87641, Note_on_c, 1, 35, 96
1, 87642, Note_off_c, 1, 47, 96
1, 87642, Note_off_c, 1, 35, 96
1, 87756, Note_on_c, 1, 76, 96
1, 87757, Note_off_c, 1, 76, 96
1, 87761, Note_on_c, 1, 50, 96
1, 87764, Note_off_c, 1, 50, 96
1, 87764, Note_on_c, 1, 71, 96
1, 87764, Note_on_c, 1, 67, 96
1, 87765, Note_off_c, 1, 71, 96
1, 87765, Note_off_c, 1, 67, 96
1, 87881, Note_on_c, 1, 52, 96
1, 87882, Note_off_c, 1, 52, 96
1, 87885, Note_on_c, 1, 55, 96
1, 87886, Note_off_c, 1, 55, 96
1, 87888, Note_on_c, 1, 59, 96
1, 87889, Note_off_c, 1, 59, 96
1, 87947, Note_on_c, 1, 69, 96
1, 87948, Note_off_c, 1, 69, 96
1, 88005, Note_on_c, 1, 61, 96
1, 88008, Note_off_c, 1, 61, 96
1, 88008, Note_on_c, 1, 76, 96
1, 88008, Note_on_c, 1, 45, 96
1, 88009, Note_off_c, 1, 76, 96
1, 88009, Note_off_c, 1, 45, 96
1, 88073, Note_on_c, 1, 76, 96
1, 88074, Note_off_c, 1, 76, 96
1, 88133, Note_on_c, 1, 77, 96
1, 88133, Note_on_c, 1, 50, 96
1, 88135, Note_off_c, 1, 77, 96
1, 88135, Note_off_c, 1, 50, 96
1, 88135, Note_on_c, 1, 38, 96
1, 88136, Note_off_c, 1, 38, 96
1, 88138, Note_on_c, 1, 72, 96
1, 88139, Note_off_c, 1, 72, 96
1, 88197, Note_on_c, 1, 77, 96
1, 88199, Note_off_c, 1, 77, 96
1, 88199, Note_on_c, 1, 74, 96
1, 88200, Note_off_c, 1, 74, 96
1, 88259, Note_on_c, 1, 62, 96
1, 88260, Note_off_c, 1, 62, 96
1, 88262, Note_on_c, 1, 57, 96
1, 88263, Note_off_c, 1, 57, 96
1, 88322, Note_on_c, 1, 72, 96
1, 88323, Note_off_c, 1, 72, 96
1, 88380, Note_on_c, 1, 74, 96
1, 88381, Note_off_c, 1, 74, 96
1, 88389, Note_on_c, 1, 62, 96
1, 88389, Note_on_c, 1, 57, 96
1, 88389, Note_on_c, 1, 53, 96
1, 88390, Note_off_c, 1, 62, 96
1, 88390, Note_off_c, 1, 57, 96
1, 88390, Note_off_c, 1, 53, 96
1, 88446, Note_on_c, 1, 69, 96
1, 88447, Note_off_c, 1, 69, 96
1, 88503, Note_on_c, 1, 65, 96
1, 88504, Note_off_c, 1, 65, 96
1, 88506, Note_on_c, 1, 76, 96
1, 88510, Note_off_c, 1, 76, 96
1, 88510, Note_on_c, 1, 68, 96
1, 88510, Note_on_c, 1, 71, 96
1, 88510, Note_on_c, 1, 44, 96
1, 88511, Note_off_c, 1, 68, 96
1, 88511, Note_off_c, 1, 71, 96
1, 88511, Note_off_c, 1, 44, 96
1, 88630, Note_on_c, 1, 52, 96
1, 88630, Note_on_c, 1, 56, 96
1, 88631, Note_off_c, 1, 52, 96
1, 88631, Note_off_c, 1, 56, 96
1, 88755, Note_on_c, 1, 74, 96
1, 88755, Note_on_c, 1, 47, 96
1, 88756, Note_off_c, 1, 74, 96
1, 88756, Note_off_c, 1, 47, 96
1, 88814, Note_on_c, 1, 77, 96
1, 88815, Note_off_c, 1, 77, 96
1, 88875, Note_on_c, 1, 76, 96
1, 88875, Note_on_c, 1, 48, 96
1, 88877, Note_off_c, 1, 76, 96
1, 88877, Note_off_c, 1, 48, 96
1, 88877, Note_on_c, 1, 88, 96
1, 88878, Note_off_c, 1, 88, 96
1, 89120, Note_on_c, 1, 84, 96
1, 89120, Note_on_c, 1, 42, 96
1, 89121, Note_off_c, 1, 84, 96
1, 89121, Note_off_c, 1, 42, 96
1, 89124, Note_on_c, 1, 81, 96
1, 89124, Note_on_c, 1, 54, 96
1, 89125, Note_off_c, 1, 81, 96
1, 89125, Note_off_c, 1, 54, 96
1, 89127, Note_on_c, 1, 72, 96
1, 89128, Note_off_c, 1, 72, 96
1, 89363, Note_on_c, 1, 83, 96
1, 89364, Note_off_c, 1, 83, 96
1, 89367, Note_on_c, 1, 43, 96
1, 89370, Note_off_c, 1, 43, 96
1, 89370, Note_on_c, 1, 71, 96
1, 89370, Note_on_c, 1, 31, 96
1, 89372, Note_off_c, 1, 71, 96
1, 89372, Note_off_c, 1, 31, 96
1, 89372, Note_on_c, 1, 77, 96
1, 89373, Note_off_c, 1, 77, 96
1, 89489, Note_on_c, 1, 77, 96
1, 89491, Note_off_c, 1, 77, 96
1, 89491, Note_on_c, 1, 79, 96
1, 89492, Note_off_c, 1, 79, 96
1, 89496, Note_on_c, 1, 89, 96
1, 89497, Note_off_c, 1, 89, 96
1, 89613, Note_on_c, 1, 58, 96
1, 89614, Note_off_c, 1, 58, 96
1, 89616, Note_on_c, 1, 86, 96
1, 89617, Note_off_c, 1, 86, 96
1, 89620, Note_on_c, 1, 82, 96
1, 89622, Note_off_c, 1, 82, 96
1, 89622, Note_on_c, 1, 77, 96
1, 89624, Note_off_c, 1, 77, 96
1, 89624, Note_on_c, 1, 62, 96
1, 89625, Note_off_c, 1, 62, 96
1, 89739, Note_on_c, 1, 58, 96
1, 89741, Note_off_c, 1, 58, 96
1, 89741, Note_on_c, 1, 55, 96
1, 89743, Note_off_c, 1, 55, 96
1, 89743, Note_on_c, 1, 62, 96
1, 89744, Note_off_c, 1, 62, 96
1, 89747, Note_on_c, 1, 74, 96
1, 89747, Note_on_c, 1, 82, 96
1, 89748, Note_off_c, 1, 74, 96
1, 89748, Note_off_c, 1, 82, 96
1, 89750, Note_on_c, 1, 86, 96
1, 89751, Note_off_c, 1, 86, 96
1, 89865, Note_on_c, 1, 84, 96
1, 89866, Note_off_c, 1, 84, 96
1, 89868, Note_on_c, 1, 53, 96
1, 89869, Note_off_c, 1, 53, 96
1, 89872, Note_on_c, 1, 62, 96
1, 89875, Note_off_c, 1, 62, 96
1, 89875, Note_on_c, 1, 86, 96
1, 89875, Note_on_c, 1, 81, 96
1, 89876, Note_off_c, 1, 86, 96
1, 89876, Note_off_c, 1, 81, 96
1, 89992, Note_on_c, 1, 84, 96
1, 89992, Note_on_c, 1, 72, 96
1, 89993, Note_off_c, 1, 84, 96
1, 89993, Note_off_c, 1, 72, 96
1, 90111, Note_on_c, 1, 53, 96
1, 90112, Note_off_c, 1, 53, 96
1, 90116, Note_on_c, 1, 75, 96
1, 90116, Note_on_c, 1, 63, 96
1, 90117, Note_off_c, 1, 75, 96
1, 90117, Note_off_c, 1, 63, 96
1, 90122, Note_on_c, 1, 57, 96
1, 90123, Note_off_c, 1, 57, 96
1, 90180, Note_on_c, 1, 72, 96
1, 90181, Note_off_c, 1, 72, 96
1, 90240, Note_on_c, 1, 74, 96
1, 90241, Note_off_c, 1, 74, 96
1, 90245, Note_on_c, 1, 41, 96
1, 90246, Note_off_c, 1, 41, 96
1, 90305, Note_on_c, 1, 81, 96
1, 90306, Note_off_c, 1, 81, 96
1, 90361, Note_on_c, 1, 52, 96
1, 90362, Note_off_c, 1, 52, 96
1, 90364, Note_on_c, 1, 76, 96
1, 90365, Note_off_c, 1, 76, 96
1, 90430, Note_on_c, 1, 80, 96
1, 90431, Note_off_c, 1, 80, 96
1, 90487, Note_on_c, 1, 57, 96
1, 90489, Note_off_c, 1, 57, 96
1, 90489, Note_on_c, 1, 45, 96
1, 90490, Note_off_c, 1, 45, 96
1, 90493, Note_on_c, 1, 72, 96
1, 90494, Note_off_c, 1, 72, 96
1, 90550, Note_on_c, 1, 81, 96
1, 90551, Note_off_c, 1, 81, 96
1, 90609, Note_on_c, 1, 60, 96
1, 90610, Note_off_c, 1, 60, 96
1, 90613, Note_on_c, 1, 72, 96
1, 90615, Note_off_c, 1, 72, 96
1, 90615, Note_on_c, 1, 52, 96
1, 90617, Note_off_c, 1, 52, 96
1, 90617, Note_on_c, 1, 57, 96
1, 90618, Note_off_c, 1, 57, 96
1, 90677, Note_on_c, 1, 80, 96
1, 90678, Note_off_c, 1, 80, 96
1, 90738, Note_on_c, 1, 81, 96
1, 90740, Note_off_c, 1, 81, 96
1, 90740, Note_on_c, 1, 72, 96
1, 90742, Note_off_c, 1, 72, 96
1, 90742, Note_on_c, 1, 53, 96
1, 90743, Note_off_c, 1, 53, 96
1, 90803, Note_on_c, 1, 77, 96
1, 90804, Note_off_c, 1, 77, 96
1, 90862, Note_on_c, 1, 65, 96
1, 90862, Note_on_c, 1, 60, 96
1, 90864, Note_off_c, 1, 65, 96
1, 90864, Note_off_c, 1, 60, 96
1, 90864, Note_on_c, 1, 57, 96
1, 90866, Note_off_c, 1, 57, 96
1, 90866, Note_on_c, 1, 72, 96
1, 90867, Note_off_c, 1, 72, 96
1, 90923, Note_on_c, 1, 83, 96
1, 90924, Note_off_c, 1, 83, 96
1, 90982, Note_on_c, 1, 60, 96
1, 90984, Note_off_c, 1, 60, 96
1, 90984, Note_on_c, 1, 84, 96
1, 90985, Note_off_c, 1, 84, 96
1, 90993, Note_on_c, 1, 57, 96
1, 90993, Note_on_c, 1, 65, 96
1, 90994, Note_off_c, 1, 57, 96
1, 90994, Note_off_c, 1, 65, 96
1, 91049, Note_on_c, 1, 81, 96
1, 91050, Note_off_c, 1, 81, 96
1, 91113, Note_on_c, 1, 45, 96
1, 91113, Note_on_c, 1, 57, 96
1, 91114, Note_off_c, 1, 45, 96
1, 91114, Note_off_c, 1, 57, 96
1, 91172, Note_on_c, 1, 79, 96
1, 91174, Note_off_c, 1, 79, 96
1, 91174, Note_on_c, 1, 71, 96
1, 91175, Note_off_c, 1, 71, 96
1, 91234, Note_on_c, 1, 59, 96
1, 91236, Note_off_c, 1, 59, 96
1, 91236, Note_on_c, 1, 43, 96
1, 91237, Note_off_c, 1, 43, 96
1, 91298, Note_on_c, 1, 77, 96
1, 91299, Note_off_c, 1, 77, 96
1, 91355, Note_on_c, 1, 53, 96
1, 91357, Note_off_c, 1, 53, 96
1, 91357, Note_on_c, 1, 59, 96
1, 91360, Note_off_c, 1, 59, 96
1, 91360, Note_on_c, 1, 71, 96
1, 91360, Note_on_c, 1, 55, 96
1, 91361, Note_off_c, 1, 71, 96
1, 91361, Note_off_c, 1, 55, 96
1, 91419, Note_on_c, 1, 79, 96
1, 91420, Note_off_c, 1, 79, 96
1, 91480, Note_on_c, 1, 59, 96
1, 91481, Note_off_c, 1, 59, 96
1, 91483, Note_on_c, 1, 77, 96
1, 91484, Note_off_c, 1, 77, 96
1, 91486, Note_on_c, 1, 55, 96
1, 91488, Note_off_c, 1, 55, 96
1, 91488, Note_on_c, 1, 65, 96
1, 91489, Note_off_c, 1, 65, 96
1, 91546, Note_on_c, 1, 76, 96
1, 91547, Note_off_c, 1, 76, 96
1, 91610, Note_on_c, 1, 50, 96
1, 91611, Note_off_c, 1, 50, 96
1, 91666, Note_on_c, 1, 78, 96
1, 91667, Note_off_c, 1, 78, 96
1, 91728, Note_on_c, 1, 75, 96
1, 91730, Note_off_c, 1, 75, 96
1, 91730, Note_on_c, 1, 55, 96
1, 91731, Note_off_c, 1, 55, 96
1, 91733, Note_on_c, 1, 60, 96
1, 91735, Note_off_c, 1, 60, 96
1, 91735, Note_on_c, 1, 64, 96
1, 91736, Note_off_c, 1, 64, 96
1, 91795, Note_on_c, 1, 76, 96
1, 91796, Note_off_c, 1, 76, 96
1, 91856, Note_on_c, 1, 81, 96
1, 91856, Note_on_c, 1, 64, 96
1, 91856, Note_on_c, 1, 60, 96
1, 91857, Note_off_c, 1, 81, 96
1, 91857, Note_off_c, 1, 64, 96
1, 91857, Note_off_c, 1, 60, 96
1, 91860, Note_on_c, 1, 55, 96
1, 91861, Note_off_c, 1, 55, 96
1, 91914, Note_on_c, 1, 76, 96
1, 91915, Note_off_c, 1, 76, 96
1, 91975, Note_on_c, 1, 74, 96
1, 91976, Note_off_c, 1, 74, 96
1, 91978, Note_on_c, 1, 60, 96
1, 91980, Note_off_c, 1, 60, 96
1, 91980, Note_on_c, 1, 54, 96
1, 91981, Note_off_c, 1, 54, 96
1, 91986, Note_on_c, 1, 66, 96
1, 91986, Note_on_c, 1, 50, 96
1, 91987, Note_off_c, 1, 66, 96
1, 91987, Note_off_c, 1, 50, 96
1, 92045, Note_on_c, 1, 72, 96
1, 92047, Note_off_c, 1, 72, 96
1, 92047, Note_on_c, 1, 76, 96
1, 92049, Note_off_c, 1, 76, 96
1, 92049, Note_on_c, 1, 79, 96
1, 92050, Note_off_c, 1, 79, 96
1, 92105, Note_on_c, 1, 62, 96
1, 92108, Note_off_c, 1, 62, 96
1, 92108, Note_on_c, 1, 66, 96
1, 92108, Note_on_c, 1, 60, 96
1, 92109, Note_off_c, 1, 66, 96
1, 92109, Note_off_c, 1, 60, 96
1, 92112, Note_on_c, 1, 57, 96
1, 92113, Note_off_c, 1, 57, 96
1, 92227, Note_on_c, 1, 31, 96
1, 92228, Note_off_c, 1, 31, 96
1, 92234, Note_on_c, 1, 43, 96
1, 92236, Note_off_c, 1, 43, 96
1, 92236, Note_on_c, 1, 74, 96
1, 92237, Note_off_c, 1, 74, 96
1, 92353, Note_on_c, 1, 45, 96
1, 92354, Note_off_c, 1, 45, 96
1, 92356, Note_on_c, 1, 57, 96
1, 92357, Note_off_c, 1, 57, 96
1, 92476, Note_on_c, 1, 38, 96
1, 92477, Note_off_c, 1, 38, 96
1, 92594, Note_on_c, 1, 47, 96
1, 92595, Note_off_c, 1, 47, 96
1, 92598, Note_on_c, 1, 65, 96
1, 92598, Note_on_c, 1, 59, 96
1, 92599, Note_off_c, 1, 65, 96
1, 92599, Note_off_c, 1, 59, 96
1, 92601, Note_on_c, 1, 71, 96
1, 92602, Note_off_c, 1, 71, 96
1, 92836, Note_on_c, 1, 43, 96
1, 92838, Note_off_c, 1, 43, 96
1, 92838, Note_on_c, 1, 55, 96
1, 92839, Note_off_c, 1, 55, 96
1, 93079, Note_on_c, 1, 55, 96
1, 93081, Note_off_c, 1, 55, 96
1, 93081, Note_on_c, 1, 67, 96
1, 93082, Note_off_c, 1, 67, 96
1, 93315, Note_on_c, 1, 55, 96
1, 93316, Note_off_c, 1, 55, 96
1, 93556, Note_on_c, 1, 58, 96
1, 93557, Note_off_c, 1, 58, 96
1, 93559, Note_on_c, 1, 46, 96
1, 93561, Note_off_c, 1, 46, 96
1, 93561, Note_on_c, 1, 70, 96
1, 93562, Note_off_c, 1, 70, 96
1, 93565, Note_on_c, 1, 62, 96
1, 93566, Note_off_c, 1, 62, 96
1, 93621, Note_on_c, 1, 74, 96
1, 93622, Note_off_c, 1, 74, 96
1, 93682, Note_on_c, 1, 57, 96
1, 93684, Note_off_c, 1, 57, 96
1, 93684, Note_on_c, 1, 72, 96
1, 93686, Note_off_c, 1, 72, 96
1, 93686, Note_on_c, 1, 63, 96
1, 93687, Note_off_c, 1, 63, 96
1, 93690, Note_on_c, 1, 53, 96
1, 93691, Note_off_c, 1, 53, 96
1, 93748, Note_on_c, 1, 72, 96
1, 93749, Note_off_c, 1, 72, 96
1, 93808, Note_on_c, 1, 46, 96
1, 93810, Note_off_c, 1, 46, 96
1, 93810, Note_on_c, 1, 65, 96
1, 93811, Note_off_c, 1, 65, 96
1, 93927, Note_on_c, 1, 67, 96
1, 93928, Note_off_c, 1, 67, 96
1, 93932, Note_on_c, 1, 63, 96
1, 93934, Note_off_c, 1, 63, 96
1, 93934, Note_on_c, 1, 51, 96
1, 93935, Note_off_c, 1, 51, 96
1, 94052, Note_on_c, 1, 62, 96
1, 94053, Note_off_c, 1, 62, 96
1, 94058, Note_on_c, 1, 58, 96
1, 94058, Note_on_c, 1, 53, 96
1, 94059, Note_off_c, 1, 58, 96
1, 94059, Note_off_c, 1, 53, 96
1, 94175, Note_on_c, 1, 62, 96
1, 94178, Note_off_c, 1, 62, 96
1, 94178, Note_on_c, 1, 58, 96
1, 94178, Note_on_c, 1, 53, 96
1, 94179, Note_off_c, 1, 58, 96
1, 94179, Note_off_c, 1, 53, 96
1, 94296, Note_on_c, 1, 58, 96
1, 94297, Note_off_c, 1, 58, 96
1, 94299, Note_on_c, 1, 46, 96
1, 94300, Note_off_c, 1, 46, 96
1, 94302, Note_on_c, 1, 62, 96
1, 94303, Note_off_c, 1, 62, 96
1, 94422, Note_on_c, 1, 55, 96
1, 94424, Note_off_c, 1, 55, 96
1, 94424, Note_on_c, 1, 43, 96
1, 94426, Note_off_c, 1, 43, 96
1, 94426, Note_on_c, 1, 58, 96
1, 94427, Note_off_c, 1, 58, 96
1, 94548, Note_on_c, 1, 50, 96
1, 94549, Note_off_c, 1, 50, 96
1, 94787, Note_on_c, 1, 65, 96
1, 94788, Note_off_c, 1, 65, 96
1, 94909, Note_on_c, 1, 53, 96
1, 94911, Note_off_c, 1, 53, 96
1, 94911, Note_on_c, 1, 62, 96
1, 94913, Note_off_c, 1, 62, 96
1, 94913, Note_on_c, 1, 55, 96
1, 94915, Note_off_c, 1, 55, 96
1, 94915, Note_on_c, 1, 58, 96
1, 94916, Note_off_c, 1, 58, 96
1, 95029, Note_on_c, 1, 65, 96
1, 95030, Note_off_c, 1, 65, 96
1, 95036, Note_on_c, 1, 41, 96
1, 95037, Note_off_c, 1, 41, 96
1, 95154, Note_on_c, 1, 53, 96
1, 95155, Note_off_c, 1, 53, 96
1, 95271, Note_on_c, 1, 62, 96
1, 95272, Note_off_c, 1, 62, 96
1, 95278, Note_on_c, 1, 65, 96
1, 95278, Note_on_c, 1, 50, 96
1, 95279, Note_off_c, 1, 65, 96
1, 95279, Note_off_c, 1, 50, 96
1, 95396, Note_on_c, 1, 50, 96
1, 95397, Note_off_c, 1, 50, 96
1, 95400, Note_on_c, 1, 38, 96
1, 95401, Note_off_c, 1, 38, 96
1, 95520, Note_on_c, 1, 44, 96
1, 95521, Note_off_c, 1, 44, 96
1, 95638, Note_on_c, 1, 42, 96
1, 95639, Note_off_c, 1, 42, 96
1, 95642, Note_on_c, 1, 54, 96
1, 95643, Note_off_c, 1, 54, 96
1, 95764, Note_on_c, 1, 62, 96
1, 95767, Note_off_c, 1, 62, 96
1, 95767, Note_on_c, 1, 57, 96
1, 95767, Note_on_c, 1, 65, 96
1, 95768, Note_off_c, 1, 57, 96
1, 95768, Note_off_c, 1, 65, 96
1, 95883, Note_on_c, 1, 59, 96
1, 95884, Note_off_c, 1, 59, 96
1, 95891, Note_on_c, 1, 57, 96
1, 95892, Note_off_c, 1, 57, 96
1, 96007, Note_on_c, 1, 53, 96
1, 96008, Note_off_c, 1, 53, 96
1, 96011, Note_on_c, 1, 62, 96
1, 96013, Note_off_c, 1, 62, 96
1, 96013, Note_on_c, 1, 58, 96
1, 96015, Note_off_c, 1, 58, 96
1, 96015, Note_on_c, 1, 67, 96
1, 96016, Note_off_c, 1, 67, 96
1, 96072, Note_on_c, 1, 62, 96
1, 96073, Note_off_c, 1, 62, 96
1, 96138, Note_on_c, 1, 41, 96
1, 96139, Note_off_c, 1, 41, 96
1, 96254, Note_on_c, 1, 57, 96
1, 96254, Note_on_c, 1, 60, 96
1, 96255, Note_off_c, 1, 57, 96
1, 96255, Note_off_c, 1, 60, 96
1, 96259, Note_on_c, 1, 48, 96
1, 96260, Note_off_c, 1, 48, 96
1, 96262, Note_on_c, 1, 36, 96
1, 96263, Note_off_c, 1, 36, 96
1, 96377, Note_on_c, 1, 43, 96
1, 96378, Note_off_c, 1, 43, 96
1, 96383, Note_on_c, 1, 43, 96
1, 96384, Note_off_c, 1, 43, 96
1, 96502, Note_on_c, 1, 65, 96
1, 96503, Note_off_c, 1, 65, 96
1, 96623, Note_on_c, 1, 60, 96
1, 96625, Note_off_c, 1, 60, 96
1, 96625, Note_on_c, 1, 48, 96
1, 96626, Note_off_c, 1, 48, 96
1, 96744, Note_on_c, 1, 52, 96
1, 96745, Note_off_c, 1, 52, 96
1, 96865, Note_on_c, 1, 64, 96
1, 96867, Note_off_c, 1, 64, 96
1, 96867, Note_on_c, 1, 48, 96
1, 96868, Note_off_c, 1, 48, 96
1, 96870, Note_on_c, 1, 52, 96
1, 96871, Note_off_c, 1, 52, 96
1, 96873, Note_on_c, 1, 57, 96
1, 96874, Note_off_c, 1, 57, 96
1, 96992, Note_on_c, 1, 60, 96
1, 96993, Note_off_c, 1, 60, 96
1, 97110, Note_on_c, 1, 72, 96
1, 97111, Note_off_c, 1, 72, 96
1, 97115, Note_on_c, 1, 67, 96
1, 97115, Note_on_c, 1, 48, 96
1, 97116, Note_off_c, 1, 67, 96
1, 97116, Note_off_c, 1, 48, 96
1, 97231, Note_on_c, 1, 69, 96
1, 97232, Note_off_c, 1, 69, 96
1, 97359, Note_on_c, 1, 69, 96
1, 97359, Note_on_c, 1, 64, 96
1, 97359, Note_on_c, 1, 45, 96
1, 97360, Note_off_c, 1, 69, 96
1, 97360, Note_off_c, 1, 64, 96
1, 97360, Note_off_c, 1, 45, 96
1, 97481, Note_on_c, 1, 68, 96
1, 97482, Note_off_c, 1, 68, 96
1, 97720, Note_on_c, 1, 45, 96
1, 97721, Note_off_c, 1, 45, 96
1, 97724, Note_on_c, 1, 60, 96
1, 97724, Note_on_c, 1, 57, 96
1, 97725, Note_off_c, 1, 60, 96
1, 97725, Note_off_c, 1, 57, 96
1, 97730, Note_on_c, 1, 69, 96
1, 97730, Note_on_c, 1, 57, 96
1, 97731, Note_off_c, 1, 69, 96
1, 97731, Note_off_c, 1, 57, 96
1, 97848, Note_on_c, 1, 69, 96
1, 97849, Note_off_c, 1, 69, 96
1, 97966, Note_on_c, 1, 57, 96
1, 97967, Note_off_c, 1, 57, 96
1, 97973, Note_on_c, 1, 65, 96
1, 97974, Note_off_c, 1, 65, 96
1, 97976, Note_on_c, 1, 60, 96
1, 97977, Note_off_c, 1, 60, 96
1, 98031, Note_on_c, 1, 68, 96
1, 98032, Note_off_c, 1, 68, 96
1, 98036, Note_on_c, 1, 65, 96
1, 98037, Note_off_c, 1, 65, 96
1, 98095, Note_on_c, 1, 56, 96
1, 98096, Note_off_c, 1, 56, 96
1, 98153, Note_on_c, 1, 67, 96
1, 98154, Note_off_c, 1, 67, 96
1, 98218, Note_on_c, 1, 64, 96
1, 98218, Note_on_c, 1, 48, 96
1, 98218, Note_on_c, 1, 50, 96
1, 98219, Note_off_c, 1, 64, 96
1, 98219, Note_off_c, 1, 48, 96
1, 98219, Note_off_c, 1, 50, 96
1, 98277, Note_on_c, 1, 69, 96
1, 98278, Note_off_c, 1, 69, 96
1, 98336, Note_on_c, 1, 70, 96
1, 98337, Note_off_c, 1, 70, 96
1, 98339, Note_on_c, 1, 55, 96
1, 98340, Note_off_c, 1, 55, 96
1, 98343, Note_on_c, 1, 48, 96
1, 98344, Note_off_c, 1, 48, 96
1, 98401, Note_on_c, 1, 64, 96
1, 98402, Note_off_c, 1, 64, 96
1, 98405, Note_on_c, 1, 71, 96
1, 98406, Note_off_c, 1, 71, 96
1, 98462, Note_on_c, 1, 67, 96
1, 98463, Note_off_c, 1, 67, 96
1, 98466, Note_on_c, 1, 50, 96
1, 98467, Note_off_c, 1, 50, 96
1, 98586, Note_on_c, 1, 57, 96
1, 98588, Note_off_c, 1, 57, 96
1, 98588, Note_on_c, 1, 45, 96
1, 98589, Note_off_c, 1, 45, 96
1, 98708, Note_on_c, 1, 67, 96
1, 98708, Note_on_c, 1, 51, 96
1, 98708, Note_on_c, 1, 39, 96
1, 98709, Note_off_c, 1, 67, 96
1, 98709, Note_off_c, 1, 51, 96
1, 98709, Note_off_c, 1, 39, 96
1, 98828, Note_on_c, 1, 36, 96
1, 98829, Note_off_c, 1, 36, 96
1, 98868, Note_on_c, 1, 55, 96
1, 98869, Note_off_c, 1, 55, 96
1, 98873, Note_on_c, 1, 67, 96
1, 98874, Note_off_c, 1, 67, 96
1, 98911, Note_on_c, 1, 70, 96
1, 98912, Note_off_c, 1, 70, 96
1, 98950, Note_on_c, 1, 70, 96
1, 98950, Note_on_c, 1, 46, 96
1, 98951, Note_off_c, 1, 70, 96
1, 98951, Note_off_c, 1, 46, 96
1, 99050, Note_on_c, 1, 48, 96
1, 99050, Note_on_c, 1, 36, 96
1, 99051, Note_off_c, 1, 48, 96
1, 99051, Note_off_c, 1, 36, 96
1, 99207, Note_on_c, 1, 64, 96
1, 99207, Note_on_c, 1, 55, 96
1, 99208, Note_off_c, 1, 64, 96
1, 99208, Note_off_c, 1, 55, 96
1, 99328, Note_on_c, 1, 65, 96
1, 99328, Note_on_c, 1, 57, 96
1, 99329, Note_off_c, 1, 65, 96
1, 99329, Note_off_c, 1, 57, 96
1, 99334, Note_on_c, 1, 62, 96
1, 99335, Note_off_c, 1, 62, 96
1, 99423, Note_on_c, 1, 51, 96
1, 99424, Note_off_c, 1, 51, 96
1, 99447, Note_on_c, 1, 52, 96
1, 99448, Note_off_c, 1, 52, 96
1, 99450, Note_on_c, 1, 59, 96
1, 99451, Note_off_c, 1, 59, 96
1, 99464, Note_on_c, 1, 62, 96
1, 99465, Note_off_c, 1, 62, 96
1, 99478, Note_on_c, 1, 59, 96
1, 99479, Note_off_c, 1, 59, 96
1, 99498, Note_on_c, 1, 55, 96
1, 99499, Note_off_c, 1, 55, 96
1, 99580, Note_on_c, 1, 48, 96
1, 99582, Note_off_c, 1, 48, 96
1, 99582, Note_on_c, 1, 64, 96
1, 99584, Note_off_c, 1, 64, 96
1, 99584, Note_on_c, 1, 55, 96
1, 99586, Note_off_c, 1, 55, 96
1, 99586, Note_on_c, 1, 57, 96
1, 99587, Note_off_c, 1, 57, 96
1, 99624, Note_on_c, 1, 61, 96
1, 99625, Note_off_c, 1, 61, 96
1, 99660, Note_on_c, 1, 49, 96
1, 99661, Note_off_c, 1, 49, 96
1, 99664, Note_on_c, 1, 57, 96
1, 99665, Note_off_c, 1, 57, 96
1, 99773, Note_on_c, 1, 60, 96
1, 99774, Note_off_c, 1, 60, 96
1, 99779, Note_on_c, 1, 54, 96
1, 99781, Note_off_c, 1, 54, 96
1, 99781, Note_on_c, 1, 50, 96
1, 99782, Note_off_c, 1, 50, 96
1, 99841, Note_on_c, 1, 64, 96
1, 99842, Note_off_c, 1, 64, 96
1, 99899, Note_on_c, 1, 64, 96
1, 99901, Note_off_c, 1, 64, 96
1, 99901, Note_on_c, 1, 60, 96
1, 99902, Note_off_c, 1, 60, 96
1, 99905, Note_on_c, 1, 67, 96
1, 99906, Note_off_c, 1, 67, 96
1, 99963, Note_on_c, 1, 64, 96
1, 99964, Note_off_c, 1, 64, 96
1, 100022, Note_on_c, 1, 60, 96
1, 100023, Note_off_c, 1, 60, 96
1, 100029, Note_on_c, 1, 69, 96
1, 100029, Note_on_c, 1, 57, 96
1, 100030, Note_off_c, 1, 69, 96
1, 100030, Note_off_c, 1, 57, 96
1, 100149, Note_on_c, 1, 72, 96
1, 100151, Note_off_c, 1, 72, 96
1, 100151, Note_on_c, 1, 56, 96
1, 100152, Note_off_c, 1, 56, 96
1, 100154, Note_on_c, 1, 62, 96
1, 100156, Note_off_c, 1, 62, 96
1, 100156, Note_on_c, 1, 52, 96
1, 100157, Note_off_c, 1, 52, 96
1, 100213, Note_on_c, 1, 69, 96
1, 100214, Note_off_c, 1, 69, 96
1, 100217, Note_on_c, 1, 64, 96
1, 100218, Note_off_c, 1, 64, 96
1, 100274, Note_on_c, 1, 57, 96
1, 100275, Note_off_c, 1, 57, 96
1, 100279, Note_on_c, 1, 45, 96
1, 100280, Note_off_c, 1, 45, 96
1, 100337, Note_on_c, 1, 68, 96
1, 100338, Note_off_c, 1, 68, 96
1, 100340, Note_on_c, 1, 71, 96
1, 100341, Note_off_c, 1, 71, 96
1, 100400, Note_on_c, 1, 38, 96
1, 100401, Note_off_c, 1, 38, 96
1, 100455, Note_on_c, 1, 40, 96
1, 100456, Note_off_c, 1, 40, 96
1, 100461, Note_on_c, 1, 52, 96
1, 100463, Note_off_c, 1, 52, 96
1, 100463, Note_on_c, 1, 40, 96
1, 100464, Note_off_c, 1, 40, 96
1, 100467, Note_on_c, 1, 40, 96
1, 100467, Note_on_c, 1, 56, 96
1, 100468, Note_off_c, 1, 40, 96
1, 100468, Note_off_c, 1, 56, 96
1, 100470, Note_on_c, 1, 62, 96
1, 100471, Note_off_c, 1, 62, 96
1, 100526, Note_on_c, 1, 69, 96
1, 100528, Note_off_c, 1, 69, 96
1, 100528, Note_on_c, 1, 62, 96
1, 100531, Note_off_c, 1, 62, 96
1, 100531, Note_on_c, 1, 52, 96
1, 100531, Note_on_c, 1, 40, 96
1, 100532, Note_off_c, 1, 52, 96
1, 100532, Note_off_c, 1, 40, 96
1, 100691, Note_on_c, 1, 67, 96
1, 100693, Note_off_c, 1, 67, 96
1, 100693, Note_on_c, 1, 64, 96
1, 100694, Note_off_c, 1, 64, 96
1, 100772, Note_on_c, 1, 38, 96
1, 100772, Note_on_c, 1, 66, 96
1, 100773, Note_off_c, 1, 38, 96
1, 100773, Note_off_c, 1, 66, 96
1, 100782, Note_on_c, 1, 66, 96
1, 100783, Note_off_c, 1, 66, 96
1, 100837, Note_on_c, 1, 72, 96
1, 100839, Note_off_c, 1, 72, 96
1, 100839, Note_on_c, 1, 66, 96
1, 100840, Note_off_c, 1, 66, 96
1, 100900, Note_on_c, 1, 50, 96
1, 100903, Note_off_c, 1, 50, 96
1, 100903, Note_on_c, 1, 60, 96
1, 100903, Note_on_c, 1, 54, 96
1, 100904, Note_off_c, 1, 60, 96
1, 100904, Note_off_c, 1, 54, 96
1, 100968, Note_on_c, 1, 64, 96
1, 100969, Note_off_c, 1, 64, 96
1, 101027, Note_on_c, 1, 62, 96
1, 101028, Note_off_c, 1, 62, 96
1, 101033, Note_on_c, 1, 54, 96
1, 101033, Note_on_c, 1, 50, 96
1, 101033, Note_on_c, 1, 60, 96
1, 101034, Note_off_c, 1, 54, 96
1, 101034, Note_off_c, 1, 50, 96
1, 101034, Note_off_c, 1, 60, 96
1, 101112, Note_on_c, 1, 64, 96
1, 101115, Note_off_c, 1, 64, 96
1, 101115, Note_on_c, 1, 55, 96
1, 101115, Note_on_c, 1, 43, 96
1, 101116, Note_off_c, 1, 55, 96
1, 101116, Note_off_c, 1, 43, 96
1, 101235, Note_on_c, 1, 38, 96
1, 101236, Note_off_c, 1, 38, 96
1, 101241, Note_on_c, 1, 50, 96
1, 101242, Note_off_c, 1, 50, 96
1, 101297, Note_on_c, 1, 66, 96
1, 101298, Note_off_c, 1, 66, 96
1, 101300, Note_on_c, 1, 60, 96
1, 101301, Note_off_c, 1, 60, 96
1, 101357, Note_on_c, 1, 55, 96
1, 101358, Note_off_c, 1, 55, 96
1, 101361, Note_on_c, 1, 64, 96
1, 101361, Note_on_c, 1, 52, 96
1, 101362, Note_off_c, 1, 64, 96
1, 101362, Note_off_c, 1, 52, 96
1, 101425, Note_on_c, 1, 62, 96
1, 101426, Note_off_c, 1, 62, 96
1, 101482, Note_on_c, 1, 60, 96
1, 101485, Note_off_c, 1, 60, 96
1, 101485, Note_on_c, 1, 64, 96
1, 101485, Note_on_c, 1, 43, 96
1, 101486, Note_off_c, 1, 64, 96
1, 101486, Note_off_c, 1, 43, 96
1, 101491, Note_on_c, 1, 50, 96
1, 101492, Note_off_c, 1, 50, 96
1, 101551, Note_on_c, 1, 66, 96
1, 101552, Note_off_c, 1, 66, 96
1, 101609, Note_on_c, 1, 64, 96
1, 101609, Note_on_c, 1, 44, 96
1, 101610, Note_off_c, 1, 64, 96
1, 101610, Note_off_c, 1, 44, 96
1, 101672, Note_on_c, 1, 66, 96
1, 101673, Note_off_c, 1, 66, 96
1, 101731, Note_on_c, 1, 64, 96
1, 101731, Note_on_c, 1, 48, 96
1, 101732, Note_off_c, 1, 64, 96
1, 101732, Note_off_c, 1, 48, 96
1, 101737, Note_on_c, 1, 69, 96
1, 101738, Note_off_c, 1, 69, 96
1, 101796, Note_on_c, 1, 71, 96
1, 101797, Note_off_c, 1, 71, 96
1, 101859, Note_on_c, 1, 71, 96
1, 101859, Note_on_c, 1, 55, 96
1, 101859, Note_on_c, 1, 50, 96
1, 101859, Note_on_c, 1, 59, 96
1, 101860, Note_off_c, 1, 71, 96
1, 101860, Note_off_c, 1, 55, 96
1, 101860, Note_off_c, 1, 50, 96
1, 101860, Note_off_c, 1, 59, 96
1, 101917, Note_on_c, 1, 71, 96
1, 101918, Note_off_c, 1, 71, 96
1, 101978, Note_on_c, 1, 71, 96
1, 101978, Note_on_c, 1, 55, 96
1, 101980, Note_off_c, 1, 71, 96
1, 101980, Note_off_c, 1, 55, 96
1, 101980, Note_on_c, 1, 59, 96
1, 101982, Note_off_c, 1, 59, 96
1, 101982, Note_on_c, 1, 67, 96
1, 101983, Note_off_c, 1, 67, 96
1, 102107, Note_on_c, 1, 52, 96
1, 102109, Note_off_c, 1, 52, 96
1, 102109, Note_on_c, 1, 40, 96
1, 102110, Note_off_c, 1, 40, 96
1, 102290, Note_on_c, 1, 59, 96
1, 102290, Note_on_c, 1, 55, 96
1, 102291, Note_off_c, 1, 59, 96
1, 102291, Note_off_c, 1, 55, 96
1, 102295, Note_on_c, 1, 62, 96
1, 102295, Note_on_c, 1, 71, 96
1, 102295, Note_on_c, 1, 62, 96
1, 102296, Note_off_c, 1, 62, 96
1, 102296, Note_off_c, 1, 71, 96
1, 102296, Note_off_c, 1, 62, 96
1, 102353, Note_on_c, 1, 62, 96
1, 102354, Note_off_c, 1, 62, 96
1, 102416, Note_on_c, 1, 62, 96
1, 102418, Note_off_c, 1, 62, 96
1, 102418, Note_on_c, 1, 56, 96
1, 102419, Note_off_c, 1, 56, 96
1, 102476, Note_on_c, 1, 52, 96
1, 102477, Note_off_c, 1, 52, 96
1, 102481, Note_on_c, 1, 57, 96
1, 102481, Note_on_c, 1, 69, 96
1, 102482, Note_off_c, 1, 57, 96
1, 102482, Note_off_c, 1, 69, 96
1, 102542, Note_on_c, 1, 67, 96
1, 102543, Note_off_c, 1, 67, 96
1, 102545, Note_on_c, 1, 59, 96
1, 102546, Note_off_c, 1, 59, 96
1, 102603, Note_on_c, 1, 67, 96
1, 102603, Note_on_c, 1, 50, 96
1, 102604, Note_off_c, 1, 67, 96
1, 102604, Note_off_c, 1, 50, 96
1, 102607, Note_on_c, 1, 38, 96
1, 102608, Note_off_c, 1, 38, 96
1, 102724, Note_on_c, 1, 55, 96
1, 102725, Note_off_c, 1, 55, 96
1, 102727, Note_on_c, 1, 67, 96
1, 102729, Note_off_c, 1, 67, 96
1, 102729, Note_on_c, 1, 62, 96
1, 102731, Note_off_c, 1, 62, 96
1, 102731, Note_on_c, 1, 59, 96
1, 102732, Note_off_c, 1, 59, 96
1, 102792, Note_on_c, 1, 70, 96
1, 102793, Note_off_c, 1, 70, 96
1, 102853, Note_on_c, 1, 59, 96
1, 102853, Note_on_c, 1, 65, 96
1, 102853, Note_on_c, 1, 53, 96
1, 102854, Note_off_c, 1, 59, 96
1, 102854, Note_off_c, 1, 65, 96
1, 102854, Note_off_c, 1, 53, 96
1, 102856, Note_on_c, 1, 55, 96
1, 102857, Note_off_c, 1, 55, 96
1, 102859, Note_on_c, 1, 71, 96
1, 102860, Note_off_c, 1, 71, 96
1, 102915, Note_on_c, 1, 59, 96
1, 102915, Note_on_c, 1, 65, 96
1, 102916, Note_off_c, 1, 59, 96
1, 102916, Note_off_c, 1, 65, 96
1, 102918, Note_on_c, 1, 67, 96
1, 102919, Note_off_c, 1, 67, 96
1, 102978, Note_on_c, 1, 72, 96
1, 102979, Note_off_c, 1, 72, 96
1, 102981, Note_on_c, 1, 64, 96
1, 102983, Note_off_c, 1, 64, 96
1, 102983, Note_on_c, 1, 48, 96
1, 102984, Note_off_c, 1, 48, 96
1, 103042, Note_on_c, 1, 81, 96
1, 103043, Note_off_c, 1, 81, 96
1, 103164, Note_on_c, 1, 76, 96
1, 103166, Note_off_c, 1, 76, 96
1, 103166, Note_on_c, 1, 64, 96
1, 103167, Note_off_c, 1, 64, 96
1, 103169, Note_on_c, 1, 60, 96
1, 103170, Note_off_c, 1, 60, 96
1, 103280, Note_on_c, 1, 76, 96
1, 103282, Note_off_c, 1, 76, 96
1, 103282, Note_on_c, 1, 60, 96
1, 103283, Note_off_c, 1, 60, 96
1, 103286, Note_on_c, 1, 55, 96
1, 103288, Note_off_c, 1, 55, 96
1, 103288, Note_on_c, 1, 64, 96
1, 103289, Note_off_c, 1, 64, 96
1, 103292, Note_on_c, 1, 79, 96
1, 103293, Note_off_c, 1, 79, 96
1, 103408, Note_on_c, 1, 76, 96
1, 103410, Note_off_c, 1, 76, 96
1, 103410, Note_on_c, 1, 67, 96
1, 103411, Note_off_c, 1, 67, 96
1, 103414, Note_on_c, 1, 43, 96
1, 103416, Note_off_c, 1, 43, 96
1, 103416, Note_on_c, 1, 64, 96
1, 103417, Note_off_c, 1, 64, 96
1, 103530, Note_on_c, 1, 52, 96
1, 103532, Note_off_c, 1, 52, 96
1, 103532, Note_on_c, 1, 55, 96
1, 103534, Note_off_c, 1, 55, 96
1, 103534, Note_on_c, 1, 60, 96
1, 103535, Note_off_c, 1, 60, 96
1, 103595, Note_on_c, 1, 76, 96
1, 103597, Note_off_c, 1, 76, 96
1, 103597, Note_on_c, 1, 79, 96
1, 103598, Note_off_c, 1, 79, 96
1, 103653, Note_on_c, 1, 48, 96
1, 103654, Note_off_c, 1, 48, 96
1, 103660, Note_on_c, 1, 64, 96
1, 103661, Note_off_c, 1, 64, 96
1, 103663, Note_on_c, 1, 72, 96
1, 103664, Note_off_c, 1, 72, 96
1, 103719, Note_on_c, 1, 68, 96
1, 103721, Note_off_c, 1, 68, 96
1, 103721, Note_on_c, 1, 72, 96
1, 103722, Note_off_c, 1, 72, 96
1, 103780, Note_on_c, 1, 77, 96
1, 103781, Note_off_c, 1, 77, 96
1, 103783, Note_on_c, 1, 69, 96
1, 103784, Note_off_c, 1, 69, 96
1, 103788, Note_on_c, 1, 50, 96
1, 103789, Note_off_c, 1, 50, 96
1, 103844, Note_on_c, 1, 71, 96
1, 103845, Note_off_c, 1, 71, 96
1, 103848, Note_on_c, 1, 76, 96
1, 103849, Note_off_c, 1, 76, 96
1, 103911, Note_on_c, 1, 60, 96
1, 103911, Note_on_c, 1, 63, 96
1, 103911, Note_on_c, 1, 55, 96
1, 103912, Note_off_c, 1, 60, 96
1, 103912, Note_off_c, 1, 63, 96
1, 103912, Note_off_c, 1, 55, 96
1, 104032, Note_on_c, 1, 63, 96
1, 104036, Note_off_c, 1, 63, 96
1, 104036, Note_on_c, 1, 70, 96
1, 104036, Note_on_c, 1, 73, 96
1, 104036, Note_on_c, 1, 51, 96
1, 104037, Note_off_c, 1, 70, 96
1, 104037, Note_off_c, 1, 73, 96
1, 104037, Note_off_c, 1, 51, 96
1, 104152, Note_on_c, 1, 48, 96
1, 104153, Note_off_c, 1, 48, 96
1, 104158, Note_on_c, 1, 69, 96
1, 104158, Note_on_c, 1, 77, 96
1, 104159, Note_off_c, 1, 69, 96
1, 104159, Note_off_c, 1, 77, 96
1, 104278, Note_on_c, 1, 50, 96
1, 104279, Note_off_c, 1, 50, 96
1, 104281, Note_on_c, 1, 62, 96
1, 104282, Note_off_c, 1, 62, 96
1, 104396, Note_on_c, 1, 76, 96
1, 104397, Note_off_c, 1, 76, 96
1, 104400, Note_on_c, 1, 53, 96
1, 104400, Note_on_c, 1, 69, 96
1, 104402, Note_off_c, 1, 53, 96
1, 104402, Note_off_c, 1, 69, 96
1, 104402, Note_on_c, 1, 59, 96
1, 104404, Note_off_c, 1, 59, 96
1, 104404, Note_on_c, 1, 56, 96
1, 104405, Note_off_c, 1, 56, 96
1, 104408, Note_on_c, 1, 77, 96
1, 104409, Note_off_c, 1, 77, 96
1, 104462, Note_on_c, 1, 78, 96
1, 104463, Note_off_c, 1, 78, 96
1, 104522, Note_on_c, 1, 47, 96
1, 104523, Note_off_c, 1, 47, 96
1, 104525, Note_on_c, 1, 74, 96
1, 104527, Note_off_c, 1, 74, 96
1, 104527, Note_on_c, 1, 62, 96
1, 104528, Note_off_c, 1, 62, 96
1, 104584, Note_on_c, 1, 76, 96
1, 104585, Note_off_c, 1, 76, 96
1, 104587, Note_on_c, 1, 70, 96
1, 104588, Note_off_c, 1, 70, 96
1, 104592, Note_on_c, 1, 76, 96
1, 104592, Note_on_c, 1, 58, 96
1, 104593, Note_off_c, 1, 76, 96
1, 104593, Note_off_c, 1, 58, 96
1, 104653, Note_on_c, 1, 70, 96
1, 104654, Note_off_c, 1, 70, 96
1, 104656, Note_on_c, 1, 70, 96
1, 104657, Note_off_c, 1, 70, 96
1, 104710, Note_on_c, 1, 78, 96
1, 104712, Note_off_c, 1, 78, 96
1, 104712, Note_on_c, 1, 69, 96
1, 104714, Note_off_c, 1, 69, 96
1, 104714, Note_on_c, 1, 57, 96
1, 104715, Note_off_c, 1, 57, 96
1, 104778, Note_on_c, 1, 71, 96
1, 104778, Note_on_c, 1, 59, 96
1, 104780, Note_off_c, 1, 71, 96
1, 104780, Note_off_c, 1, 59, 96
1, 104780, Note_on_c, 1, 71, 96
1, 104782, Note_off_c, 1, 71, 96
1, 104782, Note_on_c, 1, 62, 96
1, 104783, Note_off_c, 1, 62, 96
1, 104899, Note_on_c, 1, 57, 96
1, 104900, Note_off_c, 1, 57, 96
1, 104961, Note_on_c, 1, 67, 96
1, 104961, Note_on_c, 1, 55, 96
1, 104962, Note_off_c, 1, 67, 96
1, 104962, Note_off_c, 1, 55, 96
1, 105023, Note_on_c, 1, 63, 96
1, 105023, Note_on_c, 1, 54, 96
1, 105024, Note_off_c, 1, 63, 96
1, 105024, Note_off_c, 1, 54, 96
1, 105083, Note_on_c, 1, 59, 96
1, 105084, Note_off_c, 1, 59, 96
1, 105201, Note_on_c, 1, 64, 96
1, 105202, Note_off_c, 1, 64, 96
1, 105205, Note_on_c, 1, 74, 96
1, 105206, Note_off_c, 1, 74, 96
1, 105209, Note_on_c, 1, 62, 96
1, 105209, Note_on_c, 1, 52, 96
1, 105210, Note_off_c, 1, 62, 96
1, 105210, Note_off_c, 1, 52, 96
1, 105212, Note_on_c, 1, 71, 96
1, 105213, Note_off_c, 1, 71, 96
1, 105333, Note_on_c, 1, 74, 96
1, 105333, Note_on_c, 1, 62, 96
1, 105334, Note_off_c, 1, 74, 96
1, 105334, Note_off_c, 1, 62, 96
1, 105394, Note_on_c, 1, 69, 96
1, 105395, Note_off_c, 1, 69, 96
1, 105450, Note_on_c, 1, 57, 96
1, 105451, Note_off_c, 1, 57, 96
1, 105575, Note_on_c, 1, 76, 96
1, 105575, Note_on_c, 1, 52, 96
1, 105576, Note_off_c, 1, 76, 96
1, 105576, Note_off_c, 1, 52, 96
1, 105635, Note_on_c, 1, 76, 96
1, 105636, Note_off_c, 1, 76, 96
1, 105699, Note_on_c, 1, 78, 96
1, 105700, Note_off_c, 1, 78, 96
1, 105756, Note_on_c, 1, 64, 96
1, 105757, Note_off_c, 1, 64, 96
1, 105759, Note_on_c, 1, 79, 96
1, 105760, Note_off_c, 1, 79, 96
1, 105819, Note_on_c, 1, 74, 96
1, 105820, Note_off_c, 1, 74, 96
1, 105876, Note_on_c, 1, 67, 96
1, 105878, Note_off_c, 1, 67, 96
1, 105878, Note_on_c, 1, 79, 96
1, 105879, Note_off_c, 1, 79, 96
1, 106000, Note_on_c, 1, 77, 96
1, 106003, Note_off_c, 1, 77, 96
1, 106003, Note_on_c, 1, 59, 96
1, 106003, Note_on_c, 1, 55, 96
1, 106004, Note_off_c, 1, 59, 96
1, 106004, Note_off_c, 1, 55, 96
1, 106007, Note_on_c, 1, 50, 96
1, 106008, Note_off_c, 1, 50, 96
1, 106066, Note_on_c, 1, 72, 96
1, 106067, Note_off_c, 1, 72, 96
1, 106121, Note_on_c, 1, 67, 96
1, 106122, Note_off_c, 1, 67, 96
1, 106129, Note_on_c, 1, 48, 96
1, 106130, Note_off_c, 1, 48, 96
1, 106244, Note_on_c, 1, 63, 96
1, 106246, Note_off_c, 1, 63, 96
1, 106246, Note_on_c, 1, 51, 96
1, 106247, Note_off_c, 1, 51, 96
1, 106250, Note_on_c, 1, 39, 96
1, 106251, Note_off_c, 1, 39, 96
1, 106368, Note_on_c, 1, 43, 96
1, 106370, Note_off_c, 1, 43, 96
1, 106370, Note_on_c, 1, 55, 96
1, 106372, Note_off_c, 1, 55, 96
1, 106372, Note_on_c, 1, 36, 96
1, 106376, Note_off_c, 1, 36, 96
1, 106376, Note_on_c, 1, 75, 96
1, 106376, Note_on_c, 1, 67, 96
1, 106376, Note_on_c, 1, 70, 96
1, 106379, Note_off_c, 1, 75, 96
1, 106379, Note_off_c, 1, 67, 96
1, 106379, Note_off_c, 1, 70, 96
1, 106379, Note_on_c, 1, 64, 96
1, 106379, Note_on_c, 1, 70, 96
1, 106380, Note_off_c, 1, 64, 96
1, 106380, Note_off_c, 1, 70, 96
1, 106437, Note_on_c, 1, 70, 96
1, 106438, Note_off_c, 1, 70, 96
1, 106496, Note_on_c, 1, 72, 96
1, 106497, Note_off_c, 1, 72, 96
1, 106501, Note_on_c, 1, 67, 96
1, 106505, Note_off_c, 1, 67, 96
1, 106505, Note_on_c, 1, 55, 96
1, 106505, Note_on_c, 1, 60, 96
1, 106505, Note_on_c, 1, 64, 96
1, 106506, Note_off_c, 1, 55, 96
1, 106506, Note_off_c, 1, 60, 96
1, 106506, Note_off_c, 1, 64, 96
1, 106622, Note_on_c, 1, 71, 96
1, 106622, Note_on_c, 1, 69, 96
1, 106623, Note_off_c, 1, 71, 96
1, 106623, Note_off_c, 1, 69, 96
1, 106627, Note_on_c, 1, 55, 96
1, 106629, Note_off_c, 1, 55, 96
1, 106629, Note_on_c, 1, 43, 96
1, 106630, Note_off_c, 1, 43, 96
1, 106748, Note_on_c, 1, 64, 96
1, 106750, Note_off_c, 1, 64, 96
1, 106750, Note_on_c, 1, 74, 96
1, 106753, Note_off_c, 1, 74, 96
1, 106753, Note_on_c, 1, 55, 96
1, 106753, Note_on_c, 1, 60, 96
1, 106754, Note_off_c, 1, 55, 96
1, 106754, Note_off_c, 1, 60, 96
1, 106810, Note_on_c, 1, 76, 96
1, 106811, Note_off_c, 1, 76, 96
1, 106869, Note_on_c, 1, 43, 96
1, 106869, Note_on_c, 1, 55, 96
1, 106870, Note_off_c, 1, 43, 96
1, 106870, Note_off_c, 1, 55, 96
1, 106872, Note_on_c, 1, 76, 96
1, 106873, Note_off_c, 1, 76, 96
1, 106932, Note_on_c, 1, 72, 96
1, 106933, Note_off_c, 1, 72, 96
1, 106996, Note_on_c, 1, 62, 96
1, 106996, Note_on_c, 1, 53, 96
1, 106997, Note_off_c, 1, 62, 96
1, 106997, Note_off_c, 1, 53, 96
1, 107000, Note_on_c, 1, 74, 96
1, 107000, Note_on_c, 1, 58, 96
1, 107001, Note_off_c, 1, 74, 96
1, 107001, Note_off_c, 1, 58, 96
1, 107057, Note_on_c, 1, 77, 96
1, 107058, Note_off_c, 1, 77, 96
1, 107117, Note_on_c, 1, 58, 96
1, 107117, Note_on_c, 1, 53, 96
1, 107118, Note_off_c, 1, 58, 96
1, 107118, Note_off_c, 1, 53, 96
1, 107121, Note_on_c, 1, 74, 96
1, 107122, Note_off_c, 1, 74, 96
1, 107124, Note_on_c, 1, 62, 96
1, 107125, Note_off_c, 1, 62, 96
1, 107181, Note_on_c, 1, 74, 96
1, 107182, Note_off_c, 1, 74, 96
1, 107186, Note_on_c, 1, 70, 96
1, 107187, Note_off_c, 1, 70, 96
1, 107243, Note_on_c, 1, 41, 96
1, 107244, Note_off_c, 1, 41, 96
1, 107364, Note_on_c, 1, 65, 96
1, 107366, Note_off_c, 1, 65, 96
1, 107366, Note_on_c, 1, 70, 96
1, 107367, Note_off_c, 1, 70, 96
1, 107371, Note_on_c, 1, 62, 96
1, 107372, Note_off_c, 1, 62, 96
1, 107487, Note_on_c, 1, 65, 96
1, 107490, Note_off_c, 1, 65, 96
1, 107490, Note_on_c, 1, 77, 96
1, 107490, Note_on_c, 1, 68, 96
1, 107491, Note_off_c, 1, 77, 96
1, 107491, Note_off_c, 1, 68, 96
1, 107610, Note_on_c, 1, 77, 96
1, 107612, Note_off_c, 1, 77, 96
1, 107612, Note_on_c, 1, 70, 96
1, 107613, Note_off_c, 1, 70, 96
1, 107615, Note_on_c, 1, 65, 96
1, 107616, Note_off_c, 1, 65, 96
1, 107618, Note_on_c, 1, 62, 96
1, 107619, Note_off_c, 1, 62, 96
1, 107736, Note_on_c, 1, 53, 96
1, 107737, Note_off_c, 1, 53, 96
1, 107853, End_track
0, 0, End_of_file