0, 0, Header, 0, 1, 384
1, 0, Start_track
1, 0, Tempo, 792763
1, 2, Note_on_c, 1, 44, 96
1, 3, Note_off_c, 1, 44, 96
1, 63, Note_on_c, 1, 79, 96
1, 64, Note_off_c, 1, 79, 96
1, 124, Note_on_c, 1, 43, 96
1, 125, Note_off_c, 1, 43, 96
1, 193, Note_on_c, 1, 72, 96
1, 194, Note_off_c, 1, 72, 96
1, 241, Note_on_c, 1, 67, 96
1, 244, Note_off_c, 1, 67, 96
1, 244, Note_on_c, 1, 65, 96
1, 244, Note_on_c, 1, 55, 96
1, 247, Note_off_c, 1, 65, 96
1, 247, Note_off_c, 1, 55, 96
1, 247, Note_on_c, 1, 79, 96
1, 247, Note_on_c, 1, 59, 96
1, 248, Note_off_c, 1, 79, 96
1, 248, Note_off_c, 1, 59, 96
1, 335, Note_on_c, 1, 76, 96
1, 336, Note_off_c, 1, 76, 96
1, 366, Note_on_c, 1, 80, 96
1, 366, Note_on_c, 1, 56, 96
1, 367, Note_off_c, 1, 80, 96
1, 367, Note_off_c, 1, 56, 96
1, 425, Note_on_c, 1, 72, 96
1, 426, Note_off_c, 1, 72, 96
1, 484, Note_on_c, 1, 74, 96
1, 485, Note_off_c, 1, 74, 96
1, 605, Note_on_c, 1, 60, 96
1, 606, Note_off_c, 1, 60, 96
1, 608, Note_on_c, 1, 64, 96
1, 609, Note_off_c, 1, 64, 96
1, 611, Note_on_c, 1, 70, 96
1, 612, Note_off_c, 1, 70, 96
1, 847, Note_on_c, 1, 62, 96
1, 848, Note_off_c, 1, 62, 96
1, 852, Note_on_c, 1, 74, 96
1, 852, Note_on_c, 1, 77, 96
1, 852, Note_on_c, 1, 65, 96
1, 853, Note_off_c, 1, 74, 96
1, 853, Note_off_c, 1, 77, 96
1, 853, Note_off_c, 1, 65, 96
1, 855, Note_on_c, 1, 46, 96
1, 857, Note_off_c, 1, 46, 96
1, 857, Note_on_c, 1, 34, 96
1, 858, Note_off_c, 1, 34, 96
1, 861, Note_on_c, 1, 70, 96
1, 862, Note_off_c, 1, 70, 96
1, 898, Note_on_c, 1, 74, 96
1, 899, Note_off_c, 1, 74, 96
1, 940, Note_on_c, 1, 77, 96
1, 941, Note_off_c, 1, 77, 96
1, 977, Note_on_c, 1, 64, 96
1, 978, Note_off_c, 1, 64, 96
1, 982, Note_on_c, 1, 72, 96
1, 982, Note_on_c, 1, 58, 96
1, 983, Note_off_c, 1, 72, 96
1, 983, Note_off_c, 1, 58, 96
1, 1247, Note_on_c, 1, 64, 96
1, 1248, Note_off_c, 1, 64, 96
1, 1255, Note_on_c, 1, 40, 96
1, 1257, Note_off_c, 1, 40, 96
1, 1257, Note_on_c, 1, 52, 96
1, 1258, Note_off_c, 1, 52, 96
1, 1262, Note_on_c, 1, 60, 96
1, 1263, Note_off_c, 1, 60, 96
1, 1452, Note_on_c, 1, 69, 96
1, 1453, Note_off_c, 1, 69, 96
1, 1618, Note_on_c, 1, 45, 96
1, 1618, Note_on_c, 1, 57, 96
1, 1620, Note_off_c, 1, 45, 96
1, 1620, Note_off_c, 1, 57, 96
1, 1620, Note_on_c, 1, 76, 96
1, 1621, Note_off_c, 1, 76, 96
1, 1624, Note_on_c, 1, 69, 96
1, 1624, Note_on_c, 1, 64, 96
1, 1625, Note_off_c, 1, 69, 96
1, 1625, Note_off_c, 1, 64, 96
1, 1627, Note_on_c, 1, 57, 96
1, 1628, Note_off_c, 1, 57, 96
1, 1968, Note_on_c, 1, 45, 96
1, 1969, Note_off_c, 1, 45, 96
1, 1971, Note_on_c, 1, 57, 96
1, 1972, Note_off_c, 1, 57, 96
1, 2230, Note_on_c, 1, 72, 96
1, 2231, Note_off_c, 1, 72, 96
1, 2370, Note_on_c, 1, 60, 96
1, 2370, Note_on_c, 1, 57, 96
1, 2370, Note_on_c, 1, 67, 96
1, 2370, Note_on_c, 1, 52, 96
1, 2371, Note_off_c, 1, 60, 96
1, 2371, Note_off_c, 1, 57, 96
1, 2371, Note_off_c, 1, 67, 96
1, 2371, Note_off_c, 1, 52, 96
1, 2386, Note_on_c, 1, 64, 96
1, 2387, Note_off_c, 1, 64, 96
1, 2584, Note_on_c, 1, 72, 96
1, 2585, Note_off_c, 1, 72, 96
1, 2746, Note_on_c, 1, 63, 96
1, 2746, Note_on_c, 1, 42, 96
1, 2748, Note_off_c, 1, 63, 96
1, 2748, Note_off_c, 1, 42, 96
1, 2748, Note_on_c, 1, 54, 96
1, 2749, Note_off_c, 1, 54, 96
1, 2989, Note_on_c, 1, 62, 96
1, 2990, Note_off_c, 1, 62, 96
1, 2993, Note_on_c, 1, 60, 96
1, 2994, Note_off_c, 1, 60, 96
1, 2996, Note_on_c, 1, 69, 96
1, 2997, Note_off_c, 1, 69, 96
1, 3115, Note_on_c, 1, 62, 96
1, 3116, Note_off_c, 1, 62, 96
1, 3172, Note_on_c, 1, 65, 96
1, 3173, Note_off_c, 1, 65, 96
1, 3290, Note_on_c, 1, 65, 96
1, 3291, Note_off_c, 1, 65, 96
1, 3350, Note_on_c, 1, 61, 96
1, 3351, Note_off_c, 1, 61, 96
1, 3411, Note_on_c, 1, 63, 96
1, 3412, Note_off_c, 1, 63, 96
1, 3473, Note_on_c, 1, 67, 96
1, 3475, Note_off_c, 1, 67, 96
1, 3475, Note_on_c, 1, 60, 96
1, 3476, Note_off_c, 1, 60, 96
1, 3594, Note_on_c, 1, 55, 96
1, 3594, Note_on_c, 1, 43, 96
1, 3595, Note_off_c, 1, 55, 96
1, 3595, Note_off_c, 1, 43, 96
1, 3598, Note_on_c, 1, 31, 96
1, 3599, Note_off_c, 1, 31, 96
1, 3717, Note_on_c, 1, 52, 96
1, 3718, Note_off_c, 1, 52, 96
1, 3720, Note_on_c, 1, 60, 96
1, 3721, Note_off_c, 1, 60, 96
1, 3725, Note_on_c, 1, 67, 96
1, 3726, Note_off_c, 1, 67, 96
1, 3781, Note_on_c, 1, 60, 96
1, 3782, Note_off_c, 1, 60, 96
1, 3840, Note_on_c, 1, 43, 96
1, 3841, Note_off_c, 1, 43, 96
1, 3844, Note_on_c, 1, 50, 96
1, 3845, Note_off_c, 1, 50, 96
1, 3905, Note_on_c, 1, 59, 96
1, 3906, Note_off_c, 1, 59, 96
1, 4025, Note_on_c, 1, 49, 96
1, 4026, Note_off_c, 1, 49, 96
1, 4028, Note_on_c, 1, 37, 96
1, 4029, Note_off_c, 1, 37, 96
1, 4147, Note_on_c, 1, 74, 96
1, 4148, Note_off_c, 1, 74, 96
1, 4269, Note_on_c, 1, 59, 96
1, 4270, Note_off_c, 1, 59, 96
1, 4274, Note_on_c, 1, 55, 96
1, 4274, Note_on_c, 1, 50, 96
1, 4275, Note_off_c, 1, 55, 96
1, 4275, Note_off_c, 1, 50, 96
1, 4329, Note_on_c, 1, 71, 96
1, 4330, Note_off_c, 1, 71, 96
1, 4392, Note_on_c, 1, 71, 96
1, 4392, Note_on_c, 1, 52, 96
1, 4393, Note_off_c, 1, 71, 96
1, 4393, Note_off_c, 1, 52, 96
1, 4398, Note_on_c, 1, 40, 96
1, 4399, Note_off_c, 1, 40, 96
1, 4570, Note_on_c, 1, 72, 96
1, 4571, Note_off_c, 1, 72, 96
1, 4633, Note_on_c, 1, 62, 96
1, 4635, Note_off_c, 1, 62, 96
1, 4635, Note_on_c, 1, 67, 96
1, 4637, Note_off_c, 1, 67, 96
1, 4637, Note_on_c, 1, 71, 96
1, 4639, Note_off_c, 1, 71, 96
1, 4639, Note_on_c, 1, 59, 96
1, 4640, Note_off_c, 1, 59, 96
1, 4644, Note_on_c, 1, 71, 96
1, 4644, Note_on_c, 1, 61, 96
1, 4645, Note_off_c, 1, 71, 96
1, 4645, Note_off_c, 1, 61, 96
1, 4756, Note_on_c, 1, 62, 96
1, 4757, Note_off_c, 1, 62, 96
1, 4763, Note_on_c, 1, 66, 96
1, 4764, Note_off_c, 1, 66, 96
1, 4768, Note_on_c, 1, 59, 96
1, 4768, Note_on_c, 1, 38, 96
1, 4768, Note_on_c, 1, 50, 96
1, 4771, Note_off_c, 1, 59, 96
1, 4771, Note_off_c, 1, 38, 96
1, 4771, Note_off_c, 1, 50, 96
1, 4771, Note_on_c, 1, 66, 96
1, 4771, Note_on_c, 1, 69, 96
1, 4772, Note_off_c, 1, 66, 96
1, 4772, Note_off_c, 1, 69, 96
1, 4885, Note_on_c, 1, 40, 96
1, 4885, Note_on_c, 1, 52, 96
1, 4886, Note_off_c, 1, 40, 96
1, 4886, Note_off_c, 1, 52, 96
1, 4889, Note_on_c, 1, 66, 96
1, 4891, Note_off_c, 1, 66, 96
1, 4891, Note_on_c, 1, 52, 96
1, 4893, Note_off_c, 1, 52, 96
1, 4893, Note_on_c, 1, 59, 96
1, 4896, Note_off_c, 1, 59, 96
1, 4896, Note_on_c, 1, 67, 96
1, 4896, Note_on_c, 1, 40, 96
1, 4897, Note_off_c, 1, 67, 96
1, 4897, Note_off_c, 1, 40, 96
1, 5131, Note_on_c, 1, 66, 96
1, 5132, Note_off_c, 1, 66, 96
1, 5134, Note_on_c, 1, 45, 96
1, 5135, Note_off_c, 1, 45, 96
1, 5314, Note_on_c, 1, 42, 96
1, 5315, Note_off_c, 1, 42, 96
1, 5319, Note_on_c, 1, 54, 96
1, 5320, Note_off_c, 1, 54, 96
1, 5433, Note_on_c, 1, 67, 96
1, 5434, Note_off_c, 1, 67, 96
1, 5436, Note_on_c, 1, 60, 96
1, 5437, Note_off_c, 1, 60, 96
1, 5495, Note_on_c, 1, 62, 96
1, 5496, Note_off_c, 1, 62, 96
1, 5556, Note_on_c, 1, 55, 96
1, 5558, Note_off_c, 1, 55, 96
1, 5558, Note_on_c, 1, 43, 96
1, 5559, Note_off_c, 1, 43, 96
1, 5621, Note_on_c, 1, 64, 96
1, 5621, Note_on_c, 1, 55, 96
1, 5621, Note_on_c, 1, 58, 96
1, 5624, Note_off_c, 1, 64, 96
1, 5624, Note_off_c, 1, 55, 96
1, 5624, Note_off_c, 1, 58, 96
1, 5624, Note_on_c, 1, 52, 96
1, 5624, Note_on_c, 1, 45, 96
1, 5625, Note_off_c, 1, 52, 96
1, 5625, Note_off_c, 1, 45, 96
1, 5806, Note_on_c, 1, 71, 96
1, 5807, Note_off_c, 1, 71, 96
1, 5810, Note_on_c, 1, 62, 96
1, 5811, Note_off_c, 1, 62, 96
1, 5864, Note_on_c, 1, 72, 96
1, 5864, Note_on_c, 1, 57, 96
1, 5866, Note_off_c, 1, 72, 96
1, 5866, Note_off_c, 1, 57, 96
1, 5866, Note_on_c, 1, 60, 96
1, 5867, Note_off_c, 1, 60, 96
1, 5869, Note_on_c, 1, 64, 96
1, 5870, Note_off_c, 1, 64, 96
1, 6173, Note_on_c, 1, 59, 96
1, 6174, Note_off_c, 1, 59, 96
1, 6176, Note_on_c, 1, 47, 96
1, 6177, Note_off_c, 1, 47, 96
1, 6352, Note_on_c, 1, 60, 96
1, 6353, Note_off_c, 1, 60, 96
1, 6356, Note_on_c, 1, 52, 96
1, 6356, Note_on_c, 1, 58, 96
1, 6357, Note_off_c, 1, 52, 96
1, 6357, Note_off_c, 1, 58, 96
1, 6473, Note_on_c, 1, 67, 96
1, 6474, Note_off_c, 1, 67, 96
1, 6596, Note_on_c, 1, 65, 96
1, 6596, Note_on_c, 1, 63, 96
1, 6598, Note_off_c, 1, 65, 96
1, 6598, Note_off_c, 1, 63, 96
1, 6598, Note_on_c, 1, 48, 96
1, 6599, Note_off_c, 1, 48, 96
1, 6601, Note_on_c, 1, 57, 96
1, 6602, Note_off_c, 1, 57, 96
1, 6605, Note_on_c, 1, 67, 96
1, 6606, Note_off_c, 1, 67, 96
1, 6722, Note_on_c, 1, 65, 96
1, 6723, Note_off_c, 1, 65, 96
1, 6727, Note_on_c, 1, 46, 96
1, 6728, Note_off_c, 1, 46, 96
1, 6844, Note_on_c, 1, 62, 96
1, 6844, Note_on_c, 1, 58, 96
1, 6845, Note_off_c, 1, 62, 96
1, 6845, Note_off_c, 1, 58, 96
1, 6847, Note_on_c, 1, 53, 96
1, 6848, Note_off_c, 1, 53, 96
1, 6965, Note_on_c, 1, 50, 96
1, 6966, Note_off_c, 1, 50, 96
1, 6969, Note_on_c, 1, 67, 96
1, 6971, Note_off_c, 1, 67, 96
1, 6971, Note_on_c, 1, 62, 96
1, 6972, Note_off_c, 1, 62, 96
1, 7209, Note_on_c, 1, 31, 96
1, 7211, Note_off_c, 1, 31, 96
1, 7211, Note_on_c, 1, 67, 96
1, 7212, Note_off_c, 1, 67, 96
1, 7215, Note_on_c, 1, 43, 96
1, 7216, Note_off_c, 1, 43, 96
1, 7335, Note_on_c, 1, 55, 96
1, 7336, Note_off_c, 1, 55, 96
1, 7339, Note_on_c, 1, 50, 96
1, 7339, Note_on_c, 1, 59, 96
1, 7340, Note_off_c, 1, 50, 96
1, 7340, Note_off_c, 1, 59, 96
1, 7578, Note_on_c, 1, 77, 96
1, 7578, Note_on_c, 1, 74, 96
1, 7580, Note_off_c, 1, 77, 96
1, 7580, Note_off_c, 1, 74, 96
1, 7580, Note_on_c, 1, 86, 96
1, 7581, Note_off_c, 1, 86, 96
1, 7584, Note_on_c, 1, 81, 96
1, 7584, Note_on_c, 1, 45, 96
1, 7585, Note_off_c, 1, 81, 96
1, 7585, Note_off_c, 1, 45, 96
1, 7705, Note_on_c, 1, 62, 96
1, 7705, Note_on_c, 1, 65, 96
1, 7705, Note_on_c, 1, 56, 96
1, 7706, Note_off_c, 1, 62, 96
1, 7706, Note_off_c, 1, 65, 96
1, 7706, Note_off_c, 1, 56, 96
1, 7768, Note_on_c, 1, 84, 96
1, 7769, Note_off_c, 1, 84, 96
1, 7771, Note_on_c, 1, 72, 96
1, 7772, Note_off_c, 1, 72, 96
1, 7836, Note_on_c, 1, 84, 96
1, 7836, Note_on_c, 1, 81, 96
1, 7836, Note_on_c, 1, 64, 96
1, 7836, Note_on_c, 1, 60, 96
1, 7838, Note_off_c, 1, 84, 96
1, 7838, Note_off_c, 1, 81, 96
1, 7838, Note_off_c, 1, 64, 96
1, 7838, Note_off_c, 1, 60, 96
1, 7838, Note_on_c, 1, 76, 96
1, 7840, Note_off_c, 1, 76, 96
1, 7840, Note_on_c, 1, 88, 96
1, 7841, Note_off_c, 1, 88, 96
1, 7898, Note_on_c, 1, 64, 96
1, 7899, Note_off_c, 1, 64, 96
1, 7960, Note_on_c, 1, 86, 96
1, 7960, Note_on_c, 1, 82, 96
1, 7961, Note_off_c, 1, 86, 96
1, 7961, Note_off_c, 1, 82, 96
1, 8077, Note_on_c, 1, 77, 96
1, 8078, Note_off_c, 1, 77, 96
1, 8080, Note_on_c, 1, 65, 96
1, 8082, Note_off_c, 1, 65, 96
1, 8082, Note_on_c, 1, 81, 96
1, 8083, Note_off_c, 1, 81, 96
1, 8085, Note_on_c, 1, 53, 96
1, 8086, Note_off_c, 1, 53, 96
1, 8145, Note_on_c, 1, 80, 96
1, 8146, Note_off_c, 1, 80, 96
1, 8204, Note_on_c, 1, 84, 96
1, 8206, Note_off_c, 1, 84, 96
1, 8206, Note_on_c, 1, 70, 96
1, 8207, Note_off_c, 1, 70, 96
1, 8326, Note_on_c, 1, 34, 96
1, 8328, Note_off_c, 1, 34, 96
1, 8328, Note_on_c, 1, 46, 96
1, 8329, Note_off_c, 1, 46, 96
1, 8331, Note_on_c, 1, 77, 96
1, 8332, Note_off_c, 1, 77, 96
1, 8334, Note_on_c, 1, 86, 96
1, 8336, Note_off_c, 1, 86, 96
1, 8336, Note_on_c, 1, 74, 96
1, 8337, Note_off_c, 1, 74, 96
1, 8395, Note_on_c, 1, 75, 96
1, 8397, Note_off_c, 1, 75, 96
1, 8397, Note_on_c, 1, 84, 96
1, 8399, Note_off_c, 1, 84, 96
1, 8399, Note_on_c, 1, 79, 96
1, 8400, Note_off_c, 1, 79, 96
1, 8459, Note_on_c, 1, 51, 96
1, 8460, Note_off_c, 1, 51, 96
1, 8462, Note_on_c, 1, 84, 96
1, 8463, Note_off_c, 1, 84, 96
1, 8517, Note_on_c, 1, 86, 96
1, 8518, Note_off_c, 1, 86, 96
1, 8579, Note_on_c, 1, 55, 96
1, 8580, Note_off_c, 1, 55, 96
1, 8586, Note_on_c, 1, 58, 96
1, 8587, Note_off_c, 1, 58, 96
1, 8647, Note_on_c, 1, 79, 96
1, 8648, Note_off_c, 1, 79, 96
1, 8704, Note_on_c, 1, 67, 96
1, 8707, Note_off_c, 1, 67, 96
1, 8707, Note_on_c, 1, 75, 96
1, 8707, Note_on_c, 1, 58, 96
1, 8710, Note_off_c, 1, 75, 96
1, 8710, Note_off_c, 1, 58, 96
1, 8710, Note_on_c, 1, 70, 96
1, 8710, Note_on_c, 1, 63, 96
1, 8711, Note_off_c, 1, 70, 96
1, 8711, Note_off_c, 1, 63, 96
1, 8714, Note_on_c, 1, 79, 96
1, 8716, Note_off_c, 1, 79, 96
1, 8716, Note_on_c, 1, 58, 96
1, 8717, Note_off_c, 1, 58, 96
1, 8832, Note_on_c, 1, 58, 96
1, 8833, Note_off_c, 1, 58, 96
1, 8838, Note_on_c, 1, 79, 96
1, 8840, Note_off_c, 1, 79, 96
1, 8840, Note_on_c, 1, 63, 96
1, 8843, Note_off_c, 1, 63, 96
1, 8843, Note_on_c, 1, 70, 96
1, 8843, Note_on_c, 1, 55, 96
1, 8844, Note_off_c, 1, 70, 96
1, 8844, Note_off_c, 1, 55, 96
1, 8959, Note_on_c, 1, 55, 96
1, 8961, Note_off_c, 1, 55, 96
1, 8961, Note_on_c, 1, 63, 96
1, 8963, Note_off_c, 1, 63, 96
1, 8963, Note_on_c, 1, 60, 96
1, 8964, Note_off_c, 1, 60, 96
1, 8966, Note_on_c, 1, 70, 96
1, 8968, Note_off_c, 1, 70, 96
1, 8968, Note_on_c, 1, 75, 96
1, 8969, Note_off_c, 1, 75, 96
1, 9084, Note_on_c, 1, 55, 96
1, 9085, Note_off_c, 1, 55, 96
1, 9087, Note_on_c, 1, 58, 96
1, 9088, Note_off_c, 1, 58, 96
1, 9091, Note_on_c, 1, 63, 96
1, 9092, Note_off_c, 1, 63, 96
1, 9148, Note_on_c, 1, 78, 96
1, 9149, Note_off_c, 1, 78, 96
1, 9208, Note_on_c, 1, 55, 96
1, 9209, Note_off_c, 1, 55, 96
1, 9216, Note_on_c, 1, 63, 96
1, 9216, Note_on_c, 1, 58, 96
1, 9217, Note_off_c, 1, 63, 96
1, 9217, Note_off_c, 1, 58, 96
1, 9272, Note_on_c, 1, 70, 96
1, 9274, Note_off_c, 1, 70, 96
1, 9274, Note_on_c, 1, 79, 96
1, 9275, Note_off_c, 1, 79, 96
1, 9332, Note_on_c, 1, 58, 96
1, 9334, Note_off_c, 1, 58, 96
1, 9334, Note_on_c, 1, 64, 96
1, 9335, Note_off_c, 1, 64, 96
1, 9338, Note_on_c, 1, 78, 96
1, 9341, Note_off_c, 1, 78, 96
1, 9341, Note_on_c, 1, 55, 96
1, 9341, Note_on_c, 1, 61, 96
1, 9342, Note_off_c, 1, 55, 96
1, 9342, Note_off_c, 1, 61, 96
1, 9344, Note_on_c, 1, 67, 96
1, 9345, Note_off_c, 1, 67, 96
1, 9401, Note_on_c, 1, 69, 96
1, 9401, Note_on_c, 1, 73, 96
1, 9402, Note_off_c, 1, 69, 96
1, 9402, Note_off_c, 1, 73, 96
1, 9407, Note_on_c, 1, 81, 96
1, 9408, Note_off_c, 1, 81, 96
1, 9466, Note_on_c, 1, 45, 96
1, 9467, Note_off_c, 1, 45, 96
1, 9646, Note_on_c, 1, 78, 96
1, 9647, Note_off_c, 1, 78, 96
1, 9706, Note_on_c, 1, 55, 96
1, 9707, Note_off_c, 1, 55, 96
1, 9711, Note_on_c, 1, 75, 96
1, 9711, Note_on_c, 1, 57, 96
1, 9713, Note_off_c, 1, 75, 96
1, 9713, Note_off_c, 1, 57, 96
1, 9713, Note_on_c, 1, 69, 96
1, 9714, Note_off_c, 1, 69, 96
1, 9717, Note_on_c, 1, 64, 96
1, 9717, Note_on_c, 1, 61, 96
1, 9718, Note_off_c, 1, 64, 96
1, 9718, Note_off_c, 1, 61, 96
1, 9951, Note_on_c, 1, 61, 96
1, 9952, Note_off_c, 1, 61, 96
1, 9954, Note_on_c, 1, 55, 96
1, 9956, Note_off_c, 1, 55, 96
1, 9956, Note_on_c, 1, 57, 96
1, 9958, Note_off_c, 1, 57, 96
1, 9958, Note_on_c, 1, 67, 96
1, 9959, Note_off_c, 1, 67, 96
1, 10075, Note_on_c, 1, 77, 96
1, 10077, Note_off_c, 1, 77, 96
1, 10077, Note_on_c, 1, 57, 96
1, 10079, Note_off_c, 1, 57, 96
1, 10079, Note_on_c, 1, 62, 96
1, 10080, Note_off_c, 1, 62, 96
1, 10083, Note_on_c, 1, 70, 96
1, 10084, Note_off_c, 1, 70, 96
1, 10196, Note_on_c, 1, 71, 96
1, 10197, Note_off_c, 1, 71, 96
1, 10202, Note_on_c, 1, 61, 96
1, 10202, Note_on_c, 1, 67, 96
1, 10203, Note_off_c, 1, 61, 96
1, 10203, Note_off_c, 1, 67, 96
1, 10322, Note_on_c, 1, 74, 96
1, 10323, Note_off_c, 1, 74, 96
1, 10325, Note_on_c, 1, 57, 96
1, 10327, Note_off_c, 1, 57, 96
1, 10327, Note_on_c, 1, 71, 96
1, 10330, Note_off_c, 1, 71, 96
1, 10330, Note_on_c, 1, 62, 96
1, 10330, Note_on_c, 1, 66, 96
1, 10332, Note_off_c, 1, 62, 96
1, 10332, Note_off_c, 1, 66, 96
1, 10332, Note_on_c, 1, 54, 96
1, 10333, Note_off_c, 1, 54, 96
1, 10570, Note_on_c, 1, 71, 96
1, 10571, Note_off_c, 1, 71, 96
1, 10574, Note_on_c, 1, 43, 96
1, 10575, Note_off_c, 1, 43, 96
1, 10577, Note_on_c, 1, 67, 96
1, 10579, Note_off_c, 1, 67, 96
1, 10579, Note_on_c, 1, 55, 96
1, 10580, Note_off_c, 1, 55, 96
1, 10697, Note_on_c, 1, 38, 96
1, 10698, Note_off_c, 1, 38, 96
1, 10702, Note_on_c, 1, 50, 96
1, 10703, Note_off_c, 1, 50, 96
1, 10822, Note_on_c, 1, 57, 96
1, 10823, Note_off_c, 1, 57, 96
1, 10938, Note_on_c, 1, 62, 96
1, 10941, Note_off_c, 1, 62, 96
1, 10941, Note_on_c, 1, 57, 96
1, 10941, Note_on_c, 1, 54, 96
1, 10942, Note_off_c, 1, 57, 96
1, 10942, Note_off_c, 1, 54, 96
1, 10947, Note_on_c, 1, 71, 96
1, 10948, Note_off_c, 1, 71, 96
1, 11015, Note_on_c, 1, 71, 96
1, 11016, Note_off_c, 1, 71, 96
1, 11074, Note_on_c, 1, 75, 96
1, 11075, Note_off_c, 1, 75, 96
1, 11133, Note_on_c, 1, 69, 96
1, 11134, Note_off_c, 1, 69, 96
1, 11194, Note_on_c, 1, 76, 96
1, 11196, Note_off_c, 1, 76, 96
1, 11196, Note_on_c, 1, 64, 96
1, 11197, Note_off_c, 1, 64, 96
1, 11257, Note_on_c, 1, 74, 96
1, 11258, Note_off_c, 1, 74, 96
1, 11316, Note_on_c, 1, 71, 96
1, 11318, Note_off_c, 1, 71, 96
1, 11318, Note_on_c, 1, 50, 96
1, 11319, Note_off_c, 1, 50, 96
1, 11377, Note_on_c, 1, 62, 96
1, 11377, Note_on_c, 1, 56, 96
1, 11377, Note_on_c, 1, 52, 96
1, 11378, Note_off_c, 1, 62, 96
1, 11378, Note_off_c, 1, 56, 96
1, 11378, Note_off_c, 1, 52, 96
1, 11498, Note_on_c, 1, 50, 96
1, 11499, Note_off_c, 1, 50, 96
1, 11501, Note_on_c, 1, 55, 96
1, 11503, Note_off_c, 1, 55, 96
1, 11503, Note_on_c, 1, 59, 96
1, 11504, Note_off_c, 1, 59, 96
1, 11626, Note_on_c, 1, 48, 96
1, 11626, Note_on_c, 1, 36, 96
1, 11627, Note_off_c, 1, 48, 96
1, 11627, Note_off_c, 1, 36, 96
1, 11742, Note_on_c, 1, 48, 96
1, 11742, Note_on_c, 1, 53, 96
1, 11743, Note_off_c, 1, 48, 96
1, 11743, Note_off_c, 1, 53, 96
1, 11746, Note_on_c, 1, 60, 96
1, 11747, Note_off_c, 1, 60, 96
1, 11750, Note_on_c, 1, 57, 96
1, 11751, Note_off_c, 1, 57, 96
1, 11863, Note_on_c, 1, 60, 96
1, 11864, Note_off_c, 1, 60, 96
1, 11866, Note_on_c, 1, 65, 96
1, 11868, Note_off_c, 1, 65, 96
1, 11868, Note_on_c, 1, 57, 96
1, 11869, Note_off_c, 1, 57, 96
1, 12110, Note_on_c, 1, 43, 96
1, 12111, Note_off_c, 1, 43, 96
1, 12227, Note_on_c, 1, 76, 96
1, 12228, Note_off_c, 1, 76, 96
1, 12351, Note_on_c, 1, 60, 96
1, 12352, Note_off_c, 1, 60, 96
1, 12354, Note_on_c, 1, 55, 96
1, 12357, Note_off_c, 1, 55, 96
1, 12357, Note_on_c, 1, 52, 96
1, 12357, Note_on_c, 1, 58, 96
1, 12359, Note_off_c, 1, 52, 96
1, 12359, Note_off_c, 1, 58, 96
1, 12359, Note_on_c, 1, 70, 96
1, 12360, Note_off_c, 1, 70, 96
1, 12594, Note_on_c, 1, 69, 96
1, 12595, Note_off_c, 1, 69, 96
1, 12598, Note_on_c, 1, 77, 96
1, 12598, Note_on_c, 1, 72, 96
1, 12599, Note_off_c, 1, 77, 96
1, 12599, Note_off_c, 1, 72, 96
1, 12601, Note_on_c, 1, 65, 96
1, 12603, Note_off_c, 1, 65, 96
1, 12603, Note_on_c, 1, 75, 96
1, 12604, Note_off_c, 1, 75, 96
1, 12606, Note_on_c, 1, 41, 96
1, 12607, Note_off_c, 1, 41, 96
1, 12661, Note_on_c, 1, 62, 96
1, 12663, Note_off_c, 1, 62, 96
1, 12663, Note_on_c, 1, 74, 96
1, 12665, Note_off_c, 1, 74, 96
1, 12665, Note_on_c, 1, 50, 96
1, 12667, Note_off_c, 1, 50, 96
1, 12667, Note_on_c, 1, 38, 96
1, 12669, Note_off_c, 1, 38, 96
1, 12669, Note_on_c, 1, 86, 96
1, 12670, Note_off_c, 1, 86, 96
1, 12672, Note_on_c, 1, 77, 96
1, 12673, Note_off_c, 1, 77, 96
1, 12730, Note_on_c, 1, 54, 96
1, 12733, Note_off_c, 1, 54, 96
1, 12733, Note_on_c, 1, 78, 96
1, 12733, Note_on_c, 1, 42, 96
1, 12735, Note_off_c, 1, 78, 96
1, 12735, Note_off_c, 1, 42, 96
1, 12735, Note_on_c, 1, 74, 96
1, 12737, Note_off_c, 1, 74, 96
1, 12737, Note_on_c, 1, 81, 96
1, 12739, Note_off_c, 1, 81, 96
1, 12739, Note_on_c, 1, 84, 96
1, 12740, Note_off_c, 1, 84, 96
1, 12798, Note_on_c, 1, 69, 96
1, 12800, Note_off_c, 1, 69, 96
1, 12800, Note_on_c, 1, 81, 96
1, 12801, Note_off_c, 1, 81, 96
1, 12858, Note_on_c, 1, 50, 96
1, 12859, Note_off_c, 1, 50, 96
1, 12864, Note_on_c, 1, 38, 96
1, 12865, Note_off_c, 1, 38, 96
1, 12983, Note_on_c, 1, 50, 96
1, 12984, Note_off_c, 1, 50, 96
1, 12986, Note_on_c, 1, 54, 96
1, 12988, Note_off_c, 1, 54, 96
1, 12988, Note_on_c, 1, 60, 96
1, 12989, Note_off_c, 1, 60, 96
1, 13043, Note_on_c, 1, 62, 96
1, 13044, Note_off_c, 1, 62, 96
1, 13106, Note_on_c, 1, 72, 96
1, 13108, Note_off_c, 1, 72, 96
1, 13108, Note_on_c, 1, 56, 96
1, 13109, Note_off_c, 1, 56, 96
1, 13111, Note_on_c, 1, 62, 96
1, 13113, Note_off_c, 1, 62, 96
1, 13113, Note_on_c, 1, 68, 96
1, 13114, Note_off_c, 1, 68, 96
1, 13229, Note_on_c, 1, 45, 96
1, 13232, Note_off_c, 1, 45, 96
1, 13232, Note_on_c, 1, 76, 96
1, 13232, Note_on_c, 1, 57, 96
1, 13234, Note_off_c, 1, 76, 96
1, 13234, Note_off_c, 1, 57, 96
1, 13234, Note_on_c, 1, 73, 96
1, 13235, Note_off_c, 1, 73, 96
1, 13350, Note_on_c, 1, 57, 96
1, 13352, Note_off_c, 1, 57, 96
1, 13352, Note_on_c, 1, 45, 96
1, 13353, Note_off_c, 1, 45, 96
1, 13356, Note_on_c, 1, 72, 96
1, 13357, Note_off_c, 1, 72, 96
1, 13416, Note_on_c, 1, 76, 96
1, 13417, Note_off_c, 1, 76, 96
1, 13477, Note_on_c, 1, 78, 96
1, 13477, Note_on_c, 1, 62, 96
1, 13477, Note_on_c, 1, 50, 96
1, 13478, Note_off_c, 1, 78, 96
1, 13478, Note_off_c, 1, 62, 96
1, 13478, Note_off_c, 1, 50, 96
1, 13544, Note_on_c, 1, 71, 96
1, 13545, Note_off_c, 1, 71, 96
1, 13601, Note_on_c, 1, 69, 96
1, 13601, Note_on_c, 1, 47, 96
1, 13602, Note_off_c, 1, 69, 96
1, 13602, Note_off_c, 1, 47, 96
1, 13659, Note_on_c, 1, 74, 96
1, 13660, Note_off_c, 1, 74, 96
1, 13722, Note_on_c, 1, 59, 96
1, 13723, Note_off_c, 1, 59, 96
1, 13725, Note_on_c, 1, 71, 96
1, 13727, Note_off_c, 1, 71, 96
1, 13727, Note_on_c, 1, 64, 96
1, 13729, Note_off_c, 1, 64, 96
1, 13729, Note_on_c, 1, 55, 96
1, 13731, Note_off_c, 1, 55, 96
1, 13731, Note_on_c, 1, 79, 96
1, 13732, Note_off_c, 1, 79, 96
1, 13792, Note_on_c, 1, 71, 96
1, 13793, Note_off_c, 1, 71, 96
1, 13849, Note_on_c, 1, 44, 96
1, 13850, Note_off_c, 1, 44, 96
1, 13852, Note_on_c, 1, 56, 96
1, 13853, Note_off_c, 1, 56, 96
1, 13910, Note_on_c, 1, 77, 96
1, 13911, Note_off_c, 1, 77, 96
1, 13972, Note_on_c, 1, 70, 96
1, 13972, Note_on_c, 1, 58, 96
1, 13973, Note_off_c, 1, 70, 96
1, 13973, Note_off_c, 1, 58, 96
1, 13975, Note_on_c, 1, 46, 96
1, 13976, Note_off_c, 1, 46, 96
1, 14036, Note_on_c, 1, 72, 96
1, 14037, Note_off_c, 1, 72, 96
1, 14091, Note_on_c, 1, 58, 96
1, 14092, Note_off_c, 1, 58, 96
1, 14096, Note_on_c, 1, 60, 96
1, 14098, Note_off_c, 1, 60, 96
1, 14098, Note_on_c, 1, 77, 96
1, 14099, Note_off_c, 1, 77, 96
1, 14159, Note_on_c, 1, 73, 96
1, 14160, Note_off_c, 1, 73, 96
1, 14217, Note_on_c, 1, 58, 96
1, 14220, Note_off_c, 1, 58, 96
1, 14220, Note_on_c, 1, 74, 96
1, 14220, Note_on_c, 1, 53, 96
1, 14222, Note_off_c, 1, 74, 96
1, 14222, Note_off_c, 1, 53, 96
1, 14222, Note_on_c, 1, 62, 96
1, 14223, Note_off_c, 1, 62, 96
1, 14280, Note_on_c, 1, 77, 96
1, 14281, Note_off_c, 1, 77, 96
1, 14340, Note_on_c, 1, 62, 96
1, 14341, Note_off_c, 1, 62, 96
1, 14344, Note_on_c, 1, 74, 96
1, 14346, Note_off_c, 1, 74, 96
1, 14346, Note_on_c, 1, 58, 96
1, 14349, Note_off_c, 1, 58, 96
1, 14349, Note_on_c, 1, 77, 96
1, 14349, Note_on_c, 1, 53, 96
1, 14350, Note_off_c, 1, 77, 96
1, 14350, Note_off_c, 1, 53, 96
1, 14407, Note_on_c, 1, 74, 96
1, 14408, Note_off_c, 1, 74, 96
1, 14467, Note_on_c, 1, 53, 96
1, 14468, Note_off_c, 1, 53, 96
1, 14470, Note_on_c, 1, 58, 96
1, 14471, Note_off_c, 1, 58, 96
1, 14473, Note_on_c, 1, 62, 96
1, 14474, Note_off_c, 1, 62, 96
1, 14532, Note_on_c, 1, 68, 96
1, 14533, Note_off_c, 1, 68, 96
1, 14590, Note_on_c, 1, 57, 96
1, 14591, Note_off_c, 1, 57, 96
1, 14595, Note_on_c, 1, 45, 96
1, 14596, Note_off_c, 1, 45, 96
1, 14658, Note_on_c, 1, 68, 96
1, 14659, Note_off_c, 1, 68, 96
1, 14715, Note_on_c, 1, 65, 96
1, 14716, Note_off_c, 1, 65, 96
1, 14720, Note_on_c, 1, 57, 96
1, 14720, Note_on_c, 1, 72, 96
1, 14720, Note_on_c, 1, 45, 96
1, 14721, Note_off_c, 1, 57, 96
1, 14721, Note_off_c, 1, 72, 96
1, 14721, Note_off_c, 1, 45, 96
1, 14842, Note_on_c, 1, 48, 96
1, 14843, Note_off_c, 1, 48, 96
1, 14959, Note_on_c, 1, 69, 96
1, 14960, Note_off_c, 1, 69, 96
1, 14963, Note_on_c, 1, 57, 96
1, 14964, Note_off_c, 1, 57, 96
1, 14967, Note_on_c, 1, 60, 96
1, 14968, Note_off_c, 1, 60, 96
1, 15052, Note_on_c, 1, 68, 96
1, 15053, Note_off_c, 1, 68, 96
1, 15083, Note_on_c, 1, 67, 96
1, 15085, Note_off_c, 1, 67, 96
1, 15085, Note_on_c, 1, 59, 96
1, 15086, Note_off_c, 1, 59, 96
1, 15088, Note_on_c, 1, 47, 96
1, 15089, Note_off_c, 1, 47, 96
1, 15205, Note_on_c, 1, 65, 96
1, 15205, Note_on_c, 1, 41, 96
1, 15208, Note_off_c, 1, 65, 96
1, 15208, Note_off_c, 1, 41, 96
1, 15208, Note_on_c, 1, 69, 96
1, 15208, Note_on_c, 1, 53, 96
1, 15209, Note_off_c, 1, 69, 96
1, 15209, Note_off_c, 1, 53, 96
1, 15300, Note_on_c, 1, 71, 96
1, 15301, Note_off_c, 1, 71, 96
1, 15332, Note_on_c, 1, 53, 96
1, 15333, Note_off_c, 1, 53, 96
1, 15336, Note_on_c, 1, 65, 96
1, 15337, Note_off_c, 1, 65, 96
1, 15455, Note_on_c, 1, 57, 96
1, 15455, Note_on_c, 1, 45, 96
1, 15456, Note_off_c, 1, 57, 96
1, 15456, Note_off_c, 1, 45, 96
1, 15543, Note_on_c, 1, 65, 96
1, 15544, Note_off_c, 1, 65, 96
1, 15575, Note_on_c, 1, 45, 96
1, 15576, Note_off_c, 1, 45, 96
1, 15579, Note_on_c, 1, 69, 96
1, 15580, Note_off_c, 1, 69, 96
1, 15819, Note_on_c, 1, 69, 96
1, 15821, Note_off_c, 1, 69, 96
1, 15821, Note_on_c, 1, 69, 96
1, 15822, Note_off_c, 1, 69, 96
1, 15878, Note_on_c, 1, 69, 96
1, 15880, Note_off_c, 1, 69, 96
1, 15880, Note_on_c, 1, 72, 96
1, 15881, Note_off_c, 1, 72, 96
1, 15884, Note_on_c, 1, 54, 96
1, 15884, Note_on_c, 1, 62, 96
1, 15885, Note_off_c, 1, 54, 96
1, 15885, Note_off_c, 1, 62, 96
1, 15948, Note_on_c, 1, 71, 96
1, 15948, Note_on_c, 1, 67, 96
1, 15950, Note_off_c, 1, 71, 96
1, 15950, Note_off_c, 1, 67, 96
1, 15950, Note_on_c, 1, 59, 96
1, 15951, Note_off_c, 1, 59, 96
1, 16006, Note_on_c, 1, 71, 96
1, 16010, Note_off_c, 1, 71, 96
1, 16010, Note_on_c, 1, 71, 96
1, 16010, Note_on_c, 1, 52, 96
1, 16010, Note_on_c, 1, 64, 96
1, 16012, Note_off_c, 1, 71, 96
1, 16012, Note_off_c, 1, 52, 96
1, 16012, Note_off_c, 1, 64, 96
1, 16012, Note_on_c, 1, 67, 96
1, 16013, Note_off_c, 1, 67, 96
1, 16015, Note_on_c, 1, 40, 96
1, 16016, Note_off_c, 1, 40, 96
1, 16131, Note_on_c, 1, 47, 96
1, 16133, Note_off_c, 1, 47, 96
1, 16133, Note_on_c, 1, 62, 96
1, 16134, Note_off_c, 1, 62, 96
1, 16136, Note_on_c, 1, 67, 96
1, 16137, Note_off_c, 1, 67, 96
1, 16192, Note_on_c, 1, 67, 96
1, 16193, Note_off_c, 1, 67, 96
1, 16249, Note_on_c, 1, 64, 96
1, 16250, Note_off_c, 1, 64, 96
1, 16252, Note_on_c, 1, 43, 96
1, 16253, Note_off_c, 1, 43, 96
1, 16310, Note_on_c, 1, 64, 96
1, 16311, Note_off_c, 1, 64, 96
1, 16374, Note_on_c, 1, 38, 96
1, 16375, Note_off_c, 1, 38, 96
1, 16437, Note_on_c, 1, 66, 96
1, 16438, Note_off_c, 1, 66, 96
1, 16494, Note_on_c, 1, 64, 96
1, 16495, Note_off_c, 1, 64, 96
1, 16500, Note_on_c, 1, 38, 96
1, 16501, Note_off_c, 1, 38, 96
1, 16559, Note_on_c, 1, 69, 96
1, 16560, Note_off_c, 1, 69, 96
1, 16619, Note_on_c, 1, 71, 96
1, 16620, Note_off_c, 1, 71, 96
1, 16623, Note_on_c, 1, 38, 96
1, 16624, Note_off_c, 1, 38, 96
1, 16685, Note_on_c, 1, 71, 96
1, 16686, Note_off_c, 1, 71, 96
1, 16743, Note_on_c, 1, 58, 96
1, 16745, Note_off_c, 1, 58, 96
1, 16745, Note_on_c, 1, 67, 96
1, 16749, Note_off_c, 1, 67, 96
1, 16749, Note_on_c, 1, 52, 96
1, 16749, Note_on_c, 1, 60, 96
1, 16749, Note_on_c, 1, 48, 96
1, 16750, Note_off_c, 1, 52, 96
1, 16750, Note_off_c, 1, 60, 96
1, 16750, Note_off_c, 1, 48, 96
1, 16812, Note_on_c, 1, 74, 96
1, 16813, Note_off_c, 1, 74, 96
1, 16871, Note_on_c, 1, 70, 96
1, 16874, Note_off_c, 1, 70, 96
1, 16874, Note_on_c, 1, 82, 96
1, 16874, Note_on_c, 1, 65, 96
1, 16877, Note_off_c, 1, 82, 96
1, 16877, Note_off_c, 1, 65, 96
1, 16877, Note_on_c, 1, 62, 96
1, 16877, Note_on_c, 1, 58, 96
1, 16878, Note_off_c, 1, 62, 96
1, 16878, Note_off_c, 1, 58, 96
1, 16993, Note_on_c, 1, 50, 96
1, 16995, Note_off_c, 1, 50, 96
1, 16995, Note_on_c, 1, 38, 96
1, 16996, Note_off_c, 1, 38, 96
1, 17116, Note_on_c, 1, 39, 96
1, 17118, Note_off_c, 1, 39, 96
1, 17118, Note_on_c, 1, 75, 96
1, 17119, Note_off_c, 1, 75, 96
1, 17121, Note_on_c, 1, 67, 96
1, 17122, Note_off_c, 1, 67, 96
1, 17127, Note_on_c, 1, 79, 96
1, 17127, Note_on_c, 1, 51, 96
1, 17128, Note_off_c, 1, 79, 96
1, 17128, Note_off_c, 1, 51, 96
1, 17249, Note_on_c, 1, 43, 96
1, 17249, Note_on_c, 1, 55, 96
1, 17250, Note_off_c, 1, 43, 96
1, 17250, Note_off_c, 1, 55, 96
1, 17366, Note_on_c, 1, 42, 96
1, 17367, Note_off_c, 1, 42, 96
1, 17370, Note_on_c, 1, 66, 96
1, 17371, Note_off_c, 1, 66, 96
1, 17427, Note_on_c, 1, 74, 96
1, 17428, Note_off_c, 1, 74, 96
1, 17492, Note_on_c, 1, 33, 96
1, 17493, Note_off_c, 1, 33, 96
1, 17552, Note_on_c, 1, 67, 96
1, 17553, Note_off_c, 1, 67, 96
1, 17612, Note_on_c, 1, 59, 96
1, 17613, Note_off_c, 1, 59, 96
1, 17615, Note_on_c, 1, 76, 96
1, 17616, Note_off_c, 1, 76, 96
1, 17621, Note_on_c, 1, 55, 96
1, 17621, Note_on_c, 1, 65, 96
1, 17622, Note_off_c, 1, 55, 96
1, 17622, Note_off_c, 1, 65, 96
1, 17679, Note_on_c, 1, 67, 96
1, 17680, Note_off_c, 1, 67, 96
1, 17739, Note_on_c, 1, 64, 96
1, 17740, Note_off_c, 1, 64, 96
1, 17746, Note_on_c, 1, 60, 96
1, 17746, Note_on_c, 1, 48, 96
1, 17747, Note_off_c, 1, 60, 96
1, 17747, Note_off_c, 1, 48, 96
1, 17802, Note_on_c, 1, 67, 96
1, 17803, Note_off_c, 1, 67, 96
1, 17862, Note_on_c, 1, 64, 96
1, 17863, Note_off_c, 1, 64, 96
1, 17867, Note_on_c, 1, 55, 96
1, 17867, Note_on_c, 1, 52, 96
1, 17869, Note_off_c, 1, 55, 96
1, 17869, Note_off_c, 1, 52, 96
1, 17869, Note_on_c, 1, 76, 96
1, 17871, Note_off_c, 1, 76, 96
1, 17871, Note_on_c, 1, 60, 96
1, 17872, Note_off_c, 1, 60, 96
1, 17931, Note_on_c, 1, 72, 96
1, 17932, Note_off_c, 1, 72, 96
1, 17988, Note_on_c, 1, 43, 96
1, 17990, Note_off_c, 1, 43, 96
1, 17990, Note_on_c, 1, 72, 96
1, 17991, Note_off_c, 1, 72, 96
1, 18050, Note_on_c, 1, 71, 96
1, 18051, Note_off_c, 1, 71, 96
1, 18110, Note_on_c, 1, 72, 96
1, 18111, Note_off_c, 1, 72, 96
1, 18115, Note_on_c, 1, 51, 96
1, 18115, Note_on_c, 1, 55, 96
1, 18117, Note_off_c, 1, 51, 96
1, 18117, Note_off_c, 1, 55, 96
1, 18117, Note_on_c, 1, 60, 96
1, 18118, Note_off_c, 1, 60, 96
1, 18235, Note_on_c, 1, 48, 96
1, 18237, Note_off_c, 1, 48, 96
1, 18237, Note_on_c, 1, 60, 96
1, 18238, Note_off_c, 1, 60, 96
1, 18298, Note_on_c, 1, 79, 96
1, 18299, Note_off_c, 1, 79, 96
1, 18355, Note_on_c, 1, 72, 96
1, 18356, Note_off_c, 1, 72, 96
1, 18359, Note_on_c, 1, 60, 96
1, 18360, Note_off_c, 1, 60, 96
1, 18363, Note_on_c, 1, 64, 96
1, 18363, Note_on_c, 1, 55, 96
1, 18364, Note_off_c, 1, 64, 96
1, 18364, Note_off_c, 1, 55, 96
1, 18422, Note_on_c, 1, 72, 96
1, 18423, Note_off_c, 1, 72, 96
1, 18481, Note_on_c, 1, 45, 96
1, 18482, Note_off_c, 1, 45, 96
1, 18484, Note_on_c, 1, 66, 96
1, 18485, Note_off_c, 1, 66, 96
1, 18487, Note_on_c, 1, 74, 96
1, 18488, Note_off_c, 1, 74, 96
1, 18548, Note_on_c, 1, 78, 96
1, 18549, Note_off_c, 1, 78, 96
1, 18609, Note_on_c, 1, 74, 96
1, 18609, Note_on_c, 1, 50, 96
1, 18613, Note_off_c, 1, 74, 96
1, 18613, Note_off_c, 1, 50, 96
1, 18613, Note_on_c, 1, 54, 96
1, 18613, Note_on_c, 1, 72, 96
1, 18613, Note_on_c, 1, 60, 96
1, 18616, Note_off_c, 1, 54, 96
1, 18616, Note_off_c, 1, 72, 96
1, 18616, Note_off_c, 1, 60, 96
1, 18616, Note_on_c, 1, 84, 96
1, 18616, Note_on_c, 1, 50, 96
1, 18617, Note_off_c, 1, 84, 96
1, 18617, Note_off_c, 1, 50, 96
1, 18676, Note_on_c, 1, 74, 96
1, 18677, Note_off_c, 1, 74, 96
1, 18739, Note_on_c, 1, 78, 96
1, 18739, Note_on_c, 1, 38, 96
1, 18740, Note_off_c, 1, 78, 96
1, 18740, Note_off_c, 1, 38, 96
1, 18801, Note_on_c, 1, 74, 96
1, 18802, Note_off_c, 1, 74, 96
1, 18859, Note_on_c, 1, 78, 96
1, 18861, Note_off_c, 1, 78, 96
1, 18861, Note_on_c, 1, 66, 96
1, 18862, Note_off_c, 1, 66, 96
1, 18864, Note_on_c, 1, 62, 96
1, 18865, Note_off_c, 1, 62, 96
1, 18867, Note_on_c, 1, 57, 96
1, 18868, Note_off_c, 1, 57, 96
1, 18928, Note_on_c, 1, 74, 96
1, 18929, Note_off_c, 1, 74, 96
1, 18985, Note_on_c, 1, 71, 96
1, 18985, Note_on_c, 1, 47, 96
1, 18986, Note_off_c, 1, 71, 96
1, 18986, Note_off_c, 1, 47, 96
1, 18989, Note_on_c, 1, 83, 96
1, 18989, Note_on_c, 1, 59, 96
1, 18990, Note_off_c, 1, 83, 96
1, 18990, Note_off_c, 1, 59, 96
1, 19110, Note_on_c, 1, 75, 96
1, 19111, Note_off_c, 1, 75, 96
1, 19166, Note_on_c, 1, 67, 96
1, 19167, Note_off_c, 1, 67, 96
1, 19169, Note_on_c, 1, 79, 96
1, 19170, Note_off_c, 1, 79, 96
1, 19234, Note_on_c, 1, 79, 96
1, 19234, Note_on_c, 1, 55, 96
1, 19236, Note_off_c, 1, 79, 96
1, 19236, Note_off_c, 1, 55, 96
1, 19236, Note_on_c, 1, 43, 96
1, 19237, Note_off_c, 1, 43, 96
1, 19293, Note_on_c, 1, 74, 96
1, 19294, Note_off_c, 1, 74, 96
1, 19352, Note_on_c, 1, 59, 96
1, 19354, Note_off_c, 1, 59, 96
1, 19354, Note_on_c, 1, 74, 96
1, 19355, Note_off_c, 1, 74, 96
1, 19357, Note_on_c, 1, 55, 96
1, 19358, Note_off_c, 1, 55, 96
1, 19361, Note_on_c, 1, 53, 96
1, 19362, Note_off_c, 1, 53, 96
1, 19417, Note_on_c, 1, 79, 96
1, 19418, Note_off_c, 1, 79, 96
1, 19477, Note_on_c, 1, 53, 96
1, 19478, Note_off_c, 1, 53, 96
1, 19486, Note_on_c, 1, 59, 96
1, 19486, Note_on_c, 1, 55, 96
1, 19487, Note_off_c, 1, 59, 96
1, 19487, Note_off_c, 1, 55, 96
1, 19549, Note_on_c, 1, 67, 96
1, 19550, Note_off_c, 1, 67, 96
1, 19601, Note_on_c, 1, 48, 96
1, 19603, Note_off_c, 1, 48, 96
1, 19603, Note_on_c, 1, 72, 96
1, 19604, Note_off_c, 1, 72, 96
1, 19667, Note_on_c, 1, 73, 96
1, 19668, Note_off_c, 1, 73, 96
1, 19724, Note_on_c, 1, 76, 96
1, 19726, Note_off_c, 1, 76, 96
1, 19726, Note_on_c, 1, 60, 96
1, 19727, Note_off_c, 1, 60, 96
1, 19731, Note_on_c, 1, 64, 96
1, 19733, Note_off_c, 1, 64, 96
1, 19733, Note_on_c, 1, 55, 96
1, 19734, Note_off_c, 1, 55, 96
1, 19794, Note_on_c, 1, 72, 96
1, 19795, Note_off_c, 1, 72, 96
1, 19850, Note_on_c, 1, 74, 96
1, 19852, Note_off_c, 1, 74, 96
1, 19852, Note_on_c, 1, 48, 96
1, 19853, Note_off_c, 1, 48, 96
1, 19918, Note_on_c, 1, 72, 96
1, 19919, Note_off_c, 1, 72, 96
1, 19976, Note_on_c, 1, 52, 96
1, 19977, Note_off_c, 1, 52, 96
1, 19982, Note_on_c, 1, 77, 96
1, 19983, Note_off_c, 1, 77, 96
1, 20040, Note_on_c, 1, 74, 96
1, 20041, Note_off_c, 1, 74, 96
1, 20100, Note_on_c, 1, 75, 96
1, 20102, Note_off_c, 1, 75, 96
1, 20102, Note_on_c, 1, 48, 96
1, 20103, Note_off_c, 1, 48, 96
1, 20165, Note_on_c, 1, 76, 96
1, 20166, Note_off_c, 1, 76, 96
1, 20226, Note_on_c, 1, 74, 96
1, 20226, Note_on_c, 1, 77, 96
1, 20226, Note_on_c, 1, 43, 96
1, 20227, Note_off_c, 1, 74, 96
1, 20227, Note_off_c, 1, 77, 96
1, 20227, Note_off_c, 1, 43, 96
1, 20230, Note_on_c, 1, 65, 96
1, 20231, Note_off_c, 1, 65, 96
1, 20289, Note_on_c, 1, 77, 96
1, 20290, Note_off_c, 1, 77, 96
1, 20346, Note_on_c, 1, 61, 96
1, 20348, Note_off_c, 1, 61, 96
1, 20348, Note_on_c, 1, 49, 96
1, 20349, Note_off_c, 1, 49, 96
1, 20413, Note_on_c, 1, 76, 96
1, 20414, Note_off_c, 1, 76, 96
1, 20473, Note_on_c, 1, 76, 96
1, 20477, Note_off_c, 1, 76, 96
1, 20477, Note_on_c, 1, 60, 96
1, 20477, Note_on_c, 1, 58, 96
1, 20477, Note_on_c, 1, 64, 96
1, 20478, Note_off_c, 1, 60, 96
1, 20478, Note_off_c, 1, 58, 96
1, 20478, Note_off_c, 1, 64, 96
1, 20538, Note_on_c, 1, 74, 96
1, 20539, Note_off_c, 1, 74, 96
1, 20596, Note_on_c, 1, 60, 96
1, 20596, Note_on_c, 1, 48, 96
1, 20597, Note_off_c, 1, 60, 96
1, 20597, Note_off_c, 1, 48, 96
1, 20599, Note_on_c, 1, 69, 96
1, 20601, Note_off_c, 1, 69, 96
1, 20601, Note_on_c, 1, 77, 96
1, 20602, Note_off_c, 1, 77, 96
1, 20656, Note_on_c, 1, 69, 96
1, 20657, Note_off_c, 1, 69, 96
1, 20663, Note_on_c, 1, 77, 96
1, 20664, Note_off_c, 1, 77, 96
1, 20720, Note_on_c, 1, 60, 96
1, 20722, Note_off_c, 1, 60, 96
1, 20722, Note_on_c, 1, 57, 96
1, 20723, Note_off_c, 1, 57, 96
1, 20725, Note_on_c, 1, 53, 96
1, 20726, Note_off_c, 1, 53, 96
1, 20783, Note_on_c, 1, 72, 96
1, 20784, Note_off_c, 1, 72, 96
1, 20883, Note_on_c, 1, 77, 96
1, 20884, Note_off_c, 1, 77, 96
1, 20918, Note_on_c, 1, 50, 96
1, 20919, Note_off_c, 1, 50, 96
1, 20922, Note_on_c, 1, 69, 96
1, 20923, Note_off_c, 1, 69, 96
1, 20978, Note_on_c, 1, 82, 96
1, 20980, Note_off_c, 1, 82, 96
1, 20980, Note_on_c, 1, 88, 96
1, 20981, Note_off_c, 1, 88, 96
1, 21034, Note_on_c, 1, 88, 96
1, 21035, Note_off_c, 1, 88, 96
1, 21043, Note_on_c, 1, 76, 96
1, 21043, Note_on_c, 1, 79, 96
1, 21044, Note_off_c, 1, 76, 96
1, 21044, Note_off_c, 1, 79, 96
1, 21167, Note_on_c, 1, 82, 96
1, 21167, Note_on_c, 1, 74, 96
1, 21168, Note_off_c, 1, 82, 96
1, 21168, Note_off_c, 1, 74, 96
1, 21412, Note_on_c, 1, 72, 96
1, 21412, Note_on_c, 1, 84, 96
1, 21413, Note_off_c, 1, 72, 96
1, 21413, Note_off_c, 1, 84, 96
1, 21415, Note_on_c, 1, 51, 96
1, 21417, Note_off_c, 1, 51, 96
1, 21417, Note_on_c, 1, 76, 96
1, 21418, Note_off_c, 1, 76, 96
1, 21536, Note_on_c, 1, 77, 96
1, 21537, Note_off_c, 1, 77, 96
1, 21774, Note_on_c, 1, 50, 96
1, 21775, Note_off_c, 1, 50, 96
1, 21780, Note_on_c, 1, 62, 96
1, 21781, Note_off_c, 1, 62, 96
1, 21845, Note_on_c, 1, 58, 96
1, 21845, Note_on_c, 1, 65, 96
1, 21848, Note_off_c, 1, 58, 96
1, 21848, Note_off_c, 1, 65, 96
1, 21848, Note_on_c, 1, 56, 96
1, 21848, Note_on_c, 1, 62, 96
1, 21849, Note_off_c, 1, 56, 96
1, 21849, Note_off_c, 1, 62, 96
1, 21945, Note_on_c, 1, 67, 96
1, 21945, Note_on_c, 1, 63, 96
1, 21946, Note_off_c, 1, 67, 96
1, 21946, Note_off_c, 1, 63, 96
1, 22025, Note_on_c, 1, 57, 96
1, 22026, Note_off_c, 1, 57, 96
1, 22029, Note_on_c, 1, 62, 96
1, 22030, Note_off_c, 1, 62, 96
1, 22145, Note_on_c, 1, 63, 96
1, 22146, Note_off_c, 1, 63, 96
1, 22265, Note_on_c, 1, 48, 96
1, 22266, Note_off_c, 1, 48, 96
1, 22272, Note_on_c, 1, 60, 96
1, 22273, Note_off_c, 1, 60, 96
1, 22320, Note_on_c, 1, 66, 96
1, 22321, Note_off_c, 1, 66, 96
1, 22326, Note_on_c, 1, 57, 96
1, 22327, Note_off_c, 1, 57, 96
1, 22332, Note_on_c, 1, 62, 96
1, 22333, Note_off_c, 1, 62, 96
1, 22419, Note_on_c, 1, 48, 96
1, 22420, Note_off_c, 1, 48, 96
1, 22422, Note_on_c, 1, 60, 96
1, 22423, Note_off_c, 1, 60, 96
1, 22517, Note_on_c, 1, 62, 96
1, 22518, Note_off_c, 1, 62, 96
1, 22526, Note_on_c, 1, 60, 96
1, 22526, Note_on_c, 1, 57, 96
1, 22527, Note_off_c, 1, 60, 96
1, 22527, Note_off_c, 1, 57, 96
1, 22620, Note_on_c, 1, 53, 96
1, 22621, Note_off_c, 1, 53, 96
1, 22764, Note_on_c, 1, 57, 96
1, 22765, Note_off_c, 1, 57, 96
1, 22768, Note_on_c, 1, 50, 96
1, 22769, Note_off_c, 1, 50, 96
1, 22880, Note_on_c, 1, 44, 96
1, 22880, Note_on_c, 1, 59, 96
1, 22881, Note_off_c, 1, 44, 96
1, 22881, Note_off_c, 1, 59, 96
1, 23065, Note_on_c, 1, 70, 96
1, 23066, Note_off_c, 1, 70, 96
1, 23126, Note_on_c, 1, 57, 96
1, 23126, Note_on_c, 1, 65, 96
1, 23126, Note_on_c, 1, 60, 96
1, 23127, Note_off_c, 1, 57, 96
1, 23127, Note_off_c, 1, 65, 96
1, 23127, Note_off_c, 1, 60, 96
1, 23129, Note_on_c, 1, 72, 96
1, 23131, Note_off_c, 1, 72, 96
1, 23131, Note_on_c, 1, 53, 96
1, 23132, Note_off_c, 1, 53, 96
1, 23249, Note_on_c, 1, 65, 96
1, 23249, Note_on_c, 1, 69, 96
1, 23250, Note_off_c, 1, 65, 96
1, 23250, Note_off_c, 1, 69, 96
1, 23252, Note_on_c, 1, 72, 96
1, 23253, Note_off_c, 1, 72, 96
1, 23257, Note_on_c, 1, 41, 96
1, 23259, Note_off_c, 1, 41, 96
1, 23259, Note_on_c, 1, 53, 96
1, 23260, Note_off_c, 1, 53, 96
1, 23493, Note_on_c, 1, 50, 96
1, 23495, Note_off_c, 1, 50, 96
1, 23495, Note_on_c, 1, 71, 96
1, 23496, Note_off_c, 1, 71, 96
1, 23499, Note_on_c, 1, 65, 96
1, 23500, Note_off_c, 1, 65, 96
1, 23740, Note_on_c, 1, 45, 96
1, 23741, Note_off_c, 1, 45, 96
1, 23859, Note_on_c, 1, 54, 96
1, 23861, Note_off_c, 1, 54, 96
1, 23861, Note_on_c, 1, 62, 96
1, 23864, Note_off_c, 1, 62, 96
1, 23864, Note_on_c, 1, 71, 96
1, 23864, Note_on_c, 1, 60, 96
1, 23865, Note_off_c, 1, 71, 96
1, 23865, Note_off_c, 1, 60, 96
1, 23984, Note_on_c, 1, 44, 96
1, 23985, Note_off_c, 1, 44, 96
1, 23988, Note_on_c, 1, 56, 96
1, 23989, Note_off_c, 1, 56, 96
1, 24107, Note_on_c, 1, 48, 96
1, 24109, Note_off_c, 1, 48, 96
1, 24109, Note_on_c, 1, 69, 96
1, 24110, Note_off_c, 1, 69, 96
1, 24225, Note_on_c, 1, 55, 96
1, 24226, Note_off_c, 1, 55, 96
1, 24228, Note_on_c, 1, 60, 96
1, 24229, Note_off_c, 1, 60, 96
1, 24233, Note_on_c, 1, 74, 96
1, 24233, Note_on_c, 1, 58, 96
1, 24235, Note_off_c, 1, 74, 96
1, 24235, Note_off_c, 1, 58, 96
1, 24235, Note_on_c, 1, 64, 96
1, 24236, Note_off_c, 1, 64, 96
1, 24354, Note_on_c, 1, 70, 96
1, 24355, Note_off_c, 1, 70, 96
1, 24357, Note_on_c, 1, 52, 96
1, 24358, Note_off_c, 1, 52, 96
1, 24475, Note_on_c, 1, 72, 96
1, 24477, Note_off_c, 1, 72, 96
1, 24477, Note_on_c, 1, 53, 96
1, 24479, Note_off_c, 1, 53, 96
1, 24479, Note_on_c, 1, 69, 96
1, 24480, Note_off_c, 1, 69, 96
1, 24595, Note_on_c, 1, 53, 96
1, 24596, Note_off_c, 1, 53, 96
1, 24599, Note_on_c, 1, 69, 96
1, 24600, Note_off_c, 1, 69, 96
1, 24717, Note_on_c, 1, 75, 96
1, 24718, Note_off_c, 1, 75, 96
1, 24720, Note_on_c, 1, 69, 96
1, 24721, Note_off_c, 1, 69, 96
1, 24839, Note_on_c, 1, 74, 96
1, 24840, Note_off_c, 1, 74, 96
1, 24846, Note_on_c, 1, 70, 96
1, 24847, Note_off_c, 1, 70, 96
1, 24902, Note_on_c, 1, 57, 96
1, 24903, Note_off_c, 1, 57, 96
1, 24907, Note_on_c, 1, 72, 96
1, 24908, Note_off_c, 1, 72, 96
1, 24910, Note_on_c, 1, 48, 96
1, 24911, Note_off_c, 1, 48, 96
1, 25025, Note_on_c, 1, 67, 96
1, 25027, Note_off_c, 1, 67, 96
1, 25027, Note_on_c, 1, 60, 96
1, 25028, Note_off_c, 1, 60, 96
1, 25032, Note_on_c, 1, 58, 96
1, 25033, Note_off_c, 1, 58, 96
1, 25152, Note_on_c, 1, 60, 96
1, 25154, Note_off_c, 1, 60, 96
1, 25154, Note_on_c, 1, 70, 96
1, 25155, Note_off_c, 1, 70, 96
1, 25157, Note_on_c, 1, 62, 96
1, 25158, Note_off_c, 1, 62, 96
1, 25160, Note_on_c, 1, 58, 96
1, 25161, Note_off_c, 1, 58, 96
1, 25275, Note_on_c, 1, 72, 96
1, 25275, Note_on_c, 1, 51, 96
1, 25276, Note_off_c, 1, 72, 96
1, 25276, Note_off_c, 1, 51, 96
1, 25280, Note_on_c, 1, 72, 96
1, 25281, Note_off_c, 1, 72, 96
1, 25401, Note_on_c, 1, 43, 96
1, 25402, Note_off_c, 1, 43, 96
1, 25404, Note_on_c, 1, 55, 96
1, 25405, Note_off_c, 1, 55, 96
1, 25521, Note_on_c, 1, 55, 96
1, 25522, Note_off_c, 1, 55, 96
1, 25527, Note_on_c, 1, 43, 96
1, 25528, Note_off_c, 1, 43, 96
1, 25642, Note_on_c, 1, 67, 96
1, 25643, Note_off_c, 1, 67, 96
1, 25647, Note_on_c, 1, 60, 96
1, 25649, Note_off_c, 1, 60, 96
1, 25649, Note_on_c, 1, 64, 96
1, 25650, Note_off_c, 1, 64, 96
1, 25705, Note_on_c, 1, 69, 96
1, 25706, Note_off_c, 1, 69, 96
1, 25710, Note_on_c, 1, 57, 96
1, 25711, Note_off_c, 1, 57, 96
1, 25768, Note_on_c, 1, 66, 96
1, 25769, Note_off_c, 1, 66, 96
1, 25771, Note_on_c, 1, 63, 96
1, 25773, Note_off_c, 1, 63, 96
1, 25773, Note_on_c, 1, 66, 96
1, 25775, Note_off_c, 1, 66, 96
1, 25775, Note_on_c, 1, 60, 96
1, 25776, Note_off_c, 1, 60, 96
1, 25891, Note_on_c, 1, 71, 96
1, 25892, Note_off_c, 1, 71, 96
1, 25897, Note_on_c, 1, 67, 96
1, 25898, Note_off_c, 1, 67, 96
1, 25900, Note_on_c, 1, 43, 96
1, 25901, Note_off_c, 1, 43, 96
1, 26018, Note_on_c, 1, 59, 96
1, 26018, Note_on_c, 1, 50, 96
1, 26019, Note_off_c, 1, 59, 96
1, 26019, Note_off_c, 1, 50, 96
1, 26023, Note_on_c, 1, 64, 96
1, 26025, Note_off_c, 1, 64, 96
1, 26025, Note_on_c, 1, 55, 96
1, 26026, Note_off_c, 1, 55, 96
1, 26141, Note_on_c, 1, 67, 96
1, 26142, Note_off_c, 1, 67, 96
1, 26147, Note_on_c, 1, 62, 96
1, 26147, Note_on_c, 1, 55, 96
1, 26148, Note_off_c, 1, 62, 96
1, 26148, Note_off_c, 1, 55, 96
1, 26265, Note_on_c, 1, 50, 96
1, 26267, Note_off_c, 1, 50, 96
1, 26267, Note_on_c, 1, 67, 96
1, 26268, Note_off_c, 1, 67, 96
1, 26271, Note_on_c, 1, 59, 96
1, 26271, Note_on_c, 1, 55, 96
1, 26272, Note_off_c, 1, 59, 96
1, 26272, Note_off_c, 1, 55, 96
1, 26274, Note_on_c, 1, 55, 96
1, 26275, Note_off_c, 1, 55, 96
1, 26392, Note_on_c, 1, 59, 96
1, 26393, Note_off_c, 1, 59, 96
1, 26395, Note_on_c, 1, 67, 96
1, 26396, Note_off_c, 1, 67, 96
1, 26453, Note_on_c, 1, 74, 96
1, 26454, Note_off_c, 1, 74, 96
1, 26515, Note_on_c, 1, 45, 96
1, 26516, Note_off_c, 1, 45, 96
1, 26518, Note_on_c, 1, 69, 96
1, 26519, Note_off_c, 1, 69, 96
1, 26699, Note_on_c, 1, 74, 96
1, 26700, Note_off_c, 1, 74, 96
1, 26757, Note_on_c, 1, 70, 96
1, 26757, Note_on_c, 1, 67, 96
1, 26759, Note_off_c, 1, 70, 96
1, 26759, Note_off_c, 1, 67, 96
1, 26759, Note_on_c, 1, 46, 96
1, 26760, Note_off_c, 1, 46, 96
1, 26764, Note_on_c, 1, 60, 96
1, 26765, Note_off_c, 1, 60, 96
1, 27005, Note_on_c, 1, 62, 96
1, 27006, Note_off_c, 1, 62, 96
1, 27010, Note_on_c, 1, 67, 96
1, 27010, Note_on_c, 1, 71, 96
1, 27011, Note_off_c, 1, 67, 96
1, 27011, Note_off_c, 1, 71, 96
1, 27143, Note_on_c, 1, 65, 96
1, 27144, Note_off_c, 1, 65, 96
1, 27165, Note_on_c, 1, 59, 96
1, 27169, Note_off_c, 1, 59, 96
1, 27169, Note_on_c, 1, 65, 96
1, 27169, Note_on_c, 1, 69, 96
1, 27169, Note_on_c, 1, 55, 96
1, 27170, Note_off_c, 1, 65, 96
1, 27170, Note_off_c, 1, 69, 96
1, 27170, Note_off_c, 1, 55, 96
1, 27212, Note_on_c, 1, 66, 96
1, 27213, Note_off_c, 1, 66, 96
1, 27215, Note_on_c, 1, 74, 96
1, 27216, Note_off_c, 1, 74, 96
1, 27329, Note_on_c, 1, 70, 96
1, 27330, Note_off_c, 1, 70, 96
1, 27349, Note_on_c, 1, 69, 96
1, 27349, Note_on_c, 1, 55, 96
1, 27350, Note_off_c, 1, 69, 96
1, 27350, Note_off_c, 1, 55, 96
1, 27448, Note_on_c, 1, 62, 96
1, 27448, Note_on_c, 1, 65, 96
1, 27449, Note_off_c, 1, 62, 96
1, 27449, Note_off_c, 1, 65, 96
1, 27453, Note_on_c, 1, 55, 96
1, 27455, Note_off_c, 1, 55, 96
1, 27455, Note_on_c, 1, 58, 96
1, 27457, Note_off_c, 1, 58, 96
1, 27457, Note_on_c, 1, 67, 96
1, 27458, Note_off_c, 1, 67, 96
1, 27536, Note_on_c, 1, 44, 96
1, 27536, Note_on_c, 1, 56, 96
1, 27537, Note_off_c, 1, 44, 96
1, 27537, Note_off_c, 1, 56, 96
1, 27545, Note_on_c, 1, 67, 96
1, 27546, Note_off_c, 1, 67, 96
1, 27607, Note_on_c, 1, 67, 96
1, 27609, Note_off_c, 1, 67, 96
1, 27609, Note_on_c, 1, 71, 96
1, 27610, Note_off_c, 1, 71, 96
1, 27669, Note_on_c, 1, 71, 96
1, 27671, Note_off_c, 1, 71, 96
1, 27671, Note_on_c, 1, 55, 96
1, 27674, Note_off_c, 1, 55, 96
1, 27674, Note_on_c, 1, 62, 96
1, 27674, Note_on_c, 1, 50, 96
1, 27675, Note_off_c, 1, 62, 96
1, 27675, Note_off_c, 1, 50, 96
1, 27742, Note_on_c, 1, 62, 96
1, 27743, Note_off_c, 1, 62, 96
1, 27794, Note_on_c, 1, 46, 96
1, 27795, Note_off_c, 1, 46, 96
1, 27893, Note_on_c, 1, 56, 96
1, 27894, Note_off_c, 1, 56, 96
1, 27898, Note_on_c, 1, 71, 96
1, 27898, Note_on_c, 1, 68, 96
1, 27898, Note_on_c, 1, 68, 96
1, 27899, Note_off_c, 1, 71, 96
1, 27899, Note_off_c, 1, 68, 96
1, 27899, Note_off_c, 1, 68, 96
1, 27992, Note_on_c, 1, 34, 96
1, 27993, Note_off_c, 1, 34, 96
1, 28228, Note_on_c, 1, 67, 96
1, 28228, Note_on_c, 1, 62, 96
1, 28230, Note_off_c, 1, 67, 96
1, 28230, Note_off_c, 1, 62, 96
1, 28230, Note_on_c, 1, 43, 96
1, 28231, Note_off_c, 1, 43, 96
1, 28349, Note_on_c, 1, 69, 96
1, 28350, Note_off_c, 1, 69, 96
1, 28353, Note_on_c, 1, 65, 96
1, 28354, Note_off_c, 1, 65, 96
1, 28416, Note_on_c, 1, 59, 96
1, 28416, Note_on_c, 1, 50, 96
1, 28416, Note_on_c, 1, 55, 96
1, 28417, Note_off_c, 1, 59, 96
1, 28417, Note_off_c, 1, 50, 96
1, 28417, Note_off_c, 1, 55, 96
1, 28488, Note_on_c, 1, 71, 96
1, 28489, Note_off_c, 1, 71, 96
1, 28589, Note_on_c, 1, 64, 96
1, 28589, Note_on_c, 1, 57, 96
1, 28589, Note_on_c, 1, 48, 96
1, 28590, Note_off_c, 1, 64, 96
1, 28590, Note_off_c, 1, 57, 96
1, 28590, Note_off_c, 1, 48, 96
1, 28832, Note_on_c, 1, 60, 96
1, 28832, Note_on_c, 1, 64, 96
1, 28832, Note_on_c, 1, 57, 96
1, 28832, Note_on_c, 1, 65, 96
1, 28834, Note_off_c, 1, 60, 96
1, 28834, Note_off_c, 1, 64, 96
1, 28834, Note_off_c, 1, 57, 96
1, 28834, Note_off_c, 1, 65, 96
1, 28834, Note_on_c, 1, 60, 96
1, 28839, Note_off_c, 1, 60, 96
1, 28839, Note_on_c, 1, 57, 96
1, 28839, Note_on_c, 1, 63, 96
1, 28839, Note_on_c, 1, 41, 96
1, 28839, Note_on_c, 1, 53, 96
1, 28840, Note_off_c, 1, 57, 96
1, 28840, Note_off_c, 1, 63, 96
1, 28840, Note_off_c, 1, 41, 96
1, 28840, Note_off_c, 1, 53, 96
1, 29029, Note_on_c, 1, 57, 96
1, 29029, Note_on_c, 1, 66, 96
1, 29030, Note_off_c, 1, 57, 96
1, 29030, Note_off_c, 1, 66, 96
1, 29123, Note_on_c, 1, 59, 96
1, 29123, Note_on_c, 1, 53, 96
1, 29123, Note_on_c, 1, 62, 96
1, 29124, Note_off_c, 1, 59, 96
1, 29124, Note_off_c, 1, 53, 96
1, 29124, Note_off_c, 1, 62, 96
1, 29187, Note_on_c, 1, 65, 96
1, 29187, Note_on_c, 1, 48, 96
1, 29187, Note_on_c, 1, 55, 96
1, 29187, Note_on_c, 1, 59, 96
1, 29188, Note_off_c, 1, 65, 96
1, 29188, Note_off_c, 1, 48, 96
1, 29188, Note_off_c, 1, 55, 96
1, 29188, Note_off_c, 1, 59, 96
1, 29249, Note_on_c, 1, 45, 96
1, 29249, Note_on_c, 1, 57, 96
1, 29250, Note_off_c, 1, 45, 96
1, 29250, Note_off_c, 1, 57, 96
1, 29311, Note_on_c, 1, 41, 96
1, 29311, Note_on_c, 1, 53, 96
1, 29312, Note_off_c, 1, 41, 96
1, 29312, Note_off_c, 1, 53, 96
1, 29373, Note_on_c, 1, 41, 96
1, 29373, Note_on_c, 1, 53, 96
1, 29374, Note_off_c, 1, 41, 96
1, 29374, Note_off_c, 1, 53, 96
1, 29435, Note_on_c, 1, 42, 96
1, 29435, Note_on_c, 1, 54, 96
1, 29436, Note_off_c, 1, 42, 96
1, 29436, Note_off_c, 1, 54, 96
1, 29497, Note_on_c, 1, 62, 96
1, 29497, Note_on_c, 1, 50, 96
1, 29498, Note_off_c, 1, 62, 96
1, 29498, Note_off_c, 1, 50, 96
1, 29619, Note_on_c, 1, 66, 96
1, 29619, Note_on_c, 1, 72, 96
1, 29620, Note_off_c, 1, 66, 96
1, 29620, Note_off_c, 1, 72, 96
1, 29680, Note_on_c, 1, 73, 96
1, 29681, Note_off_c, 1, 73, 96
1, 29745, Note_on_c, 1, 75, 96
1, 29745, Note_on_c, 1, 54, 96
1, 29745, Note_on_c, 1, 50, 96
1, 29745, Note_on_c, 1, 54, 96
1, 29745, Note_on_c, 1, 58, 96
1, 29746, Note_off_c, 1, 75, 96
1, 29746, Note_off_c, 1, 54, 96
1, 29746, Note_off_c, 1, 50, 96
1, 29746, Note_off_c, 1, 54, 96
1, 29746, Note_off_c, 1, 58, 96
1, 29807, Note_on_c, 1, 70, 96
1, 29807, Note_on_c, 1, 66, 96
1, 29808, Note_off_c, 1, 70, 96
1, 29808, Note_off_c, 1, 66, 96
1, 29872, Note_on_c, 1, 79, 96
1, 29872, Note_on_c, 1, 67, 96
1, 29872, Note_on_c, 1, 75, 96
1, 29872, Note_on_c, 1, 58, 96
1, 29872, Note_on_c, 1, 46, 96
1, 29873, Note_off_c, 1, 79, 96
1, 29873, Note_off_c, 1, 67, 96
1, 29873, Note_off_c, 1, 75, 96
1, 29873, Note_off_c, 1, 58, 96
1, 29873, Note_off_c, 1, 46, 96
1, 29933, Note_on_c, 1, 77, 96
1, 29934, Note_off_c, 1, 77, 96
1, 29997, Note_on_c, 1, 68, 96
1, 29997, Note_on_c, 1, 75, 96
1, 29997, Note_on_c, 1, 43, 96
1, 29997, Note_on_c, 1, 55, 96
1, 29998, Note_off_c, 1, 68, 96
1, 29998, Note_off_c, 1, 75, 96
1, 29998, Note_off_c, 1, 43, 96
1, 29998, Note_off_c, 1, 55, 96
1, 30059, Note_on_c, 1, 69, 96
1, 30059, Note_on_c, 1, 77, 96
1, 30060, Note_off_c, 1, 69, 96
1, 30060, Note_off_c, 1, 77, 96
1, 30121, Note_on_c, 1, 58, 96
1, 30121, Note_on_c, 1, 46, 96
1, 30122, Note_off_c, 1, 58, 96
1, 30122, Note_off_c, 1, 46, 96
1, 30182, Note_on_c, 1, 65, 96
1, 30183, Note_off_c, 1, 65, 96
1, 30247, Note_on_c, 1, 70, 96
1, 30247, Note_on_c, 1, 77, 96
1, 30247, Note_on_c, 1, 58, 96
1, 30247, Note_on_c, 1, 68, 96
1, 30247, Note_on_c, 1, 62, 96
1, 30248, Note_off_c, 1, 70, 96
1, 30248, Note_off_c, 1, 77, 96
1, 30248, Note_off_c, 1, 58, 96
1, 30248, Note_off_c, 1, 68, 96
1, 30248, Note_off_c, 1, 62, 96
1, 30309, Note_on_c, 1, 81, 96
1, 30309, Note_on_c, 1, 69, 96
1, 30310, Note_off_c, 1, 81, 96
1, 30310, Note_off_c, 1, 69, 96
1, 30371, Note_on_c, 1, 41, 96
1, 30371, Note_on_c, 1, 53, 96
1, 30372, Note_off_c, 1, 41, 96
1, 30372, Note_off_c, 1, 53, 96
1, 30495, Note_on_c, 1, 78, 96
1, 30495, Note_on_c, 1, 81, 96
1, 30495, Note_on_c, 1, 86, 96
1, 30495, Note_on_c, 1, 74, 96
1, 30496, Note_off_c, 1, 78, 96
1, 30496, Note_off_c, 1, 81, 96
1, 30496, Note_off_c, 1, 86, 96
1, 30496, Note_off_c, 1, 74, 96
1, 30559, Note_on_c, 1, 57, 96
1, 30559, Note_on_c, 1, 54, 96
1, 30559, Note_on_c, 1, 78, 96
1, 30559, Note_on_c, 1, 62, 96
1, 30560, Note_off_c, 1, 57, 96
1, 30560, Note_off_c, 1, 54, 96
1, 30560, Note_off_c, 1, 78, 96
1, 30560, Note_off_c, 1, 62, 96
1, 30622, Note_on_c, 1, 82, 96
1, 30622, Note_on_c, 1, 77, 96
1, 30622, Note_on_c, 1, 70, 96
1, 30623, Note_off_c, 1, 82, 96
1, 30623, Note_off_c, 1, 77, 96
1, 30623, Note_off_c, 1, 70, 96
1, 30689, Note_on_c, 1, 86, 96
1, 30689, Note_on_c, 1, 77, 96
1, 30689, Note_on_c, 1, 74, 96
1, 30689, Note_on_c, 1, 65, 96
1, 30689, Note_on_c, 1, 53, 96
1, 30689, Note_on_c, 1, 62, 96
1, 30689, Note_on_c, 1, 58, 96
1, 30690, Note_off_c, 1, 86, 96
1, 30690, Note_off_c, 1, 77, 96
1, 30690, Note_off_c, 1, 74, 96
1, 30690, Note_off_c, 1, 65, 96
1, 30690, Note_off_c, 1, 53, 96
1, 30690, Note_off_c, 1, 62, 96
1, 30690, Note_off_c, 1, 58, 96
1, 30750, Note_on_c, 1, 82, 96
1, 30751, Note_off_c, 1, 82, 96
1, 30814, Note_on_c, 1, 79, 96
1, 30814, Note_on_c, 1, 58, 96
1, 30814, Note_on_c, 1, 62, 96
1, 30814, Note_on_c, 1, 53, 96
1, 30815, Note_off_c, 1, 79, 96
1, 30815, Note_off_c, 1, 58, 96
1, 30815, Note_off_c, 1, 62, 96
1, 30815, Note_off_c, 1, 53, 96
1, 30875, Note_on_c, 1, 82, 96
1, 30876, Note_off_c, 1, 82, 96
1, 30896, Note_on_c, 1, 79, 96
1, 30897, Note_off_c, 1, 79, 96
1, 31110, Note_on_c, 1, 75, 96
1, 31110, Note_on_c, 1, 79, 96
1, 31110, Note_on_c, 1, 47, 96
1, 31110, Note_on_c, 1, 59, 96
1, 31111, Note_off_c, 1, 75, 96
1, 31111, Note_off_c, 1, 79, 96
1, 31111, Note_off_c, 1, 47, 96
1, 31111, Note_off_c, 1, 59, 96
1, 31171, Note_on_c, 1, 84, 96
1, 31172, Note_off_c, 1, 84, 96
1, 31233, Note_on_c, 1, 81, 96
1, 31233, Note_on_c, 1, 55, 96
1, 31234, Note_off_c, 1, 81, 96
1, 31234, Note_off_c, 1, 55, 96
1, 31294, Note_on_c, 1, 77, 96
1, 31295, Note_off_c, 1, 77, 96
1, 31355, Note_on_c, 1, 56, 96
1, 31356, Note_off_c, 1, 56, 96
1, 31478, Note_on_c, 1, 74, 96
1, 31478, Note_on_c, 1, 41, 96
1, 31478, Note_on_c, 1, 53, 96
1, 31479, Note_off_c, 1, 74, 96
1, 31479, Note_off_c, 1, 41, 96
1, 31479, Note_off_c, 1, 53, 96
1, 31666, Note_on_c, 1, 70, 96
1, 31666, Note_on_c, 1, 74, 96
1, 31666, Note_on_c, 1, 62, 96
1, 31666, Note_on_c, 1, 53, 96
1, 31666, Note_on_c, 1, 58, 96
1, 31667, Note_off_c, 1, 70, 96
1, 31667, Note_off_c, 1, 74, 96
1, 31667, Note_off_c, 1, 62, 96
1, 31667, Note_off_c, 1, 53, 96
1, 31667, Note_off_c, 1, 58, 96
1, 31845, Note_on_c, 1, 67, 96
1, 31845, Note_on_c, 1, 74, 96
1, 31846, Note_off_c, 1, 67, 96
1, 31846, Note_off_c, 1, 74, 96
1, 31907, Note_on_c, 1, 35, 96
1, 31907, Note_on_c, 1, 47, 96
1, 31908, Note_off_c, 1, 35, 96
1, 31908, Note_off_c, 1, 47, 96
1, 32030, Note_on_c, 1, 78, 96
1, 32030, Note_on_c, 1, 66, 96
1, 32030, Note_on_c, 1, 42, 96
1, 32031, Note_off_c, 1, 78, 96
1, 32031, Note_off_c, 1, 66, 96
1, 32031, Note_off_c, 1, 42, 96
1, 32092, Note_on_c, 1, 81, 96
1, 32092, Note_on_c, 1, 60, 96
1, 32093, Note_off_c, 1, 81, 96
1, 32093, Note_off_c, 1, 60, 96
1, 32154, Note_on_c, 1, 73, 96
1, 32154, Note_on_c, 1, 58, 96
1, 32155, Note_off_c, 1, 73, 96
1, 32155, Note_off_c, 1, 58, 96
1, 32216, Note_on_c, 1, 77, 96
1, 32216, Note_on_c, 1, 65, 96
1, 32217, Note_off_c, 1, 77, 96
1, 32217, Note_off_c, 1, 65, 96
1, 32277, Note_on_c, 1, 58, 96
1, 32278, Note_off_c, 1, 58, 96
1, 32338, Note_on_c, 1, 61, 96
1, 32339, Note_off_c, 1, 61, 96
1, 32402, Note_on_c, 1, 74, 96
1, 32402, Note_on_c, 1, 70, 96
1, 32402, Note_on_c, 1, 67, 96
1, 32402, Note_on_c, 1, 58, 96
1, 32403, Note_off_c, 1, 74, 96
1, 32403, Note_off_c, 1, 70, 96
1, 32403, Note_off_c, 1, 67, 96
1, 32403, Note_off_c, 1, 58, 96
1, 32463, Note_on_c, 1, 63, 96
1, 32464, Note_off_c, 1, 63, 96
1, 32527, Note_on_c, 1, 74, 96
1, 32527, Note_on_c, 1, 65, 96
1, 32527, Note_on_c, 1, 63, 96
1, 32527, Note_on_c, 1, 57, 96
1, 32528, Note_off_c, 1, 74, 96
1, 32528, Note_off_c, 1, 65, 96
1, 32528, Note_off_c, 1, 63, 96
1, 32528, Note_off_c, 1, 57, 96
1, 32588, Note_on_c, 1, 72, 96
1, 32589, Note_off_c, 1, 72, 96
1, 32649, Note_on_c, 1, 69, 96
1, 32650, Note_off_c, 1, 69, 96
1, 32713, Note_on_c, 1, 74, 96
1, 32713, Note_on_c, 1, 60, 96
1, 32713, Note_on_c, 1, 57, 96
1, 32713, Note_on_c, 1, 53, 96
1, 32714, Note_off_c, 1, 74, 96
1, 32714, Note_off_c, 1, 60, 96
1, 32714, Note_off_c, 1, 57, 96
1, 32714, Note_off_c, 1, 53, 96
1, 32774, Note_on_c, 1, 75, 96
1, 32775, Note_off_c, 1, 75, 96
1, 32838, Note_on_c, 1, 75, 96
1, 32838, Note_on_c, 1, 57, 96
1, 32838, Note_on_c, 1, 60, 96
1, 32838, Note_on_c, 1, 53, 96
1, 32839, Note_off_c, 1, 75, 96
1, 32839, Note_off_c, 1, 57, 96
1, 32839, Note_off_c, 1, 60, 96
1, 32839, Note_off_c, 1, 53, 96
1, 32899, Note_on_c, 1, 72, 96
1, 32900, Note_off_c, 1, 72, 96
1, 32963, Note_on_c, 1, 74, 96
1, 32963, Note_on_c, 1, 65, 96
1, 32963, Note_on_c, 1, 46, 96
1, 32963, Note_on_c, 1, 58, 96
1, 32964, Note_off_c, 1, 74, 96
1, 32964, Note_off_c, 1, 65, 96
1, 32964, Note_off_c, 1, 46, 96
1, 32964, Note_off_c, 1, 58, 96
1, 33024, Note_on_c, 1, 75, 96
1, 33025, Note_off_c, 1, 75, 96
1, 33087, Note_on_c, 1, 67, 96
1, 33087, Note_on_c, 1, 63, 96
1, 33087, Note_on_c, 1, 58, 96
1, 33088, Note_off_c, 1, 67, 96
1, 33088, Note_off_c, 1, 63, 96
1, 33088, Note_off_c, 1, 58, 96
1, 33148, Note_on_c, 1, 74, 96
1, 33149, Note_off_c, 1, 74, 96
1, 33211, Note_on_c, 1, 72, 96
1, 33211, Note_on_c, 1, 44, 96
1, 33211, Note_on_c, 1, 56, 96
1, 33212, Note_off_c, 1, 72, 96
1, 33212, Note_off_c, 1, 44, 96
1, 33212, Note_off_c, 1, 56, 96
1, 33272, Note_on_c, 1, 75, 96
1, 33273, Note_off_c, 1, 75, 96
1, 33336, Note_on_c, 1, 75, 96
1, 33336, Note_on_c, 1, 67, 96
1, 33336, Note_on_c, 1, 60, 96
1, 33336, Note_on_c, 1, 48, 96
1, 33337, Note_off_c, 1, 75, 96
1, 33337, Note_off_c, 1, 67, 96
1, 33337, Note_off_c, 1, 60, 96
1, 33337, Note_off_c, 1, 48, 96
1, 33399, Note_on_c, 1, 84, 96
1, 33399, Note_on_c, 1, 77, 96
1, 33399, Note_on_c, 1, 80, 96
1, 33400, Note_off_c, 1, 84, 96
1, 33400, Note_off_c, 1, 77, 96
1, 33400, Note_off_c, 1, 80, 96
1, 33463, Note_on_c, 1, 41, 96
1, 33463, Note_on_c, 1, 53, 96
1, 33463, Note_on_c, 1, 80, 96
1, 33463, Note_on_c, 1, 68, 96
1, 33464, Note_off_c, 1, 41, 96
1, 33464, Note_off_c, 1, 53, 96
1, 33464, Note_off_c, 1, 80, 96
1, 33464, Note_off_c, 1, 68, 96
1, 33524, Note_on_c, 1, 80, 96
1, 33525, Note_off_c, 1, 80, 96
1, 33589, Note_on_c, 1, 84, 96
1, 33589, Note_on_c, 1, 78, 96
1, 33589, Note_on_c, 1, 56, 96
1, 33589, Note_on_c, 1, 60, 96
1, 33589, Note_on_c, 1, 66, 96
1, 33590, Note_off_c, 1, 84, 96
1, 33590, Note_off_c, 1, 78, 96
1, 33590, Note_off_c, 1, 56, 96
1, 33590, Note_off_c, 1, 60, 96
1, 33590, Note_off_c, 1, 66, 96
1, 33652, Note_on_c, 1, 73, 96
1, 33652, Note_on_c, 1, 85, 96
1, 33652, Note_on_c, 1, 80, 96
1, 33653, Note_off_c, 1, 73, 96
1, 33653, Note_off_c, 1, 85, 96
1, 33653, Note_off_c, 1, 80, 96
1, 33715, Note_on_c, 1, 56, 96
1, 33715, Note_on_c, 1, 60, 96
1, 33715, Note_on_c, 1, 63, 96
1, 33716, Note_off_c, 1, 56, 96
1, 33716, Note_off_c, 1, 60, 96
1, 33716, Note_off_c, 1, 63, 96
1, 33839, Note_on_c, 1, 87, 96
1, 33839, Note_on_c, 1, 75, 96
1, 33839, Note_on_c, 1, 56, 96
1, 33839, Note_on_c, 1, 44, 96
1, 33840, Note_off_c, 1, 87, 96
1, 33840, Note_off_c, 1, 75, 96
1, 33840, Note_off_c, 1, 56, 96
1, 33840, Note_off_c, 1, 44, 96
1, 33963, Note_on_c, 1, 77, 96
1, 33963, Note_on_c, 1, 60, 96
1, 33963, Note_on_c, 1, 56, 96
1, 33963, Note_on_c, 1, 51, 96
1, 33964, Note_off_c, 1, 77, 96
1, 33964, Note_off_c, 1, 60, 96
1, 33964, Note_off_c, 1, 56, 96
1, 33964, Note_off_c, 1, 51, 96
1, 34025, Note_on_c, 1, 80, 96
1, 34025, Note_on_c, 1, 68, 96
1, 34026, Note_off_c, 1, 80, 96
1, 34026, Note_off_c, 1, 68, 96
1, 34090, Note_on_c, 1, 75, 96
1, 34090, Note_on_c, 1, 53, 96
1, 34090, Note_on_c, 1, 60, 96
1, 34090, Note_on_c, 1, 56, 96
1, 34090, Note_on_c, 1, 63, 96
1, 34091, Note_off_c, 1, 75, 96
1, 34091, Note_off_c, 1, 53, 96
1, 34091, Note_off_c, 1, 60, 96
1, 34091, Note_off_c, 1, 56, 96
1, 34091, Note_off_c, 1, 63, 96
1, 34152, Note_on_c, 1, 77, 96
1, 34152, Note_on_c, 1, 80, 96
1, 34153, Note_off_c, 1, 77, 96
1, 34153, Note_off_c, 1, 80, 96
1, 34214, Note_on_c, 1, 41, 96
1, 34214, Note_on_c, 1, 53, 96
1, 34215, Note_off_c, 1, 41, 96
1, 34215, Note_off_c, 1, 53, 96
1, 34339, Note_on_c, 1, 77, 96
1, 34339, Note_on_c, 1, 68, 96
1, 34339, Note_on_c, 1, 71, 96
1, 34339, Note_on_c, 1, 47, 96
1, 34339, Note_on_c, 1, 35, 96
1, 34340, Note_off_c, 1, 77, 96
1, 34340, Note_off_c, 1, 68, 96
1, 34340, Note_off_c, 1, 71, 96
1, 34340, Note_off_c, 1, 47, 96
1, 34340, Note_off_c, 1, 35, 96
1, 34400, Note_on_c, 1, 63, 96
1, 34401, Note_off_c, 1, 63, 96
1, 34464, Note_on_c, 1, 61, 96
1, 34464, Note_on_c, 1, 70, 96
1, 34464, Note_on_c, 1, 53, 96
1, 34464, Note_on_c, 1, 37, 96
1, 34465, Note_off_c, 1, 61, 96
1, 34465, Note_off_c, 1, 70, 96
1, 34465, Note_off_c, 1, 53, 96
1, 34465, Note_off_c, 1, 37, 96
1, 34585, Note_on_c, 1, 65, 96
1, 34586, Note_off_c, 1, 65, 96
1, 34646, Note_on_c, 1, 79, 96
1, 34647, Note_off_c, 1, 79, 96
1, 34711, Note_on_c, 1, 78, 96
1, 34711, Note_on_c, 1, 65, 96
1, 34711, Note_on_c, 1, 63, 96
1, 34711, Note_on_c, 1, 60, 96
1, 34711, Note_on_c, 1, 57, 96
1, 34712, Note_off_c, 1, 78, 96
1, 34712, Note_off_c, 1, 65, 96
1, 34712, Note_off_c, 1, 63, 96
1, 34712, Note_off_c, 1, 60, 96
1, 34712, Note_off_c, 1, 57, 96
1, 34836, Note_on_c, 1, 58, 96
1, 34836, Note_on_c, 1, 56, 96
1, 34836, Note_on_c, 1, 77, 96
1, 34836, Note_on_c, 1, 62, 96
1, 34836, Note_on_c, 1, 53, 96
1, 34837, Note_off_c, 1, 58, 96
1, 34837, Note_off_c, 1, 56, 96
1, 34837, Note_off_c, 1, 77, 96
1, 34837, Note_off_c, 1, 62, 96
1, 34837, Note_off_c, 1, 53, 96
1, 34898, Note_on_c, 1, 79, 96
1, 34898, Note_on_c, 1, 74, 96
1, 34899, Note_off_c, 1, 79, 96
1, 34899, Note_off_c, 1, 74, 96
1, 34960, Note_on_c, 1, 34, 96
1, 34960, Note_on_c, 1, 46, 96
1, 34961, Note_off_c, 1, 34, 96
1, 34961, Note_off_c, 1, 46, 96
1, 35021, Note_on_c, 1, 77, 96
1, 35022, Note_off_c, 1, 77, 96
1, 35086, Note_on_c, 1, 82, 96
1, 35086, Note_on_c, 1, 71, 96
1, 35086, Note_on_c, 1, 74, 96
1, 35086, Note_on_c, 1, 50, 96
1, 35086, Note_on_c, 1, 38, 96
1, 35087, Note_off_c, 1, 82, 96
1, 35087, Note_off_c, 1, 71, 96
1, 35087, Note_off_c, 1, 74, 96
1, 35087, Note_off_c, 1, 50, 96
1, 35087, Note_off_c, 1, 38, 96
1, 35147, Note_on_c, 1, 77, 96
1, 35148, Note_off_c, 1, 77, 96
1, 35212, Note_on_c, 1, 80, 96
1, 35212, Note_on_c, 1, 68, 96
1, 35212, Note_on_c, 1, 58, 96
1, 35212, Note_on_c, 1, 62, 96
1, 35212, Note_on_c, 1, 56, 96
1, 35213, Note_off_c, 1, 80, 96
1, 35213, Note_off_c, 1, 68, 96
1, 35213, Note_off_c, 1, 58, 96
1, 35213, Note_off_c, 1, 62, 96
1, 35213, Note_off_c, 1, 56, 96
1, 35339, Note_on_c, 1, 82, 96
1, 35339, Note_on_c, 1, 79, 96
1, 35339, Note_on_c, 1, 74, 96
1, 35339, Note_on_c, 1, 70, 96
1, 35339, Note_on_c, 1, 56, 96
1, 35339, Note_on_c, 1, 62, 96
1, 35339, Note_on_c, 1, 58, 96
1, 35340, Note_off_c, 1, 82, 96
1, 35340, Note_off_c, 1, 79, 96
1, 35340, Note_off_c, 1, 74, 96
1, 35340, Note_off_c, 1, 70, 96
1, 35340, Note_off_c, 1, 56, 96
1, 35340, Note_off_c, 1, 62, 96
1, 35340, Note_off_c, 1, 58, 96
1, 35462, Note_on_c, 1, 62, 96
1, 35462, Note_on_c, 1, 58, 96
1, 35462, Note_on_c, 1, 56, 96
1, 35463, Note_off_c, 1, 62, 96
1, 35463, Note_off_c, 1, 58, 96
1, 35463, Note_off_c, 1, 56, 96
1, 35525, Note_on_c, 1, 77, 96
1, 35525, Note_on_c, 1, 73, 96
1, 35525, Note_on_c, 1, 71, 96
1, 35526, Note_off_c, 1, 77, 96
1, 35526, Note_off_c, 1, 73, 96
1, 35526, Note_off_c, 1, 71, 96
1, 35587, Note_on_c, 1, 43, 96
1, 35587, Note_on_c, 1, 55, 96
1, 35588, Note_off_c, 1, 43, 96
1, 35588, Note_off_c, 1, 55, 96
1, 35649, Note_on_c, 1, 73, 96
1, 35649, Note_on_c, 1, 70, 96
1, 35650, Note_off_c, 1, 73, 96
1, 35650, Note_off_c, 1, 70, 96
1, 35714, Note_on_c, 1, 79, 96
1, 35714, Note_on_c, 1, 69, 96
1, 35714, Note_on_c, 1, 51, 96
1, 35714, Note_on_c, 1, 54, 96
1, 35714, Note_on_c, 1, 57, 96
1, 35715, Note_off_c, 1, 79, 96
1, 35715, Note_off_c, 1, 69, 96
1, 35715, Note_off_c, 1, 51, 96
1, 35715, Note_off_c, 1, 54, 96
1, 35715, Note_off_c, 1, 57, 96
1, 35775, Note_on_c, 1, 74, 96
1, 35776, Note_off_c, 1, 74, 96
1, 35839, Note_on_c, 1, 72, 96
1, 35839, Note_on_c, 1, 57, 96
1, 35839, Note_on_c, 1, 60, 96
1, 35839, Note_on_c, 1, 66, 96
1, 35840, Note_off_c, 1, 72, 96
1, 35840, Note_off_c, 1, 57, 96
1, 35840, Note_off_c, 1, 60, 96
1, 35840, Note_off_c, 1, 66, 96
1, 35902, Note_on_c, 1, 77, 96
1, 35902, Note_on_c, 1, 73, 96
1, 35902, Note_on_c, 1, 69, 96
1, 35903, Note_off_c, 1, 77, 96
1, 35903, Note_off_c, 1, 73, 96
1, 35903, Note_off_c, 1, 69, 96
1, 35964, Note_on_c, 1, 41, 96
1, 35964, Note_on_c, 1, 53, 96
1, 35965, Note_off_c, 1, 41, 96
1, 35965, Note_off_c, 1, 53, 96
1, 36086, Note_on_c, 1, 72, 96
1, 36086, Note_on_c, 1, 79, 96
1, 36087, Note_off_c, 1, 72, 96
1, 36087, Note_off_c, 1, 79, 96
1, 36148, Note_on_c, 1, 56, 96
1, 36148, Note_on_c, 1, 44, 96
1, 36149, Note_off_c, 1, 56, 96
1, 36149, Note_off_c, 1, 44, 96
1, 36397, Note_on_c, 1, 64, 96
1, 36397, Note_on_c, 1, 68, 96
1, 36397, Note_on_c, 1, 70, 96
1, 36397, Note_on_c, 1, 69, 96
1, 36397, Note_on_c, 1, 73, 96
1, 36397, Note_on_c, 1, 52, 96
1, 36397, Note_on_c, 1, 37, 96
1, 36398, Note_off_c, 1, 64, 96
1, 36398, Note_off_c, 1, 68, 96
1, 36398, Note_off_c, 1, 70, 96
1, 36398, Note_off_c, 1, 69, 96
1, 36398, Note_off_c, 1, 73, 96
1, 36398, Note_off_c, 1, 52, 96
1, 36398, Note_off_c, 1, 37, 96
1, 36523, Note_on_c, 1, 73, 96
1, 36523, Note_on_c, 1, 70, 96
1, 36523, Note_on_c, 1, 79, 96
1, 36523, Note_on_c, 1, 67, 96
1, 36523, Note_on_c, 1, 49, 96
1, 36523, Note_on_c, 1, 61, 96
1, 36524, Note_off_c, 1, 73, 96
1, 36524, Note_off_c, 1, 70, 96
1, 36524, Note_off_c, 1, 79, 96
1, 36524, Note_off_c, 1, 67, 96
1, 36524, Note_off_c, 1, 49, 96
1, 36524, Note_off_c, 1, 61, 96
1, 36649, Note_on_c, 1, 69, 96
1, 36649, Note_on_c, 1, 72, 96
1, 36649, Note_on_c, 1, 78, 96
1, 36649, Note_on_c, 1, 66, 96
1, 36649, Note_on_c, 1, 50, 96
1, 36649, Note_on_c, 1, 38, 96
1, 36650, Note_off_c, 1, 69, 96
1, 36650, Note_off_c, 1, 72, 96
1, 36650, Note_off_c, 1, 78, 96
1, 36650, Note_off_c, 1, 66, 96
1, 36650, Note_off_c, 1, 50, 96
1, 36650, Note_off_c, 1, 38, 96
1, 36775, Note_on_c, 1, 81, 96
1, 36775, Note_on_c, 1, 70, 96
1, 36775, Note_on_c, 1, 62, 96
1, 36775, Note_on_c, 1, 57, 96
1, 36775, Note_on_c, 1, 60, 96
1, 36775, Note_on_c, 1, 54, 96
1, 36776, Note_off_c, 1, 81, 96
1, 36776, Note_off_c, 1, 70, 96
1, 36776, Note_off_c, 1, 62, 96
1, 36776, Note_off_c, 1, 57, 96
1, 36776, Note_off_c, 1, 60, 96
1, 36776, Note_off_c, 1, 54, 96
1, 36896, Note_on_c, 1, 45, 96
1, 36897, Note_off_c, 1, 45, 96
1, 36957, Note_on_c, 1, 74, 96
1, 36958, Note_off_c, 1, 74, 96
1, 37022, Note_on_c, 1, 71, 96
1, 37022, Note_on_c, 1, 74, 96
1, 37022, Note_on_c, 1, 67, 96
1, 37022, Note_on_c, 1, 55, 96
1, 37022, Note_on_c, 1, 43, 96
1, 37023, Note_off_c, 1, 71, 96
1, 37023, Note_off_c, 1, 74, 96
1, 37023, Note_off_c, 1, 67, 96
1, 37023, Note_off_c, 1, 55, 96
1, 37023, Note_off_c, 1, 43, 96
1, 37146, Note_on_c, 1, 74, 96
1, 37146, Note_on_c, 1, 67, 96
1, 37146, Note_on_c, 1, 38, 96
1, 37146, Note_on_c, 1, 50, 96
1, 37147, Note_off_c, 1, 74, 96
1, 37147, Note_off_c, 1, 67, 96
1, 37147, Note_off_c, 1, 38, 96
1, 37147, Note_off_c, 1, 50, 96
1, 37269, Note_on_c, 1, 66, 96
1, 37269, Note_on_c, 1, 58, 96
1, 37269, Note_on_c, 1, 63, 96
1, 37270, Note_off_c, 1, 66, 96
1, 37270, Note_off_c, 1, 58, 96
1, 37270, Note_off_c, 1, 63, 96
1, 37330, Note_on_c, 1, 64, 96
1, 37331, Note_off_c, 1, 64, 96
1, 37394, Note_on_c, 1, 70, 96
1, 37394, Note_on_c, 1, 55, 96
1, 37394, Note_on_c, 1, 58, 96
1, 37394, Note_on_c, 1, 62, 96
1, 37395, Note_off_c, 1, 70, 96
1, 37395, Note_off_c, 1, 55, 96
1, 37395, Note_off_c, 1, 58, 96
1, 37395, Note_off_c, 1, 62, 96
1, 37455, Note_on_c, 1, 63, 96
1, 37456, Note_off_c, 1, 63, 96
1, 37519, Note_on_c, 1, 67, 96
1, 37519, Note_on_c, 1, 58, 96
1, 37519, Note_on_c, 1, 55, 96
1, 37519, Note_on_c, 1, 63, 96
1, 37520, Note_off_c, 1, 67, 96
1, 37520, Note_off_c, 1, 58, 96
1, 37520, Note_off_c, 1, 55, 96
1, 37520, Note_off_c, 1, 63, 96
1, 37640, Note_on_c, 1, 69, 96
1, 37641, Note_off_c, 1, 69, 96
1, 37703, Note_on_c, 1, 70, 96
1, 37703, Note_on_c, 1, 43, 96
1, 37703, Note_on_c, 1, 55, 96
1, 37704, Note_off_c, 1, 70, 96
1, 37704, Note_off_c, 1, 43, 96
1, 37704, Note_off_c, 1, 55, 96
1, 37764, Note_on_c, 1, 73, 96
1, 37765, Note_off_c, 1, 73, 96
1, 37827, Note_on_c, 1, 74, 96
1, 37827, Note_on_c, 1, 52, 96
1, 37827, Note_on_c, 1, 40, 96
1, 37828, Note_off_c, 1, 74, 96
1, 37828, Note_off_c, 1, 52, 96
1, 37828, Note_off_c, 1, 40, 96
1, 37949, Note_on_c, 1, 43, 96
1, 37949, Note_on_c, 1, 55, 96
1, 37950, Note_off_c, 1, 43, 96
1, 37950, Note_off_c, 1, 55, 96
1, 38010, Note_on_c, 1, 69, 96
1, 38011, Note_off_c, 1, 69, 96
1, 38073, Note_on_c, 1, 67, 96
1, 38073, Note_on_c, 1, 45, 96
1, 38073, Note_on_c, 1, 57, 96
1, 38074, Note_off_c, 1, 67, 96
1, 38074, Note_off_c, 1, 45, 96
1, 38074, Note_off_c, 1, 57, 96
1, 38134, Note_on_c, 1, 68, 96
1, 38135, Note_off_c, 1, 68, 96
1, 38199, Note_on_c, 1, 76, 96
1, 38199, Note_on_c, 1, 64, 96
1, 38199, Note_on_c, 1, 56, 96
1, 38199, Note_on_c, 1, 59, 96
1, 38199, Note_on_c, 1, 62, 96
1, 38200, Note_off_c, 1, 76, 96
1, 38200, Note_off_c, 1, 64, 96
1, 38200, Note_off_c, 1, 56, 96
1, 38200, Note_off_c, 1, 59, 96
1, 38200, Note_off_c, 1, 62, 96
1, 38262, Note_on_c, 1, 74, 96
1, 38262, Note_on_c, 1, 76, 96
1, 38262, Note_on_c, 1, 68, 96
1, 38263, Note_off_c, 1, 74, 96
1, 38263, Note_off_c, 1, 76, 96
1, 38263, Note_off_c, 1, 68, 96
1, 38324, Note_on_c, 1, 52, 96
1, 38324, Note_on_c, 1, 40, 96
1, 38325, Note_off_c, 1, 52, 96
1, 38325, Note_off_c, 1, 40, 96
1, 38385, Note_on_c, 1, 68, 96
1, 38386, Note_off_c, 1, 68, 96
1, 38448, Note_on_c, 1, 52, 96
1, 38448, Note_on_c, 1, 64, 96
1, 38448, Note_on_c, 1, 68, 96
1, 38449, Note_off_c, 1, 52, 96
1, 38449, Note_off_c, 1, 64, 96
1, 38449, Note_off_c, 1, 68, 96
1, 38573, Note_on_c, 1, 76, 96
1, 38573, Note_on_c, 1, 64, 96
1, 38573, Note_on_c, 1, 60, 96
1, 38573, Note_on_c, 1, 57, 96
1, 38573, Note_on_c, 1, 52, 96
1, 38574, Note_off_c, 1, 76, 96
1, 38574, Note_off_c, 1, 64, 96
1, 38574, Note_off_c, 1, 60, 96
1, 38574, Note_off_c, 1, 57, 96
1, 38574, Note_off_c, 1, 52, 96
1, 38700, Note_on_c, 1, 79, 96
1, 38700, Note_on_c, 1, 76, 96
1, 38700, Note_on_c, 1, 84, 96
1, 38700, Note_on_c, 1, 72, 96
1, 38700, Note_on_c, 1, 57, 96
1, 38700, Note_on_c, 1, 60, 96
1, 38700, Note_on_c, 1, 52, 96
1, 38701, Note_off_c, 1, 79, 96
1, 38701, Note_off_c, 1, 76, 96
1, 38701, Note_off_c, 1, 84, 96
1, 38701, Note_off_c, 1, 72, 96
1, 38701, Note_off_c, 1, 57, 96
1, 38701, Note_off_c, 1, 60, 96
1, 38701, Note_off_c, 1, 52, 96
1, 38823, Note_on_c, 1, 65, 96
1, 38823, Note_on_c, 1, 55, 96
1, 38823, Note_on_c, 1, 57, 96
1, 38824, Note_off_c, 1, 65, 96
1, 38824, Note_off_c, 1, 55, 96
1, 38824, Note_off_c, 1, 57, 96
1, 38944, Note_on_c, 1, 47, 96
1, 38945, Note_off_c, 1, 47, 96
1, 39152, Note_on_c, 1, 52, 96
1, 39153, Note_off_c, 1, 52, 96
1, 39408, Note_on_c, 1, 84, 96
1, 39408, Note_on_c, 1, 79, 96
1, 39408, Note_on_c, 1, 58, 96
1, 39408, Note_on_c, 1, 60, 96
1, 39408, Note_on_c, 1, 64, 96
1, 39409, Note_off_c, 1, 84, 96
1, 39409, Note_off_c, 1, 79, 96
1, 39409, Note_off_c, 1, 58, 96
1, 39409, Note_off_c, 1, 60, 96
1, 39409, Note_off_c, 1, 64, 96
1, 39510, Note_on_c, 1, 51, 96
1, 39511, Note_off_c, 1, 51, 96
1, 40036, Note_on_c, 1, 77, 96
1, 40036, Note_on_c, 1, 46, 96
1, 40037, Note_off_c, 1, 77, 96
1, 40037, Note_off_c, 1, 46, 96
1, 40191, Note_on_c, 1, 82, 96
1, 40191, Note_on_c, 1, 53, 96
1, 40191, Note_on_c, 1, 62, 96
1, 40191, Note_on_c, 1, 58, 96
1, 40191, Note_on_c, 1, 56, 96
1, 40192, Note_off_c, 1, 82, 96
1, 40192, Note_off_c, 1, 53, 96
1, 40192, Note_off_c, 1, 62, 96
1, 40192, Note_off_c, 1, 58, 96
1, 40192, Note_off_c, 1, 56, 96
1, 40422, Note_on_c, 1, 79, 96
1, 40423, Note_off_c, 1, 79, 96
1, 40456, Note_on_c, 1, 77, 96
1, 40456, Note_on_c, 1, 62, 96
1, 40456, Note_on_c, 1, 56, 96
1, 40456, Note_on_c, 1, 58, 96
1, 40457, Note_off_c, 1, 77, 96
1, 40457, Note_off_c, 1, 62, 96
1, 40457, Note_off_c, 1, 56, 96
1, 40457, Note_off_c, 1, 58, 96
1, 41085, Note_on_c, 1, 70, 96
1, 41085, Note_on_c, 1, 59, 96
1, 41086, Note_off_c, 1, 70, 96
1, 41086, Note_off_c, 1, 59, 96
1, 41124, Note_on_c, 1, 44, 96
1, 41125, Note_off_c, 1, 44, 96
1, 41156, Note_on_c, 1, 68, 96
1, 41156, Note_on_c, 1, 64, 96
1, 41157, Note_off_c, 1, 68, 96
1, 41157, Note_off_c, 1, 64, 96
1, 41188, Note_on_c, 1, 77, 96
1, 41188, Note_on_c, 1, 60, 96
1, 41189, Note_off_c, 1, 77, 96
1, 41189, Note_off_c, 1, 60, 96
1, 41250, Note_on_c, 1, 60, 96
1, 41250, Note_on_c, 1, 75, 96
1, 41251, Note_off_c, 1, 60, 96
1, 41251, Note_off_c, 1, 75, 96
1, 41283, Note_on_c, 1, 72, 96
1, 41283, Note_on_c, 1, 56, 96
1, 41283, Note_on_c, 1, 60, 96
1, 41284, Note_off_c, 1, 72, 96
1, 41284, Note_off_c, 1, 56, 96
1, 41284, Note_off_c, 1, 60, 96
1, 41349, Note_on_c, 1, 68, 96
1, 41349, Note_on_c, 1, 72, 96
1, 41349, Note_on_c, 1, 75, 96
1, 41349, Note_on_c, 1, 63, 96
1, 41349, Note_on_c, 1, 53, 96
1, 41350, Note_off_c, 1, 68, 96
1, 41350, Note_off_c, 1, 72, 96
1, 41350, Note_off_c, 1, 75, 96
1, 41350, Note_off_c, 1, 63, 96
1, 41350, Note_off_c, 1, 53, 96
1, 41417, Note_on_c, 1, 69, 96
1, 41417, Note_on_c, 1, 72, 96
1, 41417, Note_on_c, 1, 77, 96
1, 41417, Note_on_c, 1, 81, 96
1, 41417, Note_on_c, 1, 65, 96
1, 41417, Note_on_c, 1, 57, 96
1, 41417, Note_on_c, 1, 53, 96
1, 41417, Note_on_c, 1, 48, 96
1, 41418, Note_off_c, 1, 69, 96
1, 41418, Note_off_c, 1, 72, 96
1, 41418, Note_off_c, 1, 77, 96
1, 41418, Note_off_c, 1, 81, 96
1, 41418, Note_off_c, 1, 65, 96
1, 41418, Note_off_c, 1, 57, 96
1, 41418, Note_off_c, 1, 53, 96
1, 41418, Note_off_c, 1, 48, 96
1, 41482, Note_on_c, 1, 86, 96
1, 41482, Note_on_c, 1, 82, 96
1, 41482, Note_on_c, 1, 74, 96
1, 41482, Note_on_c, 1, 58, 96
1, 41482, Note_on_c, 1, 46, 96
1, 41483, Note_off_c, 1, 86, 96
1, 41483, Note_off_c, 1, 82, 96
1, 41483, Note_off_c, 1, 74, 96
1, 41483, Note_off_c, 1, 58, 96
1, 41483, Note_off_c, 1, 46, 96
1, 41548, Note_on_c, 1, 77, 96
1, 41548, Note_on_c, 1, 80, 96
1, 41548, Note_on_c, 1, 72, 96
1, 41548, Note_on_c, 1, 68, 96
1, 41548, Note_on_c, 1, 50, 96
1, 41548, Note_on_c, 1, 62, 96
1, 41549, Note_off_c, 1, 77, 96
1, 41549, Note_off_c, 1, 80, 96
1, 41549, Note_off_c, 1, 72, 96
1, 41549, Note_off_c, 1, 68, 96
1, 41549, Note_off_c, 1, 50, 96
1, 41549, Note_off_c, 1, 62, 96
1, 41613, Note_on_c, 1, 62, 96
1, 41613, Note_on_c, 1, 68, 96
1, 41613, Note_on_c, 1, 74, 96
1, 41613, Note_on_c, 1, 56, 96
1, 41613, Note_on_c, 1, 59, 96
1, 41614, Note_off_c, 1, 62, 96
1, 41614, Note_off_c, 1, 68, 96
1, 41614, Note_off_c, 1, 74, 96
1, 41614, Note_off_c, 1, 56, 96
1, 41614, Note_off_c, 1, 59, 96
1, 41645, Note_on_c, 1, 80, 96
1, 41645, Note_on_c, 1, 68, 96
1, 41646, Note_off_c, 1, 80, 96
1, 41646, Note_off_c, 1, 68, 96
1, 41677, Note_on_c, 1, 45, 96
1, 41677, Note_on_c, 1, 57, 96
1, 41678, Note_off_c, 1, 45, 96
1, 41678, Note_off_c, 1, 57, 96
1, 41743, Note_on_c, 1, 84, 96
1, 41743, Note_on_c, 1, 79, 96
1, 41743, Note_on_c, 1, 72, 96
1, 41743, Note_on_c, 1, 82, 96
1, 41743, Note_on_c, 1, 43, 96
1, 41743, Note_on_c, 1, 55, 96
1, 41744, Note_off_c, 1, 84, 96
1, 41744, Note_off_c, 1, 79, 96
1, 41744, Note_off_c, 1, 72, 96
1, 41744, Note_off_c, 1, 82, 96
1, 41744, Note_off_c, 1, 43, 96
1, 41744, Note_off_c, 1, 55, 96
1, 41864, Note_on_c, 1, 80, 96
1, 41865, Note_off_c, 1, 80, 96
1, 41896, Note_on_c, 1, 75, 96
1, 41897, Note_off_c, 1, 75, 96
1, 41928, Note_on_c, 1, 77, 96
1, 41928, Note_on_c, 1, 44, 96
1, 41929, Note_off_c, 1, 77, 96
1, 41929, Note_off_c, 1, 44, 96
1, 41992, Note_on_c, 1, 72, 96
1, 41992, Note_on_c, 1, 60, 96
1, 41992, Note_on_c, 1, 58, 96
1, 41992, Note_on_c, 1, 48, 96
1, 41993, Note_off_c, 1, 72, 96
1, 41993, Note_off_c, 1, 60, 96
1, 41993, Note_off_c, 1, 58, 96
1, 41993, Note_off_c, 1, 48, 96
1, 42224, Note_on_c, 1, 75, 96
1, 42225, Note_off_c, 1, 75, 96
1, 42227, Note_on_c, 1, 72, 96
1, 42228, Note_off_c, 1, 72, 96
1, 42232, Note_on_c, 1, 84, 96
1, 42232, Note_on_c, 1, 56, 96
1, 42232, Note_on_c, 1, 44, 96
1, 42233, Note_off_c, 1, 84, 96
1, 42233, Note_off_c, 1, 56, 96
1, 42233, Note_off_c, 1, 44, 96
1, 42347, Note_on_c, 1, 36, 96
1, 42348, Note_off_c, 1, 36, 96
1, 42351, Note_on_c, 1, 79, 96
1, 42352, Note_off_c, 1, 79, 96
1, 42354, Note_on_c, 1, 48, 96
1, 42355, Note_off_c, 1, 48, 96
1, 42443, Note_on_c, 1, 82, 96
1, 42444, Note_off_c, 1, 82, 96
1, 42472, Note_on_c, 1, 58, 96
1, 42473, Note_off_c, 1, 58, 96
1, 42479, Note_on_c, 1, 79, 96
1, 42480, Note_off_c, 1, 79, 96
1, 42482, Note_on_c, 1, 60, 96
1, 42483, Note_off_c, 1, 60, 96
1, 42543, Note_on_c, 1, 72, 96
1, 42544, Note_off_c, 1, 72, 96
1, 42600, Note_on_c, 1, 64, 96
1, 42600, Note_on_c, 1, 58, 96
1, 42601, Note_off_c, 1, 64, 96
1, 42601, Note_off_c, 1, 58, 96
1, 42605, Note_on_c, 1, 84, 96
1, 42608, Note_off_c, 1, 84, 96
1, 42608, Note_on_c, 1, 74, 96
1, 42608, Note_on_c, 1, 60, 96
1, 42609, Note_off_c, 1, 74, 96
1, 42609, Note_off_c, 1, 60, 96
1, 42725, Note_on_c, 1, 72, 96
1, 42725, Note_on_c, 1, 41, 96
1, 42727, Note_off_c, 1, 72, 96
1, 42727, Note_off_c, 1, 41, 96
1, 42727, Note_on_c, 1, 53, 96
1, 42730, Note_off_c, 1, 53, 96
1, 42730, Note_on_c, 1, 81, 96
1, 42730, Note_on_c, 1, 77, 96
1, 42731, Note_off_c, 1, 81, 96
1, 42731, Note_off_c, 1, 77, 96
1, 42851, Note_on_c, 1, 36, 96
1, 42852, Note_off_c, 1, 36, 96
1, 42912, Note_on_c, 1, 76, 96
1, 42913, Note_off_c, 1, 76, 96
1, 42975, Note_on_c, 1, 55, 96
1, 42976, Note_off_c, 1, 55, 96
1, 43087, Note_on_c, 1, 70, 96
1, 43088, Note_off_c, 1, 70, 96
1, 43092, Note_on_c, 1, 67, 96
1, 43094, Note_off_c, 1, 67, 96
1, 43094, Note_on_c, 1, 49, 96
1, 43096, Note_off_c, 1, 49, 96
1, 43096, Note_on_c, 1, 37, 96
1, 43097, Note_off_c, 1, 37, 96
1, 43215, Note_on_c, 1, 51, 96
1, 43217, Note_off_c, 1, 51, 96
1, 43217, Note_on_c, 1, 63, 96
1, 43222, Note_off_c, 1, 63, 96
1, 43222, Note_on_c, 1, 72, 96
1, 43222, Note_on_c, 1, 66, 96
1, 43222, Note_on_c, 1, 54, 96
1, 43222, Note_on_c, 1, 59, 96
1, 43223, Note_off_c, 1, 72, 96
1, 43223, Note_off_c, 1, 66, 96
1, 43223, Note_off_c, 1, 54, 96
1, 43223, Note_off_c, 1, 59, 96
1, 43338, Note_on_c, 1, 40, 96
1, 43338, Note_on_c, 1, 52, 96
1, 43339, Note_off_c, 1, 40, 96
1, 43339, Note_off_c, 1, 52, 96
1, 43342, Note_on_c, 1, 73, 96
1, 43343, Note_off_c, 1, 73, 96
1, 43348, Note_on_c, 1, 76, 96
1, 43348, Note_on_c, 1, 64, 96
1, 43349, Note_off_c, 1, 76, 96
1, 43349, Note_off_c, 1, 64, 96
1, 43522, Note_on_c, 1, 61, 96
1, 43523, Note_off_c, 1, 61, 96
1, 43526, Note_on_c, 1, 73, 96
1, 43526, Note_on_c, 1, 57, 96
1, 43527, Note_off_c, 1, 73, 96
1, 43527, Note_off_c, 1, 57, 96
1, 43587, Note_on_c, 1, 68, 96
1, 43588, Note_off_c, 1, 68, 96
1, 43708, Note_on_c, 1, 69, 96
1, 43709, Note_off_c, 1, 69, 96
1, 43712, Note_on_c, 1, 57, 96
1, 43714, Note_off_c, 1, 57, 96
1, 43714, Note_on_c, 1, 61, 96
1, 43715, Note_off_c, 1, 61, 96
1, 43830, Note_on_c, 1, 40, 96
1, 43831, Note_off_c, 1, 40, 96
1, 43935, Note_on_c, 1, 73, 96
1, 43936, Note_off_c, 1, 73, 96
1, 43998, Note_on_c, 1, 74, 96
1, 43999, Note_off_c, 1, 74, 96
1, 44055, Note_on_c, 1, 79, 96
1, 44056, Note_off_c, 1, 79, 96
1, 44061, Note_on_c, 1, 67, 96
1, 44061, Note_on_c, 1, 57, 96
1, 44062, Note_off_c, 1, 67, 96
1, 44062, Note_off_c, 1, 57, 96
1, 44065, Note_on_c, 1, 45, 96
1, 44066, Note_off_c, 1, 45, 96
1, 44425, Note_on_c, 1, 73, 96
1, 44425, Note_on_c, 1, 65, 96
1, 44427, Note_off_c, 1, 73, 96
1, 44427, Note_off_c, 1, 65, 96
1, 44427, Note_on_c, 1, 59, 96
1, 44428, Note_off_c, 1, 59, 96
1, 44432, Note_on_c, 1, 55, 96
1, 44433, Note_off_c, 1, 55, 96
1, 44551, Note_on_c, 1, 50, 96
1, 44552, Note_off_c, 1, 50, 96
1, 44554, Note_on_c, 1, 69, 96
1, 44557, Note_off_c, 1, 69, 96
1, 44557, Note_on_c, 1, 65, 96
1, 44557, Note_on_c, 1, 38, 96
1, 44558, Note_off_c, 1, 65, 96
1, 44558, Note_off_c, 1, 38, 96
1, 44615, Note_on_c, 1, 72, 96
1, 44616, Note_off_c, 1, 72, 96
1, 44675, Note_on_c, 1, 74, 96
1, 44678, Note_off_c, 1, 74, 96
1, 44678, Note_on_c, 1, 57, 96
1, 44678, Note_on_c, 1, 65, 96
1, 44680, Note_off_c, 1, 57, 96
1, 44680, Note_off_c, 1, 65, 96
1, 44680, Note_on_c, 1, 60, 96
1, 44681, Note_off_c, 1, 60, 96
1, 44738, Note_on_c, 1, 76, 96
1, 44739, Note_off_c, 1, 76, 96
1, 44800, Note_on_c, 1, 72, 96
1, 44800, Note_on_c, 1, 57, 96
1, 44802, Note_off_c, 1, 72, 96
1, 44802, Note_off_c, 1, 57, 96
1, 44802, Note_on_c, 1, 45, 96
1, 44803, Note_off_c, 1, 45, 96
1, 44865, Note_on_c, 1, 72, 96
1, 44866, Note_off_c, 1, 72, 96
1, 44922, Note_on_c, 1, 57, 96
1, 44923, Note_off_c, 1, 57, 96
1, 44925, Note_on_c, 1, 69, 96
1, 44926, Note_off_c, 1, 69, 96
1, 44928, Note_on_c, 1, 53, 96
1, 44929, Note_off_c, 1, 53, 96
1, 45048, Note_on_c, 1, 53, 96
1, 45050, Note_off_c, 1, 53, 96
1, 45050, Note_on_c, 1, 57, 96
1, 45051, Note_off_c, 1, 57, 96
1, 45109, Note_on_c, 1, 72, 96
1, 45110, Note_off_c, 1, 72, 96
1, 45171, Note_on_c, 1, 62, 96
1, 45173, Note_off_c, 1, 62, 96
1, 45173, Note_on_c, 1, 54, 96
1, 45174, Note_off_c, 1, 54, 96
1, 45228, Note_on_c, 1, 65, 96
1, 45229, Note_off_c, 1, 65, 96
1, 45295, Note_on_c, 1, 67, 96
1, 45295, Note_on_c, 1, 43, 96
1, 45296, Note_off_c, 1, 67, 96
1, 45296, Note_off_c, 1, 43, 96
1, 45298, Note_on_c, 1, 55, 96
1, 45299, Note_off_c, 1, 55, 96
1, 45415, Note_on_c, 1, 48, 96
1, 45416, Note_off_c, 1, 48, 96
1, 45420, Note_on_c, 1, 60, 96
1, 45422, Note_off_c, 1, 60, 96
1, 45422, Note_on_c, 1, 72, 96
1, 45423, Note_off_c, 1, 72, 96
1, 45482, Note_on_c, 1, 69, 96
1, 45483, Note_off_c, 1, 69, 96
1, 45537, Note_on_c, 1, 72, 96
1, 45538, Note_off_c, 1, 72, 96
1, 45540, Note_on_c, 1, 48, 96
1, 45541, Note_off_c, 1, 48, 96
1, 45601, Note_on_c, 1, 67, 96
1, 45602, Note_off_c, 1, 67, 96
1, 45662, Note_on_c, 1, 72, 96
1, 45663, Note_off_c, 1, 72, 96
1, 45783, Note_on_c, 1, 62, 96
1, 45784, Note_off_c, 1, 62, 96
1, 45787, Note_on_c, 1, 65, 96
1, 45790, Note_off_c, 1, 65, 96
1, 45790, Note_on_c, 1, 69, 96
1, 45790, Note_on_c, 1, 57, 96
1, 45791, Note_off_c, 1, 69, 96
1, 45791, Note_off_c, 1, 57, 96
1, 45907, Note_on_c, 1, 62, 96
1, 45909, Note_off_c, 1, 62, 96
1, 45909, Note_on_c, 1, 58, 96
1, 45911, Note_off_c, 1, 58, 96
1, 45911, Note_on_c, 1, 70, 96
1, 45912, Note_off_c, 1, 70, 96
1, 46029, Note_on_c, 1, 67, 96
1, 46030, Note_off_c, 1, 67, 96
1, 46153, Note_on_c, 1, 66, 96
1, 46154, Note_off_c, 1, 66, 96
1, 46272, Note_on_c, 1, 58, 96
1, 46275, Note_off_c, 1, 58, 96
1, 46275, Note_on_c, 1, 60, 96
1, 46275, Note_on_c, 1, 64, 96
1, 46276, Note_off_c, 1, 60, 96
1, 46276, Note_off_c, 1, 64, 96
1, 46278, Note_on_c, 1, 69, 96
1, 46279, Note_off_c, 1, 69, 96
1, 46394, Note_on_c, 1, 67, 96
1, 46395, Note_off_c, 1, 67, 96
1, 46514, Note_on_c, 1, 58, 96
1, 46516, Note_off_c, 1, 58, 96
1, 46516, Note_on_c, 1, 43, 96
1, 46518, Note_off_c, 1, 43, 96
1, 46518, Note_on_c, 1, 64, 96
1, 46520, Note_off_c, 1, 64, 96
1, 46520, Note_on_c, 1, 69, 96
1, 46521, Note_off_c, 1, 69, 96
1, 46638, Note_on_c, 1, 67, 96
1, 46638, Note_on_c, 1, 52, 96
1, 46639, Note_off_c, 1, 67, 96
1, 46639, Note_off_c, 1, 52, 96
1, 46641, Note_on_c, 1, 59, 96
1, 46642, Note_off_c, 1, 59, 96
1, 46646, Note_on_c, 1, 40, 96
1, 46647, Note_off_c, 1, 40, 96
1, 46881, Note_on_c, 1, 62, 96
1, 46883, Note_off_c, 1, 62, 96
1, 46883, Note_on_c, 1, 67, 96
1, 46885, Note_off_c, 1, 67, 96
1, 46885, Note_on_c, 1, 74, 96
1, 46887, Note_off_c, 1, 74, 96
1, 46887, Note_on_c, 1, 59, 96
1, 46888, Note_off_c, 1, 59, 96
1, 46891, Note_on_c, 1, 50, 96
1, 46891, Note_on_c, 1, 55, 96
1, 46892, Note_off_c, 1, 50, 96
1, 46892, Note_off_c, 1, 55, 96
1, 47127, Note_on_c, 1, 50, 96
1, 47128, Note_off_c, 1, 50, 96
1, 47367, Note_on_c, 1, 67, 96
1, 47371, Note_off_c, 1, 67, 96
1, 47371, Note_on_c, 1, 76, 96
1, 47371, Note_on_c, 1, 64, 96
1, 47371, Note_on_c, 1, 69, 96
1, 47373, Note_off_c, 1, 76, 96
1, 47373, Note_off_c, 1, 64, 96
1, 47373, Note_off_c, 1, 69, 96
1, 47373, Note_on_c, 1, 60, 96
1, 47375, Note_off_c, 1, 60, 96
1, 47375, Note_on_c, 1, 72, 96
1, 47377, Note_off_c, 1, 72, 96
1, 47377, Note_on_c, 1, 48, 96
1, 47378, Note_off_c, 1, 48, 96
1, 47494, Note_on_c, 1, 69, 96
1, 47495, Note_off_c, 1, 69, 96
1, 47617, Note_on_c, 1, 69, 96
1, 47618, Note_off_c, 1, 69, 96
1, 47736, Note_on_c, 1, 57, 96
1, 47738, Note_off_c, 1, 57, 96
1, 47738, Note_on_c, 1, 45, 96
1, 47739, Note_off_c, 1, 45, 96
1, 47741, Note_on_c, 1, 72, 96
1, 47743, Note_off_c, 1, 72, 96
1, 47743, Note_on_c, 1, 69, 96
1, 47744, Note_off_c, 1, 69, 96
1, 47860, Note_on_c, 1, 66, 96
1, 47862, Note_off_c, 1, 66, 96
1, 47862, Note_on_c, 1, 72, 96
1, 47863, Note_off_c, 1, 72, 96
1, 47866, Note_on_c, 1, 74, 96
1, 47867, Note_off_c, 1, 74, 96
1, 47983, Note_on_c, 1, 71, 96
1, 47984, Note_off_c, 1, 71, 96
1, 47987, Note_on_c, 1, 50, 96
1, 47989, Note_off_c, 1, 50, 96
1, 47989, Note_on_c, 1, 77, 96
1, 47990, Note_off_c, 1, 77, 96
1, 48110, Note_on_c, 1, 74, 96
1, 48110, Note_on_c, 1, 44, 96
1, 48111, Note_off_c, 1, 74, 96
1, 48111, Note_off_c, 1, 44, 96
1, 48113, Note_on_c, 1, 56, 96
1, 48114, Note_off_c, 1, 56, 96
1, 48230, Note_on_c, 1, 77, 96
1, 48231, Note_off_c, 1, 77, 96
1, 48233, Note_on_c, 1, 62, 96
1, 48234, Note_off_c, 1, 62, 96
1, 48237, Note_on_c, 1, 65, 96
1, 48238, Note_off_c, 1, 65, 96
1, 48297, Note_on_c, 1, 72, 96
1, 48298, Note_off_c, 1, 72, 96
1, 48355, Note_on_c, 1, 43, 96
1, 48356, Note_off_c, 1, 43, 96
1, 48413, Note_on_c, 1, 68, 96
1, 48414, Note_off_c, 1, 68, 96
1, 48474, Note_on_c, 1, 45, 96
1, 48475, Note_off_c, 1, 45, 96
1, 48478, Note_on_c, 1, 72, 96
1, 48478, Note_on_c, 1, 60, 96
1, 48479, Note_off_c, 1, 72, 96
1, 48479, Note_off_c, 1, 60, 96
1, 48601, Note_on_c, 1, 65, 96
1, 48601, Note_on_c, 1, 59, 96
1, 48602, Note_off_c, 1, 65, 96
1, 48602, Note_off_c, 1, 59, 96
1, 48659, Note_on_c, 1, 72, 96
1, 48660, Note_off_c, 1, 72, 96
1, 48722, Note_on_c, 1, 73, 96
1, 48722, Note_on_c, 1, 58, 96
1, 48723, Note_off_c, 1, 73, 96
1, 48723, Note_off_c, 1, 58, 96
1, 48725, Note_on_c, 1, 61, 96
1, 48726, Note_off_c, 1, 61, 96
1, 48845, Note_on_c, 1, 61, 96
1, 48845, Note_on_c, 1, 49, 96
1, 48847, Note_off_c, 1, 61, 96
1, 48847, Note_off_c, 1, 49, 96
1, 48847, Note_on_c, 1, 67, 96
1, 48848, Note_off_c, 1, 67, 96
1, 48850, Note_on_c, 1, 57, 96
1, 48851, Note_off_c, 1, 57, 96
1, 48909, Note_on_c, 1, 65, 96
1, 48910, Note_off_c, 1, 65, 96
1, 48915, Note_on_c, 1, 53, 96
1, 48916, Note_off_c, 1, 53, 96
1, 49031, Note_on_c, 1, 62, 96
1, 49032, Note_off_c, 1, 62, 96
1, 49035, Note_on_c, 1, 69, 96
1, 49036, Note_off_c, 1, 69, 96
1, 49096, Note_on_c, 1, 70, 96
1, 49096, Note_on_c, 1, 58, 96
1, 49097, Note_off_c, 1, 70, 96
1, 49097, Note_off_c, 1, 58, 96
1, 49157, Note_on_c, 1, 71, 96
1, 49158, Note_off_c, 1, 71, 96
1, 49218, Note_on_c, 1, 59, 96
1, 49219, Note_off_c, 1, 59, 96
1, 49221, Note_on_c, 1, 55, 96
1, 49223, Note_off_c, 1, 55, 96
1, 49223, Note_on_c, 1, 47, 96
1, 49224, Note_off_c, 1, 47, 96
1, 49279, Note_on_c, 1, 67, 96
1, 49280, Note_off_c, 1, 67, 96
1, 49342, Note_on_c, 1, 43, 96
1, 49342, Note_on_c, 1, 31, 96
1, 49343, Note_off_c, 1, 43, 96
1, 49343, Note_off_c, 1, 31, 96
1, 49408, Note_on_c, 1, 67, 96
1, 49409, Note_off_c, 1, 67, 96
1, 49414, Note_on_c, 1, 67, 96
1, 49415, Note_off_c, 1, 67, 96
1, 49464, Note_on_c, 1, 60, 96
1, 49465, Note_off_c, 1, 60, 96
1, 49468, Note_on_c, 1, 48, 96
1, 49470, Note_off_c, 1, 48, 96
1, 49470, Note_on_c, 1, 64, 96
1, 49471, Note_off_c, 1, 64, 96
1, 49473, Note_on_c, 1, 36, 96
1, 49474, Note_off_c, 1, 36, 96
1, 49531, Note_on_c, 1, 65, 96
1, 49532, Note_off_c, 1, 65, 96
1, 49595, Note_on_c, 1, 43, 96
1, 49596, Note_off_c, 1, 43, 96
1, 49598, Note_on_c, 1, 55, 96
1, 49600, Note_off_c, 1, 55, 96
1, 49600, Note_on_c, 1, 69, 96
1, 49601, Note_off_c, 1, 69, 96
1, 49656, Note_on_c, 1, 72, 96
1, 49657, Note_off_c, 1, 72, 96
1, 49718, Note_on_c, 1, 48, 96
1, 49719, Note_off_c, 1, 48, 96
1, 49722, Note_on_c, 1, 74, 96
1, 49722, Note_on_c, 1, 60, 96
1, 49723, Note_off_c, 1, 74, 96
1, 49723, Note_off_c, 1, 60, 96
1, 49842, Note_on_c, 1, 79, 96
1, 49843, Note_off_c, 1, 79, 96
1, 49962, Note_on_c, 1, 77, 96
1, 49962, Note_on_c, 1, 65, 96
1, 49963, Note_off_c, 1, 77, 96
1, 49963, Note_off_c, 1, 65, 96
1, 50080, Note_on_c, 1, 65, 96
1, 50081, Note_off_c, 1, 65, 96
1, 50083, Note_on_c, 1, 62, 96
1, 50084, Note_off_c, 1, 62, 96
1, 50089, Note_on_c, 1, 56, 96
1, 50092, Note_off_c, 1, 56, 96
1, 50092, Note_on_c, 1, 68, 96
1, 50092, Note_on_c, 1, 44, 96
1, 50093, Note_off_c, 1, 68, 96
1, 50093, Note_off_c, 1, 44, 96
1, 50327, Note_on_c, 1, 60, 96
1, 50328, Note_off_c, 1, 60, 96
1, 50331, Note_on_c, 1, 48, 96
1, 50332, Note_off_c, 1, 48, 96
1, 50451, Note_on_c, 1, 71, 96
1, 50452, Note_off_c, 1, 71, 96
1, 50572, Note_on_c, 1, 46, 96
1, 50573, Note_off_c, 1, 46, 96
1, 50575, Note_on_c, 1, 80, 96
1, 50578, Note_off_c, 1, 80, 96
1, 50578, Note_on_c, 1, 76, 96
1, 50578, Note_on_c, 1, 86, 96
1, 50579, Note_off_c, 1, 76, 96
1, 50579, Note_off_c, 1, 86, 96
1, 50694, Note_on_c, 1, 65, 96
1, 50697, Note_off_c, 1, 65, 96
1, 50697, Note_on_c, 1, 53, 96
1, 50697, Note_on_c, 1, 62, 96
1, 50699, Note_off_c, 1, 53, 96
1, 50699, Note_off_c, 1, 62, 96
1, 50699, Note_on_c, 1, 58, 96
1, 50700, Note_off_c, 1, 58, 96
1, 50702, Note_on_c, 1, 77, 96
1, 50703, Note_off_c, 1, 77, 96
1, 50819, Note_on_c, 1, 80, 96
1, 50822, Note_off_c, 1, 80, 96
1, 50822, Note_on_c, 1, 68, 96
1, 50822, Note_on_c, 1, 62, 96
1, 50825, Note_off_c, 1, 68, 96
1, 50825, Note_off_c, 1, 62, 96
1, 50825, Note_on_c, 1, 56, 96
1, 50825, Note_on_c, 1, 58, 96
1, 50826, Note_off_c, 1, 56, 96
1, 50826, Note_off_c, 1, 58, 96
1, 50828, Note_on_c, 1, 91, 96
1, 50829, Note_off_c, 1, 91, 96
1, 50943, Note_on_c, 1, 70, 96
1, 50944, Note_off_c, 1, 70, 96
1, 50947, Note_on_c, 1, 82, 96
1, 50947, Note_on_c, 1, 46, 96
1, 50948, Note_off_c, 1, 82, 96
1, 50948, Note_off_c, 1, 46, 96
1, 50950, Note_on_c, 1, 34, 96
1, 50951, Note_off_c, 1, 34, 96
1, 51072, Note_on_c, 1, 82, 96
1, 51072, Note_on_c, 1, 50, 96
1, 51074, Note_off_c, 1, 82, 96
1, 51074, Note_off_c, 1, 50, 96
1, 51074, Note_on_c, 1, 70, 96
1, 51075, Note_off_c, 1, 70, 96
1, 51133, Note_on_c, 1, 72, 96
1, 51134, Note_off_c, 1, 72, 96
1, 51193, Note_on_c, 1, 74, 96
1, 51193, Note_on_c, 1, 46, 96
1, 51194, Note_off_c, 1, 74, 96
1, 51194, Note_off_c, 1, 46, 96
1, 51196, Note_on_c, 1, 70, 96
1, 51198, Note_off_c, 1, 70, 96
1, 51198, Note_on_c, 1, 65, 96
1, 51199, Note_off_c, 1, 65, 96
1, 51258, Note_on_c, 1, 82, 96
1, 51259, Note_off_c, 1, 82, 96
1, 51316, Note_on_c, 1, 51, 96
1, 51317, Note_off_c, 1, 51, 96
1, 51440, Note_on_c, 1, 41, 96
1, 51442, Note_off_c, 1, 41, 96
1, 51442, Note_on_c, 1, 72, 96
1, 51443, Note_off_c, 1, 72, 96
1, 51445, Note_on_c, 1, 53, 96
1, 51446, Note_off_c, 1, 53, 96
1, 51506, Note_on_c, 1, 69, 96
1, 51507, Note_off_c, 1, 69, 96
1, 51566, Note_on_c, 1, 46, 96
1, 51566, Note_on_c, 1, 48, 96
1, 51569, Note_off_c, 1, 46, 96
1, 51569, Note_off_c, 1, 48, 96
1, 51569, Note_on_c, 1, 72, 96
1, 51569, Note_on_c, 1, 80, 96
1, 51570, Note_off_c, 1, 72, 96
1, 51570, Note_off_c, 1, 80, 96
1, 51632, Note_on_c, 1, 89, 96
1, 51633, Note_off_c, 1, 89, 96
1, 51686, Note_on_c, 1, 82, 96
1, 51687, Note_off_c, 1, 82, 96
1, 51694, Note_on_c, 1, 51, 96
1, 51695, Note_off_c, 1, 51, 96
1, 51753, Note_on_c, 1, 92, 96
1, 51754, Note_off_c, 1, 92, 96
1, 51811, Note_on_c, 1, 55, 96
1, 51814, Note_off_c, 1, 55, 96
1, 51814, Note_on_c, 1, 94, 96
1, 51814, Note_on_c, 1, 82, 96
1, 51815, Note_off_c, 1, 94, 96
1, 51815, Note_off_c, 1, 82, 96
1, 51818, Note_on_c, 1, 58, 96
1, 51818, Note_on_c, 1, 62, 96
1, 51819, Note_off_c, 1, 58, 96
1, 51819, Note_off_c, 1, 62, 96
1, 51878, Note_on_c, 1, 89, 96
1, 51879, Note_off_c, 1, 89, 96
1, 51933, Note_on_c, 1, 82, 96
1, 51935, Note_off_c, 1, 82, 96
1, 51935, Note_on_c, 1, 39, 96
1, 51937, Note_off_c, 1, 39, 96
1, 51937, Note_on_c, 1, 55, 96
1, 51938, Note_off_c, 1, 55, 96
1, 51943, Note_on_c, 1, 94, 96
1, 51944, Note_off_c, 1, 94, 96
1, 52004, Note_on_c, 1, 79, 96
1, 52005, Note_off_c, 1, 79, 96
1, 52061, Note_on_c, 1, 84, 96
1, 52063, Note_off_c, 1, 84, 96
1, 52063, Note_on_c, 1, 79, 96
1, 52064, Note_off_c, 1, 79, 96
1, 52066, Note_on_c, 1, 46, 96
1, 52068, Note_off_c, 1, 46, 96
1, 52068, Note_on_c, 1, 91, 96
1, 52069, Note_off_c, 1, 91, 96
1, 52188, Note_on_c, 1, 82, 96
1, 52190, Note_off_c, 1, 82, 96
1, 52190, Note_on_c, 1, 42, 96
1, 52192, Note_off_c, 1, 42, 96
1, 52192, Note_on_c, 1, 54, 96
1, 52193, Note_off_c, 1, 54, 96
1, 52307, Note_on_c, 1, 36, 96
1, 52309, Note_off_c, 1, 36, 96
1, 52309, Note_on_c, 1, 48, 96
1, 52311, Note_off_c, 1, 48, 96
1, 52311, Note_on_c, 1, 67, 96
1, 52313, Note_off_c, 1, 67, 96
1, 52313, Note_on_c, 1, 79, 96
1, 52314, Note_off_c, 1, 79, 96
1, 52433, Note_on_c, 1, 77, 96
1, 52434, Note_off_c, 1, 77, 96
1, 52436, Note_on_c, 1, 53, 96
1, 52437, Note_off_c, 1, 53, 96
1, 52439, Note_on_c, 1, 65, 96
1, 52440, Note_off_c, 1, 65, 96
1, 52553, Note_on_c, 1, 87, 96
1, 52554, Note_off_c, 1, 87, 96
1, 52557, Note_on_c, 1, 43, 96
1, 52558, Note_off_c, 1, 43, 96
1, 52561, Note_on_c, 1, 82, 96
1, 52561, Note_on_c, 1, 55, 96
1, 52562, Note_off_c, 1, 82, 96
1, 52562, Note_off_c, 1, 55, 96
1, 52565, Note_on_c, 1, 79, 96
1, 52566, Note_off_c, 1, 79, 96
1, 52803, Note_on_c, 1, 87, 96
1, 52804, Note_off_c, 1, 87, 96
1, 52807, Note_on_c, 1, 75, 96
1, 52809, Note_off_c, 1, 75, 96
1, 52809, Note_on_c, 1, 79, 96
1, 52810, Note_off_c, 1, 79, 96
1, 52925, Note_on_c, 1, 79, 96
1, 52925, Note_on_c, 1, 64, 96
1, 52927, Note_off_c, 1, 79, 96
1, 52927, Note_off_c, 1, 64, 96
1, 52927, Note_on_c, 1, 58, 96
1, 52929, Note_off_c, 1, 58, 96
1, 52929, Note_on_c, 1, 67, 96
1, 52930, Note_off_c, 1, 67, 96
1, 52932, Note_on_c, 1, 52, 96
1, 52934, Note_off_c, 1, 52, 96
1, 52934, Note_on_c, 1, 72, 96
1, 52936, Note_off_c, 1, 72, 96
1, 52936, Note_on_c, 1, 60, 96
1, 52937, Note_off_c, 1, 60, 96
1, 53172, Note_on_c, 1, 60, 96
1, 53172, Note_on_c, 1, 64, 96
1, 53173, Note_off_c, 1, 60, 96
1, 53173, Note_off_c, 1, 64, 96
1, 53177, Note_on_c, 1, 67, 96
1, 53180, Note_off_c, 1, 67, 96
1, 53180, Note_on_c, 1, 70, 96
1, 53180, Note_on_c, 1, 52, 96
1, 53182, Note_off_c, 1, 70, 96
1, 53182, Note_off_c, 1, 52, 96
1, 53182, Note_on_c, 1, 58, 96
1, 53183, Note_off_c, 1, 58, 96
1, 53298, Note_on_c, 1, 79, 96
1, 53298, Note_on_c, 1, 76, 96
1, 53299, Note_off_c, 1, 79, 96
1, 53299, Note_off_c, 1, 76, 96
1, 53304, Note_on_c, 1, 60, 96
1, 53304, Note_on_c, 1, 58, 96
1, 53305, Note_off_c, 1, 60, 96
1, 53305, Note_off_c, 1, 58, 96
1, 53307, Note_on_c, 1, 55, 96
1, 53308, Note_off_c, 1, 55, 96
1, 53422, Note_on_c, 1, 76, 96
1, 53424, Note_off_c, 1, 76, 96
1, 53424, Note_on_c, 1, 79, 96
1, 53425, Note_off_c, 1, 79, 96
1, 53427, Note_on_c, 1, 60, 96
1, 53428, Note_off_c, 1, 60, 96
1, 53431, Note_on_c, 1, 58, 96
1, 53431, Note_on_c, 1, 64, 96
1, 53432, Note_off_c, 1, 58, 96
1, 53432, Note_off_c, 1, 64, 96
1, 53487, Note_on_c, 1, 81, 96
1, 53488, Note_off_c, 1, 81, 96
1, 53491, Note_on_c, 1, 69, 96
1, 53492, Note_off_c, 1, 69, 96
1, 53552, Note_on_c, 1, 36, 96
1, 53553, Note_off_c, 1, 36, 96
1, 53557, Note_on_c, 1, 48, 96
1, 53558, Note_off_c, 1, 48, 96
1, 53671, Note_on_c, 1, 62, 96
1, 53672, Note_off_c, 1, 62, 96
1, 53679, Note_on_c, 1, 74, 96
1, 53679, Note_on_c, 1, 53, 96
1, 53681, Note_off_c, 1, 74, 96
1, 53681, Note_off_c, 1, 53, 96
1, 53681, Note_on_c, 1, 58, 96
1, 53682, Note_off_c, 1, 58, 96
1, 53799, Note_on_c, 1, 77, 96
1, 53801, Note_off_c, 1, 77, 96
1, 53801, Note_on_c, 1, 46, 96
1, 53802, Note_off_c, 1, 46, 96
1, 53920, Note_on_c, 1, 82, 96
1, 53921, Note_off_c, 1, 82, 96
1, 54034, Note_on_c, 1, 41, 96
1, 54035, Note_off_c, 1, 41, 96
1, 54040, Note_on_c, 1, 82, 96
1, 54043, Note_off_c, 1, 82, 96
1, 54043, Note_on_c, 1, 80, 96
1, 54043, Note_on_c, 1, 86, 96
1, 54044, Note_off_c, 1, 80, 96
1, 54044, Note_off_c, 1, 86, 96
1, 54161, Note_on_c, 1, 62, 96
1, 54162, Note_off_c, 1, 62, 96
1, 54164, Note_on_c, 1, 77, 96
1, 54166, Note_off_c, 1, 77, 96
1, 54166, Note_on_c, 1, 58, 96
1, 54168, Note_off_c, 1, 58, 96
1, 54168, Note_on_c, 1, 53, 96
1, 54171, Note_off_c, 1, 53, 96
1, 54171, Note_on_c, 1, 74, 96
1, 54171, Note_on_c, 1, 86, 96
1, 54172, Note_off_c, 1, 74, 96
1, 54172, Note_off_c, 1, 86, 96
1, 54286, Note_on_c, 1, 67, 96
1, 54288, Note_off_c, 1, 67, 96
1, 54288, Note_on_c, 1, 58, 96
1, 54289, Note_off_c, 1, 58, 96
1, 54291, Note_on_c, 1, 62, 96
1, 54292, Note_off_c, 1, 62, 96
1, 54294, Note_on_c, 1, 79, 96
1, 54296, Note_off_c, 1, 79, 96
1, 54296, Note_on_c, 1, 70, 96
1, 54297, Note_off_c, 1, 70, 96
1, 54416, Note_on_c, 1, 70, 96
1, 54416, Note_on_c, 1, 34, 96
1, 54417, Note_off_c, 1, 70, 96
1, 54417, Note_off_c, 1, 34, 96
1, 54419, Note_on_c, 1, 78, 96
1, 54420, Note_off_c, 1, 78, 96
1, 54656, Note_on_c, 1, 70, 96
1, 54656, Note_on_c, 1, 55, 96
1, 54658, Note_off_c, 1, 70, 96
1, 54658, Note_off_c, 1, 55, 96
1, 54658, Note_on_c, 1, 63, 96
1, 54659, Note_off_c, 1, 63, 96
1, 54664, Note_on_c, 1, 79, 96
1, 54666, Note_off_c, 1, 79, 96
1, 54666, Note_on_c, 1, 58, 96
1, 54667, Note_off_c, 1, 58, 96
1, 54901, Note_on_c, 1, 55, 96
1, 54903, Note_off_c, 1, 55, 96
1, 54903, Note_on_c, 1, 58, 96
1, 54905, Note_off_c, 1, 58, 96
1, 54905, Note_on_c, 1, 63, 96
1, 54906, Note_off_c, 1, 63, 96
1, 55145, Note_on_c, 1, 76, 96
1, 55147, Note_off_c, 1, 76, 96
1, 55147, Note_on_c, 1, 60, 96
1, 55150, Note_off_c, 1, 60, 96
1, 55150, Note_on_c, 1, 70, 96
1, 55150, Note_on_c, 1, 48, 96
1, 55151, Note_off_c, 1, 70, 96
1, 55151, Note_off_c, 1, 48, 96
1, 55269, Note_on_c, 1, 67, 96
1, 55269, Note_on_c, 1, 60, 96
1, 55270, Note_off_c, 1, 67, 96
1, 55270, Note_off_c, 1, 60, 96
1, 55273, Note_on_c, 1, 55, 96
1, 55274, Note_off_c, 1, 55, 96
1, 55332, Note_on_c, 1, 72, 96
1, 55333, Note_off_c, 1, 72, 96
1, 55338, Note_on_c, 1, 72, 96
1, 55339, Note_off_c, 1, 72, 96
1, 55398, Note_on_c, 1, 69, 96
1, 55398, Note_on_c, 1, 60, 96
1, 55399, Note_off_c, 1, 69, 96
1, 55399, Note_off_c, 1, 60, 96
1, 55455, Note_on_c, 1, 60, 96
1, 55456, Note_off_c, 1, 60, 96
1, 55459, Note_on_c, 1, 64, 96
1, 55460, Note_off_c, 1, 64, 96
1, 55521, Note_on_c, 1, 60, 96
1, 55523, Note_off_c, 1, 60, 96
1, 55523, Note_on_c, 1, 66, 96
1, 55524, Note_off_c, 1, 66, 96
1, 55641, Note_on_c, 1, 64, 96
1, 55642, Note_off_c, 1, 64, 96
1, 55644, Note_on_c, 1, 60, 96
1, 55645, Note_off_c, 1, 60, 96
1, 55649, Note_on_c, 1, 67, 96
1, 55649, Note_on_c, 1, 55, 96
1, 55650, Note_off_c, 1, 67, 96
1, 55650, Note_off_c, 1, 55, 96
1, 55707, Note_on_c, 1, 72, 96
1, 55708, Note_off_c, 1, 72, 96
1, 55766, Note_on_c, 1, 48, 96
1, 55767, Note_off_c, 1, 48, 96
1, 55889, Note_on_c, 1, 48, 96
1, 55890, Note_off_c, 1, 48, 96
1, 56068, Note_on_c, 1, 67, 96
1, 56069, Note_off_c, 1, 67, 96
1, 56129, Note_on_c, 1, 55, 96
1, 56131, Note_off_c, 1, 55, 96
1, 56131, Note_on_c, 1, 67, 96
1, 56133, Note_off_c, 1, 67, 96
1, 56133, Note_on_c, 1, 60, 96
1, 56135, Note_off_c, 1, 60, 96
1, 56135, Note_on_c, 1, 64, 96
1, 56136, Note_off_c, 1, 64, 96
1, 56253, Note_on_c, 1, 50, 96
1, 56254, Note_off_c, 1, 50, 96
1, 56256, Note_on_c, 1, 65, 96
1, 56257, Note_off_c, 1, 65, 96
1, 56318, Note_on_c, 1, 65, 96
1, 56319, Note_off_c, 1, 65, 96
1, 56321, Note_on_c, 1, 60, 96
1, 56322, Note_off_c, 1, 60, 96
1, 56383, Note_on_c, 1, 62, 96
1, 56385, Note_off_c, 1, 62, 96
1, 56385, Note_on_c, 1, 50, 96
1, 56386, Note_off_c, 1, 50, 96
1, 56441, Note_on_c, 1, 64, 96
1, 56442, Note_off_c, 1, 64, 96
1, 56502, Note_on_c, 1, 57, 96
1, 56505, Note_off_c, 1, 57, 96
1, 56505, Note_on_c, 1, 53, 96
1, 56505, Note_on_c, 1, 53, 96
1, 56507, Note_off_c, 1, 53, 96
1, 56507, Note_off_c, 1, 53, 96
1, 56507, Note_on_c, 1, 53, 96
1, 56508, Note_off_c, 1, 53, 96
1, 56689, Note_on_c, 1, 65, 96
1, 56690, Note_off_c, 1, 65, 96
1, 56748, Note_on_c, 1, 46, 96
1, 56749, Note_off_c, 1, 46, 96
1, 56867, Note_on_c, 1, 63, 96
1, 56869, Note_off_c, 1, 63, 96
1, 56869, Note_on_c, 1, 72, 96
1, 56870, Note_off_c, 1, 72, 96
1, 56872, Note_on_c, 1, 58, 96
1, 56873, Note_off_c, 1, 58, 96
1, 56988, Note_on_c, 1, 70, 96
1, 56989, Note_off_c, 1, 70, 96
1, 56991, Note_on_c, 1, 82, 96
1, 56992, Note_off_c, 1, 82, 96
1, 56995, Note_on_c, 1, 53, 96
1, 56996, Note_off_c, 1, 53, 96
1, 57113, Note_on_c, 1, 86, 96
1, 57116, Note_off_c, 1, 86, 96
1, 57116, Note_on_c, 1, 53, 96
1, 57116, Note_on_c, 1, 58, 96
1, 57117, Note_off_c, 1, 53, 96
1, 57117, Note_off_c, 1, 58, 96
1, 57119, Note_on_c, 1, 62, 96
1, 57120, Note_off_c, 1, 62, 96
1, 57216, Note_on_c, 1, 79, 96
1, 57217, Note_off_c, 1, 79, 96
1, 57234, Note_on_c, 1, 72, 96
1, 57236, Note_off_c, 1, 72, 96
1, 57236, Note_on_c, 1, 53, 96
1, 57237, Note_off_c, 1, 53, 96
1, 57243, Note_on_c, 1, 77, 96
1, 57243, Note_on_c, 1, 58, 96
1, 57243, Note_on_c, 1, 62, 96
1, 57244, Note_off_c, 1, 77, 96
1, 57244, Note_off_c, 1, 58, 96
1, 57244, Note_off_c, 1, 62, 96
1, 57361, Note_on_c, 1, 69, 96
1, 57361, Note_on_c, 1, 62, 96
1, 57363, Note_off_c, 1, 69, 96
1, 57363, Note_off_c, 1, 62, 96
1, 57363, Note_on_c, 1, 74, 96
1, 57365, Note_off_c, 1, 74, 96
1, 57365, Note_on_c, 1, 57, 96
1, 57367, Note_off_c, 1, 57, 96
1, 57367, Note_on_c, 1, 53, 96
1, 57369, Note_off_c, 1, 53, 96
1, 57369, Note_on_c, 1, 77, 96
1, 57370, Note_off_c, 1, 77, 96
1, 57490, Note_on_c, 1, 65, 96
1, 57490, Note_on_c, 1, 41, 96
1, 57492, Note_off_c, 1, 65, 96
1, 57492, Note_off_c, 1, 41, 96
1, 57492, Note_on_c, 1, 53, 96
1, 57493, Note_off_c, 1, 53, 96
1, 57608, Note_on_c, 1, 66, 96
1, 57609, Note_off_c, 1, 66, 96
1, 57727, Note_on_c, 1, 36, 96
1, 57729, Note_off_c, 1, 36, 96
1, 57729, Note_on_c, 1, 73, 96
1, 57730, Note_off_c, 1, 73, 96
1, 57733, Note_on_c, 1, 48, 96
1, 57734, Note_off_c, 1, 48, 96
1, 57854, Note_on_c, 1, 71, 96
1, 57857, Note_off_c, 1, 71, 96
1, 57857, Note_on_c, 1, 38, 96
1, 57857, Note_on_c, 1, 50, 96
1, 57858, Note_off_c, 1, 38, 96
1, 57858, Note_off_c, 1, 50, 96
1, 57976, Note_on_c, 1, 66, 96
1, 57977, Note_off_c, 1, 66, 96
1, 58095, Note_on_c, 1, 50, 96
1, 58097, Note_off_c, 1, 50, 96
1, 58097, Note_on_c, 1, 54, 96
1, 58098, Note_off_c, 1, 54, 96
1, 58100, Note_on_c, 1, 60, 96
1, 58101, Note_off_c, 1, 60, 96
1, 58103, Note_on_c, 1, 69, 96
1, 58104, Note_off_c, 1, 69, 96
1, 58221, Note_on_c, 1, 69, 96
1, 58222, Note_off_c, 1, 69, 96
1, 58341, Note_on_c, 1, 62, 96
1, 58341, Note_on_c, 1, 74, 96
1, 58341, Note_on_c, 1, 60, 96
1, 58342, Note_off_c, 1, 62, 96
1, 58342, Note_off_c, 1, 74, 96
1, 58342, Note_off_c, 1, 60, 96
1, 58345, Note_on_c, 1, 54, 96
1, 58347, Note_off_c, 1, 54, 96
1, 58347, Note_on_c, 1, 50, 96
1, 58348, Note_off_c, 1, 50, 96
1, 58462, Note_on_c, 1, 50, 96
1, 58463, Note_off_c, 1, 50, 96
1, 58469, Note_on_c, 1, 55, 96
1, 58470, Note_off_c, 1, 55, 96
1, 58524, Note_on_c, 1, 74, 96
1, 58525, Note_off_c, 1, 74, 96
1, 58584, Note_on_c, 1, 66, 96
1, 58585, Note_off_c, 1, 66, 96
1, 58591, Note_on_c, 1, 72, 96
1, 58592, Note_off_c, 1, 72, 96
1, 58709, Note_on_c, 1, 66, 96
1, 58710, Note_off_c, 1, 66, 96
1, 58831, Note_on_c, 1, 74, 96
1, 58832, Note_off_c, 1, 74, 96
1, 58838, Note_on_c, 1, 66, 96
1, 58839, Note_off_c, 1, 66, 96
1, 58864, Note_on_c, 1, 57, 96
1, 58865, Note_off_c, 1, 57, 96
1, 58925, Note_on_c, 1, 69, 96
1, 58926, Note_off_c, 1, 69, 96
1, 58985, Note_on_c, 1, 67, 96
1, 58986, Note_off_c, 1, 67, 96
1, 58993, Note_on_c, 1, 43, 96
1, 58994, Note_off_c, 1, 43, 96
1, 59056, Note_on_c, 1, 47, 96
1, 59056, Note_on_c, 1, 59, 96
1, 59057, Note_off_c, 1, 47, 96
1, 59057, Note_off_c, 1, 59, 96
1, 59113, Note_on_c, 1, 46, 96
1, 59115, Note_off_c, 1, 46, 96
1, 59115, Note_on_c, 1, 67, 96
1, 59116, Note_off_c, 1, 67, 96
1, 59118, Note_on_c, 1, 58, 96
1, 59119, Note_off_c, 1, 58, 96
1, 59178, Note_on_c, 1, 62, 96
1, 59178, Note_on_c, 1, 67, 96
1, 59179, Note_off_c, 1, 62, 96
1, 59179, Note_off_c, 1, 67, 96
1, 59236, Note_on_c, 1, 55, 96
1, 59238, Note_off_c, 1, 55, 96
1, 59238, Note_on_c, 1, 58, 96
1, 59240, Note_off_c, 1, 58, 96
1, 59240, Note_on_c, 1, 74, 96
1, 59241, Note_off_c, 1, 74, 96
1, 59244, Note_on_c, 1, 62, 96
1, 59245, Note_off_c, 1, 62, 96
1, 59302, Note_on_c, 1, 70, 96
1, 59303, Note_off_c, 1, 70, 96
1, 59364, Note_on_c, 1, 55, 96
1, 59366, Note_off_c, 1, 55, 96
1, 59366, Note_on_c, 1, 58, 96
1, 59368, Note_off_c, 1, 58, 96
1, 59368, Note_on_c, 1, 67, 96
1, 59370, Note_off_c, 1, 67, 96
1, 59370, Note_on_c, 1, 50, 96
1, 59371, Note_off_c, 1, 50, 96
1, 59430, Note_on_c, 1, 67, 96
1, 59431, Note_off_c, 1, 67, 96
1, 59494, Note_on_c, 1, 58, 96
1, 59494, Note_on_c, 1, 52, 96
1, 59496, Note_off_c, 1, 58, 96
1, 59496, Note_off_c, 1, 52, 96
1, 59496, Note_on_c, 1, 67, 96
1, 59497, Note_off_c, 1, 67, 96
1, 59610, Note_on_c, 1, 63, 96
1, 59612, Note_off_c, 1, 63, 96
1, 59612, Note_on_c, 1, 55, 96
1, 59614, Note_off_c, 1, 55, 96
1, 59614, Note_on_c, 1, 43, 96
1, 59616, Note_off_c, 1, 43, 96
1, 59616, Note_on_c, 1, 39, 96
1, 59617, Note_off_c, 1, 39, 96
1, 59619, Note_on_c, 1, 70, 96
1, 59620, Note_off_c, 1, 70, 96
1, 59679, Note_on_c, 1, 77, 96
1, 59680, Note_off_c, 1, 77, 96
1, 59737, Note_on_c, 1, 84, 96
1, 59739, Note_off_c, 1, 84, 96
1, 59739, Note_on_c, 1, 53, 96
1, 59741, Note_off_c, 1, 53, 96
1, 59741, Note_on_c, 1, 57, 96
1, 59742, Note_off_c, 1, 57, 96
1, 59747, Note_on_c, 1, 81, 96
1, 59747, Note_on_c, 1, 65, 96
1, 59747, Note_on_c, 1, 60, 96
1, 59748, Note_off_c, 1, 81, 96
1, 59748, Note_off_c, 1, 65, 96
1, 59748, Note_off_c, 1, 60, 96
1, 60104, Note_on_c, 1, 69, 96
1, 60106, Note_off_c, 1, 69, 96
1, 60106, Note_on_c, 1, 57, 96
1, 60108, Note_off_c, 1, 57, 96
1, 60108, Note_on_c, 1, 60, 96
1, 60109, Note_off_c, 1, 60, 96
1, 60112, Note_on_c, 1, 81, 96
1, 60112, Note_on_c, 1, 65, 96
1, 60113, Note_off_c, 1, 81, 96
1, 60113, Note_off_c, 1, 65, 96
1, 60169, Note_on_c, 1, 53, 96
1, 60169, Note_on_c, 1, 41, 96
1, 60170, Note_off_c, 1, 53, 96
1, 60170, Note_off_c, 1, 41, 96
1, 60410, Note_on_c, 1, 36, 96
1, 60411, Note_off_c, 1, 36, 96
1, 60417, Note_on_c, 1, 81, 96
1, 60418, Note_off_c, 1, 81, 96
1, 60420, Note_on_c, 1, 84, 96
1, 60421, Note_off_c, 1, 84, 96
1, 60472, Note_on_c, 1, 76, 96
1, 60473, Note_off_c, 1, 76, 96
1, 60536, Note_on_c, 1, 63, 96
1, 60537, Note_off_c, 1, 63, 96
1, 60539, Note_on_c, 1, 55, 96
1, 60540, Note_off_c, 1, 55, 96
1, 60655, Note_on_c, 1, 75, 96
1, 60656, Note_off_c, 1, 75, 96
1, 60776, Note_on_c, 1, 60, 96
1, 60778, Note_off_c, 1, 60, 96
1, 60778, Note_on_c, 1, 55, 96
1, 60780, Note_off_c, 1, 55, 96
1, 60780, Note_on_c, 1, 82, 96
1, 60781, Note_off_c, 1, 82, 96
1, 60784, Note_on_c, 1, 58, 96
1, 60784, Note_on_c, 1, 64, 96
1, 60785, Note_off_c, 1, 58, 96
1, 60785, Note_off_c, 1, 64, 96
1, 60842, Note_on_c, 1, 81, 96
1, 60843, Note_off_c, 1, 81, 96
1, 60904, Note_on_c, 1, 79, 96
1, 60904, Note_on_c, 1, 55, 96
1, 60905, Note_off_c, 1, 79, 96
1, 60905, Note_off_c, 1, 55, 96
1, 60907, Note_on_c, 1, 60, 96
1, 60908, Note_off_c, 1, 60, 96
1, 60965, Note_on_c, 1, 77, 96
1, 60966, Note_off_c, 1, 77, 96
1, 61025, Note_on_c, 1, 41, 96
1, 61027, Note_off_c, 1, 41, 96
1, 61027, Note_on_c, 1, 70, 96
1, 61029, Note_off_c, 1, 70, 96
1, 61029, Note_on_c, 1, 82, 96
1, 61030, Note_off_c, 1, 82, 96
1, 61091, Note_on_c, 1, 83, 96
1, 61092, Note_off_c, 1, 83, 96
1, 61149, Note_on_c, 1, 45, 96
1, 61150, Note_off_c, 1, 45, 96
1, 61213, Note_on_c, 1, 82, 96
1, 61214, Note_off_c, 1, 82, 96
1, 61271, Note_on_c, 1, 57, 96
1, 61272, Note_off_c, 1, 57, 96
1, 61274, Note_on_c, 1, 79, 96
1, 61275, Note_off_c, 1, 79, 96
1, 61279, Note_on_c, 1, 65, 96
1, 61281, Note_off_c, 1, 65, 96
1, 61281, Note_on_c, 1, 60, 96
1, 61282, Note_off_c, 1, 60, 96
1, 61334, Note_on_c, 1, 75, 96
1, 61335, Note_off_c, 1, 75, 96
1, 61372, End_track
0, 0, End_of_file