0, 0, Header, 0, 1, 240
1, 0, Start_track
1, 0, Tempo, 555555
1, 2, Note_on_c, 1, 80, 96
1, 2, Note_on_c, 1, 92, 96
1, 3, Note_off_c, 1, 80, 96
1, 3, Note_off_c, 1, 92, 96
1, 23, Note_on_c, 1, 82, 96
1, 27, Note_off_c, 1, 82, 96
1, 27, Note_on_c, 1, 77, 96
1, 27, Note_on_c, 1, 82, 96
1, 27, Note_on_c, 1, 92, 96
1, 29, Note_off_c, 1, 77, 96
1, 29, Note_off_c, 1, 82, 96
1, 29, Note_off_c, 1, 92, 96
1, 29, Note_on_c, 1, 86, 96
1, 30, Note_off_c, 1, 86, 96
1, 63, Note_on_c, 1, 53, 96
1, 63, Note_on_c, 1, 65, 96
1, 63, Note_on_c, 1, 62, 96
1, 63, Note_on_c, 1, 50, 96
1, 63, Note_on_c, 1, 38, 96
1, 65, Note_off_c, 1, 53, 96
1, 65, Note_off_c, 1, 65, 96
1, 65, Note_off_c, 1, 62, 96
1, 65, Note_off_c, 1, 50, 96
1, 65, Note_off_c, 1, 38, 96
1, 65, Note_on_c, 1, 38, 96
1, 66, Note_off_c, 1, 38, 96
1, 99, Note_on_c, 1, 82, 96
1, 99, Note_on_c, 1, 74, 96
1, 100, Note_off_c, 1, 82, 96
1, 100, Note_off_c, 1, 74, 96
1, 129, Note_on_c, 1, 49, 96
1, 129, Note_on_c, 1, 61, 96
1, 130, Note_off_c, 1, 49, 96
1, 130, Note_off_c, 1, 61, 96
1, 165, Note_on_c, 1, 77, 96
1, 165, Note_on_c, 1, 65, 96
1, 165, Note_on_c, 1, 78, 96
1, 165, Note_on_c, 1, 64, 96
1, 165, Note_on_c, 1, 70, 96
1, 166, Note_off_c, 1, 77, 96
1, 166, Note_off_c, 1, 65, 96
1, 166, Note_off_c, 1, 78, 96
1, 166, Note_off_c, 1, 64, 96
1, 166, Note_off_c, 1, 70, 96
1, 199, Note_on_c, 1, 82, 96
1, 199, Note_on_c, 1, 76, 96
1, 199, Note_on_c, 1, 72, 96
1, 199, Note_on_c, 1, 43, 96
1, 199, Note_on_c, 1, 55, 96
1, 200, Note_off_c, 1, 82, 96
1, 200, Note_off_c, 1, 76, 96
1, 200, Note_off_c, 1, 72, 96
1, 200, Note_off_c, 1, 43, 96
1, 200, Note_off_c, 1, 55, 96
1, 264, Note_on_c, 1, 69, 96
1, 264, Note_on_c, 1, 72, 96
1, 264, Note_on_c, 1, 76, 96
1, 264, Note_on_c, 1, 64, 96
1, 264, Note_on_c, 1, 48, 96
1, 264, Note_on_c, 1, 60, 96
1, 265, Note_off_c, 1, 69, 96
1, 265, Note_off_c, 1, 72, 96
1, 265, Note_off_c, 1, 76, 96
1, 265, Note_off_c, 1, 64, 96
1, 265, Note_off_c, 1, 48, 96
1, 265, Note_off_c, 1, 60, 96
1, 327, Note_on_c, 1, 53, 96
1, 327, Note_on_c, 1, 57, 96
1, 327, Note_on_c, 1, 63, 96
1, 328, Note_off_c, 1, 53, 96
1, 328, Note_off_c, 1, 57, 96
1, 328, Note_off_c, 1, 63, 96
1, 389, Note_on_c, 1, 40, 96
1, 389, Note_on_c, 1, 52, 96
1, 390, Note_off_c, 1, 40, 96
1, 390, Note_off_c, 1, 52, 96
1, 420, Note_on_c, 1, 50, 96
1, 421, Note_off_c, 1, 50, 96
1, 451, Note_on_c, 1, 34, 96
1, 452, Note_off_c, 1, 34, 96
1, 515, Note_on_c, 1, 74, 96
1, 515, Note_on_c, 1, 86, 96
1, 515, Note_on_c, 1, 38, 96
1, 515, Note_on_c, 1, 50, 96
1, 516, Note_off_c, 1, 74, 96
1, 516, Note_off_c, 1, 86, 96
1, 516, Note_off_c, 1, 38, 96
1, 516, Note_off_c, 1, 50, 96
1, 546, Note_on_c, 1, 38, 96
1, 547, Note_off_c, 1, 38, 96
1, 592, Note_on_c, 1, 48, 96
1, 592, Note_on_c, 1, 38, 96
1, 592, Note_on_c, 1, 81, 96
1, 592, Note_on_c, 1, 71, 96
1, 592, Note_on_c, 1, 74, 96
1, 592, Note_on_c, 1, 37, 96
1, 592, Note_on_c, 1, 89, 96
1, 592, Note_on_c, 1, 77, 96
1, 592, Note_on_c, 1, 85, 96
1, 592, Note_on_c, 1, 97, 96
1, 592, Note_on_c, 1, 102, 96
1, 592, Note_on_c, 1, 93, 96
1, 592, Note_on_c, 1, 98, 96
1, 592, Note_on_c, 1, 93, 96
1, 592, Note_on_c, 1, 89, 96
1, 592, Note_on_c, 1, 98, 96
1, 599, Note_off_c, 1, 48, 96
1, 599, Note_off_c, 1, 38, 96
1, 599, Note_off_c, 1, 81, 96
1, 599, Note_off_c, 1, 71, 96
1, 599, Note_off_c, 1, 74, 96
1, 599, Note_off_c, 1, 37, 96
1, 599, Note_off_c, 1, 89, 96
1, 599, Note_off_c, 1, 77, 96
1, 599, Note_off_c, 1, 85, 96
1, 599, Note_off_c, 1, 97, 96
1, 599, Note_off_c, 1, 102, 96
1, 599, Note_off_c, 1, 93, 96
1, 599, Note_off_c, 1, 98, 96
1, 599, Note_off_c, 1, 93, 96
1, 599, Note_off_c, 1, 89, 96
1, 599, Note_off_c, 1, 98, 96
1, 599, Note_on_c, 1, 59, 96
1, 599, Note_on_c, 1, 36, 96
1, 599, Note_on_c, 1, 57, 96
1, 599, Note_on_c, 1, 89, 96
1, 599, Note_on_c, 1, 81, 96
1, 599, Note_on_c, 1, 91, 96
1, 600, Note_off_c, 1, 59, 96
1, 600, Note_off_c, 1, 36, 96
1, 600, Note_off_c, 1, 57, 96
1, 600, Note_off_c, 1, 89, 96
1, 600, Note_off_c, 1, 81, 96
1, 600, Note_off_c, 1, 91, 96
1, 896, Note_on_c, 1, 40, 96
1, 897, Note_off_c, 1, 40, 96
1, 962, Note_on_c, 1, 89, 96
1, 962, Note_on_c, 1, 47, 96
1, 963, Note_off_c, 1, 89, 96
1, 963, Note_off_c, 1, 47, 96
1, 1245, Note_on_c, 1, 38, 96
1, 1246, Note_off_c, 1, 38, 96
1, 1277, Note_on_c, 1, 38, 96
1, 1278, Note_off_c, 1, 38, 96
1, 1291, Note_on_c, 1, 91, 96
1, 1291, Note_on_c, 1, 43, 96
1, 1291, Note_on_c, 1, 62, 96
1, 1291, Note_on_c, 1, 52, 96
1, 1291, Note_on_c, 1, 55, 96
1, 1291, Note_on_c, 1, 59, 96
1, 1292, Note_off_c, 1, 91, 96
1, 1292, Note_off_c, 1, 43, 96
1, 1292, Note_off_c, 1, 62, 96
1, 1292, Note_off_c, 1, 52, 96
1, 1292, Note_off_c, 1, 55, 96
1, 1292, Note_off_c, 1, 59, 96
1, 1582, Note_on_c, 1, 96, 96
1, 1583, Note_off_c, 1, 96, 96
1, 1826, Note_on_c, 1, 94, 96
1, 1826, Note_on_c, 1, 82, 96
1, 1826, Note_on_c, 1, 52, 96
1, 1826, Note_on_c, 1, 60, 96
1, 1826, Note_on_c, 1, 58, 96
1, 1826, Note_on_c, 1, 86, 96
1, 1827, Note_off_c, 1, 94, 96
1, 1827, Note_off_c, 1, 82, 96
1, 1827, Note_off_c, 1, 52, 96
1, 1827, Note_off_c, 1, 60, 96
1, 1827, Note_off_c, 1, 58, 96
1, 1827, Note_off_c, 1, 86, 96
1, 2075, Note_on_c, 1, 88, 96
1, 2075, Note_on_c, 1, 84, 96
1, 2075, Note_on_c, 1, 76, 96
1, 2075, Note_on_c, 1, 48, 96
1, 2075, Note_on_c, 1, 36, 96
1, 2075, Note_on_c, 1, 60, 96
1, 2075, Note_on_c, 1, 48, 96
1, 2075, Note_on_c, 1, 60, 96
1, 2075, Note_on_c, 1, 48, 96
1, 2076, Note_off_c, 1, 88, 96
1, 2076, Note_off_c, 1, 84, 96
1, 2076, Note_off_c, 1, 76, 96
1, 2076, Note_off_c, 1, 48, 96
1, 2076, Note_off_c, 1, 36, 96
1, 2076, Note_off_c, 1, 60, 96
1, 2076, Note_off_c, 1, 48, 96
1, 2076, Note_off_c, 1, 60, 96
1, 2076, Note_off_c, 1, 48, 96
1, 2200, Note_on_c, 1, 89, 96
1, 2200, Note_on_c, 1, 84, 96
1, 2200, Note_on_c, 1, 77, 96
1, 2200, Note_on_c, 1, 29, 96
1, 2200, Note_on_c, 1, 41, 96
1, 2201, Note_off_c, 1, 89, 96
1, 2201, Note_off_c, 1, 84, 96
1, 2201, Note_off_c, 1, 77, 96
1, 2201, Note_off_c, 1, 29, 96
1, 2201, Note_off_c, 1, 41, 96
1, 2441, Note_on_c, 1, 74, 96
1, 2442, Note_off_c, 1, 74, 96
1, 2683, Note_on_c, 1, 69, 96
1, 2683, Note_on_c, 1, 42, 96
1, 2683, Note_on_c, 1, 54, 96
1, 2684, Note_off_c, 1, 69, 96
1, 2684, Note_off_c, 1, 42, 96
1, 2684, Note_off_c, 1, 54, 96
1, 2804, Note_on_c, 1, 73, 96
1, 2805, Note_off_c, 1, 73, 96
1, 2925, Note_on_c, 1, 79, 96
1, 2926, Note_off_c, 1, 79, 96
1, 3049, Note_on_c, 1, 76, 96
1, 3049, Note_on_c, 1, 54, 96
1, 3049, Note_on_c, 1, 57, 96
1, 3049, Note_on_c, 1, 63, 96
1, 3050, Note_off_c, 1, 76, 96
1, 3050, Note_off_c, 1, 54, 96
1, 3050, Note_off_c, 1, 57, 96
1, 3050, Note_off_c, 1, 63, 96
1, 3110, Note_on_c, 1, 78, 96
1, 3111, Note_off_c, 1, 78, 96
1, 3174, Note_on_c, 1, 79, 96
1, 3174, Note_on_c, 1, 57, 96
1, 3174, Note_on_c, 1, 53, 96
1, 3174, Note_on_c, 1, 61, 96
1, 3175, Note_off_c, 1, 79, 96
1, 3175, Note_off_c, 1, 57, 96
1, 3175, Note_off_c, 1, 53, 96
1, 3175, Note_off_c, 1, 61, 96
1, 3235, Note_on_c, 1, 76, 96
1, 3236, Note_off_c, 1, 76, 96
1, 3299, Note_on_c, 1, 77, 96
1, 3299, Note_on_c, 1, 50, 96
1, 3299, Note_on_c, 1, 45, 96
1, 3299, Note_on_c, 1, 38, 96
1, 3300, Note_off_c, 1, 77, 96
1, 3300, Note_off_c, 1, 50, 96
1, 3300, Note_off_c, 1, 45, 96
1, 3300, Note_off_c, 1, 38, 96
1, 3360, Note_on_c, 1, 69, 96
1, 3361, Note_off_c, 1, 69, 96
1, 3423, Note_on_c, 1, 57, 96
1, 3423, Note_on_c, 1, 62, 96
1, 3423, Note_on_c, 1, 54, 96
1, 3424, Note_off_c, 1, 57, 96
1, 3424, Note_off_c, 1, 62, 96
1, 3424, Note_off_c, 1, 54, 96
1, 3484, Note_on_c, 1, 75, 96
1, 3485, Note_off_c, 1, 75, 96
1, 3546, Note_on_c, 1, 54, 96
1, 3546, Note_on_c, 1, 69, 96
1, 3547, Note_off_c, 1, 54, 96
1, 3547, Note_off_c, 1, 69, 96
1, 3608, Note_on_c, 1, 71, 96
1, 3608, Note_on_c, 1, 50, 96
1, 3609, Note_off_c, 1, 71, 96
1, 3609, Note_off_c, 1, 50, 96
1, 3730, Note_on_c, 1, 67, 96
1, 3730, Note_on_c, 1, 43, 96
1, 3731, Note_off_c, 1, 67, 96
1, 3731, Note_off_c, 1, 43, 96
1, 3921, Note_on_c, 1, 71, 96
1, 3922, Note_off_c, 1, 71, 96
1, 4168, Note_on_c, 1, 62, 96
1, 4168, Note_on_c, 1, 67, 96
1, 4168, Note_on_c, 1, 71, 96
1, 4168, Note_on_c, 1, 74, 96
1, 4168, Note_on_c, 1, 43, 96
1, 4168, Note_on_c, 1, 53, 96
1, 4169, Note_off_c, 1, 62, 96
1, 4169, Note_off_c, 1, 67, 96
1, 4169, Note_off_c, 1, 71, 96
1, 4169, Note_off_c, 1, 74, 96
1, 4169, Note_off_c, 1, 43, 96
1, 4169, Note_off_c, 1, 53, 96
1, 4289, Note_on_c, 1, 74, 96
1, 4290, Note_off_c, 1, 74, 96
1, 4413, Note_on_c, 1, 74, 96
1, 4413, Note_on_c, 1, 55, 96
1, 4413, Note_on_c, 1, 59, 96
1, 4413, Note_on_c, 1, 62, 96
1, 4414, Note_off_c, 1, 74, 96
1, 4414, Note_off_c, 1, 55, 96
1, 4414, Note_off_c, 1, 59, 96
1, 4414, Note_off_c, 1, 62, 96
1, 4604, Note_on_c, 1, 74, 96
1, 4605, Note_off_c, 1, 74, 96
1, 4845, Note_on_c, 1, 75, 96
1, 4845, Note_on_c, 1, 72, 96
1, 4845, Note_on_c, 1, 67, 96
1, 4845, Note_on_c, 1, 48, 96
1, 4845, Note_on_c, 1, 44, 96
1, 4845, Note_on_c, 1, 53, 96
1, 4846, Note_off_c, 1, 75, 96
1, 4846, Note_off_c, 1, 72, 96
1, 4846, Note_off_c, 1, 67, 96
1, 4846, Note_off_c, 1, 48, 96
1, 4846, Note_off_c, 1, 44, 96
1, 4846, Note_off_c, 1, 53, 96
1, 5094, Note_on_c, 1, 88, 96
1, 5094, Note_on_c, 1, 84, 96
1, 5094, Note_on_c, 1, 96, 96
1, 5094, Note_on_c, 1, 55, 96
1, 5094, Note_on_c, 1, 58, 96
1, 5094, Note_on_c, 1, 60, 96
1, 5094, Note_on_c, 1, 64, 96
1, 5095, Note_off_c, 1, 88, 96
1, 5095, Note_off_c, 1, 84, 96
1, 5095, Note_off_c, 1, 96, 96
1, 5095, Note_off_c, 1, 55, 96
1, 5095, Note_off_c, 1, 58, 96
1, 5095, Note_off_c, 1, 60, 96
1, 5095, Note_off_c, 1, 64, 96
1, 5335, Note_on_c, 1, 76, 96
1, 5335, Note_on_c, 1, 82, 96
1, 5335, Note_on_c, 1, 86, 96
1, 5336, Note_off_c, 1, 76, 96
1, 5336, Note_off_c, 1, 82, 96
1, 5336, Note_off_c, 1, 86, 96
1, 5564, Note_on_c, 1, 85, 96
1, 5564, Note_on_c, 1, 97, 96
1, 5564, Note_on_c, 1, 89, 96
1, 5565, Note_off_c, 1, 85, 96
1, 5565, Note_off_c, 1, 97, 96
1, 5565, Note_off_c, 1, 89, 96
1, 5625, Note_on_c, 1, 77, 96
1, 5626, Note_off_c, 1, 77, 96
1, 5691, Note_on_c, 1, 81, 96
1, 5691, Note_on_c, 1, 64, 96
1, 5691, Note_on_c, 1, 76, 96
1, 5691, Note_on_c, 1, 72, 96
1, 5691, Note_on_c, 1, 48, 96
1, 5691, Note_on_c, 1, 36, 96
1, 5692, Note_off_c, 1, 81, 96
1, 5692, Note_off_c, 1, 64, 96
1, 5692, Note_off_c, 1, 76, 96
1, 5692, Note_off_c, 1, 72, 96
1, 5692, Note_off_c, 1, 48, 96
1, 5692, Note_off_c, 1, 36, 96
1, 5812, Note_on_c, 1, 88, 96
1, 5813, Note_off_c, 1, 88, 96
1, 5934, Note_on_c, 1, 100, 96
1, 5934, Note_on_c, 1, 48, 96
1, 5935, Note_off_c, 1, 100, 96
1, 5935, Note_off_c, 1, 48, 96
1, 6055, Note_on_c, 1, 38, 96
1, 6056, Note_off_c, 1, 38, 96
1, 6220, Note_on_c, 1, 58, 96
1, 6220, Note_on_c, 1, 36, 96
1, 6220, Note_on_c, 1, 48, 96
1, 6221, Note_off_c, 1, 58, 96
1, 6221, Note_off_c, 1, 36, 96
1, 6221, Note_off_c, 1, 48, 96
1, 6251, Note_on_c, 1, 39, 96
1, 6252, Note_off_c, 1, 39, 96
1, 6494, Note_on_c, 1, 67, 96
1, 6494, Note_on_c, 1, 72, 96
1, 6494, Note_on_c, 1, 79, 96
1, 6495, Note_off_c, 1, 67, 96
1, 6495, Note_off_c, 1, 72, 96
1, 6495, Note_off_c, 1, 79, 96
1, 6692, Note_on_c, 1, 82, 96
1, 6693, Note_off_c, 1, 82, 96
1, 6726, Note_on_c, 1, 34, 96
1, 6726, Note_on_c, 1, 46, 96
1, 6727, Note_off_c, 1, 34, 96
1, 6727, Note_off_c, 1, 46, 96
1, 7078, Note_on_c, 1, 75, 96
1, 7078, Note_on_c, 1, 53, 96
1, 7079, Note_off_c, 1, 75, 96
1, 7079, Note_off_c, 1, 53, 96
1, 7240, Note_on_c, 1, 56, 96
1, 7240, Note_on_c, 1, 62, 96
1, 7240, Note_on_c, 1, 58, 96
1, 7241, Note_off_c, 1, 56, 96
1, 7241, Note_off_c, 1, 62, 96
1, 7241, Note_off_c, 1, 58, 96
1, 7427, Note_on_c, 1, 70, 96
1, 7427, Note_on_c, 1, 82, 96
1, 7428, Note_off_c, 1, 70, 96
1, 7428, Note_off_c, 1, 82, 96
1, 7625, Note_on_c, 1, 77, 96
1, 7625, Note_on_c, 1, 83, 96
1, 7625, Note_on_c, 1, 74, 96
1, 7625, Note_on_c, 1, 71, 96
1, 7625, Note_on_c, 1, 47, 96
1, 7625, Note_on_c, 1, 59, 96
1, 7625, Note_on_c, 1, 61, 96
1, 7626, Note_off_c, 1, 77, 96
1, 7626, Note_off_c, 1, 83, 96
1, 7626, Note_off_c, 1, 74, 96
1, 7626, Note_off_c, 1, 71, 96
1, 7626, Note_off_c, 1, 47, 96
1, 7626, Note_off_c, 1, 59, 96
1, 7626, Note_off_c, 1, 61, 96
1, 7821, Note_on_c, 1, 78, 96
1, 7821, Note_on_c, 1, 69, 96
1, 7822, Note_off_c, 1, 78, 96
1, 7822, Note_off_c, 1, 69, 96
1, 7838, Note_on_c, 1, 42, 96
1, 7838, Note_on_c, 1, 30, 96
1, 7839, Note_off_c, 1, 42, 96
1, 7839, Note_off_c, 1, 30, 96
1, 8038, Note_on_c, 1, 72, 96
1, 8039, Note_off_c, 1, 72, 96
1, 8277, Note_on_c, 1, 70, 96
1, 8277, Note_on_c, 1, 74, 96
1, 8277, Note_on_c, 1, 77, 96
1, 8277, Note_on_c, 1, 62, 96
1, 8277, Note_on_c, 1, 58, 96
1, 8277, Note_on_c, 1, 53, 96
1, 8278, Note_off_c, 1, 70, 96
1, 8278, Note_off_c, 1, 74, 96
1, 8278, Note_off_c, 1, 77, 96
1, 8278, Note_off_c, 1, 62, 96
1, 8278, Note_off_c, 1, 58, 96
1, 8278, Note_off_c, 1, 53, 96
1, 8518, Note_on_c, 1, 70, 96
1, 8518, Note_on_c, 1, 82, 96
1, 8519, Note_off_c, 1, 70, 96
1, 8519, Note_off_c, 1, 82, 96
1, 8755, Note_on_c, 1, 36, 96
1, 8755, Note_on_c, 1, 48, 96
1, 8756, Note_off_c, 1, 36, 96
1, 8756, Note_off_c, 1, 48, 96
1, 8995, Note_on_c, 1, 84, 96
1, 8996, Note_off_c, 1, 84, 96
1, 9097, Note_on_c, 1, 86, 96
1, 9098, Note_off_c, 1, 86, 96
1, 9139, Note_on_c, 1, 83, 96
1, 9139, Note_on_c, 1, 59, 96
1, 9140, Note_off_c, 1, 83, 96
1, 9140, Note_off_c, 1, 59, 96
1, 9260, Note_on_c, 1, 90, 96
1, 9261, Note_off_c, 1, 90, 96
1, 9321, Note_on_c, 1, 67, 96
1, 9322, Note_off_c, 1, 67, 96
1, 9329, Note_on_c, 1, 43, 96
1, 9330, Note_off_c, 1, 43, 96
1, 9350, Note_on_c, 1, 76, 96
1, 9351, Note_off_c, 1, 76, 96
1, 9370, Note_on_c, 1, 88, 96
1, 9371, Note_off_c, 1, 88, 96
1, 9392, Note_on_c, 1, 79, 96
1, 9392, Note_on_c, 1, 67, 96
1, 9392, Note_on_c, 1, 71, 96
1, 9392, Note_on_c, 1, 74, 96
1, 9392, Note_on_c, 1, 62, 96
1, 9393, Note_off_c, 1, 79, 96
1, 9393, Note_off_c, 1, 67, 96
1, 9393, Note_off_c, 1, 71, 96
1, 9393, Note_off_c, 1, 74, 96
1, 9393, Note_off_c, 1, 62, 96
1, 9445, Note_on_c, 1, 77, 96
1, 9445, Note_on_c, 1, 83, 96
1, 9445, Note_on_c, 1, 59, 96
1, 9445, Note_on_c, 1, 55, 96
1, 9445, Note_on_c, 1, 53, 96
1, 9446, Note_off_c, 1, 77, 96
1, 9446, Note_off_c, 1, 83, 96
1, 9446, Note_off_c, 1, 59, 96
1, 9446, Note_off_c, 1, 55, 96
1, 9446, Note_off_c, 1, 53, 96
1, 9494, Note_on_c, 1, 62, 96
1, 9495, Note_off_c, 1, 62, 96
1, 9548, Note_on_c, 1, 81, 96
1, 9548, Note_on_c, 1, 77, 96
1, 9548, Note_on_c, 1, 50, 96
1, 9548, Note_on_c, 1, 59, 96
1, 9548, Note_on_c, 1, 53, 96
1, 9548, Note_on_c, 1, 55, 96
1, 9549, Note_off_c, 1, 81, 96
1, 9549, Note_off_c, 1, 77, 96
1, 9549, Note_off_c, 1, 50, 96
1, 9549, Note_off_c, 1, 59, 96
1, 9549, Note_off_c, 1, 53, 96
1, 9549, Note_off_c, 1, 55, 96
1, 9671, Note_on_c, 1, 81, 96
1, 9671, Note_on_c, 1, 77, 96
1, 9671, Note_on_c, 1, 50, 96
1, 9672, Note_off_c, 1, 81, 96
1, 9672, Note_off_c, 1, 77, 96
1, 9672, Note_off_c, 1, 50, 96
1, 9793, Note_on_c, 1, 45, 96
1, 9793, Note_on_c, 1, 57, 96
1, 9794, Note_off_c, 1, 45, 96
1, 9794, Note_off_c, 1, 57, 96
1, 9918, Note_on_c, 1, 81, 96
1, 9918, Note_on_c, 1, 77, 96
1, 9918, Note_on_c, 1, 59, 96
1, 9918, Note_on_c, 1, 55, 96
1, 9918, Note_on_c, 1, 65, 96
1, 9919, Note_off_c, 1, 81, 96
1, 9919, Note_off_c, 1, 77, 96
1, 9919, Note_off_c, 1, 59, 96
1, 9919, Note_off_c, 1, 55, 96
1, 9919, Note_off_c, 1, 65, 96
1, 10044, Note_on_c, 1, 76, 96
1, 10044, Note_on_c, 1, 72, 96
1, 10044, Note_on_c, 1, 81, 96
1, 10044, Note_on_c, 1, 60, 96
1, 10044, Note_on_c, 1, 55, 96
1, 10044, Note_on_c, 1, 52, 96
1, 10045, Note_off_c, 1, 76, 96
1, 10045, Note_off_c, 1, 72, 96
1, 10045, Note_off_c, 1, 81, 96
1, 10045, Note_off_c, 1, 60, 96
1, 10045, Note_off_c, 1, 55, 96
1, 10045, Note_off_c, 1, 52, 96
1, 10106, Note_on_c, 1, 84, 96
1, 10106, Note_on_c, 1, 72, 96
1, 10107, Note_off_c, 1, 84, 96
1, 10107, Note_off_c, 1, 72, 96
1, 10171, Note_on_c, 1, 91, 96
1, 10171, Note_on_c, 1, 79, 96
1, 10171, Note_on_c, 1, 55, 96
1, 10171, Note_on_c, 1, 60, 96
1, 10171, Note_on_c, 1, 52, 96
1, 10172, Note_off_c, 1, 91, 96
1, 10172, Note_off_c, 1, 79, 96
1, 10172, Note_off_c, 1, 55, 96
1, 10172, Note_off_c, 1, 60, 96
1, 10172, Note_off_c, 1, 52, 96
1, 10232, Note_on_c, 1, 83, 96
1, 10233, Note_off_c, 1, 83, 96
1, 10295, Note_on_c, 1, 76, 96
1, 10295, Note_on_c, 1, 81, 96
1, 10295, Note_on_c, 1, 48, 96
1, 10296, Note_off_c, 1, 76, 96
1, 10296, Note_off_c, 1, 81, 96
1, 10296, Note_off_c, 1, 48, 96
1, 10357, Note_on_c, 1, 83, 96
1, 10357, Note_on_c, 1, 74, 96
1, 10358, Note_off_c, 1, 83, 96
1, 10358, Note_off_c, 1, 74, 96
1, 10420, Note_on_c, 1, 69, 96
1, 10420, Note_on_c, 1, 76, 96
1, 10420, Note_on_c, 1, 81, 96
1, 10421, Note_off_c, 1, 69, 96
1, 10421, Note_off_c, 1, 76, 96
1, 10421, Note_off_c, 1, 81, 96
1, 10483, Note_on_c, 1, 73, 96
1, 10483, Note_on_c, 1, 76, 96
1, 10483, Note_on_c, 1, 81, 96
1, 10484, Note_off_c, 1, 73, 96
1, 10484, Note_off_c, 1, 76, 96
1, 10484, Note_off_c, 1, 81, 96
1, 10546, Note_on_c, 1, 74, 96
1, 10546, Note_on_c, 1, 80, 96
1, 10546, Note_on_c, 1, 43, 96
1, 10547, Note_off_c, 1, 74, 96
1, 10547, Note_off_c, 1, 80, 96
1, 10547, Note_off_c, 1, 43, 96
1, 10669, Note_on_c, 1, 78, 96
1, 10669, Note_on_c, 1, 35, 96
1, 10669, Note_on_c, 1, 49, 96
1, 10670, Note_off_c, 1, 78, 96
1, 10670, Note_off_c, 1, 35, 96
1, 10670, Note_off_c, 1, 49, 96
1, 10792, Note_on_c, 1, 64, 96
1, 10792, Note_on_c, 1, 76, 96
1, 10792, Note_on_c, 1, 52, 96
1, 10793, Note_off_c, 1, 64, 96
1, 10793, Note_off_c, 1, 76, 96
1, 10793, Note_off_c, 1, 52, 96
1, 10853, Note_on_c, 1, 75, 96
1, 10854, Note_off_c, 1, 75, 96
1, 10919, Note_on_c, 1, 85, 96
1, 10919, Note_on_c, 1, 81, 96
1, 10919, Note_on_c, 1, 76, 96
1, 10919, Note_on_c, 1, 57, 96
1, 10919, Note_on_c, 1, 67, 96
1, 10919, Note_on_c, 1, 61, 96
1, 10920, Note_off_c, 1, 85, 96
1, 10920, Note_off_c, 1, 81, 96
1, 10920, Note_off_c, 1, 76, 96
1, 10920, Note_off_c, 1, 57, 96
1, 10920, Note_off_c, 1, 67, 96
1, 10920, Note_off_c, 1, 61, 96
1, 11044, Note_on_c, 1, 80, 96
1, 11044, Note_on_c, 1, 87, 96
1, 11044, Note_on_c, 1, 84, 96
1, 11044, Note_on_c, 1, 45, 96
1, 11044, Note_on_c, 1, 57, 96
1, 11045, Note_off_c, 1, 80, 96
1, 11045, Note_off_c, 1, 87, 96
1, 11045, Note_off_c, 1, 84, 96
1, 11045, Note_off_c, 1, 45, 96
1, 11045, Note_off_c, 1, 57, 96
1, 11105, Note_on_c, 1, 72, 96
1, 11106, Note_off_c, 1, 72, 96
1, 11169, Note_on_c, 1, 86, 96
1, 11169, Note_on_c, 1, 57, 96
1, 11169, Note_on_c, 1, 65, 96
1, 11169, Note_on_c, 1, 62, 96
1, 11170, Note_off_c, 1, 86, 96
1, 11170, Note_off_c, 1, 57, 96
1, 11170, Note_off_c, 1, 65, 96
1, 11170, Note_off_c, 1, 62, 96
1, 11233, Note_on_c, 1, 89, 96
1, 11233, Note_on_c, 1, 81, 96
1, 11233, Note_on_c, 1, 84, 96
1, 11233, Note_on_c, 1, 77, 96
1, 11234, Note_off_c, 1, 89, 96
1, 11234, Note_off_c, 1, 81, 96
1, 11234, Note_off_c, 1, 84, 96
1, 11234, Note_off_c, 1, 77, 96
1, 11296, Note_on_c, 1, 65, 96
1, 11296, Note_on_c, 1, 57, 96
1, 11296, Note_on_c, 1, 60, 96
1, 11297, Note_off_c, 1, 65, 96
1, 11297, Note_off_c, 1, 57, 96
1, 11297, Note_off_c, 1, 60, 96
1, 11540, Note_on_c, 1, 48, 96
1, 11540, Note_on_c, 1, 36, 96
1, 11541, Note_off_c, 1, 48, 96
1, 11541, Note_off_c, 1, 36, 96
1, 11665, Note_on_c, 1, 81, 96
1, 11665, Note_on_c, 1, 84, 96
1, 11665, Note_on_c, 1, 76, 96
1, 11665, Note_on_c, 1, 38, 96
1, 11665, Note_on_c, 1, 50, 96
1, 11666, Note_off_c, 1, 81, 96
1, 11666, Note_off_c, 1, 84, 96
1, 11666, Note_off_c, 1, 76, 96
1, 11666, Note_off_c, 1, 38, 96
1, 11666, Note_off_c, 1, 50, 96
1, 11788, Note_on_c, 1, 91, 96
1, 11788, Note_on_c, 1, 81, 96
1, 11788, Note_on_c, 1, 84, 96
1, 11789, Note_off_c, 1, 91, 96
1, 11789, Note_off_c, 1, 81, 96
1, 11789, Note_off_c, 1, 84, 96
1, 11851, Note_on_c, 1, 81, 96
1, 11851, Note_on_c, 1, 74, 96
1, 11851, Note_on_c, 1, 86, 96
1, 11852, Note_off_c, 1, 81, 96
1, 11852, Note_off_c, 1, 74, 96
1, 11852, Note_off_c, 1, 86, 96
1, 11913, Note_on_c, 1, 48, 96
1, 11913, Note_on_c, 1, 36, 96
1, 11914, Note_off_c, 1, 48, 96
1, 11914, Note_off_c, 1, 36, 96
1, 11974, Note_on_c, 1, 79, 96
1, 11975, Note_off_c, 1, 79, 96
1, 12037, Note_on_c, 1, 53, 96
1, 12037, Note_on_c, 1, 59, 96
1, 12037, Note_on_c, 1, 55, 96
1, 12038, Note_off_c, 1, 53, 96
1, 12038, Note_off_c, 1, 59, 96
1, 12038, Note_off_c, 1, 55, 96
1, 12098, Note_on_c, 1, 81, 96
1, 12099, Note_off_c, 1, 81, 96
1, 12161, Note_on_c, 1, 84, 96
1, 12161, Note_on_c, 1, 45, 96
1, 12161, Note_on_c, 1, 72, 96
1, 12162, Note_off_c, 1, 84, 96
1, 12162, Note_off_c, 1, 45, 96
1, 12162, Note_off_c, 1, 72, 96
1, 12223, Note_on_c, 1, 72, 96
1, 12223, Note_on_c, 1, 81, 96
1, 12224, Note_off_c, 1, 72, 96
1, 12224, Note_off_c, 1, 81, 96
1, 12284, Note_on_c, 1, 52, 96
1, 12285, Note_off_c, 1, 52, 96
1, 12345, Note_on_c, 1, 79, 96
1, 12346, Note_off_c, 1, 79, 96
1, 12408, Note_on_c, 1, 79, 96
1, 12408, Note_on_c, 1, 38, 96
1, 12408, Note_on_c, 1, 50, 96
1, 12409, Note_off_c, 1, 79, 96
1, 12409, Note_off_c, 1, 38, 96
1, 12409, Note_off_c, 1, 50, 96
1, 12469, Note_on_c, 1, 78, 96
1, 12470, Note_off_c, 1, 78, 96
1, 12532, Note_on_c, 1, 55, 96
1, 12532, Note_on_c, 1, 62, 96
1, 12532, Note_on_c, 1, 59, 96
1, 12533, Note_off_c, 1, 55, 96
1, 12533, Note_off_c, 1, 62, 96
1, 12533, Note_off_c, 1, 59, 96
1, 12593, Note_on_c, 1, 71, 96
1, 12594, Note_off_c, 1, 71, 96
1, 12654, Note_on_c, 1, 38, 96
1, 12655, Note_off_c, 1, 38, 96
1, 12716, Note_on_c, 1, 66, 96
1, 12716, Note_on_c, 1, 74, 96
1, 12717, Note_off_c, 1, 66, 96
1, 12717, Note_off_c, 1, 74, 96
1, 12779, Note_on_c, 1, 74, 96
1, 12779, Note_on_c, 1, 50, 96
1, 12779, Note_on_c, 1, 38, 96
1, 12780, Note_off_c, 1, 74, 96
1, 12780, Note_off_c, 1, 50, 96
1, 12780, Note_off_c, 1, 38, 96
1, 12840, Note_on_c, 1, 76, 96
1, 12841, Note_off_c, 1, 76, 96
1, 12903, Note_on_c, 1, 71, 96
1, 12903, Note_on_c, 1, 38, 96
1, 12903, Note_on_c, 1, 50, 96
1, 12904, Note_off_c, 1, 71, 96
1, 12904, Note_off_c, 1, 38, 96
1, 12904, Note_off_c, 1, 50, 96
1, 12964, Note_on_c, 1, 81, 96
1, 12965, Note_off_c, 1, 81, 96
1, 13029, Note_on_c, 1, 76, 96
1, 13029, Note_on_c, 1, 57, 96
1, 13029, Note_on_c, 1, 60, 96
1, 13029, Note_on_c, 1, 50, 96
1, 13029, Note_on_c, 1, 54, 96
1, 13030, Note_off_c, 1, 76, 96
1, 13030, Note_off_c, 1, 57, 96
1, 13030, Note_off_c, 1, 60, 96
1, 13030, Note_off_c, 1, 50, 96
1, 13030, Note_off_c, 1, 54, 96
1, 13091, Note_on_c, 1, 72, 96
1, 13091, Note_on_c, 1, 81, 96
1, 13092, Note_off_c, 1, 72, 96
1, 13092, Note_off_c, 1, 81, 96
1, 13153, Note_on_c, 1, 53, 96
1, 13153, Note_on_c, 1, 41, 96
1, 13154, Note_off_c, 1, 53, 96
1, 13154, Note_off_c, 1, 41, 96
1, 13214, Note_on_c, 1, 81, 96
1, 13215, Note_off_c, 1, 81, 96
1, 13277, Note_on_c, 1, 55, 96
1, 13277, Note_on_c, 1, 58, 96
1, 13277, Note_on_c, 1, 62, 96
1, 13278, Note_off_c, 1, 55, 96
1, 13278, Note_off_c, 1, 58, 96
1, 13278, Note_off_c, 1, 62, 96
1, 13339, Note_on_c, 1, 70, 96
1, 13339, Note_on_c, 1, 82, 96
1, 13340, Note_off_c, 1, 70, 96
1, 13340, Note_off_c, 1, 82, 96
1, 13401, Note_on_c, 1, 38, 96
1, 13401, Note_on_c, 1, 50, 96
1, 13402, Note_off_c, 1, 38, 96
1, 13402, Note_off_c, 1, 50, 96
1, 13522, Note_on_c, 1, 79, 96
1, 13523, Note_off_c, 1, 79, 96
1, 13645, Note_on_c, 1, 70, 96
1, 13645, Note_on_c, 1, 41, 96
1, 13645, Note_on_c, 1, 53, 96
1, 13646, Note_off_c, 1, 70, 96
1, 13646, Note_off_c, 1, 41, 96
1, 13646, Note_off_c, 1, 53, 96
1, 13766, Note_on_c, 1, 77, 96
1, 13767, Note_off_c, 1, 77, 96
1, 13827, Note_on_c, 1, 81, 96
1, 13828, Note_off_c, 1, 81, 96
1, 13948, Note_on_c, 1, 76, 96
1, 13949, Note_off_c, 1, 76, 96
1, 14071, Note_on_c, 1, 50, 96
1, 14071, Note_on_c, 1, 38, 96
1, 14071, Note_on_c, 1, 69, 96
1, 14072, Note_off_c, 1, 50, 96
1, 14072, Note_off_c, 1, 38, 96
1, 14072, Note_off_c, 1, 69, 96
1, 14132, Note_on_c, 1, 72, 96
1, 14133, Note_off_c, 1, 72, 96
1, 14193, Note_on_c, 1, 69, 96
1, 14194, Note_off_c, 1, 69, 96
1, 14257, Note_on_c, 1, 76, 96
1, 14257, Note_on_c, 1, 68, 96
1, 14257, Note_on_c, 1, 52, 96
1, 14257, Note_on_c, 1, 40, 96
1, 14258, Note_off_c, 1, 76, 96
1, 14258, Note_off_c, 1, 68, 96
1, 14258, Note_off_c, 1, 52, 96
1, 14258, Note_off_c, 1, 40, 96
1, 14318, Note_on_c, 1, 78, 96
1, 14319, Note_off_c, 1, 78, 96
1, 14382, Note_on_c, 1, 74, 96
1, 14382, Note_on_c, 1, 82, 96
1, 14382, Note_on_c, 1, 43, 96
1, 14382, Note_on_c, 1, 55, 96
1, 14383, Note_off_c, 1, 74, 96
1, 14383, Note_off_c, 1, 82, 96
1, 14383, Note_off_c, 1, 43, 96
1, 14383, Note_off_c, 1, 55, 96
1, 14507, Note_on_c, 1, 79, 96
1, 14507, Note_on_c, 1, 76, 96
1, 14507, Note_on_c, 1, 83, 96
1, 14507, Note_on_c, 1, 36, 96
1, 14507, Note_on_c, 1, 52, 96
1, 14508, Note_off_c, 1, 79, 96
1, 14508, Note_off_c, 1, 76, 96
1, 14508, Note_off_c, 1, 83, 96
1, 14508, Note_off_c, 1, 36, 96
1, 14508, Note_off_c, 1, 52, 96
1, 14628, Note_on_c, 1, 72, 96
1, 14629, Note_off_c, 1, 72, 96
1, 14752, Note_on_c, 1, 71, 96
1, 14752, Note_on_c, 1, 76, 96
1, 14752, Note_on_c, 1, 55, 96
1, 14752, Note_on_c, 1, 43, 96
1, 14753, Note_off_c, 1, 71, 96
1, 14753, Note_off_c, 1, 76, 96
1, 14753, Note_off_c, 1, 55, 96
1, 14753, Note_off_c, 1, 43, 96
1, 14878, Note_on_c, 1, 79, 96
1, 14878, Note_on_c, 1, 74, 96
1, 14878, Note_on_c, 1, 71, 96
1, 14878, Note_on_c, 1, 59, 96
1, 14878, Note_on_c, 1, 55, 96
1, 14878, Note_on_c, 1, 65, 96
1, 14879, Note_off_c, 1, 79, 96
1, 14879, Note_off_c, 1, 74, 96
1, 14879, Note_off_c, 1, 71, 96
1, 14879, Note_off_c, 1, 59, 96
1, 14879, Note_off_c, 1, 55, 96
1, 14879, Note_off_c, 1, 65, 96
1, 14940, Note_on_c, 1, 71, 96
1, 14940, Note_on_c, 1, 77, 96
1, 14941, Note_off_c, 1, 71, 96
1, 14941, Note_off_c, 1, 77, 96
1, 15004, Note_on_c, 1, 81, 96
1, 15004, Note_on_c, 1, 77, 96
1, 15004, Note_on_c, 1, 69, 96
1, 15004, Note_on_c, 1, 41, 96
1, 15005, Note_off_c, 1, 81, 96
1, 15005, Note_off_c, 1, 77, 96
1, 15005, Note_off_c, 1, 69, 96
1, 15005, Note_off_c, 1, 41, 96
1, 15065, Note_on_c, 1, 84, 96
1, 15066, Note_off_c, 1, 84, 96
1, 15128, Note_on_c, 1, 66, 96
1, 15128, Note_on_c, 1, 62, 96
1, 15128, Note_on_c, 1, 60, 96
1, 15129, Note_off_c, 1, 66, 96
1, 15129, Note_off_c, 1, 62, 96
1, 15129, Note_off_c, 1, 60, 96
1, 15189, Note_on_c, 1, 78, 96
1, 15190, Note_off_c, 1, 78, 96
1, 15253, Note_on_c, 1, 79, 96
1, 15253, Note_on_c, 1, 64, 96
1, 15253, Note_on_c, 1, 60, 96
1, 15253, Note_on_c, 1, 58, 96
1, 15254, Note_off_c, 1, 79, 96
1, 15254, Note_off_c, 1, 64, 96
1, 15254, Note_off_c, 1, 60, 96
1, 15254, Note_off_c, 1, 58, 96
1, 15314, Note_on_c, 1, 74, 96
1, 15315, Note_off_c, 1, 74, 96
1, 15379, Note_on_c, 1, 63, 96
1, 15379, Note_on_c, 1, 69, 96
1, 15379, Note_on_c, 1, 72, 96
1, 15379, Note_on_c, 1, 42, 96
1, 15379, Note_on_c, 1, 54, 96
1, 15380, Note_off_c, 1, 63, 96
1, 15380, Note_off_c, 1, 69, 96
1, 15380, Note_off_c, 1, 72, 96
1, 15380, Note_off_c, 1, 42, 96
1, 15380, Note_off_c, 1, 54, 96
1, 15504, Note_on_c, 1, 74, 96
1, 15504, Note_on_c, 1, 78, 96
1, 15504, Note_on_c, 1, 50, 96
1, 15504, Note_on_c, 1, 60, 96
1, 15504, Note_on_c, 1, 54, 96
1, 15505, Note_off_c, 1, 74, 96
1, 15505, Note_off_c, 1, 78, 96
1, 15505, Note_off_c, 1, 50, 96
1, 15505, Note_off_c, 1, 60, 96
1, 15505, Note_off_c, 1, 54, 96
1, 15566, Note_on_c, 1, 78, 96
1, 15566, Note_on_c, 1, 74, 96
1, 15567, Note_off_c, 1, 78, 96
1, 15567, Note_off_c, 1, 74, 96
1, 15630, Note_on_c, 1, 57, 96
1, 15630, Note_on_c, 1, 60, 96
1, 15630, Note_on_c, 1, 54, 96
1, 15630, Note_on_c, 1, 62, 96
1, 15631, Note_off_c, 1, 57, 96
1, 15631, Note_off_c, 1, 60, 96
1, 15631, Note_off_c, 1, 54, 96
1, 15631, Note_off_c, 1, 62, 96
1, 15691, Note_on_c, 1, 76, 96
1, 15692, Note_off_c, 1, 76, 96
1, 15755, Note_on_c, 1, 81, 96
1, 15755, Note_on_c, 1, 50, 96
1, 15755, Note_on_c, 1, 69, 96
1, 15755, Note_on_c, 1, 57, 96
1, 15756, Note_off_c, 1, 81, 96
1, 15756, Note_off_c, 1, 50, 96
1, 15756, Note_off_c, 1, 69, 96
1, 15756, Note_off_c, 1, 57, 96
1, 15816, Note_on_c, 1, 76, 96
1, 15817, Note_off_c, 1, 76, 96
1, 15881, Note_on_c, 1, 79, 96
1, 15881, Note_on_c, 1, 75, 96
1, 15881, Note_on_c, 1, 70, 96
1, 15881, Note_on_c, 1, 37, 96
1, 15881, Note_on_c, 1, 49, 96
1, 15882, Note_off_c, 1, 79, 96
1, 15882, Note_off_c, 1, 75, 96
1, 15882, Note_off_c, 1, 70, 96
1, 15882, Note_off_c, 1, 37, 96
1, 15882, Note_off_c, 1, 49, 96
1, 15942, Note_on_c, 1, 78, 96
1, 15943, Note_off_c, 1, 78, 96
1, 16006, Note_on_c, 1, 69, 96
1, 16006, Note_on_c, 1, 75, 96
1, 16006, Note_on_c, 1, 81, 96
1, 16006, Note_on_c, 1, 42, 96
1, 16007, Note_off_c, 1, 69, 96
1, 16007, Note_off_c, 1, 75, 96
1, 16007, Note_off_c, 1, 81, 96
1, 16007, Note_off_c, 1, 42, 96
1, 16130, Note_on_c, 1, 69, 96
1, 16130, Note_on_c, 1, 73, 96
1, 16130, Note_on_c, 1, 52, 96
1, 16130, Note_on_c, 1, 64, 96
1, 16131, Note_off_c, 1, 69, 96
1, 16131, Note_off_c, 1, 73, 96
1, 16131, Note_off_c, 1, 52, 96
1, 16131, Note_off_c, 1, 64, 96
1, 16192, Note_on_c, 1, 73, 96
1, 16192, Note_on_c, 1, 81, 96
1, 16193, Note_off_c, 1, 73, 96
1, 16193, Note_off_c, 1, 81, 96
1, 16256, Note_on_c, 1, 76, 96
1, 16256, Note_on_c, 1, 73, 96
1, 16256, Note_on_c, 1, 73, 96
1, 16256, Note_on_c, 1, 40, 96
1, 16257, Note_off_c, 1, 76, 96
1, 16257, Note_off_c, 1, 73, 96
1, 16257, Note_off_c, 1, 73, 96
1, 16257, Note_off_c, 1, 40, 96
1, 16380, Note_on_c, 1, 79, 96
1, 16380, Note_on_c, 1, 69, 96
1, 16380, Note_on_c, 1, 45, 96
1, 16380, Note_on_c, 1, 57, 96
1, 16381, Note_off_c, 1, 79, 96
1, 16381, Note_off_c, 1, 69, 96
1, 16381, Note_off_c, 1, 45, 96
1, 16381, Note_off_c, 1, 57, 96
1, 16443, Note_on_c, 1, 69, 96
1, 16443, Note_on_c, 1, 81, 96
1, 16443, Note_on_c, 1, 73, 96
1, 16444, Note_off_c, 1, 69, 96
1, 16444, Note_off_c, 1, 81, 96
1, 16444, Note_off_c, 1, 73, 96
1, 16506, Note_on_c, 1, 57, 96
1, 16506, Note_on_c, 1, 61, 96
1, 16506, Note_on_c, 1, 52, 96
1, 16507, Note_off_c, 1, 57, 96
1, 16507, Note_off_c, 1, 61, 96
1, 16507, Note_off_c, 1, 52, 96
1, 16567, Note_on_c, 1, 83, 96
1, 16568, Note_off_c, 1, 83, 96
1, 16630, Note_on_c, 1, 74, 96
1, 16630, Note_on_c, 1, 83, 96
1, 16630, Note_on_c, 1, 47, 96
1, 16631, Note_off_c, 1, 74, 96
1, 16631, Note_off_c, 1, 83, 96
1, 16631, Note_off_c, 1, 47, 96
1, 16693, Note_on_c, 1, 83, 96
1, 16693, Note_on_c, 1, 76, 96
1, 16693, Note_on_c, 1, 71, 96
1, 16694, Note_off_c, 1, 83, 96
1, 16694, Note_off_c, 1, 76, 96
1, 16694, Note_off_c, 1, 71, 96
1, 16757, Note_on_c, 1, 56, 96
1, 16757, Note_on_c, 1, 62, 96
1, 16757, Note_on_c, 1, 59, 96
1, 16757, Note_on_c, 1, 52, 96
1, 16758, Note_off_c, 1, 56, 96
1, 16758, Note_off_c, 1, 62, 96
1, 16758, Note_off_c, 1, 59, 96
1, 16758, Note_off_c, 1, 52, 96
1, 16818, Note_on_c, 1, 83, 96
1, 16819, Note_off_c, 1, 83, 96
1, 16883, Note_on_c, 1, 75, 96
1, 16883, Note_on_c, 1, 84, 96
1, 16883, Note_on_c, 1, 72, 96
1, 16883, Note_on_c, 1, 42, 96
1, 16883, Note_on_c, 1, 54, 96
1, 16884, Note_off_c, 1, 75, 96
1, 16884, Note_off_c, 1, 84, 96
1, 16884, Note_off_c, 1, 72, 96
1, 16884, Note_off_c, 1, 42, 96
1, 16884, Note_off_c, 1, 54, 96
1, 17007, Note_on_c, 1, 81, 96
1, 17007, Note_on_c, 1, 69, 96
1, 17007, Note_on_c, 1, 53, 96
1, 17007, Note_on_c, 1, 41, 96
1, 17008, Note_off_c, 1, 81, 96
1, 17008, Note_off_c, 1, 69, 96
1, 17008, Note_off_c, 1, 53, 96
1, 17008, Note_off_c, 1, 41, 96
1, 17133, Note_on_c, 1, 82, 96
1, 17133, Note_on_c, 1, 79, 96
1, 17133, Note_on_c, 1, 74, 96
1, 17133, Note_on_c, 1, 70, 96
1, 17133, Note_on_c, 1, 40, 96
1, 17133, Note_on_c, 1, 52, 96
1, 17134, Note_off_c, 1, 82, 96
1, 17134, Note_off_c, 1, 79, 96
1, 17134, Note_off_c, 1, 74, 96
1, 17134, Note_off_c, 1, 70, 96
1, 17134, Note_off_c, 1, 40, 96
1, 17134, Note_off_c, 1, 52, 96
1, 17257, Note_on_c, 1, 64, 96
1, 17257, Note_on_c, 1, 73, 96
1, 17257, Note_on_c, 1, 33, 96
1, 17257, Note_on_c, 1, 45, 96
1, 17258, Note_off_c, 1, 64, 96
1, 17258, Note_off_c, 1, 73, 96
1, 17258, Note_off_c, 1, 33, 96
1, 17258, Note_off_c, 1, 45, 96
1, 17318, Note_on_c, 1, 73, 96
1, 17319, Note_off_c, 1, 73, 96
1, 17385, Note_on_c, 1, 73, 96
1, 17385, Note_on_c, 1, 69, 96
1, 17385, Note_on_c, 1, 67, 96
1, 17385, Note_on_c, 1, 55, 96
1, 17385, Note_on_c, 1, 61, 96
1, 17385, Note_on_c, 1, 64, 96
1, 17385, Note_on_c, 1, 57, 96
1, 17386, Note_off_c, 1, 73, 96
1, 17386, Note_off_c, 1, 69, 96
1, 17386, Note_off_c, 1, 67, 96
1, 17386, Note_off_c, 1, 55, 96
1, 17386, Note_off_c, 1, 61, 96
1, 17386, Note_off_c, 1, 64, 96
1, 17386, Note_off_c, 1, 57, 96
1, 17507, Note_on_c, 1, 61, 96
1, 17507, Note_on_c, 1, 49, 96
1, 17508, Note_off_c, 1, 61, 96
1, 17508, Note_off_c, 1, 49, 96
1, 17570, Note_on_c, 1, 69, 96
1, 17570, Note_on_c, 1, 78, 96
1, 17570, Note_on_c, 1, 74, 96
1, 17571, Note_off_c, 1, 69, 96
1, 17571, Note_off_c, 1, 78, 96
1, 17571, Note_off_c, 1, 74, 96
1, 17633, Note_on_c, 1, 50, 96
1, 17633, Note_on_c, 1, 54, 96
1, 17633, Note_on_c, 1, 60, 96
1, 17634, Note_off_c, 1, 50, 96
1, 17634, Note_off_c, 1, 54, 96
1, 17634, Note_off_c, 1, 60, 96
1, 17756, Note_on_c, 1, 57, 96
1, 17756, Note_on_c, 1, 54, 96
1, 17756, Note_on_c, 1, 62, 96
1, 17757, Note_off_c, 1, 57, 96
1, 17757, Note_off_c, 1, 54, 96
1, 17757, Note_off_c, 1, 62, 96
1, 17819, Note_on_c, 1, 69, 96
1, 17819, Note_on_c, 1, 74, 96
1, 17819, Note_on_c, 1, 66, 96
1, 17820, Note_off_c, 1, 69, 96
1, 17820, Note_off_c, 1, 74, 96
1, 17820, Note_off_c, 1, 66, 96
1, 17881, Note_on_c, 1, 54, 96
1, 17881, Note_on_c, 1, 42, 96
1, 17882, Note_off_c, 1, 54, 96
1, 17882, Note_off_c, 1, 42, 96
1, 17942, Note_on_c, 1, 74, 96
1, 17943, Note_off_c, 1, 74, 96
1, 18005, Note_on_c, 1, 71, 96
1, 18005, Note_on_c, 1, 43, 96
1, 18005, Note_on_c, 1, 55, 96
1, 18006, Note_off_c, 1, 71, 96
1, 18006, Note_off_c, 1, 43, 96
1, 18006, Note_off_c, 1, 55, 96
1, 18066, Note_on_c, 1, 71, 96
1, 18067, Note_off_c, 1, 71, 96
1, 18130, Note_on_c, 1, 70, 96
1, 18130, Note_on_c, 1, 58, 96
1, 18130, Note_on_c, 1, 52, 96
1, 18130, Note_on_c, 1, 48, 96
1, 18131, Note_off_c, 1, 70, 96
1, 18131, Note_off_c, 1, 58, 96
1, 18131, Note_off_c, 1, 52, 96
1, 18131, Note_off_c, 1, 48, 96
1, 18191, Note_on_c, 1, 69, 96
1, 18192, Note_off_c, 1, 69, 96
1, 18254, Note_on_c, 1, 69, 96
1, 18254, Note_on_c, 1, 51, 96
1, 18254, Note_on_c, 1, 39, 96
1, 18255, Note_off_c, 1, 69, 96
1, 18255, Note_off_c, 1, 51, 96
1, 18255, Note_off_c, 1, 39, 96
1, 18315, Note_on_c, 1, 72, 96
1, 18316, Note_off_c, 1, 72, 96
1, 18378, Note_on_c, 1, 70, 96
1, 18378, Note_on_c, 1, 58, 96
1, 18378, Note_on_c, 1, 46, 96
1, 18379, Note_off_c, 1, 70, 96
1, 18379, Note_off_c, 1, 58, 96
1, 18379, Note_off_c, 1, 46, 96
1, 18439, Note_on_c, 1, 70, 96
1, 18440, Note_off_c, 1, 70, 96
1, 18502, Note_on_c, 1, 75, 96
1, 18502, Note_on_c, 1, 43, 96
1, 18502, Note_on_c, 1, 51, 96
1, 18503, Note_off_c, 1, 75, 96
1, 18503, Note_off_c, 1, 43, 96
1, 18503, Note_off_c, 1, 51, 96
1, 18563, Note_on_c, 1, 70, 96
1, 18564, Note_off_c, 1, 70, 96
1, 18627, Note_on_c, 1, 61, 96
1, 18627, Note_on_c, 1, 58, 96
1, 18627, Note_on_c, 1, 55, 96
1, 18627, Note_on_c, 1, 75, 96
1, 18628, Note_off_c, 1, 61, 96
1, 18628, Note_off_c, 1, 58, 96
1, 18628, Note_off_c, 1, 55, 96
1, 18628, Note_off_c, 1, 75, 96
1, 18688, Note_on_c, 1, 71, 96
1, 18689, Note_off_c, 1, 71, 96
1, 18749, Note_on_c, 1, 72, 96
1, 18750, Note_off_c, 1, 72, 96
1, 18814, Note_on_c, 1, 72, 96
1, 18814, Note_on_c, 1, 67, 96
1, 18814, Note_on_c, 1, 75, 96
1, 18814, Note_on_c, 1, 61, 96
1, 18814, Note_on_c, 1, 46, 96
1, 18815, Note_off_c, 1, 72, 96
1, 18815, Note_off_c, 1, 67, 96
1, 18815, Note_off_c, 1, 75, 96
1, 18815, Note_off_c, 1, 61, 96
1, 18815, Note_off_c, 1, 46, 96
1, 18875, Note_on_c, 1, 73, 96
1, 18876, Note_off_c, 1, 73, 96
1, 18939, Note_on_c, 1, 77, 96
1, 18939, Note_on_c, 1, 65, 96
1, 18939, Note_on_c, 1, 61, 96
1, 18939, Note_on_c, 1, 56, 96
1, 18940, Note_off_c, 1, 77, 96
1, 18940, Note_off_c, 1, 65, 96
1, 18940, Note_off_c, 1, 61, 96
1, 18940, Note_off_c, 1, 56, 96
1, 19000, Note_on_c, 1, 72, 96
1, 19001, Note_off_c, 1, 72, 96
1, 19064, Note_on_c, 1, 73, 96
1, 19064, Note_on_c, 1, 77, 96
1, 19064, Note_on_c, 1, 44, 96
1, 19064, Note_on_c, 1, 56, 96
1, 19065, Note_off_c, 1, 73, 96
1, 19065, Note_off_c, 1, 77, 96
1, 19065, Note_off_c, 1, 44, 96
1, 19065, Note_off_c, 1, 56, 96
1, 19125, Note_on_c, 1, 77, 96
1, 19126, Note_off_c, 1, 77, 96
1, 19188, Note_on_c, 1, 76, 96
1, 19188, Note_on_c, 1, 36, 96
1, 19188, Note_on_c, 1, 48, 96
1, 19189, Note_off_c, 1, 76, 96
1, 19189, Note_off_c, 1, 36, 96
1, 19189, Note_off_c, 1, 48, 96
1, 19250, Note_on_c, 1, 72, 96
1, 19250, Note_on_c, 1, 76, 96
1, 19251, Note_off_c, 1, 72, 96
1, 19251, Note_off_c, 1, 76, 96
1, 19311, Note_on_c, 1, 43, 96
1, 19312, Note_off_c, 1, 43, 96
1, 19372, Note_on_c, 1, 81, 96
1, 19373, Note_off_c, 1, 81, 96
1, 19436, Note_on_c, 1, 79, 96
1, 19436, Note_on_c, 1, 60, 96
1, 19436, Note_on_c, 1, 55, 96
1, 19436, Note_on_c, 1, 52, 96
1, 19437, Note_off_c, 1, 79, 96
1, 19437, Note_off_c, 1, 60, 96
1, 19437, Note_off_c, 1, 55, 96
1, 19437, Note_off_c, 1, 52, 96
1, 19497, Note_on_c, 1, 83, 96
1, 19498, Note_off_c, 1, 83, 96
1, 19561, Note_on_c, 1, 76, 96
1, 19561, Note_on_c, 1, 83, 96
1, 19561, Note_on_c, 1, 52, 96
1, 19561, Note_on_c, 1, 40, 96
1, 19562, Note_off_c, 1, 76, 96
1, 19562, Note_off_c, 1, 83, 96
1, 19562, Note_off_c, 1, 52, 96
1, 19562, Note_off_c, 1, 40, 96
1, 19622, Note_on_c, 1, 86, 96
1, 19623, Note_off_c, 1, 86, 96
1, 19686, Note_on_c, 1, 79, 96
1, 19686, Note_on_c, 1, 59, 96
1, 19686, Note_on_c, 1, 52, 96
1, 19686, Note_on_c, 1, 57, 96
1, 19687, Note_off_c, 1, 79, 96
1, 19687, Note_off_c, 1, 59, 96
1, 19687, Note_off_c, 1, 52, 96
1, 19687, Note_off_c, 1, 57, 96
1, 19747, Note_on_c, 1, 81, 96
1, 19748, Note_off_c, 1, 81, 96
1, 19810, Note_on_c, 1, 74, 96
1, 19810, Note_on_c, 1, 54, 96
1, 19810, Note_on_c, 1, 42, 96
1, 19811, Note_off_c, 1, 74, 96
1, 19811, Note_off_c, 1, 54, 96
1, 19811, Note_off_c, 1, 42, 96
1, 19935, Note_on_c, 1, 78, 96
1, 19935, Note_on_c, 1, 72, 96
1, 19935, Note_on_c, 1, 54, 96
1, 19935, Note_on_c, 1, 57, 96
1, 19935, Note_on_c, 1, 62, 96
1, 19936, Note_off_c, 1, 78, 96
1, 19936, Note_off_c, 1, 72, 96
1, 19936, Note_off_c, 1, 54, 96
1, 19936, Note_off_c, 1, 57, 96
1, 19936, Note_off_c, 1, 62, 96
1, 20057, Note_on_c, 1, 50, 96
1, 20057, Note_on_c, 1, 38, 96
1, 20058, Note_off_c, 1, 50, 96
1, 20058, Note_off_c, 1, 38, 96
1, 20181, Note_on_c, 1, 62, 96
1, 20181, Note_on_c, 1, 65, 96
1, 20181, Note_on_c, 1, 56, 96
1, 20181, Note_on_c, 1, 44, 96
1, 20182, Note_off_c, 1, 62, 96
1, 20182, Note_off_c, 1, 65, 96
1, 20182, Note_off_c, 1, 56, 96
1, 20182, Note_off_c, 1, 44, 96
1, 20242, Note_on_c, 1, 87, 96
1, 20243, Note_off_c, 1, 87, 96
1, 20307, Note_on_c, 1, 83, 96
1, 20307, Note_on_c, 1, 56, 96
1, 20307, Note_on_c, 1, 59, 96
1, 20307, Note_on_c, 1, 65, 96
1, 20307, Note_on_c, 1, 87, 96
1, 20308, Note_off_c, 1, 83, 96
1, 20308, Note_off_c, 1, 56, 96
1, 20308, Note_off_c, 1, 59, 96
1, 20308, Note_off_c, 1, 65, 96
1, 20308, Note_off_c, 1, 87, 96
1, 20370, Note_on_c, 1, 93, 96
1, 20370, Note_on_c, 1, 100, 96
1, 20370, Note_on_c, 1, 88, 96
1, 20371, Note_off_c, 1, 93, 96
1, 20371, Note_off_c, 1, 100, 96
1, 20371, Note_off_c, 1, 88, 96
1, 20432, Note_on_c, 1, 53, 96
1, 20432, Note_on_c, 1, 41, 96
1, 20433, Note_off_c, 1, 53, 96
1, 20433, Note_off_c, 1, 41, 96
1, 20493, Note_on_c, 1, 69, 96
1, 20494, Note_off_c, 1, 69, 96
1, 20557, Note_on_c, 1, 75, 96
1, 20557, Note_on_c, 1, 65, 96
1, 20557, Note_on_c, 1, 63, 96
1, 20557, Note_on_c, 1, 57, 96
1, 20558, Note_off_c, 1, 75, 96
1, 20558, Note_off_c, 1, 65, 96
1, 20558, Note_off_c, 1, 63, 96
1, 20558, Note_off_c, 1, 57, 96
1, 20618, Note_on_c, 1, 79, 96
1, 20619, Note_off_c, 1, 79, 96
1, 20681, Note_on_c, 1, 41, 96
1, 20681, Note_on_c, 1, 53, 96
1, 20681, Note_on_c, 1, 74, 96
1, 20682, Note_off_c, 1, 41, 96
1, 20682, Note_off_c, 1, 53, 96
1, 20682, Note_off_c, 1, 74, 96
1, 20742, Note_on_c, 1, 77, 96
1, 20743, Note_off_c, 1, 77, 96
1, 20806, Note_on_c, 1, 79, 96
1, 20806, Note_on_c, 1, 65, 96
1, 20806, Note_on_c, 1, 60, 96
1, 20806, Note_on_c, 1, 57, 96
1, 20807, Note_off_c, 1, 79, 96
1, 20807, Note_off_c, 1, 65, 96
1, 20807, Note_off_c, 1, 60, 96
1, 20807, Note_off_c, 1, 57, 96
1, 20867, Note_on_c, 1, 72, 96
1, 20868, Note_off_c, 1, 72, 96
1, 20930, Note_on_c, 1, 77, 96
1, 20930, Note_on_c, 1, 53, 96
1, 20930, Note_on_c, 1, 57, 96
1, 20931, Note_off_c, 1, 77, 96
1, 20931, Note_off_c, 1, 53, 96
1, 20931, Note_off_c, 1, 57, 96
1, 20991, Note_on_c, 1, 77, 96
1, 20992, Note_off_c, 1, 77, 96
1, 21053, Note_on_c, 1, 73, 96
1, 21053, Note_on_c, 1, 47, 96
1, 21054, Note_off_c, 1, 73, 96
1, 21054, Note_off_c, 1, 47, 96
1, 21176, Note_on_c, 1, 80, 96
1, 21176, Note_on_c, 1, 41, 96
1, 21176, Note_on_c, 1, 53, 96
1, 21177, Note_off_c, 1, 80, 96
1, 21177, Note_off_c, 1, 41, 96
1, 21177, Note_off_c, 1, 53, 96
1, 21238, Note_on_c, 1, 77, 96
1, 21238, Note_on_c, 1, 72, 96
1, 21239, Note_off_c, 1, 77, 96
1, 21239, Note_off_c, 1, 72, 96
1, 21302, Note_on_c, 1, 81, 96
1, 21302, Note_on_c, 1, 65, 96
1, 21302, Note_on_c, 1, 62, 96
1, 21302, Note_on_c, 1, 57, 96
1, 21303, Note_off_c, 1, 81, 96
1, 21303, Note_off_c, 1, 65, 96
1, 21303, Note_off_c, 1, 62, 96
1, 21303, Note_off_c, 1, 57, 96
1, 21364, Note_on_c, 1, 81, 96
1, 21364, Note_on_c, 1, 77, 96
1, 21365, Note_off_c, 1, 81, 96
1, 21365, Note_off_c, 1, 77, 96
1, 21426, Note_on_c, 1, 55, 96
1, 21426, Note_on_c, 1, 43, 96
1, 21427, Note_off_c, 1, 55, 96
1, 21427, Note_off_c, 1, 43, 96
1, 21489, Note_on_c, 1, 88, 96
1, 21489, Note_on_c, 1, 81, 96
1, 21489, Note_on_c, 1, 76, 96
1, 21490, Note_off_c, 1, 88, 96
1, 21490, Note_off_c, 1, 81, 96
1, 21490, Note_off_c, 1, 76, 96
1, 21553, Note_on_c, 1, 55, 96
1, 21553, Note_on_c, 1, 52, 96
1, 21553, Note_on_c, 1, 57, 96
1, 21553, Note_on_c, 1, 60, 96
1, 21554, Note_off_c, 1, 55, 96
1, 21554, Note_off_c, 1, 52, 96
1, 21554, Note_off_c, 1, 57, 96
1, 21554, Note_off_c, 1, 60, 96
1, 21614, Note_on_c, 1, 78, 96
1, 21615, Note_off_c, 1, 78, 96
1, 21679, Note_on_c, 1, 86, 96
1, 21679, Note_on_c, 1, 80, 96
1, 21679, Note_on_c, 1, 77, 96
1, 21679, Note_on_c, 1, 74, 96
1, 21679, Note_on_c, 1, 43, 96
1, 21680, Note_off_c, 1, 86, 96
1, 21680, Note_off_c, 1, 80, 96
1, 21680, Note_off_c, 1, 77, 96
1, 21680, Note_off_c, 1, 74, 96
1, 21680, Note_off_c, 1, 43, 96
1, 21741, Note_on_c, 1, 71, 96
1, 21741, Note_on_c, 1, 83, 96
1, 21742, Note_off_c, 1, 71, 96
1, 21742, Note_off_c, 1, 83, 96
1, 21807, Note_on_c, 1, 81, 96
1, 21807, Note_on_c, 1, 77, 96
1, 21807, Note_on_c, 1, 69, 96
1, 21807, Note_on_c, 1, 65, 96
1, 21807, Note_on_c, 1, 60, 96
1, 21807, Note_on_c, 1, 57, 96
1, 21808, Note_off_c, 1, 81, 96
1, 21808, Note_off_c, 1, 77, 96
1, 21808, Note_off_c, 1, 69, 96
1, 21808, Note_off_c, 1, 65, 96
1, 21808, Note_off_c, 1, 60, 96
1, 21808, Note_off_c, 1, 57, 96
1, 21868, Note_on_c, 1, 77, 96
1, 21869, Note_off_c, 1, 77, 96
1, 21933, Note_on_c, 1, 81, 96
1, 21933, Note_on_c, 1, 77, 96
1, 21933, Note_on_c, 1, 72, 96
1, 21933, Note_on_c, 1, 35, 96
1, 21933, Note_on_c, 1, 47, 96
1, 21934, Note_off_c, 1, 81, 96
1, 21934, Note_off_c, 1, 77, 96
1, 21934, Note_off_c, 1, 72, 96
1, 21934, Note_off_c, 1, 35, 96
1, 21934, Note_off_c, 1, 47, 96
1, 22440, Note_on_c, 1, 84, 96
1, 22440, Note_on_c, 1, 72, 96
1, 22441, Note_off_c, 1, 84, 96
1, 22441, Note_off_c, 1, 72, 96
1, 22888, Note_on_c, 1, 75, 96
1, 22888, Note_on_c, 1, 60, 96
1, 22888, Note_on_c, 1, 55, 96
1, 22888, Note_on_c, 1, 64, 96
1, 22888, Note_on_c, 1, 58, 96
1, 22889, Note_off_c, 1, 75, 96
1, 22889, Note_off_c, 1, 60, 96
1, 22889, Note_off_c, 1, 55, 96
1, 22889, Note_off_c, 1, 64, 96
1, 22889, Note_off_c, 1, 58, 96
1, 23562, Note_on_c, 1, 70, 96
1, 23562, Note_on_c, 1, 82, 96
1, 23562, Note_on_c, 1, 58, 96
1, 23562, Note_on_c, 1, 60, 96
1, 23562, Note_on_c, 1, 64, 96
1, 23563, Note_off_c, 1, 70, 96
1, 23563, Note_off_c, 1, 82, 96
1, 23563, Note_off_c, 1, 58, 96
1, 23563, Note_off_c, 1, 60, 96
1, 23563, Note_off_c, 1, 64, 96
1, 23887, Note_on_c, 1, 79, 96
1, 23888, Note_off_c, 1, 79, 96
1, 24038, Note_on_c, 1, 89, 96
1, 24039, Note_off_c, 1, 89, 96
1, 24220, Note_on_c, 1, 38, 96
1, 24221, Note_off_c, 1, 38, 96
1, 24330, Note_on_c, 1, 79, 96
1, 24330, Note_on_c, 1, 82, 96
1, 24330, Note_on_c, 1, 74, 96
1, 24330, Note_on_c, 1, 86, 96
1, 24331, Note_off_c, 1, 79, 96
1, 24331, Note_off_c, 1, 82, 96
1, 24331, Note_off_c, 1, 74, 96
1, 24331, Note_off_c, 1, 86, 96
1, 24427, Note_on_c, 1, 56, 96
1, 24428, Note_off_c, 1, 56, 96
1, 24618, Note_on_c, 1, 74, 96
1, 24618, Note_on_c, 1, 62, 96
1, 24618, Note_on_c, 1, 56, 96
1, 24618, Note_on_c, 1, 58, 96
1, 24619, Note_off_c, 1, 74, 96
1, 24619, Note_off_c, 1, 62, 96
1, 24619, Note_off_c, 1, 56, 96
1, 24619, Note_off_c, 1, 58, 96
1, 24837, Note_on_c, 1, 70, 96
1, 24837, Note_on_c, 1, 79, 96
1, 24838, Note_off_c, 1, 70, 96
1, 24838, Note_off_c, 1, 79, 96
1, 25123, Note_on_c, 1, 79, 96
1, 25123, Note_on_c, 1, 75, 96
1, 25123, Note_on_c, 1, 51, 96
1, 25123, Note_on_c, 1, 39, 96
1, 25124, Note_off_c, 1, 79, 96
1, 25124, Note_off_c, 1, 75, 96
1, 25124, Note_off_c, 1, 51, 96
1, 25124, Note_off_c, 1, 39, 96
1, 25497, Note_on_c, 1, 96, 96
1, 25497, Note_on_c, 1, 89, 96
1, 25498, Note_off_c, 1, 96, 96
1, 25498, Note_off_c, 1, 89, 96
1, 25506, Note_on_c, 1, 99, 96
1, 25507, Note_off_c, 1, 99, 96
1, 25638, Note_on_c, 1, 89, 96
1, 25639, Note_off_c, 1, 89, 96
1, 25670, Note_on_c, 1, 91, 96
1, 25671, Note_off_c, 1, 91, 96
1, 25704, Note_on_c, 1, 99, 96
1, 25704, Note_on_c, 1, 56, 96
1, 25704, Note_on_c, 1, 62, 96
1, 25704, Note_on_c, 1, 67, 96
1, 25705, Note_off_c, 1, 99, 96
1, 25705, Note_off_c, 1, 56, 96
1, 25705, Note_off_c, 1, 62, 96
1, 25705, Note_off_c, 1, 67, 96
1, 25909, Note_on_c, 1, 92, 96
1, 25909, Note_on_c, 1, 84, 96
1, 25909, Note_on_c, 1, 41, 96
1, 25909, Note_on_c, 1, 48, 96
1, 25909, Note_on_c, 1, 57, 96
1, 25909, Note_on_c, 1, 50, 96
1, 25909, Note_on_c, 1, 53, 96
1, 25910, Note_off_c, 1, 92, 96
1, 25910, Note_off_c, 1, 84, 96
1, 25910, Note_off_c, 1, 41, 96
1, 25910, Note_off_c, 1, 48, 96
1, 25910, Note_off_c, 1, 57, 96
1, 25910, Note_off_c, 1, 50, 96
1, 25910, Note_off_c, 1, 53, 96
1, 26011, Note_on_c, 1, 44, 96
1, 26012, Note_off_c, 1, 44, 96
1, 26134, Note_on_c, 1, 55, 96
1, 26134, Note_on_c, 1, 48, 96
1, 26134, Note_on_c, 1, 49, 96
1, 26135, Note_off_c, 1, 55, 96
1, 26135, Note_off_c, 1, 48, 96
1, 26135, Note_off_c, 1, 49, 96
1, 26376, Note_on_c, 1, 75, 96
1, 26376, Note_on_c, 1, 79, 96
1, 26377, Note_off_c, 1, 75, 96
1, 26377, Note_off_c, 1, 79, 96
1, 26476, Note_on_c, 1, 74, 96
1, 26476, Note_on_c, 1, 71, 96
1, 26476, Note_on_c, 1, 67, 96
1, 26476, Note_on_c, 1, 62, 96
1, 26477, Note_off_c, 1, 74, 96
1, 26477, Note_off_c, 1, 71, 96
1, 26477, Note_off_c, 1, 67, 96
1, 26477, Note_off_c, 1, 62, 96
1, 26600, Note_on_c, 1, 37, 96
1, 26600, Note_on_c, 1, 49, 96
1, 26600, Note_on_c, 1, 65, 96
1, 26600, Note_on_c, 1, 77, 96
1, 26601, Note_off_c, 1, 37, 96
1, 26601, Note_off_c, 1, 49, 96
1, 26601, Note_off_c, 1, 65, 96
1, 26601, Note_off_c, 1, 77, 96
1, 26661, Note_on_c, 1, 82, 96
1, 26662, Note_off_c, 1, 82, 96
1, 26724, Note_on_c, 1, 79, 96
1, 26724, Note_on_c, 1, 77, 96
1, 26724, Note_on_c, 1, 50, 96
1, 26725, Note_off_c, 1, 79, 96
1, 26725, Note_off_c, 1, 77, 96
1, 26725, Note_off_c, 1, 50, 96
1, 26785, Note_on_c, 1, 82, 96
1, 26786, Note_off_c, 1, 82, 96
1, 26849, Note_on_c, 1, 83, 96
1, 26849, Note_on_c, 1, 56, 96
1, 26849, Note_on_c, 1, 61, 96
1, 26849, Note_on_c, 1, 65, 96
1, 26850, Note_off_c, 1, 83, 96
1, 26850, Note_off_c, 1, 56, 96
1, 26850, Note_off_c, 1, 61, 96
1, 26850, Note_off_c, 1, 65, 96
1, 26910, Note_on_c, 1, 80, 96
1, 26911, Note_off_c, 1, 80, 96
1, 26976, Note_on_c, 1, 68, 96
1, 26976, Note_on_c, 1, 73, 96
1, 26976, Note_on_c, 1, 80, 96
1, 26976, Note_on_c, 1, 65, 96
1, 26976, Note_on_c, 1, 61, 96
1, 26976, Note_on_c, 1, 58, 96
1, 26977, Note_off_c, 1, 68, 96
1, 26977, Note_off_c, 1, 73, 96
1, 26977, Note_off_c, 1, 80, 96
1, 26977, Note_off_c, 1, 65, 96
1, 26977, Note_off_c, 1, 61, 96
1, 26977, Note_off_c, 1, 58, 96
1, 27098, Note_on_c, 1, 39, 96
1, 27098, Note_on_c, 1, 27, 96
1, 27099, Note_off_c, 1, 39, 96
1, 27099, Note_off_c, 1, 27, 96
1, 27160, Note_on_c, 1, 71, 96
1, 27160, Note_on_c, 1, 74, 96
1, 27161, Note_off_c, 1, 71, 96
1, 27161, Note_off_c, 1, 74, 96
1, 27225, Note_on_c, 1, 64, 96
1, 27225, Note_on_c, 1, 82, 96
1, 27225, Note_on_c, 1, 70, 96
1, 27225, Note_on_c, 1, 52, 96
1, 27225, Note_on_c, 1, 40, 96
1, 27226, Note_off_c, 1, 64, 96
1, 27226, Note_off_c, 1, 82, 96
1, 27226, Note_off_c, 1, 70, 96
1, 27226, Note_off_c, 1, 52, 96
1, 27226, Note_off_c, 1, 40, 96
1, 27348, Note_on_c, 1, 74, 96
1, 27348, Note_on_c, 1, 38, 96
1, 27348, Note_on_c, 1, 53, 96
1, 27349, Note_off_c, 1, 74, 96
1, 27349, Note_off_c, 1, 38, 96
1, 27349, Note_off_c, 1, 53, 96
1, 27471, Note_on_c, 1, 86, 96
1, 27471, Note_on_c, 1, 74, 96
1, 27471, Note_on_c, 1, 83, 96
1, 27472, Note_off_c, 1, 86, 96
1, 27472, Note_off_c, 1, 74, 96
1, 27472, Note_off_c, 1, 83, 96
1, 27596, Note_on_c, 1, 88, 96
1, 27596, Note_on_c, 1, 77, 96
1, 27596, Note_on_c, 1, 83, 96
1, 27596, Note_on_c, 1, 43, 96
1, 27596, Note_on_c, 1, 55, 96
1, 27597, Note_off_c, 1, 88, 96
1, 27597, Note_off_c, 1, 77, 96
1, 27597, Note_off_c, 1, 83, 96
1, 27597, Note_off_c, 1, 43, 96
1, 27597, Note_off_c, 1, 55, 96
1, 27657, Note_on_c, 1, 79, 96
1, 27658, Note_off_c, 1, 79, 96
1, 27720, Note_on_c, 1, 79, 96
1, 27720, Note_on_c, 1, 48, 96
1, 27720, Note_on_c, 1, 60, 96
1, 27721, Note_off_c, 1, 79, 96
1, 27721, Note_off_c, 1, 48, 96
1, 27721, Note_off_c, 1, 60, 96
1, 27843, Note_on_c, 1, 70, 96
1, 27843, Note_on_c, 1, 39, 96
1, 27843, Note_on_c, 1, 46, 96
1, 27844, Note_off_c, 1, 70, 96
1, 27844, Note_off_c, 1, 39, 96
1, 27844, Note_off_c, 1, 46, 96
1, 27906, Note_on_c, 1, 66, 96
1, 27906, Note_on_c, 1, 78, 96
1, 27906, Note_on_c, 1, 72, 96
1, 27907, Note_off_c, 1, 66, 96
1, 27907, Note_off_c, 1, 78, 96
1, 27907, Note_off_c, 1, 72, 96
1, 27968, Note_on_c, 1, 45, 96
1, 27968, Note_on_c, 1, 60, 96
1, 27969, Note_off_c, 1, 45, 96
1, 27969, Note_off_c, 1, 60, 96
1, 28029, Note_on_c, 1, 75, 96
1, 28030, Note_off_c, 1, 75, 96
1, 28093, Note_on_c, 1, 76, 96
1, 28093, Note_on_c, 1, 60, 96
1, 28093, Note_on_c, 1, 64, 96
1, 28093, Note_on_c, 1, 67, 96
1, 28094, Note_off_c, 1, 76, 96
1, 28094, Note_off_c, 1, 60, 96
1, 28094, Note_off_c, 1, 64, 96
1, 28094, Note_off_c, 1, 67, 96
1, 28155, Note_on_c, 1, 78, 96
1, 28155, Note_on_c, 1, 72, 96
1, 28156, Note_off_c, 1, 78, 96
1, 28156, Note_off_c, 1, 72, 96
1, 28221, Note_on_c, 1, 76, 96
1, 28221, Note_on_c, 1, 81, 96
1, 28221, Note_on_c, 1, 72, 96
1, 28221, Note_on_c, 1, 64, 96
1, 28221, Note_on_c, 1, 60, 96
1, 28221, Note_on_c, 1, 55, 96
1, 28222, Note_off_c, 1, 76, 96
1, 28222, Note_off_c, 1, 81, 96
1, 28222, Note_off_c, 1, 72, 96
1, 28222, Note_off_c, 1, 64, 96
1, 28222, Note_off_c, 1, 60, 96
1, 28222, Note_off_c, 1, 55, 96
1, 28345, Note_on_c, 1, 76, 96
1, 28345, Note_on_c, 1, 69, 96
1, 28345, Note_on_c, 1, 72, 96
1, 28345, Note_on_c, 1, 36, 96
1, 28346, Note_off_c, 1, 76, 96
1, 28346, Note_off_c, 1, 69, 96
1, 28346, Note_off_c, 1, 72, 96
1, 28346, Note_off_c, 1, 36, 96
1, 28468, Note_on_c, 1, 67, 96
1, 28468, Note_on_c, 1, 59, 96
1, 28468, Note_on_c, 1, 55, 96
1, 28469, Note_off_c, 1, 67, 96
1, 28469, Note_off_c, 1, 59, 96
1, 28469, Note_off_c, 1, 55, 96
1, 28529, Note_on_c, 1, 74, 96
1, 28530, Note_off_c, 1, 74, 96
1, 28593, Note_on_c, 1, 79, 96
1, 28593, Note_on_c, 1, 60, 96
1, 28593, Note_on_c, 1, 52, 96
1, 28593, Note_on_c, 1, 55, 96
1, 28594, Note_off_c, 1, 79, 96
1, 28594, Note_off_c, 1, 60, 96
1, 28594, Note_off_c, 1, 52, 96
1, 28594, Note_off_c, 1, 55, 96
1, 28655, Note_on_c, 1, 76, 96
1, 28655, Note_on_c, 1, 72, 96
1, 28656, Note_off_c, 1, 76, 96
1, 28656, Note_off_c, 1, 72, 96
1, 28716, Note_on_c, 1, 40, 96
1, 28717, Note_off_c, 1, 40, 96
1, 28777, Note_on_c, 1, 59, 96
1, 28778, Note_off_c, 1, 59, 96
1, 28841, Note_on_c, 1, 52, 96
1, 28841, Note_on_c, 1, 59, 96
1, 28841, Note_on_c, 1, 76, 96
1, 28841, Note_on_c, 1, 56, 96
1, 28842, Note_off_c, 1, 52, 96
1, 28842, Note_off_c, 1, 59, 96
1, 28842, Note_off_c, 1, 76, 96
1, 28842, Note_off_c, 1, 56, 96
1, 28966, Note_on_c, 1, 68, 96
1, 28966, Note_on_c, 1, 62, 96
1, 28966, Note_on_c, 1, 74, 96
1, 28966, Note_on_c, 1, 52, 96
1, 28966, Note_on_c, 1, 56, 96
1, 28967, Note_off_c, 1, 68, 96
1, 28967, Note_off_c, 1, 62, 96
1, 28967, Note_off_c, 1, 74, 96
1, 28967, Note_off_c, 1, 52, 96
1, 28967, Note_off_c, 1, 56, 96
1, 29027, Note_on_c, 1, 73, 96
1, 29028, Note_off_c, 1, 73, 96
1, 29093, Note_on_c, 1, 68, 96
1, 29093, Note_on_c, 1, 76, 96
1, 29093, Note_on_c, 1, 64, 96
1, 29093, Note_on_c, 1, 62, 96
1, 29093, Note_on_c, 1, 57, 96
1, 29093, Note_on_c, 1, 52, 96
1, 29094, Note_off_c, 1, 68, 96
1, 29094, Note_off_c, 1, 76, 96
1, 29094, Note_off_c, 1, 64, 96
1, 29094, Note_off_c, 1, 62, 96
1, 29094, Note_off_c, 1, 57, 96
1, 29094, Note_off_c, 1, 52, 96
1, 29218, Note_on_c, 1, 71, 96
1, 29218, Note_on_c, 1, 62, 96
1, 29218, Note_on_c, 1, 59, 96
1, 29218, Note_on_c, 1, 56, 96
1, 29218, Note_on_c, 1, 52, 96
1, 29219, Note_off_c, 1, 71, 96
1, 29219, Note_off_c, 1, 62, 96
1, 29219, Note_off_c, 1, 59, 96
1, 29219, Note_off_c, 1, 56, 96
1, 29219, Note_off_c, 1, 52, 96
1, 29279, Note_on_c, 1, 78, 96
1, 29280, Note_off_c, 1, 78, 96
1, 29342, Note_on_c, 1, 73, 96
1, 29342, Note_on_c, 1, 78, 96
1, 29342, Note_on_c, 1, 47, 96
1, 29343, Note_off_c, 1, 73, 96
1, 29343, Note_off_c, 1, 78, 96
1, 29343, Note_off_c, 1, 47, 96
1, 29403, Note_on_c, 1, 81, 96
1, 29404, Note_off_c, 1, 81, 96
1, 29467, Note_on_c, 1, 77, 96
1, 29467, Note_on_c, 1, 60, 96
1, 29467, Note_on_c, 1, 57, 96
1, 29467, Note_on_c, 1, 62, 96
1, 29468, Note_off_c, 1, 77, 96
1, 29468, Note_off_c, 1, 60, 96
1, 29468, Note_off_c, 1, 57, 96
1, 29468, Note_off_c, 1, 62, 96
1, 29528, Note_on_c, 1, 69, 96
1, 29529, Note_off_c, 1, 69, 96
1, 29591, Note_on_c, 1, 71, 96
1, 29591, Note_on_c, 1, 62, 96
1, 29591, Note_on_c, 1, 57, 96
1, 29592, Note_off_c, 1, 71, 96
1, 29592, Note_off_c, 1, 62, 96
1, 29592, Note_off_c, 1, 57, 96
1, 29652, Note_on_c, 1, 76, 96
1, 29653, Note_off_c, 1, 76, 96
1, 29714, Note_on_c, 1, 36, 96
1, 29714, Note_on_c, 1, 48, 96
1, 29715, Note_off_c, 1, 36, 96
1, 29715, Note_off_c, 1, 48, 96
1, 29840, Note_on_c, 1, 67, 96
1, 29840, Note_on_c, 1, 65, 96
1, 29840, Note_on_c, 1, 74, 96
1, 29840, Note_on_c, 1, 71, 96
1, 29840, Note_on_c, 1, 47, 96
1, 29840, Note_on_c, 1, 35, 96
1, 29841, Note_off_c, 1, 67, 96
1, 29841, Note_off_c, 1, 65, 96
1, 29841, Note_off_c, 1, 74, 96
1, 29841, Note_off_c, 1, 71, 96
1, 29841, Note_off_c, 1, 47, 96
1, 29841, Note_off_c, 1, 35, 96
1, 30172, Note_on_c, 1, 84, 96
1, 30172, Note_on_c, 1, 79, 96
1, 30173, Note_off_c, 1, 84, 96
1, 30173, Note_off_c, 1, 79, 96
1, 30414, Note_on_c, 1, 50, 96
1, 30414, Note_on_c, 1, 59, 96
1, 30414, Note_on_c, 1, 55, 96
1, 30415, Note_off_c, 1, 50, 96
1, 30415, Note_off_c, 1, 59, 96
1, 30415, Note_off_c, 1, 55, 96
1, 30701, Note_on_c, 1, 86, 96
1, 30702, Note_off_c, 1, 86, 96
1, 30938, Note_on_c, 1, 88, 96
1, 30938, Note_on_c, 1, 79, 96
1, 30939, Note_off_c, 1, 88, 96
1, 30939, Note_off_c, 1, 79, 96
1, 31180, Note_on_c, 1, 51, 96
1, 31180, Note_on_c, 1, 60, 96
1, 31180, Note_on_c, 1, 57, 96
1, 31180, Note_on_c, 1, 60, 96
1, 31180, Note_on_c, 1, 51, 96
1, 31181, Note_off_c, 1, 51, 96
1, 31181, Note_off_c, 1, 60, 96
1, 31181, Note_off_c, 1, 57, 96
1, 31181, Note_off_c, 1, 60, 96
1, 31181, Note_off_c, 1, 51, 96
1, 31527, Note_on_c, 1, 79, 96
1, 31527, Note_on_c, 1, 70, 96
1, 31527, Note_on_c, 1, 48, 96
1, 31527, Note_on_c, 1, 52, 96
1, 31527, Note_on_c, 1, 36, 96
1, 31528, Note_off_c, 1, 79, 96
1, 31528, Note_off_c, 1, 70, 96
1, 31528, Note_off_c, 1, 48, 96
1, 31528, Note_off_c, 1, 52, 96
1, 31528, Note_off_c, 1, 36, 96
1, 31816, Note_on_c, 1, 79, 96
1, 31816, Note_on_c, 1, 76, 96
1, 31816, Note_on_c, 1, 67, 96
1, 31817, Note_off_c, 1, 79, 96
1, 31817, Note_off_c, 1, 76, 96
1, 31817, Note_off_c, 1, 67, 96
1, 32050, Note_on_c, 1, 74, 96
1, 32050, Note_on_c, 1, 77, 96
1, 32050, Note_on_c, 1, 65, 96
1, 32050, Note_on_c, 1, 46, 96
1, 32050, Note_on_c, 1, 58, 96
1, 32051, Note_off_c, 1, 74, 96
1, 32051, Note_off_c, 1, 77, 96
1, 32051, Note_off_c, 1, 65, 96
1, 32051, Note_off_c, 1, 46, 96
1, 32051, Note_off_c, 1, 58, 96
1, 32149, Note_on_c, 1, 62, 96
1, 32149, Note_on_c, 1, 58, 96
1, 32149, Note_on_c, 1, 56, 96
1, 32150, Note_off_c, 1, 62, 96
1, 32150, Note_off_c, 1, 58, 96
1, 32150, Note_off_c, 1, 56, 96
1, 32274, Note_on_c, 1, 87, 96
1, 32274, Note_on_c, 1, 57, 96
1, 32274, Note_on_c, 1, 45, 96
1, 32274, Note_on_c, 1, 54, 96
1, 32274, Note_on_c, 1, 98, 96
1, 32275, Note_off_c, 1, 87, 96
1, 32275, Note_off_c, 1, 57, 96
1, 32275, Note_off_c, 1, 45, 96
1, 32275, Note_off_c, 1, 54, 96
1, 32275, Note_off_c, 1, 98, 96
1, 32520, Note_on_c, 1, 88, 96
1, 32520, Note_on_c, 1, 83, 96
1, 32520, Note_on_c, 1, 52, 96
1, 32520, Note_on_c, 1, 40, 96
1, 32521, Note_off_c, 1, 88, 96
1, 32521, Note_off_c, 1, 83, 96
1, 32521, Note_off_c, 1, 52, 96
1, 32521, Note_off_c, 1, 40, 96
1, 32764, Note_on_c, 1, 81, 96
1, 32765, Note_off_c, 1, 81, 96
1, 32886, Note_on_c, 1, 45, 96
1, 32886, Note_on_c, 1, 54, 96
1, 32887, Note_off_c, 1, 45, 96
1, 32887, Note_off_c, 1, 54, 96
1, 33130, Note_on_c, 1, 81, 96
1, 33130, Note_on_c, 1, 76, 96
1, 33130, Note_on_c, 1, 32, 96
1, 33130, Note_on_c, 1, 44, 96
1, 33130, Note_on_c, 1, 44, 96
1, 33131, Note_off_c, 1, 81, 96
1, 33131, Note_off_c, 1, 76, 96
1, 33131, Note_off_c, 1, 32, 96
1, 33131, Note_off_c, 1, 44, 96
1, 33131, Note_off_c, 1, 44, 96
1, 33659, Note_on_c, 1, 84, 96
1, 33659, Note_on_c, 1, 72, 96
1, 33659, Note_on_c, 1, 79, 96
1, 33659, Note_on_c, 1, 55, 96
1, 33659, Note_on_c, 1, 58, 96
1, 33659, Note_on_c, 1, 64, 96
1, 33659, Note_on_c, 1, 60, 96
1, 33660, Note_off_c, 1, 84, 96
1, 33660, Note_off_c, 1, 72, 96
1, 33660, Note_off_c, 1, 79, 96
1, 33660, Note_off_c, 1, 55, 96
1, 33660, Note_off_c, 1, 58, 96
1, 33660, Note_off_c, 1, 64, 96
1, 33660, Note_off_c, 1, 60, 96
1, 34163, Note_on_c, 1, 77, 96
1, 34163, Note_on_c, 1, 80, 96
1, 34163, Note_on_c, 1, 82, 96
1, 34163, Note_on_c, 1, 74, 96
1, 34163, Note_on_c, 1, 56, 96
1, 34163, Note_on_c, 1, 46, 96
1, 34164, Note_off_c, 1, 77, 96
1, 34164, Note_off_c, 1, 80, 96
1, 34164, Note_off_c, 1, 82, 96
1, 34164, Note_off_c, 1, 74, 96
1, 34164, Note_off_c, 1, 56, 96
1, 34164, Note_off_c, 1, 46, 96
1, 34371, Note_on_c, 1, 82, 96
1, 34371, Note_on_c, 1, 77, 96
1, 34371, Note_on_c, 1, 74, 96
1, 34372, Note_off_c, 1, 82, 96
1, 34372, Note_off_c, 1, 77, 96
1, 34372, Note_off_c, 1, 74, 96
1, 34432, Note_on_c, 1, 79, 96
1, 34433, Note_off_c, 1, 79, 96
1, 34457, Note_on_c, 1, 85, 96
1, 34458, Note_off_c, 1, 85, 96
1, 34521, Note_on_c, 1, 56, 96
1, 34521, Note_on_c, 1, 58, 96
1, 34521, Note_on_c, 1, 62, 96
1, 34522, Note_off_c, 1, 56, 96
1, 34522, Note_off_c, 1, 58, 96
1, 34522, Note_off_c, 1, 62, 96
1, 34584, Note_on_c, 1, 84, 96
1, 34584, Note_on_c, 1, 80, 96
1, 34584, Note_on_c, 1, 77, 96
1, 34585, Note_off_c, 1, 84, 96
1, 34585, Note_off_c, 1, 80, 96
1, 34585, Note_off_c, 1, 77, 96
1, 34648, Note_on_c, 1, 62, 96
1, 34648, Note_on_c, 1, 58, 96
1, 34648, Note_on_c, 1, 56, 96
1, 34648, Note_on_c, 1, 53, 96
1, 34649, Note_off_c, 1, 62, 96
1, 34649, Note_off_c, 1, 58, 96
1, 34649, Note_off_c, 1, 56, 96
1, 34649, Note_off_c, 1, 53, 96
1, 34709, Note_on_c, 1, 80, 96
1, 34710, Note_off_c, 1, 80, 96
1, 34773, Note_on_c, 1, 79, 96
1, 34773, Note_on_c, 1, 56, 96
1, 34773, Note_on_c, 1, 61, 96
1, 34773, Note_on_c, 1, 65, 96
1, 34774, Note_off_c, 1, 79, 96
1, 34774, Note_off_c, 1, 56, 96
1, 34774, Note_off_c, 1, 61, 96
1, 34774, Note_off_c, 1, 65, 96
1, 34834, Note_on_c, 1, 77, 96
1, 34835, Note_off_c, 1, 77, 96
1, 34898, Note_on_c, 1, 80, 96
1, 34898, Note_on_c, 1, 77, 96
1, 34898, Note_on_c, 1, 56, 96
1, 34898, Note_on_c, 1, 44, 96
1, 34899, Note_off_c, 1, 80, 96
1, 34899, Note_off_c, 1, 77, 96
1, 34899, Note_off_c, 1, 56, 96
1, 34899, Note_off_c, 1, 44, 96
1, 35023, Note_on_c, 1, 82, 96
1, 35023, Note_on_c, 1, 85, 96
1, 35023, Note_on_c, 1, 73, 96
1, 35023, Note_on_c, 1, 34, 96
1, 35023, Note_on_c, 1, 46, 96
1, 35024, Note_off_c, 1, 82, 96
1, 35024, Note_off_c, 1, 85, 96
1, 35024, Note_off_c, 1, 73, 96
1, 35024, Note_off_c, 1, 34, 96
1, 35024, Note_off_c, 1, 46, 96
1, 35085, Note_on_c, 1, 92, 96
1, 35085, Note_on_c, 1, 80, 96
1, 35086, Note_off_c, 1, 92, 96
1, 35086, Note_off_c, 1, 80, 96
1, 35146, Note_on_c, 1, 41, 96
1, 35147, Note_off_c, 1, 41, 96
1, 35208, Note_on_c, 1, 85, 96
1, 35208, Note_on_c, 1, 80, 96
1, 35209, Note_off_c, 1, 85, 96
1, 35209, Note_off_c, 1, 80, 96
1, 35273, Note_on_c, 1, 85, 96
1, 35273, Note_on_c, 1, 75, 96
1, 35273, Note_on_c, 1, 63, 96
1, 35273, Note_on_c, 1, 58, 96
1, 35273, Note_on_c, 1, 51, 96
1, 35274, Note_off_c, 1, 85, 96
1, 35274, Note_off_c, 1, 75, 96
1, 35274, Note_off_c, 1, 63, 96
1, 35274, Note_off_c, 1, 58, 96
1, 35274, Note_off_c, 1, 51, 96
1, 35337, Note_on_c, 1, 84, 96
1, 35337, Note_on_c, 1, 80, 96
1, 35337, Note_on_c, 1, 77, 96
1, 35337, Note_on_c, 1, 72, 96
1, 35338, Note_off_c, 1, 84, 96
1, 35338, Note_off_c, 1, 80, 96
1, 35338, Note_off_c, 1, 77, 96
1, 35338, Note_off_c, 1, 72, 96
1, 35400, Note_on_c, 1, 39, 96
1, 35400, Note_on_c, 1, 54, 96
1, 35400, Note_on_c, 1, 46, 96
1, 35401, Note_off_c, 1, 39, 96
1, 35401, Note_off_c, 1, 54, 96
1, 35401, Note_off_c, 1, 46, 96
1, 35462, Note_on_c, 1, 72, 96
1, 35462, Note_on_c, 1, 75, 96
1, 35463, Note_off_c, 1, 72, 96
1, 35463, Note_off_c, 1, 75, 96
1, 35527, Note_on_c, 1, 65, 96
1, 35527, Note_on_c, 1, 75, 96
1, 35527, Note_on_c, 1, 77, 96
1, 35527, Note_on_c, 1, 56, 96
1, 35527, Note_on_c, 1, 44, 96
1, 35528, Note_off_c, 1, 65, 96
1, 35528, Note_off_c, 1, 75, 96
1, 35528, Note_off_c, 1, 77, 96
1, 35528, Note_off_c, 1, 56, 96
1, 35528, Note_off_c, 1, 44, 96
1, 35588, Note_on_c, 1, 78, 96
1, 35589, Note_off_c, 1, 78, 96
1, 35651, Note_on_c, 1, 66, 96
1, 35651, Note_on_c, 1, 60, 96
1, 35651, Note_on_c, 1, 56, 96
1, 35652, Note_off_c, 1, 66, 96
1, 35652, Note_off_c, 1, 60, 96
1, 35652, Note_off_c, 1, 56, 96
1, 35713, Note_on_c, 1, 72, 96
1, 35713, Note_on_c, 1, 80, 96
1, 35714, Note_off_c, 1, 72, 96
1, 35714, Note_off_c, 1, 80, 96
1, 35774, Note_on_c, 1, 44, 96
1, 35775, Note_off_c, 1, 44, 96
1, 35835, Note_on_c, 1, 75, 96
1, 35836, Note_off_c, 1, 75, 96
1, 35902, Note_on_c, 1, 66, 96
1, 35902, Note_on_c, 1, 61, 96
1, 35902, Note_on_c, 1, 58, 96
1, 35902, Note_on_c, 1, 67, 96
1, 35902, Note_on_c, 1, 63, 96
1, 35902, Note_on_c, 1, 70, 96
1, 35902, Note_on_c, 1, 75, 96
1, 35903, Note_off_c, 1, 66, 96
1, 35903, Note_off_c, 1, 61, 96
1, 35903, Note_off_c, 1, 58, 96
1, 35903, Note_off_c, 1, 67, 96
1, 35903, Note_off_c, 1, 63, 96
1, 35903, Note_off_c, 1, 70, 96
1, 35903, Note_off_c, 1, 75, 96
1, 35965, Note_on_c, 1, 75, 96
1, 35965, Note_on_c, 1, 70, 96
1, 35965, Note_on_c, 1, 67, 96
1, 35966, Note_off_c, 1, 75, 96
1, 35966, Note_off_c, 1, 70, 96
1, 35966, Note_off_c, 1, 67, 96
1, 36027, Note_on_c, 1, 46, 96
1, 36027, Note_on_c, 1, 34, 96
1, 36028, Note_off_c, 1, 46, 96
1, 36028, Note_off_c, 1, 34, 96
1, 36185, Note_on_c, 1, 67, 96
1, 36185, Note_on_c, 1, 73, 96
1, 36186, Note_off_c, 1, 67, 96
1, 36186, Note_off_c, 1, 73, 96
1, 36247, Note_on_c, 1, 49, 96
1, 36247, Note_on_c, 1, 37, 96
1, 36248, Note_off_c, 1, 49, 96
1, 36248, Note_off_c, 1, 37, 96
1, 36369, Note_on_c, 1, 70, 96
1, 36369, Note_on_c, 1, 73, 96
1, 36370, Note_off_c, 1, 70, 96
1, 36370, Note_off_c, 1, 73, 96
1, 36492, Note_on_c, 1, 72, 96
1, 36492, Note_on_c, 1, 56, 96
1, 36492, Note_on_c, 1, 44, 96
1, 36493, Note_off_c, 1, 72, 96
1, 36493, Note_off_c, 1, 56, 96
1, 36493, Note_off_c, 1, 44, 96
1, 36741, Note_on_c, 1, 73, 96
1, 36741, Note_on_c, 1, 68, 96
1, 36741, Note_on_c, 1, 77, 96
1, 36741, Note_on_c, 1, 56, 96
1, 36741, Note_on_c, 1, 65, 96
1, 36741, Note_on_c, 1, 59, 96
1, 36742, Note_off_c, 1, 73, 96
1, 36742, Note_off_c, 1, 68, 96
1, 36742, Note_off_c, 1, 77, 96
1, 36742, Note_off_c, 1, 56, 96
1, 36742, Note_off_c, 1, 65, 96
1, 36742, Note_off_c, 1, 59, 96
1, 36930, Note_on_c, 1, 68, 96
1, 36930, Note_on_c, 1, 72, 96
1, 36930, Note_on_c, 1, 75, 96
1, 36930, Note_on_c, 1, 45, 96
1, 36931, Note_off_c, 1, 68, 96
1, 36931, Note_off_c, 1, 72, 96
1, 36931, Note_off_c, 1, 75, 96
1, 36931, Note_off_c, 1, 45, 96
1, 37170, Note_on_c, 1, 65, 96
1, 37170, Note_on_c, 1, 73, 96
1, 37170, Note_on_c, 1, 56, 96
1, 37170, Note_on_c, 1, 44, 96
1, 37171, Note_off_c, 1, 65, 96
1, 37171, Note_off_c, 1, 73, 96
1, 37171, Note_off_c, 1, 56, 96
1, 37171, Note_off_c, 1, 44, 96
1, 37414, Note_on_c, 1, 72, 96
1, 37414, Note_on_c, 1, 84, 96
1, 37414, Note_on_c, 1, 75, 96
1, 37415, Note_off_c, 1, 72, 96
1, 37415, Note_off_c, 1, 84, 96
1, 37415, Note_off_c, 1, 75, 96
1, 37662, Note_on_c, 1, 39, 96
1, 37662, Note_on_c, 1, 55, 96
1, 37662, Note_on_c, 1, 46, 96
1, 37662, Note_on_c, 1, 67, 96
1, 37663, Note_off_c, 1, 39, 96
1, 37663, Note_off_c, 1, 55, 96
1, 37663, Note_off_c, 1, 46, 96
1, 37663, Note_off_c, 1, 67, 96
1, 37979, Note_on_c, 1, 51, 96
1, 37980, Note_off_c, 1, 51, 96
1, 38228, Note_on_c, 1, 89, 96
1, 38228, Note_on_c, 1, 77, 96
1, 38229, Note_off_c, 1, 89, 96
1, 38229, Note_off_c, 1, 77, 96
1, 38395, Note_on_c, 1, 67, 96
1, 38396, Note_off_c, 1, 67, 96
1, 38458, Note_on_c, 1, 63, 96
1, 38458, Note_on_c, 1, 58, 96
1, 38458, Note_on_c, 1, 55, 96
1, 38459, Note_off_c, 1, 63, 96
1, 38459, Note_off_c, 1, 58, 96
1, 38459, Note_off_c, 1, 55, 96
1, 38581, Note_on_c, 1, 84, 96
1, 38581, Note_on_c, 1, 72, 96
1, 38581, Note_on_c, 1, 80, 96
1, 38582, Note_off_c, 1, 84, 96
1, 38582, Note_off_c, 1, 72, 96
1, 38582, Note_off_c, 1, 80, 96
1, 38745, Note_on_c, 1, 74, 96
1, 38745, Note_on_c, 1, 78, 96
1, 38745, Note_on_c, 1, 87, 96
1, 38745, Note_on_c, 1, 57, 96
1, 38745, Note_on_c, 1, 45, 96
1, 38746, Note_off_c, 1, 74, 96
1, 38746, Note_off_c, 1, 78, 96
1, 38746, Note_off_c, 1, 87, 96
1, 38746, Note_off_c, 1, 57, 96
1, 38746, Note_off_c, 1, 45, 96
1, 38984, Note_on_c, 1, 55, 96
1, 38984, Note_on_c, 1, 43, 96
1, 38985, Note_off_c, 1, 55, 96
1, 38985, Note_off_c, 1, 43, 96
1, 39305, Note_on_c, 1, 72, 96
1, 39306, Note_off_c, 1, 72, 96
1, 39556, Note_on_c, 1, 59, 96
1, 39556, Note_on_c, 1, 55, 96
1, 39556, Note_on_c, 1, 53, 96
1, 39557, Note_off_c, 1, 59, 96
1, 39557, Note_off_c, 1, 55, 96
1, 39557, Note_off_c, 1, 53, 96
1, 39791, Note_on_c, 1, 83, 96
1, 39791, Note_on_c, 1, 86, 96
1, 39792, Note_off_c, 1, 83, 96
1, 39792, Note_off_c, 1, 86, 96
1, 40027, Note_on_c, 1, 43, 96
1, 40027, Note_on_c, 1, 55, 96
1, 40028, Note_off_c, 1, 43, 96
1, 40028, Note_off_c, 1, 55, 96
1, 40124, Note_on_c, 1, 84, 96
1, 40125, Note_off_c, 1, 84, 96
1, 40225, Note_on_c, 1, 86, 96
1, 40226, Note_off_c, 1, 86, 96
1, 40327, Note_on_c, 1, 82, 96
1, 40327, Note_on_c, 1, 79, 96
1, 40327, Note_on_c, 1, 74, 96
1, 40327, Note_on_c, 1, 67, 96
1, 40327, Note_on_c, 1, 55, 96
1, 40327, Note_on_c, 1, 43, 96
1, 40328, Note_off_c, 1, 82, 96
1, 40328, Note_off_c, 1, 79, 96
1, 40328, Note_off_c, 1, 74, 96
1, 40328, Note_off_c, 1, 67, 96
1, 40328, Note_off_c, 1, 55, 96
1, 40328, Note_off_c, 1, 43, 96
1, 40624, Note_on_c, 1, 89, 96
1, 40624, Note_on_c, 1, 77, 96
1, 40624, Note_on_c, 1, 83, 96
1, 40624, Note_on_c, 1, 37, 96
1, 40624, Note_on_c, 1, 49, 96
1, 40625, Note_off_c, 1, 89, 96
1, 40625, Note_off_c, 1, 77, 96
1, 40625, Note_off_c, 1, 83, 96
1, 40625, Note_off_c, 1, 37, 96
1, 40625, Note_off_c, 1, 49, 96
1, 40875, Note_on_c, 1, 62, 96
1, 40875, Note_on_c, 1, 50, 96
1, 40875, Note_on_c, 1, 69, 96
1, 40875, Note_on_c, 1, 77, 96
1, 40875, Note_on_c, 1, 74, 96
1, 40875, Note_on_c, 1, 81, 96
1, 40875, Note_on_c, 1, 69, 96
1, 40875, Note_on_c, 1, 40, 96
1, 40875, Note_on_c, 1, 81, 96
1, 40875, Note_on_c, 1, 89, 96
1, 40875, Note_on_c, 1, 93, 96
1, 40875, Note_on_c, 1, 83, 96
1, 40875, Note_on_c, 1, 83, 96
1, 40876, Note_off_c, 1, 62, 96
1, 40876, Note_off_c, 1, 50, 96
1, 40876, Note_off_c, 1, 69, 96
1, 40876, Note_off_c, 1, 77, 96
1, 40876, Note_off_c, 1, 74, 96
1, 40876, Note_off_c, 1, 81, 96
1, 40876, Note_off_c, 1, 69, 96
1, 40876, Note_off_c, 1, 40, 96
1, 40876, Note_off_c, 1, 81, 96
1, 40876, Note_off_c, 1, 89, 96
1, 40876, Note_off_c, 1, 93, 96
1, 40876, Note_off_c, 1, 83, 96
1, 40876, Note_off_c, 1, 83, 96
1, 41008, Note_on_c, 1, 50, 96
1, 41008, Note_on_c, 1, 71, 96
1, 41008, Note_on_c, 1, 79, 96
1, 41008, Note_on_c, 1, 91, 96
1, 41008, Note_on_c, 1, 77, 96
1, 41008, Note_on_c, 1, 79, 96
1, 41008, Note_on_c, 1, 62, 96
1, 41008, Note_on_c, 1, 36, 96
1, 41008, Note_on_c, 1, 38, 96
1, 41008, Note_on_c, 1, 91, 96
1, 41008, Note_on_c, 1, 93, 96
1, 41008, Note_on_c, 1, 80, 96
1, 41008, Note_on_c, 1, 89, 96
1, 41009, Note_off_c, 1, 50, 96
1, 41009, Note_off_c, 1, 71, 96
1, 41009, Note_off_c, 1, 79, 96
1, 41009, Note_off_c, 1, 91, 96
1, 41009, Note_off_c, 1, 77, 96
1, 41009, Note_off_c, 1, 79, 96
1, 41009, Note_off_c, 1, 62, 96
1, 41009, Note_off_c, 1, 36, 96
1, 41009, Note_off_c, 1, 38, 96
1, 41009, Note_off_c, 1, 91, 96
1, 41009, Note_off_c, 1, 93, 96
1, 41009, Note_off_c, 1, 80, 96
1, 41009, Note_off_c, 1, 89, 96
1, 41196, Note_on_c, 1, 40, 96
1, 41197, Note_off_c, 1, 40, 96
1, 41239, Note_on_c, 1, 84, 96
1, 41239, Note_on_c, 1, 96, 96
1, 41239, Note_on_c, 1, 84, 96
1, 41239, Note_on_c, 1, 84, 96
1, 41240, Note_off_c, 1, 84, 96
1, 41240, Note_off_c, 1, 96, 96
1, 41240, Note_off_c, 1, 84, 96
1, 41240, Note_off_c, 1, 84, 96
1, 41280, Note_on_c, 1, 40, 96
1, 41281, Note_off_c, 1, 40, 96
1, 41321, Note_on_c, 1, 40, 96
1, 41322, Note_off_c, 1, 40, 96
1, 41366, Note_on_c, 1, 76, 96
1, 41366, Note_on_c, 1, 88, 96
1, 41366, Note_on_c, 1, 40, 96
1, 41366, Note_on_c, 1, 82, 96
1, 41366, Note_on_c, 1, 79, 96
1, 41367, Note_off_c, 1, 76, 96
1, 41367, Note_off_c, 1, 88, 96
1, 41367, Note_off_c, 1, 40, 96
1, 41367, Note_off_c, 1, 82, 96
1, 41367, Note_off_c, 1, 79, 96
1, 41491, Note_on_c, 1, 72, 96
1, 41491, Note_on_c, 1, 79, 96
1, 41491, Note_on_c, 1, 91, 96
1, 41491, Note_on_c, 1, 88, 96
1, 41491, Note_on_c, 1, 38, 96
1, 41492, Note_off_c, 1, 72, 96
1, 41492, Note_off_c, 1, 79, 96
1, 41492, Note_off_c, 1, 91, 96
1, 41492, Note_off_c, 1, 88, 96
1, 41492, Note_off_c, 1, 38, 96
1, 41613, Note_on_c, 1, 81, 96
1, 41613, Note_on_c, 1, 93, 96
1, 41614, Note_off_c, 1, 81, 96
1, 41614, Note_off_c, 1, 93, 96
1, 41714, Note_on_c, 1, 75, 96
1, 41714, Note_on_c, 1, 97, 96
1, 41714, Note_on_c, 1, 98, 96
1, 41714, Note_on_c, 1, 50, 96
1, 41715, Note_off_c, 1, 75, 96
1, 41715, Note_off_c, 1, 97, 96
1, 41715, Note_off_c, 1, 98, 96
1, 41715, Note_off_c, 1, 50, 96
1, 41728, Note_on_c, 1, 38, 96
1, 41729, Note_off_c, 1, 38, 96
1, 41757, Note_on_c, 1, 82, 96
1, 41757, Note_on_c, 1, 58, 96
1, 41757, Note_on_c, 1, 70, 96
1, 41757, Note_on_c, 1, 82, 96
1, 41757, Note_on_c, 1, 79, 96
1, 41758, Note_off_c, 1, 82, 96
1, 41758, Note_off_c, 1, 58, 96
1, 41758, Note_off_c, 1, 70, 96
1, 41758, Note_off_c, 1, 82, 96
1, 41758, Note_off_c, 1, 79, 96
1, 41768, Note_on_c, 1, 40, 96
1, 41769, Note_off_c, 1, 40, 96
1, 41799, Note_on_c, 1, 62, 96
1, 41811, Note_off_c, 1, 62, 96
1, 41811, Note_on_c, 1, 58, 96
1, 41811, Note_on_c, 1, 67, 96
1, 41811, Note_on_c, 1, 74, 96
1, 41811, Note_on_c, 1, 91, 96
1, 41811, Note_on_c, 1, 86, 96
1, 41811, Note_on_c, 1, 82, 96
1, 41811, Note_on_c, 1, 76, 96
1, 41811, Note_on_c, 1, 95, 96
1, 41811, Note_on_c, 1, 79, 96
1, 41811, Note_on_c, 1, 36, 96
1, 41811, Note_on_c, 1, 38, 96
1, 41812, Note_off_c, 1, 58, 96
1, 41812, Note_off_c, 1, 67, 96
1, 41812, Note_off_c, 1, 74, 96
1, 41812, Note_off_c, 1, 91, 96
1, 41812, Note_off_c, 1, 86, 96
1, 41812, Note_off_c, 1, 82, 96
1, 41812, Note_off_c, 1, 76, 96
1, 41812, Note_off_c, 1, 95, 96
1, 41812, Note_off_c, 1, 79, 96
1, 41812, Note_off_c, 1, 36, 96
1, 41812, Note_off_c, 1, 38, 96
1, 41852, Note_on_c, 1, 38, 96
1, 41853, Note_off_c, 1, 38, 96
1, 41893, Note_on_c, 1, 38, 96
1, 41894, Note_off_c, 1, 38, 96
1, 41934, Note_on_c, 1, 58, 96
1, 41934, Note_on_c, 1, 70, 96
1, 41934, Note_on_c, 1, 74, 96
1, 41935, Note_off_c, 1, 58, 96
1, 41935, Note_off_c, 1, 70, 96
1, 41935, Note_off_c, 1, 74, 96
1, 41939, Note_on_c, 1, 38, 96
1, 41940, Note_off_c, 1, 38, 96
1, 41978, Note_on_c, 1, 38, 96
1, 41979, Note_off_c, 1, 38, 96
1, 42019, Note_on_c, 1, 38, 96
1, 42020, Note_off_c, 1, 38, 96
1, 42060, Note_on_c, 1, 72, 96
1, 42065, Note_off_c, 1, 72, 96
1, 42065, Note_on_c, 1, 75, 96
1, 42065, Note_on_c, 1, 80, 96
1, 42065, Note_on_c, 1, 38, 96
1, 42065, Note_on_c, 1, 36, 96
1, 42068, Note_off_c, 1, 75, 96
1, 42068, Note_off_c, 1, 80, 96
1, 42068, Note_off_c, 1, 38, 96
1, 42068, Note_off_c, 1, 36, 96
1, 42068, Note_on_c, 1, 81, 96
1, 42068, Note_on_c, 1, 72, 96
1, 42071, Note_off_c, 1, 81, 96
1, 42071, Note_off_c, 1, 72, 96
1, 42071, Note_on_c, 1, 69, 96
1, 42071, Note_on_c, 1, 72, 96
1, 42072, Note_off_c, 1, 69, 96
1, 42072, Note_off_c, 1, 72, 96
1, 42109, Note_on_c, 1, 38, 96
1, 42110, Note_off_c, 1, 38, 96
1, 42127, Note_on_c, 1, 38, 96
1, 42128, Note_off_c, 1, 38, 96
1, 42167, Note_on_c, 1, 38, 96
1, 42168, Note_off_c, 1, 38, 96
1, 42206, Note_on_c, 1, 103, 96
1, 42207, Note_off_c, 1, 103, 96
1, 42247, Note_on_c, 1, 76, 96
1, 42249, Note_off_c, 1, 76, 96
1, 42249, Note_on_c, 1, 81, 96
1, 42250, Note_off_c, 1, 81, 96
1, 42286, Note_on_c, 1, 81, 96
1, 42287, Note_off_c, 1, 81, 96
1, 42291, Note_on_c, 1, 86, 96
1, 42293, Note_off_c, 1, 86, 96
1, 42293, Note_on_c, 1, 45, 96
1, 42294, Note_off_c, 1, 45, 96
1, 42420, Note_on_c, 1, 86, 96
1, 42421, Note_off_c, 1, 86, 96
1, 42455, Note_on_c, 1, 81, 96
1, 42456, Note_off_c, 1, 81, 96
1, 42458, Note_on_c, 1, 48, 96
1, 42459, Note_off_c, 1, 48, 96
1, 42534, Note_on_c, 1, 79, 96
1, 42535, Note_off_c, 1, 79, 96
1, 42579, Note_on_c, 1, 70, 96
1, 42579, Note_on_c, 1, 52, 96
1, 42580, Note_off_c, 1, 70, 96
1, 42580, Note_off_c, 1, 52, 96
1, 42583, Note_on_c, 1, 91, 96
1, 42583, Note_on_c, 1, 40, 96
1, 42584, Note_off_c, 1, 91, 96
1, 42584, Note_off_c, 1, 40, 96
1, 42679, Note_on_c, 1, 48, 96
1, 42680, Note_off_c, 1, 48, 96
1, 42684, Note_on_c, 1, 50, 96
1, 42684, Note_on_c, 1, 53, 96
1, 42685, Note_off_c, 1, 50, 96
1, 42685, Note_off_c, 1, 53, 96
1, 42759, Note_on_c, 1, 77, 96
1, 42759, Note_on_c, 1, 65, 96
1, 42761, Note_off_c, 1, 77, 96
1, 42761, Note_off_c, 1, 65, 96
1, 42761, Note_on_c, 1, 74, 96
1, 42762, Note_off_c, 1, 74, 96
1, 42809, Note_on_c, 1, 75, 96
1, 42809, Note_on_c, 1, 84, 96
1, 42809, Note_on_c, 1, 72, 96
1, 42811, Note_off_c, 1, 75, 96
1, 42811, Note_off_c, 1, 84, 96
1, 42811, Note_off_c, 1, 72, 96
1, 42811, Note_on_c, 1, 52, 96
1, 42814, Note_off_c, 1, 52, 96
1, 42814, Note_on_c, 1, 76, 96
1, 42814, Note_on_c, 1, 72, 96
1, 42815, Note_off_c, 1, 76, 96
1, 42815, Note_off_c, 1, 72, 96
1, 42930, Note_on_c, 1, 79, 96
1, 42930, Note_on_c, 1, 72, 96
1, 42931, Note_off_c, 1, 79, 96
1, 42931, Note_off_c, 1, 72, 96
1, 42937, Note_on_c, 1, 76, 96
1, 42937, Note_on_c, 1, 36, 96
1, 42937, Note_on_c, 1, 48, 96
1, 42938, Note_off_c, 1, 76, 96
1, 42938, Note_off_c, 1, 36, 96
1, 42938, Note_off_c, 1, 48, 96
1, 42940, Note_on_c, 1, 84, 96
1, 42941, Note_off_c, 1, 84, 96
1, 42958, Note_on_c, 1, 57, 96
1, 42959, Note_off_c, 1, 57, 96
1, 42990, Note_on_c, 1, 39, 96
1, 42991, Note_off_c, 1, 39, 96
1, 43021, Note_on_c, 1, 43, 96
1, 43022, Note_off_c, 1, 43, 96
1, 43082, Note_on_c, 1, 36, 96
1, 43083, Note_off_c, 1, 36, 96
1, 43144, Note_on_c, 1, 38, 96
1, 43144, Note_on_c, 1, 50, 96
1, 43145, Note_off_c, 1, 38, 96
1, 43145, Note_off_c, 1, 50, 96
1, 43204, Note_on_c, 1, 41, 96
1, 43205, Note_off_c, 1, 41, 96
1, 43265, Note_on_c, 1, 74, 96
1, 43266, Note_off_c, 1, 74, 96
1, 43301, Note_on_c, 1, 62, 96
1, 43304, Note_off_c, 1, 62, 96
1, 43304, Note_on_c, 1, 67, 96
1, 43304, Note_on_c, 1, 56, 96
1, 43305, Note_off_c, 1, 67, 96
1, 43305, Note_off_c, 1, 56, 96
1, 43308, Note_on_c, 1, 70, 96
1, 43308, Note_on_c, 1, 53, 96
1, 43309, Note_off_c, 1, 70, 96
1, 43309, Note_off_c, 1, 53, 96
1, 43406, Note_on_c, 1, 58, 96
1, 43406, Note_on_c, 1, 46, 96
1, 43407, Note_off_c, 1, 58, 96
1, 43407, Note_off_c, 1, 46, 96
1, 43469, Note_on_c, 1, 76, 96
1, 43471, Note_off_c, 1, 76, 96
1, 43471, Note_on_c, 1, 73, 96
1, 43472, Note_off_c, 1, 73, 96
1, 43507, Note_on_c, 1, 33, 96
1, 43509, Note_off_c, 1, 33, 96
1, 43509, Note_on_c, 1, 45, 96
1, 43510, Note_off_c, 1, 45, 96
1, 43573, Note_on_c, 1, 69, 96
1, 43573, Note_on_c, 1, 65, 96
1, 43573, Note_on_c, 1, 77, 96
1, 43573, Note_on_c, 1, 46, 96
1, 43575, Note_off_c, 1, 69, 96
1, 43575, Note_off_c, 1, 65, 96
1, 43575, Note_off_c, 1, 77, 96
1, 43575, Note_off_c, 1, 46, 96
1, 43575, Note_on_c, 1, 34, 96
1, 43576, Note_off_c, 1, 34, 96
1, 43635, Note_on_c, 1, 39, 96
1, 43635, Note_on_c, 1, 51, 96
1, 43636, Note_off_c, 1, 39, 96
1, 43636, Note_off_c, 1, 51, 96
1, 43700, Note_on_c, 1, 76, 96
1, 43700, Note_on_c, 1, 71, 96
1, 43700, Note_on_c, 1, 37, 96
1, 43700, Note_on_c, 1, 49, 96
1, 43703, Note_off_c, 1, 76, 96
1, 43703, Note_off_c, 1, 71, 96
1, 43703, Note_off_c, 1, 37, 96
1, 43703, Note_off_c, 1, 49, 96
1, 43703, Note_on_c, 1, 69, 96
1, 43703, Note_on_c, 1, 67, 96
1, 43704, Note_off_c, 1, 69, 96
1, 43704, Note_off_c, 1, 67, 96
1, 43757, Note_on_c, 1, 52, 96
1, 43759, Note_off_c, 1, 52, 96
1, 43759, Note_on_c, 1, 70, 96
1, 43762, Note_off_c, 1, 70, 96
1, 43762, Note_on_c, 1, 67, 96
1, 43762, Note_on_c, 1, 40, 96
1, 43764, Note_off_c, 1, 67, 96
1, 43764, Note_off_c, 1, 40, 96
1, 43764, Note_on_c, 1, 73, 96
1, 43765, Note_off_c, 1, 73, 96
1, 43829, Note_on_c, 1, 46, 96
1, 43830, Note_off_c, 1, 46, 96
1, 43856, Note_on_c, 1, 49, 96
1, 43857, Note_off_c, 1, 49, 96
1, 43884, Note_on_c, 1, 46, 96
1, 43885, Note_off_c, 1, 46, 96
1, 43887, Note_on_c, 1, 58, 96
1, 43888, Note_off_c, 1, 58, 96
1, 43916, Note_on_c, 1, 56, 96
1, 43917, Note_off_c, 1, 56, 96
1, 43946, Note_on_c, 1, 60, 96
1, 43947, Note_off_c, 1, 60, 96
1, 43977, Note_on_c, 1, 67, 96
1, 43978, Note_off_c, 1, 67, 96
1, 44009, Note_on_c, 1, 72, 96
1, 44009, Note_on_c, 1, 65, 96
1, 44010, Note_off_c, 1, 72, 96
1, 44010, Note_off_c, 1, 65, 96
1, 44071, Note_on_c, 1, 74, 96
1, 44071, Note_on_c, 1, 67, 96
1, 44071, Note_on_c, 1, 70, 96
1, 44071, Note_on_c, 1, 46, 96
1, 44073, Note_off_c, 1, 74, 96
1, 44073, Note_off_c, 1, 67, 96
1, 44073, Note_off_c, 1, 70, 96
1, 44073, Note_off_c, 1, 46, 96
1, 44073, Note_on_c, 1, 58, 96
1, 44074, Note_off_c, 1, 58, 96
1, 44104, Note_on_c, 1, 69, 96
1, 44105, Note_off_c, 1, 69, 96
1, 44138, Note_on_c, 1, 77, 96
1, 44138, Note_on_c, 1, 41, 96
1, 44138, Note_on_c, 1, 53, 96
1, 44139, Note_off_c, 1, 77, 96
1, 44139, Note_off_c, 1, 41, 96
1, 44139, Note_off_c, 1, 53, 96
1, 44168, Note_on_c, 1, 65, 96
1, 44169, Note_off_c, 1, 65, 96
1, 44202, Note_on_c, 1, 65, 96
1, 44202, Note_on_c, 1, 53, 96
1, 44203, Note_off_c, 1, 65, 96
1, 44203, Note_off_c, 1, 53, 96
1, 44207, Note_on_c, 1, 70, 96
1, 44207, Note_on_c, 1, 57, 96
1, 44207, Note_on_c, 1, 62, 96
1, 44208, Note_off_c, 1, 70, 96
1, 44208, Note_off_c, 1, 57, 96
1, 44208, Note_off_c, 1, 62, 96
1, 44239, Note_on_c, 1, 76, 96
1, 44240, Note_off_c, 1, 76, 96
1, 44269, Note_on_c, 1, 78, 96
1, 44271, Note_off_c, 1, 78, 96
1, 44271, Note_on_c, 1, 66, 96
1, 44274, Note_off_c, 1, 66, 96
1, 44274, Note_on_c, 1, 45, 96
1, 44274, Note_on_c, 1, 57, 96
1, 44275, Note_off_c, 1, 45, 96
1, 44275, Note_off_c, 1, 57, 96
1, 44304, Note_on_c, 1, 75, 96
1, 44305, Note_off_c, 1, 75, 96
1, 44334, Note_on_c, 1, 66, 96
1, 44334, Note_on_c, 1, 50, 96
1, 44336, Note_off_c, 1, 66, 96
1, 44336, Note_off_c, 1, 50, 96
1, 44336, Note_on_c, 1, 38, 96
1, 44338, Note_off_c, 1, 38, 96
1, 44338, Note_on_c, 1, 72, 96
1, 44339, Note_off_c, 1, 72, 96
1, 44399, Note_on_c, 1, 79, 96
1, 44399, Note_on_c, 1, 64, 96
1, 44399, Note_on_c, 1, 55, 96
1, 44401, Note_off_c, 1, 79, 96
1, 44401, Note_off_c, 1, 64, 96
1, 44401, Note_off_c, 1, 55, 96
1, 44401, Note_on_c, 1, 59, 96
1, 44402, Note_off_c, 1, 59, 96
1, 44460, Note_on_c, 1, 62, 96
1, 44463, Note_off_c, 1, 62, 96
1, 44463, Note_on_c, 1, 55, 96
1, 44463, Note_on_c, 1, 59, 96
1, 44464, Note_off_c, 1, 55, 96
1, 44464, Note_off_c, 1, 59, 96
1, 44523, Note_on_c, 1, 43, 96
1, 44525, Note_off_c, 1, 43, 96
1, 44525, Note_on_c, 1, 67, 96
1, 44526, Note_off_c, 1, 67, 96
1, 44584, Note_on_c, 1, 43, 96
1, 44585, Note_off_c, 1, 43, 96
1, 44643, Note_on_c, 1, 59, 96
1, 44643, Note_on_c, 1, 55, 96
1, 44645, Note_off_c, 1, 59, 96
1, 44645, Note_off_c, 1, 55, 96
1, 44645, Note_on_c, 1, 71, 96
1, 44646, Note_off_c, 1, 71, 96
1, 44706, Note_on_c, 1, 74, 96
1, 44706, Note_on_c, 1, 64, 96
1, 44706, Note_on_c, 1, 64, 96
1, 44708, Note_off_c, 1, 74, 96
1, 44708, Note_off_c, 1, 64, 96
1, 44708, Note_off_c, 1, 64, 96
1, 44708, Note_on_c, 1, 52, 96
1, 44710, Note_off_c, 1, 52, 96
1, 44710, Note_on_c, 1, 60, 96
1, 44712, Note_off_c, 1, 60, 96
1, 44712, Note_on_c, 1, 55, 96
1, 44713, Note_off_c, 1, 55, 96
1, 44770, Note_on_c, 1, 55, 96
1, 44772, Note_off_c, 1, 55, 96
1, 44772, Note_on_c, 1, 60, 96
1, 44773, Note_off_c, 1, 60, 96
1, 44832, Note_on_c, 1, 69, 96
1, 44836, Note_off_c, 1, 69, 96
1, 44836, Note_on_c, 1, 65, 96
1, 44836, Note_on_c, 1, 60, 96
1, 44836, Note_on_c, 1, 48, 96
1, 44837, Note_off_c, 1, 65, 96
1, 44837, Note_off_c, 1, 60, 96
1, 44837, Note_off_c, 1, 48, 96
1, 44896, Note_on_c, 1, 53, 96
1, 44896, Note_on_c, 1, 41, 96
1, 44897, Note_off_c, 1, 53, 96
1, 44897, Note_off_c, 1, 41, 96
1, 44963, Note_on_c, 1, 67, 96
1, 44963, Note_on_c, 1, 41, 96
1, 44965, Note_off_c, 1, 67, 96
1, 44965, Note_off_c, 1, 41, 96
1, 44965, Note_on_c, 1, 53, 96
1, 44966, Note_off_c, 1, 53, 96
1, 45028, Note_on_c, 1, 63, 96
1, 45028, Note_on_c, 1, 65, 96
1, 45028, Note_on_c, 1, 57, 96
1, 45029, Note_off_c, 1, 63, 96
1, 45029, Note_off_c, 1, 65, 96
1, 45029, Note_off_c, 1, 57, 96
1, 45091, Note_on_c, 1, 43, 96
1, 45091, Note_on_c, 1, 55, 96
1, 45092, Note_off_c, 1, 43, 96
1, 45092, Note_off_c, 1, 55, 96
1, 45330, Note_on_c, 1, 41, 96
1, 45332, Note_off_c, 1, 41, 96
1, 45332, Note_on_c, 1, 53, 96
1, 45333, Note_off_c, 1, 53, 96
1, 45335, Note_on_c, 1, 65, 96
1, 45336, Note_off_c, 1, 65, 96
1, 45453, Note_on_c, 1, 50, 96
1, 45455, Note_off_c, 1, 50, 96
1, 45455, Note_on_c, 1, 38, 96
1, 45456, Note_off_c, 1, 38, 96
1, 45458, Note_on_c, 1, 59, 96
1, 45459, Note_off_c, 1, 59, 96
1, 45692, Note_on_c, 1, 69, 96
1, 45692, Note_on_c, 1, 57, 96
1, 45693, Note_off_c, 1, 69, 96
1, 45693, Note_off_c, 1, 57, 96
1, 45698, Note_on_c, 1, 65, 96
1, 45700, Note_off_c, 1, 65, 96
1, 45700, Note_on_c, 1, 51, 96
1, 45701, Note_off_c, 1, 51, 96
1, 45937, Note_on_c, 1, 65, 96
1, 45938, Note_off_c, 1, 65, 96
1, 45941, Note_on_c, 1, 69, 96
1, 45941, Note_on_c, 1, 50, 96
1, 45943, Note_off_c, 1, 69, 96
1, 45943, Note_off_c, 1, 50, 96
1, 45943, Note_on_c, 1, 60, 96
1, 45944, Note_off_c, 1, 60, 96
1, 46177, Note_on_c, 1, 57, 96
1, 46178, Note_off_c, 1, 57, 96
1, 46181, Note_on_c, 1, 65, 96
1, 46182, Note_off_c, 1, 65, 96
1, 46184, Note_on_c, 1, 74, 96
1, 46185, Note_off_c, 1, 74, 96
1, 46187, Note_on_c, 1, 62, 96
1, 46188, Note_off_c, 1, 62, 96
1, 46304, Note_on_c, 1, 60, 96
1, 46304, Note_on_c, 1, 81, 96
1, 46304, Note_on_c, 1, 69, 96
1, 46306, Note_off_c, 1, 60, 96
1, 46306, Note_off_c, 1, 81, 96
1, 46306, Note_off_c, 1, 69, 96
1, 46306, Note_on_c, 1, 72, 96
1, 46308, Note_off_c, 1, 72, 96
1, 46308, Note_on_c, 1, 76, 96
1, 46309, Note_off_c, 1, 76, 96
1, 46547, Note_on_c, 1, 72, 96
1, 46548, Note_off_c, 1, 72, 96
1, 46551, Note_on_c, 1, 62, 96
1, 46551, Note_on_c, 1, 66, 96
1, 46552, Note_off_c, 1, 62, 96
1, 46552, Note_off_c, 1, 66, 96
1, 46555, Note_on_c, 1, 78, 96
1, 46556, Note_off_c, 1, 78, 96
1, 46797, Note_on_c, 1, 60, 96
1, 46797, Note_on_c, 1, 50, 96
1, 46798, Note_off_c, 1, 60, 96
1, 46798, Note_off_c, 1, 50, 96
1, 46801, Note_on_c, 1, 54, 96
1, 46802, Note_off_c, 1, 54, 96
1, 47156, Note_on_c, 1, 55, 96
1, 47157, Note_off_c, 1, 55, 96
1, 47164, Note_on_c, 1, 43, 96
1, 47165, Note_off_c, 1, 43, 96
1, 47401, Note_on_c, 1, 74, 96
1, 47403, Note_off_c, 1, 74, 96
1, 47403, Note_on_c, 1, 71, 96
1, 47404, Note_off_c, 1, 71, 96
1, 47522, Note_on_c, 1, 74, 96
1, 47523, Note_off_c, 1, 74, 96
1, 47643, Note_on_c, 1, 71, 96
1, 47644, Note_off_c, 1, 71, 96
1, 47704, Note_on_c, 1, 60, 96
1, 47706, Note_off_c, 1, 60, 96
1, 47706, Note_on_c, 1, 72, 96
1, 47707, Note_off_c, 1, 72, 96
1, 47890, Note_on_c, 1, 74, 96
1, 47890, Note_on_c, 1, 50, 96
1, 47891, Note_off_c, 1, 74, 96
1, 47891, Note_off_c, 1, 50, 96
1, 47948, Note_on_c, 1, 40, 96
1, 47952, Note_off_c, 1, 40, 96
1, 47952, Note_on_c, 1, 64, 96
1, 47952, Note_on_c, 1, 74, 96
1, 47952, Note_on_c, 1, 52, 96
1, 47953, Note_off_c, 1, 64, 96
1, 47953, Note_off_c, 1, 74, 96
1, 47953, Note_off_c, 1, 52, 96
1, 47957, Note_on_c, 1, 68, 96
1, 47959, Note_off_c, 1, 68, 96
1, 47959, Note_on_c, 1, 76, 96
1, 47960, Note_off_c, 1, 76, 96
1, 48076, Note_on_c, 1, 53, 96
1, 48077, Note_off_c, 1, 53, 96
1, 48080, Note_on_c, 1, 41, 96
1, 48082, Note_off_c, 1, 41, 96
1, 48082, Note_on_c, 1, 65, 96
1, 48083, Note_off_c, 1, 65, 96
1, 48200, Note_on_c, 1, 58, 96
1, 48200, Note_on_c, 1, 46, 96
1, 48201, Note_off_c, 1, 58, 96
1, 48201, Note_off_c, 1, 46, 96
1, 48262, Note_on_c, 1, 69, 96
1, 48263, Note_off_c, 1, 69, 96
1, 48318, Note_on_c, 1, 53, 96
1, 48319, Note_off_c, 1, 53, 96
1, 48321, Note_on_c, 1, 57, 96
1, 48322, Note_off_c, 1, 57, 96
1, 48327, Note_on_c, 1, 48, 96
1, 48329, Note_off_c, 1, 48, 96
1, 48329, Note_on_c, 1, 53, 96
1, 48330, Note_off_c, 1, 53, 96
1, 48384, Note_on_c, 1, 64, 96
1, 48385, Note_off_c, 1, 64, 96
1, 48443, Note_on_c, 1, 41, 96
1, 48444, Note_off_c, 1, 41, 96
1, 48446, Note_on_c, 1, 65, 96
1, 48447, Note_off_c, 1, 65, 96
1, 48451, Note_on_c, 1, 69, 96
1, 48452, Note_off_c, 1, 69, 96
1, 48507, Note_on_c, 1, 72, 96
1, 48508, Note_off_c, 1, 72, 96
1, 48574, Note_on_c, 1, 60, 96
1, 48574, Note_on_c, 1, 65, 96
1, 48576, Note_off_c, 1, 60, 96
1, 48576, Note_off_c, 1, 65, 96
1, 48576, Note_on_c, 1, 57, 96
1, 48577, Note_off_c, 1, 57, 96
1, 48632, Note_on_c, 1, 68, 96
1, 48633, Note_off_c, 1, 68, 96
1, 48698, Note_on_c, 1, 53, 96
1, 48699, Note_off_c, 1, 53, 96
1, 48701, Note_on_c, 1, 41, 96
1, 48703, Note_off_c, 1, 41, 96
1, 48703, Note_on_c, 1, 65, 96
1, 48704, Note_off_c, 1, 65, 96
1, 48758, Note_on_c, 1, 69, 96
1, 48759, Note_off_c, 1, 69, 96
1, 48822, Note_on_c, 1, 57, 96
1, 48822, Note_on_c, 1, 60, 96
1, 48822, Note_on_c, 1, 65, 96
1, 48823, Note_off_c, 1, 57, 96
1, 48823, Note_off_c, 1, 60, 96
1, 48823, Note_off_c, 1, 65, 96
1, 48885, Note_on_c, 1, 74, 96
1, 48886, Note_off_c, 1, 74, 96
1, 48948, Note_on_c, 1, 69, 96
1, 48948, Note_on_c, 1, 52, 96
1, 48950, Note_off_c, 1, 69, 96
1, 48950, Note_off_c, 1, 52, 96
1, 48950, Note_on_c, 1, 60, 96
1, 48951, Note_off_c, 1, 60, 96
1, 49069, Note_on_c, 1, 53, 96
1, 49070, Note_off_c, 1, 53, 96
1, 49072, Note_on_c, 1, 60, 96
1, 49073, Note_off_c, 1, 60, 96
1, 49076, Note_on_c, 1, 72, 96
1, 49076, Note_on_c, 1, 57, 96
1, 49077, Note_off_c, 1, 72, 96
1, 49077, Note_off_c, 1, 57, 96
1, 49135, Note_on_c, 1, 72, 96
1, 49136, Note_off_c, 1, 72, 96
1, 49193, Note_on_c, 1, 77, 96
1, 49194, Note_off_c, 1, 77, 96
1, 49198, Note_on_c, 1, 68, 96
1, 49199, Note_off_c, 1, 68, 96
1, 49312, Note_on_c, 1, 58, 96
1, 49313, Note_off_c, 1, 58, 96
1, 49318, Note_on_c, 1, 74, 96
1, 49318, Note_on_c, 1, 62, 96
1, 49319, Note_off_c, 1, 74, 96
1, 49319, Note_off_c, 1, 62, 96
1, 49376, Note_on_c, 1, 67, 96
1, 49377, Note_off_c, 1, 67, 96
1, 49381, Note_on_c, 1, 79, 96
1, 49382, Note_off_c, 1, 79, 96
1, 49439, Note_on_c, 1, 51, 96
1, 49440, Note_off_c, 1, 51, 96
1, 49442, Note_on_c, 1, 39, 96
1, 49444, Note_off_c, 1, 39, 96
1, 49444, Note_on_c, 1, 72, 96
1, 49445, Note_off_c, 1, 72, 96
1, 49447, Note_on_c, 1, 79, 96
1, 49449, Note_off_c, 1, 79, 96
1, 49449, Note_on_c, 1, 84, 96
1, 49450, Note_off_c, 1, 84, 96
1, 49504, Note_on_c, 1, 67, 96
1, 49505, Note_off_c, 1, 67, 96
1, 49507, Note_on_c, 1, 79, 96
1, 49508, Note_off_c, 1, 79, 96
1, 49566, Note_on_c, 1, 79, 96
1, 49568, Note_off_c, 1, 79, 96
1, 49568, Note_on_c, 1, 87, 96
1, 49570, Note_off_c, 1, 87, 96
1, 49570, Note_on_c, 1, 75, 96
1, 49573, Note_off_c, 1, 75, 96
1, 49573, Note_on_c, 1, 51, 96
1, 49573, Note_on_c, 1, 39, 96
1, 49575, Note_off_c, 1, 51, 96
1, 49575, Note_off_c, 1, 39, 96
1, 49575, Note_on_c, 1, 63, 96
1, 49576, Note_off_c, 1, 63, 96
1, 49695, Note_on_c, 1, 79, 96
1, 49695, Note_on_c, 1, 58, 96
1, 49696, Note_off_c, 1, 79, 96
1, 49696, Note_off_c, 1, 58, 96
1, 49699, Note_on_c, 1, 87, 96
1, 49699, Note_on_c, 1, 75, 96
1, 49702, Note_off_c, 1, 87, 96
1, 49702, Note_off_c, 1, 75, 96
1, 49702, Note_on_c, 1, 55, 96
1, 49702, Note_on_c, 1, 63, 96
1, 49704, Note_off_c, 1, 55, 96
1, 49704, Note_off_c, 1, 63, 96
1, 49704, Note_on_c, 1, 70, 96
1, 49705, Note_off_c, 1, 70, 96
1, 49819, Note_on_c, 1, 74, 96
1, 49819, Note_on_c, 1, 86, 96
1, 49820, Note_off_c, 1, 74, 96
1, 49820, Note_off_c, 1, 86, 96
1, 49824, Note_on_c, 1, 63, 96
1, 49826, Note_off_c, 1, 63, 96
1, 49826, Note_on_c, 1, 55, 96
1, 49827, Note_off_c, 1, 55, 96
1, 49829, Note_on_c, 1, 58, 96
1, 49830, Note_off_c, 1, 58, 96
1, 49890, Note_on_c, 1, 79, 96
1, 49890, Note_on_c, 1, 86, 96
1, 49892, Note_off_c, 1, 79, 96
1, 49892, Note_off_c, 1, 86, 96
1, 49892, Note_on_c, 1, 75, 96
1, 49893, Note_off_c, 1, 75, 96
1, 49948, Note_on_c, 1, 51, 96
1, 49949, Note_off_c, 1, 51, 96
1, 49952, Note_on_c, 1, 39, 96
1, 49953, Note_off_c, 1, 39, 96
1, 50009, Note_on_c, 1, 74, 96
1, 50010, Note_off_c, 1, 74, 96
1, 50015, Note_on_c, 1, 77, 96
1, 50015, Note_on_c, 1, 86, 96
1, 50016, Note_off_c, 1, 77, 96
1, 50016, Note_off_c, 1, 86, 96
1, 50131, Note_on_c, 1, 77, 96
1, 50131, Note_on_c, 1, 57, 96
1, 50132, Note_off_c, 1, 77, 96
1, 50132, Note_off_c, 1, 57, 96
1, 50134, Note_on_c, 1, 63, 96
1, 50135, Note_off_c, 1, 63, 96
1, 50138, Note_on_c, 1, 72, 96
1, 50138, Note_on_c, 1, 53, 96
1, 50140, Note_off_c, 1, 72, 96
1, 50140, Note_off_c, 1, 53, 96
1, 50140, Note_on_c, 1, 84, 96
1, 50141, Note_off_c, 1, 84, 96
1, 50256, Note_on_c, 1, 60, 96
1, 50256, Note_on_c, 1, 53, 96
1, 50257, Note_off_c, 1, 60, 96
1, 50257, Note_off_c, 1, 53, 96
1, 50262, Note_on_c, 1, 75, 96
1, 50264, Note_off_c, 1, 75, 96
1, 50264, Note_on_c, 1, 57, 96
1, 50266, Note_off_c, 1, 57, 96
1, 50266, Note_on_c, 1, 87, 96
1, 50267, Note_off_c, 1, 87, 96
1, 50384, Note_on_c, 1, 81, 96
1, 50386, Note_off_c, 1, 81, 96
1, 50386, Note_on_c, 1, 41, 96
1, 50388, Note_off_c, 1, 41, 96
1, 50388, Note_on_c, 1, 70, 96
1, 50390, Note_off_c, 1, 70, 96
1, 50390, Note_on_c, 1, 77, 96
1, 50391, Note_off_c, 1, 77, 96
1, 50505, Note_on_c, 1, 49, 96
1, 50505, Note_on_c, 1, 61, 96
1, 50506, Note_off_c, 1, 49, 96
1, 50506, Note_off_c, 1, 61, 96
1, 50691, Note_on_c, 1, 68, 96
1, 50692, Note_off_c, 1, 68, 96
1, 50753, Note_on_c, 1, 51, 96
1, 50754, Note_off_c, 1, 51, 96
1, 50873, Note_on_c, 1, 60, 96
1, 50875, Note_off_c, 1, 60, 96
1, 50875, Note_on_c, 1, 48, 96
1, 50876, Note_off_c, 1, 48, 96
1, 51116, Note_on_c, 1, 61, 96
1, 51118, Note_off_c, 1, 61, 96
1, 51118, Note_on_c, 1, 70, 96
1, 51119, Note_off_c, 1, 70, 96
1, 51122, Note_on_c, 1, 55, 96
1, 51123, Note_off_c, 1, 55, 96
1, 51181, Note_on_c, 1, 39, 96
1, 51182, Note_off_c, 1, 39, 96
1, 51184, Note_on_c, 1, 66, 96
1, 51185, Note_off_c, 1, 66, 96
1, 51245, Note_on_c, 1, 65, 96
1, 51245, Note_on_c, 1, 77, 96
1, 51246, Note_off_c, 1, 65, 96
1, 51246, Note_off_c, 1, 77, 96
1, 51364, Note_on_c, 1, 39, 96
1, 51365, Note_off_c, 1, 39, 96
1, 51485, Note_on_c, 1, 51, 96
1, 51486, Note_off_c, 1, 51, 96
1, 51489, Note_on_c, 1, 73, 96
1, 51491, Note_off_c, 1, 73, 96
1, 51491, Note_on_c, 1, 67, 96
1, 51492, Note_off_c, 1, 67, 96
1, 51549, Note_on_c, 1, 34, 96
1, 51550, Note_off_c, 1, 34, 96
1, 51611, Note_on_c, 1, 53, 96
1, 51612, Note_off_c, 1, 53, 96
1, 51616, Note_on_c, 1, 58, 96
1, 51617, Note_off_c, 1, 58, 96
1, 51675, Note_on_c, 1, 51, 96
1, 51677, Note_off_c, 1, 51, 96
1, 51677, Note_on_c, 1, 75, 96
1, 51678, Note_off_c, 1, 75, 96
1, 51734, Note_on_c, 1, 75, 96
1, 51735, Note_off_c, 1, 75, 96
1, 51738, Note_on_c, 1, 63, 96
1, 51739, Note_off_c, 1, 63, 96
1, 51796, Note_on_c, 1, 72, 96
1, 51797, Note_off_c, 1, 72, 96
1, 51859, Note_on_c, 1, 65, 96
1, 51859, Note_on_c, 1, 59, 96
1, 51860, Note_off_c, 1, 65, 96
1, 51860, Note_off_c, 1, 59, 96
1, 51922, Note_on_c, 1, 48, 96
1, 51923, Note_off_c, 1, 48, 96
1, 51979, Note_on_c, 1, 49, 96
1, 51980, Note_off_c, 1, 49, 96
1, 51984, Note_on_c, 1, 61, 96
1, 51985, Note_off_c, 1, 61, 96
1, 52046, Note_on_c, 1, 46, 96
1, 52046, Note_on_c, 1, 58, 96
1, 52047, Note_off_c, 1, 46, 96
1, 52047, Note_off_c, 1, 58, 96
1, 52108, Note_on_c, 1, 40, 96
1, 52109, Note_off_c, 1, 40, 96
1, 52111, Note_on_c, 1, 52, 96
1, 52113, Note_off_c, 1, 52, 96
1, 52113, Note_on_c, 1, 60, 96
1, 52114, Note_off_c, 1, 60, 96
1, 52170, Note_on_c, 1, 49, 96
1, 52171, Note_off_c, 1, 49, 96
1, 52173, Note_on_c, 1, 61, 96
1, 52174, Note_off_c, 1, 61, 96
1, 52234, Note_on_c, 1, 63, 96
1, 52236, Note_off_c, 1, 63, 96
1, 52236, Note_on_c, 1, 49, 96
1, 52238, Note_off_c, 1, 49, 96
1, 52238, Note_on_c, 1, 60, 96
1, 52239, Note_off_c, 1, 60, 96
1, 52301, Note_on_c, 1, 63, 96
1, 52301, Note_on_c, 1, 57, 96
1, 52301, Note_on_c, 1, 51, 96
1, 52301, Note_on_c, 1, 54, 96
1, 52302, Note_off_c, 1, 63, 96
1, 52302, Note_off_c, 1, 57, 96
1, 52302, Note_off_c, 1, 51, 96
1, 52302, Note_off_c, 1, 54, 96
1, 52358, Note_on_c, 1, 65, 96
1, 52360, Note_off_c, 1, 65, 96
1, 52360, Note_on_c, 1, 46, 96
1, 52362, Note_off_c, 1, 46, 96
1, 52362, Note_on_c, 1, 34, 96
1, 52363, Note_off_c, 1, 34, 96
1, 52481, Note_on_c, 1, 51, 96
1, 52482, Note_off_c, 1, 51, 96
1, 52607, Note_on_c, 1, 58, 96
1, 52608, Note_off_c, 1, 58, 96
1, 52724, Note_on_c, 1, 71, 96
1, 52726, Note_off_c, 1, 71, 96
1, 52726, Note_on_c, 1, 68, 96
1, 52727, Note_off_c, 1, 68, 96
1, 52731, Note_on_c, 1, 51, 96
1, 52732, Note_off_c, 1, 51, 96
1, 52971, Note_on_c, 1, 60, 96
1, 52971, Note_on_c, 1, 44, 96
1, 52972, Note_off_c, 1, 60, 96
1, 52972, Note_off_c, 1, 44, 96
1, 53090, Note_on_c, 1, 75, 96
1, 53091, Note_off_c, 1, 75, 96
1, 53185, Note_on_c, 1, 46, 96
1, 53186, Note_off_c, 1, 46, 96
1, 53188, Note_on_c, 1, 61, 96
1, 53189, Note_off_c, 1, 61, 96
1, 53191, Note_on_c, 1, 73, 96
1, 53192, Note_off_c, 1, 73, 96
1, 53308, Note_on_c, 1, 52, 96
1, 53309, Note_off_c, 1, 52, 96
1, 53312, Note_on_c, 1, 40, 96
1, 53313, Note_off_c, 1, 40, 96
1, 53431, Note_on_c, 1, 44, 96
1, 53432, Note_off_c, 1, 44, 96
1, 53548, Note_on_c, 1, 66, 96
1, 53549, Note_off_c, 1, 66, 96
1, 53552, Note_on_c, 1, 51, 96
1, 53553, Note_off_c, 1, 51, 96
1, 53640, Note_on_c, 1, 67, 96
1, 53641, Note_off_c, 1, 67, 96
1, 53670, Note_on_c, 1, 56, 96
1, 53672, Note_off_c, 1, 56, 96
1, 53672, Note_on_c, 1, 44, 96
1, 53673, Note_off_c, 1, 44, 96
1, 53677, Note_on_c, 1, 60, 96
1, 53678, Note_off_c, 1, 60, 96
1, 53680, Note_on_c, 1, 51, 96
1, 53681, Note_off_c, 1, 51, 96
1, 53740, Note_on_c, 1, 68, 96
1, 53741, Note_off_c, 1, 68, 96
1, 53800, Note_on_c, 1, 70, 96
1, 53801, Note_off_c, 1, 70, 96
1, 53804, Note_on_c, 1, 51, 96
1, 53805, Note_off_c, 1, 51, 96
1, 53880, Note_on_c, 1, 67, 96
1, 53881, Note_off_c, 1, 67, 96
1, 53927, Note_on_c, 1, 66, 96
1, 53927, Note_on_c, 1, 45, 96
1, 53929, Note_off_c, 1, 66, 96
1, 53929, Note_off_c, 1, 45, 96
1, 53929, Note_on_c, 1, 74, 96
1, 53932, Note_off_c, 1, 74, 96
1, 53932, Note_on_c, 1, 70, 96
1, 53932, Note_on_c, 1, 34, 96
1, 53933, Note_off_c, 1, 70, 96
1, 53933, Note_off_c, 1, 34, 96
1, 54002, Note_on_c, 1, 77, 96
1, 54003, Note_off_c, 1, 77, 96
1, 54066, Note_on_c, 1, 80, 96
1, 54066, Note_on_c, 1, 51, 96
1, 54067, Note_off_c, 1, 80, 96
1, 54067, Note_off_c, 1, 51, 96
1, 54069, Note_on_c, 1, 55, 96
1, 54071, Note_off_c, 1, 55, 96
1, 54071, Note_on_c, 1, 60, 96
1, 54072, Note_off_c, 1, 60, 96
1, 54190, Note_on_c, 1, 84, 96
1, 54190, Note_on_c, 1, 77, 96
1, 54191, Note_off_c, 1, 84, 96
1, 54191, Note_off_c, 1, 77, 96
1, 54195, Note_on_c, 1, 72, 96
1, 54196, Note_off_c, 1, 72, 96
1, 54256, Note_on_c, 1, 74, 96
1, 54256, Note_on_c, 1, 79, 96
1, 54257, Note_off_c, 1, 74, 96
1, 54257, Note_off_c, 1, 79, 96
1, 54314, Note_on_c, 1, 60, 96
1, 54315, Note_off_c, 1, 60, 96
1, 54317, Note_on_c, 1, 70, 96
1, 54319, Note_off_c, 1, 70, 96
1, 54319, Note_on_c, 1, 75, 96
1, 54322, Note_off_c, 1, 75, 96
1, 54322, Note_on_c, 1, 63, 96
1, 54322, Note_on_c, 1, 51, 96
1, 54323, Note_off_c, 1, 63, 96
1, 54323, Note_off_c, 1, 51, 96
1, 54439, Note_on_c, 1, 79, 96
1, 54443, Note_off_c, 1, 79, 96
1, 54443, Note_on_c, 1, 72, 96
1, 54443, Note_on_c, 1, 75, 96
1, 54443, Note_on_c, 1, 51, 96
1, 54447, Note_off_c, 1, 72, 96
1, 54447, Note_off_c, 1, 75, 96
1, 54447, Note_off_c, 1, 51, 96
1, 54447, Note_on_c, 1, 70, 96
1, 54447, Note_on_c, 1, 60, 96
1, 54447, Note_on_c, 1, 55, 96
1, 54448, Note_off_c, 1, 70, 96
1, 54448, Note_off_c, 1, 60, 96
1, 54448, Note_off_c, 1, 55, 96
1, 54521, Note_on_c, 1, 72, 96
1, 54522, Note_off_c, 1, 72, 96
1, 54568, Note_on_c, 1, 84, 96
1, 54568, Note_on_c, 1, 62, 96
1, 54571, Note_off_c, 1, 84, 96
1, 54571, Note_off_c, 1, 62, 96
1, 54571, Note_on_c, 1, 58, 96
1, 54571, Note_on_c, 1, 80, 96
1, 54574, Note_off_c, 1, 58, 96
1, 54574, Note_off_c, 1, 80, 96
1, 54574, Note_on_c, 1, 77, 96
1, 54574, Note_on_c, 1, 53, 96
1, 54575, Note_off_c, 1, 77, 96
1, 54575, Note_off_c, 1, 53, 96
1, 54649, Note_on_c, 1, 70, 96
1, 54650, Note_off_c, 1, 70, 96
1, 54653, Note_on_c, 1, 82, 96
1, 54654, Note_off_c, 1, 82, 96
1, 54696, Note_on_c, 1, 32, 96
1, 54697, Note_off_c, 1, 32, 96
1, 54699, Note_on_c, 1, 63, 96
1, 54701, Note_off_c, 1, 63, 96
1, 54701, Note_on_c, 1, 44, 96
1, 54702, Note_off_c, 1, 44, 96
1, 54761, Note_on_c, 1, 80, 96
1, 54762, Note_off_c, 1, 80, 96
1, 54817, Note_on_c, 1, 80, 96
1, 54819, Note_off_c, 1, 80, 96
1, 54819, Note_on_c, 1, 53, 96
1, 54820, Note_off_c, 1, 53, 96
1, 54823, Note_on_c, 1, 41, 96
1, 54824, Note_off_c, 1, 41, 96
1, 54882, Note_on_c, 1, 78, 96
1, 54883, Note_off_c, 1, 78, 96
1, 54885, Note_on_c, 1, 66, 96
1, 54886, Note_off_c, 1, 66, 96
1, 55064, Note_on_c, 1, 78, 96
1, 55065, Note_off_c, 1, 78, 96
1, 55069, Note_on_c, 1, 75, 96
1, 55069, Note_on_c, 1, 60, 96
1, 55070, Note_off_c, 1, 75, 96
1, 55070, Note_off_c, 1, 60, 96
1, 55072, Note_on_c, 1, 56, 96
1, 55074, Note_off_c, 1, 56, 96
1, 55074, Note_on_c, 1, 72, 96
1, 55075, Note_off_c, 1, 72, 96
1, 55192, Note_on_c, 1, 70, 96
1, 55192, Note_on_c, 1, 42, 96
1, 55194, Note_off_c, 1, 70, 96
1, 55194, Note_off_c, 1, 42, 96
1, 55194, Note_on_c, 1, 82, 96
1, 55196, Note_off_c, 1, 82, 96
1, 55196, Note_on_c, 1, 66, 96
1, 55198, Note_off_c, 1, 66, 96
1, 55198, Note_on_c, 1, 78, 96
1, 55199, Note_off_c, 1, 78, 96
1, 55313, Note_on_c, 1, 75, 96
1, 55314, Note_off_c, 1, 75, 96
1, 55317, Note_on_c, 1, 80, 96
1, 55317, Note_on_c, 1, 44, 96
1, 55318, Note_off_c, 1, 80, 96
1, 55318, Note_off_c, 1, 44, 96
1, 55320, Note_on_c, 1, 72, 96
1, 55322, Note_off_c, 1, 72, 96
1, 55322, Note_on_c, 1, 56, 96
1, 55323, Note_off_c, 1, 56, 96
1, 55437, Note_on_c, 1, 59, 96
1, 55438, Note_off_c, 1, 59, 96
1, 55441, Note_on_c, 1, 47, 96
1, 55442, Note_off_c, 1, 47, 96
1, 55565, Note_on_c, 1, 39, 96
1, 55565, Note_on_c, 1, 51, 96
1, 55566, Note_off_c, 1, 39, 96
1, 55566, Note_off_c, 1, 51, 96
1, 55684, Note_on_c, 1, 55, 96
1, 55685, Note_off_c, 1, 55, 96
1, 55690, Note_on_c, 1, 43, 96
1, 55691, Note_off_c, 1, 43, 96
1, 55747, Note_on_c, 1, 75, 96
1, 55748, Note_off_c, 1, 75, 96
1, 55811, Note_on_c, 1, 77, 96
1, 55811, Note_on_c, 1, 36, 96
1, 55813, Note_off_c, 1, 77, 96
1, 55813, Note_off_c, 1, 36, 96
1, 55813, Note_on_c, 1, 48, 96
1, 55814, Note_off_c, 1, 48, 96
1, 55871, Note_on_c, 1, 66, 96
1, 55872, Note_off_c, 1, 66, 96
1, 55875, Note_on_c, 1, 75, 96
1, 55876, Note_off_c, 1, 75, 96
1, 55933, Note_on_c, 1, 74, 96
1, 55934, Note_off_c, 1, 74, 96
1, 55937, Note_on_c, 1, 48, 96
1, 55937, Note_on_c, 1, 36, 96
1, 55939, Note_off_c, 1, 48, 96
1, 55939, Note_off_c, 1, 36, 96
1, 55939, Note_on_c, 1, 86, 96
1, 55940, Note_off_c, 1, 86, 96
1, 55994, Note_on_c, 1, 86, 96
1, 55995, Note_off_c, 1, 86, 96
1, 55997, Note_on_c, 1, 74, 96
1, 55998, Note_off_c, 1, 74, 96
1, 56058, Note_on_c, 1, 84, 96
1, 56058, Note_on_c, 1, 77, 96
1, 56059, Note_off_c, 1, 84, 96
1, 56059, Note_off_c, 1, 77, 96
1, 56061, Note_on_c, 1, 51, 96
1, 56062, Note_off_c, 1, 51, 96
1, 56064, Note_on_c, 1, 89, 96
1, 56065, Note_off_c, 1, 89, 96
1, 56179, Note_on_c, 1, 62, 96
1, 56180, Note_off_c, 1, 62, 96
1, 56183, Note_on_c, 1, 50, 96
1, 56184, Note_off_c, 1, 50, 96
1, 56239, Note_on_c, 1, 85, 96
1, 56240, Note_off_c, 1, 85, 96
1, 56242, Note_on_c, 1, 85, 96
1, 56243, Note_off_c, 1, 85, 96
1, 56245, Note_on_c, 1, 73, 96
1, 56246, Note_off_c, 1, 73, 96
1, 56248, Note_on_c, 1, 77, 96
1, 56249, Note_off_c, 1, 77, 96
1, 56303, Note_on_c, 1, 43, 96
1, 56304, Note_off_c, 1, 43, 96
1, 56310, Note_on_c, 1, 55, 96
1, 56311, Note_off_c, 1, 55, 96
1, 56426, Note_on_c, 1, 63, 96
1, 56427, Note_off_c, 1, 63, 96
1, 56432, Note_on_c, 1, 77, 96
1, 56432, Note_on_c, 1, 67, 96
1, 56432, Note_on_c, 1, 72, 96
1, 56433, Note_off_c, 1, 77, 96
1, 56433, Note_off_c, 1, 67, 96
1, 56433, Note_off_c, 1, 72, 96
1, 56436, Note_on_c, 1, 82, 96
1, 56436, Note_on_c, 1, 75, 96
1, 56437, Note_off_c, 1, 82, 96
1, 56437, Note_off_c, 1, 75, 96
1, 56492, Note_on_c, 1, 68, 96
1, 56493, Note_off_c, 1, 68, 96
1, 56495, Note_on_c, 1, 80, 96
1, 56496, Note_off_c, 1, 80, 96
1, 56498, Note_on_c, 1, 73, 96
1, 56499, Note_off_c, 1, 73, 96
1, 56553, Note_on_c, 1, 82, 96
1, 56554, Note_off_c, 1, 82, 96
1, 56556, Note_on_c, 1, 63, 96
1, 56558, Note_off_c, 1, 63, 96
1, 56558, Note_on_c, 1, 75, 96
1, 56559, Note_off_c, 1, 75, 96
1, 56563, Note_on_c, 1, 55, 96
1, 56564, Note_off_c, 1, 55, 96
1, 56567, Note_on_c, 1, 61, 96
1, 56568, Note_off_c, 1, 61, 96
1, 56682, Note_on_c, 1, 82, 96
1, 56683, Note_off_c, 1, 82, 96
1, 56685, Note_on_c, 1, 72, 96
1, 56686, Note_off_c, 1, 72, 96
1, 56688, Note_on_c, 1, 75, 96
1, 56690, Note_off_c, 1, 75, 96
1, 56690, Note_on_c, 1, 51, 96
1, 56691, Note_off_c, 1, 51, 96
1, 56748, Note_on_c, 1, 89, 96
1, 56750, Note_off_c, 1, 89, 96
1, 56750, Note_on_c, 1, 77, 96
1, 56751, Note_off_c, 1, 77, 96
1, 56753, Note_on_c, 1, 82, 96
1, 56754, Note_off_c, 1, 82, 96
1, 56809, Note_on_c, 1, 46, 96
1, 56810, Note_off_c, 1, 46, 96
1, 56815, Note_on_c, 1, 58, 96
1, 56816, Note_off_c, 1, 58, 96
1, 56931, Note_on_c, 1, 86, 96
1, 56931, Note_on_c, 1, 53, 96
1, 56933, Note_off_c, 1, 86, 96
1, 56933, Note_off_c, 1, 53, 96
1, 56933, Note_on_c, 1, 74, 96
1, 56934, Note_off_c, 1, 74, 96
1, 56936, Note_on_c, 1, 77, 96
1, 56939, Note_off_c, 1, 77, 96
1, 56939, Note_on_c, 1, 58, 96
1, 56939, Note_on_c, 1, 62, 96
1, 56940, Note_off_c, 1, 58, 96
1, 56940, Note_off_c, 1, 62, 96
1, 56999, Note_on_c, 1, 80, 96
1, 57001, Note_off_c, 1, 80, 96
1, 57001, Note_on_c, 1, 58, 96
1, 57002, Note_off_c, 1, 58, 96
1, 57004, Note_on_c, 1, 86, 96
1, 57005, Note_off_c, 1, 86, 96
1, 57007, Note_on_c, 1, 62, 96
1, 57011, Note_off_c, 1, 62, 96
1, 57011, Note_on_c, 1, 74, 96
1, 57011, Note_on_c, 1, 65, 96
1, 57011, Note_on_c, 1, 53, 96
1, 57012, Note_off_c, 1, 74, 96
1, 57012, Note_off_c, 1, 65, 96
1, 57012, Note_off_c, 1, 53, 96
1, 57124, Note_on_c, 1, 58, 96
1, 57126, Note_off_c, 1, 58, 96
1, 57126, Note_on_c, 1, 68, 96
1, 57128, Note_off_c, 1, 68, 96
1, 57128, Note_on_c, 1, 56, 96
1, 57129, Note_off_c, 1, 56, 96
1, 57131, Note_on_c, 1, 74, 96
1, 57132, Note_off_c, 1, 74, 96
1, 57193, Note_on_c, 1, 58, 96
1, 57193, Note_on_c, 1, 46, 96
1, 57194, Note_off_c, 1, 58, 96
1, 57194, Note_off_c, 1, 46, 96
1, 57255, Note_on_c, 1, 74, 96
1, 57256, Note_off_c, 1, 74, 96
1, 57311, Note_on_c, 1, 61, 96
1, 57313, Note_off_c, 1, 61, 96
1, 57313, Note_on_c, 1, 55, 96
1, 57314, Note_off_c, 1, 55, 96
1, 57316, Note_on_c, 1, 51, 96
1, 57318, Note_off_c, 1, 51, 96
1, 57318, Note_on_c, 1, 82, 96
1, 57320, Note_off_c, 1, 82, 96
1, 57320, Note_on_c, 1, 75, 96
1, 57321, Note_off_c, 1, 75, 96
1, 57434, Note_on_c, 1, 80, 96
1, 57435, Note_off_c, 1, 80, 96
1, 57437, Note_on_c, 1, 65, 96
1, 57438, Note_off_c, 1, 65, 96
1, 57440, Note_on_c, 1, 53, 96
1, 57441, Note_off_c, 1, 53, 96
1, 57445, Note_on_c, 1, 72, 96
1, 57446, Note_off_c, 1, 72, 96
1, 57561, Note_on_c, 1, 80, 96
1, 57562, Note_off_c, 1, 80, 96
1, 57567, Note_on_c, 1, 73, 96
1, 57568, Note_off_c, 1, 73, 96
1, 57685, Note_on_c, 1, 65, 96
1, 57686, Note_off_c, 1, 65, 96
1, 57688, Note_on_c, 1, 80, 96
1, 57689, Note_off_c, 1, 80, 96
1, 57691, Note_on_c, 1, 49, 96
1, 57695, Note_off_c, 1, 49, 96
1, 57695, Note_on_c, 1, 68, 96
1, 57695, Note_on_c, 1, 73, 96
1, 57695, Note_on_c, 1, 61, 96
1, 57696, Note_off_c, 1, 68, 96
1, 57696, Note_off_c, 1, 73, 96
1, 57696, Note_off_c, 1, 61, 96
1, 57810, Note_on_c, 1, 61, 96
1, 57813, Note_off_c, 1, 61, 96
1, 57813, Note_on_c, 1, 65, 96
1, 57813, Note_on_c, 1, 49, 96
1, 57814, Note_off_c, 1, 65, 96
1, 57814, Note_off_c, 1, 49, 96
1, 57934, Note_on_c, 1, 51, 96
1, 57934, Note_on_c, 1, 39, 96
1, 57935, Note_off_c, 1, 51, 96
1, 57935, Note_off_c, 1, 39, 96
1, 58053, Note_on_c, 1, 39, 96
1, 58054, Note_off_c, 1, 39, 96
1, 58059, Note_on_c, 1, 51, 96
1, 58060, Note_off_c, 1, 51, 96
1, 58181, Note_on_c, 1, 82, 96
1, 58182, Note_off_c, 1, 82, 96
1, 58240, Note_on_c, 1, 75, 96
1, 58241, Note_off_c, 1, 75, 96
1, 58245, Note_on_c, 1, 70, 96
1, 58246, Note_off_c, 1, 70, 96
1, 58308, Note_on_c, 1, 46, 96
1, 58309, Note_off_c, 1, 46, 96
1, 58429, Note_on_c, 1, 58, 96
1, 58430, Note_off_c, 1, 58, 96
1, 58432, Note_on_c, 1, 46, 96
1, 58433, Note_off_c, 1, 46, 96
1, 58551, Note_on_c, 1, 51, 96
1, 58554, Note_off_c, 1, 51, 96
1, 58554, Note_on_c, 1, 72, 96
1, 58554, Note_on_c, 1, 39, 96
1, 58555, Note_off_c, 1, 72, 96
1, 58555, Note_off_c, 1, 39, 96
1, 58614, Note_on_c, 1, 80, 96
1, 58615, Note_off_c, 1, 80, 96
1, 58617, Note_on_c, 1, 75, 96
1, 58618, Note_off_c, 1, 75, 96
1, 58673, Note_on_c, 1, 60, 96
1, 58674, Note_off_c, 1, 60, 96
1, 58676, Note_on_c, 1, 48, 96
1, 58677, Note_off_c, 1, 48, 96
1, 58679, Note_on_c, 1, 72, 96
1, 58680, Note_off_c, 1, 72, 96
1, 58683, Note_on_c, 1, 80, 96
1, 58683, Note_on_c, 1, 68, 96
1, 58684, Note_off_c, 1, 80, 96
1, 58684, Note_off_c, 1, 68, 96
1, 58799, Note_on_c, 1, 68, 96
1, 58800, Note_off_c, 1, 68, 96
1, 58807, Note_on_c, 1, 80, 96
1, 58807, Note_on_c, 1, 51, 96
1, 58808, Note_off_c, 1, 80, 96
1, 58808, Note_off_c, 1, 51, 96
1, 58924, Note_on_c, 1, 60, 96
1, 58925, Note_off_c, 1, 60, 96
1, 58928, Note_on_c, 1, 84, 96
1, 58928, Note_on_c, 1, 72, 96
1, 58930, Note_off_c, 1, 84, 96
1, 58930, Note_off_c, 1, 72, 96
1, 58930, Note_on_c, 1, 56, 96
1, 58933, Note_off_c, 1, 56, 96
1, 58933, Note_on_c, 1, 80, 96
1, 58933, Note_on_c, 1, 65, 96
1, 58934, Note_off_c, 1, 80, 96
1, 58934, Note_off_c, 1, 65, 96
1, 58992, Note_on_c, 1, 75, 96
1, 58993, Note_off_c, 1, 75, 96
1, 59049, Note_on_c, 1, 73, 96
1, 59052, Note_off_c, 1, 73, 96
1, 59052, Note_on_c, 1, 70, 96
1, 59052, Note_on_c, 1, 55, 96
1, 59053, Note_off_c, 1, 70, 96
1, 59053, Note_off_c, 1, 55, 96
1, 59176, Note_on_c, 1, 46, 96
1, 59177, Note_off_c, 1, 46, 96
1, 59294, Note_on_c, 1, 51, 96
1, 59296, Note_off_c, 1, 51, 96
1, 59296, Note_on_c, 1, 61, 96
1, 59297, Note_off_c, 1, 61, 96
1, 59301, Note_on_c, 1, 82, 96
1, 59301, Note_on_c, 1, 55, 96
1, 59303, Note_off_c, 1, 82, 96
1, 59303, Note_off_c, 1, 55, 96
1, 59303, Note_on_c, 1, 58, 96
1, 59304, Note_off_c, 1, 58, 96
1, 59422, Note_on_c, 1, 44, 96
1, 59423, Note_off_c, 1, 44, 96
1, 59426, Note_on_c, 1, 79, 96
1, 59426, Note_on_c, 1, 56, 96
1, 59427, Note_off_c, 1, 79, 96
1, 59427, Note_off_c, 1, 56, 96
1, 59484, Note_on_c, 1, 72, 96
1, 59485, Note_off_c, 1, 72, 96
1, 59544, Note_on_c, 1, 60, 96
1, 59545, Note_off_c, 1, 60, 96
1, 59548, Note_on_c, 1, 77, 96
1, 59548, Note_on_c, 1, 65, 96
1, 59549, Note_off_c, 1, 77, 96
1, 59549, Note_off_c, 1, 65, 96
1, 59610, Note_on_c, 1, 67, 96
1, 59611, Note_off_c, 1, 67, 96
1, 59668, Note_on_c, 1, 56, 96
1, 59670, Note_off_c, 1, 56, 96
1, 59670, Note_on_c, 1, 51, 96
1, 59672, Note_off_c, 1, 51, 96
1, 59672, Note_on_c, 1, 68, 96
1, 59674, Note_off_c, 1, 68, 96
1, 59674, Note_on_c, 1, 60, 96
1, 59675, Note_off_c, 1, 60, 96
1, 59732, Note_on_c, 1, 68, 96
1, 59734, Note_off_c, 1, 68, 96
1, 59734, Note_on_c, 1, 72, 96
1, 59735, Note_off_c, 1, 72, 96
1, 59795, Note_on_c, 1, 51, 96
1, 59797, Note_off_c, 1, 51, 96
1, 59797, Note_on_c, 1, 56, 96
1, 59799, Note_off_c, 1, 56, 96
1, 59799, Note_on_c, 1, 60, 96
1, 59800, Note_off_c, 1, 60, 96
1, 59858, Note_on_c, 1, 70, 96
1, 59859, Note_off_c, 1, 70, 96
1, 59920, Note_on_c, 1, 55, 96
1, 59922, Note_off_c, 1, 55, 96
1, 59922, Note_on_c, 1, 58, 96
1, 59924, Note_off_c, 1, 58, 96
1, 59924, Note_on_c, 1, 70, 96
1, 59926, Note_off_c, 1, 70, 96
1, 59926, Note_on_c, 1, 61, 96
1, 59927, Note_off_c, 1, 61, 96
1, 59984, Note_on_c, 1, 73, 96
1, 59985, Note_off_c, 1, 73, 96
1, 60044, Note_on_c, 1, 61, 96
1, 60044, Note_on_c, 1, 51, 96
1, 60047, Note_off_c, 1, 61, 96
1, 60047, Note_off_c, 1, 51, 96
1, 60047, Note_on_c, 1, 73, 96
1, 60047, Note_on_c, 1, 55, 96
1, 60048, Note_off_c, 1, 73, 96
1, 60048, Note_off_c, 1, 55, 96
1, 60108, Note_on_c, 1, 67, 96
1, 60109, Note_off_c, 1, 67, 96
1, 60112, Note_on_c, 1, 73, 96
1, 60113, Note_off_c, 1, 73, 96
1, 60169, Note_on_c, 1, 39, 96
1, 60170, Note_off_c, 1, 39, 96
1, 60174, Note_on_c, 1, 51, 96
1, 60175, Note_off_c, 1, 51, 96
1, 60237, Note_on_c, 1, 73, 96
1, 60238, Note_off_c, 1, 73, 96
1, 60297, Note_on_c, 1, 58, 96
1, 60298, Note_off_c, 1, 58, 96
1, 60300, Note_on_c, 1, 67, 96
1, 60301, Note_off_c, 1, 67, 96
1, 60303, Note_on_c, 1, 61, 96
1, 60304, Note_off_c, 1, 61, 96
1, 60361, Note_on_c, 1, 72, 96
1, 60362, Note_off_c, 1, 72, 96
1, 60423, Note_on_c, 1, 77, 96
1, 60423, Note_on_c, 1, 53, 96
1, 60425, Note_off_c, 1, 77, 96
1, 60425, Note_off_c, 1, 53, 96
1, 60425, Note_on_c, 1, 65, 96
1, 60427, Note_off_c, 1, 65, 96
1, 60427, Note_on_c, 1, 41, 96
1, 60428, Note_off_c, 1, 41, 96
1, 60546, Note_on_c, 1, 55, 96
1, 60548, Note_off_c, 1, 55, 96
1, 60548, Note_on_c, 1, 70, 96
1, 60549, Note_off_c, 1, 70, 96
1, 60553, Note_on_c, 1, 61, 96
1, 60553, Note_on_c, 1, 58, 96
1, 60553, Note_on_c, 1, 51, 96
1, 60554, Note_off_c, 1, 61, 96
1, 60554, Note_off_c, 1, 58, 96
1, 60554, Note_off_c, 1, 51, 96
1, 60672, Note_on_c, 1, 60, 96
1, 60673, Note_off_c, 1, 60, 96
1, 60675, Note_on_c, 1, 65, 96
1, 60676, Note_off_c, 1, 65, 96
1, 60678, Note_on_c, 1, 57, 96
1, 60679, Note_off_c, 1, 57, 96
1, 60735, Note_on_c, 1, 63, 96
1, 60737, Note_off_c, 1, 63, 96
1, 60737, Note_on_c, 1, 75, 96
1, 60738, Note_off_c, 1, 75, 96
1, 60797, Note_on_c, 1, 75, 96
1, 60798, Note_off_c, 1, 75, 96
1, 60802, Note_on_c, 1, 57, 96
1, 60803, Note_off_c, 1, 57, 96
1, 60860, Note_on_c, 1, 75, 96
1, 60861, Note_off_c, 1, 75, 96
1, 60917, Note_on_c, 1, 62, 96
1, 60918, Note_off_c, 1, 62, 96
1, 60924, Note_on_c, 1, 74, 96
1, 60925, Note_off_c, 1, 74, 96
1, 60984, Note_on_c, 1, 74, 96
1, 60985, Note_off_c, 1, 74, 96
1, 60987, Note_on_c, 1, 62, 96
1, 60988, Note_off_c, 1, 62, 96
1, 61047, Note_on_c, 1, 76, 96
1, 61047, Note_on_c, 1, 55, 96
1, 61048, Note_off_c, 1, 76, 96
1, 61048, Note_off_c, 1, 55, 96
1, 61108, Note_on_c, 1, 62, 96
1, 61108, Note_on_c, 1, 74, 96
1, 61109, Note_off_c, 1, 62, 96
1, 61109, Note_off_c, 1, 74, 96
1, 61171, Note_on_c, 1, 68, 96
1, 61171, Note_on_c, 1, 56, 96
1, 61172, Note_off_c, 1, 68, 96
1, 61172, Note_off_c, 1, 56, 96
1, 61290, Note_on_c, 1, 60, 96
1, 61291, Note_off_c, 1, 60, 96
1, 61347, Note_on_c, 1, 68, 96
1, 61348, Note_off_c, 1, 68, 96
1, 61413, Note_on_c, 1, 63, 96
1, 61415, Note_off_c, 1, 63, 96
1, 61415, Note_on_c, 1, 63, 96
1, 61417, Note_off_c, 1, 63, 96
1, 61417, Note_on_c, 1, 51, 96
1, 61418, Note_off_c, 1, 51, 96
1, 61536, Note_on_c, 1, 51, 96
1, 61537, Note_off_c, 1, 51, 96
1, 61595, Note_on_c, 1, 55, 96
1, 61596, Note_off_c, 1, 55, 96
1, 61599, Note_on_c, 1, 72, 96
1, 61599, Note_on_c, 1, 63, 96
1, 61600, Note_off_c, 1, 72, 96
1, 61600, Note_off_c, 1, 63, 96
1, 61716, Note_on_c, 1, 75, 96
1, 61716, Note_on_c, 1, 60, 96
1, 61717, Note_off_c, 1, 75, 96
1, 61717, Note_off_c, 1, 60, 96
1, 61720, Note_on_c, 1, 51, 96
1, 61722, Note_off_c, 1, 51, 96
1, 61722, Note_on_c, 1, 63, 96
1, 61723, Note_off_c, 1, 63, 96
1, 61780, Note_on_c, 1, 76, 96
1, 61781, Note_off_c, 1, 76, 96
1, 61784, Note_on_c, 1, 70, 96
1, 61786, Note_off_c, 1, 70, 96
1, 61786, Note_on_c, 1, 64, 96
1, 61787, Note_off_c, 1, 64, 96
1, 61845, Note_on_c, 1, 58, 96
1, 61846, Note_off_c, 1, 58, 96
1, 61848, Note_on_c, 1, 62, 96
1, 61849, Note_off_c, 1, 62, 96
1, 61851, Note_on_c, 1, 69, 96
1, 61853, Note_off_c, 1, 69, 96
1, 61853, Note_on_c, 1, 65, 96
1, 61854, Note_off_c, 1, 65, 96
1, 61911, Note_on_c, 1, 72, 96
1, 61912, Note_off_c, 1, 72, 96
1, 61976, Note_on_c, 1, 74, 96
1, 61976, Note_on_c, 1, 56, 96
1, 61977, Note_off_c, 1, 74, 96
1, 61977, Note_off_c, 1, 56, 96
1, 62035, Note_on_c, 1, 75, 96
1, 62036, Note_off_c, 1, 75, 96
1, 62094, Note_on_c, 1, 87, 96
1, 62095, Note_off_c, 1, 87, 96
1, 62098, Note_on_c, 1, 75, 96
1, 62099, Note_off_c, 1, 75, 96
1, 62155, Note_on_c, 1, 72, 96
1, 62156, Note_off_c, 1, 72, 96
1, 62161, Note_on_c, 1, 84, 96
1, 62162, Note_off_c, 1, 84, 96
1, 62341, Note_on_c, 1, 72, 96
1, 62342, Note_off_c, 1, 72, 96
1, 62344, Note_on_c, 1, 77, 96
1, 62345, Note_off_c, 1, 77, 96
1, 62347, Note_on_c, 1, 68, 96
1, 62348, Note_off_c, 1, 68, 96
1, 62465, Note_on_c, 1, 80, 96
1, 62467, Note_off_c, 1, 80, 96
1, 62467, Note_on_c, 1, 68, 96
1, 62468, Note_off_c, 1, 68, 96
1, 62587, Note_on_c, 1, 77, 96
1, 62588, Note_off_c, 1, 77, 96
1, 62591, Note_on_c, 1, 80, 96
1, 62593, Note_off_c, 1, 80, 96
1, 62593, Note_on_c, 1, 84, 96
1, 62594, Note_off_c, 1, 84, 96
1, 62705, Note_on_c, 1, 91, 96
1, 62707, Note_off_c, 1, 91, 96
1, 62707, Note_on_c, 1, 63, 96
1, 62709, Note_off_c, 1, 63, 96
1, 62709, Note_on_c, 1, 79, 96
1, 62711, Note_off_c, 1, 79, 96
1, 62711, Note_on_c, 1, 55, 96
1, 62713, Note_off_c, 1, 55, 96
1, 62713, Note_on_c, 1, 43, 96
1, 62714, Note_off_c, 1, 43, 96
1, 62773, Note_on_c, 1, 82, 96
1, 62775, Note_off_c, 1, 82, 96
1, 62775, Note_on_c, 1, 75, 96
1, 62776, Note_off_c, 1, 75, 96
1, 62832, Note_on_c, 1, 55, 96
1, 62833, Note_off_c, 1, 55, 96
1, 62835, Note_on_c, 1, 58, 96
1, 62837, Note_off_c, 1, 58, 96
1, 62837, Note_on_c, 1, 67, 96
1, 62839, Note_off_c, 1, 67, 96
1, 62839, Note_on_c, 1, 63, 96
1, 62840, Note_off_c, 1, 63, 96
1, 62897, Note_on_c, 1, 77, 96
1, 62898, Note_off_c, 1, 77, 96
1, 62960, Note_on_c, 1, 75, 96
1, 62960, Note_on_c, 1, 79, 96
1, 62960, Note_on_c, 1, 39, 96
1, 62963, Note_off_c, 1, 75, 96
1, 62963, Note_off_c, 1, 79, 96
1, 62963, Note_off_c, 1, 39, 96
1, 62963, Note_on_c, 1, 87, 96
1, 62963, Note_on_c, 1, 51, 96
1, 62964, Note_off_c, 1, 87, 96
1, 62964, Note_off_c, 1, 51, 96
1, 63026, Note_on_c, 1, 83, 96
1, 63027, Note_off_c, 1, 83, 96
1, 63084, Note_on_c, 1, 55, 96
1, 63084, Note_on_c, 1, 43, 96
1, 63085, Note_off_c, 1, 55, 96
1, 63085, Note_off_c, 1, 43, 96
1, 63087, Note_on_c, 1, 90, 96
1, 63090, Note_off_c, 1, 90, 96
1, 63090, Note_on_c, 1, 81, 96
1, 63090, Note_on_c, 1, 89, 96
1, 63091, Note_off_c, 1, 81, 96
1, 63091, Note_off_c, 1, 89, 96
1, 63206, Note_on_c, 1, 56, 96
1, 63209, Note_off_c, 1, 56, 96
1, 63209, Note_on_c, 1, 77, 96
1, 63209, Note_on_c, 1, 89, 96
1, 63210, Note_off_c, 1, 77, 96
1, 63210, Note_off_c, 1, 89, 96
1, 63214, Note_on_c, 1, 65, 96
1, 63215, Note_off_c, 1, 65, 96
1, 63327, Note_on_c, 1, 39, 96
1, 63329, Note_off_c, 1, 39, 96
1, 63329, Note_on_c, 1, 51, 96
1, 63330, Note_off_c, 1, 51, 96
1, 63334, Note_on_c, 1, 95, 96
1, 63335, Note_off_c, 1, 95, 96
1, 63338, Note_on_c, 1, 83, 96
1, 63339, Note_off_c, 1, 83, 96
1, 63395, Note_on_c, 1, 84, 96
1, 63396, Note_off_c, 1, 84, 96
1, 63399, Note_on_c, 1, 72, 96
1, 63400, Note_off_c, 1, 72, 96
1, 63456, Note_on_c, 1, 60, 96
1, 63458, Note_off_c, 1, 60, 96
1, 63458, Note_on_c, 1, 63, 96
1, 63460, Note_off_c, 1, 63, 96
1, 63460, Note_on_c, 1, 84, 96
1, 63462, Note_off_c, 1, 84, 96
1, 63462, Note_on_c, 1, 91, 96
1, 63463, Note_off_c, 1, 91, 96
1, 63465, Note_on_c, 1, 92, 96
1, 63466, Note_off_c, 1, 92, 96
1, 63525, Note_on_c, 1, 89, 96
1, 63526, Note_off_c, 1, 89, 96
1, 63582, Note_on_c, 1, 48, 96
1, 63583, Note_off_c, 1, 48, 96
1, 63585, Note_on_c, 1, 89, 96
1, 63587, Note_off_c, 1, 89, 96
1, 63587, Note_on_c, 1, 36, 96
1, 63588, Note_off_c, 1, 36, 96
1, 63707, Note_on_c, 1, 91, 96
1, 63710, Note_off_c, 1, 91, 96
1, 63710, Note_on_c, 1, 79, 96
1, 63710, Note_on_c, 1, 55, 96
1, 63711, Note_off_c, 1, 79, 96
1, 63711, Note_off_c, 1, 55, 96
1, 63829, Note_on_c, 1, 34, 96
1, 63831, Note_off_c, 1, 34, 96
1, 63831, Note_on_c, 1, 46, 96
1, 63832, Note_off_c, 1, 46, 96
1, 63955, Note_on_c, 1, 86, 96
1, 63955, Note_on_c, 1, 82, 96
1, 63955, Note_on_c, 1, 77, 96
1, 63958, Note_off_c, 1, 86, 96
1, 63958, Note_off_c, 1, 82, 96
1, 63958, Note_off_c, 1, 77, 96
1, 63958, Note_on_c, 1, 58, 96
1, 63958, Note_on_c, 1, 46, 96
1, 63960, Note_off_c, 1, 58, 96
1, 63960, Note_off_c, 1, 46, 96
1, 63960, Note_on_c, 1, 74, 96
1, 63961, Note_off_c, 1, 74, 96
1, 64077, Note_on_c, 1, 80, 96
1, 64078, Note_off_c, 1, 80, 96
1, 64080, Note_on_c, 1, 46, 96
1, 64082, Note_off_c, 1, 46, 96
1, 64082, Note_on_c, 1, 68, 96
1, 64083, Note_off_c, 1, 68, 96
1, 64199, Note_on_c, 1, 65, 96
1, 64200, Note_off_c, 1, 65, 96
1, 64203, Note_on_c, 1, 46, 96
1, 64204, Note_off_c, 1, 46, 96
1, 64206, Note_on_c, 1, 77, 96
1, 64207, Note_off_c, 1, 77, 96
1, 64209, Note_on_c, 1, 70, 96
1, 64210, Note_off_c, 1, 70, 96
1, 64322, Note_on_c, 1, 56, 96
1, 64324, Note_off_c, 1, 56, 96
1, 64324, Note_on_c, 1, 58, 96
1, 64326, Note_off_c, 1, 58, 96
1, 64326, Note_on_c, 1, 62, 96
1, 64327, Note_off_c, 1, 62, 96
1, 64387, Note_on_c, 1, 86, 96
1, 64388, Note_off_c, 1, 86, 96
1, 64450, Note_on_c, 1, 84, 96
1, 64450, Note_on_c, 1, 72, 96
1, 64451, Note_off_c, 1, 84, 96
1, 64451, Note_off_c, 1, 72, 96
1, 64572, Note_on_c, 1, 68, 96
1, 64572, Note_on_c, 1, 50, 96
1, 64573, Note_off_c, 1, 68, 96
1, 64573, Note_off_c, 1, 50, 96
1, 64577, Note_on_c, 1, 74, 96
1, 64578, Note_off_c, 1, 74, 96
1, 64691, Note_on_c, 1, 58, 96
1, 64693, Note_off_c, 1, 58, 96
1, 64693, Note_on_c, 1, 74, 96
1, 64695, Note_off_c, 1, 74, 96
1, 64695, Note_on_c, 1, 68, 96
1, 64696, Note_off_c, 1, 68, 96
1, 64698, Note_on_c, 1, 62, 96
1, 64700, Note_off_c, 1, 62, 96
1, 64700, Note_on_c, 1, 53, 96
1, 64702, Note_off_c, 1, 53, 96
1, 64702, Note_on_c, 1, 56, 96
1, 64703, Note_off_c, 1, 56, 96
1, 64821, Note_on_c, 1, 72, 96
1, 64822, Note_off_c, 1, 72, 96
1, 64885, Note_on_c, 1, 70, 96
1, 64886, Note_off_c, 1, 70, 96
1, 64944, Note_on_c, 1, 68, 96
1, 64946, Note_off_c, 1, 68, 96
1, 64946, Note_on_c, 1, 41, 96
1, 64949, Note_off_c, 1, 41, 96
1, 64949, Note_on_c, 1, 77, 96
1, 64949, Note_on_c, 1, 80, 96
1, 64950, Note_off_c, 1, 77, 96
1, 64950, Note_off_c, 1, 80, 96
1, 65003, Note_on_c, 1, 80, 96
1, 65005, Note_off_c, 1, 80, 96
1, 65005, Note_on_c, 1, 74, 96
1, 65006, Note_off_c, 1, 74, 96
1, 65071, Note_on_c, 1, 58, 96
1, 65073, Note_off_c, 1, 58, 96
1, 65073, Note_on_c, 1, 62, 96
1, 65075, Note_off_c, 1, 62, 96
1, 65075, Note_on_c, 1, 56, 96
1, 65076, Note_off_c, 1, 56, 96
1, 65131, Note_on_c, 1, 80, 96
1, 65133, Note_off_c, 1, 80, 96
1, 65133, Note_on_c, 1, 74, 96
1, 65134, Note_off_c, 1, 74, 96
1, 65192, Note_on_c, 1, 58, 96
1, 65194, Note_off_c, 1, 58, 96
1, 65194, Note_on_c, 1, 46, 96
1, 65195, Note_off_c, 1, 46, 96
1, 65255, Note_on_c, 1, 77, 96
1, 65256, Note_off_c, 1, 77, 96
1, 65312, Note_on_c, 1, 56, 96
1, 65313, Note_off_c, 1, 56, 96
1, 65318, Note_on_c, 1, 58, 96
1, 65321, Note_off_c, 1, 58, 96
1, 65321, Note_on_c, 1, 74, 96
1, 65321, Note_on_c, 1, 62, 96
1, 65322, Note_off_c, 1, 74, 96
1, 65322, Note_off_c, 1, 62, 96
1, 65379, Note_on_c, 1, 74, 96
1, 65380, Note_off_c, 1, 74, 96
1, 65441, Note_on_c, 1, 51, 96
1, 65445, Note_off_c, 1, 51, 96
1, 65445, Note_on_c, 1, 67, 96
1, 65445, Note_on_c, 1, 75, 96
1, 65445, Note_on_c, 1, 39, 96
1, 65446, Note_off_c, 1, 67, 96
1, 65446, Note_off_c, 1, 75, 96
1, 65446, Note_off_c, 1, 39, 96
1, 65563, Note_on_c, 1, 74, 96
1, 65563, Note_on_c, 1, 67, 96
1, 65566, Note_off_c, 1, 74, 96
1, 65566, Note_off_c, 1, 67, 96
1, 65566, Note_on_c, 1, 79, 96
1, 65566, Note_on_c, 1, 46, 96
1, 65567, Note_off_c, 1, 79, 96
1, 65567, Note_off_c, 1, 46, 96
1, 65688, Note_on_c, 1, 51, 96
1, 65689, Note_off_c, 1, 51, 96
1, 65746, Note_on_c, 1, 41, 96
1, 65747, Note_off_c, 1, 41, 96
1, 65750, Note_on_c, 1, 53, 96
1, 65751, Note_off_c, 1, 53, 96
1, 65807, Note_on_c, 1, 94, 96
1, 65807, Note_on_c, 1, 36, 96
1, 65809, Note_off_c, 1, 94, 96
1, 65809, Note_off_c, 1, 36, 96
1, 65809, Note_on_c, 1, 63, 96
1, 65812, Note_off_c, 1, 63, 96
1, 65812, Note_on_c, 1, 75, 96
1, 65812, Note_on_c, 1, 67, 96
1, 65814, Note_off_c, 1, 75, 96
1, 65814, Note_off_c, 1, 67, 96
1, 65814, Note_on_c, 1, 87, 96
1, 65815, Note_off_c, 1, 87, 96
1, 65819, Note_on_c, 1, 75, 96
1, 65819, Note_on_c, 1, 48, 96
1, 65820, Note_off_c, 1, 75, 96
1, 65820, Note_off_c, 1, 48, 96
1, 66056, Note_on_c, 1, 87, 96
1, 66056, Note_on_c, 1, 55, 96
1, 66059, Note_off_c, 1, 87, 96
1, 66059, Note_off_c, 1, 55, 96
1, 66059, Note_on_c, 1, 79, 96
1, 66059, Note_on_c, 1, 58, 96
1, 66060, Note_off_c, 1, 79, 96
1, 66060, Note_off_c, 1, 58, 96
1, 66064, Note_on_c, 1, 63, 96
1, 66065, Note_off_c, 1, 63, 96
1, 66179, Note_on_c, 1, 38, 96
1, 66180, Note_off_c, 1, 38, 96
1, 66183, Note_on_c, 1, 50, 96
1, 66184, Note_off_c, 1, 50, 96
1, 66299, Note_on_c, 1, 51, 96
1, 66301, Note_off_c, 1, 51, 96
1, 66301, Note_on_c, 1, 55, 96
1, 66302, Note_off_c, 1, 55, 96
1, 66308, Note_on_c, 1, 61, 96
1, 66309, Note_off_c, 1, 61, 96
1, 66426, Note_on_c, 1, 85, 96
1, 66426, Note_on_c, 1, 74, 96
1, 66428, Note_off_c, 1, 85, 96
1, 66428, Note_off_c, 1, 74, 96
1, 66428, Note_on_c, 1, 46, 96
1, 66429, Note_off_c, 1, 46, 96
1, 66546, Note_on_c, 1, 63, 96
1, 66548, Note_off_c, 1, 63, 96
1, 66548, Note_on_c, 1, 55, 96
1, 66549, Note_off_c, 1, 55, 96
1, 66551, Note_on_c, 1, 58, 96
1, 66552, Note_off_c, 1, 58, 96
1, 66669, Note_on_c, 1, 68, 96
1, 66672, Note_off_c, 1, 68, 96
1, 66672, Note_on_c, 1, 80, 96
1, 66672, Note_on_c, 1, 53, 96
1, 66674, Note_off_c, 1, 80, 96
1, 66674, Note_off_c, 1, 53, 96
1, 66674, Note_on_c, 1, 75, 96
1, 66676, Note_off_c, 1, 75, 96
1, 66676, Note_on_c, 1, 54, 96
1, 66679, Note_off_c, 1, 54, 96
1, 66679, Note_on_c, 1, 72, 96
1, 66679, Note_on_c, 1, 57, 96
1, 66680, Note_off_c, 1, 72, 96
1, 66680, Note_off_c, 1, 57, 96
1, 66793, Note_on_c, 1, 86, 96
1, 66794, Note_off_c, 1, 86, 96
1, 66797, Note_on_c, 1, 77, 96
1, 66799, Note_off_c, 1, 77, 96
1, 66799, Note_on_c, 1, 62, 96
1, 66801, Note_off_c, 1, 62, 96
1, 66801, Note_on_c, 1, 50, 96
1, 66803, Note_off_c, 1, 50, 96
1, 66803, Note_on_c, 1, 74, 96
1, 66804, Note_off_c, 1, 74, 96
1, 66921, Note_on_c, 1, 74, 96
1, 66921, Note_on_c, 1, 77, 96
1, 66922, Note_off_c, 1, 74, 96
1, 66922, Note_off_c, 1, 77, 96
1, 66925, Note_on_c, 1, 86, 96
1, 66925, Note_on_c, 1, 58, 96
1, 66927, Note_off_c, 1, 86, 96
1, 66927, Note_off_c, 1, 58, 96
1, 66927, Note_on_c, 1, 53, 96
1, 66928, Note_off_c, 1, 53, 96
1, 67164, Note_on_c, 1, 79, 96
1, 67166, Note_off_c, 1, 79, 96
1, 67166, Note_on_c, 1, 74, 96
1, 67167, Note_off_c, 1, 74, 96
1, 67170, Note_on_c, 1, 53, 96
1, 67170, Note_on_c, 1, 55, 96
1, 67171, Note_off_c, 1, 53, 96
1, 67171, Note_off_c, 1, 55, 96
1, 67291, Note_on_c, 1, 53, 96
1, 67293, Note_off_c, 1, 53, 96
1, 67293, Note_on_c, 1, 77, 96
1, 67294, Note_off_c, 1, 77, 96
1, 67415, Note_on_c, 1, 60, 96
1, 67416, Note_off_c, 1, 60, 96
1, 67475, Note_on_c, 1, 69, 96
1, 67476, Note_off_c, 1, 69, 96
1, 67537, Note_on_c, 1, 60, 96
1, 67539, Note_off_c, 1, 60, 96
1, 67539, Note_on_c, 1, 65, 96
1, 67541, Note_off_c, 1, 65, 96
1, 67541, Note_on_c, 1, 77, 96
1, 67542, Note_off_c, 1, 77, 96
1, 67594, Note_on_c, 1, 60, 96
1, 67597, Note_off_c, 1, 60, 96
1, 67597, Note_on_c, 1, 77, 96
1, 67597, Note_on_c, 1, 57, 96
1, 67598, Note_off_c, 1, 77, 96
1, 67598, Note_off_c, 1, 57, 96
1, 67602, Note_on_c, 1, 65, 96
1, 67603, Note_off_c, 1, 65, 96
1, 67605, Note_on_c, 1, 63, 96
1, 67606, Note_off_c, 1, 63, 96
1, 67723, Note_on_c, 1, 36, 96
1, 67724, Note_off_c, 1, 36, 96
1, 67728, Note_on_c, 1, 48, 96
1, 67729, Note_off_c, 1, 48, 96
1, 67964, Note_on_c, 1, 67, 96
1, 67964, Note_on_c, 1, 55, 96
1, 67967, Note_off_c, 1, 67, 96
1, 67967, Note_off_c, 1, 55, 96
1, 67967, Note_on_c, 1, 79, 96
1, 67967, Note_on_c, 1, 58, 96
1, 67969, Note_off_c, 1, 79, 96
1, 67969, Note_off_c, 1, 58, 96
1, 67969, Note_on_c, 1, 71, 96
1, 67970, Note_off_c, 1, 71, 96
1, 67974, Note_on_c, 1, 50, 96
1, 67975, Note_off_c, 1, 50, 96
1, 68091, Note_on_c, 1, 83, 96
1, 68093, Note_off_c, 1, 83, 96
1, 68093, Note_on_c, 1, 71, 96
1, 68094, Note_off_c, 1, 71, 96
1, 68208, Note_on_c, 1, 55, 96
1, 68209, Note_off_c, 1, 55, 96
1, 68212, Note_on_c, 1, 43, 96
1, 68213, Note_off_c, 1, 43, 96
1, 68228, Note_on_c, 1, 76, 96
1, 68229, Note_off_c, 1, 76, 96
1, 68270, Note_on_c, 1, 76, 96
1, 68270, Note_on_c, 1, 55, 96
1, 68271, Note_off_c, 1, 76, 96
1, 68271, Note_off_c, 1, 55, 96
1, 68273, Note_on_c, 1, 60, 96
1, 68274, Note_off_c, 1, 60, 96
1, 68333, Note_on_c, 1, 81, 96
1, 68334, Note_off_c, 1, 81, 96
1, 68337, Note_on_c, 1, 72, 96
1, 68338, Note_off_c, 1, 72, 96
1, 68394, Note_on_c, 1, 64, 96
1, 68394, Note_on_c, 1, 60, 96
1, 68396, Note_off_c, 1, 64, 96
1, 68396, Note_off_c, 1, 60, 96
1, 68396, Note_on_c, 1, 55, 96
1, 68397, Note_off_c, 1, 55, 96
1, 68492, Note_on_c, 1, 83, 96
1, 68493, Note_off_c, 1, 83, 96
1, 68515, Note_on_c, 1, 64, 96
1, 68516, Note_off_c, 1, 64, 96
1, 68518, Note_on_c, 1, 55, 96
1, 68519, Note_off_c, 1, 55, 96
1, 68521, Note_on_c, 1, 76, 96
1, 68523, Note_off_c, 1, 76, 96
1, 68523, Note_on_c, 1, 60, 96
1, 68524, Note_off_c, 1, 60, 96
1, 68582, Note_on_c, 1, 79, 96
1, 68583, Note_off_c, 1, 79, 96
1, 68642, Note_on_c, 1, 60, 96
1, 68643, Note_off_c, 1, 60, 96
1, 68646, Note_on_c, 1, 76, 96
1, 68646, Note_on_c, 1, 52, 96
1, 68648, Note_off_c, 1, 76, 96
1, 68648, Note_off_c, 1, 52, 96
1, 68648, Note_on_c, 1, 55, 96
1, 68649, Note_off_c, 1, 55, 96
1, 68688, Note_on_c, 1, 71, 96
1, 68689, Note_off_c, 1, 71, 96
1, 68724, Note_on_c, 1, 65, 96
1, 68726, Note_off_c, 1, 65, 96
1, 68726, Note_on_c, 1, 38, 96
1, 68727, Note_off_c, 1, 38, 96
1, 68733, Note_on_c, 1, 72, 96
1, 68734, Note_off_c, 1, 72, 96
1, 68857, Note_on_c, 1, 76, 96
1, 68858, Note_off_c, 1, 76, 96
1, 68911, Note_on_c, 1, 65, 96
1, 68913, Note_off_c, 1, 65, 96
1, 68913, Note_on_c, 1, 74, 96
1, 68914, Note_off_c, 1, 74, 96
1, 68918, Note_on_c, 1, 71, 96
1, 68919, Note_off_c, 1, 71, 96
1, 68978, Note_on_c, 1, 71, 96
1, 68979, Note_off_c, 1, 71, 96
1, 69036, Note_on_c, 1, 64, 96
1, 69037, Note_off_c, 1, 64, 96
1, 69039, Note_on_c, 1, 76, 96
1, 69040, Note_off_c, 1, 76, 96
1, 69042, Note_on_c, 1, 72, 96
1, 69043, Note_off_c, 1, 72, 96
1, 69160, Note_on_c, 1, 75, 96
1, 69161, Note_off_c, 1, 75, 96
1, 69219, Note_on_c, 1, 75, 96
1, 69220, Note_off_c, 1, 75, 96
1, 69279, Note_on_c, 1, 67, 96
1, 69280, Note_off_c, 1, 67, 96
1, 69283, Note_on_c, 1, 75, 96
1, 69285, Note_off_c, 1, 75, 96
1, 69285, Note_on_c, 1, 63, 96
1, 69287, Note_off_c, 1, 63, 96
1, 69287, Note_on_c, 1, 79, 96
1, 69288, Note_off_c, 1, 79, 96
1, 69403, Note_on_c, 1, 64, 96
1, 69404, Note_off_c, 1, 64, 96
1, 69407, Note_on_c, 1, 55, 96
1, 69409, Note_off_c, 1, 55, 96
1, 69409, Note_on_c, 1, 60, 96
1, 69410, Note_off_c, 1, 60, 96
1, 69526, Note_on_c, 1, 84, 96
1, 69526, Note_on_c, 1, 72, 96
1, 69526, Note_on_c, 1, 76, 96
1, 69527, Note_off_c, 1, 84, 96
1, 69527, Note_off_c, 1, 72, 96
1, 69527, Note_off_c, 1, 76, 96
1, 69650, Note_on_c, 1, 72, 96
1, 69650, Note_on_c, 1, 64, 96
1, 69651, Note_off_c, 1, 72, 96
1, 69651, Note_off_c, 1, 64, 96
1, 69654, Note_on_c, 1, 84, 96
1, 69654, Note_on_c, 1, 60, 96
1, 69655, Note_off_c, 1, 84, 96
1, 69655, Note_off_c, 1, 60, 96
1, 69657, Note_on_c, 1, 58, 96
1, 69658, Note_off_c, 1, 58, 96
1, 69772, Note_on_c, 1, 64, 96
1, 69772, Note_on_c, 1, 58, 96
1, 69774, Note_off_c, 1, 64, 96
1, 69774, Note_off_c, 1, 58, 96
1, 69774, Note_on_c, 1, 60, 96
1, 69775, Note_off_c, 1, 60, 96
1, 69896, Note_on_c, 1, 58, 96
1, 69898, Note_off_c, 1, 58, 96
1, 69898, Note_on_c, 1, 60, 96
1, 69900, Note_off_c, 1, 60, 96
1, 69900, Note_on_c, 1, 64, 96
1, 69901, Note_off_c, 1, 64, 96
1, 69956, Note_on_c, 1, 76, 96
1, 69957, Note_off_c, 1, 76, 96
1, 69964, Note_on_c, 1, 88, 96
1, 69965, Note_off_c, 1, 88, 96
1, 70021, Note_on_c, 1, 36, 96
1, 70022, Note_off_c, 1, 36, 96
1, 70024, Note_on_c, 1, 48, 96
1, 70025, Note_off_c, 1, 48, 96
1, 70088, Note_on_c, 1, 74, 96
1, 70089, Note_off_c, 1, 74, 96
1, 70142, Note_on_c, 1, 60, 96
1, 70144, Note_off_c, 1, 60, 96
1, 70144, Note_on_c, 1, 55, 96
1, 70145, Note_off_c, 1, 55, 96
1, 70148, Note_on_c, 1, 84, 96
1, 70148, Note_on_c, 1, 52, 96
1, 70149, Note_off_c, 1, 84, 96
1, 70149, Note_off_c, 1, 52, 96
1, 70269, Note_on_c, 1, 77, 96
1, 70269, Note_on_c, 1, 65, 96
1, 70270, Note_off_c, 1, 77, 96
1, 70270, Note_off_c, 1, 65, 96
1, 70276, Note_on_c, 1, 57, 96
1, 70276, Note_on_c, 1, 60, 96
1, 70277, Note_off_c, 1, 57, 96
1, 70277, Note_off_c, 1, 60, 96
1, 70452, Note_on_c, 1, 76, 96
1, 70453, Note_off_c, 1, 76, 96
1, 70514, Note_on_c, 1, 79, 96
1, 70514, Note_on_c, 1, 65, 96
1, 70515, Note_off_c, 1, 79, 96
1, 70515, Note_off_c, 1, 65, 96
1, 70518, Note_on_c, 1, 60, 96
1, 70519, Note_off_c, 1, 60, 96
1, 70521, Note_on_c, 1, 57, 96
1, 70522, Note_off_c, 1, 57, 96
1, 70640, Note_on_c, 1, 72, 96
1, 70641, Note_off_c, 1, 72, 96
1, 70761, Note_on_c, 1, 71, 96
1, 70764, Note_off_c, 1, 71, 96
1, 70764, Note_on_c, 1, 55, 96
1, 70764, Note_on_c, 1, 43, 96
1, 70766, Note_off_c, 1, 55, 96
1, 70766, Note_off_c, 1, 43, 96
1, 70766, Note_on_c, 1, 79, 96
1, 70767, Note_off_c, 1, 79, 96
1, 71004, Note_on_c, 1, 69, 96
1, 71004, Note_on_c, 1, 65, 96
1, 71007, Note_off_c, 1, 69, 96
1, 71007, Note_off_c, 1, 65, 96
1, 71007, Note_on_c, 1, 55, 96
1, 71007, Note_on_c, 1, 57, 96
1, 71008, Note_off_c, 1, 55, 96
1, 71008, Note_off_c, 1, 57, 96
1, 71010, Note_on_c, 1, 60, 96
1, 71011, Note_off_c, 1, 60, 96
1, 71248, Note_on_c, 1, 73, 96
1, 71248, Note_on_c, 1, 43, 96
1, 71249, Note_off_c, 1, 73, 96
1, 71249, Note_off_c, 1, 43, 96
1, 71251, Note_on_c, 1, 55, 96
1, 71252, Note_off_c, 1, 55, 96
1, 71371, Note_on_c, 1, 65, 96
1, 71371, Note_on_c, 1, 62, 96
1, 71373, Note_off_c, 1, 65, 96
1, 71373, Note_off_c, 1, 62, 96
1, 71373, Note_on_c, 1, 50, 96
1, 71374, Note_off_c, 1, 50, 96
1, 71376, Note_on_c, 1, 74, 96
1, 71377, Note_off_c, 1, 74, 96
1, 71493, Note_on_c, 1, 61, 96
1, 71494, Note_off_c, 1, 61, 96
1, 71496, Note_on_c, 1, 49, 96
1, 71498, Note_off_c, 1, 49, 96
1, 71498, Note_on_c, 1, 65, 96
1, 71501, Note_off_c, 1, 65, 96
1, 71501, Note_on_c, 1, 70, 96
1, 71501, Note_on_c, 1, 65, 96
1, 71502, Note_off_c, 1, 70, 96
1, 71502, Note_off_c, 1, 65, 96
1, 71619, Note_on_c, 1, 50, 96
1, 71621, Note_off_c, 1, 50, 96
1, 71621, Note_on_c, 1, 62, 96
1, 71622, Note_off_c, 1, 62, 96
1, 71741, Note_on_c, 1, 48, 96
1, 71743, Note_off_c, 1, 48, 96
1, 71743, Note_on_c, 1, 36, 96
1, 71744, Note_off_c, 1, 36, 96
1, 71805, Note_on_c, 1, 51, 96
1, 71806, Note_off_c, 1, 51, 96
1, 71864, Note_on_c, 1, 52, 96
1, 71865, Note_off_c, 1, 52, 96
1, 71869, Note_on_c, 1, 76, 96
1, 71869, Note_on_c, 1, 64, 96
1, 71870, Note_off_c, 1, 76, 96
1, 71870, Note_off_c, 1, 64, 96
1, 71987, Note_on_c, 1, 77, 96
1, 71989, Note_off_c, 1, 77, 96
1, 71989, Note_on_c, 1, 65, 96
1, 71990, Note_off_c, 1, 65, 96
1, 71994, Note_on_c, 1, 69, 96
1, 71995, Note_off_c, 1, 69, 96
1, 72050, Note_on_c, 1, 76, 96
1, 72051, Note_off_c, 1, 76, 96
1, 72110, Note_on_c, 1, 57, 96
1, 72112, Note_off_c, 1, 57, 96
1, 72112, Note_on_c, 1, 77, 96
1, 72114, Note_off_c, 1, 77, 96
1, 72114, Note_on_c, 1, 60, 96
1, 72115, Note_off_c, 1, 60, 96
1, 72117, Note_on_c, 1, 69, 96
1, 72118, Note_off_c, 1, 69, 96
1, 72175, Note_on_c, 1, 74, 96
1, 72176, Note_off_c, 1, 74, 96
1, 72235, Note_on_c, 1, 46, 96
1, 72236, Note_off_c, 1, 46, 96
1, 72238, Note_on_c, 1, 58, 96
1, 72239, Note_off_c, 1, 58, 96
1, 72297, Note_on_c, 1, 68, 96
1, 72298, Note_off_c, 1, 68, 96
1, 72357, Note_on_c, 1, 57, 96
1, 72358, Note_off_c, 1, 57, 96
1, 72363, Note_on_c, 1, 69, 96
1, 72363, Note_on_c, 1, 45, 96
1, 72364, Note_off_c, 1, 69, 96
1, 72364, Note_off_c, 1, 45, 96
1, 72480, Note_on_c, 1, 62, 96
1, 72481, Note_off_c, 1, 62, 96
1, 72484, Note_on_c, 1, 57, 96
1, 72486, Note_off_c, 1, 57, 96
1, 72486, Note_on_c, 1, 53, 96
1, 72488, Note_off_c, 1, 53, 96
1, 72488, Note_on_c, 1, 72, 96
1, 72489, Note_off_c, 1, 72, 96
1, 72725, Note_on_c, 1, 32, 96
1, 72726, Note_off_c, 1, 32, 96
1, 72733, Note_on_c, 1, 44, 96
1, 72734, Note_off_c, 1, 44, 96
1, 72849, Note_on_c, 1, 60, 96
1, 72850, Note_off_c, 1, 60, 96
1, 72856, Note_on_c, 1, 48, 96
1, 72857, Note_off_c, 1, 48, 96
1, 72974, Note_on_c, 1, 69, 96
1, 72975, Note_off_c, 1, 69, 96
1, 73092, Note_on_c, 1, 70, 96
1, 73094, Note_off_c, 1, 70, 96
1, 73094, Note_on_c, 1, 58, 96
1, 73095, Note_off_c, 1, 58, 96
1, 73098, Note_on_c, 1, 60, 96
1, 73099, Note_off_c, 1, 60, 96
1, 73220, Note_on_c, 1, 57, 96
1, 73221, Note_off_c, 1, 57, 96
1, 73223, Note_on_c, 1, 45, 96
1, 73224, Note_off_c, 1, 45, 96
1, 73338, Note_on_c, 1, 56, 96
1, 73340, Note_off_c, 1, 56, 96
1, 73340, Note_on_c, 1, 44, 96
1, 73341, Note_off_c, 1, 44, 96
1, 73343, Note_on_c, 1, 71, 96
1, 73344, Note_off_c, 1, 71, 96
1, 73459, Note_on_c, 1, 43, 96
1, 73461, Note_off_c, 1, 43, 96
1, 73461, Note_on_c, 1, 50, 96
1, 73462, Note_off_c, 1, 50, 96
1, 73586, Note_on_c, 1, 57, 96
1, 73587, Note_off_c, 1, 57, 96
1, 73645, Note_on_c, 1, 56, 96
1, 73646, Note_off_c, 1, 56, 96
1, 73762, Note_on_c, 1, 58, 96
1, 73765, Note_off_c, 1, 58, 96
1, 73765, Note_on_c, 1, 64, 96
1, 73765, Note_on_c, 1, 60, 96
1, 73766, Note_off_c, 1, 64, 96
1, 73766, Note_off_c, 1, 60, 96
1, 73883, Note_on_c, 1, 69, 96
1, 73884, Note_off_c, 1, 69, 96
1, 73886, Note_on_c, 1, 41, 96
1, 73887, Note_off_c, 1, 41, 96
1, 73890, Note_on_c, 1, 72, 96
1, 73892, Note_off_c, 1, 72, 96
1, 73892, Note_on_c, 1, 65, 96
1, 73895, Note_off_c, 1, 65, 96
1, 73895, Note_on_c, 1, 60, 96
1, 73895, Note_on_c, 1, 53, 96
1, 73896, Note_off_c, 1, 60, 96
1, 73896, Note_off_c, 1, 53, 96
1, 74134, Note_on_c, 1, 61, 96
1, 74136, Note_off_c, 1, 61, 96
1, 74136, Note_on_c, 1, 71, 96
1, 74138, Note_off_c, 1, 71, 96
1, 74138, Note_on_c, 1, 66, 96
1, 74139, Note_off_c, 1, 66, 96
1, 74141, Note_on_c, 1, 45, 96
1, 74142, Note_off_c, 1, 45, 96
1, 74256, Note_on_c, 1, 55, 96
1, 74257, Note_off_c, 1, 55, 96
1, 74380, Note_on_c, 1, 68, 96
1, 74380, Note_on_c, 1, 44, 96
1, 74381, Note_off_c, 1, 68, 96
1, 74381, Note_off_c, 1, 44, 96
1, 74501, Note_on_c, 1, 55, 96
1, 74502, Note_off_c, 1, 55, 96
1, 74504, Note_on_c, 1, 43, 96
1, 74505, Note_off_c, 1, 43, 96
1, 74560, Note_on_c, 1, 69, 96
1, 74562, Note_off_c, 1, 69, 96
1, 74562, Note_on_c, 1, 65, 96
1, 74563, Note_off_c, 1, 65, 96
1, 74624, Note_on_c, 1, 57, 96
1, 74625, Note_off_c, 1, 57, 96
1, 74627, Note_on_c, 1, 53, 96
1, 74628, Note_off_c, 1, 53, 96
1, 74631, Note_on_c, 1, 48, 96
1, 74632, Note_off_c, 1, 48, 96
1, 74689, Note_on_c, 1, 65, 96
1, 74690, Note_off_c, 1, 65, 96
1, 74749, Note_on_c, 1, 51, 96
1, 74751, Note_off_c, 1, 51, 96
1, 74751, Note_on_c, 1, 63, 96
1, 74752, Note_off_c, 1, 63, 96
1, 74814, Note_on_c, 1, 65, 96
1, 74815, Note_off_c, 1, 65, 96
1, 74876, Note_on_c, 1, 67, 96
1, 74876, Note_on_c, 1, 43, 96
1, 74877, Note_off_c, 1, 67, 96
1, 74877, Note_off_c, 1, 43, 96
1, 74936, Note_on_c, 1, 67, 96
1, 74937, Note_off_c, 1, 67, 96
1, 74994, Note_on_c, 1, 52, 96
1, 74996, Note_off_c, 1, 52, 96
1, 74996, Note_on_c, 1, 48, 96
1, 74997, Note_off_c, 1, 48, 96
1, 75000, Note_on_c, 1, 52, 96
1, 75002, Note_off_c, 1, 52, 96
1, 75002, Note_on_c, 1, 48, 96
1, 75003, Note_off_c, 1, 48, 96
1, 75064, Note_on_c, 1, 64, 96
1, 75065, Note_off_c, 1, 64, 96
1, 75122, Note_on_c, 1, 55, 96
1, 75123, Note_off_c, 1, 55, 96
1, 75243, Note_on_c, 1, 60, 96
1, 75244, Note_off_c, 1, 60, 96
1, 75247, Note_on_c, 1, 48, 96
1, 75248, Note_off_c, 1, 48, 96
1, 75364, Note_on_c, 1, 60, 96
1, 75366, Note_off_c, 1, 60, 96
1, 75366, Note_on_c, 1, 53, 96
1, 75367, Note_off_c, 1, 53, 96
1, 75369, Note_on_c, 1, 57, 96
1, 75370, Note_off_c, 1, 57, 96
1, 75485, Note_on_c, 1, 36, 96
1, 75486, Note_off_c, 1, 36, 96
1, 75609, Note_on_c, 1, 69, 96
1, 75610, Note_off_c, 1, 69, 96
1, 75733, Note_on_c, 1, 61, 96
1, 75733, Note_on_c, 1, 72, 96
1, 75735, Note_off_c, 1, 61, 96
1, 75735, Note_off_c, 1, 72, 96
1, 75735, Note_on_c, 1, 67, 96
1, 75736, Note_off_c, 1, 67, 96
1, 75852, Note_on_c, 1, 69, 96
1, 75852, Note_on_c, 1, 66, 96
1, 75852, Note_on_c, 1, 38, 96
1, 75854, Note_off_c, 1, 69, 96
1, 75854, Note_off_c, 1, 66, 96
1, 75854, Note_off_c, 1, 38, 96
1, 75854, Note_on_c, 1, 50, 96
1, 75855, Note_off_c, 1, 50, 96
1, 75976, Note_on_c, 1, 71, 96
1, 75977, Note_off_c, 1, 71, 96
1, 75979, Note_on_c, 1, 68, 96
1, 75980, Note_off_c, 1, 68, 96
1, 76100, Note_on_c, 1, 74, 96
1, 76101, Note_off_c, 1, 74, 96
1, 76219, Note_on_c, 1, 59, 96
1, 76220, Note_off_c, 1, 59, 96
1, 76223, Note_on_c, 1, 53, 96
1, 76225, Note_off_c, 1, 53, 96
1, 76225, Note_on_c, 1, 71, 96
1, 76227, Note_off_c, 1, 71, 96
1, 76227, Note_on_c, 1, 55, 96
1, 76228, Note_off_c, 1, 55, 96
1, 76345, Note_on_c, 1, 72, 96
1, 76345, Note_on_c, 1, 48, 96
1, 76346, Note_off_c, 1, 72, 96
1, 76346, Note_off_c, 1, 48, 96
1, 76406, Note_on_c, 1, 74, 96
1, 76407, Note_off_c, 1, 74, 96
1, 76466, Note_on_c, 1, 36, 96
1, 76466, Note_on_c, 1, 48, 96
1, 76467, Note_off_c, 1, 36, 96
1, 76467, Note_off_c, 1, 48, 96
1, 76469, Note_on_c, 1, 77, 96
1, 76470, Note_off_c, 1, 77, 96
1, 76475, Note_on_c, 1, 72, 96
1, 76475, Note_on_c, 1, 69, 96
1, 76476, Note_off_c, 1, 72, 96
1, 76476, Note_off_c, 1, 69, 96
1, 76530, Note_on_c, 1, 74, 96
1, 76531, Note_off_c, 1, 74, 96
1, 76591, Note_on_c, 1, 69, 96
1, 76593, Note_off_c, 1, 69, 96
1, 76593, Note_on_c, 1, 50, 96
1, 76594, Note_off_c, 1, 50, 96
1, 76655, Note_on_c, 1, 70, 96
1, 76656, Note_off_c, 1, 70, 96
1, 76713, Note_on_c, 1, 53, 96
1, 76714, Note_off_c, 1, 53, 96
1, 76718, Note_on_c, 1, 71, 96
1, 76719, Note_off_c, 1, 71, 96
1, 76837, Note_on_c, 1, 67, 96
1, 76837, Note_on_c, 1, 62, 96
1, 76839, Note_off_c, 1, 67, 96
1, 76839, Note_off_c, 1, 62, 96
1, 76839, Note_on_c, 1, 71, 96
1, 76841, Note_off_c, 1, 71, 96
1, 76841, Note_on_c, 1, 76, 96
1, 76842, Note_off_c, 1, 76, 96
1, 76844, Note_on_c, 1, 56, 96
1, 76846, Note_off_c, 1, 56, 96
1, 76846, Note_on_c, 1, 52, 96
1, 76847, Note_off_c, 1, 52, 96
1, 76902, Note_on_c, 1, 76, 96
1, 76904, Note_off_c, 1, 76, 96
1, 76904, Note_on_c, 1, 71, 96
1, 76905, Note_off_c, 1, 71, 96
1, 76960, Note_on_c, 1, 71, 96
1, 76961, Note_off_c, 1, 71, 96
1, 76964, Note_on_c, 1, 55, 96
1, 76964, Note_on_c, 1, 67, 96
1, 76965, Note_off_c, 1, 55, 96
1, 76965, Note_off_c, 1, 67, 96
1, 76967, Note_on_c, 1, 62, 96
1, 76968, Note_off_c, 1, 62, 96
1, 76970, Note_on_c, 1, 74, 96
1, 76972, Note_off_c, 1, 74, 96
1, 76972, Note_on_c, 1, 59, 96
1, 76973, Note_off_c, 1, 59, 96
1, 77090, Note_on_c, 1, 48, 96
1, 77092, Note_off_c, 1, 48, 96
1, 77092, Note_on_c, 1, 72, 96
1, 77094, Note_off_c, 1, 72, 96
1, 77094, Note_on_c, 1, 60, 96
1, 77095, Note_off_c, 1, 60, 96
1, 77098, Note_on_c, 1, 72, 96
1, 77099, Note_off_c, 1, 72, 96
1, 77218, Note_on_c, 1, 66, 96
1, 77218, Note_on_c, 1, 55, 96
1, 77218, Note_on_c, 1, 52, 96
1, 77220, Note_off_c, 1, 66, 96
1, 77220, Note_off_c, 1, 55, 96
1, 77220, Note_off_c, 1, 52, 96
1, 77220, Note_on_c, 1, 60, 96
1, 77221, Note_off_c, 1, 60, 96
1, 77338, Note_on_c, 1, 69, 96
1, 77339, Note_off_c, 1, 69, 96
1, 77457, Note_on_c, 1, 60, 96
1, 77458, Note_off_c, 1, 60, 96
1, 77460, Note_on_c, 1, 79, 96
1, 77462, Note_off_c, 1, 79, 96
1, 77462, Note_on_c, 1, 76, 96
1, 77464, Note_off_c, 1, 76, 96
1, 77464, Note_on_c, 1, 48, 96
1, 77465, Note_off_c, 1, 48, 96
1, 77581, Note_on_c, 1, 55, 96
1, 77581, Note_on_c, 1, 43, 96
1, 77582, Note_off_c, 1, 55, 96
1, 77582, Note_off_c, 1, 43, 96
1, 77587, Note_on_c, 1, 76, 96
1, 77588, Note_off_c, 1, 76, 96
1, 77702, Note_on_c, 1, 55, 96
1, 77705, Note_off_c, 1, 55, 96
1, 77705, Note_on_c, 1, 72, 96
1, 77705, Note_on_c, 1, 76, 96
1, 77707, Note_off_c, 1, 72, 96
1, 77707, Note_off_c, 1, 76, 96
1, 77707, Note_on_c, 1, 60, 96
1, 77709, Note_off_c, 1, 60, 96
1, 77709, Note_on_c, 1, 64, 96
1, 77711, Note_off_c, 1, 64, 96
1, 77711, Note_on_c, 1, 84, 96
1, 77712, Note_off_c, 1, 84, 96
1, 77771, Note_on_c, 1, 81, 96
1, 77771, Note_on_c, 1, 69, 96
1, 77772, Note_off_c, 1, 81, 96
1, 77772, Note_off_c, 1, 69, 96
1, 77895, Note_on_c, 1, 79, 96
1, 77897, Note_off_c, 1, 79, 96
1, 77897, Note_on_c, 1, 67, 96
1, 77898, Note_off_c, 1, 67, 96
1, 77952, Note_on_c, 1, 57, 96
1, 77953, Note_off_c, 1, 57, 96
1, 77955, Note_on_c, 1, 45, 96
1, 77956, Note_off_c, 1, 45, 96
1, 78078, Note_on_c, 1, 65, 96
1, 78078, Note_on_c, 1, 60, 96
1, 78079, Note_off_c, 1, 65, 96
1, 78079, Note_off_c, 1, 60, 96
1, 78082, Note_on_c, 1, 77, 96
1, 78082, Note_on_c, 1, 57, 96
1, 78083, Note_off_c, 1, 77, 96
1, 78083, Note_off_c, 1, 57, 96
1, 78199, Note_on_c, 1, 72, 96
1, 78200, Note_off_c, 1, 72, 96
1, 78262, Note_on_c, 1, 72, 96
1, 78263, Note_off_c, 1, 72, 96
1, 78323, Note_on_c, 1, 74, 96
1, 78325, Note_off_c, 1, 74, 96
1, 78325, Note_on_c, 1, 43, 96
1, 78326, Note_off_c, 1, 43, 96
1, 78382, Note_on_c, 1, 71, 96
1, 78383, Note_off_c, 1, 71, 96
1, 78440, Note_on_c, 1, 59, 96
1, 78441, Note_off_c, 1, 59, 96
1, 78446, Note_on_c, 1, 71, 96
1, 78446, Note_on_c, 1, 55, 96
1, 78447, Note_off_c, 1, 71, 96
1, 78447, Note_off_c, 1, 55, 96
1, 78450, Note_on_c, 1, 65, 96
1, 78451, Note_off_c, 1, 65, 96
1, 78511, Note_on_c, 1, 74, 96
1, 78512, Note_off_c, 1, 74, 96
1, 78566, Note_on_c, 1, 65, 96
1, 78567, Note_off_c, 1, 65, 96
1, 78569, Note_on_c, 1, 67, 96
1, 78572, Note_off_c, 1, 67, 96
1, 78572, Note_on_c, 1, 55, 96
1, 78572, Note_on_c, 1, 59, 96
1, 78573, Note_off_c, 1, 55, 96
1, 78573, Note_off_c, 1, 59, 96
1, 78697, Note_on_c, 1, 79, 96
1, 78698, Note_off_c, 1, 79, 96
1, 78753, Note_on_c, 1, 74, 96
1, 78754, Note_off_c, 1, 74, 96
1, 78882, Note_on_c, 1, 76, 96
1, 78883, Note_off_c, 1, 76, 96
1, 79001, Note_on_c, 1, 72, 96
1, 79001, Note_on_c, 1, 52, 96
1, 79001, Note_on_c, 1, 55, 96
1, 79002, Note_off_c, 1, 72, 96
1, 79002, Note_off_c, 1, 52, 96
1, 79002, Note_off_c, 1, 55, 96
1, 79004, Note_on_c, 1, 60, 96
1, 79005, Note_off_c, 1, 60, 96
1, 79124, Note_on_c, 1, 55, 96
1, 79126, Note_off_c, 1, 55, 96
1, 79126, Note_on_c, 1, 81, 96
1, 79128, Note_off_c, 1, 81, 96
1, 79128, Note_on_c, 1, 73, 96
1, 79129, Note_off_c, 1, 73, 96
1, 79247, Note_on_c, 1, 57, 96
1, 79250, Note_off_c, 1, 57, 96
1, 79250, Note_on_c, 1, 88, 96
1, 79250, Note_on_c, 1, 64, 96
1, 79252, Note_off_c, 1, 88, 96
1, 79252, Note_off_c, 1, 64, 96
1, 79252, Note_on_c, 1, 61, 96
1, 79253, Note_off_c, 1, 61, 96
1, 79255, Note_on_c, 1, 52, 96
1, 79256, Note_off_c, 1, 52, 96
1, 79311, Note_on_c, 1, 79, 96
1, 79312, Note_off_c, 1, 79, 96
1, 79315, Note_on_c, 1, 73, 96
1, 79317, Note_off_c, 1, 73, 96
1, 79317, Note_on_c, 1, 85, 96
1, 79318, Note_off_c, 1, 85, 96
1, 79377, Note_on_c, 1, 91, 96
1, 79377, Note_on_c, 1, 45, 96
1, 79378, Note_off_c, 1, 91, 96
1, 79378, Note_off_c, 1, 45, 96
1, 79380, Note_on_c, 1, 79, 96
1, 79382, Note_off_c, 1, 79, 96
1, 79382, Note_on_c, 1, 57, 96
1, 79384, Note_off_c, 1, 57, 96
1, 79384, Note_on_c, 1, 61, 96
1, 79385, Note_off_c, 1, 61, 96
1, 79622, Note_on_c, 1, 76, 96
1, 79622, Note_on_c, 1, 64, 96
1, 79623, Note_off_c, 1, 76, 96
1, 79623, Note_off_c, 1, 64, 96
1, 79627, Note_on_c, 1, 55, 96
1, 79627, Note_on_c, 1, 64, 96
1, 79628, Note_off_c, 1, 55, 96
1, 79628, Note_off_c, 1, 64, 96
1, 79631, Note_on_c, 1, 85, 96
1, 79631, Note_on_c, 1, 73, 96
1, 79633, Note_off_c, 1, 85, 96
1, 79633, Note_off_c, 1, 73, 96
1, 79633, Note_on_c, 1, 57, 96
1, 79634, Note_off_c, 1, 57, 96
1, 79752, Note_on_c, 1, 71, 96
1, 79753, Note_off_c, 1, 71, 96
1, 79755, Note_on_c, 1, 79, 96
1, 79756, Note_off_c, 1, 79, 96
1, 79873, Note_on_c, 1, 74, 96
1, 79873, Note_on_c, 1, 86, 96
1, 79874, Note_off_c, 1, 74, 96
1, 79874, Note_off_c, 1, 86, 96
1, 79876, Note_on_c, 1, 58, 96
1, 79878, Note_off_c, 1, 58, 96
1, 79878, Note_on_c, 1, 46, 96
1, 79879, Note_off_c, 1, 46, 96
1, 79937, Note_on_c, 1, 77, 96
1, 79938, Note_off_c, 1, 77, 96
1, 79942, Note_on_c, 1, 82, 96
1, 79943, Note_off_c, 1, 82, 96
1, 79997, Note_on_c, 1, 52, 96
1, 79998, Note_off_c, 1, 52, 96
1, 80004, Note_on_c, 1, 40, 96
1, 80005, Note_off_c, 1, 40, 96
1, 80063, Note_on_c, 1, 76, 96
1, 80064, Note_off_c, 1, 76, 96
1, 80122, Note_on_c, 1, 77, 96
1, 80124, Note_off_c, 1, 77, 96
1, 80124, Note_on_c, 1, 41, 96
1, 80125, Note_off_c, 1, 41, 96
1, 80127, Note_on_c, 1, 53, 96
1, 80128, Note_off_c, 1, 53, 96
1, 80243, Note_on_c, 1, 65, 96
1, 80244, Note_off_c, 1, 65, 96
1, 80246, Note_on_c, 1, 69, 96
1, 80247, Note_off_c, 1, 69, 96
1, 80250, Note_on_c, 1, 81, 96
1, 80250, Note_on_c, 1, 57, 96
1, 80251, Note_off_c, 1, 81, 96
1, 80251, Note_off_c, 1, 57, 96
1, 80253, Note_on_c, 1, 60, 96
1, 80254, Note_off_c, 1, 60, 96
1, 80370, Note_on_c, 1, 69, 96
1, 80372, Note_off_c, 1, 69, 96
1, 80372, Note_on_c, 1, 81, 96
1, 80373, Note_off_c, 1, 81, 96
1, 80375, Note_on_c, 1, 74, 96
1, 80377, Note_off_c, 1, 74, 96
1, 80377, Note_on_c, 1, 50, 96
1, 80378, Note_off_c, 1, 50, 96
1, 80493, Note_on_c, 1, 53, 96
1, 80494, Note_off_c, 1, 53, 96
1, 80496, Note_on_c, 1, 74, 96
1, 80499, Note_off_c, 1, 74, 96
1, 80499, Note_on_c, 1, 81, 96
1, 80499, Note_on_c, 1, 69, 96
1, 80500, Note_off_c, 1, 81, 96
1, 80500, Note_off_c, 1, 69, 96
1, 80615, Note_on_c, 1, 74, 96
1, 80617, Note_off_c, 1, 74, 96
1, 80617, Note_on_c, 1, 48, 96
1, 80618, Note_off_c, 1, 48, 96
1, 80620, Note_on_c, 1, 77, 96
1, 80621, Note_off_c, 1, 77, 96
1, 80623, Note_on_c, 1, 69, 96
1, 80625, Note_off_c, 1, 69, 96
1, 80625, Note_on_c, 1, 79, 96
1, 80627, Note_off_c, 1, 79, 96
1, 80627, Note_on_c, 1, 36, 96
1, 80628, Note_off_c, 1, 36, 96
1, 80863, Note_on_c, 1, 41, 96
1, 80864, Note_off_c, 1, 41, 96
1, 80866, Note_on_c, 1, 79, 96
1, 80869, Note_off_c, 1, 79, 96
1, 80869, Note_on_c, 1, 77, 96
1, 80869, Note_on_c, 1, 53, 96
1, 80870, Note_off_c, 1, 77, 96
1, 80870, Note_off_c, 1, 53, 96
1, 80872, Note_on_c, 1, 65, 96
1, 80874, Note_off_c, 1, 65, 96
1, 80874, Note_on_c, 1, 72, 96
1, 80875, Note_off_c, 1, 72, 96
1, 81114, Note_on_c, 1, 70, 96
1, 81114, Note_on_c, 1, 81, 96
1, 81114, Note_on_c, 1, 73, 96
1, 81114, Note_on_c, 1, 60, 96
1, 81115, Note_off_c, 1, 70, 96
1, 81115, Note_off_c, 1, 81, 96
1, 81115, Note_off_c, 1, 73, 96
1, 81115, Note_off_c, 1, 60, 96
1, 81117, Note_on_c, 1, 34, 96
1, 81118, Note_off_c, 1, 34, 96
1, 81232, Note_on_c, 1, 75, 96
1, 81233, Note_off_c, 1, 75, 96
1, 81237, Note_on_c, 1, 55, 96
1, 81239, Note_off_c, 1, 55, 96
1, 81239, Note_on_c, 1, 87, 96
1, 81240, Note_off_c, 1, 87, 96
1, 81242, Note_on_c, 1, 51, 96
1, 81243, Note_off_c, 1, 51, 96
1, 81300, Note_on_c, 1, 94, 96
1, 81301, Note_off_c, 1, 94, 96
1, 81303, Note_on_c, 1, 91, 96
1, 81304, Note_off_c, 1, 91, 96
1, 81361, Note_on_c, 1, 85, 96
1, 81364, Note_off_c, 1, 85, 96
1, 81364, Note_on_c, 1, 91, 96
1, 81364, Note_on_c, 1, 89, 96
1, 81366, Note_off_c, 1, 91, 96
1, 81366, Note_off_c, 1, 89, 96
1, 81366, Note_on_c, 1, 78, 96
1, 81368, Note_off_c, 1, 78, 96
1, 81368, Note_on_c, 1, 39, 96
1, 81369, Note_off_c, 1, 39, 96
1, 81485, Note_on_c, 1, 88, 96
1, 81486, Note_off_c, 1, 88, 96
1, 81489, Note_on_c, 1, 76, 96
1, 81490, Note_off_c, 1, 76, 96
1, 81607, Note_on_c, 1, 60, 96
1, 81608, Note_off_c, 1, 60, 96
1, 81611, Note_on_c, 1, 85, 96
1, 81612, Note_off_c, 1, 85, 96
1, 81615, Note_on_c, 1, 91, 96
1, 81615, Note_on_c, 1, 63, 96
1, 81616, Note_off_c, 1, 91, 96
1, 81616, Note_off_c, 1, 63, 96
1, 81670, Note_on_c, 1, 87, 96
1, 81671, Note_off_c, 1, 87, 96
1, 81732, Note_on_c, 1, 46, 96
1, 81734, Note_off_c, 1, 46, 96
1, 81734, Note_on_c, 1, 87, 96
1, 81735, Note_off_c, 1, 87, 96
1, 81795, Note_on_c, 1, 77, 96
1, 81796, Note_off_c, 1, 77, 96
1, 81854, Note_on_c, 1, 55, 96
1, 81855, Note_off_c, 1, 55, 96
1, 81858, Note_on_c, 1, 89, 96
1, 81858, Note_on_c, 1, 43, 96
1, 81860, Note_off_c, 1, 89, 96
1, 81860, Note_off_c, 1, 43, 96
1, 81860, Note_on_c, 1, 82, 96
1, 81861, Note_off_c, 1, 82, 96
1, 81922, Note_on_c, 1, 91, 96
1, 81923, Note_off_c, 1, 91, 96
1, 81927, Note_on_c, 1, 79, 96
1, 81928, Note_off_c, 1, 79, 96
1, 81982, Note_on_c, 1, 84, 96
1, 81983, Note_off_c, 1, 84, 96
1, 81987, Note_on_c, 1, 80, 96
1, 81989, Note_off_c, 1, 80, 96
1, 81989, Note_on_c, 1, 51, 96
1, 81990, Note_off_c, 1, 51, 96
1, 82108, Note_on_c, 1, 56, 96
1, 82109, Note_off_c, 1, 56, 96
1, 82112, Note_on_c, 1, 44, 96
1, 82113, Note_off_c, 1, 44, 96
1, 82345, Note_on_c, 1, 91, 96
1, 82345, Note_on_c, 1, 82, 96
1, 82345, Note_on_c, 1, 58, 96
1, 82347, Note_off_c, 1, 91, 96
1, 82347, Note_off_c, 1, 82, 96
1, 82347, Note_off_c, 1, 58, 96
1, 82347, Note_on_c, 1, 75, 96
1, 82349, Note_off_c, 1, 75, 96
1, 82349, Note_on_c, 1, 82, 96
1, 82350, Note_off_c, 1, 82, 96
1, 82352, Note_on_c, 1, 79, 96
1, 82354, Note_off_c, 1, 79, 96
1, 82354, Note_on_c, 1, 62, 96
1, 82355, Note_off_c, 1, 62, 96
1, 82469, Note_on_c, 1, 79, 96
1, 82470, Note_off_c, 1, 79, 96
1, 82473, Note_on_c, 1, 86, 96
1, 82473, Note_on_c, 1, 91, 96
1, 82474, Note_off_c, 1, 86, 96
1, 82474, Note_off_c, 1, 91, 96
1, 82593, Note_on_c, 1, 58, 96
1, 82594, Note_off_c, 1, 58, 96
1, 82597, Note_on_c, 1, 70, 96
1, 82598, Note_off_c, 1, 70, 96
1, 82601, Note_on_c, 1, 82, 96
1, 82601, Note_on_c, 1, 56, 96
1, 82602, Note_off_c, 1, 82, 96
1, 82602, Note_off_c, 1, 56, 96
1, 82605, Note_on_c, 1, 64, 96
1, 82605, Note_on_c, 1, 61, 96
1, 82606, Note_off_c, 1, 64, 96
1, 82606, Note_off_c, 1, 61, 96
1, 82657, Note_on_c, 1, 82, 96
1, 82658, Note_off_c, 1, 82, 96
1, 82661, Note_on_c, 1, 90, 96
1, 82663, Note_off_c, 1, 90, 96
1, 82663, Note_on_c, 1, 85, 96
1, 82664, Note_off_c, 1, 85, 96
1, 82666, Note_on_c, 1, 78, 96
1, 82668, Note_off_c, 1, 78, 96
1, 82668, Note_on_c, 1, 87, 96
1, 82669, Note_off_c, 1, 87, 96
1, 82726, Note_on_c, 1, 73, 96
1, 82728, Note_off_c, 1, 73, 96
1, 82728, Note_on_c, 1, 85, 96
1, 82729, Note_off_c, 1, 85, 96
1, 82734, Note_on_c, 1, 54, 96
1, 82734, Note_on_c, 1, 58, 96
1, 82734, Note_on_c, 1, 61, 96
1, 82735, Note_off_c, 1, 54, 96
1, 82735, Note_off_c, 1, 58, 96
1, 82735, Note_off_c, 1, 61, 96
1, 82789, Note_on_c, 1, 86, 96
1, 82790, Note_off_c, 1, 86, 96
1, 82792, Note_on_c, 1, 82, 96
1, 82793, Note_off_c, 1, 82, 96
1, 82795, Note_on_c, 1, 74, 96
1, 82796, Note_off_c, 1, 74, 96
1, 82971, Note_on_c, 1, 85, 96
1, 82971, Note_on_c, 1, 73, 96
1, 82971, Note_on_c, 1, 77, 96
1, 82972, Note_off_c, 1, 85, 96
1, 82972, Note_off_c, 1, 73, 96
1, 82972, Note_off_c, 1, 77, 96
1, 82975, Note_on_c, 1, 43, 96
1, 82976, Note_off_c, 1, 43, 96
1, 83096, Note_on_c, 1, 39, 96
1, 83097, Note_off_c, 1, 39, 96
1, 83158, Note_on_c, 1, 89, 96
1, 83160, Note_off_c, 1, 89, 96
1, 83160, Note_on_c, 1, 77, 96
1, 83161, Note_off_c, 1, 77, 96
1, 83221, Note_on_c, 1, 62, 96
1, 83221, Note_on_c, 1, 98, 96
1, 83221, Note_on_c, 1, 86, 96
1, 83221, Note_on_c, 1, 65, 96
1, 83223, Note_off_c, 1, 62, 96
1, 83223, Note_off_c, 1, 98, 96
1, 83223, Note_off_c, 1, 86, 96
1, 83223, Note_off_c, 1, 65, 96
1, 83223, Note_on_c, 1, 60, 96
1, 83224, Note_off_c, 1, 60, 96
1, 83284, Note_on_c, 1, 81, 96
1, 83285, Note_off_c, 1, 81, 96
1, 83289, Note_on_c, 1, 84, 96
1, 83290, Note_off_c, 1, 84, 96
1, 83349, Note_on_c, 1, 84, 96
1, 83349, Note_on_c, 1, 53, 96
1, 83349, Note_on_c, 1, 57, 96
1, 83351, Note_off_c, 1, 84, 96
1, 83351, Note_off_c, 1, 53, 96
1, 83351, Note_off_c, 1, 57, 96
1, 83351, Note_on_c, 1, 84, 96
1, 83352, Note_off_c, 1, 84, 96
1, 83354, Note_on_c, 1, 60, 96
1, 83355, Note_off_c, 1, 60, 96
1, 83410, Note_on_c, 1, 89, 96
1, 83412, Note_off_c, 1, 89, 96
1, 83412, Note_on_c, 1, 84, 96
1, 83414, Note_off_c, 1, 84, 96
1, 83414, Note_on_c, 1, 81, 96
1, 83415, Note_off_c, 1, 81, 96
1, 83418, Note_on_c, 1, 77, 96
1, 83419, Note_off_c, 1, 77, 96
1, 83472, Note_on_c, 1, 54, 96
1, 83473, Note_off_c, 1, 54, 96
1, 83476, Note_on_c, 1, 42, 96
1, 83477, Note_off_c, 1, 42, 96
1, 83536, Note_on_c, 1, 93, 96
1, 83536, Note_on_c, 1, 84, 96
1, 83538, Note_off_c, 1, 93, 96
1, 83538, Note_off_c, 1, 84, 96
1, 83538, Note_on_c, 1, 88, 96
1, 83539, Note_off_c, 1, 88, 96
1, 83602, Note_on_c, 1, 74, 96
1, 83602, Note_on_c, 1, 71, 96
1, 83602, Note_on_c, 1, 83, 96
1, 83603, Note_off_c, 1, 74, 96
1, 83603, Note_off_c, 1, 71, 96
1, 83603, Note_off_c, 1, 83, 96
1, 83722, Note_on_c, 1, 61, 96
1, 83723, Note_off_c, 1, 61, 96
1, 83779, Note_on_c, 1, 81, 96
1, 83780, Note_off_c, 1, 81, 96
1, 83841, Note_on_c, 1, 43, 96
1, 83842, Note_off_c, 1, 43, 96
1, 83844, Note_on_c, 1, 79, 96
1, 83845, Note_off_c, 1, 79, 96
1, 83904, Note_on_c, 1, 86, 96
1, 83905, Note_off_c, 1, 86, 96
1, 83910, Note_on_c, 1, 74, 96
1, 83910, Note_on_c, 1, 83, 96
1, 83911, Note_off_c, 1, 74, 96
1, 83911, Note_off_c, 1, 83, 96
1, 83967, Note_on_c, 1, 55, 96
1, 83967, Note_on_c, 1, 53, 96
1, 83967, Note_on_c, 1, 59, 96
1, 83967, Note_on_c, 1, 62, 96
1, 83968, Note_off_c, 1, 55, 96
1, 83968, Note_off_c, 1, 53, 96
1, 83968, Note_off_c, 1, 59, 96
1, 83968, Note_off_c, 1, 62, 96
1, 84088, Note_on_c, 1, 84, 96
1, 84088, Note_on_c, 1, 60, 96
1, 84090, Note_off_c, 1, 84, 96
1, 84090, Note_off_c, 1, 60, 96
1, 84090, Note_on_c, 1, 72, 96
1, 84091, Note_off_c, 1, 72, 96
1, 84095, Note_on_c, 1, 79, 96
1, 84095, Note_on_c, 1, 48, 96
1, 84096, Note_off_c, 1, 79, 96
1, 84096, Note_off_c, 1, 48, 96
1, 84214, Note_on_c, 1, 55, 96
1, 84215, Note_off_c, 1, 55, 96
1, 84218, Note_on_c, 1, 64, 96
1, 84218, Note_on_c, 1, 60, 96
1, 84219, Note_off_c, 1, 64, 96
1, 84219, Note_off_c, 1, 60, 96
1, 84278, Note_on_c, 1, 76, 96
1, 84279, Note_off_c, 1, 76, 96
1, 84336, Note_on_c, 1, 76, 96
1, 84337, Note_off_c, 1, 76, 96
1, 84340, Note_on_c, 1, 43, 96
1, 84342, Note_off_c, 1, 43, 96
1, 84342, Note_on_c, 1, 55, 96
1, 84343, Note_off_c, 1, 55, 96
1, 84462, Note_on_c, 1, 48, 96
1, 84463, Note_off_c, 1, 48, 96
1, 84465, Note_on_c, 1, 69, 96
1, 84466, Note_off_c, 1, 69, 96
1, 84519, Note_on_c, 1, 78, 96
1, 84520, Note_off_c, 1, 78, 96
1, 84583, Note_on_c, 1, 77, 96
1, 84583, Note_on_c, 1, 48, 96
1, 84584, Note_off_c, 1, 77, 96
1, 84584, Note_off_c, 1, 48, 96
1, 84705, Note_on_c, 1, 59, 96
1, 84706, Note_off_c, 1, 59, 96
1, 84708, Note_on_c, 1, 77, 96
1, 84711, Note_off_c, 1, 77, 96
1, 84711, Note_on_c, 1, 65, 96
1, 84711, Note_on_c, 1, 55, 96
1, 84712, Note_off_c, 1, 65, 96
1, 84712, Note_off_c, 1, 55, 96
1, 84828, Note_on_c, 1, 74, 96
1, 84829, Note_off_c, 1, 74, 96
1, 84949, Note_on_c, 1, 74, 96
1, 84950, Note_off_c, 1, 74, 96
1, 85069, Note_on_c, 1, 67, 96
1, 85070, Note_off_c, 1, 67, 96
1, 85077, Note_on_c, 1, 64, 96
1, 85077, Note_on_c, 1, 55, 96
1, 85077, Note_on_c, 1, 60, 96
1, 85078, Note_off_c, 1, 64, 96
1, 85078, Note_off_c, 1, 55, 96
1, 85078, Note_off_c, 1, 60, 96
1, 85080, Note_on_c, 1, 48, 96
1, 85081, Note_off_c, 1, 48, 96
1, 85196, Note_on_c, 1, 43, 96
1, 85197, Note_off_c, 1, 43, 96
1, 85202, Note_on_c, 1, 69, 96
1, 85203, Note_off_c, 1, 69, 96
1, 85320, Note_on_c, 1, 55, 96
1, 85321, Note_off_c, 1, 55, 96
1, 85325, Note_on_c, 1, 79, 96
1, 85325, Note_on_c, 1, 67, 96
1, 85325, Note_on_c, 1, 52, 96
1, 85327, Note_off_c, 1, 79, 96
1, 85327, Note_off_c, 1, 67, 96
1, 85327, Note_off_c, 1, 52, 96
1, 85327, Note_on_c, 1, 60, 96
1, 85328, Note_off_c, 1, 60, 96
1, 85445, Note_on_c, 1, 63, 96
1, 85447, Note_off_c, 1, 63, 96
1, 85447, Note_on_c, 1, 81, 96
1, 85448, Note_off_c, 1, 81, 96
1, 85452, Note_on_c, 1, 50, 96
1, 85453, Note_off_c, 1, 50, 96
1, 85568, Note_on_c, 1, 53, 96
1, 85569, Note_off_c, 1, 53, 96
1, 85571, Note_on_c, 1, 71, 96
1, 85573, Note_off_c, 1, 71, 96
1, 85573, Note_on_c, 1, 65, 96
1, 85576, Note_off_c, 1, 65, 96
1, 85576, Note_on_c, 1, 55, 96
1, 85576, Note_on_c, 1, 59, 96
1, 85577, Note_off_c, 1, 55, 96
1, 85577, Note_off_c, 1, 59, 96
1, 85691, Note_on_c, 1, 48, 96
1, 85693, Note_off_c, 1, 48, 96
1, 85693, Note_on_c, 1, 67, 96
1, 85694, Note_off_c, 1, 67, 96
1, 85697, Note_on_c, 1, 79, 96
1, 85698, Note_off_c, 1, 79, 96
1, 85817, Note_on_c, 1, 64, 96
1, 85820, Note_off_c, 1, 64, 96
1, 85820, Note_on_c, 1, 60, 96
1, 85820, Note_on_c, 1, 55, 96
1, 85821, Note_off_c, 1, 60, 96
1, 85821, Note_off_c, 1, 55, 96
1, 85938, Note_on_c, 1, 69, 96
1, 85938, Note_on_c, 1, 72, 96
1, 85938, Note_on_c, 1, 45, 96
1, 85940, Note_off_c, 1, 69, 96
1, 85940, Note_off_c, 1, 72, 96
1, 85940, Note_off_c, 1, 45, 96
1, 85940, Note_on_c, 1, 64, 96
1, 85941, Note_off_c, 1, 64, 96
1, 86060, Note_on_c, 1, 55, 96
1, 86062, Note_off_c, 1, 55, 96
1, 86062, Note_on_c, 1, 43, 96
1, 86065, Note_off_c, 1, 43, 96
1, 86065, Note_on_c, 1, 65, 96
1, 86065, Note_on_c, 1, 74, 96
1, 86066, Note_off_c, 1, 65, 96
1, 86066, Note_off_c, 1, 74, 96
1, 86126, Note_on_c, 1, 79, 96
1, 86127, Note_off_c, 1, 79, 96
1, 86182, Note_on_c, 1, 65, 96
1, 86184, Note_off_c, 1, 65, 96
1, 86184, Note_on_c, 1, 55, 96
1, 86185, Note_off_c, 1, 55, 96
1, 86188, Note_on_c, 1, 76, 96
1, 86188, Note_on_c, 1, 59, 96
1, 86189, Note_off_c, 1, 76, 96
1, 86189, Note_off_c, 1, 59, 96
1, 86311, Note_on_c, 1, 71, 96
1, 86312, Note_off_c, 1, 71, 96
1, 86315, Note_on_c, 1, 74, 96
1, 86315, Note_on_c, 1, 43, 96
1, 86317, Note_off_c, 1, 74, 96
1, 86317, Note_off_c, 1, 43, 96
1, 86317, Note_on_c, 1, 65, 96
1, 86318, Note_off_c, 1, 65, 96
1, 86554, Note_on_c, 1, 40, 96
1, 86555, Note_off_c, 1, 40, 96
1, 86557, Note_on_c, 1, 52, 96
1, 86558, Note_off_c, 1, 52, 96
1, 86678, Note_on_c, 1, 64, 96
1, 86679, Note_off_c, 1, 64, 96
1, 86681, Note_on_c, 1, 52, 96
1, 86682, Note_off_c, 1, 52, 96
1, 86798, Note_on_c, 1, 67, 96
1, 86798, Note_on_c, 1, 71, 96
1, 86799, Note_off_c, 1, 67, 96
1, 86799, Note_off_c, 1, 71, 96
1, 86804, Note_on_c, 1, 50, 96
1, 86805, Note_off_c, 1, 50, 96
1, 87039, Note_on_c, 1, 67, 96
1, 87040, Note_off_c, 1, 67, 96
1, 87044, Note_on_c, 1, 60, 96
1, 87045, Note_off_c, 1, 60, 96
1, 87103, Note_on_c, 1, 60, 96
1, 87106, Note_off_c, 1, 60, 96
1, 87106, Note_on_c, 1, 68, 96
1, 87106, Note_on_c, 1, 48, 96
1, 87107, Note_off_c, 1, 68, 96
1, 87107, Note_off_c, 1, 48, 96
1, 87168, Note_on_c, 1, 58, 96
1, 87168, Note_on_c, 1, 64, 96
1, 87170, Note_off_c, 1, 58, 96
1, 87170, Note_off_c, 1, 64, 96
1, 87170, Note_on_c, 1, 52, 96
1, 87171, Note_off_c, 1, 52, 96
1, 87173, Note_on_c, 1, 48, 96
1, 87174, Note_off_c, 1, 48, 96
1, 87292, Note_on_c, 1, 64, 96
1, 87294, Note_off_c, 1, 64, 96
1, 87294, Note_on_c, 1, 58, 96
1, 87297, Note_off_c, 1, 58, 96
1, 87297, Note_on_c, 1, 67, 96
1, 87297, Note_on_c, 1, 60, 96
1, 87298, Note_off_c, 1, 67, 96
1, 87298, Note_off_c, 1, 60, 96
1, 87414, Note_on_c, 1, 41, 96
1, 87415, Note_off_c, 1, 41, 96
1, 87532, Note_on_c, 1, 64, 96
1, 87533, Note_off_c, 1, 64, 96
1, 87541, Note_on_c, 1, 52, 96
1, 87542, Note_off_c, 1, 52, 96
1, 87596, Note_on_c, 1, 64, 96
1, 87597, Note_off_c, 1, 64, 96
1, 87655, Note_on_c, 1, 53, 96
1, 87656, Note_off_c, 1, 53, 96
1, 87659, Note_on_c, 1, 65, 96
1, 87660, Note_off_c, 1, 65, 96
1, 87662, Note_on_c, 1, 41, 96
1, 87663, Note_off_c, 1, 41, 96
1, 87782, Note_on_c, 1, 65, 96
1, 87782, Note_on_c, 1, 55, 96
1, 87784, Note_off_c, 1, 65, 96
1, 87784, Note_off_c, 1, 55, 96
1, 87784, Note_on_c, 1, 65, 96
1, 87786, Note_off_c, 1, 65, 96
1, 87786, Note_on_c, 1, 59, 96
1, 87787, Note_off_c, 1, 59, 96
1, 87846, Note_on_c, 1, 67, 96
1, 87847, Note_off_c, 1, 67, 96
1, 87906, Note_on_c, 1, 65, 96
1, 87906, Note_on_c, 1, 48, 96
1, 87907, Note_off_c, 1, 65, 96
1, 87907, Note_off_c, 1, 48, 96
1, 87910, Note_on_c, 1, 36, 96
1, 87911, Note_off_c, 1, 36, 96
1, 87967, Note_on_c, 1, 63, 96
1, 87968, Note_off_c, 1, 63, 96
1, 88030, Note_on_c, 1, 60, 96
1, 88030, Note_on_c, 1, 64, 96
1, 88031, Note_off_c, 1, 60, 96
1, 88031, Note_off_c, 1, 64, 96
1, 88033, Note_on_c, 1, 55, 96
1, 88034, Note_off_c, 1, 55, 96
1, 88093, Note_on_c, 1, 67, 96
1, 88094, Note_off_c, 1, 67, 96
1, 88150, Note_on_c, 1, 69, 96
1, 88151, Note_off_c, 1, 69, 96
1, 88154, Note_on_c, 1, 53, 96
1, 88156, Note_off_c, 1, 53, 96
1, 88156, Note_on_c, 1, 60, 96
1, 88157, Note_off_c, 1, 60, 96
1, 88275, Note_on_c, 1, 65, 96
1, 88275, Note_on_c, 1, 60, 96
1, 88276, Note_off_c, 1, 65, 96
1, 88276, Note_off_c, 1, 60, 96
1, 88280, Note_on_c, 1, 56, 96
1, 88281, Note_off_c, 1, 56, 96
1, 88339, Note_on_c, 1, 69, 96
1, 88340, Note_off_c, 1, 69, 96
1, 88399, Note_on_c, 1, 72, 96
1, 88399, Note_on_c, 1, 57, 96
1, 88402, Note_off_c, 1, 72, 96
1, 88402, Note_off_c, 1, 57, 96
1, 88402, Note_on_c, 1, 60, 96
1, 88402, Note_on_c, 1, 53, 96
1, 88403, Note_off_c, 1, 60, 96
1, 88403, Note_off_c, 1, 53, 96
1, 88524, Note_on_c, 1, 73, 96
1, 88524, Note_on_c, 1, 45, 96
1, 88524, Note_on_c, 1, 57, 96
1, 88525, Note_off_c, 1, 73, 96
1, 88525, Note_off_c, 1, 45, 96
1, 88525, Note_off_c, 1, 57, 96
1, 88585, Note_on_c, 1, 71, 96
1, 88586, Note_off_c, 1, 71, 96
1, 88642, Note_on_c, 1, 38, 96
1, 88644, Note_off_c, 1, 38, 96
1, 88644, Note_on_c, 1, 74, 96
1, 88646, Note_off_c, 1, 74, 96
1, 88646, Note_on_c, 1, 50, 96
1, 88647, Note_off_c, 1, 50, 96
1, 88764, Note_on_c, 1, 72, 96
1, 88765, Note_off_c, 1, 72, 96
1, 88772, Note_on_c, 1, 69, 96
1, 88772, Note_on_c, 1, 66, 96
1, 88773, Note_off_c, 1, 69, 96
1, 88773, Note_off_c, 1, 66, 96
1, 88950, Note_on_c, 1, 69, 96
1, 88951, Note_off_c, 1, 69, 96
1, 89010, Note_on_c, 1, 38, 96
1, 89011, Note_off_c, 1, 38, 96
1, 89014, Note_on_c, 1, 59, 96
1, 89014, Note_on_c, 1, 52, 96
1, 89015, Note_off_c, 1, 59, 96
1, 89015, Note_off_c, 1, 52, 96
1, 89017, Note_on_c, 1, 71, 96
1, 89018, Note_off_c, 1, 71, 96
1, 89134, Note_on_c, 1, 76, 96
1, 89134, Note_on_c, 1, 38, 96
1, 89135, Note_off_c, 1, 76, 96
1, 89135, Note_off_c, 1, 38, 96
1, 89375, Note_on_c, 1, 67, 96
1, 89376, Note_off_c, 1, 67, 96
1, 89380, Note_on_c, 1, 79, 96
1, 89380, Note_on_c, 1, 43, 96
1, 89381, Note_off_c, 1, 79, 96
1, 89381, Note_off_c, 1, 43, 96
1, 89385, Note_on_c, 1, 55, 96
1, 89386, Note_off_c, 1, 55, 96
1, 89500, Note_on_c, 1, 70, 96
1, 89501, Note_off_c, 1, 70, 96
1, 89505, Note_on_c, 1, 62, 96
1, 89506, Note_off_c, 1, 62, 96
1, 89565, Note_on_c, 1, 58, 96
1, 89566, Note_off_c, 1, 58, 96
1, 89623, Note_on_c, 1, 60, 96
1, 89625, Note_off_c, 1, 60, 96
1, 89625, Note_on_c, 1, 72, 96
1, 89626, Note_off_c, 1, 72, 96
1, 89684, Note_on_c, 1, 72, 96
1, 89685, Note_off_c, 1, 72, 96
1, 89689, Note_on_c, 1, 65, 96
1, 89689, Note_on_c, 1, 57, 96
1, 89690, Note_off_c, 1, 65, 96
1, 89690, Note_off_c, 1, 57, 96
1, 89750, Note_on_c, 1, 72, 96
1, 89751, Note_off_c, 1, 72, 96
1, 89813, Note_on_c, 1, 77, 96
1, 89814, Note_off_c, 1, 77, 96
1, 89932, Note_on_c, 1, 63, 96
1, 89935, Note_off_c, 1, 63, 96
1, 89935, Note_on_c, 1, 70, 96
1, 89935, Note_on_c, 1, 53, 96
1, 89936, Note_off_c, 1, 70, 96
1, 89936, Note_off_c, 1, 53, 96
1, 90051, Note_on_c, 1, 58, 96
1, 90052, Note_off_c, 1, 58, 96
1, 90054, Note_on_c, 1, 62, 96
1, 90055, Note_off_c, 1, 62, 96
1, 90058, Note_on_c, 1, 70, 96
1, 90060, Note_off_c, 1, 70, 96
1, 90060, Note_on_c, 1, 53, 96
1, 90061, Note_off_c, 1, 53, 96
1, 90177, Note_on_c, 1, 56, 96
1, 90178, Note_off_c, 1, 56, 96
1, 90181, Note_on_c, 1, 65, 96
1, 90182, Note_off_c, 1, 65, 96
1, 90299, Note_on_c, 1, 58, 96
1, 90300, Note_off_c, 1, 58, 96
1, 90302, Note_on_c, 1, 74, 96
1, 90304, Note_off_c, 1, 74, 96
1, 90304, Note_on_c, 1, 56, 96
1, 90306, Note_off_c, 1, 56, 96
1, 90306, Note_on_c, 1, 62, 96
1, 90307, Note_off_c, 1, 62, 96
1, 90423, Note_on_c, 1, 71, 96
1, 90425, Note_off_c, 1, 71, 96
1, 90425, Note_on_c, 1, 61, 96
1, 90426, Note_off_c, 1, 61, 96
1, 90430, Note_on_c, 1, 65, 96
1, 90431, Note_off_c, 1, 65, 96
1, 90546, Note_on_c, 1, 68, 96
1, 90547, Note_off_c, 1, 68, 96
1, 90549, Note_on_c, 1, 74, 96
1, 90550, Note_off_c, 1, 74, 96
1, 90670, Note_on_c, 1, 80, 96
1, 90671, Note_off_c, 1, 80, 96
1, 90674, Note_on_c, 1, 71, 96
1, 90676, Note_off_c, 1, 71, 96
1, 90676, Note_on_c, 1, 43, 96
1, 90677, Note_off_c, 1, 43, 96
1, 90679, Note_on_c, 1, 55, 96
1, 90680, Note_off_c, 1, 55, 96
1, 90795, Note_on_c, 1, 52, 96
1, 90797, Note_off_c, 1, 52, 96
1, 90797, Note_on_c, 1, 40, 96
1, 90798, Note_off_c, 1, 40, 96
1, 90917, Note_on_c, 1, 72, 96
1, 90919, Note_off_c, 1, 72, 96
1, 90919, Note_on_c, 1, 81, 96
1, 90920, Note_off_c, 1, 81, 96
1, 90922, Note_on_c, 1, 75, 96
1, 90923, Note_off_c, 1, 75, 96
1, 91042, Note_on_c, 1, 72, 96
1, 91045, Note_off_c, 1, 72, 96
1, 91045, Note_on_c, 1, 84, 96
1, 91045, Note_on_c, 1, 76, 96
1, 91046, Note_off_c, 1, 84, 96
1, 91046, Note_off_c, 1, 76, 96
1, 91160, Note_on_c, 1, 54, 96
1, 91161, Note_off_c, 1, 54, 96
1, 91164, Note_on_c, 1, 42, 96
1, 91165, Note_off_c, 1, 42, 96
1, 91227, Note_on_c, 1, 64, 96
1, 91228, Note_off_c, 1, 64, 96
1, 91286, Note_on_c, 1, 53, 96
1, 91287, Note_off_c, 1, 53, 96
1, 91289, Note_on_c, 1, 72, 96
1, 91290, Note_off_c, 1, 72, 96
1, 91292, Note_on_c, 1, 77, 96
1, 91296, Note_off_c, 1, 77, 96
1, 91296, Note_on_c, 1, 81, 96
1, 91296, Note_on_c, 1, 69, 96
1, 91296, Note_on_c, 1, 57, 96
1, 91297, Note_off_c, 1, 81, 96
1, 91297, Note_off_c, 1, 69, 96
1, 91297, Note_off_c, 1, 57, 96
1, 91413, Note_on_c, 1, 46, 96
1, 91414, Note_off_c, 1, 46, 96
1, 91417, Note_on_c, 1, 70, 96
1, 91418, Note_off_c, 1, 70, 96
1, 91534, Note_on_c, 1, 45, 96
1, 91536, Note_off_c, 1, 45, 96
1, 91536, Note_on_c, 1, 65, 96
1, 91537, Note_off_c, 1, 65, 96
1, 91540, Note_on_c, 1, 74, 96
1, 91542, Note_off_c, 1, 74, 96
1, 91542, Note_on_c, 1, 68, 96
1, 91543, Note_off_c, 1, 68, 96
1, 91659, Note_on_c, 1, 82, 96
1, 91660, Note_off_c, 1, 82, 96
1, 91664, Note_on_c, 1, 63, 96
1, 91664, Note_on_c, 1, 51, 96
1, 91666, Note_off_c, 1, 63, 96
1, 91666, Note_off_c, 1, 51, 96
1, 91666, Note_on_c, 1, 55, 96
1, 91667, Note_off_c, 1, 55, 96
1, 91786, Note_on_c, 1, 65, 96
1, 91786, Note_on_c, 1, 55, 96
1, 91788, Note_off_c, 1, 65, 96
1, 91788, Note_off_c, 1, 55, 96
1, 91788, Note_on_c, 1, 59, 96
1, 91789, Note_off_c, 1, 59, 96
1, 91848, Note_on_c, 1, 79, 96
1, 91848, Note_on_c, 1, 67, 96
1, 91849, Note_off_c, 1, 79, 96
1, 91849, Note_off_c, 1, 67, 96
1, 91852, Note_on_c, 1, 71, 96
1, 91853, Note_off_c, 1, 71, 96
1, 91972, Note_on_c, 1, 74, 96
1, 91972, Note_on_c, 1, 70, 96
1, 91972, Note_on_c, 1, 67, 96
1, 91974, Note_off_c, 1, 74, 96
1, 91974, Note_off_c, 1, 70, 96
1, 91974, Note_off_c, 1, 67, 96
1, 91974, Note_on_c, 1, 79, 96
1, 91975, Note_off_c, 1, 79, 96
1, 92095, Note_on_c, 1, 43, 96
1, 92095, Note_on_c, 1, 55, 96
1, 92097, Note_off_c, 1, 43, 96
1, 92097, Note_off_c, 1, 55, 96
1, 92097, Note_on_c, 1, 79, 96
1, 92098, Note_off_c, 1, 79, 96
1, 92100, Note_on_c, 1, 72, 96
1, 92102, Note_off_c, 1, 72, 96
1, 92102, Note_on_c, 1, 84, 96
1, 92104, Note_off_c, 1, 84, 96
1, 92104, Note_on_c, 1, 75, 96
1, 92105, Note_off_c, 1, 75, 96
1, 92220, Note_on_c, 1, 55, 96
1, 92221, Note_off_c, 1, 55, 96
1, 92224, Note_on_c, 1, 43, 96
1, 92225, Note_off_c, 1, 43, 96
1, 92341, Note_on_c, 1, 79, 96
1, 92341, Note_on_c, 1, 67, 96
1, 92342, Note_off_c, 1, 79, 96
1, 92342, Note_off_c, 1, 67, 96
1, 92345, Note_on_c, 1, 48, 96
1, 92346, Note_off_c, 1, 48, 96
1, 92464, Note_on_c, 1, 52, 96
1, 92467, Note_off_c, 1, 52, 96
1, 92467, Note_on_c, 1, 55, 96
1, 92467, Note_on_c, 1, 60, 96
1, 92468, Note_off_c, 1, 55, 96
1, 92468, Note_off_c, 1, 60, 96
1, 92583, Note_on_c, 1, 76, 96
1, 92585, Note_off_c, 1, 76, 96
1, 92585, Note_on_c, 1, 48, 96
1, 92586, Note_off_c, 1, 48, 96
1, 92588, Note_on_c, 1, 81, 96
1, 92590, Note_off_c, 1, 81, 96
1, 92590, Note_on_c, 1, 52, 96
1, 92591, Note_off_c, 1, 52, 96
1, 92708, Note_on_c, 1, 76, 96
1, 92709, Note_off_c, 1, 76, 96
1, 92713, Note_on_c, 1, 67, 96
1, 92713, Note_on_c, 1, 48, 96
1, 92714, Note_off_c, 1, 67, 96
1, 92714, Note_off_c, 1, 48, 96
1, 92829, Note_on_c, 1, 71, 96
1, 92830, Note_off_c, 1, 71, 96
1, 92836, Note_on_c, 1, 67, 96
1, 92838, Note_off_c, 1, 67, 96
1, 92838, Note_on_c, 1, 74, 96
1, 92839, Note_off_c, 1, 74, 96
1, 92956, Note_on_c, 1, 67, 96
1, 92959, Note_off_c, 1, 67, 96
1, 92959, Note_on_c, 1, 50, 96
1, 92959, Note_on_c, 1, 59, 96
1, 92961, Note_off_c, 1, 50, 96
1, 92961, Note_off_c, 1, 59, 96
1, 92961, Note_on_c, 1, 75, 96
1, 92962, Note_off_c, 1, 75, 96
1, 92964, Note_on_c, 1, 55, 96
1, 92965, Note_off_c, 1, 55, 96
1, 93020, Note_on_c, 1, 83, 96
1, 93020, Note_on_c, 1, 71, 96
1, 93021, Note_off_c, 1, 83, 96
1, 93021, Note_off_c, 1, 71, 96
1, 93081, Note_on_c, 1, 55, 96
1, 93082, Note_off_c, 1, 55, 96
1, 93087, Note_on_c, 1, 43, 96
1, 93088, Note_off_c, 1, 43, 96
1, 93207, Note_on_c, 1, 71, 96
1, 93207, Note_on_c, 1, 76, 96
1, 93208, Note_off_c, 1, 71, 96
1, 93208, Note_off_c, 1, 76, 96
1, 93211, Note_on_c, 1, 83, 96
1, 93212, Note_off_c, 1, 83, 96
1, 93214, Note_on_c, 1, 40, 96
1, 93215, Note_off_c, 1, 40, 96
1, 93217, Note_on_c, 1, 52, 96
1, 93218, Note_off_c, 1, 52, 96
1, 93301, Note_on_c, 1, 74, 96
1, 93302, Note_off_c, 1, 74, 96
1, 93313, Note_on_c, 1, 71, 96
1, 93313, Note_on_c, 1, 83, 96
1, 93314, Note_off_c, 1, 71, 96
1, 93314, Note_off_c, 1, 83, 96
1, 93340, Note_on_c, 1, 57, 96
1, 93342, Note_off_c, 1, 57, 96
1, 93342, Note_on_c, 1, 45, 96
1, 93344, Note_off_c, 1, 45, 96
1, 93344, Note_on_c, 1, 74, 96
1, 93345, Note_off_c, 1, 74, 96
1, 93432, Note_on_c, 1, 76, 96
1, 93433, Note_off_c, 1, 76, 96
1, 93462, Note_on_c, 1, 50, 96
1, 93464, Note_off_c, 1, 50, 96
1, 93464, Note_on_c, 1, 72, 96
1, 93465, Note_off_c, 1, 72, 96
1, 93468, Note_on_c, 1, 81, 96
1, 93469, Note_off_c, 1, 81, 96
1, 93472, Note_on_c, 1, 38, 96
1, 93473, Note_off_c, 1, 38, 96
1, 93585, Note_on_c, 1, 69, 96
1, 93586, Note_off_c, 1, 69, 96
1, 93591, Note_on_c, 1, 75, 96
1, 93591, Note_on_c, 1, 45, 96
1, 93592, Note_off_c, 1, 75, 96
1, 93592, Note_off_c, 1, 45, 96
1, 93595, Note_on_c, 1, 57, 96
1, 93596, Note_off_c, 1, 57, 96
1, 93651, Note_on_c, 1, 69, 96
1, 93653, Note_off_c, 1, 69, 96
1, 93653, Note_on_c, 1, 79, 96
1, 93654, Note_off_c, 1, 79, 96
1, 93720, Note_on_c, 1, 57, 96
1, 93720, Note_on_c, 1, 53, 96
1, 93721, Note_off_c, 1, 57, 96
1, 93721, Note_off_c, 1, 53, 96
1, 93782, Note_on_c, 1, 74, 96
1, 93783, Note_off_c, 1, 74, 96
1, 93837, Note_on_c, 1, 57, 96
1, 93838, Note_off_c, 1, 57, 96
1, 93843, Note_on_c, 1, 65, 96
1, 93846, Note_off_c, 1, 65, 96
1, 93846, Note_on_c, 1, 74, 96
1, 93846, Note_on_c, 1, 62, 96
1, 93847, Note_off_c, 1, 74, 96
1, 93847, Note_off_c, 1, 62, 96
1, 93901, Note_on_c, 1, 74, 96
1, 93902, Note_off_c, 1, 74, 96
1, 93906, Note_on_c, 1, 79, 96
1, 93907, Note_off_c, 1, 79, 96
1, 93961, Note_on_c, 1, 50, 96
1, 93962, Note_off_c, 1, 50, 96
1, 93965, Note_on_c, 1, 71, 96
1, 93967, Note_off_c, 1, 71, 96
1, 93967, Note_on_c, 1, 83, 96
1, 93968, Note_off_c, 1, 83, 96
1, 94030, Note_on_c, 1, 71, 96
1, 94031, Note_off_c, 1, 71, 96
1, 94086, Note_on_c, 1, 55, 96
1, 94089, Note_off_c, 1, 55, 96
1, 94089, Note_on_c, 1, 65, 96
1, 94089, Note_on_c, 1, 59, 96
1, 94090, Note_off_c, 1, 65, 96
1, 94090, Note_off_c, 1, 59, 96
1, 94093, Note_on_c, 1, 79, 96
1, 94094, Note_off_c, 1, 79, 96
1, 94154, Note_on_c, 1, 77, 96
1, 94155, Note_off_c, 1, 77, 96
1, 94212, Note_on_c, 1, 76, 96
1, 94212, Note_on_c, 1, 48, 96
1, 94213, Note_off_c, 1, 76, 96
1, 94213, Note_off_c, 1, 48, 96
1, 94274, Note_on_c, 1, 76, 96
1, 94275, Note_off_c, 1, 76, 96
1, 94334, Note_on_c, 1, 72, 96
1, 94336, Note_off_c, 1, 72, 96
1, 94336, Note_on_c, 1, 55, 96
1, 94337, Note_off_c, 1, 55, 96
1, 94339, Note_on_c, 1, 79, 96
1, 94340, Note_off_c, 1, 79, 96
1, 94402, Note_on_c, 1, 71, 96
1, 94403, Note_off_c, 1, 71, 96
1, 94457, Note_on_c, 1, 72, 96
1, 94458, Note_off_c, 1, 72, 96
1, 94465, Note_on_c, 1, 60, 96
1, 94465, Note_on_c, 1, 64, 96
1, 94467, Note_off_c, 1, 60, 96
1, 94467, Note_off_c, 1, 64, 96
1, 94467, Note_on_c, 1, 55, 96
1, 94468, Note_off_c, 1, 55, 96
1, 94524, Note_on_c, 1, 76, 96
1, 94525, Note_off_c, 1, 76, 96
1, 94586, Note_on_c, 1, 76, 96
1, 94587, Note_off_c, 1, 76, 96
1, 94591, Note_on_c, 1, 60, 96
1, 94591, Note_on_c, 1, 48, 96
1, 94592, Note_off_c, 1, 60, 96
1, 94592, Note_off_c, 1, 48, 96
1, 94648, Note_on_c, 1, 79, 96
1, 94649, Note_off_c, 1, 79, 96
1, 94710, Note_on_c, 1, 79, 96
1, 94711, Note_off_c, 1, 79, 96
1, 94713, Note_on_c, 1, 55, 96
1, 94715, Note_off_c, 1, 55, 96
1, 94715, Note_on_c, 1, 60, 96
1, 94716, Note_off_c, 1, 60, 96
1, 94836, Note_on_c, 1, 45, 96
1, 94838, Note_off_c, 1, 45, 96
1, 94838, Note_on_c, 1, 57, 96
1, 94840, Note_off_c, 1, 57, 96
1, 94840, Note_on_c, 1, 69, 96
1, 94841, Note_off_c, 1, 69, 96
1, 94958, Note_on_c, 1, 77, 96
1, 94958, Note_on_c, 1, 57, 96
1, 94960, Note_off_c, 1, 77, 96
1, 94960, Note_off_c, 1, 57, 96
1, 94960, Note_on_c, 1, 60, 96
1, 94962, Note_off_c, 1, 60, 96
1, 94962, Note_on_c, 1, 65, 96
1, 94963, Note_off_c, 1, 65, 96
1, 95021, Note_on_c, 1, 65, 96
1, 95022, Note_off_c, 1, 65, 96
1, 95025, Note_on_c, 1, 72, 96
1, 95026, Note_off_c, 1, 72, 96
1, 95144, Note_on_c, 1, 69, 96
1, 95145, Note_off_c, 1, 69, 96
1, 95203, Note_on_c, 1, 71, 96
1, 95204, Note_off_c, 1, 71, 96
1, 95264, Note_on_c, 1, 69, 96
1, 95265, Note_off_c, 1, 69, 96
1, 95267, Note_on_c, 1, 65, 96
1, 95268, Note_off_c, 1, 65, 96
1, 95271, Note_on_c, 1, 62, 96
1, 95273, Note_off_c, 1, 62, 96
1, 95273, Note_on_c, 1, 57, 96
1, 95274, Note_off_c, 1, 57, 96
1, 95388, Note_on_c, 1, 53, 96
1, 95390, Note_off_c, 1, 53, 96
1, 95390, Note_on_c, 1, 57, 96
1, 95391, Note_off_c, 1, 57, 96
1, 95393, Note_on_c, 1, 74, 96
1, 95394, Note_off_c, 1, 74, 96
1, 95398, Note_on_c, 1, 62, 96
1, 95398, Note_on_c, 1, 53, 96
1, 95399, Note_off_c, 1, 62, 96
1, 95399, Note_off_c, 1, 53, 96
1, 95515, Note_on_c, 1, 57, 96
1, 95516, Note_off_c, 1, 57, 96
1, 95518, Note_on_c, 1, 53, 96
1, 95519, Note_off_c, 1, 53, 96
1, 95522, Note_on_c, 1, 62, 96
1, 95523, Note_off_c, 1, 62, 96
1, 95578, Note_on_c, 1, 65, 96
1, 95579, Note_off_c, 1, 65, 96
1, 95642, Note_on_c, 1, 46, 96
1, 95644, Note_off_c, 1, 46, 96
1, 95644, Note_on_c, 1, 67, 96
1, 95645, Note_off_c, 1, 67, 96
1, 95700, Note_on_c, 1, 60, 96
1, 95701, Note_off_c, 1, 60, 96
1, 95760, Note_on_c, 1, 58, 96
1, 95762, Note_off_c, 1, 58, 96
1, 95762, Note_on_c, 1, 46, 96
1, 95763, Note_off_c, 1, 46, 96
1, 95767, Note_on_c, 1, 34, 96
1, 95768, Note_off_c, 1, 34, 96
1, 95828, Note_on_c, 1, 66, 96
1, 95829, Note_off_c, 1, 66, 96
1, 95884, Note_on_c, 1, 60, 96
1, 95885, Note_off_c, 1, 60, 96
1, 95888, Note_on_c, 1, 58, 96
1, 95890, Note_off_c, 1, 58, 96
1, 95890, Note_on_c, 1, 55, 96
1, 95892, Note_off_c, 1, 55, 96
1, 95892, Note_on_c, 1, 67, 96
1, 95893, Note_off_c, 1, 67, 96
1, 95931, Note_on_c, 1, 77, 96
1, 95932, Note_off_c, 1, 77, 96
1, 95970, Note_on_c, 1, 69, 96
1, 95971, Note_off_c, 1, 69, 96
1, 96110, Note_on_c, 1, 60, 96
1, 96110, Note_on_c, 1, 58, 96
1, 96111, Note_off_c, 1, 60, 96
1, 96111, Note_off_c, 1, 58, 96
1, 96115, Note_on_c, 1, 70, 96
1, 96115, Note_on_c, 1, 64, 96
1, 96116, Note_off_c, 1, 70, 96
1, 96116, Note_off_c, 1, 64, 96
1, 96227, Note_on_c, 1, 55, 96
1, 96228, Note_off_c, 1, 55, 96
1, 96230, Note_on_c, 1, 58, 96
1, 96232, Note_off_c, 1, 58, 96
1, 96232, Note_on_c, 1, 60, 96
1, 96233, Note_off_c, 1, 60, 96
1, 96354, Note_on_c, 1, 65, 96
1, 96355, Note_off_c, 1, 65, 96
1, 96472, Note_on_c, 1, 68, 96
1, 96473, Note_off_c, 1, 68, 96
1, 96477, Note_on_c, 1, 60, 96
1, 96477, Note_on_c, 1, 48, 96
1, 96478, Note_off_c, 1, 60, 96
1, 96478, Note_off_c, 1, 48, 96
1, 96595, Note_on_c, 1, 64, 96
1, 96596, Note_off_c, 1, 64, 96
1, 96599, Note_on_c, 1, 55, 96
1, 96601, Note_off_c, 1, 55, 96
1, 96601, Note_on_c, 1, 58, 96
1, 96603, Note_off_c, 1, 58, 96
1, 96603, Note_on_c, 1, 43, 96
1, 96604, Note_off_c, 1, 43, 96
1, 96715, Note_on_c, 1, 82, 96
1, 96716, Note_off_c, 1, 82, 96
1, 96720, Note_on_c, 1, 74, 96
1, 96721, Note_off_c, 1, 74, 96
1, 96723, Note_on_c, 1, 86, 96
1, 96724, Note_off_c, 1, 86, 96
1, 96841, Note_on_c, 1, 48, 96
1, 96842, Note_off_c, 1, 48, 96
1, 96846, Note_on_c, 1, 36, 96
1, 96847, Note_off_c, 1, 36, 96
1, 96967, Note_on_c, 1, 67, 96
1, 96969, Note_off_c, 1, 67, 96
1, 96969, Note_on_c, 1, 81, 96
1, 96970, Note_off_c, 1, 81, 96
1, 97082, Note_on_c, 1, 57, 96
1, 97083, Note_off_c, 1, 57, 96
1, 97085, Note_on_c, 1, 60, 96
1, 97086, Note_off_c, 1, 60, 96
1, 97090, Note_on_c, 1, 77, 96
1, 97091, Note_off_c, 1, 77, 96
1, 97148, Note_on_c, 1, 86, 96
1, 97149, Note_off_c, 1, 86, 96
1, 97207, Note_on_c, 1, 60, 96
1, 97210, Note_off_c, 1, 60, 96
1, 97210, Note_on_c, 1, 79, 96
1, 97210, Note_on_c, 1, 53, 96
1, 97211, Note_off_c, 1, 79, 96
1, 97211, Note_off_c, 1, 53, 96
1, 97214, Note_on_c, 1, 57, 96
1, 97215, Note_off_c, 1, 57, 96
1, 97271, Note_on_c, 1, 84, 96
1, 97272, Note_off_c, 1, 84, 96
1, 97336, Note_on_c, 1, 84, 96
1, 97339, Note_off_c, 1, 84, 96
1, 97339, Note_on_c, 1, 57, 96
1, 97339, Note_on_c, 1, 60, 96
1, 97341, Note_off_c, 1, 57, 96
1, 97341, Note_off_c, 1, 60, 96
1, 97341, Note_on_c, 1, 65, 96
1, 97342, Note_off_c, 1, 65, 96
1, 97456, Note_on_c, 1, 82, 96
1, 97457, Note_off_c, 1, 82, 96
1, 97459, Note_on_c, 1, 58, 96
1, 97461, Note_off_c, 1, 58, 96
1, 97461, Note_on_c, 1, 77, 96
1, 97462, Note_off_c, 1, 77, 96
1, 97464, Note_on_c, 1, 46, 96
1, 97465, Note_off_c, 1, 46, 96
1, 97579, Note_on_c, 1, 58, 96
1, 97580, Note_off_c, 1, 58, 96
1, 97584, Note_on_c, 1, 65, 96
1, 97586, Note_off_c, 1, 65, 96
1, 97586, Note_on_c, 1, 62, 96
1, 97587, Note_off_c, 1, 62, 96
1, 97707, Note_on_c, 1, 82, 96
1, 97709, Note_off_c, 1, 82, 96
1, 97709, Note_on_c, 1, 74, 96
1, 97711, Note_off_c, 1, 74, 96
1, 97711, Note_on_c, 1, 77, 96
1, 97712, Note_off_c, 1, 77, 96
1, 97827, Note_on_c, 1, 64, 96
1, 97828, Note_off_c, 1, 64, 96
1, 97834, Note_on_c, 1, 52, 96
1, 97835, Note_off_c, 1, 52, 96
1, 97950, Note_on_c, 1, 81, 96
1, 97951, Note_off_c, 1, 81, 96
1, 97953, Note_on_c, 1, 48, 96
1, 97954, Note_off_c, 1, 48, 96
1, 97956, Note_on_c, 1, 75, 96
1, 97957, Note_off_c, 1, 75, 96
1, 98072, Note_on_c, 1, 81, 96
1, 98072, Note_on_c, 1, 51, 96
1, 98074, Note_off_c, 1, 81, 96
1, 98074, Note_off_c, 1, 51, 96
1, 98074, Note_on_c, 1, 69, 96
1, 98076, Note_off_c, 1, 69, 96
1, 98076, Note_on_c, 1, 72, 96
1, 98077, Note_off_c, 1, 72, 96
1, 98079, Note_on_c, 1, 77, 96
1, 98080, Note_off_c, 1, 77, 96
1, 98083, Note_on_c, 1, 39, 96
1, 98084, Note_off_c, 1, 39, 96
1, 98320, Note_on_c, 1, 67, 96
1, 98321, Note_off_c, 1, 67, 96
1, 98323, Note_on_c, 1, 55, 96
1, 98324, Note_off_c, 1, 55, 96
1, 98446, Note_on_c, 1, 51, 96
1, 98448, Note_off_c, 1, 51, 96
1, 98448, Note_on_c, 1, 75, 96
1, 98450, Note_off_c, 1, 75, 96
1, 98450, Note_on_c, 1, 39, 96
1, 98451, Note_off_c, 1, 39, 96
1, 98525, Note_on_c, 1, 78, 96
1, 98526, Note_off_c, 1, 78, 96
1, 98580, Note_on_c, 1, 75, 96
1, 98581, Note_off_c, 1, 75, 96
1, 98583, Note_on_c, 1, 55, 96
1, 98584, Note_off_c, 1, 55, 96
1, 98589, Note_on_c, 1, 43, 96
1, 98590, Note_off_c, 1, 43, 96
1, 98649, Note_on_c, 1, 72, 96
1, 98650, Note_off_c, 1, 72, 96
1, 98703, Note_on_c, 1, 54, 96
1, 98705, Note_off_c, 1, 54, 96
1, 98705, Note_on_c, 1, 66, 96
1, 98706, Note_off_c, 1, 66, 96
1, 98708, Note_on_c, 1, 63, 96
1, 98709, Note_off_c, 1, 63, 96
1, 98711, Note_on_c, 1, 60, 96
1, 98712, Note_off_c, 1, 60, 96
1, 98772, Note_on_c, 1, 75, 96
1, 98773, Note_off_c, 1, 75, 96
1, 98834, Note_on_c, 1, 67, 96
1, 98834, Note_on_c, 1, 46, 96
1, 98835, Note_off_c, 1, 67, 96
1, 98835, Note_off_c, 1, 46, 96
1, 98954, Note_on_c, 1, 47, 96
1, 98957, Note_off_c, 1, 47, 96
1, 98957, Note_on_c, 1, 74, 96
1, 98957, Note_on_c, 1, 65, 96
1, 98958, Note_off_c, 1, 74, 96
1, 98958, Note_off_c, 1, 65, 96
1, 99077, Note_on_c, 1, 50, 96
1, 99078, Note_off_c, 1, 50, 96
1, 99196, Note_on_c, 1, 55, 96
1, 99199, Note_off_c, 1, 55, 96
1, 99199, Note_on_c, 1, 75, 96
1, 99199, Note_on_c, 1, 58, 96
1, 99200, Note_off_c, 1, 75, 96
1, 99200, Note_off_c, 1, 58, 96
1, 99203, Note_on_c, 1, 72, 96
1, 99204, Note_off_c, 1, 72, 96
1, 99325, Note_on_c, 1, 46, 96
1, 99326, Note_off_c, 1, 46, 96
1, 99445, Note_on_c, 1, 53, 96
1, 99447, Note_off_c, 1, 53, 96
1, 99447, Note_on_c, 1, 56, 96
1, 99448, Note_off_c, 1, 56, 96
1, 99508, Note_on_c, 1, 73, 96
1, 99509, Note_off_c, 1, 73, 96
1, 99560, Note_on_c, 1, 71, 96
1, 99564, Note_off_c, 1, 71, 96
1, 99564, Note_on_c, 1, 62, 96
1, 99564, Note_on_c, 1, 50, 96
1, 99564, Note_on_c, 1, 38, 96
1, 99565, Note_off_c, 1, 62, 96
1, 99565, Note_off_c, 1, 50, 96
1, 99565, Note_off_c, 1, 38, 96
1, 99625, Note_on_c, 1, 65, 96
1, 99626, Note_off_c, 1, 65, 96
1, 99630, Note_on_c, 1, 74, 96
1, 99631, Note_off_c, 1, 74, 96
1, 99689, Note_on_c, 1, 36, 96
1, 99690, Note_off_c, 1, 36, 96
1, 99749, Note_on_c, 1, 69, 96
1, 99750, Note_off_c, 1, 69, 96
1, 99810, Note_on_c, 1, 71, 96
1, 99810, Note_on_c, 1, 48, 96
1, 99811, Note_off_c, 1, 71, 96
1, 99811, Note_off_c, 1, 48, 96
1, 99871, Note_on_c, 1, 72, 96
1, 99872, Note_off_c, 1, 72, 96
1, 99934, Note_on_c, 1, 56, 96
1, 99934, Note_on_c, 1, 44, 96
1, 99935, Note_off_c, 1, 56, 96
1, 99935, Note_off_c, 1, 44, 96
1, 99992, Note_on_c, 1, 74, 96
1, 99993, Note_off_c, 1, 74, 96
1, 100051, Note_on_c, 1, 55, 96
1, 100052, Note_off_c, 1, 55, 96
1, 100059, Note_on_c, 1, 53, 96
1, 100060, Note_off_c, 1, 53, 96
1, 100062, Note_on_c, 1, 59, 96
1, 100063, Note_off_c, 1, 59, 96
1, 100118, Note_on_c, 1, 62, 96
1, 100119, Note_off_c, 1, 62, 96
1, 100121, Note_on_c, 1, 71, 96
1, 100123, Note_off_c, 1, 71, 96
1, 100123, Note_on_c, 1, 65, 96
1, 100124, Note_off_c, 1, 65, 96
1, 100181, Note_on_c, 1, 53, 96
1, 100183, Note_off_c, 1, 53, 96
1, 100183, Note_on_c, 1, 57, 96
1, 100184, Note_off_c, 1, 57, 96
1, 100186, Note_on_c, 1, 60, 96
1, 100187, Note_off_c, 1, 60, 96
1, 100242, Note_on_c, 1, 71, 96
1, 100243, Note_off_c, 1, 71, 96
1, 100307, Note_on_c, 1, 69, 96
1, 100308, Note_off_c, 1, 69, 96
1, 100369, Note_on_c, 1, 65, 96
1, 100370, Note_off_c, 1, 65, 96
1, 100429, Note_on_c, 1, 54, 96
1, 100430, Note_off_c, 1, 54, 96
1, 100487, Note_on_c, 1, 59, 96
1, 100488, Note_off_c, 1, 59, 96
1, 100608, Note_on_c, 1, 62, 96
1, 100609, Note_off_c, 1, 62, 96
1, 100729, Note_on_c, 1, 64, 96
1, 100729, Note_on_c, 1, 60, 96
1, 100730, Note_off_c, 1, 64, 96
1, 100730, Note_off_c, 1, 60, 96
1, 100733, Note_on_c, 1, 48, 96
1, 100735, Note_off_c, 1, 48, 96
1, 100735, Note_on_c, 1, 55, 96
1, 100736, Note_off_c, 1, 55, 96
1, 100974, Note_on_c, 1, 69, 96
1, 100974, Note_on_c, 1, 60, 96
1, 100976, Note_off_c, 1, 69, 96
1, 100976, Note_off_c, 1, 60, 96
1, 100976, Note_on_c, 1, 52, 96
1, 100978, Note_off_c, 1, 52, 96
1, 100978, Note_on_c, 1, 57, 96
1, 100979, Note_off_c, 1, 57, 96
1, 101098, Note_on_c, 1, 67, 96
1, 101099, Note_off_c, 1, 67, 96
1, 101222, Note_on_c, 1, 66, 96
1, 101222, Note_on_c, 1, 45, 96
1, 101223, Note_off_c, 1, 66, 96
1, 101223, Note_off_c, 1, 45, 96
1, 101341, Note_on_c, 1, 69, 96
1, 101341, Note_on_c, 1, 62, 96
1, 101342, Note_off_c, 1, 69, 96
1, 101342, Note_off_c, 1, 62, 96
1, 101346, Note_on_c, 1, 57, 96
1, 101347, Note_off_c, 1, 57, 96
1, 101461, Note_on_c, 1, 67, 96
1, 101463, Note_off_c, 1, 67, 96
1, 101463, Note_on_c, 1, 73, 96
1, 101466, Note_off_c, 1, 73, 96
1, 101466, Note_on_c, 1, 79, 96
1, 101466, Note_on_c, 1, 57, 96
1, 101467, Note_off_c, 1, 79, 96
1, 101467, Note_off_c, 1, 57, 96
1, 101469, Note_on_c, 1, 61, 96
1, 101470, Note_off_c, 1, 61, 96
1, 101591, Note_on_c, 1, 69, 96
1, 101592, Note_off_c, 1, 69, 96
1, 101595, Note_on_c, 1, 78, 96
1, 101596, Note_off_c, 1, 78, 96
1, 101835, Note_on_c, 1, 71, 96
1, 101836, Note_off_c, 1, 71, 96
1, 101956, Note_on_c, 1, 57, 96
1, 101957, Note_off_c, 1, 57, 96
1, 102077, Note_on_c, 1, 73, 96
1, 102078, Note_off_c, 1, 73, 96
1, 102084, Note_on_c, 1, 64, 96
1, 102085, Note_off_c, 1, 64, 96
1, 102138, Note_on_c, 1, 62, 96
1, 102138, Note_on_c, 1, 50, 96
1, 102139, Note_off_c, 1, 62, 96
1, 102139, Note_off_c, 1, 50, 96
1, 102141, Note_on_c, 1, 74, 96
1, 102143, Note_off_c, 1, 74, 96
1, 102143, Note_on_c, 1, 66, 96
1, 102144, Note_off_c, 1, 66, 96
1, 102204, Note_on_c, 1, 72, 96
1, 102205, Note_off_c, 1, 72, 96
1, 102325, Note_on_c, 1, 74, 96
1, 102326, Note_off_c, 1, 74, 96
1, 102383, Note_on_c, 1, 74, 96
1, 102384, Note_off_c, 1, 74, 96
1, 102389, Note_on_c, 1, 65, 96
1, 102390, Note_off_c, 1, 65, 96
1, 102507, Note_on_c, 1, 50, 96
1, 102508, Note_off_c, 1, 50, 96
1, 102511, Note_on_c, 1, 62, 96
1, 102512, Note_off_c, 1, 62, 96
1, 102637, Note_on_c, 1, 82, 96
1, 102637, Note_on_c, 1, 77, 96
1, 102637, Note_on_c, 1, 74, 96
1, 102638, Note_off_c, 1, 82, 96
1, 102638, Note_off_c, 1, 77, 96
1, 102638, Note_off_c, 1, 74, 96
1, 102640, Note_on_c, 1, 70, 96
1, 102641, Note_off_c, 1, 70, 96
1, 102758, Note_on_c, 1, 59, 96
1, 102759, Note_off_c, 1, 59, 96
1, 102762, Note_on_c, 1, 47, 96
1, 102763, Note_off_c, 1, 47, 96
1, 102816, Note_on_c, 1, 72, 96
1, 102817, Note_off_c, 1, 72, 96
1, 102819, Note_on_c, 1, 84, 96
1, 102820, Note_off_c, 1, 84, 96
1, 102822, Note_on_c, 1, 77, 96
1, 102823, Note_off_c, 1, 77, 96
1, 102883, Note_on_c, 1, 83, 96
1, 102883, Note_on_c, 1, 74, 96
1, 102885, Note_off_c, 1, 83, 96
1, 102885, Note_off_c, 1, 74, 96
1, 102885, Note_on_c, 1, 70, 96
1, 102887, Note_off_c, 1, 70, 96
1, 102887, Note_on_c, 1, 55, 96
1, 102889, Note_off_c, 1, 55, 96
1, 102889, Note_on_c, 1, 43, 96
1, 102890, Note_off_c, 1, 43, 96
1, 103090, Note_on_c, 1, 79, 96
1, 103091, Note_off_c, 1, 79, 96
1, 103340, Note_on_c, 1, 74, 96
1, 103340, Note_on_c, 1, 79, 96
1, 103341, Note_off_c, 1, 74, 96
1, 103341, Note_off_c, 1, 79, 96
1, 103443, Note_on_c, 1, 84, 96
1, 103444, Note_off_c, 1, 84, 96
1, 103462, Note_on_c, 1, 88, 96
1, 103462, Note_on_c, 1, 64, 96
1, 103464, Note_off_c, 1, 88, 96
1, 103464, Note_off_c, 1, 64, 96
1, 103464, Note_on_c, 1, 76, 96
1, 103465, Note_off_c, 1, 76, 96
1, 103471, Note_on_c, 1, 60, 96
1, 103473, Note_off_c, 1, 60, 96
1, 103473, Note_on_c, 1, 55, 96
1, 103474, Note_off_c, 1, 55, 96
1, 103570, Note_on_c, 1, 52, 96
1, 103570, Note_on_c, 1, 60, 96
1, 103571, Note_off_c, 1, 52, 96
1, 103571, Note_off_c, 1, 60, 96
1, 103573, Note_on_c, 1, 84, 96
1, 103576, Note_off_c, 1, 84, 96
1, 103576, Note_on_c, 1, 76, 96
1, 103576, Note_on_c, 1, 55, 96
1, 103577, Note_off_c, 1, 76, 96
1, 103577, Note_off_c, 1, 55, 96
1, 103663, Note_on_c, 1, 78, 96
1, 103664, Note_off_c, 1, 78, 96
1, 103697, Note_on_c, 1, 60, 96
1, 103701, Note_off_c, 1, 60, 96
1, 103701, Note_on_c, 1, 79, 96
1, 103701, Note_on_c, 1, 64, 96
1, 103701, Note_on_c, 1, 55, 96
1, 103702, Note_off_c, 1, 79, 96
1, 103702, Note_off_c, 1, 64, 96
1, 103702, Note_off_c, 1, 55, 96
1, 103820, Note_on_c, 1, 47, 96
1, 103821, Note_off_c, 1, 47, 96
1, 103941, Note_on_c, 1, 59, 96
1, 103943, Note_off_c, 1, 59, 96
1, 103943, Note_on_c, 1, 74, 96
1, 103944, Note_off_c, 1, 74, 96
1, 103946, Note_on_c, 1, 47, 96
1, 103947, Note_off_c, 1, 47, 96
1, 104066, Note_on_c, 1, 67, 96
1, 104067, Note_off_c, 1, 67, 96
1, 104185, Note_on_c, 1, 60, 96
1, 104185, Note_on_c, 1, 51, 96
1, 104187, Note_off_c, 1, 60, 96
1, 104187, Note_off_c, 1, 51, 96
1, 104187, Note_on_c, 1, 55, 96
1, 104188, Note_off_c, 1, 55, 96
1, 104191, Note_on_c, 1, 69, 96
1, 104192, Note_off_c, 1, 69, 96
1, 104426, Note_on_c, 1, 79, 96
1, 104427, Note_off_c, 1, 79, 96
1, 104430, Note_on_c, 1, 43, 96
1, 104431, Note_off_c, 1, 43, 96
1, 104433, Note_on_c, 1, 55, 96
1, 104435, Note_off_c, 1, 55, 96
1, 104435, Note_on_c, 1, 71, 96
1, 104436, Note_off_c, 1, 71, 96
1, 104668, Note_on_c, 1, 76, 96
1, 104668, Note_on_c, 1, 48, 96
1, 104669, Note_off_c, 1, 76, 96
1, 104669, Note_off_c, 1, 48, 96
1, 104675, Note_on_c, 1, 72, 96
1, 104677, Note_off_c, 1, 72, 96
1, 104677, Note_on_c, 1, 64, 96
1, 104678, Note_off_c, 1, 64, 96
1, 104795, Note_on_c, 1, 60, 96
1, 104796, Note_off_c, 1, 60, 96
1, 104799, Note_on_c, 1, 55, 96
1, 104799, Note_on_c, 1, 64, 96
1, 104800, Note_off_c, 1, 55, 96
1, 104800, Note_off_c, 1, 64, 96
1, 104915, Note_on_c, 1, 69, 96
1, 104916, Note_off_c, 1, 69, 96
1, 104918, Note_on_c, 1, 48, 96
1, 104919, Note_off_c, 1, 48, 96
1, 105039, Note_on_c, 1, 63, 96
1, 105040, Note_off_c, 1, 63, 96
1, 105157, Note_on_c, 1, 55, 96
1, 105158, Note_off_c, 1, 55, 96
1, 105161, Note_on_c, 1, 60, 96
1, 105161, Note_on_c, 1, 64, 96
1, 105162, Note_off_c, 1, 60, 96
1, 105162, Note_off_c, 1, 64, 96
1, 105164, Note_on_c, 1, 71, 96
1, 105165, Note_off_c, 1, 71, 96
1, 105403, Note_on_c, 1, 68, 96
1, 105403, Note_on_c, 1, 56, 96
1, 105404, Note_off_c, 1, 68, 96
1, 105404, Note_off_c, 1, 56, 96
1, 105406, Note_on_c, 1, 44, 96
1, 105407, Note_off_c, 1, 44, 96
1, 105527, Note_on_c, 1, 69, 96
1, 105528, Note_off_c, 1, 69, 96
1, 105647, Note_on_c, 1, 71, 96
1, 105648, Note_off_c, 1, 71, 96
1, 105652, Note_on_c, 1, 50, 96
1, 105653, Note_off_c, 1, 50, 96
1, 105777, Note_on_c, 1, 68, 96
1, 105777, Note_on_c, 1, 63, 96
1, 105777, Note_on_c, 1, 57, 96
1, 105777, Note_on_c, 1, 42, 96
1, 105778, Note_off_c, 1, 68, 96
1, 105778, Note_off_c, 1, 63, 96
1, 105778, Note_off_c, 1, 57, 96
1, 105778, Note_off_c, 1, 42, 96
1, 105892, Note_on_c, 1, 76, 96
1, 105893, Note_off_c, 1, 76, 96
1, 105898, Note_on_c, 1, 52, 96
1, 105900, Note_off_c, 1, 52, 96
1, 105900, Note_on_c, 1, 64, 96
1, 105901, Note_off_c, 1, 64, 96
1, 106014, Note_on_c, 1, 56, 96
1, 106015, Note_off_c, 1, 56, 96
1, 106019, Note_on_c, 1, 44, 96
1, 106020, Note_off_c, 1, 44, 96
1, 106135, Note_on_c, 1, 52, 96
1, 106137, Note_off_c, 1, 52, 96
1, 106137, Note_on_c, 1, 40, 96
1, 106138, Note_off_c, 1, 40, 96
1, 106141, Note_on_c, 1, 68, 96
1, 106141, Note_on_c, 1, 71, 96
1, 106142, Note_off_c, 1, 68, 96
1, 106142, Note_off_c, 1, 71, 96
1, 106258, Note_on_c, 1, 69, 96
1, 106258, Note_on_c, 1, 51, 96
1, 106260, Note_off_c, 1, 69, 96
1, 106260, Note_off_c, 1, 51, 96
1, 106260, Note_on_c, 1, 56, 96
1, 106261, Note_off_c, 1, 56, 96
1, 106264, Note_on_c, 1, 56, 96
1, 106266, Note_off_c, 1, 56, 96
1, 106266, Note_on_c, 1, 60, 96
1, 106267, Note_off_c, 1, 60, 96
1, 106386, Note_on_c, 1, 60, 96
1, 106386, Note_on_c, 1, 51, 96
1, 106386, Note_on_c, 1, 36, 96
1, 106387, Note_off_c, 1, 60, 96
1, 106387, Note_off_c, 1, 51, 96
1, 106387, Note_off_c, 1, 36, 96
1, 106389, Note_on_c, 1, 63, 96
1, 106391, Note_off_c, 1, 63, 96
1, 106391, Note_on_c, 1, 73, 96
1, 106392, Note_off_c, 1, 73, 96
1, 106394, Note_on_c, 1, 67, 96
1, 106395, Note_off_c, 1, 67, 96
1, 106512, Note_on_c, 1, 45, 96
1, 106513, Note_off_c, 1, 45, 96
1, 106515, Note_on_c, 1, 57, 96
1, 106516, Note_off_c, 1, 57, 96
1, 106632, Note_on_c, 1, 44, 96
1, 106634, Note_off_c, 1, 44, 96
1, 106634, Note_on_c, 1, 56, 96
1, 106636, Note_off_c, 1, 56, 96
1, 106636, Note_on_c, 1, 65, 96
1, 106637, Note_off_c, 1, 65, 96
1, 106817, Note_on_c, 1, 61, 96
1, 106818, Note_off_c, 1, 61, 96
1, 106877, Note_on_c, 1, 60, 96
1, 106878, Note_off_c, 1, 60, 96
1, 106883, Note_on_c, 1, 51, 96
1, 106884, Note_off_c, 1, 51, 96
1, 106939, Note_on_c, 1, 60, 96
1, 106940, Note_off_c, 1, 60, 96
1, 107000, Note_on_c, 1, 51, 96
1, 107001, Note_off_c, 1, 51, 96
1, 107006, Note_on_c, 1, 60, 96
1, 107007, Note_off_c, 1, 60, 96
1, 107125, Note_on_c, 1, 65, 96
1, 107126, Note_off_c, 1, 65, 96
1, 107130, Note_on_c, 1, 51, 96
1, 107131, Note_off_c, 1, 51, 96
1, 107308, Note_on_c, 1, 34, 96
1, 107309, Note_off_c, 1, 34, 96
1, 107366, Note_on_c, 1, 56, 96
1, 107367, Note_off_c, 1, 56, 96
1, 107370, Note_on_c, 1, 53, 96
1, 107370, Note_on_c, 1, 48, 96
1, 107371, Note_off_c, 1, 53, 96
1, 107371, Note_off_c, 1, 48, 96
1, 107373, Note_on_c, 1, 65, 96
1, 107375, Note_off_c, 1, 65, 96
1, 107375, Note_on_c, 1, 60, 96
1, 107376, Note_off_c, 1, 60, 96
1, 107494, Note_on_c, 1, 60, 96
1, 107496, Note_off_c, 1, 60, 96
1, 107496, Note_on_c, 1, 56, 96
1, 107497, Note_off_c, 1, 56, 96
1, 107613, Note_on_c, 1, 39, 96
1, 107614, Note_off_c, 1, 39, 96
1, 107731, Note_on_c, 1, 51, 96
1, 107732, Note_off_c, 1, 51, 96
1, 107735, Note_on_c, 1, 56, 96
1, 107736, Note_off_c, 1, 56, 96
1, 107741, Note_on_c, 1, 61, 96
1, 107742, Note_off_c, 1, 61, 96
1, 107860, Note_on_c, 1, 58, 96
1, 107861, Note_off_c, 1, 58, 96
1, 107864, Note_on_c, 1, 65, 96
1, 107865, Note_off_c, 1, 65, 96
1, 107980, Note_on_c, 1, 44, 96
1, 107981, Note_off_c, 1, 44, 96
1, 108098, Note_on_c, 1, 36, 96
1, 108099, Note_off_c, 1, 36, 96
1, 108156, Note_on_c, 1, 64, 96
1, 108157, Note_off_c, 1, 64, 96
1, 108216, Note_on_c, 1, 56, 96
1, 108218, Note_off_c, 1, 56, 96
1, 108218, Note_on_c, 1, 65, 96
1, 108219, Note_off_c, 1, 65, 96
1, 108222, Note_on_c, 1, 53, 96
1, 108223, Note_off_c, 1, 53, 96
1, 108283, Note_on_c, 1, 70, 96
1, 108284, Note_off_c, 1, 70, 96
1, 108341, Note_on_c, 1, 73, 96
1, 108341, Note_on_c, 1, 51, 96
1, 108342, Note_off_c, 1, 73, 96
1, 108342, Note_off_c, 1, 51, 96
1, 108344, Note_on_c, 1, 39, 96
1, 108345, Note_off_c, 1, 39, 96
1, 108403, Note_on_c, 1, 75, 96
1, 108404, Note_off_c, 1, 75, 96
1, 108464, Note_on_c, 1, 67, 96
1, 108466, Note_off_c, 1, 67, 96
1, 108466, Note_on_c, 1, 63, 96
1, 108469, Note_off_c, 1, 63, 96
1, 108469, Note_on_c, 1, 61, 96
1, 108469, Note_on_c, 1, 51, 96
1, 108470, Note_off_c, 1, 61, 96
1, 108470, Note_off_c, 1, 51, 96
1, 108474, Note_on_c, 1, 75, 96
1, 108474, Note_on_c, 1, 58, 96
1, 108475, Note_off_c, 1, 75, 96
1, 108475, Note_off_c, 1, 58, 96
1, 108533, Note_on_c, 1, 77, 96
1, 108534, Note_off_c, 1, 77, 96
1, 108591, Note_on_c, 1, 70, 96
1, 108592, Note_off_c, 1, 70, 96
1, 108596, Note_on_c, 1, 67, 96
1, 108599, Note_off_c, 1, 67, 96
1, 108599, Note_on_c, 1, 51, 96
1, 108599, Note_on_c, 1, 61, 96
1, 108601, Note_off_c, 1, 51, 96
1, 108601, Note_off_c, 1, 61, 96
1, 108601, Note_on_c, 1, 55, 96
1, 108602, Note_off_c, 1, 55, 96
1, 108657, Note_on_c, 1, 68, 96
1, 108658, Note_off_c, 1, 68, 96
1, 108721, Note_on_c, 1, 60, 96
1, 108723, Note_off_c, 1, 60, 96
1, 108723, Note_on_c, 1, 56, 96
1, 108724, Note_off_c, 1, 56, 96
1, 108727, Note_on_c, 1, 73, 96
1, 108727, Note_on_c, 1, 68, 96
1, 108728, Note_off_c, 1, 73, 96
1, 108728, Note_off_c, 1, 68, 96
1, 108785, Note_on_c, 1, 73, 96
1, 108786, Note_off_c, 1, 73, 96
1, 108788, Note_on_c, 1, 68, 96
1, 108789, Note_off_c, 1, 68, 96
1, 108845, Note_on_c, 1, 65, 96
1, 108846, Note_off_c, 1, 65, 96
1, 108848, Note_on_c, 1, 73, 96
1, 108849, Note_off_c, 1, 73, 96
1, 109028, Note_on_c, 1, 77, 96
1, 109029, Note_off_c, 1, 77, 96
1, 109145, Note_on_c, 1, 37, 96
1, 109146, Note_off_c, 1, 37, 96
1, 109149, Note_on_c, 1, 49, 96
1, 109150, Note_off_c, 1, 49, 96
1, 109158, Note_on_c, 1, 85, 96
1, 109159, Note_off_c, 1, 85, 96
1, 109173, Note_on_c, 1, 84, 96
1, 109174, Note_off_c, 1, 84, 96
1, 109195, Note_on_c, 1, 75, 96
1, 109196, Note_off_c, 1, 75, 96
1, 109590, Note_on_c, 1, 68, 96
1, 109590, Note_on_c, 1, 77, 96
1, 109590, Note_on_c, 1, 72, 96
1, 109590, Note_on_c, 1, 29, 96
1, 109591, Note_off_c, 1, 68, 96
1, 109591, Note_off_c, 1, 77, 96
1, 109591, Note_off_c, 1, 72, 96
1, 109591, Note_off_c, 1, 29, 96
1, 109676, Note_on_c, 1, 56, 96
1, 109677, Note_off_c, 1, 56, 96
1, 109707, Note_on_c, 1, 80, 96
1, 109708, Note_off_c, 1, 80, 96
1, 109755, Note_on_c, 1, 86, 96
1, 109755, Note_on_c, 1, 74, 96
1, 109756, Note_off_c, 1, 86, 96
1, 109756, Note_off_c, 1, 74, 96
1, 109792, Note_on_c, 1, 49, 96
1, 109796, Note_off_c, 1, 49, 96
1, 109796, Note_on_c, 1, 74, 96
1, 109796, Note_on_c, 1, 61, 96
1, 109796, Note_on_c, 1, 89, 96
1, 109797, Note_off_c, 1, 74, 96
1, 109797, Note_off_c, 1, 61, 96
1, 109797, Note_off_c, 1, 89, 96
1, 109854, Note_on_c, 1, 79, 96
1, 109855, Note_off_c, 1, 79, 96
1, 109916, Note_on_c, 1, 64, 96
1, 109918, Note_off_c, 1, 64, 96
1, 109918, Note_on_c, 1, 76, 96
1, 109920, Note_off_c, 1, 76, 96
1, 109920, Note_on_c, 1, 60, 96
1, 109921, Note_off_c, 1, 60, 96
1, 109923, Note_on_c, 1, 58, 96
1, 109924, Note_off_c, 1, 58, 96
1, 110100, Note_on_c, 1, 79, 96
1, 110101, Note_off_c, 1, 79, 96
1, 110103, Note_on_c, 1, 67, 96
1, 110104, Note_off_c, 1, 67, 96
1, 110162, Note_on_c, 1, 60, 96
1, 110162, Note_on_c, 1, 48, 96
1, 110163, Note_off_c, 1, 60, 96
1, 110163, Note_off_c, 1, 48, 96
1, 110167, Note_on_c, 1, 65, 96
1, 110168, Note_off_c, 1, 65, 96
1, 110226, Note_on_c, 1, 66, 96
1, 110227, Note_off_c, 1, 66, 96
1, 110284, Note_on_c, 1, 67, 96
1, 110285, Note_off_c, 1, 67, 96
1, 110292, Note_on_c, 1, 43, 96
1, 110293, Note_off_c, 1, 43, 96
1, 110409, Note_on_c, 1, 59, 96
1, 110409, Note_on_c, 1, 50, 96
1, 110412, Note_off_c, 1, 59, 96
1, 110412, Note_off_c, 1, 50, 96
1, 110412, Note_on_c, 1, 71, 96
1, 110412, Note_on_c, 1, 55, 96
1, 110413, Note_off_c, 1, 71, 96
1, 110413, Note_off_c, 1, 55, 96
1, 110532, Note_on_c, 1, 62, 96
1, 110532, Note_on_c, 1, 67, 96
1, 110533, Note_off_c, 1, 62, 96
1, 110533, Note_off_c, 1, 67, 96
1, 110535, Note_on_c, 1, 52, 96
1, 110536, Note_off_c, 1, 52, 96
1, 110539, Note_on_c, 1, 40, 96
1, 110540, Note_off_c, 1, 40, 96
1, 110778, Note_on_c, 1, 64, 96
1, 110779, Note_off_c, 1, 64, 96
1, 110783, Note_on_c, 1, 69, 96
1, 110783, Note_on_c, 1, 72, 96
1, 110784, Note_off_c, 1, 69, 96
1, 110784, Note_off_c, 1, 72, 96
1, 110786, Note_on_c, 1, 45, 96
1, 110787, Note_off_c, 1, 45, 96
1, 111021, Note_on_c, 1, 74, 96
1, 111022, Note_off_c, 1, 74, 96
1, 111143, Note_on_c, 1, 54, 96
1, 111144, Note_off_c, 1, 54, 96
1, 111150, Note_on_c, 1, 50, 96
1, 111150, Note_on_c, 1, 60, 96
1, 111151, Note_off_c, 1, 50, 96
1, 111151, Note_off_c, 1, 60, 96
1, 111264, Note_on_c, 1, 79, 96
1, 111265, Note_off_c, 1, 79, 96
1, 111384, Note_on_c, 1, 59, 96
1, 111386, Note_off_c, 1, 59, 96
1, 111386, Note_on_c, 1, 54, 96
1, 111387, Note_off_c, 1, 54, 96
1, 111446, Note_on_c, 1, 75, 96
1, 111447, Note_off_c, 1, 75, 96
1, 111512, Note_on_c, 1, 76, 96
1, 111512, Note_on_c, 1, 48, 96
1, 111514, Note_off_c, 1, 76, 96
1, 111514, Note_off_c, 1, 48, 96
1, 111514, Note_on_c, 1, 74, 96
1, 111515, Note_off_c, 1, 74, 96
1, 111632, Note_on_c, 1, 71, 96
1, 111632, Note_on_c, 1, 59, 96
1, 111633, Note_off_c, 1, 71, 96
1, 111633, Note_off_c, 1, 59, 96
1, 111753, Note_on_c, 1, 71, 96
1, 111755, Note_off_c, 1, 71, 96
1, 111755, Note_on_c, 1, 77, 96
1, 111757, Note_off_c, 1, 77, 96
1, 111757, Note_on_c, 1, 55, 96
1, 111758, Note_off_c, 1, 55, 96
1, 111761, Note_on_c, 1, 74, 96
1, 111761, Note_on_c, 1, 43, 96
1, 111763, Note_off_c, 1, 74, 96
1, 111763, Note_off_c, 1, 43, 96
1, 111763, Note_on_c, 1, 65, 96
1, 111764, Note_off_c, 1, 65, 96
1, 111878, Note_on_c, 1, 65, 96
1, 111879, Note_off_c, 1, 65, 96
1, 111881, Note_on_c, 1, 59, 96
1, 111883, Note_off_c, 1, 59, 96
1, 111883, Note_on_c, 1, 55, 96
1, 111885, Note_off_c, 1, 55, 96
1, 111885, Note_on_c, 1, 74, 96
1, 111886, Note_off_c, 1, 74, 96
1, 112004, Note_on_c, 1, 53, 96
1, 112005, Note_off_c, 1, 53, 96
1, 112009, Note_on_c, 1, 86, 96
1, 112009, Note_on_c, 1, 77, 96
1, 112009, Note_on_c, 1, 41, 96
1, 112010, Note_off_c, 1, 86, 96
1, 112010, Note_off_c, 1, 77, 96
1, 112010, Note_off_c, 1, 41, 96
1, 112129, Note_on_c, 1, 86, 96
1, 112130, Note_off_c, 1, 86, 96
1, 112245, Note_on_c, 1, 88, 96
1, 112246, Note_off_c, 1, 88, 96
1, 112248, Note_on_c, 1, 43, 96
1, 112249, Note_off_c, 1, 43, 96
1, 112367, Note_on_c, 1, 79, 96
1, 112368, Note_off_c, 1, 79, 96
1, 112487, Note_on_c, 1, 55, 96
1, 112488, Note_off_c, 1, 55, 96
1, 112493, Note_on_c, 1, 79, 96
1, 112493, Note_on_c, 1, 52, 96
1, 112495, Note_off_c, 1, 79, 96
1, 112495, Note_off_c, 1, 52, 96
1, 112495, Note_on_c, 1, 60, 96
1, 112496, Note_off_c, 1, 60, 96
1, 112735, Note_on_c, 1, 76, 96
1, 112735, Note_on_c, 1, 48, 96
1, 112736, Note_off_c, 1, 76, 96
1, 112736, Note_off_c, 1, 48, 96
1, 112738, Note_on_c, 1, 79, 96
1, 112739, Note_off_c, 1, 79, 96
1, 112975, Note_on_c, 1, 61, 96
1, 112979, Note_off_c, 1, 61, 96
1, 112979, Note_on_c, 1, 69, 96
1, 112979, Note_on_c, 1, 67, 96
1, 112979, Note_on_c, 1, 57, 96
1, 112980, Note_off_c, 1, 69, 96
1, 112980, Note_off_c, 1, 67, 96
1, 112980, Note_off_c, 1, 57, 96
1, 112983, Note_on_c, 1, 78, 96
1, 112986, Note_off_c, 1, 78, 96
1, 112986, Note_on_c, 1, 81, 96
1, 112986, Note_on_c, 1, 55, 96
1, 112987, Note_off_c, 1, 81, 96
1, 112987, Note_off_c, 1, 55, 96
1, 113219, Note_on_c, 1, 66, 96
1, 113221, Note_off_c, 1, 66, 96
1, 113221, Note_on_c, 1, 57, 96
1, 113222, Note_off_c, 1, 57, 96
1, 113227, Note_on_c, 1, 78, 96
1, 113227, Note_on_c, 1, 62, 96
1, 113228, Note_off_c, 1, 78, 96
1, 113228, Note_off_c, 1, 62, 96
1, 113463, Note_on_c, 1, 50, 96
1, 113463, Note_on_c, 1, 62, 96
1, 113465, Note_off_c, 1, 50, 96
1, 113465, Note_off_c, 1, 62, 96
1, 113465, Note_on_c, 1, 38, 96
1, 113466, Note_off_c, 1, 38, 96
1, 113702, Note_on_c, 1, 62, 96
1, 113703, Note_off_c, 1, 62, 96
1, 113707, Note_on_c, 1, 66, 96
1, 113707, Note_on_c, 1, 60, 96
1, 113707, Note_on_c, 1, 57, 96
1, 113708, Note_off_c, 1, 66, 96
1, 113708, Note_off_c, 1, 60, 96
1, 113708, Note_off_c, 1, 57, 96
1, 113827, Note_on_c, 1, 69, 96
1, 113828, Note_off_c, 1, 69, 96
1, 113945, Note_on_c, 1, 44, 96
1, 113946, Note_off_c, 1, 44, 96
1, 113948, Note_on_c, 1, 71, 96
1, 113949, Note_off_c, 1, 71, 96
1, 113952, Note_on_c, 1, 68, 96
1, 113953, Note_off_c, 1, 68, 96
1, 114012, Note_on_c, 1, 67, 96
1, 114013, Note_off_c, 1, 67, 96
1, 114070, Note_on_c, 1, 57, 96
1, 114071, Note_off_c, 1, 57, 96
1, 114073, Note_on_c, 1, 45, 96
1, 114074, Note_off_c, 1, 45, 96
1, 114136, Note_on_c, 1, 72, 96
1, 114137, Note_off_c, 1, 72, 96
1, 114192, Note_on_c, 1, 55, 96
1, 114193, Note_off_c, 1, 55, 96
1, 114195, Note_on_c, 1, 50, 96
1, 114197, Note_off_c, 1, 50, 96
1, 114197, Note_on_c, 1, 59, 96
1, 114199, Note_off_c, 1, 59, 96
1, 114199, Note_on_c, 1, 74, 96
1, 114200, Note_off_c, 1, 74, 96
1, 114321, Note_on_c, 1, 71, 96
1, 114321, Note_on_c, 1, 59, 96
1, 114321, Note_on_c, 1, 55, 96
1, 114322, Note_off_c, 1, 71, 96
1, 114322, Note_off_c, 1, 59, 96
1, 114322, Note_off_c, 1, 55, 96
1, 114324, Note_on_c, 1, 50, 96
1, 114325, Note_off_c, 1, 50, 96
1, 114441, Note_on_c, 1, 59, 96
1, 114443, Note_off_c, 1, 59, 96
1, 114443, Note_on_c, 1, 74, 96
1, 114445, Note_off_c, 1, 74, 96
1, 114445, Note_on_c, 1, 47, 96
1, 114447, Note_off_c, 1, 47, 96
1, 114447, Note_on_c, 1, 65, 96
1, 114449, Note_off_c, 1, 65, 96
1, 114449, Note_on_c, 1, 71, 96
1, 114450, Note_off_c, 1, 71, 96
1, 114568, Note_on_c, 1, 76, 96
1, 114568, Note_on_c, 1, 65, 96
1, 114570, Note_off_c, 1, 76, 96
1, 114570, Note_off_c, 1, 65, 96
1, 114570, Note_on_c, 1, 55, 96
1, 114571, Note_off_c, 1, 55, 96
1, 114574, Note_on_c, 1, 71, 96
1, 114574, Note_on_c, 1, 59, 96
1, 114575, Note_off_c, 1, 71, 96
1, 114575, Note_off_c, 1, 59, 96
1, 114693, Note_on_c, 1, 65, 96
1, 114693, Note_on_c, 1, 69, 96
1, 114695, Note_off_c, 1, 65, 96
1, 114695, Note_off_c, 1, 69, 96
1, 114695, Note_on_c, 1, 59, 96
1, 114696, Note_off_c, 1, 59, 96
1, 114698, Note_on_c, 1, 55, 96
1, 114699, Note_off_c, 1, 55, 96
1, 114759, Note_on_c, 1, 79, 96
1, 114760, Note_off_c, 1, 79, 96
1, 114762, Note_on_c, 1, 67, 96
1, 114763, Note_off_c, 1, 67, 96
1, 114820, Note_on_c, 1, 43, 96
1, 114821, Note_off_c, 1, 43, 96
1, 114884, Note_on_c, 1, 76, 96
1, 114885, Note_off_c, 1, 76, 96
1, 114943, Note_on_c, 1, 48, 96
1, 114944, Note_off_c, 1, 48, 96
1, 114947, Note_on_c, 1, 67, 96
1, 114948, Note_off_c, 1, 67, 96
1, 115004, Note_on_c, 1, 76, 96
1, 115005, Note_off_c, 1, 76, 96
1, 115067, Note_on_c, 1, 76, 96
1, 115067, Note_on_c, 1, 55, 96
1, 115068, Note_off_c, 1, 76, 96
1, 115068, Note_off_c, 1, 55, 96
1, 115072, Note_on_c, 1, 64, 96
1, 115072, Note_on_c, 1, 60, 96
1, 115073, Note_off_c, 1, 64, 96
1, 115073, Note_off_c, 1, 60, 96
1, 115130, Note_on_c, 1, 76, 96
1, 115131, Note_off_c, 1, 76, 96
1, 115190, Note_on_c, 1, 48, 96
1, 115192, Note_off_c, 1, 48, 96
1, 115192, Note_on_c, 1, 77, 96
1, 115193, Note_off_c, 1, 77, 96
1, 115255, Note_on_c, 1, 77, 96
1, 115256, Note_off_c, 1, 77, 96
1, 115312, Note_on_c, 1, 69, 96
1, 115312, Note_on_c, 1, 59, 96
1, 115313, Note_off_c, 1, 69, 96
1, 115313, Note_off_c, 1, 59, 96
1, 115317, Note_on_c, 1, 65, 96
1, 115317, Note_on_c, 1, 55, 96
1, 115318, Note_off_c, 1, 65, 96
1, 115318, Note_off_c, 1, 55, 96
1, 115377, Note_on_c, 1, 71, 96
1, 115378, Note_off_c, 1, 71, 96
1, 115436, Note_on_c, 1, 59, 96
1, 115437, Note_off_c, 1, 59, 96
1, 115440, Note_on_c, 1, 55, 96
1, 115440, Note_on_c, 1, 65, 96
1, 115441, Note_off_c, 1, 55, 96
1, 115441, Note_off_c, 1, 65, 96
1, 115443, Note_on_c, 1, 74, 96
1, 115444, Note_off_c, 1, 74, 96
1, 115503, Note_on_c, 1, 65, 96
1, 115504, Note_off_c, 1, 65, 96
1, 115506, Note_on_c, 1, 73, 96
1, 115507, Note_off_c, 1, 73, 96
1, 115566, Note_on_c, 1, 55, 96
1, 115567, Note_off_c, 1, 55, 96
1, 115623, Note_on_c, 1, 69, 96
1, 115624, Note_off_c, 1, 69, 96
1, 115682, Note_on_c, 1, 57, 96
1, 115683, Note_off_c, 1, 57, 96
1, 115692, Note_on_c, 1, 64, 96
1, 115692, Note_on_c, 1, 69, 96
1, 115692, Note_on_c, 1, 61, 96
1, 115693, Note_off_c, 1, 64, 96
1, 115693, Note_off_c, 1, 69, 96
1, 115693, Note_off_c, 1, 61, 96
1, 115754, Note_on_c, 1, 77, 96
1, 115755, Note_off_c, 1, 77, 96
1, 115814, Note_on_c, 1, 79, 96
1, 115814, Note_on_c, 1, 62, 96
1, 115816, Note_off_c, 1, 79, 96
1, 115816, Note_off_c, 1, 62, 96
1, 115816, Note_on_c, 1, 67, 96
1, 115818, Note_off_c, 1, 67, 96
1, 115818, Note_on_c, 1, 57, 96
1, 115820, Note_off_c, 1, 57, 96
1, 115820, Note_on_c, 1, 73, 96
1, 115821, Note_off_c, 1, 73, 96
1, 115876, Note_on_c, 1, 75, 96
1, 115877, Note_off_c, 1, 75, 96
1, 115935, Note_on_c, 1, 76, 96
1, 115938, Note_off_c, 1, 76, 96
1, 115938, Note_on_c, 1, 69, 96
1, 115938, Note_on_c, 1, 43, 96
1, 115939, Note_off_c, 1, 69, 96
1, 115939, Note_off_c, 1, 43, 96
1, 115998, Note_on_c, 1, 79, 96
1, 115999, Note_off_c, 1, 79, 96
1, 116061, Note_on_c, 1, 56, 96
1, 116061, Note_on_c, 1, 52, 96
1, 116062, Note_off_c, 1, 56, 96
1, 116062, Note_off_c, 1, 52, 96
1, 116064, Note_on_c, 1, 74, 96
1, 116065, Note_off_c, 1, 74, 96
1, 116067, Note_on_c, 1, 80, 96
1, 116070, Note_off_c, 1, 80, 96
1, 116070, Note_on_c, 1, 62, 96
1, 116070, Note_on_c, 1, 59, 96
1, 116071, Note_off_c, 1, 62, 96
1, 116071, Note_off_c, 1, 59, 96
1, 116185, Note_on_c, 1, 69, 96
1, 116186, Note_off_c, 1, 69, 96
1, 116189, Note_on_c, 1, 66, 96
1, 116189, Note_on_c, 1, 57, 96
1, 116191, Note_off_c, 1, 66, 96
1, 116191, Note_off_c, 1, 57, 96
1, 116191, Note_on_c, 1, 78, 96
1, 116194, Note_off_c, 1, 78, 96
1, 116194, Note_on_c, 1, 69, 96
1, 116194, Note_on_c, 1, 74, 96
1, 116196, Note_off_c, 1, 69, 96
1, 116196, Note_off_c, 1, 74, 96
1, 116196, Note_on_c, 1, 62, 96
1, 116197, Note_off_c, 1, 62, 96
1, 116434, Note_on_c, 1, 78, 96
1, 116435, Note_off_c, 1, 78, 96
1, 116438, Note_on_c, 1, 83, 96
1, 116439, Note_off_c, 1, 83, 96
1, 116673, Note_on_c, 1, 53, 96
1, 116674, Note_off_c, 1, 53, 96
1, 116677, Note_on_c, 1, 88, 96
1, 116677, Note_on_c, 1, 76, 96
1, 116678, Note_off_c, 1, 88, 96
1, 116678, Note_off_c, 1, 76, 96
1, 116681, Note_on_c, 1, 81, 96
1, 116681, Note_on_c, 1, 60, 96
1, 116683, Note_off_c, 1, 81, 96
1, 116683, Note_off_c, 1, 60, 96
1, 116683, Note_on_c, 1, 50, 96
1, 116684, Note_off_c, 1, 50, 96
1, 116802, Note_on_c, 1, 83, 96
1, 116803, Note_off_c, 1, 83, 96
1, 116806, Note_on_c, 1, 76, 96
1, 116807, Note_off_c, 1, 76, 96
1, 116924, Note_on_c, 1, 59, 96
1, 116926, Note_off_c, 1, 59, 96
1, 116926, Note_on_c, 1, 88, 96
1, 116927, Note_off_c, 1, 88, 96
1, 116930, Note_on_c, 1, 74, 96
1, 116930, Note_on_c, 1, 77, 96
1, 116931, Note_off_c, 1, 74, 96
1, 116931, Note_off_c, 1, 77, 96
1, 116934, Note_on_c, 1, 55, 96
1, 116934, Note_on_c, 1, 53, 96
1, 116936, Note_off_c, 1, 55, 96
1, 116936, Note_off_c, 1, 53, 96
1, 116936, Note_on_c, 1, 50, 96
1, 116937, Note_off_c, 1, 50, 96
1, 117025, Note_on_c, 1, 86, 96
1, 117026, Note_off_c, 1, 86, 96
1, 117053, Note_on_c, 1, 43, 96
1, 117054, Note_off_c, 1, 43, 96
1, 117056, Note_on_c, 1, 86, 96
1, 117058, Note_off_c, 1, 86, 96
1, 117058, Note_on_c, 1, 55, 96
1, 117059, Note_off_c, 1, 55, 96
1, 117147, Note_on_c, 1, 84, 96
1, 117148, Note_off_c, 1, 84, 96
1, 117177, Note_on_c, 1, 76, 96
1, 117177, Note_on_c, 1, 60, 96
1, 117177, Note_on_c, 1, 64, 96
1, 117178, Note_off_c, 1, 76, 96
1, 117178, Note_off_c, 1, 60, 96
1, 117178, Note_off_c, 1, 64, 96
1, 117182, Note_on_c, 1, 81, 96
1, 117182, Note_on_c, 1, 55, 96
1, 117183, Note_off_c, 1, 81, 96
1, 117183, Note_off_c, 1, 55, 96
1, 117305, Note_on_c, 1, 67, 96
1, 117307, Note_off_c, 1, 67, 96
1, 117307, Note_on_c, 1, 72, 96
1, 117309, Note_off_c, 1, 72, 96
1, 117309, Note_on_c, 1, 48, 96
1, 117311, Note_off_c, 1, 48, 96
1, 117311, Note_on_c, 1, 76, 96
1, 117312, Note_off_c, 1, 76, 96
1, 117404, Note_on_c, 1, 76, 96
1, 117405, Note_off_c, 1, 76, 96
1, 117408, Note_on_c, 1, 84, 96
1, 117409, Note_off_c, 1, 84, 96
1, 117437, Note_on_c, 1, 64, 96
1, 117439, Note_off_c, 1, 64, 96
1, 117439, Note_on_c, 1, 84, 96
1, 117441, Note_off_c, 1, 84, 96
1, 117441, Note_on_c, 1, 79, 96
1, 117442, Note_off_c, 1, 79, 96
1, 117444, Note_on_c, 1, 60, 96
1, 117447, Note_off_c, 1, 60, 96
1, 117447, Note_on_c, 1, 72, 96
1, 117447, Note_on_c, 1, 55, 96
1, 117448, Note_off_c, 1, 72, 96
1, 117448, Note_off_c, 1, 55, 96
1, 117623, Note_on_c, 1, 79, 96
1, 117624, Note_off_c, 1, 79, 96
1, 117682, Note_on_c, 1, 74, 96
1, 117683, Note_off_c, 1, 74, 96
1, 117687, Note_on_c, 1, 80, 96
1, 117687, Note_on_c, 1, 47, 96
1, 117688, Note_off_c, 1, 80, 96
1, 117688, Note_off_c, 1, 47, 96
1, 117692, Note_on_c, 1, 35, 96
1, 117693, Note_off_c, 1, 35, 96
1, 117810, Note_on_c, 1, 60, 96
1, 117811, Note_off_c, 1, 60, 96
1, 117814, Note_on_c, 1, 48, 96
1, 117815, Note_off_c, 1, 48, 96
1, 117871, Note_on_c, 1, 81, 96
1, 117871, Note_on_c, 1, 72, 96
1, 117872, Note_off_c, 1, 81, 96
1, 117872, Note_off_c, 1, 72, 96
1, 117877, Note_on_c, 1, 69, 96
1, 117878, Note_off_c, 1, 69, 96
1, 117998, Note_on_c, 1, 79, 96
1, 117999, Note_off_c, 1, 79, 96
1, 118114, Note_on_c, 1, 69, 96
1, 118116, Note_off_c, 1, 69, 96
1, 118116, Note_on_c, 1, 53, 96
1, 118117, Note_off_c, 1, 53, 96
1, 118119, Note_on_c, 1, 75, 96
1, 118120, Note_off_c, 1, 75, 96
1, 118241, Note_on_c, 1, 74, 96
1, 118242, Note_off_c, 1, 74, 96
1, 118360, Note_on_c, 1, 77, 96
1, 118361, Note_off_c, 1, 77, 96
1, 118364, Note_on_c, 1, 69, 96
1, 118365, Note_off_c, 1, 69, 96
1, 118485, Note_on_c, 1, 82, 96
1, 118487, Note_off_c, 1, 82, 96
1, 118487, Note_on_c, 1, 73, 96
1, 118488, Note_off_c, 1, 73, 96
1, 118604, Note_on_c, 1, 40, 96
1, 118605, Note_off_c, 1, 40, 96
1, 118610, Note_on_c, 1, 52, 96
1, 118611, Note_off_c, 1, 52, 96
1, 118728, Note_on_c, 1, 40, 96
1, 118729, Note_off_c, 1, 40, 96
1, 118731, Note_on_c, 1, 52, 96
1, 118732, Note_off_c, 1, 52, 96
1, 118849, Note_on_c, 1, 38, 96
1, 118850, Note_off_c, 1, 38, 96
1, 118854, Note_on_c, 1, 82, 96
1, 118854, Note_on_c, 1, 86, 96
1, 118854, Note_on_c, 1, 74, 96
1, 118855, Note_off_c, 1, 82, 96
1, 118855, Note_off_c, 1, 86, 96
1, 118855, Note_off_c, 1, 74, 96
1, 118857, Note_on_c, 1, 50, 96
1, 118858, Note_off_c, 1, 50, 96
1, 118975, Note_on_c, 1, 62, 96
1, 118976, Note_off_c, 1, 62, 96
1, 118978, Note_on_c, 1, 86, 96
1, 118979, Note_off_c, 1, 86, 96
1, 118981, Note_on_c, 1, 74, 96
1, 118985, Note_off_c, 1, 74, 96
1, 118985, Note_on_c, 1, 86, 96
1, 118985, Note_on_c, 1, 57, 96
1, 118985, Note_on_c, 1, 60, 96
1, 118986, Note_off_c, 1, 86, 96
1, 118986, Note_off_c, 1, 57, 96
1, 118986, Note_off_c, 1, 60, 96
1, 119220, Note_on_c, 1, 66, 96
1, 119222, Note_off_c, 1, 66, 96
1, 119222, Note_on_c, 1, 60, 96
1, 119225, Note_off_c, 1, 60, 96
1, 119225, Note_on_c, 1, 75, 96
1, 119225, Note_on_c, 1, 54, 96
1, 119226, Note_off_c, 1, 75, 96
1, 119226, Note_off_c, 1, 54, 96
1, 119229, Note_on_c, 1, 86, 96
1, 119229, Note_on_c, 1, 57, 96
1, 119230, Note_off_c, 1, 86, 96
1, 119230, Note_off_c, 1, 57, 96
1, 119463, Note_on_c, 1, 69, 96
1, 119464, Note_off_c, 1, 69, 96
1, 119467, Note_on_c, 1, 65, 96
1, 119468, Note_off_c, 1, 65, 96
1, 119472, Note_on_c, 1, 81, 96
1, 119472, Note_on_c, 1, 50, 96
1, 119472, Note_on_c, 1, 38, 96
1, 119473, Note_off_c, 1, 81, 96
1, 119473, Note_off_c, 1, 50, 96
1, 119473, Note_off_c, 1, 38, 96
1, 119594, Note_on_c, 1, 45, 96
1, 119595, Note_off_c, 1, 45, 96
1, 119716, Note_on_c, 1, 86, 96
1, 119717, Note_off_c, 1, 86, 96
1, 119833, Note_on_c, 1, 81, 96
1, 119834, Note_off_c, 1, 81, 96
1, 119836, Note_on_c, 1, 57, 96
1, 119837, Note_off_c, 1, 57, 96
1, 119839, Note_on_c, 1, 60, 96
1, 119841, Note_off_c, 1, 60, 96
1, 119841, Note_on_c, 1, 69, 96
1, 119843, Note_off_c, 1, 69, 96
1, 119843, Note_on_c, 1, 66, 96
1, 119844, Note_off_c, 1, 66, 96
1, 119958, Note_on_c, 1, 82, 96
1, 119959, Note_off_c, 1, 82, 96
1, 119965, Note_on_c, 1, 70, 96
1, 119965, Note_on_c, 1, 53, 96
1, 119965, Note_on_c, 1, 58, 96
1, 119966, Note_off_c, 1, 70, 96
1, 119966, Note_off_c, 1, 53, 96
1, 119966, Note_off_c, 1, 58, 96
1, 120025, Note_on_c, 1, 76, 96
1, 120025, Note_on_c, 1, 79, 96
1, 120027, Note_off_c, 1, 76, 96
1, 120027, Note_off_c, 1, 79, 96
1, 120027, Note_on_c, 1, 67, 96
1, 120028, Note_off_c, 1, 67, 96
1, 120087, Note_on_c, 1, 81, 96
1, 120087, Note_on_c, 1, 59, 96
1, 120089, Note_off_c, 1, 81, 96
1, 120089, Note_off_c, 1, 59, 96
1, 120089, Note_on_c, 1, 77, 96
1, 120091, Note_off_c, 1, 77, 96
1, 120091, Note_on_c, 1, 69, 96
1, 120093, Note_off_c, 1, 69, 96
1, 120093, Note_on_c, 1, 50, 96
1, 120096, Note_off_c, 1, 50, 96
1, 120096, Note_on_c, 1, 71, 96
1, 120096, Note_on_c, 1, 62, 96
1, 120097, Note_off_c, 1, 71, 96
1, 120097, Note_off_c, 1, 62, 96
1, 120210, Note_on_c, 1, 72, 96
1, 120212, Note_off_c, 1, 72, 96
1, 120212, Note_on_c, 1, 60, 96
1, 120213, Note_off_c, 1, 60, 96
1, 120216, Note_on_c, 1, 84, 96
1, 120216, Note_on_c, 1, 48, 96
1, 120217, Note_off_c, 1, 84, 96
1, 120217, Note_off_c, 1, 48, 96
1, 120334, Note_on_c, 1, 50, 96
1, 120336, Note_off_c, 1, 50, 96
1, 120336, Note_on_c, 1, 38, 96
1, 120337, Note_off_c, 1, 38, 96
1, 120457, Note_on_c, 1, 77, 96
1, 120457, Note_on_c, 1, 53, 96
1, 120458, Note_off_c, 1, 77, 96
1, 120458, Note_off_c, 1, 53, 96
1, 120461, Note_on_c, 1, 62, 96
1, 120464, Note_off_c, 1, 62, 96
1, 120464, Note_on_c, 1, 69, 96
1, 120464, Note_on_c, 1, 57, 96
1, 120465, Note_off_c, 1, 69, 96
1, 120465, Note_off_c, 1, 57, 96
1, 120467, Note_on_c, 1, 74, 96
1, 120468, Note_off_c, 1, 74, 96
1, 120580, Note_on_c, 1, 57, 96
1, 120582, Note_off_c, 1, 57, 96
1, 120582, Note_on_c, 1, 53, 96
1, 120583, Note_off_c, 1, 53, 96
1, 120708, Note_on_c, 1, 48, 96
1, 120709, Note_off_c, 1, 48, 96
1, 120824, Note_on_c, 1, 64, 96
1, 120826, Note_off_c, 1, 64, 96
1, 120826, Note_on_c, 1, 52, 96
1, 120828, Note_off_c, 1, 52, 96
1, 120828, Note_on_c, 1, 55, 96
1, 120829, Note_off_c, 1, 55, 96
1, 120834, Note_on_c, 1, 81, 96
1, 120834, Note_on_c, 1, 69, 96
1, 120834, Note_on_c, 1, 72, 96
1, 120835, Note_off_c, 1, 81, 96
1, 120835, Note_off_c, 1, 69, 96
1, 120835, Note_off_c, 1, 72, 96
1, 121070, Note_on_c, 1, 67, 96
1, 121070, Note_on_c, 1, 48, 96
1, 121071, Note_off_c, 1, 67, 96
1, 121071, Note_off_c, 1, 48, 96
1, 121077, Note_on_c, 1, 36, 96
1, 121080, Note_off_c, 1, 36, 96
1, 121080, Note_on_c, 1, 76, 96
1, 121080, Note_on_c, 1, 79, 96
1, 121081, Note_off_c, 1, 76, 96
1, 121081, Note_off_c, 1, 79, 96
1, 121084, Note_on_c, 1, 72, 96
1, 121085, Note_off_c, 1, 72, 96
1, 121199, Note_on_c, 1, 49, 96
1, 121200, Note_off_c, 1, 49, 96
1, 121205, Note_on_c, 1, 61, 96
1, 121206, Note_off_c, 1, 61, 96
1, 121326, Note_on_c, 1, 57, 96
1, 121326, Note_on_c, 1, 45, 96
1, 121327, Note_off_c, 1, 57, 96
1, 121327, Note_off_c, 1, 45, 96
1, 121446, Note_on_c, 1, 45, 96
1, 121447, Note_off_c, 1, 45, 96
1, 121449, Note_on_c, 1, 73, 96
1, 121451, Note_off_c, 1, 73, 96
1, 121451, Note_on_c, 1, 85, 96
1, 121452, Note_off_c, 1, 85, 96
1, 121566, Note_on_c, 1, 78, 96
1, 121567, Note_off_c, 1, 78, 96
1, 121569, Note_on_c, 1, 69, 96
1, 121572, Note_off_c, 1, 69, 96
1, 121572, Note_on_c, 1, 81, 96
1, 121572, Note_on_c, 1, 72, 96
1, 121573, Note_off_c, 1, 81, 96
1, 121573, Note_off_c, 1, 72, 96
1, 121575, Note_on_c, 1, 75, 96
1, 121576, Note_off_c, 1, 75, 96
1, 121630, Note_on_c, 1, 54, 96
1, 121633, Note_off_c, 1, 54, 96
1, 121633, Note_on_c, 1, 60, 96
1, 121633, Note_on_c, 1, 63, 96
1, 121634, Note_off_c, 1, 60, 96
1, 121634, Note_off_c, 1, 63, 96
1, 121637, Note_on_c, 1, 57, 96
1, 121638, Note_off_c, 1, 57, 96
1, 121696, Note_on_c, 1, 74, 96
1, 121697, Note_off_c, 1, 74, 96
1, 121701, Note_on_c, 1, 74, 96
1, 121702, Note_off_c, 1, 74, 96
1, 121758, Note_on_c, 1, 75, 96
1, 121758, Note_on_c, 1, 79, 96
1, 121761, Note_off_c, 1, 75, 96
1, 121761, Note_off_c, 1, 79, 96
1, 121761, Note_on_c, 1, 67, 96
1, 121761, Note_on_c, 1, 43, 96
1, 121762, Note_off_c, 1, 67, 96
1, 121762, Note_off_c, 1, 43, 96
1, 121884, Note_on_c, 1, 82, 96
1, 121887, Note_off_c, 1, 82, 96
1, 121887, Note_on_c, 1, 70, 96
1, 121887, Note_on_c, 1, 43, 96
1, 121890, Note_off_c, 1, 70, 96
1, 121890, Note_off_c, 1, 43, 96
1, 121890, Note_on_c, 1, 74, 96
1, 121890, Note_on_c, 1, 55, 96
1, 121891, Note_off_c, 1, 74, 96
1, 121891, Note_off_c, 1, 55, 96
1, 121947, Note_on_c, 1, 77, 96
1, 121948, Note_off_c, 1, 77, 96
1, 122005, Note_on_c, 1, 43, 96
1, 122006, Note_off_c, 1, 43, 96
1, 122008, Note_on_c, 1, 55, 96
1, 122009, Note_off_c, 1, 55, 96
1, 122014, Note_on_c, 1, 81, 96
1, 122014, Note_on_c, 1, 77, 96
1, 122016, Note_off_c, 1, 81, 96
1, 122016, Note_off_c, 1, 77, 96
1, 122016, Note_on_c, 1, 71, 96
1, 122017, Note_off_c, 1, 71, 96
1, 122248, Note_on_c, 1, 74, 96
1, 122250, Note_off_c, 1, 74, 96
1, 122250, Note_on_c, 1, 60, 96
1, 122251, Note_off_c, 1, 60, 96
1, 122259, Note_on_c, 1, 70, 96
1, 122259, Note_on_c, 1, 58, 96
1, 122261, Note_off_c, 1, 70, 96
1, 122261, Note_off_c, 1, 58, 96
1, 122261, Note_on_c, 1, 64, 96
1, 122262, Note_off_c, 1, 64, 96
1, 122379, Note_on_c, 1, 86, 96
1, 122379, Note_on_c, 1, 48, 96
1, 122379, Note_on_c, 1, 36, 96
1, 122381, Note_off_c, 1, 86, 96
1, 122381, Note_off_c, 1, 48, 96
1, 122381, Note_off_c, 1, 36, 96
1, 122381, Note_on_c, 1, 74, 96
1, 122382, Note_off_c, 1, 74, 96
1, 122385, Note_on_c, 1, 82, 96
1, 122386, Note_off_c, 1, 82, 96
1, 122569, Note_on_c, 1, 57, 96
1, 122570, Note_off_c, 1, 57, 96
1, 122628, Note_on_c, 1, 55, 96
1, 122629, Note_off_c, 1, 55, 96
1, 122631, Note_on_c, 1, 76, 96
1, 122632, Note_off_c, 1, 76, 96
1, 122688, Note_on_c, 1, 69, 96
1, 122689, Note_off_c, 1, 69, 96
1, 122752, Note_on_c, 1, 69, 96
1, 122752, Note_on_c, 1, 64, 96
1, 122753, Note_off_c, 1, 69, 96
1, 122753, Note_off_c, 1, 64, 96
1, 122812, Note_on_c, 1, 64, 96
1, 122813, Note_off_c, 1, 64, 96
1, 122816, Note_on_c, 1, 76, 96
1, 122817, Note_off_c, 1, 76, 96
1, 122876, Note_on_c, 1, 59, 96
1, 122877, Note_off_c, 1, 59, 96
1, 122883, Note_on_c, 1, 71, 96
1, 122884, Note_off_c, 1, 71, 96
1, 123001, Note_on_c, 1, 65, 96
1, 123003, Note_off_c, 1, 65, 96
1, 123003, Note_on_c, 1, 77, 96
1, 123004, Note_off_c, 1, 77, 96
1, 123120, Note_on_c, 1, 62, 96
1, 123121, Note_off_c, 1, 62, 96
1, 123245, Note_on_c, 1, 56, 96
1, 123246, Note_off_c, 1, 56, 96
1, 123304, Note_on_c, 1, 74, 96
1, 123305, Note_off_c, 1, 74, 96
1, 123363, Note_on_c, 1, 45, 96
1, 123364, Note_off_c, 1, 45, 96
1, 123366, Note_on_c, 1, 57, 96
1, 123367, Note_off_c, 1, 57, 96
1, 123369, Note_on_c, 1, 64, 96
1, 123370, Note_off_c, 1, 64, 96
1, 123545, Note_on_c, 1, 66, 96
1, 123546, Note_off_c, 1, 66, 96
1, 123604, Note_on_c, 1, 57, 96
1, 123605, Note_off_c, 1, 57, 96
1, 123666, Note_on_c, 1, 62, 96
1, 123667, Note_off_c, 1, 62, 96
1, 123788, Note_on_c, 1, 60, 96
1, 123788, Note_on_c, 1, 62, 96
1, 123789, Note_off_c, 1, 60, 96
1, 123789, Note_off_c, 1, 62, 96
1, 123793, Note_on_c, 1, 66, 96
1, 123794, Note_off_c, 1, 66, 96
1, 123910, Note_on_c, 1, 60, 96
1, 123910, Note_on_c, 1, 54, 96
1, 123911, Note_off_c, 1, 60, 96
1, 123911, Note_off_c, 1, 54, 96
1, 123913, Note_on_c, 1, 50, 96
1, 123914, Note_off_c, 1, 50, 96
1, 124034, Note_on_c, 1, 60, 96
1, 124035, Note_off_c, 1, 60, 96
1, 124158, Note_on_c, 1, 60, 96
1, 124159, Note_off_c, 1, 60, 96
1, 124276, Note_on_c, 1, 70, 96
1, 124277, Note_off_c, 1, 70, 96
1, 124396, Note_on_c, 1, 71, 96
1, 124397, Note_off_c, 1, 71, 96
1, 124523, Note_on_c, 1, 52, 96
1, 124525, Note_off_c, 1, 52, 96
1, 124525, Note_on_c, 1, 64, 96
1, 124526, Note_off_c, 1, 64, 96
1, 124648, Note_on_c, 1, 50, 96
1, 124649, Note_off_c, 1, 50, 96
1, 124765, Note_on_c, 1, 55, 96
1, 124766, Note_off_c, 1, 55, 96
1, 124769, Note_on_c, 1, 76, 96
1, 124770, Note_off_c, 1, 76, 96
1, 124885, Note_on_c, 1, 64, 96
1, 124885, Note_on_c, 1, 52, 96
1, 124886, Note_off_c, 1, 64, 96
1, 124886, Note_off_c, 1, 52, 96
1, 124892, Note_on_c, 1, 55, 96
1, 124894, Note_off_c, 1, 55, 96
1, 124894, Note_on_c, 1, 60, 96
1, 124895, Note_off_c, 1, 60, 96
1, 125007, Note_on_c, 1, 43, 96
1, 125008, Note_off_c, 1, 43, 96
1, 125012, Note_on_c, 1, 60, 96
1, 125013, Note_off_c, 1, 60, 96
1, 125016, Note_on_c, 1, 72, 96
1, 125017, Note_off_c, 1, 72, 96
1, 125250, Note_on_c, 1, 60, 96
1, 125250, Note_on_c, 1, 48, 96
1, 125251, Note_off_c, 1, 60, 96
1, 125251, Note_off_c, 1, 48, 96
1, 125256, Note_on_c, 1, 64, 96
1, 125257, Note_off_c, 1, 64, 96
1, 125434, Note_on_c, 1, 67, 96
1, 125435, Note_off_c, 1, 67, 96
1, 125493, Note_on_c, 1, 60, 96
1, 125494, Note_off_c, 1, 60, 96
1, 125501, Note_on_c, 1, 55, 96
1, 125501, Note_on_c, 1, 55, 96
1, 125501, Note_on_c, 1, 64, 96
1, 125502, Note_off_c, 1, 55, 96
1, 125502, Note_off_c, 1, 55, 96
1, 125502, Note_off_c, 1, 64, 96
1, 125735, Note_on_c, 1, 48, 96
1, 125737, Note_off_c, 1, 48, 96
1, 125737, Note_on_c, 1, 67, 96
1, 125738, Note_off_c, 1, 67, 96
1, 125743, Note_on_c, 1, 60, 96
1, 125745, Note_off_c, 1, 60, 96
1, 125745, Note_on_c, 1, 64, 96
1, 125746, Note_off_c, 1, 64, 96
1, 125982, Note_on_c, 1, 45, 96
1, 125983, Note_off_c, 1, 45, 96
1, 126105, Note_on_c, 1, 72, 96
1, 126105, Note_on_c, 1, 40, 96
1, 126106, Note_off_c, 1, 72, 96
1, 126106, Note_off_c, 1, 40, 96
1, 126229, Note_on_c, 1, 51, 96
1, 126232, Note_off_c, 1, 51, 96
1, 126232, Note_on_c, 1, 63, 96
1, 126232, Note_on_c, 1, 39, 96
1, 126233, Note_off_c, 1, 63, 96
1, 126233, Note_off_c, 1, 39, 96
1, 126348, Note_on_c, 1, 58, 96
1, 126349, Note_off_c, 1, 58, 96
1, 126352, Note_on_c, 1, 46, 96
1, 126353, Note_off_c, 1, 46, 96
1, 126470, Note_on_c, 1, 51, 96
1, 126472, Note_off_c, 1, 51, 96
1, 126472, Note_on_c, 1, 65, 96
1, 126473, Note_off_c, 1, 65, 96
1, 126532, Note_on_c, 1, 63, 96
1, 126533, Note_off_c, 1, 63, 96
1, 126593, Note_on_c, 1, 75, 96
1, 126593, Note_on_c, 1, 43, 96
1, 126594, Note_off_c, 1, 75, 96
1, 126594, Note_off_c, 1, 43, 96
1, 126596, Note_on_c, 1, 54, 96
1, 126597, Note_off_c, 1, 54, 96
1, 126659, Note_on_c, 1, 70, 96
1, 126659, Note_on_c, 1, 65, 96
1, 126660, Note_off_c, 1, 70, 96
1, 126660, Note_off_c, 1, 65, 96
1, 126718, Note_on_c, 1, 41, 96
1, 126719, Note_off_c, 1, 41, 96
1, 126723, Note_on_c, 1, 53, 96
1, 126724, Note_off_c, 1, 53, 96
1, 126781, Note_on_c, 1, 70, 96
1, 126782, Note_off_c, 1, 70, 96
1, 126841, Note_on_c, 1, 65, 96
1, 126843, Note_off_c, 1, 65, 96
1, 126843, Note_on_c, 1, 67, 96
1, 126845, Note_off_c, 1, 67, 96
1, 126845, Note_on_c, 1, 55, 96
1, 126847, Note_off_c, 1, 55, 96
1, 126847, Note_on_c, 1, 79, 96
1, 126849, Note_off_c, 1, 79, 96
1, 126849, Note_on_c, 1, 62, 96
1, 126850, Note_off_c, 1, 62, 96
1, 126965, Note_on_c, 1, 62, 96
1, 126968, Note_off_c, 1, 62, 96
1, 126968, Note_on_c, 1, 77, 96
1, 126968, Note_on_c, 1, 83, 96
1, 126969, Note_off_c, 1, 77, 96
1, 126969, Note_off_c, 1, 83, 96
1, 126972, Note_on_c, 1, 74, 96
1, 126974, Note_off_c, 1, 74, 96
1, 126974, Note_on_c, 1, 65, 96
1, 126975, Note_off_c, 1, 65, 96
1, 126977, Note_on_c, 1, 55, 96
1, 126978, Note_off_c, 1, 55, 96
1, 127092, Note_on_c, 1, 71, 96
1, 127094, Note_off_c, 1, 71, 96
1, 127094, Note_on_c, 1, 43, 96
1, 127095, Note_off_c, 1, 43, 96
1, 127099, Note_on_c, 1, 79, 96
1, 127100, Note_off_c, 1, 79, 96
1, 127218, Note_on_c, 1, 43, 96
1, 127220, Note_off_c, 1, 43, 96
1, 127220, Note_on_c, 1, 55, 96
1, 127221, Note_off_c, 1, 55, 96
1, 127458, Note_on_c, 1, 67, 96
1, 127460, Note_off_c, 1, 67, 96
1, 127460, Note_on_c, 1, 64, 96
1, 127461, Note_off_c, 1, 64, 96
1, 127582, Note_on_c, 1, 66, 96
1, 127583, Note_off_c, 1, 66, 96
1, 127585, Note_on_c, 1, 60, 96
1, 127586, Note_off_c, 1, 60, 96
1, 127702, Note_on_c, 1, 67, 96
1, 127703, Note_off_c, 1, 67, 96
1, 127705, Note_on_c, 1, 43, 96
1, 127706, Note_off_c, 1, 43, 96
1, 127831, Note_on_c, 1, 64, 96
1, 127831, Note_on_c, 1, 52, 96
1, 127832, Note_off_c, 1, 64, 96
1, 127832, Note_off_c, 1, 52, 96
1, 127948, Note_on_c, 1, 48, 96
1, 127949, Note_off_c, 1, 48, 96
1, 127951, Note_on_c, 1, 60, 96
1, 127952, Note_off_c, 1, 60, 96
1, 128071, Note_on_c, 1, 50, 96
1, 128072, Note_off_c, 1, 50, 96
1, 128190, Note_on_c, 1, 53, 96
1, 128192, Note_off_c, 1, 53, 96
1, 128192, Note_on_c, 1, 62, 96
1, 128193, Note_off_c, 1, 62, 96
1, 128195, Note_on_c, 1, 57, 96
1, 128196, Note_off_c, 1, 57, 96
1, 128314, Note_on_c, 1, 69, 96
1, 128315, Note_off_c, 1, 69, 96
1, 128435, Note_on_c, 1, 38, 96
1, 128436, Note_off_c, 1, 38, 96
1, 128440, Note_on_c, 1, 65, 96
1, 128441, Note_off_c, 1, 65, 96
1, 128443, Note_on_c, 1, 69, 96
1, 128444, Note_off_c, 1, 69, 96
1, 128496, Note_on_c, 1, 65, 96
1, 128497, Note_off_c, 1, 65, 96
1, 128561, Note_on_c, 1, 67, 96
1, 128561, Note_on_c, 1, 59, 96
1, 128563, Note_off_c, 1, 67, 96
1, 128563, Note_off_c, 1, 59, 96
1, 128563, Note_on_c, 1, 55, 96
1, 128564, Note_off_c, 1, 55, 96
1, 128620, Note_on_c, 1, 71, 96
1, 128621, Note_off_c, 1, 71, 96
1, 128684, Note_on_c, 1, 72, 96
1, 128684, Note_on_c, 1, 64, 96
1, 128684, Note_on_c, 1, 36, 96
1, 128686, Note_off_c, 1, 72, 96
1, 128686, Note_off_c, 1, 64, 96
1, 128686, Note_off_c, 1, 36, 96
1, 128686, Note_on_c, 1, 64, 96
1, 128687, Note_off_c, 1, 64, 96
1, 128747, Note_on_c, 1, 72, 96
1, 128748, Note_off_c, 1, 72, 96
1, 128811, Note_on_c, 1, 48, 96
1, 128812, Note_off_c, 1, 48, 96
1, 128929, Note_on_c, 1, 55, 96
1, 128930, Note_off_c, 1, 55, 96
1, 129048, Note_on_c, 1, 69, 96
1, 129049, Note_off_c, 1, 69, 96
1, 129051, Note_on_c, 1, 57, 96
1, 129052, Note_off_c, 1, 57, 96
1, 129054, Note_on_c, 1, 60, 96
1, 129056, Note_off_c, 1, 60, 96
1, 129056, Note_on_c, 1, 53, 96
1, 129057, Note_off_c, 1, 53, 96
1, 129175, Note_on_c, 1, 65, 96
1, 129177, Note_off_c, 1, 65, 96
1, 129177, Note_on_c, 1, 60, 96
1, 129178, Note_off_c, 1, 60, 96
1, 129181, Note_on_c, 1, 69, 96
1, 129182, Note_off_c, 1, 69, 96
1, 129300, Note_on_c, 1, 53, 96
1, 129302, Note_off_c, 1, 53, 96
1, 129302, Note_on_c, 1, 41, 96
1, 129303, Note_off_c, 1, 41, 96
1, 129305, Note_on_c, 1, 69, 96
1, 129306, Note_off_c, 1, 69, 96
1, 129308, Note_on_c, 1, 72, 96
1, 129309, Note_off_c, 1, 72, 96
1, 129424, Note_on_c, 1, 67, 96
1, 129426, Note_off_c, 1, 67, 96
1, 129426, Note_on_c, 1, 48, 96
1, 129428, Note_off_c, 1, 48, 96
1, 129428, Note_on_c, 1, 60, 96
1, 129430, Note_off_c, 1, 60, 96
1, 129430, Note_on_c, 1, 57, 96
1, 129431, Note_off_c, 1, 57, 96
1, 129550, Note_on_c, 1, 57, 96
1, 129551, Note_off_c, 1, 57, 96
1, 129609, Note_on_c, 1, 69, 96
1, 129610, Note_off_c, 1, 69, 96
1, 129670, Note_on_c, 1, 67, 96
1, 129671, Note_off_c, 1, 67, 96
1, 129791, Note_on_c, 1, 48, 96
1, 129792, Note_off_c, 1, 48, 96
1, 129855, Note_on_c, 1, 71, 96
1, 129856, Note_off_c, 1, 71, 96
1, 129915, Note_on_c, 1, 69, 96
1, 129915, Note_on_c, 1, 53, 96
1, 129917, Note_off_c, 1, 69, 96
1, 129917, Note_off_c, 1, 53, 96
1, 129917, Note_on_c, 1, 41, 96
1, 129918, Note_off_c, 1, 41, 96
1, 130033, Note_on_c, 1, 67, 96
1, 130033, Note_on_c, 1, 46, 96
1, 130034, Note_off_c, 1, 67, 96
1, 130034, Note_off_c, 1, 46, 96
1, 130038, Note_on_c, 1, 58, 96
1, 130039, Note_off_c, 1, 58, 96
1, 130159, Note_on_c, 1, 70, 96
1, 130160, Note_off_c, 1, 70, 96
1, 130278, Note_on_c, 1, 69, 96
1, 130280, Note_off_c, 1, 69, 96
1, 130280, Note_on_c, 1, 53, 96
1, 130282, Note_off_c, 1, 53, 96
1, 130282, Note_on_c, 1, 65, 96
1, 130283, Note_off_c, 1, 65, 96
1, 130402, Note_on_c, 1, 63, 96
1, 130403, Note_off_c, 1, 63, 96
1, 130408, Note_on_c, 1, 49, 96
1, 130408, Note_on_c, 1, 59, 96
1, 130409, Note_off_c, 1, 49, 96
1, 130409, Note_off_c, 1, 59, 96
1, 130522, Note_on_c, 1, 79, 96
1, 130523, Note_off_c, 1, 79, 96
1, 130525, Note_on_c, 1, 67, 96
1, 130526, Note_off_c, 1, 67, 96
1, 130645, Note_on_c, 1, 43, 96
1, 130645, Note_on_c, 1, 55, 96
1, 130646, Note_off_c, 1, 43, 96
1, 130646, Note_off_c, 1, 55, 96
1, 130650, Note_on_c, 1, 81, 96
1, 130651, Note_off_c, 1, 81, 96
1, 130653, Note_on_c, 1, 69, 96
1, 130654, Note_off_c, 1, 69, 96
1, 130886, Note_on_c, 1, 74, 96
1, 130887, Note_off_c, 1, 74, 96
1, 130892, Note_on_c, 1, 72, 96
1, 130892, Note_on_c, 1, 77, 96
1, 130892, Note_on_c, 1, 46, 96
1, 130893, Note_off_c, 1, 72, 96
1, 130893, Note_off_c, 1, 77, 96
1, 130893, Note_off_c, 1, 46, 96
1, 130895, Note_on_c, 1, 68, 96
1, 130896, Note_off_c, 1, 68, 96
1, 131014, Note_on_c, 1, 48, 96
1, 131015, Note_off_c, 1, 48, 96
1, 131076, Note_on_c, 1, 72, 96
1, 131077, Note_off_c, 1, 72, 96
1, 131134, Note_on_c, 1, 69, 96
1, 131136, Note_off_c, 1, 69, 96
1, 131136, Note_on_c, 1, 41, 96
1, 131137, Note_off_c, 1, 41, 96
1, 131200, Note_on_c, 1, 79, 96
1, 131201, Note_off_c, 1, 79, 96
1, 131256, Note_on_c, 1, 62, 96
1, 131257, Note_off_c, 1, 62, 96
1, 131259, Note_on_c, 1, 81, 96
1, 131260, Note_off_c, 1, 81, 96
1, 131262, Note_on_c, 1, 60, 96
1, 131264, Note_off_c, 1, 60, 96
1, 131264, Note_on_c, 1, 65, 96
1, 131265, Note_off_c, 1, 65, 96
1, 131320, Note_on_c, 1, 74, 96
1, 131321, Note_off_c, 1, 74, 96
1, 131379, Note_on_c, 1, 56, 96
1, 131380, Note_off_c, 1, 56, 96
1, 131384, Note_on_c, 1, 58, 96
1, 131384, Note_on_c, 1, 62, 96
1, 131385, Note_off_c, 1, 58, 96
1, 131385, Note_off_c, 1, 62, 96
1, 131442, Note_on_c, 1, 65, 96
1, 131444, Note_off_c, 1, 65, 96
1, 131444, Note_on_c, 1, 53, 96
1, 131445, Note_off_c, 1, 53, 96
1, 131504, Note_on_c, 1, 53, 96
1, 131505, Note_off_c, 1, 53, 96
1, 131626, Note_on_c, 1, 62, 96
1, 131627, Note_off_c, 1, 62, 96
1, 131629, Note_on_c, 1, 58, 96
1, 131630, Note_off_c, 1, 58, 96
1, 131748, Note_on_c, 1, 53, 96
1, 131749, Note_off_c, 1, 53, 96
1, 131869, Note_on_c, 1, 46, 96
1, 131870, Note_off_c, 1, 46, 96
1, 131873, Note_on_c, 1, 62, 96
1, 131875, Note_off_c, 1, 62, 96
1, 131875, Note_on_c, 1, 58, 96
1, 131876, Note_off_c, 1, 58, 96
1, 131996, Note_on_c, 1, 65, 96
1, 131997, Note_off_c, 1, 65, 96
1, 132118, Note_on_c, 1, 62, 96
1, 132118, Note_on_c, 1, 41, 96
1, 132119, Note_off_c, 1, 62, 96
1, 132119, Note_off_c, 1, 41, 96
1, 132236, Note_on_c, 1, 67, 96
1, 132236, Note_on_c, 1, 64, 96
1, 132237, Note_off_c, 1, 67, 96
1, 132237, Note_off_c, 1, 64, 96
1, 132356, Note_on_c, 1, 58, 96
1, 132356, Note_on_c, 1, 58, 96
1, 132357, Note_off_c, 1, 58, 96
1, 132357, Note_off_c, 1, 58, 96
1, 132362, Note_on_c, 1, 58, 96
1, 132362, Note_on_c, 1, 60, 96
1, 132363, Note_off_c, 1, 58, 96
1, 132363, Note_off_c, 1, 60, 96
1, 132422, Note_on_c, 1, 65, 96
1, 132423, Note_off_c, 1, 65, 96
1, 132481, Note_on_c, 1, 63, 96
1, 132482, Note_off_c, 1, 63, 96
1, 132486, Note_on_c, 1, 48, 96
1, 132487, Note_off_c, 1, 48, 96
1, 132545, Note_on_c, 1, 66, 96
1, 132546, Note_off_c, 1, 66, 96
1, 132603, Note_on_c, 1, 60, 96
1, 132605, Note_off_c, 1, 60, 96
1, 132605, Note_on_c, 1, 41, 96
1, 132607, Note_off_c, 1, 41, 96
1, 132607, Note_on_c, 1, 53, 96
1, 132609, Note_off_c, 1, 53, 96
1, 132609, Note_on_c, 1, 65, 96
1, 132610, Note_off_c, 1, 65, 96
1, 132670, Note_on_c, 1, 65, 96
1, 132671, Note_off_c, 1, 65, 96
1, 132729, Note_on_c, 1, 69, 96
1, 132729, Note_on_c, 1, 48, 96
1, 132730, Note_off_c, 1, 69, 96
1, 132730, Note_off_c, 1, 48, 96
1, 132790, Note_on_c, 1, 67, 96
1, 132791, Note_off_c, 1, 67, 96
1, 132850, Note_on_c, 1, 41, 96
1, 132851, Note_off_c, 1, 41, 96
1, 132894, Note_on_c, 1, 48, 96
1, 132894, Note_on_c, 1, 41, 96
1, 132895, Note_off_c, 1, 48, 96
1, 132895, Note_off_c, 1, 41, 96
1, 132936, Note_on_c, 1, 41, 96
1, 132936, Note_on_c, 1, 56, 96
1, 132936, Note_on_c, 1, 65, 96
1, 132937, Note_off_c, 1, 41, 96
1, 132937, Note_off_c, 1, 56, 96
1, 132937, Note_off_c, 1, 65, 96
1, 132993, Note_on_c, 1, 68, 96
1, 132994, Note_off_c, 1, 68, 96
1, 133055, Note_on_c, 1, 52, 96
1, 133055, Note_on_c, 1, 67, 96
1, 133056, Note_off_c, 1, 52, 96
1, 133056, Note_off_c, 1, 67, 96
1, 133060, Note_on_c, 1, 40, 96
1, 133062, Note_off_c, 1, 40, 96
1, 133062, Note_on_c, 1, 60, 96
1, 133064, Note_off_c, 1, 60, 96
1, 133064, Note_on_c, 1, 64, 96
1, 133065, Note_off_c, 1, 64, 96
1, 133185, Note_on_c, 1, 67, 96
1, 133185, Note_on_c, 1, 64, 96
1, 133187, Note_off_c, 1, 67, 96
1, 133187, Note_off_c, 1, 64, 96
1, 133187, Note_on_c, 1, 60, 96
1, 133188, Note_off_c, 1, 60, 96
1, 133246, Note_on_c, 1, 62, 96
1, 133247, Note_off_c, 1, 62, 96
1, 133307, Note_on_c, 1, 60, 96
1, 133308, Note_off_c, 1, 60, 96
1, 133368, Note_on_c, 1, 65, 96
1, 133369, Note_off_c, 1, 65, 96
1, 133427, Note_on_c, 1, 52, 96
1, 133428, Note_off_c, 1, 52, 96
1, 133432, Note_on_c, 1, 40, 96
1, 133433, Note_off_c, 1, 40, 96
1, 133436, Note_on_c, 1, 74, 96
1, 133437, Note_off_c, 1, 74, 96
1, 133550, Note_on_c, 1, 76, 96
1, 133550, Note_on_c, 1, 40, 96
1, 133551, Note_off_c, 1, 76, 96
1, 133551, Note_off_c, 1, 40, 96
1, 133553, Note_on_c, 1, 73, 96
1, 133554, Note_off_c, 1, 73, 96
1, 133560, Note_on_c, 1, 52, 96
1, 133563, Note_off_c, 1, 52, 96
1, 133563, Note_on_c, 1, 69, 96
1, 133563, Note_on_c, 1, 64, 96
1, 133564, Note_off_c, 1, 69, 96
1, 133564, Note_off_c, 1, 64, 96
1, 133678, Note_on_c, 1, 43, 96
1, 133680, Note_off_c, 1, 43, 96
1, 133680, Note_on_c, 1, 55, 96
1, 133681, Note_off_c, 1, 55, 96
1, 133737, Note_on_c, 1, 76, 96
1, 133737, Note_on_c, 1, 47, 96
1, 133738, Note_off_c, 1, 76, 96
1, 133738, Note_off_c, 1, 47, 96
1, 133745, Note_on_c, 1, 41, 96
1, 133748, Note_off_c, 1, 41, 96
1, 133748, Note_on_c, 1, 74, 96
1, 133748, Note_on_c, 1, 77, 96
1, 133749, Note_off_c, 1, 74, 96
1, 133749, Note_off_c, 1, 77, 96
1, 133803, Note_on_c, 1, 67, 96
1, 133803, Note_on_c, 1, 70, 96
1, 133804, Note_off_c, 1, 67, 96
1, 133804, Note_off_c, 1, 70, 96
1, 133808, Note_on_c, 1, 79, 96
1, 133809, Note_off_c, 1, 79, 96
1, 133866, Note_on_c, 1, 53, 96
1, 133867, Note_off_c, 1, 53, 96
1, 133928, Note_on_c, 1, 73, 96
1, 133929, Note_off_c, 1, 73, 96
1, 133987, Note_on_c, 1, 62, 96
1, 133987, Note_on_c, 1, 58, 96
1, 133989, Note_off_c, 1, 62, 96
1, 133989, Note_off_c, 1, 58, 96
1, 133989, Note_on_c, 1, 53, 96
1, 133990, Note_off_c, 1, 53, 96
1, 133994, Note_on_c, 1, 74, 96
1, 133995, Note_off_c, 1, 74, 96
1, 134052, Note_on_c, 1, 74, 96
1, 134053, Note_off_c, 1, 74, 96
1, 134112, Note_on_c, 1, 70, 96
1, 134114, Note_off_c, 1, 70, 96
1, 134114, Note_on_c, 1, 49, 96
1, 134116, Note_off_c, 1, 49, 96
1, 134116, Note_on_c, 1, 37, 96
1, 134118, Note_off_c, 1, 37, 96
1, 134118, Note_on_c, 1, 68, 96
1, 134119, Note_off_c, 1, 68, 96
1, 134237, Note_on_c, 1, 71, 96
1, 134240, Note_off_c, 1, 71, 96
1, 134240, Note_on_c, 1, 74, 96
1, 134240, Note_on_c, 1, 50, 96
1, 134241, Note_off_c, 1, 74, 96
1, 134241, Note_off_c, 1, 50, 96
1, 134359, Note_on_c, 1, 71, 96
1, 134360, Note_off_c, 1, 71, 96
1, 134362, Note_on_c, 1, 76, 96
1, 134363, Note_off_c, 1, 76, 96
1, 134366, Note_on_c, 1, 67, 96
1, 134367, Note_off_c, 1, 67, 96
1, 134483, Note_on_c, 1, 59, 96
1, 134483, Note_on_c, 1, 65, 96
1, 134484, Note_off_c, 1, 59, 96
1, 134484, Note_off_c, 1, 65, 96
1, 134490, Note_on_c, 1, 55, 96
1, 134491, Note_off_c, 1, 55, 96
1, 134546, Note_on_c, 1, 71, 96
1, 134546, Note_on_c, 1, 67, 96
1, 134548, Note_off_c, 1, 71, 96
1, 134548, Note_off_c, 1, 67, 96
1, 134548, Note_on_c, 1, 76, 96
1, 134549, Note_off_c, 1, 76, 96
1, 134604, Note_on_c, 1, 55, 96
1, 134605, Note_off_c, 1, 55, 96
1, 134607, Note_on_c, 1, 60, 96
1, 134609, Note_off_c, 1, 60, 96
1, 134609, Note_on_c, 1, 67, 96
1, 134611, Note_off_c, 1, 67, 96
1, 134611, Note_on_c, 1, 64, 96
1, 134612, Note_off_c, 1, 64, 96
1, 134614, Note_on_c, 1, 76, 96
1, 134615, Note_off_c, 1, 76, 96
1, 134730, Note_on_c, 1, 66, 96
1, 134731, Note_off_c, 1, 66, 96
1, 134734, Note_on_c, 1, 43, 96
1, 134735, Note_off_c, 1, 43, 96
1, 134738, Note_on_c, 1, 76, 96
1, 134738, Note_on_c, 1, 55, 96
1, 134739, Note_off_c, 1, 76, 96
1, 134739, Note_off_c, 1, 55, 96
1, 134741, Note_on_c, 1, 72, 96
1, 134742, Note_off_c, 1, 72, 96
1, 134801, Note_on_c, 1, 76, 96
1, 134802, Note_off_c, 1, 76, 96
1, 134861, Note_on_c, 1, 72, 96
1, 134861, Note_on_c, 1, 55, 96
1, 134862, Note_off_c, 1, 72, 96
1, 134862, Note_off_c, 1, 55, 96
1, 134984, Note_on_c, 1, 48, 96
1, 134985, Note_off_c, 1, 48, 96
1, 134987, Note_on_c, 1, 75, 96
1, 134989, Note_off_c, 1, 75, 96
1, 134989, Note_on_c, 1, 67, 96
1, 134990, Note_off_c, 1, 67, 96
1, 135049, Note_on_c, 1, 67, 96
1, 135049, Note_on_c, 1, 79, 96
1, 135050, Note_off_c, 1, 67, 96
1, 135050, Note_off_c, 1, 79, 96
1, 135053, Note_on_c, 1, 76, 96
1, 135054, Note_off_c, 1, 76, 96
1, 135112, Note_on_c, 1, 36, 96
1, 135115, Note_off_c, 1, 36, 96
1, 135115, Note_on_c, 1, 79, 96
1, 135115, Note_on_c, 1, 48, 96
1, 135116, Note_off_c, 1, 79, 96
1, 135116, Note_off_c, 1, 48, 96
1, 135119, Note_on_c, 1, 72, 96
1, 135119, Note_on_c, 1, 76, 96
1, 135120, Note_off_c, 1, 72, 96
1, 135120, Note_off_c, 1, 76, 96
1, 135176, Note_on_c, 1, 58, 96
1, 135178, Note_off_c, 1, 58, 96
1, 135178, Note_on_c, 1, 70, 96
1, 135179, Note_off_c, 1, 70, 96
1, 135182, Note_on_c, 1, 76, 96
1, 135183, Note_off_c, 1, 76, 96
1, 135242, Note_on_c, 1, 55, 96
1, 135243, Note_off_c, 1, 55, 96
1, 135300, Note_on_c, 1, 60, 96
1, 135302, Note_off_c, 1, 60, 96
1, 135302, Note_on_c, 1, 72, 96
1, 135303, Note_off_c, 1, 72, 96
1, 135306, Note_on_c, 1, 57, 96
1, 135307, Note_off_c, 1, 57, 96
1, 135485, Note_on_c, 1, 60, 96
1, 135485, Note_on_c, 1, 64, 96
1, 135487, Note_off_c, 1, 60, 96
1, 135487, Note_off_c, 1, 64, 96
1, 135487, Note_on_c, 1, 67, 96
1, 135490, Note_off_c, 1, 67, 96
1, 135490, Note_on_c, 1, 48, 96
1, 135490, Note_on_c, 1, 55, 96
1, 135492, Note_off_c, 1, 48, 96
1, 135492, Note_off_c, 1, 55, 96
1, 135492, Note_on_c, 1, 76, 96
1, 135493, Note_off_c, 1, 76, 96
1, 135611, Note_on_c, 1, 64, 96
1, 135611, Note_on_c, 1, 36, 96
1, 135612, Note_off_c, 1, 64, 96
1, 135612, Note_off_c, 1, 36, 96
1, 135617, Note_on_c, 1, 76, 96
1, 135617, Note_on_c, 1, 72, 96
1, 135617, Note_on_c, 1, 48, 96
1, 135618, Note_off_c, 1, 76, 96
1, 135618, Note_off_c, 1, 72, 96
1, 135618, Note_off_c, 1, 48, 96
1, 135677, Note_on_c, 1, 72, 96
1, 135677, Note_on_c, 1, 76, 96
1, 135678, Note_off_c, 1, 72, 96
1, 135678, Note_off_c, 1, 76, 96
1, 135736, Note_on_c, 1, 76, 96
1, 135740, Note_off_c, 1, 76, 96
1, 135740, Note_on_c, 1, 79, 96
1, 135740, Note_on_c, 1, 70, 96
1, 135740, Note_on_c, 1, 36, 96
1, 135741, Note_off_c, 1, 79, 96
1, 135741, Note_off_c, 1, 70, 96
1, 135741, Note_off_c, 1, 36, 96
1, 135743, Note_on_c, 1, 48, 96
1, 135744, Note_off_c, 1, 48, 96
1, 135862, Note_on_c, 1, 77, 96
1, 135862, Note_on_c, 1, 60, 96
1, 135865, Note_off_c, 1, 77, 96
1, 135865, Note_off_c, 1, 60, 96
1, 135865, Note_on_c, 1, 65, 96
1, 135865, Note_on_c, 1, 57, 96
1, 135867, Note_off_c, 1, 65, 96
1, 135867, Note_off_c, 1, 57, 96
1, 135867, Note_on_c, 1, 69, 96
1, 135868, Note_off_c, 1, 69, 96
1, 135925, Note_on_c, 1, 67, 96
1, 135926, Note_off_c, 1, 67, 96
1, 135928, Note_on_c, 1, 79, 96
1, 135929, Note_off_c, 1, 79, 96
1, 135988, Note_on_c, 1, 72, 96
1, 135988, Note_on_c, 1, 57, 96
1, 135988, Note_on_c, 1, 60, 96
1, 135990, Note_off_c, 1, 72, 96
1, 135990, Note_off_c, 1, 57, 96
1, 135990, Note_off_c, 1, 60, 96
1, 135990, Note_on_c, 1, 77, 96
1, 135992, Note_off_c, 1, 77, 96
1, 135992, Note_on_c, 1, 81, 96
1, 135993, Note_off_c, 1, 81, 96
1, 135995, Note_on_c, 1, 65, 96
1, 135996, Note_off_c, 1, 65, 96
1, 136054, Note_on_c, 1, 81, 96
1, 136055, Note_off_c, 1, 81, 96
1, 136059, Note_on_c, 1, 72, 96
1, 136060, Note_off_c, 1, 72, 96
1, 136116, Note_on_c, 1, 36, 96
1, 136119, Note_off_c, 1, 36, 96
1, 136119, Note_on_c, 1, 77, 96
1, 136119, Note_on_c, 1, 48, 96
1, 136121, Note_off_c, 1, 77, 96
1, 136121, Note_off_c, 1, 48, 96
1, 136121, Note_on_c, 1, 72, 96
1, 136123, Note_off_c, 1, 72, 96
1, 136123, Note_on_c, 1, 84, 96
1, 136124, Note_off_c, 1, 84, 96
1, 136239, Note_on_c, 1, 72, 96
1, 136240, Note_off_c, 1, 72, 96
1, 136244, Note_on_c, 1, 84, 96
1, 136246, Note_off_c, 1, 84, 96
1, 136246, Note_on_c, 1, 57, 96
1, 136247, Note_off_c, 1, 57, 96
1, 136362, Note_on_c, 1, 84, 96
1, 136363, Note_off_c, 1, 84, 96
1, 136366, Note_on_c, 1, 72, 96
1, 136367, Note_off_c, 1, 72, 96
1, 136370, Note_on_c, 1, 76, 96
1, 136370, Note_on_c, 1, 48, 96
1, 136371, Note_off_c, 1, 76, 96
1, 136371, Note_off_c, 1, 48, 96
1, 136486, Note_on_c, 1, 57, 96
1, 136487, Note_off_c, 1, 57, 96
1, 136492, Note_on_c, 1, 60, 96
1, 136493, Note_off_c, 1, 60, 96
1, 136495, Note_on_c, 1, 53, 96
1, 136496, Note_off_c, 1, 53, 96
1, 136551, Note_on_c, 1, 69, 96
1, 136553, Note_off_c, 1, 69, 96
1, 136553, Note_on_c, 1, 81, 96
1, 136554, Note_off_c, 1, 81, 96
1, 136616, Note_on_c, 1, 65, 96
1, 136616, Note_on_c, 1, 41, 96
1, 136617, Note_off_c, 1, 65, 96
1, 136617, Note_off_c, 1, 41, 96
1, 136674, Note_on_c, 1, 77, 96
1, 136675, Note_off_c, 1, 77, 96
1, 136733, Note_on_c, 1, 72, 96
1, 136734, Note_off_c, 1, 72, 96
1, 136742, Note_on_c, 1, 77, 96
1, 136742, Note_on_c, 1, 69, 96
1, 136742, Note_on_c, 1, 65, 96
1, 136742, Note_on_c, 1, 60, 96
1, 136743, Note_off_c, 1, 77, 96
1, 136743, Note_off_c, 1, 69, 96
1, 136743, Note_off_c, 1, 65, 96
1, 136743, Note_off_c, 1, 60, 96
1, 136861, Note_on_c, 1, 65, 96
1, 136861, Note_on_c, 1, 53, 96
1, 136863, Note_off_c, 1, 65, 96
1, 136863, Note_off_c, 1, 53, 96
1, 136863, Note_on_c, 1, 57, 96
1, 136865, Note_off_c, 1, 57, 96
1, 136865, Note_on_c, 1, 63, 96
1, 136866, Note_off_c, 1, 63, 96
1, 136984, Note_on_c, 1, 50, 96
1, 136985, Note_off_c, 1, 50, 96
1, 136987, Note_on_c, 1, 38, 96
1, 136988, Note_off_c, 1, 38, 96
1, 137106, Note_on_c, 1, 74, 96
1, 137107, Note_off_c, 1, 74, 96
1, 137227, Note_on_c, 1, 57, 96
1, 137229, Note_off_c, 1, 57, 96
1, 137229, Note_on_c, 1, 65, 96
1, 137231, Note_off_c, 1, 65, 96
1, 137231, Note_on_c, 1, 60, 96
1, 137232, Note_off_c, 1, 60, 96
1, 137470, Note_on_c, 1, 69, 96
1, 137471, Note_off_c, 1, 69, 96
1, 137590, Note_on_c, 1, 50, 96
1, 137592, Note_off_c, 1, 50, 96
1, 137592, Note_on_c, 1, 70, 96
1, 137593, Note_off_c, 1, 70, 96
1, 137597, Note_on_c, 1, 38, 96
1, 137599, Note_off_c, 1, 38, 96
1, 137599, Note_on_c, 1, 65, 96
1, 137600, Note_off_c, 1, 65, 96
1, 137719, Note_on_c, 1, 62, 96
1, 137720, Note_off_c, 1, 62, 96
1, 137725, Note_on_c, 1, 50, 96
1, 137726, Note_off_c, 1, 50, 96
1, 137805, Note_on_c, 1, 74, 96
1, 137806, Note_off_c, 1, 74, 96
1, 137924, Note_on_c, 1, 74, 96
1, 137925, Note_off_c, 1, 74, 96
1, 138001, Note_on_c, 1, 77, 96
1, 138002, Note_off_c, 1, 77, 96
1, 138047, Note_on_c, 1, 72, 96
1, 138048, Note_off_c, 1, 72, 96
1, 138167, Note_on_c, 1, 56, 96
1, 138169, Note_off_c, 1, 56, 96
1, 138169, Note_on_c, 1, 58, 96
1, 138171, Note_off_c, 1, 58, 96
1, 138171, Note_on_c, 1, 62, 96
1, 138172, Note_off_c, 1, 62, 96
1, 138174, Note_on_c, 1, 65, 96
1, 138175, Note_off_c, 1, 65, 96
1, 138232, Note_on_c, 1, 70, 96
1, 138233, Note_off_c, 1, 70, 96
1, 138294, Note_on_c, 1, 43, 96
1, 138296, Note_off_c, 1, 43, 96
1, 138296, Note_on_c, 1, 72, 96
1, 138297, Note_off_c, 1, 72, 96
1, 138354, Note_on_c, 1, 67, 96
1, 138355, Note_off_c, 1, 67, 96
1, 138416, Note_on_c, 1, 55, 96
1, 138418, Note_off_c, 1, 55, 96
1, 138418, Note_on_c, 1, 60, 96
1, 138421, Note_off_c, 1, 60, 96
1, 138421, Note_on_c, 1, 81, 96
1, 138421, Note_on_c, 1, 64, 96
1, 138423, Note_off_c, 1, 81, 96
1, 138423, Note_off_c, 1, 64, 96
1, 138423, Note_on_c, 1, 69, 96
1, 138424, Note_off_c, 1, 69, 96
1, 138482, Note_on_c, 1, 76, 96
1, 138483, Note_off_c, 1, 76, 96
1, 138539, Note_on_c, 1, 48, 96
1, 138540, Note_off_c, 1, 48, 96
1, 138544, Note_on_c, 1, 69, 96
1, 138545, Note_off_c, 1, 69, 96
1, 138604, Note_on_c, 1, 76, 96
1, 138605, Note_off_c, 1, 76, 96
1, 138662, Note_on_c, 1, 57, 96
1, 138664, Note_off_c, 1, 57, 96
1, 138664, Note_on_c, 1, 60, 96
1, 138665, Note_off_c, 1, 60, 96
1, 138669, Note_on_c, 1, 65, 96
1, 138670, Note_off_c, 1, 65, 96
1, 138787, Note_on_c, 1, 46, 96
1, 138789, Note_off_c, 1, 46, 96
1, 138789, Note_on_c, 1, 77, 96
1, 138790, Note_off_c, 1, 77, 96
1, 138792, Note_on_c, 1, 70, 96
1, 138793, Note_off_c, 1, 70, 96
1, 138914, Note_on_c, 1, 77, 96
1, 138914, Note_on_c, 1, 60, 96
1, 138914, Note_on_c, 1, 57, 96
1, 138917, Note_off_c, 1, 77, 96
1, 138917, Note_off_c, 1, 60, 96
1, 138917, Note_off_c, 1, 57, 96
1, 138917, Note_on_c, 1, 76, 96
1, 138917, Note_on_c, 1, 65, 96
1, 138918, Note_off_c, 1, 76, 96
1, 138918, Note_off_c, 1, 65, 96
1, 139040, Note_on_c, 1, 53, 96
1, 139040, Note_on_c, 1, 57, 96
1, 139040, Note_on_c, 1, 60, 96
1, 139041, Note_off_c, 1, 53, 96
1, 139041, Note_off_c, 1, 57, 96
1, 139041, Note_off_c, 1, 60, 96
1, 139160, Note_on_c, 1, 67, 96
1, 139160, Note_on_c, 1, 48, 96
1, 139161, Note_off_c, 1, 67, 96
1, 139161, Note_off_c, 1, 48, 96
1, 139225, Note_on_c, 1, 84, 96
1, 139226, Note_off_c, 1, 84, 96
1, 139229, Note_on_c, 1, 72, 96
1, 139230, Note_off_c, 1, 72, 96
1, 139283, Note_on_c, 1, 53, 96
1, 139284, Note_off_c, 1, 53, 96
1, 139289, Note_on_c, 1, 41, 96
1, 139290, Note_off_c, 1, 41, 96
1, 139348, Note_on_c, 1, 76, 96
1, 139349, Note_off_c, 1, 76, 96
1, 139356, Note_on_c, 1, 88, 96
1, 139357, Note_off_c, 1, 88, 96
1, 139415, Note_on_c, 1, 60, 96
1, 139418, Note_off_c, 1, 60, 96
1, 139418, Note_on_c, 1, 58, 96
1, 139418, Note_on_c, 1, 64, 96
1, 139419, Note_off_c, 1, 58, 96
1, 139419, Note_off_c, 1, 64, 96
1, 139474, Note_on_c, 1, 82, 96
1, 139475, Note_off_c, 1, 82, 96
1, 139479, Note_on_c, 1, 84, 96
1, 139479, Note_on_c, 1, 76, 96
1, 139479, Note_on_c, 1, 88, 96
1, 139480, Note_off_c, 1, 84, 96
1, 139480, Note_off_c, 1, 76, 96
1, 139480, Note_off_c, 1, 88, 96
1, 139598, Note_on_c, 1, 72, 96
1, 139598, Note_on_c, 1, 84, 96
1, 139599, Note_off_c, 1, 72, 96
1, 139599, Note_off_c, 1, 84, 96
1, 139840, Note_on_c, 1, 48, 96
1, 139841, Note_off_c, 1, 48, 96
1, 139845, Note_on_c, 1, 60, 96
1, 139846, Note_off_c, 1, 60, 96
1, 139961, Note_on_c, 1, 50, 96
1, 139962, Note_off_c, 1, 50, 96
1, 140081, Note_on_c, 1, 52, 96
1, 140083, Note_off_c, 1, 52, 96
1, 140083, Note_on_c, 1, 64, 96
1, 140084, Note_off_c, 1, 64, 96
1, 140207, Note_on_c, 1, 59, 96
1, 140207, Note_on_c, 1, 64, 96
1, 140208, Note_off_c, 1, 59, 96
1, 140208, Note_off_c, 1, 64, 96
1, 140210, Note_on_c, 1, 55, 96
1, 140211, Note_off_c, 1, 55, 96
1, 140451, Note_on_c, 1, 60, 96
1, 140452, Note_off_c, 1, 60, 96
1, 140455, Note_on_c, 1, 58, 96
1, 140455, Note_on_c, 1, 48, 96
1, 140456, Note_off_c, 1, 58, 96
1, 140456, Note_off_c, 1, 48, 96
1, 140458, Note_on_c, 1, 64, 96
1, 140459, Note_off_c, 1, 64, 96
1, 140576, Note_on_c, 1, 69, 96
1, 140577, Note_off_c, 1, 69, 96
1, 140695, Note_on_c, 1, 72, 96
1, 140696, Note_off_c, 1, 72, 96
1, 140702, Note_on_c, 1, 43, 96
1, 140703, Note_off_c, 1, 43, 96
1, 140760, Note_on_c, 1, 74, 96
1, 140761, Note_off_c, 1, 74, 96
1, 140825, Note_on_c, 1, 76, 96
1, 140825, Note_on_c, 1, 36, 96
1, 140825, Note_on_c, 1, 48, 96
1, 140826, Note_off_c, 1, 76, 96
1, 140826, Note_off_c, 1, 36, 96
1, 140826, Note_off_c, 1, 48, 96
1, 140941, Note_on_c, 1, 41, 96
1, 140942, Note_off_c, 1, 41, 96
1, 140945, Note_on_c, 1, 72, 96
1, 140947, Note_off_c, 1, 72, 96
1, 140947, Note_on_c, 1, 63, 96
1, 140949, Note_off_c, 1, 63, 96
1, 140949, Note_on_c, 1, 57, 96
1, 140951, Note_off_c, 1, 57, 96
1, 140951, Note_on_c, 1, 53, 96
1, 140952, Note_off_c, 1, 53, 96
1, 141067, Note_on_c, 1, 53, 96
1, 141068, Note_off_c, 1, 53, 96
1, 141071, Note_on_c, 1, 60, 96
1, 141072, Note_off_c, 1, 60, 96
1, 141075, Note_on_c, 1, 72, 96
1, 141075, Note_on_c, 1, 57, 96
1, 141076, Note_off_c, 1, 72, 96
1, 141076, Note_off_c, 1, 57, 96
1, 141192, Note_on_c, 1, 53, 96
1, 141193, Note_off_c, 1, 53, 96
1, 141196, Note_on_c, 1, 74, 96
1, 141198, Note_off_c, 1, 74, 96
1, 141198, Note_on_c, 1, 69, 96
1, 141199, Note_off_c, 1, 69, 96
1, 141201, Note_on_c, 1, 43, 96
1, 141202, Note_off_c, 1, 43, 96
1, 141317, Note_on_c, 1, 43, 96
1, 141318, Note_off_c, 1, 43, 96
1, 141324, Note_on_c, 1, 72, 96
1, 141324, Note_on_c, 1, 74, 96
1, 141324, Note_on_c, 1, 64, 96
1, 141325, Note_off_c, 1, 72, 96
1, 141325, Note_off_c, 1, 74, 96
1, 141325, Note_off_c, 1, 64, 96
1, 141439, Note_on_c, 1, 51, 96
1, 141440, Note_off_c, 1, 51, 96
1, 141445, Note_on_c, 1, 75, 96
1, 141446, Note_off_c, 1, 75, 96
1, 141502, Note_on_c, 1, 67, 96
1, 141503, Note_off_c, 1, 67, 96
1, 141506, Note_on_c, 1, 51, 96
1, 141508, Note_off_c, 1, 51, 96
1, 141508, Note_on_c, 1, 39, 96
1, 141509, Note_off_c, 1, 39, 96
1, 141627, Note_on_c, 1, 67, 96
1, 141629, Note_off_c, 1, 67, 96
1, 141629, Note_on_c, 1, 79, 96
1, 141631, Note_off_c, 1, 79, 96
1, 141631, Note_on_c, 1, 76, 96
1, 141632, Note_off_c, 1, 76, 96
1, 141634, Note_on_c, 1, 70, 96
1, 141635, Note_off_c, 1, 70, 96
1, 141750, Note_on_c, 1, 79, 96
1, 141751, Note_off_c, 1, 79, 96
1, 141754, Note_on_c, 1, 67, 96
1, 141756, Note_off_c, 1, 67, 96
1, 141756, Note_on_c, 1, 46, 96
1, 141757, Note_off_c, 1, 46, 96
1, 141760, Note_on_c, 1, 70, 96
1, 141761, Note_off_c, 1, 70, 96
1, 141874, Note_on_c, 1, 77, 96
1, 141874, Note_on_c, 1, 63, 96
1, 141876, Note_off_c, 1, 77, 96
1, 141876, Note_off_c, 1, 63, 96
1, 141876, Note_on_c, 1, 58, 96
1, 141878, Note_off_c, 1, 58, 96
1, 141878, Note_on_c, 1, 55, 96
1, 141881, Note_off_c, 1, 55, 96
1, 141881, Note_on_c, 1, 82, 96
1, 141881, Note_on_c, 1, 79, 96
1, 141884, Note_off_c, 1, 82, 96
1, 141884, Note_off_c, 1, 79, 96
1, 141884, Note_on_c, 1, 72, 96
1, 141884, Note_on_c, 1, 70, 96
1, 141885, Note_off_c, 1, 72, 96
1, 141885, Note_off_c, 1, 70, 96
1, 142005, Note_on_c, 1, 46, 96
1, 142006, Note_off_c, 1, 46, 96
1, 142065, Note_on_c, 1, 77, 96
1, 142066, Note_off_c, 1, 77, 96
1, 142123, Note_on_c, 1, 41, 96
1, 142124, Note_off_c, 1, 41, 96
1, 142130, Note_on_c, 1, 80, 96
1, 142130, Note_on_c, 1, 53, 96
1, 142131, Note_off_c, 1, 80, 96
1, 142131, Note_off_c, 1, 53, 96
1, 142187, Note_on_c, 1, 65, 96
1, 142188, Note_off_c, 1, 65, 96
1, 142191, Note_on_c, 1, 77, 96
1, 142192, Note_off_c, 1, 77, 96
1, 142369, Note_on_c, 1, 53, 96
1, 142370, Note_off_c, 1, 53, 96
1, 142372, Note_on_c, 1, 41, 96
1, 142373, Note_off_c, 1, 41, 96
1, 142609, Note_on_c, 1, 65, 96
1, 142610, Note_off_c, 1, 65, 96
1, 142727, Note_on_c, 1, 57, 96
1, 142728, Note_off_c, 1, 57, 96
1, 142792, Note_on_c, 1, 72, 96
1, 142793, Note_off_c, 1, 72, 96
1, 142851, Note_on_c, 1, 57, 96
1, 142853, Note_off_c, 1, 57, 96
1, 142853, Note_on_c, 1, 75, 96
1, 142855, Note_off_c, 1, 75, 96
1, 142855, Note_on_c, 1, 63, 96
1, 142858, Note_off_c, 1, 63, 96
1, 142858, Note_on_c, 1, 60, 96
1, 142858, Note_on_c, 1, 53, 96
1, 142859, Note_off_c, 1, 60, 96
1, 142859, Note_off_c, 1, 53, 96
1, 142973, Note_on_c, 1, 65, 96
1, 142974, Note_off_c, 1, 65, 96
1, 143096, Note_on_c, 1, 55, 96
1, 143098, Note_off_c, 1, 55, 96
1, 143098, Note_on_c, 1, 76, 96
1, 143099, Note_off_c, 1, 76, 96
1, 143337, Note_on_c, 1, 45, 96
1, 143338, Note_off_c, 1, 45, 96
1, 143342, Note_on_c, 1, 62, 96
1, 143343, Note_off_c, 1, 62, 96
1, 143345, Note_on_c, 1, 60, 96
1, 143346, Note_off_c, 1, 60, 96
1, 143463, Note_on_c, 1, 72, 96
1, 143464, Note_off_c, 1, 72, 96
1, 143580, Note_on_c, 1, 74, 96
1, 143581, Note_off_c, 1, 74, 96
1, 143586, Note_on_c, 1, 65, 96
1, 143587, Note_off_c, 1, 65, 96
1, 143707, Note_on_c, 1, 76, 96
1, 143708, Note_off_c, 1, 76, 96
1, 143826, Note_on_c, 1, 72, 96
1, 143827, Note_off_c, 1, 72, 96
1, 143829, Note_on_c, 1, 60, 96
1, 143830, Note_off_c, 1, 60, 96
1, 143948, Note_on_c, 1, 74, 96
1, 143949, Note_off_c, 1, 74, 96
1, 144191, Note_on_c, 1, 64, 96
1, 144192, Note_off_c, 1, 64, 96
1, 144313, Note_on_c, 1, 60, 96
1, 144315, Note_off_c, 1, 60, 96
1, 144315, Note_on_c, 1, 48, 96
1, 144317, Note_off_c, 1, 48, 96
1, 144317, Note_on_c, 1, 36, 96
1, 144318, Note_off_c, 1, 36, 96
1, 144433, Note_on_c, 1, 69, 96
1, 144434, Note_off_c, 1, 69, 96
1, 144436, Note_on_c, 1, 65, 96
1, 144437, Note_off_c, 1, 65, 96
1, 144440, Note_on_c, 1, 53, 96
1, 144441, Note_off_c, 1, 53, 96
1, 144557, Note_on_c, 1, 67, 96
1, 144558, Note_off_c, 1, 67, 96
1, 144681, Note_on_c, 1, 46, 96
1, 144682, Note_off_c, 1, 46, 96
1, 144800, Note_on_c, 1, 65, 96
1, 144801, Note_off_c, 1, 65, 96
1, 144920, Note_on_c, 1, 69, 96
1, 144921, Note_off_c, 1, 69, 96
1, 144924, Note_on_c, 1, 52, 96
1, 144926, Note_off_c, 1, 52, 96
1, 144926, Note_on_c, 1, 60, 96
1, 144927, Note_off_c, 1, 60, 96
1, 145043, Note_on_c, 1, 69, 96
1, 145044, Note_off_c, 1, 69, 96
1, 145046, Note_on_c, 1, 65, 96
1, 145047, Note_off_c, 1, 65, 96
1, 145167, Note_on_c, 1, 71, 96
1, 145168, Note_off_c, 1, 71, 96
1, 145290, Note_on_c, 1, 65, 96
1, 145292, Note_off_c, 1, 65, 96
1, 145292, Note_on_c, 1, 53, 96
1, 145293, Note_off_c, 1, 53, 96
1, 145354, Note_on_c, 1, 65, 96
1, 145354, Note_on_c, 1, 72, 96
1, 145354, Note_on_c, 1, 76, 96
1, 145355, Note_off_c, 1, 65, 96
1, 145355, Note_off_c, 1, 72, 96
1, 145355, Note_off_c, 1, 76, 96
1, 145411, Note_on_c, 1, 55, 96
1, 145412, Note_off_c, 1, 55, 96
1, 145416, Note_on_c, 1, 60, 96
1, 145417, Note_off_c, 1, 60, 96
1, 145419, Note_on_c, 1, 63, 96
1, 145420, Note_off_c, 1, 63, 96
1, 145477, Note_on_c, 1, 88, 96
1, 145478, Note_off_c, 1, 88, 96
1, 145536, Note_on_c, 1, 82, 96
1, 145537, Note_off_c, 1, 82, 96
1, 145603, Note_on_c, 1, 84, 96
1, 145603, Note_on_c, 1, 77, 96
1, 145605, Note_off_c, 1, 84, 96
1, 145605, Note_off_c, 1, 77, 96
1, 145605, Note_on_c, 1, 72, 96
1, 145606, Note_off_c, 1, 72, 96
1, 145661, Note_on_c, 1, 45, 96
1, 145662, Note_off_c, 1, 45, 96
1, 145668, Note_on_c, 1, 57, 96
1, 145669, Note_off_c, 1, 57, 96
1, 145784, Note_on_c, 1, 57, 96
1, 145785, Note_off_c, 1, 57, 96
1, 145788, Note_on_c, 1, 73, 96
1, 145788, Note_on_c, 1, 60, 96
1, 145789, Note_off_c, 1, 73, 96
1, 145789, Note_off_c, 1, 60, 96
1, 145791, Note_on_c, 1, 65, 96
1, 145792, Note_off_c, 1, 65, 96
1, 145908, Note_on_c, 1, 74, 96
1, 145908, Note_on_c, 1, 62, 96
1, 145910, Note_off_c, 1, 74, 96
1, 145910, Note_off_c, 1, 62, 96
1, 145910, Note_on_c, 1, 86, 96
1, 145912, Note_off_c, 1, 86, 96
1, 145912, Note_on_c, 1, 57, 96
1, 145913, Note_off_c, 1, 57, 96
1, 145917, Note_on_c, 1, 65, 96
1, 145918, Note_off_c, 1, 65, 96
1, 146034, Note_on_c, 1, 72, 96
1, 146035, Note_off_c, 1, 72, 96
1, 146037, Note_on_c, 1, 81, 96
1, 146038, Note_off_c, 1, 81, 96
1, 146156, Note_on_c, 1, 45, 96
1, 146157, Note_off_c, 1, 45, 96
1, 146273, Note_on_c, 1, 53, 96
1, 146273, Note_on_c, 1, 57, 96
1, 146274, Note_off_c, 1, 53, 96
1, 146274, Note_off_c, 1, 57, 96
1, 146278, Note_on_c, 1, 62, 96
1, 146279, Note_off_c, 1, 62, 96
1, 146398, Note_on_c, 1, 79, 96
1, 146399, Note_off_c, 1, 79, 96
1, 146517, Note_on_c, 1, 76, 96
1, 146520, Note_off_c, 1, 76, 96
1, 146520, Note_on_c, 1, 72, 96
1, 146520, Note_on_c, 1, 48, 96
1, 146522, Note_off_c, 1, 72, 96
1, 146522, Note_off_c, 1, 48, 96
1, 146522, Note_on_c, 1, 79, 96
1, 146523, Note_off_c, 1, 79, 96
1, 146643, Note_on_c, 1, 79, 96
1, 146645, Note_off_c, 1, 79, 96
1, 146645, Note_on_c, 1, 67, 96
1, 146646, Note_off_c, 1, 67, 96
1, 146648, Note_on_c, 1, 58, 96
1, 146649, Note_off_c, 1, 58, 96
1, 146768, Note_on_c, 1, 57, 96
1, 146768, Note_on_c, 1, 53, 96
1, 146769, Note_off_c, 1, 57, 96
1, 146769, Note_off_c, 1, 53, 96
1, 146772, Note_on_c, 1, 63, 96
1, 146773, Note_off_c, 1, 63, 96
1, 146829, Note_on_c, 1, 69, 96
1, 146830, Note_off_c, 1, 69, 96
1, 146890, Note_on_c, 1, 77, 96
1, 146891, Note_off_c, 1, 77, 96
1, 146894, Note_on_c, 1, 65, 96
1, 146894, Note_on_c, 1, 46, 96
1, 146895, Note_off_c, 1, 65, 96
1, 146895, Note_off_c, 1, 46, 96
1, 146949, Note_on_c, 1, 69, 96
1, 146950, Note_off_c, 1, 69, 96
1, 146953, Note_on_c, 1, 81, 96
1, 146954, Note_off_c, 1, 81, 96
1, 147014, Note_on_c, 1, 57, 96
1, 147014, Note_on_c, 1, 65, 96
1, 147016, Note_off_c, 1, 57, 96
1, 147016, Note_off_c, 1, 65, 96
1, 147016, Note_on_c, 1, 60, 96
1, 147017, Note_off_c, 1, 60, 96
1, 147076, Note_on_c, 1, 79, 96
1, 147077, Note_off_c, 1, 79, 96
1, 147137, Note_on_c, 1, 72, 96
1, 147138, Note_off_c, 1, 72, 96
1, 147140, Note_on_c, 1, 65, 96
1, 147142, Note_off_c, 1, 65, 96
1, 147142, Note_on_c, 1, 57, 96
1, 147144, Note_off_c, 1, 57, 96
1, 147144, Note_on_c, 1, 60, 96
1, 147145, Note_off_c, 1, 60, 96
1, 147204, Note_on_c, 1, 74, 96
1, 147205, Note_off_c, 1, 74, 96
1, 147262, Note_on_c, 1, 69, 96
1, 147263, Note_off_c, 1, 69, 96
1, 147266, Note_on_c, 1, 74, 96
1, 147269, Note_off_c, 1, 74, 96
1, 147269, Note_on_c, 1, 36, 96
1, 147269, Note_on_c, 1, 48, 96
1, 147270, Note_off_c, 1, 36, 96
1, 147270, Note_off_c, 1, 48, 96
1, 147327, Note_on_c, 1, 81, 96
1, 147328, Note_off_c, 1, 81, 96
1, 147330, Note_on_c, 1, 69, 96
1, 147331, Note_off_c, 1, 69, 96
1, 147387, Note_on_c, 1, 57, 96
1, 147388, Note_off_c, 1, 57, 96
1, 147393, Note_on_c, 1, 60, 96
1, 147394, Note_off_c, 1, 60, 96
1, 147448, Note_on_c, 1, 67, 96
1, 147449, Note_off_c, 1, 67, 96
1, 147511, Note_on_c, 1, 69, 96
1, 147513, Note_off_c, 1, 69, 96
1, 147513, Note_on_c, 1, 65, 96
1, 147514, Note_off_c, 1, 65, 96
1, 147516, Note_on_c, 1, 77, 96
1, 147517, Note_off_c, 1, 77, 96
1, 147632, Note_on_c, 1, 42, 96
1, 147633, Note_off_c, 1, 42, 96
1, 147638, Note_on_c, 1, 54, 96
1, 147639, Note_off_c, 1, 54, 96
1, 147757, Note_on_c, 1, 65, 96
1, 147758, Note_off_c, 1, 65, 96
1, 147876, Note_on_c, 1, 74, 96
1, 147877, Note_off_c, 1, 74, 96
1, 147879, Note_on_c, 1, 77, 96
1, 147880, Note_off_c, 1, 77, 96
1, 147882, Note_on_c, 1, 53, 96
1, 147884, Note_off_c, 1, 53, 96
1, 147884, Note_on_c, 1, 69, 96
1, 147885, Note_off_c, 1, 69, 96
1, 147941, Note_on_c, 1, 69, 96
1, 147942, Note_off_c, 1, 69, 96
1, 148003, Note_on_c, 1, 47, 96
1, 148004, Note_off_c, 1, 47, 96
1, 148007, Note_on_c, 1, 77, 96
1, 148008, Note_off_c, 1, 77, 96
1, 148065, Note_on_c, 1, 76, 96
1, 148066, Note_off_c, 1, 76, 96
1, 148124, Note_on_c, 1, 59, 96
1, 148125, Note_off_c, 1, 59, 96
1, 148127, Note_on_c, 1, 65, 96
1, 148128, Note_off_c, 1, 65, 96
1, 148130, Note_on_c, 1, 74, 96
1, 148132, Note_off_c, 1, 74, 96
1, 148132, Note_on_c, 1, 55, 96
1, 148133, Note_off_c, 1, 55, 96
1, 148250, Note_on_c, 1, 67, 96
1, 148252, Note_off_c, 1, 67, 96
1, 148252, Note_on_c, 1, 60, 96
1, 148254, Note_off_c, 1, 60, 96
1, 148254, Note_on_c, 1, 51, 96
1, 148255, Note_off_c, 1, 51, 96
1, 148258, Note_on_c, 1, 58, 96
1, 148259, Note_off_c, 1, 58, 96
1, 148374, Note_on_c, 1, 62, 96
1, 148375, Note_off_c, 1, 62, 96
1, 148378, Note_on_c, 1, 50, 96
1, 148379, Note_off_c, 1, 50, 96
1, 148438, Note_on_c, 1, 47, 96
1, 148439, Note_off_c, 1, 47, 96
1, 148501, Note_on_c, 1, 60, 96
1, 148501, Note_on_c, 1, 65, 96
1, 148501, Note_on_c, 1, 69, 96
1, 148502, Note_off_c, 1, 60, 96
1, 148502, Note_off_c, 1, 65, 96
1, 148502, Note_off_c, 1, 69, 96
1, 148615, Note_on_c, 1, 41, 96
1, 148616, Note_off_c, 1, 41, 96
1, 148620, Note_on_c, 1, 65, 96
1, 148621, Note_off_c, 1, 65, 96
1, 148739, Note_on_c, 1, 53, 96
1, 148740, Note_off_c, 1, 53, 96
1, 148742, Note_on_c, 1, 65, 96
1, 148743, Note_off_c, 1, 65, 96
1, 148861, Note_on_c, 1, 52, 96
1, 148861, Note_on_c, 1, 40, 96
1, 148862, Note_off_c, 1, 52, 96
1, 148862, Note_off_c, 1, 40, 96
1, 148864, Note_on_c, 1, 67, 96
1, 148865, Note_off_c, 1, 67, 96
1, 148961, Note_on_c, 1, 59, 96
1, 148961, Note_on_c, 1, 63, 96
1, 148962, Note_off_c, 1, 59, 96
1, 148962, Note_off_c, 1, 63, 96
1, 149029, Note_on_c, 1, 65, 96
1, 149030, Note_off_c, 1, 65, 96
1, 149086, Note_on_c, 1, 64, 96
1, 149087, Note_off_c, 1, 64, 96
1, 149150, Note_on_c, 1, 67, 96
1, 149151, Note_off_c, 1, 67, 96
1, 149211, Note_on_c, 1, 59, 96
1, 149213, Note_off_c, 1, 59, 96
1, 149213, Note_on_c, 1, 50, 96
1, 149214, Note_off_c, 1, 50, 96
1, 149218, Note_on_c, 1, 65, 96
1, 149219, Note_off_c, 1, 65, 96
1, 149277, Note_on_c, 1, 64, 96
1, 149278, Note_off_c, 1, 64, 96
1, 149335, Note_on_c, 1, 65, 96
1, 149336, Note_off_c, 1, 65, 96
1, 149338, Note_on_c, 1, 48, 96
1, 149339, Note_off_c, 1, 48, 96
1, 149398, Note_on_c, 1, 57, 96
1, 149399, Note_off_c, 1, 57, 96
1, 149518, Note_on_c, 1, 59, 96
1, 149519, Note_off_c, 1, 59, 96
1, 149523, Note_on_c, 1, 62, 96
1, 149523, Note_on_c, 1, 54, 96
1, 149525, Note_off_c, 1, 62, 96
1, 149525, Note_off_c, 1, 54, 96
1, 149525, Note_on_c, 1, 57, 96
1, 149526, Note_off_c, 1, 57, 96
1, 149540, Note_on_c, 1, 40, 96
1, 149541, Note_off_c, 1, 40, 96
1, 149583, Note_on_c, 1, 43, 96
1, 149584, Note_off_c, 1, 43, 96
1, 149586, Note_on_c, 1, 55, 96
1, 149587, Note_off_c, 1, 55, 96
1, 149643, Note_on_c, 1, 34, 96
1, 149644, Note_off_c, 1, 34, 96
1, 149720, Note_on_c, 1, 53, 96
1, 149721, Note_off_c, 1, 53, 96
1, 149834, Note_on_c, 1, 57, 96
1, 149835, Note_off_c, 1, 57, 96
1, 149838, Note_on_c, 1, 60, 96
1, 149840, Note_off_c, 1, 60, 96
1, 149840, Note_on_c, 1, 53, 96
1, 149841, Note_off_c, 1, 53, 96
1, 149960, Note_on_c, 1, 68, 96
1, 149960, Note_on_c, 1, 48, 96
1, 149960, Note_on_c, 1, 41, 96
1, 149961, Note_off_c, 1, 68, 96
1, 149961, Note_off_c, 1, 48, 96
1, 149961, Note_off_c, 1, 41, 96
1, 149963, Note_on_c, 1, 57, 96
1, 149964, Note_off_c, 1, 57, 96
1, 149967, Note_on_c, 1, 53, 96
1, 149968, Note_off_c, 1, 53, 96
1, 150084, Note_on_c, 1, 69, 96
1, 150085, Note_off_c, 1, 69, 96
1, 150087, Note_on_c, 1, 63, 96
1, 150088, Note_off_c, 1, 63, 96
1, 150090, Note_on_c, 1, 41, 96
1, 150092, Note_off_c, 1, 41, 96
1, 150092, Note_on_c, 1, 65, 96
1, 150093, Note_off_c, 1, 65, 96
1, 150147, Note_on_c, 1, 65, 96
1, 150149, Note_off_c, 1, 65, 96
1, 150149, Note_on_c, 1, 69, 96
1, 150150, Note_off_c, 1, 69, 96
1, 150506, Note_on_c, 1, 70, 96
1, 150508, Note_off_c, 1, 70, 96
1, 150508, Note_on_c, 1, 74, 96
1, 150511, Note_off_c, 1, 74, 96
1, 150511, Note_on_c, 1, 41, 96
1, 150511, Note_on_c, 1, 53, 96
1, 150513, Note_off_c, 1, 41, 96
1, 150513, Note_off_c, 1, 53, 96
1, 150513, Note_on_c, 1, 82, 96
1, 150514, Note_off_c, 1, 82, 96
1, 150694, Note_on_c, 1, 55, 96
1, 150694, Note_on_c, 1, 43, 96
1, 150695, Note_off_c, 1, 55, 96
1, 150695, Note_off_c, 1, 43, 96
1, 150745, End_track
0, 0, End_of_file