0, 0, Header, 0, 1, 120
1, 0, Start_track
1, 0, Tempo, 600000
1, 3, Note_on_c, 1, 50, 96
1, 3, Note_on_c, 1, 70, 96
1, 3, Note_on_c, 1, 53, 96
1, 4, Note_off_c, 1, 50, 96
1, 4, Note_off_c, 1, 70, 96
1, 4, Note_off_c, 1, 53, 96
1, 511, Note_on_c, 1, 86, 96
1, 511, Note_on_c, 1, 98, 96
1, 511, Note_on_c, 1, 57, 96
1, 511, Note_on_c, 1, 60, 96
1, 511, Note_on_c, 1, 65, 96
1, 512, Note_off_c, 1, 86, 96
1, 512, Note_off_c, 1, 98, 96
1, 512, Note_off_c, 1, 57, 96
1, 512, Note_off_c, 1, 60, 96
1, 512, Note_off_c, 1, 65, 96
1, 520, Note_on_c, 1, 38, 96
1, 521, Note_off_c, 1, 38, 96
1, 656, Note_on_c, 1, 89, 96
1, 656, Note_on_c, 1, 93, 96
1, 656, Note_on_c, 1, 78, 96
1, 656, Note_on_c, 1, 60, 96
1, 656, Note_on_c, 1, 57, 96
1, 656, Note_on_c, 1, 62, 96
1, 657, Note_off_c, 1, 89, 96
1, 657, Note_off_c, 1, 93, 96
1, 657, Note_off_c, 1, 78, 96
1, 657, Note_off_c, 1, 60, 96
1, 657, Note_off_c, 1, 57, 96
1, 657, Note_off_c, 1, 62, 96
1, 665, Note_on_c, 1, 38, 96
1, 666, Note_off_c, 1, 38, 96
1, 992, Note_on_c, 1, 40, 96
1, 993, Note_off_c, 1, 40, 96
1, 1016, Note_on_c, 1, 39, 96
1, 1017, Note_off_c, 1, 39, 96
1, 1021, Note_on_c, 1, 38, 96
1, 1022, Note_off_c, 1, 38, 96
1, 1127, Note_on_c, 1, 40, 96
1, 1128, Note_off_c, 1, 40, 96
1, 1134, Note_on_c, 1, 75, 96
1, 1135, Note_off_c, 1, 75, 96
1, 1161, Note_on_c, 1, 39, 96
1, 1161, Note_on_c, 1, 38, 96
1, 1162, Note_off_c, 1, 39, 96
1, 1162, Note_off_c, 1, 38, 96
1, 1202, Note_on_c, 1, 65, 96
1, 1203, Note_off_c, 1, 65, 96
1, 1211, Note_on_c, 1, 38, 96
1, 1212, Note_off_c, 1, 38, 96
1, 1237, Note_on_c, 1, 40, 96
1, 1238, Note_off_c, 1, 40, 96
1, 1247, Note_on_c, 1, 43, 96
1, 1247, Note_on_c, 1, 50, 96
1, 1247, Note_on_c, 1, 59, 96
1, 1255, Note_off_c, 1, 43, 96
1, 1255, Note_off_c, 1, 50, 96
1, 1255, Note_off_c, 1, 59, 96
1, 1255, Note_on_c, 1, 74, 96
1, 1255, Note_on_c, 1, 86, 96
1, 1255, Note_on_c, 1, 71, 96
1, 1255, Note_on_c, 1, 79, 96
1, 1255, Note_on_c, 1, 70, 96
1, 1255, Note_on_c, 1, 67, 96
1, 1255, Note_on_c, 1, 34, 96
1, 1256, Note_off_c, 1, 74, 96
1, 1256, Note_off_c, 1, 86, 96
1, 1256, Note_off_c, 1, 71, 96
1, 1256, Note_off_c, 1, 79, 96
1, 1256, Note_off_c, 1, 70, 96
1, 1256, Note_off_c, 1, 67, 96
1, 1256, Note_off_c, 1, 34, 96
1, 1340, Note_on_c, 1, 64, 96
1, 1340, Note_on_c, 1, 59, 96
1, 1340, Note_on_c, 1, 62, 96
1, 1340, Note_on_c, 1, 67, 96
1, 1340, Note_on_c, 1, 74, 96
1, 1341, Note_off_c, 1, 64, 96
1, 1341, Note_off_c, 1, 59, 96
1, 1341, Note_off_c, 1, 62, 96
1, 1341, Note_off_c, 1, 67, 96
1, 1341, Note_off_c, 1, 74, 96
1, 1370, Note_on_c, 1, 82, 96
1, 1372, Note_off_c, 1, 82, 96
1, 1372, Note_on_c, 1, 40, 96
1, 1373, Note_off_c, 1, 40, 96
1, 1403, Note_on_c, 1, 30, 96
1, 1404, Note_off_c, 1, 30, 96
1, 1442, Note_on_c, 1, 71, 96
1, 1442, Note_on_c, 1, 76, 96
1, 1442, Note_on_c, 1, 80, 96
1, 1442, Note_on_c, 1, 68, 96
1, 1442, Note_on_c, 1, 59, 96
1, 1442, Note_on_c, 1, 62, 96
1, 1442, Note_on_c, 1, 64, 96
1, 1442, Note_on_c, 1, 76, 96
1, 1442, Note_on_c, 1, 80, 96
1, 1443, Note_off_c, 1, 71, 96
1, 1443, Note_off_c, 1, 76, 96
1, 1443, Note_off_c, 1, 80, 96
1, 1443, Note_off_c, 1, 68, 96
1, 1443, Note_off_c, 1, 59, 96
1, 1443, Note_off_c, 1, 62, 96
1, 1443, Note_off_c, 1, 64, 96
1, 1443, Note_off_c, 1, 76, 96
1, 1443, Note_off_c, 1, 80, 96
1, 1473, Note_on_c, 1, 73, 96
1, 1474, Note_off_c, 1, 73, 96
1, 1508, Note_on_c, 1, 60, 96
1, 1508, Note_on_c, 1, 74, 96
1, 1508, Note_on_c, 1, 63, 96
1, 1508, Note_on_c, 1, 66, 96
1, 1508, Note_on_c, 1, 63, 96
1, 1509, Note_off_c, 1, 60, 96
1, 1509, Note_off_c, 1, 74, 96
1, 1509, Note_off_c, 1, 63, 96
1, 1509, Note_off_c, 1, 66, 96
1, 1509, Note_off_c, 1, 63, 96
1, 1541, Note_on_c, 1, 71, 96
1, 1542, Note_off_c, 1, 71, 96
1, 1574, Note_on_c, 1, 72, 96
1, 1574, Note_on_c, 1, 57, 96
1, 1574, Note_on_c, 1, 45, 96
1, 1574, Note_on_c, 1, 52, 96
1, 1575, Note_off_c, 1, 72, 96
1, 1575, Note_off_c, 1, 57, 96
1, 1575, Note_off_c, 1, 45, 96
1, 1575, Note_off_c, 1, 52, 96
1, 1605, Note_on_c, 1, 76, 96
1, 1606, Note_off_c, 1, 76, 96
1, 1638, Note_on_c, 1, 83, 96
1, 1638, Note_on_c, 1, 44, 96
1, 1638, Note_on_c, 1, 56, 96
1, 1639, Note_off_c, 1, 83, 96
1, 1639, Note_off_c, 1, 44, 96
1, 1639, Note_off_c, 1, 56, 96
1, 1669, Note_on_c, 1, 83, 96
1, 1670, Note_off_c, 1, 83, 96
1, 1703, Note_on_c, 1, 76, 96
1, 1703, Note_on_c, 1, 83, 96
1, 1703, Note_on_c, 1, 44, 96
1, 1703, Note_on_c, 1, 56, 96
1, 1704, Note_off_c, 1, 76, 96
1, 1704, Note_off_c, 1, 83, 96
1, 1704, Note_off_c, 1, 44, 96
1, 1704, Note_off_c, 1, 56, 96
1, 1767, Note_on_c, 1, 69, 96
1, 1767, Note_on_c, 1, 81, 96
1, 1767, Note_on_c, 1, 57, 96
1, 1767, Note_on_c, 1, 45, 96
1, 1768, Note_off_c, 1, 69, 96
1, 1768, Note_off_c, 1, 81, 96
1, 1768, Note_off_c, 1, 57, 96
1, 1768, Note_off_c, 1, 45, 96
1, 1799, Note_on_c, 1, 83, 96
1, 1799, Note_on_c, 1, 71, 96
1, 1800, Note_off_c, 1, 83, 96
1, 1800, Note_off_c, 1, 71, 96
1, 1831, Note_on_c, 1, 44, 96
1, 1831, Note_on_c, 1, 56, 96
1, 1832, Note_off_c, 1, 44, 96
1, 1832, Note_off_c, 1, 56, 96
1, 1863, Note_on_c, 1, 83, 96
1, 1863, Note_on_c, 1, 76, 96
1, 1864, Note_off_c, 1, 83, 96
1, 1864, Note_off_c, 1, 76, 96
1, 1895, Note_on_c, 1, 45, 96
1, 1895, Note_on_c, 1, 57, 96
1, 1896, Note_off_c, 1, 45, 96
1, 1896, Note_off_c, 1, 57, 96
1, 1926, Note_on_c, 1, 76, 96
1, 1927, Note_off_c, 1, 76, 96
1, 1960, Note_on_c, 1, 81, 96
1, 1960, Note_on_c, 1, 72, 96
1, 1960, Note_on_c, 1, 43, 96
1, 1960, Note_on_c, 1, 55, 96
1, 1961, Note_off_c, 1, 81, 96
1, 1961, Note_off_c, 1, 72, 96
1, 1961, Note_off_c, 1, 43, 96
1, 1961, Note_off_c, 1, 55, 96
1, 1991, Note_on_c, 1, 76, 96
1, 1992, Note_off_c, 1, 76, 96
1, 2024, Note_on_c, 1, 55, 96
1, 2024, Note_on_c, 1, 60, 96
1, 2024, Note_on_c, 1, 64, 96
1, 2026, Note_off_c, 1, 55, 96
1, 2026, Note_off_c, 1, 60, 96
1, 2026, Note_off_c, 1, 64, 96
1, 2026, Note_on_c, 1, 80, 96
1, 2027, Note_off_c, 1, 80, 96
1, 2055, Note_on_c, 1, 79, 96
1, 2056, Note_off_c, 1, 79, 96
1, 2089, Note_on_c, 1, 76, 96
1, 2089, Note_on_c, 1, 81, 96
1, 2089, Note_on_c, 1, 38, 96
1, 2089, Note_on_c, 1, 50, 96
1, 2090, Note_off_c, 1, 76, 96
1, 2090, Note_off_c, 1, 81, 96
1, 2090, Note_off_c, 1, 38, 96
1, 2090, Note_off_c, 1, 50, 96
1, 2120, Note_on_c, 1, 76, 96
1, 2121, Note_off_c, 1, 76, 96
1, 2153, Note_on_c, 1, 67, 96
1, 2153, Note_on_c, 1, 79, 96
1, 2153, Note_on_c, 1, 48, 96
1, 2154, Note_off_c, 1, 67, 96
1, 2154, Note_off_c, 1, 79, 96
1, 2154, Note_off_c, 1, 48, 96
1, 2183, Note_on_c, 1, 78, 96
1, 2184, Note_off_c, 1, 78, 96
1, 2215, Note_on_c, 1, 81, 96
1, 2215, Note_on_c, 1, 50, 96
1, 2216, Note_off_c, 1, 81, 96
1, 2216, Note_off_c, 1, 50, 96
1, 2246, Note_on_c, 1, 78, 96
1, 2247, Note_off_c, 1, 78, 96
1, 2277, Note_on_c, 1, 46, 96
1, 2278, Note_off_c, 1, 46, 96
1, 2308, Note_on_c, 1, 86, 96
1, 2309, Note_off_c, 1, 86, 96
1, 2342, Note_on_c, 1, 82, 96
1, 2342, Note_on_c, 1, 54, 96
1, 2342, Note_on_c, 1, 58, 96
1, 2342, Note_on_c, 1, 62, 96
1, 2343, Note_off_c, 1, 82, 96
1, 2343, Note_off_c, 1, 54, 96
1, 2343, Note_off_c, 1, 58, 96
1, 2343, Note_off_c, 1, 62, 96
1, 2373, Note_on_c, 1, 86, 96
1, 2374, Note_off_c, 1, 86, 96
1, 2407, Note_on_c, 1, 81, 96
1, 2407, Note_on_c, 1, 84, 96
1, 2407, Note_on_c, 1, 36, 96
1, 2407, Note_on_c, 1, 48, 96
1, 2408, Note_off_c, 1, 81, 96
1, 2408, Note_off_c, 1, 84, 96
1, 2408, Note_off_c, 1, 36, 96
1, 2408, Note_off_c, 1, 48, 96
1, 2438, Note_on_c, 1, 81, 96
1, 2439, Note_off_c, 1, 81, 96
1, 2472, Note_on_c, 1, 83, 96
1, 2472, Note_on_c, 1, 71, 96
1, 2472, Note_on_c, 1, 43, 96
1, 2472, Note_on_c, 1, 55, 96
1, 2473, Note_off_c, 1, 83, 96
1, 2473, Note_off_c, 1, 71, 96
1, 2473, Note_off_c, 1, 43, 96
1, 2473, Note_off_c, 1, 55, 96
1, 2503, Note_on_c, 1, 74, 96
1, 2504, Note_off_c, 1, 74, 96
1, 2535, Note_on_c, 1, 78, 96
1, 2535, Note_on_c, 1, 54, 96
1, 2536, Note_off_c, 1, 78, 96
1, 2536, Note_off_c, 1, 54, 96
1, 2566, Note_on_c, 1, 83, 96
1, 2567, Note_off_c, 1, 83, 96
1, 2599, Note_on_c, 1, 79, 96
1, 2599, Note_on_c, 1, 61, 96
1, 2599, Note_on_c, 1, 49, 96
1, 2600, Note_off_c, 1, 79, 96
1, 2600, Note_off_c, 1, 61, 96
1, 2600, Note_off_c, 1, 49, 96
1, 2662, Note_on_c, 1, 88, 96
1, 2662, Note_on_c, 1, 76, 96
1, 2662, Note_on_c, 1, 47, 96
1, 2663, Note_off_c, 1, 88, 96
1, 2663, Note_off_c, 1, 76, 96
1, 2663, Note_off_c, 1, 47, 96
1, 2728, Note_on_c, 1, 65, 96
1, 2728, Note_on_c, 1, 77, 96
1, 2728, Note_on_c, 1, 53, 96
1, 2728, Note_on_c, 1, 56, 96
1, 2728, Note_on_c, 1, 59, 96
1, 2728, Note_on_c, 1, 61, 96
1, 2729, Note_off_c, 1, 65, 96
1, 2729, Note_off_c, 1, 77, 96
1, 2729, Note_off_c, 1, 53, 96
1, 2729, Note_off_c, 1, 56, 96
1, 2729, Note_off_c, 1, 59, 96
1, 2729, Note_off_c, 1, 61, 96
1, 2762, Note_on_c, 1, 80, 96
1, 2762, Note_on_c, 1, 77, 96
1, 2762, Note_on_c, 1, 74, 96
1, 2762, Note_on_c, 1, 86, 96
1, 2763, Note_off_c, 1, 80, 96
1, 2763, Note_off_c, 1, 77, 96
1, 2763, Note_off_c, 1, 74, 96
1, 2763, Note_off_c, 1, 86, 96
1, 2796, Note_on_c, 1, 67, 96
1, 2796, Note_on_c, 1, 59, 96
1, 2796, Note_on_c, 1, 89, 96
1, 2796, Note_on_c, 1, 62, 96
1, 2797, Note_off_c, 1, 67, 96
1, 2797, Note_off_c, 1, 59, 96
1, 2797, Note_off_c, 1, 89, 96
1, 2797, Note_off_c, 1, 62, 96
1, 2827, Note_on_c, 1, 94, 96
1, 2828, Note_off_c, 1, 94, 96
1, 2861, Note_on_c, 1, 89, 96
1, 2861, Note_on_c, 1, 60, 96
1, 2861, Note_on_c, 1, 48, 96
1, 2862, Note_off_c, 1, 89, 96
1, 2862, Note_off_c, 1, 60, 96
1, 2862, Note_off_c, 1, 48, 96
1, 2892, Note_on_c, 1, 92, 96
1, 2893, Note_off_c, 1, 92, 96
1, 2926, Note_on_c, 1, 91, 96
1, 2926, Note_on_c, 1, 79, 96
1, 2926, Note_on_c, 1, 73, 96
1, 2926, Note_on_c, 1, 43, 96
1, 2927, Note_off_c, 1, 91, 96
1, 2927, Note_off_c, 1, 79, 96
1, 2927, Note_off_c, 1, 73, 96
1, 2927, Note_off_c, 1, 43, 96
1, 2988, Note_on_c, 1, 56, 96
1, 2989, Note_off_c, 1, 56, 96
1, 3049, Note_on_c, 1, 94, 96
1, 3050, Note_off_c, 1, 94, 96
1, 3111, Note_on_c, 1, 96, 96
1, 3111, Note_on_c, 1, 89, 96
1, 3112, Note_off_c, 1, 96, 96
1, 3112, Note_off_c, 1, 89, 96
1, 3176, Note_on_c, 1, 70, 96
1, 3176, Note_on_c, 1, 75, 96
1, 3176, Note_on_c, 1, 87, 96
1, 3176, Note_on_c, 1, 82, 96
1, 3176, Note_on_c, 1, 94, 96
1, 3177, Note_off_c, 1, 70, 96
1, 3177, Note_off_c, 1, 75, 96
1, 3177, Note_off_c, 1, 87, 96
1, 3177, Note_off_c, 1, 82, 96
1, 3177, Note_off_c, 1, 94, 96
1, 3240, Note_on_c, 1, 75, 96
1, 3240, Note_on_c, 1, 87, 96
1, 3240, Note_on_c, 1, 79, 96
1, 3240, Note_on_c, 1, 46, 96
1, 3241, Note_off_c, 1, 75, 96
1, 3241, Note_off_c, 1, 87, 96
1, 3241, Note_off_c, 1, 79, 96
1, 3241, Note_off_c, 1, 46, 96
1, 3493, Note_on_c, 1, 80, 96
1, 3493, Note_on_c, 1, 92, 96
1, 3494, Note_off_c, 1, 80, 96
1, 3494, Note_off_c, 1, 92, 96
1, 3574, Note_on_c, 1, 89, 96
1, 3574, Note_on_c, 1, 87, 96
1, 3575, Note_off_c, 1, 89, 96
1, 3575, Note_off_c, 1, 87, 96
1, 3607, Note_on_c, 1, 87, 96
1, 3608, Note_off_c, 1, 87, 96
1, 3648, Note_on_c, 1, 85, 96
1, 3649, Note_off_c, 1, 85, 96
1, 3669, Note_on_c, 1, 87, 96
1, 3670, Note_off_c, 1, 87, 96
1, 3766, Note_on_c, 1, 86, 96
1, 3767, Note_off_c, 1, 86, 96
1, 3818, Note_on_c, 1, 84, 96
1, 3818, Note_on_c, 1, 77, 96
1, 3819, Note_off_c, 1, 84, 96
1, 3819, Note_off_c, 1, 77, 96
1, 3900, Note_on_c, 1, 91, 96
1, 3900, Note_on_c, 1, 82, 96
1, 3901, Note_off_c, 1, 91, 96
1, 3901, Note_off_c, 1, 82, 96
1, 3905, Note_on_c, 1, 70, 96
1, 3905, Note_on_c, 1, 51, 96
1, 3905, Note_on_c, 1, 63, 96
1, 3906, Note_off_c, 1, 70, 96
1, 3906, Note_off_c, 1, 51, 96
1, 3906, Note_off_c, 1, 63, 96
1, 4036, Note_on_c, 1, 89, 96
1, 4037, Note_off_c, 1, 89, 96
1, 4160, Note_on_c, 1, 67, 96
1, 4160, Note_on_c, 1, 63, 96
1, 4160, Note_on_c, 1, 61, 96
1, 4160, Note_on_c, 1, 58, 96
1, 4161, Note_off_c, 1, 67, 96
1, 4161, Note_off_c, 1, 63, 96
1, 4161, Note_off_c, 1, 61, 96
1, 4161, Note_off_c, 1, 58, 96
1, 4223, Note_on_c, 1, 70, 96
1, 4224, Note_off_c, 1, 70, 96
1, 4318, Note_on_c, 1, 72, 96
1, 4318, Note_on_c, 1, 69, 96
1, 4319, Note_off_c, 1, 72, 96
1, 4319, Note_off_c, 1, 69, 96
1, 4335, Note_on_c, 1, 58, 96
1, 4336, Note_off_c, 1, 58, 96
1, 4458, Note_on_c, 1, 73, 96
1, 4458, Note_on_c, 1, 51, 96
1, 4458, Note_on_c, 1, 67, 96
1, 4459, Note_off_c, 1, 73, 96
1, 4459, Note_off_c, 1, 51, 96
1, 4459, Note_off_c, 1, 67, 96
1, 4519, Note_on_c, 1, 76, 96
1, 4520, Note_off_c, 1, 76, 96
1, 4582, Note_on_c, 1, 75, 96
1, 4582, Note_on_c, 1, 66, 96
1, 4582, Note_on_c, 1, 46, 96
1, 4583, Note_off_c, 1, 75, 96
1, 4583, Note_off_c, 1, 66, 96
1, 4583, Note_off_c, 1, 46, 96
1, 4645, Note_on_c, 1, 71, 96
1, 4645, Note_on_c, 1, 68, 96
1, 4645, Note_on_c, 1, 45, 96
1, 4646, Note_off_c, 1, 71, 96
1, 4646, Note_off_c, 1, 68, 96
1, 4646, Note_off_c, 1, 45, 96
1, 4707, Note_on_c, 1, 49, 96
1, 4707, Note_on_c, 1, 61, 96
1, 4708, Note_off_c, 1, 49, 96
1, 4708, Note_off_c, 1, 61, 96
1, 4828, Note_on_c, 1, 31, 96
1, 4829, Note_off_c, 1, 31, 96
1, 4950, Note_on_c, 1, 72, 96
1, 4950, Note_on_c, 1, 65, 96
1, 4950, Note_on_c, 1, 53, 96
1, 4951, Note_off_c, 1, 72, 96
1, 4951, Note_off_c, 1, 65, 96
1, 4951, Note_off_c, 1, 53, 96
1, 5188, Note_on_c, 1, 72, 96
1, 5189, Note_off_c, 1, 72, 96
1, 5250, Note_on_c, 1, 74, 96
1, 5250, Note_on_c, 1, 62, 96
1, 5251, Note_off_c, 1, 74, 96
1, 5251, Note_off_c, 1, 62, 96
1, 5357, Note_on_c, 1, 59, 96
1, 5358, Note_off_c, 1, 59, 96
1, 5380, Note_on_c, 1, 60, 96
1, 5381, Note_off_c, 1, 60, 96
1, 5461, Note_on_c, 1, 67, 96
1, 5462, Note_off_c, 1, 67, 96
1, 5698, Note_on_c, 1, 77, 96
1, 5699, Note_off_c, 1, 77, 96
1, 5708, Note_on_c, 1, 62, 96
1, 5709, Note_off_c, 1, 62, 96
1, 5986, Note_on_c, 1, 52, 96
1, 5986, Note_on_c, 1, 76, 96
1, 5987, Note_off_c, 1, 52, 96
1, 5987, Note_off_c, 1, 76, 96
1, 6019, Note_on_c, 1, 57, 96
1, 6019, Note_on_c, 1, 41, 96
1, 6020, Note_off_c, 1, 57, 96
1, 6020, Note_off_c, 1, 41, 96
1, 6359, Note_on_c, 1, 71, 96
1, 6359, Note_on_c, 1, 79, 96
1, 6360, Note_off_c, 1, 71, 96
1, 6360, Note_off_c, 1, 79, 96
1, 6487, Note_on_c, 1, 53, 96
1, 6488, Note_off_c, 1, 53, 96
1, 6608, Note_on_c, 1, 75, 96
1, 6609, Note_off_c, 1, 75, 96
1, 6730, Note_on_c, 1, 71, 96
1, 6730, Note_on_c, 1, 69, 96
1, 6731, Note_off_c, 1, 71, 96
1, 6731, Note_off_c, 1, 69, 96
1, 6793, Note_on_c, 1, 50, 96
1, 6793, Note_on_c, 1, 38, 96
1, 6793, Note_on_c, 1, 81, 96
1, 6794, Note_off_c, 1, 50, 96
1, 6794, Note_off_c, 1, 38, 96
1, 6794, Note_off_c, 1, 81, 96
1, 6894, Note_on_c, 1, 74, 96
1, 6895, Note_off_c, 1, 74, 96
1, 6937, Note_on_c, 1, 65, 96
1, 6937, Note_on_c, 1, 60, 96
1, 6937, Note_on_c, 1, 57, 96
1, 6938, Note_off_c, 1, 65, 96
1, 6938, Note_off_c, 1, 60, 96
1, 6938, Note_off_c, 1, 57, 96
1, 6978, Note_on_c, 1, 75, 96
1, 6979, Note_off_c, 1, 75, 96
1, 7019, Note_on_c, 1, 41, 96
1, 7022, Note_off_c, 1, 41, 96
1, 7022, Note_on_c, 1, 81, 96
1, 7022, Note_on_c, 1, 77, 96
1, 7023, Note_off_c, 1, 81, 96
1, 7023, Note_off_c, 1, 77, 96
1, 7079, Note_on_c, 1, 65, 96
1, 7080, Note_off_c, 1, 65, 96
1, 7120, Note_on_c, 1, 64, 96
1, 7121, Note_off_c, 1, 64, 96
1, 7178, Note_on_c, 1, 70, 96
1, 7178, Note_on_c, 1, 46, 96
1, 7179, Note_off_c, 1, 70, 96
1, 7179, Note_off_c, 1, 46, 96
1, 7221, Note_on_c, 1, 79, 96
1, 7221, Note_on_c, 1, 72, 96
1, 7221, Note_on_c, 1, 46, 96
1, 7222, Note_off_c, 1, 79, 96
1, 7222, Note_off_c, 1, 72, 96
1, 7222, Note_off_c, 1, 46, 96
1, 7278, Note_on_c, 1, 50, 96
1, 7279, Note_off_c, 1, 50, 96
1, 7320, Note_on_c, 1, 53, 96
1, 7320, Note_on_c, 1, 46, 96
1, 7321, Note_off_c, 1, 53, 96
1, 7321, Note_off_c, 1, 46, 96
1, 7377, Note_on_c, 1, 66, 96
1, 7378, Note_off_c, 1, 66, 96
1, 7421, Note_on_c, 1, 65, 96
1, 7421, Note_on_c, 1, 56, 96
1, 7421, Note_on_c, 1, 58, 96
1, 7421, Note_on_c, 1, 62, 96
1, 7422, Note_off_c, 1, 65, 96
1, 7422, Note_off_c, 1, 56, 96
1, 7422, Note_off_c, 1, 58, 96
1, 7422, Note_off_c, 1, 62, 96
1, 7478, Note_on_c, 1, 67, 96
1, 7479, Note_off_c, 1, 67, 96
1, 7521, Note_on_c, 1, 63, 96
1, 7521, Note_on_c, 1, 67, 96
1, 7521, Note_on_c, 1, 51, 96
1, 7522, Note_off_c, 1, 63, 96
1, 7522, Note_off_c, 1, 67, 96
1, 7522, Note_off_c, 1, 51, 96
1, 7578, Note_on_c, 1, 77, 96
1, 7579, Note_off_c, 1, 77, 96
1, 7622, Note_on_c, 1, 72, 96
1, 7622, Note_on_c, 1, 65, 96
1, 7622, Note_on_c, 1, 35, 96
1, 7622, Note_on_c, 1, 46, 96
1, 7623, Note_off_c, 1, 72, 96
1, 7623, Note_off_c, 1, 65, 96
1, 7623, Note_off_c, 1, 35, 96
1, 7623, Note_off_c, 1, 46, 96
1, 7682, Note_on_c, 1, 78, 96
1, 7682, Note_on_c, 1, 75, 96
1, 7682, Note_on_c, 1, 69, 96
1, 7682, Note_on_c, 1, 66, 96
1, 7683, Note_off_c, 1, 78, 96
1, 7683, Note_off_c, 1, 75, 96
1, 7683, Note_off_c, 1, 69, 96
1, 7683, Note_off_c, 1, 66, 96
1, 7725, Note_on_c, 1, 67, 96
1, 7725, Note_on_c, 1, 75, 96
1, 7725, Note_on_c, 1, 42, 96
1, 7726, Note_off_c, 1, 67, 96
1, 7726, Note_off_c, 1, 75, 96
1, 7726, Note_off_c, 1, 42, 96
1, 7783, Note_on_c, 1, 67, 96
1, 7783, Note_on_c, 1, 70, 96
1, 7784, Note_off_c, 1, 67, 96
1, 7784, Note_off_c, 1, 70, 96
1, 7824, Note_on_c, 1, 41, 96
1, 7825, Note_off_c, 1, 41, 96
1, 7880, Note_on_c, 1, 68, 96
1, 7881, Note_off_c, 1, 68, 96
1, 7925, Note_on_c, 1, 74, 96
1, 7925, Note_on_c, 1, 68, 96
1, 7925, Note_on_c, 1, 53, 96
1, 7925, Note_on_c, 1, 58, 96
1, 7925, Note_on_c, 1, 62, 96
1, 7926, Note_off_c, 1, 74, 96
1, 7926, Note_off_c, 1, 68, 96
1, 7926, Note_off_c, 1, 53, 96
1, 7926, Note_off_c, 1, 58, 96
1, 7926, Note_off_c, 1, 62, 96
1, 7982, Note_on_c, 1, 67, 96
1, 7983, Note_off_c, 1, 67, 96
1, 8025, Note_on_c, 1, 63, 96
1, 8025, Note_on_c, 1, 66, 96
1, 8025, Note_on_c, 1, 39, 96
1, 8026, Note_off_c, 1, 63, 96
1, 8026, Note_off_c, 1, 66, 96
1, 8026, Note_off_c, 1, 39, 96
1, 8087, Note_on_c, 1, 67, 96
1, 8087, Note_on_c, 1, 67, 96
1, 8087, Note_on_c, 1, 70, 96
1, 8087, Note_on_c, 1, 75, 96
1, 8087, Note_on_c, 1, 34, 96
1, 8087, Note_on_c, 1, 46, 96
1, 8088, Note_off_c, 1, 67, 96
1, 8088, Note_off_c, 1, 67, 96
1, 8088, Note_off_c, 1, 70, 96
1, 8088, Note_off_c, 1, 75, 96
1, 8088, Note_off_c, 1, 34, 96
1, 8088, Note_off_c, 1, 46, 96
1, 8130, Note_on_c, 1, 63, 96
1, 8130, Note_on_c, 1, 72, 96
1, 8130, Note_on_c, 1, 75, 96
1, 8131, Note_off_c, 1, 63, 96
1, 8131, Note_off_c, 1, 72, 96
1, 8131, Note_off_c, 1, 75, 96
1, 8211, Note_on_c, 1, 66, 96
1, 8212, Note_off_c, 1, 66, 96
1, 8253, Note_on_c, 1, 37, 96
1, 8253, Note_on_c, 1, 53, 96
1, 8256, Note_off_c, 1, 37, 96
1, 8256, Note_off_c, 1, 53, 96
1, 8256, Note_on_c, 1, 73, 96
1, 8256, Note_on_c, 1, 68, 96
1, 8258, Note_off_c, 1, 73, 96
1, 8258, Note_off_c, 1, 68, 96
1, 8258, Note_on_c, 1, 65, 96
1, 8259, Note_off_c, 1, 65, 96
1, 8380, Note_on_c, 1, 53, 96
1, 8380, Note_on_c, 1, 41, 96
1, 8381, Note_off_c, 1, 53, 96
1, 8381, Note_off_c, 1, 41, 96
1, 8455, Note_on_c, 1, 68, 96
1, 8455, Note_on_c, 1, 73, 96
1, 8456, Note_off_c, 1, 68, 96
1, 8456, Note_off_c, 1, 73, 96
1, 8507, Note_on_c, 1, 79, 96
1, 8507, Note_on_c, 1, 74, 96
1, 8507, Note_on_c, 1, 50, 96
1, 8508, Note_off_c, 1, 79, 96
1, 8508, Note_off_c, 1, 74, 96
1, 8508, Note_off_c, 1, 50, 96
1, 8580, Note_on_c, 1, 72, 96
1, 8581, Note_off_c, 1, 72, 96
1, 8632, Note_on_c, 1, 72, 96
1, 8632, Note_on_c, 1, 75, 96
1, 8632, Note_on_c, 1, 60, 96
1, 8632, Note_on_c, 1, 48, 96
1, 8633, Note_off_c, 1, 72, 96
1, 8633, Note_off_c, 1, 75, 96
1, 8633, Note_off_c, 1, 60, 96
1, 8633, Note_off_c, 1, 48, 96
1, 8756, Note_on_c, 1, 65, 96
1, 8756, Note_on_c, 1, 70, 96
1, 8756, Note_on_c, 1, 75, 96
1, 8756, Note_on_c, 1, 41, 96
1, 8757, Note_off_c, 1, 65, 96
1, 8757, Note_off_c, 1, 70, 96
1, 8757, Note_off_c, 1, 75, 96
1, 8757, Note_off_c, 1, 41, 96
1, 8831, Note_on_c, 1, 61, 96
1, 8831, Note_on_c, 1, 73, 96
1, 8832, Note_off_c, 1, 61, 96
1, 8832, Note_off_c, 1, 73, 96
1, 8881, Note_on_c, 1, 54, 96
1, 8882, Note_off_c, 1, 54, 96
1, 8956, Note_on_c, 1, 61, 96
1, 8956, Note_on_c, 1, 58, 96
1, 8956, Note_on_c, 1, 54, 96
1, 8957, Note_off_c, 1, 61, 96
1, 8957, Note_off_c, 1, 58, 96
1, 8957, Note_off_c, 1, 54, 96
1, 9011, Note_on_c, 1, 36, 96
1, 9011, Note_on_c, 1, 48, 96
1, 9012, Note_off_c, 1, 36, 96
1, 9012, Note_off_c, 1, 48, 96
1, 9061, Note_on_c, 1, 36, 96
1, 9061, Note_on_c, 1, 48, 96
1, 9062, Note_off_c, 1, 36, 96
1, 9062, Note_off_c, 1, 48, 96
1, 9124, Note_on_c, 1, 55, 96
1, 9124, Note_on_c, 1, 46, 96
1, 9124, Note_on_c, 1, 39, 96
1, 9125, Note_off_c, 1, 55, 96
1, 9125, Note_off_c, 1, 46, 96
1, 9125, Note_off_c, 1, 39, 96
1, 9245, Note_on_c, 1, 67, 96
1, 9246, Note_off_c, 1, 67, 96
1, 9368, Note_on_c, 1, 67, 96
1, 9368, Note_on_c, 1, 39, 96
1, 9368, Note_on_c, 1, 51, 96
1, 9369, Note_off_c, 1, 67, 96
1, 9369, Note_off_c, 1, 39, 96
1, 9369, Note_off_c, 1, 51, 96
1, 9460, Note_on_c, 1, 61, 96
1, 9460, Note_on_c, 1, 52, 96
1, 9461, Note_off_c, 1, 61, 96
1, 9461, Note_off_c, 1, 52, 96
1, 9532, Note_on_c, 1, 51, 96
1, 9533, Note_off_c, 1, 51, 96
1, 9535, Note_on_c, 1, 55, 96
1, 9536, Note_off_c, 1, 55, 96
1, 9631, Note_on_c, 1, 76, 96
1, 9632, Note_off_c, 1, 76, 96
1, 9717, Note_on_c, 1, 79, 96
1, 9718, Note_off_c, 1, 79, 96
1, 9754, Note_on_c, 1, 76, 96
1, 9754, Note_on_c, 1, 81, 96
1, 9755, Note_off_c, 1, 76, 96
1, 9755, Note_off_c, 1, 81, 96
1, 9927, Note_on_c, 1, 78, 96
1, 9927, Note_on_c, 1, 86, 96
1, 9927, Note_on_c, 1, 60, 96
1, 9927, Note_on_c, 1, 54, 96
1, 9927, Note_on_c, 1, 50, 96
1, 9928, Note_off_c, 1, 78, 96
1, 9928, Note_off_c, 1, 86, 96
1, 9928, Note_off_c, 1, 60, 96
1, 9928, Note_off_c, 1, 54, 96
1, 9928, Note_off_c, 1, 50, 96
1, 9973, Note_on_c, 1, 75, 96
1, 9974, Note_off_c, 1, 75, 96
1, 10054, Note_on_c, 1, 74, 96
1, 10055, Note_off_c, 1, 74, 96
1, 10058, Note_on_c, 1, 73, 96
1, 10059, Note_off_c, 1, 73, 96
1, 10094, Note_on_c, 1, 79, 96
1, 10095, Note_off_c, 1, 79, 96
1, 10118, Note_on_c, 1, 53, 96
1, 10119, Note_off_c, 1, 53, 96
1, 10221, Note_on_c, 1, 73, 96
1, 10221, Note_on_c, 1, 77, 96
1, 10221, Note_on_c, 1, 81, 96
1, 10221, Note_on_c, 1, 85, 96
1, 10221, Note_on_c, 1, 45, 96
1, 10221, Note_on_c, 1, 50, 96
1, 10222, Note_off_c, 1, 73, 96
1, 10222, Note_off_c, 1, 77, 96
1, 10222, Note_off_c, 1, 81, 96
1, 10222, Note_off_c, 1, 85, 96
1, 10222, Note_off_c, 1, 45, 96
1, 10222, Note_off_c, 1, 50, 96
1, 10284, Note_on_c, 1, 88, 96
1, 10284, Note_on_c, 1, 76, 96
1, 10284, Note_on_c, 1, 64, 96
1, 10285, Note_off_c, 1, 88, 96
1, 10285, Note_off_c, 1, 76, 96
1, 10285, Note_off_c, 1, 64, 96
1, 10409, Note_on_c, 1, 74, 96
1, 10409, Note_on_c, 1, 71, 96
1, 10409, Note_on_c, 1, 55, 96
1, 10409, Note_on_c, 1, 43, 96
1, 10410, Note_off_c, 1, 74, 96
1, 10410, Note_off_c, 1, 71, 96
1, 10410, Note_off_c, 1, 55, 96
1, 10410, Note_off_c, 1, 43, 96
1, 10535, Note_on_c, 1, 81, 96
1, 10535, Note_on_c, 1, 76, 96
1, 10535, Note_on_c, 1, 69, 96
1, 10535, Note_on_c, 1, 72, 96
1, 10535, Note_on_c, 1, 60, 96
1, 10535, Note_on_c, 1, 48, 96
1, 10536, Note_off_c, 1, 81, 96
1, 10536, Note_off_c, 1, 76, 96
1, 10536, Note_off_c, 1, 69, 96
1, 10536, Note_off_c, 1, 72, 96
1, 10536, Note_off_c, 1, 60, 96
1, 10536, Note_off_c, 1, 48, 96
1, 10659, Note_on_c, 1, 60, 96
1, 10659, Note_on_c, 1, 55, 96
1, 10659, Note_on_c, 1, 64, 96
1, 10659, Note_on_c, 1, 67, 96
1, 10660, Note_off_c, 1, 60, 96
1, 10660, Note_off_c, 1, 55, 96
1, 10660, Note_off_c, 1, 64, 96
1, 10660, Note_off_c, 1, 67, 96
1, 10784, Note_on_c, 1, 70, 96
1, 10784, Note_on_c, 1, 74, 96
1, 10784, Note_on_c, 1, 65, 96
1, 10784, Note_on_c, 1, 53, 96
1, 10784, Note_on_c, 1, 41, 96
1, 10785, Note_off_c, 1, 70, 96
1, 10785, Note_off_c, 1, 74, 96
1, 10785, Note_off_c, 1, 65, 96
1, 10785, Note_off_c, 1, 53, 96
1, 10785, Note_off_c, 1, 41, 96
1, 10909, Note_on_c, 1, 67, 96
1, 10909, Note_on_c, 1, 75, 96
1, 10909, Note_on_c, 1, 70, 96
1, 10909, Note_on_c, 1, 46, 96
1, 10909, Note_on_c, 1, 58, 96
1, 10910, Note_off_c, 1, 67, 96
1, 10910, Note_off_c, 1, 75, 96
1, 10910, Note_off_c, 1, 70, 96
1, 10910, Note_off_c, 1, 46, 96
1, 10910, Note_off_c, 1, 58, 96
1, 11092, Note_on_c, 1, 64, 96
1, 11092, Note_on_c, 1, 67, 96
1, 11093, Note_off_c, 1, 64, 96
1, 11093, Note_off_c, 1, 67, 96
1, 11154, Note_on_c, 1, 46, 96
1, 11154, Note_on_c, 1, 55, 96
1, 11155, Note_off_c, 1, 46, 96
1, 11155, Note_off_c, 1, 55, 96
1, 11252, Note_on_c, 1, 51, 96
1, 11252, Note_on_c, 1, 39, 96
1, 11253, Note_off_c, 1, 51, 96
1, 11253, Note_off_c, 1, 39, 96
1, 11375, Note_on_c, 1, 68, 96
1, 11375, Note_on_c, 1, 53, 96
1, 11375, Note_on_c, 1, 57, 96
1, 11376, Note_off_c, 1, 68, 96
1, 11376, Note_off_c, 1, 53, 96
1, 11376, Note_off_c, 1, 57, 96
1, 11565, Note_on_c, 1, 68, 96
1, 11565, Note_on_c, 1, 71, 96
1, 11566, Note_off_c, 1, 68, 96
1, 11566, Note_off_c, 1, 71, 96
1, 11663, Note_on_c, 1, 46, 96
1, 11663, Note_on_c, 1, 34, 96
1, 11664, Note_off_c, 1, 46, 96
1, 11664, Note_off_c, 1, 34, 96
1, 11784, Note_on_c, 1, 70, 96
1, 11785, Note_off_c, 1, 70, 96
1, 11886, Note_on_c, 1, 74, 96
1, 11886, Note_on_c, 1, 65, 96
1, 11886, Note_on_c, 1, 62, 96
1, 11886, Note_on_c, 1, 68, 96
1, 11886, Note_on_c, 1, 53, 96
1, 11886, Note_on_c, 1, 41, 96
1, 11887, Note_off_c, 1, 74, 96
1, 11887, Note_off_c, 1, 65, 96
1, 11887, Note_off_c, 1, 62, 96
1, 11887, Note_off_c, 1, 68, 96
1, 11887, Note_off_c, 1, 53, 96
1, 11887, Note_off_c, 1, 41, 96
1, 12071, Note_on_c, 1, 58, 96
1, 12071, Note_on_c, 1, 46, 96
1, 12072, Note_off_c, 1, 58, 96
1, 12072, Note_off_c, 1, 46, 96
1, 12206, Note_on_c, 1, 75, 96
1, 12206, Note_on_c, 1, 65, 96
1, 12206, Note_on_c, 1, 65, 96
1, 12207, Note_off_c, 1, 75, 96
1, 12207, Note_off_c, 1, 65, 96
1, 12207, Note_off_c, 1, 65, 96
1, 12304, Note_on_c, 1, 53, 96
1, 12304, Note_on_c, 1, 41, 96
1, 12305, Note_off_c, 1, 53, 96
1, 12305, Note_off_c, 1, 41, 96
1, 12494, Note_on_c, 1, 68, 96
1, 12495, Note_off_c, 1, 68, 96
1, 12558, Note_on_c, 1, 67, 96
1, 12558, Note_on_c, 1, 56, 96
1, 12558, Note_on_c, 1, 58, 96
1, 12558, Note_on_c, 1, 52, 96
1, 12559, Note_off_c, 1, 67, 96
1, 12559, Note_off_c, 1, 56, 96
1, 12559, Note_off_c, 1, 58, 96
1, 12559, Note_off_c, 1, 52, 96
1, 12752, Note_on_c, 1, 74, 96
1, 12752, Note_on_c, 1, 70, 96
1, 12752, Note_on_c, 1, 67, 96
1, 12752, Note_on_c, 1, 43, 96
1, 12753, Note_off_c, 1, 74, 96
1, 12753, Note_off_c, 1, 70, 96
1, 12753, Note_off_c, 1, 67, 96
1, 12753, Note_off_c, 1, 43, 96
1, 12874, Note_on_c, 1, 37, 96
1, 12874, Note_on_c, 1, 49, 96
1, 12875, Note_off_c, 1, 37, 96
1, 12875, Note_off_c, 1, 49, 96
1, 12995, Note_on_c, 1, 72, 96
1, 12996, Note_off_c, 1, 72, 96
1, 13116, Note_on_c, 1, 72, 96
1, 13117, Note_off_c, 1, 72, 96
1, 13177, Note_on_c, 1, 76, 96
1, 13178, Note_off_c, 1, 76, 96
1, 13238, Note_on_c, 1, 74, 96
1, 13239, Note_off_c, 1, 74, 96
1, 13300, Note_on_c, 1, 65, 96
1, 13300, Note_on_c, 1, 74, 96
1, 13301, Note_off_c, 1, 65, 96
1, 13301, Note_off_c, 1, 74, 96
1, 13364, Note_on_c, 1, 71, 96
1, 13364, Note_on_c, 1, 53, 96
1, 13364, Note_on_c, 1, 62, 96
1, 13364, Note_on_c, 1, 57, 96
1, 13365, Note_off_c, 1, 71, 96
1, 13365, Note_off_c, 1, 53, 96
1, 13365, Note_off_c, 1, 62, 96
1, 13365, Note_off_c, 1, 57, 96
1, 13425, Note_on_c, 1, 72, 96
1, 13426, Note_off_c, 1, 72, 96
1, 13489, Note_on_c, 1, 77, 96
1, 13489, Note_on_c, 1, 57, 96
1, 13489, Note_on_c, 1, 60, 96
1, 13489, Note_on_c, 1, 65, 96
1, 13490, Note_off_c, 1, 77, 96
1, 13490, Note_off_c, 1, 57, 96
1, 13490, Note_off_c, 1, 60, 96
1, 13490, Note_off_c, 1, 65, 96
1, 13552, Note_on_c, 1, 75, 96
1, 13552, Note_on_c, 1, 72, 96
1, 13552, Note_on_c, 1, 67, 96
1, 13553, Note_off_c, 1, 75, 96
1, 13553, Note_off_c, 1, 72, 96
1, 13553, Note_off_c, 1, 67, 96
1, 13614, Note_on_c, 1, 42, 96
1, 13614, Note_on_c, 1, 54, 96
1, 13615, Note_off_c, 1, 42, 96
1, 13615, Note_off_c, 1, 54, 96
1, 13736, Note_on_c, 1, 71, 96
1, 13736, Note_on_c, 1, 67, 96
1, 13737, Note_off_c, 1, 71, 96
1, 13737, Note_off_c, 1, 67, 96
1, 13798, Note_on_c, 1, 43, 96
1, 13798, Note_on_c, 1, 55, 96
1, 13799, Note_off_c, 1, 43, 96
1, 13799, Note_off_c, 1, 55, 96
1, 13860, Note_on_c, 1, 55, 96
1, 13860, Note_on_c, 1, 59, 96
1, 13861, Note_off_c, 1, 55, 96
1, 13861, Note_off_c, 1, 59, 96
1, 13925, Note_on_c, 1, 76, 96
1, 13925, Note_on_c, 1, 72, 96
1, 13925, Note_on_c, 1, 60, 96
1, 13925, Note_on_c, 1, 64, 96
1, 13925, Note_on_c, 1, 67, 96
1, 13926, Note_off_c, 1, 76, 96
1, 13926, Note_off_c, 1, 72, 96
1, 13926, Note_off_c, 1, 60, 96
1, 13926, Note_off_c, 1, 64, 96
1, 13926, Note_off_c, 1, 67, 96
1, 13987, Note_on_c, 1, 76, 96
1, 13987, Note_on_c, 1, 67, 96
1, 13988, Note_off_c, 1, 76, 96
1, 13988, Note_off_c, 1, 67, 96
1, 14052, Note_on_c, 1, 79, 96
1, 14052, Note_on_c, 1, 76, 96
1, 14052, Note_on_c, 1, 64, 96
1, 14052, Note_on_c, 1, 55, 96
1, 14052, Note_on_c, 1, 60, 96
1, 14053, Note_off_c, 1, 79, 96
1, 14053, Note_off_c, 1, 76, 96
1, 14053, Note_off_c, 1, 64, 96
1, 14053, Note_off_c, 1, 55, 96
1, 14053, Note_off_c, 1, 60, 96
1, 14113, Note_on_c, 1, 72, 96
1, 14114, Note_off_c, 1, 72, 96
1, 14176, Note_on_c, 1, 79, 96
1, 14176, Note_on_c, 1, 76, 96
1, 14176, Note_on_c, 1, 43, 96
1, 14177, Note_off_c, 1, 79, 96
1, 14177, Note_off_c, 1, 76, 96
1, 14177, Note_off_c, 1, 43, 96
1, 14301, Note_on_c, 1, 71, 96
1, 14301, Note_on_c, 1, 75, 96
1, 14301, Note_on_c, 1, 64, 96
1, 14301, Note_on_c, 1, 60, 96
1, 14301, Note_on_c, 1, 55, 96
1, 14302, Note_off_c, 1, 71, 96
1, 14302, Note_off_c, 1, 75, 96
1, 14302, Note_off_c, 1, 64, 96
1, 14302, Note_off_c, 1, 60, 96
1, 14302, Note_off_c, 1, 55, 96
1, 14364, Note_on_c, 1, 75, 96
1, 14364, Note_on_c, 1, 66, 96
1, 14364, Note_on_c, 1, 72, 96
1, 14365, Note_off_c, 1, 75, 96
1, 14365, Note_off_c, 1, 66, 96
1, 14365, Note_off_c, 1, 72, 96
1, 14426, Note_on_c, 1, 43, 96
1, 14426, Note_on_c, 1, 55, 96
1, 14427, Note_off_c, 1, 43, 96
1, 14427, Note_off_c, 1, 55, 96
1, 14487, Note_on_c, 1, 79, 96
1, 14488, Note_off_c, 1, 79, 96
1, 14551, Note_on_c, 1, 55, 96
1, 14551, Note_on_c, 1, 66, 96
1, 14551, Note_on_c, 1, 60, 96
1, 14551, Note_on_c, 1, 79, 96
1, 14552, Note_off_c, 1, 55, 96
1, 14552, Note_off_c, 1, 66, 96
1, 14552, Note_off_c, 1, 60, 96
1, 14552, Note_off_c, 1, 79, 96
1, 14613, Note_on_c, 1, 81, 96
1, 14613, Note_on_c, 1, 76, 96
1, 14614, Note_off_c, 1, 81, 96
1, 14614, Note_off_c, 1, 76, 96
1, 14675, Note_on_c, 1, 48, 96
1, 14675, Note_on_c, 1, 36, 96
1, 14676, Note_off_c, 1, 48, 96
1, 14676, Note_off_c, 1, 36, 96
1, 14736, Note_on_c, 1, 79, 96
1, 14737, Note_off_c, 1, 79, 96
1, 14800, Note_on_c, 1, 69, 96
1, 14800, Note_on_c, 1, 77, 96
1, 14800, Note_on_c, 1, 57, 96
1, 14800, Note_on_c, 1, 50, 96
1, 14801, Note_off_c, 1, 69, 96
1, 14801, Note_off_c, 1, 77, 96
1, 14801, Note_off_c, 1, 57, 96
1, 14801, Note_off_c, 1, 50, 96
1, 14861, Note_on_c, 1, 77, 96
1, 14862, Note_off_c, 1, 77, 96
1, 14922, Note_on_c, 1, 50, 96
1, 14923, Note_off_c, 1, 50, 96
1, 15022, Note_on_c, 1, 69, 96
1, 15022, Note_on_c, 1, 65, 96
1, 15022, Note_on_c, 1, 60, 96
1, 15022, Note_on_c, 1, 57, 96
1, 15023, Note_off_c, 1, 69, 96
1, 15023, Note_off_c, 1, 65, 96
1, 15023, Note_off_c, 1, 60, 96
1, 15023, Note_off_c, 1, 57, 96
1, 15119, Note_on_c, 1, 77, 96
1, 15120, Note_off_c, 1, 77, 96
1, 15217, Note_on_c, 1, 48, 96
1, 15217, Note_on_c, 1, 57, 96
1, 15218, Note_off_c, 1, 48, 96
1, 15218, Note_off_c, 1, 57, 96
1, 15315, Note_on_c, 1, 72, 96
1, 15315, Note_on_c, 1, 52, 96
1, 15316, Note_off_c, 1, 72, 96
1, 15316, Note_off_c, 1, 52, 96
1, 15364, Note_on_c, 1, 76, 96
1, 15365, Note_off_c, 1, 76, 96
1, 15416, Note_on_c, 1, 81, 96
1, 15416, Note_on_c, 1, 52, 96
1, 15416, Note_on_c, 1, 57, 96
1, 15416, Note_on_c, 1, 60, 96
1, 15417, Note_off_c, 1, 81, 96
1, 15417, Note_off_c, 1, 52, 96
1, 15417, Note_off_c, 1, 57, 96
1, 15417, Note_off_c, 1, 60, 96
1, 15516, Note_on_c, 1, 81, 96
1, 15516, Note_on_c, 1, 74, 96
1, 15516, Note_on_c, 1, 50, 96
1, 15516, Note_on_c, 1, 38, 96
1, 15517, Note_off_c, 1, 81, 96
1, 15517, Note_off_c, 1, 74, 96
1, 15517, Note_off_c, 1, 50, 96
1, 15517, Note_off_c, 1, 38, 96
1, 15565, Note_on_c, 1, 81, 96
1, 15566, Note_off_c, 1, 81, 96
1, 15615, Note_on_c, 1, 81, 96
1, 15615, Note_on_c, 1, 59, 96
1, 15616, Note_off_c, 1, 81, 96
1, 15616, Note_off_c, 1, 59, 96
1, 15664, Note_on_c, 1, 74, 96
1, 15665, Note_off_c, 1, 74, 96
1, 15717, Note_on_c, 1, 86, 96
1, 15717, Note_on_c, 1, 82, 96
1, 15717, Note_on_c, 1, 74, 96
1, 15717, Note_on_c, 1, 65, 96
1, 15717, Note_on_c, 1, 57, 96
1, 15718, Note_off_c, 1, 86, 96
1, 15718, Note_off_c, 1, 82, 96
1, 15718, Note_off_c, 1, 74, 96
1, 15718, Note_off_c, 1, 65, 96
1, 15718, Note_off_c, 1, 57, 96
1, 15815, Note_on_c, 1, 83, 96
1, 15815, Note_on_c, 1, 71, 96
1, 15816, Note_off_c, 1, 83, 96
1, 15816, Note_off_c, 1, 71, 96
1, 16073, Note_on_c, 1, 77, 96
1, 16074, Note_off_c, 1, 77, 96
1, 16264, Note_on_c, 1, 81, 96
1, 16264, Note_on_c, 1, 60, 96
1, 16264, Note_on_c, 1, 64, 96
1, 16264, Note_on_c, 1, 57, 96
1, 16264, Note_on_c, 1, 54, 96
1, 16265, Note_off_c, 1, 81, 96
1, 16265, Note_off_c, 1, 60, 96
1, 16265, Note_off_c, 1, 64, 96
1, 16265, Note_off_c, 1, 57, 96
1, 16265, Note_off_c, 1, 54, 96
1, 16293, Note_on_c, 1, 89, 96
1, 16294, Note_off_c, 1, 89, 96
1, 16443, Note_on_c, 1, 101, 96
1, 16444, Note_off_c, 1, 101, 96
1, 16548, Note_on_c, 1, 84, 96
1, 16549, Note_off_c, 1, 84, 96
1, 16688, Note_on_c, 1, 99, 96
1, 16688, Note_on_c, 1, 53, 96
1, 16688, Note_on_c, 1, 57, 96
1, 16689, Note_off_c, 1, 99, 96
1, 16689, Note_off_c, 1, 53, 96
1, 16689, Note_off_c, 1, 57, 96
1, 16935, Note_on_c, 1, 81, 96
1, 16935, Note_on_c, 1, 89, 96
1, 16935, Note_on_c, 1, 77, 96
1, 16935, Note_on_c, 1, 65, 96
1, 16935, Note_on_c, 1, 69, 96
1, 16936, Note_off_c, 1, 81, 96
1, 16936, Note_off_c, 1, 89, 96
1, 16936, Note_off_c, 1, 77, 96
1, 16936, Note_off_c, 1, 65, 96
1, 16936, Note_off_c, 1, 69, 96
1, 17180, Note_on_c, 1, 58, 96
1, 17180, Note_on_c, 1, 46, 96
1, 17180, Note_on_c, 1, 34, 96
1, 17181, Note_off_c, 1, 58, 96
1, 17181, Note_off_c, 1, 46, 96
1, 17181, Note_off_c, 1, 34, 96
1, 17498, Note_on_c, 1, 94, 96
1, 17498, Note_on_c, 1, 86, 96
1, 17498, Note_on_c, 1, 62, 96
1, 17498, Note_on_c, 1, 53, 96
1, 17499, Note_off_c, 1, 94, 96
1, 17499, Note_off_c, 1, 86, 96
1, 17499, Note_off_c, 1, 62, 96
1, 17499, Note_off_c, 1, 53, 96
1, 17698, Note_on_c, 1, 88, 96
1, 17698, Note_on_c, 1, 105, 96
1, 17698, Note_on_c, 1, 55, 96
1, 17698, Note_on_c, 1, 57, 96
1, 17698, Note_on_c, 1, 61, 96
1, 17699, Note_off_c, 1, 88, 96
1, 17699, Note_off_c, 1, 105, 96
1, 17699, Note_off_c, 1, 55, 96
1, 17699, Note_off_c, 1, 57, 96
1, 17699, Note_off_c, 1, 61, 96
1, 17942, Note_on_c, 1, 97, 96
1, 17943, Note_off_c, 1, 97, 96
1, 18179, Note_on_c, 1, 85, 96
1, 18179, Note_on_c, 1, 82, 96
1, 18180, Note_off_c, 1, 85, 96
1, 18180, Note_off_c, 1, 82, 96
1, 18422, Note_on_c, 1, 76, 96
1, 18422, Note_on_c, 1, 88, 96
1, 18423, Note_off_c, 1, 76, 96
1, 18423, Note_off_c, 1, 88, 96
1, 18546, Note_on_c, 1, 60, 96
1, 18546, Note_on_c, 1, 66, 96
1, 18546, Note_on_c, 1, 57, 96
1, 18547, Note_off_c, 1, 60, 96
1, 18547, Note_off_c, 1, 66, 96
1, 18547, Note_off_c, 1, 57, 96
1, 18669, Note_on_c, 1, 57, 96
1, 18669, Note_on_c, 1, 54, 96
1, 18669, Note_on_c, 1, 63, 96
1, 18670, Note_off_c, 1, 57, 96
1, 18670, Note_off_c, 1, 54, 96
1, 18670, Note_off_c, 1, 63, 96
1, 18908, Note_on_c, 1, 84, 96
1, 18908, Note_on_c, 1, 41, 96
1, 18908, Note_on_c, 1, 53, 96
1, 18909, Note_off_c, 1, 84, 96
1, 18909, Note_off_c, 1, 41, 96
1, 18909, Note_off_c, 1, 53, 96
1, 19150, Note_on_c, 1, 86, 96
1, 19150, Note_on_c, 1, 43, 96
1, 19151, Note_off_c, 1, 86, 96
1, 19151, Note_off_c, 1, 43, 96
1, 19387, Note_on_c, 1, 81, 96
1, 19387, Note_on_c, 1, 45, 96
1, 19388, Note_off_c, 1, 81, 96
1, 19388, Note_off_c, 1, 45, 96
1, 19676, Note_on_c, 1, 81, 96
1, 19676, Note_on_c, 1, 74, 96
1, 19677, Note_off_c, 1, 81, 96
1, 19677, Note_off_c, 1, 74, 96
1, 19882, Note_on_c, 1, 69, 96
1, 19882, Note_on_c, 1, 60, 96
1, 19882, Note_on_c, 1, 55, 96
1, 19882, Note_on_c, 1, 64, 96
1, 19883, Note_off_c, 1, 69, 96
1, 19883, Note_off_c, 1, 60, 96
1, 19883, Note_off_c, 1, 55, 96
1, 19883, Note_off_c, 1, 64, 96
1, 20080, Note_on_c, 1, 75, 96
1, 20080, Note_on_c, 1, 81, 96
1, 20080, Note_on_c, 1, 39, 96
1, 20080, Note_on_c, 1, 51, 96
1, 20081, Note_off_c, 1, 75, 96
1, 20081, Note_off_c, 1, 81, 96
1, 20081, Note_off_c, 1, 39, 96
1, 20081, Note_off_c, 1, 51, 96
1, 20293, Note_on_c, 1, 77, 96
1, 20294, Note_off_c, 1, 77, 96
1, 20497, Note_on_c, 1, 74, 96
1, 20497, Note_on_c, 1, 63, 96
1, 20497, Note_on_c, 1, 60, 96
1, 20497, Note_on_c, 1, 57, 96
1, 20497, Note_on_c, 1, 65, 96
1, 20498, Note_off_c, 1, 74, 96
1, 20498, Note_off_c, 1, 63, 96
1, 20498, Note_off_c, 1, 60, 96
1, 20498, Note_off_c, 1, 57, 96
1, 20498, Note_off_c, 1, 65, 96
1, 20530, Note_on_c, 1, 38, 96
1, 20531, Note_off_c, 1, 38, 96
1, 20769, Note_on_c, 1, 74, 96
1, 20770, Note_off_c, 1, 74, 96
1, 21009, Note_on_c, 1, 68, 96
1, 21009, Note_on_c, 1, 40, 96
1, 21009, Note_on_c, 1, 52, 96
1, 21010, Note_off_c, 1, 68, 96
1, 21010, Note_off_c, 1, 40, 96
1, 21010, Note_off_c, 1, 52, 96
1, 21485, Note_on_c, 1, 43, 96
1, 21485, Note_on_c, 1, 55, 96
1, 21486, Note_off_c, 1, 43, 96
1, 21486, Note_off_c, 1, 55, 96
1, 22103, Note_on_c, 1, 58, 96
1, 22104, Note_off_c, 1, 58, 96
1, 22322, Note_on_c, 1, 70, 96
1, 22322, Note_on_c, 1, 58, 96
1, 22323, Note_off_c, 1, 70, 96
1, 22323, Note_off_c, 1, 58, 96
1, 22551, Note_on_c, 1, 68, 96
1, 22551, Note_on_c, 1, 57, 96
1, 22552, Note_off_c, 1, 68, 96
1, 22552, Note_off_c, 1, 57, 96
1, 22795, Note_on_c, 1, 58, 96
1, 22795, Note_on_c, 1, 55, 96
1, 22796, Note_off_c, 1, 58, 96
1, 22796, Note_off_c, 1, 55, 96
1, 23175, Note_on_c, 1, 61, 96
1, 23175, Note_on_c, 1, 36, 96
1, 23176, Note_off_c, 1, 61, 96
1, 23176, Note_off_c, 1, 36, 96
1, 23419, Note_on_c, 1, 65, 96
1, 23420, Note_off_c, 1, 65, 96
1, 23689, Note_on_c, 1, 65, 96
1, 23689, Note_on_c, 1, 62, 96
1, 23689, Note_on_c, 1, 50, 96
1, 23690, Note_off_c, 1, 65, 96
1, 23690, Note_off_c, 1, 62, 96
1, 23690, Note_off_c, 1, 50, 96
1, 23931, Note_on_c, 1, 34, 96
1, 23931, Note_on_c, 1, 43, 96
1, 23932, Note_off_c, 1, 34, 96
1, 23932, Note_off_c, 1, 43, 96
1, 24120, Note_on_c, 1, 62, 96
1, 24121, Note_off_c, 1, 62, 96
1, 24358, Note_on_c, 1, 79, 96
1, 24359, Note_off_c, 1, 79, 96
1, 24520, Note_on_c, 1, 84, 96
1, 24520, Note_on_c, 1, 63, 96
1, 24520, Note_on_c, 1, 58, 96
1, 24520, Note_on_c, 1, 55, 96
1, 24521, Note_off_c, 1, 84, 96
1, 24521, Note_off_c, 1, 63, 96
1, 24521, Note_off_c, 1, 58, 96
1, 24521, Note_off_c, 1, 55, 96
1, 24535, Note_on_c, 1, 80, 96
1, 24536, Note_off_c, 1, 80, 96
1, 24859, Note_on_c, 1, 80, 96
1, 24860, Note_off_c, 1, 80, 96
1, 25131, Note_on_c, 1, 84, 96
1, 25131, Note_on_c, 1, 80, 96
1, 25131, Note_on_c, 1, 62, 96
1, 25131, Note_on_c, 1, 56, 96
1, 25131, Note_on_c, 1, 58, 96
1, 25132, Note_off_c, 1, 84, 96
1, 25132, Note_off_c, 1, 80, 96
1, 25132, Note_off_c, 1, 62, 96
1, 25132, Note_off_c, 1, 56, 96
1, 25132, Note_off_c, 1, 58, 96
1, 25788, Note_on_c, 1, 75, 96
1, 25788, Note_on_c, 1, 70, 96
1, 25788, Note_on_c, 1, 67, 96
1, 25788, Note_on_c, 1, 67, 96
1, 25788, Note_on_c, 1, 63, 96
1, 25788, Note_on_c, 1, 55, 96
1, 25788, Note_on_c, 1, 58, 96
1, 25789, Note_off_c, 1, 75, 96
1, 25789, Note_off_c, 1, 70, 96
1, 25789, Note_off_c, 1, 67, 96
1, 25789, Note_off_c, 1, 67, 96
1, 25789, Note_off_c, 1, 63, 96
1, 25789, Note_off_c, 1, 55, 96
1, 25789, Note_off_c, 1, 58, 96
1, 26190, Note_on_c, 1, 68, 96
1, 26190, Note_on_c, 1, 75, 96
1, 26190, Note_on_c, 1, 72, 96
1, 26191, Note_off_c, 1, 68, 96
1, 26191, Note_off_c, 1, 75, 96
1, 26191, Note_off_c, 1, 72, 96
1, 26350, Note_on_c, 1, 65, 96
1, 26350, Note_on_c, 1, 72, 96
1, 26350, Note_on_c, 1, 75, 96
1, 26350, Note_on_c, 1, 63, 96
1, 26350, Note_on_c, 1, 55, 96
1, 26350, Note_on_c, 1, 60, 96
1, 26351, Note_off_c, 1, 65, 96
1, 26351, Note_off_c, 1, 72, 96
1, 26351, Note_off_c, 1, 75, 96
1, 26351, Note_off_c, 1, 63, 96
1, 26351, Note_off_c, 1, 55, 96
1, 26351, Note_off_c, 1, 60, 96
1, 26549, Note_on_c, 1, 72, 96
1, 26550, Note_off_c, 1, 72, 96
1, 26590, Note_on_c, 1, 79, 96
1, 26591, Note_off_c, 1, 79, 96
1, 26612, Note_on_c, 1, 79, 96
1, 26612, Note_on_c, 1, 48, 96
1, 26613, Note_off_c, 1, 79, 96
1, 26613, Note_off_c, 1, 48, 96
1, 26711, Note_on_c, 1, 72, 96
1, 26711, Note_on_c, 1, 63, 96
1, 26711, Note_on_c, 1, 51, 96
1, 26712, Note_off_c, 1, 72, 96
1, 26712, Note_off_c, 1, 63, 96
1, 26712, Note_off_c, 1, 51, 96
1, 26930, Note_on_c, 1, 58, 96
1, 26930, Note_on_c, 1, 46, 96
1, 26931, Note_off_c, 1, 58, 96
1, 26931, Note_off_c, 1, 46, 96
1, 27032, Note_on_c, 1, 46, 96
1, 27033, Note_off_c, 1, 46, 96
1, 27130, Note_on_c, 1, 68, 96
1, 27130, Note_on_c, 1, 60, 96
1, 27131, Note_off_c, 1, 68, 96
1, 27131, Note_off_c, 1, 60, 96
1, 27252, Note_on_c, 1, 67, 96
1, 27252, Note_on_c, 1, 63, 96
1, 27253, Note_off_c, 1, 67, 96
1, 27253, Note_off_c, 1, 63, 96
1, 27437, Note_on_c, 1, 36, 96
1, 27437, Note_on_c, 1, 48, 96
1, 27438, Note_off_c, 1, 36, 96
1, 27438, Note_off_c, 1, 48, 96
1, 27632, Note_on_c, 1, 66, 96
1, 27633, Note_off_c, 1, 66, 96
1, 27756, Note_on_c, 1, 58, 96
1, 27756, Note_on_c, 1, 67, 96
1, 27756, Note_on_c, 1, 49, 96
1, 27756, Note_on_c, 1, 61, 96
1, 27757, Note_off_c, 1, 58, 96
1, 27757, Note_off_c, 1, 67, 96
1, 27757, Note_off_c, 1, 49, 96
1, 27757, Note_off_c, 1, 61, 96
1, 27952, Note_on_c, 1, 57, 96
1, 27952, Note_on_c, 1, 63, 96
1, 27952, Note_on_c, 1, 67, 96
1, 27952, Note_on_c, 1, 39, 96
1, 27953, Note_off_c, 1, 57, 96
1, 27953, Note_off_c, 1, 63, 96
1, 27953, Note_off_c, 1, 67, 96
1, 27953, Note_off_c, 1, 39, 96
1, 28013, Note_on_c, 1, 73, 96
1, 28014, Note_off_c, 1, 73, 96
1, 28079, Note_on_c, 1, 78, 96
1, 28079, Note_on_c, 1, 66, 96
1, 28079, Note_on_c, 1, 54, 96
1, 28079, Note_on_c, 1, 51, 96
1, 28079, Note_on_c, 1, 57, 96
1, 28079, Note_on_c, 1, 60, 96
1, 28080, Note_off_c, 1, 78, 96
1, 28080, Note_off_c, 1, 66, 96
1, 28080, Note_off_c, 1, 54, 96
1, 28080, Note_off_c, 1, 51, 96
1, 28080, Note_off_c, 1, 57, 96
1, 28080, Note_off_c, 1, 60, 96
1, 28142, Note_on_c, 1, 78, 96
1, 28142, Note_on_c, 1, 70, 96
1, 28142, Note_on_c, 1, 72, 96
1, 28143, Note_off_c, 1, 78, 96
1, 28143, Note_off_c, 1, 70, 96
1, 28143, Note_off_c, 1, 72, 96
1, 28204, Note_on_c, 1, 57, 96
1, 28204, Note_on_c, 1, 45, 96
1, 28205, Note_off_c, 1, 57, 96
1, 28205, Note_off_c, 1, 45, 96
1, 28265, Note_on_c, 1, 71, 96
1, 28266, Note_off_c, 1, 71, 96
1, 28330, Note_on_c, 1, 75, 96
1, 28330, Note_on_c, 1, 57, 96
1, 28330, Note_on_c, 1, 60, 96
1, 28330, Note_on_c, 1, 54, 96
1, 28330, Note_on_c, 1, 63, 96
1, 28331, Note_off_c, 1, 75, 96
1, 28331, Note_off_c, 1, 57, 96
1, 28331, Note_off_c, 1, 60, 96
1, 28331, Note_off_c, 1, 54, 96
1, 28331, Note_off_c, 1, 63, 96
1, 28392, Note_on_c, 1, 74, 96
1, 28392, Note_on_c, 1, 67, 96
1, 28393, Note_off_c, 1, 74, 96
1, 28393, Note_off_c, 1, 67, 96
1, 28454, Note_on_c, 1, 55, 96
1, 28454, Note_on_c, 1, 43, 96
1, 28455, Note_off_c, 1, 55, 96
1, 28455, Note_off_c, 1, 43, 96
1, 28515, Note_on_c, 1, 66, 96
1, 28516, Note_off_c, 1, 66, 96
1, 28578, Note_on_c, 1, 70, 96
1, 28578, Note_on_c, 1, 51, 96
1, 28578, Note_on_c, 1, 39, 96
1, 28579, Note_off_c, 1, 70, 96
1, 28579, Note_off_c, 1, 51, 96
1, 28579, Note_off_c, 1, 39, 96
1, 28641, Note_on_c, 1, 74, 96
1, 28641, Note_on_c, 1, 63, 96
1, 28641, Note_on_c, 1, 69, 96
1, 28642, Note_off_c, 1, 74, 96
1, 28642, Note_off_c, 1, 63, 96
1, 28642, Note_off_c, 1, 69, 96
1, 28703, Note_on_c, 1, 50, 96
1, 28703, Note_on_c, 1, 38, 96
1, 28704, Note_off_c, 1, 50, 96
1, 28704, Note_off_c, 1, 38, 96
1, 28765, Note_on_c, 1, 67, 96
1, 28765, Note_on_c, 1, 74, 96
1, 28766, Note_off_c, 1, 67, 96
1, 28766, Note_off_c, 1, 74, 96
1, 28827, Note_on_c, 1, 41, 96
1, 28827, Note_on_c, 1, 53, 96
1, 28828, Note_off_c, 1, 41, 96
1, 28828, Note_off_c, 1, 53, 96
1, 28888, Note_on_c, 1, 77, 96
1, 28889, Note_off_c, 1, 77, 96
1, 28951, Note_on_c, 1, 41, 96
1, 28951, Note_on_c, 1, 53, 96
1, 28951, Note_on_c, 1, 74, 96
1, 28952, Note_off_c, 1, 41, 96
1, 28952, Note_off_c, 1, 53, 96
1, 28952, Note_off_c, 1, 74, 96
1, 29012, Note_on_c, 1, 69, 96
1, 29013, Note_off_c, 1, 69, 96
1, 29074, Note_on_c, 1, 38, 96
1, 29074, Note_on_c, 1, 50, 96
1, 29075, Note_off_c, 1, 38, 96
1, 29075, Note_off_c, 1, 50, 96
1, 29135, Note_on_c, 1, 65, 96
1, 29136, Note_off_c, 1, 65, 96
1, 29198, Note_on_c, 1, 71, 96
1, 29198, Note_on_c, 1, 50, 96
1, 29198, Note_on_c, 1, 38, 96
1, 29199, Note_off_c, 1, 71, 96
1, 29199, Note_off_c, 1, 50, 96
1, 29199, Note_off_c, 1, 38, 96
1, 29259, Note_on_c, 1, 72, 96
1, 29260, Note_off_c, 1, 72, 96
1, 29323, Note_on_c, 1, 74, 96
1, 29323, Note_on_c, 1, 79, 96
1, 29323, Note_on_c, 1, 46, 96
1, 29323, Note_on_c, 1, 34, 96
1, 29324, Note_off_c, 1, 74, 96
1, 29324, Note_off_c, 1, 79, 96
1, 29324, Note_off_c, 1, 46, 96
1, 29324, Note_off_c, 1, 34, 96
1, 29384, Note_on_c, 1, 79, 96
1, 29385, Note_off_c, 1, 79, 96
1, 29447, Note_on_c, 1, 58, 96
1, 29447, Note_on_c, 1, 56, 96
1, 29447, Note_on_c, 1, 62, 96
1, 29448, Note_off_c, 1, 58, 96
1, 29448, Note_off_c, 1, 56, 96
1, 29448, Note_off_c, 1, 62, 96
1, 29508, Note_on_c, 1, 61, 96
1, 29509, Note_off_c, 1, 61, 96
1, 29571, Note_on_c, 1, 70, 96
1, 29571, Note_on_c, 1, 51, 96
1, 29571, Note_on_c, 1, 63, 96
1, 29572, Note_off_c, 1, 70, 96
1, 29572, Note_off_c, 1, 51, 96
1, 29572, Note_off_c, 1, 63, 96
1, 29632, Note_on_c, 1, 74, 96
1, 29633, Note_off_c, 1, 74, 96
1, 29696, Note_on_c, 1, 77, 96
1, 29696, Note_on_c, 1, 62, 96
1, 29696, Note_on_c, 1, 56, 96
1, 29696, Note_on_c, 1, 58, 96
1, 29697, Note_off_c, 1, 77, 96
1, 29697, Note_off_c, 1, 62, 96
1, 29697, Note_off_c, 1, 56, 96
1, 29697, Note_off_c, 1, 58, 96
1, 29758, Note_on_c, 1, 66, 96
1, 29758, Note_on_c, 1, 74, 96
1, 29759, Note_off_c, 1, 66, 96
1, 29759, Note_off_c, 1, 74, 96
1, 29822, Note_on_c, 1, 72, 96
1, 29822, Note_on_c, 1, 51, 96
1, 29822, Note_on_c, 1, 56, 96
1, 29822, Note_on_c, 1, 60, 96
1, 29823, Note_off_c, 1, 72, 96
1, 29823, Note_off_c, 1, 51, 96
1, 29823, Note_off_c, 1, 56, 96
1, 29823, Note_off_c, 1, 60, 96
1, 29884, Note_on_c, 1, 72, 96
1, 29884, Note_on_c, 1, 65, 96
1, 29885, Note_off_c, 1, 72, 96
1, 29885, Note_off_c, 1, 65, 96
1, 29946, Note_on_c, 1, 41, 96
1, 29946, Note_on_c, 1, 53, 96
1, 29947, Note_off_c, 1, 41, 96
1, 29947, Note_off_c, 1, 53, 96
1, 30007, Note_on_c, 1, 73, 96
1, 30008, Note_off_c, 1, 73, 96
1, 30070, Note_on_c, 1, 73, 96
1, 30070, Note_on_c, 1, 42, 96
1, 30070, Note_on_c, 1, 54, 96
1, 30071, Note_off_c, 1, 73, 96
1, 30071, Note_off_c, 1, 42, 96
1, 30071, Note_off_c, 1, 54, 96
1, 30194, Note_on_c, 1, 68, 96
1, 30194, Note_on_c, 1, 73, 96
1, 30194, Note_on_c, 1, 64, 96
1, 30194, Note_on_c, 1, 58, 96
1, 30195, Note_off_c, 1, 68, 96
1, 30195, Note_off_c, 1, 73, 96
1, 30195, Note_off_c, 1, 64, 96
1, 30195, Note_off_c, 1, 58, 96
1, 30294, Note_on_c, 1, 77, 96
1, 30294, Note_on_c, 1, 70, 96
1, 30294, Note_on_c, 1, 46, 96
1, 30294, Note_on_c, 1, 58, 96
1, 30295, Note_off_c, 1, 77, 96
1, 30295, Note_off_c, 1, 70, 96
1, 30295, Note_off_c, 1, 46, 96
1, 30295, Note_off_c, 1, 58, 96
1, 30416, Note_on_c, 1, 71, 96
1, 30416, Note_on_c, 1, 68, 96
1, 30417, Note_off_c, 1, 71, 96
1, 30417, Note_off_c, 1, 68, 96
1, 30478, Note_on_c, 1, 77, 96
1, 30478, Note_on_c, 1, 44, 96
1, 30479, Note_off_c, 1, 77, 96
1, 30479, Note_off_c, 1, 44, 96
1, 30541, Note_on_c, 1, 68, 96
1, 30541, Note_on_c, 1, 59, 96
1, 30541, Note_on_c, 1, 63, 96
1, 30542, Note_off_c, 1, 68, 96
1, 30542, Note_off_c, 1, 59, 96
1, 30542, Note_off_c, 1, 63, 96
1, 30604, Note_on_c, 1, 75, 96
1, 30604, Note_on_c, 1, 72, 96
1, 30604, Note_on_c, 1, 68, 96
1, 30605, Note_off_c, 1, 75, 96
1, 30605, Note_off_c, 1, 72, 96
1, 30605, Note_off_c, 1, 68, 96
1, 30666, Note_on_c, 1, 37, 96
1, 30666, Note_on_c, 1, 49, 96
1, 30667, Note_off_c, 1, 37, 96
1, 30667, Note_off_c, 1, 49, 96
1, 30727, Note_on_c, 1, 79, 96
1, 30728, Note_off_c, 1, 79, 96
1, 30791, Note_on_c, 1, 68, 96
1, 30791, Note_on_c, 1, 80, 96
1, 30791, Note_on_c, 1, 56, 96
1, 30791, Note_on_c, 1, 44, 96
1, 30792, Note_off_c, 1, 68, 96
1, 30792, Note_off_c, 1, 80, 96
1, 30792, Note_off_c, 1, 56, 96
1, 30792, Note_off_c, 1, 44, 96
1, 30917, Note_on_c, 1, 73, 96
1, 30917, Note_on_c, 1, 77, 96
1, 30917, Note_on_c, 1, 85, 96
1, 30917, Note_on_c, 1, 65, 96
1, 30917, Note_on_c, 1, 61, 96
1, 30917, Note_on_c, 1, 56, 96
1, 30918, Note_off_c, 1, 73, 96
1, 30918, Note_off_c, 1, 77, 96
1, 30918, Note_off_c, 1, 85, 96
1, 30918, Note_off_c, 1, 65, 96
1, 30918, Note_off_c, 1, 61, 96
1, 30918, Note_off_c, 1, 56, 96
1, 30981, Note_on_c, 1, 86, 96
1, 30981, Note_on_c, 1, 74, 96
1, 30981, Note_on_c, 1, 80, 96
1, 30981, Note_on_c, 1, 77, 96
1, 30982, Note_off_c, 1, 86, 96
1, 30982, Note_off_c, 1, 74, 96
1, 30982, Note_off_c, 1, 80, 96
1, 30982, Note_off_c, 1, 77, 96
1, 31044, Note_on_c, 1, 56, 96
1, 31044, Note_on_c, 1, 59, 96
1, 31044, Note_on_c, 1, 63, 96
1, 31045, Note_off_c, 1, 56, 96
1, 31045, Note_off_c, 1, 59, 96
1, 31045, Note_off_c, 1, 63, 96
1, 31105, Note_on_c, 1, 78, 96
1, 31106, Note_off_c, 1, 78, 96
1, 31168, Note_on_c, 1, 65, 96
1, 31168, Note_on_c, 1, 61, 96
1, 31168, Note_on_c, 1, 56, 96
1, 31169, Note_off_c, 1, 65, 96
1, 31169, Note_off_c, 1, 61, 96
1, 31169, Note_off_c, 1, 56, 96
1, 31229, Note_on_c, 1, 74, 96
1, 31230, Note_off_c, 1, 74, 96
1, 31292, Note_on_c, 1, 77, 96
1, 31292, Note_on_c, 1, 83, 96
1, 31292, Note_on_c, 1, 37, 96
1, 31293, Note_off_c, 1, 77, 96
1, 31293, Note_off_c, 1, 83, 96
1, 31293, Note_off_c, 1, 37, 96
1, 31354, Note_on_c, 1, 73, 96
1, 31355, Note_off_c, 1, 73, 96
1, 31419, Note_on_c, 1, 56, 96
1, 31419, Note_on_c, 1, 82, 96
1, 31419, Note_on_c, 1, 85, 96
1, 31419, Note_on_c, 1, 80, 96
1, 31419, Note_on_c, 1, 49, 96
1, 31420, Note_off_c, 1, 56, 96
1, 31420, Note_off_c, 1, 82, 96
1, 31420, Note_off_c, 1, 85, 96
1, 31420, Note_off_c, 1, 80, 96
1, 31420, Note_off_c, 1, 49, 96
1, 31482, Note_on_c, 1, 96, 96
1, 31482, Note_on_c, 1, 84, 96
1, 31482, Note_on_c, 1, 96, 96
1, 31483, Note_off_c, 1, 96, 96
1, 31483, Note_off_c, 1, 84, 96
1, 31483, Note_off_c, 1, 96, 96
1, 31549, Note_on_c, 1, 79, 96
1, 31549, Note_on_c, 1, 91, 96
1, 31549, Note_on_c, 1, 98, 96
1, 31549, Note_on_c, 1, 86, 96
1, 31549, Note_on_c, 1, 38, 96
1, 31549, Note_on_c, 1, 50, 96
1, 31549, Note_on_c, 1, 86, 96
1, 31550, Note_off_c, 1, 79, 96
1, 31550, Note_off_c, 1, 91, 96
1, 31550, Note_off_c, 1, 98, 96
1, 31550, Note_off_c, 1, 86, 96
1, 31550, Note_off_c, 1, 38, 96
1, 31550, Note_off_c, 1, 50, 96
1, 31550, Note_off_c, 1, 86, 96
1, 31640, Note_on_c, 1, 88, 96
1, 31640, Note_on_c, 1, 100, 96
1, 31640, Note_on_c, 1, 62, 96
1, 31640, Note_on_c, 1, 52, 96
1, 31640, Note_on_c, 1, 43, 96
1, 31640, Note_on_c, 1, 43, 96
1, 31640, Note_on_c, 1, 89, 96
1, 31640, Note_on_c, 1, 101, 96
1, 31640, Note_on_c, 1, 94, 96
1, 31640, Note_on_c, 1, 98, 96
1, 31640, Note_on_c, 1, 53, 96
1, 31641, Note_off_c, 1, 88, 96
1, 31641, Note_off_c, 1, 100, 96
1, 31641, Note_off_c, 1, 62, 96
1, 31641, Note_off_c, 1, 52, 96
1, 31641, Note_off_c, 1, 43, 96
1, 31641, Note_off_c, 1, 43, 96
1, 31641, Note_off_c, 1, 89, 96
1, 31641, Note_off_c, 1, 101, 96
1, 31641, Note_off_c, 1, 94, 96
1, 31641, Note_off_c, 1, 98, 96
1, 31641, Note_off_c, 1, 53, 96
1, 31925, Note_on_c, 1, 96, 96
1, 31926, Note_off_c, 1, 96, 96
1, 31934, Note_on_c, 1, 38, 96
1, 31935, Note_off_c, 1, 38, 96
1, 31948, Note_on_c, 1, 41, 96
1, 31948, Note_on_c, 1, 57, 96
1, 31948, Note_on_c, 1, 48, 96
1, 31948, Note_on_c, 1, 76, 96
1, 31949, Note_off_c, 1, 41, 96
1, 31949, Note_off_c, 1, 57, 96
1, 31949, Note_off_c, 1, 48, 96
1, 31949, Note_off_c, 1, 76, 96
1, 32123, Note_on_c, 1, 94, 96
1, 32123, Note_on_c, 1, 88, 96
1, 32124, Note_off_c, 1, 94, 96
1, 32124, Note_off_c, 1, 88, 96
1, 32150, Note_on_c, 1, 59, 96
1, 32150, Note_on_c, 1, 64, 96
1, 32150, Note_on_c, 1, 53, 96
1, 32150, Note_on_c, 1, 79, 96
1, 32150, Note_on_c, 1, 74, 96
1, 32150, Note_on_c, 1, 83, 96
1, 32150, Note_on_c, 1, 71, 96
1, 32151, Note_off_c, 1, 59, 96
1, 32151, Note_off_c, 1, 64, 96
1, 32151, Note_off_c, 1, 53, 96
1, 32151, Note_off_c, 1, 79, 96
1, 32151, Note_off_c, 1, 74, 96
1, 32151, Note_off_c, 1, 83, 96
1, 32151, Note_off_c, 1, 71, 96
1, 32373, Note_on_c, 1, 93, 96
1, 32373, Note_on_c, 1, 87, 96
1, 32373, Note_on_c, 1, 51, 96
1, 32373, Note_on_c, 1, 59, 96
1, 32373, Note_on_c, 1, 57, 96
1, 32374, Note_off_c, 1, 93, 96
1, 32374, Note_off_c, 1, 87, 96
1, 32374, Note_off_c, 1, 51, 96
1, 32374, Note_off_c, 1, 59, 96
1, 32374, Note_off_c, 1, 57, 96
1, 32612, Note_on_c, 1, 93, 96
1, 32612, Note_on_c, 1, 96, 96
1, 32613, Note_off_c, 1, 93, 96
1, 32613, Note_off_c, 1, 96, 96
1, 32624, Note_on_c, 1, 86, 96
1, 32624, Note_on_c, 1, 74, 96
1, 32625, Note_off_c, 1, 86, 96
1, 32625, Note_off_c, 1, 74, 96
1, 32728, Note_on_c, 1, 62, 96
1, 32728, Note_on_c, 1, 60, 96
1, 32728, Note_on_c, 1, 57, 96
1, 32728, Note_on_c, 1, 53, 96
1, 32729, Note_off_c, 1, 62, 96
1, 32729, Note_off_c, 1, 60, 96
1, 32729, Note_off_c, 1, 57, 96
1, 32729, Note_off_c, 1, 53, 96
1, 32760, Note_on_c, 1, 61, 96
1, 32760, Note_on_c, 1, 49, 96
1, 32761, Note_off_c, 1, 61, 96
1, 32761, Note_off_c, 1, 49, 96
1, 32794, Note_on_c, 1, 89, 96
1, 32794, Note_on_c, 1, 86, 96
1, 32794, Note_on_c, 1, 41, 96
1, 32794, Note_on_c, 1, 53, 96
1, 32795, Note_off_c, 1, 89, 96
1, 32795, Note_off_c, 1, 86, 96
1, 32795, Note_off_c, 1, 41, 96
1, 32795, Note_off_c, 1, 53, 96
1, 32915, Note_on_c, 1, 40, 96
1, 32916, Note_off_c, 1, 40, 96
1, 32990, Note_on_c, 1, 81, 96
1, 32990, Note_on_c, 1, 84, 96
1, 32990, Note_on_c, 1, 93, 96
1, 32991, Note_off_c, 1, 81, 96
1, 32991, Note_off_c, 1, 84, 96
1, 32991, Note_off_c, 1, 93, 96
1, 33052, Note_on_c, 1, 88, 96
1, 33052, Note_on_c, 1, 85, 96
1, 33052, Note_on_c, 1, 79, 96
1, 33052, Note_on_c, 1, 91, 96
1, 33053, Note_off_c, 1, 88, 96
1, 33053, Note_off_c, 1, 85, 96
1, 33053, Note_off_c, 1, 79, 96
1, 33053, Note_off_c, 1, 91, 96
1, 33118, Note_on_c, 1, 40, 96
1, 33118, Note_on_c, 1, 52, 96
1, 33118, Note_on_c, 1, 85, 96
1, 33118, Note_on_c, 1, 76, 96
1, 33118, Note_on_c, 1, 82, 96
1, 33118, Note_on_c, 1, 88, 96
1, 33119, Note_off_c, 1, 40, 96
1, 33119, Note_off_c, 1, 52, 96
1, 33119, Note_off_c, 1, 85, 96
1, 33119, Note_off_c, 1, 76, 96
1, 33119, Note_off_c, 1, 82, 96
1, 33119, Note_off_c, 1, 88, 96
1, 33180, Note_on_c, 1, 93, 96
1, 33180, Note_on_c, 1, 81, 96
1, 33181, Note_off_c, 1, 93, 96
1, 33181, Note_off_c, 1, 81, 96
1, 33203, Note_on_c, 1, 40, 96
1, 33203, Note_on_c, 1, 52, 96
1, 33204, Note_off_c, 1, 40, 96
1, 33204, Note_off_c, 1, 52, 96
1, 33302, Note_on_c, 1, 66, 96
1, 33302, Note_on_c, 1, 57, 96
1, 33302, Note_on_c, 1, 60, 96
1, 33303, Note_off_c, 1, 66, 96
1, 33303, Note_off_c, 1, 57, 96
1, 33303, Note_off_c, 1, 60, 96
1, 33404, Note_on_c, 1, 89, 96
1, 33404, Note_on_c, 1, 81, 96
1, 33404, Note_on_c, 1, 84, 96
1, 33404, Note_on_c, 1, 93, 96
1, 33404, Note_on_c, 1, 29, 96
1, 33404, Note_on_c, 1, 41, 96
1, 33405, Note_off_c, 1, 89, 96
1, 33405, Note_off_c, 1, 81, 96
1, 33405, Note_off_c, 1, 84, 96
1, 33405, Note_off_c, 1, 93, 96
1, 33405, Note_off_c, 1, 29, 96
1, 33405, Note_off_c, 1, 41, 96
1, 33502, Note_on_c, 1, 79, 96
1, 33502, Note_on_c, 1, 91, 96
1, 33503, Note_off_c, 1, 79, 96
1, 33503, Note_off_c, 1, 91, 96
1, 33602, Note_on_c, 1, 86, 96
1, 33602, Note_on_c, 1, 74, 96
1, 33602, Note_on_c, 1, 41, 96
1, 33602, Note_on_c, 1, 53, 96
1, 33603, Note_off_c, 1, 86, 96
1, 33603, Note_off_c, 1, 74, 96
1, 33603, Note_off_c, 1, 41, 96
1, 33603, Note_off_c, 1, 53, 96
1, 33701, Note_on_c, 1, 74, 96
1, 33701, Note_on_c, 1, 50, 96
1, 33701, Note_on_c, 1, 38, 96
1, 33702, Note_off_c, 1, 74, 96
1, 33702, Note_off_c, 1, 50, 96
1, 33702, Note_off_c, 1, 38, 96
1, 33750, Note_on_c, 1, 90, 96
1, 33751, Note_off_c, 1, 90, 96
1, 33801, Note_on_c, 1, 76, 96
1, 33801, Note_on_c, 1, 88, 96
1, 33801, Note_on_c, 1, 52, 96
1, 33802, Note_off_c, 1, 76, 96
1, 33802, Note_off_c, 1, 88, 96
1, 33802, Note_off_c, 1, 52, 96
1, 33852, Note_on_c, 1, 81, 96
1, 33852, Note_on_c, 1, 71, 96
1, 33852, Note_on_c, 1, 74, 96
1, 33853, Note_off_c, 1, 81, 96
1, 33853, Note_off_c, 1, 71, 96
1, 33853, Note_off_c, 1, 74, 96
1, 33901, Note_on_c, 1, 36, 96
1, 33902, Note_off_c, 1, 36, 96
1, 34001, Note_on_c, 1, 88, 96
1, 34001, Note_on_c, 1, 76, 96
1, 34001, Note_on_c, 1, 72, 96
1, 34001, Note_on_c, 1, 79, 96
1, 34002, Note_off_c, 1, 88, 96
1, 34002, Note_off_c, 1, 76, 96
1, 34002, Note_off_c, 1, 72, 96
1, 34002, Note_off_c, 1, 79, 96
1, 34103, Note_on_c, 1, 77, 96
1, 34103, Note_on_c, 1, 82, 96
1, 34103, Note_on_c, 1, 85, 96
1, 34103, Note_on_c, 1, 75, 96
1, 34103, Note_on_c, 1, 56, 96
1, 34103, Note_on_c, 1, 46, 96
1, 34104, Note_off_c, 1, 77, 96
1, 34104, Note_off_c, 1, 82, 96
1, 34104, Note_off_c, 1, 85, 96
1, 34104, Note_off_c, 1, 75, 96
1, 34104, Note_off_c, 1, 56, 96
1, 34104, Note_off_c, 1, 46, 96
1, 34152, Note_on_c, 1, 65, 96
1, 34153, Note_off_c, 1, 65, 96
1, 34202, Note_on_c, 1, 79, 96
1, 34202, Note_on_c, 1, 91, 96
1, 34203, Note_off_c, 1, 79, 96
1, 34203, Note_off_c, 1, 91, 96
1, 34255, Note_on_c, 1, 73, 96
1, 34255, Note_on_c, 1, 85, 96
1, 34255, Note_on_c, 1, 61, 96
1, 34255, Note_on_c, 1, 51, 96
1, 34255, Note_on_c, 1, 55, 96
1, 34256, Note_off_c, 1, 73, 96
1, 34256, Note_off_c, 1, 85, 96
1, 34256, Note_off_c, 1, 61, 96
1, 34256, Note_off_c, 1, 51, 96
1, 34256, Note_off_c, 1, 55, 96
1, 34305, Note_on_c, 1, 82, 96
1, 34305, Note_on_c, 1, 58, 96
1, 34306, Note_off_c, 1, 82, 96
1, 34306, Note_off_c, 1, 58, 96
1, 34354, Note_on_c, 1, 45, 96
1, 34355, Note_off_c, 1, 45, 96
1, 34455, Note_on_c, 1, 75, 96
1, 34455, Note_on_c, 1, 63, 96
1, 34455, Note_on_c, 1, 60, 96
1, 34455, Note_on_c, 1, 57, 96
1, 34455, Note_on_c, 1, 53, 96
1, 34456, Note_off_c, 1, 75, 96
1, 34456, Note_off_c, 1, 63, 96
1, 34456, Note_off_c, 1, 60, 96
1, 34456, Note_off_c, 1, 57, 96
1, 34456, Note_off_c, 1, 53, 96
1, 34504, Note_on_c, 1, 72, 96
1, 34505, Note_off_c, 1, 72, 96
1, 34555, Note_on_c, 1, 74, 96
1, 34555, Note_on_c, 1, 77, 96
1, 34555, Note_on_c, 1, 46, 96
1, 34556, Note_off_c, 1, 74, 96
1, 34556, Note_off_c, 1, 77, 96
1, 34556, Note_off_c, 1, 46, 96
1, 34654, Note_on_c, 1, 53, 96
1, 34654, Note_on_c, 1, 58, 96
1, 34654, Note_on_c, 1, 62, 96
1, 34655, Note_off_c, 1, 53, 96
1, 34655, Note_off_c, 1, 58, 96
1, 34655, Note_off_c, 1, 62, 96
1, 34751, Note_on_c, 1, 74, 96
1, 34752, Note_off_c, 1, 74, 96
1, 34851, Note_on_c, 1, 73, 96
1, 34851, Note_on_c, 1, 53, 96
1, 34851, Note_on_c, 1, 58, 96
1, 34851, Note_on_c, 1, 62, 96
1, 34852, Note_off_c, 1, 73, 96
1, 34852, Note_off_c, 1, 53, 96
1, 34852, Note_off_c, 1, 58, 96
1, 34852, Note_off_c, 1, 62, 96
1, 34948, Note_on_c, 1, 74, 96
1, 34949, Note_off_c, 1, 74, 96
1, 35048, Note_on_c, 1, 69, 96
1, 35048, Note_on_c, 1, 55, 96
1, 35048, Note_on_c, 1, 51, 96
1, 35048, Note_on_c, 1, 61, 96
1, 35049, Note_off_c, 1, 69, 96
1, 35049, Note_off_c, 1, 55, 96
1, 35049, Note_off_c, 1, 51, 96
1, 35049, Note_off_c, 1, 61, 96
1, 35147, Note_on_c, 1, 75, 96
1, 35147, Note_on_c, 1, 70, 96
1, 35147, Note_on_c, 1, 67, 96
1, 35148, Note_off_c, 1, 75, 96
1, 35148, Note_off_c, 1, 70, 96
1, 35148, Note_off_c, 1, 67, 96
1, 35247, Note_on_c, 1, 77, 96
1, 35247, Note_on_c, 1, 74, 96
1, 35247, Note_on_c, 1, 70, 96
1, 35247, Note_on_c, 1, 65, 96
1, 35248, Note_off_c, 1, 77, 96
1, 35248, Note_off_c, 1, 74, 96
1, 35248, Note_off_c, 1, 70, 96
1, 35248, Note_off_c, 1, 65, 96
1, 35348, Note_on_c, 1, 62, 96
1, 35348, Note_on_c, 1, 67, 96
1, 35348, Note_on_c, 1, 70, 96
1, 35348, Note_on_c, 1, 40, 96
1, 35348, Note_on_c, 1, 52, 96
1, 35349, Note_off_c, 1, 62, 96
1, 35349, Note_off_c, 1, 67, 96
1, 35349, Note_off_c, 1, 70, 96
1, 35349, Note_off_c, 1, 40, 96
1, 35349, Note_off_c, 1, 52, 96
1, 35448, Note_on_c, 1, 74, 96
1, 35448, Note_on_c, 1, 68, 96
1, 35448, Note_on_c, 1, 53, 96
1, 35448, Note_on_c, 1, 41, 96
1, 35449, Note_off_c, 1, 74, 96
1, 35449, Note_off_c, 1, 68, 96
1, 35449, Note_off_c, 1, 53, 96
1, 35449, Note_off_c, 1, 41, 96
1, 35549, Note_on_c, 1, 66, 96
1, 35549, Note_on_c, 1, 72, 96
1, 35549, Note_on_c, 1, 76, 96
1, 35549, Note_on_c, 1, 45, 96
1, 35549, Note_on_c, 1, 33, 96
1, 35550, Note_off_c, 1, 66, 96
1, 35550, Note_off_c, 1, 72, 96
1, 35550, Note_off_c, 1, 76, 96
1, 35550, Note_off_c, 1, 45, 96
1, 35550, Note_off_c, 1, 33, 96
1, 35623, Note_on_c, 1, 73, 96
1, 35624, Note_off_c, 1, 73, 96
1, 35679, Note_on_c, 1, 81, 96
1, 35679, Note_on_c, 1, 73, 96
1, 35679, Note_on_c, 1, 69, 96
1, 35679, Note_on_c, 1, 75, 96
1, 35679, Note_on_c, 1, 64, 96
1, 35679, Note_on_c, 1, 61, 96
1, 35679, Note_on_c, 1, 57, 96
1, 35680, Note_off_c, 1, 81, 96
1, 35680, Note_off_c, 1, 73, 96
1, 35680, Note_off_c, 1, 69, 96
1, 35680, Note_off_c, 1, 75, 96
1, 35680, Note_off_c, 1, 64, 96
1, 35680, Note_off_c, 1, 61, 96
1, 35680, Note_off_c, 1, 57, 96
1, 35760, Note_on_c, 1, 78, 96
1, 35761, Note_off_c, 1, 78, 96
1, 35801, Note_on_c, 1, 40, 96
1, 35802, Note_off_c, 1, 40, 96
1, 35882, Note_on_c, 1, 78, 96
1, 35882, Note_on_c, 1, 66, 96
1, 35883, Note_off_c, 1, 78, 96
1, 35883, Note_off_c, 1, 66, 96
1, 35923, Note_on_c, 1, 31, 96
1, 35924, Note_off_c, 1, 31, 96
1, 36005, Note_on_c, 1, 67, 96
1, 36005, Note_on_c, 1, 79, 96
1, 36006, Note_off_c, 1, 67, 96
1, 36006, Note_off_c, 1, 79, 96
1, 36049, Note_on_c, 1, 80, 96
1, 36049, Note_on_c, 1, 68, 96
1, 36049, Note_on_c, 1, 76, 96
1, 36049, Note_on_c, 1, 47, 96
1, 36050, Note_off_c, 1, 80, 96
1, 36050, Note_off_c, 1, 68, 96
1, 36050, Note_off_c, 1, 76, 96
1, 36050, Note_off_c, 1, 47, 96
1, 36132, Note_on_c, 1, 69, 96
1, 36132, Note_on_c, 1, 75, 96
1, 36132, Note_on_c, 1, 78, 96
1, 36133, Note_off_c, 1, 69, 96
1, 36133, Note_off_c, 1, 75, 96
1, 36133, Note_off_c, 1, 78, 96
1, 36174, Note_on_c, 1, 34, 96
1, 36175, Note_off_c, 1, 34, 96
1, 36297, Note_on_c, 1, 63, 96
1, 36297, Note_on_c, 1, 57, 96
1, 36297, Note_on_c, 1, 53, 96
1, 36298, Note_off_c, 1, 63, 96
1, 36298, Note_off_c, 1, 57, 96
1, 36298, Note_off_c, 1, 53, 96
1, 36418, Note_on_c, 1, 36, 96
1, 36419, Note_off_c, 1, 36, 96
1, 36602, Note_on_c, 1, 34, 96
1, 36603, Note_off_c, 1, 34, 96
1, 36813, Note_on_c, 1, 62, 96
1, 36813, Note_on_c, 1, 56, 96
1, 36813, Note_on_c, 1, 46, 96
1, 36814, Note_off_c, 1, 62, 96
1, 36814, Note_off_c, 1, 56, 96
1, 36814, Note_off_c, 1, 46, 96
1, 36937, Note_on_c, 1, 70, 96
1, 36937, Note_on_c, 1, 79, 96
1, 36937, Note_on_c, 1, 39, 96
1, 36937, Note_on_c, 1, 51, 96
1, 36938, Note_off_c, 1, 70, 96
1, 36938, Note_off_c, 1, 79, 96
1, 36938, Note_off_c, 1, 39, 96
1, 36938, Note_off_c, 1, 51, 96
1, 37061, Note_on_c, 1, 84, 96
1, 37061, Note_on_c, 1, 72, 96
1, 37061, Note_on_c, 1, 52, 96
1, 37061, Note_on_c, 1, 40, 96
1, 37062, Note_off_c, 1, 84, 96
1, 37062, Note_off_c, 1, 72, 96
1, 37062, Note_off_c, 1, 52, 96
1, 37062, Note_off_c, 1, 40, 96
1, 37125, Note_on_c, 1, 82, 96
1, 37125, Note_on_c, 1, 78, 96
1, 37125, Note_on_c, 1, 74, 96
1, 37125, Note_on_c, 1, 70, 96
1, 37126, Note_off_c, 1, 82, 96
1, 37126, Note_off_c, 1, 78, 96
1, 37126, Note_off_c, 1, 74, 96
1, 37126, Note_off_c, 1, 70, 96
1, 37146, Note_on_c, 1, 44, 96
1, 37147, Note_off_c, 1, 44, 96
1, 37161, Note_on_c, 1, 79, 96
1, 37161, Note_on_c, 1, 84, 96
1, 37163, Note_off_c, 1, 79, 96
1, 37163, Note_off_c, 1, 84, 96
1, 37163, Note_on_c, 1, 45, 96
1, 37164, Note_off_c, 1, 45, 96
1, 37173, Note_on_c, 1, 81, 96
1, 37173, Note_on_c, 1, 54, 96
1, 37174, Note_off_c, 1, 81, 96
1, 37174, Note_off_c, 1, 54, 96
1, 37219, Note_on_c, 1, 76, 96
1, 37219, Note_on_c, 1, 67, 96
1, 37219, Note_on_c, 1, 62, 96
1, 37219, Note_on_c, 1, 55, 96
1, 37219, Note_on_c, 1, 59, 96
1, 37219, Note_on_c, 1, 71, 96
1, 37220, Note_off_c, 1, 76, 96
1, 37220, Note_off_c, 1, 67, 96
1, 37220, Note_off_c, 1, 62, 96
1, 37220, Note_off_c, 1, 55, 96
1, 37220, Note_off_c, 1, 59, 96
1, 37220, Note_off_c, 1, 71, 96
1, 37310, Note_on_c, 1, 74, 96
1, 37311, Note_off_c, 1, 74, 96
1, 37320, Note_on_c, 1, 49, 96
1, 37320, Note_on_c, 1, 61, 96
1, 37321, Note_off_c, 1, 49, 96
1, 37321, Note_off_c, 1, 61, 96
1, 37327, Note_on_c, 1, 68, 96
1, 37328, Note_off_c, 1, 68, 96
1, 37369, Note_on_c, 1, 48, 96
1, 37369, Note_on_c, 1, 60, 96
1, 37370, Note_off_c, 1, 48, 96
1, 37370, Note_off_c, 1, 60, 96
1, 37451, Note_on_c, 1, 75, 96
1, 37451, Note_on_c, 1, 69, 96
1, 37452, Note_off_c, 1, 75, 96
1, 37452, Note_off_c, 1, 69, 96
1, 37494, Note_on_c, 1, 73, 96
1, 37494, Note_on_c, 1, 76, 96
1, 37494, Note_on_c, 1, 52, 96
1, 37494, Note_on_c, 1, 40, 96
1, 37495, Note_off_c, 1, 73, 96
1, 37495, Note_off_c, 1, 76, 96
1, 37495, Note_off_c, 1, 52, 96
1, 37495, Note_off_c, 1, 40, 96
1, 37575, Note_on_c, 1, 72, 96
1, 37576, Note_off_c, 1, 72, 96
1, 37616, Note_on_c, 1, 34, 96
1, 37617, Note_off_c, 1, 34, 96
1, 37716, Note_on_c, 1, 75, 96
1, 37716, Note_on_c, 1, 69, 96
1, 37716, Note_on_c, 1, 63, 96
1, 37716, Note_on_c, 1, 60, 96
1, 37717, Note_off_c, 1, 75, 96
1, 37717, Note_off_c, 1, 69, 96
1, 37717, Note_off_c, 1, 63, 96
1, 37717, Note_off_c, 1, 60, 96
1, 37790, Note_on_c, 1, 72, 96
1, 37791, Note_off_c, 1, 72, 96
1, 37841, Note_on_c, 1, 74, 96
1, 37841, Note_on_c, 1, 57, 96
1, 37841, Note_on_c, 1, 60, 96
1, 37841, Note_on_c, 1, 51, 96
1, 37842, Note_off_c, 1, 74, 96
1, 37842, Note_off_c, 1, 57, 96
1, 37842, Note_off_c, 1, 60, 96
1, 37842, Note_off_c, 1, 51, 96
1, 37915, Note_on_c, 1, 74, 96
1, 37916, Note_off_c, 1, 74, 96
1, 37964, Note_on_c, 1, 77, 96
1, 37965, Note_off_c, 1, 77, 96
1, 38045, Note_on_c, 1, 71, 96
1, 38046, Note_off_c, 1, 71, 96
1, 38119, Note_on_c, 1, 79, 96
1, 38120, Note_off_c, 1, 79, 96
1, 38169, Note_on_c, 1, 77, 96
1, 38170, Note_off_c, 1, 77, 96
1, 38271, Note_on_c, 1, 69, 96
1, 38271, Note_on_c, 1, 81, 96
1, 38271, Note_on_c, 1, 53, 96
1, 38271, Note_on_c, 1, 60, 96
1, 38271, Note_on_c, 1, 57, 96
1, 38271, Note_on_c, 1, 63, 96
1, 38272, Note_off_c, 1, 69, 96
1, 38272, Note_off_c, 1, 81, 96
1, 38272, Note_off_c, 1, 53, 96
1, 38272, Note_off_c, 1, 60, 96
1, 38272, Note_off_c, 1, 57, 96
1, 38272, Note_off_c, 1, 63, 96
1, 38346, Note_on_c, 1, 73, 96
1, 38346, Note_on_c, 1, 79, 96
1, 38347, Note_off_c, 1, 73, 96
1, 38347, Note_off_c, 1, 79, 96
1, 38397, Note_on_c, 1, 74, 96
1, 38397, Note_on_c, 1, 57, 96
1, 38397, Note_on_c, 1, 60, 96
1, 38397, Note_on_c, 1, 65, 96
1, 38398, Note_off_c, 1, 74, 96
1, 38398, Note_off_c, 1, 57, 96
1, 38398, Note_off_c, 1, 60, 96
1, 38398, Note_off_c, 1, 65, 96
1, 38438, Note_on_c, 1, 72, 96
1, 38439, Note_off_c, 1, 72, 96
1, 38479, Note_on_c, 1, 76, 96
1, 38480, Note_off_c, 1, 76, 96
1, 38520, Note_on_c, 1, 75, 96
1, 38521, Note_off_c, 1, 75, 96
1, 38545, Note_on_c, 1, 65, 96
1, 38545, Note_on_c, 1, 77, 96
1, 38546, Note_off_c, 1, 65, 96
1, 38546, Note_off_c, 1, 77, 96
1, 38638, Note_on_c, 1, 69, 96
1, 38638, Note_on_c, 1, 53, 96
1, 38638, Note_on_c, 1, 41, 96
1, 38639, Note_off_c, 1, 69, 96
1, 38639, Note_off_c, 1, 53, 96
1, 38639, Note_off_c, 1, 41, 96
1, 38694, Note_on_c, 1, 69, 96
1, 38695, Note_off_c, 1, 69, 96
1, 38777, Note_on_c, 1, 67, 96
1, 38778, Note_off_c, 1, 67, 96
1, 38810, Note_on_c, 1, 71, 96
1, 38810, Note_on_c, 1, 53, 96
1, 38810, Note_on_c, 1, 56, 96
1, 38811, Note_off_c, 1, 71, 96
1, 38811, Note_off_c, 1, 53, 96
1, 38811, Note_off_c, 1, 56, 96
1, 38884, Note_on_c, 1, 45, 96
1, 38885, Note_off_c, 1, 45, 96
1, 38932, Note_on_c, 1, 45, 96
1, 38933, Note_off_c, 1, 45, 96
1, 39054, Note_on_c, 1, 58, 96
1, 39054, Note_on_c, 1, 55, 96
1, 39057, Note_off_c, 1, 58, 96
1, 39057, Note_off_c, 1, 55, 96
1, 39057, Note_on_c, 1, 67, 96
1, 39057, Note_on_c, 1, 52, 96
1, 39058, Note_off_c, 1, 67, 96
1, 39058, Note_off_c, 1, 52, 96
1, 39477, Note_on_c, 1, 49, 96
1, 39477, Note_on_c, 1, 58, 96
1, 39477, Note_on_c, 1, 65, 96
1, 39478, Note_off_c, 1, 49, 96
1, 39478, Note_off_c, 1, 58, 96
1, 39478, Note_off_c, 1, 65, 96
1, 39670, Note_on_c, 1, 57, 96
1, 39670, Note_on_c, 1, 60, 96
1, 39670, Note_on_c, 1, 63, 96
1, 39670, Note_on_c, 1, 69, 96
1, 39670, Note_on_c, 1, 57, 96
1, 39671, Note_off_c, 1, 57, 96
1, 39671, Note_off_c, 1, 60, 96
1, 39671, Note_off_c, 1, 63, 96
1, 39671, Note_off_c, 1, 69, 96
1, 39671, Note_off_c, 1, 57, 96
1, 39796, Note_on_c, 1, 68, 96
1, 39796, Note_on_c, 1, 72, 96
1, 39796, Note_on_c, 1, 57, 96
1, 39796, Note_on_c, 1, 57, 96
1, 39796, Note_on_c, 1, 60, 96
1, 39797, Note_off_c, 1, 68, 96
1, 39797, Note_off_c, 1, 72, 96
1, 39797, Note_off_c, 1, 57, 96
1, 39797, Note_off_c, 1, 57, 96
1, 39797, Note_off_c, 1, 60, 96
1, 39870, Note_on_c, 1, 74, 96
1, 39871, Note_off_c, 1, 74, 96
1, 39922, Note_on_c, 1, 65, 96
1, 39922, Note_on_c, 1, 71, 96
1, 39922, Note_on_c, 1, 75, 96
1, 39922, Note_on_c, 1, 43, 96
1, 39922, Note_on_c, 1, 53, 96
1, 39923, Note_off_c, 1, 65, 96
1, 39923, Note_off_c, 1, 71, 96
1, 39923, Note_off_c, 1, 75, 96
1, 39923, Note_off_c, 1, 43, 96
1, 39923, Note_off_c, 1, 53, 96
1, 40045, Note_on_c, 1, 69, 96
1, 40045, Note_on_c, 1, 66, 96
1, 40045, Note_on_c, 1, 74, 96
1, 40046, Note_off_c, 1, 69, 96
1, 40046, Note_off_c, 1, 66, 96
1, 40046, Note_off_c, 1, 74, 96
1, 40168, Note_on_c, 1, 55, 96
1, 40168, Note_on_c, 1, 51, 96
1, 40168, Note_on_c, 1, 60, 96
1, 40169, Note_off_c, 1, 55, 96
1, 40169, Note_off_c, 1, 51, 96
1, 40169, Note_off_c, 1, 60, 96
1, 40266, Note_on_c, 1, 50, 96
1, 40266, Note_on_c, 1, 38, 96
1, 40267, Note_off_c, 1, 50, 96
1, 40267, Note_off_c, 1, 38, 96
1, 40367, Note_on_c, 1, 72, 96
1, 40367, Note_on_c, 1, 65, 96
1, 40367, Note_on_c, 1, 53, 96
1, 40367, Note_on_c, 1, 75, 96
1, 40367, Note_on_c, 1, 41, 96
1, 40368, Note_off_c, 1, 72, 96
1, 40368, Note_off_c, 1, 65, 96
1, 40368, Note_off_c, 1, 53, 96
1, 40368, Note_off_c, 1, 75, 96
1, 40368, Note_off_c, 1, 41, 96
1, 40441, Note_on_c, 1, 73, 96
1, 40442, Note_off_c, 1, 73, 96
1, 40489, Note_on_c, 1, 69, 96
1, 40490, Note_off_c, 1, 69, 96
1, 40614, Note_on_c, 1, 74, 96
1, 40614, Note_on_c, 1, 70, 96
1, 40614, Note_on_c, 1, 41, 96
1, 40614, Note_on_c, 1, 48, 96
1, 40614, Note_on_c, 1, 53, 96
1, 40615, Note_off_c, 1, 74, 96
1, 40615, Note_off_c, 1, 70, 96
1, 40615, Note_off_c, 1, 41, 96
1, 40615, Note_off_c, 1, 48, 96
1, 40615, Note_off_c, 1, 53, 96
1, 40714, Note_on_c, 1, 65, 96
1, 40714, Note_on_c, 1, 62, 96
1, 40714, Note_on_c, 1, 58, 96
1, 40714, Note_on_c, 1, 53, 96
1, 40715, Note_off_c, 1, 65, 96
1, 40715, Note_off_c, 1, 62, 96
1, 40715, Note_off_c, 1, 58, 96
1, 40715, Note_off_c, 1, 53, 96
1, 40814, Note_on_c, 1, 82, 96
1, 40814, Note_on_c, 1, 79, 96
1, 40814, Note_on_c, 1, 75, 96
1, 40814, Note_on_c, 1, 70, 96
1, 40815, Note_off_c, 1, 82, 96
1, 40815, Note_off_c, 1, 79, 96
1, 40815, Note_off_c, 1, 75, 96
1, 40815, Note_off_c, 1, 70, 96
1, 40914, Note_on_c, 1, 68, 96
1, 40914, Note_on_c, 1, 80, 96
1, 40914, Note_on_c, 1, 44, 96
1, 40914, Note_on_c, 1, 32, 96
1, 40915, Note_off_c, 1, 68, 96
1, 40915, Note_off_c, 1, 80, 96
1, 40915, Note_off_c, 1, 44, 96
1, 40915, Note_off_c, 1, 32, 96
1, 40975, Note_on_c, 1, 71, 96
1, 40976, Note_off_c, 1, 71, 96
1, 41040, Note_on_c, 1, 82, 96
1, 41040, Note_on_c, 1, 74, 96
1, 41040, Note_on_c, 1, 56, 96
1, 41040, Note_on_c, 1, 58, 96
1, 41040, Note_on_c, 1, 62, 96
1, 41041, Note_off_c, 1, 82, 96
1, 41041, Note_off_c, 1, 74, 96
1, 41041, Note_off_c, 1, 56, 96
1, 41041, Note_off_c, 1, 58, 96
1, 41041, Note_off_c, 1, 62, 96
1, 41161, Note_on_c, 1, 79, 96
1, 41162, Note_off_c, 1, 79, 96
1, 41222, Note_on_c, 1, 77, 96
1, 41223, Note_off_c, 1, 77, 96
1, 41285, Note_on_c, 1, 75, 96
1, 41285, Note_on_c, 1, 51, 96
1, 41285, Note_on_c, 1, 39, 96
1, 41286, Note_off_c, 1, 75, 96
1, 41286, Note_off_c, 1, 51, 96
1, 41286, Note_off_c, 1, 39, 96
1, 41346, Note_on_c, 1, 75, 96
1, 41347, Note_off_c, 1, 75, 96
1, 41409, Note_on_c, 1, 58, 96
1, 41409, Note_on_c, 1, 55, 96
1, 41409, Note_on_c, 1, 63, 96
1, 41410, Note_off_c, 1, 58, 96
1, 41410, Note_off_c, 1, 55, 96
1, 41410, Note_off_c, 1, 63, 96
1, 41470, Note_on_c, 1, 72, 96
1, 41471, Note_off_c, 1, 72, 96
1, 41533, Note_on_c, 1, 69, 96
1, 41533, Note_on_c, 1, 42, 96
1, 41533, Note_on_c, 1, 54, 96
1, 41534, Note_off_c, 1, 69, 96
1, 41534, Note_off_c, 1, 42, 96
1, 41534, Note_off_c, 1, 54, 96
1, 41594, Note_on_c, 1, 65, 96
1, 41595, Note_off_c, 1, 65, 96
1, 41658, Note_on_c, 1, 67, 96
1, 41658, Note_on_c, 1, 65, 96
1, 41658, Note_on_c, 1, 59, 96
1, 41658, Note_on_c, 1, 55, 96
1, 41659, Note_off_c, 1, 67, 96
1, 41659, Note_off_c, 1, 65, 96
1, 41659, Note_off_c, 1, 59, 96
1, 41659, Note_off_c, 1, 55, 96
1, 41719, Note_on_c, 1, 65, 96
1, 41720, Note_off_c, 1, 65, 96
1, 41782, Note_on_c, 1, 70, 96
1, 41782, Note_on_c, 1, 58, 96
1, 41782, Note_on_c, 1, 55, 96
1, 41783, Note_off_c, 1, 70, 96
1, 41783, Note_off_c, 1, 58, 96
1, 41783, Note_off_c, 1, 55, 96
1, 41843, Note_on_c, 1, 70, 96
1, 41844, Note_off_c, 1, 70, 96
1, 41906, Note_on_c, 1, 69, 96
1, 41906, Note_on_c, 1, 50, 96
1, 41906, Note_on_c, 1, 38, 96
1, 41907, Note_off_c, 1, 69, 96
1, 41907, Note_off_c, 1, 50, 96
1, 41907, Note_off_c, 1, 38, 96
1, 41967, Note_on_c, 1, 74, 96
1, 41968, Note_off_c, 1, 74, 96
1, 42030, Note_on_c, 1, 70, 96
1, 42030, Note_on_c, 1, 54, 96
1, 42030, Note_on_c, 1, 42, 96
1, 42031, Note_off_c, 1, 70, 96
1, 42031, Note_off_c, 1, 54, 96
1, 42031, Note_off_c, 1, 42, 96
1, 42092, Note_on_c, 1, 82, 96
1, 42092, Note_on_c, 1, 70, 96
1, 42093, Note_off_c, 1, 82, 96
1, 42093, Note_off_c, 1, 70, 96
1, 42156, Note_on_c, 1, 82, 96
1, 42156, Note_on_c, 1, 75, 96
1, 42156, Note_on_c, 1, 70, 96
1, 42156, Note_on_c, 1, 67, 96
1, 42157, Note_off_c, 1, 82, 96
1, 42157, Note_off_c, 1, 75, 96
1, 42157, Note_off_c, 1, 70, 96
1, 42157, Note_off_c, 1, 67, 96
1, 42277, Note_on_c, 1, 54, 96
1, 42278, Note_off_c, 1, 54, 96
1, 42339, Note_on_c, 1, 50, 96
1, 42339, Note_on_c, 1, 38, 96
1, 42340, Note_off_c, 1, 50, 96
1, 42340, Note_off_c, 1, 38, 96
1, 42465, Note_on_c, 1, 70, 96
1, 42465, Note_on_c, 1, 73, 96
1, 42465, Note_on_c, 1, 85, 96
1, 42465, Note_on_c, 1, 61, 96
1, 42465, Note_on_c, 1, 58, 96
1, 42465, Note_on_c, 1, 55, 96
1, 42466, Note_off_c, 1, 70, 96
1, 42466, Note_off_c, 1, 73, 96
1, 42466, Note_off_c, 1, 85, 96
1, 42466, Note_off_c, 1, 61, 96
1, 42466, Note_off_c, 1, 58, 96
1, 42466, Note_off_c, 1, 55, 96
1, 42526, Note_on_c, 1, 74, 96
1, 42527, Note_off_c, 1, 74, 96
1, 42591, Note_on_c, 1, 82, 96
1, 42591, Note_on_c, 1, 75, 96
1, 42591, Note_on_c, 1, 87, 96
1, 42591, Note_on_c, 1, 51, 96
1, 42591, Note_on_c, 1, 39, 96
1, 42592, Note_off_c, 1, 82, 96
1, 42592, Note_off_c, 1, 75, 96
1, 42592, Note_off_c, 1, 87, 96
1, 42592, Note_off_c, 1, 51, 96
1, 42592, Note_off_c, 1, 39, 96
1, 42715, Note_on_c, 1, 46, 96
1, 42715, Note_on_c, 1, 55, 96
1, 42715, Note_on_c, 1, 51, 96
1, 42715, Note_on_c, 1, 39, 96
1, 42717, Note_off_c, 1, 46, 96
1, 42717, Note_off_c, 1, 55, 96
1, 42717, Note_off_c, 1, 51, 96
1, 42717, Note_off_c, 1, 39, 96
1, 42717, Note_on_c, 1, 39, 96
1, 42718, Note_off_c, 1, 39, 96
1, 42842, Note_on_c, 1, 70, 96
1, 42842, Note_on_c, 1, 65, 96
1, 42842, Note_on_c, 1, 56, 96
1, 42842, Note_on_c, 1, 62, 96
1, 42842, Note_on_c, 1, 58, 96
1, 42843, Note_off_c, 1, 70, 96
1, 42843, Note_off_c, 1, 65, 96
1, 42843, Note_off_c, 1, 56, 96
1, 42843, Note_off_c, 1, 62, 96
1, 42843, Note_off_c, 1, 58, 96
1, 42903, Note_on_c, 1, 74, 96
1, 42904, Note_off_c, 1, 74, 96
1, 42966, Note_on_c, 1, 58, 96
1, 42966, Note_on_c, 1, 53, 96
1, 42966, Note_on_c, 1, 62, 96
1, 42967, Note_off_c, 1, 58, 96
1, 42967, Note_off_c, 1, 53, 96
1, 42967, Note_off_c, 1, 62, 96
1, 43027, Note_on_c, 1, 70, 96
1, 43028, Note_off_c, 1, 70, 96
1, 43091, Note_on_c, 1, 74, 96
1, 43091, Note_on_c, 1, 58, 96
1, 43091, Note_on_c, 1, 53, 96
1, 43091, Note_on_c, 1, 62, 96
1, 43092, Note_off_c, 1, 74, 96
1, 43092, Note_off_c, 1, 58, 96
1, 43092, Note_off_c, 1, 53, 96
1, 43092, Note_off_c, 1, 62, 96
1, 43152, Note_on_c, 1, 67, 96
1, 43153, Note_off_c, 1, 67, 96
1, 43217, Note_on_c, 1, 63, 96
1, 43217, Note_on_c, 1, 67, 96
1, 43217, Note_on_c, 1, 55, 96
1, 43217, Note_on_c, 1, 51, 96
1, 43217, Note_on_c, 1, 58, 96
1, 43218, Note_off_c, 1, 63, 96
1, 43218, Note_off_c, 1, 67, 96
1, 43218, Note_off_c, 1, 55, 96
1, 43218, Note_off_c, 1, 51, 96
1, 43218, Note_off_c, 1, 58, 96
1, 43278, Note_on_c, 1, 68, 96
1, 43279, Note_off_c, 1, 68, 96
1, 43340, Note_on_c, 1, 39, 96
1, 43340, Note_on_c, 1, 51, 96
1, 43341, Note_off_c, 1, 39, 96
1, 43341, Note_off_c, 1, 51, 96
1, 43401, Note_on_c, 1, 74, 96
1, 43402, Note_off_c, 1, 74, 96
1, 43464, Note_on_c, 1, 75, 96
1, 43464, Note_on_c, 1, 44, 96
1, 43464, Note_on_c, 1, 32, 96
1, 43465, Note_off_c, 1, 75, 96
1, 43465, Note_off_c, 1, 44, 96
1, 43465, Note_off_c, 1, 32, 96
1, 43525, Note_on_c, 1, 77, 96
1, 43526, Note_off_c, 1, 77, 96
1, 43587, Note_on_c, 1, 69, 96
1, 43587, Note_on_c, 1, 49, 96
1, 43588, Note_off_c, 1, 69, 96
1, 43588, Note_off_c, 1, 49, 96
1, 43686, Note_on_c, 1, 73, 96
1, 43686, Note_on_c, 1, 67, 96
1, 43686, Note_on_c, 1, 55, 96
1, 43687, Note_off_c, 1, 73, 96
1, 43687, Note_off_c, 1, 67, 96
1, 43687, Note_off_c, 1, 55, 96
1, 43748, Note_on_c, 1, 77, 96
1, 43748, Note_on_c, 1, 61, 96
1, 43749, Note_off_c, 1, 77, 96
1, 43749, Note_off_c, 1, 61, 96
1, 43813, Note_on_c, 1, 72, 96
1, 43813, Note_on_c, 1, 65, 96
1, 43813, Note_on_c, 1, 63, 96
1, 43813, Note_on_c, 1, 60, 96
1, 43813, Note_on_c, 1, 57, 96
1, 43814, Note_off_c, 1, 72, 96
1, 43814, Note_off_c, 1, 65, 96
1, 43814, Note_off_c, 1, 63, 96
1, 43814, Note_off_c, 1, 60, 96
1, 43814, Note_off_c, 1, 57, 96
1, 43874, Note_on_c, 1, 72, 96
1, 43875, Note_off_c, 1, 72, 96
1, 43938, Note_on_c, 1, 39, 96
1, 43938, Note_on_c, 1, 75, 96
1, 43938, Note_on_c, 1, 51, 96
1, 43938, Note_on_c, 1, 45, 96
1, 43939, Note_off_c, 1, 39, 96
1, 43939, Note_off_c, 1, 75, 96
1, 43939, Note_off_c, 1, 51, 96
1, 43939, Note_off_c, 1, 45, 96
1, 43999, Note_on_c, 1, 74, 96
1, 44000, Note_off_c, 1, 74, 96
1, 44063, Note_on_c, 1, 77, 96
1, 44063, Note_on_c, 1, 57, 96
1, 44063, Note_on_c, 1, 53, 96
1, 44063, Note_on_c, 1, 50, 96
1, 44064, Note_off_c, 1, 77, 96
1, 44064, Note_off_c, 1, 57, 96
1, 44064, Note_off_c, 1, 53, 96
1, 44064, Note_off_c, 1, 50, 96
1, 44124, Note_on_c, 1, 68, 96
1, 44125, Note_off_c, 1, 68, 96
1, 44187, Note_on_c, 1, 75, 96
1, 44187, Note_on_c, 1, 51, 96
1, 44187, Note_on_c, 1, 55, 96
1, 44188, Note_off_c, 1, 75, 96
1, 44188, Note_off_c, 1, 51, 96
1, 44188, Note_off_c, 1, 55, 96
1, 44248, Note_on_c, 1, 68, 96
1, 44249, Note_off_c, 1, 68, 96
1, 44312, Note_on_c, 1, 66, 96
1, 44312, Note_on_c, 1, 69, 96
1, 44312, Note_on_c, 1, 51, 96
1, 44312, Note_on_c, 1, 39, 96
1, 44313, Note_off_c, 1, 66, 96
1, 44313, Note_off_c, 1, 69, 96
1, 44313, Note_off_c, 1, 51, 96
1, 44313, Note_off_c, 1, 39, 96
1, 44373, Note_on_c, 1, 71, 96
1, 44374, Note_off_c, 1, 71, 96
1, 44438, Note_on_c, 1, 51, 96
1, 44438, Note_on_c, 1, 60, 96
1, 44438, Note_on_c, 1, 56, 96
1, 44438, Note_on_c, 1, 68, 96
1, 44438, Note_on_c, 1, 63, 96
1, 44439, Note_off_c, 1, 51, 96
1, 44439, Note_off_c, 1, 60, 96
1, 44439, Note_off_c, 1, 56, 96
1, 44439, Note_off_c, 1, 68, 96
1, 44439, Note_off_c, 1, 63, 96
1, 44499, Note_on_c, 1, 65, 96
1, 44500, Note_off_c, 1, 65, 96
1, 44564, Note_on_c, 1, 68, 96
1, 44564, Note_on_c, 1, 63, 96
1, 44564, Note_on_c, 1, 60, 96
1, 44564, Note_on_c, 1, 48, 96
1, 44564, Note_on_c, 1, 55, 96
1, 44565, Note_off_c, 1, 68, 96
1, 44565, Note_off_c, 1, 63, 96
1, 44565, Note_off_c, 1, 60, 96
1, 44565, Note_off_c, 1, 48, 96
1, 44565, Note_off_c, 1, 55, 96
1, 44625, Note_on_c, 1, 63, 96
1, 44626, Note_off_c, 1, 63, 96
1, 44688, Note_on_c, 1, 77, 96
1, 44688, Note_on_c, 1, 65, 96
1, 44688, Note_on_c, 1, 60, 96
1, 44689, Note_off_c, 1, 77, 96
1, 44689, Note_off_c, 1, 65, 96
1, 44689, Note_off_c, 1, 60, 96
1, 44749, Note_on_c, 1, 77, 96
1, 44750, Note_off_c, 1, 77, 96
1, 44812, Note_on_c, 1, 56, 96
1, 44812, Note_on_c, 1, 65, 96
1, 44812, Note_on_c, 1, 60, 96
1, 44813, Note_off_c, 1, 56, 96
1, 44813, Note_off_c, 1, 65, 96
1, 44813, Note_off_c, 1, 60, 96
1, 44873, Note_on_c, 1, 74, 96
1, 44874, Note_off_c, 1, 74, 96
1, 44935, Note_on_c, 1, 43, 96
1, 44935, Note_on_c, 1, 55, 96
1, 44936, Note_off_c, 1, 43, 96
1, 44936, Note_off_c, 1, 55, 96
1, 44996, Note_on_c, 1, 70, 96
1, 44997, Note_off_c, 1, 70, 96
1, 45060, Note_on_c, 1, 72, 96
1, 45060, Note_on_c, 1, 63, 96
1, 45060, Note_on_c, 1, 56, 96
1, 45060, Note_on_c, 1, 58, 96
1, 45061, Note_off_c, 1, 72, 96
1, 45061, Note_off_c, 1, 63, 96
1, 45061, Note_off_c, 1, 56, 96
1, 45061, Note_off_c, 1, 58, 96
1, 45121, Note_on_c, 1, 79, 96
1, 45122, Note_off_c, 1, 79, 96
1, 45184, Note_on_c, 1, 55, 96
1, 45184, Note_on_c, 1, 63, 96
1, 45184, Note_on_c, 1, 58, 96
1, 45185, Note_off_c, 1, 55, 96
1, 45185, Note_off_c, 1, 63, 96
1, 45185, Note_off_c, 1, 58, 96
1, 45245, Note_on_c, 1, 74, 96
1, 45246, Note_off_c, 1, 74, 96
1, 45307, Note_on_c, 1, 51, 96
1, 45307, Note_on_c, 1, 39, 96
1, 45308, Note_off_c, 1, 51, 96
1, 45308, Note_off_c, 1, 39, 96
1, 45369, Note_on_c, 1, 75, 96
1, 45369, Note_on_c, 1, 72, 96
1, 45370, Note_off_c, 1, 75, 96
1, 45370, Note_off_c, 1, 72, 96
1, 45431, Note_on_c, 1, 58, 96
1, 45431, Note_on_c, 1, 46, 96
1, 45432, Note_off_c, 1, 58, 96
1, 45432, Note_off_c, 1, 46, 96
1, 45492, Note_on_c, 1, 72, 96
1, 45493, Note_off_c, 1, 72, 96
1, 45555, Note_on_c, 1, 75, 96
1, 45555, Note_on_c, 1, 58, 96
1, 45555, Note_on_c, 1, 46, 96
1, 45556, Note_off_c, 1, 75, 96
1, 45556, Note_off_c, 1, 58, 96
1, 45556, Note_off_c, 1, 46, 96
1, 45617, Note_on_c, 1, 79, 96
1, 45617, Note_on_c, 1, 75, 96
1, 45618, Note_off_c, 1, 79, 96
1, 45618, Note_off_c, 1, 75, 96
1, 45681, Note_on_c, 1, 64, 96
1, 45681, Note_on_c, 1, 55, 96
1, 45681, Note_on_c, 1, 58, 96
1, 45681, Note_on_c, 1, 60, 96
1, 45682, Note_off_c, 1, 64, 96
1, 45682, Note_off_c, 1, 55, 96
1, 45682, Note_off_c, 1, 58, 96
1, 45682, Note_off_c, 1, 60, 96
1, 45742, Note_on_c, 1, 73, 96
1, 45743, Note_off_c, 1, 73, 96
1, 45806, Note_on_c, 1, 82, 96
1, 45806, Note_on_c, 1, 74, 96
1, 45806, Note_on_c, 1, 52, 96
1, 45806, Note_on_c, 1, 40, 96
1, 45807, Note_off_c, 1, 82, 96
1, 45807, Note_off_c, 1, 74, 96
1, 45807, Note_off_c, 1, 52, 96
1, 45807, Note_off_c, 1, 40, 96
1, 45868, Note_on_c, 1, 83, 96
1, 45868, Note_on_c, 1, 74, 96
1, 45869, Note_off_c, 1, 83, 96
1, 45869, Note_off_c, 1, 74, 96
1, 45931, Note_on_c, 1, 52, 96
1, 45931, Note_on_c, 1, 64, 96
1, 45931, Note_on_c, 1, 56, 96
1, 45932, Note_off_c, 1, 52, 96
1, 45932, Note_off_c, 1, 64, 96
1, 45932, Note_off_c, 1, 56, 96
1, 45992, Note_on_c, 1, 75, 96
1, 45993, Note_off_c, 1, 75, 96
1, 46056, Note_on_c, 1, 81, 96
1, 46056, Note_on_c, 1, 52, 96
1, 46056, Note_on_c, 1, 56, 96
1, 46056, Note_on_c, 1, 62, 96
1, 46057, Note_off_c, 1, 81, 96
1, 46057, Note_off_c, 1, 52, 96
1, 46057, Note_off_c, 1, 56, 96
1, 46057, Note_off_c, 1, 62, 96
1, 46180, Note_on_c, 1, 67, 96
1, 46180, Note_on_c, 1, 80, 96
1, 46180, Note_on_c, 1, 47, 96
1, 46180, Note_on_c, 1, 59, 96
1, 46181, Note_off_c, 1, 67, 96
1, 46181, Note_off_c, 1, 80, 96
1, 46181, Note_off_c, 1, 47, 96
1, 46181, Note_off_c, 1, 59, 96
1, 46242, Note_on_c, 1, 47, 96
1, 46242, Note_on_c, 1, 59, 96
1, 46243, Note_off_c, 1, 47, 96
1, 46243, Note_off_c, 1, 59, 96
1, 46305, Note_on_c, 1, 77, 96
1, 46305, Note_on_c, 1, 83, 96
1, 46305, Note_on_c, 1, 43, 96
1, 46306, Note_off_c, 1, 77, 96
1, 46306, Note_off_c, 1, 83, 96
1, 46306, Note_off_c, 1, 43, 96
1, 46367, Note_on_c, 1, 44, 96
1, 46367, Note_on_c, 1, 56, 96
1, 46368, Note_off_c, 1, 44, 96
1, 46368, Note_off_c, 1, 56, 96
1, 46429, Note_on_c, 1, 44, 96
1, 46429, Note_on_c, 1, 56, 96
1, 46430, Note_off_c, 1, 44, 96
1, 46430, Note_off_c, 1, 56, 96
1, 46491, Note_on_c, 1, 43, 96
1, 46491, Note_on_c, 1, 55, 96
1, 46492, Note_off_c, 1, 43, 96
1, 46492, Note_off_c, 1, 55, 96
1, 46553, Note_on_c, 1, 36, 96
1, 46553, Note_on_c, 1, 48, 96
1, 46554, Note_off_c, 1, 36, 96
1, 46554, Note_off_c, 1, 48, 96
1, 46614, Note_on_c, 1, 48, 96
1, 46615, Note_off_c, 1, 48, 96
1, 46676, Note_on_c, 1, 36, 96
1, 46676, Note_on_c, 1, 48, 96
1, 46677, Note_off_c, 1, 36, 96
1, 46677, Note_off_c, 1, 48, 96
1, 46738, Note_on_c, 1, 45, 96
1, 46738, Note_on_c, 1, 57, 96
1, 46739, Note_off_c, 1, 45, 96
1, 46739, Note_off_c, 1, 57, 96
1, 46860, Note_on_c, 1, 43, 96
1, 46860, Note_on_c, 1, 55, 96
1, 46861, Note_off_c, 1, 43, 96
1, 46861, Note_off_c, 1, 55, 96
1, 46922, Note_on_c, 1, 35, 96
1, 46922, Note_on_c, 1, 47, 96
1, 46923, Note_off_c, 1, 35, 96
1, 46923, Note_off_c, 1, 47, 96
1, 46984, Note_on_c, 1, 55, 96
1, 46984, Note_on_c, 1, 60, 96
1, 46984, Note_on_c, 1, 64, 96
1, 46985, Note_off_c, 1, 55, 96
1, 46985, Note_off_c, 1, 60, 96
1, 46985, Note_off_c, 1, 64, 96
1, 47045, Note_on_c, 1, 60, 96
1, 47046, Note_off_c, 1, 60, 96
1, 47107, Note_on_c, 1, 60, 96
1, 47107, Note_on_c, 1, 48, 96
1, 47108, Note_off_c, 1, 60, 96
1, 47108, Note_off_c, 1, 48, 96
1, 47169, Note_on_c, 1, 64, 96
1, 47169, Note_on_c, 1, 52, 96
1, 47170, Note_off_c, 1, 64, 96
1, 47170, Note_off_c, 1, 52, 96
1, 47231, Note_on_c, 1, 53, 96
1, 47231, Note_on_c, 1, 41, 96
1, 47232, Note_off_c, 1, 53, 96
1, 47232, Note_off_c, 1, 41, 96
1, 47293, Note_on_c, 1, 64, 96
1, 47293, Note_on_c, 1, 55, 96
1, 47294, Note_off_c, 1, 64, 96
1, 47294, Note_off_c, 1, 55, 96
1, 47357, Note_on_c, 1, 67, 96
1, 47357, Note_on_c, 1, 55, 96
1, 47357, Note_on_c, 1, 51, 96
1, 47357, Note_on_c, 1, 58, 96
1, 47358, Note_off_c, 1, 67, 96
1, 47358, Note_off_c, 1, 55, 96
1, 47358, Note_off_c, 1, 51, 96
1, 47358, Note_off_c, 1, 58, 96
1, 47454, Note_on_c, 1, 67, 96
1, 47455, Note_off_c, 1, 67, 96
1, 47553, Note_on_c, 1, 66, 96
1, 47553, Note_on_c, 1, 48, 96
1, 47553, Note_on_c, 1, 41, 96
1, 47554, Note_off_c, 1, 66, 96
1, 47554, Note_off_c, 1, 48, 96
1, 47554, Note_off_c, 1, 41, 96
1, 47651, Note_on_c, 1, 80, 96
1, 47651, Note_on_c, 1, 68, 96
1, 47652, Note_off_c, 1, 80, 96
1, 47652, Note_off_c, 1, 68, 96
1, 47749, Note_on_c, 1, 84, 96
1, 47750, Note_off_c, 1, 84, 96
1, 47848, Note_on_c, 1, 77, 96
1, 47848, Note_on_c, 1, 84, 96
1, 47848, Note_on_c, 1, 69, 96
1, 47849, Note_off_c, 1, 77, 96
1, 47849, Note_off_c, 1, 84, 96
1, 47849, Note_off_c, 1, 69, 96
1, 47971, Note_on_c, 1, 79, 96
1, 47971, Note_on_c, 1, 59, 96
1, 47971, Note_on_c, 1, 47, 96
1, 47972, Note_off_c, 1, 79, 96
1, 47972, Note_off_c, 1, 59, 96
1, 47972, Note_off_c, 1, 47, 96
1, 48183, Note_on_c, 1, 74, 96
1, 48183, Note_on_c, 1, 71, 96
1, 48184, Note_off_c, 1, 74, 96
1, 48184, Note_off_c, 1, 71, 96
1, 48309, Note_on_c, 1, 70, 96
1, 48309, Note_on_c, 1, 74, 96
1, 48309, Note_on_c, 1, 72, 96
1, 48309, Note_on_c, 1, 55, 96
1, 48309, Note_on_c, 1, 58, 96
1, 48309, Note_on_c, 1, 63, 96
1, 48310, Note_off_c, 1, 70, 96
1, 48310, Note_off_c, 1, 74, 96
1, 48310, Note_off_c, 1, 72, 96
1, 48310, Note_off_c, 1, 55, 96
1, 48310, Note_off_c, 1, 58, 96
1, 48310, Note_off_c, 1, 63, 96
1, 48334, End_track
0, 0, End_of_file