0, 0, Header, 0, 1, 240
1, 0, Start_track
1, 0, Tempo, 555555
1, 3, Note_on_c, 1, 42, 96
1, 3, Note_on_c, 1, 57, 96
1, 3, Note_on_c, 1, 48, 96
1, 4, Note_off_c, 1, 42, 96
1, 4, Note_off_c, 1, 57, 96
1, 4, Note_off_c, 1, 48, 96
1, 15, Note_on_c, 1, 52, 96
1, 15, Note_on_c, 1, 43, 96
1, 16, Note_off_c, 1, 52, 96
1, 16, Note_off_c, 1, 43, 96
1, 45, Note_on_c, 1, 76, 96
1, 48, Note_off_c, 1, 76, 96
1, 48, Note_on_c, 1, 82, 96
1, 48, Note_on_c, 1, 85, 96
1, 49, Note_off_c, 1, 82, 96
1, 49, Note_off_c, 1, 85, 96
1, 113, Note_on_c, 1, 71, 96
1, 113, Note_on_c, 1, 83, 96
1, 113, Note_on_c, 1, 80, 96
1, 113, Note_on_c, 1, 44, 96
1, 113, Note_on_c, 1, 56, 96
1, 114, Note_off_c, 1, 71, 96
1, 114, Note_off_c, 1, 83, 96
1, 114, Note_off_c, 1, 80, 96
1, 114, Note_off_c, 1, 44, 96
1, 114, Note_off_c, 1, 56, 96
1, 144, Note_on_c, 1, 84, 96
1, 145, Note_off_c, 1, 84, 96
1, 176, Note_on_c, 1, 38, 96
1, 176, Note_on_c, 1, 50, 96
1, 179, Note_off_c, 1, 38, 96
1, 179, Note_off_c, 1, 50, 96
1, 179, Note_on_c, 1, 74, 96
1, 179, Note_on_c, 1, 60, 96
1, 180, Note_off_c, 1, 74, 96
1, 180, Note_off_c, 1, 60, 96
1, 186, Note_on_c, 1, 81, 96
1, 188, Note_off_c, 1, 81, 96
1, 188, Note_on_c, 1, 84, 96
1, 189, Note_off_c, 1, 84, 96
1, 196, Note_on_c, 1, 81, 96
1, 197, Note_off_c, 1, 81, 96
1, 208, Note_on_c, 1, 83, 96
1, 208, Note_on_c, 1, 77, 96
1, 208, Note_on_c, 1, 86, 96
1, 208, Note_on_c, 1, 91, 96
1, 209, Note_off_c, 1, 83, 96
1, 209, Note_off_c, 1, 77, 96
1, 209, Note_off_c, 1, 86, 96
1, 209, Note_off_c, 1, 91, 96
1, 229, Note_on_c, 1, 78, 96
1, 230, Note_off_c, 1, 78, 96
1, 237, Note_on_c, 1, 74, 96
1, 238, Note_off_c, 1, 74, 96
1, 244, Note_on_c, 1, 83, 96
1, 245, Note_off_c, 1, 83, 96
1, 249, Note_on_c, 1, 47, 96
1, 249, Note_on_c, 1, 79, 96
1, 249, Note_on_c, 1, 74, 96
1, 250, Note_off_c, 1, 47, 96
1, 250, Note_off_c, 1, 79, 96
1, 250, Note_off_c, 1, 74, 96
1, 252, Note_on_c, 1, 74, 96
1, 253, Note_off_c, 1, 74, 96
1, 255, Note_on_c, 1, 83, 96
1, 256, Note_off_c, 1, 83, 96
1, 259, Note_on_c, 1, 71, 96
1, 259, Note_on_c, 1, 83, 96
1, 260, Note_off_c, 1, 71, 96
1, 260, Note_off_c, 1, 83, 96
1, 272, Note_on_c, 1, 79, 96
1, 272, Note_on_c, 1, 82, 96
1, 273, Note_off_c, 1, 79, 96
1, 273, Note_off_c, 1, 82, 96
1, 279, Note_on_c, 1, 70, 96
1, 279, Note_on_c, 1, 82, 96
1, 280, Note_off_c, 1, 70, 96
1, 280, Note_off_c, 1, 82, 96
1, 288, Note_on_c, 1, 86, 96
1, 288, Note_on_c, 1, 82, 96
1, 288, Note_on_c, 1, 79, 96
1, 289, Note_off_c, 1, 86, 96
1, 289, Note_off_c, 1, 82, 96
1, 289, Note_off_c, 1, 79, 96
1, 306, Note_on_c, 1, 62, 96
1, 306, Note_on_c, 1, 58, 96
1, 306, Note_on_c, 1, 82, 96
1, 306, Note_on_c, 1, 70, 96
1, 307, Note_off_c, 1, 62, 96
1, 307, Note_off_c, 1, 58, 96
1, 307, Note_off_c, 1, 82, 96
1, 307, Note_off_c, 1, 70, 96
1, 311, Note_on_c, 1, 70, 96
1, 311, Note_on_c, 1, 49, 96
1, 312, Note_off_c, 1, 70, 96
1, 312, Note_off_c, 1, 49, 96
1, 327, Note_on_c, 1, 82, 96
1, 327, Note_on_c, 1, 80, 96
1, 328, Note_off_c, 1, 82, 96
1, 328, Note_off_c, 1, 80, 96
1, 355, Note_on_c, 1, 76, 96
1, 355, Note_on_c, 1, 79, 96
1, 355, Note_on_c, 1, 86, 96
1, 355, Note_on_c, 1, 84, 96
1, 355, Note_on_c, 1, 36, 96
1, 355, Note_on_c, 1, 48, 96
1, 355, Note_on_c, 1, 62, 96
1, 355, Note_on_c, 1, 57, 96
1, 355, Note_on_c, 1, 41, 96
1, 355, Note_on_c, 1, 57, 96
1, 355, Note_on_c, 1, 62, 96
1, 355, Note_on_c, 1, 36, 96
1, 356, Note_off_c, 1, 76, 96
1, 356, Note_off_c, 1, 79, 96
1, 356, Note_off_c, 1, 86, 96
1, 356, Note_off_c, 1, 84, 96
1, 356, Note_off_c, 1, 36, 96
1, 356, Note_off_c, 1, 48, 96
1, 356, Note_off_c, 1, 62, 96
1, 356, Note_off_c, 1, 57, 96
1, 356, Note_off_c, 1, 41, 96
1, 356, Note_off_c, 1, 57, 96
1, 356, Note_off_c, 1, 62, 96
1, 356, Note_off_c, 1, 36, 96
1, 440, Note_on_c, 1, 82, 96
1, 441, Note_off_c, 1, 82, 96
1, 482, Note_on_c, 1, 77, 96
1, 482, Note_on_c, 1, 41, 96
1, 483, Note_off_c, 1, 77, 96
1, 483, Note_off_c, 1, 41, 96
1, 539, Note_on_c, 1, 81, 96
1, 539, Note_on_c, 1, 93, 96
1, 540, Note_off_c, 1, 81, 96
1, 540, Note_off_c, 1, 93, 96
1, 580, Note_on_c, 1, 80, 96
1, 581, Note_off_c, 1, 80, 96
1, 626, Note_on_c, 1, 54, 96
1, 626, Note_on_c, 1, 60, 96
1, 626, Note_on_c, 1, 93, 96
1, 626, Note_on_c, 1, 82, 96
1, 626, Note_on_c, 1, 58, 96
1, 626, Note_on_c, 1, 64, 96
1, 627, Note_off_c, 1, 54, 96
1, 627, Note_off_c, 1, 60, 96
1, 627, Note_off_c, 1, 93, 96
1, 627, Note_off_c, 1, 82, 96
1, 627, Note_off_c, 1, 58, 96
1, 627, Note_off_c, 1, 64, 96
1, 683, Note_on_c, 1, 82, 96
1, 684, Note_off_c, 1, 82, 96
1, 724, Note_on_c, 1, 72, 96
1, 725, Note_off_c, 1, 72, 96
1, 768, Note_on_c, 1, 80, 96
1, 768, Note_on_c, 1, 52, 96
1, 768, Note_on_c, 1, 56, 96
1, 768, Note_on_c, 1, 60, 96
1, 769, Note_off_c, 1, 80, 96
1, 769, Note_off_c, 1, 52, 96
1, 769, Note_off_c, 1, 56, 96
1, 769, Note_off_c, 1, 60, 96
1, 826, Note_on_c, 1, 73, 96
1, 826, Note_on_c, 1, 70, 96
1, 829, Note_off_c, 1, 73, 96
1, 829, Note_off_c, 1, 70, 96
1, 829, Note_on_c, 1, 40, 96
1, 829, Note_on_c, 1, 52, 96
1, 830, Note_off_c, 1, 40, 96
1, 830, Note_off_c, 1, 52, 96
1, 949, Note_on_c, 1, 40, 96
1, 949, Note_on_c, 1, 52, 96
1, 950, Note_off_c, 1, 40, 96
1, 950, Note_off_c, 1, 52, 96
1, 1072, Note_on_c, 1, 71, 96
1, 1072, Note_on_c, 1, 68, 96
1, 1072, Note_on_c, 1, 71, 96
1, 1073, Note_off_c, 1, 71, 96
1, 1073, Note_off_c, 1, 68, 96
1, 1073, Note_off_c, 1, 71, 96
1, 1141, Note_on_c, 1, 48, 96
1, 1141, Note_on_c, 1, 36, 96
1, 1142, Note_off_c, 1, 48, 96
1, 1142, Note_off_c, 1, 36, 96
1, 1216, Note_on_c, 1, 38, 96
1, 1218, Note_off_c, 1, 38, 96
1, 1218, Note_on_c, 1, 70, 96
1, 1219, Note_off_c, 1, 70, 96
1, 1331, Note_on_c, 1, 60, 96
1, 1332, Note_off_c, 1, 60, 96
1, 1334, Note_on_c, 1, 69, 96
1, 1337, Note_off_c, 1, 69, 96
1, 1337, Note_on_c, 1, 57, 96
1, 1337, Note_on_c, 1, 53, 96
1, 1338, Note_off_c, 1, 57, 96
1, 1338, Note_off_c, 1, 53, 96
1, 1454, Note_on_c, 1, 57, 96
1, 1456, Note_off_c, 1, 57, 96
1, 1456, Note_on_c, 1, 50, 96
1, 1458, Note_off_c, 1, 50, 96
1, 1458, Note_on_c, 1, 57, 96
1, 1459, Note_off_c, 1, 57, 96
1, 1518, Note_on_c, 1, 74, 96
1, 1519, Note_off_c, 1, 74, 96
1, 1578, Note_on_c, 1, 57, 96
1, 1579, Note_off_c, 1, 57, 96
1, 1581, Note_on_c, 1, 60, 96
1, 1582, Note_off_c, 1, 60, 96
1, 1634, Note_on_c, 1, 45, 96
1, 1635, Note_off_c, 1, 45, 96
1, 1637, Note_on_c, 1, 66, 96
1, 1638, Note_off_c, 1, 66, 96
1, 1641, Note_on_c, 1, 72, 96
1, 1642, Note_off_c, 1, 72, 96
1, 1697, Note_on_c, 1, 72, 96
1, 1698, Note_off_c, 1, 72, 96
1, 1759, Note_on_c, 1, 57, 96
1, 1761, Note_off_c, 1, 57, 96
1, 1761, Note_on_c, 1, 54, 96
1, 1762, Note_off_c, 1, 54, 96
1, 1764, Note_on_c, 1, 72, 96
1, 1765, Note_off_c, 1, 72, 96
1, 1767, Note_on_c, 1, 60, 96
1, 1768, Note_off_c, 1, 60, 96
1, 1880, Note_on_c, 1, 60, 96
1, 1880, Note_on_c, 1, 72, 96
1, 1881, Note_off_c, 1, 60, 96
1, 1881, Note_off_c, 1, 72, 96
1, 1884, Note_on_c, 1, 66, 96
1, 1884, Note_on_c, 1, 50, 96
1, 1885, Note_off_c, 1, 66, 96
1, 1885, Note_off_c, 1, 50, 96
1, 1889, Note_on_c, 1, 60, 96
1, 1891, Note_off_c, 1, 60, 96
1, 1891, Note_on_c, 1, 38, 96
1, 1892, Note_off_c, 1, 38, 96
1, 2007, Note_on_c, 1, 43, 96
1, 2008, Note_off_c, 1, 43, 96
1, 2129, Note_on_c, 1, 55, 96
1, 2129, Note_on_c, 1, 57, 96
1, 2130, Note_off_c, 1, 55, 96
1, 2130, Note_off_c, 1, 57, 96
1, 2134, Note_on_c, 1, 67, 96
1, 2135, Note_off_c, 1, 67, 96
1, 2190, Note_on_c, 1, 71, 96
1, 2191, Note_off_c, 1, 71, 96
1, 2253, Note_on_c, 1, 50, 96
1, 2254, Note_off_c, 1, 50, 96
1, 2258, Note_on_c, 1, 76, 96
1, 2258, Note_on_c, 1, 59, 96
1, 2258, Note_on_c, 1, 55, 96
1, 2259, Note_off_c, 1, 76, 96
1, 2259, Note_off_c, 1, 59, 96
1, 2259, Note_off_c, 1, 55, 96
1, 2314, Note_on_c, 1, 74, 96
1, 2315, Note_off_c, 1, 74, 96
1, 2379, Note_on_c, 1, 59, 96
1, 2379, Note_on_c, 1, 62, 96
1, 2380, Note_off_c, 1, 59, 96
1, 2380, Note_off_c, 1, 62, 96
1, 2383, Note_on_c, 1, 71, 96
1, 2383, Note_on_c, 1, 55, 96
1, 2384, Note_off_c, 1, 71, 96
1, 2384, Note_off_c, 1, 55, 96
1, 2443, Note_on_c, 1, 76, 96
1, 2444, Note_off_c, 1, 76, 96
1, 2502, Note_on_c, 1, 76, 96
1, 2503, Note_off_c, 1, 76, 96
1, 2506, Note_on_c, 1, 64, 96
1, 2507, Note_off_c, 1, 64, 96
1, 2566, Note_on_c, 1, 66, 96
1, 2567, Note_off_c, 1, 66, 96
1, 2569, Note_on_c, 1, 78, 96
1, 2570, Note_off_c, 1, 78, 96
1, 2683, Note_on_c, 1, 76, 96
1, 2684, Note_off_c, 1, 76, 96
1, 2688, Note_on_c, 1, 79, 96
1, 2689, Note_off_c, 1, 79, 96
1, 2694, Note_on_c, 1, 60, 96
1, 2695, Note_off_c, 1, 60, 96
1, 2698, Note_on_c, 1, 55, 96
1, 2698, Note_on_c, 1, 64, 96
1, 2699, Note_off_c, 1, 55, 96
1, 2699, Note_off_c, 1, 64, 96
1, 2750, Note_on_c, 1, 74, 96
1, 2751, Note_off_c, 1, 74, 96
1, 2809, Note_on_c, 1, 79, 96
1, 2810, Note_off_c, 1, 79, 96
1, 2933, Note_on_c, 1, 43, 96
1, 2935, Note_off_c, 1, 43, 96
1, 2935, Note_on_c, 1, 74, 96
1, 2936, Note_off_c, 1, 74, 96
1, 2992, Note_on_c, 1, 73, 96
1, 2993, Note_off_c, 1, 73, 96
1, 3053, Note_on_c, 1, 50, 96
1, 3054, Note_off_c, 1, 50, 96
1, 3057, Note_on_c, 1, 74, 96
1, 3059, Note_off_c, 1, 74, 96
1, 3059, Note_on_c, 1, 38, 96
1, 3060, Note_off_c, 1, 38, 96
1, 3118, Note_on_c, 1, 69, 96
1, 3119, Note_off_c, 1, 69, 96
1, 3175, Note_on_c, 1, 38, 96
1, 3176, Note_off_c, 1, 38, 96
1, 3229, Note_on_c, 1, 66, 96
1, 3230, Note_off_c, 1, 66, 96
1, 3234, Note_on_c, 1, 71, 96
1, 3236, Note_off_c, 1, 71, 96
1, 3236, Note_on_c, 1, 74, 96
1, 3237, Note_off_c, 1, 74, 96
1, 3350, Note_on_c, 1, 74, 96
1, 3351, Note_off_c, 1, 74, 96
1, 3471, Note_on_c, 1, 71, 96
1, 3471, Note_on_c, 1, 62, 96
1, 3473, Note_off_c, 1, 71, 96
1, 3473, Note_off_c, 1, 62, 96
1, 3473, Note_on_c, 1, 43, 96
1, 3474, Note_off_c, 1, 43, 96
1, 3709, Note_on_c, 1, 50, 96
1, 3710, Note_off_c, 1, 50, 96
1, 3712, Note_on_c, 1, 59, 96
1, 3713, Note_off_c, 1, 59, 96
1, 3715, Note_on_c, 1, 67, 96
1, 3717, Note_off_c, 1, 67, 96
1, 3717, Note_on_c, 1, 38, 96
1, 3718, Note_off_c, 1, 38, 96
1, 3835, Note_on_c, 1, 87, 96
1, 3837, Note_off_c, 1, 87, 96
1, 3837, Note_on_c, 1, 75, 96
1, 3838, Note_off_c, 1, 75, 96
1, 3840, Note_on_c, 1, 87, 96
1, 3841, Note_off_c, 1, 87, 96
1, 3967, Note_on_c, 1, 83, 96
1, 3968, Note_off_c, 1, 83, 96
1, 4081, Note_on_c, 1, 65, 96
1, 4082, Note_off_c, 1, 65, 96
1, 4086, Note_on_c, 1, 59, 96
1, 4089, Note_off_c, 1, 59, 96
1, 4089, Note_on_c, 1, 79, 96
1, 4089, Note_on_c, 1, 55, 96
1, 4090, Note_off_c, 1, 79, 96
1, 4090, Note_off_c, 1, 55, 96
1, 4149, Note_on_c, 1, 83, 96
1, 4151, Note_off_c, 1, 83, 96
1, 4151, Note_on_c, 1, 71, 96
1, 4153, Note_off_c, 1, 71, 96
1, 4153, Note_on_c, 1, 79, 96
1, 4155, Note_off_c, 1, 79, 96
1, 4155, Note_on_c, 1, 74, 96
1, 4156, Note_off_c, 1, 74, 96
1, 4273, Note_on_c, 1, 74, 96
1, 4273, Note_on_c, 1, 78, 96
1, 4273, Note_on_c, 1, 83, 96
1, 4275, Note_off_c, 1, 74, 96
1, 4275, Note_off_c, 1, 78, 96
1, 4275, Note_off_c, 1, 83, 96
1, 4275, Note_on_c, 1, 86, 96
1, 4276, Note_off_c, 1, 86, 96
1, 4396, Note_on_c, 1, 59, 96
1, 4398, Note_off_c, 1, 59, 96
1, 4398, Note_on_c, 1, 62, 96
1, 4399, Note_off_c, 1, 62, 96
1, 4519, Note_on_c, 1, 81, 96
1, 4519, Note_on_c, 1, 79, 96
1, 4520, Note_off_c, 1, 81, 96
1, 4520, Note_off_c, 1, 79, 96
1, 4641, Note_on_c, 1, 79, 96
1, 4641, Note_on_c, 1, 67, 96
1, 4641, Note_on_c, 1, 43, 96
1, 4642, Note_off_c, 1, 79, 96
1, 4642, Note_off_c, 1, 67, 96
1, 4642, Note_off_c, 1, 43, 96
1, 4644, Note_on_c, 1, 55, 96
1, 4645, Note_off_c, 1, 55, 96
1, 4648, Note_on_c, 1, 71, 96
1, 4649, Note_off_c, 1, 71, 96
1, 4651, Note_on_c, 1, 74, 96
1, 4652, Note_off_c, 1, 74, 96
1, 4763, Note_on_c, 1, 72, 96
1, 4764, Note_off_c, 1, 72, 96
1, 4768, Note_on_c, 1, 76, 96
1, 4768, Note_on_c, 1, 48, 96
1, 4769, Note_off_c, 1, 76, 96
1, 4769, Note_off_c, 1, 48, 96
1, 4771, Note_on_c, 1, 64, 96
1, 4772, Note_off_c, 1, 64, 96
1, 4878, Note_on_c, 1, 36, 96
1, 4879, Note_off_c, 1, 36, 96
1, 4881, Note_on_c, 1, 48, 96
1, 4882, Note_off_c, 1, 48, 96
1, 4996, Note_on_c, 1, 69, 96
1, 4998, Note_off_c, 1, 69, 96
1, 4998, Note_on_c, 1, 81, 96
1, 4999, Note_off_c, 1, 81, 96
1, 5080, Note_on_c, 1, 45, 96
1, 5081, Note_off_c, 1, 45, 96
1, 5212, Note_on_c, 1, 62, 96
1, 5214, Note_off_c, 1, 62, 96
1, 5214, Note_on_c, 1, 57, 96
1, 5216, Note_off_c, 1, 57, 96
1, 5216, Note_on_c, 1, 66, 96
1, 5218, Note_off_c, 1, 66, 96
1, 5218, Note_on_c, 1, 76, 96
1, 5219, Note_off_c, 1, 76, 96
1, 5391, Note_on_c, 1, 74, 96
1, 5392, Note_off_c, 1, 74, 96
1, 5449, Note_on_c, 1, 66, 96
1, 5450, Note_off_c, 1, 66, 96
1, 5571, Note_on_c, 1, 58, 96
1, 5571, Note_on_c, 1, 67, 96
1, 5573, Note_off_c, 1, 58, 96
1, 5573, Note_off_c, 1, 67, 96
1, 5573, Note_on_c, 1, 59, 96
1, 5574, Note_off_c, 1, 59, 96
1, 5576, Note_on_c, 1, 50, 96
1, 5578, Note_off_c, 1, 50, 96
1, 5578, Note_on_c, 1, 79, 96
1, 5579, Note_off_c, 1, 79, 96
1, 5693, Note_on_c, 1, 55, 96
1, 5695, Note_off_c, 1, 55, 96
1, 5695, Note_on_c, 1, 59, 96
1, 5697, Note_off_c, 1, 59, 96
1, 5697, Note_on_c, 1, 62, 96
1, 5698, Note_off_c, 1, 62, 96
1, 5701, Note_on_c, 1, 53, 96
1, 5702, Note_off_c, 1, 53, 96
1, 5884, Note_on_c, 1, 74, 96
1, 5885, Note_off_c, 1, 74, 96
1, 5942, Note_on_c, 1, 43, 96
1, 5943, Note_off_c, 1, 43, 96
1, 5945, Note_on_c, 1, 74, 96
1, 5946, Note_off_c, 1, 74, 96
1, 6066, Note_on_c, 1, 43, 96
1, 6067, Note_off_c, 1, 43, 96
1, 6183, Note_on_c, 1, 59, 96
1, 6184, Note_off_c, 1, 59, 96
1, 6191, Note_on_c, 1, 71, 96
1, 6191, Note_on_c, 1, 55, 96
1, 6191, Note_on_c, 1, 53, 96
1, 6193, Note_off_c, 1, 71, 96
1, 6193, Note_off_c, 1, 55, 96
1, 6193, Note_off_c, 1, 53, 96
1, 6193, Note_on_c, 1, 67, 96
1, 6194, Note_off_c, 1, 67, 96
1, 6251, Note_on_c, 1, 74, 96
1, 6253, Note_off_c, 1, 74, 96
1, 6253, Note_on_c, 1, 71, 96
1, 6255, Note_off_c, 1, 71, 96
1, 6255, Note_on_c, 1, 79, 96
1, 6256, Note_off_c, 1, 79, 96
1, 6259, Note_on_c, 1, 67, 96
1, 6260, Note_off_c, 1, 67, 96
1, 6316, Note_on_c, 1, 43, 96
1, 6317, Note_off_c, 1, 43, 96
1, 6377, Note_on_c, 1, 79, 96
1, 6378, Note_off_c, 1, 79, 96
1, 6380, Note_on_c, 1, 67, 96
1, 6381, Note_off_c, 1, 67, 96
1, 6438, Note_on_c, 1, 42, 96
1, 6439, Note_off_c, 1, 42, 96
1, 6441, Note_on_c, 1, 54, 96
1, 6442, Note_off_c, 1, 54, 96
1, 6505, Note_on_c, 1, 78, 96
1, 6506, Note_off_c, 1, 78, 96
1, 6565, Note_on_c, 1, 71, 96
1, 6565, Note_on_c, 1, 60, 96
1, 6565, Note_on_c, 1, 50, 96
1, 6566, Note_off_c, 1, 71, 96
1, 6566, Note_off_c, 1, 60, 96
1, 6566, Note_off_c, 1, 50, 96
1, 6568, Note_on_c, 1, 54, 96
1, 6569, Note_off_c, 1, 54, 96
1, 6686, Note_on_c, 1, 43, 96
1, 6686, Note_on_c, 1, 55, 96
1, 6687, Note_off_c, 1, 43, 96
1, 6687, Note_off_c, 1, 55, 96
1, 6691, Note_on_c, 1, 71, 96
1, 6693, Note_off_c, 1, 71, 96
1, 6693, Note_on_c, 1, 74, 96
1, 6694, Note_off_c, 1, 74, 96
1, 6813, Note_on_c, 1, 62, 96
1, 6813, Note_on_c, 1, 38, 96
1, 6815, Note_off_c, 1, 62, 96
1, 6815, Note_off_c, 1, 38, 96
1, 6815, Note_on_c, 1, 59, 96
1, 6816, Note_off_c, 1, 59, 96
1, 6934, Note_on_c, 1, 62, 96
1, 6936, Note_off_c, 1, 62, 96
1, 6936, Note_on_c, 1, 69, 96
1, 6937, Note_off_c, 1, 69, 96
1, 7001, Note_on_c, 1, 76, 96
1, 7002, Note_off_c, 1, 76, 96
1, 7059, Note_on_c, 1, 55, 96
1, 7059, Note_on_c, 1, 43, 96
1, 7060, Note_off_c, 1, 55, 96
1, 7060, Note_off_c, 1, 43, 96
1, 7119, Note_on_c, 1, 71, 96
1, 7120, Note_off_c, 1, 71, 96
1, 7178, Note_on_c, 1, 71, 96
1, 7179, Note_off_c, 1, 71, 96
1, 7183, Note_on_c, 1, 50, 96
1, 7183, Note_on_c, 1, 55, 96
1, 7184, Note_off_c, 1, 50, 96
1, 7184, Note_off_c, 1, 55, 96
1, 7186, Note_on_c, 1, 59, 96
1, 7187, Note_off_c, 1, 59, 96
1, 7251, Note_on_c, 1, 74, 96
1, 7252, Note_off_c, 1, 74, 96
1, 7307, Note_on_c, 1, 38, 96
1, 7308, Note_off_c, 1, 38, 96
1, 7311, Note_on_c, 1, 71, 96
1, 7311, Note_on_c, 1, 50, 96
1, 7312, Note_off_c, 1, 71, 96
1, 7312, Note_off_c, 1, 50, 96
1, 7377, Note_on_c, 1, 71, 96
1, 7378, Note_off_c, 1, 71, 96
1, 7437, Note_on_c, 1, 38, 96
1, 7438, Note_off_c, 1, 38, 96
1, 7440, Note_on_c, 1, 71, 96
1, 7441, Note_off_c, 1, 71, 96
1, 7466, Note_on_c, 1, 76, 96
1, 7467, Note_off_c, 1, 76, 96
1, 7525, Note_on_c, 1, 38, 96
1, 7527, Note_off_c, 1, 38, 96
1, 7527, Note_on_c, 1, 71, 96
1, 7529, Note_off_c, 1, 71, 96
1, 7529, Note_on_c, 1, 74, 96
1, 7531, Note_off_c, 1, 74, 96
1, 7531, Note_on_c, 1, 62, 96
1, 7532, Note_off_c, 1, 62, 96
1, 7633, Note_on_c, 1, 76, 96
1, 7634, Note_off_c, 1, 76, 96
1, 7651, Note_on_c, 1, 73, 96
1, 7652, Note_off_c, 1, 73, 96
1, 7654, Note_on_c, 1, 55, 96
1, 7655, Note_off_c, 1, 55, 96
1, 7713, Note_on_c, 1, 74, 96
1, 7714, Note_off_c, 1, 74, 96
1, 7718, Note_on_c, 1, 50, 96
1, 7719, Note_off_c, 1, 50, 96
1, 7735, Note_on_c, 1, 74, 96
1, 7736, Note_off_c, 1, 74, 96
1, 7770, Note_on_c, 1, 81, 96
1, 7771, Note_off_c, 1, 81, 96
1, 7806, Note_on_c, 1, 62, 96
1, 7808, Note_off_c, 1, 62, 96
1, 7808, Note_on_c, 1, 66, 96
1, 7809, Note_off_c, 1, 66, 96
1, 7815, Note_on_c, 1, 78, 96
1, 7815, Note_on_c, 1, 74, 96
1, 7815, Note_on_c, 1, 78, 96
1, 7816, Note_off_c, 1, 78, 96
1, 7816, Note_off_c, 1, 74, 96
1, 7816, Note_off_c, 1, 78, 96
1, 7882, Note_on_c, 1, 88, 96
1, 7883, Note_off_c, 1, 88, 96
1, 7944, Note_on_c, 1, 50, 96
1, 7945, Note_off_c, 1, 50, 96
1, 7947, Note_on_c, 1, 81, 96
1, 7948, Note_off_c, 1, 81, 96
1, 7989, Note_on_c, 1, 81, 96
1, 7991, Note_off_c, 1, 81, 96
1, 7991, Note_on_c, 1, 66, 96
1, 7992, Note_off_c, 1, 66, 96
1, 7998, Note_on_c, 1, 74, 96
1, 7999, Note_off_c, 1, 74, 96
1, 8054, Note_on_c, 1, 78, 96
1, 8055, Note_off_c, 1, 78, 96
1, 8110, Note_on_c, 1, 78, 96
1, 8110, Note_on_c, 1, 72, 96
1, 8111, Note_off_c, 1, 78, 96
1, 8111, Note_off_c, 1, 72, 96
1, 8169, Note_on_c, 1, 45, 96
1, 8170, Note_off_c, 1, 45, 96
1, 8231, Note_on_c, 1, 78, 96
1, 8232, Note_off_c, 1, 78, 96
1, 8236, Note_on_c, 1, 66, 96
1, 8237, Note_off_c, 1, 66, 96
1, 8289, Note_on_c, 1, 76, 96
1, 8290, Note_off_c, 1, 76, 96
1, 8295, Note_on_c, 1, 78, 96
1, 8295, Note_on_c, 1, 66, 96
1, 8296, Note_off_c, 1, 78, 96
1, 8296, Note_off_c, 1, 66, 96
1, 8410, Note_on_c, 1, 77, 96
1, 8411, Note_off_c, 1, 77, 96
1, 8473, Note_on_c, 1, 74, 96
1, 8475, Note_off_c, 1, 74, 96
1, 8475, Note_on_c, 1, 86, 96
1, 8476, Note_off_c, 1, 86, 96
1, 8594, Note_on_c, 1, 79, 96
1, 8594, Note_on_c, 1, 83, 96
1, 8594, Note_on_c, 1, 59, 96
1, 8594, Note_on_c, 1, 55, 96
1, 8595, Note_off_c, 1, 79, 96
1, 8595, Note_off_c, 1, 83, 96
1, 8595, Note_off_c, 1, 59, 96
1, 8595, Note_off_c, 1, 55, 96
1, 8720, Note_on_c, 1, 59, 96
1, 8720, Note_on_c, 1, 55, 96
1, 8722, Note_off_c, 1, 59, 96
1, 8722, Note_off_c, 1, 55, 96
1, 8722, Note_on_c, 1, 74, 96
1, 8724, Note_off_c, 1, 74, 96
1, 8724, Note_on_c, 1, 65, 96
1, 8725, Note_off_c, 1, 65, 96
1, 8727, Note_on_c, 1, 86, 96
1, 8728, Note_off_c, 1, 86, 96
1, 8846, Note_on_c, 1, 74, 96
1, 8850, Note_off_c, 1, 74, 96
1, 8850, Note_on_c, 1, 81, 96
1, 8850, Note_on_c, 1, 78, 96
1, 8850, Note_on_c, 1, 66, 96
1, 8851, Note_off_c, 1, 81, 96
1, 8851, Note_off_c, 1, 78, 96
1, 8851, Note_off_c, 1, 66, 96
1, 8939, Note_on_c, 1, 78, 96
1, 8940, Note_off_c, 1, 78, 96
1, 8969, Note_on_c, 1, 50, 96
1, 8972, Note_off_c, 1, 50, 96
1, 8972, Note_on_c, 1, 54, 96
1, 8972, Note_on_c, 1, 59, 96
1, 8973, Note_off_c, 1, 54, 96
1, 8973, Note_off_c, 1, 59, 96
1, 8975, Note_on_c, 1, 83, 96
1, 8976, Note_off_c, 1, 83, 96
1, 8980, Note_on_c, 1, 88, 96
1, 8981, Note_off_c, 1, 88, 96
1, 9095, Note_on_c, 1, 59, 96
1, 9096, Note_off_c, 1, 59, 96
1, 9098, Note_on_c, 1, 62, 96
1, 9099, Note_off_c, 1, 62, 96
1, 9102, Note_on_c, 1, 55, 96
1, 9103, Note_off_c, 1, 55, 96
1, 9159, Note_on_c, 1, 79, 96
1, 9160, Note_off_c, 1, 79, 96
1, 9178, Note_on_c, 1, 83, 96
1, 9179, Note_off_c, 1, 83, 96
1, 9193, Note_on_c, 1, 78, 96
1, 9194, Note_off_c, 1, 78, 96
1, 9205, Note_on_c, 1, 38, 96
1, 9207, Note_off_c, 1, 38, 96
1, 9207, Note_on_c, 1, 50, 96
1, 9208, Note_off_c, 1, 50, 96
1, 9210, Note_on_c, 1, 86, 96
1, 9211, Note_off_c, 1, 86, 96
1, 9235, Note_on_c, 1, 83, 96
1, 9237, Note_off_c, 1, 83, 96
1, 9237, Note_on_c, 1, 71, 96
1, 9238, Note_off_c, 1, 71, 96
1, 9261, Note_on_c, 1, 62, 96
1, 9263, Note_off_c, 1, 62, 96
1, 9263, Note_on_c, 1, 50, 96
1, 9264, Note_off_c, 1, 50, 96
1, 9289, Note_on_c, 1, 89, 96
1, 9290, Note_off_c, 1, 89, 96
1, 9313, Note_on_c, 1, 90, 96
1, 9314, Note_off_c, 1, 90, 96
1, 9316, Note_on_c, 1, 38, 96
1, 9317, Note_off_c, 1, 38, 96
1, 9430, Note_on_c, 1, 81, 96
1, 9431, Note_off_c, 1, 81, 96
1, 9489, Note_on_c, 1, 66, 96
1, 9491, Note_off_c, 1, 66, 96
1, 9491, Note_on_c, 1, 86, 96
1, 9492, Note_off_c, 1, 86, 96
1, 9496, Note_on_c, 1, 74, 96
1, 9497, Note_off_c, 1, 74, 96
1, 9554, Note_on_c, 1, 62, 96
1, 9555, Note_off_c, 1, 62, 96
1, 9557, Note_on_c, 1, 81, 96
1, 9558, Note_off_c, 1, 81, 96
1, 9672, Note_on_c, 1, 50, 96
1, 9675, Note_off_c, 1, 50, 96
1, 9675, Note_on_c, 1, 74, 96
1, 9675, Note_on_c, 1, 77, 96
1, 9676, Note_off_c, 1, 74, 96
1, 9676, Note_off_c, 1, 77, 96
1, 9680, Note_on_c, 1, 68, 96
1, 9681, Note_off_c, 1, 68, 96
1, 9791, Note_on_c, 1, 62, 96
1, 9793, Note_off_c, 1, 62, 96
1, 9793, Note_on_c, 1, 50, 96
1, 9795, Note_off_c, 1, 50, 96
1, 9795, Note_on_c, 1, 74, 96
1, 9796, Note_off_c, 1, 74, 96
1, 9800, Note_on_c, 1, 79, 96
1, 9801, Note_off_c, 1, 79, 96
1, 9917, Note_on_c, 1, 55, 96
1, 9919, Note_off_c, 1, 55, 96
1, 9919, Note_on_c, 1, 59, 96
1, 9920, Note_off_c, 1, 59, 96
1, 9924, Note_on_c, 1, 71, 96
1, 9924, Note_on_c, 1, 65, 96
1, 9925, Note_off_c, 1, 71, 96
1, 9925, Note_off_c, 1, 65, 96
1, 9985, Note_on_c, 1, 76, 96
1, 9986, Note_off_c, 1, 76, 96
1, 10041, Note_on_c, 1, 77, 96
1, 10042, Note_off_c, 1, 77, 96
1, 10044, Note_on_c, 1, 43, 96
1, 10046, Note_off_c, 1, 43, 96
1, 10046, Note_on_c, 1, 74, 96
1, 10047, Note_off_c, 1, 74, 96
1, 10105, Note_on_c, 1, 71, 96
1, 10106, Note_off_c, 1, 71, 96
1, 10110, Note_on_c, 1, 81, 96
1, 10111, Note_off_c, 1, 81, 96
1, 10166, Note_on_c, 1, 45, 96
1, 10167, Note_off_c, 1, 45, 96
1, 10233, Note_on_c, 1, 71, 96
1, 10234, Note_off_c, 1, 71, 96
1, 10285, Note_on_c, 1, 55, 96
1, 10286, Note_off_c, 1, 55, 96
1, 10289, Note_on_c, 1, 79, 96
1, 10291, Note_off_c, 1, 79, 96
1, 10291, Note_on_c, 1, 59, 96
1, 10292, Note_off_c, 1, 59, 96
1, 10294, Note_on_c, 1, 65, 96
1, 10295, Note_off_c, 1, 65, 96
1, 10350, Note_on_c, 1, 71, 96
1, 10351, Note_off_c, 1, 71, 96
1, 10408, Note_on_c, 1, 55, 96
1, 10410, Note_off_c, 1, 55, 96
1, 10410, Note_on_c, 1, 71, 96
1, 10411, Note_off_c, 1, 71, 96
1, 10415, Note_on_c, 1, 65, 96
1, 10418, Note_off_c, 1, 65, 96
1, 10418, Note_on_c, 1, 74, 96
1, 10418, Note_on_c, 1, 59, 96
1, 10419, Note_off_c, 1, 74, 96
1, 10419, Note_off_c, 1, 59, 96
1, 10475, Note_on_c, 1, 74, 96
1, 10476, Note_off_c, 1, 74, 96
1, 10478, Note_on_c, 1, 71, 96
1, 10479, Note_off_c, 1, 71, 96
1, 10539, Note_on_c, 1, 55, 96
1, 10540, Note_off_c, 1, 55, 96
1, 10545, Note_on_c, 1, 50, 96
1, 10547, Note_off_c, 1, 50, 96
1, 10547, Note_on_c, 1, 59, 96
1, 10548, Note_off_c, 1, 59, 96
1, 10617, Note_on_c, 1, 59, 96
1, 10618, Note_off_c, 1, 59, 96
1, 10621, Note_on_c, 1, 74, 96
1, 10622, Note_off_c, 1, 74, 96
1, 10626, Note_on_c, 1, 45, 96
1, 10626, Note_on_c, 1, 50, 96
1, 10627, Note_off_c, 1, 45, 96
1, 10627, Note_off_c, 1, 50, 96
1, 10742, Note_on_c, 1, 38, 96
1, 10743, Note_off_c, 1, 38, 96
1, 10746, Note_on_c, 1, 71, 96
1, 10746, Note_on_c, 1, 67, 96
1, 10748, Note_off_c, 1, 71, 96
1, 10748, Note_off_c, 1, 67, 96
1, 10748, Note_on_c, 1, 50, 96
1, 10749, Note_off_c, 1, 50, 96
1, 10863, Note_on_c, 1, 55, 96
1, 10864, Note_off_c, 1, 55, 96
1, 10866, Note_on_c, 1, 43, 96
1, 10867, Note_off_c, 1, 43, 96
1, 10988, Note_on_c, 1, 69, 96
1, 10989, Note_off_c, 1, 69, 96
1, 11105, Note_on_c, 1, 50, 96
1, 11106, Note_off_c, 1, 50, 96
1, 11108, Note_on_c, 1, 78, 96
1, 11109, Note_off_c, 1, 78, 96
1, 11112, Note_on_c, 1, 74, 96
1, 11112, Note_on_c, 1, 69, 96
1, 11113, Note_off_c, 1, 74, 96
1, 11113, Note_off_c, 1, 69, 96
1, 11300, Note_on_c, 1, 59, 96
1, 11301, Note_off_c, 1, 59, 96
1, 11306, Note_on_c, 1, 75, 96
1, 11306, Note_on_c, 1, 71, 96
1, 11308, Note_off_c, 1, 75, 96
1, 11308, Note_off_c, 1, 71, 96
1, 11308, Note_on_c, 1, 66, 96
1, 11309, Note_off_c, 1, 66, 96
1, 11424, Note_on_c, 1, 76, 96
1, 11425, Note_off_c, 1, 76, 96
1, 11477, Note_on_c, 1, 59, 96
1, 11478, Note_off_c, 1, 59, 96
1, 11480, Note_on_c, 1, 55, 96
1, 11481, Note_off_c, 1, 55, 96
1, 11484, Note_on_c, 1, 78, 96
1, 11484, Note_on_c, 1, 50, 96
1, 11485, Note_off_c, 1, 78, 96
1, 11485, Note_off_c, 1, 50, 96
1, 11604, Note_on_c, 1, 64, 96
1, 11604, Note_on_c, 1, 38, 96
1, 11605, Note_off_c, 1, 64, 96
1, 11605, Note_off_c, 1, 38, 96
1, 11609, Note_on_c, 1, 71, 96
1, 11609, Note_on_c, 1, 66, 96
1, 11610, Note_off_c, 1, 71, 96
1, 11610, Note_off_c, 1, 66, 96
1, 11613, Note_on_c, 1, 50, 96
1, 11614, Note_off_c, 1, 50, 96
1, 11689, Note_on_c, 1, 76, 96
1, 11690, Note_off_c, 1, 76, 96
1, 11747, Note_on_c, 1, 53, 96
1, 11749, Note_off_c, 1, 53, 96
1, 11749, Note_on_c, 1, 59, 96
1, 11751, Note_off_c, 1, 59, 96
1, 11751, Note_on_c, 1, 65, 96
1, 11754, Note_off_c, 1, 65, 96
1, 11754, Note_on_c, 1, 67, 96
1, 11754, Note_on_c, 1, 55, 96
1, 11755, Note_off_c, 1, 67, 96
1, 11755, Note_off_c, 1, 55, 96
1, 11811, Note_on_c, 1, 73, 96
1, 11812, Note_off_c, 1, 73, 96
1, 11870, Note_on_c, 1, 59, 96
1, 11871, Note_off_c, 1, 59, 96
1, 11873, Note_on_c, 1, 62, 96
1, 11876, Note_off_c, 1, 62, 96
1, 11876, Note_on_c, 1, 53, 96
1, 11876, Note_on_c, 1, 55, 96
1, 11877, Note_off_c, 1, 53, 96
1, 11877, Note_off_c, 1, 55, 96
1, 11881, Note_on_c, 1, 76, 96
1, 11882, Note_off_c, 1, 76, 96
1, 12004, Note_on_c, 1, 71, 96
1, 12005, Note_off_c, 1, 71, 96
1, 12009, Note_on_c, 1, 67, 96
1, 12009, Note_on_c, 1, 52, 96
1, 12012, Note_off_c, 1, 67, 96
1, 12012, Note_off_c, 1, 52, 96
1, 12012, Note_on_c, 1, 65, 96
1, 12012, Note_on_c, 1, 59, 96
1, 12013, Note_off_c, 1, 65, 96
1, 12013, Note_off_c, 1, 59, 96
1, 12126, Note_on_c, 1, 59, 96
1, 12128, Note_off_c, 1, 59, 96
1, 12128, Note_on_c, 1, 55, 96
1, 12129, Note_off_c, 1, 55, 96
1, 12131, Note_on_c, 1, 65, 96
1, 12132, Note_off_c, 1, 65, 96
1, 12134, Note_on_c, 1, 62, 96
1, 12136, Note_off_c, 1, 62, 96
1, 12136, Note_on_c, 1, 71, 96
1, 12137, Note_off_c, 1, 71, 96
1, 12256, Note_on_c, 1, 71, 96
1, 12256, Note_on_c, 1, 67, 96
1, 12257, Note_off_c, 1, 71, 96
1, 12257, Note_off_c, 1, 67, 96
1, 12372, Note_on_c, 1, 69, 96
1, 12373, Note_off_c, 1, 69, 96
1, 12375, Note_on_c, 1, 65, 96
1, 12377, Note_off_c, 1, 65, 96
1, 12377, Note_on_c, 1, 53, 96
1, 12379, Note_off_c, 1, 53, 96
1, 12379, Note_on_c, 1, 74, 96
1, 12382, Note_off_c, 1, 74, 96
1, 12382, Note_on_c, 1, 59, 96
1, 12382, Note_on_c, 1, 55, 96
1, 12383, Note_off_c, 1, 59, 96
1, 12383, Note_off_c, 1, 55, 96
1, 12498, Note_on_c, 1, 63, 96
1, 12499, Note_off_c, 1, 63, 96
1, 12501, Note_on_c, 1, 75, 96
1, 12503, Note_off_c, 1, 75, 96
1, 12503, Note_on_c, 1, 57, 96
1, 12504, Note_off_c, 1, 57, 96
1, 12619, Note_on_c, 1, 72, 96
1, 12620, Note_off_c, 1, 72, 96
1, 12624, Note_on_c, 1, 60, 96
1, 12624, Note_on_c, 1, 67, 96
1, 12625, Note_off_c, 1, 60, 96
1, 12625, Note_off_c, 1, 67, 96
1, 12745, Note_on_c, 1, 82, 96
1, 12745, Note_on_c, 1, 74, 96
1, 12746, Note_off_c, 1, 82, 96
1, 12746, Note_off_c, 1, 74, 96
1, 12866, Note_on_c, 1, 86, 96
1, 12868, Note_off_c, 1, 86, 96
1, 12868, Note_on_c, 1, 75, 96
1, 12870, Note_off_c, 1, 75, 96
1, 12870, Note_on_c, 1, 57, 96
1, 12872, Note_off_c, 1, 57, 96
1, 12872, Note_on_c, 1, 60, 96
1, 12874, Note_off_c, 1, 60, 96
1, 12874, Note_on_c, 1, 65, 96
1, 12875, Note_off_c, 1, 65, 96
1, 12990, Note_on_c, 1, 57, 96
1, 12991, Note_off_c, 1, 57, 96
1, 12996, Note_on_c, 1, 60, 96
1, 12997, Note_off_c, 1, 60, 96
1, 13113, Note_on_c, 1, 58, 96
1, 13116, Note_off_c, 1, 58, 96
1, 13116, Note_on_c, 1, 82, 96
1, 13116, Note_on_c, 1, 43, 96
1, 13118, Note_off_c, 1, 82, 96
1, 13118, Note_off_c, 1, 43, 96
1, 13118, Note_on_c, 1, 76, 96
1, 13119, Note_off_c, 1, 76, 96
1, 13122, Note_on_c, 1, 67, 96
1, 13124, Note_off_c, 1, 67, 96
1, 13124, Note_on_c, 1, 79, 96
1, 13126, Note_off_c, 1, 79, 96
1, 13126, Note_on_c, 1, 70, 96
1, 13127, Note_off_c, 1, 70, 96
1, 13179, Note_on_c, 1, 72, 96
1, 13180, Note_off_c, 1, 72, 96
1, 13242, Note_on_c, 1, 70, 96
1, 13244, Note_off_c, 1, 70, 96
1, 13244, Note_on_c, 1, 79, 96
1, 13246, Note_off_c, 1, 79, 96
1, 13246, Note_on_c, 1, 41, 96
1, 13248, Note_off_c, 1, 41, 96
1, 13248, Note_on_c, 1, 53, 96
1, 13249, Note_off_c, 1, 53, 96
1, 13304, Note_on_c, 1, 77, 96
1, 13304, Note_on_c, 1, 74, 96
1, 13305, Note_off_c, 1, 77, 96
1, 13305, Note_off_c, 1, 74, 96
1, 13308, Note_on_c, 1, 70, 96
1, 13310, Note_off_c, 1, 70, 96
1, 13310, Note_on_c, 1, 65, 96
1, 13311, Note_off_c, 1, 65, 96
1, 13372, Note_on_c, 1, 40, 96
1, 13372, Note_on_c, 1, 52, 96
1, 13373, Note_off_c, 1, 40, 96
1, 13373, Note_off_c, 1, 52, 96
1, 13431, Note_on_c, 1, 76, 96
1, 13432, Note_off_c, 1, 76, 96
1, 13494, Note_on_c, 1, 72, 96
1, 13494, Note_on_c, 1, 77, 96
1, 13495, Note_off_c, 1, 72, 96
1, 13495, Note_off_c, 1, 77, 96
1, 13498, Note_on_c, 1, 69, 96
1, 13498, Note_on_c, 1, 53, 96
1, 13499, Note_off_c, 1, 69, 96
1, 13499, Note_off_c, 1, 53, 96
1, 13560, Note_on_c, 1, 76, 96
1, 13561, Note_off_c, 1, 76, 96
1, 13617, Note_on_c, 1, 74, 96
1, 13618, Note_off_c, 1, 74, 96
1, 13620, Note_on_c, 1, 57, 96
1, 13622, Note_off_c, 1, 57, 96
1, 13622, Note_on_c, 1, 60, 96
1, 13624, Note_off_c, 1, 60, 96
1, 13624, Note_on_c, 1, 65, 96
1, 13625, Note_off_c, 1, 65, 96
1, 13683, Note_on_c, 1, 72, 96
1, 13684, Note_off_c, 1, 72, 96
1, 13744, Note_on_c, 1, 76, 96
1, 13744, Note_on_c, 1, 60, 96
1, 13744, Note_on_c, 1, 48, 96
1, 13745, Note_off_c, 1, 76, 96
1, 13745, Note_off_c, 1, 60, 96
1, 13745, Note_off_c, 1, 48, 96
1, 13803, Note_on_c, 1, 78, 96
1, 13804, Note_off_c, 1, 78, 96
1, 13867, Note_on_c, 1, 50, 96
1, 13868, Note_off_c, 1, 50, 96
1, 13870, Note_on_c, 1, 81, 96
1, 13872, Note_off_c, 1, 81, 96
1, 13872, Note_on_c, 1, 71, 96
1, 13873, Note_off_c, 1, 71, 96
1, 13927, Note_on_c, 1, 86, 96
1, 13928, Note_off_c, 1, 86, 96
1, 13989, Note_on_c, 1, 86, 96
1, 13990, Note_off_c, 1, 86, 96
1, 13993, Note_on_c, 1, 76, 96
1, 13994, Note_off_c, 1, 76, 96
1, 13996, Note_on_c, 1, 45, 96
1, 13997, Note_off_c, 1, 45, 96
1, 14116, Note_on_c, 1, 43, 96
1, 14116, Note_on_c, 1, 55, 96
1, 14117, Note_off_c, 1, 43, 96
1, 14117, Note_off_c, 1, 55, 96
1, 14120, Note_on_c, 1, 74, 96
1, 14121, Note_off_c, 1, 74, 96
1, 14179, Note_on_c, 1, 79, 96
1, 14180, Note_off_c, 1, 79, 96
1, 14236, Note_on_c, 1, 59, 96
1, 14237, Note_off_c, 1, 59, 96
1, 14239, Note_on_c, 1, 79, 96
1, 14241, Note_off_c, 1, 79, 96
1, 14241, Note_on_c, 1, 55, 96
1, 14242, Note_off_c, 1, 55, 96
1, 14244, Note_on_c, 1, 65, 96
1, 14245, Note_off_c, 1, 65, 96
1, 14303, Note_on_c, 1, 79, 96
1, 14303, Note_on_c, 1, 74, 96
1, 14304, Note_off_c, 1, 79, 96
1, 14304, Note_off_c, 1, 74, 96
1, 14307, Note_on_c, 1, 67, 96
1, 14308, Note_off_c, 1, 67, 96
1, 14310, Note_on_c, 1, 71, 96
1, 14311, Note_off_c, 1, 71, 96
1, 14366, Note_on_c, 1, 43, 96
1, 14367, Note_off_c, 1, 43, 96
1, 14423, Note_on_c, 1, 78, 96
1, 14424, Note_off_c, 1, 78, 96
1, 14485, Note_on_c, 1, 83, 96
1, 14488, Note_off_c, 1, 83, 96
1, 14488, Note_on_c, 1, 79, 96
1, 14488, Note_on_c, 1, 43, 96
1, 14489, Note_off_c, 1, 79, 96
1, 14489, Note_off_c, 1, 43, 96
1, 14539, Note_on_c, 1, 49, 96
1, 14540, Note_off_c, 1, 49, 96
1, 14543, Note_on_c, 1, 71, 96
1, 14543, Note_on_c, 1, 43, 96
1, 14546, Note_off_c, 1, 71, 96
1, 14546, Note_off_c, 1, 43, 96
1, 14546, Note_on_c, 1, 75, 96
1, 14546, Note_on_c, 1, 77, 96
1, 14547, Note_off_c, 1, 75, 96
1, 14547, Note_off_c, 1, 77, 96
1, 14662, Note_on_c, 1, 43, 96
1, 14663, Note_off_c, 1, 43, 96
1, 14665, Note_on_c, 1, 55, 96
1, 14666, Note_off_c, 1, 55, 96
1, 14785, Note_on_c, 1, 37, 96
1, 14787, Note_off_c, 1, 37, 96
1, 14787, Note_on_c, 1, 49, 96
1, 14788, Note_off_c, 1, 49, 96
1, 14910, Note_on_c, 1, 45, 96
1, 14910, Note_on_c, 1, 33, 96
1, 14911, Note_off_c, 1, 45, 96
1, 14911, Note_off_c, 1, 33, 96
1, 15027, Note_on_c, 1, 79, 96
1, 15028, Note_off_c, 1, 79, 96
1, 15031, Note_on_c, 1, 66, 96
1, 15031, Note_on_c, 1, 34, 96
1, 15033, Note_off_c, 1, 66, 96
1, 15033, Note_off_c, 1, 34, 96
1, 15033, Note_on_c, 1, 72, 96
1, 15034, Note_off_c, 1, 72, 96
1, 15152, Note_on_c, 1, 41, 96
1, 15153, Note_off_c, 1, 41, 96
1, 15156, Note_on_c, 1, 70, 96
1, 15157, Note_off_c, 1, 70, 96
1, 15272, Note_on_c, 1, 70, 96
1, 15273, Note_off_c, 1, 70, 96
1, 15275, Note_on_c, 1, 41, 96
1, 15276, Note_off_c, 1, 41, 96
1, 15393, Note_on_c, 1, 67, 96
1, 15394, Note_off_c, 1, 67, 96
1, 15398, Note_on_c, 1, 70, 96
1, 15399, Note_off_c, 1, 70, 96
1, 15513, Note_on_c, 1, 71, 96
1, 15513, Note_on_c, 1, 74, 96
1, 15514, Note_off_c, 1, 71, 96
1, 15514, Note_off_c, 1, 74, 96
1, 15516, Note_on_c, 1, 49, 96
1, 15518, Note_off_c, 1, 49, 96
1, 15518, Note_on_c, 1, 68, 96
1, 15519, Note_off_c, 1, 68, 96
1, 15634, Note_on_c, 1, 60, 96
1, 15635, Note_off_c, 1, 60, 96
1, 15637, Note_on_c, 1, 63, 96
1, 15638, Note_off_c, 1, 63, 96
1, 15641, Note_on_c, 1, 75, 96
1, 15641, Note_on_c, 1, 53, 96
1, 15642, Note_off_c, 1, 75, 96
1, 15642, Note_off_c, 1, 53, 96
1, 15645, Note_on_c, 1, 57, 96
1, 15646, Note_off_c, 1, 57, 96
1, 15759, Note_on_c, 1, 70, 96
1, 15760, Note_off_c, 1, 70, 96
1, 15764, Note_on_c, 1, 62, 96
1, 15766, Note_off_c, 1, 62, 96
1, 15766, Note_on_c, 1, 46, 96
1, 15767, Note_off_c, 1, 46, 96
1, 15826, Note_on_c, 1, 69, 96
1, 15827, Note_off_c, 1, 69, 96
1, 15830, Note_on_c, 1, 62, 96
1, 15831, Note_off_c, 1, 62, 96
1, 15890, Note_on_c, 1, 46, 96
1, 15891, Note_off_c, 1, 46, 96
1, 15893, Note_on_c, 1, 65, 96
1, 15894, Note_off_c, 1, 65, 96
1, 15952, Note_on_c, 1, 70, 96
1, 15953, Note_off_c, 1, 70, 96
1, 16013, Note_on_c, 1, 67, 96
1, 16013, Note_on_c, 1, 55, 96
1, 16014, Note_off_c, 1, 67, 96
1, 16014, Note_off_c, 1, 55, 96
1, 16017, Note_on_c, 1, 58, 96
1, 16017, Note_on_c, 1, 62, 96
1, 16018, Note_off_c, 1, 58, 96
1, 16018, Note_off_c, 1, 62, 96
1, 16077, Note_on_c, 1, 74, 96
1, 16078, Note_off_c, 1, 74, 96
1, 16080, Note_on_c, 1, 77, 96
1, 16081, Note_off_c, 1, 77, 96
1, 16139, Note_on_c, 1, 58, 96
1, 16139, Note_on_c, 1, 53, 96
1, 16140, Note_off_c, 1, 58, 96
1, 16140, Note_off_c, 1, 53, 96
1, 16143, Note_on_c, 1, 50, 96
1, 16144, Note_off_c, 1, 50, 96
1, 16262, Note_on_c, 1, 55, 96
1, 16262, Note_on_c, 1, 62, 96
1, 16264, Note_off_c, 1, 55, 96
1, 16264, Note_off_c, 1, 62, 96
1, 16264, Note_on_c, 1, 58, 96
1, 16266, Note_off_c, 1, 58, 96
1, 16266, Note_on_c, 1, 72, 96
1, 16267, Note_off_c, 1, 72, 96
1, 16382, Note_on_c, 1, 62, 96
1, 16384, Note_off_c, 1, 62, 96
1, 16384, Note_on_c, 1, 53, 96
1, 16386, Note_off_c, 1, 53, 96
1, 16386, Note_on_c, 1, 46, 96
1, 16387, Note_off_c, 1, 46, 96
1, 16390, Note_on_c, 1, 74, 96
1, 16391, Note_off_c, 1, 74, 96
1, 16446, Note_on_c, 1, 67, 96
1, 16447, Note_off_c, 1, 67, 96
1, 16451, Note_on_c, 1, 74, 96
1, 16452, Note_off_c, 1, 74, 96
1, 16510, Note_on_c, 1, 65, 96
1, 16511, Note_off_c, 1, 65, 96
1, 16515, Note_on_c, 1, 58, 96
1, 16515, Note_on_c, 1, 62, 96
1, 16517, Note_off_c, 1, 58, 96
1, 16517, Note_off_c, 1, 62, 96
1, 16517, Note_on_c, 1, 77, 96
1, 16518, Note_off_c, 1, 77, 96
1, 16634, Note_on_c, 1, 44, 96
1, 16636, Note_off_c, 1, 44, 96
1, 16636, Note_on_c, 1, 56, 96
1, 16637, Note_off_c, 1, 56, 96
1, 16753, Note_on_c, 1, 73, 96
1, 16754, Note_off_c, 1, 73, 96
1, 16757, Note_on_c, 1, 48, 96
1, 16758, Note_off_c, 1, 48, 96
1, 16872, Note_on_c, 1, 71, 96
1, 16873, Note_off_c, 1, 71, 96
1, 16877, Note_on_c, 1, 67, 96
1, 16877, Note_on_c, 1, 62, 96
1, 16879, Note_off_c, 1, 67, 96
1, 16879, Note_off_c, 1, 62, 96
1, 16879, Note_on_c, 1, 49, 96
1, 16880, Note_off_c, 1, 49, 96
1, 17000, Note_on_c, 1, 48, 96
1, 17001, Note_off_c, 1, 48, 96
1, 17119, Note_on_c, 1, 67, 96
1, 17120, Note_off_c, 1, 67, 96
1, 17123, Note_on_c, 1, 62, 96
1, 17124, Note_off_c, 1, 62, 96
1, 17242, Note_on_c, 1, 66, 96
1, 17243, Note_off_c, 1, 66, 96
1, 17359, Note_on_c, 1, 64, 96
1, 17360, Note_off_c, 1, 64, 96
1, 17481, Note_on_c, 1, 50, 96
1, 17483, Note_off_c, 1, 50, 96
1, 17483, Note_on_c, 1, 64, 96
1, 17484, Note_off_c, 1, 64, 96
1, 17712, Note_on_c, 1, 64, 96
1, 17713, Note_off_c, 1, 64, 96
1, 18069, Note_on_c, 1, 50, 96
1, 18071, Note_off_c, 1, 50, 96
1, 18071, Note_on_c, 1, 69, 96
1, 18072, Note_off_c, 1, 69, 96
1, 18074, Note_on_c, 1, 53, 96
1, 18075, Note_off_c, 1, 53, 96
1, 18078, Note_on_c, 1, 59, 96
1, 18079, Note_off_c, 1, 59, 96
1, 18201, Note_on_c, 1, 74, 96
1, 18202, Note_off_c, 1, 74, 96
1, 18318, Note_on_c, 1, 62, 96
1, 18319, Note_off_c, 1, 62, 96
1, 18322, Note_on_c, 1, 67, 96
1, 18322, Note_on_c, 1, 55, 96
1, 18324, Note_off_c, 1, 67, 96
1, 18324, Note_off_c, 1, 55, 96
1, 18324, Note_on_c, 1, 59, 96
1, 18325, Note_off_c, 1, 59, 96
1, 18440, Note_on_c, 1, 66, 96
1, 18441, Note_off_c, 1, 66, 96
1, 18445, Note_on_c, 1, 60, 96
1, 18446, Note_off_c, 1, 60, 96
1, 18562, Note_on_c, 1, 66, 96
1, 18562, Note_on_c, 1, 54, 96
1, 18563, Note_off_c, 1, 66, 96
1, 18563, Note_off_c, 1, 54, 96
1, 18619, Note_on_c, 1, 64, 96
1, 18620, Note_off_c, 1, 64, 96
1, 18622, Note_on_c, 1, 43, 96
1, 18623, Note_off_c, 1, 43, 96
1, 18738, Note_on_c, 1, 59, 96
1, 18739, Note_off_c, 1, 59, 96
1, 18742, Note_on_c, 1, 71, 96
1, 18744, Note_off_c, 1, 71, 96
1, 18744, Note_on_c, 1, 67, 96
1, 18746, Note_off_c, 1, 67, 96
1, 18746, Note_on_c, 1, 55, 96
1, 18747, Note_off_c, 1, 55, 96
1, 18749, Note_on_c, 1, 50, 96
1, 18750, Note_off_c, 1, 50, 96
1, 18863, Note_on_c, 1, 67, 96
1, 18866, Note_off_c, 1, 67, 96
1, 18866, Note_on_c, 1, 71, 96
1, 18866, Note_on_c, 1, 55, 96
1, 18867, Note_off_c, 1, 71, 96
1, 18867, Note_off_c, 1, 55, 96
1, 18871, Note_on_c, 1, 59, 96
1, 18873, Note_off_c, 1, 59, 96
1, 18873, Note_on_c, 1, 65, 96
1, 18874, Note_off_c, 1, 65, 96
1, 18992, Note_on_c, 1, 38, 96
1, 18993, Note_off_c, 1, 38, 96
1, 19110, Note_on_c, 1, 64, 96
1, 19111, Note_off_c, 1, 64, 96
1, 19117, Note_on_c, 1, 55, 96
1, 19117, Note_on_c, 1, 50, 96
1, 19119, Note_off_c, 1, 55, 96
1, 19119, Note_off_c, 1, 50, 96
1, 19119, Note_on_c, 1, 60, 96
1, 19120, Note_off_c, 1, 60, 96
1, 19235, Note_on_c, 1, 66, 96
1, 19236, Note_off_c, 1, 66, 96
1, 19239, Note_on_c, 1, 62, 96
1, 19239, Note_on_c, 1, 57, 96
1, 19240, Note_off_c, 1, 62, 96
1, 19240, Note_off_c, 1, 57, 96
1, 19297, Note_on_c, 1, 67, 96
1, 19299, Note_off_c, 1, 67, 96
1, 19299, Note_on_c, 1, 64, 96
1, 19300, Note_off_c, 1, 64, 96
1, 19302, Note_on_c, 1, 71, 96
1, 19303, Note_off_c, 1, 71, 96
1, 19305, Note_on_c, 1, 76, 96
1, 19306, Note_off_c, 1, 76, 96
1, 19358, Note_on_c, 1, 43, 96
1, 19359, Note_off_c, 1, 43, 96
1, 19478, Note_on_c, 1, 42, 96
1, 19480, Note_off_c, 1, 42, 96
1, 19480, Note_on_c, 1, 64, 96
1, 19482, Note_off_c, 1, 64, 96
1, 19482, Note_on_c, 1, 54, 96
1, 19484, Note_off_c, 1, 54, 96
1, 19484, Note_on_c, 1, 76, 96
1, 19486, Note_off_c, 1, 76, 96
1, 19486, Note_on_c, 1, 71, 96
1, 19487, Note_off_c, 1, 71, 96
1, 19489, Note_on_c, 1, 66, 96
1, 19490, Note_off_c, 1, 66, 96
1, 19608, Note_on_c, 1, 72, 96
1, 19608, Note_on_c, 1, 64, 96
1, 19610, Note_off_c, 1, 72, 96
1, 19610, Note_off_c, 1, 64, 96
1, 19610, Note_on_c, 1, 60, 96
1, 19611, Note_off_c, 1, 60, 96
1, 19724, Note_on_c, 1, 75, 96
1, 19725, Note_off_c, 1, 75, 96
1, 19729, Note_on_c, 1, 70, 96
1, 19729, Note_on_c, 1, 43, 96
1, 19729, Note_on_c, 1, 55, 96
1, 19730, Note_off_c, 1, 70, 96
1, 19730, Note_off_c, 1, 43, 96
1, 19730, Note_off_c, 1, 55, 96
1, 19732, Note_on_c, 1, 81, 96
1, 19733, Note_off_c, 1, 81, 96
1, 19851, Note_on_c, 1, 40, 96
1, 19851, Note_on_c, 1, 52, 96
1, 19852, Note_off_c, 1, 40, 96
1, 19852, Note_off_c, 1, 52, 96
1, 19856, Note_on_c, 1, 71, 96
1, 19856, Note_on_c, 1, 83, 96
1, 19856, Note_on_c, 1, 76, 96
1, 19857, Note_off_c, 1, 71, 96
1, 19857, Note_off_c, 1, 83, 96
1, 19857, Note_off_c, 1, 76, 96
1, 19860, Note_on_c, 1, 79, 96
1, 19861, Note_off_c, 1, 79, 96
1, 19976, Note_on_c, 1, 40, 96
1, 19976, Note_on_c, 1, 52, 96
1, 19977, Note_off_c, 1, 40, 96
1, 19977, Note_off_c, 1, 52, 96
1, 19980, Note_on_c, 1, 76, 96
1, 19981, Note_off_c, 1, 76, 96
1, 19986, Note_on_c, 1, 71, 96
1, 19986, Note_on_c, 1, 79, 96
1, 19986, Note_on_c, 1, 83, 96
1, 19987, Note_off_c, 1, 71, 96
1, 19987, Note_off_c, 1, 79, 96
1, 19987, Note_off_c, 1, 83, 96
1, 20101, Note_on_c, 1, 72, 96
1, 20103, Note_off_c, 1, 72, 96
1, 20103, Note_on_c, 1, 79, 96
1, 20105, Note_off_c, 1, 79, 96
1, 20105, Note_on_c, 1, 64, 96
1, 20107, Note_off_c, 1, 64, 96
1, 20107, Note_on_c, 1, 60, 96
1, 20108, Note_off_c, 1, 60, 96
1, 20223, Note_on_c, 1, 64, 96
1, 20224, Note_off_c, 1, 64, 96
1, 20226, Note_on_c, 1, 55, 96
1, 20228, Note_off_c, 1, 55, 96
1, 20228, Note_on_c, 1, 84, 96
1, 20229, Note_off_c, 1, 84, 96
1, 20234, Note_on_c, 1, 76, 96
1, 20234, Note_on_c, 1, 72, 96
1, 20236, Note_off_c, 1, 76, 96
1, 20236, Note_off_c, 1, 72, 96
1, 20236, Note_on_c, 1, 60, 96
1, 20237, Note_off_c, 1, 60, 96
1, 20349, Note_on_c, 1, 43, 96
1, 20350, Note_off_c, 1, 43, 96
1, 20355, Note_on_c, 1, 76, 96
1, 20356, Note_off_c, 1, 76, 96
1, 20470, Note_on_c, 1, 60, 96
1, 20471, Note_off_c, 1, 60, 96
1, 20473, Note_on_c, 1, 55, 96
1, 20474, Note_off_c, 1, 55, 96
1, 20476, Note_on_c, 1, 74, 96
1, 20477, Note_off_c, 1, 74, 96
1, 20479, Note_on_c, 1, 64, 96
1, 20480, Note_off_c, 1, 64, 96
1, 20592, Note_on_c, 1, 76, 96
1, 20593, Note_off_c, 1, 76, 96
1, 20596, Note_on_c, 1, 79, 96
1, 20597, Note_off_c, 1, 79, 96
1, 20599, Note_on_c, 1, 52, 96
1, 20600, Note_off_c, 1, 52, 96
1, 20655, Note_on_c, 1, 74, 96
1, 20656, Note_off_c, 1, 74, 96
1, 20714, Note_on_c, 1, 43, 96
1, 20715, Note_off_c, 1, 43, 96
1, 20721, Note_on_c, 1, 76, 96
1, 20722, Note_off_c, 1, 76, 96
1, 20776, Note_on_c, 1, 76, 96
1, 20777, Note_off_c, 1, 76, 96
1, 20838, Note_on_c, 1, 79, 96
1, 20840, Note_off_c, 1, 79, 96
1, 20840, Note_on_c, 1, 48, 96
1, 20841, Note_off_c, 1, 48, 96
1, 20960, Note_on_c, 1, 64, 96
1, 20962, Note_off_c, 1, 64, 96
1, 20962, Note_on_c, 1, 71, 96
1, 20963, Note_off_c, 1, 71, 96
1, 20965, Note_on_c, 1, 43, 96
1, 20966, Note_off_c, 1, 43, 96
1, 20968, Note_on_c, 1, 76, 96
1, 20969, Note_off_c, 1, 76, 96
1, 21084, Note_on_c, 1, 67, 96
1, 21085, Note_off_c, 1, 67, 96
1, 21088, Note_on_c, 1, 60, 96
1, 21090, Note_off_c, 1, 60, 96
1, 21090, Note_on_c, 1, 75, 96
1, 21092, Note_off_c, 1, 75, 96
1, 21092, Note_on_c, 1, 55, 96
1, 21093, Note_off_c, 1, 55, 96
1, 21095, Note_on_c, 1, 64, 96
1, 21097, Note_off_c, 1, 64, 96
1, 21097, Note_on_c, 1, 52, 96
1, 21098, Note_off_c, 1, 52, 96
1, 21211, Note_on_c, 1, 72, 96
1, 21212, Note_off_c, 1, 72, 96
1, 21216, Note_on_c, 1, 43, 96
1, 21217, Note_off_c, 1, 43, 96
1, 21272, Note_on_c, 1, 74, 96
1, 21273, Note_off_c, 1, 74, 96
1, 21333, Note_on_c, 1, 53, 96
1, 21334, Note_off_c, 1, 53, 96
1, 21338, Note_on_c, 1, 74, 96
1, 21338, Note_on_c, 1, 55, 96
1, 21340, Note_off_c, 1, 74, 96
1, 21340, Note_off_c, 1, 55, 96
1, 21340, Note_on_c, 1, 59, 96
1, 21341, Note_off_c, 1, 59, 96
1, 21397, Note_on_c, 1, 71, 96
1, 21398, Note_off_c, 1, 71, 96
1, 21400, Note_on_c, 1, 79, 96
1, 21401, Note_off_c, 1, 79, 96
1, 21464, Note_on_c, 1, 43, 96
1, 21465, Note_off_c, 1, 43, 96
1, 21581, Note_on_c, 1, 62, 96
1, 21581, Note_on_c, 1, 59, 96
1, 21585, Note_off_c, 1, 62, 96
1, 21585, Note_off_c, 1, 59, 96
1, 21585, Note_on_c, 1, 65, 96
1, 21585, Note_on_c, 1, 71, 96
1, 21585, Note_on_c, 1, 81, 96
1, 21587, Note_off_c, 1, 65, 96
1, 21587, Note_off_c, 1, 71, 96
1, 21587, Note_off_c, 1, 81, 96
1, 21587, Note_on_c, 1, 55, 96
1, 21589, Note_off_c, 1, 55, 96
1, 21589, Note_on_c, 1, 77, 96
1, 21590, Note_off_c, 1, 77, 96
1, 21592, Note_on_c, 1, 69, 96
1, 21593, Note_off_c, 1, 69, 96
1, 21708, Note_on_c, 1, 71, 96
1, 21709, Note_off_c, 1, 71, 96
1, 21714, Note_on_c, 1, 53, 96
1, 21714, Note_on_c, 1, 59, 96
1, 21714, Note_on_c, 1, 55, 96
1, 21716, Note_off_c, 1, 53, 96
1, 21716, Note_off_c, 1, 59, 96
1, 21716, Note_off_c, 1, 55, 96
1, 21716, Note_on_c, 1, 79, 96
1, 21717, Note_off_c, 1, 79, 96
1, 21955, Note_on_c, 1, 67, 96
1, 21955, Note_on_c, 1, 64, 96
1, 21955, Note_on_c, 1, 72, 96
1, 21955, Note_on_c, 1, 48, 96
1, 21956, Note_off_c, 1, 67, 96
1, 21956, Note_off_c, 1, 64, 96
1, 21956, Note_off_c, 1, 72, 96
1, 21956, Note_off_c, 1, 48, 96
1, 21958, Note_on_c, 1, 60, 96
1, 21959, Note_off_c, 1, 60, 96
1, 22022, Note_on_c, 1, 69, 96
1, 22023, Note_off_c, 1, 69, 96
1, 22079, Note_on_c, 1, 72, 96
1, 22082, Note_off_c, 1, 72, 96
1, 22082, Note_on_c, 1, 64, 96
1, 22082, Note_on_c, 1, 52, 96
1, 22083, Note_off_c, 1, 64, 96
1, 22083, Note_off_c, 1, 52, 96
1, 22201, Note_on_c, 1, 77, 96
1, 22202, Note_off_c, 1, 77, 96
1, 22262, Note_on_c, 1, 76, 96
1, 22263, Note_off_c, 1, 76, 96
1, 22440, Note_on_c, 1, 72, 96
1, 22442, Note_off_c, 1, 72, 96
1, 22442, Note_on_c, 1, 84, 96
1, 22444, Note_off_c, 1, 84, 96
1, 22444, Note_on_c, 1, 36, 96
1, 22446, Note_off_c, 1, 36, 96
1, 22446, Note_on_c, 1, 84, 96
1, 22448, Note_off_c, 1, 84, 96
1, 22448, Note_on_c, 1, 48, 96
1, 22449, Note_off_c, 1, 48, 96
1, 22514, Note_on_c, 1, 84, 96
1, 22515, Note_off_c, 1, 84, 96
1, 22642, Note_on_c, 1, 64, 96
1, 22642, Note_on_c, 1, 60, 96
1, 22644, Note_off_c, 1, 64, 96
1, 22644, Note_off_c, 1, 60, 96
1, 22644, Note_on_c, 1, 75, 96
1, 22646, Note_off_c, 1, 75, 96
1, 22646, Note_on_c, 1, 55, 96
1, 22647, Note_off_c, 1, 55, 96
1, 22707, Note_on_c, 1, 76, 96
1, 22708, Note_off_c, 1, 76, 96
1, 22764, Note_on_c, 1, 79, 96
1, 22764, Note_on_c, 1, 64, 96
1, 22766, Note_off_c, 1, 79, 96
1, 22766, Note_off_c, 1, 64, 96
1, 22766, Note_on_c, 1, 58, 96
1, 22767, Note_off_c, 1, 58, 96
1, 22770, Note_on_c, 1, 60, 96
1, 22771, Note_off_c, 1, 60, 96
1, 22828, Note_on_c, 1, 72, 96
1, 22829, Note_off_c, 1, 72, 96
1, 22885, Note_on_c, 1, 60, 96
1, 22886, Note_off_c, 1, 60, 96
1, 22888, Note_on_c, 1, 58, 96
1, 22890, Note_off_c, 1, 58, 96
1, 22890, Note_on_c, 1, 70, 96
1, 22891, Note_off_c, 1, 70, 96
1, 22894, Note_on_c, 1, 81, 96
1, 22895, Note_off_c, 1, 81, 96
1, 22897, Note_on_c, 1, 64, 96
1, 22898, Note_off_c, 1, 64, 96
1, 22957, Note_on_c, 1, 76, 96
1, 22958, Note_off_c, 1, 76, 96
1, 23014, Note_on_c, 1, 69, 96
1, 23015, Note_off_c, 1, 69, 96
1, 23017, Note_on_c, 1, 53, 96
1, 23019, Note_off_c, 1, 53, 96
1, 23019, Note_on_c, 1, 82, 96
1, 23020, Note_off_c, 1, 82, 96
1, 23022, Note_on_c, 1, 41, 96
1, 23023, Note_off_c, 1, 41, 96
1, 23141, Note_on_c, 1, 77, 96
1, 23142, Note_off_c, 1, 77, 96
1, 23196, Note_on_c, 1, 69, 96
1, 23197, Note_off_c, 1, 69, 96
1, 23256, Note_on_c, 1, 72, 96
1, 23257, Note_off_c, 1, 72, 96
1, 23261, Note_on_c, 1, 69, 96
1, 23262, Note_off_c, 1, 69, 96
1, 23324, Note_on_c, 1, 72, 96
1, 23325, Note_off_c, 1, 72, 96
1, 23383, Note_on_c, 1, 81, 96
1, 23384, Note_off_c, 1, 81, 96
1, 23448, Note_on_c, 1, 76, 96
1, 23449, Note_off_c, 1, 76, 96
1, 23510, Note_on_c, 1, 43, 96
1, 23510, Note_on_c, 1, 55, 96
1, 23511, Note_off_c, 1, 43, 96
1, 23511, Note_off_c, 1, 55, 96
1, 23566, Note_on_c, 1, 71, 96
1, 23567, Note_off_c, 1, 71, 96
1, 23571, Note_on_c, 1, 78, 96
1, 23572, Note_off_c, 1, 78, 96
1, 23629, Note_on_c, 1, 64, 96
1, 23630, Note_off_c, 1, 64, 96
1, 23632, Note_on_c, 1, 79, 96
1, 23634, Note_off_c, 1, 79, 96
1, 23634, Note_on_c, 1, 60, 96
1, 23637, Note_off_c, 1, 60, 96
1, 23637, Note_on_c, 1, 72, 96
1, 23637, Note_on_c, 1, 55, 96
1, 23638, Note_off_c, 1, 72, 96
1, 23638, Note_off_c, 1, 55, 96
1, 23757, Note_on_c, 1, 43, 96
1, 23758, Note_off_c, 1, 43, 96
1, 23874, Note_on_c, 1, 67, 96
1, 23877, Note_off_c, 1, 67, 96
1, 23877, Note_on_c, 1, 52, 96
1, 23877, Note_on_c, 1, 55, 96
1, 23879, Note_off_c, 1, 52, 96
1, 23879, Note_off_c, 1, 55, 96
1, 23879, Note_on_c, 1, 60, 96
1, 23880, Note_off_c, 1, 60, 96
1, 24000, Note_on_c, 1, 43, 96
1, 24001, Note_off_c, 1, 43, 96
1, 24117, Note_on_c, 1, 45, 96
1, 24118, Note_off_c, 1, 45, 96
1, 24120, Note_on_c, 1, 57, 96
1, 24121, Note_off_c, 1, 57, 96
1, 24124, Note_on_c, 1, 69, 96
1, 24124, Note_on_c, 1, 60, 96
1, 24125, Note_off_c, 1, 69, 96
1, 24125, Note_off_c, 1, 60, 96
1, 24190, Note_on_c, 1, 74, 96
1, 24191, Note_off_c, 1, 74, 96
1, 24244, Note_on_c, 1, 50, 96
1, 24245, Note_off_c, 1, 50, 96
1, 24247, Note_on_c, 1, 54, 96
1, 24248, Note_off_c, 1, 54, 96
1, 24250, Note_on_c, 1, 72, 96
1, 24251, Note_off_c, 1, 72, 96
1, 24253, Note_on_c, 1, 60, 96
1, 24254, Note_off_c, 1, 60, 96
1, 24310, Note_on_c, 1, 79, 96
1, 24311, Note_off_c, 1, 79, 96
1, 24371, Note_on_c, 1, 67, 96
1, 24371, Note_on_c, 1, 48, 96
1, 24373, Note_off_c, 1, 67, 96
1, 24373, Note_off_c, 1, 48, 96
1, 24373, Note_on_c, 1, 76, 96
1, 24374, Note_off_c, 1, 76, 96
1, 24380, Note_on_c, 1, 52, 96
1, 24381, Note_off_c, 1, 52, 96
1, 24437, Note_on_c, 1, 74, 96
1, 24438, Note_off_c, 1, 74, 96
1, 24498, Note_on_c, 1, 50, 96
1, 24498, Note_on_c, 1, 62, 96
1, 24499, Note_off_c, 1, 50, 96
1, 24499, Note_off_c, 1, 62, 96
1, 24501, Note_on_c, 1, 60, 96
1, 24502, Note_off_c, 1, 60, 96
1, 24559, Note_on_c, 1, 74, 96
1, 24560, Note_off_c, 1, 74, 96
1, 24619, Note_on_c, 1, 55, 96
1, 24619, Note_on_c, 1, 59, 96
1, 24620, Note_off_c, 1, 55, 96
1, 24620, Note_off_c, 1, 59, 96
1, 24623, Note_on_c, 1, 79, 96
1, 24624, Note_off_c, 1, 79, 96
1, 24683, Note_on_c, 1, 59, 96
1, 24684, Note_off_c, 1, 59, 96
1, 24687, Note_on_c, 1, 79, 96
1, 24688, Note_off_c, 1, 79, 96
1, 24690, Note_on_c, 1, 67, 96
1, 24691, Note_off_c, 1, 67, 96
1, 24922, Note_on_c, 1, 66, 96
1, 24925, Note_off_c, 1, 66, 96
1, 24925, Note_on_c, 1, 71, 96
1, 24925, Note_on_c, 1, 52, 96
1, 24926, Note_off_c, 1, 71, 96
1, 24926, Note_off_c, 1, 52, 96
1, 24929, Note_on_c, 1, 60, 96
1, 24931, Note_off_c, 1, 60, 96
1, 24931, Note_on_c, 1, 74, 96
1, 24932, Note_off_c, 1, 74, 96
1, 25105, Note_on_c, 1, 72, 96
1, 25106, Note_off_c, 1, 72, 96
1, 25109, Note_on_c, 1, 76, 96
1, 25110, Note_off_c, 1, 76, 96
1, 25172, Note_on_c, 1, 41, 96
1, 25175, Note_off_c, 1, 41, 96
1, 25175, Note_on_c, 1, 77, 96
1, 25175, Note_on_c, 1, 65, 96
1, 25176, Note_off_c, 1, 77, 96
1, 25176, Note_off_c, 1, 65, 96
1, 25295, Note_on_c, 1, 77, 96
1, 25298, Note_off_c, 1, 77, 96
1, 25298, Note_on_c, 1, 69, 96
1, 25298, Note_on_c, 1, 48, 96
1, 25299, Note_off_c, 1, 69, 96
1, 25299, Note_off_c, 1, 48, 96
1, 25478, Note_on_c, 1, 72, 96
1, 25479, Note_off_c, 1, 72, 96
1, 25542, Note_on_c, 1, 65, 96
1, 25543, Note_off_c, 1, 65, 96
1, 25547, Note_on_c, 1, 60, 96
1, 25547, Note_on_c, 1, 57, 96
1, 25548, Note_off_c, 1, 60, 96
1, 25548, Note_off_c, 1, 57, 96
1, 25787, Note_on_c, 1, 65, 96
1, 25787, Note_on_c, 1, 58, 96
1, 25788, Note_off_c, 1, 65, 96
1, 25788, Note_off_c, 1, 58, 96
1, 25791, Note_on_c, 1, 62, 96
1, 25793, Note_off_c, 1, 62, 96
1, 25793, Note_on_c, 1, 46, 96
1, 25794, Note_off_c, 1, 46, 96
1, 26029, Note_on_c, 1, 60, 96
1, 26030, Note_off_c, 1, 60, 96
1, 26032, Note_on_c, 1, 63, 96
1, 26033, Note_off_c, 1, 63, 96
1, 26152, Note_on_c, 1, 70, 96
1, 26154, Note_off_c, 1, 70, 96
1, 26154, Note_on_c, 1, 46, 96
1, 26156, Note_off_c, 1, 46, 96
1, 26156, Note_on_c, 1, 58, 96
1, 26157, Note_off_c, 1, 58, 96
1, 26273, Note_on_c, 1, 74, 96
1, 26273, Note_on_c, 1, 46, 96
1, 26274, Note_off_c, 1, 74, 96
1, 26274, Note_off_c, 1, 46, 96
1, 26278, Note_on_c, 1, 34, 96
1, 26280, Note_off_c, 1, 34, 96
1, 26280, Note_on_c, 1, 65, 96
1, 26281, Note_off_c, 1, 65, 96
1, 26396, Note_on_c, 1, 62, 96
1, 26397, Note_off_c, 1, 62, 96
1, 26401, Note_on_c, 1, 38, 96
1, 26403, Note_off_c, 1, 38, 96
1, 26403, Note_on_c, 1, 70, 96
1, 26404, Note_off_c, 1, 70, 96
1, 26635, Note_on_c, 1, 58, 96
1, 26637, Note_off_c, 1, 58, 96
1, 26637, Note_on_c, 1, 63, 96
1, 26638, Note_off_c, 1, 63, 96
1, 26761, Note_on_c, 1, 58, 96
1, 26762, Note_off_c, 1, 58, 96
1, 26767, Note_on_c, 1, 70, 96
1, 26768, Note_off_c, 1, 70, 96
1, 26887, Note_on_c, 1, 70, 96
1, 26890, Note_off_c, 1, 70, 96
1, 26890, Note_on_c, 1, 65, 96
1, 26890, Note_on_c, 1, 74, 96
1, 26892, Note_off_c, 1, 65, 96
1, 26892, Note_off_c, 1, 74, 96
1, 26892, Note_on_c, 1, 50, 96
1, 26893, Note_off_c, 1, 50, 96
1, 26949, Note_on_c, 1, 76, 96
1, 26950, Note_off_c, 1, 76, 96
1, 27009, Note_on_c, 1, 69, 96
1, 27009, Note_on_c, 1, 59, 96
1, 27010, Note_off_c, 1, 69, 96
1, 27010, Note_off_c, 1, 59, 96
1, 27013, Note_on_c, 1, 62, 96
1, 27014, Note_off_c, 1, 62, 96
1, 27018, Note_on_c, 1, 55, 96
1, 27019, Note_off_c, 1, 55, 96
1, 27076, Note_on_c, 1, 74, 96
1, 27077, Note_off_c, 1, 74, 96
1, 27137, Note_on_c, 1, 76, 96
1, 27139, Note_off_c, 1, 76, 96
1, 27139, Note_on_c, 1, 72, 96
1, 27140, Note_off_c, 1, 72, 96
1, 27142, Note_on_c, 1, 48, 96
1, 27143, Note_off_c, 1, 48, 96
1, 27258, Note_on_c, 1, 69, 96
1, 27259, Note_off_c, 1, 69, 96
1, 27262, Note_on_c, 1, 43, 96
1, 27263, Note_off_c, 1, 43, 96
1, 27266, Note_on_c, 1, 64, 96
1, 27266, Note_on_c, 1, 55, 96
1, 27267, Note_off_c, 1, 64, 96
1, 27267, Note_off_c, 1, 55, 96
1, 27383, Note_on_c, 1, 55, 96
1, 27384, Note_off_c, 1, 55, 96
1, 27388, Note_on_c, 1, 60, 96
1, 27388, Note_on_c, 1, 72, 96
1, 27390, Note_off_c, 1, 60, 96
1, 27390, Note_off_c, 1, 72, 96
1, 27390, Note_on_c, 1, 64, 96
1, 27391, Note_off_c, 1, 64, 96
1, 27511, Note_on_c, 1, 69, 96
1, 27512, Note_off_c, 1, 69, 96
1, 27517, Note_on_c, 1, 48, 96
1, 27517, Note_on_c, 1, 60, 96
1, 27518, Note_off_c, 1, 48, 96
1, 27518, Note_off_c, 1, 60, 96
1, 27629, Note_on_c, 1, 72, 96
1, 27630, Note_off_c, 1, 72, 96
1, 27633, Note_on_c, 1, 66, 96
1, 27635, Note_off_c, 1, 66, 96
1, 27635, Note_on_c, 1, 45, 96
1, 27636, Note_off_c, 1, 45, 96
1, 27695, Note_on_c, 1, 73, 96
1, 27696, Note_off_c, 1, 73, 96
1, 27699, Note_on_c, 1, 76, 96
1, 27700, Note_off_c, 1, 76, 96
1, 27757, Note_on_c, 1, 50, 96
1, 27759, Note_off_c, 1, 50, 96
1, 27759, Note_on_c, 1, 62, 96
1, 27760, Note_off_c, 1, 62, 96
1, 27823, Note_on_c, 1, 74, 96
1, 27824, Note_off_c, 1, 74, 96
1, 27882, Note_on_c, 1, 45, 96
1, 27883, Note_off_c, 1, 45, 96
1, 27946, Note_on_c, 1, 67, 96
1, 27947, Note_off_c, 1, 67, 96
1, 28003, Note_on_c, 1, 62, 96
1, 28005, Note_off_c, 1, 62, 96
1, 28005, Note_on_c, 1, 44, 96
1, 28006, Note_off_c, 1, 44, 96
1, 28008, Note_on_c, 1, 56, 96
1, 28009, Note_off_c, 1, 56, 96
1, 28011, Note_on_c, 1, 71, 96
1, 28012, Note_off_c, 1, 71, 96
1, 28130, Note_on_c, 1, 72, 96
1, 28134, Note_off_c, 1, 72, 96
1, 28134, Note_on_c, 1, 60, 96
1, 28134, Note_on_c, 1, 67, 96
1, 28134, Note_on_c, 1, 45, 96
1, 28135, Note_off_c, 1, 60, 96
1, 28135, Note_off_c, 1, 67, 96
1, 28135, Note_off_c, 1, 45, 96
1, 28138, Note_on_c, 1, 60, 96
1, 28139, Note_off_c, 1, 60, 96
1, 28255, Note_on_c, 1, 59, 96
1, 28257, Note_off_c, 1, 59, 96
1, 28257, Note_on_c, 1, 55, 96
1, 28258, Note_off_c, 1, 55, 96
1, 28262, Note_on_c, 1, 71, 96
1, 28262, Note_on_c, 1, 43, 96
1, 28264, Note_off_c, 1, 71, 96
1, 28264, Note_off_c, 1, 43, 96
1, 28264, Note_on_c, 1, 64, 96
1, 28265, Note_off_c, 1, 64, 96
1, 28322, Note_on_c, 1, 69, 96
1, 28323, Note_off_c, 1, 69, 96
1, 28381, Note_on_c, 1, 43, 96
1, 28382, Note_off_c, 1, 43, 96
1, 28385, Note_on_c, 1, 74, 96
1, 28386, Note_off_c, 1, 74, 96
1, 28450, Note_on_c, 1, 76, 96
1, 28451, Note_off_c, 1, 76, 96
1, 28508, Note_on_c, 1, 64, 96
1, 28508, Note_on_c, 1, 60, 96
1, 28510, Note_off_c, 1, 64, 96
1, 28510, Note_off_c, 1, 60, 96
1, 28510, Note_on_c, 1, 55, 96
1, 28511, Note_off_c, 1, 55, 96
1, 28514, Note_on_c, 1, 67, 96
1, 28514, Note_on_c, 1, 79, 96
1, 28515, Note_off_c, 1, 67, 96
1, 28515, Note_off_c, 1, 79, 96
1, 28572, Note_on_c, 1, 76, 96
1, 28573, Note_off_c, 1, 76, 96
1, 28632, Note_on_c, 1, 67, 96
1, 28635, Note_off_c, 1, 67, 96
1, 28635, Note_on_c, 1, 76, 96
1, 28635, Note_on_c, 1, 48, 96
1, 28637, Note_off_c, 1, 76, 96
1, 28637, Note_off_c, 1, 48, 96
1, 28637, Note_on_c, 1, 79, 96
1, 28638, Note_off_c, 1, 79, 96
1, 28756, Note_on_c, 1, 79, 96
1, 28758, Note_off_c, 1, 79, 96
1, 28758, Note_on_c, 1, 76, 96
1, 28759, Note_off_c, 1, 76, 96
1, 28762, Note_on_c, 1, 64, 96
1, 28762, Note_on_c, 1, 55, 96
1, 28764, Note_off_c, 1, 64, 96
1, 28764, Note_off_c, 1, 55, 96
1, 28764, Note_on_c, 1, 60, 96
1, 28765, Note_off_c, 1, 60, 96
1, 28823, Note_on_c, 1, 79, 96
1, 28824, Note_off_c, 1, 79, 96
1, 28881, Note_on_c, 1, 52, 96
1, 28885, Note_off_c, 1, 52, 96
1, 28885, Note_on_c, 1, 72, 96
1, 28885, Note_on_c, 1, 79, 96
1, 28885, Note_on_c, 1, 43, 96
1, 28886, Note_off_c, 1, 72, 96
1, 28886, Note_off_c, 1, 79, 96
1, 28886, Note_off_c, 1, 43, 96
1, 29007, Note_on_c, 1, 52, 96
1, 29007, Note_on_c, 1, 55, 96
1, 29010, Note_off_c, 1, 52, 96
1, 29010, Note_off_c, 1, 55, 96
1, 29010, Note_on_c, 1, 67, 96
1, 29010, Note_on_c, 1, 60, 96
1, 29011, Note_off_c, 1, 67, 96
1, 29011, Note_off_c, 1, 60, 96
1, 29126, Note_on_c, 1, 50, 96
1, 29127, Note_off_c, 1, 50, 96
1, 29129, Note_on_c, 1, 72, 96
1, 29130, Note_off_c, 1, 72, 96
1, 29132, Note_on_c, 1, 79, 96
1, 29133, Note_off_c, 1, 79, 96
1, 29250, Note_on_c, 1, 64, 96
1, 29250, Note_on_c, 1, 60, 96
1, 29250, Note_on_c, 1, 55, 96
1, 29251, Note_off_c, 1, 64, 96
1, 29251, Note_off_c, 1, 60, 96
1, 29251, Note_off_c, 1, 55, 96
1, 29255, Note_on_c, 1, 79, 96
1, 29256, Note_off_c, 1, 79, 96
1, 29258, Note_on_c, 1, 76, 96
1, 29259, Note_off_c, 1, 76, 96
1, 29312, Note_on_c, 1, 72, 96
1, 29313, Note_off_c, 1, 72, 96
1, 29316, Note_on_c, 1, 78, 96
1, 29318, Note_off_c, 1, 78, 96
1, 29318, Note_on_c, 1, 75, 96
1, 29319, Note_off_c, 1, 75, 96
1, 29376, Note_on_c, 1, 43, 96
1, 29377, Note_off_c, 1, 43, 96
1, 29493, Note_on_c, 1, 55, 96
1, 29495, Note_off_c, 1, 55, 96
1, 29495, Note_on_c, 1, 67, 96
1, 29497, Note_off_c, 1, 67, 96
1, 29497, Note_on_c, 1, 60, 96
1, 29499, Note_off_c, 1, 60, 96
1, 29499, Note_on_c, 1, 64, 96
1, 29501, Note_off_c, 1, 64, 96
1, 29501, Note_on_c, 1, 72, 96
1, 29502, Note_off_c, 1, 72, 96
1, 29558, Note_on_c, 1, 72, 96
1, 29559, Note_off_c, 1, 72, 96
1, 29618, Note_on_c, 1, 50, 96
1, 29619, Note_off_c, 1, 50, 96
1, 29622, Note_on_c, 1, 71, 96
1, 29624, Note_off_c, 1, 71, 96
1, 29624, Note_on_c, 1, 76, 96
1, 29625, Note_off_c, 1, 76, 96
1, 29685, Note_on_c, 1, 76, 96
1, 29686, Note_off_c, 1, 76, 96
1, 29749, Note_on_c, 1, 72, 96
1, 29749, Note_on_c, 1, 55, 96
1, 29751, Note_off_c, 1, 72, 96
1, 29751, Note_off_c, 1, 55, 96
1, 29751, Note_on_c, 1, 64, 96
1, 29754, Note_off_c, 1, 64, 96
1, 29754, Note_on_c, 1, 76, 96
1, 29754, Note_on_c, 1, 60, 96
1, 29755, Note_off_c, 1, 76, 96
1, 29755, Note_off_c, 1, 60, 96
1, 29809, Note_on_c, 1, 75, 96
1, 29810, Note_off_c, 1, 75, 96
1, 29870, Note_on_c, 1, 60, 96
1, 29870, Note_on_c, 1, 60, 96
1, 29872, Note_off_c, 1, 60, 96
1, 29872, Note_off_c, 1, 60, 96
1, 29872, Note_on_c, 1, 64, 96
1, 29875, Note_off_c, 1, 64, 96
1, 29875, Note_on_c, 1, 72, 96
1, 29875, Note_on_c, 1, 55, 96
1, 29876, Note_off_c, 1, 72, 96
1, 29876, Note_off_c, 1, 55, 96
1, 29935, Note_on_c, 1, 76, 96
1, 29936, Note_off_c, 1, 76, 96
1, 29994, Note_on_c, 1, 48, 96
1, 29995, Note_off_c, 1, 48, 96
1, 30003, Note_on_c, 1, 79, 96
1, 30004, Note_off_c, 1, 79, 96
1, 30064, Note_on_c, 1, 76, 96
1, 30065, Note_off_c, 1, 76, 96
1, 30121, Note_on_c, 1, 64, 96
1, 30124, Note_off_c, 1, 64, 96
1, 30124, Note_on_c, 1, 60, 96
1, 30124, Note_on_c, 1, 55, 96
1, 30125, Note_off_c, 1, 60, 96
1, 30125, Note_off_c, 1, 55, 96
1, 30184, Note_on_c, 1, 74, 96
1, 30185, Note_off_c, 1, 74, 96
1, 30247, Note_on_c, 1, 74, 96
1, 30247, Note_on_c, 1, 55, 96
1, 30249, Note_off_c, 1, 74, 96
1, 30249, Note_off_c, 1, 55, 96
1, 30249, Note_on_c, 1, 60, 96
1, 30251, Note_off_c, 1, 60, 96
1, 30251, Note_on_c, 1, 64, 96
1, 30252, Note_off_c, 1, 64, 96
1, 30311, Note_on_c, 1, 84, 96
1, 30312, Note_off_c, 1, 84, 96
1, 30375, Note_on_c, 1, 43, 96
1, 30376, Note_off_c, 1, 43, 96
1, 30379, Note_on_c, 1, 86, 96
1, 30380, Note_off_c, 1, 86, 96
1, 30440, Note_on_c, 1, 81, 96
1, 30441, Note_off_c, 1, 81, 96
1, 30502, Note_on_c, 1, 43, 96
1, 30503, Note_off_c, 1, 43, 96
1, 30560, Note_on_c, 1, 84, 96
1, 30561, Note_off_c, 1, 84, 96
1, 30621, Note_on_c, 1, 60, 96
1, 30622, Note_off_c, 1, 60, 96
1, 30625, Note_on_c, 1, 81, 96
1, 30625, Note_on_c, 1, 53, 96
1, 30627, Note_off_c, 1, 81, 96
1, 30627, Note_off_c, 1, 53, 96
1, 30627, Note_on_c, 1, 57, 96
1, 30628, Note_off_c, 1, 57, 96
1, 30745, Note_on_c, 1, 49, 96
1, 30747, Note_off_c, 1, 49, 96
1, 30747, Note_on_c, 1, 61, 96
1, 30748, Note_off_c, 1, 61, 96
1, 30870, Note_on_c, 1, 73, 96
1, 30871, Note_off_c, 1, 73, 96
1, 30875, Note_on_c, 1, 78, 96
1, 30878, Note_off_c, 1, 78, 96
1, 30878, Note_on_c, 1, 45, 96
1, 30878, Note_on_c, 1, 57, 96
1, 30880, Note_off_c, 1, 45, 96
1, 30880, Note_off_c, 1, 57, 96
1, 30880, Note_on_c, 1, 67, 96
1, 30881, Note_off_c, 1, 67, 96
1, 30997, Note_on_c, 1, 65, 96
1, 31000, Note_off_c, 1, 65, 96
1, 31000, Note_on_c, 1, 71, 96
1, 31000, Note_on_c, 1, 43, 96
1, 31001, Note_off_c, 1, 71, 96
1, 31001, Note_off_c, 1, 43, 96
1, 31004, Note_on_c, 1, 77, 96
1, 31005, Note_off_c, 1, 77, 96
1, 31065, Note_on_c, 1, 74, 96
1, 31066, Note_off_c, 1, 74, 96
1, 31123, Note_on_c, 1, 55, 96
1, 31124, Note_off_c, 1, 55, 96
1, 31129, Note_on_c, 1, 70, 96
1, 31129, Note_on_c, 1, 43, 96
1, 31130, Note_off_c, 1, 70, 96
1, 31130, Note_off_c, 1, 43, 96
1, 31245, Note_on_c, 1, 55, 96
1, 31247, Note_off_c, 1, 55, 96
1, 31247, Note_on_c, 1, 65, 96
1, 31248, Note_off_c, 1, 65, 96
1, 31250, Note_on_c, 1, 59, 96
1, 31251, Note_off_c, 1, 59, 96
1, 31311, Note_on_c, 1, 79, 96
1, 31312, Note_off_c, 1, 79, 96
1, 31371, Note_on_c, 1, 43, 96
1, 31372, Note_off_c, 1, 43, 96
1, 31376, Note_on_c, 1, 74, 96
1, 31377, Note_off_c, 1, 74, 96
1, 31490, Note_on_c, 1, 74, 96
1, 31491, Note_off_c, 1, 74, 96
1, 31493, Note_on_c, 1, 48, 96
1, 31494, Note_off_c, 1, 48, 96
1, 31612, Note_on_c, 1, 55, 96
1, 31614, Note_off_c, 1, 55, 96
1, 31614, Note_on_c, 1, 50, 96
1, 31615, Note_off_c, 1, 50, 96
1, 31617, Note_on_c, 1, 59, 96
1, 31619, Note_off_c, 1, 59, 96
1, 31619, Note_on_c, 1, 65, 96
1, 31621, Note_off_c, 1, 65, 96
1, 31621, Note_on_c, 1, 74, 96
1, 31622, Note_off_c, 1, 74, 96
1, 31679, Note_on_c, 1, 74, 96
1, 31680, Note_off_c, 1, 74, 96
1, 31682, Note_on_c, 1, 71, 96
1, 31683, Note_off_c, 1, 71, 96
1, 31741, Note_on_c, 1, 50, 96
1, 31742, Note_off_c, 1, 50, 96
1, 31861, Note_on_c, 1, 59, 96
1, 31861, Note_on_c, 1, 47, 96
1, 31862, Note_off_c, 1, 59, 96
1, 31862, Note_off_c, 1, 47, 96
1, 31985, Note_on_c, 1, 77, 96
1, 31985, Note_on_c, 1, 48, 96
1, 31986, Note_off_c, 1, 77, 96
1, 31986, Note_off_c, 1, 48, 96
1, 32102, Note_on_c, 1, 74, 96
1, 32103, Note_off_c, 1, 74, 96
1, 32109, Note_on_c, 1, 67, 96
1, 32109, Note_on_c, 1, 43, 96
1, 32111, Note_off_c, 1, 67, 96
1, 32111, Note_off_c, 1, 43, 96
1, 32111, Note_on_c, 1, 55, 96
1, 32112, Note_off_c, 1, 55, 96
1, 32166, Note_on_c, 1, 77, 96
1, 32167, Note_off_c, 1, 77, 96
1, 32173, Note_on_c, 1, 81, 96
1, 32174, Note_off_c, 1, 81, 96
1, 32228, Note_on_c, 1, 59, 96
1, 32229, Note_off_c, 1, 59, 96
1, 32233, Note_on_c, 1, 65, 96
1, 32233, Note_on_c, 1, 55, 96
1, 32234, Note_off_c, 1, 65, 96
1, 32234, Note_off_c, 1, 55, 96
1, 32298, Note_on_c, 1, 79, 96
1, 32299, Note_off_c, 1, 79, 96
1, 32354, Note_on_c, 1, 71, 96
1, 32354, Note_on_c, 1, 55, 96
1, 32355, Note_off_c, 1, 71, 96
1, 32355, Note_off_c, 1, 55, 96
1, 32358, Note_on_c, 1, 79, 96
1, 32358, Note_on_c, 1, 43, 96
1, 32360, Note_off_c, 1, 79, 96
1, 32360, Note_off_c, 1, 43, 96
1, 32360, Note_on_c, 1, 74, 96
1, 32361, Note_off_c, 1, 74, 96
1, 32480, Note_on_c, 1, 76, 96
1, 32480, Note_on_c, 1, 64, 96
1, 32482, Note_off_c, 1, 76, 96
1, 32482, Note_off_c, 1, 64, 96
1, 32482, Note_on_c, 1, 59, 96
1, 32483, Note_off_c, 1, 59, 96
1, 32485, Note_on_c, 1, 72, 96
1, 32487, Note_off_c, 1, 72, 96
1, 32487, Note_on_c, 1, 55, 96
1, 32488, Note_off_c, 1, 55, 96
1, 32605, Note_on_c, 1, 74, 96
1, 32605, Note_on_c, 1, 55, 96
1, 32606, Note_off_c, 1, 74, 96
1, 32606, Note_off_c, 1, 55, 96
1, 32609, Note_on_c, 1, 64, 96
1, 32611, Note_off_c, 1, 64, 96
1, 32611, Note_on_c, 1, 60, 96
1, 32612, Note_off_c, 1, 60, 96
1, 32726, Note_on_c, 1, 76, 96
1, 32728, Note_off_c, 1, 76, 96
1, 32728, Note_on_c, 1, 55, 96
1, 32731, Note_off_c, 1, 55, 96
1, 32731, Note_on_c, 1, 60, 96
1, 32731, Note_on_c, 1, 64, 96
1, 32732, Note_off_c, 1, 60, 96
1, 32732, Note_off_c, 1, 64, 96
1, 32734, Note_on_c, 1, 72, 96
1, 32735, Note_off_c, 1, 72, 96
1, 32790, Note_on_c, 1, 72, 96
1, 32791, Note_off_c, 1, 72, 96
1, 32852, Note_on_c, 1, 50, 96
1, 32854, Note_off_c, 1, 50, 96
1, 32854, Note_on_c, 1, 71, 96
1, 32855, Note_off_c, 1, 71, 96
1, 32858, Note_on_c, 1, 64, 96
1, 32859, Note_off_c, 1, 64, 96
1, 32974, Note_on_c, 1, 52, 96
1, 32976, Note_off_c, 1, 52, 96
1, 32976, Note_on_c, 1, 60, 96
1, 32977, Note_off_c, 1, 60, 96
1, 32980, Note_on_c, 1, 57, 96
1, 32981, Note_off_c, 1, 57, 96
1, 32983, Note_on_c, 1, 76, 96
1, 32984, Note_off_c, 1, 76, 96
1, 33038, Note_on_c, 1, 69, 96
1, 33039, Note_off_c, 1, 69, 96
1, 33099, Note_on_c, 1, 74, 96
1, 33099, Note_on_c, 1, 48, 96
1, 33100, Note_off_c, 1, 74, 96
1, 33100, Note_off_c, 1, 48, 96
1, 33105, Note_on_c, 1, 64, 96
1, 33106, Note_off_c, 1, 64, 96
1, 33220, Note_on_c, 1, 71, 96
1, 33221, Note_off_c, 1, 71, 96
1, 33223, Note_on_c, 1, 60, 96
1, 33225, Note_off_c, 1, 60, 96
1, 33225, Note_on_c, 1, 64, 96
1, 33226, Note_off_c, 1, 64, 96
1, 33228, Note_on_c, 1, 57, 96
1, 33229, Note_off_c, 1, 57, 96
1, 33345, Note_on_c, 1, 69, 96
1, 33347, Note_off_c, 1, 69, 96
1, 33347, Note_on_c, 1, 64, 96
1, 33348, Note_off_c, 1, 64, 96
1, 33353, Note_on_c, 1, 55, 96
1, 33354, Note_off_c, 1, 55, 96
1, 33470, Note_on_c, 1, 71, 96
1, 33472, Note_off_c, 1, 71, 96
1, 33472, Note_on_c, 1, 52, 96
1, 33474, Note_off_c, 1, 52, 96
1, 33474, Note_on_c, 1, 60, 96
1, 33476, Note_off_c, 1, 60, 96
1, 33476, Note_on_c, 1, 57, 96
1, 33477, Note_off_c, 1, 57, 96
1, 33598, Note_on_c, 1, 65, 96
1, 33598, Note_on_c, 1, 45, 96
1, 33600, Note_off_c, 1, 65, 96
1, 33600, Note_off_c, 1, 45, 96
1, 33600, Note_on_c, 1, 74, 96
1, 33601, Note_off_c, 1, 74, 96
1, 33629, Note_on_c, 1, 81, 96
1, 33630, Note_off_c, 1, 81, 96
1, 33659, Note_on_c, 1, 71, 96
1, 33661, Note_off_c, 1, 71, 96
1, 33661, Note_on_c, 1, 83, 96
1, 33662, Note_off_c, 1, 83, 96
1, 33884, Note_on_c, 1, 60, 96
1, 33886, Note_off_c, 1, 60, 96
1, 33886, Note_on_c, 1, 84, 96
1, 33887, Note_off_c, 1, 84, 96
1, 33970, Note_on_c, 1, 86, 96
1, 33971, Note_off_c, 1, 86, 96
1, 34026, Note_on_c, 1, 82, 96
1, 34026, Note_on_c, 1, 74, 96
1, 34027, Note_off_c, 1, 82, 96
1, 34027, Note_off_c, 1, 74, 96
1, 34407, Note_on_c, 1, 48, 96
1, 34408, Note_off_c, 1, 48, 96
1, 34508, Note_on_c, 1, 60, 96
1, 34509, Note_off_c, 1, 60, 96
1, 34512, Note_on_c, 1, 48, 96
1, 34513, Note_off_c, 1, 48, 96
1, 34707, Note_on_c, 1, 69, 96
1, 34708, Note_off_c, 1, 69, 96
1, 34880, Note_on_c, 1, 76, 96
1, 34881, Note_off_c, 1, 76, 96
1, 34885, Note_on_c, 1, 55, 96
1, 34885, Note_on_c, 1, 60, 96
1, 34886, Note_off_c, 1, 55, 96
1, 34886, Note_off_c, 1, 60, 96
1, 34889, Note_on_c, 1, 64, 96
1, 34890, Note_off_c, 1, 64, 96
1, 35233, Note_on_c, 1, 48, 96
1, 35234, Note_off_c, 1, 48, 96
1, 35406, Note_on_c, 1, 60, 96
1, 35407, Note_off_c, 1, 60, 96
1, 35410, Note_on_c, 1, 43, 96
1, 35410, Note_on_c, 1, 55, 96
1, 35411, Note_off_c, 1, 43, 96
1, 35411, Note_off_c, 1, 55, 96
1, 35416, Note_on_c, 1, 64, 96
1, 35416, Note_on_c, 1, 67, 96
1, 35417, Note_off_c, 1, 64, 96
1, 35417, Note_off_c, 1, 67, 96
1, 35651, Note_on_c, 1, 67, 96
1, 35652, Note_off_c, 1, 67, 96
1, 35656, Note_on_c, 1, 76, 96
1, 35658, Note_off_c, 1, 76, 96
1, 35658, Note_on_c, 1, 79, 96
1, 35661, Note_off_c, 1, 79, 96
1, 35661, Note_on_c, 1, 60, 96
1, 35661, Note_on_c, 1, 55, 96
1, 35662, Note_off_c, 1, 60, 96
1, 35662, Note_off_c, 1, 55, 96
1, 35888, Note_on_c, 1, 81, 96
1, 35888, Note_on_c, 1, 77, 96
1, 35889, Note_off_c, 1, 81, 96
1, 35889, Note_off_c, 1, 77, 96
1, 35896, Note_on_c, 1, 86, 96
1, 35896, Note_on_c, 1, 50, 96
1, 35898, Note_off_c, 1, 86, 96
1, 35898, Note_off_c, 1, 50, 96
1, 35898, Note_on_c, 1, 74, 96
1, 35899, Note_off_c, 1, 74, 96
1, 36132, Note_on_c, 1, 72, 96
1, 36132, Note_on_c, 1, 84, 96
1, 36134, Note_off_c, 1, 72, 96
1, 36134, Note_off_c, 1, 84, 96
1, 36134, Note_on_c, 1, 81, 96
1, 36136, Note_off_c, 1, 81, 96
1, 36136, Note_on_c, 1, 77, 96
1, 36137, Note_off_c, 1, 77, 96
1, 36141, Note_on_c, 1, 60, 96
1, 36143, Note_off_c, 1, 60, 96
1, 36143, Note_on_c, 1, 65, 96
1, 36145, Note_off_c, 1, 65, 96
1, 36145, Note_on_c, 1, 57, 96
1, 36146, Note_off_c, 1, 57, 96
1, 36386, Note_on_c, 1, 72, 96
1, 36386, Note_on_c, 1, 60, 96
1, 36388, Note_off_c, 1, 72, 96
1, 36388, Note_off_c, 1, 60, 96
1, 36388, Note_on_c, 1, 69, 96
1, 36391, Note_off_c, 1, 69, 96
1, 36391, Note_on_c, 1, 57, 96
1, 36391, Note_on_c, 1, 65, 96
1, 36392, Note_off_c, 1, 57, 96
1, 36392, Note_off_c, 1, 65, 96
1, 36507, Note_on_c, 1, 80, 96
1, 36508, Note_off_c, 1, 80, 96
1, 36511, Note_on_c, 1, 72, 96
1, 36512, Note_off_c, 1, 72, 96
1, 36628, Note_on_c, 1, 77, 96
1, 36629, Note_off_c, 1, 77, 96
1, 36632, Note_on_c, 1, 69, 96
1, 36634, Note_off_c, 1, 69, 96
1, 36634, Note_on_c, 1, 72, 96
1, 36635, Note_off_c, 1, 72, 96
1, 36812, Note_on_c, 1, 76, 96
1, 36813, Note_off_c, 1, 76, 96
1, 36934, Note_on_c, 1, 75, 96
1, 36934, Note_on_c, 1, 74, 96
1, 36935, Note_off_c, 1, 75, 96
1, 36935, Note_off_c, 1, 74, 96
1, 36938, Note_on_c, 1, 54, 96
1, 36939, Note_off_c, 1, 54, 96
1, 36941, Note_on_c, 1, 42, 96
1, 36942, Note_off_c, 1, 42, 96
1, 37172, Note_on_c, 1, 50, 96
1, 37174, Note_off_c, 1, 50, 96
1, 37174, Note_on_c, 1, 74, 96
1, 37175, Note_off_c, 1, 74, 96
1, 37178, Note_on_c, 1, 71, 96
1, 37179, Note_off_c, 1, 71, 96
1, 37306, Note_on_c, 1, 60, 96
1, 37307, Note_off_c, 1, 60, 96
1, 37480, Note_on_c, 1, 66, 96
1, 37482, Note_off_c, 1, 66, 96
1, 37482, Note_on_c, 1, 45, 96
1, 37483, Note_off_c, 1, 45, 96
1, 37712, Note_on_c, 1, 64, 96
1, 37714, Note_off_c, 1, 64, 96
1, 37714, Note_on_c, 1, 55, 96
1, 37715, Note_off_c, 1, 55, 96
1, 37719, Note_on_c, 1, 43, 96
1, 37720, Note_off_c, 1, 43, 96
1, 37893, Note_on_c, 1, 66, 96
1, 37894, Note_off_c, 1, 66, 96
1, 37962, Note_on_c, 1, 69, 96
1, 37962, Note_on_c, 1, 43, 96
1, 37963, Note_off_c, 1, 69, 96
1, 37963, Note_off_c, 1, 43, 96
1, 38206, Note_on_c, 1, 71, 96
1, 38207, Note_off_c, 1, 71, 96
1, 38213, Note_on_c, 1, 64, 96
1, 38213, Note_on_c, 1, 43, 96
1, 38215, Note_off_c, 1, 64, 96
1, 38215, Note_off_c, 1, 43, 96
1, 38215, Note_on_c, 1, 55, 96
1, 38216, Note_off_c, 1, 55, 96
1, 38707, Note_on_c, 1, 72, 96
1, 38709, Note_off_c, 1, 72, 96
1, 38709, Note_on_c, 1, 64, 96
1, 38710, Note_off_c, 1, 64, 96
1, 38713, Note_on_c, 1, 36, 96
1, 38715, Note_off_c, 1, 36, 96
1, 38715, Note_on_c, 1, 48, 96
1, 38717, Note_off_c, 1, 48, 96
1, 38717, Note_on_c, 1, 76, 96
1, 38718, Note_off_c, 1, 76, 96
1, 38806, Note_on_c, 1, 71, 96
1, 38807, Note_off_c, 1, 71, 96
1, 38834, Note_on_c, 1, 55, 96
1, 38836, Note_off_c, 1, 55, 96
1, 38836, Note_on_c, 1, 43, 96
1, 38837, Note_off_c, 1, 43, 96
1, 38839, Note_on_c, 1, 66, 96
1, 38841, Note_off_c, 1, 66, 96
1, 38841, Note_on_c, 1, 72, 96
1, 38842, Note_off_c, 1, 72, 96
1, 39082, Note_on_c, 1, 80, 96
1, 39082, Note_on_c, 1, 76, 96
1, 39082, Note_on_c, 1, 68, 96
1, 39082, Note_on_c, 1, 40, 96
1, 39084, Note_off_c, 1, 80, 96
1, 39084, Note_off_c, 1, 76, 96
1, 39084, Note_off_c, 1, 68, 96
1, 39084, Note_off_c, 1, 40, 96
1, 39084, Note_on_c, 1, 52, 96
1, 39086, Note_off_c, 1, 52, 96
1, 39086, Note_on_c, 1, 71, 96
1, 39087, Note_off_c, 1, 71, 96
1, 39202, Note_on_c, 1, 59, 96
1, 39203, Note_off_c, 1, 59, 96
1, 39205, Note_on_c, 1, 47, 96
1, 39206, Note_off_c, 1, 47, 96
1, 39261, Note_on_c, 1, 76, 96
1, 39262, Note_off_c, 1, 76, 96
1, 39264, Note_on_c, 1, 65, 96
1, 39265, Note_off_c, 1, 65, 96
1, 39327, Note_on_c, 1, 59, 96
1, 39328, Note_off_c, 1, 59, 96
1, 39333, Note_on_c, 1, 47, 96
1, 39334, Note_off_c, 1, 47, 96
1, 39387, Note_on_c, 1, 69, 96
1, 39388, Note_off_c, 1, 69, 96
1, 39393, Note_on_c, 1, 77, 96
1, 39394, Note_off_c, 1, 77, 96
1, 39450, Note_on_c, 1, 60, 96
1, 39450, Note_on_c, 1, 65, 96
1, 39451, Note_off_c, 1, 60, 96
1, 39451, Note_off_c, 1, 65, 96
1, 39454, Note_on_c, 1, 57, 96
1, 39455, Note_off_c, 1, 57, 96
1, 39512, Note_on_c, 1, 72, 96
1, 39513, Note_off_c, 1, 72, 96
1, 39573, Note_on_c, 1, 72, 96
1, 39574, Note_off_c, 1, 72, 96
1, 39576, Note_on_c, 1, 57, 96
1, 39579, Note_off_c, 1, 57, 96
1, 39579, Note_on_c, 1, 65, 96
1, 39579, Note_on_c, 1, 60, 96
1, 39580, Note_off_c, 1, 65, 96
1, 39580, Note_off_c, 1, 60, 96
1, 39582, Note_on_c, 1, 77, 96
1, 39583, Note_off_c, 1, 77, 96
1, 39700, Note_on_c, 1, 69, 96
1, 39702, Note_off_c, 1, 69, 96
1, 39702, Note_on_c, 1, 72, 96
1, 39703, Note_off_c, 1, 72, 96
1, 39819, Note_on_c, 1, 72, 96
1, 39819, Note_on_c, 1, 69, 96
1, 39820, Note_off_c, 1, 72, 96
1, 39820, Note_off_c, 1, 69, 96
1, 40059, Note_on_c, 1, 60, 96
1, 40060, Note_off_c, 1, 60, 96
1, 40064, Note_on_c, 1, 86, 96
1, 40065, Note_off_c, 1, 86, 96
1, 40120, Note_on_c, 1, 84, 96
1, 40121, Note_off_c, 1, 84, 96
1, 40126, Note_on_c, 1, 72, 96
1, 40127, Note_off_c, 1, 72, 96
1, 40243, Note_on_c, 1, 80, 96
1, 40245, Note_off_c, 1, 80, 96
1, 40245, Note_on_c, 1, 67, 96
1, 40247, Note_off_c, 1, 67, 96
1, 40247, Note_on_c, 1, 59, 96
1, 40248, Note_off_c, 1, 59, 96
1, 40250, Note_on_c, 1, 74, 96
1, 40251, Note_off_c, 1, 74, 96
1, 40365, Note_on_c, 1, 69, 96
1, 40366, Note_off_c, 1, 69, 96
1, 40370, Note_on_c, 1, 57, 96
1, 40371, Note_off_c, 1, 57, 96
1, 40374, Note_on_c, 1, 81, 96
1, 40375, Note_off_c, 1, 81, 96
1, 40434, Note_on_c, 1, 55, 96
1, 40434, Note_on_c, 1, 43, 96
1, 40435, Note_off_c, 1, 55, 96
1, 40435, Note_off_c, 1, 43, 96
1, 40550, Note_on_c, 1, 67, 96
1, 40552, Note_off_c, 1, 67, 96
1, 40552, Note_on_c, 1, 31, 96
1, 40553, Note_off_c, 1, 31, 96
1, 40556, Note_on_c, 1, 79, 96
1, 40556, Note_on_c, 1, 59, 96
1, 40557, Note_off_c, 1, 79, 96
1, 40557, Note_off_c, 1, 59, 96
1, 40559, Note_on_c, 1, 62, 96
1, 40560, Note_off_c, 1, 62, 96
1, 40675, Note_on_c, 1, 67, 96
1, 40678, Note_off_c, 1, 67, 96
1, 40678, Note_on_c, 1, 65, 96
1, 40678, Note_on_c, 1, 59, 96
1, 40679, Note_off_c, 1, 65, 96
1, 40679, Note_off_c, 1, 59, 96
1, 40799, Note_on_c, 1, 43, 96
1, 40800, Note_off_c, 1, 43, 96
1, 40803, Note_on_c, 1, 81, 96
1, 40803, Note_on_c, 1, 55, 96
1, 40804, Note_off_c, 1, 81, 96
1, 40804, Note_off_c, 1, 55, 96
1, 40807, Note_on_c, 1, 79, 96
1, 40808, Note_off_c, 1, 79, 96
1, 41036, Note_on_c, 1, 72, 96
1, 41036, Note_on_c, 1, 48, 96
1, 41037, Note_off_c, 1, 72, 96
1, 41037, Note_off_c, 1, 48, 96
1, 41324, Note_on_c, 1, 60, 96
1, 41324, Note_on_c, 1, 68, 96
1, 41325, Note_off_c, 1, 60, 96
1, 41325, Note_off_c, 1, 68, 96
1, 41328, Note_on_c, 1, 51, 96
1, 41330, Note_off_c, 1, 51, 96
1, 41330, Note_on_c, 1, 75, 96
1, 41331, Note_off_c, 1, 75, 96
1, 41446, Note_on_c, 1, 70, 96
1, 41447, Note_off_c, 1, 70, 96
1, 41450, Note_on_c, 1, 67, 96
1, 41453, Note_off_c, 1, 67, 96
1, 41453, Note_on_c, 1, 75, 96
1, 41453, Note_on_c, 1, 63, 96
1, 41454, Note_off_c, 1, 75, 96
1, 41454, Note_off_c, 1, 63, 96
1, 41573, Note_on_c, 1, 82, 96
1, 41576, Note_off_c, 1, 82, 96
1, 41576, Note_on_c, 1, 70, 96
1, 41576, Note_on_c, 1, 46, 96
1, 41577, Note_off_c, 1, 70, 96
1, 41577, Note_off_c, 1, 46, 96
1, 41692, Note_on_c, 1, 51, 96
1, 41693, Note_off_c, 1, 51, 96
1, 41698, Note_on_c, 1, 67, 96
1, 41699, Note_off_c, 1, 67, 96
1, 41813, Note_on_c, 1, 58, 96
1, 41816, Note_off_c, 1, 58, 96
1, 41816, Note_on_c, 1, 75, 96
1, 41816, Note_on_c, 1, 55, 96
1, 41817, Note_off_c, 1, 75, 96
1, 41817, Note_off_c, 1, 55, 96
1, 41819, Note_on_c, 1, 63, 96
1, 41820, Note_off_c, 1, 63, 96
1, 41824, Note_on_c, 1, 70, 96
1, 41825, Note_off_c, 1, 70, 96
1, 41938, Note_on_c, 1, 79, 96
1, 41940, Note_off_c, 1, 79, 96
1, 41940, Note_on_c, 1, 70, 96
1, 41942, Note_off_c, 1, 70, 96
1, 41942, Note_on_c, 1, 82, 96
1, 41944, Note_off_c, 1, 82, 96
1, 41944, Note_on_c, 1, 91, 96
1, 41945, Note_off_c, 1, 91, 96
1, 41947, Note_on_c, 1, 82, 96
1, 41948, Note_off_c, 1, 82, 96
1, 42064, Note_on_c, 1, 79, 96
1, 42067, Note_off_c, 1, 79, 96
1, 42067, Note_on_c, 1, 66, 96
1, 42067, Note_on_c, 1, 72, 96
1, 42068, Note_off_c, 1, 66, 96
1, 42068, Note_off_c, 1, 72, 96
1, 42071, Note_on_c, 1, 60, 96
1, 42071, Note_on_c, 1, 56, 96
1, 42072, Note_off_c, 1, 60, 96
1, 42072, Note_off_c, 1, 56, 96
1, 42187, Note_on_c, 1, 44, 96
1, 42187, Note_on_c, 1, 56, 96
1, 42188, Note_off_c, 1, 44, 96
1, 42188, Note_off_c, 1, 56, 96
1, 42310, Note_on_c, 1, 80, 96
1, 42311, Note_off_c, 1, 80, 96
1, 42313, Note_on_c, 1, 84, 96
1, 42314, Note_off_c, 1, 84, 96
1, 42316, Note_on_c, 1, 50, 96
1, 42317, Note_off_c, 1, 50, 96
1, 42373, Note_on_c, 1, 83, 96
1, 42374, Note_off_c, 1, 83, 96
1, 42432, Note_on_c, 1, 59, 96
1, 42433, Note_off_c, 1, 59, 96
1, 42435, Note_on_c, 1, 65, 96
1, 42436, Note_off_c, 1, 65, 96
1, 42438, Note_on_c, 1, 83, 96
1, 42439, Note_off_c, 1, 83, 96
1, 42443, Note_on_c, 1, 74, 96
1, 42445, Note_off_c, 1, 74, 96
1, 42445, Note_on_c, 1, 55, 96
1, 42446, Note_off_c, 1, 55, 96
1, 42559, Note_on_c, 1, 55, 96
1, 42560, Note_off_c, 1, 55, 96
1, 42563, Note_on_c, 1, 80, 96
1, 42563, Note_on_c, 1, 77, 96
1, 42565, Note_off_c, 1, 80, 96
1, 42565, Note_off_c, 1, 77, 96
1, 42565, Note_on_c, 1, 43, 96
1, 42566, Note_off_c, 1, 43, 96
1, 42569, Note_on_c, 1, 91, 96
1, 42570, Note_off_c, 1, 91, 96
1, 42684, Note_on_c, 1, 80, 96
1, 42685, Note_off_c, 1, 80, 96
1, 42689, Note_on_c, 1, 83, 96
1, 42690, Note_off_c, 1, 83, 96
1, 42692, Note_on_c, 1, 56, 96
1, 42693, Note_off_c, 1, 56, 96
1, 42696, Note_on_c, 1, 77, 96
1, 42696, Note_on_c, 1, 50, 96
1, 42700, Note_off_c, 1, 77, 96
1, 42700, Note_off_c, 1, 50, 96
1, 42700, Note_on_c, 1, 89, 96
1, 42700, Note_on_c, 1, 59, 96
1, 42700, Note_on_c, 1, 51, 96
1, 42701, Note_off_c, 1, 89, 96
1, 42701, Note_off_c, 1, 59, 96
1, 42701, Note_off_c, 1, 51, 96
1, 42819, Note_on_c, 1, 89, 96
1, 42820, Note_off_c, 1, 89, 96
1, 42859, Note_on_c, 1, 92, 96
1, 42860, Note_off_c, 1, 92, 96
1, 42919, Note_on_c, 1, 87, 96
1, 42920, Note_off_c, 1, 87, 96
1, 42976, Note_on_c, 1, 92, 96
1, 42977, Note_off_c, 1, 92, 96
1, 43038, Note_on_c, 1, 89, 96
1, 43039, Note_off_c, 1, 89, 96
1, 43096, Note_on_c, 1, 85, 96
1, 43097, Note_off_c, 1, 85, 96
1, 43156, Note_on_c, 1, 87, 96
1, 43157, Note_off_c, 1, 87, 96
1, 43160, Note_on_c, 1, 77, 96
1, 43161, Note_off_c, 1, 77, 96
1, 43164, Note_on_c, 1, 82, 96
1, 43166, Note_off_c, 1, 82, 96
1, 43166, Note_on_c, 1, 91, 96
1, 43167, Note_off_c, 1, 91, 96
1, 43227, Note_on_c, 1, 89, 96
1, 43229, Note_off_c, 1, 89, 96
1, 43229, Note_on_c, 1, 47, 96
1, 43230, Note_off_c, 1, 47, 96
1, 43293, Note_on_c, 1, 77, 96
1, 43294, Note_off_c, 1, 77, 96
1, 43309, Note_on_c, 1, 80, 96
1, 43310, Note_off_c, 1, 80, 96
1, 43324, Note_on_c, 1, 86, 96
1, 43325, Note_off_c, 1, 86, 96
1, 43340, Note_on_c, 1, 81, 96
1, 43341, Note_off_c, 1, 81, 96
1, 43358, Note_on_c, 1, 48, 96
1, 43359, Note_off_c, 1, 48, 96
1, 43362, Note_on_c, 1, 84, 96
1, 43362, Note_on_c, 1, 60, 96
1, 43363, Note_off_c, 1, 84, 96
1, 43363, Note_off_c, 1, 60, 96
1, 43475, Note_on_c, 1, 65, 96
1, 43476, Note_off_c, 1, 65, 96
1, 43479, Note_on_c, 1, 60, 96
1, 43481, Note_off_c, 1, 60, 96
1, 43481, Note_on_c, 1, 57, 96
1, 43483, Note_off_c, 1, 57, 96
1, 43483, Note_on_c, 1, 84, 96
1, 43484, Note_off_c, 1, 84, 96
1, 43544, Note_on_c, 1, 81, 96
1, 43545, Note_off_c, 1, 81, 96
1, 43604, Note_on_c, 1, 43, 96
1, 43606, Note_off_c, 1, 43, 96
1, 43606, Note_on_c, 1, 84, 96
1, 43607, Note_off_c, 1, 84, 96
1, 43727, Note_on_c, 1, 83, 96
1, 43727, Note_on_c, 1, 57, 96
1, 43728, Note_off_c, 1, 83, 96
1, 43728, Note_off_c, 1, 57, 96
1, 43730, Note_on_c, 1, 62, 96
1, 43731, Note_off_c, 1, 62, 96
1, 43736, Note_on_c, 1, 78, 96
1, 43736, Note_on_c, 1, 66, 96
1, 43737, Note_off_c, 1, 78, 96
1, 43737, Note_off_c, 1, 66, 96
1, 43856, Note_on_c, 1, 83, 96
1, 43857, Note_off_c, 1, 83, 96
1, 44096, Note_on_c, 1, 76, 96
1, 44098, Note_off_c, 1, 76, 96
1, 44098, Note_on_c, 1, 85, 96
1, 44099, Note_off_c, 1, 85, 96
1, 44103, Note_on_c, 1, 73, 96
1, 44103, Note_on_c, 1, 55, 96
1, 44105, Note_off_c, 1, 73, 96
1, 44105, Note_off_c, 1, 55, 96
1, 44105, Note_on_c, 1, 83, 96
1, 44107, Note_off_c, 1, 83, 96
1, 44107, Note_on_c, 1, 52, 96
1, 44109, Note_off_c, 1, 52, 96
1, 44109, Note_on_c, 1, 59, 96
1, 44110, Note_off_c, 1, 59, 96
1, 44343, Note_on_c, 1, 38, 96
1, 44343, Note_on_c, 1, 50, 96
1, 44345, Note_off_c, 1, 38, 96
1, 44345, Note_off_c, 1, 50, 96
1, 44345, Note_on_c, 1, 86, 96
1, 44346, Note_off_c, 1, 86, 96
1, 44348, Note_on_c, 1, 74, 96
1, 44349, Note_off_c, 1, 74, 96
1, 44583, Note_on_c, 1, 74, 96
1, 44584, Note_off_c, 1, 74, 96
1, 44590, Note_on_c, 1, 78, 96
1, 44590, Note_on_c, 1, 58, 96
1, 44591, Note_off_c, 1, 78, 96
1, 44591, Note_off_c, 1, 58, 96
1, 44594, Note_on_c, 1, 64, 96
1, 44596, Note_off_c, 1, 64, 96
1, 44596, Note_on_c, 1, 52, 96
1, 44598, Note_off_c, 1, 52, 96
1, 44598, Note_on_c, 1, 60, 96
1, 44599, Note_off_c, 1, 60, 96
1, 44654, Note_on_c, 1, 78, 96
1, 44655, Note_off_c, 1, 78, 96
1, 44716, Note_on_c, 1, 43, 96
1, 44718, Note_off_c, 1, 43, 96
1, 44718, Note_on_c, 1, 81, 96
1, 44720, Note_off_c, 1, 81, 96
1, 44720, Note_on_c, 1, 76, 96
1, 44721, Note_off_c, 1, 76, 96
1, 44836, Note_on_c, 1, 59, 96
1, 44838, Note_off_c, 1, 59, 96
1, 44838, Note_on_c, 1, 67, 96
1, 44839, Note_off_c, 1, 67, 96
1, 44841, Note_on_c, 1, 79, 96
1, 44842, Note_off_c, 1, 79, 96
1, 44900, Note_on_c, 1, 74, 96
1, 44901, Note_off_c, 1, 74, 96
1, 44960, Note_on_c, 1, 55, 96
1, 44961, Note_off_c, 1, 55, 96
1, 44963, Note_on_c, 1, 91, 96
1, 44965, Note_off_c, 1, 91, 96
1, 44965, Note_on_c, 1, 64, 96
1, 44967, Note_off_c, 1, 64, 96
1, 44967, Note_on_c, 1, 59, 96
1, 44968, Note_off_c, 1, 59, 96
1, 45023, Note_on_c, 1, 79, 96
1, 45024, Note_off_c, 1, 79, 96
1, 45083, Note_on_c, 1, 81, 96
1, 45085, Note_off_c, 1, 81, 96
1, 45085, Note_on_c, 1, 43, 96
1, 45086, Note_off_c, 1, 43, 96
1, 45147, Note_on_c, 1, 71, 96
1, 45148, Note_off_c, 1, 71, 96
1, 45150, Note_on_c, 1, 83, 96
1, 45151, Note_off_c, 1, 83, 96
1, 45208, Note_on_c, 1, 42, 96
1, 45209, Note_off_c, 1, 42, 96
1, 45212, Note_on_c, 1, 54, 96
1, 45213, Note_off_c, 1, 54, 96
1, 45328, Note_on_c, 1, 47, 96
1, 45329, Note_off_c, 1, 47, 96
1, 45335, Note_on_c, 1, 81, 96
1, 45335, Note_on_c, 1, 74, 96
1, 45336, Note_off_c, 1, 81, 96
1, 45336, Note_off_c, 1, 74, 96
1, 45338, Note_on_c, 1, 69, 96
1, 45339, Note_off_c, 1, 69, 96
1, 45456, Note_on_c, 1, 77, 96
1, 45458, Note_off_c, 1, 77, 96
1, 45458, Note_on_c, 1, 69, 96
1, 45460, Note_off_c, 1, 69, 96
1, 45460, Note_on_c, 1, 89, 96
1, 45463, Note_off_c, 1, 89, 96
1, 45463, Note_on_c, 1, 81, 96
1, 45463, Note_on_c, 1, 50, 96
1, 45465, Note_off_c, 1, 81, 96
1, 45465, Note_off_c, 1, 50, 96
1, 45465, Note_on_c, 1, 38, 96
1, 45466, Note_off_c, 1, 38, 96
1, 45468, Note_on_c, 1, 59, 96
1, 45469, Note_off_c, 1, 59, 96
1, 45587, Note_on_c, 1, 77, 96
1, 45587, Note_on_c, 1, 81, 96
1, 45587, Note_on_c, 1, 59, 96
1, 45587, Note_on_c, 1, 55, 96
1, 45588, Note_off_c, 1, 77, 96
1, 45588, Note_off_c, 1, 81, 96
1, 45588, Note_off_c, 1, 59, 96
1, 45588, Note_off_c, 1, 55, 96
1, 45590, Note_on_c, 1, 71, 96
1, 45591, Note_off_c, 1, 71, 96
1, 45594, Note_on_c, 1, 74, 96
1, 45596, Note_off_c, 1, 74, 96
1, 45596, Note_on_c, 1, 65, 96
1, 45597, Note_off_c, 1, 65, 96
1, 45652, Note_on_c, 1, 79, 96
1, 45654, Note_off_c, 1, 79, 96
1, 45654, Note_on_c, 1, 74, 96
1, 45655, Note_off_c, 1, 74, 96
1, 45716, Note_on_c, 1, 65, 96
1, 45718, Note_off_c, 1, 65, 96
1, 45718, Note_on_c, 1, 55, 96
1, 45719, Note_off_c, 1, 55, 96
1, 45721, Note_on_c, 1, 59, 96
1, 45722, Note_off_c, 1, 59, 96
1, 45780, Note_on_c, 1, 77, 96
1, 45781, Note_off_c, 1, 77, 96
1, 45842, Note_on_c, 1, 79, 96
1, 45842, Note_on_c, 1, 62, 96
1, 45842, Note_on_c, 1, 74, 96
1, 45842, Note_on_c, 1, 59, 96
1, 45843, Note_off_c, 1, 79, 96
1, 45843, Note_off_c, 1, 62, 96
1, 45843, Note_off_c, 1, 74, 96
1, 45843, Note_off_c, 1, 59, 96
1, 45846, Note_on_c, 1, 55, 96
1, 45847, Note_off_c, 1, 55, 96
1, 45966, Note_on_c, 1, 60, 96
1, 45967, Note_off_c, 1, 60, 96
1, 45971, Note_on_c, 1, 77, 96
1, 45971, Note_on_c, 1, 55, 96
1, 45973, Note_off_c, 1, 77, 96
1, 45973, Note_off_c, 1, 55, 96
1, 45973, Note_on_c, 1, 72, 96
1, 45974, Note_off_c, 1, 72, 96
1, 46095, Note_on_c, 1, 74, 96
1, 46096, Note_off_c, 1, 74, 96
1, 46214, Note_on_c, 1, 43, 96
1, 46215, Note_off_c, 1, 43, 96
1, 46217, Note_on_c, 1, 77, 96
1, 46218, Note_off_c, 1, 77, 96
1, 46333, Note_on_c, 1, 74, 96
1, 46334, Note_off_c, 1, 74, 96
1, 46336, Note_on_c, 1, 71, 96
1, 46337, Note_off_c, 1, 71, 96
1, 46340, Note_on_c, 1, 50, 96
1, 46341, Note_off_c, 1, 50, 96
1, 46573, Note_on_c, 1, 65, 96
1, 46575, Note_off_c, 1, 65, 96
1, 46575, Note_on_c, 1, 55, 96
1, 46577, Note_off_c, 1, 55, 96
1, 46577, Note_on_c, 1, 74, 96
1, 46578, Note_off_c, 1, 74, 96
1, 46580, Note_on_c, 1, 43, 96
1, 46581, Note_off_c, 1, 43, 96
1, 46695, Note_on_c, 1, 67, 96
1, 46696, Note_off_c, 1, 67, 96
1, 46699, Note_on_c, 1, 74, 96
1, 46700, Note_off_c, 1, 74, 96
1, 46704, Note_on_c, 1, 71, 96
1, 46705, Note_off_c, 1, 71, 96
1, 46817, Note_on_c, 1, 70, 96
1, 46817, Note_on_c, 1, 74, 96
1, 46819, Note_off_c, 1, 70, 96
1, 46819, Note_off_c, 1, 74, 96
1, 46819, Note_on_c, 1, 59, 96
1, 46820, Note_off_c, 1, 59, 96
1, 46822, Note_on_c, 1, 65, 96
1, 46823, Note_off_c, 1, 65, 96
1, 46826, Note_on_c, 1, 55, 96
1, 46827, Note_off_c, 1, 55, 96
1, 47055, Note_on_c, 1, 52, 96
1, 47056, Note_off_c, 1, 52, 96
1, 47295, Note_on_c, 1, 43, 96
1, 47297, Note_off_c, 1, 43, 96
1, 47297, Note_on_c, 1, 60, 96
1, 47298, Note_off_c, 1, 60, 96
1, 47471, Note_on_c, 1, 59, 96
1, 47472, Note_off_c, 1, 59, 96
1, 47474, Note_on_c, 1, 71, 96
1, 47475, Note_off_c, 1, 71, 96
1, 47657, Note_on_c, 1, 66, 96
1, 47658, Note_off_c, 1, 66, 96
1, 47714, Note_on_c, 1, 60, 96
1, 47714, Note_on_c, 1, 52, 96
1, 47715, Note_off_c, 1, 60, 96
1, 47715, Note_off_c, 1, 52, 96
1, 47717, Note_on_c, 1, 55, 96
1, 47718, Note_off_c, 1, 55, 96
1, 47720, Note_on_c, 1, 64, 96
1, 47721, Note_off_c, 1, 64, 96
1, 47835, Note_on_c, 1, 62, 96
1, 47837, Note_off_c, 1, 62, 96
1, 47837, Note_on_c, 1, 66, 96
1, 47839, Note_off_c, 1, 66, 96
1, 47839, Note_on_c, 1, 45, 96
1, 47840, Note_off_c, 1, 45, 96
1, 47845, Note_on_c, 1, 38, 96
1, 47846, Note_off_c, 1, 38, 96
1, 47907, Note_on_c, 1, 64, 96
1, 47908, Note_off_c, 1, 64, 96
1, 47964, Note_on_c, 1, 38, 96
1, 47965, Note_off_c, 1, 38, 96
1, 47968, Note_on_c, 1, 66, 96
1, 47970, Note_off_c, 1, 66, 96
1, 47970, Note_on_c, 1, 60, 96
1, 47972, Note_off_c, 1, 60, 96
1, 47972, Note_on_c, 1, 50, 96
1, 47973, Note_off_c, 1, 50, 96
1, 48029, Note_on_c, 1, 66, 96
1, 48030, Note_off_c, 1, 66, 96
1, 48089, Note_on_c, 1, 66, 96
1, 48089, Note_on_c, 1, 38, 96
1, 48090, Note_off_c, 1, 66, 96
1, 48090, Note_off_c, 1, 38, 96
1, 48093, Note_on_c, 1, 50, 96
1, 48094, Note_off_c, 1, 50, 96
1, 48098, Note_on_c, 1, 72, 96
1, 48099, Note_off_c, 1, 72, 96
1, 48215, Note_on_c, 1, 74, 96
1, 48216, Note_off_c, 1, 74, 96
1, 48218, Note_on_c, 1, 54, 96
1, 48220, Note_off_c, 1, 54, 96
1, 48220, Note_on_c, 1, 60, 96
1, 48222, Note_off_c, 1, 60, 96
1, 48222, Note_on_c, 1, 62, 96
1, 48223, Note_off_c, 1, 62, 96
1, 48277, Note_on_c, 1, 74, 96
1, 48278, Note_off_c, 1, 74, 96
1, 48281, Note_on_c, 1, 66, 96
1, 48283, Note_off_c, 1, 66, 96
1, 48283, Note_on_c, 1, 69, 96
1, 48284, Note_off_c, 1, 69, 96
1, 48337, Note_on_c, 1, 69, 96
1, 48338, Note_off_c, 1, 69, 96
1, 48343, Note_on_c, 1, 74, 96
1, 48344, Note_off_c, 1, 74, 96
1, 48456, Note_on_c, 1, 50, 96
1, 48457, Note_off_c, 1, 50, 96
1, 48459, Note_on_c, 1, 71, 96
1, 48460, Note_off_c, 1, 71, 96
1, 48525, Note_on_c, 1, 73, 96
1, 48526, Note_off_c, 1, 73, 96
1, 48580, Note_on_c, 1, 78, 96
1, 48583, Note_off_c, 1, 78, 96
1, 48583, Note_on_c, 1, 45, 96
1, 48583, Note_on_c, 1, 57, 96
1, 48584, Note_off_c, 1, 45, 96
1, 48584, Note_off_c, 1, 57, 96
1, 48707, Note_on_c, 1, 67, 96
1, 48707, Note_on_c, 1, 72, 96
1, 48708, Note_off_c, 1, 67, 96
1, 48708, Note_off_c, 1, 72, 96
1, 48823, Note_on_c, 1, 62, 96
1, 48825, Note_off_c, 1, 62, 96
1, 48825, Note_on_c, 1, 60, 96
1, 48827, Note_off_c, 1, 60, 96
1, 48827, Note_on_c, 1, 57, 96
1, 48828, Note_off_c, 1, 57, 96
1, 48943, Note_on_c, 1, 47, 96
1, 48944, Note_off_c, 1, 47, 96
1, 48950, Note_on_c, 1, 74, 96
1, 48951, Note_off_c, 1, 74, 96
1, 49062, Note_on_c, 1, 50, 96
1, 49065, Note_off_c, 1, 50, 96
1, 49065, Note_on_c, 1, 67, 96
1, 49065, Note_on_c, 1, 38, 96
1, 49066, Note_off_c, 1, 67, 96
1, 49066, Note_off_c, 1, 38, 96
1, 49252, Note_on_c, 1, 74, 96
1, 49253, Note_off_c, 1, 74, 96
1, 49270, Note_on_c, 1, 72, 96
1, 49271, Note_off_c, 1, 72, 96
1, 49288, Note_on_c, 1, 76, 96
1, 49290, Note_off_c, 1, 76, 96
1, 49290, Note_on_c, 1, 42, 96
1, 49292, Note_off_c, 1, 42, 96
1, 49292, Note_on_c, 1, 54, 96
1, 49293, Note_off_c, 1, 54, 96
1, 49597, Note_on_c, 1, 38, 96
1, 49599, Note_off_c, 1, 38, 96
1, 49599, Note_on_c, 1, 50, 96
1, 49600, Note_off_c, 1, 50, 96
1, 49609, Note_on_c, 1, 76, 96
1, 49611, Note_off_c, 1, 76, 96
1, 49611, Note_on_c, 1, 84, 96
1, 49612, Note_off_c, 1, 84, 96
1, 49691, Note_on_c, 1, 88, 96
1, 49691, Note_on_c, 1, 82, 96
1, 49692, Note_off_c, 1, 88, 96
1, 49692, Note_off_c, 1, 82, 96
1, 49694, Note_on_c, 1, 79, 96
1, 49695, Note_off_c, 1, 79, 96
1, 49698, Note_on_c, 1, 76, 96
1, 49699, Note_off_c, 1, 76, 96
1, 49750, Note_on_c, 1, 38, 96
1, 49751, Note_off_c, 1, 38, 96
1, 49757, Note_on_c, 1, 50, 96
1, 49758, Note_off_c, 1, 50, 96
1, 49874, Note_on_c, 1, 60, 96
1, 49876, Note_off_c, 1, 60, 96
1, 49876, Note_on_c, 1, 66, 96
1, 49878, Note_off_c, 1, 66, 96
1, 49878, Note_on_c, 1, 62, 96
1, 49879, Note_off_c, 1, 62, 96
1, 49992, Note_on_c, 1, 72, 96
1, 49993, Note_off_c, 1, 72, 96
1, 49996, Note_on_c, 1, 50, 96
1, 49996, Note_on_c, 1, 54, 96
1, 49998, Note_off_c, 1, 50, 96
1, 49998, Note_off_c, 1, 54, 96
1, 49998, Note_on_c, 1, 78, 96
1, 50000, Note_off_c, 1, 78, 96
1, 50000, Note_on_c, 1, 86, 96
1, 50001, Note_off_c, 1, 86, 96
1, 50003, Note_on_c, 1, 60, 96
1, 50004, Note_off_c, 1, 60, 96
1, 50234, Note_on_c, 1, 86, 96
1, 50235, Note_off_c, 1, 86, 96
1, 50238, Note_on_c, 1, 74, 96
1, 50240, Note_off_c, 1, 74, 96
1, 50240, Note_on_c, 1, 43, 96
1, 50241, Note_off_c, 1, 43, 96
1, 50243, Note_on_c, 1, 79, 96
1, 50244, Note_off_c, 1, 79, 96
1, 50290, Note_on_c, 1, 76, 96
1, 50290, Note_on_c, 1, 88, 96
1, 50290, Note_on_c, 1, 79, 96
1, 50291, Note_off_c, 1, 76, 96
1, 50291, Note_off_c, 1, 88, 96
1, 50291, Note_off_c, 1, 79, 96
1, 50297, Note_on_c, 1, 48, 96
1, 50299, Note_off_c, 1, 48, 96
1, 50299, Note_on_c, 1, 79, 96
1, 50300, Note_off_c, 1, 79, 96
1, 50362, Note_on_c, 1, 76, 96
1, 50363, Note_off_c, 1, 76, 96
1, 50417, Note_on_c, 1, 67, 96
1, 50418, Note_off_c, 1, 67, 96
1, 50422, Note_on_c, 1, 79, 96
1, 50422, Note_on_c, 1, 84, 96
1, 50423, Note_off_c, 1, 79, 96
1, 50423, Note_off_c, 1, 84, 96
1, 50537, Note_on_c, 1, 73, 96
1, 50538, Note_off_c, 1, 73, 96
1, 50540, Note_on_c, 1, 64, 96
1, 50542, Note_off_c, 1, 64, 96
1, 50542, Note_on_c, 1, 82, 96
1, 50544, Note_off_c, 1, 82, 96
1, 50544, Note_on_c, 1, 82, 96
1, 50545, Note_off_c, 1, 82, 96
1, 50547, Note_on_c, 1, 70, 96
1, 50549, Note_off_c, 1, 70, 96
1, 50549, Note_on_c, 1, 78, 96
1, 50550, Note_off_c, 1, 78, 96
1, 50668, Note_on_c, 1, 63, 96
1, 50668, Note_on_c, 1, 54, 96
1, 50670, Note_off_c, 1, 63, 96
1, 50670, Note_off_c, 1, 54, 96
1, 50670, Note_on_c, 1, 57, 96
1, 50671, Note_off_c, 1, 57, 96
1, 50729, Note_on_c, 1, 73, 96
1, 50731, Note_off_c, 1, 73, 96
1, 50731, Note_on_c, 1, 85, 96
1, 50732, Note_off_c, 1, 85, 96
1, 50793, Note_on_c, 1, 48, 96
1, 50793, Note_on_c, 1, 58, 96
1, 50794, Note_off_c, 1, 48, 96
1, 50794, Note_off_c, 1, 58, 96
1, 50852, Note_on_c, 1, 82, 96
1, 50853, Note_off_c, 1, 82, 96
1, 50913, Note_on_c, 1, 83, 96
1, 50915, Note_off_c, 1, 83, 96
1, 50915, Note_on_c, 1, 65, 96
1, 50917, Note_off_c, 1, 65, 96
1, 50917, Note_on_c, 1, 59, 96
1, 50918, Note_off_c, 1, 59, 96
1, 50978, Note_on_c, 1, 84, 96
1, 50980, Note_off_c, 1, 84, 96
1, 50980, Note_on_c, 1, 72, 96
1, 50981, Note_off_c, 1, 72, 96
1, 51043, Note_on_c, 1, 86, 96
1, 51043, Note_on_c, 1, 77, 96
1, 51043, Note_on_c, 1, 53, 96
1, 51043, Note_on_c, 1, 55, 96
1, 51045, Note_off_c, 1, 86, 96
1, 51045, Note_off_c, 1, 77, 96
1, 51045, Note_off_c, 1, 53, 96
1, 51045, Note_off_c, 1, 55, 96
1, 51045, Note_on_c, 1, 59, 96
1, 51047, Note_off_c, 1, 59, 96
1, 51047, Note_on_c, 1, 89, 96
1, 51048, Note_off_c, 1, 89, 96
1, 51166, Note_on_c, 1, 59, 96
1, 51166, Note_on_c, 1, 65, 96
1, 51167, Note_off_c, 1, 59, 96
1, 51167, Note_off_c, 1, 65, 96
1, 51172, Note_on_c, 1, 86, 96
1, 51172, Note_on_c, 1, 55, 96
1, 51174, Note_off_c, 1, 86, 96
1, 51174, Note_off_c, 1, 55, 96
1, 51174, Note_on_c, 1, 74, 96
1, 51175, Note_off_c, 1, 74, 96
1, 51234, Note_on_c, 1, 53, 96
1, 51235, Note_off_c, 1, 53, 96
1, 51300, Note_on_c, 1, 76, 96
1, 51302, Note_off_c, 1, 76, 96
1, 51302, Note_on_c, 1, 81, 96
1, 51303, Note_off_c, 1, 81, 96
1, 51360, Note_on_c, 1, 57, 96
1, 51363, Note_off_c, 1, 57, 96
1, 51363, Note_on_c, 1, 64, 96
1, 51363, Note_on_c, 1, 60, 96
1, 51364, Note_off_c, 1, 64, 96
1, 51364, Note_off_c, 1, 60, 96
1, 51426, Note_on_c, 1, 76, 96
1, 51427, Note_off_c, 1, 76, 96
1, 51485, Note_on_c, 1, 57, 96
1, 51486, Note_off_c, 1, 57, 96
1, 51490, Note_on_c, 1, 60, 96
1, 51490, Note_on_c, 1, 64, 96
1, 51491, Note_off_c, 1, 60, 96
1, 51491, Note_off_c, 1, 64, 96
1, 51547, Note_on_c, 1, 76, 96
1, 51548, Note_off_c, 1, 76, 96
1, 51612, Note_on_c, 1, 57, 96
1, 51612, Note_on_c, 1, 60, 96
1, 51612, Note_on_c, 1, 52, 96
1, 51613, Note_off_c, 1, 57, 96
1, 51613, Note_off_c, 1, 60, 96
1, 51613, Note_off_c, 1, 52, 96
1, 51730, Note_on_c, 1, 41, 96
1, 51731, Note_off_c, 1, 41, 96
1, 51736, Note_on_c, 1, 72, 96
1, 51736, Note_on_c, 1, 53, 96
1, 51738, Note_off_c, 1, 72, 96
1, 51738, Note_off_c, 1, 53, 96
1, 51738, Note_on_c, 1, 69, 96
1, 51739, Note_off_c, 1, 69, 96
1, 51854, Note_on_c, 1, 72, 96
1, 51856, Note_off_c, 1, 72, 96
1, 51856, Note_on_c, 1, 44, 96
1, 51858, Note_off_c, 1, 44, 96
1, 51858, Note_on_c, 1, 75, 96
1, 51861, Note_off_c, 1, 75, 96
1, 51861, Note_on_c, 1, 68, 96
1, 51861, Note_on_c, 1, 32, 96
1, 51862, Note_off_c, 1, 68, 96
1, 51862, Note_off_c, 1, 32, 96
1, 51920, Note_on_c, 1, 68, 96
1, 51921, Note_off_c, 1, 68, 96
1, 51923, Note_on_c, 1, 80, 96
1, 51924, Note_off_c, 1, 80, 96
1, 51981, Note_on_c, 1, 46, 96
1, 51982, Note_off_c, 1, 46, 96
1, 52045, Note_on_c, 1, 80, 96
1, 52047, Note_off_c, 1, 80, 96
1, 52047, Note_on_c, 1, 77, 96
1, 52048, Note_off_c, 1, 77, 96
1, 52105, Note_on_c, 1, 51, 96
1, 52106, Note_off_c, 1, 51, 96
1, 52164, Note_on_c, 1, 84, 96
1, 52165, Note_off_c, 1, 84, 96
1, 52168, Note_on_c, 1, 72, 96
1, 52169, Note_off_c, 1, 72, 96
1, 52224, Note_on_c, 1, 39, 96
1, 52227, Note_off_c, 1, 39, 96
1, 52227, Note_on_c, 1, 75, 96
1, 52227, Note_on_c, 1, 51, 96
1, 52228, Note_off_c, 1, 75, 96
1, 52228, Note_off_c, 1, 51, 96
1, 52292, Note_on_c, 1, 76, 96
1, 52293, Note_off_c, 1, 76, 96
1, 52349, Note_on_c, 1, 80, 96
1, 52350, Note_off_c, 1, 80, 96
1, 52352, Note_on_c, 1, 56, 96
1, 52354, Note_off_c, 1, 56, 96
1, 52354, Note_on_c, 1, 44, 96
1, 52355, Note_off_c, 1, 44, 96
1, 52359, Note_on_c, 1, 68, 96
1, 52360, Note_off_c, 1, 68, 96
1, 52424, Note_on_c, 1, 88, 96
1, 52425, Note_off_c, 1, 88, 96
1, 52482, Note_on_c, 1, 83, 96
1, 52482, Note_on_c, 1, 60, 96
1, 52482, Note_on_c, 1, 48, 96
1, 52485, Note_off_c, 1, 83, 96
1, 52485, Note_off_c, 1, 60, 96
1, 52485, Note_off_c, 1, 48, 96
1, 52485, Note_on_c, 1, 87, 96
1, 52485, Note_on_c, 1, 63, 96
1, 52486, Note_off_c, 1, 87, 96
1, 52486, Note_off_c, 1, 63, 96
1, 52548, Note_on_c, 1, 87, 96
1, 52550, Note_off_c, 1, 87, 96
1, 52550, Note_on_c, 1, 75, 96
1, 52551, Note_off_c, 1, 75, 96
1, 52608, Note_on_c, 1, 99, 96
1, 52611, Note_off_c, 1, 99, 96
1, 52611, Note_on_c, 1, 89, 96
1, 52611, Note_on_c, 1, 60, 96
1, 52612, Note_off_c, 1, 89, 96
1, 52612, Note_off_c, 1, 60, 96
1, 52616, Note_on_c, 1, 53, 96
1, 52617, Note_off_c, 1, 53, 96
1, 52675, Note_on_c, 1, 87, 96
1, 52676, Note_off_c, 1, 87, 96
1, 52731, Note_on_c, 1, 66, 96
1, 52732, Note_off_c, 1, 66, 96
1, 52734, Note_on_c, 1, 56, 96
1, 52736, Note_off_c, 1, 56, 96
1, 52736, Note_on_c, 1, 60, 96
1, 52737, Note_off_c, 1, 60, 96
1, 52741, Note_on_c, 1, 90, 96
1, 52742, Note_off_c, 1, 90, 96
1, 52799, Note_on_c, 1, 85, 96
1, 52800, Note_off_c, 1, 85, 96
1, 52857, Note_on_c, 1, 60, 96
1, 52859, Note_off_c, 1, 60, 96
1, 52859, Note_on_c, 1, 66, 96
1, 52861, Note_off_c, 1, 66, 96
1, 52861, Note_on_c, 1, 80, 96
1, 52862, Note_off_c, 1, 80, 96
1, 52865, Note_on_c, 1, 56, 96
1, 52866, Note_off_c, 1, 56, 96
1, 52926, Note_on_c, 1, 72, 96
1, 52927, Note_off_c, 1, 72, 96
1, 52984, Note_on_c, 1, 72, 96
1, 52986, Note_off_c, 1, 72, 96
1, 52986, Note_on_c, 1, 78, 96
1, 52989, Note_off_c, 1, 78, 96
1, 52989, Note_on_c, 1, 45, 96
1, 52989, Note_on_c, 1, 33, 96
1, 52990, Note_off_c, 1, 45, 96
1, 52990, Note_off_c, 1, 33, 96
1, 52994, Note_on_c, 1, 85, 96
1, 52995, Note_off_c, 1, 85, 96
1, 52997, Note_on_c, 1, 66, 96
1, 52998, Note_off_c, 1, 66, 96
1, 53112, Note_on_c, 1, 76, 96
1, 53112, Note_on_c, 1, 57, 96
1, 53115, Note_off_c, 1, 76, 96
1, 53115, Note_off_c, 1, 57, 96
1, 53115, Note_on_c, 1, 79, 96
1, 53115, Note_on_c, 1, 79, 96
1, 53117, Note_off_c, 1, 79, 96
1, 53117, Note_off_c, 1, 79, 96
1, 53117, Note_on_c, 1, 61, 96
1, 53118, Note_off_c, 1, 61, 96
1, 53120, Note_on_c, 1, 55, 96
1, 53122, Note_off_c, 1, 55, 96
1, 53122, Note_on_c, 1, 83, 96
1, 53124, Note_off_c, 1, 83, 96
1, 53124, Note_on_c, 1, 88, 96
1, 53125, Note_off_c, 1, 88, 96
1, 53241, Note_on_c, 1, 83, 96
1, 53241, Note_on_c, 1, 71, 96
1, 53242, Note_off_c, 1, 83, 96
1, 53242, Note_off_c, 1, 71, 96
1, 53244, Note_on_c, 1, 75, 96
1, 53245, Note_off_c, 1, 75, 96
1, 53247, Note_on_c, 1, 78, 96
1, 53250, Note_off_c, 1, 78, 96
1, 53250, Note_on_c, 1, 75, 96
1, 53250, Note_on_c, 1, 63, 96
1, 53251, Note_off_c, 1, 75, 96
1, 53251, Note_off_c, 1, 63, 96
1, 53367, Note_on_c, 1, 38, 96
1, 53368, Note_off_c, 1, 38, 96
1, 53373, Note_on_c, 1, 50, 96
1, 53374, Note_off_c, 1, 50, 96
1, 53427, Note_on_c, 1, 86, 96
1, 53429, Note_off_c, 1, 86, 96
1, 53429, Note_on_c, 1, 74, 96
1, 53430, Note_off_c, 1, 74, 96
1, 53488, Note_on_c, 1, 89, 96
1, 53489, Note_off_c, 1, 89, 96
1, 53491, Note_on_c, 1, 81, 96
1, 53492, Note_off_c, 1, 81, 96
1, 53563, Note_on_c, 1, 73, 96
1, 53564, Note_off_c, 1, 73, 96
1, 53566, Note_on_c, 1, 85, 96
1, 53567, Note_off_c, 1, 85, 96
1, 53679, Note_on_c, 1, 54, 96
1, 53681, Note_off_c, 1, 54, 96
1, 53681, Note_on_c, 1, 60, 96
1, 53682, Note_off_c, 1, 60, 96
1, 53740, Note_on_c, 1, 86, 96
1, 53742, Note_off_c, 1, 86, 96
1, 53742, Note_on_c, 1, 74, 96
1, 53743, Note_off_c, 1, 74, 96
1, 53800, Note_on_c, 1, 50, 96
1, 53801, Note_off_c, 1, 50, 96
1, 53804, Note_on_c, 1, 38, 96
1, 53805, Note_off_c, 1, 38, 96
1, 53864, Note_on_c, 1, 86, 96
1, 53865, Note_off_c, 1, 86, 96
1, 53928, Note_on_c, 1, 70, 96
1, 53928, Note_on_c, 1, 91, 96
1, 53928, Note_on_c, 1, 82, 96
1, 53929, Note_off_c, 1, 70, 96
1, 53929, Note_off_c, 1, 91, 96
1, 53929, Note_off_c, 1, 82, 96
1, 53994, Note_on_c, 1, 65, 96
1, 53995, Note_off_c, 1, 65, 96
1, 54054, Note_on_c, 1, 86, 96
1, 54055, Note_off_c, 1, 86, 96
1, 54057, Note_on_c, 1, 74, 96
1, 54059, Note_off_c, 1, 74, 96
1, 54059, Note_on_c, 1, 58, 96
1, 54060, Note_off_c, 1, 58, 96
1, 54062, Note_on_c, 1, 46, 96
1, 54063, Note_off_c, 1, 46, 96
1, 54118, Note_on_c, 1, 75, 96
1, 54120, Note_off_c, 1, 75, 96
1, 54120, Note_on_c, 1, 82, 96
1, 54122, Note_off_c, 1, 82, 96
1, 54122, Note_on_c, 1, 87, 96
1, 54123, Note_off_c, 1, 87, 96
1, 54178, Note_on_c, 1, 89, 96
1, 54180, Note_off_c, 1, 89, 96
1, 54180, Note_on_c, 1, 33, 96
1, 54182, Note_off_c, 1, 33, 96
1, 54182, Note_on_c, 1, 45, 96
1, 54183, Note_off_c, 1, 45, 96
1, 54187, Note_on_c, 1, 85, 96
1, 54188, Note_off_c, 1, 85, 96
1, 54247, Note_on_c, 1, 77, 96
1, 54248, Note_off_c, 1, 77, 96
1, 54305, Note_on_c, 1, 86, 96
1, 54305, Note_on_c, 1, 43, 96
1, 54308, Note_off_c, 1, 86, 96
1, 54308, Note_off_c, 1, 43, 96
1, 54308, Note_on_c, 1, 74, 96
1, 54308, Note_on_c, 1, 55, 96
1, 54309, Note_off_c, 1, 74, 96
1, 54309, Note_off_c, 1, 55, 96
1, 54313, Note_on_c, 1, 59, 96
1, 54314, Note_off_c, 1, 59, 96
1, 54430, Note_on_c, 1, 50, 96
1, 54432, Note_off_c, 1, 50, 96
1, 54432, Note_on_c, 1, 77, 96
1, 54435, Note_off_c, 1, 77, 96
1, 54435, Note_on_c, 1, 86, 96
1, 54435, Note_on_c, 1, 81, 96
1, 54436, Note_off_c, 1, 86, 96
1, 54436, Note_off_c, 1, 81, 96
1, 54440, Note_on_c, 1, 62, 96
1, 54441, Note_off_c, 1, 62, 96
1, 54556, Note_on_c, 1, 55, 96
1, 54557, Note_off_c, 1, 55, 96
1, 54559, Note_on_c, 1, 43, 96
1, 54560, Note_off_c, 1, 43, 96
1, 54620, Note_on_c, 1, 75, 96
1, 54621, Note_off_c, 1, 75, 96
1, 54683, Note_on_c, 1, 86, 96
1, 54683, Note_on_c, 1, 79, 96
1, 54685, Note_off_c, 1, 86, 96
1, 54685, Note_off_c, 1, 79, 96
1, 54685, Note_on_c, 1, 41, 96
1, 54686, Note_off_c, 1, 41, 96
1, 54805, Note_on_c, 1, 77, 96
1, 54806, Note_off_c, 1, 77, 96
1, 54811, Note_on_c, 1, 80, 96
1, 54811, Note_on_c, 1, 41, 96
1, 54812, Note_off_c, 1, 80, 96
1, 54812, Note_off_c, 1, 41, 96
1, 54869, Note_on_c, 1, 77, 96
1, 54870, Note_off_c, 1, 77, 96
1, 54927, Note_on_c, 1, 72, 96
1, 54928, Note_off_c, 1, 72, 96
1, 54932, Note_on_c, 1, 53, 96
1, 54934, Note_off_c, 1, 53, 96
1, 54934, Note_on_c, 1, 77, 96
1, 54935, Note_off_c, 1, 77, 96
1, 54991, Note_on_c, 1, 81, 96
1, 54992, Note_off_c, 1, 81, 96
1, 55058, Note_on_c, 1, 76, 96
1, 55058, Note_on_c, 1, 65, 96
1, 55059, Note_off_c, 1, 76, 96
1, 55059, Note_off_c, 1, 65, 96
1, 55116, Note_on_c, 1, 77, 96
1, 55117, Note_off_c, 1, 77, 96
1, 55176, Note_on_c, 1, 75, 96
1, 55179, Note_off_c, 1, 75, 96
1, 55179, Note_on_c, 1, 81, 96
1, 55179, Note_on_c, 1, 48, 96
1, 55180, Note_off_c, 1, 81, 96
1, 55180, Note_off_c, 1, 48, 96
1, 55240, Note_on_c, 1, 75, 96
1, 55241, Note_off_c, 1, 75, 96
1, 55300, Note_on_c, 1, 75, 96
1, 55301, Note_off_c, 1, 75, 96
1, 55304, Note_on_c, 1, 48, 96
1, 55305, Note_off_c, 1, 48, 96
1, 55428, Note_on_c, 1, 65, 96
1, 55428, Note_on_c, 1, 57, 96
1, 55431, Note_off_c, 1, 65, 96
1, 55431, Note_off_c, 1, 57, 96
1, 55431, Note_on_c, 1, 77, 96
1, 55431, Note_on_c, 1, 60, 96
1, 55432, Note_off_c, 1, 77, 96
1, 55432, Note_off_c, 1, 60, 96
1, 55485, Note_on_c, 1, 74, 96
1, 55486, Note_off_c, 1, 74, 96
1, 55546, Note_on_c, 1, 65, 96
1, 55547, Note_off_c, 1, 65, 96
1, 55551, Note_on_c, 1, 57, 96
1, 55552, Note_off_c, 1, 57, 96
1, 55554, Note_on_c, 1, 60, 96
1, 55555, Note_off_c, 1, 60, 96
1, 55615, Note_on_c, 1, 78, 96
1, 55616, Note_off_c, 1, 78, 96
1, 55671, Note_on_c, 1, 55, 96
1, 55672, Note_off_c, 1, 55, 96
1, 55674, Note_on_c, 1, 64, 96
1, 55675, Note_off_c, 1, 64, 96
1, 55678, Note_on_c, 1, 60, 96
1, 55679, Note_off_c, 1, 60, 96
1, 55735, Note_on_c, 1, 66, 96
1, 55736, Note_off_c, 1, 66, 96
1, 55742, Note_on_c, 1, 66, 96
1, 55743, Note_off_c, 1, 66, 96
1, 55795, Note_on_c, 1, 60, 96
1, 55797, Note_off_c, 1, 60, 96
1, 55797, Note_on_c, 1, 76, 96
1, 55798, Note_off_c, 1, 76, 96
1, 55800, Note_on_c, 1, 57, 96
1, 55801, Note_off_c, 1, 57, 96
1, 55804, Note_on_c, 1, 50, 96
1, 55805, Note_off_c, 1, 50, 96
1, 55923, Note_on_c, 1, 74, 96
1, 55924, Note_off_c, 1, 74, 96
1, 56045, Note_on_c, 1, 50, 96
1, 56047, Note_off_c, 1, 50, 96
1, 56047, Note_on_c, 1, 74, 96
1, 56048, Note_off_c, 1, 74, 96
1, 56050, Note_on_c, 1, 38, 96
1, 56051, Note_off_c, 1, 38, 96
1, 56109, Note_on_c, 1, 66, 96
1, 56110, Note_off_c, 1, 66, 96
1, 56168, Note_on_c, 1, 60, 96
1, 56170, Note_off_c, 1, 60, 96
1, 56170, Note_on_c, 1, 54, 96
1, 56172, Note_off_c, 1, 54, 96
1, 56172, Note_on_c, 1, 62, 96
1, 56174, Note_off_c, 1, 62, 96
1, 56174, Note_on_c, 1, 69, 96
1, 56175, Note_off_c, 1, 69, 96
1, 56233, Note_on_c, 1, 70, 96
1, 56234, Note_off_c, 1, 70, 96
1, 56291, Note_on_c, 1, 62, 96
1, 56293, Note_off_c, 1, 62, 96
1, 56293, Note_on_c, 1, 50, 96
1, 56295, Note_off_c, 1, 50, 96
1, 56295, Note_on_c, 1, 38, 96
1, 56296, Note_off_c, 1, 38, 96
1, 56359, Note_on_c, 1, 74, 96
1, 56360, Note_off_c, 1, 74, 96
1, 56417, Note_on_c, 1, 43, 96
1, 56418, Note_off_c, 1, 43, 96
1, 56420, Note_on_c, 1, 71, 96
1, 56421, Note_off_c, 1, 71, 96
1, 56537, Note_on_c, 1, 76, 96
1, 56537, Note_on_c, 1, 55, 96
1, 56539, Note_off_c, 1, 76, 96
1, 56539, Note_off_c, 1, 55, 96
1, 56539, Note_on_c, 1, 59, 96
1, 56540, Note_off_c, 1, 59, 96
1, 56545, Note_on_c, 1, 50, 96
1, 56546, Note_off_c, 1, 50, 96
1, 56665, Note_on_c, 1, 45, 96
1, 56666, Note_off_c, 1, 45, 96
1, 56723, Note_on_c, 1, 76, 96
1, 56724, Note_off_c, 1, 76, 96
1, 56780, Note_on_c, 1, 74, 96
1, 56781, Note_off_c, 1, 74, 96
1, 56784, Note_on_c, 1, 50, 96
1, 56785, Note_off_c, 1, 50, 96
1, 56843, Note_on_c, 1, 78, 96
1, 56844, Note_off_c, 1, 78, 96
1, 56908, Note_on_c, 1, 78, 96
1, 56908, Note_on_c, 1, 50, 96
1, 56909, Note_off_c, 1, 78, 96
1, 56909, Note_off_c, 1, 50, 96
1, 56911, Note_on_c, 1, 60, 96
1, 56913, Note_off_c, 1, 60, 96
1, 56913, Note_on_c, 1, 54, 96
1, 56914, Note_off_c, 1, 54, 96
1, 56968, Note_on_c, 1, 76, 96
1, 56969, Note_off_c, 1, 76, 96
1, 56971, Note_on_c, 1, 67, 96
1, 56972, Note_off_c, 1, 67, 96
1, 57030, Note_on_c, 1, 59, 96
1, 57032, Note_off_c, 1, 59, 96
1, 57032, Note_on_c, 1, 55, 96
1, 57033, Note_off_c, 1, 55, 96
1, 57037, Note_on_c, 1, 50, 96
1, 57038, Note_off_c, 1, 50, 96
1, 57096, Note_on_c, 1, 76, 96
1, 57097, Note_off_c, 1, 76, 96
1, 57154, Note_on_c, 1, 43, 96
1, 57156, Note_off_c, 1, 43, 96
1, 57156, Note_on_c, 1, 69, 96
1, 57157, Note_off_c, 1, 69, 96
1, 57217, Note_on_c, 1, 74, 96
1, 57218, Note_off_c, 1, 74, 96
1, 57278, Note_on_c, 1, 38, 96
1, 57279, Note_off_c, 1, 38, 96
1, 57281, Note_on_c, 1, 66, 96
1, 57282, Note_off_c, 1, 66, 96
1, 57287, Note_on_c, 1, 50, 96
1, 57288, Note_off_c, 1, 50, 96
1, 57402, Note_on_c, 1, 50, 96
1, 57402, Note_on_c, 1, 60, 96
1, 57405, Note_off_c, 1, 50, 96
1, 57405, Note_off_c, 1, 60, 96
1, 57405, Note_on_c, 1, 72, 96
1, 57405, Note_on_c, 1, 54, 96
1, 57406, Note_off_c, 1, 72, 96
1, 57406, Note_off_c, 1, 54, 96
1, 57530, Note_on_c, 1, 74, 96
1, 57531, Note_off_c, 1, 74, 96
1, 57590, Note_on_c, 1, 67, 96
1, 57591, Note_off_c, 1, 67, 96
1, 57709, Note_on_c, 1, 76, 96
1, 57710, Note_off_c, 1, 76, 96
1, 57715, Note_on_c, 1, 64, 96
1, 57716, Note_off_c, 1, 64, 96
1, 57824, Note_on_c, 1, 50, 96
1, 57825, Note_off_c, 1, 50, 96
1, 57827, Note_on_c, 1, 69, 96
1, 57828, Note_off_c, 1, 69, 96
1, 57830, Note_on_c, 1, 60, 96
1, 57831, Note_off_c, 1, 60, 96
1, 57834, Note_on_c, 1, 54, 96
1, 57835, Note_off_c, 1, 54, 96
1, 57891, Note_on_c, 1, 76, 96
1, 57892, Note_off_c, 1, 76, 96
1, 57955, Note_on_c, 1, 59, 96
1, 57956, Note_off_c, 1, 59, 96
1, 57961, Note_on_c, 1, 79, 96
1, 57961, Note_on_c, 1, 62, 96
1, 57961, Note_on_c, 1, 55, 96
1, 57962, Note_off_c, 1, 79, 96
1, 57962, Note_off_c, 1, 62, 96
1, 57962, Note_off_c, 1, 55, 96
1, 58075, Note_on_c, 1, 45, 96
1, 58077, Note_off_c, 1, 45, 96
1, 58077, Note_on_c, 1, 71, 96
1, 58078, Note_off_c, 1, 71, 96
1, 58260, Note_on_c, 1, 76, 96
1, 58261, Note_off_c, 1, 76, 96
1, 58315, Note_on_c, 1, 81, 96
1, 58315, Note_on_c, 1, 43, 96
1, 58316, Note_off_c, 1, 81, 96
1, 58316, Note_off_c, 1, 43, 96
1, 58321, Note_on_c, 1, 69, 96
1, 58323, Note_off_c, 1, 69, 96
1, 58323, Note_on_c, 1, 55, 96
1, 58324, Note_off_c, 1, 55, 96
1, 58439, Note_on_c, 1, 70, 96
1, 58439, Note_on_c, 1, 55, 96
1, 58440, Note_off_c, 1, 70, 96
1, 58440, Note_off_c, 1, 55, 96
1, 58442, Note_on_c, 1, 43, 96
1, 58443, Note_off_c, 1, 43, 96
1, 58448, Note_on_c, 1, 76, 96
1, 58448, Note_on_c, 1, 64, 96
1, 58449, Note_off_c, 1, 76, 96
1, 58449, Note_off_c, 1, 64, 96
1, 58513, Note_on_c, 1, 73, 96
1, 58514, Note_off_c, 1, 73, 96
1, 58568, Note_on_c, 1, 65, 96
1, 58569, Note_off_c, 1, 65, 96
1, 58572, Note_on_c, 1, 59, 96
1, 58573, Note_off_c, 1, 59, 96
1, 58577, Note_on_c, 1, 74, 96
1, 58577, Note_on_c, 1, 55, 96
1, 58578, Note_off_c, 1, 74, 96
1, 58578, Note_off_c, 1, 55, 96
1, 58632, Note_on_c, 1, 74, 96
1, 58633, Note_off_c, 1, 74, 96
1, 58693, Note_on_c, 1, 59, 96
1, 58694, Note_off_c, 1, 59, 96
1, 58698, Note_on_c, 1, 67, 96
1, 58699, Note_off_c, 1, 67, 96
1, 58702, Note_on_c, 1, 74, 96
1, 58702, Note_on_c, 1, 47, 96
1, 58703, Note_off_c, 1, 74, 96
1, 58703, Note_off_c, 1, 47, 96
1, 58762, Note_on_c, 1, 75, 96
1, 58764, Note_off_c, 1, 75, 96
1, 58764, Note_on_c, 1, 71, 96
1, 58765, Note_off_c, 1, 71, 96
1, 58768, Note_on_c, 1, 79, 96
1, 58769, Note_off_c, 1, 79, 96
1, 58824, Note_on_c, 1, 50, 96
1, 58824, Note_on_c, 1, 55, 96
1, 58824, Note_on_c, 1, 59, 96
1, 58825, Note_off_c, 1, 50, 96
1, 58825, Note_off_c, 1, 55, 96
1, 58825, Note_off_c, 1, 59, 96
1, 58949, Note_on_c, 1, 74, 96
1, 58950, Note_off_c, 1, 74, 96
1, 58955, Note_on_c, 1, 55, 96
1, 58958, Note_off_c, 1, 55, 96
1, 58958, Note_on_c, 1, 83, 96
1, 58958, Note_on_c, 1, 43, 96
1, 58960, Note_off_c, 1, 83, 96
1, 58960, Note_off_c, 1, 43, 96
1, 58960, Note_on_c, 1, 71, 96
1, 58961, Note_off_c, 1, 71, 96
1, 59076, Note_on_c, 1, 38, 96
1, 59077, Note_off_c, 1, 38, 96
1, 59196, Note_on_c, 1, 74, 96
1, 59197, Note_off_c, 1, 74, 96
1, 59257, Note_on_c, 1, 65, 96
1, 59258, Note_off_c, 1, 65, 96
1, 59262, Note_on_c, 1, 76, 96
1, 59263, Note_off_c, 1, 76, 96
1, 59324, Note_on_c, 1, 43, 96
1, 59324, Note_on_c, 1, 55, 96
1, 59325, Note_off_c, 1, 43, 96
1, 59325, Note_off_c, 1, 55, 96
1, 59411, Note_on_c, 1, 74, 96
1, 59412, Note_off_c, 1, 74, 96
1, 59446, Note_on_c, 1, 67, 96
1, 59446, Note_on_c, 1, 65, 96
1, 59447, Note_off_c, 1, 67, 96
1, 59447, Note_off_c, 1, 65, 96
1, 59449, Note_on_c, 1, 59, 96
1, 59451, Note_off_c, 1, 59, 96
1, 59451, Note_on_c, 1, 55, 96
1, 59452, Note_off_c, 1, 55, 96
1, 59509, Note_on_c, 1, 69, 96
1, 59510, Note_off_c, 1, 69, 96
1, 59568, Note_on_c, 1, 66, 96
1, 59570, Note_off_c, 1, 66, 96
1, 59570, Note_on_c, 1, 69, 96
1, 59572, Note_off_c, 1, 69, 96
1, 59572, Note_on_c, 1, 59, 96
1, 59573, Note_off_c, 1, 59, 96
1, 59576, Note_on_c, 1, 55, 96
1, 59577, Note_off_c, 1, 55, 96
1, 59635, Note_on_c, 1, 66, 96
1, 59637, Note_off_c, 1, 66, 96
1, 59637, Note_on_c, 1, 72, 96
1, 59638, Note_off_c, 1, 72, 96
1, 59640, Note_on_c, 1, 76, 96
1, 59641, Note_off_c, 1, 76, 96
1, 59700, Note_on_c, 1, 43, 96
1, 59701, Note_off_c, 1, 43, 96
1, 59816, Note_on_c, 1, 50, 96
1, 59817, Note_off_c, 1, 50, 96
1, 59819, Note_on_c, 1, 55, 96
1, 59820, Note_off_c, 1, 55, 96
1, 59823, Note_on_c, 1, 76, 96
1, 59823, Note_on_c, 1, 59, 96
1, 59824, Note_off_c, 1, 76, 96
1, 59824, Note_off_c, 1, 59, 96
1, 59878, Note_on_c, 1, 78, 96
1, 59879, Note_off_c, 1, 78, 96
1, 59886, Note_on_c, 1, 75, 96
1, 59887, Note_off_c, 1, 75, 96
1, 59937, Note_on_c, 1, 60, 96
1, 59938, Note_off_c, 1, 60, 96
1, 59940, Note_on_c, 1, 79, 96
1, 59942, Note_off_c, 1, 79, 96
1, 59942, Note_on_c, 1, 55, 96
1, 59943, Note_off_c, 1, 55, 96
1, 59950, Note_on_c, 1, 64, 96
1, 59951, Note_off_c, 1, 64, 96
1, 60009, Note_on_c, 1, 81, 96
1, 60010, Note_off_c, 1, 81, 96
1, 60066, Note_on_c, 1, 66, 96
1, 60067, Note_off_c, 1, 66, 96
1, 60070, Note_on_c, 1, 59, 96
1, 60071, Note_off_c, 1, 59, 96
1, 60073, Note_on_c, 1, 79, 96
1, 60074, Note_off_c, 1, 79, 96
1, 60129, Note_on_c, 1, 76, 96
1, 60130, Note_off_c, 1, 76, 96
1, 60191, Note_on_c, 1, 65, 96
1, 60193, Note_off_c, 1, 65, 96
1, 60193, Note_on_c, 1, 74, 96
1, 60195, Note_off_c, 1, 74, 96
1, 60195, Note_on_c, 1, 59, 96
1, 60196, Note_off_c, 1, 59, 96
1, 60198, Note_on_c, 1, 55, 96
1, 60199, Note_off_c, 1, 55, 96
1, 60202, Note_on_c, 1, 67, 96
1, 60203, Note_off_c, 1, 67, 96
1, 60322, Note_on_c, 1, 79, 96
1, 60324, Note_off_c, 1, 79, 96
1, 60324, Note_on_c, 1, 74, 96
1, 60326, Note_off_c, 1, 74, 96
1, 60326, Note_on_c, 1, 59, 96
1, 60329, Note_off_c, 1, 59, 96
1, 60329, Note_on_c, 1, 55, 96
1, 60329, Note_on_c, 1, 65, 96
1, 60330, Note_off_c, 1, 55, 96
1, 60330, Note_off_c, 1, 65, 96
1, 60388, Note_on_c, 1, 78, 96
1, 60389, Note_off_c, 1, 78, 96
1, 60447, Note_on_c, 1, 59, 96
1, 60449, Note_off_c, 1, 59, 96
1, 60449, Note_on_c, 1, 53, 96
1, 60450, Note_off_c, 1, 53, 96
1, 60454, Note_on_c, 1, 55, 96
1, 60455, Note_off_c, 1, 55, 96
1, 60507, Note_on_c, 1, 71, 96
1, 60508, Note_off_c, 1, 71, 96
1, 60513, Note_on_c, 1, 65, 96
1, 60514, Note_off_c, 1, 65, 96
1, 60516, Note_on_c, 1, 74, 96
1, 60517, Note_off_c, 1, 74, 96
1, 60572, Note_on_c, 1, 55, 96
1, 60573, Note_off_c, 1, 55, 96
1, 60579, Note_on_c, 1, 53, 96
1, 60580, Note_off_c, 1, 53, 96
1, 60582, Note_on_c, 1, 64, 96
1, 60584, Note_off_c, 1, 64, 96
1, 60584, Note_on_c, 1, 59, 96
1, 60585, Note_off_c, 1, 59, 96
1, 60636, Note_on_c, 1, 77, 96
1, 60637, Note_off_c, 1, 77, 96
1, 60696, Note_on_c, 1, 48, 96
1, 60697, Note_off_c, 1, 48, 96
1, 60700, Note_on_c, 1, 36, 96
1, 60701, Note_off_c, 1, 36, 96
1, 60761, Note_on_c, 1, 71, 96
1, 60762, Note_off_c, 1, 71, 96
1, 60764, Note_on_c, 1, 81, 96
1, 60765, Note_off_c, 1, 81, 96
1, 60823, Note_on_c, 1, 65, 96
1, 60824, Note_off_c, 1, 65, 96
1, 60829, Note_on_c, 1, 59, 96
1, 60829, Note_on_c, 1, 55, 96
1, 60830, Note_off_c, 1, 59, 96
1, 60830, Note_off_c, 1, 55, 96
1, 60832, Note_on_c, 1, 79, 96
1, 60833, Note_off_c, 1, 79, 96
1, 60888, Note_on_c, 1, 76, 96
1, 60889, Note_off_c, 1, 76, 96
1, 60950, Note_on_c, 1, 43, 96
1, 60951, Note_off_c, 1, 43, 96
1, 60956, Note_on_c, 1, 76, 96
1, 60957, Note_off_c, 1, 76, 96
1, 61011, Note_on_c, 1, 76, 96
1, 61012, Note_off_c, 1, 76, 96
1, 61073, Note_on_c, 1, 76, 96
1, 61073, Note_on_c, 1, 43, 96
1, 61074, Note_off_c, 1, 76, 96
1, 61074, Note_off_c, 1, 43, 96
1, 61136, Note_on_c, 1, 76, 96
1, 61137, Note_off_c, 1, 76, 96
1, 61199, Note_on_c, 1, 79, 96
1, 61199, Note_on_c, 1, 55, 96
1, 61202, Note_off_c, 1, 79, 96
1, 61202, Note_off_c, 1, 55, 96
1, 61202, Note_on_c, 1, 60, 96
1, 61202, Note_on_c, 1, 64, 96
1, 61203, Note_off_c, 1, 60, 96
1, 61203, Note_off_c, 1, 64, 96
1, 61258, Note_on_c, 1, 76, 96
1, 61259, Note_off_c, 1, 76, 96
1, 61319, Note_on_c, 1, 52, 96
1, 61321, Note_off_c, 1, 52, 96
1, 61321, Note_on_c, 1, 76, 96
1, 61322, Note_off_c, 1, 76, 96
1, 61385, Note_on_c, 1, 74, 96
1, 61386, Note_off_c, 1, 74, 96
1, 61438, Note_on_c, 1, 40, 96
1, 61439, Note_off_c, 1, 40, 96
1, 61446, Note_on_c, 1, 76, 96
1, 61447, Note_off_c, 1, 76, 96
1, 61506, Note_on_c, 1, 71, 96
1, 61507, Note_off_c, 1, 71, 96
1, 61562, Note_on_c, 1, 71, 96
1, 61564, Note_off_c, 1, 71, 96
1, 61564, Note_on_c, 1, 76, 96
1, 61565, Note_off_c, 1, 76, 96
1, 61622, Note_on_c, 1, 72, 96
1, 61623, Note_off_c, 1, 72, 96
1, 61626, Note_on_c, 1, 72, 96
1, 61627, Note_off_c, 1, 72, 96
1, 61684, Note_on_c, 1, 48, 96
1, 61685, Note_off_c, 1, 48, 96
1, 61690, Note_on_c, 1, 36, 96
1, 61691, Note_off_c, 1, 36, 96
1, 61748, Note_on_c, 1, 72, 96
1, 61749, Note_off_c, 1, 72, 96
1, 61810, Note_on_c, 1, 55, 96
1, 61810, Note_on_c, 1, 60, 96
1, 61812, Note_off_c, 1, 55, 96
1, 61812, Note_off_c, 1, 60, 96
1, 61812, Note_on_c, 1, 72, 96
1, 61814, Note_off_c, 1, 72, 96
1, 61814, Note_on_c, 1, 64, 96
1, 61815, Note_off_c, 1, 64, 96
1, 61869, Note_on_c, 1, 76, 96
1, 61870, Note_off_c, 1, 76, 96
1, 61934, Note_on_c, 1, 48, 96
1, 61935, Note_off_c, 1, 48, 96
1, 61991, Note_on_c, 1, 74, 96
1, 61992, Note_off_c, 1, 74, 96
1, 62053, Note_on_c, 1, 65, 96
1, 62055, Note_off_c, 1, 65, 96
1, 62055, Note_on_c, 1, 50, 96
1, 62056, Note_off_c, 1, 50, 96
1, 62116, Note_on_c, 1, 77, 96
1, 62117, Note_off_c, 1, 77, 96
1, 62179, Note_on_c, 1, 36, 96
1, 62182, Note_off_c, 1, 36, 96
1, 62182, Note_on_c, 1, 48, 96
1, 62182, Note_on_c, 1, 72, 96
1, 62183, Note_off_c, 1, 48, 96
1, 62183, Note_off_c, 1, 72, 96
1, 62243, Note_on_c, 1, 78, 96
1, 62244, Note_off_c, 1, 78, 96
1, 62303, Note_on_c, 1, 76, 96
1, 62303, Note_on_c, 1, 55, 96
1, 62304, Note_off_c, 1, 76, 96
1, 62304, Note_off_c, 1, 55, 96
1, 62308, Note_on_c, 1, 60, 96
1, 62308, Note_on_c, 1, 64, 96
1, 62309, Note_off_c, 1, 60, 96
1, 62309, Note_off_c, 1, 64, 96
1, 62368, Note_on_c, 1, 72, 96
1, 62370, Note_off_c, 1, 72, 96
1, 62370, Note_on_c, 1, 75, 96
1, 62371, Note_off_c, 1, 75, 96
1, 62429, Note_on_c, 1, 72, 96
1, 62429, Note_on_c, 1, 52, 96
1, 62431, Note_off_c, 1, 72, 96
1, 62431, Note_off_c, 1, 52, 96
1, 62431, Note_on_c, 1, 48, 96
1, 62432, Note_off_c, 1, 48, 96
1, 62436, Note_on_c, 1, 60, 96
1, 62437, Note_off_c, 1, 60, 96
1, 62499, Note_on_c, 1, 69, 96
1, 62500, Note_off_c, 1, 69, 96
1, 62556, Note_on_c, 1, 76, 96
1, 62556, Note_on_c, 1, 52, 96
1, 62557, Note_off_c, 1, 76, 96
1, 62557, Note_off_c, 1, 52, 96
1, 62618, Note_on_c, 1, 73, 96
1, 62619, Note_off_c, 1, 73, 96
1, 62679, Note_on_c, 1, 64, 96
1, 62679, Note_on_c, 1, 70, 96
1, 62680, Note_off_c, 1, 64, 96
1, 62680, Note_off_c, 1, 70, 96
1, 62683, Note_on_c, 1, 48, 96
1, 62684, Note_off_c, 1, 48, 96
1, 62745, Note_on_c, 1, 72, 96
1, 62746, Note_off_c, 1, 72, 96
1, 62804, Note_on_c, 1, 48, 96
1, 62805, Note_off_c, 1, 48, 96
1, 62807, Note_on_c, 1, 74, 96
1, 62808, Note_off_c, 1, 74, 96
1, 62927, Note_on_c, 1, 72, 96
1, 62927, Note_on_c, 1, 36, 96
1, 62928, Note_off_c, 1, 72, 96
1, 62928, Note_off_c, 1, 36, 96
1, 62932, Note_on_c, 1, 84, 96
1, 62932, Note_on_c, 1, 76, 96
1, 62932, Note_on_c, 1, 48, 96
1, 62933, Note_off_c, 1, 84, 96
1, 62933, Note_off_c, 1, 76, 96
1, 62933, Note_off_c, 1, 48, 96
1, 63047, Note_on_c, 1, 79, 96
1, 63049, Note_off_c, 1, 79, 96
1, 63049, Note_on_c, 1, 76, 96
1, 63051, Note_off_c, 1, 76, 96
1, 63051, Note_on_c, 1, 84, 96
1, 63052, Note_off_c, 1, 84, 96
1, 63054, Note_on_c, 1, 72, 96
1, 63055, Note_off_c, 1, 72, 96
1, 63172, Note_on_c, 1, 43, 96
1, 63173, Note_off_c, 1, 43, 96
1, 63232, Note_on_c, 1, 81, 96
1, 63233, Note_off_c, 1, 81, 96
1, 63294, Note_on_c, 1, 55, 96
1, 63297, Note_off_c, 1, 55, 96
1, 63297, Note_on_c, 1, 76, 96
1, 63297, Note_on_c, 1, 64, 96
1, 63299, Note_off_c, 1, 76, 96
1, 63299, Note_off_c, 1, 64, 96
1, 63299, Note_on_c, 1, 60, 96
1, 63300, Note_off_c, 1, 60, 96
1, 63359, Note_on_c, 1, 76, 96
1, 63360, Note_off_c, 1, 76, 96
1, 63416, Note_on_c, 1, 72, 96
1, 63420, Note_off_c, 1, 72, 96
1, 63420, Note_on_c, 1, 75, 96
1, 63420, Note_on_c, 1, 55, 96
1, 63420, Note_on_c, 1, 43, 96
1, 63421, Note_off_c, 1, 75, 96
1, 63421, Note_off_c, 1, 55, 96
1, 63421, Note_off_c, 1, 43, 96
1, 63536, Note_on_c, 1, 67, 96
1, 63538, Note_off_c, 1, 67, 96
1, 63538, Note_on_c, 1, 52, 96
1, 63539, Note_off_c, 1, 52, 96
1, 63543, Note_on_c, 1, 79, 96
1, 63544, Note_off_c, 1, 79, 96
1, 63657, Note_on_c, 1, 70, 96
1, 63658, Note_off_c, 1, 70, 96
1, 63664, Note_on_c, 1, 76, 96
1, 63665, Note_off_c, 1, 76, 96
1, 63895, Note_on_c, 1, 65, 96
1, 63897, Note_off_c, 1, 65, 96
1, 63897, Note_on_c, 1, 70, 96
1, 63898, Note_off_c, 1, 70, 96
1, 63901, Note_on_c, 1, 74, 96
1, 63901, Note_on_c, 1, 70, 96
1, 63903, Note_off_c, 1, 74, 96
1, 63903, Note_off_c, 1, 70, 96
1, 63903, Note_on_c, 1, 62, 96
1, 63905, Note_off_c, 1, 62, 96
1, 63905, Note_on_c, 1, 46, 96
1, 63906, Note_off_c, 1, 46, 96
1, 64023, Note_on_c, 1, 72, 96
1, 64023, Note_on_c, 1, 52, 96
1, 64024, Note_off_c, 1, 72, 96
1, 64024, Note_off_c, 1, 52, 96
1, 64026, Note_on_c, 1, 40, 96
1, 64027, Note_off_c, 1, 40, 96
1, 64084, Note_on_c, 1, 74, 96
1, 64085, Note_off_c, 1, 74, 96
1, 64093, Note_on_c, 1, 43, 96
1, 64094, Note_off_c, 1, 43, 96
1, 64268, Note_on_c, 1, 71, 96
1, 64269, Note_off_c, 1, 71, 96
1, 64326, Note_on_c, 1, 58, 96
1, 64329, Note_off_c, 1, 58, 96
1, 64329, Note_on_c, 1, 81, 96
1, 64329, Note_on_c, 1, 60, 96
1, 64331, Note_off_c, 1, 81, 96
1, 64331, Note_off_c, 1, 60, 96
1, 64331, Note_on_c, 1, 76, 96
1, 64332, Note_off_c, 1, 76, 96
1, 64453, Note_on_c, 1, 74, 96
1, 64454, Note_off_c, 1, 74, 96
1, 64510, Note_on_c, 1, 41, 96
1, 64512, Note_off_c, 1, 41, 96
1, 64512, Note_on_c, 1, 53, 96
1, 64514, Note_off_c, 1, 53, 96
1, 64514, Note_on_c, 1, 77, 96
1, 64515, Note_off_c, 1, 77, 96
1, 64517, Note_on_c, 1, 69, 96
1, 64518, Note_off_c, 1, 69, 96
1, 64634, Note_on_c, 1, 72, 96
1, 64636, Note_off_c, 1, 72, 96
1, 64636, Note_on_c, 1, 41, 96
1, 64637, Note_off_c, 1, 41, 96
1, 64813, Note_on_c, 1, 72, 96
1, 64814, Note_off_c, 1, 72, 96
1, 64871, Note_on_c, 1, 60, 96
1, 64872, Note_off_c, 1, 60, 96
1, 64877, Note_on_c, 1, 65, 96
1, 64877, Note_on_c, 1, 57, 96
1, 64879, Note_off_c, 1, 65, 96
1, 64879, Note_off_c, 1, 57, 96
1, 64879, Note_on_c, 1, 69, 96
1, 64880, Note_off_c, 1, 69, 96
1, 64940, Note_on_c, 1, 69, 96
1, 64941, Note_off_c, 1, 69, 96
1, 64996, Note_on_c, 1, 50, 96
1, 64997, Note_off_c, 1, 50, 96
1, 64999, Note_on_c, 1, 71, 96
1, 65000, Note_off_c, 1, 71, 96
1, 65118, Note_on_c, 1, 50, 96
1, 65119, Note_off_c, 1, 50, 96
1, 65121, Note_on_c, 1, 72, 96
1, 65122, Note_off_c, 1, 72, 96
1, 65179, Note_on_c, 1, 67, 96
1, 65180, Note_off_c, 1, 67, 96
1, 65237, Note_on_c, 1, 67, 96
1, 65240, Note_off_c, 1, 67, 96
1, 65240, Note_on_c, 1, 66, 96
1, 65240, Note_on_c, 1, 55, 96
1, 65241, Note_off_c, 1, 66, 96
1, 65241, Note_off_c, 1, 55, 96
1, 65245, Note_on_c, 1, 72, 96
1, 65245, Note_on_c, 1, 64, 96
1, 65246, Note_off_c, 1, 72, 96
1, 65246, Note_off_c, 1, 64, 96
1, 65249, Note_on_c, 1, 60, 96
1, 65250, Note_off_c, 1, 60, 96
1, 65304, Note_on_c, 1, 81, 96
1, 65305, Note_off_c, 1, 81, 96
1, 65363, Note_on_c, 1, 79, 96
1, 65364, Note_off_c, 1, 79, 96
1, 65370, Note_on_c, 1, 55, 96
1, 65372, Note_off_c, 1, 55, 96
1, 65372, Note_on_c, 1, 43, 96
1, 65373, Note_off_c, 1, 43, 96
1, 65428, Note_on_c, 1, 79, 96
1, 65429, Note_off_c, 1, 79, 96
1, 65432, Note_on_c, 1, 67, 96
1, 65433, Note_off_c, 1, 67, 96
1, 65490, Note_on_c, 1, 67, 96
1, 65490, Note_on_c, 1, 71, 96
1, 65491, Note_off_c, 1, 67, 96
1, 65491, Note_off_c, 1, 71, 96
1, 65497, Note_on_c, 1, 79, 96
1, 65497, Note_on_c, 1, 76, 96
1, 65498, Note_off_c, 1, 79, 96
1, 65498, Note_off_c, 1, 76, 96
1, 65500, Note_on_c, 1, 43, 96
1, 65501, Note_off_c, 1, 43, 96
1, 65619, Note_on_c, 1, 43, 96
1, 65620, Note_off_c, 1, 43, 96
1, 65743, Note_on_c, 1, 76, 96
1, 65744, Note_off_c, 1, 76, 96
1, 65978, Note_on_c, 1, 82, 96
1, 65979, Note_off_c, 1, 82, 96
1, 65981, Note_on_c, 1, 52, 96
1, 65982, Note_off_c, 1, 52, 96
1, 65985, Note_on_c, 1, 70, 96
1, 65986, Note_off_c, 1, 70, 96
1, 66099, Note_on_c, 1, 72, 96
1, 66102, Note_off_c, 1, 72, 96
1, 66102, Note_on_c, 1, 76, 96
1, 66102, Note_on_c, 1, 84, 96
1, 66103, Note_off_c, 1, 76, 96
1, 66103, Note_off_c, 1, 84, 96
1, 66107, Note_on_c, 1, 48, 96
1, 66108, Note_off_c, 1, 48, 96
1, 66227, Note_on_c, 1, 74, 96
1, 66227, Note_on_c, 1, 60, 96
1, 66228, Note_off_c, 1, 74, 96
1, 66228, Note_off_c, 1, 60, 96
1, 66230, Note_on_c, 1, 77, 96
1, 66231, Note_off_c, 1, 77, 96
1, 66234, Note_on_c, 1, 86, 96
1, 66234, Note_on_c, 1, 57, 96
1, 66235, Note_off_c, 1, 86, 96
1, 66235, Note_off_c, 1, 57, 96
1, 66329, Note_on_c, 1, 81, 96
1, 66330, Note_off_c, 1, 81, 96
1, 66333, Note_on_c, 1, 69, 96
1, 66334, Note_off_c, 1, 69, 96
1, 66351, Note_on_c, 1, 84, 96
1, 66352, Note_off_c, 1, 84, 96
1, 66355, Note_on_c, 1, 60, 96
1, 66356, Note_off_c, 1, 60, 96
1, 66359, Note_on_c, 1, 72, 96
1, 66359, Note_on_c, 1, 78, 96
1, 66360, Note_off_c, 1, 72, 96
1, 66360, Note_off_c, 1, 78, 96
1, 66481, Note_on_c, 1, 85, 96
1, 66481, Note_on_c, 1, 74, 96
1, 66481, Note_on_c, 1, 78, 96
1, 66481, Note_on_c, 1, 81, 96
1, 66482, Note_off_c, 1, 85, 96
1, 66482, Note_off_c, 1, 74, 96
1, 66482, Note_off_c, 1, 78, 96
1, 66482, Note_off_c, 1, 81, 96
1, 66488, Note_on_c, 1, 72, 96
1, 66490, Note_off_c, 1, 72, 96
1, 66490, Note_on_c, 1, 54, 96
1, 66491, Note_off_c, 1, 54, 96
1, 66546, Note_on_c, 1, 59, 96
1, 66547, Note_off_c, 1, 59, 96
1, 66604, Note_on_c, 1, 78, 96
1, 66604, Note_on_c, 1, 90, 96
1, 66605, Note_off_c, 1, 78, 96
1, 66605, Note_off_c, 1, 90, 96
1, 66610, Note_on_c, 1, 87, 96
1, 66611, Note_off_c, 1, 87, 96
1, 66665, Note_on_c, 1, 91, 96
1, 66666, Note_off_c, 1, 91, 96
1, 66668, Note_on_c, 1, 77, 96
1, 66669, Note_off_c, 1, 77, 96
1, 66733, Note_on_c, 1, 91, 96
1, 66733, Note_on_c, 1, 79, 96
1, 66734, Note_off_c, 1, 91, 96
1, 66734, Note_off_c, 1, 79, 96
1, 66793, Note_on_c, 1, 59, 96
1, 66795, Note_off_c, 1, 59, 96
1, 66795, Note_on_c, 1, 50, 96
1, 66797, Note_off_c, 1, 50, 96
1, 66797, Note_on_c, 1, 55, 96
1, 66798, Note_off_c, 1, 55, 96
1, 66856, Note_on_c, 1, 78, 96
1, 66857, Note_off_c, 1, 78, 96
1, 66859, Note_on_c, 1, 81, 96
1, 66860, Note_off_c, 1, 81, 96
1, 66919, Note_on_c, 1, 54, 96
1, 66920, Note_off_c, 1, 54, 96
1, 66924, Note_on_c, 1, 75, 96
1, 66924, Note_on_c, 1, 60, 96
1, 66926, Note_off_c, 1, 75, 96
1, 66926, Note_off_c, 1, 60, 96
1, 66926, Note_on_c, 1, 50, 96
1, 66927, Note_off_c, 1, 50, 96
1, 66989, Note_on_c, 1, 78, 96
1, 66990, Note_off_c, 1, 78, 96
1, 67044, Note_on_c, 1, 80, 96
1, 67045, Note_off_c, 1, 80, 96
1, 67047, Note_on_c, 1, 57, 96
1, 67048, Note_off_c, 1, 57, 96
1, 67051, Note_on_c, 1, 54, 96
1, 67051, Note_on_c, 1, 60, 96
1, 67054, Note_off_c, 1, 54, 96
1, 67054, Note_off_c, 1, 60, 96
1, 67054, Note_on_c, 1, 74, 96
1, 67054, Note_on_c, 1, 63, 96
1, 67055, Note_off_c, 1, 74, 96
1, 67055, Note_off_c, 1, 63, 96
1, 67109, Note_on_c, 1, 79, 96
1, 67110, Note_off_c, 1, 79, 96
1, 67169, Note_on_c, 1, 54, 96
1, 67170, Note_off_c, 1, 54, 96
1, 67174, Note_on_c, 1, 74, 96
1, 67174, Note_on_c, 1, 50, 96
1, 67176, Note_off_c, 1, 74, 96
1, 67176, Note_off_c, 1, 50, 96
1, 67176, Note_on_c, 1, 60, 96
1, 67177, Note_off_c, 1, 60, 96
1, 67235, Note_on_c, 1, 76, 96
1, 67236, Note_off_c, 1, 76, 96
1, 67302, Note_on_c, 1, 76, 96
1, 67302, Note_on_c, 1, 64, 96
1, 67302, Note_on_c, 1, 54, 96
1, 67302, Note_on_c, 1, 60, 96
1, 67303, Note_off_c, 1, 76, 96
1, 67303, Note_off_c, 1, 64, 96
1, 67303, Note_off_c, 1, 54, 96
1, 67303, Note_off_c, 1, 60, 96
1, 67424, Note_on_c, 1, 38, 96
1, 67425, Note_off_c, 1, 38, 96
1, 67481, Note_on_c, 1, 64, 96
1, 67482, Note_off_c, 1, 64, 96
1, 67544, Note_on_c, 1, 66, 96
1, 67544, Note_on_c, 1, 45, 96
1, 67545, Note_off_c, 1, 66, 96
1, 67545, Note_off_c, 1, 45, 96
1, 67550, Note_on_c, 1, 57, 96
1, 67551, Note_off_c, 1, 57, 96
1, 67602, Note_on_c, 1, 72, 96
1, 67603, Note_off_c, 1, 72, 96
1, 67657, Note_on_c, 1, 66, 96
1, 67659, Note_off_c, 1, 66, 96
1, 67659, Note_on_c, 1, 50, 96
1, 67660, Note_off_c, 1, 50, 96
1, 67783, Note_on_c, 1, 45, 96
1, 67783, Note_on_c, 1, 33, 96
1, 67784, Note_off_c, 1, 45, 96
1, 67784, Note_off_c, 1, 33, 96
1, 67907, Note_on_c, 1, 54, 96
1, 67908, Note_off_c, 1, 54, 96
1, 67911, Note_on_c, 1, 66, 96
1, 67912, Note_off_c, 1, 66, 96
1, 68026, Note_on_c, 1, 50, 96
1, 68027, Note_off_c, 1, 50, 96
1, 68030, Note_on_c, 1, 60, 96
1, 68030, Note_on_c, 1, 54, 96
1, 68031, Note_off_c, 1, 60, 96
1, 68031, Note_off_c, 1, 54, 96
1, 68150, Note_on_c, 1, 43, 96
1, 68151, Note_off_c, 1, 43, 96
1, 68213, Note_on_c, 1, 79, 96
1, 68214, Note_off_c, 1, 79, 96
1, 68267, Note_on_c, 1, 79, 96
1, 68268, Note_off_c, 1, 79, 96
1, 68270, Note_on_c, 1, 38, 96
1, 68271, Note_off_c, 1, 38, 96
1, 68334, Note_on_c, 1, 74, 96
1, 68335, Note_off_c, 1, 74, 96
1, 68392, Note_on_c, 1, 49, 96
1, 68394, Note_off_c, 1, 49, 96
1, 68394, Note_on_c, 1, 37, 96
1, 68395, Note_off_c, 1, 37, 96
1, 68452, Note_on_c, 1, 79, 96
1, 68453, Note_off_c, 1, 79, 96
1, 68511, Note_on_c, 1, 45, 96
1, 68512, Note_off_c, 1, 45, 96
1, 68519, Note_on_c, 1, 74, 96
1, 68520, Note_off_c, 1, 74, 96
1, 68637, Note_on_c, 1, 74, 96
1, 68640, Note_off_c, 1, 74, 96
1, 68640, Note_on_c, 1, 66, 96
1, 68640, Note_on_c, 1, 60, 96
1, 68641, Note_off_c, 1, 66, 96
1, 68641, Note_off_c, 1, 60, 96
1, 68643, Note_on_c, 1, 57, 96
1, 68644, Note_off_c, 1, 57, 96
1, 68758, Note_on_c, 1, 50, 96
1, 68759, Note_off_c, 1, 50, 96
1, 68761, Note_on_c, 1, 38, 96
1, 68762, Note_off_c, 1, 38, 96
1, 68881, Note_on_c, 1, 60, 96
1, 68883, Note_off_c, 1, 60, 96
1, 68883, Note_on_c, 1, 78, 96
1, 68885, Note_off_c, 1, 78, 96
1, 68885, Note_on_c, 1, 54, 96
1, 68887, Note_off_c, 1, 54, 96
1, 68887, Note_on_c, 1, 50, 96
1, 68888, Note_off_c, 1, 50, 96
1, 68950, Note_on_c, 1, 74, 96
1, 68951, Note_off_c, 1, 74, 96
1, 69007, Note_on_c, 1, 43, 96
1, 69008, Note_off_c, 1, 43, 96
1, 69011, Note_on_c, 1, 74, 96
1, 69013, Note_off_c, 1, 74, 96
1, 69013, Note_on_c, 1, 55, 96
1, 69014, Note_off_c, 1, 55, 96
1, 69074, Note_on_c, 1, 71, 96
1, 69075, Note_off_c, 1, 71, 96
1, 69134, Note_on_c, 1, 43, 96
1, 69135, Note_off_c, 1, 43, 96
1, 69198, Note_on_c, 1, 79, 96
1, 69199, Note_off_c, 1, 79, 96
1, 69255, Note_on_c, 1, 43, 96
1, 69256, Note_off_c, 1, 43, 96
1, 69258, Note_on_c, 1, 71, 96
1, 69259, Note_off_c, 1, 71, 96
1, 69377, Note_on_c, 1, 69, 96
1, 69377, Note_on_c, 1, 45, 96
1, 69378, Note_off_c, 1, 69, 96
1, 69378, Note_off_c, 1, 45, 96
1, 69383, Note_on_c, 1, 74, 96
1, 69383, Note_on_c, 1, 65, 96
1, 69384, Note_off_c, 1, 74, 96
1, 69384, Note_off_c, 1, 65, 96
1, 69386, Note_on_c, 1, 57, 96
1, 69387, Note_off_c, 1, 57, 96
1, 69502, Note_on_c, 1, 41, 96
1, 69503, Note_off_c, 1, 41, 96
1, 69505, Note_on_c, 1, 52, 96
1, 69506, Note_off_c, 1, 52, 96
1, 69581, Note_on_c, 1, 78, 96
1, 69581, Note_on_c, 1, 74, 96
1, 69582, Note_off_c, 1, 78, 96
1, 69582, Note_off_c, 1, 74, 96
1, 69786, Note_on_c, 1, 74, 96
1, 69786, Note_on_c, 1, 33, 96
1, 69787, Note_off_c, 1, 74, 96
1, 69787, Note_off_c, 1, 33, 96
1, 69790, Note_on_c, 1, 45, 96
1, 69791, Note_off_c, 1, 45, 96
1, 69798, Note_on_c, 1, 81, 96
1, 69800, Note_off_c, 1, 81, 96
1, 69800, Note_on_c, 1, 78, 96
1, 69801, Note_off_c, 1, 78, 96
1, 69990, Note_on_c, 1, 77, 96
1, 69991, Note_off_c, 1, 77, 96
1, 70045, Note_on_c, 1, 45, 96
1, 70046, Note_off_c, 1, 45, 96
1, 70050, Note_on_c, 1, 74, 96
1, 70052, Note_off_c, 1, 74, 96
1, 70052, Note_on_c, 1, 86, 96
1, 70053, Note_off_c, 1, 86, 96
1, 70057, Note_on_c, 1, 78, 96
1, 70057, Note_on_c, 1, 81, 96
1, 70058, Note_off_c, 1, 78, 96
1, 70058, Note_off_c, 1, 81, 96
1, 70150, Note_on_c, 1, 78, 96
1, 70150, Note_on_c, 1, 86, 96
1, 70151, Note_off_c, 1, 78, 96
1, 70151, Note_off_c, 1, 86, 96
1, 70200, Note_on_c, 1, 78, 96
1, 70201, Note_off_c, 1, 78, 96
1, 70241, Note_on_c, 1, 81, 96
1, 70242, Note_off_c, 1, 81, 96
1, 70263, Note_on_c, 1, 45, 96
1, 70264, Note_off_c, 1, 45, 96
1, 70268, Note_on_c, 1, 76, 96
1, 70268, Note_on_c, 1, 72, 96
1, 70269, Note_off_c, 1, 76, 96
1, 70269, Note_off_c, 1, 72, 96
1, 70272, Note_on_c, 1, 66, 96
1, 70273, Note_off_c, 1, 66, 96
1, 70382, Note_on_c, 1, 38, 96
1, 70382, Note_on_c, 1, 50, 96
1, 70383, Note_off_c, 1, 38, 96
1, 70383, Note_off_c, 1, 50, 96
1, 70386, Note_on_c, 1, 50, 96
1, 70387, Note_off_c, 1, 50, 96
1, 70389, Note_on_c, 1, 72, 96
1, 70390, Note_off_c, 1, 72, 96
1, 70392, Note_on_c, 1, 54, 96
1, 70394, Note_off_c, 1, 54, 96
1, 70394, Note_on_c, 1, 66, 96
1, 70395, Note_off_c, 1, 66, 96
1, 70509, Note_on_c, 1, 75, 96
1, 70510, Note_off_c, 1, 75, 96
1, 70515, Note_on_c, 1, 57, 96
1, 70520, Note_off_c, 1, 57, 96
1, 70520, Note_on_c, 1, 78, 96
1, 70520, Note_on_c, 1, 81, 96
1, 70520, Note_on_c, 1, 51, 96
1, 70520, Note_on_c, 1, 63, 96
1, 70521, Note_off_c, 1, 78, 96
1, 70521, Note_off_c, 1, 81, 96
1, 70521, Note_off_c, 1, 51, 96
1, 70521, Note_off_c, 1, 63, 96
1, 70634, Note_on_c, 1, 67, 96
1, 70635, Note_off_c, 1, 67, 96
1, 70638, Note_on_c, 1, 79, 96
1, 70639, Note_off_c, 1, 79, 96
1, 70874, Note_on_c, 1, 55, 96
1, 70875, Note_off_c, 1, 55, 96
1, 70877, Note_on_c, 1, 43, 96
1, 70878, Note_off_c, 1, 43, 96
1, 70939, Note_on_c, 1, 76, 96
1, 70940, Note_off_c, 1, 76, 96
1, 71001, Note_on_c, 1, 59, 96
1, 71001, Note_on_c, 1, 55, 96
1, 71003, Note_off_c, 1, 59, 96
1, 71003, Note_off_c, 1, 55, 96
1, 71003, Note_on_c, 1, 50, 96
1, 71004, Note_off_c, 1, 50, 96
1, 71064, Note_on_c, 1, 71, 96
1, 71065, Note_off_c, 1, 71, 96
1, 71118, Note_on_c, 1, 59, 96
1, 71119, Note_off_c, 1, 59, 96
1, 71122, Note_on_c, 1, 69, 96
1, 71122, Note_on_c, 1, 55, 96
1, 71123, Note_off_c, 1, 69, 96
1, 71123, Note_off_c, 1, 55, 96
1, 71128, Note_on_c, 1, 65, 96
1, 71129, Note_off_c, 1, 65, 96
1, 71187, Note_on_c, 1, 73, 96
1, 71188, Note_off_c, 1, 73, 96
1, 71245, Note_on_c, 1, 66, 96
1, 71247, Note_off_c, 1, 66, 96
1, 71247, Note_on_c, 1, 62, 96
1, 71249, Note_off_c, 1, 62, 96
1, 71249, Note_on_c, 1, 60, 96
1, 71251, Note_off_c, 1, 60, 96
1, 71251, Note_on_c, 1, 74, 96
1, 71252, Note_off_c, 1, 74, 96
1, 71309, Note_on_c, 1, 67, 96
1, 71310, Note_off_c, 1, 67, 96
1, 71371, Note_on_c, 1, 67, 96
1, 71372, Note_off_c, 1, 67, 96
1, 71374, Note_on_c, 1, 43, 96
1, 71375, Note_off_c, 1, 43, 96
1, 71495, Note_on_c, 1, 62, 96
1, 71496, Note_off_c, 1, 62, 96
1, 71499, Note_on_c, 1, 66, 96
1, 71501, Note_off_c, 1, 66, 96
1, 71501, Note_on_c, 1, 69, 96
1, 71502, Note_off_c, 1, 69, 96
1, 71615, Note_on_c, 1, 75, 96
1, 71616, Note_off_c, 1, 75, 96
1, 71620, Note_on_c, 1, 63, 96
1, 71621, Note_off_c, 1, 63, 96
1, 71741, Note_on_c, 1, 67, 96
1, 71742, Note_off_c, 1, 67, 96
1, 71802, Note_on_c, 1, 50, 96
1, 71804, Note_off_c, 1, 50, 96
1, 71804, Note_on_c, 1, 55, 96
1, 71806, Note_off_c, 1, 55, 96
1, 71806, Note_on_c, 1, 59, 96
1, 71807, Note_off_c, 1, 59, 96
1, 71862, Note_on_c, 1, 71, 96
1, 71863, Note_off_c, 1, 71, 96
1, 71920, Note_on_c, 1, 62, 96
1, 71922, Note_off_c, 1, 62, 96
1, 71922, Note_on_c, 1, 59, 96
1, 71924, Note_off_c, 1, 59, 96
1, 71924, Note_on_c, 1, 67, 96
1, 71926, Note_off_c, 1, 67, 96
1, 71926, Note_on_c, 1, 55, 96
1, 71927, Note_off_c, 1, 55, 96
1, 72043, Note_on_c, 1, 38, 96
1, 72044, Note_off_c, 1, 38, 96
1, 72228, Note_on_c, 1, 67, 96
1, 72231, Note_off_c, 1, 67, 96
1, 72231, Note_on_c, 1, 59, 96
1, 72231, Note_on_c, 1, 55, 96
1, 72232, Note_off_c, 1, 59, 96
1, 72232, Note_off_c, 1, 55, 96
1, 72347, Note_on_c, 1, 62, 96
1, 72347, Note_on_c, 1, 62, 96
1, 72348, Note_off_c, 1, 62, 96
1, 72348, Note_off_c, 1, 62, 96
1, 72355, Note_on_c, 1, 67, 96
1, 72356, Note_off_c, 1, 67, 96
1, 72358, Note_on_c, 1, 55, 96
1, 72359, Note_off_c, 1, 55, 96
1, 72474, Note_on_c, 1, 65, 96
1, 72474, Note_on_c, 1, 43, 96
1, 72475, Note_off_c, 1, 65, 96
1, 72475, Note_off_c, 1, 43, 96
1, 72556, Note_on_c, 1, 50, 96
1, 72556, Note_on_c, 1, 60, 96
1, 72557, Note_off_c, 1, 50, 96
1, 72557, Note_off_c, 1, 60, 96
1, 72620, Note_on_c, 1, 71, 96
1, 72621, Note_off_c, 1, 71, 96
1, 72677, Note_on_c, 1, 71, 96
1, 72678, Note_off_c, 1, 71, 96
1, 72682, Note_on_c, 1, 55, 96
1, 72683, Note_off_c, 1, 55, 96
1, 72686, Note_on_c, 1, 59, 96
1, 72686, Note_on_c, 1, 65, 96
1, 72687, Note_off_c, 1, 59, 96
1, 72687, Note_off_c, 1, 65, 96
1, 72804, Note_on_c, 1, 62, 96
1, 72804, Note_on_c, 1, 59, 96
1, 72805, Note_off_c, 1, 62, 96
1, 72805, Note_off_c, 1, 59, 96
1, 72807, Note_on_c, 1, 53, 96
1, 72808, Note_off_c, 1, 53, 96
1, 72810, Note_on_c, 1, 71, 96
1, 72811, Note_off_c, 1, 71, 96
1, 72926, Note_on_c, 1, 66, 96
1, 72928, Note_off_c, 1, 66, 96
1, 72928, Note_on_c, 1, 63, 96
1, 72930, Note_off_c, 1, 63, 96
1, 72930, Note_on_c, 1, 58, 96
1, 72931, Note_off_c, 1, 58, 96
1, 72933, Note_on_c, 1, 70, 96
1, 72934, Note_off_c, 1, 70, 96
1, 73052, Note_on_c, 1, 58, 96
1, 73052, Note_on_c, 1, 55, 96
1, 73054, Note_off_c, 1, 58, 96
1, 73054, Note_off_c, 1, 55, 96
1, 73054, Note_on_c, 1, 74, 96
1, 73056, Note_off_c, 1, 74, 96
1, 73056, Note_on_c, 1, 67, 96
1, 73057, Note_off_c, 1, 67, 96
1, 73174, Note_on_c, 1, 70, 96
1, 73174, Note_on_c, 1, 55, 96
1, 73175, Note_off_c, 1, 70, 96
1, 73175, Note_off_c, 1, 55, 96
1, 73178, Note_on_c, 1, 50, 96
1, 73180, Note_off_c, 1, 50, 96
1, 73180, Note_on_c, 1, 43, 96
1, 73181, Note_off_c, 1, 43, 96
1, 73237, Note_on_c, 1, 67, 96
1, 73238, Note_off_c, 1, 67, 96
1, 73240, Note_on_c, 1, 64, 96
1, 73241, Note_off_c, 1, 64, 96
1, 73300, Note_on_c, 1, 74, 96
1, 73302, Note_off_c, 1, 74, 96
1, 73302, Note_on_c, 1, 50, 96
1, 73303, Note_off_c, 1, 50, 96
1, 73307, Note_on_c, 1, 55, 96
1, 73307, Note_on_c, 1, 59, 96
1, 73308, Note_off_c, 1, 55, 96
1, 73308, Note_off_c, 1, 59, 96
1, 73368, Note_on_c, 1, 76, 96
1, 73369, Note_off_c, 1, 76, 96
1, 73429, Note_on_c, 1, 71, 96
1, 73430, Note_off_c, 1, 71, 96
1, 73432, Note_on_c, 1, 38, 96
1, 73433, Note_off_c, 1, 38, 96
1, 73551, Note_on_c, 1, 71, 96
1, 73553, Note_off_c, 1, 71, 96
1, 73553, Note_on_c, 1, 67, 96
1, 73555, Note_off_c, 1, 67, 96
1, 73555, Note_on_c, 1, 79, 96
1, 73556, Note_off_c, 1, 79, 96
1, 73674, Note_on_c, 1, 83, 96
1, 73674, Note_on_c, 1, 71, 96
1, 73679, Note_off_c, 1, 83, 96
1, 73679, Note_off_c, 1, 71, 96
1, 73679, Note_on_c, 1, 76, 96
1, 73679, Note_on_c, 1, 64, 96
1, 73679, Note_on_c, 1, 59, 96
1, 73679, Note_on_c, 1, 55, 96
1, 73680, Note_off_c, 1, 76, 96
1, 73680, Note_off_c, 1, 64, 96
1, 73680, Note_off_c, 1, 59, 96
1, 73680, Note_off_c, 1, 55, 96
1, 73683, Note_on_c, 1, 53, 96
1, 73684, Note_off_c, 1, 53, 96
1, 73739, Note_on_c, 1, 67, 96
1, 73742, Note_off_c, 1, 67, 96
1, 73742, Note_on_c, 1, 71, 96
1, 73742, Note_on_c, 1, 79, 96
1, 73744, Note_off_c, 1, 71, 96
1, 73744, Note_off_c, 1, 79, 96
1, 73744, Note_on_c, 1, 74, 96
1, 73745, Note_off_c, 1, 74, 96
1, 73803, Note_on_c, 1, 43, 96
1, 73804, Note_off_c, 1, 43, 96
1, 73917, Note_on_c, 1, 55, 96
1, 73918, Note_off_c, 1, 55, 96
1, 73920, Note_on_c, 1, 85, 96
1, 73922, Note_off_c, 1, 85, 96
1, 73922, Note_on_c, 1, 73, 96
1, 73924, Note_off_c, 1, 73, 96
1, 73924, Note_on_c, 1, 59, 96
1, 73926, Note_off_c, 1, 59, 96
1, 73926, Note_on_c, 1, 65, 96
1, 73927, Note_off_c, 1, 65, 96
1, 73984, Note_on_c, 1, 73, 96
1, 73986, Note_off_c, 1, 73, 96
1, 73986, Note_on_c, 1, 85, 96
1, 73987, Note_off_c, 1, 85, 96
1, 74045, Note_on_c, 1, 55, 96
1, 74046, Note_off_c, 1, 55, 96
1, 74050, Note_on_c, 1, 43, 96
1, 74051, Note_off_c, 1, 43, 96
1, 74168, Note_on_c, 1, 83, 96
1, 74168, Note_on_c, 1, 38, 96
1, 74169, Note_off_c, 1, 83, 96
1, 74169, Note_off_c, 1, 38, 96
1, 74172, Note_on_c, 1, 77, 96
1, 74172, Note_on_c, 1, 50, 96
1, 74174, Note_off_c, 1, 77, 96
1, 74174, Note_off_c, 1, 50, 96
1, 74174, Note_on_c, 1, 74, 96
1, 74175, Note_off_c, 1, 74, 96
1, 74177, Note_on_c, 1, 86, 96
1, 74178, Note_off_c, 1, 86, 96
1, 74296, Note_on_c, 1, 65, 96
1, 74299, Note_off_c, 1, 65, 96
1, 74299, Note_on_c, 1, 59, 96
1, 74299, Note_on_c, 1, 55, 96
1, 74300, Note_off_c, 1, 59, 96
1, 74300, Note_off_c, 1, 55, 96
1, 74540, Note_on_c, 1, 77, 96
1, 74542, Note_off_c, 1, 77, 96
1, 74542, Note_on_c, 1, 55, 96
1, 74544, Note_off_c, 1, 55, 96
1, 74544, Note_on_c, 1, 43, 96
1, 74545, Note_off_c, 1, 43, 96
1, 74548, Note_on_c, 1, 86, 96
1, 74548, Note_on_c, 1, 74, 96
1, 74549, Note_off_c, 1, 86, 96
1, 74549, Note_off_c, 1, 74, 96
1, 74661, Note_on_c, 1, 43, 96
1, 74662, Note_off_c, 1, 43, 96
1, 74665, Note_on_c, 1, 67, 96
1, 74666, Note_off_c, 1, 67, 96
1, 74670, Note_on_c, 1, 76, 96
1, 74671, Note_off_c, 1, 76, 96
1, 74673, Note_on_c, 1, 71, 96
1, 74674, Note_off_c, 1, 71, 96
1, 74790, Note_on_c, 1, 59, 96
1, 74791, Note_off_c, 1, 59, 96
1, 74793, Note_on_c, 1, 72, 96
1, 74794, Note_off_c, 1, 72, 96
1, 74798, Note_on_c, 1, 65, 96
1, 74798, Note_on_c, 1, 55, 96
1, 74799, Note_off_c, 1, 65, 96
1, 74799, Note_off_c, 1, 55, 96
1, 74917, Note_on_c, 1, 83, 96
1, 74918, Note_off_c, 1, 83, 96
1, 74920, Note_on_c, 1, 71, 96
1, 74922, Note_off_c, 1, 71, 96
1, 74922, Note_on_c, 1, 77, 96
1, 74923, Note_off_c, 1, 77, 96
1, 75046, Note_on_c, 1, 82, 96
1, 75047, Note_off_c, 1, 82, 96
1, 75128, Note_on_c, 1, 74, 96
1, 75129, Note_off_c, 1, 74, 96
1, 75239, Note_on_c, 1, 76, 96
1, 75240, Note_off_c, 1, 76, 96
1, 75244, Note_on_c, 1, 84, 96
1, 75245, Note_off_c, 1, 84, 96
1, 75359, Note_on_c, 1, 60, 96
1, 75361, Note_off_c, 1, 60, 96
1, 75361, Note_on_c, 1, 74, 96
1, 75362, Note_off_c, 1, 74, 96
1, 75364, Note_on_c, 1, 64, 96
1, 75365, Note_off_c, 1, 64, 96
1, 75367, Note_on_c, 1, 86, 96
1, 75369, Note_off_c, 1, 86, 96
1, 75369, Note_on_c, 1, 79, 96
1, 75370, Note_off_c, 1, 79, 96
1, 75426, Note_on_c, 1, 70, 96
1, 75428, Note_off_c, 1, 70, 96
1, 75428, Note_on_c, 1, 72, 96
1, 75429, Note_off_c, 1, 72, 96
1, 75433, Note_on_c, 1, 82, 96
1, 75434, Note_off_c, 1, 82, 96
1, 75489, Note_on_c, 1, 58, 96
1, 75491, Note_off_c, 1, 58, 96
1, 75491, Note_on_c, 1, 82, 96
1, 75493, Note_off_c, 1, 82, 96
1, 75493, Note_on_c, 1, 72, 96
1, 75496, Note_off_c, 1, 72, 96
1, 75496, Note_on_c, 1, 84, 96
1, 75496, Note_on_c, 1, 60, 96
1, 75498, Note_off_c, 1, 84, 96
1, 75498, Note_off_c, 1, 60, 96
1, 75498, Note_on_c, 1, 64, 96
1, 75499, Note_off_c, 1, 64, 96
1, 75618, Note_on_c, 1, 74, 96
1, 75618, Note_on_c, 1, 86, 96
1, 75619, Note_off_c, 1, 74, 96
1, 75619, Note_off_c, 1, 86, 96
1, 75621, Note_on_c, 1, 82, 96
1, 75624, Note_off_c, 1, 82, 96
1, 75624, Note_on_c, 1, 94, 96
1, 75624, Note_on_c, 1, 53, 96
1, 75626, Note_off_c, 1, 94, 96
1, 75626, Note_off_c, 1, 53, 96
1, 75626, Note_on_c, 1, 37, 96
1, 75627, Note_off_c, 1, 37, 96
1, 75689, Note_on_c, 1, 82, 96
1, 75690, Note_off_c, 1, 82, 96
1, 75747, Note_on_c, 1, 77, 96
1, 75750, Note_off_c, 1, 77, 96
1, 75750, Note_on_c, 1, 82, 96
1, 75750, Note_on_c, 1, 80, 96
1, 75753, Note_off_c, 1, 82, 96
1, 75753, Note_off_c, 1, 80, 96
1, 75753, Note_on_c, 1, 50, 96
1, 75753, Note_on_c, 1, 38, 96
1, 75754, Note_off_c, 1, 50, 96
1, 75754, Note_off_c, 1, 38, 96
1, 75929, Note_on_c, 1, 77, 96
1, 75930, Note_off_c, 1, 77, 96
1, 75989, Note_on_c, 1, 53, 96
1, 75992, Note_off_c, 1, 53, 96
1, 75992, Note_on_c, 1, 74, 96
1, 75992, Note_on_c, 1, 77, 96
1, 75994, Note_off_c, 1, 74, 96
1, 75994, Note_off_c, 1, 77, 96
1, 75994, Note_on_c, 1, 81, 96
1, 75996, Note_off_c, 1, 81, 96
1, 75996, Note_on_c, 1, 86, 96
1, 75997, Note_off_c, 1, 86, 96
1, 75999, Note_on_c, 1, 41, 96
1, 76000, Note_off_c, 1, 41, 96
1, 76115, Note_on_c, 1, 52, 96
1, 76117, Note_off_c, 1, 52, 96
1, 76117, Note_on_c, 1, 64, 96
1, 76118, Note_off_c, 1, 64, 96
1, 76179, Note_on_c, 1, 74, 96
1, 76180, Note_off_c, 1, 74, 96
1, 76236, Note_on_c, 1, 43, 96
1, 76237, Note_off_c, 1, 43, 96
1, 76248, Note_on_c, 1, 76, 96
1, 76248, Note_on_c, 1, 55, 96
1, 76249, Note_off_c, 1, 76, 96
1, 76249, Note_off_c, 1, 55, 96
1, 76364, Note_on_c, 1, 48, 96
1, 76365, Note_off_c, 1, 48, 96
1, 76370, Note_on_c, 1, 78, 96
1, 76371, Note_off_c, 1, 78, 96
1, 76482, Note_on_c, 1, 59, 96
1, 76484, Note_off_c, 1, 59, 96
1, 76484, Note_on_c, 1, 55, 96
1, 76485, Note_off_c, 1, 55, 96
1, 76492, Note_on_c, 1, 65, 96
1, 76494, Note_off_c, 1, 65, 96
1, 76494, Note_on_c, 1, 79, 96
1, 76495, Note_off_c, 1, 79, 96
1, 76549, Note_on_c, 1, 81, 96
1, 76550, Note_off_c, 1, 81, 96
1, 76612, Note_on_c, 1, 83, 96
1, 76612, Note_on_c, 1, 50, 96
1, 76614, Note_off_c, 1, 83, 96
1, 76614, Note_off_c, 1, 50, 96
1, 76614, Note_on_c, 1, 55, 96
1, 76615, Note_off_c, 1, 55, 96
1, 76677, Note_on_c, 1, 79, 96
1, 76678, Note_off_c, 1, 79, 96
1, 76734, Note_on_c, 1, 59, 96
1, 76736, Note_off_c, 1, 59, 96
1, 76736, Note_on_c, 1, 74, 96
1, 76738, Note_off_c, 1, 74, 96
1, 76738, Note_on_c, 1, 55, 96
1, 76739, Note_off_c, 1, 55, 96
1, 76741, Note_on_c, 1, 65, 96
1, 76742, Note_off_c, 1, 65, 96
1, 76802, Note_on_c, 1, 74, 96
1, 76803, Note_off_c, 1, 74, 96
1, 76860, Note_on_c, 1, 53, 96
1, 76861, Note_off_c, 1, 53, 96
1, 76864, Note_on_c, 1, 55, 96
1, 76864, Note_on_c, 1, 59, 96
1, 76865, Note_off_c, 1, 55, 96
1, 76865, Note_off_c, 1, 59, 96
1, 76869, Note_on_c, 1, 69, 96
1, 76870, Note_off_c, 1, 69, 96
1, 77106, Note_on_c, 1, 70, 96
1, 77106, Note_on_c, 1, 43, 96
1, 77108, Note_off_c, 1, 70, 96
1, 77108, Note_off_c, 1, 43, 96
1, 77108, Note_on_c, 1, 55, 96
1, 77111, Note_off_c, 1, 55, 96
1, 77111, Note_on_c, 1, 62, 96
1, 77111, Note_on_c, 1, 50, 96
1, 77112, Note_off_c, 1, 62, 96
1, 77112, Note_off_c, 1, 50, 96
1, 77224, Note_on_c, 1, 65, 96
1, 77225, Note_off_c, 1, 65, 96
1, 77228, Note_on_c, 1, 53, 96
1, 77230, Note_off_c, 1, 53, 96
1, 77230, Note_on_c, 1, 72, 96
1, 77231, Note_off_c, 1, 72, 96
1, 77234, Note_on_c, 1, 67, 96
1, 77235, Note_off_c, 1, 67, 96
1, 77471, Note_on_c, 1, 74, 96
1, 77472, Note_off_c, 1, 74, 96
1, 77474, Note_on_c, 1, 67, 96
1, 77478, Note_off_c, 1, 67, 96
1, 77478, Note_on_c, 1, 77, 96
1, 77478, Note_on_c, 1, 55, 96
1, 77478, Note_on_c, 1, 59, 96
1, 77479, Note_off_c, 1, 77, 96
1, 77479, Note_off_c, 1, 55, 96
1, 77479, Note_off_c, 1, 59, 96
1, 77595, Note_on_c, 1, 43, 96
1, 77596, Note_off_c, 1, 43, 96
1, 77660, Note_on_c, 1, 76, 96
1, 77661, Note_off_c, 1, 76, 96
1, 77716, Note_on_c, 1, 74, 96
1, 77719, Note_off_c, 1, 74, 96
1, 77719, Note_on_c, 1, 64, 96
1, 77719, Note_on_c, 1, 55, 96
1, 77720, Note_off_c, 1, 64, 96
1, 77720, Note_off_c, 1, 55, 96
1, 77722, Note_on_c, 1, 60, 96
1, 77723, Note_off_c, 1, 60, 96
1, 77785, Note_on_c, 1, 76, 96
1, 77786, Note_off_c, 1, 76, 96
1, 77844, Note_on_c, 1, 55, 96
1, 77845, Note_off_c, 1, 55, 96
1, 77847, Note_on_c, 1, 67, 96
1, 77848, Note_off_c, 1, 67, 96
1, 77971, Note_on_c, 1, 66, 96
1, 77972, Note_off_c, 1, 66, 96
1, 77974, Note_on_c, 1, 78, 96
1, 77979, Note_off_c, 1, 78, 96
1, 77979, Note_on_c, 1, 71, 96
1, 77979, Note_on_c, 1, 74, 96
1, 77979, Note_on_c, 1, 53, 96
1, 77979, Note_on_c, 1, 41, 96
1, 77980, Note_off_c, 1, 71, 96
1, 77980, Note_off_c, 1, 74, 96
1, 77980, Note_off_c, 1, 53, 96
1, 77980, Note_off_c, 1, 41, 96
1, 78094, Note_on_c, 1, 66, 96
1, 78095, Note_off_c, 1, 66, 96
1, 78098, Note_on_c, 1, 78, 96
1, 78098, Note_on_c, 1, 42, 96
1, 78099, Note_off_c, 1, 78, 96
1, 78099, Note_off_c, 1, 42, 96
1, 78103, Note_on_c, 1, 54, 96
1, 78104, Note_off_c, 1, 54, 96
1, 78160, Note_on_c, 1, 86, 96
1, 78162, Note_off_c, 1, 86, 96
1, 78162, Note_on_c, 1, 74, 96
1, 78163, Note_off_c, 1, 74, 96
1, 78220, Note_on_c, 1, 91, 96
1, 78222, Note_off_c, 1, 91, 96
1, 78222, Note_on_c, 1, 79, 96
1, 78223, Note_off_c, 1, 79, 96
1, 78225, Note_on_c, 1, 55, 96
1, 78226, Note_off_c, 1, 55, 96
1, 78228, Note_on_c, 1, 43, 96
1, 78229, Note_off_c, 1, 43, 96
1, 78344, Note_on_c, 1, 60, 96
1, 78345, Note_off_c, 1, 60, 96
1, 78348, Note_on_c, 1, 55, 96
1, 78349, Note_off_c, 1, 55, 96
1, 78351, Note_on_c, 1, 64, 96
1, 78353, Note_off_c, 1, 64, 96
1, 78353, Note_on_c, 1, 72, 96
1, 78355, Note_off_c, 1, 72, 96
1, 78355, Note_on_c, 1, 58, 96
1, 78358, Note_off_c, 1, 58, 96
1, 78358, Note_on_c, 1, 84, 96
1, 78358, Note_on_c, 1, 76, 96
1, 78359, Note_off_c, 1, 84, 96
1, 78359, Note_off_c, 1, 76, 96
1, 78474, Note_on_c, 1, 71, 96
1, 78477, Note_off_c, 1, 71, 96
1, 78477, Note_on_c, 1, 38, 96
1, 78477, Note_on_c, 1, 50, 96
1, 78478, Note_off_c, 1, 38, 96
1, 78478, Note_off_c, 1, 50, 96
1, 78480, Note_on_c, 1, 83, 96
1, 78481, Note_off_c, 1, 83, 96
1, 78594, Note_on_c, 1, 59, 96
1, 78597, Note_off_c, 1, 59, 96
1, 78597, Note_on_c, 1, 55, 96
1, 78597, Note_on_c, 1, 50, 96
1, 78598, Note_off_c, 1, 55, 96
1, 78598, Note_off_c, 1, 50, 96
1, 78600, Note_on_c, 1, 67, 96
1, 78601, Note_off_c, 1, 67, 96
1, 78661, Note_on_c, 1, 74, 96
1, 78663, Note_off_c, 1, 74, 96
1, 78663, Note_on_c, 1, 86, 96
1, 78664, Note_off_c, 1, 86, 96
1, 78724, Note_on_c, 1, 78, 96
1, 78725, Note_off_c, 1, 78, 96
1, 78729, Note_on_c, 1, 88, 96
1, 78729, Note_on_c, 1, 38, 96
1, 78731, Note_off_c, 1, 88, 96
1, 78731, Note_off_c, 1, 38, 96
1, 78731, Note_on_c, 1, 50, 96
1, 78732, Note_off_c, 1, 50, 96
1, 78850, Note_on_c, 1, 82, 96
1, 78850, Note_on_c, 1, 86, 96
1, 78852, Note_off_c, 1, 82, 96
1, 78852, Note_off_c, 1, 86, 96
1, 78852, Note_on_c, 1, 55, 96
1, 78854, Note_off_c, 1, 55, 96
1, 78854, Note_on_c, 1, 43, 96
1, 78856, Note_off_c, 1, 43, 96
1, 78856, Note_on_c, 1, 76, 96
1, 78857, Note_off_c, 1, 76, 96
1, 78973, Note_on_c, 1, 79, 96
1, 78976, Note_off_c, 1, 79, 96
1, 78976, Note_on_c, 1, 54, 96
1, 78976, Note_on_c, 1, 42, 96
1, 78977, Note_off_c, 1, 54, 96
1, 78977, Note_off_c, 1, 42, 96
1, 78981, Note_on_c, 1, 75, 96
1, 78981, Note_on_c, 1, 81, 96
1, 78981, Note_on_c, 1, 69, 96
1, 78982, Note_off_c, 1, 75, 96
1, 78982, Note_off_c, 1, 81, 96
1, 78982, Note_off_c, 1, 69, 96
1, 79039, Note_on_c, 1, 81, 96
1, 79041, Note_off_c, 1, 81, 96
1, 79041, Note_on_c, 1, 78, 96
1, 79042, Note_off_c, 1, 78, 96
1, 79046, Note_on_c, 1, 75, 96
1, 79046, Note_on_c, 1, 70, 96
1, 79047, Note_off_c, 1, 75, 96
1, 79047, Note_off_c, 1, 70, 96
1, 79099, Note_on_c, 1, 38, 96
1, 79100, Note_off_c, 1, 38, 96
1, 79104, Note_on_c, 1, 73, 96
1, 79104, Note_on_c, 1, 81, 96
1, 79104, Note_on_c, 1, 78, 96
1, 79107, Note_off_c, 1, 73, 96
1, 79107, Note_off_c, 1, 81, 96
1, 79107, Note_off_c, 1, 78, 96
1, 79107, Note_on_c, 1, 69, 96
1, 79107, Note_on_c, 1, 50, 96
1, 79108, Note_off_c, 1, 69, 96
1, 79108, Note_off_c, 1, 50, 96
1, 79225, Note_on_c, 1, 42, 96
1, 79227, Note_off_c, 1, 42, 96
1, 79227, Note_on_c, 1, 54, 96
1, 79230, Note_off_c, 1, 54, 96
1, 79230, Note_on_c, 1, 78, 96
1, 79230, Note_on_c, 1, 75, 96
1, 79231, Note_off_c, 1, 78, 96
1, 79231, Note_off_c, 1, 75, 96
1, 79236, Note_on_c, 1, 81, 96
1, 79237, Note_off_c, 1, 81, 96
1, 79294, Note_on_c, 1, 85, 96
1, 79296, Note_off_c, 1, 85, 96
1, 79296, Note_on_c, 1, 73, 96
1, 79297, Note_off_c, 1, 73, 96
1, 79353, Note_on_c, 1, 45, 96
1, 79354, Note_off_c, 1, 45, 96
1, 79356, Note_on_c, 1, 58, 96
1, 79357, Note_off_c, 1, 58, 96
1, 79412, Note_on_c, 1, 76, 96
1, 79412, Note_on_c, 1, 88, 96
1, 79413, Note_off_c, 1, 76, 96
1, 79413, Note_off_c, 1, 88, 96
1, 79472, Note_on_c, 1, 77, 96
1, 79474, Note_off_c, 1, 77, 96
1, 79474, Note_on_c, 1, 86, 96
1, 79476, Note_off_c, 1, 86, 96
1, 79476, Note_on_c, 1, 41, 96
1, 79477, Note_off_c, 1, 41, 96
1, 79480, Note_on_c, 1, 53, 96
1, 79481, Note_off_c, 1, 53, 96
1, 79591, Note_on_c, 1, 55, 96
1, 79591, Note_on_c, 1, 43, 96
1, 79593, Note_off_c, 1, 55, 96
1, 79593, Note_off_c, 1, 43, 96
1, 79593, Note_on_c, 1, 71, 96
1, 79594, Note_off_c, 1, 71, 96
1, 79596, Note_on_c, 1, 77, 96
1, 79597, Note_off_c, 1, 77, 96
1, 79658, Note_on_c, 1, 77, 96
1, 79659, Note_off_c, 1, 77, 96
1, 79712, Note_on_c, 1, 55, 96
1, 79713, Note_off_c, 1, 55, 96
1, 79716, Note_on_c, 1, 59, 96
1, 79717, Note_off_c, 1, 59, 96
1, 79721, Note_on_c, 1, 76, 96
1, 79722, Note_off_c, 1, 76, 96
1, 79724, Note_on_c, 1, 53, 96
1, 79725, Note_off_c, 1, 53, 96
1, 79843, Note_on_c, 1, 59, 96
1, 79847, Note_off_c, 1, 59, 96
1, 79847, Note_on_c, 1, 74, 96
1, 79847, Note_on_c, 1, 55, 96
1, 79847, Note_on_c, 1, 62, 96
1, 79850, Note_off_c, 1, 74, 96
1, 79850, Note_off_c, 1, 55, 96
1, 79850, Note_off_c, 1, 62, 96
1, 79850, Note_on_c, 1, 65, 96
1, 79850, Note_on_c, 1, 71, 96
1, 79851, Note_off_c, 1, 65, 96
1, 79851, Note_off_c, 1, 71, 96
1, 79854, Note_on_c, 1, 79, 96
1, 79855, Note_off_c, 1, 79, 96
1, 79971, Note_on_c, 1, 55, 96
1, 79972, Note_off_c, 1, 55, 96
1, 80094, Note_on_c, 1, 85, 96
1, 80094, Note_on_c, 1, 73, 96
1, 80095, Note_off_c, 1, 85, 96
1, 80095, Note_off_c, 1, 73, 96
1, 80140, Note_on_c, 1, 76, 96
1, 80141, Note_off_c, 1, 76, 96
1, 80143, Note_on_c, 1, 88, 96
1, 80144, Note_off_c, 1, 88, 96
1, 80310, Note_on_c, 1, 91, 96
1, 80311, Note_off_c, 1, 91, 96
1, 80372, Note_on_c, 1, 85, 96
1, 80373, Note_off_c, 1, 85, 96
1, 80443, Note_on_c, 1, 86, 96
1, 80444, Note_off_c, 1, 86, 96
1, 80447, Note_on_c, 1, 74, 96
1, 80448, Note_off_c, 1, 74, 96
1, 80559, Note_on_c, 1, 81, 96
1, 80559, Note_on_c, 1, 86, 96
1, 80560, Note_off_c, 1, 81, 96
1, 80560, Note_off_c, 1, 86, 96
1, 80567, Note_on_c, 1, 74, 96
1, 80568, Note_off_c, 1, 74, 96
1, 80737, Note_on_c, 1, 79, 96
1, 80738, Note_off_c, 1, 79, 96
1, 80740, Note_on_c, 1, 79, 96
1, 80741, Note_off_c, 1, 79, 96
1, 80859, Note_on_c, 1, 52, 96
1, 80860, Note_off_c, 1, 52, 96
1, 80863, Note_on_c, 1, 76, 96
1, 80864, Note_off_c, 1, 76, 96
1, 80984, Note_on_c, 1, 62, 96
1, 80984, Note_on_c, 1, 59, 96
1, 80986, Note_off_c, 1, 62, 96
1, 80986, Note_off_c, 1, 59, 96
1, 80986, Note_on_c, 1, 55, 96
1, 80988, Note_off_c, 1, 55, 96
1, 80988, Note_on_c, 1, 67, 96
1, 80990, Note_off_c, 1, 67, 96
1, 80990, Note_on_c, 1, 74, 96
1, 80991, Note_off_c, 1, 74, 96
1, 81107, Note_on_c, 1, 72, 96
1, 81108, Note_off_c, 1, 72, 96
1, 81223, Note_on_c, 1, 57, 96
1, 81223, Note_on_c, 1, 61, 96
1, 81225, Note_off_c, 1, 57, 96
1, 81225, Note_off_c, 1, 61, 96
1, 81225, Note_on_c, 1, 67, 96
1, 81227, Note_off_c, 1, 67, 96
1, 81227, Note_on_c, 1, 64, 96
1, 81228, Note_off_c, 1, 64, 96
1, 81349, Note_on_c, 1, 43, 96
1, 81350, Note_off_c, 1, 43, 96
1, 81590, Note_on_c, 1, 64, 96
1, 81590, Note_on_c, 1, 69, 96
1, 81590, Note_on_c, 1, 37, 96
1, 81591, Note_off_c, 1, 64, 96
1, 81591, Note_off_c, 1, 69, 96
1, 81591, Note_off_c, 1, 37, 96
1, 81596, Note_on_c, 1, 49, 96
1, 81597, Note_off_c, 1, 49, 96
1, 81774, Note_on_c, 1, 62, 96
1, 81776, Note_off_c, 1, 62, 96
1, 81776, Note_on_c, 1, 73, 96
1, 81777, Note_off_c, 1, 73, 96
1, 81897, Note_on_c, 1, 57, 96
1, 81898, Note_off_c, 1, 57, 96
1, 81900, Note_on_c, 1, 61, 96
1, 81901, Note_off_c, 1, 61, 96
1, 81903, Note_on_c, 1, 64, 96
1, 81904, Note_off_c, 1, 64, 96
1, 82019, Note_on_c, 1, 69, 96
1, 82020, Note_off_c, 1, 69, 96
1, 82139, Note_on_c, 1, 71, 96
1, 82140, Note_off_c, 1, 71, 96
1, 82145, Note_on_c, 1, 62, 96
1, 82145, Note_on_c, 1, 57, 96
1, 82146, Note_off_c, 1, 62, 96
1, 82146, Note_off_c, 1, 57, 96
1, 82150, Note_on_c, 1, 67, 96
1, 82150, Note_on_c, 1, 45, 96
1, 82151, Note_off_c, 1, 67, 96
1, 82151, Note_off_c, 1, 45, 96
1, 82385, Note_on_c, 1, 50, 96
1, 82387, Note_off_c, 1, 50, 96
1, 82387, Note_on_c, 1, 65, 96
1, 82389, Note_off_c, 1, 65, 96
1, 82389, Note_on_c, 1, 45, 96
1, 82390, Note_off_c, 1, 45, 96
1, 82632, Note_on_c, 1, 38, 96
1, 82633, Note_off_c, 1, 38, 96
1, 82637, Note_on_c, 1, 72, 96
1, 82640, Note_off_c, 1, 72, 96
1, 82640, Note_on_c, 1, 66, 96
1, 82640, Note_on_c, 1, 50, 96
1, 82641, Note_off_c, 1, 66, 96
1, 82641, Note_off_c, 1, 50, 96
1, 82874, Note_on_c, 1, 60, 96
1, 82874, Note_on_c, 1, 50, 96
1, 82875, Note_off_c, 1, 60, 96
1, 82875, Note_off_c, 1, 50, 96
1, 82878, Note_on_c, 1, 69, 96
1, 82878, Note_on_c, 1, 54, 96
1, 82879, Note_off_c, 1, 69, 96
1, 82879, Note_off_c, 1, 54, 96
1, 83000, Note_on_c, 1, 43, 96
1, 83001, Note_off_c, 1, 43, 96
1, 83116, Note_on_c, 1, 55, 96
1, 83118, Note_off_c, 1, 55, 96
1, 83118, Note_on_c, 1, 43, 96
1, 83119, Note_off_c, 1, 43, 96
1, 83239, Note_on_c, 1, 67, 96
1, 83240, Note_off_c, 1, 67, 96
1, 83357, Note_on_c, 1, 62, 96
1, 83358, Note_off_c, 1, 62, 96
1, 83361, Note_on_c, 1, 59, 96
1, 83362, Note_off_c, 1, 59, 96
1, 83478, Note_on_c, 1, 63, 96
1, 83478, Note_on_c, 1, 51, 96
1, 83479, Note_off_c, 1, 63, 96
1, 83479, Note_off_c, 1, 51, 96
1, 83482, Note_on_c, 1, 59, 96
1, 83483, Note_off_c, 1, 59, 96
1, 83597, Note_on_c, 1, 63, 96
1, 83597, Note_on_c, 1, 54, 96
1, 83598, Note_off_c, 1, 63, 96
1, 83598, Note_off_c, 1, 54, 96
1, 83601, Note_on_c, 1, 67, 96
1, 83602, Note_off_c, 1, 67, 96
1, 83604, Note_on_c, 1, 60, 96
1, 83606, Note_off_c, 1, 60, 96
1, 83606, Note_on_c, 1, 55, 96
1, 83607, Note_off_c, 1, 55, 96
1, 83720, Note_on_c, 1, 50, 96
1, 83721, Note_off_c, 1, 50, 96
1, 83727, Note_on_c, 1, 38, 96
1, 83728, Note_off_c, 1, 38, 96
1, 83785, Note_on_c, 1, 67, 96
1, 83786, Note_off_c, 1, 67, 96
1, 83846, Note_on_c, 1, 67, 96
1, 83848, Note_off_c, 1, 67, 96
1, 83848, Note_on_c, 1, 55, 96
1, 83851, Note_off_c, 1, 55, 96
1, 83851, Note_on_c, 1, 65, 96
1, 83851, Note_on_c, 1, 67, 96
1, 83852, Note_off_c, 1, 65, 96
1, 83852, Note_off_c, 1, 67, 96
1, 83854, Note_on_c, 1, 59, 96
1, 83855, Note_off_c, 1, 59, 96
1, 83968, Note_on_c, 1, 64, 96
1, 83969, Note_off_c, 1, 64, 96
1, 83975, Note_on_c, 1, 36, 96
1, 83975, Note_on_c, 1, 48, 96
1, 83978, Note_off_c, 1, 36, 96
1, 83978, Note_off_c, 1, 48, 96
1, 83978, Note_on_c, 1, 72, 96
1, 83978, Note_on_c, 1, 84, 96
1, 83979, Note_off_c, 1, 72, 96
1, 83979, Note_off_c, 1, 84, 96
1, 84092, Note_on_c, 1, 64, 96
1, 84093, Note_off_c, 1, 64, 96
1, 84098, Note_on_c, 1, 58, 96
1, 84100, Note_off_c, 1, 58, 96
1, 84100, Note_on_c, 1, 60, 96
1, 84101, Note_off_c, 1, 60, 96
1, 84156, Note_on_c, 1, 84, 96
1, 84157, Note_off_c, 1, 84, 96
1, 84162, Note_on_c, 1, 72, 96
1, 84163, Note_off_c, 1, 72, 96
1, 84220, Note_on_c, 1, 48, 96
1, 84221, Note_off_c, 1, 48, 96
1, 84283, Note_on_c, 1, 81, 96
1, 84284, Note_off_c, 1, 81, 96
1, 84342, Note_on_c, 1, 52, 96
1, 84343, Note_off_c, 1, 52, 96
1, 84347, Note_on_c, 1, 55, 96
1, 84348, Note_off_c, 1, 55, 96
1, 84350, Note_on_c, 1, 79, 96
1, 84352, Note_off_c, 1, 79, 96
1, 84352, Note_on_c, 1, 60, 96
1, 84353, Note_off_c, 1, 60, 96
1, 84407, Note_on_c, 1, 83, 96
1, 84408, Note_off_c, 1, 83, 96
1, 84468, Note_on_c, 1, 55, 96
1, 84469, Note_off_c, 1, 55, 96
1, 84471, Note_on_c, 1, 64, 96
1, 84473, Note_off_c, 1, 64, 96
1, 84473, Note_on_c, 1, 79, 96
1, 84474, Note_off_c, 1, 79, 96
1, 84476, Note_on_c, 1, 60, 96
1, 84477, Note_off_c, 1, 60, 96
1, 84536, Note_on_c, 1, 67, 96
1, 84537, Note_off_c, 1, 67, 96
1, 84592, Note_on_c, 1, 52, 96
1, 84593, Note_off_c, 1, 52, 96
1, 84596, Note_on_c, 1, 76, 96
1, 84597, Note_off_c, 1, 76, 96
1, 84655, Note_on_c, 1, 76, 96
1, 84656, Note_off_c, 1, 76, 96
1, 84715, Note_on_c, 1, 64, 96
1, 84715, Note_on_c, 1, 60, 96
1, 84718, Note_off_c, 1, 64, 96
1, 84718, Note_off_c, 1, 60, 96
1, 84718, Note_on_c, 1, 74, 96
1, 84718, Note_on_c, 1, 55, 96
1, 84719, Note_off_c, 1, 74, 96
1, 84719, Note_off_c, 1, 55, 96
1, 84838, Note_on_c, 1, 53, 96
1, 84839, Note_off_c, 1, 53, 96
1, 84841, Note_on_c, 1, 81, 96
1, 84844, Note_off_c, 1, 81, 96
1, 84844, Note_on_c, 1, 77, 96
1, 84844, Note_on_c, 1, 41, 96
1, 84845, Note_off_c, 1, 77, 96
1, 84845, Note_off_c, 1, 41, 96
1, 84906, Note_on_c, 1, 79, 96
1, 84907, Note_off_c, 1, 79, 96
1, 84963, Note_on_c, 1, 65, 96
1, 84963, Note_on_c, 1, 53, 96
1, 84964, Note_off_c, 1, 65, 96
1, 84964, Note_off_c, 1, 53, 96
1, 84966, Note_on_c, 1, 79, 96
1, 84967, Note_off_c, 1, 79, 96
1, 85026, Note_on_c, 1, 69, 96
1, 85027, Note_off_c, 1, 69, 96
1, 85029, Note_on_c, 1, 81, 96
1, 85030, Note_off_c, 1, 81, 96
1, 85087, Note_on_c, 1, 57, 96
1, 85089, Note_off_c, 1, 57, 96
1, 85089, Note_on_c, 1, 60, 96
1, 85091, Note_off_c, 1, 60, 96
1, 85091, Note_on_c, 1, 72, 96
1, 85093, Note_off_c, 1, 72, 96
1, 85093, Note_on_c, 1, 65, 96
1, 85094, Note_off_c, 1, 65, 96
1, 85158, Note_on_c, 1, 75, 96
1, 85159, Note_off_c, 1, 75, 96
1, 85218, Note_on_c, 1, 74, 96
1, 85218, Note_on_c, 1, 42, 96
1, 85220, Note_off_c, 1, 74, 96
1, 85220, Note_off_c, 1, 42, 96
1, 85220, Note_on_c, 1, 54, 96
1, 85221, Note_off_c, 1, 54, 96
1, 85223, Note_on_c, 1, 76, 96
1, 85224, Note_off_c, 1, 76, 96
1, 85280, Note_on_c, 1, 74, 96
1, 85281, Note_off_c, 1, 74, 96
1, 85339, Note_on_c, 1, 62, 96
1, 85342, Note_off_c, 1, 62, 96
1, 85342, Note_on_c, 1, 74, 96
1, 85342, Note_on_c, 1, 60, 96
1, 85344, Note_off_c, 1, 74, 96
1, 85344, Note_off_c, 1, 60, 96
1, 85344, Note_on_c, 1, 54, 96
1, 85345, Note_off_c, 1, 54, 96
1, 85347, Note_on_c, 1, 57, 96
1, 85348, Note_off_c, 1, 57, 96
1, 85468, Note_on_c, 1, 78, 96
1, 85468, Note_on_c, 1, 72, 96
1, 85470, Note_off_c, 1, 78, 96
1, 85470, Note_off_c, 1, 72, 96
1, 85470, Note_on_c, 1, 38, 96
1, 85471, Note_off_c, 1, 38, 96
1, 85474, Note_on_c, 1, 50, 96
1, 85475, Note_off_c, 1, 50, 96
1, 85590, Note_on_c, 1, 76, 96
1, 85590, Note_on_c, 1, 50, 96
1, 85592, Note_off_c, 1, 76, 96
1, 85592, Note_off_c, 1, 50, 96
1, 85592, Note_on_c, 1, 60, 96
1, 85593, Note_off_c, 1, 60, 96
1, 85595, Note_on_c, 1, 54, 96
1, 85596, Note_off_c, 1, 54, 96
1, 85655, Note_on_c, 1, 78, 96
1, 85656, Note_off_c, 1, 78, 96
1, 85721, Note_on_c, 1, 38, 96
1, 85722, Note_off_c, 1, 38, 96
1, 85724, Note_on_c, 1, 50, 96
1, 85725, Note_off_c, 1, 50, 96
1, 85783, Note_on_c, 1, 66, 96
1, 85784, Note_off_c, 1, 66, 96
1, 85840, Note_on_c, 1, 71, 96
1, 85842, Note_off_c, 1, 71, 96
1, 85842, Note_on_c, 1, 38, 96
1, 85844, Note_off_c, 1, 38, 96
1, 85844, Note_on_c, 1, 50, 96
1, 85845, Note_off_c, 1, 50, 96
1, 85904, Note_on_c, 1, 79, 96
1, 85905, Note_off_c, 1, 79, 96
1, 85965, Note_on_c, 1, 76, 96
1, 85969, Note_off_c, 1, 76, 96
1, 85969, Note_on_c, 1, 55, 96
1, 85969, Note_on_c, 1, 64, 96
1, 85969, Note_on_c, 1, 60, 96
1, 85970, Note_off_c, 1, 55, 96
1, 85970, Note_off_c, 1, 64, 96
1, 85970, Note_off_c, 1, 60, 96
1, 86034, Note_on_c, 1, 78, 96
1, 86035, Note_off_c, 1, 78, 96
1, 86086, Note_on_c, 1, 71, 96
1, 86089, Note_off_c, 1, 71, 96
1, 86089, Note_on_c, 1, 74, 96
1, 86089, Note_on_c, 1, 43, 96
1, 86090, Note_off_c, 1, 74, 96
1, 86090, Note_off_c, 1, 43, 96
1, 86095, Note_on_c, 1, 50, 96
1, 86097, Note_off_c, 1, 50, 96
1, 86097, Note_on_c, 1, 55, 96
1, 86098, Note_off_c, 1, 55, 96
1, 86212, Note_on_c, 1, 69, 96
1, 86213, Note_off_c, 1, 69, 96
1, 86216, Note_on_c, 1, 45, 96
1, 86217, Note_off_c, 1, 45, 96
1, 86219, Note_on_c, 1, 78, 96
1, 86220, Note_off_c, 1, 78, 96
1, 86277, Note_on_c, 1, 74, 96
1, 86278, Note_off_c, 1, 74, 96
1, 86281, Note_on_c, 1, 66, 96
1, 86282, Note_off_c, 1, 66, 96
1, 86340, Note_on_c, 1, 35, 96
1, 86342, Note_off_c, 1, 35, 96
1, 86342, Note_on_c, 1, 47, 96
1, 86343, Note_off_c, 1, 47, 96
1, 86402, Note_on_c, 1, 72, 96
1, 86403, Note_off_c, 1, 72, 96
1, 86460, Note_on_c, 1, 43, 96
1, 86461, Note_off_c, 1, 43, 96
1, 86468, Note_on_c, 1, 55, 96
1, 86469, Note_off_c, 1, 55, 96
1, 86524, Note_on_c, 1, 71, 96
1, 86525, Note_off_c, 1, 71, 96
1, 86584, Note_on_c, 1, 43, 96
1, 86585, Note_off_c, 1, 43, 96
1, 86588, Note_on_c, 1, 79, 96
1, 86589, Note_off_c, 1, 79, 96
1, 86704, Note_on_c, 1, 59, 96
1, 86706, Note_off_c, 1, 59, 96
1, 86706, Note_on_c, 1, 65, 96
1, 86707, Note_off_c, 1, 65, 96
1, 86709, Note_on_c, 1, 74, 96
1, 86710, Note_off_c, 1, 74, 96
1, 86712, Note_on_c, 1, 55, 96
1, 86713, Note_off_c, 1, 55, 96
1, 86830, Note_on_c, 1, 65, 96
1, 86830, Note_on_c, 1, 69, 96
1, 86831, Note_off_c, 1, 65, 96
1, 86831, Note_off_c, 1, 69, 96
1, 86833, Note_on_c, 1, 59, 96
1, 86835, Note_off_c, 1, 59, 96
1, 86835, Note_on_c, 1, 55, 96
1, 86836, Note_off_c, 1, 55, 96
1, 86952, Note_on_c, 1, 48, 96
1, 86954, Note_off_c, 1, 48, 96
1, 86954, Note_on_c, 1, 75, 96
1, 86955, Note_off_c, 1, 75, 96
1, 86959, Note_on_c, 1, 67, 96
1, 86960, Note_off_c, 1, 67, 96
1, 87195, Note_on_c, 1, 65, 96
1, 87197, Note_off_c, 1, 65, 96
1, 87197, Note_on_c, 1, 69, 96
1, 87199, Note_off_c, 1, 69, 96
1, 87199, Note_on_c, 1, 55, 96
1, 87201, Note_off_c, 1, 55, 96
1, 87201, Note_on_c, 1, 53, 96
1, 87202, Note_off_c, 1, 53, 96
1, 87204, Note_on_c, 1, 59, 96
1, 87205, Note_off_c, 1, 59, 96
1, 87319, Note_on_c, 1, 64, 96
1, 87321, Note_off_c, 1, 64, 96
1, 87321, Note_on_c, 1, 60, 96
1, 87323, Note_off_c, 1, 60, 96
1, 87323, Note_on_c, 1, 72, 96
1, 87325, Note_off_c, 1, 72, 96
1, 87325, Note_on_c, 1, 48, 96
1, 87327, Note_off_c, 1, 48, 96
1, 87327, Note_on_c, 1, 67, 96
1, 87328, Note_off_c, 1, 67, 96
1, 87441, Note_on_c, 1, 55, 96
1, 87442, Note_off_c, 1, 55, 96
1, 87446, Note_on_c, 1, 60, 96
1, 87447, Note_off_c, 1, 60, 96
1, 87451, Note_on_c, 1, 67, 96
1, 87452, Note_off_c, 1, 67, 96
1, 87567, Note_on_c, 1, 72, 96
1, 87568, Note_off_c, 1, 72, 96
1, 87578, Note_on_c, 1, 64, 96
1, 87578, Note_on_c, 1, 60, 96
1, 87578, Note_on_c, 1, 64, 96
1, 87578, Note_on_c, 1, 52, 96
1, 87579, Note_off_c, 1, 64, 96
1, 87579, Note_off_c, 1, 60, 96
1, 87579, Note_off_c, 1, 64, 96
1, 87579, Note_off_c, 1, 52, 96
1, 87634, Note_on_c, 1, 66, 96
1, 87635, Note_off_c, 1, 66, 96
1, 87695, Note_on_c, 1, 55, 96
1, 87697, Note_off_c, 1, 55, 96
1, 87697, Note_on_c, 1, 60, 96
1, 87698, Note_off_c, 1, 60, 96
1, 87701, Note_on_c, 1, 48, 96
1, 87702, Note_off_c, 1, 48, 96
1, 87818, Note_on_c, 1, 55, 96
1, 87819, Note_off_c, 1, 55, 96
1, 87821, Note_on_c, 1, 52, 96
1, 87822, Note_off_c, 1, 52, 96
1, 87937, Note_on_c, 1, 60, 96
1, 87938, Note_off_c, 1, 60, 96
1, 87942, Note_on_c, 1, 43, 96
1, 87944, Note_off_c, 1, 43, 96
1, 87944, Note_on_c, 1, 55, 96
1, 87945, Note_off_c, 1, 55, 96
1, 88060, Note_on_c, 1, 66, 96
1, 88060, Note_on_c, 1, 67, 96
1, 88062, Note_off_c, 1, 66, 96
1, 88062, Note_off_c, 1, 67, 96
1, 88062, Note_on_c, 1, 43, 96
1, 88063, Note_off_c, 1, 43, 96
1, 88067, Note_on_c, 1, 60, 96
1, 88068, Note_off_c, 1, 60, 96
1, 88184, Note_on_c, 1, 64, 96
1, 88185, Note_off_c, 1, 64, 96
1, 88188, Note_on_c, 1, 67, 96
1, 88188, Note_on_c, 1, 55, 96
1, 88189, Note_off_c, 1, 67, 96
1, 88189, Note_off_c, 1, 55, 96
1, 88248, Note_on_c, 1, 70, 96
1, 88250, Note_off_c, 1, 70, 96
1, 88250, Note_on_c, 1, 55, 96
1, 88251, Note_off_c, 1, 55, 96
1, 88257, Note_on_c, 1, 43, 96
1, 88258, Note_off_c, 1, 43, 96
1, 88373, Note_on_c, 1, 60, 96
1, 88373, Note_on_c, 1, 43, 96
1, 88374, Note_off_c, 1, 60, 96
1, 88374, Note_off_c, 1, 43, 96
1, 88439, Note_on_c, 1, 66, 96
1, 88440, Note_off_c, 1, 66, 96
1, 88496, Note_on_c, 1, 64, 96
1, 88499, Note_off_c, 1, 64, 96
1, 88499, Note_on_c, 1, 60, 96
1, 88499, Note_on_c, 1, 48, 96
1, 88500, Note_off_c, 1, 60, 96
1, 88500, Note_off_c, 1, 48, 96
1, 88564, Note_on_c, 1, 64, 96
1, 88565, Note_off_c, 1, 64, 96
1, 88624, Note_on_c, 1, 55, 96
1, 88626, Note_off_c, 1, 55, 96
1, 88626, Note_on_c, 1, 59, 96
1, 88628, Note_off_c, 1, 59, 96
1, 88628, Note_on_c, 1, 50, 96
1, 88629, Note_off_c, 1, 50, 96
1, 88866, Note_on_c, 1, 59, 96
1, 88866, Note_on_c, 1, 64, 96
1, 88867, Note_off_c, 1, 59, 96
1, 88867, Note_off_c, 1, 64, 96
1, 89051, Note_on_c, 1, 33, 96
1, 89052, Note_off_c, 1, 33, 96
1, 89054, Note_on_c, 1, 45, 96
1, 89055, Note_off_c, 1, 45, 96
1, 89112, Note_on_c, 1, 70, 96
1, 89113, Note_off_c, 1, 70, 96
1, 89119, Note_on_c, 1, 74, 96
1, 89120, Note_off_c, 1, 74, 96
1, 89174, Note_on_c, 1, 73, 96
1, 89174, Note_on_c, 1, 52, 96
1, 89175, Note_off_c, 1, 73, 96
1, 89175, Note_off_c, 1, 52, 96
1, 89179, Note_on_c, 1, 76, 96
1, 89181, Note_off_c, 1, 76, 96
1, 89181, Note_on_c, 1, 73, 96
1, 89184, Note_off_c, 1, 73, 96
1, 89184, Note_on_c, 1, 76, 96
1, 89184, Note_on_c, 1, 40, 96
1, 89185, Note_off_c, 1, 76, 96
1, 89185, Note_off_c, 1, 40, 96
1, 89246, Note_on_c, 1, 74, 96
1, 89247, Note_off_c, 1, 74, 96
1, 89303, Note_on_c, 1, 74, 96
1, 89303, Note_on_c, 1, 60, 96
1, 89303, Note_on_c, 1, 52, 96
1, 89304, Note_off_c, 1, 74, 96
1, 89304, Note_off_c, 1, 60, 96
1, 89304, Note_off_c, 1, 52, 96
1, 89309, Note_on_c, 1, 55, 96
1, 89310, Note_off_c, 1, 55, 96
1, 89367, Note_on_c, 1, 69, 96
1, 89368, Note_off_c, 1, 69, 96
1, 89429, Note_on_c, 1, 70, 96
1, 89431, Note_off_c, 1, 70, 96
1, 89431, Note_on_c, 1, 60, 96
1, 89434, Note_off_c, 1, 60, 96
1, 89434, Note_on_c, 1, 55, 96
1, 89434, Note_on_c, 1, 58, 96
1, 89435, Note_off_c, 1, 55, 96
1, 89435, Note_off_c, 1, 58, 96
1, 89497, Note_on_c, 1, 70, 96
1, 89498, Note_off_c, 1, 70, 96
1, 89557, Note_on_c, 1, 71, 96
1, 89558, Note_off_c, 1, 71, 96
1, 89560, Note_on_c, 1, 43, 96
1, 89561, Note_off_c, 1, 43, 96
1, 89618, Note_on_c, 1, 71, 96
1, 89619, Note_off_c, 1, 71, 96
1, 89623, Note_on_c, 1, 71, 96
1, 89624, Note_off_c, 1, 71, 96
1, 89680, Note_on_c, 1, 60, 96
1, 89680, Note_on_c, 1, 48, 96
1, 89683, Note_off_c, 1, 60, 96
1, 89683, Note_off_c, 1, 48, 96
1, 89683, Note_on_c, 1, 64, 96
1, 89683, Note_on_c, 1, 72, 96
1, 89684, Note_off_c, 1, 64, 96
1, 89684, Note_off_c, 1, 72, 96
1, 89688, Note_on_c, 1, 52, 96
1, 89689, Note_off_c, 1, 52, 96
1, 89746, Note_on_c, 1, 64, 96
1, 89747, Note_off_c, 1, 64, 96
1, 89805, Note_on_c, 1, 60, 96
1, 89806, Note_off_c, 1, 60, 96
1, 89810, Note_on_c, 1, 64, 96
1, 89810, Note_on_c, 1, 55, 96
1, 89811, Note_off_c, 1, 64, 96
1, 89811, Note_off_c, 1, 55, 96
1, 89928, Note_on_c, 1, 69, 96
1, 89929, Note_off_c, 1, 69, 96
1, 89932, Note_on_c, 1, 48, 96
1, 89933, Note_off_c, 1, 48, 96
1, 89995, Note_on_c, 1, 66, 96
1, 89996, Note_off_c, 1, 66, 96
1, 90052, Note_on_c, 1, 64, 96
1, 90054, Note_off_c, 1, 64, 96
1, 90054, Note_on_c, 1, 43, 96
1, 90055, Note_off_c, 1, 43, 96
1, 90117, Note_on_c, 1, 71, 96
1, 90118, Note_off_c, 1, 71, 96
1, 90173, Note_on_c, 1, 59, 96
1, 90174, Note_off_c, 1, 59, 96
1, 90179, Note_on_c, 1, 65, 96
1, 90179, Note_on_c, 1, 67, 96
1, 90179, Note_on_c, 1, 55, 96
1, 90180, Note_off_c, 1, 65, 96
1, 90180, Note_off_c, 1, 67, 96
1, 90180, Note_off_c, 1, 55, 96
1, 90295, Note_on_c, 1, 71, 96
1, 90296, Note_off_c, 1, 71, 96
1, 90298, Note_on_c, 1, 74, 96
1, 90299, Note_off_c, 1, 74, 96
1, 90416, Note_on_c, 1, 59, 96
1, 90419, Note_off_c, 1, 59, 96
1, 90419, Note_on_c, 1, 65, 96
1, 90419, Note_on_c, 1, 53, 96
1, 90422, Note_off_c, 1, 65, 96
1, 90422, Note_off_c, 1, 53, 96
1, 90422, Note_on_c, 1, 71, 96
1, 90422, Note_on_c, 1, 55, 96
1, 90423, Note_off_c, 1, 71, 96
1, 90423, Note_off_c, 1, 55, 96
1, 90541, Note_on_c, 1, 64, 96
1, 90541, Note_on_c, 1, 48, 96
1, 90543, Note_off_c, 1, 64, 96
1, 90543, Note_off_c, 1, 48, 96
1, 90543, Note_on_c, 1, 72, 96
1, 90544, Note_off_c, 1, 72, 96
1, 90546, Note_on_c, 1, 70, 96
1, 90547, Note_off_c, 1, 70, 96
1, 90661, Note_on_c, 1, 36, 96
1, 90662, Note_off_c, 1, 36, 96
1, 90666, Note_on_c, 1, 48, 96
1, 90667, Note_off_c, 1, 48, 96
1, 90782, Note_on_c, 1, 75, 96
1, 90783, Note_off_c, 1, 75, 96
1, 90787, Note_on_c, 1, 72, 96
1, 90787, Note_on_c, 1, 41, 96
1, 90788, Note_off_c, 1, 72, 96
1, 90788, Note_off_c, 1, 41, 96
1, 90851, Note_on_c, 1, 74, 96
1, 90852, Note_off_c, 1, 74, 96
1, 90908, Note_on_c, 1, 53, 96
1, 90910, Note_off_c, 1, 53, 96
1, 90910, Note_on_c, 1, 57, 96
1, 90913, Note_off_c, 1, 57, 96
1, 90913, Note_on_c, 1, 77, 96
1, 90913, Note_on_c, 1, 62, 96
1, 90914, Note_off_c, 1, 77, 96
1, 90914, Note_off_c, 1, 62, 96
1, 90978, Note_on_c, 1, 69, 96
1, 90979, Note_off_c, 1, 69, 96
1, 91038, Note_on_c, 1, 48, 96
1, 91040, Note_off_c, 1, 48, 96
1, 91040, Note_on_c, 1, 65, 96
1, 91041, Note_off_c, 1, 65, 96
1, 91099, Note_on_c, 1, 72, 96
1, 91100, Note_off_c, 1, 72, 96
1, 91223, Note_on_c, 1, 72, 96
1, 91224, Note_off_c, 1, 72, 96
1, 91287, Note_on_c, 1, 69, 96
1, 91288, Note_off_c, 1, 69, 96
1, 91340, Note_on_c, 1, 57, 96
1, 91341, Note_off_c, 1, 57, 96
1, 91345, Note_on_c, 1, 60, 96
1, 91346, Note_off_c, 1, 60, 96
1, 91467, Note_on_c, 1, 61, 96
1, 91469, Note_off_c, 1, 61, 96
1, 91469, Note_on_c, 1, 69, 96
1, 91470, Note_off_c, 1, 69, 96
1, 91523, Note_on_c, 1, 71, 96
1, 91524, Note_off_c, 1, 71, 96
1, 91586, Note_on_c, 1, 60, 96
1, 91587, Note_off_c, 1, 60, 96
1, 91590, Note_on_c, 1, 65, 96
1, 91590, Note_on_c, 1, 57, 96
1, 91592, Note_off_c, 1, 65, 96
1, 91592, Note_off_c, 1, 57, 96
1, 91592, Note_on_c, 1, 72, 96
1, 91593, Note_off_c, 1, 72, 96
1, 91648, Note_on_c, 1, 65, 96
1, 91649, Note_off_c, 1, 65, 96
1, 91653, Note_on_c, 1, 69, 96
1, 91654, Note_off_c, 1, 69, 96
1, 91708, Note_on_c, 1, 69, 96
1, 91709, Note_off_c, 1, 69, 96
1, 91712, Note_on_c, 1, 48, 96
1, 91713, Note_off_c, 1, 48, 96
1, 91772, Note_on_c, 1, 68, 96
1, 91773, Note_off_c, 1, 68, 96
1, 91833, Note_on_c, 1, 69, 96
1, 91835, Note_off_c, 1, 69, 96
1, 91835, Note_on_c, 1, 43, 96
1, 91838, Note_off_c, 1, 43, 96
1, 91838, Note_on_c, 1, 64, 96
1, 91838, Note_on_c, 1, 55, 96
1, 91839, Note_off_c, 1, 64, 96
1, 91839, Note_off_c, 1, 55, 96
1, 91896, Note_on_c, 1, 67, 96
1, 91897, Note_off_c, 1, 67, 96
1, 91960, Note_on_c, 1, 60, 96
1, 91960, Note_on_c, 1, 36, 96
1, 91960, Note_on_c, 1, 48, 96
1, 91960, Note_on_c, 1, 51, 96
1, 91962, Note_off_c, 1, 60, 96
1, 91962, Note_off_c, 1, 36, 96
1, 91962, Note_off_c, 1, 48, 96
1, 91962, Note_off_c, 1, 51, 96
1, 91962, Note_on_c, 1, 72, 96
1, 91963, Note_off_c, 1, 72, 96
1, 92080, Note_on_c, 1, 68, 96
1, 92082, Note_off_c, 1, 68, 96
1, 92082, Note_on_c, 1, 60, 96
1, 92083, Note_off_c, 1, 60, 96
1, 92085, Note_on_c, 1, 48, 96
1, 92086, Note_off_c, 1, 48, 96
1, 92149, Note_on_c, 1, 69, 96
1, 92151, Note_off_c, 1, 69, 96
1, 92151, Note_on_c, 1, 63, 96
1, 92152, Note_off_c, 1, 63, 96
1, 92278, Note_on_c, 1, 69, 96
1, 92279, Note_off_c, 1, 69, 96
1, 92393, Note_on_c, 1, 48, 96
1, 92395, Note_off_c, 1, 48, 96
1, 92395, Note_on_c, 1, 67, 96
1, 92396, Note_off_c, 1, 67, 96
1, 92400, Note_on_c, 1, 36, 96
1, 92401, Note_off_c, 1, 36, 96
1, 92517, Note_on_c, 1, 60, 96
1, 92519, Note_off_c, 1, 60, 96
1, 92519, Note_on_c, 1, 58, 96
1, 92520, Note_off_c, 1, 58, 96
1, 92640, Note_on_c, 1, 69, 96
1, 92641, Note_off_c, 1, 69, 96
1, 92644, Note_on_c, 1, 48, 96
1, 92645, Note_off_c, 1, 48, 96
1, 92759, Note_on_c, 1, 64, 96
1, 92760, Note_off_c, 1, 64, 96
1, 92762, Note_on_c, 1, 48, 96
1, 92764, Note_off_c, 1, 48, 96
1, 92764, Note_on_c, 1, 36, 96
1, 92766, Note_off_c, 1, 36, 96
1, 92766, Note_on_c, 1, 72, 96
1, 92767, Note_off_c, 1, 72, 96
1, 92883, Note_on_c, 1, 55, 96
1, 92884, Note_off_c, 1, 55, 96
1, 92886, Note_on_c, 1, 58, 96
1, 92887, Note_off_c, 1, 58, 96
1, 92890, Note_on_c, 1, 67, 96
1, 92892, Note_off_c, 1, 67, 96
1, 92892, Note_on_c, 1, 64, 96
1, 92893, Note_off_c, 1, 64, 96
1, 93001, Note_on_c, 1, 60, 96
1, 93002, Note_off_c, 1, 60, 96
1, 93005, Note_on_c, 1, 52, 96
1, 93007, Note_off_c, 1, 52, 96
1, 93007, Note_on_c, 1, 72, 96
1, 93008, Note_off_c, 1, 72, 96
1, 93012, Note_on_c, 1, 58, 96
1, 93013, Note_off_c, 1, 58, 96
1, 93247, Note_on_c, 1, 65, 96
1, 93247, Note_on_c, 1, 41, 96
1, 93249, Note_off_c, 1, 65, 96
1, 93249, Note_off_c, 1, 41, 96
1, 93249, Note_on_c, 1, 53, 96
1, 93250, Note_off_c, 1, 53, 96
1, 93366, Note_on_c, 1, 46, 96
1, 93367, Note_off_c, 1, 46, 96
1, 93486, Note_on_c, 1, 69, 96
1, 93486, Note_on_c, 1, 57, 96
1, 93487, Note_off_c, 1, 69, 96
1, 93487, Note_off_c, 1, 57, 96
1, 93492, Note_on_c, 1, 66, 96
1, 93492, Note_on_c, 1, 62, 96
1, 93493, Note_off_c, 1, 66, 96
1, 93493, Note_off_c, 1, 62, 96
1, 93555, Note_on_c, 1, 72, 96
1, 93556, Note_off_c, 1, 72, 96
1, 93610, Note_on_c, 1, 69, 96
1, 93611, Note_off_c, 1, 69, 96
1, 93615, Note_on_c, 1, 43, 96
1, 93616, Note_off_c, 1, 43, 96
1, 93736, Note_on_c, 1, 77, 96
1, 93736, Note_on_c, 1, 69, 96
1, 93736, Note_on_c, 1, 41, 96
1, 93736, Note_on_c, 1, 53, 96
1, 93737, Note_off_c, 1, 77, 96
1, 93737, Note_off_c, 1, 69, 96
1, 93737, Note_off_c, 1, 41, 96
1, 93737, Note_off_c, 1, 53, 96
1, 93739, Note_on_c, 1, 72, 96
1, 93740, Note_off_c, 1, 72, 96
1, 93857, Note_on_c, 1, 69, 96
1, 93858, Note_off_c, 1, 69, 96
1, 93861, Note_on_c, 1, 72, 96
1, 93861, Note_on_c, 1, 50, 96
1, 93863, Note_off_c, 1, 72, 96
1, 93863, Note_off_c, 1, 50, 96
1, 93863, Note_on_c, 1, 66, 96
1, 93865, Note_off_c, 1, 66, 96
1, 93865, Note_on_c, 1, 38, 96
1, 93866, Note_off_c, 1, 38, 96
1, 93986, Note_on_c, 1, 66, 96
1, 93986, Note_on_c, 1, 74, 96
1, 93986, Note_on_c, 1, 57, 96
1, 93987, Note_off_c, 1, 66, 96
1, 93987, Note_off_c, 1, 74, 96
1, 93987, Note_off_c, 1, 57, 96
1, 93989, Note_on_c, 1, 60, 96
1, 93990, Note_off_c, 1, 60, 96
1, 93993, Note_on_c, 1, 69, 96
1, 93993, Note_on_c, 1, 62, 96
1, 93994, Note_off_c, 1, 69, 96
1, 93994, Note_off_c, 1, 62, 96
1, 94110, Note_on_c, 1, 74, 96
1, 94110, Note_on_c, 1, 43, 96
1, 94111, Note_off_c, 1, 74, 96
1, 94111, Note_off_c, 1, 43, 96
1, 94113, Note_on_c, 1, 76, 96
1, 94114, Note_off_c, 1, 76, 96
1, 94232, Note_on_c, 1, 59, 96
1, 94235, Note_off_c, 1, 59, 96
1, 94235, Note_on_c, 1, 55, 96
1, 94235, Note_on_c, 1, 65, 96
1, 94236, Note_off_c, 1, 55, 96
1, 94236, Note_off_c, 1, 65, 96
1, 94297, Note_on_c, 1, 74, 96
1, 94298, Note_off_c, 1, 74, 96
1, 94357, Note_on_c, 1, 43, 96
1, 94359, Note_off_c, 1, 43, 96
1, 94359, Note_on_c, 1, 76, 96
1, 94360, Note_off_c, 1, 76, 96
1, 94417, Note_on_c, 1, 64, 96
1, 94418, Note_off_c, 1, 64, 96
1, 94480, Note_on_c, 1, 71, 96
1, 94480, Note_on_c, 1, 38, 96
1, 94481, Note_off_c, 1, 71, 96
1, 94481, Note_off_c, 1, 38, 96
1, 94599, Note_on_c, 1, 54, 96
1, 94600, Note_off_c, 1, 54, 96
1, 94605, Note_on_c, 1, 79, 96
1, 94605, Note_on_c, 1, 62, 96
1, 94607, Note_off_c, 1, 79, 96
1, 94607, Note_off_c, 1, 62, 96
1, 94607, Note_on_c, 1, 66, 96
1, 94608, Note_off_c, 1, 66, 96
1, 94719, Note_on_c, 1, 50, 96
1, 94720, Note_off_c, 1, 50, 96
1, 94722, Note_on_c, 1, 38, 96
1, 94723, Note_off_c, 1, 38, 96
1, 94818, Note_on_c, 1, 79, 96
1, 94819, Note_off_c, 1, 79, 96
1, 94848, Note_on_c, 1, 50, 96
1, 94848, Note_on_c, 1, 59, 96
1, 94849, Note_off_c, 1, 50, 96
1, 94849, Note_off_c, 1, 59, 96
1, 94856, Note_on_c, 1, 74, 96
1, 94856, Note_on_c, 1, 78, 96
1, 94856, Note_on_c, 1, 55, 96
1, 94857, Note_off_c, 1, 74, 96
1, 94857, Note_off_c, 1, 78, 96
1, 94857, Note_off_c, 1, 55, 96
1, 94975, Note_on_c, 1, 57, 96
1, 94977, Note_off_c, 1, 57, 96
1, 94977, Note_on_c, 1, 69, 96
1, 94979, Note_off_c, 1, 69, 96
1, 94979, Note_on_c, 1, 63, 96
1, 94980, Note_off_c, 1, 63, 96
1, 94982, Note_on_c, 1, 76, 96
1, 94983, Note_off_c, 1, 76, 96
1, 95071, Note_on_c, 1, 80, 96
1, 95072, Note_off_c, 1, 80, 96
1, 95103, Note_on_c, 1, 61, 96
1, 95104, Note_off_c, 1, 61, 96
1, 95108, Note_on_c, 1, 76, 96
1, 95109, Note_off_c, 1, 76, 96
1, 95111, Note_on_c, 1, 49, 96
1, 95112, Note_off_c, 1, 49, 96
1, 95199, Note_on_c, 1, 74, 96
1, 95200, Note_off_c, 1, 74, 96
1, 95233, Note_on_c, 1, 38, 96
1, 95235, Note_off_c, 1, 38, 96
1, 95235, Note_on_c, 1, 74, 96
1, 95237, Note_off_c, 1, 74, 96
1, 95237, Note_on_c, 1, 50, 96
1, 95238, Note_off_c, 1, 50, 96
1, 95330, Note_on_c, 1, 81, 96
1, 95331, Note_off_c, 1, 81, 96
1, 95361, Note_on_c, 1, 50, 96
1, 95363, Note_off_c, 1, 50, 96
1, 95363, Note_on_c, 1, 79, 96
1, 95366, Note_off_c, 1, 79, 96
1, 95366, Note_on_c, 1, 67, 96
1, 95366, Note_on_c, 1, 59, 96
1, 95367, Note_off_c, 1, 67, 96
1, 95367, Note_off_c, 1, 59, 96
1, 95484, Note_on_c, 1, 55, 96
1, 95486, Note_off_c, 1, 55, 96
1, 95486, Note_on_c, 1, 83, 96
1, 95490, Note_off_c, 1, 83, 96
1, 95490, Note_on_c, 1, 71, 96
1, 95490, Note_on_c, 1, 62, 96
1, 95490, Note_on_c, 1, 59, 96
1, 95492, Note_off_c, 1, 71, 96
1, 95492, Note_off_c, 1, 62, 96
1, 95492, Note_off_c, 1, 59, 96
1, 95492, Note_on_c, 1, 74, 96
1, 95493, Note_off_c, 1, 74, 96
1, 95495, Note_on_c, 1, 79, 96
1, 95496, Note_off_c, 1, 79, 96
1, 95611, Note_on_c, 1, 59, 96
1, 95611, Note_on_c, 1, 55, 96
1, 95612, Note_off_c, 1, 59, 96
1, 95612, Note_off_c, 1, 55, 96
1, 95616, Note_on_c, 1, 65, 96
1, 95617, Note_off_c, 1, 65, 96
1, 95731, Note_on_c, 1, 66, 96
1, 95732, Note_off_c, 1, 66, 96
1, 95734, Note_on_c, 1, 74, 96
1, 95736, Note_off_c, 1, 74, 96
1, 95736, Note_on_c, 1, 71, 96
1, 95737, Note_off_c, 1, 71, 96
1, 95741, Note_on_c, 1, 59, 96
1, 95743, Note_off_c, 1, 59, 96
1, 95743, Note_on_c, 1, 55, 96
1, 95744, Note_off_c, 1, 55, 96
1, 95829, Note_on_c, 1, 76, 96
1, 95830, Note_off_c, 1, 76, 96
1, 95865, Note_on_c, 1, 71, 96
1, 95867, Note_off_c, 1, 71, 96
1, 95867, Note_on_c, 1, 43, 96
1, 95868, Note_off_c, 1, 43, 96
1, 95870, Note_on_c, 1, 79, 96
1, 95872, Note_off_c, 1, 79, 96
1, 95872, Note_on_c, 1, 67, 96
1, 95873, Note_off_c, 1, 67, 96
1, 95984, Note_on_c, 1, 73, 96
1, 95985, Note_off_c, 1, 73, 96
1, 95989, Note_on_c, 1, 69, 96
1, 95990, Note_off_c, 1, 69, 96
1, 96112, Note_on_c, 1, 45, 96
1, 96113, Note_off_c, 1, 45, 96
1, 96228, Note_on_c, 1, 79, 96
1, 96229, Note_off_c, 1, 79, 96
1, 96232, Note_on_c, 1, 74, 96
1, 96232, Note_on_c, 1, 67, 96
1, 96234, Note_off_c, 1, 74, 96
1, 96234, Note_off_c, 1, 67, 96
1, 96234, Note_on_c, 1, 38, 96
1, 96236, Note_off_c, 1, 38, 96
1, 96236, Note_on_c, 1, 50, 96
1, 96237, Note_off_c, 1, 50, 96
1, 96356, Note_on_c, 1, 45, 96
1, 96357, Note_off_c, 1, 45, 96
1, 96415, Note_on_c, 1, 73, 96
1, 96415, Note_on_c, 1, 77, 96
1, 96416, Note_off_c, 1, 73, 96
1, 96416, Note_off_c, 1, 77, 96
1, 96535, Note_on_c, 1, 67, 96
1, 96535, Note_on_c, 1, 65, 96
1, 96536, Note_off_c, 1, 67, 96
1, 96536, Note_off_c, 1, 65, 96
1, 96540, Note_on_c, 1, 62, 96
1, 96541, Note_off_c, 1, 62, 96
1, 96545, Note_on_c, 1, 79, 96
1, 96546, Note_off_c, 1, 79, 96
1, 96661, Note_on_c, 1, 66, 96
1, 96661, Note_on_c, 1, 75, 96
1, 96663, Note_off_c, 1, 66, 96
1, 96663, Note_off_c, 1, 75, 96
1, 96663, Note_on_c, 1, 78, 96
1, 96665, Note_off_c, 1, 78, 96
1, 96665, Note_on_c, 1, 52, 96
1, 96666, Note_off_c, 1, 52, 96
1, 96780, Note_on_c, 1, 74, 96
1, 96781, Note_off_c, 1, 74, 96
1, 96787, Note_on_c, 1, 65, 96
1, 96787, Note_on_c, 1, 43, 96
1, 96788, Note_off_c, 1, 65, 96
1, 96788, Note_off_c, 1, 43, 96
1, 96791, Note_on_c, 1, 59, 96
1, 96791, Note_on_c, 1, 55, 96
1, 96792, Note_off_c, 1, 59, 96
1, 96792, Note_off_c, 1, 55, 96
1, 96845, Note_on_c, 1, 74, 96
1, 96846, Note_off_c, 1, 74, 96
1, 96851, Note_on_c, 1, 78, 96
1, 96852, Note_off_c, 1, 78, 96
1, 96906, Note_on_c, 1, 38, 96
1, 96907, Note_off_c, 1, 38, 96
1, 96967, Note_on_c, 1, 74, 96
1, 96969, Note_off_c, 1, 74, 96
1, 96969, Note_on_c, 1, 71, 96
1, 96970, Note_off_c, 1, 71, 96
1, 97029, Note_on_c, 1, 59, 96
1, 97031, Note_off_c, 1, 59, 96
1, 97031, Note_on_c, 1, 55, 96
1, 97032, Note_off_c, 1, 55, 96
1, 97095, Note_on_c, 1, 76, 96
1, 97096, Note_off_c, 1, 76, 96
1, 97152, Note_on_c, 1, 71, 96
1, 97152, Note_on_c, 1, 50, 96
1, 97153, Note_off_c, 1, 71, 96
1, 97153, Note_off_c, 1, 50, 96
1, 97156, Note_on_c, 1, 55, 96
1, 97158, Note_off_c, 1, 55, 96
1, 97158, Note_on_c, 1, 59, 96
1, 97159, Note_off_c, 1, 59, 96
1, 97161, Note_on_c, 1, 74, 96
1, 97162, Note_off_c, 1, 74, 96
1, 97284, Note_on_c, 1, 45, 96
1, 97285, Note_off_c, 1, 45, 96
1, 97399, Note_on_c, 1, 60, 96
1, 97400, Note_off_c, 1, 60, 96
1, 97402, Note_on_c, 1, 50, 96
1, 97403, Note_off_c, 1, 50, 96
1, 97405, Note_on_c, 1, 54, 96
1, 97407, Note_off_c, 1, 54, 96
1, 97407, Note_on_c, 1, 76, 96
1, 97408, Note_off_c, 1, 76, 96
1, 97519, Note_on_c, 1, 78, 96
1, 97519, Note_on_c, 1, 66, 96
1, 97520, Note_off_c, 1, 78, 96
1, 97520, Note_off_c, 1, 66, 96
1, 97523, Note_on_c, 1, 38, 96
1, 97524, Note_off_c, 1, 38, 96
1, 97580, Note_on_c, 1, 76, 96
1, 97581, Note_off_c, 1, 76, 96
1, 97645, Note_on_c, 1, 74, 96
1, 97645, Note_on_c, 1, 78, 96
1, 97646, Note_off_c, 1, 74, 96
1, 97646, Note_off_c, 1, 78, 96
1, 97707, Note_on_c, 1, 80, 96
1, 97709, Note_off_c, 1, 80, 96
1, 97709, Note_on_c, 1, 71, 96
1, 97710, Note_off_c, 1, 71, 96
1, 97766, Note_on_c, 1, 66, 96
1, 97767, Note_off_c, 1, 66, 96
1, 97770, Note_on_c, 1, 62, 96
1, 97771, Note_off_c, 1, 62, 96
1, 97773, Note_on_c, 1, 69, 96
1, 97774, Note_off_c, 1, 69, 96
1, 97889, Note_on_c, 1, 72, 96
1, 97890, Note_off_c, 1, 72, 96
1, 98009, Note_on_c, 1, 58, 96
1, 98011, Note_off_c, 1, 58, 96
1, 98011, Note_on_c, 1, 70, 96
1, 98014, Note_off_c, 1, 70, 96
1, 98014, Note_on_c, 1, 65, 96
1, 98014, Note_on_c, 1, 46, 96
1, 98015, Note_off_c, 1, 65, 96
1, 98015, Note_off_c, 1, 46, 96
1, 98132, Note_on_c, 1, 58, 96
1, 98135, Note_off_c, 1, 58, 96
1, 98135, Note_on_c, 1, 70, 96
1, 98135, Note_on_c, 1, 53, 96
1, 98137, Note_off_c, 1, 70, 96
1, 98137, Note_off_c, 1, 53, 96
1, 98137, Note_on_c, 1, 65, 96
1, 98139, Note_off_c, 1, 65, 96
1, 98139, Note_on_c, 1, 62, 96
1, 98140, Note_off_c, 1, 62, 96
1, 98259, Note_on_c, 1, 34, 96
1, 98260, Note_off_c, 1, 34, 96
1, 98379, Note_on_c, 1, 74, 96
1, 98382, Note_off_c, 1, 74, 96
1, 98382, Note_on_c, 1, 74, 96
1, 98382, Note_on_c, 1, 53, 96
1, 98383, Note_off_c, 1, 74, 96
1, 98383, Note_off_c, 1, 53, 96
1, 98386, Note_on_c, 1, 62, 96
1, 98388, Note_off_c, 1, 62, 96
1, 98388, Note_on_c, 1, 58, 96
1, 98389, Note_off_c, 1, 58, 96
1, 98498, Note_on_c, 1, 74, 96
1, 98499, Note_off_c, 1, 74, 96
1, 98504, Note_on_c, 1, 64, 96
1, 98505, Note_off_c, 1, 64, 96
1, 98507, Note_on_c, 1, 60, 96
1, 98508, Note_off_c, 1, 60, 96
1, 98510, Note_on_c, 1, 52, 96
1, 98512, Note_off_c, 1, 52, 96
1, 98512, Note_on_c, 1, 70, 96
1, 98513, Note_off_c, 1, 70, 96
1, 98515, Note_on_c, 1, 55, 96
1, 98516, Note_off_c, 1, 55, 96
1, 98580, Note_on_c, 1, 74, 96
1, 98581, Note_off_c, 1, 74, 96
1, 98634, Note_on_c, 1, 58, 96
1, 98637, Note_off_c, 1, 58, 96
1, 98637, Note_on_c, 1, 74, 96
1, 98637, Note_on_c, 1, 60, 96
1, 98638, Note_off_c, 1, 74, 96
1, 98638, Note_off_c, 1, 60, 96
1, 98642, Note_on_c, 1, 55, 96
1, 98643, Note_off_c, 1, 55, 96
1, 98700, Note_on_c, 1, 72, 96
1, 98700, Note_on_c, 1, 76, 96
1, 98701, Note_off_c, 1, 72, 96
1, 98701, Note_off_c, 1, 76, 96
1, 98705, Note_on_c, 1, 79, 96
1, 98706, Note_off_c, 1, 79, 96
1, 98760, Note_on_c, 1, 60, 96
1, 98763, Note_off_c, 1, 60, 96
1, 98763, Note_on_c, 1, 77, 96
1, 98763, Note_on_c, 1, 65, 96
1, 98764, Note_off_c, 1, 77, 96
1, 98764, Note_off_c, 1, 65, 96
1, 98767, Note_on_c, 1, 57, 96
1, 98768, Note_off_c, 1, 57, 96
1, 98888, Note_on_c, 1, 41, 96
1, 98890, Note_off_c, 1, 41, 96
1, 98890, Note_on_c, 1, 53, 96
1, 98891, Note_off_c, 1, 53, 96
1, 99010, Note_on_c, 1, 72, 96
1, 99010, Note_on_c, 1, 41, 96
1, 99011, Note_off_c, 1, 72, 96
1, 99011, Note_off_c, 1, 41, 96
1, 99014, Note_on_c, 1, 77, 96
1, 99014, Note_on_c, 1, 53, 96
1, 99015, Note_off_c, 1, 77, 96
1, 99015, Note_off_c, 1, 53, 96
1, 99128, Note_on_c, 1, 65, 96
1, 99129, Note_off_c, 1, 65, 96
1, 99183, Note_on_c, 1, 69, 96
1, 99184, Note_off_c, 1, 69, 96
1, 99248, Note_on_c, 1, 72, 96
1, 99249, Note_off_c, 1, 72, 96
1, 99305, Note_on_c, 1, 76, 96
1, 99306, Note_off_c, 1, 76, 96
1, 99366, Note_on_c, 1, 63, 96
1, 99367, Note_off_c, 1, 63, 96
1, 99371, Note_on_c, 1, 76, 96
1, 99372, Note_off_c, 1, 76, 96
1, 99427, Note_on_c, 1, 72, 96
1, 99428, Note_off_c, 1, 72, 96
1, 99491, Note_on_c, 1, 67, 96
1, 99492, Note_off_c, 1, 67, 96
1, 99548, Note_on_c, 1, 74, 96
1, 99549, Note_off_c, 1, 74, 96
1, 99556, Note_on_c, 1, 69, 96
1, 99558, Note_off_c, 1, 69, 96
1, 99558, Note_on_c, 1, 77, 96
1, 99559, Note_off_c, 1, 77, 96
1, 99614, Note_on_c, 1, 77, 96
1, 99615, Note_off_c, 1, 77, 96
1, 99617, Note_on_c, 1, 69, 96
1, 99618, Note_off_c, 1, 69, 96
1, 99741, Note_on_c, 1, 60, 96
1, 99741, Note_on_c, 1, 57, 96
1, 99742, Note_off_c, 1, 60, 96
1, 99742, Note_off_c, 1, 57, 96
1, 99800, Note_on_c, 1, 71, 96
1, 99801, Note_off_c, 1, 71, 96
1, 99858, Note_on_c, 1, 77, 96
1, 99859, Note_off_c, 1, 77, 96
1, 99864, Note_on_c, 1, 57, 96
1, 99864, Note_on_c, 1, 60, 96
1, 99866, Note_off_c, 1, 57, 96
1, 99866, Note_off_c, 1, 60, 96
1, 99866, Note_on_c, 1, 65, 96
1, 99867, Note_off_c, 1, 65, 96
1, 99922, Note_on_c, 1, 72, 96
1, 99923, Note_off_c, 1, 72, 96
1, 99984, Note_on_c, 1, 69, 96
1, 99986, Note_off_c, 1, 69, 96
1, 99986, Note_on_c, 1, 57, 96
1, 99987, Note_off_c, 1, 57, 96
1, 99989, Note_on_c, 1, 45, 96
1, 99990, Note_off_c, 1, 45, 96
1, 100045, Note_on_c, 1, 72, 96
1, 100046, Note_off_c, 1, 72, 96
1, 100108, Note_on_c, 1, 65, 96
1, 100109, Note_off_c, 1, 65, 96
1, 100168, Note_on_c, 1, 78, 96
1, 100169, Note_off_c, 1, 78, 96
1, 100229, Note_on_c, 1, 55, 96
1, 100231, Note_off_c, 1, 55, 96
1, 100231, Note_on_c, 1, 43, 96
1, 100232, Note_off_c, 1, 43, 96
1, 100291, Note_on_c, 1, 74, 96
1, 100292, Note_off_c, 1, 74, 96
1, 100349, Note_on_c, 1, 60, 96
1, 100351, Note_off_c, 1, 60, 96
1, 100351, Note_on_c, 1, 72, 96
1, 100352, Note_off_c, 1, 72, 96
1, 100356, Note_on_c, 1, 54, 96
1, 100358, Note_off_c, 1, 54, 96
1, 100358, Note_on_c, 1, 50, 96
1, 100359, Note_off_c, 1, 50, 96
1, 100480, Note_on_c, 1, 76, 96
1, 100480, Note_on_c, 1, 50, 96
1, 100481, Note_off_c, 1, 76, 96
1, 100481, Note_off_c, 1, 50, 96
1, 100597, Note_on_c, 1, 71, 96
1, 100599, Note_off_c, 1, 71, 96
1, 100599, Note_on_c, 1, 50, 96
1, 100601, Note_off_c, 1, 50, 96
1, 100601, Note_on_c, 1, 59, 96
1, 100602, Note_off_c, 1, 59, 96
1, 100606, Note_on_c, 1, 76, 96
1, 100606, Note_on_c, 1, 55, 96
1, 100607, Note_off_c, 1, 76, 96
1, 100607, Note_off_c, 1, 55, 96
1, 100661, Note_on_c, 1, 67, 96
1, 100662, Note_off_c, 1, 67, 96
1, 100668, Note_on_c, 1, 71, 96
1, 100669, Note_off_c, 1, 71, 96
1, 100728, Note_on_c, 1, 42, 96
1, 100729, Note_off_c, 1, 42, 96
1, 100731, Note_on_c, 1, 54, 96
1, 100732, Note_off_c, 1, 54, 96
1, 100785, Note_on_c, 1, 66, 96
1, 100786, Note_off_c, 1, 66, 96
1, 100850, Note_on_c, 1, 43, 96
1, 100852, Note_off_c, 1, 43, 96
1, 100852, Note_on_c, 1, 71, 96
1, 100853, Note_off_c, 1, 71, 96
1, 100971, Note_on_c, 1, 74, 96
1, 100971, Note_on_c, 1, 59, 96
1, 100972, Note_off_c, 1, 74, 96
1, 100972, Note_off_c, 1, 59, 96
1, 100975, Note_on_c, 1, 43, 96
1, 100976, Note_off_c, 1, 43, 96
1, 100978, Note_on_c, 1, 65, 96
1, 100979, Note_off_c, 1, 65, 96
1, 101096, Note_on_c, 1, 71, 96
1, 101097, Note_off_c, 1, 71, 96
1, 101209, Note_on_c, 1, 43, 96
1, 101212, Note_off_c, 1, 43, 96
1, 101212, Note_on_c, 1, 59, 96
1, 101212, Note_on_c, 1, 65, 96
1, 101213, Note_off_c, 1, 59, 96
1, 101213, Note_off_c, 1, 65, 96
1, 101215, Note_on_c, 1, 71, 96
1, 101216, Note_off_c, 1, 71, 96
1, 101398, Note_on_c, 1, 74, 96
1, 101399, Note_off_c, 1, 74, 96
1, 101401, Note_on_c, 1, 79, 96
1, 101402, Note_off_c, 1, 79, 96
1, 101405, Note_on_c, 1, 67, 96
1, 101406, Note_off_c, 1, 67, 96
1, 101460, Note_on_c, 1, 38, 96
1, 101461, Note_off_c, 1, 38, 96
1, 101468, Note_on_c, 1, 50, 96
1, 101469, Note_off_c, 1, 50, 96
1, 101585, Note_on_c, 1, 59, 96
1, 101587, Note_off_c, 1, 59, 96
1, 101587, Note_on_c, 1, 55, 96
1, 101588, Note_off_c, 1, 55, 96
1, 101592, Note_on_c, 1, 67, 96
1, 101592, Note_on_c, 1, 65, 96
1, 101593, Note_off_c, 1, 67, 96
1, 101593, Note_off_c, 1, 65, 96
1, 101712, Note_on_c, 1, 45, 96
1, 101713, Note_off_c, 1, 45, 96
1, 101888, Note_on_c, 1, 73, 96
1, 101889, Note_off_c, 1, 73, 96
1, 101946, Note_on_c, 1, 65, 96
1, 101946, Note_on_c, 1, 47, 96
1, 101948, Note_off_c, 1, 65, 96
1, 101948, Note_off_c, 1, 47, 96
1, 101948, Note_on_c, 1, 59, 96
1, 101949, Note_off_c, 1, 59, 96
1, 101954, Note_on_c, 1, 71, 96
1, 101955, Note_off_c, 1, 71, 96
1, 102014, Note_on_c, 1, 74, 96
1, 102015, Note_off_c, 1, 74, 96
1, 102073, Note_on_c, 1, 43, 96
1, 102074, Note_off_c, 1, 43, 96
1, 102076, Note_on_c, 1, 74, 96
1, 102077, Note_off_c, 1, 74, 96
1, 102132, Note_on_c, 1, 71, 96
1, 102133, Note_off_c, 1, 71, 96
1, 102191, Note_on_c, 1, 74, 96
1, 102192, Note_off_c, 1, 74, 96
1, 102196, Note_on_c, 1, 43, 96
1, 102197, Note_off_c, 1, 43, 96
1, 102254, Note_on_c, 1, 74, 96
1, 102255, Note_off_c, 1, 74, 96
1, 102313, Note_on_c, 1, 38, 96
1, 102314, Note_off_c, 1, 38, 96
1, 102317, Note_on_c, 1, 76, 96
1, 102318, Note_off_c, 1, 76, 96
1, 102379, Note_on_c, 1, 72, 96
1, 102379, Note_on_c, 1, 66, 96
1, 102379, Note_on_c, 1, 45, 96
1, 102380, Note_off_c, 1, 72, 96
1, 102380, Note_off_c, 1, 66, 96
1, 102380, Note_off_c, 1, 45, 96
1, 102439, Note_on_c, 1, 66, 96
1, 102441, Note_off_c, 1, 66, 96
1, 102441, Note_on_c, 1, 74, 96
1, 102442, Note_off_c, 1, 74, 96
1, 102446, Note_on_c, 1, 66, 96
1, 102447, Note_off_c, 1, 66, 96
1, 102508, Note_on_c, 1, 45, 96
1, 102509, Note_off_c, 1, 45, 96
1, 102568, Note_on_c, 1, 71, 96
1, 102569, Note_off_c, 1, 71, 96
1, 102625, Note_on_c, 1, 60, 96
1, 102627, Note_off_c, 1, 60, 96
1, 102627, Note_on_c, 1, 54, 96
1, 102628, Note_off_c, 1, 54, 96
1, 102631, Note_on_c, 1, 57, 96
1, 102633, Note_off_c, 1, 57, 96
1, 102633, Note_on_c, 1, 75, 96
1, 102634, Note_off_c, 1, 75, 96
1, 102690, Note_on_c, 1, 69, 96
1, 102691, Note_off_c, 1, 69, 96
1, 102747, Note_on_c, 1, 50, 96
1, 102748, Note_off_c, 1, 50, 96
1, 102751, Note_on_c, 1, 54, 96
1, 102754, Note_off_c, 1, 54, 96
1, 102754, Note_on_c, 1, 74, 96
1, 102754, Note_on_c, 1, 60, 96
1, 102756, Note_off_c, 1, 74, 96
1, 102756, Note_off_c, 1, 60, 96
1, 102756, Note_on_c, 1, 66, 96
1, 102757, Note_off_c, 1, 66, 96
1, 102818, Note_on_c, 1, 72, 96
1, 102819, Note_off_c, 1, 72, 96
1, 102875, Note_on_c, 1, 50, 96
1, 102877, Note_off_c, 1, 50, 96
1, 102877, Note_on_c, 1, 69, 96
1, 102878, Note_off_c, 1, 69, 96
1, 102880, Note_on_c, 1, 54, 96
1, 102882, Note_off_c, 1, 54, 96
1, 102882, Note_on_c, 1, 60, 96
1, 102883, Note_off_c, 1, 60, 96
1, 102942, Note_on_c, 1, 72, 96
1, 102943, Note_off_c, 1, 72, 96
1, 102999, Note_on_c, 1, 74, 96
1, 103000, Note_off_c, 1, 74, 96
1, 103002, Note_on_c, 1, 45, 96
1, 103004, Note_off_c, 1, 45, 96
1, 103004, Note_on_c, 1, 57, 96
1, 103005, Note_off_c, 1, 57, 96
1, 103064, Note_on_c, 1, 71, 96
1, 103065, Note_off_c, 1, 71, 96
1, 103122, Note_on_c, 1, 71, 96
1, 103123, Note_off_c, 1, 71, 96
1, 103125, Note_on_c, 1, 38, 96
1, 103126, Note_off_c, 1, 38, 96
1, 103188, Note_on_c, 1, 76, 96
1, 103189, Note_off_c, 1, 76, 96
1, 103245, Note_on_c, 1, 62, 96
1, 103247, Note_off_c, 1, 62, 96
1, 103247, Note_on_c, 1, 66, 96
1, 103249, Note_off_c, 1, 66, 96
1, 103249, Note_on_c, 1, 74, 96
1, 103250, Note_off_c, 1, 74, 96
1, 103252, Note_on_c, 1, 45, 96
1, 103253, Note_off_c, 1, 45, 96
1, 103368, Note_on_c, 1, 60, 96
1, 103369, Note_off_c, 1, 60, 96
1, 103372, Note_on_c, 1, 54, 96
1, 103372, Note_on_c, 1, 50, 96
1, 103373, Note_off_c, 1, 54, 96
1, 103373, Note_off_c, 1, 50, 96
1, 103491, Note_on_c, 1, 62, 96
1, 103492, Note_off_c, 1, 62, 96
1, 103555, Note_on_c, 1, 62, 96
1, 103556, Note_off_c, 1, 62, 96
1, 103611, Note_on_c, 1, 64, 96
1, 103612, Note_off_c, 1, 64, 96
1, 103618, Note_on_c, 1, 43, 96
1, 103619, Note_off_c, 1, 43, 96
1, 103732, Note_on_c, 1, 50, 96
1, 103733, Note_off_c, 1, 50, 96
1, 103738, Note_on_c, 1, 59, 96
1, 103739, Note_off_c, 1, 59, 96
1, 103742, Note_on_c, 1, 43, 96
1, 103743, Note_off_c, 1, 43, 96
1, 103800, Note_on_c, 1, 62, 96
1, 103801, Note_off_c, 1, 62, 96
1, 103862, Note_on_c, 1, 66, 96
1, 103862, Note_on_c, 1, 54, 96
1, 103863, Note_off_c, 1, 66, 96
1, 103863, Note_off_c, 1, 54, 96
1, 103924, Note_on_c, 1, 45, 96
1, 103925, Note_off_c, 1, 45, 96
1, 103979, Note_on_c, 1, 52, 96
1, 103979, Note_on_c, 1, 40, 96
1, 103980, Note_off_c, 1, 52, 96
1, 103980, Note_off_c, 1, 40, 96
1, 104044, Note_on_c, 1, 66, 96
1, 104045, Note_off_c, 1, 66, 96
1, 104101, Note_on_c, 1, 62, 96
1, 104102, Note_off_c, 1, 62, 96
1, 104109, Note_on_c, 1, 66, 96
1, 104109, Note_on_c, 1, 57, 96
1, 104110, Note_off_c, 1, 66, 96
1, 104110, Note_off_c, 1, 57, 96
1, 104171, Note_on_c, 1, 66, 96
1, 104172, Note_off_c, 1, 66, 96
1, 104230, Note_on_c, 1, 66, 96
1, 104230, Note_on_c, 1, 38, 96
1, 104231, Note_off_c, 1, 66, 96
1, 104231, Note_off_c, 1, 38, 96
1, 104234, Note_on_c, 1, 64, 96
1, 104235, Note_off_c, 1, 64, 96
1, 104355, Note_on_c, 1, 33, 96
1, 104355, Note_on_c, 1, 45, 96
1, 104356, Note_off_c, 1, 33, 96
1, 104356, Note_off_c, 1, 45, 96
1, 104477, Note_on_c, 1, 62, 96
1, 104478, Note_off_c, 1, 62, 96
1, 104481, Note_on_c, 1, 45, 96
1, 104481, Note_on_c, 1, 50, 96
1, 104483, Note_off_c, 1, 45, 96
1, 104483, Note_off_c, 1, 50, 96
1, 104483, Note_on_c, 1, 60, 96
1, 104484, Note_off_c, 1, 60, 96
1, 104596, Note_on_c, 1, 60, 96
1, 104597, Note_off_c, 1, 60, 96
1, 104603, Note_on_c, 1, 50, 96
1, 104603, Note_on_c, 1, 54, 96
1, 104604, Note_off_c, 1, 50, 96
1, 104604, Note_off_c, 1, 54, 96
1, 104835, Note_on_c, 1, 55, 96
1, 104835, Note_on_c, 1, 61, 96
1, 104836, Note_off_c, 1, 55, 96
1, 104836, Note_off_c, 1, 61, 96
1, 104838, Note_on_c, 1, 57, 96
1, 104840, Note_off_c, 1, 57, 96
1, 104840, Note_on_c, 1, 67, 96
1, 104841, Note_off_c, 1, 67, 96
1, 104956, Note_on_c, 1, 47, 96
1, 104957, Note_off_c, 1, 47, 96
1, 104960, Note_on_c, 1, 35, 96
1, 104961, Note_off_c, 1, 35, 96
1, 104963, Note_on_c, 1, 55, 96
1, 104964, Note_off_c, 1, 55, 96
1, 105199, Note_on_c, 1, 67, 96
1, 105199, Note_on_c, 1, 59, 96
1, 105201, Note_off_c, 1, 67, 96
1, 105201, Note_off_c, 1, 59, 96
1, 105201, Note_on_c, 1, 65, 96
1, 105202, Note_off_c, 1, 65, 96
1, 105205, Note_on_c, 1, 53, 96
1, 105205, Note_on_c, 1, 55, 96
1, 105206, Note_off_c, 1, 53, 96
1, 105206, Note_off_c, 1, 55, 96
1, 105321, Note_on_c, 1, 50, 96
1, 105322, Note_off_c, 1, 50, 96
1, 105440, Note_on_c, 1, 55, 96
1, 105442, Note_off_c, 1, 55, 96
1, 105442, Note_on_c, 1, 59, 96
1, 105444, Note_off_c, 1, 59, 96
1, 105444, Note_on_c, 1, 71, 96
1, 105446, Note_off_c, 1, 71, 96
1, 105446, Note_on_c, 1, 64, 96
1, 105447, Note_off_c, 1, 64, 96
1, 105561, Note_on_c, 1, 67, 96
1, 105562, Note_off_c, 1, 67, 96
1, 105621, Note_on_c, 1, 67, 96
1, 105622, Note_off_c, 1, 67, 96
1, 105686, Note_on_c, 1, 66, 96
1, 105687, Note_off_c, 1, 66, 96
1, 105806, Note_on_c, 1, 64, 96
1, 105808, Note_off_c, 1, 64, 96
1, 105808, Note_on_c, 1, 72, 96
1, 105809, Note_off_c, 1, 72, 96
1, 105812, Note_on_c, 1, 60, 96
1, 105813, Note_off_c, 1, 60, 96
1, 105815, Note_on_c, 1, 55, 96
1, 105816, Note_off_c, 1, 55, 96
1, 105870, Note_on_c, 1, 65, 96
1, 105871, Note_off_c, 1, 65, 96
1, 105930, Note_on_c, 1, 65, 96
1, 105931, Note_off_c, 1, 65, 96
1, 105936, Note_on_c, 1, 62, 96
1, 105938, Note_off_c, 1, 62, 96
1, 105938, Note_on_c, 1, 74, 96
1, 105939, Note_off_c, 1, 74, 96
1, 106118, Note_on_c, 1, 74, 96
1, 106119, Note_off_c, 1, 74, 96
1, 106174, Note_on_c, 1, 79, 96
1, 106175, Note_off_c, 1, 79, 96
1, 106238, Note_on_c, 1, 66, 96
1, 106239, Note_off_c, 1, 66, 96
1, 106242, Note_on_c, 1, 54, 96
1, 106244, Note_off_c, 1, 54, 96
1, 106244, Note_on_c, 1, 72, 96
1, 106246, Note_off_c, 1, 72, 96
1, 106246, Note_on_c, 1, 50, 96
1, 106248, Note_off_c, 1, 50, 96
1, 106248, Note_on_c, 1, 60, 96
1, 106249, Note_off_c, 1, 60, 96
1, 106423, Note_on_c, 1, 72, 96
1, 106424, Note_off_c, 1, 72, 96
1, 106483, Note_on_c, 1, 67, 96
1, 106484, Note_off_c, 1, 67, 96
1, 106488, Note_on_c, 1, 49, 96
1, 106490, Note_off_c, 1, 49, 96
1, 106490, Note_on_c, 1, 61, 96
1, 106491, Note_off_c, 1, 61, 96
1, 106546, Note_on_c, 1, 76, 96
1, 106547, Note_off_c, 1, 76, 96
1, 106551, Note_on_c, 1, 67, 96
1, 106552, Note_off_c, 1, 67, 96
1, 106556, Note_on_c, 1, 73, 96
1, 106557, Note_off_c, 1, 73, 96
1, 106614, Note_on_c, 1, 50, 96
1, 106615, Note_off_c, 1, 50, 96
1, 106672, Note_on_c, 1, 69, 96
1, 106673, Note_off_c, 1, 69, 96
1, 106735, Note_on_c, 1, 74, 96
1, 106736, Note_off_c, 1, 74, 96
1, 106738, Note_on_c, 1, 66, 96
1, 106740, Note_off_c, 1, 66, 96
1, 106740, Note_on_c, 1, 45, 96
1, 106742, Note_off_c, 1, 45, 96
1, 106742, Note_on_c, 1, 57, 96
1, 106743, Note_off_c, 1, 57, 96
1, 106800, Note_on_c, 1, 74, 96
1, 106801, Note_off_c, 1, 74, 96
1, 106805, Note_on_c, 1, 66, 96
1, 106806, Note_off_c, 1, 66, 96
1, 106860, Note_on_c, 1, 50, 96
1, 106862, Note_off_c, 1, 50, 96
1, 106862, Note_on_c, 1, 66, 96
1, 106863, Note_off_c, 1, 66, 96
1, 106869, Note_on_c, 1, 59, 96
1, 106871, Note_off_c, 1, 59, 96
1, 106871, Note_on_c, 1, 54, 96
1, 106872, Note_off_c, 1, 54, 96
1, 106929, Note_on_c, 1, 69, 96
1, 106930, Note_off_c, 1, 69, 96
1, 106990, Note_on_c, 1, 38, 96
1, 106991, Note_off_c, 1, 38, 96
1, 106996, Note_on_c, 1, 74, 96
1, 106997, Note_off_c, 1, 74, 96
1, 107115, Note_on_c, 1, 54, 96
1, 107116, Note_off_c, 1, 54, 96
1, 107118, Note_on_c, 1, 64, 96
1, 107121, Note_off_c, 1, 64, 96
1, 107121, Note_on_c, 1, 72, 96
1, 107121, Note_on_c, 1, 60, 96
1, 107124, Note_off_c, 1, 72, 96
1, 107124, Note_off_c, 1, 60, 96
1, 107124, Note_on_c, 1, 69, 96
1, 107124, Note_on_c, 1, 50, 96
1, 107125, Note_off_c, 1, 69, 96
1, 107125, Note_off_c, 1, 50, 96
1, 107361, Note_on_c, 1, 60, 96
1, 107362, Note_off_c, 1, 60, 96
1, 107366, Note_on_c, 1, 54, 96
1, 107366, Note_on_c, 1, 50, 96
1, 107368, Note_off_c, 1, 54, 96
1, 107368, Note_off_c, 1, 50, 96
1, 107368, Note_on_c, 1, 66, 96
1, 107369, Note_off_c, 1, 66, 96
1, 107429, Note_on_c, 1, 69, 96
1, 107430, Note_off_c, 1, 69, 96
1, 107487, Note_on_c, 1, 50, 96
1, 107488, Note_off_c, 1, 50, 96
1, 107490, Note_on_c, 1, 55, 96
1, 107492, Note_off_c, 1, 55, 96
1, 107492, Note_on_c, 1, 59, 96
1, 107493, Note_off_c, 1, 59, 96
1, 107550, Note_on_c, 1, 62, 96
1, 107551, Note_off_c, 1, 62, 96
1, 107614, Note_on_c, 1, 59, 96
1, 107615, Note_off_c, 1, 59, 96
1, 107617, Note_on_c, 1, 55, 96
1, 107618, Note_off_c, 1, 55, 96
1, 107680, Note_on_c, 1, 65, 96
1, 107681, Note_off_c, 1, 65, 96
1, 107739, Note_on_c, 1, 47, 96
1, 107742, Note_off_c, 1, 47, 96
1, 107742, Note_on_c, 1, 65, 96
1, 107742, Note_on_c, 1, 60, 96
1, 107743, Note_off_c, 1, 65, 96
1, 107743, Note_off_c, 1, 60, 96
1, 107802, Note_on_c, 1, 71, 96
1, 107803, Note_off_c, 1, 71, 96
1, 107858, Note_on_c, 1, 74, 96
1, 107859, Note_off_c, 1, 74, 96
1, 107864, Note_on_c, 1, 67, 96
1, 107865, Note_off_c, 1, 67, 96
1, 107919, Note_on_c, 1, 77, 96
1, 107920, Note_off_c, 1, 77, 96
1, 107924, Note_on_c, 1, 79, 96
1, 107925, Note_off_c, 1, 79, 96
1, 107928, Note_on_c, 1, 67, 96
1, 107929, Note_off_c, 1, 67, 96
1, 107982, Note_on_c, 1, 47, 96
1, 107983, Note_off_c, 1, 47, 96
1, 108046, Note_on_c, 1, 62, 96
1, 108047, Note_off_c, 1, 62, 96
1, 108101, Note_on_c, 1, 64, 96
1, 108101, Note_on_c, 1, 60, 96
1, 108102, Note_off_c, 1, 64, 96
1, 108102, Note_off_c, 1, 60, 96
1, 108104, Note_on_c, 1, 69, 96
1, 108105, Note_off_c, 1, 69, 96
1, 108108, Note_on_c, 1, 74, 96
1, 108109, Note_off_c, 1, 74, 96
1, 108111, Note_on_c, 1, 57, 96
1, 108113, Note_off_c, 1, 57, 96
1, 108113, Note_on_c, 1, 57, 96
1, 108114, Note_off_c, 1, 57, 96
1, 108225, Note_on_c, 1, 54, 96
1, 108226, Note_off_c, 1, 54, 96
1, 108232, Note_on_c, 1, 63, 96
1, 108233, Note_off_c, 1, 63, 96
1, 108236, Note_on_c, 1, 60, 96
1, 108236, Note_on_c, 1, 75, 96
1, 108237, Note_off_c, 1, 60, 96
1, 108237, Note_off_c, 1, 75, 96
1, 108353, Note_on_c, 1, 55, 96
1, 108355, Note_off_c, 1, 55, 96
1, 108355, Note_on_c, 1, 43, 96
1, 108356, Note_off_c, 1, 43, 96
1, 108474, Note_on_c, 1, 65, 96
1, 108475, Note_off_c, 1, 65, 96
1, 108481, Note_on_c, 1, 53, 96
1, 108484, Note_off_c, 1, 53, 96
1, 108484, Note_on_c, 1, 69, 96
1, 108484, Note_on_c, 1, 41, 96
1, 108485, Note_off_c, 1, 69, 96
1, 108485, Note_off_c, 1, 41, 96
1, 108600, Note_on_c, 1, 71, 96
1, 108600, Note_on_c, 1, 59, 96
1, 108600, Note_on_c, 1, 65, 96
1, 108601, Note_off_c, 1, 71, 96
1, 108601, Note_off_c, 1, 59, 96
1, 108601, Note_off_c, 1, 65, 96
1, 108604, Note_on_c, 1, 67, 96
1, 108606, Note_off_c, 1, 67, 96
1, 108606, Note_on_c, 1, 43, 96
1, 108607, Note_off_c, 1, 43, 96
1, 108609, Note_on_c, 1, 55, 96
1, 108610, Note_off_c, 1, 55, 96
1, 108673, Note_on_c, 1, 72, 96
1, 108674, Note_off_c, 1, 72, 96
1, 108733, Note_on_c, 1, 71, 96
1, 108733, Note_on_c, 1, 50, 96
1, 108733, Note_on_c, 1, 55, 96
1, 108734, Note_off_c, 1, 71, 96
1, 108734, Note_off_c, 1, 50, 96
1, 108734, Note_off_c, 1, 55, 96
1, 108736, Note_on_c, 1, 59, 96
1, 108737, Note_off_c, 1, 59, 96
1, 108798, Note_on_c, 1, 71, 96
1, 108799, Note_off_c, 1, 71, 96
1, 108853, Note_on_c, 1, 45, 96
1, 108854, Note_off_c, 1, 45, 96
1, 108857, Note_on_c, 1, 72, 96
1, 108858, Note_off_c, 1, 72, 96
1, 108976, Note_on_c, 1, 61, 96
1, 108977, Note_off_c, 1, 61, 96
1, 108980, Note_on_c, 1, 55, 96
1, 108983, Note_off_c, 1, 55, 96
1, 108983, Note_on_c, 1, 76, 96
1, 108983, Note_on_c, 1, 64, 96
1, 108985, Note_off_c, 1, 76, 96
1, 108985, Note_off_c, 1, 64, 96
1, 108985, Note_on_c, 1, 69, 96
1, 108986, Note_off_c, 1, 69, 96
1, 109099, Note_on_c, 1, 38, 96
1, 109100, Note_off_c, 1, 38, 96
1, 109103, Note_on_c, 1, 50, 96
1, 109104, Note_off_c, 1, 50, 96
1, 109220, Note_on_c, 1, 40, 96
1, 109221, Note_off_c, 1, 40, 96
1, 109226, Note_on_c, 1, 67, 96
1, 109227, Note_off_c, 1, 67, 96
1, 109281, Note_on_c, 1, 71, 96
1, 109282, Note_off_c, 1, 71, 96
1, 109341, Note_on_c, 1, 65, 96
1, 109342, Note_off_c, 1, 65, 96
1, 109347, Note_on_c, 1, 62, 96
1, 109347, Note_on_c, 1, 38, 96
1, 109349, Note_off_c, 1, 62, 96
1, 109349, Note_off_c, 1, 38, 96
1, 109349, Note_on_c, 1, 69, 96
1, 109351, Note_off_c, 1, 69, 96
1, 109351, Note_on_c, 1, 44, 96
1, 109352, Note_off_c, 1, 44, 96
1, 109466, Note_on_c, 1, 50, 96
1, 109469, Note_off_c, 1, 50, 96
1, 109469, Note_on_c, 1, 57, 96
1, 109469, Note_on_c, 1, 62, 96
1, 109470, Note_off_c, 1, 57, 96
1, 109470, Note_off_c, 1, 62, 96
1, 109475, Note_on_c, 1, 71, 96
1, 109476, Note_off_c, 1, 71, 96
1, 109529, Note_on_c, 1, 74, 96
1, 109530, Note_off_c, 1, 74, 96
1, 109587, Note_on_c, 1, 55, 96
1, 109588, Note_off_c, 1, 55, 96
1, 109590, Note_on_c, 1, 43, 96
1, 109591, Note_off_c, 1, 43, 96
1, 109649, Note_on_c, 1, 79, 96
1, 109650, Note_off_c, 1, 79, 96
1, 109710, Note_on_c, 1, 48, 96
1, 109711, Note_off_c, 1, 48, 96
1, 109714, Note_on_c, 1, 75, 96
1, 109714, Note_on_c, 1, 36, 96
1, 109715, Note_off_c, 1, 75, 96
1, 109715, Note_off_c, 1, 36, 96
1, 109772, Note_on_c, 1, 72, 96
1, 109773, Note_off_c, 1, 72, 96
1, 109829, Note_on_c, 1, 55, 96
1, 109829, Note_on_c, 1, 43, 96
1, 109830, Note_off_c, 1, 55, 96
1, 109830, Note_off_c, 1, 43, 96
1, 109838, Note_on_c, 1, 76, 96
1, 109839, Note_off_c, 1, 76, 96
1, 109893, Note_on_c, 1, 77, 96
1, 109894, Note_off_c, 1, 77, 96
1, 109942, Note_on_c, 1, 43, 96
1, 109943, Note_off_c, 1, 43, 96
1, 109949, Note_on_c, 1, 75, 96
1, 109950, Note_off_c, 1, 75, 96
1, 110003, Note_on_c, 1, 74, 96
1, 110004, Note_off_c, 1, 74, 96
1, 110062, Note_on_c, 1, 48, 96
1, 110063, Note_off_c, 1, 48, 96
1, 110126, Note_on_c, 1, 76, 96
1, 110127, Note_off_c, 1, 76, 96
1, 110182, Note_on_c, 1, 52, 96
1, 110183, Note_off_c, 1, 52, 96
1, 110185, Note_on_c, 1, 55, 96
1, 110187, Note_off_c, 1, 55, 96
1, 110187, Note_on_c, 1, 60, 96
1, 110189, Note_off_c, 1, 60, 96
1, 110189, Note_on_c, 1, 76, 96
1, 110190, Note_off_c, 1, 76, 96
1, 110307, Note_on_c, 1, 76, 96
1, 110307, Note_on_c, 1, 41, 96
1, 110309, Note_off_c, 1, 76, 96
1, 110309, Note_off_c, 1, 41, 96
1, 110309, Note_on_c, 1, 79, 96
1, 110310, Note_off_c, 1, 79, 96
1, 110312, Note_on_c, 1, 71, 96
1, 110314, Note_off_c, 1, 71, 96
1, 110314, Note_on_c, 1, 53, 96
1, 110315, Note_off_c, 1, 53, 96
1, 110431, Note_on_c, 1, 75, 96
1, 110431, Note_on_c, 1, 60, 96
1, 110433, Note_off_c, 1, 75, 96
1, 110433, Note_off_c, 1, 60, 96
1, 110433, Note_on_c, 1, 72, 96
1, 110435, Note_off_c, 1, 72, 96
1, 110435, Note_on_c, 1, 48, 96
1, 110436, Note_off_c, 1, 48, 96
1, 110555, Note_on_c, 1, 69, 96
1, 110556, Note_off_c, 1, 69, 96
1, 110559, Note_on_c, 1, 74, 96
1, 110559, Note_on_c, 1, 41, 96
1, 110560, Note_off_c, 1, 74, 96
1, 110560, Note_off_c, 1, 41, 96
1, 110680, Note_on_c, 1, 77, 96
1, 110680, Note_on_c, 1, 65, 96
1, 110681, Note_off_c, 1, 77, 96
1, 110681, Note_off_c, 1, 65, 96
1, 110737, Note_on_c, 1, 69, 96
1, 110739, Note_off_c, 1, 69, 96
1, 110739, Note_on_c, 1, 63, 96
1, 110740, Note_off_c, 1, 63, 96
1, 110801, Note_on_c, 1, 72, 96
1, 110801, Note_on_c, 1, 65, 96
1, 110802, Note_off_c, 1, 72, 96
1, 110802, Note_off_c, 1, 65, 96
1, 110805, Note_on_c, 1, 69, 96
1, 110806, Note_off_c, 1, 69, 96
1, 110809, Note_on_c, 1, 57, 96
1, 110812, Note_off_c, 1, 57, 96
1, 110812, Note_on_c, 1, 77, 96
1, 110812, Note_on_c, 1, 60, 96
1, 110813, Note_off_c, 1, 77, 96
1, 110813, Note_off_c, 1, 60, 96
1, 110926, Note_on_c, 1, 48, 96
1, 110928, Note_off_c, 1, 48, 96
1, 110928, Note_on_c, 1, 79, 96
1, 110929, Note_off_c, 1, 79, 96
1, 110932, Note_on_c, 1, 74, 96
1, 110933, Note_off_c, 1, 74, 96
1, 110993, Note_on_c, 1, 72, 96
1, 110994, Note_off_c, 1, 72, 96
1, 111051, Note_on_c, 1, 69, 96
1, 111052, Note_off_c, 1, 69, 96
1, 111054, Note_on_c, 1, 77, 96
1, 111056, Note_off_c, 1, 77, 96
1, 111056, Note_on_c, 1, 41, 96
1, 111058, Note_off_c, 1, 41, 96
1, 111058, Note_on_c, 1, 53, 96
1, 111059, Note_off_c, 1, 53, 96
1, 111175, Note_on_c, 1, 48, 96
1, 111176, Note_off_c, 1, 48, 96
1, 111178, Note_on_c, 1, 69, 96
1, 111179, Note_off_c, 1, 69, 96
1, 111295, Note_on_c, 1, 53, 96
1, 111297, Note_off_c, 1, 53, 96
1, 111297, Note_on_c, 1, 41, 96
1, 111298, Note_off_c, 1, 41, 96
1, 111301, Note_on_c, 1, 72, 96
1, 111302, Note_off_c, 1, 72, 96
1, 111533, Note_on_c, 1, 55, 96
1, 111534, Note_off_c, 1, 55, 96
1, 111540, Note_on_c, 1, 43, 96
1, 111541, Note_off_c, 1, 43, 96
1, 111657, Note_on_c, 1, 48, 96
1, 111658, Note_off_c, 1, 48, 96
1, 111720, Note_on_c, 1, 69, 96
1, 111721, Note_off_c, 1, 69, 96
1, 111783, Note_on_c, 1, 43, 96
1, 111784, Note_off_c, 1, 43, 96
1, 111898, Note_on_c, 1, 55, 96
1, 111900, Note_off_c, 1, 55, 96
1, 111900, Note_on_c, 1, 50, 96
1, 111902, Note_off_c, 1, 50, 96
1, 111902, Note_on_c, 1, 67, 96
1, 111903, Note_off_c, 1, 67, 96
1, 112016, Note_on_c, 1, 48, 96
1, 112017, Note_off_c, 1, 48, 96
1, 112019, Note_on_c, 1, 36, 96
1, 112020, Note_off_c, 1, 36, 96
1, 112080, Note_on_c, 1, 74, 96
1, 112081, Note_off_c, 1, 74, 96
1, 112142, Note_on_c, 1, 74, 96
1, 112142, Note_on_c, 1, 64, 96
1, 112142, Note_on_c, 1, 60, 96
1, 112142, Note_on_c, 1, 55, 96
1, 112143, Note_off_c, 1, 74, 96
1, 112143, Note_off_c, 1, 64, 96
1, 112143, Note_off_c, 1, 60, 96
1, 112143, Note_off_c, 1, 55, 96
1, 112201, Note_on_c, 1, 74, 96
1, 112202, Note_off_c, 1, 74, 96
1, 112262, Note_on_c, 1, 60, 96
1, 112262, Note_on_c, 1, 48, 96
1, 112263, Note_off_c, 1, 60, 96
1, 112263, Note_off_c, 1, 48, 96
1, 112323, Note_on_c, 1, 74, 96
1, 112324, Note_off_c, 1, 74, 96
1, 112383, Note_on_c, 1, 72, 96
1, 112385, Note_off_c, 1, 72, 96
1, 112385, Note_on_c, 1, 60, 96
1, 112388, Note_off_c, 1, 60, 96
1, 112388, Note_on_c, 1, 58, 96
1, 112388, Note_on_c, 1, 52, 96
1, 112389, Note_off_c, 1, 58, 96
1, 112389, Note_off_c, 1, 52, 96
1, 112391, Note_on_c, 1, 48, 96
1, 112392, Note_off_c, 1, 48, 96
1, 112447, Note_on_c, 1, 74, 96
1, 112448, Note_off_c, 1, 74, 96
1, 112510, Note_on_c, 1, 36, 96
1, 112512, Note_off_c, 1, 36, 96
1, 112512, Note_on_c, 1, 48, 96
1, 112513, Note_off_c, 1, 48, 96
1, 112571, Note_on_c, 1, 74, 96
1, 112572, Note_off_c, 1, 74, 96
1, 112576, Note_on_c, 1, 72, 96
1, 112577, Note_off_c, 1, 72, 96
1, 112632, Note_on_c, 1, 41, 96
1, 112634, Note_off_c, 1, 41, 96
1, 112634, Note_on_c, 1, 72, 96
1, 112635, Note_off_c, 1, 72, 96
1, 112637, Note_on_c, 1, 69, 96
1, 112638, Note_off_c, 1, 69, 96
1, 112640, Note_on_c, 1, 53, 96
1, 112641, Note_off_c, 1, 53, 96
1, 112757, Note_on_c, 1, 81, 96
1, 112757, Note_on_c, 1, 53, 96
1, 112759, Note_off_c, 1, 81, 96
1, 112759, Note_off_c, 1, 53, 96
1, 112759, Note_on_c, 1, 77, 96
1, 112762, Note_off_c, 1, 77, 96
1, 112762, Note_on_c, 1, 69, 96
1, 112762, Note_on_c, 1, 41, 96
1, 112763, Note_off_c, 1, 69, 96
1, 112763, Note_off_c, 1, 41, 96
1, 112998, Note_on_c, 1, 41, 96
1, 112998, Note_on_c, 1, 53, 96
1, 112999, Note_off_c, 1, 41, 96
1, 112999, Note_off_c, 1, 53, 96
1, 113002, Note_on_c, 1, 48, 96
1, 113004, Note_off_c, 1, 48, 96
1, 113004, Note_on_c, 1, 72, 96
1, 113005, Note_off_c, 1, 72, 96
1, 113121, Note_on_c, 1, 71, 96
1, 113123, Note_off_c, 1, 71, 96
1, 113123, Note_on_c, 1, 43, 96
1, 113125, Note_off_c, 1, 43, 96
1, 113125, Note_on_c, 1, 55, 96
1, 113126, Note_off_c, 1, 55, 96
1, 113482, Note_on_c, 1, 59, 96
1, 113484, Note_off_c, 1, 59, 96
1, 113484, Note_on_c, 1, 65, 96
1, 113485, Note_off_c, 1, 65, 96
1, 113545, Note_on_c, 1, 74, 96
1, 113546, Note_off_c, 1, 74, 96
1, 113608, Note_on_c, 1, 50, 96
1, 113608, Note_on_c, 1, 38, 96
1, 113610, Note_off_c, 1, 50, 96
1, 113610, Note_off_c, 1, 38, 96
1, 113610, Note_on_c, 1, 74, 96
1, 113611, Note_off_c, 1, 74, 96
1, 113731, Note_on_c, 1, 69, 96
1, 113732, Note_off_c, 1, 69, 96
1, 113848, Note_on_c, 1, 65, 96
1, 113849, Note_off_c, 1, 65, 96
1, 113852, Note_on_c, 1, 59, 96
1, 113853, Note_off_c, 1, 59, 96
1, 113966, Note_on_c, 1, 73, 96
1, 113968, Note_off_c, 1, 73, 96
1, 113968, Note_on_c, 1, 76, 96
1, 113969, Note_off_c, 1, 76, 96
1, 114089, Note_on_c, 1, 59, 96
1, 114091, Note_off_c, 1, 59, 96
1, 114091, Note_on_c, 1, 55, 96
1, 114093, Note_off_c, 1, 55, 96
1, 114093, Note_on_c, 1, 74, 96
1, 114094, Note_off_c, 1, 74, 96
1, 114096, Note_on_c, 1, 53, 96
1, 114097, Note_off_c, 1, 53, 96
1, 114215, Note_on_c, 1, 76, 96
1, 114215, Note_on_c, 1, 48, 96
1, 114216, Note_off_c, 1, 76, 96
1, 114216, Note_off_c, 1, 48, 96
1, 114333, Note_on_c, 1, 66, 96
1, 114335, Note_off_c, 1, 66, 96
1, 114335, Note_on_c, 1, 74, 96
1, 114336, Note_off_c, 1, 74, 96
1, 114453, Note_on_c, 1, 67, 96
1, 114455, Note_off_c, 1, 67, 96
1, 114455, Note_on_c, 1, 55, 96
1, 114456, Note_off_c, 1, 55, 96
1, 114459, Note_on_c, 1, 60, 96
1, 114462, Note_off_c, 1, 60, 96
1, 114462, Note_on_c, 1, 76, 96
1, 114462, Note_on_c, 1, 52, 96
1, 114463, Note_off_c, 1, 76, 96
1, 114463, Note_off_c, 1, 52, 96
1, 114698, Note_on_c, 1, 64, 96
1, 114699, Note_off_c, 1, 64, 96
1, 114702, Note_on_c, 1, 43, 96
1, 114704, Note_off_c, 1, 43, 96
1, 114704, Note_on_c, 1, 67, 96
1, 114705, Note_off_c, 1, 67, 96
1, 114877, Note_on_c, 1, 69, 96
1, 114878, Note_off_c, 1, 69, 96
1, 114999, Note_on_c, 1, 60, 96
1, 115001, Note_off_c, 1, 60, 96
1, 115001, Note_on_c, 1, 50, 96
1, 115002, Note_off_c, 1, 50, 96
1, 115004, Note_on_c, 1, 74, 96
1, 115006, Note_off_c, 1, 74, 96
1, 115006, Note_on_c, 1, 54, 96
1, 115007, Note_off_c, 1, 54, 96
1, 115063, Note_on_c, 1, 74, 96
1, 115064, Note_off_c, 1, 74, 96
1, 115124, Note_on_c, 1, 66, 96
1, 115126, Note_off_c, 1, 66, 96
1, 115126, Note_on_c, 1, 74, 96
1, 115128, Note_off_c, 1, 74, 96
1, 115128, Note_on_c, 1, 54, 96
1, 115129, Note_off_c, 1, 54, 96
1, 115132, Note_on_c, 1, 60, 96
1, 115132, Note_on_c, 1, 50, 96
1, 115133, Note_off_c, 1, 60, 96
1, 115133, Note_off_c, 1, 50, 96
1, 115193, Note_on_c, 1, 72, 96
1, 115194, Note_off_c, 1, 72, 96
1, 115248, Note_on_c, 1, 66, 96
1, 115249, Note_off_c, 1, 66, 96
1, 115251, Note_on_c, 1, 38, 96
1, 115252, Note_off_c, 1, 38, 96
1, 115256, Note_on_c, 1, 50, 96
1, 115257, Note_off_c, 1, 50, 96
1, 115315, Note_on_c, 1, 69, 96
1, 115316, Note_off_c, 1, 69, 96
1, 115373, Note_on_c, 1, 72, 96
1, 115374, Note_off_c, 1, 72, 96
1, 115376, Note_on_c, 1, 60, 96
1, 115378, Note_off_c, 1, 60, 96
1, 115378, Note_on_c, 1, 66, 96
1, 115380, Note_off_c, 1, 66, 96
1, 115380, Note_on_c, 1, 50, 96
1, 115381, Note_off_c, 1, 50, 96
1, 115439, Note_on_c, 1, 72, 96
1, 115440, Note_off_c, 1, 72, 96
1, 115443, Note_on_c, 1, 76, 96
1, 115444, Note_off_c, 1, 76, 96
1, 115503, Note_on_c, 1, 44, 96
1, 115504, Note_off_c, 1, 44, 96
1, 115507, Note_on_c, 1, 56, 96
1, 115508, Note_off_c, 1, 56, 96
1, 115564, Note_on_c, 1, 79, 96
1, 115565, Note_off_c, 1, 79, 96
1, 115626, Note_on_c, 1, 76, 96
1, 115628, Note_off_c, 1, 76, 96
1, 115628, Note_on_c, 1, 59, 96
1, 115631, Note_off_c, 1, 59, 96
1, 115631, Note_on_c, 1, 65, 96
1, 115631, Note_on_c, 1, 55, 96
1, 115632, Note_off_c, 1, 65, 96
1, 115632, Note_off_c, 1, 55, 96
1, 115752, Note_on_c, 1, 72, 96
1, 115752, Note_on_c, 1, 48, 96
1, 115754, Note_off_c, 1, 72, 96
1, 115754, Note_off_c, 1, 48, 96
1, 115754, Note_on_c, 1, 67, 96
1, 115755, Note_off_c, 1, 67, 96
1, 115757, Note_on_c, 1, 64, 96
1, 115758, Note_off_c, 1, 64, 96
1, 115872, Note_on_c, 1, 71, 96
1, 115874, Note_off_c, 1, 71, 96
1, 115874, Note_on_c, 1, 55, 96
1, 115875, Note_off_c, 1, 55, 96
1, 115879, Note_on_c, 1, 83, 96
1, 115879, Note_on_c, 1, 59, 96
1, 115879, Note_on_c, 1, 50, 96
1, 115880, Note_off_c, 1, 83, 96
1, 115880, Note_off_c, 1, 59, 96
1, 115880, Note_off_c, 1, 50, 96
1, 115974, Note_on_c, 1, 81, 96
1, 115975, Note_off_c, 1, 81, 96
1, 115997, Note_on_c, 1, 79, 96
1, 115998, Note_off_c, 1, 79, 96
1, 116000, Note_on_c, 1, 50, 96
1, 116001, Note_off_c, 1, 50, 96
1, 116003, Note_on_c, 1, 55, 96
1, 116004, Note_off_c, 1, 55, 96
1, 116006, Note_on_c, 1, 59, 96
1, 116007, Note_off_c, 1, 59, 96
1, 116068, Note_on_c, 1, 74, 96
1, 116069, Note_off_c, 1, 74, 96
1, 116125, Note_on_c, 1, 74, 96
1, 116127, Note_off_c, 1, 74, 96
1, 116127, Note_on_c, 1, 59, 96
1, 116130, Note_off_c, 1, 59, 96
1, 116130, Note_on_c, 1, 65, 96
1, 116130, Note_on_c, 1, 55, 96
1, 116131, Note_off_c, 1, 65, 96
1, 116131, Note_off_c, 1, 55, 96
1, 116191, Note_on_c, 1, 76, 96
1, 116192, Note_off_c, 1, 76, 96
1, 116254, Note_on_c, 1, 50, 96
1, 116255, Note_off_c, 1, 50, 96
1, 116260, Note_on_c, 1, 72, 96
1, 116260, Note_on_c, 1, 83, 96
1, 116260, Note_on_c, 1, 55, 96
1, 116260, Note_on_c, 1, 59, 96
1, 116261, Note_off_c, 1, 72, 96
1, 116261, Note_off_c, 1, 83, 96
1, 116261, Note_off_c, 1, 55, 96
1, 116261, Note_off_c, 1, 59, 96
1, 116318, Note_on_c, 1, 79, 96
1, 116319, Note_off_c, 1, 79, 96
1, 116374, Note_on_c, 1, 43, 96
1, 116375, Note_off_c, 1, 43, 96
1, 116383, Note_on_c, 1, 80, 96
1, 116386, Note_off_c, 1, 80, 96
1, 116386, Note_on_c, 1, 76, 96
1, 116386, Note_on_c, 1, 55, 96
1, 116387, Note_off_c, 1, 76, 96
1, 116387, Note_off_c, 1, 55, 96
1, 116499, Note_on_c, 1, 72, 96
1, 116499, Note_on_c, 1, 45, 96
1, 116500, Note_off_c, 1, 72, 96
1, 116500, Note_off_c, 1, 45, 96
1, 116503, Note_on_c, 1, 81, 96
1, 116503, Note_on_c, 1, 33, 96
1, 116505, Note_off_c, 1, 81, 96
1, 116505, Note_off_c, 1, 33, 96
1, 116505, Note_on_c, 1, 76, 96
1, 116506, Note_off_c, 1, 76, 96
1, 116629, Note_on_c, 1, 54, 96
1, 116630, Note_off_c, 1, 54, 96
1, 116688, Note_on_c, 1, 68, 96
1, 116689, Note_off_c, 1, 68, 96
1, 116694, Note_on_c, 1, 62, 96
1, 116694, Note_on_c, 1, 74, 96
1, 116695, Note_off_c, 1, 62, 96
1, 116695, Note_off_c, 1, 74, 96
1, 116811, Note_on_c, 1, 74, 96
1, 116812, Note_off_c, 1, 74, 96
1, 116814, Note_on_c, 1, 50, 96
1, 116815, Note_off_c, 1, 50, 96
1, 116820, Note_on_c, 1, 56, 96
1, 116821, Note_off_c, 1, 56, 96
1, 116937, Note_on_c, 1, 75, 96
1, 116937, Note_on_c, 1, 56, 96
1, 116939, Note_off_c, 1, 75, 96
1, 116939, Note_off_c, 1, 56, 96
1, 116939, Note_on_c, 1, 52, 96
1, 116940, Note_off_c, 1, 52, 96
1, 116944, Note_on_c, 1, 59, 96
1, 116945, Note_off_c, 1, 59, 96
1, 117059, Note_on_c, 1, 72, 96
1, 117061, Note_off_c, 1, 72, 96
1, 117061, Note_on_c, 1, 76, 96
1, 117063, Note_off_c, 1, 76, 96
1, 117063, Note_on_c, 1, 52, 96
1, 117064, Note_off_c, 1, 52, 96
1, 117182, Note_on_c, 1, 41, 96
1, 117184, Note_off_c, 1, 41, 96
1, 117184, Note_on_c, 1, 70, 96
1, 117186, Note_off_c, 1, 70, 96
1, 117186, Note_on_c, 1, 53, 96
1, 117187, Note_off_c, 1, 53, 96
1, 117190, Note_on_c, 1, 74, 96
1, 117191, Note_off_c, 1, 74, 96
1, 117305, Note_on_c, 1, 61, 96
1, 117307, Note_off_c, 1, 61, 96
1, 117307, Note_on_c, 1, 53, 96
1, 117309, Note_off_c, 1, 53, 96
1, 117309, Note_on_c, 1, 68, 96
1, 117310, Note_off_c, 1, 68, 96
1, 117315, Note_on_c, 1, 74, 96
1, 117315, Note_on_c, 1, 58, 96
1, 117317, Note_off_c, 1, 74, 96
1, 117317, Note_off_c, 1, 58, 96
1, 117317, Note_on_c, 1, 65, 96
1, 117318, Note_off_c, 1, 65, 96
1, 117431, Note_on_c, 1, 73, 96
1, 117433, Note_off_c, 1, 73, 96
1, 117433, Note_on_c, 1, 77, 96
1, 117435, Note_off_c, 1, 77, 96
1, 117435, Note_on_c, 1, 41, 96
1, 117436, Note_off_c, 1, 41, 96
1, 117439, Note_on_c, 1, 69, 96
1, 117440, Note_off_c, 1, 69, 96
1, 117556, Note_on_c, 1, 41, 96
1, 117557, Note_off_c, 1, 41, 96
1, 117560, Note_on_c, 1, 53, 96
1, 117561, Note_off_c, 1, 53, 96
1, 117617, Note_on_c, 1, 74, 96
1, 117618, Note_off_c, 1, 74, 96
1, 117621, Note_on_c, 1, 70, 96
1, 117622, Note_off_c, 1, 70, 96
1, 117679, Note_on_c, 1, 57, 96
1, 117682, Note_off_c, 1, 57, 96
1, 117682, Note_on_c, 1, 53, 96
1, 117682, Note_on_c, 1, 63, 96
1, 117683, Note_off_c, 1, 53, 96
1, 117683, Note_off_c, 1, 63, 96
1, 117728, Note_on_c, 1, 74, 96
1, 117728, Note_on_c, 1, 70, 96
1, 117729, Note_off_c, 1, 74, 96
1, 117729, Note_off_c, 1, 70, 96
1, 117776, Note_on_c, 1, 48, 96
1, 117777, Note_off_c, 1, 48, 96
1, 117896, Note_on_c, 1, 60, 96
1, 117897, Note_off_c, 1, 60, 96
1, 117956, Note_on_c, 1, 79, 96
1, 117956, Note_on_c, 1, 67, 96
1, 117957, Note_off_c, 1, 79, 96
1, 117957, Note_off_c, 1, 67, 96
1, 118021, Note_on_c, 1, 69, 96
1, 118022, Note_off_c, 1, 69, 96
1, 118076, Note_on_c, 1, 72, 96
1, 118077, Note_off_c, 1, 72, 96
1, 118200, Note_on_c, 1, 68, 96
1, 118200, Note_on_c, 1, 74, 96
1, 118201, Note_off_c, 1, 68, 96
1, 118201, Note_off_c, 1, 74, 96
1, 118262, Note_on_c, 1, 76, 96
1, 118262, Note_on_c, 1, 61, 96
1, 118263, Note_off_c, 1, 76, 96
1, 118263, Note_off_c, 1, 61, 96
1, 118266, Note_on_c, 1, 64, 96
1, 118266, Note_on_c, 1, 57, 96
1, 118267, Note_off_c, 1, 64, 96
1, 118267, Note_off_c, 1, 57, 96
1, 118269, Note_on_c, 1, 67, 96
1, 118270, Note_off_c, 1, 67, 96
1, 118382, Note_on_c, 1, 72, 96
1, 118383, Note_off_c, 1, 72, 96
1, 118385, Note_on_c, 1, 44, 96
1, 118386, Note_off_c, 1, 44, 96
1, 118390, Note_on_c, 1, 64, 96
1, 118391, Note_off_c, 1, 64, 96
1, 118452, Note_on_c, 1, 74, 96
1, 118452, Note_on_c, 1, 71, 96
1, 118453, Note_off_c, 1, 74, 96
1, 118453, Note_off_c, 1, 71, 96
1, 118514, Note_on_c, 1, 45, 96
1, 118516, Note_off_c, 1, 45, 96
1, 118516, Note_on_c, 1, 72, 96
1, 118517, Note_off_c, 1, 72, 96
1, 118753, Note_on_c, 1, 60, 96
1, 118755, Note_off_c, 1, 60, 96
1, 118755, Note_on_c, 1, 69, 96
1, 118757, Note_off_c, 1, 69, 96
1, 118757, Note_on_c, 1, 57, 96
1, 118758, Note_off_c, 1, 57, 96
1, 118761, Note_on_c, 1, 52, 96
1, 118762, Note_off_c, 1, 52, 96
1, 118938, Note_on_c, 1, 60, 96
1, 118938, Note_on_c, 1, 48, 96
1, 118939, Note_off_c, 1, 60, 96
1, 118939, Note_off_c, 1, 48, 96
1, 119060, Note_on_c, 1, 45, 96
1, 119061, Note_off_c, 1, 45, 96
1, 119123, Note_on_c, 1, 57, 96
1, 119125, Note_off_c, 1, 57, 96
1, 119125, Note_on_c, 1, 53, 96
1, 119126, Note_off_c, 1, 53, 96
1, 119180, Note_on_c, 1, 57, 96
1, 119183, Note_off_c, 1, 57, 96
1, 119183, Note_on_c, 1, 62, 96
1, 119183, Note_on_c, 1, 53, 96
1, 119184, Note_off_c, 1, 62, 96
1, 119184, Note_off_c, 1, 53, 96
1, 119307, Note_on_c, 1, 48, 96
1, 119308, Note_off_c, 1, 48, 96
1, 119427, Note_on_c, 1, 60, 96
1, 119428, Note_off_c, 1, 60, 96
1, 119660, Note_on_c, 1, 41, 96
1, 119661, Note_off_c, 1, 41, 96
1, 119666, Note_on_c, 1, 72, 96
1, 119668, Note_off_c, 1, 72, 96
1, 119668, Note_on_c, 1, 29, 96
1, 119669, Note_off_c, 1, 29, 96
1, 120016, Note_on_c, 1, 53, 96
1, 120018, Note_off_c, 1, 53, 96
1, 120018, Note_on_c, 1, 57, 96
1, 120019, Note_off_c, 1, 57, 96
1, 120021, Note_on_c, 1, 60, 96
1, 120023, Note_off_c, 1, 60, 96
1, 120023, Note_on_c, 1, 69, 96
1, 120024, Note_off_c, 1, 69, 96
1, 120139, Note_on_c, 1, 69, 96
1, 120140, Note_off_c, 1, 69, 96
1, 120147, Note_on_c, 1, 60, 96
1, 120148, Note_off_c, 1, 60, 96
1, 120376, Note_on_c, 1, 69, 96
1, 120377, Note_off_c, 1, 69, 96
1, 120379, Note_on_c, 1, 60, 96
1, 120380, Note_off_c, 1, 60, 96
1, 120383, Note_on_c, 1, 65, 96
1, 120384, Note_off_c, 1, 65, 96
1, 120501, Note_on_c, 1, 68, 96
1, 120501, Note_on_c, 1, 57, 96
1, 120503, Note_off_c, 1, 68, 96
1, 120503, Note_off_c, 1, 57, 96
1, 120503, Note_on_c, 1, 60, 96
1, 120504, Note_off_c, 1, 60, 96
1, 120507, Note_on_c, 1, 74, 96
1, 120508, Note_off_c, 1, 74, 96
1, 120623, Note_on_c, 1, 36, 96
1, 120625, Note_off_c, 1, 36, 96
1, 120625, Note_on_c, 1, 48, 96
1, 120626, Note_off_c, 1, 48, 96
1, 120628, Note_on_c, 1, 75, 96
1, 120629, Note_off_c, 1, 75, 96
1, 120745, Note_on_c, 1, 60, 96
1, 120746, Note_off_c, 1, 60, 96
1, 120749, Note_on_c, 1, 69, 96
1, 120749, Note_on_c, 1, 52, 96
1, 120750, Note_off_c, 1, 69, 96
1, 120750, Note_off_c, 1, 52, 96
1, 120752, Note_on_c, 1, 55, 96
1, 120753, Note_off_c, 1, 55, 96
1, 120810, Note_on_c, 1, 74, 96
1, 120811, Note_off_c, 1, 74, 96
1, 120815, Note_on_c, 1, 69, 96
1, 120816, Note_off_c, 1, 69, 96
1, 120872, Note_on_c, 1, 52, 96
1, 120873, Note_off_c, 1, 52, 96
1, 120933, Note_on_c, 1, 69, 96
1, 120934, Note_off_c, 1, 69, 96
1, 120993, Note_on_c, 1, 60, 96
1, 120995, Note_off_c, 1, 60, 96
1, 120995, Note_on_c, 1, 57, 96
1, 120996, Note_off_c, 1, 57, 96
1, 121001, Note_on_c, 1, 67, 96
1, 121002, Note_off_c, 1, 67, 96
1, 121121, Note_on_c, 1, 40, 96
1, 121123, Note_off_c, 1, 40, 96
1, 121123, Note_on_c, 1, 52, 96
1, 121124, Note_off_c, 1, 52, 96
1, 121238, Note_on_c, 1, 41, 96
1, 121239, Note_off_c, 1, 41, 96
1, 121243, Note_on_c, 1, 53, 96
1, 121244, Note_off_c, 1, 53, 96
1, 121302, Note_on_c, 1, 72, 96
1, 121303, Note_off_c, 1, 72, 96
1, 121358, Note_on_c, 1, 36, 96
1, 121360, Note_off_c, 1, 36, 96
1, 121360, Note_on_c, 1, 48, 96
1, 121361, Note_off_c, 1, 48, 96
1, 121480, Note_on_c, 1, 69, 96
1, 121485, Note_off_c, 1, 69, 96
1, 121485, Note_on_c, 1, 75, 96
1, 121485, Note_on_c, 1, 57, 96
1, 121485, Note_on_c, 1, 53, 96
1, 121485, Note_on_c, 1, 60, 96
1, 121486, Note_off_c, 1, 75, 96
1, 121486, Note_off_c, 1, 57, 96
1, 121486, Note_off_c, 1, 53, 96
1, 121486, Note_off_c, 1, 60, 96
1, 121606, Note_on_c, 1, 65, 96
1, 121607, Note_off_c, 1, 65, 96
1, 121609, Note_on_c, 1, 69, 96
1, 121610, Note_off_c, 1, 69, 96
1, 121727, Note_on_c, 1, 72, 96
1, 121728, Note_off_c, 1, 72, 96
1, 121736, Note_on_c, 1, 60, 96
1, 121738, Note_off_c, 1, 60, 96
1, 121738, Note_on_c, 1, 57, 96
1, 121739, Note_off_c, 1, 57, 96
1, 121798, Note_on_c, 1, 79, 96
1, 121799, Note_off_c, 1, 79, 96
1, 121853, Note_on_c, 1, 48, 96
1, 121855, Note_off_c, 1, 48, 96
1, 121855, Note_on_c, 1, 64, 96
1, 121856, Note_off_c, 1, 64, 96
1, 121858, Note_on_c, 1, 72, 96
1, 121860, Note_off_c, 1, 72, 96
1, 121860, Note_on_c, 1, 36, 96
1, 121861, Note_off_c, 1, 36, 96
1, 121976, Note_on_c, 1, 64, 96
1, 121978, Note_off_c, 1, 64, 96
1, 121978, Note_on_c, 1, 76, 96
1, 121979, Note_off_c, 1, 76, 96
1, 121981, Note_on_c, 1, 55, 96
1, 121984, Note_off_c, 1, 55, 96
1, 121984, Note_on_c, 1, 70, 96
1, 121984, Note_on_c, 1, 60, 96
1, 121985, Note_off_c, 1, 70, 96
1, 121985, Note_off_c, 1, 60, 96
1, 122041, Note_on_c, 1, 79, 96
1, 122042, Note_off_c, 1, 79, 96
1, 122100, Note_on_c, 1, 60, 96
1, 122101, Note_off_c, 1, 60, 96
1, 122104, Note_on_c, 1, 65, 96
1, 122105, Note_off_c, 1, 65, 96
1, 122111, Note_on_c, 1, 57, 96
1, 122112, Note_off_c, 1, 57, 96
1, 122227, Note_on_c, 1, 41, 96
1, 122228, Note_off_c, 1, 41, 96
1, 122258, Note_on_c, 1, 69, 96
1, 122259, Note_off_c, 1, 69, 96
1, 122290, Note_on_c, 1, 70, 96
1, 122291, Note_off_c, 1, 70, 96
1, 122332, Note_on_c, 1, 70, 96
1, 122333, Note_off_c, 1, 70, 96
1, 122631, Note_on_c, 1, 53, 96
1, 122633, Note_off_c, 1, 53, 96
1, 122633, Note_on_c, 1, 56, 96
1, 122634, Note_off_c, 1, 56, 96
1, 122638, Note_on_c, 1, 60, 96
1, 122639, Note_off_c, 1, 60, 96
1, 122797, Note_on_c, 1, 81, 96
1, 122798, Note_off_c, 1, 81, 96
1, 122858, Note_on_c, 1, 79, 96
1, 122860, Note_off_c, 1, 79, 96
1, 122860, Note_on_c, 1, 59, 96
1, 122862, Note_off_c, 1, 59, 96
1, 122862, Note_on_c, 1, 47, 96
1, 122863, Note_off_c, 1, 47, 96
1, 123096, Note_on_c, 1, 82, 96
1, 123097, Note_off_c, 1, 82, 96
1, 123099, Note_on_c, 1, 50, 96
1, 123100, Note_off_c, 1, 50, 96
1, 123104, Note_on_c, 1, 62, 96
1, 123105, Note_off_c, 1, 62, 96
1, 123107, Note_on_c, 1, 74, 96
1, 123108, Note_off_c, 1, 74, 96
1, 123224, Note_on_c, 1, 77, 96
1, 123225, Note_off_c, 1, 77, 96
1, 123227, Note_on_c, 1, 81, 96
1, 123228, Note_off_c, 1, 81, 96
1, 123230, Note_on_c, 1, 69, 96
1, 123231, Note_off_c, 1, 69, 96
1, 123349, Note_on_c, 1, 58, 96
1, 123349, Note_on_c, 1, 46, 96
1, 123350, Note_off_c, 1, 58, 96
1, 123350, Note_off_c, 1, 46, 96
1, 123467, Note_on_c, 1, 82, 96
1, 123467, Note_on_c, 1, 74, 96
1, 123468, Note_off_c, 1, 82, 96
1, 123468, Note_off_c, 1, 74, 96
1, 123470, Note_on_c, 1, 41, 96
1, 123472, Note_off_c, 1, 41, 96
1, 123472, Note_on_c, 1, 53, 96
1, 123473, Note_off_c, 1, 53, 96
1, 123586, Note_on_c, 1, 52, 96
1, 123588, Note_off_c, 1, 52, 96
1, 123588, Note_on_c, 1, 40, 96
1, 123589, Note_off_c, 1, 40, 96
1, 123591, Note_on_c, 1, 81, 96
1, 123592, Note_off_c, 1, 81, 96
1, 123596, Note_on_c, 1, 69, 96
1, 123597, Note_off_c, 1, 69, 96
1, 123651, Note_on_c, 1, 77, 96
1, 123652, Note_off_c, 1, 77, 96
1, 123714, Note_on_c, 1, 53, 96
1, 123715, Note_off_c, 1, 53, 96
1, 123718, Note_on_c, 1, 62, 96
1, 123719, Note_off_c, 1, 62, 96
1, 123723, Note_on_c, 1, 79, 96
1, 123725, Note_off_c, 1, 79, 96
1, 123725, Note_on_c, 1, 70, 96
1, 123726, Note_off_c, 1, 70, 96
1, 123784, Note_on_c, 1, 72, 96
1, 123785, Note_off_c, 1, 72, 96
1, 123844, Note_on_c, 1, 76, 96
1, 123845, Note_off_c, 1, 76, 96
1, 123847, Note_on_c, 1, 48, 96
1, 123848, Note_off_c, 1, 48, 96
1, 123852, Note_on_c, 1, 60, 96
1, 123853, Note_off_c, 1, 60, 96
1, 123910, Note_on_c, 1, 81, 96
1, 123911, Note_off_c, 1, 81, 96
1, 123973, Note_on_c, 1, 58, 96
1, 123976, Note_off_c, 1, 58, 96
1, 123976, Note_on_c, 1, 82, 96
1, 123976, Note_on_c, 1, 55, 96
1, 123977, Note_off_c, 1, 82, 96
1, 123977, Note_off_c, 1, 55, 96
1, 123980, Note_on_c, 1, 60, 96
1, 123980, Note_on_c, 1, 64, 96
1, 123981, Note_off_c, 1, 60, 96
1, 123981, Note_off_c, 1, 64, 96
1, 124038, Note_on_c, 1, 82, 96
1, 124039, Note_off_c, 1, 82, 96
1, 124096, Note_on_c, 1, 82, 96
1, 124098, Note_off_c, 1, 82, 96
1, 124098, Note_on_c, 1, 58, 96
1, 124099, Note_off_c, 1, 58, 96
1, 124101, Note_on_c, 1, 60, 96
1, 124103, Note_off_c, 1, 60, 96
1, 124103, Note_on_c, 1, 64, 96
1, 124104, Note_off_c, 1, 64, 96
1, 124164, Note_on_c, 1, 84, 96
1, 124165, Note_off_c, 1, 84, 96
1, 124221, Note_on_c, 1, 53, 96
1, 124222, Note_off_c, 1, 53, 96
1, 124225, Note_on_c, 1, 79, 96
1, 124225, Note_on_c, 1, 43, 96
1, 124226, Note_off_c, 1, 79, 96
1, 124226, Note_off_c, 1, 43, 96
1, 124287, Note_on_c, 1, 77, 96
1, 124288, Note_off_c, 1, 77, 96
1, 124345, Note_on_c, 1, 83, 96
1, 124345, Note_on_c, 1, 41, 96
1, 124347, Note_off_c, 1, 83, 96
1, 124347, Note_off_c, 1, 41, 96
1, 124347, Note_on_c, 1, 53, 96
1, 124349, Note_off_c, 1, 53, 96
1, 124349, Note_on_c, 1, 79, 96
1, 124350, Note_off_c, 1, 79, 96
1, 124411, Note_on_c, 1, 81, 96
1, 124412, Note_off_c, 1, 81, 96
1, 124534, Note_on_c, 1, 62, 96
1, 124535, Note_off_c, 1, 62, 96
1, 124602, Note_on_c, 1, 75, 96
1, 124602, Note_on_c, 1, 79, 96
1, 124603, Note_off_c, 1, 75, 96
1, 124603, Note_off_c, 1, 79, 96
1, 124658, Note_on_c, 1, 67, 96
1, 124659, Note_off_c, 1, 67, 96
1, 124662, Note_on_c, 1, 58, 96
1, 124664, Note_off_c, 1, 58, 96
1, 124664, Note_on_c, 1, 60, 96
1, 124665, Note_off_c, 1, 60, 96
1, 124722, Note_on_c, 1, 72, 96
1, 124724, Note_off_c, 1, 72, 96
1, 124724, Note_on_c, 1, 75, 96
1, 124725, Note_off_c, 1, 75, 96
1, 124785, Note_on_c, 1, 57, 96
1, 124787, Note_off_c, 1, 57, 96
1, 124787, Note_on_c, 1, 45, 96
1, 124788, Note_off_c, 1, 45, 96
1, 124844, Note_on_c, 1, 76, 96
1, 124845, Note_off_c, 1, 76, 96
1, 124905, Note_on_c, 1, 52, 96
1, 124906, Note_off_c, 1, 52, 96
1, 124910, Note_on_c, 1, 76, 96
1, 124911, Note_off_c, 1, 76, 96
1, 124971, Note_on_c, 1, 76, 96
1, 124972, Note_off_c, 1, 76, 96
1, 125028, Note_on_c, 1, 75, 96
1, 125030, Note_off_c, 1, 75, 96
1, 125030, Note_on_c, 1, 57, 96
1, 125032, Note_off_c, 1, 57, 96
1, 125032, Note_on_c, 1, 64, 96
1, 125033, Note_off_c, 1, 64, 96
1, 125035, Note_on_c, 1, 60, 96
1, 125036, Note_off_c, 1, 60, 96
1, 125093, Note_on_c, 1, 72, 96
1, 125094, Note_off_c, 1, 72, 96
1, 125152, Note_on_c, 1, 72, 96
1, 125152, Note_on_c, 1, 57, 96
1, 125155, Note_off_c, 1, 72, 96
1, 125155, Note_off_c, 1, 57, 96
1, 125155, Note_on_c, 1, 60, 96
1, 125155, Note_on_c, 1, 64, 96
1, 125156, Note_off_c, 1, 60, 96
1, 125156, Note_off_c, 1, 64, 96
1, 125158, Note_on_c, 1, 76, 96
1, 125159, Note_off_c, 1, 76, 96
1, 125216, Note_on_c, 1, 76, 96
1, 125217, Note_off_c, 1, 76, 96
1, 125222, Note_on_c, 1, 71, 96
1, 125223, Note_off_c, 1, 71, 96
1, 125280, Note_on_c, 1, 48, 96
1, 125281, Note_off_c, 1, 48, 96
1, 125400, Note_on_c, 1, 48, 96
1, 125401, Note_off_c, 1, 48, 96
1, 125404, Note_on_c, 1, 74, 96
1, 125405, Note_off_c, 1, 74, 96
1, 125407, Note_on_c, 1, 77, 96
1, 125408, Note_off_c, 1, 77, 96
1, 125523, Note_on_c, 1, 64, 96
1, 125523, Note_on_c, 1, 60, 96
1, 125524, Note_off_c, 1, 64, 96
1, 125524, Note_off_c, 1, 60, 96
1, 125528, Note_on_c, 1, 72, 96
1, 125530, Note_off_c, 1, 72, 96
1, 125530, Note_on_c, 1, 55, 96
1, 125531, Note_off_c, 1, 55, 96
1, 125585, Note_on_c, 1, 72, 96
1, 125586, Note_off_c, 1, 72, 96
1, 125705, Note_on_c, 1, 77, 96
1, 125706, Note_off_c, 1, 77, 96
1, 125708, Note_on_c, 1, 69, 96
1, 125709, Note_off_c, 1, 69, 96
1, 125770, Note_on_c, 1, 74, 96
1, 125772, Note_off_c, 1, 74, 96
1, 125772, Note_on_c, 1, 70, 96
1, 125773, Note_off_c, 1, 70, 96
1, 125777, Note_on_c, 1, 62, 96
1, 125778, Note_off_c, 1, 62, 96
1, 125833, Note_on_c, 1, 60, 96
1, 125835, Note_off_c, 1, 60, 96
1, 125835, Note_on_c, 1, 72, 96
1, 125836, Note_off_c, 1, 72, 96
1, 125897, Note_on_c, 1, 70, 96
1, 125898, Note_off_c, 1, 70, 96
1, 125954, Note_on_c, 1, 67, 96
1, 125955, Note_off_c, 1, 67, 96
1, 126134, Note_on_c, 1, 67, 96
1, 126134, Note_on_c, 1, 71, 96
1, 126134, Note_on_c, 1, 62, 96
1, 126136, Note_off_c, 1, 67, 96
1, 126136, Note_off_c, 1, 71, 96
1, 126136, Note_off_c, 1, 62, 96
1, 126136, Note_on_c, 1, 55, 96
1, 126137, Note_off_c, 1, 55, 96
1, 126140, Note_on_c, 1, 50, 96
1, 126141, Note_off_c, 1, 50, 96
1, 126253, Note_on_c, 1, 50, 96
1, 126254, Note_off_c, 1, 50, 96
1, 126259, Note_on_c, 1, 74, 96
1, 126259, Note_on_c, 1, 38, 96
1, 126260, Note_off_c, 1, 74, 96
1, 126260, Note_off_c, 1, 38, 96
1, 126374, Note_on_c, 1, 59, 96
1, 126375, Note_off_c, 1, 59, 96
1, 126378, Note_on_c, 1, 79, 96
1, 126378, Note_on_c, 1, 67, 96
1, 126379, Note_off_c, 1, 79, 96
1, 126379, Note_off_c, 1, 67, 96
1, 126381, Note_on_c, 1, 55, 96
1, 126383, Note_off_c, 1, 55, 96
1, 126383, Note_on_c, 1, 53, 96
1, 126384, Note_off_c, 1, 53, 96
1, 126500, Note_on_c, 1, 70, 96
1, 126503, Note_off_c, 1, 70, 96
1, 126503, Note_on_c, 1, 79, 96
1, 126503, Note_on_c, 1, 75, 96
1, 126506, Note_off_c, 1, 79, 96
1, 126506, Note_off_c, 1, 75, 96
1, 126506, Note_on_c, 1, 55, 96
1, 126506, Note_on_c, 1, 43, 96
1, 126507, Note_off_c, 1, 55, 96
1, 126507, Note_off_c, 1, 43, 96
1, 126628, Note_on_c, 1, 55, 96
1, 126628, Note_on_c, 1, 64, 96
1, 126630, Note_off_c, 1, 55, 96
1, 126630, Note_off_c, 1, 64, 96
1, 126630, Note_on_c, 1, 60, 96
1, 126631, Note_off_c, 1, 60, 96
1, 126687, Note_on_c, 1, 81, 96
1, 126688, Note_off_c, 1, 81, 96
1, 126691, Note_on_c, 1, 69, 96
1, 126692, Note_off_c, 1, 69, 96
1, 126749, Note_on_c, 1, 81, 96
1, 126750, Note_off_c, 1, 81, 96
1, 126754, Note_on_c, 1, 57, 96
1, 126754, Note_on_c, 1, 62, 96
1, 126755, Note_off_c, 1, 57, 96
1, 126755, Note_off_c, 1, 62, 96
1, 126757, Note_on_c, 1, 53, 96
1, 126758, Note_off_c, 1, 53, 96
1, 126873, Note_on_c, 1, 72, 96
1, 126874, Note_off_c, 1, 72, 96
1, 126939, Note_on_c, 1, 79, 96
1, 126940, Note_off_c, 1, 79, 96
1, 127056, Note_on_c, 1, 76, 96
1, 127057, Note_off_c, 1, 76, 96
1, 127059, Note_on_c, 1, 84, 96
1, 127060, Note_off_c, 1, 84, 96
1, 127062, Note_on_c, 1, 72, 96
1, 127063, Note_off_c, 1, 72, 96
1, 127176, Note_on_c, 1, 72, 96
1, 127178, Note_off_c, 1, 72, 96
1, 127178, Note_on_c, 1, 43, 96
1, 127180, Note_off_c, 1, 43, 96
1, 127180, Note_on_c, 1, 55, 96
1, 127181, Note_off_c, 1, 55, 96
1, 127186, Note_on_c, 1, 84, 96
1, 127187, Note_off_c, 1, 84, 96
1, 127299, Note_on_c, 1, 52, 96
1, 127300, Note_off_c, 1, 52, 96
1, 127304, Note_on_c, 1, 84, 96
1, 127306, Note_off_c, 1, 84, 96
1, 127306, Note_on_c, 1, 60, 96
1, 127308, Note_off_c, 1, 60, 96
1, 127308, Note_on_c, 1, 72, 96
1, 127309, Note_off_c, 1, 72, 96
1, 127311, Note_on_c, 1, 55, 96
1, 127313, Note_off_c, 1, 55, 96
1, 127313, Note_on_c, 1, 76, 96
1, 127314, Note_off_c, 1, 76, 96
1, 127366, Note_on_c, 1, 72, 96
1, 127367, Note_off_c, 1, 72, 96
1, 127374, Note_on_c, 1, 76, 96
1, 127375, Note_off_c, 1, 76, 96
1, 127430, Note_on_c, 1, 76, 96
1, 127430, Note_on_c, 1, 52, 96
1, 127433, Note_off_c, 1, 76, 96
1, 127433, Note_off_c, 1, 52, 96
1, 127433, Note_on_c, 1, 79, 96
1, 127433, Note_on_c, 1, 60, 96
1, 127434, Note_off_c, 1, 79, 96
1, 127434, Note_off_c, 1, 60, 96
1, 127438, Note_on_c, 1, 55, 96
1, 127440, Note_off_c, 1, 55, 96
1, 127440, Note_on_c, 1, 70, 96
1, 127441, Note_off_c, 1, 70, 96
1, 127499, Note_on_c, 1, 75, 96
1, 127500, Note_off_c, 1, 75, 96
1, 127504, Note_on_c, 1, 66, 96
1, 127504, Note_on_c, 1, 78, 96
1, 127505, Note_off_c, 1, 66, 96
1, 127505, Note_off_c, 1, 78, 96
1, 127561, Note_on_c, 1, 76, 96
1, 127561, Note_on_c, 1, 67, 96
1, 127562, Note_off_c, 1, 76, 96
1, 127562, Note_off_c, 1, 67, 96
1, 127565, Note_on_c, 1, 79, 96
1, 127566, Note_off_c, 1, 79, 96
1, 127569, Note_on_c, 1, 43, 96
1, 127570, Note_off_c, 1, 43, 96
1, 127690, Note_on_c, 1, 81, 96
1, 127690, Note_on_c, 1, 55, 96
1, 127690, Note_on_c, 1, 64, 96
1, 127690, Note_on_c, 1, 60, 96
1, 127691, Note_off_c, 1, 81, 96
1, 127691, Note_off_c, 1, 55, 96
1, 127691, Note_off_c, 1, 64, 96
1, 127691, Note_off_c, 1, 60, 96
1, 127809, Note_on_c, 1, 48, 96
1, 127810, Note_off_c, 1, 48, 96
1, 127814, Note_on_c, 1, 79, 96
1, 127815, Note_off_c, 1, 79, 96
1, 128048, Note_on_c, 1, 79, 96
1, 128049, Note_off_c, 1, 79, 96
1, 128052, Note_on_c, 1, 67, 96
1, 128053, Note_off_c, 1, 67, 96
1, 128170, Note_on_c, 1, 79, 96
1, 128172, Note_off_c, 1, 79, 96
1, 128172, Note_on_c, 1, 71, 96
1, 128173, Note_off_c, 1, 71, 96
1, 128176, Note_on_c, 1, 76, 96
1, 128177, Note_off_c, 1, 76, 96
1, 128179, Note_on_c, 1, 67, 96
1, 128181, Note_off_c, 1, 67, 96
1, 128181, Note_on_c, 1, 52, 96
1, 128182, Note_off_c, 1, 52, 96
1, 128298, Note_on_c, 1, 79, 96
1, 128299, Note_off_c, 1, 79, 96
1, 128415, Note_on_c, 1, 55, 96
1, 128418, Note_off_c, 1, 55, 96
1, 128418, Note_on_c, 1, 64, 96
1, 128418, Note_on_c, 1, 60, 96
1, 128420, Note_off_c, 1, 64, 96
1, 128420, Note_off_c, 1, 60, 96
1, 128420, Note_on_c, 1, 66, 96
1, 128421, Note_off_c, 1, 66, 96
1, 128423, Note_on_c, 1, 76, 96
1, 128424, Note_off_c, 1, 76, 96
1, 128482, Note_on_c, 1, 72, 96
1, 128483, Note_off_c, 1, 72, 96
1, 128547, Note_on_c, 1, 74, 96
1, 128547, Note_on_c, 1, 55, 96
1, 128547, Note_on_c, 1, 60, 96
1, 128549, Note_off_c, 1, 74, 96
1, 128549, Note_off_c, 1, 55, 96
1, 128549, Note_off_c, 1, 60, 96
1, 128549, Note_on_c, 1, 64, 96
1, 128550, Note_off_c, 1, 64, 96
1, 128611, Note_on_c, 1, 74, 96
1, 128612, Note_off_c, 1, 74, 96
1, 128670, Note_on_c, 1, 60, 96
1, 128672, Note_off_c, 1, 60, 96
1, 128672, Note_on_c, 1, 64, 96
1, 128673, Note_off_c, 1, 64, 96
1, 128675, Note_on_c, 1, 55, 96
1, 128676, Note_off_c, 1, 55, 96
1, 128678, Note_on_c, 1, 76, 96
1, 128679, Note_off_c, 1, 76, 96
1, 128735, Note_on_c, 1, 67, 96
1, 128735, Note_on_c, 1, 43, 96
1, 128736, Note_off_c, 1, 67, 96
1, 128736, Note_off_c, 1, 43, 96
1, 128739, Note_on_c, 1, 76, 96
1, 128740, Note_off_c, 1, 76, 96
1, 128860, Note_on_c, 1, 64, 96
1, 128860, Note_on_c, 1, 60, 96
1, 128861, Note_off_c, 1, 64, 96
1, 128861, Note_off_c, 1, 60, 96
1, 128864, Note_on_c, 1, 55, 96
1, 128865, Note_off_c, 1, 55, 96
1, 129108, Note_on_c, 1, 76, 96
1, 129109, Note_off_c, 1, 76, 96
1, 129227, Note_on_c, 1, 55, 96
1, 129227, Note_on_c, 1, 60, 96
1, 129229, Note_off_c, 1, 55, 96
1, 129229, Note_off_c, 1, 60, 96
1, 129229, Note_on_c, 1, 64, 96
1, 129230, Note_off_c, 1, 64, 96
1, 129354, Note_on_c, 1, 72, 96
1, 129355, Note_off_c, 1, 72, 96
1, 129406, Note_on_c, 1, 76, 96
1, 129407, Note_off_c, 1, 76, 96
1, 129413, Note_on_c, 1, 74, 96
1, 129414, Note_off_c, 1, 74, 96
1, 129650, Note_on_c, 1, 76, 96
1, 129651, Note_off_c, 1, 76, 96
1, 129653, Note_on_c, 1, 55, 96
1, 129655, Note_off_c, 1, 55, 96
1, 129655, Note_on_c, 1, 79, 96
1, 129656, Note_off_c, 1, 79, 96
1, 129661, Note_on_c, 1, 64, 96
1, 129661, Note_on_c, 1, 64, 96
1, 129661, Note_on_c, 1, 60, 96
1, 129662, Note_off_c, 1, 64, 96
1, 129662, Note_off_c, 1, 64, 96
1, 129662, Note_off_c, 1, 60, 96
1, 129717, Note_on_c, 1, 69, 96
1, 129718, Note_off_c, 1, 69, 96
1, 129722, Note_on_c, 1, 77, 96
1, 129723, Note_off_c, 1, 77, 96
1, 129780, Note_on_c, 1, 74, 96
1, 129782, Note_off_c, 1, 74, 96
1, 129782, Note_on_c, 1, 65, 96
1, 129783, Note_off_c, 1, 65, 96
1, 129789, Note_on_c, 1, 57, 96
1, 129791, Note_off_c, 1, 57, 96
1, 129791, Note_on_c, 1, 60, 96
1, 129792, Note_off_c, 1, 60, 96
1, 129848, Note_on_c, 1, 69, 96
1, 129849, Note_off_c, 1, 69, 96
1, 129908, Note_on_c, 1, 69, 96
1, 129909, Note_off_c, 1, 69, 96
1, 129911, Note_on_c, 1, 53, 96
1, 129913, Note_off_c, 1, 53, 96
1, 129913, Note_on_c, 1, 78, 96
1, 129914, Note_off_c, 1, 78, 96
1, 129972, Note_on_c, 1, 75, 96
1, 129973, Note_off_c, 1, 75, 96
1, 130031, Note_on_c, 1, 57, 96
1, 130032, Note_off_c, 1, 57, 96
1, 130034, Note_on_c, 1, 62, 96
1, 130036, Note_off_c, 1, 62, 96
1, 130036, Note_on_c, 1, 74, 96
1, 130037, Note_off_c, 1, 74, 96
1, 130039, Note_on_c, 1, 53, 96
1, 130040, Note_off_c, 1, 53, 96
1, 130094, Note_on_c, 1, 69, 96
1, 130095, Note_off_c, 1, 69, 96
1, 130157, Note_on_c, 1, 77, 96
1, 130158, Note_off_c, 1, 77, 96
1, 130160, Note_on_c, 1, 50, 96
1, 130162, Note_off_c, 1, 50, 96
1, 130162, Note_on_c, 1, 53, 96
1, 130163, Note_off_c, 1, 53, 96
1, 130230, Note_on_c, 1, 78, 96
1, 130231, Note_off_c, 1, 78, 96
1, 130284, Note_on_c, 1, 84, 96
1, 130284, Note_on_c, 1, 72, 96
1, 130285, Note_off_c, 1, 84, 96
1, 130285, Note_off_c, 1, 72, 96
1, 130287, Note_on_c, 1, 75, 96
1, 130288, Note_off_c, 1, 75, 96
1, 130405, Note_on_c, 1, 81, 96
1, 130406, Note_off_c, 1, 81, 96
1, 130412, Note_on_c, 1, 69, 96
1, 130413, Note_off_c, 1, 69, 96
1, 130526, Note_on_c, 1, 73, 96
1, 130526, Note_on_c, 1, 49, 96
1, 130528, Note_off_c, 1, 73, 96
1, 130528, Note_off_c, 1, 49, 96
1, 130528, Note_on_c, 1, 81, 96
1, 130529, Note_off_c, 1, 81, 96
1, 130532, Note_on_c, 1, 67, 96
1, 130533, Note_off_c, 1, 67, 96
1, 130651, Note_on_c, 1, 76, 96
1, 130651, Note_on_c, 1, 49, 96
1, 130652, Note_off_c, 1, 76, 96
1, 130652, Note_off_c, 1, 49, 96
1, 130657, Note_on_c, 1, 88, 96
1, 130658, Note_off_c, 1, 88, 96
1, 130780, Note_on_c, 1, 93, 96
1, 130780, Note_on_c, 1, 88, 96
1, 130783, Note_off_c, 1, 93, 96
1, 130783, Note_off_c, 1, 88, 96
1, 130783, Note_on_c, 1, 85, 96
1, 130783, Note_on_c, 1, 81, 96
1, 130784, Note_off_c, 1, 85, 96
1, 130784, Note_off_c, 1, 81, 96
1, 130907, Note_on_c, 1, 45, 96
1, 130908, Note_off_c, 1, 45, 96
1, 131099, Note_on_c, 1, 82, 96
1, 131100, Note_off_c, 1, 82, 96
1, 131119, Note_on_c, 1, 86, 96
1, 131120, Note_off_c, 1, 86, 96
1, 131133, Note_on_c, 1, 91, 96
1, 131134, Note_off_c, 1, 91, 96
1, 131146, Note_on_c, 1, 86, 96
1, 131146, Note_on_c, 1, 41, 96
1, 131147, Note_off_c, 1, 86, 96
1, 131147, Note_off_c, 1, 41, 96
1, 131149, Note_on_c, 1, 82, 96
1, 131150, Note_off_c, 1, 82, 96
1, 131153, Note_on_c, 1, 53, 96
1, 131154, Note_off_c, 1, 53, 96
1, 131265, Note_on_c, 1, 74, 96
1, 131267, Note_off_c, 1, 74, 96
1, 131267, Note_on_c, 1, 58, 96
1, 131270, Note_off_c, 1, 58, 96
1, 131270, Note_on_c, 1, 86, 96
1, 131270, Note_on_c, 1, 46, 96
1, 131271, Note_off_c, 1, 86, 96
1, 131271, Note_off_c, 1, 46, 96
1, 131384, Note_on_c, 1, 55, 96
1, 131385, Note_off_c, 1, 55, 96
1, 131388, Note_on_c, 1, 61, 96
1, 131389, Note_off_c, 1, 61, 96
1, 131393, Note_on_c, 1, 58, 96
1, 131395, Note_off_c, 1, 58, 96
1, 131395, Note_on_c, 1, 53, 96
1, 131396, Note_off_c, 1, 53, 96
1, 131433, Note_on_c, 1, 82, 96
1, 131434, Note_off_c, 1, 82, 96
1, 131503, Note_on_c, 1, 69, 96
1, 131504, Note_off_c, 1, 69, 96
1, 131736, Note_on_c, 1, 43, 96
1, 131737, Note_off_c, 1, 43, 96
1, 131742, Note_on_c, 1, 55, 96
1, 131743, Note_off_c, 1, 55, 96
1, 131823, Note_on_c, 1, 76, 96
1, 131824, Note_off_c, 1, 76, 96
1, 131851, Note_on_c, 1, 55, 96
1, 131852, Note_off_c, 1, 55, 96
1, 131854, Note_on_c, 1, 64, 96
1, 131856, Note_off_c, 1, 64, 96
1, 131856, Note_on_c, 1, 58, 96
1, 131857, Note_off_c, 1, 58, 96
1, 131859, Note_on_c, 1, 60, 96
1, 131860, Note_off_c, 1, 60, 96
1, 131914, Note_on_c, 1, 79, 96
1, 131915, Note_off_c, 1, 79, 96
1, 131977, Note_on_c, 1, 60, 96
1, 131977, Note_on_c, 1, 64, 96
1, 131980, Note_off_c, 1, 60, 96
1, 131980, Note_off_c, 1, 64, 96
1, 131980, Note_on_c, 1, 79, 96
1, 131980, Note_on_c, 1, 58, 96
1, 131981, Note_off_c, 1, 79, 96
1, 131981, Note_off_c, 1, 58, 96
1, 132042, Note_on_c, 1, 79, 96
1, 132043, Note_off_c, 1, 79, 96
1, 132102, Note_on_c, 1, 72, 96
1, 132103, Note_off_c, 1, 72, 96
1, 132106, Note_on_c, 1, 36, 96
1, 132107, Note_off_c, 1, 36, 96
1, 132168, Note_on_c, 1, 72, 96
1, 132169, Note_off_c, 1, 72, 96
1, 132225, Note_on_c, 1, 70, 96
1, 132226, Note_off_c, 1, 70, 96
1, 132229, Note_on_c, 1, 64, 96
1, 132230, Note_off_c, 1, 64, 96
1, 132233, Note_on_c, 1, 60, 96
1, 132233, Note_on_c, 1, 58, 96
1, 132234, Note_off_c, 1, 60, 96
1, 132234, Note_off_c, 1, 58, 96
1, 132291, Note_on_c, 1, 70, 96
1, 132291, Note_on_c, 1, 74, 96
1, 132292, Note_off_c, 1, 70, 96
1, 132292, Note_off_c, 1, 74, 96
1, 132351, Note_on_c, 1, 45, 96
1, 132353, Note_off_c, 1, 45, 96
1, 132353, Note_on_c, 1, 57, 96
1, 132354, Note_off_c, 1, 57, 96
1, 132414, Note_on_c, 1, 72, 96
1, 132415, Note_off_c, 1, 72, 96
1, 132475, Note_on_c, 1, 38, 96
1, 132475, Note_on_c, 1, 50, 96
1, 132477, Note_off_c, 1, 38, 96
1, 132477, Note_off_c, 1, 50, 96
1, 132477, Note_on_c, 1, 66, 96
1, 132478, Note_off_c, 1, 66, 96
1, 132593, Note_on_c, 1, 66, 96
1, 132594, Note_off_c, 1, 66, 96
1, 132596, Note_on_c, 1, 50, 96
1, 132597, Note_off_c, 1, 50, 96
1, 132603, Note_on_c, 1, 60, 96
1, 132605, Note_off_c, 1, 60, 96
1, 132605, Note_on_c, 1, 54, 96
1, 132606, Note_off_c, 1, 54, 96
1, 132717, Note_on_c, 1, 55, 96
1, 132718, Note_off_c, 1, 55, 96
1, 132720, Note_on_c, 1, 57, 96
1, 132721, Note_off_c, 1, 57, 96
1, 132727, Note_on_c, 1, 64, 96
1, 132728, Note_off_c, 1, 64, 96
1, 132844, Note_on_c, 1, 66, 96
1, 132844, Note_on_c, 1, 72, 96
1, 132845, Note_off_c, 1, 66, 96
1, 132845, Note_off_c, 1, 72, 96
1, 132847, Note_on_c, 1, 45, 96
1, 132848, Note_off_c, 1, 45, 96
1, 132966, Note_on_c, 1, 66, 96
1, 132968, Note_off_c, 1, 66, 96
1, 132968, Note_on_c, 1, 60, 96
1, 132970, Note_off_c, 1, 60, 96
1, 132970, Note_on_c, 1, 69, 96
1, 132971, Note_off_c, 1, 69, 96
1, 133203, Note_on_c, 1, 50, 96
1, 133206, Note_off_c, 1, 50, 96
1, 133206, Note_on_c, 1, 74, 96
1, 133206, Note_on_c, 1, 54, 96
1, 133207, Note_off_c, 1, 74, 96
1, 133207, Note_off_c, 1, 54, 96
1, 133212, Note_on_c, 1, 74, 96
1, 133212, Note_on_c, 1, 60, 96
1, 133213, Note_off_c, 1, 74, 96
1, 133213, Note_off_c, 1, 60, 96
1, 133330, Note_on_c, 1, 76, 96
1, 133331, Note_off_c, 1, 76, 96
1, 133334, Note_on_c, 1, 72, 96
1, 133335, Note_off_c, 1, 72, 96
1, 133390, Note_on_c, 1, 74, 96
1, 133391, Note_off_c, 1, 74, 96
1, 133449, Note_on_c, 1, 74, 96
1, 133450, Note_off_c, 1, 74, 96
1, 133454, Note_on_c, 1, 66, 96
1, 133455, Note_off_c, 1, 66, 96
1, 133516, Note_on_c, 1, 74, 96
1, 133517, Note_off_c, 1, 74, 96
1, 133575, Note_on_c, 1, 47, 96
1, 133577, Note_off_c, 1, 47, 96
1, 133577, Note_on_c, 1, 59, 96
1, 133578, Note_off_c, 1, 59, 96
1, 133637, Note_on_c, 1, 68, 96
1, 133638, Note_off_c, 1, 68, 96
1, 133699, Note_on_c, 1, 76, 96
1, 133699, Note_on_c, 1, 57, 96
1, 133700, Note_off_c, 1, 76, 96
1, 133700, Note_off_c, 1, 57, 96
1, 133703, Note_on_c, 1, 60, 96
1, 133704, Note_off_c, 1, 60, 96
1, 133707, Note_on_c, 1, 54, 96
1, 133708, Note_off_c, 1, 54, 96
1, 133764, Note_on_c, 1, 75, 96
1, 133765, Note_off_c, 1, 75, 96
1, 133824, Note_on_c, 1, 59, 96
1, 133824, Note_on_c, 1, 55, 96
1, 133825, Note_off_c, 1, 59, 96
1, 133825, Note_off_c, 1, 55, 96
1, 133829, Note_on_c, 1, 71, 96
1, 133830, Note_off_c, 1, 71, 96
1, 133832, Note_on_c, 1, 50, 96
1, 133833, Note_off_c, 1, 50, 96
1, 133951, Note_on_c, 1, 74, 96
1, 133952, Note_off_c, 1, 74, 96
1, 134074, Note_on_c, 1, 71, 96
1, 134074, Note_on_c, 1, 40, 96
1, 134075, Note_off_c, 1, 71, 96
1, 134075, Note_off_c, 1, 40, 96
1, 134131, Note_on_c, 1, 74, 96
1, 134132, Note_off_c, 1, 74, 96
1, 134195, Note_on_c, 1, 59, 96
1, 134197, Note_off_c, 1, 59, 96
1, 134197, Note_on_c, 1, 74, 96
1, 134200, Note_off_c, 1, 74, 96
1, 134200, Note_on_c, 1, 50, 96
1, 134200, Note_on_c, 1, 55, 96
1, 134202, Note_off_c, 1, 50, 96
1, 134202, Note_off_c, 1, 55, 96
1, 134202, Note_on_c, 1, 65, 96
1, 134203, Note_off_c, 1, 65, 96
1, 134320, Note_on_c, 1, 67, 96
1, 134320, Note_on_c, 1, 65, 96
1, 134322, Note_off_c, 1, 67, 96
1, 134322, Note_off_c, 1, 65, 96
1, 134322, Note_on_c, 1, 59, 96
1, 134324, Note_off_c, 1, 59, 96
1, 134324, Note_on_c, 1, 55, 96
1, 134325, Note_off_c, 1, 55, 96
1, 134443, Note_on_c, 1, 48, 96
1, 134444, Note_off_c, 1, 48, 96
1, 134447, Note_on_c, 1, 72, 96
1, 134448, Note_off_c, 1, 72, 96
1, 134566, Note_on_c, 1, 45, 96
1, 134567, Note_off_c, 1, 45, 96
1, 134569, Note_on_c, 1, 70, 96
1, 134570, Note_off_c, 1, 70, 96
1, 134572, Note_on_c, 1, 72, 96
1, 134573, Note_off_c, 1, 72, 96
1, 134687, Note_on_c, 1, 74, 96
1, 134688, Note_off_c, 1, 74, 96
1, 134805, Note_on_c, 1, 60, 96
1, 134807, Note_off_c, 1, 60, 96
1, 134807, Note_on_c, 1, 57, 96
1, 134808, Note_off_c, 1, 57, 96
1, 134846, Note_on_c, 1, 69, 96
1, 134847, Note_off_c, 1, 69, 96
1, 134919, Note_on_c, 1, 35, 96
1, 134921, Note_off_c, 1, 35, 96
1, 134921, Note_on_c, 1, 59, 96
1, 134923, Note_off_c, 1, 59, 96
1, 134923, Note_on_c, 1, 47, 96
1, 134925, Note_off_c, 1, 47, 96
1, 134925, Note_on_c, 1, 68, 96
1, 134926, Note_off_c, 1, 68, 96
1, 135041, Note_on_c, 1, 55, 96
1, 135041, Note_on_c, 1, 59, 96
1, 135042, Note_off_c, 1, 55, 96
1, 135042, Note_off_c, 1, 59, 96
1, 135045, Note_on_c, 1, 66, 96
1, 135046, Note_off_c, 1, 66, 96
1, 135164, Note_on_c, 1, 67, 96
1, 135165, Note_off_c, 1, 67, 96
1, 135281, Note_on_c, 1, 50, 96
1, 135282, Note_off_c, 1, 50, 96
1, 135284, Note_on_c, 1, 67, 96
1, 135285, Note_off_c, 1, 67, 96
1, 135405, Note_on_c, 1, 59, 96
1, 135406, Note_off_c, 1, 59, 96
1, 135408, Note_on_c, 1, 67, 96
1, 135409, Note_off_c, 1, 67, 96
1, 135526, Note_on_c, 1, 62, 96
1, 135527, Note_off_c, 1, 62, 96
1, 135529, Note_on_c, 1, 50, 96
1, 135530, Note_off_c, 1, 50, 96
1, 135645, Note_on_c, 1, 59, 96
1, 135646, Note_off_c, 1, 59, 96
1, 135649, Note_on_c, 1, 65, 96
1, 135651, Note_off_c, 1, 65, 96
1, 135651, Note_on_c, 1, 69, 96
1, 135652, Note_off_c, 1, 69, 96
1, 135654, Note_on_c, 1, 55, 96
1, 135655, Note_off_c, 1, 55, 96
1, 135768, Note_on_c, 1, 50, 96
1, 135770, Note_off_c, 1, 50, 96
1, 135770, Note_on_c, 1, 55, 96
1, 135772, Note_off_c, 1, 55, 96
1, 135772, Note_on_c, 1, 67, 96
1, 135774, Note_off_c, 1, 67, 96
1, 135774, Note_on_c, 1, 59, 96
1, 135776, Note_off_c, 1, 59, 96
1, 135776, Note_on_c, 1, 71, 96
1, 135777, Note_off_c, 1, 71, 96
1, 136015, Note_on_c, 1, 64, 96
1, 136015, Note_on_c, 1, 72, 96
1, 136016, Note_off_c, 1, 64, 96
1, 136016, Note_off_c, 1, 72, 96
1, 136021, Note_on_c, 1, 48, 96
1, 136023, Note_off_c, 1, 48, 96
1, 136023, Note_on_c, 1, 55, 96
1, 136024, Note_off_c, 1, 55, 96
1, 136264, Note_on_c, 1, 52, 96
1, 136265, Note_off_c, 1, 52, 96
1, 136268, Note_on_c, 1, 64, 96
1, 136270, Note_off_c, 1, 64, 96
1, 136270, Note_on_c, 1, 67, 96
1, 136271, Note_off_c, 1, 67, 96
1, 136327, Note_on_c, 1, 71, 96
1, 136328, Note_off_c, 1, 71, 96
1, 136330, Note_on_c, 1, 60, 96
1, 136331, Note_off_c, 1, 60, 96
1, 136449, Note_on_c, 1, 52, 96
1, 136450, Note_off_c, 1, 52, 96
1, 136453, Note_on_c, 1, 66, 96
1, 136453, Note_on_c, 1, 45, 96
1, 136454, Note_off_c, 1, 66, 96
1, 136454, Note_off_c, 1, 45, 96
1, 136512, Note_on_c, 1, 66, 96
1, 136513, Note_off_c, 1, 66, 96
1, 136569, Note_on_c, 1, 60, 96
1, 136571, Note_off_c, 1, 60, 96
1, 136571, Note_on_c, 1, 54, 96
1, 136572, Note_off_c, 1, 54, 96
1, 136576, Note_on_c, 1, 66, 96
1, 136576, Note_on_c, 1, 50, 96
1, 136577, Note_off_c, 1, 66, 96
1, 136577, Note_off_c, 1, 50, 96
1, 136641, Note_on_c, 1, 67, 96
1, 136642, Note_off_c, 1, 67, 96
1, 136698, Note_on_c, 1, 71, 96
1, 136698, Note_on_c, 1, 55, 96
1, 136699, Note_off_c, 1, 71, 96
1, 136699, Note_off_c, 1, 55, 96
1, 136701, Note_on_c, 1, 50, 96
1, 136703, Note_off_c, 1, 50, 96
1, 136703, Note_on_c, 1, 59, 96
1, 136704, Note_off_c, 1, 59, 96
1, 136767, Note_on_c, 1, 69, 96
1, 136768, Note_off_c, 1, 69, 96
1, 136826, Note_on_c, 1, 55, 96
1, 136827, Note_off_c, 1, 55, 96
1, 136830, Note_on_c, 1, 50, 96
1, 136830, Note_on_c, 1, 59, 96
1, 136832, Note_off_c, 1, 50, 96
1, 136832, Note_off_c, 1, 59, 96
1, 136832, Note_on_c, 1, 67, 96
1, 136833, Note_off_c, 1, 67, 96
1, 136892, Note_on_c, 1, 65, 96
1, 136893, Note_off_c, 1, 65, 96
1, 136954, Note_on_c, 1, 38, 96
1, 136954, Note_on_c, 1, 59, 96
1, 136956, Note_off_c, 1, 38, 96
1, 136956, Note_off_c, 1, 59, 96
1, 136956, Note_on_c, 1, 36, 96
1, 136957, Note_off_c, 1, 36, 96
1, 136959, Note_on_c, 1, 74, 96
1, 136960, Note_off_c, 1, 74, 96
1, 137015, Note_on_c, 1, 69, 96
1, 137017, Note_off_c, 1, 69, 96
1, 137017, Note_on_c, 1, 77, 96
1, 137018, Note_off_c, 1, 77, 96
1, 137020, Note_on_c, 1, 74, 96
1, 137021, Note_off_c, 1, 74, 96
1, 137078, Note_on_c, 1, 43, 96
1, 137079, Note_off_c, 1, 43, 96
1, 137139, Note_on_c, 1, 77, 96
1, 137140, Note_off_c, 1, 77, 96
1, 137201, Note_on_c, 1, 43, 96
1, 137202, Note_off_c, 1, 43, 96
1, 137204, Note_on_c, 1, 70, 96
1, 137205, Note_off_c, 1, 70, 96
1, 137262, Note_on_c, 1, 70, 96
1, 137263, Note_off_c, 1, 70, 96
1, 137326, Note_on_c, 1, 71, 96
1, 137326, Note_on_c, 1, 55, 96
1, 137327, Note_off_c, 1, 71, 96
1, 137327, Note_off_c, 1, 55, 96
1, 137329, Note_on_c, 1, 59, 96
1, 137330, Note_off_c, 1, 59, 96
1, 137332, Note_on_c, 1, 53, 96
1, 137333, Note_off_c, 1, 53, 96
1, 137388, Note_on_c, 1, 67, 96
1, 137391, Note_off_c, 1, 67, 96
1, 137391, Note_on_c, 1, 79, 96
1, 137391, Note_on_c, 1, 71, 96
1, 137392, Note_off_c, 1, 79, 96
1, 137392, Note_off_c, 1, 71, 96
1, 137451, Note_on_c, 1, 38, 96
1, 137451, Note_on_c, 1, 50, 96
1, 137452, Note_off_c, 1, 38, 96
1, 137452, Note_off_c, 1, 50, 96
1, 137456, Note_on_c, 1, 71, 96
1, 137457, Note_off_c, 1, 71, 96
1, 137573, Note_on_c, 1, 43, 96
1, 137573, Note_on_c, 1, 55, 96
1, 137575, Note_off_c, 1, 43, 96
1, 137575, Note_off_c, 1, 55, 96
1, 137575, Note_on_c, 1, 67, 96
1, 137576, Note_off_c, 1, 67, 96
1, 137580, Note_on_c, 1, 71, 96
1, 137580, Note_on_c, 1, 74, 96
1, 137581, Note_off_c, 1, 71, 96
1, 137581, Note_off_c, 1, 74, 96
1, 137704, Note_on_c, 1, 71, 96
1, 137704, Note_on_c, 1, 76, 96
1, 137704, Note_on_c, 1, 67, 96
1, 137705, Note_off_c, 1, 71, 96
1, 137705, Note_off_c, 1, 76, 96
1, 137705, Note_off_c, 1, 67, 96
1, 137819, Note_on_c, 1, 59, 96
1, 137823, Note_off_c, 1, 59, 96
1, 137823, Note_on_c, 1, 79, 96
1, 137823, Note_on_c, 1, 65, 96
1, 137823, Note_on_c, 1, 55, 96
1, 137825, Note_off_c, 1, 79, 96
1, 137825, Note_off_c, 1, 65, 96
1, 137825, Note_off_c, 1, 55, 96
1, 137825, Note_on_c, 1, 69, 96
1, 137826, Note_off_c, 1, 69, 96
1, 137996, Note_on_c, 1, 78, 96
1, 137997, Note_off_c, 1, 78, 96
1, 138033, Note_on_c, 1, 71, 96
1, 138034, Note_off_c, 1, 71, 96
1, 138036, Note_on_c, 1, 55, 96
1, 138038, Note_off_c, 1, 55, 96
1, 138038, Note_on_c, 1, 62, 96
1, 138040, Note_off_c, 1, 62, 96
1, 138040, Note_on_c, 1, 59, 96
1, 138041, Note_off_c, 1, 59, 96
1, 138095, Note_on_c, 1, 74, 96
1, 138096, Note_off_c, 1, 74, 96
1, 138155, Note_on_c, 1, 62, 96
1, 138157, Note_off_c, 1, 62, 96
1, 138157, Note_on_c, 1, 69, 96
1, 138159, Note_off_c, 1, 69, 96
1, 138159, Note_on_c, 1, 72, 96
1, 138160, Note_off_c, 1, 72, 96
1, 138217, Note_on_c, 1, 74, 96
1, 138217, Note_on_c, 1, 71, 96
1, 138218, Note_off_c, 1, 74, 96
1, 138218, Note_off_c, 1, 71, 96
1, 138335, Note_on_c, 1, 59, 96
1, 138336, Note_off_c, 1, 59, 96
1, 138340, Note_on_c, 1, 66, 96
1, 138341, Note_off_c, 1, 66, 96
1, 138462, Note_on_c, 1, 74, 96
1, 138463, Note_off_c, 1, 74, 96
1, 138465, Note_on_c, 1, 59, 96
1, 138467, Note_off_c, 1, 59, 96
1, 138467, Note_on_c, 1, 56, 96
1, 138468, Note_off_c, 1, 56, 96
1, 138586, Note_on_c, 1, 71, 96
1, 138587, Note_off_c, 1, 71, 96
1, 138590, Note_on_c, 1, 50, 96
1, 138592, Note_off_c, 1, 50, 96
1, 138592, Note_on_c, 1, 79, 96
1, 138593, Note_off_c, 1, 79, 96
1, 138710, Note_on_c, 1, 79, 96
1, 138710, Note_on_c, 1, 67, 96
1, 138711, Note_off_c, 1, 79, 96
1, 138711, Note_off_c, 1, 67, 96
1, 138714, Note_on_c, 1, 74, 96
1, 138714, Note_on_c, 1, 71, 96
1, 138715, Note_off_c, 1, 74, 96
1, 138715, Note_off_c, 1, 71, 96
1, 138834, Note_on_c, 1, 72, 96
1, 138837, Note_off_c, 1, 72, 96
1, 138837, Note_on_c, 1, 76, 96
1, 138837, Note_on_c, 1, 67, 96
1, 138841, Note_off_c, 1, 76, 96
1, 138841, Note_off_c, 1, 67, 96
1, 138841, Note_on_c, 1, 79, 96
1, 138841, Note_on_c, 1, 60, 96
1, 138841, Note_on_c, 1, 48, 96
1, 138842, Note_off_c, 1, 79, 96
1, 138842, Note_off_c, 1, 60, 96
1, 138842, Note_off_c, 1, 48, 96
1, 138963, Note_on_c, 1, 64, 96
1, 138964, Note_off_c, 1, 64, 96
1, 138967, Note_on_c, 1, 60, 96
1, 138967, Note_on_c, 1, 55, 96
1, 138968, Note_off_c, 1, 60, 96
1, 138968, Note_off_c, 1, 55, 96
1, 139088, Note_on_c, 1, 79, 96
1, 139089, Note_off_c, 1, 79, 96
1, 139091, Note_on_c, 1, 72, 96
1, 139092, Note_off_c, 1, 72, 96
1, 139097, Note_on_c, 1, 76, 96
1, 139097, Note_on_c, 1, 64, 96
1, 139097, Note_on_c, 1, 60, 96
1, 139097, Note_on_c, 1, 55, 96
1, 139098, Note_off_c, 1, 76, 96
1, 139098, Note_off_c, 1, 64, 96
1, 139098, Note_off_c, 1, 60, 96
1, 139098, Note_off_c, 1, 55, 96
1, 139159, Note_on_c, 1, 74, 96
1, 139160, Note_off_c, 1, 74, 96
1, 139185, Note_on_c, 1, 79, 96
1, 139186, Note_off_c, 1, 79, 96
1, 139223, Note_on_c, 1, 74, 96
1, 139226, Note_off_c, 1, 74, 96
1, 139226, Note_on_c, 1, 36, 96
1, 139226, Note_on_c, 1, 48, 96
1, 139227, Note_off_c, 1, 36, 96
1, 139227, Note_off_c, 1, 48, 96
1, 139283, Note_on_c, 1, 64, 96
1, 139283, Note_on_c, 1, 76, 96
1, 139285, Note_off_c, 1, 64, 96
1, 139285, Note_off_c, 1, 76, 96
1, 139285, Note_on_c, 1, 72, 96
1, 139289, Note_off_c, 1, 72, 96
1, 139289, Note_on_c, 1, 79, 96
1, 139289, Note_on_c, 1, 36, 96
1, 139289, Note_on_c, 1, 48, 96
1, 139291, Note_off_c, 1, 79, 96
1, 139291, Note_off_c, 1, 36, 96
1, 139291, Note_off_c, 1, 48, 96
1, 139291, Note_on_c, 1, 70, 96
1, 139292, Note_off_c, 1, 70, 96
1, 139403, Note_on_c, 1, 79, 96
1, 139406, Note_off_c, 1, 79, 96
1, 139406, Note_on_c, 1, 64, 96
1, 139406, Note_on_c, 1, 58, 96
1, 139407, Note_off_c, 1, 64, 96
1, 139407, Note_off_c, 1, 58, 96
1, 139411, Note_on_c, 1, 55, 96
1, 139411, Note_on_c, 1, 60, 96
1, 139412, Note_off_c, 1, 55, 96
1, 139412, Note_off_c, 1, 60, 96
1, 139473, Note_on_c, 1, 65, 96
1, 139474, Note_off_c, 1, 65, 96
1, 139476, Note_on_c, 1, 77, 96
1, 139477, Note_off_c, 1, 77, 96
1, 139537, Note_on_c, 1, 72, 96
1, 139538, Note_off_c, 1, 72, 96
1, 139600, Note_on_c, 1, 74, 96
1, 139601, Note_off_c, 1, 74, 96
1, 139656, Note_on_c, 1, 65, 96
1, 139659, Note_off_c, 1, 65, 96
1, 139659, Note_on_c, 1, 69, 96
1, 139659, Note_on_c, 1, 53, 96
1, 139660, Note_off_c, 1, 69, 96
1, 139660, Note_off_c, 1, 53, 96
1, 139664, Note_on_c, 1, 74, 96
1, 139665, Note_off_c, 1, 74, 96
1, 139718, Note_on_c, 1, 72, 96
1, 139719, Note_off_c, 1, 72, 96
1, 139780, Note_on_c, 1, 60, 96
1, 139781, Note_off_c, 1, 60, 96
1, 139783, Note_on_c, 1, 69, 96
1, 139784, Note_off_c, 1, 69, 96
1, 139786, Note_on_c, 1, 74, 96
1, 139787, Note_off_c, 1, 74, 96
1, 139789, Note_on_c, 1, 65, 96
1, 139791, Note_off_c, 1, 65, 96
1, 139791, Note_on_c, 1, 57, 96
1, 139792, Note_off_c, 1, 57, 96
1, 139907, Note_on_c, 1, 36, 96
1, 139908, Note_off_c, 1, 36, 96
1, 139910, Note_on_c, 1, 48, 96
1, 139911, Note_off_c, 1, 48, 96
1, 140030, Note_on_c, 1, 72, 96
1, 140032, Note_off_c, 1, 72, 96
1, 140032, Note_on_c, 1, 84, 96
1, 140033, Note_off_c, 1, 84, 96
1, 140090, Note_on_c, 1, 72, 96
1, 140091, Note_off_c, 1, 72, 96
1, 140094, Note_on_c, 1, 84, 96
1, 140095, Note_off_c, 1, 84, 96
1, 140151, Note_on_c, 1, 60, 96
1, 140153, Note_off_c, 1, 60, 96
1, 140153, Note_on_c, 1, 83, 96
1, 140155, Note_off_c, 1, 83, 96
1, 140155, Note_on_c, 1, 64, 96
1, 140156, Note_off_c, 1, 64, 96
1, 140160, Note_on_c, 1, 76, 96
1, 140162, Note_off_c, 1, 76, 96
1, 140162, Note_on_c, 1, 55, 96
1, 140163, Note_off_c, 1, 55, 96
1, 140275, Note_on_c, 1, 60, 96
1, 140276, Note_off_c, 1, 60, 96
1, 140281, Note_on_c, 1, 79, 96
1, 140281, Note_on_c, 1, 67, 96
1, 140283, Note_off_c, 1, 79, 96
1, 140283, Note_off_c, 1, 67, 96
1, 140283, Note_on_c, 1, 64, 96
1, 140284, Note_off_c, 1, 64, 96
1, 140286, Note_on_c, 1, 76, 96
1, 140287, Note_off_c, 1, 76, 96
1, 140404, Note_on_c, 1, 60, 96
1, 140405, Note_off_c, 1, 60, 96
1, 140447, Note_on_c, 1, 83, 96
1, 140448, Note_off_c, 1, 83, 96
1, 140593, Note_on_c, 1, 85, 96
1, 140594, Note_off_c, 1, 85, 96
1, 140599, Note_on_c, 1, 76, 96
1, 140600, Note_off_c, 1, 76, 96
1, 140863, Note_on_c, 1, 84, 96
1, 140864, Note_off_c, 1, 84, 96
1, 140866, Note_on_c, 1, 52, 96
1, 140869, Note_off_c, 1, 52, 96
1, 140869, Note_on_c, 1, 79, 96
1, 140869, Note_on_c, 1, 72, 96
1, 140870, Note_off_c, 1, 79, 96
1, 140870, Note_off_c, 1, 72, 96
1, 140875, Note_on_c, 1, 58, 96
1, 140875, Note_on_c, 1, 60, 96
1, 140876, Note_off_c, 1, 58, 96
1, 140876, Note_off_c, 1, 60, 96
1, 140993, Note_on_c, 1, 81, 96
1, 140995, Note_off_c, 1, 81, 96
1, 140995, Note_on_c, 1, 77, 96
1, 140998, Note_off_c, 1, 77, 96
1, 140998, Note_on_c, 1, 57, 96
1, 140998, Note_on_c, 1, 60, 96
1, 141000, Note_off_c, 1, 57, 96
1, 141000, Note_off_c, 1, 60, 96
1, 141000, Note_on_c, 1, 65, 96
1, 141001, Note_off_c, 1, 65, 96
1, 141232, Note_on_c, 1, 77, 96
1, 141234, Note_off_c, 1, 77, 96
1, 141234, Note_on_c, 1, 89, 96
1, 141235, Note_off_c, 1, 89, 96
1, 141237, Note_on_c, 1, 41, 96
1, 141239, Note_off_c, 1, 41, 96
1, 141239, Note_on_c, 1, 53, 96
1, 141240, Note_off_c, 1, 53, 96
1, 141354, End_track
0, 0, End_of_file