0, 0, Header, 0, 1, 240
1, 0, Start_track
1, 0, Tempo, 659337
1, 212, Note_on_c, 1, 89, 96
1, 213, Note_off_c, 1, 89, 96
1, 262, Note_on_c, 1, 86, 96
1, 262, Note_on_c, 1, 81, 96
1, 262, Note_on_c, 1, 91, 96
1, 263, Note_off_c, 1, 86, 96
1, 263, Note_off_c, 1, 81, 96
1, 263, Note_off_c, 1, 91, 96
1, 395, Note_on_c, 1, 80, 96
1, 397, Note_off_c, 1, 80, 96
1, 397, Note_on_c, 1, 62, 96
1, 398, Note_off_c, 1, 62, 96
1, 482, Note_on_c, 1, 87, 96
1, 484, Note_off_c, 1, 87, 96
1, 484, Note_on_c, 1, 87, 96
1, 486, Note_off_c, 1, 87, 96
1, 486, Note_on_c, 1, 46, 96
1, 487, Note_off_c, 1, 46, 96
1, 489, Note_on_c, 1, 73, 96
1, 491, Note_off_c, 1, 73, 96
1, 491, Note_on_c, 1, 65, 96
1, 492, Note_off_c, 1, 65, 96
1, 719, Note_on_c, 1, 84, 96
1, 719, Note_on_c, 1, 72, 96
1, 720, Note_off_c, 1, 84, 96
1, 720, Note_off_c, 1, 72, 96
1, 729, Note_on_c, 1, 80, 96
1, 730, Note_off_c, 1, 80, 96
1, 781, Note_on_c, 1, 60, 96
1, 781, Note_on_c, 1, 44, 96
1, 782, Note_off_c, 1, 60, 96
1, 782, Note_off_c, 1, 44, 96
1, 786, Note_on_c, 1, 75, 96
1, 786, Note_on_c, 1, 66, 96
1, 786, Note_on_c, 1, 56, 96
1, 787, Note_off_c, 1, 75, 96
1, 787, Note_off_c, 1, 66, 96
1, 787, Note_off_c, 1, 56, 96
1, 897, Note_on_c, 1, 63, 96
1, 898, Note_off_c, 1, 63, 96
1, 902, Note_on_c, 1, 56, 96
1, 904, Note_off_c, 1, 56, 96
1, 904, Note_on_c, 1, 60, 96
1, 905, Note_off_c, 1, 60, 96
1, 943, Note_on_c, 1, 79, 96
1, 944, Note_off_c, 1, 79, 96
1, 985, Note_on_c, 1, 75, 96
1, 987, Note_off_c, 1, 75, 96
1, 987, Note_on_c, 1, 72, 96
1, 988, Note_off_c, 1, 72, 96
1, 1056, Note_on_c, 1, 60, 96
1, 1058, Note_off_c, 1, 60, 96
1, 1058, Note_on_c, 1, 72, 96
1, 1059, Note_off_c, 1, 72, 96
1, 1062, Note_on_c, 1, 84, 96
1, 1062, Note_on_c, 1, 75, 96
1, 1063, Note_off_c, 1, 84, 96
1, 1063, Note_off_c, 1, 75, 96
1, 1180, Note_on_c, 1, 51, 96
1, 1182, Note_off_c, 1, 51, 96
1, 1182, Note_on_c, 1, 60, 96
1, 1183, Note_off_c, 1, 60, 96
1, 1240, Note_on_c, 1, 77, 96
1, 1241, Note_off_c, 1, 77, 96
1, 1244, Note_on_c, 1, 68, 96
1, 1245, Note_off_c, 1, 68, 96
1, 1304, Note_on_c, 1, 87, 96
1, 1305, Note_off_c, 1, 87, 96
1, 1308, Note_on_c, 1, 75, 96
1, 1308, Note_on_c, 1, 75, 96
1, 1309, Note_off_c, 1, 75, 96
1, 1309, Note_off_c, 1, 75, 96
1, 1311, Note_on_c, 1, 78, 96
1, 1312, Note_off_c, 1, 78, 96
1, 1374, Note_on_c, 1, 85, 96
1, 1376, Note_off_c, 1, 85, 96
1, 1376, Note_on_c, 1, 73, 96
1, 1377, Note_off_c, 1, 73, 96
1, 1429, Note_on_c, 1, 63, 96
1, 1430, Note_off_c, 1, 63, 96
1, 1494, Note_on_c, 1, 77, 96
1, 1496, Note_off_c, 1, 77, 96
1, 1496, Note_on_c, 1, 72, 96
1, 1497, Note_off_c, 1, 72, 96
1, 1553, Note_on_c, 1, 75, 96
1, 1554, Note_off_c, 1, 75, 96
1, 1557, Note_on_c, 1, 78, 96
1, 1557, Note_on_c, 1, 83, 96
1, 1559, Note_off_c, 1, 78, 96
1, 1559, Note_off_c, 1, 83, 96
1, 1559, Note_on_c, 1, 78, 96
1, 1561, Note_off_c, 1, 78, 96
1, 1561, Note_on_c, 1, 51, 96
1, 1562, Note_off_c, 1, 51, 96
1, 1678, Note_on_c, 1, 87, 96
1, 1678, Note_on_c, 1, 34, 96
1, 1679, Note_off_c, 1, 87, 96
1, 1679, Note_off_c, 1, 34, 96
1, 1684, Note_on_c, 1, 75, 96
1, 1685, Note_off_c, 1, 75, 96
1, 1740, Note_on_c, 1, 82, 96
1, 1742, Note_off_c, 1, 82, 96
1, 1742, Note_on_c, 1, 89, 96
1, 1743, Note_off_c, 1, 89, 96
1, 1746, Note_on_c, 1, 94, 96
1, 1747, Note_off_c, 1, 94, 96
1, 1805, Note_on_c, 1, 50, 96
1, 1807, Note_off_c, 1, 50, 96
1, 1807, Note_on_c, 1, 98, 96
1, 1809, Note_off_c, 1, 98, 96
1, 1809, Note_on_c, 1, 90, 96
1, 1810, Note_off_c, 1, 90, 96
1, 1872, Note_on_c, 1, 91, 96
1, 1873, Note_off_c, 1, 91, 96
1, 1929, Note_on_c, 1, 99, 96
1, 1929, Note_on_c, 1, 54, 96
1, 1931, Note_off_c, 1, 99, 96
1, 1931, Note_off_c, 1, 54, 96
1, 1931, Note_on_c, 1, 58, 96
1, 1933, Note_off_c, 1, 58, 96
1, 1933, Note_on_c, 1, 58, 96
1, 1935, Note_off_c, 1, 58, 96
1, 1935, Note_on_c, 1, 63, 96
1, 1936, Note_off_c, 1, 63, 96
1, 1990, Note_on_c, 1, 84, 96
1, 1991, Note_off_c, 1, 84, 96
1, 1998, Note_on_c, 1, 88, 96
1, 1999, Note_off_c, 1, 88, 96
1, 2051, Note_on_c, 1, 79, 96
1, 2052, Note_off_c, 1, 79, 96
1, 2055, Note_on_c, 1, 87, 96
1, 2057, Note_off_c, 1, 87, 96
1, 2057, Note_on_c, 1, 41, 96
1, 2058, Note_off_c, 1, 41, 96
1, 2060, Note_on_c, 1, 91, 96
1, 2061, Note_off_c, 1, 91, 96
1, 2125, Note_on_c, 1, 90, 96
1, 2126, Note_off_c, 1, 90, 96
1, 2180, Note_on_c, 1, 46, 96
1, 2181, Note_off_c, 1, 46, 96
1, 2183, Note_on_c, 1, 66, 96
1, 2185, Note_off_c, 1, 66, 96
1, 2185, Note_on_c, 1, 58, 96
1, 2186, Note_off_c, 1, 58, 96
1, 2246, Note_on_c, 1, 82, 96
1, 2247, Note_off_c, 1, 82, 96
1, 2303, Note_on_c, 1, 44, 96
1, 2304, Note_off_c, 1, 44, 96
1, 2307, Note_on_c, 1, 87, 96
1, 2307, Note_on_c, 1, 32, 96
1, 2309, Note_off_c, 1, 87, 96
1, 2309, Note_off_c, 1, 32, 96
1, 2309, Note_on_c, 1, 80, 96
1, 2310, Note_off_c, 1, 80, 96
1, 2312, Note_on_c, 1, 89, 96
1, 2313, Note_off_c, 1, 89, 96
1, 2430, Note_on_c, 1, 74, 96
1, 2431, Note_off_c, 1, 74, 96
1, 2438, Note_on_c, 1, 79, 96
1, 2439, Note_off_c, 1, 79, 96
1, 2554, Note_on_c, 1, 43, 96
1, 2555, Note_off_c, 1, 43, 96
1, 2558, Note_on_c, 1, 87, 96
1, 2558, Note_on_c, 1, 75, 96
1, 2560, Note_off_c, 1, 87, 96
1, 2560, Note_off_c, 1, 75, 96
1, 2560, Note_on_c, 1, 55, 96
1, 2562, Note_off_c, 1, 55, 96
1, 2562, Note_on_c, 1, 79, 96
1, 2563, Note_off_c, 1, 79, 96
1, 2677, Note_on_c, 1, 80, 96
1, 2678, Note_off_c, 1, 80, 96
1, 2681, Note_on_c, 1, 72, 96
1, 2681, Note_on_c, 1, 60, 96
1, 2682, Note_off_c, 1, 72, 96
1, 2682, Note_off_c, 1, 60, 96
1, 2685, Note_on_c, 1, 66, 96
1, 2687, Note_off_c, 1, 66, 96
1, 2687, Note_on_c, 1, 56, 96
1, 2688, Note_off_c, 1, 56, 96
1, 2801, Note_on_c, 1, 60, 96
1, 2803, Note_off_c, 1, 60, 96
1, 2803, Note_on_c, 1, 77, 96
1, 2805, Note_off_c, 1, 77, 96
1, 2805, Note_on_c, 1, 84, 96
1, 2807, Note_off_c, 1, 84, 96
1, 2807, Note_on_c, 1, 64, 96
1, 2808, Note_off_c, 1, 64, 96
1, 2810, Note_on_c, 1, 56, 96
1, 2812, Note_off_c, 1, 56, 96
1, 2812, Note_on_c, 1, 72, 96
1, 2813, Note_off_c, 1, 72, 96
1, 2928, Note_on_c, 1, 87, 96
1, 2928, Note_on_c, 1, 84, 96
1, 2929, Note_off_c, 1, 87, 96
1, 2929, Note_off_c, 1, 84, 96
1, 2932, Note_on_c, 1, 75, 96
1, 2932, Note_on_c, 1, 56, 96
1, 2934, Note_off_c, 1, 75, 96
1, 2934, Note_off_c, 1, 56, 96
1, 2934, Note_on_c, 1, 44, 96
1, 2935, Note_off_c, 1, 44, 96
1, 3052, Note_on_c, 1, 77, 96
1, 3053, Note_off_c, 1, 77, 96
1, 3056, Note_on_c, 1, 73, 96
1, 3056, Note_on_c, 1, 80, 96
1, 3058, Note_off_c, 1, 73, 96
1, 3058, Note_off_c, 1, 80, 96
1, 3058, Note_on_c, 1, 77, 96
1, 3059, Note_off_c, 1, 77, 96
1, 3178, Note_on_c, 1, 65, 96
1, 3179, Note_off_c, 1, 65, 96
1, 3264, Note_on_c, 1, 80, 96
1, 3265, Note_off_c, 1, 80, 96
1, 3351, Note_on_c, 1, 77, 96
1, 3351, Note_on_c, 1, 72, 96
1, 3351, Note_on_c, 1, 63, 96
1, 3351, Note_on_c, 1, 55, 96
1, 3352, Note_off_c, 1, 77, 96
1, 3352, Note_off_c, 1, 72, 96
1, 3352, Note_off_c, 1, 63, 96
1, 3352, Note_off_c, 1, 55, 96
1, 3357, Note_on_c, 1, 58, 96
1, 3358, Note_off_c, 1, 58, 96
1, 3475, Note_on_c, 1, 82, 96
1, 3475, Note_on_c, 1, 46, 96
1, 3475, Note_on_c, 1, 58, 96
1, 3476, Note_off_c, 1, 82, 96
1, 3476, Note_off_c, 1, 46, 96
1, 3476, Note_off_c, 1, 58, 96
1, 3593, Note_on_c, 1, 70, 96
1, 3596, Note_off_c, 1, 70, 96
1, 3596, Note_on_c, 1, 39, 96
1, 3596, Note_on_c, 1, 51, 96
1, 3597, Note_off_c, 1, 39, 96
1, 3597, Note_off_c, 1, 51, 96
1, 3603, Note_on_c, 1, 63, 96
1, 3604, Note_off_c, 1, 63, 96
1, 3656, Note_on_c, 1, 74, 96
1, 3658, Note_off_c, 1, 74, 96
1, 3658, Note_on_c, 1, 80, 96
1, 3660, Note_off_c, 1, 80, 96
1, 3660, Note_on_c, 1, 68, 96
1, 3661, Note_off_c, 1, 68, 96
1, 3665, Note_on_c, 1, 71, 96
1, 3666, Note_off_c, 1, 71, 96
1, 3720, Note_on_c, 1, 76, 96
1, 3724, Note_off_c, 1, 76, 96
1, 3724, Note_on_c, 1, 79, 96
1, 3724, Note_on_c, 1, 67, 96
1, 3724, Note_on_c, 1, 40, 96
1, 3725, Note_off_c, 1, 79, 96
1, 3725, Note_off_c, 1, 67, 96
1, 3725, Note_off_c, 1, 40, 96
1, 3728, Note_on_c, 1, 52, 96
1, 3729, Note_off_c, 1, 52, 96
1, 3847, Note_on_c, 1, 80, 96
1, 3847, Note_on_c, 1, 74, 96
1, 3849, Note_off_c, 1, 80, 96
1, 3849, Note_off_c, 1, 74, 96
1, 3849, Note_on_c, 1, 40, 96
1, 3850, Note_off_c, 1, 40, 96
1, 3968, Note_on_c, 1, 52, 96
1, 3969, Note_off_c, 1, 52, 96
1, 3971, Note_on_c, 1, 60, 96
1, 3973, Note_off_c, 1, 60, 96
1, 3973, Note_on_c, 1, 56, 96
1, 3974, Note_off_c, 1, 56, 96
1, 3976, Note_on_c, 1, 80, 96
1, 3977, Note_off_c, 1, 80, 96
1, 4210, Note_on_c, 1, 71, 96
1, 4211, Note_off_c, 1, 71, 96
1, 4216, Note_on_c, 1, 76, 96
1, 4217, Note_off_c, 1, 76, 96
1, 4400, Note_on_c, 1, 52, 96
1, 4402, Note_off_c, 1, 52, 96
1, 4402, Note_on_c, 1, 64, 96
1, 4404, Note_off_c, 1, 64, 96
1, 4404, Note_on_c, 1, 76, 96
1, 4406, Note_off_c, 1, 76, 96
1, 4406, Note_on_c, 1, 52, 96
1, 4407, Note_off_c, 1, 52, 96
1, 4642, Note_on_c, 1, 52, 96
1, 4644, Note_off_c, 1, 52, 96
1, 4644, Note_on_c, 1, 64, 96
1, 4645, Note_off_c, 1, 64, 96
1, 4647, Note_on_c, 1, 69, 96
1, 4648, Note_off_c, 1, 69, 96
1, 4823, Note_on_c, 1, 74, 96
1, 4824, Note_off_c, 1, 74, 96
1, 4875, Note_on_c, 1, 61, 96
1, 4876, Note_off_c, 1, 61, 96
1, 5017, Note_on_c, 1, 77, 96
1, 5017, Note_on_c, 1, 74, 96
1, 5017, Note_on_c, 1, 69, 96
1, 5017, Note_on_c, 1, 57, 96
1, 5017, Note_on_c, 1, 45, 96
1, 5018, Note_off_c, 1, 77, 96
1, 5018, Note_off_c, 1, 74, 96
1, 5018, Note_off_c, 1, 69, 96
1, 5018, Note_off_c, 1, 57, 96
1, 5018, Note_off_c, 1, 45, 96
1, 5254, Note_on_c, 1, 77, 96
1, 5256, Note_off_c, 1, 77, 96
1, 5256, Note_on_c, 1, 69, 96
1, 5257, Note_off_c, 1, 69, 96
1, 5373, Note_on_c, 1, 69, 96
1, 5374, Note_off_c, 1, 69, 96
1, 5379, Note_on_c, 1, 81, 96
1, 5382, Note_off_c, 1, 81, 96
1, 5382, Note_on_c, 1, 72, 96
1, 5382, Note_on_c, 1, 48, 96
1, 5383, Note_off_c, 1, 72, 96
1, 5383, Note_off_c, 1, 48, 96
1, 5496, Note_on_c, 1, 69, 96
1, 5497, Note_off_c, 1, 69, 96
1, 5500, Note_on_c, 1, 57, 96
1, 5501, Note_off_c, 1, 57, 96
1, 5625, Note_on_c, 1, 64, 96
1, 5625, Note_on_c, 1, 55, 96
1, 5627, Note_off_c, 1, 64, 96
1, 5627, Note_off_c, 1, 55, 96
1, 5627, Note_on_c, 1, 60, 96
1, 5628, Note_off_c, 1, 60, 96
1, 5632, Note_on_c, 1, 69, 96
1, 5633, Note_off_c, 1, 69, 96
1, 5751, Note_on_c, 1, 71, 96
1, 5752, Note_off_c, 1, 71, 96
1, 5872, Note_on_c, 1, 71, 96
1, 5873, Note_off_c, 1, 71, 96
1, 5988, Note_on_c, 1, 53, 96
1, 5989, Note_off_c, 1, 53, 96
1, 5992, Note_on_c, 1, 69, 96
1, 5992, Note_on_c, 1, 65, 96
1, 5994, Note_off_c, 1, 69, 96
1, 5994, Note_off_c, 1, 65, 96
1, 5994, Note_on_c, 1, 60, 96
1, 5995, Note_off_c, 1, 60, 96
1, 5997, Note_on_c, 1, 57, 96
1, 5998, Note_off_c, 1, 57, 96
1, 6175, Note_on_c, 1, 77, 96
1, 6176, Note_off_c, 1, 77, 96
1, 6236, Note_on_c, 1, 70, 96
1, 6238, Note_off_c, 1, 70, 96
1, 6238, Note_on_c, 1, 46, 96
1, 6239, Note_off_c, 1, 46, 96
1, 6473, Note_on_c, 1, 49, 96
1, 6474, Note_off_c, 1, 49, 96
1, 6479, Note_on_c, 1, 61, 96
1, 6479, Note_on_c, 1, 57, 96
1, 6480, Note_off_c, 1, 61, 96
1, 6480, Note_off_c, 1, 57, 96
1, 6595, Note_on_c, 1, 45, 96
1, 6597, Note_off_c, 1, 45, 96
1, 6597, Note_on_c, 1, 33, 96
1, 6598, Note_off_c, 1, 33, 96
1, 6655, Note_on_c, 1, 62, 96
1, 6655, Note_on_c, 1, 57, 96
1, 6656, Note_off_c, 1, 62, 96
1, 6656, Note_off_c, 1, 57, 96
1, 6661, Note_on_c, 1, 50, 96
1, 6663, Note_off_c, 1, 50, 96
1, 6663, Note_on_c, 1, 54, 96
1, 6664, Note_off_c, 1, 54, 96
1, 6837, Note_on_c, 1, 69, 96
1, 6838, Note_off_c, 1, 69, 96
1, 7014, Note_on_c, 1, 69, 96
1, 7015, Note_off_c, 1, 69, 96
1, 7073, Note_on_c, 1, 66, 96
1, 7074, Note_off_c, 1, 66, 96
1, 7079, Note_on_c, 1, 50, 96
1, 7079, Note_on_c, 1, 38, 96
1, 7080, Note_off_c, 1, 50, 96
1, 7080, Note_off_c, 1, 38, 96
1, 7322, Note_on_c, 1, 50, 96
1, 7323, Note_off_c, 1, 50, 96
1, 7327, Note_on_c, 1, 38, 96
1, 7328, Note_off_c, 1, 38, 96
1, 7560, Note_on_c, 1, 74, 96
1, 7560, Note_on_c, 1, 50, 96
1, 7562, Note_off_c, 1, 74, 96
1, 7562, Note_off_c, 1, 50, 96
1, 7562, Note_on_c, 1, 86, 96
1, 7563, Note_off_c, 1, 86, 96
1, 7566, Note_on_c, 1, 78, 96
1, 7566, Note_on_c, 1, 38, 96
1, 7567, Note_off_c, 1, 78, 96
1, 7567, Note_off_c, 1, 38, 96
1, 7686, Note_on_c, 1, 54, 96
1, 7687, Note_off_c, 1, 54, 96
1, 7689, Note_on_c, 1, 42, 96
1, 7690, Note_off_c, 1, 42, 96
1, 7809, Note_on_c, 1, 54, 96
1, 7809, Note_on_c, 1, 60, 96
1, 7810, Note_off_c, 1, 54, 96
1, 7810, Note_off_c, 1, 60, 96
1, 7813, Note_on_c, 1, 50, 96
1, 7814, Note_off_c, 1, 50, 96
1, 8044, Note_on_c, 1, 69, 96
1, 8045, Note_off_c, 1, 69, 96
1, 8049, Note_on_c, 1, 66, 96
1, 8049, Note_on_c, 1, 74, 96
1, 8051, Note_off_c, 1, 66, 96
1, 8051, Note_off_c, 1, 74, 96
1, 8051, Note_on_c, 1, 62, 96
1, 8052, Note_off_c, 1, 62, 96
1, 8054, Note_on_c, 1, 60, 96
1, 8055, Note_off_c, 1, 60, 96
1, 8285, Note_on_c, 1, 59, 96
1, 8286, Note_off_c, 1, 59, 96
1, 8288, Note_on_c, 1, 55, 96
1, 8289, Note_off_c, 1, 55, 96
1, 8408, Note_on_c, 1, 67, 96
1, 8408, Note_on_c, 1, 55, 96
1, 8409, Note_off_c, 1, 67, 96
1, 8409, Note_off_c, 1, 55, 96
1, 8413, Note_on_c, 1, 59, 96
1, 8414, Note_off_c, 1, 59, 96
1, 8418, Note_on_c, 1, 65, 96
1, 8419, Note_off_c, 1, 65, 96
1, 8603, Note_on_c, 1, 74, 96
1, 8604, Note_off_c, 1, 74, 96
1, 8653, Note_on_c, 1, 71, 96
1, 8656, Note_off_c, 1, 71, 96
1, 8656, Note_on_c, 1, 79, 96
1, 8656, Note_on_c, 1, 36, 96
1, 8658, Note_off_c, 1, 79, 96
1, 8658, Note_off_c, 1, 36, 96
1, 8658, Note_on_c, 1, 48, 96
1, 8659, Note_off_c, 1, 48, 96
1, 8781, Note_on_c, 1, 83, 96
1, 8781, Note_on_c, 1, 31, 96
1, 8784, Note_off_c, 1, 83, 96
1, 8784, Note_off_c, 1, 31, 96
1, 8784, Note_on_c, 1, 76, 96
1, 8784, Note_on_c, 1, 43, 96
1, 8785, Note_off_c, 1, 76, 96
1, 8785, Note_off_c, 1, 43, 96
1, 8787, Note_on_c, 1, 71, 96
1, 8788, Note_off_c, 1, 71, 96
1, 8904, Note_on_c, 1, 59, 96
1, 8906, Note_off_c, 1, 59, 96
1, 8906, Note_on_c, 1, 55, 96
1, 8907, Note_off_c, 1, 55, 96
1, 8909, Note_on_c, 1, 65, 96
1, 8910, Note_off_c, 1, 65, 96
1, 9025, Note_on_c, 1, 71, 96
1, 9025, Note_on_c, 1, 53, 96
1, 9026, Note_off_c, 1, 71, 96
1, 9026, Note_off_c, 1, 53, 96
1, 9031, Note_on_c, 1, 55, 96
1, 9032, Note_off_c, 1, 55, 96
1, 9034, Note_on_c, 1, 79, 96
1, 9035, Note_off_c, 1, 79, 96
1, 9090, Note_on_c, 1, 77, 96
1, 9091, Note_off_c, 1, 77, 96
1, 9095, Note_on_c, 1, 65, 96
1, 9096, Note_off_c, 1, 65, 96
1, 9151, Note_on_c, 1, 65, 96
1, 9155, Note_off_c, 1, 65, 96
1, 9155, Note_on_c, 1, 69, 96
1, 9155, Note_on_c, 1, 55, 96
1, 9155, Note_on_c, 1, 59, 96
1, 9157, Note_off_c, 1, 69, 96
1, 9157, Note_off_c, 1, 55, 96
1, 9157, Note_off_c, 1, 59, 96
1, 9157, Note_on_c, 1, 79, 96
1, 9158, Note_off_c, 1, 79, 96
1, 9219, Note_on_c, 1, 71, 96
1, 9220, Note_off_c, 1, 71, 96
1, 9276, Note_on_c, 1, 50, 96
1, 9278, Note_off_c, 1, 50, 96
1, 9278, Note_on_c, 1, 43, 96
1, 9279, Note_off_c, 1, 43, 96
1, 9282, Note_on_c, 1, 69, 96
1, 9283, Note_off_c, 1, 69, 96
1, 9287, Note_on_c, 1, 77, 96
1, 9288, Note_off_c, 1, 77, 96
1, 9405, Note_on_c, 1, 71, 96
1, 9405, Note_on_c, 1, 41, 96
1, 9406, Note_off_c, 1, 71, 96
1, 9406, Note_off_c, 1, 41, 96
1, 9523, Note_on_c, 1, 60, 96
1, 9525, Note_off_c, 1, 60, 96
1, 9525, Note_on_c, 1, 56, 96
1, 9526, Note_off_c, 1, 56, 96
1, 9530, Note_on_c, 1, 65, 96
1, 9531, Note_off_c, 1, 65, 96
1, 9648, Note_on_c, 1, 72, 96
1, 9649, Note_off_c, 1, 72, 96
1, 9651, Note_on_c, 1, 48, 96
1, 9652, Note_off_c, 1, 48, 96
1, 9654, Note_on_c, 1, 80, 96
1, 9655, Note_off_c, 1, 80, 96
1, 9713, Note_on_c, 1, 75, 96
1, 9714, Note_off_c, 1, 75, 96
1, 9772, Note_on_c, 1, 57, 96
1, 9773, Note_off_c, 1, 57, 96
1, 9778, Note_on_c, 1, 81, 96
1, 9778, Note_on_c, 1, 53, 96
1, 9778, Note_on_c, 1, 63, 96
1, 9779, Note_off_c, 1, 81, 96
1, 9779, Note_off_c, 1, 53, 96
1, 9779, Note_off_c, 1, 63, 96
1, 9836, Note_on_c, 1, 74, 96
1, 9838, Note_off_c, 1, 74, 96
1, 9838, Note_on_c, 1, 84, 96
1, 9839, Note_off_c, 1, 84, 96
1, 9896, Note_on_c, 1, 60, 96
1, 9897, Note_off_c, 1, 60, 96
1, 9901, Note_on_c, 1, 58, 96
1, 9903, Note_off_c, 1, 58, 96
1, 9903, Note_on_c, 1, 48, 96
1, 9904, Note_off_c, 1, 48, 96
1, 9963, Note_on_c, 1, 79, 96
1, 9964, Note_off_c, 1, 79, 96
1, 10021, Note_on_c, 1, 60, 96
1, 10022, Note_off_c, 1, 60, 96
1, 10024, Note_on_c, 1, 76, 96
1, 10026, Note_off_c, 1, 76, 96
1, 10026, Note_on_c, 1, 58, 96
1, 10027, Note_off_c, 1, 58, 96
1, 10030, Note_on_c, 1, 82, 96
1, 10031, Note_off_c, 1, 82, 96
1, 10092, Note_on_c, 1, 79, 96
1, 10093, Note_off_c, 1, 79, 96
1, 10152, Note_on_c, 1, 50, 96
1, 10152, Note_on_c, 1, 69, 96
1, 10153, Note_off_c, 1, 50, 96
1, 10153, Note_off_c, 1, 69, 96
1, 10157, Note_on_c, 1, 77, 96
1, 10157, Note_on_c, 1, 81, 96
1, 10157, Note_on_c, 1, 38, 96
1, 10158, Note_off_c, 1, 77, 96
1, 10158, Note_off_c, 1, 81, 96
1, 10158, Note_off_c, 1, 38, 96
1, 10275, Note_on_c, 1, 86, 96
1, 10277, Note_off_c, 1, 86, 96
1, 10277, Note_on_c, 1, 53, 96
1, 10278, Note_off_c, 1, 53, 96
1, 10282, Note_on_c, 1, 83, 96
1, 10282, Note_on_c, 1, 63, 96
1, 10282, Note_on_c, 1, 57, 96
1, 10283, Note_off_c, 1, 83, 96
1, 10283, Note_off_c, 1, 63, 96
1, 10283, Note_off_c, 1, 57, 96
1, 10340, Note_on_c, 1, 84, 96
1, 10341, Note_off_c, 1, 84, 96
1, 10403, Note_on_c, 1, 84, 96
1, 10404, Note_off_c, 1, 84, 96
1, 10465, Note_on_c, 1, 84, 96
1, 10466, Note_off_c, 1, 84, 96
1, 10522, Note_on_c, 1, 60, 96
1, 10524, Note_off_c, 1, 60, 96
1, 10524, Note_on_c, 1, 53, 96
1, 10525, Note_off_c, 1, 53, 96
1, 10527, Note_on_c, 1, 89, 96
1, 10529, Note_off_c, 1, 89, 96
1, 10529, Note_on_c, 1, 62, 96
1, 10530, Note_off_c, 1, 62, 96
1, 10582, Note_on_c, 1, 81, 96
1, 10583, Note_off_c, 1, 81, 96
1, 10585, Note_on_c, 1, 78, 96
1, 10586, Note_off_c, 1, 78, 96
1, 10643, Note_on_c, 1, 76, 96
1, 10643, Note_on_c, 1, 64, 96
1, 10644, Note_off_c, 1, 76, 96
1, 10644, Note_off_c, 1, 64, 96
1, 10649, Note_on_c, 1, 60, 96
1, 10649, Note_on_c, 1, 58, 96
1, 10650, Note_off_c, 1, 60, 96
1, 10650, Note_off_c, 1, 58, 96
1, 10765, Note_on_c, 1, 58, 96
1, 10766, Note_off_c, 1, 58, 96
1, 10770, Note_on_c, 1, 60, 96
1, 10771, Note_off_c, 1, 60, 96
1, 10827, Note_on_c, 1, 75, 96
1, 10828, Note_off_c, 1, 75, 96
1, 10890, Note_on_c, 1, 79, 96
1, 10890, Note_on_c, 1, 57, 96
1, 10891, Note_off_c, 1, 79, 96
1, 10891, Note_off_c, 1, 57, 96
1, 10893, Note_on_c, 1, 60, 96
1, 10894, Note_off_c, 1, 60, 96
1, 10948, Note_on_c, 1, 81, 96
1, 10949, Note_off_c, 1, 81, 96
1, 10954, Note_on_c, 1, 78, 96
1, 10955, Note_off_c, 1, 78, 96
1, 11016, Note_on_c, 1, 76, 96
1, 11017, Note_off_c, 1, 76, 96
1, 11020, Note_on_c, 1, 38, 96
1, 11021, Note_off_c, 1, 38, 96
1, 11081, Note_on_c, 1, 69, 96
1, 11082, Note_off_c, 1, 69, 96
1, 11086, Note_on_c, 1, 81, 96
1, 11087, Note_off_c, 1, 81, 96
1, 11143, Note_on_c, 1, 57, 96
1, 11143, Note_on_c, 1, 60, 96
1, 11143, Note_on_c, 1, 50, 96
1, 11144, Note_off_c, 1, 57, 96
1, 11144, Note_off_c, 1, 60, 96
1, 11144, Note_off_c, 1, 50, 96
1, 11147, Note_on_c, 1, 54, 96
1, 11148, Note_off_c, 1, 54, 96
1, 11205, Note_on_c, 1, 72, 96
1, 11206, Note_off_c, 1, 72, 96
1, 11265, Note_on_c, 1, 86, 96
1, 11267, Note_off_c, 1, 86, 96
1, 11267, Note_on_c, 1, 50, 96
1, 11268, Note_off_c, 1, 50, 96
1, 11273, Note_on_c, 1, 54, 96
1, 11275, Note_off_c, 1, 54, 96
1, 11275, Note_on_c, 1, 60, 96
1, 11276, Note_off_c, 1, 60, 96
1, 11278, Note_on_c, 1, 74, 96
1, 11279, Note_off_c, 1, 74, 96
1, 11388, Note_on_c, 1, 62, 96
1, 11389, Note_off_c, 1, 62, 96
1, 11392, Note_on_c, 1, 71, 96
1, 11394, Note_off_c, 1, 71, 96
1, 11394, Note_on_c, 1, 83, 96
1, 11395, Note_off_c, 1, 83, 96
1, 11399, Note_on_c, 1, 59, 96
1, 11399, Note_on_c, 1, 55, 96
1, 11400, Note_off_c, 1, 59, 96
1, 11400, Note_off_c, 1, 55, 96
1, 11455, Note_on_c, 1, 67, 96
1, 11457, Note_off_c, 1, 67, 96
1, 11457, Note_on_c, 1, 79, 96
1, 11459, Note_off_c, 1, 79, 96
1, 11459, Note_on_c, 1, 76, 96
1, 11460, Note_off_c, 1, 76, 96
1, 11465, Note_on_c, 1, 71, 96
1, 11466, Note_off_c, 1, 71, 96
1, 11522, Note_on_c, 1, 43, 96
1, 11523, Note_off_c, 1, 43, 96
1, 11585, Note_on_c, 1, 76, 96
1, 11586, Note_off_c, 1, 76, 96
1, 11642, Note_on_c, 1, 59, 96
1, 11642, Note_on_c, 1, 50, 96
1, 11643, Note_off_c, 1, 59, 96
1, 11643, Note_off_c, 1, 50, 96
1, 11645, Note_on_c, 1, 74, 96
1, 11647, Note_off_c, 1, 74, 96
1, 11647, Note_on_c, 1, 55, 96
1, 11648, Note_off_c, 1, 55, 96
1, 11766, Note_on_c, 1, 72, 96
1, 11768, Note_off_c, 1, 72, 96
1, 11768, Note_on_c, 1, 64, 96
1, 11769, Note_off_c, 1, 64, 96
1, 11771, Note_on_c, 1, 60, 96
1, 11772, Note_off_c, 1, 60, 96
1, 11776, Note_on_c, 1, 55, 96
1, 11778, Note_off_c, 1, 55, 96
1, 11778, Note_on_c, 1, 76, 96
1, 11779, Note_off_c, 1, 76, 96
1, 11848, Note_on_c, 1, 72, 96
1, 11848, Note_on_c, 1, 76, 96
1, 11849, Note_off_c, 1, 72, 96
1, 11849, Note_off_c, 1, 76, 96
1, 11851, Note_on_c, 1, 81, 96
1, 11852, Note_off_c, 1, 81, 96
1, 11900, Note_on_c, 1, 55, 96
1, 11902, Note_off_c, 1, 55, 96
1, 11902, Note_on_c, 1, 60, 96
1, 11904, Note_off_c, 1, 60, 96
1, 11904, Note_on_c, 1, 64, 96
1, 11905, Note_off_c, 1, 64, 96
1, 11971, Note_on_c, 1, 79, 96
1, 11972, Note_off_c, 1, 79, 96
1, 12024, Note_on_c, 1, 60, 96
1, 12024, Note_on_c, 1, 55, 96
1, 12025, Note_off_c, 1, 60, 96
1, 12025, Note_off_c, 1, 55, 96
1, 12029, Note_on_c, 1, 72, 96
1, 12029, Note_on_c, 1, 79, 96
1, 12029, Note_on_c, 1, 64, 96
1, 12030, Note_off_c, 1, 72, 96
1, 12030, Note_off_c, 1, 79, 96
1, 12030, Note_off_c, 1, 64, 96
1, 12144, Note_on_c, 1, 76, 96
1, 12147, Note_off_c, 1, 76, 96
1, 12147, Note_on_c, 1, 60, 96
1, 12147, Note_on_c, 1, 67, 96
1, 12148, Note_off_c, 1, 60, 96
1, 12148, Note_off_c, 1, 67, 96
1, 12150, Note_on_c, 1, 64, 96
1, 12152, Note_off_c, 1, 64, 96
1, 12152, Note_on_c, 1, 55, 96
1, 12153, Note_off_c, 1, 55, 96
1, 12208, Note_on_c, 1, 76, 96
1, 12209, Note_off_c, 1, 76, 96
1, 12331, Note_on_c, 1, 50, 96
1, 12332, Note_off_c, 1, 50, 96
1, 12334, Note_on_c, 1, 62, 96
1, 12336, Note_off_c, 1, 62, 96
1, 12336, Note_on_c, 1, 38, 96
1, 12337, Note_off_c, 1, 38, 96
1, 12392, Note_on_c, 1, 76, 96
1, 12393, Note_off_c, 1, 76, 96
1, 12454, Note_on_c, 1, 50, 96
1, 12455, Note_off_c, 1, 50, 96
1, 12457, Note_on_c, 1, 74, 96
1, 12458, Note_off_c, 1, 74, 96
1, 12461, Note_on_c, 1, 59, 96
1, 12461, Note_on_c, 1, 55, 96
1, 12462, Note_off_c, 1, 59, 96
1, 12462, Note_off_c, 1, 55, 96
1, 12524, Note_on_c, 1, 74, 96
1, 12525, Note_off_c, 1, 74, 96
1, 12578, Note_on_c, 1, 59, 96
1, 12579, Note_off_c, 1, 59, 96
1, 12583, Note_on_c, 1, 55, 96
1, 12585, Note_off_c, 1, 55, 96
1, 12585, Note_on_c, 1, 50, 96
1, 12586, Note_off_c, 1, 50, 96
1, 12641, Note_on_c, 1, 72, 96
1, 12642, Note_off_c, 1, 72, 96
1, 12704, Note_on_c, 1, 45, 96
1, 12705, Note_off_c, 1, 45, 96
1, 12710, Note_on_c, 1, 76, 96
1, 12711, Note_off_c, 1, 76, 96
1, 12768, Note_on_c, 1, 74, 96
1, 12769, Note_off_c, 1, 74, 96
1, 12831, Note_on_c, 1, 64, 96
1, 12831, Note_on_c, 1, 60, 96
1, 12833, Note_off_c, 1, 64, 96
1, 12833, Note_off_c, 1, 60, 96
1, 12833, Note_on_c, 1, 54, 96
1, 12834, Note_off_c, 1, 54, 96
1, 12951, Note_on_c, 1, 60, 96
1, 12952, Note_off_c, 1, 60, 96
1, 12955, Note_on_c, 1, 54, 96
1, 12956, Note_off_c, 1, 54, 96
1, 13020, Note_on_c, 1, 54, 96
1, 13020, Note_on_c, 1, 57, 96
1, 13021, Note_off_c, 1, 54, 96
1, 13021, Note_off_c, 1, 57, 96
1, 13137, Note_on_c, 1, 62, 96
1, 13138, Note_off_c, 1, 62, 96
1, 13140, Note_on_c, 1, 59, 96
1, 13142, Note_off_c, 1, 59, 96
1, 13142, Note_on_c, 1, 64, 96
1, 13143, Note_off_c, 1, 64, 96
1, 13202, Note_on_c, 1, 69, 96
1, 13204, Note_off_c, 1, 69, 96
1, 13204, Note_on_c, 1, 60, 96
1, 13205, Note_off_c, 1, 60, 96
1, 13263, Note_on_c, 1, 67, 96
1, 13264, Note_off_c, 1, 67, 96
1, 13383, Note_on_c, 1, 66, 96
1, 13384, Note_off_c, 1, 66, 96
1, 13386, Note_on_c, 1, 59, 96
1, 13387, Note_off_c, 1, 59, 96
1, 13442, Note_on_c, 1, 66, 96
1, 13443, Note_off_c, 1, 66, 96
1, 13502, Note_on_c, 1, 64, 96
1, 13503, Note_off_c, 1, 64, 96
1, 13505, Note_on_c, 1, 43, 96
1, 13506, Note_off_c, 1, 43, 96
1, 13510, Note_on_c, 1, 60, 96
1, 13510, Note_on_c, 1, 55, 96
1, 13511, Note_off_c, 1, 60, 96
1, 13511, Note_off_c, 1, 55, 96
1, 13567, Note_on_c, 1, 67, 96
1, 13568, Note_off_c, 1, 67, 96
1, 13629, Note_on_c, 1, 62, 96
1, 13631, Note_off_c, 1, 62, 96
1, 13631, Note_on_c, 1, 50, 96
1, 13632, Note_off_c, 1, 50, 96
1, 13689, Note_on_c, 1, 59, 96
1, 13690, Note_off_c, 1, 59, 96
1, 13692, Note_on_c, 1, 67, 96
1, 13693, Note_off_c, 1, 67, 96
1, 13755, Note_on_c, 1, 60, 96
1, 13755, Note_on_c, 1, 50, 96
1, 13756, Note_off_c, 1, 60, 96
1, 13756, Note_off_c, 1, 50, 96
1, 13759, Note_on_c, 1, 54, 96
1, 13760, Note_off_c, 1, 54, 96
1, 13876, Note_on_c, 1, 60, 96
1, 13877, Note_off_c, 1, 60, 96
1, 13880, Note_on_c, 1, 55, 96
1, 13882, Note_off_c, 1, 55, 96
1, 13882, Note_on_c, 1, 71, 96
1, 13883, Note_off_c, 1, 71, 96
1, 14000, Note_on_c, 1, 71, 96
1, 14000, Note_on_c, 1, 43, 96
1, 14001, Note_off_c, 1, 71, 96
1, 14001, Note_off_c, 1, 43, 96
1, 14005, Note_on_c, 1, 65, 96
1, 14007, Note_off_c, 1, 65, 96
1, 14007, Note_on_c, 1, 74, 96
1, 14008, Note_off_c, 1, 74, 96
1, 14125, Note_on_c, 1, 75, 96
1, 14126, Note_off_c, 1, 75, 96
1, 14129, Note_on_c, 1, 71, 96
1, 14129, Note_on_c, 1, 53, 96
1, 14130, Note_off_c, 1, 71, 96
1, 14130, Note_off_c, 1, 53, 96
1, 14135, Note_on_c, 1, 55, 96
1, 14135, Note_on_c, 1, 59, 96
1, 14135, Note_on_c, 1, 53, 96
1, 14136, Note_off_c, 1, 55, 96
1, 14136, Note_off_c, 1, 59, 96
1, 14136, Note_off_c, 1, 53, 96
1, 14253, Note_on_c, 1, 65, 96
1, 14255, Note_off_c, 1, 65, 96
1, 14255, Note_on_c, 1, 59, 96
1, 14258, Note_off_c, 1, 59, 96
1, 14258, Note_on_c, 1, 74, 96
1, 14258, Note_on_c, 1, 55, 96
1, 14259, Note_off_c, 1, 74, 96
1, 14259, Note_off_c, 1, 55, 96
1, 14262, Note_on_c, 1, 71, 96
1, 14263, Note_off_c, 1, 71, 96
1, 14377, Note_on_c, 1, 53, 96
1, 14377, Note_on_c, 1, 59, 96
1, 14379, Note_off_c, 1, 53, 96
1, 14379, Note_off_c, 1, 59, 96
1, 14379, Note_on_c, 1, 55, 96
1, 14380, Note_off_c, 1, 55, 96
1, 14382, Note_on_c, 1, 65, 96
1, 14383, Note_off_c, 1, 65, 96
1, 14498, Note_on_c, 1, 52, 96
1, 14499, Note_off_c, 1, 52, 96
1, 14619, Note_on_c, 1, 55, 96
1, 14620, Note_off_c, 1, 55, 96
1, 14622, Note_on_c, 1, 43, 96
1, 14624, Note_off_c, 1, 43, 96
1, 14624, Note_on_c, 1, 64, 96
1, 14625, Note_off_c, 1, 64, 96
1, 14741, Note_on_c, 1, 84, 96
1, 14741, Note_on_c, 1, 72, 96
1, 14742, Note_off_c, 1, 84, 96
1, 14742, Note_off_c, 1, 72, 96
1, 14744, Note_on_c, 1, 48, 96
1, 14745, Note_off_c, 1, 48, 96
1, 14747, Note_on_c, 1, 60, 96
1, 14748, Note_off_c, 1, 60, 96
1, 14802, Note_on_c, 1, 81, 96
1, 14803, Note_off_c, 1, 81, 96
1, 14811, Note_on_c, 1, 76, 96
1, 14812, Note_off_c, 1, 76, 96
1, 14867, Note_on_c, 1, 79, 96
1, 14867, Note_on_c, 1, 60, 96
1, 14869, Note_off_c, 1, 79, 96
1, 14869, Note_off_c, 1, 60, 96
1, 14869, Note_on_c, 1, 55, 96
1, 14871, Note_off_c, 1, 55, 96
1, 14871, Note_on_c, 1, 64, 96
1, 14872, Note_off_c, 1, 64, 96
1, 14930, Note_on_c, 1, 76, 96
1, 14931, Note_off_c, 1, 76, 96
1, 14997, Note_on_c, 1, 74, 96
1, 14997, Note_on_c, 1, 43, 96
1, 14998, Note_off_c, 1, 74, 96
1, 14998, Note_off_c, 1, 43, 96
1, 15056, Note_on_c, 1, 65, 96
1, 15057, Note_off_c, 1, 65, 96
1, 15060, Note_on_c, 1, 71, 96
1, 15062, Note_off_c, 1, 71, 96
1, 15062, Note_on_c, 1, 74, 96
1, 15063, Note_off_c, 1, 74, 96
1, 15115, Note_on_c, 1, 73, 96
1, 15116, Note_off_c, 1, 73, 96
1, 15121, Note_on_c, 1, 76, 96
1, 15122, Note_off_c, 1, 76, 96
1, 15190, Note_on_c, 1, 79, 96
1, 15191, Note_off_c, 1, 79, 96
1, 15248, Note_on_c, 1, 60, 96
1, 15248, Note_on_c, 1, 48, 96
1, 15249, Note_off_c, 1, 60, 96
1, 15249, Note_off_c, 1, 48, 96
1, 15252, Note_on_c, 1, 72, 96
1, 15253, Note_off_c, 1, 72, 96
1, 15313, Note_on_c, 1, 79, 96
1, 15313, Note_on_c, 1, 76, 96
1, 15315, Note_off_c, 1, 79, 96
1, 15315, Note_off_c, 1, 76, 96
1, 15315, Note_on_c, 1, 70, 96
1, 15316, Note_off_c, 1, 70, 96
1, 15373, Note_on_c, 1, 60, 96
1, 15375, Note_off_c, 1, 60, 96
1, 15375, Note_on_c, 1, 64, 96
1, 15376, Note_off_c, 1, 64, 96
1, 15378, Note_on_c, 1, 58, 96
1, 15379, Note_off_c, 1, 58, 96
1, 15436, Note_on_c, 1, 77, 96
1, 15437, Note_off_c, 1, 77, 96
1, 15499, Note_on_c, 1, 71, 96
1, 15499, Note_on_c, 1, 80, 96
1, 15501, Note_off_c, 1, 71, 96
1, 15501, Note_off_c, 1, 80, 96
1, 15501, Note_on_c, 1, 41, 96
1, 15503, Note_off_c, 1, 41, 96
1, 15503, Note_on_c, 1, 53, 96
1, 15504, Note_off_c, 1, 53, 96
1, 15562, Note_on_c, 1, 71, 96
1, 15564, Note_off_c, 1, 71, 96
1, 15564, Note_on_c, 1, 80, 96
1, 15565, Note_off_c, 1, 80, 96
1, 15623, Note_on_c, 1, 65, 96
1, 15625, Note_off_c, 1, 65, 96
1, 15625, Note_on_c, 1, 69, 96
1, 15627, Note_off_c, 1, 69, 96
1, 15627, Note_on_c, 1, 53, 96
1, 15628, Note_off_c, 1, 53, 96
1, 15631, Note_on_c, 1, 77, 96
1, 15631, Note_on_c, 1, 60, 96
1, 15632, Note_off_c, 1, 77, 96
1, 15632, Note_off_c, 1, 60, 96
1, 15747, Note_on_c, 1, 60, 96
1, 15749, Note_off_c, 1, 60, 96
1, 15749, Note_on_c, 1, 65, 96
1, 15750, Note_off_c, 1, 65, 96
1, 15753, Note_on_c, 1, 74, 96
1, 15755, Note_off_c, 1, 74, 96
1, 15755, Note_on_c, 1, 69, 96
1, 15756, Note_off_c, 1, 69, 96
1, 15823, Note_on_c, 1, 71, 96
1, 15824, Note_off_c, 1, 71, 96
1, 15881, Note_on_c, 1, 60, 96
1, 15882, Note_off_c, 1, 60, 96
1, 15885, Note_on_c, 1, 69, 96
1, 15887, Note_off_c, 1, 69, 96
1, 15887, Note_on_c, 1, 65, 96
1, 15888, Note_off_c, 1, 65, 96
1, 16002, Note_on_c, 1, 65, 96
1, 16006, Note_off_c, 1, 65, 96
1, 16006, Note_on_c, 1, 72, 96
1, 16006, Note_on_c, 1, 77, 96
1, 16006, Note_on_c, 1, 60, 96
1, 16007, Note_off_c, 1, 72, 96
1, 16007, Note_off_c, 1, 77, 96
1, 16007, Note_off_c, 1, 60, 96
1, 16009, Note_on_c, 1, 69, 96
1, 16010, Note_off_c, 1, 69, 96
1, 16191, Note_on_c, 1, 72, 96
1, 16192, Note_off_c, 1, 72, 96
1, 16307, Note_on_c, 1, 53, 96
1, 16309, Note_off_c, 1, 53, 96
1, 16309, Note_on_c, 1, 59, 96
1, 16311, Note_off_c, 1, 59, 96
1, 16311, Note_on_c, 1, 74, 96
1, 16312, Note_off_c, 1, 74, 96
1, 16317, Note_on_c, 1, 55, 96
1, 16318, Note_off_c, 1, 55, 96
1, 16432, Note_on_c, 1, 69, 96
1, 16435, Note_off_c, 1, 69, 96
1, 16435, Note_on_c, 1, 59, 96
1, 16435, Note_on_c, 1, 53, 96
1, 16436, Note_off_c, 1, 59, 96
1, 16436, Note_off_c, 1, 53, 96
1, 16440, Note_on_c, 1, 73, 96
1, 16440, Note_on_c, 1, 55, 96
1, 16441, Note_off_c, 1, 73, 96
1, 16441, Note_off_c, 1, 55, 96
1, 16561, Note_on_c, 1, 43, 96
1, 16563, Note_off_c, 1, 43, 96
1, 16563, Note_on_c, 1, 76, 96
1, 16565, Note_off_c, 1, 76, 96
1, 16565, Note_on_c, 1, 69, 96
1, 16566, Note_off_c, 1, 69, 96
1, 16622, Note_on_c, 1, 71, 96
1, 16622, Note_on_c, 1, 76, 96
1, 16623, Note_off_c, 1, 71, 96
1, 16623, Note_off_c, 1, 76, 96
1, 16684, Note_on_c, 1, 73, 96
1, 16685, Note_off_c, 1, 73, 96
1, 16687, Note_on_c, 1, 64, 96
1, 16688, Note_off_c, 1, 64, 96
1, 16691, Note_on_c, 1, 76, 96
1, 16692, Note_off_c, 1, 76, 96
1, 16751, Note_on_c, 1, 76, 96
1, 16752, Note_off_c, 1, 76, 96
1, 16813, Note_on_c, 1, 57, 96
1, 16813, Note_on_c, 1, 61, 96
1, 16815, Note_off_c, 1, 57, 96
1, 16815, Note_off_c, 1, 61, 96
1, 16815, Note_on_c, 1, 55, 96
1, 16816, Note_off_c, 1, 55, 96
1, 16875, Note_on_c, 1, 69, 96
1, 16876, Note_off_c, 1, 69, 96
1, 16880, Note_on_c, 1, 73, 96
1, 16881, Note_off_c, 1, 73, 96
1, 16936, Note_on_c, 1, 64, 96
1, 16938, Note_off_c, 1, 64, 96
1, 16938, Note_on_c, 1, 60, 96
1, 16940, Note_off_c, 1, 60, 96
1, 16940, Note_on_c, 1, 57, 96
1, 16941, Note_off_c, 1, 57, 96
1, 16945, Note_on_c, 1, 76, 96
1, 16946, Note_off_c, 1, 76, 96
1, 17004, Note_on_c, 1, 76, 96
1, 17005, Note_off_c, 1, 76, 96
1, 17063, Note_on_c, 1, 45, 96
1, 17064, Note_off_c, 1, 45, 96
1, 17127, Note_on_c, 1, 72, 96
1, 17128, Note_off_c, 1, 72, 96
1, 17186, Note_on_c, 1, 57, 96
1, 17188, Note_off_c, 1, 57, 96
1, 17188, Note_on_c, 1, 60, 96
1, 17189, Note_off_c, 1, 60, 96
1, 17191, Note_on_c, 1, 64, 96
1, 17192, Note_off_c, 1, 64, 96
1, 17254, Note_on_c, 1, 74, 96
1, 17255, Note_off_c, 1, 74, 96
1, 17316, Note_on_c, 1, 45, 96
1, 17316, Note_on_c, 1, 57, 96
1, 17317, Note_off_c, 1, 45, 96
1, 17317, Note_off_c, 1, 57, 96
1, 17372, Note_on_c, 1, 66, 96
1, 17373, Note_off_c, 1, 66, 96
1, 17434, Note_on_c, 1, 74, 96
1, 17434, Note_on_c, 1, 44, 96
1, 17435, Note_off_c, 1, 74, 96
1, 17435, Note_off_c, 1, 44, 96
1, 17437, Note_on_c, 1, 56, 96
1, 17440, Note_off_c, 1, 56, 96
1, 17440, Note_on_c, 1, 65, 96
1, 17440, Note_on_c, 1, 68, 96
1, 17441, Note_off_c, 1, 65, 96
1, 17441, Note_off_c, 1, 68, 96
1, 17500, Note_on_c, 1, 74, 96
1, 17501, Note_off_c, 1, 74, 96
1, 17560, Note_on_c, 1, 72, 96
1, 17560, Note_on_c, 1, 52, 96
1, 17561, Note_off_c, 1, 72, 96
1, 17561, Note_off_c, 1, 52, 96
1, 17623, Note_on_c, 1, 69, 96
1, 17624, Note_off_c, 1, 69, 96
1, 17678, Note_on_c, 1, 74, 96
1, 17679, Note_off_c, 1, 74, 96
1, 17683, Note_on_c, 1, 43, 96
1, 17684, Note_off_c, 1, 43, 96
1, 17686, Note_on_c, 1, 31, 96
1, 17688, Note_off_c, 1, 31, 96
1, 17688, Note_on_c, 1, 69, 96
1, 17689, Note_off_c, 1, 69, 96
1, 17749, Note_on_c, 1, 72, 96
1, 17750, Note_off_c, 1, 72, 96
1, 17808, Note_on_c, 1, 70, 96
1, 17808, Note_on_c, 1, 52, 96
1, 17810, Note_off_c, 1, 70, 96
1, 17810, Note_off_c, 1, 52, 96
1, 17810, Note_on_c, 1, 60, 96
1, 17811, Note_off_c, 1, 60, 96
1, 17813, Note_on_c, 1, 58, 96
1, 17814, Note_off_c, 1, 58, 96
1, 17872, Note_on_c, 1, 64, 96
1, 17873, Note_off_c, 1, 64, 96
1, 17875, Note_on_c, 1, 73, 96
1, 17876, Note_off_c, 1, 73, 96
1, 17935, Note_on_c, 1, 36, 96
1, 17936, Note_off_c, 1, 36, 96
1, 18053, Note_on_c, 1, 58, 96
1, 18054, Note_off_c, 1, 58, 96
1, 18056, Note_on_c, 1, 64, 96
1, 18059, Note_off_c, 1, 64, 96
1, 18059, Note_on_c, 1, 72, 96
1, 18059, Note_on_c, 1, 52, 96
1, 18060, Note_off_c, 1, 72, 96
1, 18060, Note_off_c, 1, 52, 96
1, 18063, Note_on_c, 1, 60, 96
1, 18064, Note_off_c, 1, 60, 96
1, 18176, Note_on_c, 1, 57, 96
1, 18178, Note_off_c, 1, 57, 96
1, 18178, Note_on_c, 1, 45, 96
1, 18179, Note_off_c, 1, 45, 96
1, 18301, Note_on_c, 1, 43, 96
1, 18302, Note_off_c, 1, 43, 96
1, 18422, Note_on_c, 1, 72, 96
1, 18422, Note_on_c, 1, 60, 96
1, 18422, Note_on_c, 1, 64, 96
1, 18424, Note_off_c, 1, 72, 96
1, 18424, Note_off_c, 1, 60, 96
1, 18424, Note_off_c, 1, 64, 96
1, 18424, Note_on_c, 1, 69, 96
1, 18425, Note_off_c, 1, 69, 96
1, 18427, Note_on_c, 1, 55, 96
1, 18428, Note_off_c, 1, 55, 96
1, 18518, Note_on_c, 1, 64, 96
1, 18519, Note_off_c, 1, 64, 96
1, 18549, Note_on_c, 1, 62, 96
1, 18549, Note_on_c, 1, 52, 96
1, 18550, Note_off_c, 1, 62, 96
1, 18550, Note_off_c, 1, 52, 96
1, 18552, Note_on_c, 1, 40, 96
1, 18553, Note_off_c, 1, 40, 96
1, 18644, Note_on_c, 1, 64, 96
1, 18645, Note_off_c, 1, 64, 96
1, 18672, Note_on_c, 1, 38, 96
1, 18673, Note_off_c, 1, 38, 96
1, 18683, Note_on_c, 1, 62, 96
1, 18684, Note_off_c, 1, 62, 96
1, 18745, Note_on_c, 1, 67, 96
1, 18746, Note_off_c, 1, 67, 96
1, 18805, Note_on_c, 1, 50, 96
1, 18805, Note_on_c, 1, 55, 96
1, 18807, Note_off_c, 1, 50, 96
1, 18807, Note_off_c, 1, 55, 96
1, 18807, Note_on_c, 1, 59, 96
1, 18808, Note_off_c, 1, 59, 96
1, 18869, Note_on_c, 1, 67, 96
1, 18870, Note_off_c, 1, 67, 96
1, 18931, Note_on_c, 1, 55, 96
1, 18934, Note_off_c, 1, 55, 96
1, 18934, Note_on_c, 1, 65, 96
1, 18934, Note_on_c, 1, 59, 96
1, 18935, Note_off_c, 1, 65, 96
1, 18935, Note_off_c, 1, 59, 96
1, 18995, Note_on_c, 1, 69, 96
1, 18996, Note_off_c, 1, 69, 96
1, 19051, Note_on_c, 1, 65, 96
1, 19052, Note_off_c, 1, 65, 96
1, 19054, Note_on_c, 1, 43, 96
1, 19055, Note_off_c, 1, 43, 96
1, 19057, Note_on_c, 1, 59, 96
1, 19058, Note_off_c, 1, 59, 96
1, 19174, Note_on_c, 1, 48, 96
1, 19175, Note_off_c, 1, 48, 96
1, 19178, Note_on_c, 1, 64, 96
1, 19179, Note_off_c, 1, 64, 96
1, 19240, Note_on_c, 1, 67, 96
1, 19241, Note_off_c, 1, 67, 96
1, 19298, Note_on_c, 1, 52, 96
1, 19299, Note_off_c, 1, 52, 96
1, 19303, Note_on_c, 1, 60, 96
1, 19304, Note_off_c, 1, 60, 96
1, 19426, Note_on_c, 1, 64, 96
1, 19428, Note_off_c, 1, 64, 96
1, 19428, Note_on_c, 1, 60, 96
1, 19430, Note_off_c, 1, 60, 96
1, 19430, Note_on_c, 1, 55, 96
1, 19431, Note_off_c, 1, 55, 96
1, 19545, Note_on_c, 1, 67, 96
1, 19546, Note_off_c, 1, 67, 96
1, 19549, Note_on_c, 1, 60, 96
1, 19550, Note_off_c, 1, 60, 96
1, 19552, Note_on_c, 1, 64, 96
1, 19554, Note_off_c, 1, 64, 96
1, 19554, Note_on_c, 1, 55, 96
1, 19555, Note_off_c, 1, 55, 96
1, 19670, Note_on_c, 1, 50, 96
1, 19671, Note_off_c, 1, 50, 96
1, 19673, Note_on_c, 1, 62, 96
1, 19674, Note_off_c, 1, 62, 96
1, 19732, Note_on_c, 1, 65, 96
1, 19732, Note_on_c, 1, 47, 96
1, 19733, Note_off_c, 1, 65, 96
1, 19733, Note_off_c, 1, 47, 96
1, 19736, Note_on_c, 1, 59, 96
1, 19737, Note_off_c, 1, 59, 96
1, 19854, Note_on_c, 1, 46, 96
1, 19855, Note_off_c, 1, 46, 96
1, 19857, Note_on_c, 1, 68, 96
1, 19859, Note_off_c, 1, 68, 96
1, 19859, Note_on_c, 1, 41, 96
1, 19860, Note_off_c, 1, 41, 96
1, 19917, Note_on_c, 1, 67, 96
1, 19918, Note_off_c, 1, 67, 96
1, 19976, Note_on_c, 1, 60, 96
1, 19978, Note_off_c, 1, 60, 96
1, 19978, Note_on_c, 1, 48, 96
1, 19979, Note_off_c, 1, 48, 96
1, 20039, Note_on_c, 1, 58, 96
1, 20040, Note_off_c, 1, 58, 96
1, 20042, Note_on_c, 1, 63, 96
1, 20043, Note_off_c, 1, 63, 96
1, 20102, Note_on_c, 1, 70, 96
1, 20102, Note_on_c, 1, 58, 96
1, 20103, Note_off_c, 1, 70, 96
1, 20103, Note_off_c, 1, 58, 96
1, 20159, Note_on_c, 1, 72, 96
1, 20160, Note_off_c, 1, 72, 96
1, 20219, Note_on_c, 1, 45, 96
1, 20220, Note_off_c, 1, 45, 96
1, 20227, Note_on_c, 1, 57, 96
1, 20228, Note_off_c, 1, 57, 96
1, 20287, Note_on_c, 1, 79, 96
1, 20288, Note_off_c, 1, 79, 96
1, 20341, Note_on_c, 1, 74, 96
1, 20344, Note_off_c, 1, 74, 96
1, 20344, Note_on_c, 1, 66, 96
1, 20344, Note_on_c, 1, 60, 96
1, 20345, Note_off_c, 1, 66, 96
1, 20345, Note_off_c, 1, 60, 96
1, 20351, Note_on_c, 1, 72, 96
1, 20351, Note_on_c, 1, 57, 96
1, 20351, Note_on_c, 1, 54, 96
1, 20352, Note_off_c, 1, 72, 96
1, 20352, Note_off_c, 1, 57, 96
1, 20352, Note_off_c, 1, 54, 96
1, 20467, Note_on_c, 1, 71, 96
1, 20467, Note_on_c, 1, 83, 96
1, 20467, Note_on_c, 1, 78, 96
1, 20468, Note_off_c, 1, 71, 96
1, 20468, Note_off_c, 1, 83, 96
1, 20468, Note_off_c, 1, 78, 96
1, 20471, Note_on_c, 1, 47, 96
1, 20472, Note_off_c, 1, 47, 96
1, 20708, Note_on_c, 1, 43, 96
1, 20709, Note_off_c, 1, 43, 96
1, 20716, Note_on_c, 1, 81, 96
1, 20716, Note_on_c, 1, 69, 96
1, 20716, Note_on_c, 1, 55, 96
1, 20717, Note_off_c, 1, 81, 96
1, 20717, Note_off_c, 1, 69, 96
1, 20717, Note_off_c, 1, 55, 96
1, 20829, Note_on_c, 1, 64, 96
1, 20830, Note_off_c, 1, 64, 96
1, 20836, Note_on_c, 1, 52, 96
1, 20838, Note_off_c, 1, 52, 96
1, 20838, Note_on_c, 1, 76, 96
1, 20839, Note_off_c, 1, 76, 96
1, 20952, Note_on_c, 1, 76, 96
1, 20953, Note_off_c, 1, 76, 96
1, 20955, Note_on_c, 1, 55, 96
1, 20957, Note_off_c, 1, 55, 96
1, 20957, Note_on_c, 1, 52, 96
1, 20958, Note_off_c, 1, 52, 96
1, 20960, Note_on_c, 1, 59, 96
1, 20961, Note_off_c, 1, 59, 96
1, 21190, Note_on_c, 1, 64, 96
1, 21190, Note_on_c, 1, 76, 96
1, 21192, Note_off_c, 1, 64, 96
1, 21192, Note_off_c, 1, 76, 96
1, 21192, Note_on_c, 1, 59, 96
1, 21193, Note_off_c, 1, 59, 96
1, 21197, Note_on_c, 1, 55, 96
1, 21198, Note_off_c, 1, 55, 96
1, 21433, Note_on_c, 1, 74, 96
1, 21433, Note_on_c, 1, 59, 96
1, 21433, Note_on_c, 1, 55, 96
1, 21436, Note_off_c, 1, 74, 96
1, 21436, Note_off_c, 1, 59, 96
1, 21436, Note_off_c, 1, 55, 96
1, 21436, Note_on_c, 1, 67, 96
1, 21436, Note_on_c, 1, 50, 96
1, 21437, Note_off_c, 1, 67, 96
1, 21437, Note_off_c, 1, 50, 96
1, 21559, Note_on_c, 1, 74, 96
1, 21560, Note_off_c, 1, 74, 96
1, 21677, Note_on_c, 1, 66, 96
1, 21678, Note_off_c, 1, 66, 96
1, 21681, Note_on_c, 1, 59, 96
1, 21681, Note_on_c, 1, 50, 96
1, 21682, Note_off_c, 1, 59, 96
1, 21682, Note_off_c, 1, 50, 96
1, 21684, Note_on_c, 1, 67, 96
1, 21685, Note_off_c, 1, 67, 96
1, 21848, Note_on_c, 1, 85, 96
1, 21849, Note_off_c, 1, 85, 96
1, 21852, Note_on_c, 1, 71, 96
1, 21853, Note_off_c, 1, 71, 96
1, 21871, Note_on_c, 1, 86, 96
1, 21872, Note_off_c, 1, 86, 96
1, 21888, Note_on_c, 1, 78, 96
1, 21889, Note_off_c, 1, 78, 96
1, 21905, Note_on_c, 1, 78, 96
1, 21907, Note_off_c, 1, 78, 96
1, 21907, Note_on_c, 1, 66, 96
1, 21909, Note_off_c, 1, 66, 96
1, 21909, Note_on_c, 1, 78, 96
1, 21911, Note_off_c, 1, 78, 96
1, 21911, Note_on_c, 1, 45, 96
1, 21912, Note_off_c, 1, 45, 96
1, 21916, Note_on_c, 1, 69, 96
1, 21918, Note_off_c, 1, 69, 96
1, 21918, Note_on_c, 1, 57, 96
1, 21920, Note_off_c, 1, 57, 96
1, 21920, Note_on_c, 1, 74, 96
1, 21922, Note_off_c, 1, 74, 96
1, 21922, Note_on_c, 1, 65, 96
1, 21923, Note_off_c, 1, 65, 96
1, 22038, Note_on_c, 1, 76, 96
1, 22038, Note_on_c, 1, 44, 96
1, 22040, Note_off_c, 1, 76, 96
1, 22040, Note_off_c, 1, 44, 96
1, 22040, Note_on_c, 1, 56, 96
1, 22041, Note_off_c, 1, 56, 96
1, 22102, Note_on_c, 1, 69, 96
1, 22104, Note_off_c, 1, 69, 96
1, 22104, Note_on_c, 1, 74, 96
1, 22105, Note_off_c, 1, 74, 96
1, 22158, Note_on_c, 1, 55, 96
1, 22160, Note_off_c, 1, 55, 96
1, 22160, Note_on_c, 1, 62, 96
1, 22161, Note_off_c, 1, 62, 96
1, 22165, Note_on_c, 1, 59, 96
1, 22166, Note_off_c, 1, 59, 96
1, 22283, Note_on_c, 1, 77, 96
1, 22283, Note_on_c, 1, 59, 96
1, 22284, Note_off_c, 1, 77, 96
1, 22284, Note_off_c, 1, 59, 96
1, 22288, Note_on_c, 1, 65, 96
1, 22290, Note_off_c, 1, 65, 96
1, 22290, Note_on_c, 1, 55, 96
1, 22291, Note_off_c, 1, 55, 96
1, 22407, Note_on_c, 1, 48, 96
1, 22409, Note_off_c, 1, 48, 96
1, 22409, Note_on_c, 1, 36, 96
1, 22412, Note_off_c, 1, 36, 96
1, 22412, Note_on_c, 1, 72, 96
1, 22412, Note_on_c, 1, 75, 96
1, 22413, Note_off_c, 1, 72, 96
1, 22413, Note_off_c, 1, 75, 96
1, 22474, Note_on_c, 1, 74, 96
1, 22475, Note_off_c, 1, 74, 96
1, 22532, Note_on_c, 1, 55, 96
1, 22534, Note_off_c, 1, 55, 96
1, 22534, Note_on_c, 1, 72, 96
1, 22535, Note_off_c, 1, 72, 96
1, 22539, Note_on_c, 1, 76, 96
1, 22539, Note_on_c, 1, 43, 96
1, 22540, Note_off_c, 1, 76, 96
1, 22540, Note_off_c, 1, 43, 96
1, 22654, Note_on_c, 1, 55, 96
1, 22656, Note_off_c, 1, 55, 96
1, 22656, Note_on_c, 1, 65, 96
1, 22657, Note_off_c, 1, 65, 96
1, 22660, Note_on_c, 1, 76, 96
1, 22663, Note_off_c, 1, 76, 96
1, 22663, Note_on_c, 1, 59, 96
1, 22663, Note_on_c, 1, 50, 96
1, 22664, Note_off_c, 1, 59, 96
1, 22664, Note_off_c, 1, 50, 96
1, 22778, Note_on_c, 1, 43, 96
1, 22779, Note_off_c, 1, 43, 96
1, 22784, Note_on_c, 1, 74, 96
1, 22786, Note_off_c, 1, 74, 96
1, 22786, Note_on_c, 1, 71, 96
1, 22787, Note_off_c, 1, 71, 96
1, 22899, Note_on_c, 1, 59, 96
1, 22900, Note_off_c, 1, 59, 96
1, 22902, Note_on_c, 1, 69, 96
1, 22904, Note_off_c, 1, 69, 96
1, 22904, Note_on_c, 1, 65, 96
1, 22906, Note_off_c, 1, 65, 96
1, 22906, Note_on_c, 1, 77, 96
1, 22908, Note_off_c, 1, 77, 96
1, 22908, Note_on_c, 1, 55, 96
1, 22909, Note_off_c, 1, 55, 96
1, 23025, Note_on_c, 1, 43, 96
1, 23026, Note_off_c, 1, 43, 96
1, 23028, Note_on_c, 1, 69, 96
1, 23030, Note_off_c, 1, 69, 96
1, 23030, Note_on_c, 1, 65, 96
1, 23031, Note_off_c, 1, 65, 96
1, 23153, Note_on_c, 1, 36, 96
1, 23153, Note_on_c, 1, 48, 96
1, 23155, Note_off_c, 1, 36, 96
1, 23155, Note_off_c, 1, 48, 96
1, 23155, Note_on_c, 1, 72, 96
1, 23156, Note_off_c, 1, 72, 96
1, 23270, Note_on_c, 1, 69, 96
1, 23271, Note_off_c, 1, 69, 96
1, 23274, Note_on_c, 1, 74, 96
1, 23275, Note_off_c, 1, 74, 96
1, 23392, Note_on_c, 1, 74, 96
1, 23393, Note_off_c, 1, 74, 96
1, 23395, Note_on_c, 1, 70, 96
1, 23397, Note_off_c, 1, 70, 96
1, 23397, Note_on_c, 1, 64, 96
1, 23398, Note_off_c, 1, 64, 96
1, 23456, Note_on_c, 1, 76, 96
1, 23456, Note_on_c, 1, 64, 96
1, 23457, Note_off_c, 1, 76, 96
1, 23457, Note_off_c, 1, 64, 96
1, 23575, Note_on_c, 1, 70, 96
1, 23576, Note_off_c, 1, 70, 96
1, 23691, Note_on_c, 1, 60, 96
1, 23691, Note_on_c, 1, 48, 96
1, 23693, Note_off_c, 1, 60, 96
1, 23693, Note_off_c, 1, 48, 96
1, 23693, Note_on_c, 1, 36, 96
1, 23695, Note_off_c, 1, 36, 96
1, 23695, Note_on_c, 1, 55, 96
1, 23696, Note_off_c, 1, 55, 96
1, 23822, Note_on_c, 1, 65, 96
1, 23822, Note_on_c, 1, 60, 96
1, 23824, Note_off_c, 1, 65, 96
1, 23824, Note_off_c, 1, 60, 96
1, 23824, Note_on_c, 1, 57, 96
1, 23825, Note_off_c, 1, 57, 96
1, 23885, Note_on_c, 1, 59, 96
1, 23887, Note_off_c, 1, 59, 96
1, 23887, Note_on_c, 1, 47, 96
1, 23888, Note_off_c, 1, 47, 96
1, 23944, Note_on_c, 1, 64, 96
1, 23944, Note_on_c, 1, 52, 96
1, 23945, Note_off_c, 1, 64, 96
1, 23945, Note_off_c, 1, 52, 96
1, 24063, Note_on_c, 1, 68, 96
1, 24064, Note_off_c, 1, 68, 96
1, 24067, Note_on_c, 1, 71, 96
1, 24068, Note_off_c, 1, 71, 96
1, 24186, Note_on_c, 1, 74, 96
1, 24187, Note_off_c, 1, 74, 96
1, 24309, Note_on_c, 1, 60, 96
1, 24309, Note_on_c, 1, 69, 96
1, 24310, Note_off_c, 1, 60, 96
1, 24310, Note_off_c, 1, 69, 96
1, 24428, Note_on_c, 1, 74, 96
1, 24429, Note_off_c, 1, 74, 96
1, 24541, Note_on_c, 1, 41, 96
1, 24542, Note_off_c, 1, 41, 96
1, 24549, Note_on_c, 1, 71, 96
1, 24549, Note_on_c, 1, 53, 96
1, 24550, Note_off_c, 1, 71, 96
1, 24550, Note_off_c, 1, 53, 96
1, 24784, Note_on_c, 1, 71, 96
1, 24786, Note_off_c, 1, 71, 96
1, 24786, Note_on_c, 1, 83, 96
1, 24787, Note_off_c, 1, 83, 96
1, 24789, Note_on_c, 1, 59, 96
1, 24790, Note_off_c, 1, 59, 96
1, 25029, Note_on_c, 1, 86, 96
1, 25029, Note_on_c, 1, 74, 96
1, 25030, Note_off_c, 1, 86, 96
1, 25030, Note_off_c, 1, 74, 96
1, 25032, Note_on_c, 1, 62, 96
1, 25034, Note_off_c, 1, 62, 96
1, 25034, Note_on_c, 1, 77, 96
1, 25036, Note_off_c, 1, 77, 96
1, 25036, Note_on_c, 1, 59, 96
1, 25039, Note_off_c, 1, 59, 96
1, 25039, Note_on_c, 1, 65, 96
1, 25039, Note_on_c, 1, 56, 96
1, 25040, Note_off_c, 1, 65, 96
1, 25040, Note_off_c, 1, 56, 96
1, 25158, Note_on_c, 1, 60, 96
1, 25158, Note_on_c, 1, 48, 96
1, 25159, Note_off_c, 1, 60, 96
1, 25159, Note_off_c, 1, 48, 96
1, 25216, Note_on_c, 1, 76, 96
1, 25218, Note_off_c, 1, 76, 96
1, 25218, Note_on_c, 1, 88, 96
1, 25219, Note_off_c, 1, 88, 96
1, 25277, Note_on_c, 1, 88, 96
1, 25279, Note_off_c, 1, 88, 96
1, 25279, Note_on_c, 1, 79, 96
1, 25283, Note_off_c, 1, 79, 96
1, 25283, Note_on_c, 1, 76, 96
1, 25283, Note_on_c, 1, 60, 96
1, 25283, Note_on_c, 1, 55, 96
1, 25284, Note_off_c, 1, 76, 96
1, 25284, Note_off_c, 1, 60, 96
1, 25284, Note_off_c, 1, 55, 96
1, 25400, Note_on_c, 1, 43, 96
1, 25401, Note_off_c, 1, 43, 96
1, 25519, Note_on_c, 1, 55, 96
1, 25522, Note_off_c, 1, 55, 96
1, 25522, Note_on_c, 1, 76, 96
1, 25522, Note_on_c, 1, 72, 96
1, 25523, Note_off_c, 1, 76, 96
1, 25523, Note_off_c, 1, 72, 96
1, 25528, Note_on_c, 1, 84, 96
1, 25528, Note_on_c, 1, 79, 96
1, 25529, Note_off_c, 1, 84, 96
1, 25529, Note_off_c, 1, 79, 96
1, 25709, Note_on_c, 1, 52, 96
1, 25710, Note_off_c, 1, 52, 96
1, 25769, Note_on_c, 1, 60, 96
1, 25770, Note_off_c, 1, 60, 96
1, 25774, Note_on_c, 1, 64, 96
1, 25777, Note_off_c, 1, 64, 96
1, 25777, Note_on_c, 1, 75, 96
1, 25777, Note_on_c, 1, 55, 96
1, 25779, Note_off_c, 1, 75, 96
1, 25779, Note_off_c, 1, 55, 96
1, 25779, Note_on_c, 1, 79, 96
1, 25780, Note_off_c, 1, 79, 96
1, 26011, Note_on_c, 1, 72, 96
1, 26012, Note_off_c, 1, 72, 96
1, 26017, Note_on_c, 1, 76, 96
1, 26019, Note_off_c, 1, 76, 96
1, 26019, Note_on_c, 1, 48, 96
1, 26020, Note_off_c, 1, 48, 96
1, 26257, Note_on_c, 1, 74, 96
1, 26259, Note_off_c, 1, 74, 96
1, 26259, Note_on_c, 1, 64, 96
1, 26260, Note_off_c, 1, 64, 96
1, 26262, Note_on_c, 1, 72, 96
1, 26265, Note_off_c, 1, 72, 96
1, 26265, Note_on_c, 1, 60, 96
1, 26265, Note_on_c, 1, 55, 96
1, 26266, Note_off_c, 1, 60, 96
1, 26266, Note_off_c, 1, 55, 96
1, 26326, Note_on_c, 1, 74, 96
1, 26327, Note_off_c, 1, 74, 96
1, 26390, Note_on_c, 1, 76, 96
1, 26390, Note_on_c, 1, 67, 96
1, 26390, Note_on_c, 1, 72, 96
1, 26390, Note_on_c, 1, 55, 96
1, 26390, Note_on_c, 1, 64, 96
1, 26390, Note_on_c, 1, 60, 96
1, 26391, Note_off_c, 1, 76, 96
1, 26391, Note_off_c, 1, 67, 96
1, 26391, Note_off_c, 1, 72, 96
1, 26391, Note_off_c, 1, 55, 96
1, 26391, Note_off_c, 1, 64, 96
1, 26391, Note_off_c, 1, 60, 96
1, 26448, Note_on_c, 1, 76, 96
1, 26449, Note_off_c, 1, 76, 96
1, 26456, Note_on_c, 1, 72, 96
1, 26457, Note_off_c, 1, 72, 96
1, 26513, Note_on_c, 1, 43, 96
1, 26514, Note_off_c, 1, 43, 96
1, 26574, Note_on_c, 1, 76, 96
1, 26575, Note_off_c, 1, 76, 96
1, 26634, Note_on_c, 1, 55, 96
1, 26636, Note_off_c, 1, 55, 96
1, 26636, Note_on_c, 1, 64, 96
1, 26638, Note_off_c, 1, 64, 96
1, 26638, Note_on_c, 1, 60, 96
1, 26639, Note_off_c, 1, 60, 96
1, 26705, Note_on_c, 1, 84, 96
1, 26706, Note_off_c, 1, 84, 96
1, 26757, Note_on_c, 1, 43, 96
1, 26759, Note_off_c, 1, 43, 96
1, 26759, Note_on_c, 1, 72, 96
1, 26760, Note_off_c, 1, 72, 96
1, 26876, Note_on_c, 1, 76, 96
1, 26877, Note_off_c, 1, 76, 96
1, 26882, Note_on_c, 1, 72, 96
1, 26882, Note_on_c, 1, 84, 96
1, 26883, Note_off_c, 1, 72, 96
1, 26883, Note_off_c, 1, 84, 96
1, 27004, Note_on_c, 1, 48, 96
1, 27005, Note_off_c, 1, 48, 96
1, 27118, Note_on_c, 1, 79, 96
1, 27119, Note_off_c, 1, 79, 96
1, 27122, Note_on_c, 1, 76, 96
1, 27122, Note_on_c, 1, 48, 96
1, 27123, Note_off_c, 1, 76, 96
1, 27123, Note_off_c, 1, 48, 96
1, 27236, Note_on_c, 1, 64, 96
1, 27238, Note_off_c, 1, 64, 96
1, 27238, Note_on_c, 1, 55, 96
1, 27240, Note_off_c, 1, 55, 96
1, 27240, Note_on_c, 1, 60, 96
1, 27241, Note_off_c, 1, 60, 96
1, 27354, Note_on_c, 1, 76, 96
1, 27355, Note_off_c, 1, 76, 96
1, 27362, Note_on_c, 1, 72, 96
1, 27363, Note_off_c, 1, 72, 96
1, 27475, Note_on_c, 1, 79, 96
1, 27475, Note_on_c, 1, 67, 96
1, 27476, Note_off_c, 1, 79, 96
1, 27476, Note_off_c, 1, 67, 96
1, 27606, Note_on_c, 1, 81, 96
1, 27607, Note_off_c, 1, 81, 96
1, 27723, Note_on_c, 1, 76, 96
1, 27724, Note_off_c, 1, 76, 96
1, 27841, Note_on_c, 1, 79, 96
1, 27842, Note_off_c, 1, 79, 96
1, 27850, Note_on_c, 1, 76, 96
1, 27851, Note_off_c, 1, 76, 96
1, 27963, Note_on_c, 1, 67, 96
1, 27964, Note_off_c, 1, 67, 96
1, 27966, Note_on_c, 1, 81, 96
1, 27967, Note_off_c, 1, 81, 96
1, 27970, Note_on_c, 1, 41, 96
1, 27971, Note_off_c, 1, 41, 96
1, 27974, Note_on_c, 1, 53, 96
1, 27975, Note_off_c, 1, 53, 96
1, 28095, Note_on_c, 1, 79, 96
1, 28097, Note_off_c, 1, 79, 96
1, 28097, Note_on_c, 1, 58, 96
1, 28101, Note_off_c, 1, 58, 96
1, 28101, Note_on_c, 1, 82, 96
1, 28101, Note_on_c, 1, 64, 96
1, 28101, Note_on_c, 1, 60, 96
1, 28102, Note_off_c, 1, 82, 96
1, 28102, Note_off_c, 1, 64, 96
1, 28102, Note_off_c, 1, 60, 96
1, 28215, Note_on_c, 1, 48, 96
1, 28216, Note_off_c, 1, 48, 96
1, 28219, Note_on_c, 1, 67, 96
1, 28220, Note_off_c, 1, 67, 96
1, 28223, Note_on_c, 1, 76, 96
1, 28224, Note_off_c, 1, 76, 96
1, 28337, Note_on_c, 1, 60, 96
1, 28340, Note_off_c, 1, 60, 96
1, 28340, Note_on_c, 1, 79, 96
1, 28340, Note_on_c, 1, 84, 96
1, 28341, Note_off_c, 1, 79, 96
1, 28341, Note_off_c, 1, 84, 96
1, 28346, Note_on_c, 1, 72, 96
1, 28346, Note_on_c, 1, 55, 96
1, 28348, Note_off_c, 1, 72, 96
1, 28348, Note_off_c, 1, 55, 96
1, 28348, Note_on_c, 1, 50, 96
1, 28349, Note_off_c, 1, 50, 96
1, 28404, Note_on_c, 1, 79, 96
1, 28405, Note_off_c, 1, 79, 96
1, 28464, Note_on_c, 1, 60, 96
1, 28466, Note_off_c, 1, 60, 96
1, 28466, Note_on_c, 1, 64, 96
1, 28467, Note_off_c, 1, 64, 96
1, 28469, Note_on_c, 1, 55, 96
1, 28470, Note_off_c, 1, 55, 96
1, 28472, Note_on_c, 1, 76, 96
1, 28473, Note_off_c, 1, 76, 96
1, 28533, Note_on_c, 1, 74, 96
1, 28534, Note_off_c, 1, 74, 96
1, 28591, Note_on_c, 1, 79, 96
1, 28592, Note_off_c, 1, 79, 96
1, 28595, Note_on_c, 1, 52, 96
1, 28596, Note_off_c, 1, 52, 96
1, 28713, Note_on_c, 1, 76, 96
1, 28714, Note_off_c, 1, 76, 96
1, 28718, Note_on_c, 1, 64, 96
1, 28718, Note_on_c, 1, 55, 96
1, 28720, Note_off_c, 1, 64, 96
1, 28720, Note_off_c, 1, 55, 96
1, 28720, Note_on_c, 1, 57, 96
1, 28721, Note_off_c, 1, 57, 96
1, 28724, Note_on_c, 1, 60, 96
1, 28725, Note_off_c, 1, 60, 96
1, 28781, Note_on_c, 1, 72, 96
1, 28782, Note_off_c, 1, 72, 96
1, 28784, Note_on_c, 1, 76, 96
1, 28785, Note_off_c, 1, 76, 96
1, 28843, Note_on_c, 1, 53, 96
1, 28844, Note_off_c, 1, 53, 96
1, 28847, Note_on_c, 1, 57, 96
1, 28847, Note_on_c, 1, 63, 96
1, 28848, Note_off_c, 1, 57, 96
1, 28848, Note_off_c, 1, 63, 96
1, 28906, Note_on_c, 1, 77, 96
1, 28907, Note_off_c, 1, 77, 96
1, 28968, Note_on_c, 1, 60, 96
1, 28968, Note_on_c, 1, 53, 96
1, 28970, Note_off_c, 1, 60, 96
1, 28970, Note_off_c, 1, 53, 96
1, 28970, Note_on_c, 1, 57, 96
1, 28971, Note_off_c, 1, 57, 96
1, 29089, Note_on_c, 1, 72, 96
1, 29091, Note_off_c, 1, 72, 96
1, 29091, Note_on_c, 1, 65, 96
1, 29092, Note_off_c, 1, 65, 96
1, 29096, Note_on_c, 1, 57, 96
1, 29098, Note_off_c, 1, 57, 96
1, 29098, Note_on_c, 1, 60, 96
1, 29099, Note_off_c, 1, 60, 96
1, 29154, Note_on_c, 1, 77, 96
1, 29155, Note_off_c, 1, 77, 96
1, 29219, Note_on_c, 1, 48, 96
1, 29221, Note_off_c, 1, 48, 96
1, 29221, Note_on_c, 1, 77, 96
1, 29223, Note_off_c, 1, 77, 96
1, 29223, Note_on_c, 1, 60, 96
1, 29224, Note_off_c, 1, 60, 96
1, 29279, Note_on_c, 1, 74, 96
1, 29280, Note_off_c, 1, 74, 96
1, 29341, Note_on_c, 1, 79, 96
1, 29342, Note_off_c, 1, 79, 96
1, 29346, Note_on_c, 1, 41, 96
1, 29347, Note_off_c, 1, 41, 96
1, 29403, Note_on_c, 1, 72, 96
1, 29404, Note_off_c, 1, 72, 96
1, 29466, Note_on_c, 1, 74, 96
1, 29466, Note_on_c, 1, 65, 96
1, 29466, Note_on_c, 1, 62, 96
1, 29468, Note_off_c, 1, 74, 96
1, 29468, Note_off_c, 1, 65, 96
1, 29468, Note_off_c, 1, 62, 96
1, 29468, Note_on_c, 1, 58, 96
1, 29469, Note_off_c, 1, 58, 96
1, 29587, Note_on_c, 1, 69, 96
1, 29587, Note_on_c, 1, 60, 96
1, 29588, Note_off_c, 1, 69, 96
1, 29588, Note_off_c, 1, 60, 96
1, 29594, Note_on_c, 1, 48, 96
1, 29596, Note_off_c, 1, 48, 96
1, 29596, Note_on_c, 1, 57, 96
1, 29597, Note_off_c, 1, 57, 96
1, 29715, Note_on_c, 1, 53, 96
1, 29715, Note_on_c, 1, 41, 96
1, 29716, Note_off_c, 1, 53, 96
1, 29716, Note_off_c, 1, 41, 96
1, 29718, Note_on_c, 1, 77, 96
1, 29719, Note_off_c, 1, 77, 96
1, 29831, Note_on_c, 1, 74, 96
1, 29832, Note_off_c, 1, 74, 96
1, 29834, Note_on_c, 1, 68, 96
1, 29835, Note_off_c, 1, 68, 96
1, 29837, Note_on_c, 1, 46, 96
1, 29838, Note_off_c, 1, 46, 96
1, 29901, Note_on_c, 1, 77, 96
1, 29902, Note_off_c, 1, 77, 96
1, 29961, Note_on_c, 1, 74, 96
1, 29961, Note_on_c, 1, 53, 96
1, 29961, Note_on_c, 1, 41, 96
1, 29962, Note_off_c, 1, 74, 96
1, 29962, Note_off_c, 1, 53, 96
1, 29962, Note_off_c, 1, 41, 96
1, 30020, Note_on_c, 1, 70, 96
1, 30021, Note_off_c, 1, 70, 96
1, 30081, Note_on_c, 1, 53, 96
1, 30082, Note_off_c, 1, 53, 96
1, 30085, Note_on_c, 1, 70, 96
1, 30085, Note_on_c, 1, 41, 96
1, 30086, Note_off_c, 1, 70, 96
1, 30086, Note_off_c, 1, 41, 96
1, 30143, Note_on_c, 1, 72, 96
1, 30144, Note_off_c, 1, 72, 96
1, 30203, Note_on_c, 1, 74, 96
1, 30203, Note_on_c, 1, 62, 96
1, 30204, Note_off_c, 1, 74, 96
1, 30204, Note_off_c, 1, 62, 96
1, 30207, Note_on_c, 1, 46, 96
1, 30208, Note_off_c, 1, 46, 96
1, 30266, Note_on_c, 1, 77, 96
1, 30267, Note_off_c, 1, 77, 96
1, 30325, Note_on_c, 1, 58, 96
1, 30328, Note_off_c, 1, 58, 96
1, 30328, Note_on_c, 1, 70, 96
1, 30328, Note_on_c, 1, 58, 96
1, 30330, Note_off_c, 1, 70, 96
1, 30330, Note_off_c, 1, 58, 96
1, 30330, Note_on_c, 1, 62, 96
1, 30332, Note_off_c, 1, 62, 96
1, 30332, Note_on_c, 1, 53, 96
1, 30333, Note_off_c, 1, 53, 96
1, 30454, Note_on_c, 1, 74, 96
1, 30454, Note_on_c, 1, 41, 96
1, 30455, Note_off_c, 1, 74, 96
1, 30455, Note_off_c, 1, 41, 96
1, 30457, Note_on_c, 1, 53, 96
1, 30458, Note_off_c, 1, 53, 96
1, 30574, Note_on_c, 1, 50, 96
1, 30574, Note_on_c, 1, 38, 96
1, 30575, Note_off_c, 1, 50, 96
1, 30575, Note_off_c, 1, 38, 96
1, 30577, Note_on_c, 1, 74, 96
1, 30579, Note_off_c, 1, 74, 96
1, 30579, Note_on_c, 1, 77, 96
1, 30580, Note_off_c, 1, 77, 96
1, 30582, Note_on_c, 1, 62, 96
1, 30584, Note_off_c, 1, 62, 96
1, 30584, Note_on_c, 1, 69, 96
1, 30585, Note_off_c, 1, 69, 96
1, 30698, Note_on_c, 1, 46, 96
1, 30699, Note_off_c, 1, 46, 96
1, 30702, Note_on_c, 1, 74, 96
1, 30703, Note_off_c, 1, 74, 96
1, 30820, Note_on_c, 1, 74, 96
1, 30820, Note_on_c, 1, 58, 96
1, 30821, Note_off_c, 1, 74, 96
1, 30821, Note_off_c, 1, 58, 96
1, 30826, Note_on_c, 1, 53, 96
1, 30827, Note_off_c, 1, 53, 96
1, 30829, Note_on_c, 1, 62, 96
1, 30830, Note_off_c, 1, 62, 96
1, 30885, Note_on_c, 1, 74, 96
1, 30886, Note_off_c, 1, 74, 96
1, 30945, Note_on_c, 1, 74, 96
1, 30945, Note_on_c, 1, 53, 96
1, 30946, Note_off_c, 1, 74, 96
1, 30946, Note_off_c, 1, 53, 96
1, 30948, Note_on_c, 1, 58, 96
1, 30949, Note_off_c, 1, 58, 96
1, 30952, Note_on_c, 1, 62, 96
1, 30953, Note_off_c, 1, 62, 96
1, 31067, Note_on_c, 1, 70, 96
1, 31071, Note_off_c, 1, 70, 96
1, 31071, Note_on_c, 1, 67, 96
1, 31071, Note_on_c, 1, 60, 96
1, 31071, Note_on_c, 1, 51, 96
1, 31072, Note_off_c, 1, 67, 96
1, 31072, Note_off_c, 1, 60, 96
1, 31072, Note_off_c, 1, 51, 96
1, 31133, Note_on_c, 1, 65, 96
1, 31133, Note_on_c, 1, 46, 96
1, 31134, Note_off_c, 1, 65, 96
1, 31134, Note_off_c, 1, 46, 96
1, 31137, Note_on_c, 1, 70, 96
1, 31138, Note_off_c, 1, 70, 96
1, 31253, Note_on_c, 1, 41, 96
1, 31254, Note_off_c, 1, 41, 96
1, 31257, Note_on_c, 1, 72, 96
1, 31258, Note_off_c, 1, 72, 96
1, 31377, Note_on_c, 1, 70, 96
1, 31380, Note_off_c, 1, 70, 96
1, 31380, Note_on_c, 1, 65, 96
1, 31380, Note_on_c, 1, 41, 96
1, 31383, Note_off_c, 1, 65, 96
1, 31383, Note_off_c, 1, 41, 96
1, 31383, Note_on_c, 1, 74, 96
1, 31383, Note_on_c, 1, 53, 96
1, 31384, Note_off_c, 1, 74, 96
1, 31384, Note_off_c, 1, 53, 96
1, 31505, Note_on_c, 1, 65, 96
1, 31505, Note_on_c, 1, 74, 96
1, 31507, Note_off_c, 1, 65, 96
1, 31507, Note_off_c, 1, 74, 96
1, 31507, Note_on_c, 1, 69, 96
1, 31508, Note_off_c, 1, 69, 96
1, 31625, Note_on_c, 1, 36, 96
1, 31625, Note_on_c, 1, 48, 96
1, 31626, Note_off_c, 1, 36, 96
1, 31626, Note_off_c, 1, 48, 96
1, 31745, Note_on_c, 1, 64, 96
1, 31746, Note_off_c, 1, 64, 96
1, 31750, Note_on_c, 1, 72, 96
1, 31750, Note_on_c, 1, 36, 96
1, 31753, Note_off_c, 1, 72, 96
1, 31753, Note_off_c, 1, 36, 96
1, 31753, Note_on_c, 1, 79, 96
1, 31753, Note_on_c, 1, 70, 96
1, 31755, Note_off_c, 1, 79, 96
1, 31755, Note_off_c, 1, 70, 96
1, 31755, Note_on_c, 1, 48, 96
1, 31756, Note_off_c, 1, 48, 96
1, 31873, Note_on_c, 1, 76, 96
1, 31873, Note_on_c, 1, 72, 96
1, 31873, Note_on_c, 1, 60, 96
1, 31874, Note_off_c, 1, 76, 96
1, 31874, Note_off_c, 1, 72, 96
1, 31874, Note_off_c, 1, 60, 96
1, 31877, Note_on_c, 1, 58, 96
1, 31878, Note_off_c, 1, 58, 96
1, 31995, Note_on_c, 1, 64, 96
1, 31997, Note_off_c, 1, 64, 96
1, 31997, Note_on_c, 1, 74, 96
1, 31999, Note_off_c, 1, 74, 96
1, 31999, Note_on_c, 1, 48, 96
1, 32001, Note_off_c, 1, 48, 96
1, 32001, Note_on_c, 1, 70, 96
1, 32002, Note_off_c, 1, 70, 96
1, 32117, Note_on_c, 1, 67, 96
1, 32119, Note_off_c, 1, 67, 96
1, 32119, Note_on_c, 1, 36, 96
1, 32120, Note_off_c, 1, 36, 96
1, 32122, Note_on_c, 1, 72, 96
1, 32124, Note_off_c, 1, 72, 96
1, 32124, Note_on_c, 1, 48, 96
1, 32126, Note_off_c, 1, 48, 96
1, 32126, Note_on_c, 1, 64, 96
1, 32127, Note_off_c, 1, 64, 96
1, 32308, Note_on_c, 1, 79, 96
1, 32309, Note_off_c, 1, 79, 96
1, 32370, Note_on_c, 1, 57, 96
1, 32370, Note_on_c, 1, 63, 96
1, 32370, Note_on_c, 1, 53, 96
1, 32372, Note_off_c, 1, 57, 96
1, 32372, Note_off_c, 1, 63, 96
1, 32372, Note_off_c, 1, 53, 96
1, 32372, Note_on_c, 1, 81, 96
1, 32373, Note_off_c, 1, 81, 96
1, 32489, Note_on_c, 1, 60, 96
1, 32491, Note_off_c, 1, 60, 96
1, 32491, Note_on_c, 1, 69, 96
1, 32495, Note_off_c, 1, 69, 96
1, 32495, Note_on_c, 1, 72, 96
1, 32495, Note_on_c, 1, 57, 96
1, 32495, Note_on_c, 1, 65, 96
1, 32496, Note_off_c, 1, 72, 96
1, 32496, Note_off_c, 1, 57, 96
1, 32496, Note_off_c, 1, 65, 96
1, 32614, Note_on_c, 1, 36, 96
1, 32615, Note_off_c, 1, 36, 96
1, 32618, Note_on_c, 1, 48, 96
1, 32619, Note_off_c, 1, 48, 96
1, 32736, Note_on_c, 1, 60, 96
1, 32737, Note_off_c, 1, 60, 96
1, 32744, Note_on_c, 1, 58, 96
1, 32745, Note_off_c, 1, 58, 96
1, 32853, Note_on_c, 1, 60, 96
1, 32854, Note_off_c, 1, 60, 96
1, 32857, Note_on_c, 1, 72, 96
1, 32859, Note_off_c, 1, 72, 96
1, 32859, Note_on_c, 1, 64, 96
1, 32861, Note_off_c, 1, 64, 96
1, 32861, Note_on_c, 1, 58, 96
1, 32862, Note_off_c, 1, 58, 96
1, 32978, Note_on_c, 1, 48, 96
1, 32979, Note_off_c, 1, 48, 96
1, 32983, Note_on_c, 1, 69, 96
1, 32984, Note_off_c, 1, 69, 96
1, 33041, Note_on_c, 1, 69, 96
1, 33042, Note_off_c, 1, 69, 96
1, 33048, Note_on_c, 1, 74, 96
1, 33049, Note_off_c, 1, 74, 96
1, 33223, Note_on_c, 1, 69, 96
1, 33225, Note_off_c, 1, 69, 96
1, 33225, Note_on_c, 1, 77, 96
1, 33226, Note_off_c, 1, 77, 96
1, 33342, Note_on_c, 1, 53, 96
1, 33344, Note_off_c, 1, 53, 96
1, 33344, Note_on_c, 1, 41, 96
1, 33345, Note_off_c, 1, 41, 96
1, 33465, Note_on_c, 1, 69, 96
1, 33467, Note_off_c, 1, 69, 96
1, 33467, Note_on_c, 1, 77, 96
1, 33468, Note_off_c, 1, 77, 96
1, 33471, Note_on_c, 1, 65, 96
1, 33472, Note_off_c, 1, 65, 96
1, 33587, Note_on_c, 1, 64, 96
1, 33587, Note_on_c, 1, 67, 96
1, 33588, Note_off_c, 1, 64, 96
1, 33588, Note_off_c, 1, 67, 96
1, 33590, Note_on_c, 1, 53, 96
1, 33591, Note_off_c, 1, 53, 96
1, 33712, Note_on_c, 1, 67, 96
1, 33713, Note_off_c, 1, 67, 96
1, 33715, Note_on_c, 1, 65, 96
1, 33716, Note_off_c, 1, 65, 96
1, 33834, Note_on_c, 1, 62, 96
1, 33835, Note_off_c, 1, 62, 96
1, 33838, Note_on_c, 1, 65, 96
1, 33838, Note_on_c, 1, 41, 96
1, 33839, Note_off_c, 1, 65, 96
1, 33839, Note_off_c, 1, 41, 96
1, 34076, Note_on_c, 1, 81, 96
1, 34078, Note_off_c, 1, 81, 96
1, 34078, Note_on_c, 1, 77, 96
1, 34079, Note_off_c, 1, 77, 96
1, 34195, Note_on_c, 1, 72, 96
1, 34196, Note_off_c, 1, 72, 96
1, 34199, Note_on_c, 1, 75, 96
1, 34200, Note_off_c, 1, 75, 96
1, 34316, Note_on_c, 1, 69, 96
1, 34317, Note_off_c, 1, 69, 96
1, 34321, Note_on_c, 1, 45, 96
1, 34322, Note_off_c, 1, 45, 96
1, 34496, Note_on_c, 1, 78, 96
1, 34497, Note_off_c, 1, 78, 96
1, 34554, Note_on_c, 1, 81, 96
1, 34555, Note_off_c, 1, 81, 96
1, 34675, Note_on_c, 1, 74, 96
1, 34676, Note_off_c, 1, 74, 96
1, 34853, Note_on_c, 1, 73, 96
1, 34854, Note_off_c, 1, 73, 96
1, 34910, Note_on_c, 1, 52, 96
1, 34912, Note_off_c, 1, 52, 96
1, 34912, Note_on_c, 1, 48, 96
1, 34913, Note_off_c, 1, 48, 96
1, 34917, Note_on_c, 1, 73, 96
1, 34918, Note_off_c, 1, 73, 96
1, 34981, Note_on_c, 1, 74, 96
1, 34982, Note_off_c, 1, 74, 96
1, 35039, Note_on_c, 1, 57, 96
1, 35041, Note_off_c, 1, 57, 96
1, 35041, Note_on_c, 1, 61, 96
1, 35042, Note_off_c, 1, 61, 96
1, 35044, Note_on_c, 1, 67, 96
1, 35045, Note_off_c, 1, 67, 96
1, 35102, Note_on_c, 1, 76, 96
1, 35103, Note_off_c, 1, 76, 96
1, 35165, Note_on_c, 1, 73, 96
1, 35165, Note_on_c, 1, 45, 96
1, 35166, Note_off_c, 1, 73, 96
1, 35166, Note_off_c, 1, 45, 96
1, 35226, Note_on_c, 1, 69, 96
1, 35227, Note_off_c, 1, 69, 96
1, 35231, Note_on_c, 1, 81, 96
1, 35232, Note_off_c, 1, 81, 96
1, 35287, Note_on_c, 1, 78, 96
1, 35289, Note_off_c, 1, 78, 96
1, 35289, Note_on_c, 1, 62, 96
1, 35293, Note_off_c, 1, 62, 96
1, 35293, Note_on_c, 1, 66, 96
1, 35293, Note_on_c, 1, 54, 96
1, 35293, Note_on_c, 1, 60, 96
1, 35295, Note_off_c, 1, 66, 96
1, 35295, Note_off_c, 1, 54, 96
1, 35295, Note_off_c, 1, 60, 96
1, 35295, Note_on_c, 1, 72, 96
1, 35296, Note_off_c, 1, 72, 96
1, 35416, Note_on_c, 1, 38, 96
1, 35417, Note_off_c, 1, 38, 96
1, 35419, Note_on_c, 1, 50, 96
1, 35420, Note_off_c, 1, 50, 96
1, 35540, Note_on_c, 1, 45, 96
1, 35542, Note_off_c, 1, 45, 96
1, 35542, Note_on_c, 1, 74, 96
1, 35543, Note_off_c, 1, 74, 96
1, 35660, Note_on_c, 1, 74, 96
1, 35661, Note_off_c, 1, 74, 96
1, 35665, Note_on_c, 1, 79, 96
1, 35665, Note_on_c, 1, 43, 96
1, 35665, Note_on_c, 1, 55, 96
1, 35667, Note_off_c, 1, 79, 96
1, 35667, Note_off_c, 1, 43, 96
1, 35667, Note_off_c, 1, 55, 96
1, 35667, Note_on_c, 1, 67, 96
1, 35668, Note_off_c, 1, 67, 96
1, 35785, Note_on_c, 1, 38, 96
1, 35786, Note_off_c, 1, 38, 96
1, 35907, Note_on_c, 1, 59, 96
1, 35910, Note_off_c, 1, 59, 96
1, 35910, Note_on_c, 1, 71, 96
1, 35910, Note_on_c, 1, 74, 96
1, 35911, Note_off_c, 1, 71, 96
1, 35911, Note_off_c, 1, 74, 96
1, 36025, Note_on_c, 1, 65, 96
1, 36027, Note_off_c, 1, 65, 96
1, 36027, Note_on_c, 1, 71, 96
1, 36028, Note_off_c, 1, 71, 96
1, 36032, Note_on_c, 1, 74, 96
1, 36032, Note_on_c, 1, 59, 96
1, 36033, Note_off_c, 1, 74, 96
1, 36033, Note_off_c, 1, 59, 96
1, 36035, Note_on_c, 1, 55, 96
1, 36036, Note_off_c, 1, 55, 96
1, 36151, Note_on_c, 1, 72, 96
1, 36152, Note_off_c, 1, 72, 96
1, 36154, Note_on_c, 1, 48, 96
1, 36155, Note_off_c, 1, 48, 96
1, 36215, Note_on_c, 1, 74, 96
1, 36216, Note_off_c, 1, 74, 96
1, 36276, Note_on_c, 1, 69, 96
1, 36277, Note_off_c, 1, 69, 96
1, 36279, Note_on_c, 1, 53, 96
1, 36281, Note_off_c, 1, 53, 96
1, 36281, Note_on_c, 1, 59, 96
1, 36283, Note_off_c, 1, 59, 96
1, 36283, Note_on_c, 1, 55, 96
1, 36284, Note_off_c, 1, 55, 96
1, 36341, Note_on_c, 1, 74, 96
1, 36342, Note_off_c, 1, 74, 96
1, 36399, Note_on_c, 1, 71, 96
1, 36401, Note_off_c, 1, 71, 96
1, 36401, Note_on_c, 1, 43, 96
1, 36403, Note_off_c, 1, 43, 96
1, 36403, Note_on_c, 1, 65, 96
1, 36404, Note_off_c, 1, 65, 96
1, 36464, Note_on_c, 1, 72, 96
1, 36465, Note_off_c, 1, 72, 96
1, 36470, Note_on_c, 1, 64, 96
1, 36471, Note_off_c, 1, 64, 96
1, 36527, Note_on_c, 1, 76, 96
1, 36527, Note_on_c, 1, 60, 96
1, 36529, Note_off_c, 1, 76, 96
1, 36529, Note_off_c, 1, 60, 96
1, 36529, Note_on_c, 1, 55, 96
1, 36530, Note_off_c, 1, 55, 96
1, 36653, Note_on_c, 1, 56, 96
1, 36654, Note_off_c, 1, 56, 96
1, 36658, Note_on_c, 1, 68, 96
1, 36659, Note_off_c, 1, 68, 96
1, 36774, Note_on_c, 1, 52, 96
1, 36775, Note_off_c, 1, 52, 96
1, 36831, Note_on_c, 1, 64, 96
1, 36832, Note_off_c, 1, 64, 96
1, 36896, Note_on_c, 1, 55, 96
1, 36897, Note_off_c, 1, 55, 96
1, 36899, Note_on_c, 1, 48, 96
1, 36900, Note_off_c, 1, 48, 96
1, 36958, Note_on_c, 1, 71, 96
1, 36959, Note_off_c, 1, 71, 96
1, 37019, Note_on_c, 1, 38, 96
1, 37021, Note_off_c, 1, 38, 96
1, 37021, Note_on_c, 1, 76, 96
1, 37022, Note_off_c, 1, 76, 96
1, 37140, Note_on_c, 1, 58, 96
1, 37142, Note_off_c, 1, 58, 96
1, 37142, Note_on_c, 1, 78, 96
1, 37144, Note_off_c, 1, 78, 96
1, 37144, Note_on_c, 1, 75, 96
1, 37146, Note_off_c, 1, 75, 96
1, 37146, Note_on_c, 1, 54, 96
1, 37148, Note_off_c, 1, 54, 96
1, 37148, Note_on_c, 1, 66, 96
1, 37149, Note_off_c, 1, 66, 96
1, 37382, Note_on_c, 1, 56, 96
1, 37383, Note_off_c, 1, 56, 96
1, 37386, Note_on_c, 1, 68, 96
1, 37389, Note_off_c, 1, 68, 96
1, 37389, Note_on_c, 1, 65, 96
1, 37389, Note_on_c, 1, 62, 96
1, 37391, Note_off_c, 1, 65, 96
1, 37391, Note_off_c, 1, 62, 96
1, 37391, Note_on_c, 1, 74, 96
1, 37392, Note_off_c, 1, 74, 96
1, 37628, Note_on_c, 1, 60, 96
1, 37628, Note_on_c, 1, 36, 96
1, 37628, Note_on_c, 1, 48, 96
1, 37629, Note_off_c, 1, 60, 96
1, 37629, Note_off_c, 1, 36, 96
1, 37629, Note_off_c, 1, 48, 96
1, 37870, Note_on_c, 1, 65, 96
1, 37871, Note_off_c, 1, 65, 96
1, 37876, Note_on_c, 1, 41, 96
1, 37877, Note_off_c, 1, 41, 96
1, 38114, Note_on_c, 1, 57, 96
1, 38114, Note_on_c, 1, 62, 96
1, 38115, Note_off_c, 1, 57, 96
1, 38115, Note_off_c, 1, 62, 96
1, 38117, Note_on_c, 1, 69, 96
1, 38118, Note_off_c, 1, 69, 96
1, 38120, Note_on_c, 1, 60, 96
1, 38121, Note_off_c, 1, 60, 96
1, 38234, Note_on_c, 1, 53, 96
1, 38235, Note_off_c, 1, 53, 96
1, 38238, Note_on_c, 1, 50, 96
1, 38240, Note_off_c, 1, 50, 96
1, 38240, Note_on_c, 1, 57, 96
1, 38241, Note_off_c, 1, 57, 96
1, 38299, Note_on_c, 1, 82, 96
1, 38301, Note_off_c, 1, 82, 96
1, 38301, Note_on_c, 1, 75, 96
1, 38302, Note_off_c, 1, 75, 96
1, 38361, Note_on_c, 1, 77, 96
1, 38363, Note_off_c, 1, 77, 96
1, 38363, Note_on_c, 1, 63, 96
1, 38364, Note_off_c, 1, 63, 96
1, 38368, Note_on_c, 1, 57, 96
1, 38368, Note_on_c, 1, 53, 96
1, 38369, Note_off_c, 1, 57, 96
1, 38369, Note_off_c, 1, 53, 96
1, 38424, Note_on_c, 1, 77, 96
1, 38425, Note_off_c, 1, 77, 96
1, 38485, Note_on_c, 1, 41, 96
1, 38486, Note_off_c, 1, 41, 96
1, 38489, Note_on_c, 1, 72, 96
1, 38490, Note_off_c, 1, 72, 96
1, 38728, Note_on_c, 1, 62, 96
1, 38729, Note_off_c, 1, 62, 96
1, 38734, Note_on_c, 1, 53, 96
1, 38735, Note_off_c, 1, 53, 96
1, 38792, Note_on_c, 1, 69, 96
1, 38793, Note_off_c, 1, 69, 96
1, 38852, Note_on_c, 1, 62, 96
1, 38853, Note_off_c, 1, 62, 96
1, 38855, Note_on_c, 1, 57, 96
1, 38856, Note_off_c, 1, 57, 96
1, 38861, Note_on_c, 1, 71, 96
1, 38862, Note_off_c, 1, 71, 96
1, 38976, Note_on_c, 1, 64, 96
1, 38977, Note_off_c, 1, 64, 96
1, 38981, Note_on_c, 1, 48, 96
1, 38982, Note_off_c, 1, 48, 96
1, 38984, Note_on_c, 1, 70, 96
1, 38985, Note_off_c, 1, 70, 96
1, 39101, Note_on_c, 1, 55, 96
1, 39103, Note_off_c, 1, 55, 96
1, 39103, Note_on_c, 1, 60, 96
1, 39104, Note_off_c, 1, 60, 96
1, 39107, Note_on_c, 1, 64, 96
1, 39107, Note_on_c, 1, 67, 96
1, 39108, Note_off_c, 1, 64, 96
1, 39108, Note_off_c, 1, 67, 96
1, 39225, Note_on_c, 1, 64, 96
1, 39226, Note_off_c, 1, 64, 96
1, 39341, Note_on_c, 1, 48, 96
1, 39342, Note_off_c, 1, 48, 96
1, 39345, Note_on_c, 1, 66, 96
1, 39346, Note_off_c, 1, 66, 96
1, 39434, Note_on_c, 1, 52, 96
1, 39435, Note_off_c, 1, 52, 96
1, 39449, Note_on_c, 1, 64, 96
1, 39450, Note_off_c, 1, 64, 96
1, 39467, Note_on_c, 1, 64, 96
1, 39468, Note_off_c, 1, 64, 96
1, 39502, Note_on_c, 1, 69, 96
1, 39503, Note_off_c, 1, 69, 96
1, 39506, Note_on_c, 1, 53, 96
1, 39508, Note_off_c, 1, 53, 96
1, 39508, Note_on_c, 1, 77, 96
1, 39509, Note_off_c, 1, 77, 96
1, 39565, Note_on_c, 1, 77, 96
1, 39566, Note_off_c, 1, 77, 96
1, 39568, Note_on_c, 1, 75, 96
1, 39569, Note_off_c, 1, 75, 96
1, 39603, Note_on_c, 1, 36, 96
1, 39604, Note_off_c, 1, 36, 96
1, 39695, Note_on_c, 1, 63, 96
1, 39697, Note_off_c, 1, 63, 96
1, 39697, Note_on_c, 1, 60, 96
1, 39698, Note_off_c, 1, 60, 96
1, 39700, Note_on_c, 1, 53, 96
1, 39701, Note_off_c, 1, 53, 96
1, 39756, Note_on_c, 1, 60, 96
1, 39757, Note_off_c, 1, 60, 96
1, 39761, Note_on_c, 1, 48, 96
1, 39762, Note_off_c, 1, 48, 96
1, 39874, Note_on_c, 1, 57, 96
1, 39876, Note_off_c, 1, 57, 96
1, 39876, Note_on_c, 1, 60, 96
1, 39877, Note_off_c, 1, 60, 96
1, 39881, Note_on_c, 1, 69, 96
1, 39882, Note_off_c, 1, 69, 96
1, 39884, Note_on_c, 1, 65, 96
1, 39885, Note_off_c, 1, 65, 96
1, 40117, Note_on_c, 1, 72, 96
1, 40118, Note_off_c, 1, 72, 96
1, 40120, Note_on_c, 1, 65, 96
1, 40122, Note_off_c, 1, 65, 96
1, 40122, Note_on_c, 1, 68, 96
1, 40123, Note_off_c, 1, 68, 96
1, 40236, Note_on_c, 1, 60, 96
1, 40238, Note_off_c, 1, 60, 96
1, 40238, Note_on_c, 1, 57, 96
1, 40239, Note_off_c, 1, 57, 96
1, 40353, Note_on_c, 1, 72, 96
1, 40354, Note_off_c, 1, 72, 96
1, 40477, Note_on_c, 1, 74, 96
1, 40477, Note_on_c, 1, 41, 96
1, 40478, Note_off_c, 1, 74, 96
1, 40478, Note_off_c, 1, 41, 96
1, 40481, Note_on_c, 1, 69, 96
1, 40482, Note_off_c, 1, 69, 96
1, 40598, Note_on_c, 1, 67, 96
1, 40599, Note_off_c, 1, 67, 96
1, 40604, Note_on_c, 1, 80, 96
1, 40606, Note_off_c, 1, 80, 96
1, 40606, Note_on_c, 1, 46, 96
1, 40608, Note_off_c, 1, 46, 96
1, 40608, Note_on_c, 1, 74, 96
1, 40609, Note_off_c, 1, 74, 96
1, 40664, Note_on_c, 1, 84, 96
1, 40665, Note_off_c, 1, 84, 96
1, 40669, Note_on_c, 1, 72, 96
1, 40670, Note_off_c, 1, 72, 96
1, 40728, Note_on_c, 1, 70, 96
1, 40728, Note_on_c, 1, 82, 96
1, 40728, Note_on_c, 1, 75, 96
1, 40728, Note_on_c, 1, 46, 96
1, 40730, Note_off_c, 1, 70, 96
1, 40730, Note_off_c, 1, 82, 96
1, 40730, Note_off_c, 1, 75, 96
1, 40730, Note_off_c, 1, 46, 96
1, 40730, Note_on_c, 1, 79, 96
1, 40732, Note_off_c, 1, 79, 96
1, 40732, Note_on_c, 1, 34, 96
1, 40733, Note_off_c, 1, 34, 96
1, 40969, Note_on_c, 1, 77, 96
1, 40969, Note_on_c, 1, 55, 96
1, 40970, Note_off_c, 1, 77, 96
1, 40970, Note_off_c, 1, 55, 96
1, 40974, Note_on_c, 1, 79, 96
1, 40977, Note_off_c, 1, 79, 96
1, 40977, Note_on_c, 1, 52, 96
1, 40977, Note_on_c, 1, 62, 96
1, 40979, Note_off_c, 1, 52, 96
1, 40979, Note_off_c, 1, 62, 96
1, 40979, Note_on_c, 1, 59, 96
1, 40980, Note_off_c, 1, 59, 96
1, 41089, Note_on_c, 1, 72, 96
1, 41090, Note_off_c, 1, 72, 96
1, 41209, Note_on_c, 1, 43, 96
1, 41210, Note_off_c, 1, 43, 96
1, 41214, Note_on_c, 1, 77, 96
1, 41215, Note_off_c, 1, 77, 96
1, 41329, Note_on_c, 1, 72, 96
1, 41330, Note_off_c, 1, 72, 96
1, 41336, Note_on_c, 1, 60, 96
1, 41336, Note_on_c, 1, 64, 96
1, 41337, Note_off_c, 1, 60, 96
1, 41337, Note_off_c, 1, 64, 96
1, 41340, Note_on_c, 1, 67, 96
1, 41340, Note_on_c, 1, 48, 96
1, 41341, Note_off_c, 1, 67, 96
1, 41341, Note_off_c, 1, 48, 96
1, 41453, Note_on_c, 1, 79, 96
1, 41454, Note_off_c, 1, 79, 96
1, 41459, Note_on_c, 1, 72, 96
1, 41459, Note_on_c, 1, 60, 96
1, 41459, Note_on_c, 1, 52, 96
1, 41461, Note_off_c, 1, 72, 96
1, 41461, Note_off_c, 1, 60, 96
1, 41461, Note_off_c, 1, 52, 96
1, 41461, Note_on_c, 1, 55, 96
1, 41462, Note_off_c, 1, 55, 96
1, 41576, Note_on_c, 1, 74, 96
1, 41576, Note_on_c, 1, 43, 96
1, 41577, Note_off_c, 1, 74, 96
1, 41577, Note_off_c, 1, 43, 96
1, 41701, Note_on_c, 1, 60, 96
1, 41704, Note_off_c, 1, 60, 96
1, 41704, Note_on_c, 1, 72, 96
1, 41704, Note_on_c, 1, 55, 96
1, 41705, Note_off_c, 1, 72, 96
1, 41705, Note_off_c, 1, 55, 96
1, 41708, Note_on_c, 1, 64, 96
1, 41709, Note_off_c, 1, 64, 96
1, 41824, Note_on_c, 1, 48, 96
1, 41825, Note_off_c, 1, 48, 96
1, 41828, Note_on_c, 1, 72, 96
1, 41830, Note_off_c, 1, 72, 96
1, 41830, Note_on_c, 1, 60, 96
1, 41831, Note_off_c, 1, 60, 96
1, 41889, Note_on_c, 1, 69, 96
1, 41890, Note_off_c, 1, 69, 96
1, 41948, Note_on_c, 1, 76, 96
1, 41949, Note_off_c, 1, 76, 96
1, 41954, Note_on_c, 1, 64, 96
1, 41954, Note_on_c, 1, 60, 96
1, 41955, Note_off_c, 1, 64, 96
1, 41955, Note_off_c, 1, 60, 96
1, 41957, Note_on_c, 1, 55, 96
1, 41958, Note_off_c, 1, 55, 96
1, 42016, Note_on_c, 1, 74, 96
1, 42017, Note_off_c, 1, 74, 96
1, 42073, Note_on_c, 1, 43, 96
1, 42074, Note_off_c, 1, 43, 96
1, 42078, Note_on_c, 1, 79, 96
1, 42079, Note_off_c, 1, 79, 96
1, 42194, Note_on_c, 1, 64, 96
1, 42196, Note_off_c, 1, 64, 96
1, 42196, Note_on_c, 1, 60, 96
1, 42197, Note_off_c, 1, 60, 96
1, 42199, Note_on_c, 1, 72, 96
1, 42202, Note_off_c, 1, 72, 96
1, 42202, Note_on_c, 1, 74, 96
1, 42202, Note_on_c, 1, 55, 96
1, 42203, Note_off_c, 1, 74, 96
1, 42203, Note_off_c, 1, 55, 96
1, 42441, Note_on_c, 1, 55, 96
1, 42441, Note_on_c, 1, 52, 96
1, 42442, Note_off_c, 1, 55, 96
1, 42442, Note_off_c, 1, 52, 96
1, 42444, Note_on_c, 1, 60, 96
1, 42445, Note_off_c, 1, 60, 96
1, 42622, Note_on_c, 1, 76, 96
1, 42623, Note_off_c, 1, 76, 96
1, 42747, Note_on_c, 1, 76, 96
1, 42748, Note_off_c, 1, 76, 96
1, 42862, Note_on_c, 1, 76, 96
1, 42864, Note_off_c, 1, 76, 96
1, 42864, Note_on_c, 1, 60, 96
1, 42865, Note_off_c, 1, 60, 96
1, 42869, Note_on_c, 1, 64, 96
1, 42869, Note_on_c, 1, 57, 96
1, 42870, Note_off_c, 1, 64, 96
1, 42870, Note_off_c, 1, 57, 96
1, 42930, Note_on_c, 1, 77, 96
1, 42931, Note_off_c, 1, 77, 96
1, 42993, Note_on_c, 1, 79, 96
1, 42994, Note_off_c, 1, 79, 96
1, 42996, Note_on_c, 1, 48, 96
1, 42997, Note_off_c, 1, 48, 96
1, 43053, Note_on_c, 1, 74, 96
1, 43054, Note_off_c, 1, 74, 96
1, 43113, Note_on_c, 1, 77, 96
1, 43115, Note_off_c, 1, 77, 96
1, 43115, Note_on_c, 1, 60, 96
1, 43116, Note_off_c, 1, 60, 96
1, 43119, Note_on_c, 1, 57, 96
1, 43121, Note_off_c, 1, 57, 96
1, 43121, Note_on_c, 1, 65, 96
1, 43122, Note_off_c, 1, 65, 96
1, 43242, Note_on_c, 1, 60, 96
1, 43243, Note_off_c, 1, 60, 96
1, 43247, Note_on_c, 1, 74, 96
1, 43247, Note_on_c, 1, 57, 96
1, 43248, Note_off_c, 1, 74, 96
1, 43248, Note_off_c, 1, 57, 96
1, 43370, Note_on_c, 1, 72, 96
1, 43370, Note_on_c, 1, 60, 96
1, 43370, Note_on_c, 1, 57, 96
1, 43371, Note_off_c, 1, 72, 96
1, 43371, Note_off_c, 1, 60, 96
1, 43371, Note_off_c, 1, 57, 96
1, 43488, Note_on_c, 1, 46, 96
1, 43489, Note_off_c, 1, 46, 96
1, 43493, Note_on_c, 1, 70, 96
1, 43493, Note_on_c, 1, 74, 96
1, 43493, Note_on_c, 1, 67, 96
1, 43494, Note_off_c, 1, 70, 96
1, 43494, Note_off_c, 1, 74, 96
1, 43494, Note_off_c, 1, 67, 96
1, 43610, Note_on_c, 1, 82, 96
1, 43611, Note_off_c, 1, 82, 96
1, 43616, Note_on_c, 1, 70, 96
1, 43617, Note_off_c, 1, 70, 96
1, 43734, Note_on_c, 1, 70, 96
1, 43734, Note_on_c, 1, 55, 96
1, 43735, Note_off_c, 1, 70, 96
1, 43735, Note_off_c, 1, 55, 96
1, 43737, Note_on_c, 1, 76, 96
1, 43738, Note_off_c, 1, 76, 96
1, 43740, Note_on_c, 1, 43, 96
1, 43741, Note_off_c, 1, 43, 96
1, 43856, Note_on_c, 1, 64, 96
1, 43856, Note_on_c, 1, 52, 96
1, 43857, Note_off_c, 1, 64, 96
1, 43857, Note_off_c, 1, 52, 96
1, 43861, Note_on_c, 1, 64, 96
1, 43861, Note_on_c, 1, 67, 96
1, 43863, Note_off_c, 1, 64, 96
1, 43863, Note_off_c, 1, 67, 96
1, 43863, Note_on_c, 1, 58, 96
1, 43864, Note_off_c, 1, 58, 96
1, 43867, Note_on_c, 1, 76, 96
1, 43869, Note_off_c, 1, 76, 96
1, 43869, Note_on_c, 1, 60, 96
1, 43870, Note_off_c, 1, 60, 96
1, 44101, Note_on_c, 1, 55, 96
1, 44103, Note_off_c, 1, 55, 96
1, 44103, Note_on_c, 1, 76, 96
1, 44105, Note_off_c, 1, 76, 96
1, 44105, Note_on_c, 1, 64, 96
1, 44106, Note_off_c, 1, 64, 96
1, 44108, Note_on_c, 1, 79, 96
1, 44110, Note_off_c, 1, 79, 96
1, 44110, Note_on_c, 1, 60, 96
1, 44111, Note_off_c, 1, 60, 96
1, 44113, Note_on_c, 1, 72, 96
1, 44114, Note_off_c, 1, 72, 96
1, 44230, Note_on_c, 1, 57, 96
1, 44231, Note_off_c, 1, 57, 96
1, 44235, Note_on_c, 1, 45, 96
1, 44236, Note_off_c, 1, 45, 96
1, 44348, Note_on_c, 1, 71, 96
1, 44349, Note_off_c, 1, 71, 96
1, 44471, Note_on_c, 1, 50, 96
1, 44472, Note_off_c, 1, 50, 96
1, 44711, Note_on_c, 1, 60, 96
1, 44713, Note_off_c, 1, 60, 96
1, 44713, Note_on_c, 1, 52, 96
1, 44715, Note_off_c, 1, 52, 96
1, 44715, Note_on_c, 1, 57, 96
1, 44716, Note_off_c, 1, 57, 96
1, 44949, Note_on_c, 1, 56, 96
1, 44951, Note_off_c, 1, 56, 96
1, 44951, Note_on_c, 1, 44, 96
1, 44953, Note_off_c, 1, 44, 96
1, 44953, Note_on_c, 1, 62, 96
1, 44954, Note_off_c, 1, 62, 96
1, 45070, Note_on_c, 1, 62, 96
1, 45072, Note_off_c, 1, 62, 96
1, 45072, Note_on_c, 1, 64, 96
1, 45073, Note_off_c, 1, 64, 96
1, 45078, Note_on_c, 1, 59, 96
1, 45079, Note_off_c, 1, 59, 96
1, 45193, Note_on_c, 1, 70, 96
1, 45195, Note_off_c, 1, 70, 96
1, 45195, Note_on_c, 1, 66, 96
1, 45196, Note_off_c, 1, 66, 96
1, 45313, Note_on_c, 1, 64, 96
1, 45313, Note_on_c, 1, 50, 96
1, 45314, Note_off_c, 1, 64, 96
1, 45314, Note_off_c, 1, 50, 96
1, 45317, Note_on_c, 1, 67, 96
1, 45317, Note_on_c, 1, 55, 96
1, 45318, Note_off_c, 1, 67, 96
1, 45318, Note_off_c, 1, 55, 96
1, 45320, Note_on_c, 1, 59, 96
1, 45321, Note_off_c, 1, 59, 96
1, 45495, Note_on_c, 1, 43, 96
1, 45496, Note_off_c, 1, 43, 96
1, 45500, Note_on_c, 1, 59, 96
1, 45500, Note_on_c, 1, 65, 96
1, 45500, Note_on_c, 1, 55, 96
1, 45501, Note_off_c, 1, 59, 96
1, 45501, Note_off_c, 1, 65, 96
1, 45501, Note_off_c, 1, 55, 96
1, 45506, Note_on_c, 1, 67, 96
1, 45507, Note_off_c, 1, 67, 96
1, 45620, Note_on_c, 1, 45, 96
1, 45621, Note_off_c, 1, 45, 96
1, 45625, Note_on_c, 1, 65, 96
1, 45626, Note_off_c, 1, 65, 96
1, 45740, Note_on_c, 1, 67, 96
1, 45743, Note_off_c, 1, 67, 96
1, 45743, Note_on_c, 1, 49, 96
1, 45743, Note_on_c, 1, 61, 96
1, 45744, Note_off_c, 1, 49, 96
1, 45744, Note_off_c, 1, 61, 96
1, 45750, Note_on_c, 1, 65, 96
1, 45751, Note_off_c, 1, 65, 96
1, 45804, Note_on_c, 1, 68, 96
1, 45805, Note_off_c, 1, 68, 96
1, 45874, Note_on_c, 1, 66, 96
1, 45874, Note_on_c, 1, 74, 96
1, 45874, Note_on_c, 1, 50, 96
1, 45874, Note_on_c, 1, 38, 96
1, 45875, Note_off_c, 1, 66, 96
1, 45875, Note_off_c, 1, 74, 96
1, 45875, Note_off_c, 1, 50, 96
1, 45875, Note_off_c, 1, 38, 96
1, 45935, Note_on_c, 1, 66, 96
1, 45935, Note_on_c, 1, 45, 96
1, 45936, Note_off_c, 1, 66, 96
1, 45936, Note_off_c, 1, 45, 96
1, 45938, Note_on_c, 1, 74, 96
1, 45939, Note_off_c, 1, 74, 96
1, 46053, Note_on_c, 1, 38, 96
1, 46054, Note_off_c, 1, 38, 96
1, 46060, Note_on_c, 1, 72, 96
1, 46061, Note_off_c, 1, 72, 96
1, 46179, Note_on_c, 1, 69, 96
1, 46179, Note_on_c, 1, 54, 96
1, 46180, Note_off_c, 1, 69, 96
1, 46180, Note_off_c, 1, 54, 96
1, 46182, Note_on_c, 1, 42, 96
1, 46183, Note_off_c, 1, 42, 96
1, 46187, Note_on_c, 1, 54, 96
1, 46188, Note_off_c, 1, 54, 96
1, 46302, Note_on_c, 1, 33, 96
1, 46303, Note_off_c, 1, 33, 96
1, 46305, Note_on_c, 1, 45, 96
1, 46306, Note_off_c, 1, 45, 96
1, 46424, Note_on_c, 1, 64, 96
1, 46425, Note_off_c, 1, 64, 96
1, 46427, Note_on_c, 1, 60, 96
1, 46428, Note_off_c, 1, 60, 96
1, 46430, Note_on_c, 1, 72, 96
1, 46431, Note_off_c, 1, 72, 96
1, 46547, Note_on_c, 1, 66, 96
1, 46548, Note_off_c, 1, 66, 96
1, 46665, Note_on_c, 1, 60, 96
1, 46665, Note_on_c, 1, 57, 96
1, 46666, Note_off_c, 1, 60, 96
1, 46666, Note_off_c, 1, 57, 96
1, 46669, Note_on_c, 1, 66, 96
1, 46670, Note_off_c, 1, 66, 96
1, 46796, Note_on_c, 1, 66, 96
1, 46797, Note_off_c, 1, 66, 96
1, 46908, Note_on_c, 1, 43, 96
1, 46909, Note_off_c, 1, 43, 96
1, 46914, Note_on_c, 1, 62, 96
1, 46915, Note_off_c, 1, 62, 96
1, 46918, Note_on_c, 1, 50, 96
1, 46920, Note_off_c, 1, 50, 96
1, 46920, Note_on_c, 1, 59, 96
1, 46921, Note_off_c, 1, 59, 96
1, 47032, Note_on_c, 1, 66, 96
1, 47033, Note_off_c, 1, 66, 96
1, 47153, Note_on_c, 1, 59, 96
1, 47154, Note_off_c, 1, 59, 96
1, 47156, Note_on_c, 1, 67, 96
1, 47157, Note_off_c, 1, 67, 96
1, 47159, Note_on_c, 1, 55, 96
1, 47160, Note_off_c, 1, 55, 96
1, 47339, Note_on_c, 1, 66, 96
1, 47340, Note_off_c, 1, 66, 96
1, 47345, Note_on_c, 1, 66, 96
1, 47346, Note_off_c, 1, 66, 96
1, 47404, Note_on_c, 1, 67, 96
1, 47405, Note_off_c, 1, 67, 96
1, 47522, Note_on_c, 1, 59, 96
1, 47522, Note_on_c, 1, 55, 96
1, 47523, Note_off_c, 1, 59, 96
1, 47523, Note_off_c, 1, 55, 96
1, 47525, Note_on_c, 1, 65, 96
1, 47527, Note_off_c, 1, 65, 96
1, 47527, Note_on_c, 1, 71, 96
1, 47528, Note_off_c, 1, 71, 96
1, 47646, Note_on_c, 1, 77, 96
1, 47647, Note_off_c, 1, 77, 96
1, 47650, Note_on_c, 1, 71, 96
1, 47651, Note_off_c, 1, 71, 96
1, 47654, Note_on_c, 1, 65, 96
1, 47655, Note_off_c, 1, 65, 96
1, 47737, Note_on_c, 1, 79, 96
1, 47738, Note_off_c, 1, 79, 96
1, 47767, Note_on_c, 1, 79, 96
1, 47768, Note_off_c, 1, 79, 96
1, 47770, Note_on_c, 1, 36, 96
1, 47771, Note_off_c, 1, 36, 96
1, 47773, Note_on_c, 1, 52, 96
1, 47774, Note_off_c, 1, 52, 96
1, 47886, Note_on_c, 1, 52, 96
1, 47887, Note_off_c, 1, 52, 96
1, 48006, Note_on_c, 1, 45, 96
1, 48007, Note_off_c, 1, 45, 96
1, 48009, Note_on_c, 1, 66, 96
1, 48010, Note_off_c, 1, 66, 96
1, 48012, Note_on_c, 1, 74, 96
1, 48015, Note_off_c, 1, 74, 96
1, 48015, Note_on_c, 1, 72, 96
1, 48015, Note_on_c, 1, 33, 96
1, 48016, Note_off_c, 1, 72, 96
1, 48016, Note_off_c, 1, 33, 96
1, 48249, Note_on_c, 1, 76, 96
1, 48251, Note_off_c, 1, 76, 96
1, 48251, Note_on_c, 1, 33, 96
1, 48252, Note_off_c, 1, 33, 96
1, 48254, Note_on_c, 1, 40, 96
1, 48255, Note_off_c, 1, 40, 96
1, 48257, Note_on_c, 1, 52, 96
1, 48258, Note_off_c, 1, 52, 96
1, 48501, Note_on_c, 1, 66, 96
1, 48502, Note_off_c, 1, 66, 96
1, 48619, Note_on_c, 1, 66, 96
1, 48620, Note_off_c, 1, 66, 96
1, 48625, Note_on_c, 1, 69, 96
1, 48625, Note_on_c, 1, 60, 96
1, 48626, Note_off_c, 1, 69, 96
1, 48626, Note_off_c, 1, 60, 96
1, 48629, Note_on_c, 1, 57, 96
1, 48630, Note_off_c, 1, 57, 96
1, 48689, Note_on_c, 1, 71, 96
1, 48690, Note_off_c, 1, 71, 96
1, 48744, Note_on_c, 1, 50, 96
1, 48745, Note_off_c, 1, 50, 96
1, 48747, Note_on_c, 1, 38, 96
1, 48749, Note_off_c, 1, 38, 96
1, 48749, Note_on_c, 1, 66, 96
1, 48750, Note_off_c, 1, 66, 96
1, 48811, Note_on_c, 1, 66, 96
1, 48812, Note_off_c, 1, 66, 96
1, 48868, Note_on_c, 1, 68, 96
1, 48870, Note_off_c, 1, 68, 96
1, 48870, Note_on_c, 1, 45, 96
1, 48871, Note_off_c, 1, 45, 96
1, 48874, Note_on_c, 1, 60, 96
1, 48875, Note_off_c, 1, 60, 96
1, 49109, Note_on_c, 1, 76, 96
1, 49111, Note_off_c, 1, 76, 96
1, 49111, Note_on_c, 1, 50, 96
1, 49114, Note_off_c, 1, 50, 96
1, 49114, Note_on_c, 1, 69, 96
1, 49114, Note_on_c, 1, 54, 96
1, 49115, Note_off_c, 1, 69, 96
1, 49115, Note_off_c, 1, 54, 96
1, 49120, Note_on_c, 1, 72, 96
1, 49120, Note_on_c, 1, 60, 96
1, 49121, Note_off_c, 1, 72, 96
1, 49121, Note_off_c, 1, 60, 96
1, 49354, Note_on_c, 1, 43, 96
1, 49355, Note_off_c, 1, 43, 96
1, 49598, Note_on_c, 1, 55, 96
1, 49599, Note_off_c, 1, 55, 96
1, 49601, Note_on_c, 1, 59, 96
1, 49602, Note_off_c, 1, 59, 96
1, 49604, Note_on_c, 1, 50, 96
1, 49605, Note_off_c, 1, 50, 96
1, 49722, Note_on_c, 1, 71, 96
1, 49724, Note_off_c, 1, 71, 96
1, 49724, Note_on_c, 1, 76, 96
1, 49725, Note_off_c, 1, 76, 96
1, 49842, Note_on_c, 1, 67, 96
1, 49844, Note_off_c, 1, 67, 96
1, 49844, Note_on_c, 1, 74, 96
1, 49846, Note_off_c, 1, 74, 96
1, 49846, Note_on_c, 1, 71, 96
1, 49847, Note_off_c, 1, 71, 96
1, 49849, Note_on_c, 1, 38, 96
1, 49850, Note_off_c, 1, 38, 96
1, 49968, Note_on_c, 1, 68, 96
1, 49968, Note_on_c, 1, 53, 96
1, 49968, Note_on_c, 1, 41, 96
1, 49970, Note_off_c, 1, 68, 96
1, 49970, Note_off_c, 1, 53, 96
1, 49970, Note_off_c, 1, 41, 96
1, 49970, Note_on_c, 1, 41, 96
1, 49971, Note_off_c, 1, 41, 96
1, 50088, Note_on_c, 1, 58, 96
1, 50089, Note_off_c, 1, 58, 96
1, 50094, Note_on_c, 1, 46, 96
1, 50095, Note_off_c, 1, 46, 96
1, 50098, Note_on_c, 1, 74, 96
1, 50099, Note_off_c, 1, 74, 96
1, 50213, Note_on_c, 1, 34, 96
1, 50215, Note_off_c, 1, 34, 96
1, 50215, Note_on_c, 1, 68, 96
1, 50216, Note_off_c, 1, 68, 96
1, 50220, Note_on_c, 1, 74, 96
1, 50220, Note_on_c, 1, 46, 96
1, 50221, Note_off_c, 1, 74, 96
1, 50221, Note_off_c, 1, 46, 96
1, 50334, Note_on_c, 1, 74, 96
1, 50335, Note_off_c, 1, 74, 96
1, 50339, Note_on_c, 1, 77, 96
1, 50339, Note_on_c, 1, 46, 96
1, 50339, Note_on_c, 1, 58, 96
1, 50340, Note_off_c, 1, 77, 96
1, 50340, Note_off_c, 1, 46, 96
1, 50340, Note_off_c, 1, 58, 96
1, 50401, Note_on_c, 1, 70, 96
1, 50403, Note_off_c, 1, 70, 96
1, 50403, Note_on_c, 1, 82, 96
1, 50404, Note_off_c, 1, 82, 96
1, 50463, Note_on_c, 1, 56, 96
1, 50466, Note_off_c, 1, 56, 96
1, 50466, Note_on_c, 1, 58, 96
1, 50466, Note_on_c, 1, 62, 96
1, 50467, Note_off_c, 1, 58, 96
1, 50467, Note_off_c, 1, 62, 96
1, 50529, Note_on_c, 1, 70, 96
1, 50530, Note_off_c, 1, 70, 96
1, 50586, Note_on_c, 1, 51, 96
1, 50588, Note_off_c, 1, 51, 96
1, 50588, Note_on_c, 1, 63, 96
1, 50590, Note_off_c, 1, 63, 96
1, 50590, Note_on_c, 1, 75, 96
1, 50591, Note_off_c, 1, 75, 96
1, 50593, Note_on_c, 1, 67, 96
1, 50594, Note_off_c, 1, 67, 96
1, 50707, Note_on_c, 1, 75, 96
1, 50708, Note_off_c, 1, 75, 96
1, 50710, Note_on_c, 1, 55, 96
1, 50711, Note_off_c, 1, 55, 96
1, 50714, Note_on_c, 1, 58, 96
1, 50715, Note_off_c, 1, 58, 96
1, 50717, Note_on_c, 1, 61, 96
1, 50718, Note_off_c, 1, 61, 96
1, 50720, Note_on_c, 1, 82, 96
1, 50721, Note_off_c, 1, 82, 96
1, 50774, Note_on_c, 1, 75, 96
1, 50775, Note_off_c, 1, 75, 96
1, 50832, Note_on_c, 1, 51, 96
1, 50833, Note_off_c, 1, 51, 96
1, 50835, Note_on_c, 1, 66, 96
1, 50837, Note_off_c, 1, 66, 96
1, 50837, Note_on_c, 1, 75, 96
1, 50838, Note_off_c, 1, 75, 96
1, 50840, Note_on_c, 1, 63, 96
1, 50841, Note_off_c, 1, 63, 96
1, 50903, Note_on_c, 1, 70, 96
1, 50904, Note_off_c, 1, 70, 96
1, 50959, Note_on_c, 1, 41, 96
1, 50960, Note_off_c, 1, 41, 96
1, 50965, Note_on_c, 1, 73, 96
1, 50965, Note_on_c, 1, 65, 96
1, 50967, Note_off_c, 1, 73, 96
1, 50967, Note_off_c, 1, 65, 96
1, 50967, Note_on_c, 1, 61, 96
1, 50968, Note_off_c, 1, 61, 96
1, 51030, Note_on_c, 1, 73, 96
1, 51031, Note_off_c, 1, 73, 96
1, 51086, Note_on_c, 1, 49, 96
1, 51088, Note_off_c, 1, 49, 96
1, 51088, Note_on_c, 1, 72, 96
1, 51089, Note_off_c, 1, 72, 96
1, 51093, Note_on_c, 1, 65, 96
1, 51094, Note_off_c, 1, 65, 96
1, 51096, Note_on_c, 1, 61, 96
1, 51097, Note_off_c, 1, 61, 96
1, 51210, Note_on_c, 1, 68, 96
1, 51213, Note_off_c, 1, 68, 96
1, 51213, Note_on_c, 1, 65, 96
1, 51213, Note_on_c, 1, 44, 96
1, 51214, Note_off_c, 1, 65, 96
1, 51214, Note_off_c, 1, 44, 96
1, 51217, Note_on_c, 1, 71, 96
1, 51218, Note_off_c, 1, 71, 96
1, 51272, Note_on_c, 1, 75, 96
1, 51273, Note_off_c, 1, 75, 96
1, 51333, Note_on_c, 1, 73, 96
1, 51335, Note_off_c, 1, 73, 96
1, 51335, Note_on_c, 1, 44, 96
1, 51337, Note_off_c, 1, 44, 96
1, 51337, Note_on_c, 1, 56, 96
1, 51338, Note_off_c, 1, 56, 96
1, 51457, Note_on_c, 1, 56, 96
1, 51459, Note_off_c, 1, 56, 96
1, 51459, Note_on_c, 1, 68, 96
1, 51461, Note_off_c, 1, 68, 96
1, 51461, Note_on_c, 1, 65, 96
1, 51464, Note_off_c, 1, 65, 96
1, 51464, Note_on_c, 1, 80, 96
1, 51464, Note_on_c, 1, 59, 96
1, 51466, Note_off_c, 1, 80, 96
1, 51466, Note_off_c, 1, 59, 96
1, 51466, Note_on_c, 1, 73, 96
1, 51467, Note_off_c, 1, 73, 96
1, 51588, Note_on_c, 1, 79, 96
1, 51591, Note_off_c, 1, 79, 96
1, 51591, Note_on_c, 1, 55, 96
1, 51591, Note_on_c, 1, 65, 96
1, 51593, Note_off_c, 1, 55, 96
1, 51593, Note_off_c, 1, 65, 96
1, 51593, Note_on_c, 1, 73, 96
1, 51594, Note_off_c, 1, 73, 96
1, 51598, Note_on_c, 1, 61, 96
1, 51599, Note_off_c, 1, 61, 96
1, 51713, Note_on_c, 1, 73, 96
1, 51716, Note_off_c, 1, 73, 96
1, 51716, Note_on_c, 1, 46, 96
1, 51716, Note_on_c, 1, 56, 96
1, 51717, Note_off_c, 1, 46, 96
1, 51717, Note_off_c, 1, 56, 96
1, 51719, Note_on_c, 1, 77, 96
1, 51722, Note_off_c, 1, 77, 96
1, 51722, Note_on_c, 1, 80, 96
1, 51722, Note_on_c, 1, 82, 96
1, 51723, Note_off_c, 1, 80, 96
1, 51723, Note_off_c, 1, 82, 96
1, 51778, Note_on_c, 1, 68, 96
1, 51779, Note_off_c, 1, 68, 96
1, 51786, Note_on_c, 1, 73, 96
1, 51786, Note_on_c, 1, 80, 96
1, 51787, Note_off_c, 1, 73, 96
1, 51787, Note_off_c, 1, 80, 96
1, 51842, Note_on_c, 1, 58, 96
1, 51846, Note_off_c, 1, 58, 96
1, 51846, Note_on_c, 1, 82, 96
1, 51846, Note_on_c, 1, 74, 96
1, 51846, Note_on_c, 1, 62, 96
1, 51847, Note_off_c, 1, 82, 96
1, 51847, Note_off_c, 1, 74, 96
1, 51847, Note_off_c, 1, 62, 96
1, 51850, Note_on_c, 1, 77, 96
1, 51850, Note_on_c, 1, 53, 96
1, 51851, Note_off_c, 1, 77, 96
1, 51851, Note_off_c, 1, 53, 96
1, 51910, Note_on_c, 1, 82, 96
1, 51912, Note_off_c, 1, 82, 96
1, 51912, Note_on_c, 1, 68, 96
1, 51915, Note_off_c, 1, 68, 96
1, 51915, Note_on_c, 1, 77, 96
1, 51915, Note_on_c, 1, 74, 96
1, 51916, Note_off_c, 1, 77, 96
1, 51916, Note_off_c, 1, 74, 96
1, 51975, Note_on_c, 1, 82, 96
1, 51975, Note_on_c, 1, 68, 96
1, 51975, Note_on_c, 1, 62, 96
1, 51975, Note_on_c, 1, 58, 96
1, 51976, Note_off_c, 1, 82, 96
1, 51976, Note_off_c, 1, 68, 96
1, 51976, Note_off_c, 1, 62, 96
1, 51976, Note_off_c, 1, 58, 96
1, 51979, Note_on_c, 1, 56, 96
1, 51981, Note_off_c, 1, 56, 96
1, 51981, Note_on_c, 1, 71, 96
1, 51982, Note_off_c, 1, 71, 96
1, 52097, Note_on_c, 1, 77, 96
1, 52099, Note_off_c, 1, 77, 96
1, 52099, Note_on_c, 1, 80, 96
1, 52100, Note_off_c, 1, 80, 96
1, 52102, Note_on_c, 1, 46, 96
1, 52103, Note_off_c, 1, 46, 96
1, 52105, Note_on_c, 1, 34, 96
1, 52106, Note_off_c, 1, 34, 96
1, 52166, Note_on_c, 1, 80, 96
1, 52167, Note_off_c, 1, 80, 96
1, 52224, Note_on_c, 1, 80, 96
1, 52226, Note_off_c, 1, 80, 96
1, 52226, Note_on_c, 1, 56, 96
1, 52229, Note_off_c, 1, 56, 96
1, 52229, Note_on_c, 1, 58, 96
1, 52229, Note_on_c, 1, 62, 96
1, 52230, Note_off_c, 1, 58, 96
1, 52230, Note_off_c, 1, 62, 96
1, 52294, Note_on_c, 1, 80, 96
1, 52295, Note_off_c, 1, 80, 96
1, 52351, Note_on_c, 1, 48, 96
1, 52353, Note_off_c, 1, 48, 96
1, 52353, Note_on_c, 1, 81, 96
1, 52354, Note_off_c, 1, 81, 96
1, 52418, Note_on_c, 1, 63, 96
1, 52420, Note_off_c, 1, 63, 96
1, 52420, Note_on_c, 1, 51, 96
1, 52422, Note_off_c, 1, 51, 96
1, 52422, Note_on_c, 1, 75, 96
1, 52423, Note_off_c, 1, 75, 96
1, 52480, Note_on_c, 1, 81, 96
1, 52481, Note_off_c, 1, 81, 96
1, 52483, Note_on_c, 1, 72, 96
1, 52484, Note_off_c, 1, 72, 96
1, 52539, Note_on_c, 1, 74, 96
1, 52540, Note_off_c, 1, 74, 96
1, 52542, Note_on_c, 1, 62, 96
1, 52543, Note_off_c, 1, 62, 96
1, 52549, Note_on_c, 1, 87, 96
1, 52550, Note_off_c, 1, 87, 96
1, 52604, Note_on_c, 1, 62, 96
1, 52604, Note_on_c, 1, 58, 96
1, 52605, Note_off_c, 1, 62, 96
1, 52605, Note_off_c, 1, 58, 96
1, 52608, Note_on_c, 1, 53, 96
1, 52609, Note_off_c, 1, 53, 96
1, 52667, Note_on_c, 1, 77, 96
1, 52668, Note_off_c, 1, 77, 96
1, 52671, Note_on_c, 1, 82, 96
1, 52672, Note_off_c, 1, 82, 96
1, 52728, Note_on_c, 1, 82, 96
1, 52729, Note_off_c, 1, 82, 96
1, 52791, Note_on_c, 1, 75, 96
1, 52792, Note_off_c, 1, 75, 96
1, 52850, Note_on_c, 1, 74, 96
1, 52850, Note_on_c, 1, 58, 96
1, 52852, Note_off_c, 1, 74, 96
1, 52852, Note_off_c, 1, 58, 96
1, 52852, Note_on_c, 1, 72, 96
1, 52853, Note_off_c, 1, 72, 96
1, 52856, Note_on_c, 1, 62, 96
1, 52856, Note_on_c, 1, 56, 96
1, 52857, Note_off_c, 1, 62, 96
1, 52857, Note_off_c, 1, 56, 96
1, 52917, Note_on_c, 1, 79, 96
1, 52918, Note_off_c, 1, 79, 96
1, 52921, Note_on_c, 1, 67, 96
1, 52922, Note_off_c, 1, 67, 96
1, 52977, Note_on_c, 1, 69, 96
1, 52978, Note_off_c, 1, 69, 96
1, 52980, Note_on_c, 1, 41, 96
1, 52981, Note_off_c, 1, 41, 96
1, 52984, Note_on_c, 1, 81, 96
1, 52985, Note_off_c, 1, 81, 96
1, 52987, Note_on_c, 1, 72, 96
1, 52989, Note_off_c, 1, 72, 96
1, 52989, Note_on_c, 1, 53, 96
1, 52990, Note_off_c, 1, 53, 96
1, 53103, Note_on_c, 1, 63, 96
1, 53105, Note_off_c, 1, 63, 96
1, 53105, Note_on_c, 1, 39, 96
1, 53107, Note_off_c, 1, 39, 96
1, 53107, Note_on_c, 1, 51, 96
1, 53108, Note_off_c, 1, 51, 96
1, 53227, Note_on_c, 1, 75, 96
1, 53227, Note_on_c, 1, 77, 96
1, 53227, Note_on_c, 1, 51, 96
1, 53228, Note_off_c, 1, 75, 96
1, 53228, Note_off_c, 1, 77, 96
1, 53228, Note_off_c, 1, 51, 96
1, 53287, Note_on_c, 1, 75, 96
1, 53288, Note_off_c, 1, 75, 96
1, 53350, Note_on_c, 1, 43, 96
1, 53351, Note_off_c, 1, 43, 96
1, 53356, Note_on_c, 1, 70, 96
1, 53356, Note_on_c, 1, 74, 96
1, 53356, Note_on_c, 1, 55, 96
1, 53357, Note_off_c, 1, 70, 96
1, 53357, Note_off_c, 1, 74, 96
1, 53357, Note_off_c, 1, 55, 96
1, 53411, Note_on_c, 1, 74, 96
1, 53412, Note_off_c, 1, 74, 96
1, 53473, Note_on_c, 1, 58, 96
1, 53474, Note_off_c, 1, 58, 96
1, 53479, Note_on_c, 1, 72, 96
1, 53479, Note_on_c, 1, 82, 96
1, 53479, Note_on_c, 1, 63, 96
1, 53479, Note_on_c, 1, 55, 96
1, 53480, Note_off_c, 1, 72, 96
1, 53480, Note_off_c, 1, 82, 96
1, 53480, Note_off_c, 1, 63, 96
1, 53480, Note_off_c, 1, 55, 96
1, 53541, Note_on_c, 1, 84, 96
1, 53543, Note_off_c, 1, 84, 96
1, 53543, Note_on_c, 1, 72, 96
1, 53544, Note_off_c, 1, 72, 96
1, 53602, Note_on_c, 1, 37, 96
1, 53603, Note_off_c, 1, 37, 96
1, 53607, Note_on_c, 1, 49, 96
1, 53608, Note_off_c, 1, 49, 96
1, 53669, Note_on_c, 1, 77, 96
1, 53670, Note_off_c, 1, 77, 96
1, 53726, Note_on_c, 1, 51, 96
1, 53727, Note_off_c, 1, 51, 96
1, 53731, Note_on_c, 1, 82, 96
1, 53733, Note_off_c, 1, 82, 96
1, 53733, Note_on_c, 1, 39, 96
1, 53734, Note_off_c, 1, 39, 96
1, 53792, Note_on_c, 1, 58, 96
1, 53793, Note_off_c, 1, 58, 96
1, 53795, Note_on_c, 1, 66, 96
1, 53796, Note_off_c, 1, 66, 96
1, 53799, Note_on_c, 1, 82, 96
1, 53799, Note_on_c, 1, 73, 96
1, 53800, Note_off_c, 1, 82, 96
1, 53800, Note_off_c, 1, 73, 96
1, 53912, Note_on_c, 1, 57, 96
1, 53914, Note_off_c, 1, 57, 96
1, 53914, Note_on_c, 1, 51, 96
1, 53915, Note_off_c, 1, 51, 96
1, 53917, Note_on_c, 1, 45, 96
1, 53919, Note_off_c, 1, 45, 96
1, 53919, Note_on_c, 1, 87, 96
1, 53921, Note_off_c, 1, 87, 96
1, 53921, Note_on_c, 1, 67, 96
1, 53922, Note_off_c, 1, 67, 96
1, 54033, Note_on_c, 1, 81, 96
1, 54034, Note_off_c, 1, 81, 96
1, 54097, Note_on_c, 1, 75, 96
1, 54098, Note_off_c, 1, 75, 96
1, 54218, Note_on_c, 1, 80, 96
1, 54218, Note_on_c, 1, 66, 96
1, 54218, Note_on_c, 1, 50, 96
1, 54219, Note_off_c, 1, 80, 96
1, 54219, Note_off_c, 1, 66, 96
1, 54219, Note_off_c, 1, 50, 96
1, 54340, Note_on_c, 1, 67, 96
1, 54343, Note_off_c, 1, 67, 96
1, 54343, Note_on_c, 1, 47, 96
1, 54343, Note_on_c, 1, 35, 96
1, 54344, Note_off_c, 1, 47, 96
1, 54344, Note_off_c, 1, 35, 96
1, 54463, Note_on_c, 1, 50, 96
1, 54465, Note_off_c, 1, 50, 96
1, 54465, Note_on_c, 1, 57, 96
1, 54466, Note_off_c, 1, 57, 96
1, 54469, Note_on_c, 1, 71, 96
1, 54470, Note_off_c, 1, 71, 96
1, 54474, Note_on_c, 1, 66, 96
1, 54474, Note_on_c, 1, 74, 96
1, 54474, Note_on_c, 1, 69, 96
1, 54475, Note_off_c, 1, 66, 96
1, 54475, Note_off_c, 1, 74, 96
1, 54475, Note_off_c, 1, 69, 96
1, 54591, Note_on_c, 1, 70, 96
1, 54592, Note_off_c, 1, 70, 96
1, 54712, Note_on_c, 1, 77, 96
1, 54712, Note_on_c, 1, 58, 96
1, 54713, Note_off_c, 1, 77, 96
1, 54713, Note_off_c, 1, 58, 96
1, 54717, Note_on_c, 1, 86, 96
1, 54720, Note_off_c, 1, 86, 96
1, 54720, Note_on_c, 1, 53, 96
1, 54720, Note_on_c, 1, 46, 96
1, 54721, Note_off_c, 1, 53, 96
1, 54721, Note_off_c, 1, 46, 96
1, 54833, Note_on_c, 1, 77, 96
1, 54835, Note_off_c, 1, 77, 96
1, 54835, Note_on_c, 1, 79, 96
1, 54837, Note_off_c, 1, 79, 96
1, 54837, Note_on_c, 1, 65, 96
1, 54838, Note_off_c, 1, 65, 96
1, 54842, Note_on_c, 1, 53, 96
1, 54845, Note_off_c, 1, 53, 96
1, 54845, Note_on_c, 1, 74, 96
1, 54845, Note_on_c, 1, 58, 96
1, 54847, Note_off_c, 1, 74, 96
1, 54847, Note_off_c, 1, 58, 96
1, 54847, Note_on_c, 1, 62, 96
1, 54848, Note_off_c, 1, 62, 96
1, 54963, Note_on_c, 1, 62, 96
1, 54965, Note_off_c, 1, 62, 96
1, 54965, Note_on_c, 1, 82, 96
1, 54967, Note_off_c, 1, 82, 96
1, 54967, Note_on_c, 1, 74, 96
1, 54968, Note_off_c, 1, 74, 96
1, 55031, Note_on_c, 1, 79, 96
1, 55032, Note_off_c, 1, 79, 96
1, 55088, Note_on_c, 1, 58, 96
1, 55090, Note_off_c, 1, 58, 96
1, 55090, Note_on_c, 1, 53, 96
1, 55091, Note_off_c, 1, 53, 96
1, 55095, Note_on_c, 1, 86, 96
1, 55095, Note_on_c, 1, 62, 96
1, 55097, Note_off_c, 1, 86, 96
1, 55097, Note_off_c, 1, 62, 96
1, 55097, Note_on_c, 1, 74, 96
1, 55098, Note_off_c, 1, 74, 96
1, 55156, Note_on_c, 1, 77, 96
1, 55157, Note_off_c, 1, 77, 96
1, 55216, Note_on_c, 1, 53, 96
1, 55216, Note_on_c, 1, 62, 96
1, 55217, Note_off_c, 1, 53, 96
1, 55217, Note_off_c, 1, 62, 96
1, 55220, Note_on_c, 1, 79, 96
1, 55222, Note_off_c, 1, 79, 96
1, 55222, Note_on_c, 1, 58, 96
1, 55223, Note_off_c, 1, 58, 96
1, 55401, Note_on_c, 1, 84, 96
1, 55402, Note_off_c, 1, 84, 96
1, 55407, Note_on_c, 1, 72, 96
1, 55408, Note_off_c, 1, 72, 96
1, 55460, Note_on_c, 1, 43, 96
1, 55461, Note_off_c, 1, 43, 96
1, 55466, Note_on_c, 1, 83, 96
1, 55466, Note_on_c, 1, 55, 96
1, 55467, Note_off_c, 1, 83, 96
1, 55467, Note_off_c, 1, 55, 96
1, 55578, Note_on_c, 1, 84, 96
1, 55579, Note_off_c, 1, 84, 96
1, 55585, Note_on_c, 1, 60, 96
1, 55586, Note_off_c, 1, 60, 96
1, 55589, Note_on_c, 1, 52, 96
1, 55590, Note_off_c, 1, 52, 96
1, 55593, Note_on_c, 1, 72, 96
1, 55593, Note_on_c, 1, 55, 96
1, 55594, Note_off_c, 1, 72, 96
1, 55594, Note_off_c, 1, 55, 96
1, 55765, Note_on_c, 1, 81, 96
1, 55766, Note_off_c, 1, 81, 96
1, 55888, Note_on_c, 1, 80, 96
1, 55889, Note_off_c, 1, 80, 96
1, 55893, Note_on_c, 1, 77, 96
1, 55896, Note_off_c, 1, 77, 96
1, 55896, Note_on_c, 1, 45, 96
1, 55896, Note_on_c, 1, 57, 96
1, 55897, Note_off_c, 1, 45, 96
1, 55897, Note_off_c, 1, 57, 96
1, 56014, Note_on_c, 1, 40, 96
1, 56016, Note_off_c, 1, 40, 96
1, 56016, Note_on_c, 1, 52, 96
1, 56017, Note_off_c, 1, 52, 96
1, 56132, Note_on_c, 1, 74, 96
1, 56134, Note_off_c, 1, 74, 96
1, 56134, Note_on_c, 1, 48, 96
1, 56135, Note_off_c, 1, 48, 96
1, 56139, Note_on_c, 1, 64, 96
1, 56140, Note_off_c, 1, 64, 96
1, 56253, Note_on_c, 1, 76, 96
1, 56254, Note_off_c, 1, 76, 96
1, 56373, Note_on_c, 1, 60, 96
1, 56374, Note_off_c, 1, 60, 96
1, 56378, Note_on_c, 1, 52, 96
1, 56378, Note_on_c, 1, 55, 96
1, 56380, Note_off_c, 1, 52, 96
1, 56380, Note_off_c, 1, 55, 96
1, 56380, Note_on_c, 1, 76, 96
1, 56381, Note_off_c, 1, 76, 96
1, 56560, Note_on_c, 1, 76, 96
1, 56561, Note_off_c, 1, 76, 96
1, 56619, Note_on_c, 1, 74, 96
1, 56619, Note_on_c, 1, 46, 96
1, 56620, Note_off_c, 1, 74, 96
1, 56620, Note_off_c, 1, 46, 96
1, 56678, Note_on_c, 1, 79, 96
1, 56679, Note_off_c, 1, 79, 96
1, 56744, Note_on_c, 1, 76, 96
1, 56744, Note_on_c, 1, 64, 96
1, 56744, Note_on_c, 1, 60, 96
1, 56747, Note_off_c, 1, 76, 96
1, 56747, Note_off_c, 1, 64, 96
1, 56747, Note_off_c, 1, 60, 96
1, 56747, Note_on_c, 1, 55, 96
1, 56747, Note_on_c, 1, 58, 96
1, 56748, Note_off_c, 1, 55, 96
1, 56748, Note_off_c, 1, 58, 96
1, 56804, Note_on_c, 1, 72, 96
1, 56805, Note_off_c, 1, 72, 96
1, 56865, Note_on_c, 1, 74, 96
1, 56865, Note_on_c, 1, 43, 96
1, 56866, Note_off_c, 1, 74, 96
1, 56866, Note_off_c, 1, 43, 96
1, 56926, Note_on_c, 1, 76, 96
1, 56927, Note_off_c, 1, 76, 96
1, 56986, Note_on_c, 1, 52, 96
1, 56987, Note_off_c, 1, 52, 96
1, 56989, Note_on_c, 1, 55, 96
1, 56991, Note_off_c, 1, 55, 96
1, 56991, Note_on_c, 1, 60, 96
1, 56992, Note_off_c, 1, 60, 96
1, 56994, Note_on_c, 1, 76, 96
1, 56995, Note_off_c, 1, 76, 96
1, 57052, Note_on_c, 1, 67, 96
1, 57054, Note_off_c, 1, 67, 96
1, 57054, Note_on_c, 1, 76, 96
1, 57055, Note_off_c, 1, 76, 96
1, 57113, Note_on_c, 1, 43, 96
1, 57114, Note_off_c, 1, 43, 96
1, 57116, Note_on_c, 1, 74, 96
1, 57117, Note_off_c, 1, 74, 96
1, 57120, Note_on_c, 1, 64, 96
1, 57121, Note_off_c, 1, 64, 96
1, 57177, Note_on_c, 1, 76, 96
1, 57178, Note_off_c, 1, 76, 96
1, 57238, Note_on_c, 1, 52, 96
1, 57240, Note_off_c, 1, 52, 96
1, 57240, Note_on_c, 1, 64, 96
1, 57242, Note_off_c, 1, 64, 96
1, 57242, Note_on_c, 1, 60, 96
1, 57244, Note_off_c, 1, 60, 96
1, 57244, Note_on_c, 1, 55, 96
1, 57245, Note_off_c, 1, 55, 96
1, 57300, Note_on_c, 1, 76, 96
1, 57301, Note_off_c, 1, 76, 96
1, 57361, Note_on_c, 1, 60, 96
1, 57363, Note_off_c, 1, 60, 96
1, 57363, Note_on_c, 1, 55, 96
1, 57364, Note_off_c, 1, 55, 96
1, 57368, Note_on_c, 1, 62, 96
1, 57369, Note_off_c, 1, 62, 96
1, 57372, Note_on_c, 1, 76, 96
1, 57373, Note_off_c, 1, 76, 96
1, 57434, Note_on_c, 1, 79, 96
1, 57435, Note_off_c, 1, 79, 96
1, 57494, Note_on_c, 1, 43, 96
1, 57495, Note_off_c, 1, 43, 96
1, 57498, Note_on_c, 1, 80, 96
1, 57499, Note_off_c, 1, 80, 96
1, 57619, Note_on_c, 1, 72, 96
1, 57619, Note_on_c, 1, 55, 96
1, 57621, Note_off_c, 1, 72, 96
1, 57621, Note_off_c, 1, 55, 96
1, 57621, Note_on_c, 1, 43, 96
1, 57623, Note_off_c, 1, 43, 96
1, 57623, Note_on_c, 1, 60, 96
1, 57625, Note_off_c, 1, 60, 96
1, 57625, Note_on_c, 1, 64, 96
1, 57626, Note_off_c, 1, 64, 96
1, 57739, Note_on_c, 1, 64, 96
1, 57741, Note_off_c, 1, 64, 96
1, 57741, Note_on_c, 1, 76, 96
1, 57743, Note_off_c, 1, 76, 96
1, 57743, Note_on_c, 1, 60, 96
1, 57744, Note_off_c, 1, 60, 96
1, 57746, Note_on_c, 1, 55, 96
1, 57747, Note_off_c, 1, 55, 96
1, 57864, Note_on_c, 1, 60, 96
1, 57865, Note_off_c, 1, 60, 96
1, 57869, Note_on_c, 1, 55, 96
1, 57870, Note_off_c, 1, 55, 96
1, 57874, Note_on_c, 1, 76, 96
1, 57874, Note_on_c, 1, 64, 96
1, 57875, Note_off_c, 1, 76, 96
1, 57875, Note_off_c, 1, 64, 96
1, 58104, Note_on_c, 1, 69, 96
1, 58106, Note_off_c, 1, 69, 96
1, 58106, Note_on_c, 1, 75, 96
1, 58107, Note_off_c, 1, 75, 96
1, 58112, Note_on_c, 1, 71, 96
1, 58113, Note_off_c, 1, 71, 96
1, 58226, Note_on_c, 1, 60, 96
1, 58228, Note_off_c, 1, 60, 96
1, 58228, Note_on_c, 1, 67, 96
1, 58229, Note_off_c, 1, 67, 96
1, 58233, Note_on_c, 1, 79, 96
1, 58233, Note_on_c, 1, 75, 96
1, 58233, Note_on_c, 1, 48, 96
1, 58234, Note_off_c, 1, 79, 96
1, 58234, Note_off_c, 1, 75, 96
1, 58234, Note_off_c, 1, 48, 96
1, 58236, Note_on_c, 1, 72, 96
1, 58237, Note_off_c, 1, 72, 96
1, 58352, Note_on_c, 1, 64, 96
1, 58353, Note_off_c, 1, 64, 96
1, 58356, Note_on_c, 1, 60, 96
1, 58357, Note_off_c, 1, 60, 96
1, 58359, Note_on_c, 1, 55, 96
1, 58360, Note_off_c, 1, 55, 96
1, 58416, Note_on_c, 1, 76, 96
1, 58417, Note_off_c, 1, 76, 96
1, 58476, Note_on_c, 1, 60, 96
1, 58477, Note_off_c, 1, 60, 96
1, 58479, Note_on_c, 1, 64, 96
1, 58480, Note_off_c, 1, 64, 96
1, 58483, Note_on_c, 1, 74, 96
1, 58484, Note_off_c, 1, 74, 96
1, 58486, Note_on_c, 1, 55, 96
1, 58487, Note_off_c, 1, 55, 96
1, 58542, Note_on_c, 1, 76, 96
1, 58544, Note_off_c, 1, 76, 96
1, 58544, Note_on_c, 1, 72, 96
1, 58545, Note_off_c, 1, 72, 96
1, 58601, Note_on_c, 1, 60, 96
1, 58603, Note_off_c, 1, 60, 96
1, 58603, Note_on_c, 1, 76, 96
1, 58604, Note_off_c, 1, 76, 96
1, 58609, Note_on_c, 1, 55, 96
1, 58610, Note_off_c, 1, 55, 96
1, 58612, Note_on_c, 1, 64, 96
1, 58613, Note_off_c, 1, 64, 96
1, 58633, End_track
0, 0, End_of_file