0, 0, Header, 0, 1, 240
1, 0, Start_track
1, 0, Tempo, 555555
1, 3, Note_on_c, 1, 59, 96
1, 3, Note_on_c, 1, 53, 96
1, 3, Note_on_c, 1, 65, 96
1, 4, Note_off_c, 1, 59, 96
1, 4, Note_off_c, 1, 53, 96
1, 4, Note_off_c, 1, 65, 96
1, 56, Note_on_c, 1, 40, 96
1, 57, Note_off_c, 1, 40, 96
1, 63, Note_on_c, 1, 68, 96
1, 64, Note_off_c, 1, 68, 96
1, 97, Note_on_c, 1, 47, 96
1, 98, Note_off_c, 1, 47, 96
1, 156, Note_on_c, 1, 43, 96
1, 158, Note_off_c, 1, 43, 96
1, 158, Note_on_c, 1, 55, 96
1, 159, Note_off_c, 1, 55, 96
1, 262, Note_on_c, 1, 74, 96
1, 262, Note_on_c, 1, 43, 96
1, 263, Note_off_c, 1, 74, 96
1, 263, Note_off_c, 1, 43, 96
1, 313, Note_on_c, 1, 80, 96
1, 313, Note_on_c, 1, 75, 96
1, 313, Note_on_c, 1, 71, 96
1, 314, Note_off_c, 1, 80, 96
1, 314, Note_off_c, 1, 75, 96
1, 314, Note_off_c, 1, 71, 96
1, 333, Note_on_c, 1, 40, 96
1, 333, Note_on_c, 1, 52, 96
1, 334, Note_off_c, 1, 40, 96
1, 334, Note_off_c, 1, 52, 96
1, 372, Note_on_c, 1, 83, 96
1, 373, Note_off_c, 1, 83, 96
1, 376, Note_on_c, 1, 90, 96
1, 377, Note_off_c, 1, 90, 96
1, 380, Note_on_c, 1, 86, 96
1, 381, Note_off_c, 1, 86, 96
1, 383, Note_on_c, 1, 78, 96
1, 384, Note_off_c, 1, 78, 96
1, 401, Note_on_c, 1, 61, 96
1, 405, Note_off_c, 1, 61, 96
1, 405, Note_on_c, 1, 64, 96
1, 405, Note_on_c, 1, 57, 96
1, 405, Note_on_c, 1, 67, 96
1, 406, Note_off_c, 1, 64, 96
1, 406, Note_off_c, 1, 57, 96
1, 406, Note_off_c, 1, 67, 96
1, 567, Note_on_c, 1, 62, 96
1, 569, Note_off_c, 1, 62, 96
1, 569, Note_on_c, 1, 57, 96
1, 571, Note_off_c, 1, 57, 96
1, 571, Note_on_c, 1, 54, 96
1, 572, Note_off_c, 1, 54, 96
1, 689, Note_on_c, 1, 73, 96
1, 690, Note_off_c, 1, 73, 96
1, 692, Note_on_c, 1, 78, 96
1, 693, Note_off_c, 1, 78, 96
1, 811, Note_on_c, 1, 45, 96
1, 812, Note_off_c, 1, 45, 96
1, 872, Note_on_c, 1, 79, 96
1, 874, Note_off_c, 1, 79, 96
1, 874, Note_on_c, 1, 85, 96
1, 875, Note_off_c, 1, 85, 96
1, 878, Note_on_c, 1, 76, 96
1, 879, Note_off_c, 1, 76, 96
1, 935, Note_on_c, 1, 50, 96
1, 936, Note_off_c, 1, 50, 96
1, 939, Note_on_c, 1, 82, 96
1, 939, Note_on_c, 1, 89, 96
1, 942, Note_off_c, 1, 82, 96
1, 942, Note_off_c, 1, 89, 96
1, 942, Note_on_c, 1, 77, 96
1, 942, Note_on_c, 1, 38, 96
1, 943, Note_off_c, 1, 77, 96
1, 943, Note_off_c, 1, 38, 96
1, 1007, Note_on_c, 1, 79, 96
1, 1007, Note_on_c, 1, 71, 96
1, 1008, Note_off_c, 1, 79, 96
1, 1008, Note_off_c, 1, 71, 96
1, 1063, Note_on_c, 1, 55, 96
1, 1064, Note_off_c, 1, 55, 96
1, 1067, Note_on_c, 1, 59, 96
1, 1068, Note_off_c, 1, 59, 96
1, 1070, Note_on_c, 1, 50, 96
1, 1071, Note_off_c, 1, 50, 96
1, 1128, Note_on_c, 1, 79, 96
1, 1129, Note_off_c, 1, 79, 96
1, 1188, Note_on_c, 1, 83, 96
1, 1189, Note_off_c, 1, 83, 96
1, 1191, Note_on_c, 1, 77, 96
1, 1192, Note_off_c, 1, 77, 96
1, 1195, Note_on_c, 1, 55, 96
1, 1195, Note_on_c, 1, 43, 96
1, 1196, Note_off_c, 1, 55, 96
1, 1196, Note_off_c, 1, 43, 96
1, 1252, Note_on_c, 1, 86, 96
1, 1253, Note_off_c, 1, 86, 96
1, 1255, Note_on_c, 1, 74, 96
1, 1256, Note_off_c, 1, 74, 96
1, 1319, Note_on_c, 1, 43, 96
1, 1319, Note_on_c, 1, 55, 96
1, 1320, Note_off_c, 1, 43, 96
1, 1320, Note_off_c, 1, 55, 96
1, 1379, Note_on_c, 1, 83, 96
1, 1381, Note_off_c, 1, 83, 96
1, 1381, Note_on_c, 1, 71, 96
1, 1382, Note_off_c, 1, 71, 96
1, 1437, Note_on_c, 1, 77, 96
1, 1439, Note_off_c, 1, 77, 96
1, 1439, Note_on_c, 1, 77, 96
1, 1441, Note_off_c, 1, 77, 96
1, 1441, Note_on_c, 1, 55, 96
1, 1443, Note_off_c, 1, 55, 96
1, 1443, Note_on_c, 1, 80, 96
1, 1446, Note_off_c, 1, 80, 96
1, 1446, Note_on_c, 1, 88, 96
1, 1446, Note_on_c, 1, 43, 96
1, 1447, Note_off_c, 1, 88, 96
1, 1447, Note_off_c, 1, 43, 96
1, 1568, Note_on_c, 1, 74, 96
1, 1568, Note_on_c, 1, 86, 96
1, 1568, Note_on_c, 1, 47, 96
1, 1569, Note_off_c, 1, 74, 96
1, 1569, Note_off_c, 1, 86, 96
1, 1569, Note_off_c, 1, 47, 96
1, 1572, Note_on_c, 1, 76, 96
1, 1572, Note_on_c, 1, 71, 96
1, 1573, Note_off_c, 1, 76, 96
1, 1573, Note_off_c, 1, 71, 96
1, 1614, Note_on_c, 1, 53, 96
1, 1615, Note_off_c, 1, 53, 96
1, 1712, Note_on_c, 1, 73, 96
1, 1712, Note_on_c, 1, 70, 96
1, 1712, Note_on_c, 1, 67, 96
1, 1712, Note_on_c, 1, 64, 96
1, 1714, Note_off_c, 1, 73, 96
1, 1714, Note_off_c, 1, 70, 96
1, 1714, Note_off_c, 1, 67, 96
1, 1714, Note_off_c, 1, 64, 96
1, 1714, Note_on_c, 1, 85, 96
1, 1715, Note_off_c, 1, 85, 96
1, 1813, Note_on_c, 1, 75, 96
1, 1813, Note_on_c, 1, 84, 96
1, 1813, Note_on_c, 1, 81, 96
1, 1813, Note_on_c, 1, 87, 96
1, 1814, Note_off_c, 1, 75, 96
1, 1814, Note_off_c, 1, 84, 96
1, 1814, Note_off_c, 1, 81, 96
1, 1814, Note_off_c, 1, 87, 96
1, 1861, Note_on_c, 1, 1, 96
1, 1861, Note_on_c, 1, 53, 96
1, 1861, Note_on_c, 1, 79, 96
1, 1861, Note_on_c, 1, 81, 96
1, 1861, Note_on_c, 1, 63, 96
1, 1861, Note_on_c, 1, 67, 96
1, 1861, Note_on_c, 1, 69, 96
1, 1861, Note_on_c, 1, 75, 96
1, 1862, Note_off_c, 1, 1, 96
1, 1862, Note_off_c, 1, 53, 96
1, 1862, Note_off_c, 1, 79, 96
1, 1862, Note_off_c, 1, 81, 96
1, 1862, Note_off_c, 1, 63, 96
1, 1862, Note_off_c, 1, 67, 96
1, 1862, Note_off_c, 1, 69, 96
1, 1862, Note_off_c, 1, 75, 96
1, 1959, Note_on_c, 1, 48, 96
1, 1959, Note_on_c, 1, 36, 96
1, 1960, Note_off_c, 1, 48, 96
1, 1960, Note_off_c, 1, 36, 96
1, 2062, Note_on_c, 1, 86, 96
1, 2062, Note_on_c, 1, 74, 96
1, 2062, Note_on_c, 1, 77, 96
1, 2062, Note_on_c, 1, 58, 96
1, 2062, Note_on_c, 1, 53, 96
1, 2062, Note_on_c, 1, 62, 96
1, 2063, Note_off_c, 1, 86, 96
1, 2063, Note_off_c, 1, 74, 96
1, 2063, Note_off_c, 1, 77, 96
1, 2063, Note_off_c, 1, 58, 96
1, 2063, Note_off_c, 1, 53, 96
1, 2063, Note_off_c, 1, 62, 96
1, 2165, Note_on_c, 1, 77, 96
1, 2165, Note_on_c, 1, 86, 96
1, 2165, Note_on_c, 1, 74, 96
1, 2165, Note_on_c, 1, 82, 96
1, 2165, Note_on_c, 1, 65, 96
1, 2165, Note_on_c, 1, 62, 96
1, 2165, Note_on_c, 1, 58, 96
1, 2166, Note_off_c, 1, 77, 96
1, 2166, Note_off_c, 1, 86, 96
1, 2166, Note_off_c, 1, 74, 96
1, 2166, Note_off_c, 1, 82, 96
1, 2166, Note_off_c, 1, 65, 96
1, 2166, Note_off_c, 1, 62, 96
1, 2166, Note_off_c, 1, 58, 96
1, 2229, Note_on_c, 1, 76, 96
1, 2229, Note_on_c, 1, 88, 96
1, 2229, Note_on_c, 1, 52, 96
1, 2229, Note_on_c, 1, 43, 96
1, 2230, Note_off_c, 1, 76, 96
1, 2230, Note_off_c, 1, 88, 96
1, 2230, Note_off_c, 1, 52, 96
1, 2230, Note_off_c, 1, 43, 96
1, 2278, Note_on_c, 1, 86, 96
1, 2279, Note_off_c, 1, 86, 96
1, 2328, Note_on_c, 1, 82, 96
1, 2328, Note_on_c, 1, 48, 96
1, 2329, Note_off_c, 1, 82, 96
1, 2329, Note_off_c, 1, 48, 96
1, 2377, Note_on_c, 1, 79, 96
1, 2378, Note_off_c, 1, 79, 96
1, 2429, Note_on_c, 1, 79, 96
1, 2429, Note_on_c, 1, 58, 96
1, 2429, Note_on_c, 1, 60, 96
1, 2429, Note_on_c, 1, 64, 96
1, 2430, Note_off_c, 1, 79, 96
1, 2430, Note_off_c, 1, 58, 96
1, 2430, Note_off_c, 1, 60, 96
1, 2430, Note_off_c, 1, 64, 96
1, 2478, Note_on_c, 1, 67, 96
1, 2479, Note_off_c, 1, 67, 96
1, 2530, Note_on_c, 1, 68, 96
1, 2530, Note_on_c, 1, 74, 96
1, 2530, Note_on_c, 1, 38, 96
1, 2530, Note_on_c, 1, 50, 96
1, 2531, Note_off_c, 1, 68, 96
1, 2531, Note_off_c, 1, 74, 96
1, 2531, Note_off_c, 1, 38, 96
1, 2531, Note_off_c, 1, 50, 96
1, 2628, Note_on_c, 1, 71, 96
1, 2628, Note_on_c, 1, 65, 96
1, 2629, Note_off_c, 1, 71, 96
1, 2629, Note_off_c, 1, 65, 96
1, 2678, Note_on_c, 1, 46, 96
1, 2678, Note_on_c, 1, 34, 96
1, 2679, Note_off_c, 1, 46, 96
1, 2679, Note_off_c, 1, 34, 96
1, 2700, Note_on_c, 1, 73, 96
1, 2700, Note_on_c, 1, 65, 96
1, 2701, Note_off_c, 1, 73, 96
1, 2701, Note_off_c, 1, 65, 96
1, 2749, Note_on_c, 1, 38, 96
1, 2750, Note_off_c, 1, 38, 96
1, 2801, Note_on_c, 1, 65, 96
1, 2801, Note_on_c, 1, 72, 96
1, 2801, Note_on_c, 1, 50, 96
1, 2801, Note_on_c, 1, 62, 96
1, 2802, Note_off_c, 1, 65, 96
1, 2802, Note_off_c, 1, 72, 96
1, 2802, Note_off_c, 1, 50, 96
1, 2802, Note_off_c, 1, 62, 96
1, 2844, Note_on_c, 1, 79, 96
1, 2844, Note_on_c, 1, 82, 96
1, 2844, Note_on_c, 1, 74, 96
1, 2844, Note_on_c, 1, 70, 96
1, 2844, Note_on_c, 1, 65, 96
1, 2844, Note_on_c, 1, 65, 96
1, 2845, Note_off_c, 1, 79, 96
1, 2845, Note_off_c, 1, 82, 96
1, 2845, Note_off_c, 1, 74, 96
1, 2845, Note_off_c, 1, 70, 96
1, 2845, Note_off_c, 1, 65, 96
1, 2845, Note_off_c, 1, 65, 96
1, 2879, Note_on_c, 1, 58, 96
1, 2879, Note_on_c, 1, 62, 96
1, 2879, Note_on_c, 1, 65, 96
1, 2880, Note_off_c, 1, 58, 96
1, 2880, Note_off_c, 1, 62, 96
1, 2880, Note_off_c, 1, 65, 96
1, 2944, Note_on_c, 1, 79, 96
1, 2944, Note_on_c, 1, 74, 96
1, 2944, Note_on_c, 1, 39, 96
1, 2944, Note_on_c, 1, 27, 96
1, 2944, Note_on_c, 1, 66, 96
1, 2945, Note_off_c, 1, 79, 96
1, 2945, Note_off_c, 1, 74, 96
1, 2945, Note_off_c, 1, 39, 96
1, 2945, Note_off_c, 1, 27, 96
1, 2945, Note_off_c, 1, 66, 96
1, 3009, Note_on_c, 1, 82, 96
1, 3009, Note_on_c, 1, 70, 96
1, 3009, Note_on_c, 1, 75, 96
1, 3009, Note_on_c, 1, 48, 96
1, 3009, Note_on_c, 1, 36, 96
1, 3010, Note_off_c, 1, 82, 96
1, 3010, Note_off_c, 1, 70, 96
1, 3010, Note_off_c, 1, 75, 96
1, 3010, Note_off_c, 1, 48, 96
1, 3010, Note_off_c, 1, 36, 96
1, 3075, Note_on_c, 1, 87, 96
1, 3075, Note_on_c, 1, 75, 96
1, 3075, Note_on_c, 1, 78, 96
1, 3075, Note_on_c, 1, 82, 96
1, 3075, Note_on_c, 1, 39, 96
1, 3075, Note_on_c, 1, 51, 96
1, 3076, Note_off_c, 1, 87, 96
1, 3076, Note_off_c, 1, 75, 96
1, 3076, Note_off_c, 1, 78, 96
1, 3076, Note_off_c, 1, 82, 96
1, 3076, Note_off_c, 1, 39, 96
1, 3076, Note_off_c, 1, 51, 96
1, 3120, Note_on_c, 1, 80, 96
1, 3120, Note_on_c, 1, 74, 96
1, 3121, Note_off_c, 1, 80, 96
1, 3121, Note_off_c, 1, 74, 96
1, 3129, Note_on_c, 1, 80, 96
1, 3130, Note_off_c, 1, 80, 96
1, 3146, Note_on_c, 1, 68, 96
1, 3146, Note_on_c, 1, 89, 96
1, 3147, Note_off_c, 1, 68, 96
1, 3147, Note_off_c, 1, 89, 96
1, 3247, Note_on_c, 1, 84, 96
1, 3247, Note_on_c, 1, 87, 96
1, 3247, Note_on_c, 1, 56, 96
1, 3247, Note_on_c, 1, 60, 96
1, 3247, Note_on_c, 1, 65, 96
1, 3248, Note_off_c, 1, 84, 96
1, 3248, Note_off_c, 1, 87, 96
1, 3248, Note_off_c, 1, 56, 96
1, 3248, Note_off_c, 1, 60, 96
1, 3248, Note_off_c, 1, 65, 96
1, 3308, Note_on_c, 1, 84, 96
1, 3309, Note_off_c, 1, 84, 96
1, 3348, Note_on_c, 1, 72, 96
1, 3349, Note_off_c, 1, 72, 96
1, 3373, Note_on_c, 1, 59, 96
1, 3374, Note_off_c, 1, 59, 96
1, 3376, Note_on_c, 1, 65, 96
1, 3377, Note_off_c, 1, 65, 96
1, 3383, Note_on_c, 1, 77, 96
1, 3384, Note_off_c, 1, 77, 96
1, 3410, Note_on_c, 1, 57, 96
1, 3411, Note_off_c, 1, 57, 96
1, 3445, Note_on_c, 1, 65, 96
1, 3445, Note_on_c, 1, 68, 96
1, 3446, Note_off_c, 1, 65, 96
1, 3446, Note_off_c, 1, 68, 96
1, 3476, Note_on_c, 1, 80, 96
1, 3478, Note_off_c, 1, 80, 96
1, 3478, Note_on_c, 1, 59, 96
1, 3479, Note_off_c, 1, 59, 96
1, 3508, Note_on_c, 1, 51, 96
1, 3510, Note_off_c, 1, 51, 96
1, 3510, Note_on_c, 1, 39, 96
1, 3511, Note_off_c, 1, 39, 96
1, 3541, Note_on_c, 1, 75, 96
1, 3541, Note_on_c, 1, 63, 96
1, 3542, Note_off_c, 1, 75, 96
1, 3542, Note_off_c, 1, 63, 96
1, 3572, Note_on_c, 1, 72, 96
1, 3574, Note_off_c, 1, 72, 96
1, 3574, Note_on_c, 1, 60, 96
1, 3575, Note_off_c, 1, 60, 96
1, 3606, Note_on_c, 1, 65, 96
1, 3606, Note_on_c, 1, 53, 96
1, 3607, Note_off_c, 1, 65, 96
1, 3607, Note_off_c, 1, 53, 96
1, 3666, Note_on_c, 1, 68, 96
1, 3667, Note_off_c, 1, 68, 96
1, 3672, Note_on_c, 1, 74, 96
1, 3672, Note_on_c, 1, 77, 96
1, 3672, Note_on_c, 1, 47, 96
1, 3672, Note_on_c, 1, 59, 96
1, 3673, Note_off_c, 1, 74, 96
1, 3673, Note_off_c, 1, 77, 96
1, 3673, Note_off_c, 1, 47, 96
1, 3673, Note_off_c, 1, 59, 96
1, 3734, Note_on_c, 1, 58, 96
1, 3734, Note_on_c, 1, 46, 96
1, 3735, Note_off_c, 1, 58, 96
1, 3735, Note_off_c, 1, 46, 96
1, 3760, Note_on_c, 1, 34, 96
1, 3761, Note_off_c, 1, 34, 96
1, 3771, Note_on_c, 1, 46, 96
1, 3772, Note_off_c, 1, 46, 96
1, 3828, Note_on_c, 1, 56, 96
1, 3829, Note_off_c, 1, 56, 96
1, 3838, Note_on_c, 1, 48, 96
1, 3839, Note_off_c, 1, 48, 96
1, 3846, Note_on_c, 1, 48, 96
1, 3847, Note_off_c, 1, 48, 96
1, 3867, Note_on_c, 1, 63, 96
1, 3868, Note_off_c, 1, 63, 96
1, 3901, Note_on_c, 1, 66, 96
1, 3901, Note_on_c, 1, 49, 96
1, 3902, Note_off_c, 1, 66, 96
1, 3902, Note_off_c, 1, 49, 96
1, 3932, Note_on_c, 1, 38, 96
1, 3933, Note_off_c, 1, 38, 96
1, 3964, Note_on_c, 1, 58, 96
1, 3964, Note_on_c, 1, 46, 96
1, 3965, Note_off_c, 1, 58, 96
1, 3965, Note_off_c, 1, 46, 96
1, 3995, Note_on_c, 1, 66, 96
1, 3996, Note_off_c, 1, 66, 96
1, 4026, Note_on_c, 1, 58, 96
1, 4027, Note_off_c, 1, 58, 96
1, 4058, Note_on_c, 1, 67, 96
1, 4058, Note_on_c, 1, 58, 96
1, 4059, Note_off_c, 1, 67, 96
1, 4059, Note_off_c, 1, 58, 96
1, 4091, Note_on_c, 1, 63, 96
1, 4092, Note_off_c, 1, 63, 96
1, 4121, Note_on_c, 1, 61, 96
1, 4121, Note_on_c, 1, 64, 96
1, 4122, Note_off_c, 1, 61, 96
1, 4122, Note_off_c, 1, 64, 96
1, 4182, Note_on_c, 1, 72, 96
1, 4183, Note_off_c, 1, 72, 96
1, 4213, Note_on_c, 1, 46, 96
1, 4214, Note_off_c, 1, 46, 96
1, 4245, Note_on_c, 1, 57, 96
1, 4247, Note_off_c, 1, 57, 96
1, 4247, Note_on_c, 1, 60, 96
1, 4248, Note_off_c, 1, 60, 96
1, 4274, Note_on_c, 1, 65, 96
1, 4275, Note_off_c, 1, 65, 96
1, 4306, Note_on_c, 1, 66, 96
1, 4307, Note_off_c, 1, 66, 96
1, 4335, Note_on_c, 1, 43, 96
1, 4336, Note_off_c, 1, 43, 96
1, 4338, Note_on_c, 1, 67, 96
1, 4339, Note_off_c, 1, 67, 96
1, 4367, Note_on_c, 1, 63, 96
1, 4369, Note_off_c, 1, 63, 96
1, 4369, Note_on_c, 1, 59, 96
1, 4370, Note_off_c, 1, 59, 96
1, 4397, Note_on_c, 1, 57, 96
1, 4398, Note_off_c, 1, 57, 96
1, 4400, Note_on_c, 1, 59, 96
1, 4401, Note_off_c, 1, 59, 96
1, 4429, Note_on_c, 1, 54, 96
1, 4430, Note_off_c, 1, 54, 96
1, 4433, Note_on_c, 1, 63, 96
1, 4433, Note_on_c, 1, 57, 96
1, 4434, Note_off_c, 1, 63, 96
1, 4434, Note_off_c, 1, 57, 96
1, 4465, Note_on_c, 1, 64, 96
1, 4465, Note_on_c, 1, 60, 96
1, 4465, Note_on_c, 1, 59, 96
1, 4467, Note_off_c, 1, 64, 96
1, 4467, Note_off_c, 1, 60, 96
1, 4467, Note_off_c, 1, 59, 96
1, 4467, Note_on_c, 1, 39, 96
1, 4468, Note_off_c, 1, 39, 96
1, 4498, Note_on_c, 1, 69, 96
1, 4499, Note_off_c, 1, 69, 96
1, 4526, Note_on_c, 1, 58, 96
1, 4527, Note_off_c, 1, 58, 96
1, 4530, Note_on_c, 1, 67, 96
1, 4530, Note_on_c, 1, 55, 96
1, 4532, Note_off_c, 1, 67, 96
1, 4532, Note_off_c, 1, 55, 96
1, 4532, Note_on_c, 1, 62, 96
1, 4533, Note_off_c, 1, 62, 96
1, 4591, Note_on_c, 1, 70, 96
1, 4591, Note_on_c, 1, 58, 96
1, 4593, Note_off_c, 1, 70, 96
1, 4593, Note_off_c, 1, 58, 96
1, 4593, Note_on_c, 1, 55, 96
1, 4596, Note_off_c, 1, 55, 96
1, 4596, Note_on_c, 1, 67, 96
1, 4596, Note_on_c, 1, 62, 96
1, 4597, Note_off_c, 1, 67, 96
1, 4597, Note_off_c, 1, 62, 96
1, 4656, Note_on_c, 1, 41, 96
1, 4658, Note_off_c, 1, 41, 96
1, 4658, Note_on_c, 1, 53, 96
1, 4659, Note_off_c, 1, 53, 96
1, 4719, Note_on_c, 1, 61, 96
1, 4722, Note_off_c, 1, 61, 96
1, 4722, Note_on_c, 1, 67, 96
1, 4722, Note_on_c, 1, 58, 96
1, 4724, Note_off_c, 1, 67, 96
1, 4724, Note_off_c, 1, 58, 96
1, 4724, Note_on_c, 1, 52, 96
1, 4725, Note_off_c, 1, 52, 96
1, 4781, Note_on_c, 1, 70, 96
1, 4784, Note_off_c, 1, 70, 96
1, 4784, Note_on_c, 1, 64, 96
1, 4784, Note_on_c, 1, 43, 96
1, 4786, Note_off_c, 1, 64, 96
1, 4786, Note_off_c, 1, 43, 96
1, 4786, Note_on_c, 1, 73, 96
1, 4788, Note_off_c, 1, 73, 96
1, 4788, Note_on_c, 1, 52, 96
1, 4789, Note_off_c, 1, 52, 96
1, 4818, Note_on_c, 1, 69, 96
1, 4819, Note_off_c, 1, 69, 96
1, 4840, Note_on_c, 1, 67, 96
1, 4841, Note_off_c, 1, 67, 96
1, 4845, Note_on_c, 1, 61, 96
1, 4845, Note_on_c, 1, 55, 96
1, 4845, Note_on_c, 1, 52, 96
1, 4846, Note_off_c, 1, 61, 96
1, 4846, Note_off_c, 1, 55, 96
1, 4846, Note_off_c, 1, 52, 96
1, 4882, Note_on_c, 1, 64, 96
1, 4883, Note_off_c, 1, 64, 96
1, 4923, Note_on_c, 1, 47, 96
1, 4925, Note_off_c, 1, 47, 96
1, 4925, Note_on_c, 1, 62, 96
1, 4927, Note_off_c, 1, 62, 96
1, 4927, Note_on_c, 1, 64, 96
1, 4928, Note_off_c, 1, 64, 96
1, 4975, Note_on_c, 1, 55, 96
1, 4977, Note_off_c, 1, 55, 96
1, 4977, Note_on_c, 1, 55, 96
1, 4980, Note_off_c, 1, 55, 96
1, 4980, Note_on_c, 1, 64, 96
1, 4980, Note_on_c, 1, 59, 96
1, 4982, Note_off_c, 1, 64, 96
1, 4982, Note_off_c, 1, 59, 96
1, 4982, Note_on_c, 1, 55, 96
1, 4983, Note_off_c, 1, 55, 96
1, 5053, Note_on_c, 1, 65, 96
1, 5056, Note_off_c, 1, 65, 96
1, 5056, Note_on_c, 1, 59, 96
1, 5056, Note_on_c, 1, 62, 96
1, 5058, Note_off_c, 1, 59, 96
1, 5058, Note_off_c, 1, 62, 96
1, 5058, Note_on_c, 1, 53, 96
1, 5059, Note_off_c, 1, 53, 96
1, 5136, Note_on_c, 1, 65, 96
1, 5138, Note_off_c, 1, 65, 96
1, 5138, Note_on_c, 1, 53, 96
1, 5139, Note_off_c, 1, 53, 96
1, 5244, Note_on_c, 1, 58, 96
1, 5247, Note_off_c, 1, 58, 96
1, 5247, Note_on_c, 1, 52, 96
1, 5247, Note_on_c, 1, 64, 96
1, 5249, Note_off_c, 1, 52, 96
1, 5249, Note_off_c, 1, 64, 96
1, 5249, Note_on_c, 1, 48, 96
1, 5250, Note_off_c, 1, 48, 96
1, 5354, Note_on_c, 1, 60, 96
1, 5354, Note_on_c, 1, 66, 96
1, 5354, Note_on_c, 1, 63, 96
1, 5354, Note_on_c, 1, 57, 96
1, 5356, Note_off_c, 1, 60, 96
1, 5356, Note_off_c, 1, 66, 96
1, 5356, Note_off_c, 1, 63, 96
1, 5356, Note_off_c, 1, 57, 96
1, 5356, Note_on_c, 1, 60, 96
1, 5357, Note_off_c, 1, 60, 96
1, 5362, Note_on_c, 1, 45, 96
1, 5363, Note_off_c, 1, 45, 96
1, 5419, Note_on_c, 1, 69, 96
1, 5420, Note_off_c, 1, 69, 96
1, 5479, Note_on_c, 1, 74, 96
1, 5480, Note_off_c, 1, 74, 96
1, 5483, Note_on_c, 1, 60, 96
1, 5483, Note_on_c, 1, 50, 96
1, 5484, Note_off_c, 1, 60, 96
1, 5484, Note_off_c, 1, 50, 96
1, 5486, Note_on_c, 1, 54, 96
1, 5487, Note_off_c, 1, 54, 96
1, 5603, Note_on_c, 1, 50, 96
1, 5604, Note_off_c, 1, 50, 96
1, 5609, Note_on_c, 1, 74, 96
1, 5610, Note_off_c, 1, 74, 96
1, 5612, Note_on_c, 1, 38, 96
1, 5613, Note_off_c, 1, 38, 96
1, 5730, Note_on_c, 1, 45, 96
1, 5731, Note_off_c, 1, 45, 96
1, 5848, Note_on_c, 1, 60, 96
1, 5849, Note_off_c, 1, 60, 96
1, 5852, Note_on_c, 1, 65, 96
1, 5854, Note_off_c, 1, 65, 96
1, 5854, Note_on_c, 1, 72, 96
1, 5855, Note_off_c, 1, 72, 96
1, 5857, Note_on_c, 1, 48, 96
1, 5858, Note_off_c, 1, 48, 96
1, 5971, Note_on_c, 1, 57, 96
1, 5973, Note_off_c, 1, 57, 96
1, 5973, Note_on_c, 1, 68, 96
1, 5974, Note_off_c, 1, 68, 96
1, 5977, Note_on_c, 1, 62, 96
1, 5978, Note_off_c, 1, 62, 96
1, 5981, Note_on_c, 1, 65, 96
1, 5982, Note_off_c, 1, 65, 96
1, 6093, Note_on_c, 1, 57, 96
1, 6094, Note_off_c, 1, 57, 96
1, 6159, Note_on_c, 1, 57, 96
1, 6160, Note_off_c, 1, 57, 96
1, 6216, Note_on_c, 1, 62, 96
1, 6217, Note_off_c, 1, 62, 96
1, 6222, Note_on_c, 1, 71, 96
1, 6223, Note_off_c, 1, 71, 96
1, 6284, Note_on_c, 1, 60, 96
1, 6285, Note_off_c, 1, 60, 96
1, 6340, Note_on_c, 1, 59, 96
1, 6341, Note_off_c, 1, 59, 96
1, 6464, Note_on_c, 1, 60, 96
1, 6466, Note_off_c, 1, 60, 96
1, 6466, Note_on_c, 1, 48, 96
1, 6467, Note_off_c, 1, 48, 96
1, 6585, Note_on_c, 1, 66, 96
1, 6586, Note_off_c, 1, 66, 96
1, 6651, Note_on_c, 1, 74, 96
1, 6651, Note_on_c, 1, 65, 96
1, 6651, Note_on_c, 1, 62, 96
1, 6652, Note_off_c, 1, 74, 96
1, 6652, Note_off_c, 1, 65, 96
1, 6652, Note_off_c, 1, 62, 96
1, 6710, Note_on_c, 1, 41, 96
1, 6711, Note_off_c, 1, 41, 96
1, 6832, Note_on_c, 1, 46, 96
1, 6834, Note_off_c, 1, 46, 96
1, 6834, Note_on_c, 1, 34, 96
1, 6835, Note_off_c, 1, 34, 96
1, 6837, Note_on_c, 1, 63, 96
1, 6839, Note_off_c, 1, 63, 96
1, 6839, Note_on_c, 1, 46, 96
1, 6840, Note_off_c, 1, 46, 96
1, 6957, Note_on_c, 1, 46, 96
1, 6958, Note_off_c, 1, 46, 96
1, 7020, Note_on_c, 1, 57, 96
1, 7021, Note_off_c, 1, 57, 96
1, 7138, Note_on_c, 1, 56, 96
1, 7139, Note_off_c, 1, 56, 96
1, 7198, Note_on_c, 1, 55, 96
1, 7199, Note_off_c, 1, 55, 96
1, 7323, Note_on_c, 1, 73, 96
1, 7323, Note_on_c, 1, 67, 96
1, 7323, Note_on_c, 1, 58, 96
1, 7325, Note_off_c, 1, 73, 96
1, 7325, Note_off_c, 1, 67, 96
1, 7325, Note_off_c, 1, 58, 96
1, 7325, Note_on_c, 1, 61, 96
1, 7326, Note_off_c, 1, 61, 96
1, 7445, Note_on_c, 1, 69, 96
1, 7446, Note_off_c, 1, 69, 96
1, 7448, Note_on_c, 1, 67, 96
1, 7449, Note_off_c, 1, 67, 96
1, 7564, Note_on_c, 1, 45, 96
1, 7565, Note_off_c, 1, 45, 96
1, 7567, Note_on_c, 1, 66, 96
1, 7568, Note_off_c, 1, 66, 96
1, 7570, Note_on_c, 1, 72, 96
1, 7571, Note_off_c, 1, 72, 96
1, 7687, Note_on_c, 1, 59, 96
1, 7688, Note_off_c, 1, 59, 96
1, 7690, Note_on_c, 1, 66, 96
1, 7692, Note_off_c, 1, 66, 96
1, 7692, Note_on_c, 1, 45, 96
1, 7693, Note_off_c, 1, 45, 96
1, 7695, Note_on_c, 1, 57, 96
1, 7696, Note_off_c, 1, 57, 96
1, 7813, Note_on_c, 1, 38, 96
1, 7814, Note_off_c, 1, 38, 96
1, 7931, Note_on_c, 1, 52, 96
1, 7932, Note_off_c, 1, 52, 96
1, 7935, Note_on_c, 1, 69, 96
1, 7935, Note_on_c, 1, 60, 96
1, 7937, Note_off_c, 1, 69, 96
1, 7937, Note_off_c, 1, 60, 96
1, 7937, Note_on_c, 1, 67, 96
1, 7938, Note_off_c, 1, 67, 96
1, 7941, Note_on_c, 1, 55, 96
1, 7942, Note_off_c, 1, 55, 96
1, 8177, Note_on_c, 1, 42, 96
1, 8179, Note_off_c, 1, 42, 96
1, 8179, Note_on_c, 1, 54, 96
1, 8180, Note_off_c, 1, 54, 96
1, 8184, Note_on_c, 1, 57, 96
1, 8185, Note_off_c, 1, 57, 96
1, 8307, Note_on_c, 1, 71, 96
1, 8307, Note_on_c, 1, 43, 96
1, 8308, Note_off_c, 1, 71, 96
1, 8308, Note_off_c, 1, 43, 96
1, 8310, Note_on_c, 1, 55, 96
1, 8311, Note_off_c, 1, 55, 96
1, 8550, Note_on_c, 1, 58, 96
1, 8550, Note_on_c, 1, 55, 96
1, 8551, Note_off_c, 1, 58, 96
1, 8551, Note_off_c, 1, 55, 96
1, 8556, Note_on_c, 1, 70, 96
1, 8556, Note_on_c, 1, 43, 96
1, 8557, Note_off_c, 1, 70, 96
1, 8557, Note_off_c, 1, 43, 96
1, 8792, Note_on_c, 1, 38, 96
1, 8793, Note_off_c, 1, 38, 96
1, 8799, Note_on_c, 1, 50, 96
1, 8800, Note_off_c, 1, 50, 96
1, 9038, Note_on_c, 1, 72, 96
1, 9038, Note_on_c, 1, 50, 96
1, 9039, Note_off_c, 1, 72, 96
1, 9039, Note_off_c, 1, 50, 96
1, 9041, Note_on_c, 1, 38, 96
1, 9042, Note_off_c, 1, 38, 96
1, 9044, Note_on_c, 1, 66, 96
1, 9045, Note_off_c, 1, 66, 96
1, 9283, Note_on_c, 1, 59, 96
1, 9283, Note_on_c, 1, 62, 96
1, 9284, Note_off_c, 1, 59, 96
1, 9284, Note_off_c, 1, 62, 96
1, 9404, Note_on_c, 1, 69, 96
1, 9405, Note_off_c, 1, 69, 96
1, 9529, Note_on_c, 1, 57, 96
1, 9529, Note_on_c, 1, 54, 96
1, 9530, Note_off_c, 1, 57, 96
1, 9530, Note_off_c, 1, 54, 96
1, 9651, Note_on_c, 1, 62, 96
1, 9651, Note_on_c, 1, 55, 96
1, 9651, Note_on_c, 1, 59, 96
1, 9651, Note_on_c, 1, 43, 96
1, 9654, Note_off_c, 1, 62, 96
1, 9654, Note_off_c, 1, 55, 96
1, 9654, Note_off_c, 1, 59, 96
1, 9654, Note_off_c, 1, 43, 96
1, 9654, Note_on_c, 1, 67, 96
1, 9654, Note_on_c, 1, 59, 96
1, 9655, Note_off_c, 1, 67, 96
1, 9655, Note_off_c, 1, 59, 96
1, 9657, Note_on_c, 1, 65, 96
1, 9658, Note_off_c, 1, 65, 96
1, 9778, Note_on_c, 1, 55, 96
1, 9779, Note_off_c, 1, 55, 96
1, 9901, Note_on_c, 1, 38, 96
1, 9901, Note_on_c, 1, 50, 96
1, 9902, Note_off_c, 1, 38, 96
1, 9902, Note_off_c, 1, 50, 96
1, 9904, Note_on_c, 1, 65, 96
1, 9905, Note_off_c, 1, 65, 96
1, 10146, Note_on_c, 1, 67, 96
1, 10147, Note_off_c, 1, 67, 96
1, 10151, Note_on_c, 1, 55, 96
1, 10155, Note_off_c, 1, 55, 96
1, 10155, Note_on_c, 1, 62, 96
1, 10155, Note_on_c, 1, 59, 96
1, 10155, Note_on_c, 1, 43, 96
1, 10156, Note_off_c, 1, 62, 96
1, 10156, Note_off_c, 1, 59, 96
1, 10156, Note_off_c, 1, 43, 96
1, 10390, Note_on_c, 1, 69, 96
1, 10391, Note_off_c, 1, 69, 96
1, 10514, Note_on_c, 1, 47, 96
1, 10515, Note_off_c, 1, 47, 96
1, 10575, Note_on_c, 1, 60, 96
1, 10576, Note_off_c, 1, 60, 96
1, 10640, Note_on_c, 1, 59, 96
1, 10640, Note_on_c, 1, 55, 96
1, 10640, Note_on_c, 1, 50, 96
1, 10640, Note_on_c, 1, 65, 96
1, 10641, Note_off_c, 1, 59, 96
1, 10641, Note_off_c, 1, 55, 96
1, 10641, Note_off_c, 1, 50, 96
1, 10641, Note_off_c, 1, 65, 96
1, 10698, Note_on_c, 1, 60, 96
1, 10699, Note_off_c, 1, 60, 96
1, 10701, Note_on_c, 1, 48, 96
1, 10702, Note_off_c, 1, 48, 96
1, 10704, Note_on_c, 1, 64, 96
1, 10705, Note_off_c, 1, 64, 96
1, 10762, Note_on_c, 1, 47, 96
1, 10763, Note_off_c, 1, 47, 96
1, 10765, Note_on_c, 1, 59, 96
1, 10767, Note_off_c, 1, 59, 96
1, 10767, Note_on_c, 1, 47, 96
1, 10768, Note_off_c, 1, 47, 96
1, 11004, Note_on_c, 1, 38, 96
1, 11004, Note_on_c, 1, 50, 96
1, 11007, Note_off_c, 1, 38, 96
1, 11007, Note_off_c, 1, 50, 96
1, 11007, Note_on_c, 1, 71, 96
1, 11007, Note_on_c, 1, 65, 96
1, 11008, Note_off_c, 1, 71, 96
1, 11008, Note_off_c, 1, 65, 96
1, 11013, Note_on_c, 1, 57, 96
1, 11013, Note_on_c, 1, 62, 96
1, 11015, Note_off_c, 1, 57, 96
1, 11015, Note_off_c, 1, 62, 96
1, 11015, Note_on_c, 1, 57, 96
1, 11017, Note_off_c, 1, 57, 96
1, 11017, Note_on_c, 1, 50, 96
1, 11018, Note_off_c, 1, 50, 96
1, 11261, Note_on_c, 1, 74, 96
1, 11261, Note_on_c, 1, 43, 96
1, 11262, Note_off_c, 1, 74, 96
1, 11262, Note_off_c, 1, 43, 96
1, 11379, Note_on_c, 1, 71, 96
1, 11382, Note_off_c, 1, 71, 96
1, 11382, Note_on_c, 1, 67, 96
1, 11382, Note_on_c, 1, 55, 96
1, 11384, Note_off_c, 1, 67, 96
1, 11384, Note_off_c, 1, 55, 96
1, 11384, Note_on_c, 1, 60, 96
1, 11386, Note_off_c, 1, 60, 96
1, 11386, Note_on_c, 1, 64, 96
1, 11387, Note_off_c, 1, 64, 96
1, 11503, Note_on_c, 1, 64, 96
1, 11507, Note_off_c, 1, 64, 96
1, 11507, Note_on_c, 1, 68, 96
1, 11507, Note_on_c, 1, 55, 96
1, 11507, Note_on_c, 1, 59, 96
1, 11509, Note_off_c, 1, 68, 96
1, 11509, Note_off_c, 1, 55, 96
1, 11509, Note_off_c, 1, 59, 96
1, 11509, Note_on_c, 1, 52, 96
1, 11510, Note_off_c, 1, 52, 96
1, 11515, Note_on_c, 1, 71, 96
1, 11515, Note_on_c, 1, 40, 96
1, 11516, Note_off_c, 1, 71, 96
1, 11516, Note_off_c, 1, 40, 96
1, 11633, Note_on_c, 1, 71, 96
1, 11633, Note_on_c, 1, 56, 96
1, 11634, Note_off_c, 1, 71, 96
1, 11634, Note_off_c, 1, 56, 96
1, 11637, Note_on_c, 1, 62, 96
1, 11638, Note_off_c, 1, 62, 96
1, 11640, Note_on_c, 1, 52, 96
1, 11641, Note_off_c, 1, 52, 96
1, 11879, Note_on_c, 1, 62, 96
1, 11879, Note_on_c, 1, 52, 96
1, 11881, Note_off_c, 1, 62, 96
1, 11881, Note_off_c, 1, 52, 96
1, 11881, Note_on_c, 1, 56, 96
1, 11883, Note_off_c, 1, 56, 96
1, 11883, Note_on_c, 1, 52, 96
1, 11884, Note_off_c, 1, 52, 96
1, 11886, Note_on_c, 1, 56, 96
1, 11887, Note_off_c, 1, 56, 96
1, 12124, Note_on_c, 1, 65, 96
1, 12124, Note_on_c, 1, 59, 96
1, 12125, Note_off_c, 1, 65, 96
1, 12125, Note_off_c, 1, 59, 96
1, 12127, Note_on_c, 1, 55, 96
1, 12128, Note_off_c, 1, 55, 96
1, 12365, Note_on_c, 1, 62, 96
1, 12367, Note_off_c, 1, 62, 96
1, 12367, Note_on_c, 1, 59, 96
1, 12368, Note_off_c, 1, 59, 96
1, 12551, Note_on_c, 1, 62, 96
1, 12553, Note_off_c, 1, 62, 96
1, 12553, Note_on_c, 1, 59, 96
1, 12554, Note_off_c, 1, 59, 96
1, 12608, Note_on_c, 1, 62, 96
1, 12609, Note_off_c, 1, 62, 96
1, 12612, Note_on_c, 1, 59, 96
1, 12613, Note_off_c, 1, 59, 96
1, 12732, Note_on_c, 1, 55, 96
1, 12733, Note_off_c, 1, 55, 96
1, 12919, Note_on_c, 1, 58, 96
1, 12920, Note_off_c, 1, 58, 96
1, 13059, Note_on_c, 1, 71, 96
1, 13060, Note_off_c, 1, 71, 96
1, 13118, Note_on_c, 1, 59, 96
1, 13119, Note_off_c, 1, 59, 96
1, 13365, Note_on_c, 1, 65, 96
1, 13366, Note_off_c, 1, 65, 96
1, 13369, Note_on_c, 1, 55, 96
1, 13370, Note_off_c, 1, 55, 96
1, 13608, Note_on_c, 1, 50, 96
1, 13609, Note_off_c, 1, 50, 96
1, 13615, Note_on_c, 1, 65, 96
1, 13616, Note_off_c, 1, 65, 96
1, 13848, Note_on_c, 1, 38, 96
1, 13850, Note_off_c, 1, 38, 96
1, 13850, Note_on_c, 1, 50, 96
1, 13851, Note_off_c, 1, 50, 96
1, 14096, Note_on_c, 1, 59, 96
1, 14096, Note_on_c, 1, 47, 96
1, 14096, Note_on_c, 1, 39, 96
1, 14096, Note_on_c, 1, 51, 96
1, 14096, Note_on_c, 1, 27, 96
1, 14097, Note_off_c, 1, 59, 96
1, 14097, Note_off_c, 1, 47, 96
1, 14097, Note_off_c, 1, 39, 96
1, 14097, Note_off_c, 1, 51, 96
1, 14097, Note_off_c, 1, 27, 96
1, 14343, Note_on_c, 1, 74, 96
1, 14343, Note_on_c, 1, 68, 96
1, 14344, Note_off_c, 1, 74, 96
1, 14344, Note_off_c, 1, 68, 96
1, 14348, Note_on_c, 1, 79, 96
1, 14349, Note_off_c, 1, 79, 96
1, 14533, Note_on_c, 1, 64, 96
1, 14533, Note_on_c, 1, 86, 96
1, 14533, Note_on_c, 1, 76, 96
1, 14534, Note_off_c, 1, 64, 96
1, 14534, Note_off_c, 1, 86, 96
1, 14534, Note_off_c, 1, 76, 96
1, 14536, Note_on_c, 1, 57, 96
1, 14538, Note_off_c, 1, 57, 96
1, 14538, Note_on_c, 1, 60, 96
1, 14539, Note_off_c, 1, 60, 96
1, 14541, Note_on_c, 1, 84, 96
1, 14543, Note_off_c, 1, 84, 96
1, 14543, Note_on_c, 1, 64, 96
1, 14544, Note_off_c, 1, 64, 96
1, 14574, Note_on_c, 1, 45, 96
1, 14575, Note_off_c, 1, 45, 96
1, 14663, Note_on_c, 1, 69, 96
1, 14663, Note_on_c, 1, 48, 96
1, 14665, Note_off_c, 1, 69, 96
1, 14665, Note_off_c, 1, 48, 96
1, 14665, Note_on_c, 1, 72, 96
1, 14667, Note_off_c, 1, 72, 96
1, 14667, Note_on_c, 1, 60, 96
1, 14669, Note_off_c, 1, 60, 96
1, 14669, Note_on_c, 1, 81, 96
1, 14670, Note_off_c, 1, 81, 96
1, 14673, Note_on_c, 1, 57, 96
1, 14673, Note_on_c, 1, 69, 96
1, 14674, Note_off_c, 1, 57, 96
1, 14674, Note_off_c, 1, 69, 96
1, 14766, Note_on_c, 1, 84, 96
1, 14768, Note_off_c, 1, 84, 96
1, 14768, Note_on_c, 1, 50, 96
1, 14770, Note_off_c, 1, 50, 96
1, 14770, Note_on_c, 1, 72, 96
1, 14772, Note_off_c, 1, 72, 96
1, 14772, Note_on_c, 1, 78, 96
1, 14774, Note_off_c, 1, 78, 96
1, 14774, Note_on_c, 1, 86, 96
1, 14775, Note_off_c, 1, 86, 96
1, 14869, Note_on_c, 1, 69, 96
1, 14870, Note_off_c, 1, 69, 96
1, 14898, Note_on_c, 1, 78, 96
1, 14899, Note_off_c, 1, 78, 96
1, 14902, Note_on_c, 1, 57, 96
1, 14902, Note_on_c, 1, 45, 96
1, 14903, Note_off_c, 1, 57, 96
1, 14903, Note_off_c, 1, 45, 96
1, 14906, Note_on_c, 1, 86, 96
1, 14906, Note_on_c, 1, 81, 96
1, 14907, Note_off_c, 1, 86, 96
1, 14907, Note_off_c, 1, 81, 96
1, 15045, Note_on_c, 1, 50, 96
1, 15045, Note_on_c, 1, 62, 96
1, 15046, Note_off_c, 1, 50, 96
1, 15046, Note_off_c, 1, 62, 96
1, 15129, Note_on_c, 1, 40, 96
1, 15130, Note_off_c, 1, 40, 96
1, 15248, Note_on_c, 1, 80, 96
1, 15248, Note_on_c, 1, 72, 96
1, 15248, Note_on_c, 1, 84, 96
1, 15248, Note_on_c, 1, 84, 96
1, 15248, Note_on_c, 1, 81, 96
1, 15248, Note_on_c, 1, 45, 96
1, 15249, Note_off_c, 1, 80, 96
1, 15249, Note_off_c, 1, 72, 96
1, 15249, Note_off_c, 1, 84, 96
1, 15249, Note_off_c, 1, 84, 96
1, 15249, Note_off_c, 1, 81, 96
1, 15249, Note_off_c, 1, 45, 96
1, 15299, Note_on_c, 1, 86, 96
1, 15299, Note_on_c, 1, 78, 96
1, 15299, Note_on_c, 1, 75, 96
1, 15300, Note_off_c, 1, 86, 96
1, 15300, Note_off_c, 1, 78, 96
1, 15300, Note_off_c, 1, 75, 96
1, 15353, Note_on_c, 1, 78, 96
1, 15353, Note_on_c, 1, 73, 96
1, 15353, Note_on_c, 1, 85, 96
1, 15353, Note_on_c, 1, 82, 96
1, 15353, Note_on_c, 1, 46, 96
1, 15353, Note_on_c, 1, 58, 96
1, 15354, Note_off_c, 1, 78, 96
1, 15354, Note_off_c, 1, 73, 96
1, 15354, Note_off_c, 1, 85, 96
1, 15354, Note_off_c, 1, 82, 96
1, 15354, Note_off_c, 1, 46, 96
1, 15354, Note_off_c, 1, 58, 96
1, 15405, Note_on_c, 1, 74, 96
1, 15405, Note_on_c, 1, 77, 96
1, 15405, Note_on_c, 1, 86, 96
1, 15405, Note_on_c, 1, 80, 96
1, 15406, Note_off_c, 1, 74, 96
1, 15406, Note_off_c, 1, 77, 96
1, 15406, Note_off_c, 1, 86, 96
1, 15406, Note_off_c, 1, 80, 96
1, 15455, Note_on_c, 1, 56, 96
1, 15455, Note_on_c, 1, 44, 96
1, 15456, Note_off_c, 1, 56, 96
1, 15456, Note_off_c, 1, 44, 96
1, 15505, Note_on_c, 1, 44, 96
1, 15505, Note_on_c, 1, 56, 96
1, 15506, Note_off_c, 1, 44, 96
1, 15506, Note_off_c, 1, 56, 96
1, 15555, Note_on_c, 1, 39, 96
1, 15555, Note_on_c, 1, 51, 96
1, 15556, Note_off_c, 1, 39, 96
1, 15556, Note_off_c, 1, 51, 96
1, 15608, Note_on_c, 1, 62, 96
1, 15608, Note_on_c, 1, 68, 96
1, 15608, Note_on_c, 1, 70, 96
1, 15608, Note_on_c, 1, 41, 96
1, 15608, Note_on_c, 1, 53, 96
1, 15609, Note_off_c, 1, 62, 96
1, 15609, Note_off_c, 1, 68, 96
1, 15609, Note_off_c, 1, 70, 96
1, 15609, Note_off_c, 1, 41, 96
1, 15609, Note_off_c, 1, 53, 96
1, 15712, Note_on_c, 1, 67, 96
1, 15712, Note_on_c, 1, 70, 96
1, 15712, Note_on_c, 1, 79, 96
1, 15712, Note_on_c, 1, 75, 96
1, 15712, Note_on_c, 1, 51, 96
1, 15712, Note_on_c, 1, 58, 96
1, 15712, Note_on_c, 1, 55, 96
1, 15712, Note_on_c, 1, 61, 96
1, 15713, Note_off_c, 1, 67, 96
1, 15713, Note_off_c, 1, 70, 96
1, 15713, Note_off_c, 1, 79, 96
1, 15713, Note_off_c, 1, 75, 96
1, 15713, Note_off_c, 1, 51, 96
1, 15713, Note_off_c, 1, 58, 96
1, 15713, Note_off_c, 1, 55, 96
1, 15713, Note_off_c, 1, 61, 96
1, 15962, Note_on_c, 1, 78, 96
1, 15962, Note_on_c, 1, 72, 96
1, 15962, Note_on_c, 1, 64, 96
1, 15962, Note_on_c, 1, 60, 96
1, 15963, Note_off_c, 1, 78, 96
1, 15963, Note_off_c, 1, 72, 96
1, 15963, Note_off_c, 1, 64, 96
1, 15963, Note_off_c, 1, 60, 96
1, 16060, Note_on_c, 1, 79, 96
1, 16060, Note_on_c, 1, 67, 96
1, 16061, Note_off_c, 1, 79, 96
1, 16061, Note_off_c, 1, 67, 96
1, 16162, Note_on_c, 1, 81, 96
1, 16162, Note_on_c, 1, 72, 96
1, 16162, Note_on_c, 1, 69, 96
1, 16162, Note_on_c, 1, 55, 96
1, 16162, Note_on_c, 1, 60, 96
1, 16162, Note_on_c, 1, 64, 96
1, 16163, Note_off_c, 1, 81, 96
1, 16163, Note_off_c, 1, 72, 96
1, 16163, Note_off_c, 1, 69, 96
1, 16163, Note_off_c, 1, 55, 96
1, 16163, Note_off_c, 1, 60, 96
1, 16163, Note_off_c, 1, 64, 96
1, 16261, Note_on_c, 1, 71, 96
1, 16261, Note_on_c, 1, 52, 96
1, 16261, Note_on_c, 1, 40, 96
1, 16262, Note_off_c, 1, 71, 96
1, 16262, Note_off_c, 1, 52, 96
1, 16262, Note_off_c, 1, 40, 96
1, 16312, Note_on_c, 1, 71, 96
1, 16312, Note_on_c, 1, 68, 96
1, 16312, Note_on_c, 1, 62, 96
1, 16313, Note_off_c, 1, 71, 96
1, 16313, Note_off_c, 1, 68, 96
1, 16313, Note_off_c, 1, 62, 96
1, 16362, Note_on_c, 1, 44, 96
1, 16362, Note_on_c, 1, 56, 96
1, 16363, Note_off_c, 1, 44, 96
1, 16363, Note_off_c, 1, 56, 96
1, 16411, Note_on_c, 1, 41, 96
1, 16412, Note_off_c, 1, 41, 96
1, 16509, Note_on_c, 1, 72, 96
1, 16509, Note_on_c, 1, 53, 96
1, 16510, Note_off_c, 1, 72, 96
1, 16510, Note_off_c, 1, 53, 96
1, 16557, Note_on_c, 1, 77, 96
1, 16557, Note_on_c, 1, 65, 96
1, 16558, Note_off_c, 1, 77, 96
1, 16558, Note_off_c, 1, 65, 96
1, 16666, Note_on_c, 1, 72, 96
1, 16667, Note_off_c, 1, 72, 96
1, 16904, Note_on_c, 1, 67, 96
1, 16904, Note_on_c, 1, 57, 96
1, 16904, Note_on_c, 1, 62, 96
1, 16904, Note_on_c, 1, 54, 96
1, 16904, Note_on_c, 1, 59, 96
1, 16905, Note_off_c, 1, 67, 96
1, 16905, Note_off_c, 1, 57, 96
1, 16905, Note_off_c, 1, 62, 96
1, 16905, Note_off_c, 1, 54, 96
1, 16905, Note_off_c, 1, 59, 96
1, 17183, Note_on_c, 1, 43, 96
1, 17184, Note_off_c, 1, 43, 96
1, 17418, Note_on_c, 1, 53, 96
1, 17419, Note_off_c, 1, 53, 96
1, 17427, Note_on_c, 1, 67, 96
1, 17428, Note_off_c, 1, 67, 96
1, 17589, Note_on_c, 1, 60, 96
1, 17590, Note_off_c, 1, 60, 96
1, 17812, Note_on_c, 1, 53, 96
1, 17813, Note_off_c, 1, 53, 96
1, 17817, Note_on_c, 1, 71, 96
1, 17819, Note_off_c, 1, 71, 96
1, 17819, Note_on_c, 1, 77, 96
1, 17820, Note_off_c, 1, 77, 96
1, 18034, Note_on_c, 1, 83, 96
1, 18035, Note_off_c, 1, 83, 96
1, 18194, Note_on_c, 1, 59, 96
1, 18194, Note_on_c, 1, 47, 96
1, 18195, Note_off_c, 1, 59, 96
1, 18195, Note_off_c, 1, 47, 96
1, 18391, Note_on_c, 1, 80, 96
1, 18392, Note_off_c, 1, 80, 96
1, 18480, Note_on_c, 1, 88, 96
1, 18481, Note_off_c, 1, 88, 96
1, 18559, Note_on_c, 1, 69, 96
1, 18560, Note_off_c, 1, 69, 96
1, 18563, Note_on_c, 1, 81, 96
1, 18563, Note_on_c, 1, 40, 96
1, 18564, Note_off_c, 1, 81, 96
1, 18564, Note_off_c, 1, 40, 96
1, 18566, Note_on_c, 1, 52, 96
1, 18567, Note_off_c, 1, 52, 96
1, 18764, Note_on_c, 1, 33, 96
1, 18766, Note_off_c, 1, 33, 96
1, 18766, Note_on_c, 1, 45, 96
1, 18767, Note_off_c, 1, 45, 96
1, 19010, Note_on_c, 1, 57, 96
1, 19012, Note_off_c, 1, 57, 96
1, 19012, Note_on_c, 1, 64, 96
1, 19013, Note_off_c, 1, 64, 96
1, 19018, Note_on_c, 1, 60, 96
1, 19019, Note_off_c, 1, 60, 96
1, 19254, Note_on_c, 1, 72, 96
1, 19257, Note_off_c, 1, 72, 96
1, 19257, Note_on_c, 1, 52, 96
1, 19257, Note_on_c, 1, 60, 96
1, 19258, Note_off_c, 1, 52, 96
1, 19258, Note_off_c, 1, 60, 96
1, 19260, Note_on_c, 1, 57, 96
1, 19261, Note_off_c, 1, 57, 96
1, 19265, Note_on_c, 1, 83, 96
1, 19267, Note_off_c, 1, 83, 96
1, 19267, Note_on_c, 1, 76, 96
1, 19268, Note_off_c, 1, 76, 96
1, 19499, Note_on_c, 1, 80, 96
1, 19500, Note_off_c, 1, 80, 96
1, 19504, Note_on_c, 1, 76, 96
1, 19504, Note_on_c, 1, 72, 96
1, 19505, Note_off_c, 1, 76, 96
1, 19505, Note_off_c, 1, 72, 96
1, 19507, Note_on_c, 1, 40, 96
1, 19508, Note_off_c, 1, 40, 96
1, 19747, Note_on_c, 1, 76, 96
1, 19748, Note_off_c, 1, 76, 96
1, 19751, Note_on_c, 1, 83, 96
1, 19752, Note_off_c, 1, 83, 96
1, 19848, Note_on_c, 1, 78, 96
1, 19848, Note_on_c, 1, 72, 96
1, 19849, Note_off_c, 1, 78, 96
1, 19849, Note_off_c, 1, 72, 96
1, 19877, Note_on_c, 1, 76, 96
1, 19878, Note_off_c, 1, 76, 96
1, 19880, Note_on_c, 1, 67, 96
1, 19881, Note_off_c, 1, 67, 96
1, 19883, Note_on_c, 1, 59, 96
1, 19884, Note_off_c, 1, 59, 96
1, 19887, Note_on_c, 1, 79, 96
1, 19887, Note_on_c, 1, 64, 96
1, 19888, Note_off_c, 1, 79, 96
1, 19888, Note_off_c, 1, 64, 96
1, 20006, Note_on_c, 1, 74, 96
1, 20008, Note_off_c, 1, 74, 96
1, 20008, Note_on_c, 1, 86, 96
1, 20009, Note_off_c, 1, 86, 96
1, 20012, Note_on_c, 1, 50, 96
1, 20013, Note_off_c, 1, 50, 96
1, 20016, Note_on_c, 1, 38, 96
1, 20017, Note_off_c, 1, 38, 96
1, 20131, Note_on_c, 1, 71, 96
1, 20132, Note_off_c, 1, 71, 96
1, 20136, Note_on_c, 1, 74, 96
1, 20139, Note_off_c, 1, 74, 96
1, 20139, Note_on_c, 1, 83, 96
1, 20139, Note_on_c, 1, 47, 96
1, 20141, Note_off_c, 1, 83, 96
1, 20141, Note_off_c, 1, 47, 96
1, 20141, Note_on_c, 1, 59, 96
1, 20142, Note_off_c, 1, 59, 96
1, 20259, Note_on_c, 1, 38, 96
1, 20260, Note_off_c, 1, 38, 96
1, 20263, Note_on_c, 1, 50, 96
1, 20264, Note_off_c, 1, 50, 96
1, 20380, Note_on_c, 1, 74, 96
1, 20381, Note_off_c, 1, 74, 96
1, 20385, Note_on_c, 1, 86, 96
1, 20386, Note_off_c, 1, 86, 96
1, 20441, Note_on_c, 1, 43, 96
1, 20442, Note_off_c, 1, 43, 96
1, 20508, Note_on_c, 1, 64, 96
1, 20508, Note_on_c, 1, 60, 96
1, 20509, Note_off_c, 1, 64, 96
1, 20509, Note_off_c, 1, 60, 96
1, 20749, Note_on_c, 1, 62, 96
1, 20749, Note_on_c, 1, 50, 96
1, 20750, Note_off_c, 1, 62, 96
1, 20750, Note_off_c, 1, 50, 96
1, 21060, Note_on_c, 1, 45, 96
1, 21061, Note_off_c, 1, 45, 96
1, 21378, Note_on_c, 1, 76, 96
1, 21379, Note_off_c, 1, 76, 96
1, 21437, Note_on_c, 1, 76, 96
1, 21440, Note_off_c, 1, 76, 96
1, 21440, Note_on_c, 1, 73, 96
1, 21440, Note_on_c, 1, 40, 96
1, 21442, Note_off_c, 1, 73, 96
1, 21442, Note_off_c, 1, 40, 96
1, 21442, Note_on_c, 1, 52, 96
1, 21444, Note_off_c, 1, 52, 96
1, 21444, Note_on_c, 1, 76, 96
1, 21446, Note_off_c, 1, 76, 96
1, 21446, Note_on_c, 1, 71, 96
1, 21447, Note_off_c, 1, 71, 96
1, 21562, Note_on_c, 1, 73, 96
1, 21564, Note_off_c, 1, 73, 96
1, 21564, Note_on_c, 1, 45, 96
1, 21565, Note_off_c, 1, 45, 96
1, 21567, Note_on_c, 1, 57, 96
1, 21568, Note_off_c, 1, 57, 96
1, 21571, Note_on_c, 1, 67, 96
1, 21571, Note_on_c, 1, 76, 96
1, 21572, Note_off_c, 1, 67, 96
1, 21572, Note_off_c, 1, 76, 96
1, 21690, Note_on_c, 1, 55, 96
1, 21692, Note_off_c, 1, 55, 96
1, 21692, Note_on_c, 1, 61, 96
1, 21694, Note_off_c, 1, 61, 96
1, 21694, Note_on_c, 1, 57, 96
1, 21695, Note_off_c, 1, 57, 96
1, 21814, Note_on_c, 1, 74, 96
1, 21815, Note_off_c, 1, 74, 96
1, 21819, Note_on_c, 1, 76, 96
1, 21819, Note_on_c, 1, 55, 96
1, 21820, Note_off_c, 1, 76, 96
1, 21820, Note_off_c, 1, 55, 96
1, 21822, Note_on_c, 1, 71, 96
1, 21824, Note_off_c, 1, 71, 96
1, 21824, Note_on_c, 1, 43, 96
1, 21826, Note_off_c, 1, 43, 96
1, 21826, Note_on_c, 1, 62, 96
1, 21827, Note_off_c, 1, 62, 96
1, 21943, Note_on_c, 1, 73, 96
1, 21943, Note_on_c, 1, 70, 96
1, 21944, Note_off_c, 1, 73, 96
1, 21944, Note_off_c, 1, 70, 96
1, 21949, Note_on_c, 1, 67, 96
1, 21949, Note_on_c, 1, 61, 96
1, 21949, Note_on_c, 1, 45, 96
1, 21950, Note_off_c, 1, 67, 96
1, 21950, Note_off_c, 1, 61, 96
1, 21950, Note_off_c, 1, 45, 96
1, 22067, Note_on_c, 1, 72, 96
1, 22067, Note_on_c, 1, 60, 96
1, 22067, Note_on_c, 1, 63, 96
1, 22068, Note_off_c, 1, 72, 96
1, 22068, Note_off_c, 1, 60, 96
1, 22068, Note_off_c, 1, 63, 96
1, 22070, Note_on_c, 1, 41, 96
1, 22072, Note_off_c, 1, 41, 96
1, 22072, Note_on_c, 1, 53, 96
1, 22074, Note_off_c, 1, 53, 96
1, 22074, Note_on_c, 1, 53, 96
1, 22076, Note_off_c, 1, 53, 96
1, 22076, Note_on_c, 1, 69, 96
1, 22077, Note_off_c, 1, 69, 96
1, 22195, Note_on_c, 1, 53, 96
1, 22197, Note_off_c, 1, 53, 96
1, 22197, Note_on_c, 1, 57, 96
1, 22198, Note_off_c, 1, 57, 96
1, 22202, Note_on_c, 1, 48, 96
1, 22203, Note_off_c, 1, 48, 96
1, 22259, Note_on_c, 1, 38, 96
1, 22262, Note_off_c, 1, 38, 96
1, 22262, Note_on_c, 1, 74, 96
1, 22262, Note_on_c, 1, 71, 96
1, 22264, Note_off_c, 1, 74, 96
1, 22264, Note_off_c, 1, 71, 96
1, 22264, Note_on_c, 1, 65, 96
1, 22265, Note_off_c, 1, 65, 96
1, 22323, Note_on_c, 1, 69, 96
1, 22324, Note_off_c, 1, 69, 96
1, 22384, Note_on_c, 1, 64, 96
1, 22384, Note_on_c, 1, 69, 96
1, 22384, Note_on_c, 1, 79, 96
1, 22384, Note_on_c, 1, 67, 96
1, 22385, Note_off_c, 1, 64, 96
1, 22385, Note_off_c, 1, 69, 96
1, 22385, Note_off_c, 1, 79, 96
1, 22385, Note_off_c, 1, 67, 96
1, 22391, Note_on_c, 1, 76, 96
1, 22391, Note_on_c, 1, 45, 96
1, 22392, Note_off_c, 1, 76, 96
1, 22392, Note_off_c, 1, 45, 96
1, 22509, Note_on_c, 1, 59, 96
1, 22512, Note_off_c, 1, 59, 96
1, 22512, Note_on_c, 1, 62, 96
1, 22512, Note_on_c, 1, 54, 96
1, 22513, Note_off_c, 1, 62, 96
1, 22513, Note_off_c, 1, 54, 96
1, 22758, Note_on_c, 1, 72, 96
1, 22760, Note_off_c, 1, 72, 96
1, 22760, Note_on_c, 1, 81, 96
1, 22763, Note_off_c, 1, 81, 96
1, 22763, Note_on_c, 1, 69, 96
1, 22763, Note_on_c, 1, 42, 96
1, 22764, Note_off_c, 1, 69, 96
1, 22764, Note_off_c, 1, 42, 96
1, 22887, Note_on_c, 1, 74, 96
1, 22887, Note_on_c, 1, 62, 96
1, 22887, Note_on_c, 1, 50, 96
1, 22888, Note_off_c, 1, 74, 96
1, 22888, Note_off_c, 1, 62, 96
1, 22888, Note_off_c, 1, 50, 96
1, 23004, Note_on_c, 1, 50, 96
1, 23005, Note_off_c, 1, 50, 96
1, 23010, Note_on_c, 1, 38, 96
1, 23011, Note_off_c, 1, 38, 96
1, 23073, Note_on_c, 1, 76, 96
1, 23073, Note_on_c, 1, 84, 96
1, 23074, Note_off_c, 1, 76, 96
1, 23074, Note_off_c, 1, 84, 96
1, 23132, Note_on_c, 1, 60, 96
1, 23135, Note_off_c, 1, 60, 96
1, 23135, Note_on_c, 1, 54, 96
1, 23135, Note_on_c, 1, 57, 96
1, 23136, Note_off_c, 1, 54, 96
1, 23136, Note_off_c, 1, 57, 96
1, 23193, Note_on_c, 1, 90, 96
1, 23194, Note_off_c, 1, 90, 96
1, 23196, Note_on_c, 1, 86, 96
1, 23197, Note_off_c, 1, 86, 96
1, 23257, Note_on_c, 1, 45, 96
1, 23258, Note_off_c, 1, 45, 96
1, 23316, Note_on_c, 1, 62, 96
1, 23316, Note_on_c, 1, 67, 96
1, 23317, Note_off_c, 1, 62, 96
1, 23317, Note_off_c, 1, 67, 96
1, 23320, Note_on_c, 1, 67, 96
1, 23321, Note_off_c, 1, 67, 96
1, 23382, Note_on_c, 1, 76, 96
1, 23382, Note_on_c, 1, 55, 96
1, 23382, Note_on_c, 1, 59, 96
1, 23383, Note_off_c, 1, 76, 96
1, 23383, Note_off_c, 1, 55, 96
1, 23383, Note_off_c, 1, 59, 96
1, 23389, Note_on_c, 1, 50, 96
1, 23390, Note_off_c, 1, 50, 96
1, 23448, Note_on_c, 1, 71, 96
1, 23449, Note_off_c, 1, 71, 96
1, 23510, Note_on_c, 1, 62, 96
1, 23510, Note_on_c, 1, 74, 96
1, 23514, Note_off_c, 1, 62, 96
1, 23514, Note_off_c, 1, 74, 96
1, 23514, Note_on_c, 1, 55, 96
1, 23514, Note_on_c, 1, 71, 96
1, 23514, Note_on_c, 1, 59, 96
1, 23515, Note_off_c, 1, 55, 96
1, 23515, Note_off_c, 1, 71, 96
1, 23515, Note_off_c, 1, 59, 96
1, 23517, Note_on_c, 1, 79, 96
1, 23518, Note_off_c, 1, 79, 96
1, 23634, Note_on_c, 1, 59, 96
1, 23635, Note_off_c, 1, 59, 96
1, 23638, Note_on_c, 1, 71, 96
1, 23638, Note_on_c, 1, 67, 96
1, 23639, Note_off_c, 1, 71, 96
1, 23639, Note_off_c, 1, 67, 96
1, 23641, Note_on_c, 1, 61, 96
1, 23642, Note_off_c, 1, 61, 96
1, 23644, Note_on_c, 1, 67, 96
1, 23646, Note_off_c, 1, 67, 96
1, 23646, Note_on_c, 1, 64, 96
1, 23647, Note_off_c, 1, 64, 96
1, 23762, Note_on_c, 1, 47, 96
1, 23764, Note_off_c, 1, 47, 96
1, 23764, Note_on_c, 1, 74, 96
1, 23766, Note_off_c, 1, 74, 96
1, 23766, Note_on_c, 1, 58, 96
1, 23767, Note_off_c, 1, 58, 96
1, 23884, Note_on_c, 1, 62, 96
1, 23885, Note_off_c, 1, 62, 96
1, 23888, Note_on_c, 1, 77, 96
1, 23889, Note_off_c, 1, 77, 96
1, 23892, Note_on_c, 1, 65, 96
1, 23893, Note_off_c, 1, 65, 96
1, 24011, Note_on_c, 1, 59, 96
1, 24013, Note_off_c, 1, 59, 96
1, 24013, Note_on_c, 1, 62, 96
1, 24016, Note_off_c, 1, 62, 96
1, 24016, Note_on_c, 1, 65, 96
1, 24016, Note_on_c, 1, 67, 96
1, 24017, Note_off_c, 1, 65, 96
1, 24017, Note_off_c, 1, 67, 96
1, 24073, Note_on_c, 1, 81, 96
1, 24074, Note_off_c, 1, 81, 96
1, 24198, Note_on_c, 1, 83, 96
1, 24199, Note_off_c, 1, 83, 96
1, 24265, Note_on_c, 1, 76, 96
1, 24266, Note_off_c, 1, 76, 96
1, 24325, Note_on_c, 1, 76, 96
1, 24325, Note_on_c, 1, 81, 96
1, 24327, Note_off_c, 1, 76, 96
1, 24327, Note_off_c, 1, 81, 96
1, 24327, Note_on_c, 1, 69, 96
1, 24328, Note_off_c, 1, 69, 96
1, 24331, Note_on_c, 1, 64, 96
1, 24331, Note_on_c, 1, 67, 96
1, 24333, Note_off_c, 1, 64, 96
1, 24333, Note_off_c, 1, 67, 96
1, 24333, Note_on_c, 1, 72, 96
1, 24334, Note_off_c, 1, 72, 96
1, 24448, Note_on_c, 1, 69, 96
1, 24448, Note_on_c, 1, 76, 96
1, 24449, Note_off_c, 1, 69, 96
1, 24449, Note_off_c, 1, 76, 96
1, 24451, Note_on_c, 1, 81, 96
1, 24452, Note_off_c, 1, 81, 96
1, 24454, Note_on_c, 1, 72, 96
1, 24456, Note_off_c, 1, 72, 96
1, 24456, Note_on_c, 1, 60, 96
1, 24457, Note_off_c, 1, 60, 96
1, 24512, Note_on_c, 1, 76, 96
1, 24514, Note_off_c, 1, 76, 96
1, 24514, Note_on_c, 1, 69, 96
1, 24515, Note_off_c, 1, 69, 96
1, 24517, Note_on_c, 1, 60, 96
1, 24520, Note_off_c, 1, 60, 96
1, 24520, Note_on_c, 1, 64, 96
1, 24520, Note_on_c, 1, 57, 96
1, 24522, Note_off_c, 1, 64, 96
1, 24522, Note_off_c, 1, 57, 96
1, 24522, Note_on_c, 1, 72, 96
1, 24524, Note_off_c, 1, 72, 96
1, 24524, Note_on_c, 1, 52, 96
1, 24525, Note_off_c, 1, 52, 96
1, 24641, Note_on_c, 1, 60, 96
1, 24642, Note_off_c, 1, 60, 96
1, 24645, Note_on_c, 1, 64, 96
1, 24645, Note_on_c, 1, 55, 96
1, 24647, Note_off_c, 1, 64, 96
1, 24647, Note_off_c, 1, 55, 96
1, 24647, Note_on_c, 1, 76, 96
1, 24649, Note_off_c, 1, 76, 96
1, 24649, Note_on_c, 1, 72, 96
1, 24650, Note_off_c, 1, 72, 96
1, 24704, Note_on_c, 1, 79, 96
1, 24705, Note_off_c, 1, 79, 96
1, 24765, Note_on_c, 1, 76, 96
1, 24766, Note_off_c, 1, 76, 96
1, 24768, Note_on_c, 1, 48, 96
1, 24769, Note_off_c, 1, 48, 96
1, 24829, Note_on_c, 1, 75, 96
1, 24831, Note_off_c, 1, 75, 96
1, 24831, Note_on_c, 1, 72, 96
1, 24832, Note_off_c, 1, 72, 96
1, 24886, Note_on_c, 1, 38, 96
1, 24887, Note_off_c, 1, 38, 96
1, 24891, Note_on_c, 1, 50, 96
1, 24892, Note_off_c, 1, 50, 96
1, 24896, Note_on_c, 1, 62, 96
1, 24897, Note_off_c, 1, 62, 96
1, 24957, Note_on_c, 1, 79, 96
1, 24957, Note_on_c, 1, 69, 96
1, 24957, Note_on_c, 1, 76, 96
1, 24958, Note_off_c, 1, 79, 96
1, 24958, Note_off_c, 1, 69, 96
1, 24958, Note_off_c, 1, 76, 96
1, 25015, Note_on_c, 1, 76, 96
1, 25015, Note_on_c, 1, 57, 96
1, 25017, Note_off_c, 1, 76, 96
1, 25017, Note_off_c, 1, 57, 96
1, 25017, Note_on_c, 1, 67, 96
1, 25018, Note_off_c, 1, 67, 96
1, 25021, Note_on_c, 1, 79, 96
1, 25021, Note_on_c, 1, 55, 96
1, 25023, Note_off_c, 1, 79, 96
1, 25023, Note_off_c, 1, 55, 96
1, 25023, Note_on_c, 1, 61, 96
1, 25024, Note_off_c, 1, 61, 96
1, 25079, Note_on_c, 1, 76, 96
1, 25080, Note_off_c, 1, 76, 96
1, 25083, Note_on_c, 1, 69, 96
1, 25084, Note_off_c, 1, 69, 96
1, 25142, Note_on_c, 1, 79, 96
1, 25142, Note_on_c, 1, 61, 96
1, 25143, Note_off_c, 1, 79, 96
1, 25143, Note_off_c, 1, 61, 96
1, 25146, Note_on_c, 1, 64, 96
1, 25146, Note_on_c, 1, 57, 96
1, 25150, Note_off_c, 1, 64, 96
1, 25150, Note_off_c, 1, 57, 96
1, 25150, Note_on_c, 1, 73, 96
1, 25150, Note_on_c, 1, 67, 96
1, 25150, Note_on_c, 1, 67, 96
1, 25151, Note_off_c, 1, 73, 96
1, 25151, Note_off_c, 1, 67, 96
1, 25151, Note_off_c, 1, 67, 96
1, 25387, Note_on_c, 1, 33, 96
1, 25388, Note_off_c, 1, 33, 96
1, 25390, Note_on_c, 1, 45, 96
1, 25391, Note_off_c, 1, 45, 96
1, 25630, Note_on_c, 1, 77, 96
1, 25630, Note_on_c, 1, 59, 96
1, 25631, Note_off_c, 1, 77, 96
1, 25631, Note_off_c, 1, 59, 96
1, 25635, Note_on_c, 1, 50, 96
1, 25638, Note_off_c, 1, 50, 96
1, 25638, Note_on_c, 1, 81, 96
1, 25638, Note_on_c, 1, 53, 96
1, 25639, Note_off_c, 1, 81, 96
1, 25639, Note_off_c, 1, 53, 96
1, 25817, Note_on_c, 1, 76, 96
1, 25818, Note_off_c, 1, 76, 96
1, 25874, Note_on_c, 1, 76, 96
1, 25875, Note_off_c, 1, 76, 96
1, 25879, Note_on_c, 1, 67, 96
1, 25881, Note_off_c, 1, 67, 96
1, 25881, Note_on_c, 1, 55, 96
1, 25882, Note_off_c, 1, 55, 96
1, 25884, Note_on_c, 1, 43, 96
1, 25885, Note_off_c, 1, 43, 96
1, 26117, Note_on_c, 1, 55, 96
1, 26119, Note_off_c, 1, 55, 96
1, 26119, Note_on_c, 1, 52, 96
1, 26120, Note_off_c, 1, 52, 96
1, 26124, Note_on_c, 1, 76, 96
1, 26124, Note_on_c, 1, 79, 96
1, 26124, Note_on_c, 1, 72, 96
1, 26126, Note_off_c, 1, 76, 96
1, 26126, Note_off_c, 1, 79, 96
1, 26126, Note_off_c, 1, 72, 96
1, 26126, Note_on_c, 1, 58, 96
1, 26127, Note_off_c, 1, 58, 96
1, 26129, Note_on_c, 1, 67, 96
1, 26130, Note_off_c, 1, 67, 96
1, 26243, Note_on_c, 1, 76, 96
1, 26244, Note_off_c, 1, 76, 96
1, 26246, Note_on_c, 1, 64, 96
1, 26247, Note_off_c, 1, 64, 96
1, 26252, Note_on_c, 1, 70, 96
1, 26253, Note_off_c, 1, 70, 96
1, 26369, Note_on_c, 1, 64, 96
1, 26370, Note_off_c, 1, 64, 96
1, 26375, Note_on_c, 1, 58, 96
1, 26375, Note_on_c, 1, 55, 96
1, 26377, Note_off_c, 1, 58, 96
1, 26377, Note_off_c, 1, 55, 96
1, 26377, Note_on_c, 1, 60, 96
1, 26378, Note_off_c, 1, 60, 96
1, 26430, Note_on_c, 1, 76, 96
1, 26431, Note_off_c, 1, 76, 96
1, 26438, Note_on_c, 1, 67, 96
1, 26438, Note_on_c, 1, 70, 96
1, 26439, Note_off_c, 1, 67, 96
1, 26439, Note_off_c, 1, 70, 96
1, 26494, Note_on_c, 1, 67, 96
1, 26495, Note_off_c, 1, 67, 96
1, 26499, Note_on_c, 1, 79, 96
1, 26501, Note_off_c, 1, 79, 96
1, 26501, Note_on_c, 1, 38, 96
1, 26503, Note_off_c, 1, 38, 96
1, 26503, Note_on_c, 1, 50, 96
1, 26505, Note_off_c, 1, 50, 96
1, 26505, Note_on_c, 1, 73, 96
1, 26506, Note_off_c, 1, 73, 96
1, 26623, Note_on_c, 1, 73, 96
1, 26623, Note_on_c, 1, 69, 96
1, 26624, Note_off_c, 1, 73, 96
1, 26624, Note_off_c, 1, 69, 96
1, 26628, Note_on_c, 1, 61, 96
1, 26628, Note_on_c, 1, 64, 96
1, 26628, Note_on_c, 1, 57, 96
1, 26629, Note_off_c, 1, 61, 96
1, 26629, Note_off_c, 1, 64, 96
1, 26629, Note_off_c, 1, 57, 96
1, 26631, Note_on_c, 1, 67, 96
1, 26632, Note_off_c, 1, 67, 96
1, 26746, Note_on_c, 1, 69, 96
1, 26748, Note_off_c, 1, 69, 96
1, 26748, Note_on_c, 1, 79, 96
1, 26751, Note_off_c, 1, 79, 96
1, 26751, Note_on_c, 1, 73, 96
1, 26751, Note_on_c, 1, 52, 96
1, 26752, Note_off_c, 1, 73, 96
1, 26752, Note_off_c, 1, 52, 96
1, 26754, Note_on_c, 1, 40, 96
1, 26756, Note_off_c, 1, 40, 96
1, 26756, Note_on_c, 1, 76, 96
1, 26757, Note_off_c, 1, 76, 96
1, 26876, Note_on_c, 1, 52, 96
1, 26876, Note_on_c, 1, 40, 96
1, 26879, Note_off_c, 1, 52, 96
1, 26879, Note_off_c, 1, 40, 96
1, 26879, Note_on_c, 1, 73, 96
1, 26879, Note_on_c, 1, 76, 96
1, 26880, Note_off_c, 1, 73, 96
1, 26880, Note_off_c, 1, 76, 96
1, 27000, Note_on_c, 1, 57, 96
1, 27003, Note_off_c, 1, 57, 96
1, 27003, Note_on_c, 1, 73, 96
1, 27003, Note_on_c, 1, 69, 96
1, 27004, Note_off_c, 1, 73, 96
1, 27004, Note_off_c, 1, 69, 96
1, 27007, Note_on_c, 1, 61, 96
1, 27007, Note_on_c, 1, 52, 96
1, 27008, Note_off_c, 1, 61, 96
1, 27008, Note_off_c, 1, 52, 96
1, 27242, Note_on_c, 1, 72, 96
1, 27243, Note_off_c, 1, 72, 96
1, 27247, Note_on_c, 1, 66, 96
1, 27248, Note_off_c, 1, 66, 96
1, 27251, Note_on_c, 1, 76, 96
1, 27251, Note_on_c, 1, 50, 96
1, 27252, Note_off_c, 1, 76, 96
1, 27252, Note_off_c, 1, 50, 96
1, 27487, Note_on_c, 1, 38, 96
1, 27489, Note_off_c, 1, 38, 96
1, 27489, Note_on_c, 1, 50, 96
1, 27491, Note_off_c, 1, 50, 96
1, 27491, Note_on_c, 1, 62, 96
1, 27492, Note_off_c, 1, 62, 96
1, 27728, Note_on_c, 1, 76, 96
1, 27729, Note_off_c, 1, 76, 96
1, 27731, Note_on_c, 1, 71, 96
1, 27732, Note_off_c, 1, 71, 96
1, 28027, Note_on_c, 1, 67, 96
1, 28028, Note_off_c, 1, 67, 96
1, 28036, Note_on_c, 1, 62, 96
1, 28037, Note_off_c, 1, 62, 96
1, 28089, Note_on_c, 1, 66, 96
1, 28093, Note_off_c, 1, 66, 96
1, 28093, Note_on_c, 1, 69, 96
1, 28093, Note_on_c, 1, 50, 96
1, 28093, Note_on_c, 1, 38, 96
1, 28094, Note_off_c, 1, 69, 96
1, 28094, Note_off_c, 1, 50, 96
1, 28094, Note_off_c, 1, 38, 96
1, 28337, Note_on_c, 1, 54, 96
1, 28338, Note_off_c, 1, 54, 96
1, 28340, Note_on_c, 1, 57, 96
1, 28341, Note_off_c, 1, 57, 96
1, 28581, Note_on_c, 1, 59, 96
1, 28582, Note_off_c, 1, 59, 96
1, 28591, Note_on_c, 1, 67, 96
1, 28592, Note_off_c, 1, 67, 96
1, 28642, Note_on_c, 1, 49, 96
1, 28643, Note_off_c, 1, 49, 96
1, 28647, Note_on_c, 1, 69, 96
1, 28647, Note_on_c, 1, 61, 96
1, 28649, Note_off_c, 1, 69, 96
1, 28649, Note_off_c, 1, 61, 96
1, 28649, Note_on_c, 1, 42, 96
1, 28650, Note_off_c, 1, 42, 96
1, 28775, Note_on_c, 1, 47, 96
1, 28777, Note_off_c, 1, 47, 96
1, 28777, Note_on_c, 1, 63, 96
1, 28778, Note_off_c, 1, 63, 96
1, 29014, Note_on_c, 1, 62, 96
1, 29015, Note_off_c, 1, 62, 96
1, 29017, Note_on_c, 1, 55, 96
1, 29018, Note_off_c, 1, 55, 96
1, 29021, Note_on_c, 1, 67, 96
1, 29022, Note_off_c, 1, 67, 96
1, 29145, Note_on_c, 1, 59, 96
1, 29147, Note_off_c, 1, 59, 96
1, 29147, Note_on_c, 1, 65, 96
1, 29148, Note_off_c, 1, 65, 96
1, 29208, Note_on_c, 1, 71, 96
1, 29209, Note_off_c, 1, 71, 96
1, 29267, Note_on_c, 1, 55, 96
1, 29268, Note_off_c, 1, 55, 96
1, 29273, Note_on_c, 1, 62, 96
1, 29273, Note_on_c, 1, 59, 96
1, 29275, Note_off_c, 1, 62, 96
1, 29275, Note_off_c, 1, 59, 96
1, 29275, Note_on_c, 1, 65, 96
1, 29276, Note_off_c, 1, 65, 96
1, 29511, Note_on_c, 1, 64, 96
1, 29513, Note_off_c, 1, 64, 96
1, 29513, Note_on_c, 1, 55, 96
1, 29514, Note_off_c, 1, 55, 96
1, 29516, Note_on_c, 1, 47, 96
1, 29518, Note_off_c, 1, 47, 96
1, 29518, Note_on_c, 1, 60, 96
1, 29519, Note_off_c, 1, 60, 96
1, 29760, Note_on_c, 1, 50, 96
1, 29760, Note_on_c, 1, 38, 96
1, 29761, Note_off_c, 1, 50, 96
1, 29761, Note_off_c, 1, 38, 96
1, 29763, Note_on_c, 1, 55, 96
1, 29764, Note_off_c, 1, 55, 96
1, 29879, Note_on_c, 1, 62, 96
1, 29880, Note_off_c, 1, 62, 96
1, 30001, Note_on_c, 1, 48, 96
1, 30002, Note_off_c, 1, 48, 96
1, 30124, Note_on_c, 1, 72, 96
1, 30124, Note_on_c, 1, 69, 96
1, 30126, Note_off_c, 1, 72, 96
1, 30126, Note_off_c, 1, 69, 96
1, 30126, Note_on_c, 1, 52, 96
1, 30127, Note_off_c, 1, 52, 96
1, 30240, Note_on_c, 1, 48, 96
1, 30241, Note_off_c, 1, 48, 96
1, 30244, Note_on_c, 1, 60, 96
1, 30245, Note_off_c, 1, 60, 96
1, 30247, Note_on_c, 1, 75, 96
1, 30249, Note_off_c, 1, 75, 96
1, 30249, Note_on_c, 1, 36, 96
1, 30250, Note_off_c, 1, 36, 96
1, 30307, Note_on_c, 1, 69, 96
1, 30308, Note_off_c, 1, 69, 96
1, 30364, Note_on_c, 1, 72, 96
1, 30365, Note_off_c, 1, 72, 96
1, 30368, Note_on_c, 1, 49, 96
1, 30368, Note_on_c, 1, 37, 96
1, 30369, Note_off_c, 1, 49, 96
1, 30369, Note_off_c, 1, 37, 96
1, 30429, Note_on_c, 1, 76, 96
1, 30431, Note_off_c, 1, 76, 96
1, 30431, Note_on_c, 1, 67, 96
1, 30432, Note_off_c, 1, 67, 96
1, 30491, Note_on_c, 1, 38, 96
1, 30492, Note_off_c, 1, 38, 96
1, 30495, Note_on_c, 1, 50, 96
1, 30496, Note_off_c, 1, 50, 96
1, 30554, Note_on_c, 1, 69, 96
1, 30556, Note_off_c, 1, 69, 96
1, 30556, Note_on_c, 1, 61, 96
1, 30557, Note_off_c, 1, 61, 96
1, 30614, Note_on_c, 1, 64, 96
1, 30616, Note_off_c, 1, 64, 96
1, 30616, Note_on_c, 1, 69, 96
1, 30618, Note_off_c, 1, 69, 96
1, 30618, Note_on_c, 1, 73, 96
1, 30620, Note_off_c, 1, 73, 96
1, 30620, Note_on_c, 1, 64, 96
1, 30622, Note_off_c, 1, 64, 96
1, 30622, Note_on_c, 1, 67, 96
1, 30623, Note_off_c, 1, 67, 96
1, 30741, Note_on_c, 1, 69, 96
1, 30741, Note_on_c, 1, 77, 96
1, 30742, Note_off_c, 1, 69, 96
1, 30742, Note_off_c, 1, 77, 96
1, 30744, Note_on_c, 1, 38, 96
1, 30745, Note_off_c, 1, 38, 96
1, 30984, Note_on_c, 1, 70, 96
1, 30985, Note_off_c, 1, 70, 96
1, 30987, Note_on_c, 1, 51, 96
1, 30989, Note_off_c, 1, 51, 96
1, 30989, Note_on_c, 1, 61, 96
1, 30991, Note_off_c, 1, 61, 96
1, 30991, Note_on_c, 1, 53, 96
1, 30992, Note_off_c, 1, 53, 96
1, 31107, Note_on_c, 1, 43, 96
1, 31108, Note_off_c, 1, 43, 96
1, 31110, Note_on_c, 1, 79, 96
1, 31112, Note_off_c, 1, 79, 96
1, 31112, Note_on_c, 1, 67, 96
1, 31113, Note_off_c, 1, 67, 96
1, 31117, Note_on_c, 1, 74, 96
1, 31117, Note_on_c, 1, 71, 96
1, 31119, Note_off_c, 1, 74, 96
1, 31119, Note_off_c, 1, 71, 96
1, 31119, Note_on_c, 1, 55, 96
1, 31120, Note_off_c, 1, 55, 96
1, 31237, Note_on_c, 1, 43, 96
1, 31238, Note_off_c, 1, 43, 96
1, 31279, Note_on_c, 1, 47, 96
1, 31280, Note_off_c, 1, 47, 96
1, 31319, Note_on_c, 1, 48, 96
1, 31320, Note_off_c, 1, 48, 96
1, 31326, Note_on_c, 1, 64, 96
1, 31326, Note_on_c, 1, 72, 96
1, 31326, Note_on_c, 1, 60, 96
1, 31327, Note_off_c, 1, 64, 96
1, 31327, Note_off_c, 1, 72, 96
1, 31327, Note_off_c, 1, 60, 96
1, 31429, Note_on_c, 1, 76, 96
1, 31429, Note_on_c, 1, 60, 96
1, 31430, Note_off_c, 1, 76, 96
1, 31430, Note_off_c, 1, 60, 96
1, 31432, Note_on_c, 1, 64, 96
1, 31433, Note_off_c, 1, 64, 96
1, 31436, Note_on_c, 1, 72, 96
1, 31437, Note_off_c, 1, 72, 96
1, 31553, Note_on_c, 1, 43, 96
1, 31554, Note_off_c, 1, 43, 96
1, 31673, Note_on_c, 1, 64, 96
1, 31675, Note_off_c, 1, 64, 96
1, 31675, Note_on_c, 1, 55, 96
1, 31676, Note_off_c, 1, 55, 96
1, 31679, Note_on_c, 1, 70, 96
1, 31680, Note_off_c, 1, 70, 96
1, 31797, Note_on_c, 1, 58, 96
1, 31798, Note_off_c, 1, 58, 96
1, 31801, Note_on_c, 1, 60, 96
1, 31802, Note_off_c, 1, 60, 96
1, 31919, Note_on_c, 1, 55, 96
1, 31922, Note_off_c, 1, 55, 96
1, 31922, Note_on_c, 1, 62, 96
1, 31922, Note_on_c, 1, 58, 96
1, 31923, Note_off_c, 1, 62, 96
1, 31923, Note_off_c, 1, 58, 96
1, 32047, Note_on_c, 1, 62, 96
1, 32047, Note_on_c, 1, 47, 96
1, 32048, Note_off_c, 1, 62, 96
1, 32048, Note_off_c, 1, 47, 96
1, 32167, Note_on_c, 1, 43, 96
1, 32168, Note_off_c, 1, 43, 96
1, 32173, Note_on_c, 1, 57, 96
1, 32174, Note_off_c, 1, 57, 96
1, 32230, Note_on_c, 1, 50, 96
1, 32231, Note_off_c, 1, 50, 96
1, 32235, Note_on_c, 1, 38, 96
1, 32236, Note_off_c, 1, 38, 96
1, 32353, Note_on_c, 1, 67, 96
1, 32355, Note_off_c, 1, 67, 96
1, 32355, Note_on_c, 1, 55, 96
1, 32357, Note_off_c, 1, 55, 96
1, 32357, Note_on_c, 1, 64, 96
1, 32359, Note_off_c, 1, 64, 96
1, 32359, Note_on_c, 1, 48, 96
1, 32360, Note_off_c, 1, 48, 96
1, 32362, Note_on_c, 1, 48, 96
1, 32365, Note_off_c, 1, 48, 96
1, 32365, Note_on_c, 1, 60, 96
1, 32365, Note_on_c, 1, 60, 96
1, 32366, Note_off_c, 1, 60, 96
1, 32366, Note_off_c, 1, 60, 96
1, 32422, Note_on_c, 1, 67, 96
1, 32423, Note_off_c, 1, 67, 96
1, 32481, Note_on_c, 1, 48, 96
1, 32483, Note_off_c, 1, 48, 96
1, 32483, Note_on_c, 1, 36, 96
1, 32484, Note_off_c, 1, 36, 96
1, 32487, Note_on_c, 1, 64, 96
1, 32487, Note_on_c, 1, 60, 96
1, 32488, Note_off_c, 1, 64, 96
1, 32488, Note_off_c, 1, 60, 96
1, 32545, Note_on_c, 1, 62, 96
1, 32546, Note_off_c, 1, 62, 96
1, 32606, Note_on_c, 1, 43, 96
1, 32607, Note_off_c, 1, 43, 96
1, 32611, Note_on_c, 1, 67, 96
1, 32612, Note_off_c, 1, 67, 96
1, 32729, Note_on_c, 1, 55, 96
1, 32730, Note_off_c, 1, 55, 96
1, 32971, Note_on_c, 1, 48, 96
1, 32972, Note_off_c, 1, 48, 96
1, 32977, Note_on_c, 1, 72, 96
1, 32978, Note_off_c, 1, 72, 96
1, 33027, Note_on_c, 1, 74, 96
1, 33029, Note_off_c, 1, 74, 96
1, 33029, Note_on_c, 1, 65, 96
1, 33030, Note_off_c, 1, 65, 96
1, 33032, Note_on_c, 1, 43, 96
1, 33034, Note_off_c, 1, 43, 96
1, 33034, Note_on_c, 1, 50, 96
1, 33035, Note_off_c, 1, 50, 96
1, 33154, Note_on_c, 1, 43, 96
1, 33156, Note_off_c, 1, 43, 96
1, 33156, Note_on_c, 1, 55, 96
1, 33157, Note_off_c, 1, 55, 96
1, 33234, Note_on_c, 1, 72, 96
1, 33235, Note_off_c, 1, 72, 96
1, 33255, Note_on_c, 1, 36, 96
1, 33256, Note_off_c, 1, 36, 96
1, 33261, Note_on_c, 1, 64, 96
1, 33262, Note_off_c, 1, 64, 96
1, 33414, Note_on_c, 1, 67, 96
1, 33414, Note_on_c, 1, 52, 96
1, 33414, Note_on_c, 1, 55, 96
1, 33415, Note_off_c, 1, 67, 96
1, 33415, Note_off_c, 1, 52, 96
1, 33415, Note_off_c, 1, 55, 96
1, 33430, Note_on_c, 1, 48, 96
1, 33431, Note_off_c, 1, 48, 96
1, 33443, Note_on_c, 1, 60, 96
1, 33443, Note_on_c, 1, 58, 96
1, 33444, Note_off_c, 1, 60, 96
1, 33444, Note_off_c, 1, 58, 96
1, 33473, Note_on_c, 1, 45, 96
1, 33474, Note_off_c, 1, 45, 96
1, 33537, Note_on_c, 1, 57, 96
1, 33537, Note_on_c, 1, 38, 96
1, 33537, Note_on_c, 1, 50, 96
1, 33537, Note_on_c, 1, 50, 96
1, 33538, Note_off_c, 1, 57, 96
1, 33538, Note_off_c, 1, 38, 96
1, 33538, Note_off_c, 1, 50, 96
1, 33538, Note_off_c, 1, 50, 96
1, 33713, Note_on_c, 1, 52, 96
1, 33714, Note_off_c, 1, 52, 96
1, 33948, Note_on_c, 1, 38, 96
1, 33949, Note_off_c, 1, 38, 96
1, 34095, Note_on_c, 1, 54, 96
1, 34096, Note_off_c, 1, 54, 96
1, 34309, Note_on_c, 1, 64, 96
1, 34310, Note_off_c, 1, 64, 96
1, 34388, Note_on_c, 1, 37, 96
1, 34389, Note_off_c, 1, 37, 96
1, 34508, Note_on_c, 1, 40, 96
1, 34509, Note_off_c, 1, 40, 96
1, 34544, Note_on_c, 1, 38, 96
1, 34545, Note_off_c, 1, 38, 96
1, 34552, Note_on_c, 1, 62, 96
1, 34553, Note_off_c, 1, 62, 96
1, 34778, Note_on_c, 1, 60, 96
1, 34780, Note_off_c, 1, 60, 96
1, 34780, Note_on_c, 1, 69, 96
1, 34781, Note_off_c, 1, 69, 96
1, 34785, Note_on_c, 1, 52, 96
1, 34787, Note_off_c, 1, 52, 96
1, 34787, Note_on_c, 1, 57, 96
1, 34788, Note_off_c, 1, 57, 96
1, 35013, Note_on_c, 1, 55, 96
1, 35014, Note_off_c, 1, 55, 96
1, 35017, Note_on_c, 1, 67, 96
1, 35020, Note_off_c, 1, 67, 96
1, 35020, Note_on_c, 1, 55, 96
1, 35020, Note_on_c, 1, 50, 96
1, 35021, Note_off_c, 1, 55, 96
1, 35021, Note_off_c, 1, 50, 96
1, 35023, Note_on_c, 1, 40, 96
1, 35025, Note_off_c, 1, 40, 96
1, 35025, Note_on_c, 1, 59, 96
1, 35026, Note_off_c, 1, 59, 96
1, 35106, Note_on_c, 1, 57, 96
1, 35107, Note_off_c, 1, 57, 96
1, 35113, Note_on_c, 1, 64, 96
1, 35113, Note_on_c, 1, 45, 96
1, 35114, Note_off_c, 1, 64, 96
1, 35114, Note_off_c, 1, 45, 96
1, 35265, Note_on_c, 1, 39, 96
1, 35266, Note_off_c, 1, 39, 96
1, 35307, Note_on_c, 1, 40, 96
1, 35308, Note_off_c, 1, 40, 96
1, 35328, Note_on_c, 1, 33, 96
1, 35329, Note_off_c, 1, 33, 96
1, 35557, Note_on_c, 1, 45, 96
1, 35558, Note_off_c, 1, 45, 96
1, 35840, Note_on_c, 1, 69, 96
1, 35841, Note_off_c, 1, 69, 96
1, 35914, Note_on_c, 1, 42, 96
1, 35914, Note_on_c, 1, 54, 96
1, 35915, Note_off_c, 1, 42, 96
1, 35915, Note_off_c, 1, 54, 96
1, 36035, Note_on_c, 1, 62, 96
1, 36036, Note_off_c, 1, 62, 96
1, 36102, Note_on_c, 1, 60, 96
1, 36102, Note_on_c, 1, 64, 96
1, 36103, Note_off_c, 1, 60, 96
1, 36103, Note_off_c, 1, 64, 96
1, 36124, Note_on_c, 1, 43, 96
1, 36125, Note_off_c, 1, 43, 96
1, 36509, Note_on_c, 1, 62, 96
1, 36509, Note_on_c, 1, 43, 96
1, 36510, Note_off_c, 1, 62, 96
1, 36510, Note_off_c, 1, 43, 96
1, 36512, Note_on_c, 1, 59, 96
1, 36513, Note_off_c, 1, 59, 96
1, 36750, Note_on_c, 1, 60, 96
1, 36752, Note_off_c, 1, 60, 96
1, 36752, Note_on_c, 1, 57, 96
1, 36753, Note_off_c, 1, 57, 96
1, 36755, Note_on_c, 1, 66, 96
1, 36757, Note_off_c, 1, 66, 96
1, 36757, Note_on_c, 1, 62, 96
1, 36759, Note_off_c, 1, 62, 96
1, 36759, Note_on_c, 1, 50, 96
1, 36760, Note_off_c, 1, 50, 96
1, 36765, Note_on_c, 1, 57, 96
1, 36766, Note_off_c, 1, 57, 96
1, 37015, Note_on_c, 1, 68, 96
1, 37017, Note_off_c, 1, 68, 96
1, 37017, Note_on_c, 1, 45, 96
1, 37018, Note_off_c, 1, 45, 96
1, 37255, Note_on_c, 1, 62, 96
1, 37256, Note_off_c, 1, 62, 96
1, 37499, Note_on_c, 1, 62, 96
1, 37500, Note_off_c, 1, 62, 96
1, 37696, Note_on_c, 1, 67, 96
1, 37697, Note_off_c, 1, 67, 96
1, 37888, Note_on_c, 1, 69, 96
1, 37888, Note_on_c, 1, 55, 96
1, 37889, Note_off_c, 1, 69, 96
1, 37889, Note_off_c, 1, 55, 96
1, 38079, Note_on_c, 1, 67, 96
1, 38079, Note_on_c, 1, 71, 96
1, 38080, Note_off_c, 1, 67, 96
1, 38080, Note_off_c, 1, 71, 96
1, 38201, Note_on_c, 1, 55, 96
1, 38201, Note_on_c, 1, 74, 96
1, 38201, Note_on_c, 1, 67, 96
1, 38201, Note_on_c, 1, 79, 96
1, 38201, Note_on_c, 1, 62, 96
1, 38201, Note_on_c, 1, 59, 96
1, 38202, Note_off_c, 1, 55, 96
1, 38202, Note_off_c, 1, 74, 96
1, 38202, Note_off_c, 1, 67, 96
1, 38202, Note_off_c, 1, 79, 96
1, 38202, Note_off_c, 1, 62, 96
1, 38202, Note_off_c, 1, 59, 96
1, 38328, Note_on_c, 1, 78, 96
1, 38328, Note_on_c, 1, 75, 96
1, 38328, Note_on_c, 1, 66, 96
1, 38328, Note_on_c, 1, 57, 96
1, 38328, Note_on_c, 1, 59, 96
1, 38329, Note_off_c, 1, 78, 96
1, 38329, Note_off_c, 1, 75, 96
1, 38329, Note_off_c, 1, 66, 96
1, 38329, Note_off_c, 1, 57, 96
1, 38329, Note_off_c, 1, 59, 96
1, 38428, Note_on_c, 1, 66, 96
1, 38428, Note_on_c, 1, 78, 96
1, 38428, Note_on_c, 1, 54, 96
1, 38428, Note_on_c, 1, 62, 96
1, 38429, Note_off_c, 1, 66, 96
1, 38429, Note_off_c, 1, 78, 96
1, 38429, Note_off_c, 1, 54, 96
1, 38429, Note_off_c, 1, 62, 96
1, 38616, Note_on_c, 1, 71, 96
1, 38616, Note_on_c, 1, 52, 96
1, 38617, Note_off_c, 1, 71, 96
1, 38617, Note_off_c, 1, 52, 96
1, 38736, Note_on_c, 1, 78, 96
1, 38737, Note_off_c, 1, 78, 96
1, 38857, Note_on_c, 1, 72, 96
1, 38857, Note_on_c, 1, 62, 96
1, 38858, Note_off_c, 1, 72, 96
1, 38858, Note_off_c, 1, 62, 96
1, 38862, Note_on_c, 1, 66, 96
1, 38862, Note_on_c, 1, 69, 96
1, 38863, Note_off_c, 1, 66, 96
1, 38863, Note_off_c, 1, 69, 96
1, 39096, Note_on_c, 1, 62, 96
1, 39097, Note_off_c, 1, 62, 96
1, 39219, Note_on_c, 1, 54, 96
1, 39220, Note_off_c, 1, 54, 96
1, 39222, Note_on_c, 1, 71, 96
1, 39223, Note_off_c, 1, 71, 96
1, 39399, Note_on_c, 1, 52, 96
1, 39400, Note_off_c, 1, 52, 96
1, 39406, Note_on_c, 1, 71, 96
1, 39407, Note_off_c, 1, 71, 96
1, 39524, Note_on_c, 1, 67, 96
1, 39525, Note_off_c, 1, 67, 96
1, 39530, Note_on_c, 1, 71, 96
1, 39530, Note_on_c, 1, 79, 96
1, 39530, Note_on_c, 1, 55, 96
1, 39531, Note_off_c, 1, 71, 96
1, 39531, Note_off_c, 1, 79, 96
1, 39531, Note_off_c, 1, 55, 96
1, 39533, Note_on_c, 1, 76, 96
1, 39534, Note_off_c, 1, 76, 96
1, 39653, Note_on_c, 1, 78, 96
1, 39654, Note_off_c, 1, 78, 96
1, 39776, Note_on_c, 1, 70, 96
1, 39778, Note_off_c, 1, 70, 96
1, 39778, Note_on_c, 1, 76, 96
1, 39779, Note_off_c, 1, 76, 96
1, 39893, Note_on_c, 1, 57, 96
1, 39894, Note_off_c, 1, 57, 96
1, 39897, Note_on_c, 1, 57, 96
1, 39898, Note_off_c, 1, 57, 96
1, 40018, Note_on_c, 1, 60, 96
1, 40018, Note_on_c, 1, 38, 96
1, 40020, Note_off_c, 1, 60, 96
1, 40020, Note_off_c, 1, 38, 96
1, 40020, Note_on_c, 1, 50, 96
1, 40021, Note_off_c, 1, 50, 96
1, 40195, Note_on_c, 1, 58, 96
1, 40196, Note_off_c, 1, 58, 96
1, 40202, Note_on_c, 1, 66, 96
1, 40202, Note_on_c, 1, 62, 96
1, 40203, Note_off_c, 1, 66, 96
1, 40203, Note_off_c, 1, 62, 96
1, 40405, Note_on_c, 1, 38, 96
1, 40406, Note_off_c, 1, 38, 96
1, 40408, Note_on_c, 1, 50, 96
1, 40409, Note_off_c, 1, 50, 96
1, 40648, Note_on_c, 1, 76, 96
1, 40649, Note_off_c, 1, 76, 96
1, 40775, Note_on_c, 1, 67, 96
1, 40775, Note_on_c, 1, 79, 96
1, 40775, Note_on_c, 1, 35, 96
1, 40775, Note_on_c, 1, 47, 96
1, 40776, Note_off_c, 1, 67, 96
1, 40776, Note_off_c, 1, 79, 96
1, 40776, Note_off_c, 1, 35, 96
1, 40776, Note_off_c, 1, 47, 96
1, 41020, Note_on_c, 1, 69, 96
1, 41020, Note_on_c, 1, 77, 96
1, 41020, Note_on_c, 1, 72, 96
1, 41020, Note_on_c, 1, 60, 96
1, 41020, Note_on_c, 1, 53, 96
1, 41020, Note_on_c, 1, 41, 96
1, 41021, Note_off_c, 1, 69, 96
1, 41021, Note_off_c, 1, 77, 96
1, 41021, Note_off_c, 1, 72, 96
1, 41021, Note_off_c, 1, 60, 96
1, 41021, Note_off_c, 1, 53, 96
1, 41021, Note_off_c, 1, 41, 96
1, 41212, Note_on_c, 1, 57, 96
1, 41213, Note_off_c, 1, 57, 96
1, 41217, Note_on_c, 1, 60, 96
1, 41217, Note_on_c, 1, 54, 96
1, 41218, Note_off_c, 1, 60, 96
1, 41218, Note_off_c, 1, 54, 96
1, 41459, Note_on_c, 1, 72, 96
1, 41459, Note_on_c, 1, 69, 96
1, 41459, Note_on_c, 1, 63, 96
1, 41460, Note_off_c, 1, 72, 96
1, 41460, Note_off_c, 1, 69, 96
1, 41460, Note_off_c, 1, 63, 96
1, 41462, Note_on_c, 1, 45, 96
1, 41463, Note_off_c, 1, 45, 96
1, 41584, Note_on_c, 1, 76, 96
1, 41585, Note_off_c, 1, 76, 96
1, 41589, Note_on_c, 1, 79, 96
1, 41589, Note_on_c, 1, 69, 96
1, 41590, Note_off_c, 1, 79, 96
1, 41590, Note_off_c, 1, 69, 96
1, 41707, Note_on_c, 1, 41, 96
1, 41707, Note_on_c, 1, 53, 96
1, 41708, Note_off_c, 1, 41, 96
1, 41708, Note_off_c, 1, 53, 96
1, 41949, Note_on_c, 1, 59, 96
1, 41949, Note_on_c, 1, 65, 96
1, 41950, Note_off_c, 1, 59, 96
1, 41950, Note_off_c, 1, 65, 96
1, 41955, Note_on_c, 1, 77, 96
1, 41955, Note_on_c, 1, 38, 96
1, 41955, Note_on_c, 1, 76, 96
1, 41956, Note_off_c, 1, 77, 96
1, 41956, Note_off_c, 1, 38, 96
1, 41956, Note_off_c, 1, 76, 96
1, 41959, Note_on_c, 1, 45, 96
1, 41960, Note_off_c, 1, 45, 96
1, 42079, Note_on_c, 1, 74, 96
1, 42079, Note_on_c, 1, 79, 96
1, 42079, Note_on_c, 1, 43, 96
1, 42081, Note_off_c, 1, 74, 96
1, 42081, Note_off_c, 1, 79, 96
1, 42081, Note_off_c, 1, 43, 96
1, 42081, Note_on_c, 1, 71, 96
1, 42082, Note_off_c, 1, 71, 96
1, 42320, Note_on_c, 1, 59, 96
1, 42321, Note_off_c, 1, 59, 96
1, 42323, Note_on_c, 1, 47, 96
1, 42324, Note_off_c, 1, 47, 96
1, 42328, Note_on_c, 1, 35, 96
1, 42329, Note_off_c, 1, 35, 96
1, 42569, Note_on_c, 1, 55, 96
1, 42570, Note_off_c, 1, 55, 96
1, 42750, Note_on_c, 1, 42, 96
1, 42751, Note_off_c, 1, 42, 96
1, 43411, Note_on_c, 1, 64, 96
1, 43412, Note_off_c, 1, 64, 96
1, 43420, Note_on_c, 1, 35, 96
1, 43421, Note_off_c, 1, 35, 96
1, 43423, Note_on_c, 1, 59, 96
1, 43424, Note_off_c, 1, 59, 96
1, 43432, Note_on_c, 1, 47, 96
1, 43433, Note_off_c, 1, 47, 96
1, 43443, Note_on_c, 1, 62, 96
1, 43444, Note_off_c, 1, 62, 96
1, 43732, Note_on_c, 1, 57, 96
1, 43732, Note_on_c, 1, 63, 96
1, 43732, Note_on_c, 1, 45, 96
1, 43733, Note_off_c, 1, 57, 96
1, 43733, Note_off_c, 1, 63, 96
1, 43733, Note_off_c, 1, 45, 96
1, 43918, Note_on_c, 1, 64, 96
1, 43919, Note_off_c, 1, 64, 96
1, 43930, Note_on_c, 1, 40, 96
1, 43931, Note_off_c, 1, 40, 96
1, 44133, Note_on_c, 1, 45, 96
1, 44134, Note_off_c, 1, 45, 96
1, 44137, Note_on_c, 1, 72, 96
1, 44138, Note_off_c, 1, 72, 96
1, 44495, Note_on_c, 1, 64, 96
1, 44496, Note_off_c, 1, 64, 96
1, 44552, Note_on_c, 1, 60, 96
1, 44554, Note_off_c, 1, 60, 96
1, 44554, Note_on_c, 1, 68, 96
1, 44555, Note_off_c, 1, 68, 96
1, 44557, Note_on_c, 1, 44, 96
1, 44558, Note_off_c, 1, 44, 96
1, 44560, Note_on_c, 1, 45, 96
1, 44561, Note_off_c, 1, 45, 96
1, 44635, Note_on_c, 1, 70, 96
1, 44636, Note_off_c, 1, 70, 96
1, 44672, Note_on_c, 1, 69, 96
1, 44673, Note_off_c, 1, 69, 96
1, 44720, Note_on_c, 1, 57, 96
1, 44720, Note_on_c, 1, 60, 96
1, 44720, Note_on_c, 1, 65, 96
1, 44721, Note_off_c, 1, 57, 96
1, 44721, Note_off_c, 1, 60, 96
1, 44721, Note_off_c, 1, 65, 96
1, 44840, Note_on_c, 1, 37, 96
1, 44841, Note_off_c, 1, 37, 96
1, 44843, Note_on_c, 1, 40, 96
1, 44844, Note_off_c, 1, 40, 96
1, 44846, Note_on_c, 1, 67, 96
1, 44847, Note_off_c, 1, 67, 96
1, 44966, Note_on_c, 1, 64, 96
1, 44968, Note_off_c, 1, 64, 96
1, 44968, Note_on_c, 1, 33, 96
1, 44970, Note_off_c, 1, 33, 96
1, 44970, Note_on_c, 1, 45, 96
1, 44971, Note_off_c, 1, 45, 96
1, 44973, Note_on_c, 1, 76, 96
1, 44974, Note_off_c, 1, 76, 96
1, 45087, Note_on_c, 1, 66, 96
1, 45088, Note_off_c, 1, 66, 96
1, 45091, Note_on_c, 1, 42, 96
1, 45093, Note_off_c, 1, 42, 96
1, 45093, Note_on_c, 1, 71, 96
1, 45095, Note_off_c, 1, 71, 96
1, 45095, Note_on_c, 1, 54, 96
1, 45096, Note_off_c, 1, 54, 96
1, 45208, Note_on_c, 1, 55, 96
1, 45209, Note_off_c, 1, 55, 96
1, 45214, Note_on_c, 1, 59, 96
1, 45215, Note_off_c, 1, 59, 96
1, 45334, Note_on_c, 1, 42, 96
1, 45334, Note_on_c, 1, 30, 96
1, 45335, Note_off_c, 1, 42, 96
1, 45335, Note_off_c, 1, 30, 96
1, 45394, Note_on_c, 1, 71, 96
1, 45395, Note_off_c, 1, 71, 96
1, 45519, Note_on_c, 1, 64, 96
1, 45521, Note_off_c, 1, 64, 96
1, 45521, Note_on_c, 1, 55, 96
1, 45523, Note_off_c, 1, 55, 96
1, 45523, Note_on_c, 1, 58, 96
1, 45524, Note_off_c, 1, 58, 96
1, 45526, Note_on_c, 1, 67, 96
1, 45527, Note_off_c, 1, 67, 96
1, 45646, Note_on_c, 1, 70, 96
1, 45647, Note_off_c, 1, 70, 96
1, 45705, Note_on_c, 1, 64, 96
1, 45707, Note_off_c, 1, 64, 96
1, 45707, Note_on_c, 1, 36, 96
1, 45708, Note_off_c, 1, 36, 96
1, 45710, Note_on_c, 1, 76, 96
1, 45711, Note_off_c, 1, 76, 96
1, 45713, Note_on_c, 1, 48, 96
1, 45714, Note_off_c, 1, 48, 96
1, 45828, Note_on_c, 1, 53, 96
1, 45829, Note_off_c, 1, 53, 96
1, 45831, Note_on_c, 1, 67, 96
1, 45832, Note_off_c, 1, 67, 96
1, 45834, Note_on_c, 1, 68, 96
1, 45836, Note_off_c, 1, 68, 96
1, 45836, Note_on_c, 1, 70, 96
1, 45838, Note_off_c, 1, 70, 96
1, 45838, Note_on_c, 1, 62, 96
1, 45839, Note_off_c, 1, 62, 96
1, 45952, Note_on_c, 1, 59, 96
1, 45954, Note_off_c, 1, 59, 96
1, 45954, Note_on_c, 1, 56, 96
1, 45955, Note_off_c, 1, 56, 96
1, 45958, Note_on_c, 1, 68, 96
1, 45958, Note_on_c, 1, 47, 96
1, 45959, Note_off_c, 1, 68, 96
1, 45959, Note_off_c, 1, 47, 96
1, 45961, Note_on_c, 1, 56, 96
1, 45962, Note_off_c, 1, 56, 96
1, 46081, Note_on_c, 1, 69, 96
1, 46084, Note_off_c, 1, 69, 96
1, 46084, Note_on_c, 1, 48, 96
1, 46084, Note_on_c, 1, 60, 96
1, 46087, Note_off_c, 1, 48, 96
1, 46087, Note_off_c, 1, 60, 96
1, 46087, Note_on_c, 1, 64, 96
1, 46087, Note_on_c, 1, 36, 96
1, 46088, Note_off_c, 1, 64, 96
1, 46088, Note_off_c, 1, 36, 96
1, 46090, Note_on_c, 1, 48, 96
1, 46091, Note_off_c, 1, 48, 96
1, 46207, Note_on_c, 1, 72, 96
1, 46208, Note_off_c, 1, 72, 96
1, 46212, Note_on_c, 1, 69, 96
1, 46212, Note_on_c, 1, 36, 96
1, 46214, Note_off_c, 1, 69, 96
1, 46214, Note_off_c, 1, 36, 96
1, 46214, Note_on_c, 1, 48, 96
1, 46215, Note_off_c, 1, 48, 96
1, 46309, Note_on_c, 1, 75, 96
1, 46310, Note_off_c, 1, 75, 96
1, 46328, Note_on_c, 1, 41, 96
1, 46329, Note_off_c, 1, 41, 96
1, 46331, Note_on_c, 1, 53, 96
1, 46332, Note_off_c, 1, 53, 96
1, 46513, Note_on_c, 1, 63, 96
1, 46514, Note_off_c, 1, 63, 96
1, 46634, Note_on_c, 1, 36, 96
1, 46635, Note_off_c, 1, 36, 96
1, 46713, Note_on_c, 1, 60, 96
1, 46714, Note_off_c, 1, 60, 96
1, 46794, Note_on_c, 1, 48, 96
1, 46795, Note_off_c, 1, 48, 96
1, 46811, Note_on_c, 1, 60, 96
1, 46812, Note_off_c, 1, 60, 96
1, 46827, Note_on_c, 1, 43, 96
1, 46829, Note_off_c, 1, 43, 96
1, 46829, Note_on_c, 1, 64, 96
1, 46831, Note_off_c, 1, 64, 96
1, 46831, Note_on_c, 1, 36, 96
1, 46832, Note_off_c, 1, 36, 96
1, 46953, Note_on_c, 1, 61, 96
1, 46955, Note_off_c, 1, 61, 96
1, 46955, Note_on_c, 1, 49, 96
1, 46957, Note_off_c, 1, 49, 96
1, 46957, Note_on_c, 1, 61, 96
1, 46958, Note_off_c, 1, 61, 96
1, 47074, Note_on_c, 1, 61, 96
1, 47075, Note_off_c, 1, 61, 96
1, 47132, Note_on_c, 1, 55, 96
1, 47133, Note_off_c, 1, 55, 96
1, 47135, Note_on_c, 1, 61, 96
1, 47137, Note_off_c, 1, 61, 96
1, 47137, Note_on_c, 1, 70, 96
1, 47138, Note_off_c, 1, 70, 96
1, 47200, Note_on_c, 1, 64, 96
1, 47201, Note_off_c, 1, 64, 96
1, 47203, Note_on_c, 1, 74, 96
1, 47205, Note_off_c, 1, 74, 96
1, 47205, Note_on_c, 1, 69, 96
1, 47206, Note_off_c, 1, 69, 96
1, 47259, Note_on_c, 1, 41, 96
1, 47260, Note_off_c, 1, 41, 96
1, 47263, Note_on_c, 1, 48, 96
1, 47264, Note_off_c, 1, 48, 96
1, 47380, Note_on_c, 1, 66, 96
1, 47381, Note_off_c, 1, 66, 96
1, 47618, Note_on_c, 1, 62, 96
1, 47619, Note_off_c, 1, 62, 96
1, 47622, Note_on_c, 1, 70, 96
1, 47622, Note_on_c, 1, 43, 96
1, 47623, Note_off_c, 1, 70, 96
1, 47623, Note_off_c, 1, 43, 96
1, 47869, Note_on_c, 1, 67, 96
1, 47869, Note_on_c, 1, 39, 96
1, 47869, Note_on_c, 1, 46, 96
1, 47869, Note_on_c, 1, 58, 96
1, 47870, Note_off_c, 1, 67, 96
1, 47870, Note_off_c, 1, 39, 96
1, 47870, Note_off_c, 1, 46, 96
1, 47870, Note_off_c, 1, 58, 96
1, 48108, Note_on_c, 1, 55, 96
1, 48109, Note_off_c, 1, 55, 96
1, 48115, Note_on_c, 1, 43, 96
1, 48116, Note_off_c, 1, 43, 96
1, 48530, Note_on_c, 1, 84, 96
1, 48530, Note_on_c, 1, 89, 96
1, 48530, Note_on_c, 1, 79, 96
1, 48530, Note_on_c, 1, 41, 96
1, 48535, Note_off_c, 1, 84, 96
1, 48535, Note_off_c, 1, 89, 96
1, 48535, Note_off_c, 1, 79, 96
1, 48535, Note_off_c, 1, 41, 96
1, 48535, Note_on_c, 1, 72, 96
1, 48535, Note_on_c, 1, 77, 96
1, 48535, Note_on_c, 1, 53, 96
1, 48535, Note_on_c, 1, 65, 96
1, 48536, Note_off_c, 1, 72, 96
1, 48536, Note_off_c, 1, 77, 96
1, 48536, Note_off_c, 1, 53, 96
1, 48536, Note_off_c, 1, 65, 96
1, 48660, Note_on_c, 1, 81, 96
1, 48660, Note_on_c, 1, 75, 96
1, 48660, Note_on_c, 1, 69, 96
1, 48660, Note_on_c, 1, 48, 96
1, 48661, Note_off_c, 1, 81, 96
1, 48661, Note_off_c, 1, 75, 96
1, 48661, Note_off_c, 1, 69, 96
1, 48661, Note_off_c, 1, 48, 96
1, 48721, Note_on_c, 1, 75, 96
1, 48722, Note_off_c, 1, 75, 96
1, 48738, Note_on_c, 1, 77, 96
1, 48739, Note_off_c, 1, 77, 96
1, 48757, Note_on_c, 1, 77, 96
1, 48757, Note_on_c, 1, 45, 96
1, 48758, Note_off_c, 1, 77, 96
1, 48758, Note_off_c, 1, 45, 96
1, 48857, Note_on_c, 1, 77, 96
1, 48857, Note_on_c, 1, 83, 96
1, 48857, Note_on_c, 1, 59, 96
1, 48857, Note_on_c, 1, 62, 96
1, 48858, Note_off_c, 1, 77, 96
1, 48858, Note_off_c, 1, 83, 96
1, 48858, Note_off_c, 1, 59, 96
1, 48858, Note_off_c, 1, 62, 96
1, 48916, Note_on_c, 1, 81, 96
1, 48917, Note_off_c, 1, 81, 96
1, 48975, Note_on_c, 1, 74, 96
1, 48977, Note_off_c, 1, 74, 96
1, 48977, Note_on_c, 1, 77, 96
1, 48978, Note_off_c, 1, 77, 96
1, 49038, Note_on_c, 1, 79, 96
1, 49039, Note_off_c, 1, 79, 96
1, 49100, Note_on_c, 1, 44, 96
1, 49100, Note_on_c, 1, 56, 96
1, 49102, Note_off_c, 1, 44, 96
1, 49102, Note_off_c, 1, 56, 96
1, 49102, Note_on_c, 1, 70, 96
1, 49104, Note_off_c, 1, 70, 96
1, 49104, Note_on_c, 1, 76, 96
1, 49105, Note_off_c, 1, 76, 96
1, 49161, Note_on_c, 1, 76, 96
1, 49163, Note_off_c, 1, 76, 96
1, 49163, Note_on_c, 1, 70, 96
1, 49164, Note_off_c, 1, 70, 96
1, 49221, Note_on_c, 1, 40, 96
1, 49221, Note_on_c, 1, 52, 96
1, 49222, Note_off_c, 1, 40, 96
1, 49222, Note_off_c, 1, 52, 96
1, 49226, Note_on_c, 1, 71, 96
1, 49229, Note_off_c, 1, 71, 96
1, 49229, Note_on_c, 1, 68, 96
1, 49229, Note_on_c, 1, 79, 96
1, 49230, Note_off_c, 1, 68, 96
1, 49230, Note_off_c, 1, 79, 96
1, 49346, Note_on_c, 1, 54, 96
1, 49347, Note_off_c, 1, 54, 96
1, 49405, Note_on_c, 1, 50, 96
1, 49407, Note_off_c, 1, 50, 96
1, 49407, Note_on_c, 1, 67, 96
1, 49409, Note_off_c, 1, 67, 96
1, 49409, Note_on_c, 1, 79, 96
1, 49410, Note_off_c, 1, 79, 96
1, 49412, Note_on_c, 1, 59, 96
1, 49413, Note_off_c, 1, 59, 96
1, 49534, Note_on_c, 1, 77, 96
1, 49535, Note_off_c, 1, 77, 96
1, 49593, Note_on_c, 1, 76, 96
1, 49594, Note_off_c, 1, 76, 96
1, 49653, Note_on_c, 1, 64, 96
1, 49655, Note_off_c, 1, 64, 96
1, 49655, Note_on_c, 1, 72, 96
1, 49657, Note_off_c, 1, 72, 96
1, 49657, Note_on_c, 1, 55, 96
1, 49658, Note_off_c, 1, 55, 96
1, 49717, Note_on_c, 1, 71, 96
1, 49718, Note_off_c, 1, 71, 96
1, 49775, Note_on_c, 1, 69, 96
1, 49775, Note_on_c, 1, 45, 96
1, 49776, Note_off_c, 1, 69, 96
1, 49776, Note_off_c, 1, 45, 96
1, 49779, Note_on_c, 1, 57, 96
1, 49780, Note_off_c, 1, 57, 96
1, 49903, Note_on_c, 1, 59, 96
1, 49903, Note_on_c, 1, 47, 96
1, 49905, Note_off_c, 1, 59, 96
1, 49905, Note_off_c, 1, 47, 96
1, 49905, Note_on_c, 1, 71, 96
1, 49906, Note_off_c, 1, 71, 96
1, 50020, Note_on_c, 1, 59, 96
1, 50022, Note_off_c, 1, 59, 96
1, 50022, Note_on_c, 1, 55, 96
1, 50024, Note_off_c, 1, 55, 96
1, 50024, Note_on_c, 1, 74, 96
1, 50025, Note_off_c, 1, 74, 96
1, 50029, Note_on_c, 1, 53, 96
1, 50030, Note_off_c, 1, 53, 96
1, 50087, Note_on_c, 1, 69, 96
1, 50087, Note_on_c, 1, 65, 96
1, 50088, Note_off_c, 1, 69, 96
1, 50088, Note_off_c, 1, 65, 96
1, 50150, Note_on_c, 1, 69, 96
1, 50150, Note_on_c, 1, 53, 96
1, 50152, Note_off_c, 1, 69, 96
1, 50152, Note_off_c, 1, 53, 96
1, 50152, Note_on_c, 1, 76, 96
1, 50153, Note_off_c, 1, 76, 96
1, 50156, Note_on_c, 1, 55, 96
1, 50158, Note_off_c, 1, 55, 96
1, 50158, Note_on_c, 1, 65, 96
1, 50159, Note_off_c, 1, 65, 96
1, 50213, Note_on_c, 1, 71, 96
1, 50214, Note_off_c, 1, 71, 96
1, 50216, Note_on_c, 1, 65, 96
1, 50217, Note_off_c, 1, 65, 96
1, 50220, Note_on_c, 1, 74, 96
1, 50221, Note_off_c, 1, 74, 96
1, 50282, Note_on_c, 1, 67, 96
1, 50282, Note_on_c, 1, 36, 96
1, 50282, Note_on_c, 1, 48, 96
1, 50283, Note_off_c, 1, 67, 96
1, 50283, Note_off_c, 1, 36, 96
1, 50283, Note_off_c, 1, 48, 96
1, 50399, Note_on_c, 1, 76, 96
1, 50400, Note_off_c, 1, 76, 96
1, 50402, Note_on_c, 1, 48, 96
1, 50403, Note_off_c, 1, 48, 96
1, 50406, Note_on_c, 1, 81, 96
1, 50408, Note_off_c, 1, 81, 96
1, 50408, Note_on_c, 1, 36, 96
1, 50409, Note_off_c, 1, 36, 96
1, 50523, Note_on_c, 1, 70, 96
1, 50524, Note_off_c, 1, 70, 96
1, 50526, Note_on_c, 1, 49, 96
1, 50528, Note_off_c, 1, 49, 96
1, 50528, Note_on_c, 1, 81, 96
1, 50530, Note_off_c, 1, 81, 96
1, 50530, Note_on_c, 1, 73, 96
1, 50531, Note_off_c, 1, 73, 96
1, 50646, Note_on_c, 1, 57, 96
1, 50647, Note_off_c, 1, 57, 96
1, 50649, Note_on_c, 1, 61, 96
1, 50650, Note_off_c, 1, 61, 96
1, 50652, Note_on_c, 1, 55, 96
1, 50653, Note_off_c, 1, 55, 96
1, 50770, Note_on_c, 1, 64, 96
1, 50771, Note_off_c, 1, 64, 96
1, 50773, Note_on_c, 1, 70, 96
1, 50774, Note_off_c, 1, 70, 96
1, 50779, Note_on_c, 1, 61, 96
1, 50779, Note_on_c, 1, 72, 96
1, 50779, Note_on_c, 1, 52, 96
1, 50779, Note_on_c, 1, 40, 96
1, 50780, Note_off_c, 1, 61, 96
1, 50780, Note_off_c, 1, 72, 96
1, 50780, Note_off_c, 1, 52, 96
1, 50780, Note_off_c, 1, 40, 96
1, 50837, Note_on_c, 1, 62, 96
1, 50840, Note_off_c, 1, 62, 96
1, 50840, Note_on_c, 1, 66, 96
1, 50840, Note_on_c, 1, 69, 96
1, 50841, Note_off_c, 1, 66, 96
1, 50841, Note_off_c, 1, 69, 96
1, 50905, Note_on_c, 1, 63, 96
1, 50905, Note_on_c, 1, 72, 96
1, 50905, Note_on_c, 1, 67, 96
1, 50906, Note_off_c, 1, 63, 96
1, 50906, Note_off_c, 1, 72, 96
1, 50906, Note_off_c, 1, 67, 96
1, 50949, Note_on_c, 1, 65, 96
1, 50949, Note_on_c, 1, 69, 96
1, 50949, Note_on_c, 1, 48, 96
1, 50949, Note_on_c, 1, 57, 96
1, 50950, Note_off_c, 1, 65, 96
1, 50950, Note_off_c, 1, 69, 96
1, 50950, Note_off_c, 1, 48, 96
1, 50950, Note_off_c, 1, 57, 96
1, 51050, Note_on_c, 1, 65, 96
1, 51050, Note_on_c, 1, 72, 96
1, 51050, Note_on_c, 1, 60, 96
1, 51050, Note_on_c, 1, 57, 96
1, 51050, Note_on_c, 1, 53, 96
1, 51051, Note_off_c, 1, 65, 96
1, 51051, Note_off_c, 1, 72, 96
1, 51051, Note_off_c, 1, 60, 96
1, 51051, Note_off_c, 1, 57, 96
1, 51051, Note_off_c, 1, 53, 96
1, 51148, Note_on_c, 1, 53, 96
1, 51148, Note_on_c, 1, 57, 96
1, 51149, Note_off_c, 1, 53, 96
1, 51149, Note_off_c, 1, 57, 96
1, 51197, Note_on_c, 1, 65, 96
1, 51198, Note_off_c, 1, 65, 96
1, 51248, Note_on_c, 1, 65, 96
1, 51248, Note_on_c, 1, 56, 96
1, 51248, Note_on_c, 1, 44, 96
1, 51249, Note_off_c, 1, 65, 96
1, 51249, Note_off_c, 1, 56, 96
1, 51249, Note_off_c, 1, 44, 96
1, 51297, Note_on_c, 1, 77, 96
1, 51298, Note_off_c, 1, 77, 96
1, 51346, Note_on_c, 1, 79, 96
1, 51347, Note_off_c, 1, 79, 96
1, 51397, Note_on_c, 1, 71, 96
1, 51397, Note_on_c, 1, 74, 96
1, 51397, Note_on_c, 1, 31, 96
1, 51398, Note_off_c, 1, 71, 96
1, 51398, Note_off_c, 1, 74, 96
1, 51398, Note_off_c, 1, 31, 96
1, 51446, Note_on_c, 1, 81, 96
1, 51447, Note_off_c, 1, 81, 96
1, 51498, Note_on_c, 1, 86, 96
1, 51498, Note_on_c, 1, 57, 96
1, 51498, Note_on_c, 1, 65, 96
1, 51498, Note_on_c, 1, 60, 96
1, 51499, Note_off_c, 1, 86, 96
1, 51499, Note_off_c, 1, 57, 96
1, 51499, Note_off_c, 1, 65, 96
1, 51499, Note_off_c, 1, 60, 96
1, 51600, Note_on_c, 1, 84, 96
1, 51600, Note_on_c, 1, 72, 96
1, 51600, Note_on_c, 1, 77, 96
1, 51600, Note_on_c, 1, 81, 96
1, 51600, Note_on_c, 1, 36, 96
1, 51600, Note_on_c, 1, 48, 96
1, 51601, Note_off_c, 1, 84, 96
1, 51601, Note_off_c, 1, 72, 96
1, 51601, Note_off_c, 1, 77, 96
1, 51601, Note_off_c, 1, 81, 96
1, 51601, Note_off_c, 1, 36, 96
1, 51601, Note_off_c, 1, 48, 96
1, 51700, Note_on_c, 1, 73, 96
1, 51700, Note_on_c, 1, 85, 96
1, 51700, Note_on_c, 1, 45, 96
1, 51700, Note_on_c, 1, 57, 96
1, 51701, Note_off_c, 1, 73, 96
1, 51701, Note_off_c, 1, 85, 96
1, 51701, Note_off_c, 1, 45, 96
1, 51701, Note_off_c, 1, 57, 96
1, 51752, Note_on_c, 1, 72, 96
1, 51752, Note_on_c, 1, 78, 96
1, 51752, Note_on_c, 1, 84, 96
1, 51752, Note_on_c, 1, 81, 96
1, 51753, Note_off_c, 1, 72, 96
1, 51753, Note_off_c, 1, 78, 96
1, 51753, Note_off_c, 1, 84, 96
1, 51753, Note_off_c, 1, 81, 96
1, 51803, Note_on_c, 1, 54, 96
1, 51803, Note_on_c, 1, 57, 96
1, 51803, Note_on_c, 1, 60, 96
1, 51804, Note_off_c, 1, 54, 96
1, 51804, Note_off_c, 1, 57, 96
1, 51804, Note_off_c, 1, 60, 96
1, 51852, Note_on_c, 1, 50, 96
1, 51853, Note_off_c, 1, 50, 96
1, 51952, Note_on_c, 1, 63, 96
1, 51952, Note_on_c, 1, 66, 96
1, 51952, Note_on_c, 1, 69, 96
1, 51952, Note_on_c, 1, 78, 96
1, 51953, Note_off_c, 1, 63, 96
1, 51953, Note_off_c, 1, 66, 96
1, 51953, Note_off_c, 1, 69, 96
1, 51953, Note_off_c, 1, 78, 96
1, 52002, Note_on_c, 1, 60, 96
1, 52002, Note_on_c, 1, 72, 96
1, 52003, Note_off_c, 1, 60, 96
1, 52003, Note_off_c, 1, 72, 96
1, 52054, Note_on_c, 1, 82, 96
1, 52054, Note_on_c, 1, 54, 96
1, 52054, Note_on_c, 1, 60, 96
1, 52054, Note_on_c, 1, 48, 96
1, 52055, Note_off_c, 1, 82, 96
1, 52055, Note_off_c, 1, 54, 96
1, 52055, Note_off_c, 1, 60, 96
1, 52055, Note_off_c, 1, 48, 96
1, 52104, Note_on_c, 1, 80, 96
1, 52104, Note_on_c, 1, 72, 96
1, 52105, Note_off_c, 1, 80, 96
1, 52105, Note_off_c, 1, 72, 96
1, 52157, Note_on_c, 1, 86, 96
1, 52157, Note_on_c, 1, 82, 96
1, 52157, Note_on_c, 1, 74, 96
1, 52157, Note_on_c, 1, 53, 96
1, 52157, Note_on_c, 1, 41, 96
1, 52158, Note_off_c, 1, 86, 96
1, 52158, Note_off_c, 1, 82, 96
1, 52158, Note_off_c, 1, 74, 96
1, 52158, Note_off_c, 1, 53, 96
1, 52158, Note_off_c, 1, 41, 96
1, 52256, Note_on_c, 1, 57, 96
1, 52256, Note_on_c, 1, 60, 96
1, 52256, Note_on_c, 1, 65, 96
1, 52257, Note_off_c, 1, 57, 96
1, 52257, Note_off_c, 1, 60, 96
1, 52257, Note_off_c, 1, 65, 96
1, 52359, Note_on_c, 1, 74, 96
1, 52359, Note_on_c, 1, 81, 96
1, 52359, Note_on_c, 1, 77, 96
1, 52359, Note_on_c, 1, 69, 96
1, 52359, Note_on_c, 1, 60, 96
1, 52359, Note_on_c, 1, 65, 96
1, 52359, Note_on_c, 1, 57, 96
1, 52360, Note_off_c, 1, 74, 96
1, 52360, Note_off_c, 1, 81, 96
1, 52360, Note_off_c, 1, 77, 96
1, 52360, Note_off_c, 1, 69, 96
1, 52360, Note_off_c, 1, 60, 96
1, 52360, Note_off_c, 1, 65, 96
1, 52360, Note_off_c, 1, 57, 96
1, 52459, Note_on_c, 1, 57, 96
1, 52459, Note_on_c, 1, 65, 96
1, 52459, Note_on_c, 1, 62, 96
1, 52460, Note_off_c, 1, 57, 96
1, 52460, Note_off_c, 1, 65, 96
1, 52460, Note_off_c, 1, 62, 96
1, 52508, Note_on_c, 1, 77, 96
1, 52509, Note_off_c, 1, 77, 96
1, 52559, Note_on_c, 1, 83, 96
1, 52559, Note_on_c, 1, 77, 96
1, 52559, Note_on_c, 1, 41, 96
1, 52560, Note_off_c, 1, 83, 96
1, 52560, Note_off_c, 1, 77, 96
1, 52560, Note_off_c, 1, 41, 96
1, 52661, Note_on_c, 1, 69, 96
1, 52661, Note_on_c, 1, 77, 96
1, 52661, Note_on_c, 1, 81, 96
1, 52661, Note_on_c, 1, 74, 96
1, 52661, Note_on_c, 1, 50, 96
1, 52661, Note_on_c, 1, 62, 96
1, 52662, Note_off_c, 1, 69, 96
1, 52662, Note_off_c, 1, 77, 96
1, 52662, Note_off_c, 1, 81, 96
1, 52662, Note_off_c, 1, 74, 96
1, 52662, Note_off_c, 1, 50, 96
1, 52662, Note_off_c, 1, 62, 96
1, 52761, Note_on_c, 1, 74, 96
1, 52761, Note_on_c, 1, 60, 96
1, 52761, Note_on_c, 1, 57, 96
1, 52761, Note_on_c, 1, 53, 96
1, 52762, Note_off_c, 1, 74, 96
1, 52762, Note_off_c, 1, 60, 96
1, 52762, Note_off_c, 1, 57, 96
1, 52762, Note_off_c, 1, 53, 96
1, 52861, Note_on_c, 1, 74, 96
1, 52861, Note_on_c, 1, 77, 96
1, 52861, Note_on_c, 1, 81, 96
1, 52861, Note_on_c, 1, 84, 96
1, 52862, Note_off_c, 1, 74, 96
1, 52862, Note_off_c, 1, 77, 96
1, 52862, Note_off_c, 1, 81, 96
1, 52862, Note_off_c, 1, 84, 96
1, 52964, Note_on_c, 1, 89, 96
1, 52964, Note_on_c, 1, 84, 96
1, 52964, Note_on_c, 1, 81, 96
1, 52964, Note_on_c, 1, 77, 96
1, 52964, Note_on_c, 1, 72, 96
1, 52964, Note_on_c, 1, 57, 96
1, 52964, Note_on_c, 1, 48, 96
1, 52965, Note_off_c, 1, 89, 96
1, 52965, Note_off_c, 1, 84, 96
1, 52965, Note_off_c, 1, 81, 96
1, 52965, Note_off_c, 1, 77, 96
1, 52965, Note_off_c, 1, 72, 96
1, 52965, Note_off_c, 1, 57, 96
1, 52965, Note_off_c, 1, 48, 96
1, 53087, Note_on_c, 1, 79, 96
1, 53087, Note_on_c, 1, 83, 96
1, 53087, Note_on_c, 1, 31, 96
1, 53088, Note_off_c, 1, 79, 96
1, 53088, Note_off_c, 1, 83, 96
1, 53088, Note_off_c, 1, 31, 96
1, 53188, Note_on_c, 1, 69, 96
1, 53188, Note_on_c, 1, 72, 96
1, 53188, Note_on_c, 1, 65, 96
1, 53188, Note_on_c, 1, 60, 96
1, 53189, Note_off_c, 1, 69, 96
1, 53189, Note_off_c, 1, 72, 96
1, 53189, Note_off_c, 1, 65, 96
1, 53189, Note_off_c, 1, 60, 96
1, 53288, Note_on_c, 1, 72, 96
1, 53288, Note_on_c, 1, 84, 96
1, 53288, Note_on_c, 1, 81, 96
1, 53288, Note_on_c, 1, 41, 96
1, 53289, Note_off_c, 1, 72, 96
1, 53289, Note_off_c, 1, 84, 96
1, 53289, Note_off_c, 1, 81, 96
1, 53289, Note_off_c, 1, 41, 96
1, 53390, Note_on_c, 1, 78, 96
1, 53390, Note_on_c, 1, 84, 96
1, 53390, Note_on_c, 1, 74, 96
1, 53390, Note_on_c, 1, 57, 96
1, 53390, Note_on_c, 1, 69, 96
1, 53390, Note_on_c, 1, 62, 96
1, 53391, Note_off_c, 1, 78, 96
1, 53391, Note_off_c, 1, 84, 96
1, 53391, Note_off_c, 1, 74, 96
1, 53391, Note_off_c, 1, 57, 96
1, 53391, Note_off_c, 1, 69, 96
1, 53391, Note_off_c, 1, 62, 96
1, 53439, Note_on_c, 1, 81, 96
1, 53440, Note_off_c, 1, 81, 96
1, 53489, Note_on_c, 1, 82, 96
1, 53489, Note_on_c, 1, 43, 96
1, 53490, Note_off_c, 1, 82, 96
1, 53490, Note_off_c, 1, 43, 96
1, 53538, Note_on_c, 1, 79, 96
1, 53539, Note_off_c, 1, 79, 96
1, 53590, Note_on_c, 1, 82, 96
1, 53590, Note_on_c, 1, 53, 96
1, 53590, Note_on_c, 1, 58, 96
1, 53590, Note_on_c, 1, 62, 96
1, 53591, Note_off_c, 1, 82, 96
1, 53591, Note_off_c, 1, 53, 96
1, 53591, Note_off_c, 1, 58, 96
1, 53591, Note_off_c, 1, 62, 96
1, 53639, Note_on_c, 1, 79, 96
1, 53640, Note_off_c, 1, 79, 96
1, 53691, Note_on_c, 1, 74, 96
1, 53691, Note_on_c, 1, 53, 96
1, 53691, Note_on_c, 1, 58, 96
1, 53691, Note_on_c, 1, 62, 96
1, 53692, Note_off_c, 1, 74, 96
1, 53692, Note_off_c, 1, 53, 96
1, 53692, Note_off_c, 1, 58, 96
1, 53692, Note_off_c, 1, 62, 96
1, 53740, Note_on_c, 1, 86, 96
1, 53741, Note_off_c, 1, 86, 96
1, 53791, Note_on_c, 1, 84, 96
1, 53791, Note_on_c, 1, 80, 96
1, 53791, Note_on_c, 1, 46, 96
1, 53792, Note_off_c, 1, 84, 96
1, 53792, Note_off_c, 1, 80, 96
1, 53792, Note_off_c, 1, 46, 96
1, 53889, Note_on_c, 1, 62, 96
1, 53889, Note_on_c, 1, 58, 96
1, 53890, Note_off_c, 1, 62, 96
1, 53890, Note_off_c, 1, 58, 96
1, 53938, Note_on_c, 1, 82, 96
1, 53939, Note_off_c, 1, 82, 96
1, 53987, Note_on_c, 1, 53, 96
1, 53988, Note_off_c, 1, 53, 96
1, 54037, Note_on_c, 1, 70, 96
1, 54037, Note_on_c, 1, 58, 96
1, 54038, Note_off_c, 1, 70, 96
1, 54038, Note_off_c, 1, 58, 96
1, 54087, Note_on_c, 1, 72, 96
1, 54087, Note_on_c, 1, 56, 96
1, 54088, Note_off_c, 1, 72, 96
1, 54088, Note_off_c, 1, 56, 96
1, 54136, Note_on_c, 1, 77, 96
1, 54137, Note_off_c, 1, 77, 96
1, 54187, Note_on_c, 1, 75, 96
1, 54187, Note_on_c, 1, 55, 96
1, 54187, Note_on_c, 1, 46, 96
1, 54188, Note_off_c, 1, 75, 96
1, 54188, Note_off_c, 1, 55, 96
1, 54188, Note_off_c, 1, 46, 96
1, 54236, Note_on_c, 1, 77, 96
1, 54237, Note_off_c, 1, 77, 96
1, 54288, Note_on_c, 1, 80, 96
1, 54288, Note_on_c, 1, 58, 96
1, 54288, Note_on_c, 1, 62, 96
1, 54288, Note_on_c, 1, 68, 96
1, 54289, Note_off_c, 1, 80, 96
1, 54289, Note_off_c, 1, 58, 96
1, 54289, Note_off_c, 1, 62, 96
1, 54289, Note_off_c, 1, 68, 96
1, 54337, Note_on_c, 1, 72, 96
1, 54338, Note_off_c, 1, 72, 96
1, 54387, Note_on_c, 1, 74, 96
1, 54387, Note_on_c, 1, 62, 96
1, 54388, Note_off_c, 1, 74, 96
1, 54388, Note_off_c, 1, 62, 96
1, 54436, Note_on_c, 1, 70, 96
1, 54437, Note_off_c, 1, 70, 96
1, 54487, Note_on_c, 1, 67, 96
1, 54487, Note_on_c, 1, 51, 96
1, 54487, Note_on_c, 1, 39, 96
1, 54488, Note_off_c, 1, 67, 96
1, 54488, Note_off_c, 1, 51, 96
1, 54488, Note_off_c, 1, 39, 96
1, 54536, Note_on_c, 1, 79, 96
1, 54537, Note_off_c, 1, 79, 96
1, 54589, Note_on_c, 1, 79, 96
1, 54589, Note_on_c, 1, 70, 96
1, 54589, Note_on_c, 1, 58, 96
1, 54589, Note_on_c, 1, 63, 96
1, 54589, Note_on_c, 1, 67, 96
1, 54590, Note_off_c, 1, 79, 96
1, 54590, Note_off_c, 1, 70, 96
1, 54590, Note_off_c, 1, 58, 96
1, 54590, Note_off_c, 1, 63, 96
1, 54590, Note_off_c, 1, 67, 96
1, 54638, Note_on_c, 1, 82, 96
1, 54639, Note_off_c, 1, 82, 96
1, 54690, Note_on_c, 1, 79, 96
1, 54690, Note_on_c, 1, 55, 96
1, 54690, Note_on_c, 1, 58, 96
1, 54690, Note_on_c, 1, 63, 96
1, 54691, Note_off_c, 1, 79, 96
1, 54691, Note_off_c, 1, 55, 96
1, 54691, Note_off_c, 1, 58, 96
1, 54691, Note_off_c, 1, 63, 96
1, 54789, Note_on_c, 1, 77, 96
1, 54789, Note_on_c, 1, 55, 96
1, 54789, Note_on_c, 1, 58, 96
1, 54790, Note_off_c, 1, 77, 96
1, 54790, Note_off_c, 1, 55, 96
1, 54790, Note_off_c, 1, 58, 96
1, 54839, Note_on_c, 1, 38, 96
1, 54839, Note_on_c, 1, 50, 96
1, 54840, Note_off_c, 1, 38, 96
1, 54840, Note_off_c, 1, 50, 96
1, 54888, Note_on_c, 1, 72, 96
1, 54889, Note_off_c, 1, 72, 96
1, 54940, Note_on_c, 1, 75, 96
1, 54940, Note_on_c, 1, 61, 96
1, 54940, Note_on_c, 1, 58, 96
1, 54940, Note_on_c, 1, 53, 96
1, 54941, Note_off_c, 1, 75, 96
1, 54941, Note_off_c, 1, 61, 96
1, 54941, Note_off_c, 1, 58, 96
1, 54941, Note_off_c, 1, 53, 96
1, 54989, Note_on_c, 1, 86, 96
1, 54990, Note_off_c, 1, 86, 96
1, 55041, Note_on_c, 1, 82, 96
1, 55041, Note_on_c, 1, 58, 96
1, 55041, Note_on_c, 1, 62, 96
1, 55041, Note_on_c, 1, 52, 96
1, 55042, Note_off_c, 1, 82, 96
1, 55042, Note_off_c, 1, 58, 96
1, 55042, Note_off_c, 1, 62, 96
1, 55042, Note_off_c, 1, 52, 96
1, 55090, Note_on_c, 1, 81, 96
1, 55091, Note_off_c, 1, 81, 96
1, 55143, Note_on_c, 1, 75, 96
1, 55143, Note_on_c, 1, 86, 96
1, 55143, Note_on_c, 1, 60, 96
1, 55143, Note_on_c, 1, 53, 96
1, 55143, Note_on_c, 1, 57, 96
1, 55144, Note_off_c, 1, 75, 96
1, 55144, Note_off_c, 1, 86, 96
1, 55144, Note_off_c, 1, 60, 96
1, 55144, Note_off_c, 1, 53, 96
1, 55144, Note_off_c, 1, 57, 96
1, 55216, Note_on_c, 1, 69, 96
1, 55217, Note_off_c, 1, 69, 96
1, 55268, Note_on_c, 1, 75, 96
1, 55268, Note_on_c, 1, 35, 96
1, 55269, Note_off_c, 1, 75, 96
1, 55269, Note_off_c, 1, 35, 96
1, 55368, Note_on_c, 1, 87, 96
1, 55368, Note_on_c, 1, 79, 96
1, 55368, Note_on_c, 1, 75, 96
1, 55368, Note_on_c, 1, 66, 96
1, 55369, Note_off_c, 1, 87, 96
1, 55369, Note_off_c, 1, 79, 96
1, 55369, Note_off_c, 1, 75, 96
1, 55369, Note_off_c, 1, 66, 96
1, 55466, Note_on_c, 1, 74, 96
1, 55466, Note_on_c, 1, 77, 96
1, 55467, Note_off_c, 1, 74, 96
1, 55467, Note_off_c, 1, 77, 96
1, 55515, Note_on_c, 1, 67, 96
1, 55516, Note_off_c, 1, 67, 96
1, 55568, Note_on_c, 1, 76, 96
1, 55568, Note_on_c, 1, 79, 96
1, 55568, Note_on_c, 1, 86, 96
1, 55568, Note_on_c, 1, 56, 96
1, 55568, Note_on_c, 1, 44, 96
1, 55569, Note_off_c, 1, 76, 96
1, 55569, Note_off_c, 1, 79, 96
1, 55569, Note_off_c, 1, 86, 96
1, 55569, Note_off_c, 1, 56, 96
1, 55569, Note_off_c, 1, 44, 96
1, 55669, Note_on_c, 1, 84, 96
1, 55669, Note_on_c, 1, 78, 96
1, 55669, Note_on_c, 1, 75, 96
1, 55669, Note_on_c, 1, 57, 96
1, 55669, Note_on_c, 1, 45, 96
1, 55670, Note_off_c, 1, 84, 96
1, 55670, Note_off_c, 1, 78, 96
1, 55670, Note_off_c, 1, 75, 96
1, 55670, Note_off_c, 1, 57, 96
1, 55670, Note_off_c, 1, 45, 96
1, 55718, Note_on_c, 1, 69, 96
1, 55719, Note_off_c, 1, 69, 96
1, 55767, Note_on_c, 1, 50, 96
1, 55768, Note_off_c, 1, 50, 96
1, 55816, Note_on_c, 1, 73, 96
1, 55817, Note_off_c, 1, 73, 96
1, 55868, Note_on_c, 1, 79, 96
1, 55868, Note_on_c, 1, 76, 96
1, 55868, Note_on_c, 1, 57, 96
1, 55868, Note_on_c, 1, 53, 96
1, 55869, Note_off_c, 1, 79, 96
1, 55869, Note_off_c, 1, 76, 96
1, 55869, Note_off_c, 1, 57, 96
1, 55869, Note_off_c, 1, 53, 96
1, 55918, Note_on_c, 1, 77, 96
1, 55918, Note_on_c, 1, 74, 96
1, 55919, Note_off_c, 1, 77, 96
1, 55919, Note_off_c, 1, 74, 96
1, 55969, Note_on_c, 1, 67, 96
1, 55969, Note_on_c, 1, 62, 96
1, 55969, Note_on_c, 1, 56, 96
1, 55970, Note_off_c, 1, 67, 96
1, 55970, Note_off_c, 1, 62, 96
1, 55970, Note_off_c, 1, 56, 96
1, 56018, Note_on_c, 1, 76, 96
1, 56019, Note_off_c, 1, 76, 96
1, 56068, Note_on_c, 1, 79, 96
1, 56068, Note_on_c, 1, 64, 96
1, 56069, Note_off_c, 1, 79, 96
1, 56069, Note_off_c, 1, 64, 96
1, 56118, Note_on_c, 1, 79, 96
1, 56118, Note_on_c, 1, 43, 96
1, 56119, Note_off_c, 1, 79, 96
1, 56119, Note_off_c, 1, 43, 96
1, 56167, Note_on_c, 1, 74, 96
1, 56168, Note_off_c, 1, 74, 96
1, 56216, Note_on_c, 1, 74, 96
1, 56217, Note_off_c, 1, 74, 96
1, 56265, Note_on_c, 1, 76, 96
1, 56266, Note_off_c, 1, 76, 96
1, 56316, Note_on_c, 1, 76, 96
1, 56316, Note_on_c, 1, 64, 96
1, 56316, Note_on_c, 1, 52, 96
1, 56317, Note_off_c, 1, 76, 96
1, 56317, Note_off_c, 1, 64, 96
1, 56317, Note_off_c, 1, 52, 96
1, 56365, Note_on_c, 1, 74, 96
1, 56366, Note_off_c, 1, 74, 96
1, 56416, Note_on_c, 1, 55, 96
1, 56416, Note_on_c, 1, 60, 96
1, 56416, Note_on_c, 1, 64, 96
1, 56417, Note_off_c, 1, 55, 96
1, 56417, Note_off_c, 1, 60, 96
1, 56417, Note_off_c, 1, 64, 96
1, 56465, Note_on_c, 1, 72, 96
1, 56466, Note_off_c, 1, 72, 96
1, 56516, Note_on_c, 1, 58, 96
1, 56516, Note_on_c, 1, 64, 96
1, 56516, Note_on_c, 1, 60, 96
1, 56517, Note_off_c, 1, 58, 96
1, 56517, Note_off_c, 1, 64, 96
1, 56517, Note_off_c, 1, 60, 96
1, 56565, Note_on_c, 1, 81, 96
1, 56566, Note_off_c, 1, 81, 96
1, 56614, Note_on_c, 1, 79, 96
1, 56615, Note_off_c, 1, 79, 96
1, 56663, Note_on_c, 1, 48, 96
1, 56664, Note_off_c, 1, 48, 96
1, 56761, Note_on_c, 1, 74, 96
1, 56761, Note_on_c, 1, 54, 96
1, 56762, Note_off_c, 1, 74, 96
1, 56762, Note_off_c, 1, 54, 96
1, 56859, Note_on_c, 1, 77, 96
1, 56859, Note_on_c, 1, 62, 96
1, 56860, Note_off_c, 1, 77, 96
1, 56860, Note_off_c, 1, 62, 96
1, 56909, Note_on_c, 1, 81, 96
1, 56909, Note_on_c, 1, 72, 96
1, 56909, Note_on_c, 1, 36, 96
1, 56910, Note_off_c, 1, 81, 96
1, 56910, Note_off_c, 1, 72, 96
1, 56910, Note_off_c, 1, 36, 96
1, 57009, Note_on_c, 1, 77, 96
1, 57009, Note_on_c, 1, 65, 96
1, 57009, Note_on_c, 1, 60, 96
1, 57009, Note_on_c, 1, 57, 96
1, 57010, Note_off_c, 1, 77, 96
1, 57010, Note_off_c, 1, 65, 96
1, 57010, Note_off_c, 1, 60, 96
1, 57010, Note_off_c, 1, 57, 96
1, 57059, Note_on_c, 1, 81, 96
1, 57059, Note_on_c, 1, 77, 96
1, 57060, Note_off_c, 1, 81, 96
1, 57060, Note_off_c, 1, 77, 96
1, 57110, Note_on_c, 1, 53, 96
1, 57110, Note_on_c, 1, 57, 96
1, 57110, Note_on_c, 1, 63, 96
1, 57111, Note_off_c, 1, 53, 96
1, 57111, Note_off_c, 1, 57, 96
1, 57111, Note_off_c, 1, 63, 96
1, 57161, Note_on_c, 1, 53, 96
1, 57161, Note_on_c, 1, 57, 96
1, 57161, Note_on_c, 1, 63, 96
1, 57162, Note_off_c, 1, 53, 96
1, 57162, Note_off_c, 1, 57, 96
1, 57162, Note_off_c, 1, 63, 96
1, 57211, Note_on_c, 1, 64, 96
1, 57211, Note_on_c, 1, 52, 96
1, 57212, Note_off_c, 1, 64, 96
1, 57212, Note_off_c, 1, 52, 96
1, 57262, Note_on_c, 1, 65, 96
1, 57262, Note_on_c, 1, 69, 96
1, 57262, Note_on_c, 1, 62, 96
1, 57263, Note_off_c, 1, 65, 96
1, 57263, Note_off_c, 1, 69, 96
1, 57263, Note_off_c, 1, 62, 96
1, 57364, Note_on_c, 1, 58, 96
1, 57364, Note_on_c, 1, 64, 96
1, 57364, Note_on_c, 1, 70, 96
1, 57364, Note_on_c, 1, 74, 96
1, 57364, Note_on_c, 1, 55, 96
1, 57364, Note_on_c, 1, 50, 96
1, 57365, Note_off_c, 1, 58, 96
1, 57365, Note_off_c, 1, 64, 96
1, 57365, Note_off_c, 1, 70, 96
1, 57365, Note_off_c, 1, 74, 96
1, 57365, Note_off_c, 1, 55, 96
1, 57365, Note_off_c, 1, 50, 96
1, 57462, Note_on_c, 1, 53, 96
1, 57462, Note_on_c, 1, 58, 96
1, 57463, Note_off_c, 1, 53, 96
1, 57463, Note_off_c, 1, 58, 96
1, 57560, Note_on_c, 1, 74, 96
1, 57560, Note_on_c, 1, 62, 96
1, 57561, Note_off_c, 1, 74, 96
1, 57561, Note_off_c, 1, 62, 96
1, 57609, Note_on_c, 1, 70, 96
1, 57610, Note_off_c, 1, 70, 96
1, 57658, Note_on_c, 1, 72, 96
1, 57659, Note_off_c, 1, 72, 96
1, 57708, Note_on_c, 1, 69, 96
1, 57708, Note_on_c, 1, 53, 96
1, 57709, Note_off_c, 1, 69, 96
1, 57709, Note_off_c, 1, 53, 96
1, 57758, Note_on_c, 1, 70, 96
1, 57758, Note_on_c, 1, 46, 96
1, 57759, Note_off_c, 1, 70, 96
1, 57759, Note_off_c, 1, 46, 96
1, 57810, Note_on_c, 1, 80, 96
1, 57810, Note_on_c, 1, 70, 96
1, 57810, Note_on_c, 1, 59, 96
1, 57810, Note_on_c, 1, 65, 96
1, 57811, Note_off_c, 1, 80, 96
1, 57811, Note_off_c, 1, 70, 96
1, 57811, Note_off_c, 1, 59, 96
1, 57811, Note_off_c, 1, 65, 96
1, 57910, Note_on_c, 1, 65, 96
1, 57910, Note_on_c, 1, 71, 96
1, 57910, Note_on_c, 1, 74, 96
1, 57910, Note_on_c, 1, 50, 96
1, 57911, Note_off_c, 1, 65, 96
1, 57911, Note_off_c, 1, 71, 96
1, 57911, Note_off_c, 1, 74, 96
1, 57911, Note_off_c, 1, 50, 96
1, 58010, Note_on_c, 1, 76, 96
1, 58010, Note_on_c, 1, 71, 96
1, 58010, Note_on_c, 1, 43, 96
1, 58010, Note_on_c, 1, 53, 96
1, 58011, Note_off_c, 1, 76, 96
1, 58011, Note_off_c, 1, 71, 96
1, 58011, Note_off_c, 1, 43, 96
1, 58011, Note_off_c, 1, 53, 96
1, 58062, Note_on_c, 1, 64, 96
1, 58062, Note_on_c, 1, 70, 96
1, 58062, Note_on_c, 1, 42, 96
1, 58062, Note_on_c, 1, 54, 96
1, 58063, Note_off_c, 1, 64, 96
1, 58063, Note_off_c, 1, 70, 96
1, 58063, Note_off_c, 1, 42, 96
1, 58063, Note_off_c, 1, 54, 96
1, 58112, Note_on_c, 1, 76, 96
1, 58112, Note_on_c, 1, 73, 96
1, 58113, Note_off_c, 1, 76, 96
1, 58113, Note_off_c, 1, 73, 96
1, 58166, Note_on_c, 1, 69, 96
1, 58166, Note_on_c, 1, 75, 96
1, 58166, Note_on_c, 1, 77, 96
1, 58166, Note_on_c, 1, 53, 96
1, 58166, Note_on_c, 1, 57, 96
1, 58166, Note_on_c, 1, 63, 96
1, 58167, Note_off_c, 1, 69, 96
1, 58167, Note_off_c, 1, 75, 96
1, 58167, Note_off_c, 1, 77, 96
1, 58167, Note_off_c, 1, 53, 96
1, 58167, Note_off_c, 1, 57, 96
1, 58167, Note_off_c, 1, 63, 96
1, 58215, Note_on_c, 1, 73, 96
1, 58216, Note_off_c, 1, 73, 96
1, 58268, Note_on_c, 1, 76, 96
1, 58268, Note_on_c, 1, 67, 96
1, 58268, Note_on_c, 1, 64, 96
1, 58268, Note_on_c, 1, 61, 96
1, 58268, Note_on_c, 1, 57, 96
1, 58269, Note_off_c, 1, 76, 96
1, 58269, Note_off_c, 1, 67, 96
1, 58269, Note_off_c, 1, 64, 96
1, 58269, Note_off_c, 1, 61, 96
1, 58269, Note_off_c, 1, 57, 96
1, 58317, Note_on_c, 1, 74, 96
1, 58318, Note_off_c, 1, 74, 96
1, 58367, Note_on_c, 1, 48, 96
1, 58367, Note_on_c, 1, 53, 96
1, 58368, Note_off_c, 1, 48, 96
1, 58368, Note_off_c, 1, 53, 96
1, 58467, Note_on_c, 1, 69, 96
1, 58467, Note_on_c, 1, 60, 96
1, 58467, Note_on_c, 1, 48, 96
1, 58468, Note_off_c, 1, 69, 96
1, 58468, Note_off_c, 1, 60, 96
1, 58468, Note_off_c, 1, 48, 96
1, 58565, Note_on_c, 1, 64, 96
1, 58565, Note_on_c, 1, 52, 96
1, 58566, Note_off_c, 1, 64, 96
1, 58566, Note_off_c, 1, 52, 96
1, 58664, Note_on_c, 1, 58, 96
1, 58664, Note_on_c, 1, 67, 96
1, 58664, Note_on_c, 1, 49, 96
1, 58665, Note_off_c, 1, 58, 96
1, 58665, Note_off_c, 1, 67, 96
1, 58665, Note_off_c, 1, 49, 96
1, 58765, Note_on_c, 1, 69, 96
1, 58765, Note_on_c, 1, 65, 96
1, 58765, Note_on_c, 1, 60, 96
1, 58765, Note_on_c, 1, 48, 96
1, 58765, Note_on_c, 1, 57, 96
1, 58766, Note_off_c, 1, 69, 96
1, 58766, Note_off_c, 1, 65, 96
1, 58766, Note_off_c, 1, 60, 96
1, 58766, Note_off_c, 1, 48, 96
1, 58766, Note_off_c, 1, 57, 96
1, 58828, Note_on_c, 1, 63, 96
1, 58828, Note_on_c, 1, 53, 96
1, 58828, Note_on_c, 1, 57, 96
1, 58829, Note_off_c, 1, 63, 96
1, 58829, Note_off_c, 1, 53, 96
1, 58829, Note_off_c, 1, 57, 96
1, 58953, Note_on_c, 1, 60, 96
1, 58953, Note_on_c, 1, 77, 96
1, 58953, Note_on_c, 1, 69, 96
1, 58953, Note_on_c, 1, 57, 96
1, 58953, Note_on_c, 1, 65, 96
1, 58954, Note_off_c, 1, 60, 96
1, 58954, Note_off_c, 1, 77, 96
1, 58954, Note_off_c, 1, 69, 96
1, 58954, Note_off_c, 1, 57, 96
1, 58954, Note_off_c, 1, 65, 96
1, 59018, Note_on_c, 1, 68, 96
1, 59018, Note_on_c, 1, 70, 96
1, 59018, Note_on_c, 1, 74, 96
1, 59018, Note_on_c, 1, 65, 96
1, 59018, Note_on_c, 1, 77, 96
1, 59019, Note_off_c, 1, 68, 96
1, 59019, Note_off_c, 1, 70, 96
1, 59019, Note_off_c, 1, 74, 96
1, 59019, Note_off_c, 1, 65, 96
1, 59019, Note_off_c, 1, 77, 96
1, 59080, Note_on_c, 1, 58, 96
1, 59080, Note_on_c, 1, 46, 96
1, 59081, Note_off_c, 1, 58, 96
1, 59081, Note_off_c, 1, 46, 96
1, 59144, Note_on_c, 1, 66, 96
1, 59144, Note_on_c, 1, 75, 96
1, 59144, Note_on_c, 1, 78, 96
1, 59145, Note_off_c, 1, 66, 96
1, 59145, Note_off_c, 1, 75, 96
1, 59145, Note_off_c, 1, 78, 96
1, 59207, Note_on_c, 1, 64, 96
1, 59207, Note_on_c, 1, 57, 96
1, 59207, Note_on_c, 1, 59, 96
1, 59208, Note_off_c, 1, 64, 96
1, 59208, Note_off_c, 1, 57, 96
1, 59208, Note_off_c, 1, 59, 96
1, 59268, Note_on_c, 1, 78, 96
1, 59269, Note_off_c, 1, 78, 96
1, 59334, Note_on_c, 1, 81, 96
1, 59334, Note_on_c, 1, 78, 96
1, 59334, Note_on_c, 1, 74, 96
1, 59334, Note_on_c, 1, 72, 96
1, 59334, Note_on_c, 1, 38, 96
1, 59334, Note_on_c, 1, 50, 96
1, 59335, Note_off_c, 1, 81, 96
1, 59335, Note_off_c, 1, 78, 96
1, 59335, Note_off_c, 1, 74, 96
1, 59335, Note_off_c, 1, 72, 96
1, 59335, Note_off_c, 1, 38, 96
1, 59335, Note_off_c, 1, 50, 96
1, 59458, Note_on_c, 1, 60, 96
1, 59458, Note_on_c, 1, 66, 96
1, 59458, Note_on_c, 1, 62, 96
1, 59458, Note_on_c, 1, 57, 96
1, 59459, Note_off_c, 1, 60, 96
1, 59459, Note_off_c, 1, 66, 96
1, 59459, Note_off_c, 1, 62, 96
1, 59459, Note_off_c, 1, 57, 96
1, 59520, Note_on_c, 1, 78, 96
1, 59520, Note_on_c, 1, 74, 96
1, 59521, Note_off_c, 1, 78, 96
1, 59521, Note_off_c, 1, 74, 96
1, 59583, Note_on_c, 1, 67, 96
1, 59583, Note_on_c, 1, 40, 96
1, 59583, Note_on_c, 1, 52, 96
1, 59584, Note_off_c, 1, 67, 96
1, 59584, Note_off_c, 1, 40, 96
1, 59584, Note_off_c, 1, 52, 96
1, 59645, Note_on_c, 1, 80, 96
1, 59645, Note_on_c, 1, 74, 96
1, 59646, Note_off_c, 1, 80, 96
1, 59646, Note_off_c, 1, 74, 96
1, 59711, Note_on_c, 1, 81, 96
1, 59711, Note_on_c, 1, 72, 96
1, 59711, Note_on_c, 1, 76, 96
1, 59711, Note_on_c, 1, 69, 96
1, 59711, Note_on_c, 1, 52, 96
1, 59711, Note_on_c, 1, 40, 96
1, 59712, Note_off_c, 1, 81, 96
1, 59712, Note_off_c, 1, 72, 96
1, 59712, Note_off_c, 1, 76, 96
1, 59712, Note_off_c, 1, 69, 96
1, 59712, Note_off_c, 1, 52, 96
1, 59712, Note_off_c, 1, 40, 96
1, 59777, Note_on_c, 1, 73, 96
1, 59777, Note_on_c, 1, 69, 96
1, 59777, Note_on_c, 1, 76, 96
1, 59777, Note_on_c, 1, 81, 96
1, 59777, Note_on_c, 1, 45, 96
1, 59777, Note_on_c, 1, 57, 96
1, 59778, Note_off_c, 1, 73, 96
1, 59778, Note_off_c, 1, 69, 96
1, 59778, Note_off_c, 1, 76, 96
1, 59778, Note_off_c, 1, 81, 96
1, 59778, Note_off_c, 1, 45, 96
1, 59778, Note_off_c, 1, 57, 96
1, 59879, Note_on_c, 1, 62, 96
1, 59879, Note_on_c, 1, 66, 96
1, 59879, Note_on_c, 1, 74, 96
1, 59879, Note_on_c, 1, 60, 96
1, 59879, Note_on_c, 1, 54, 96
1, 59880, Note_off_c, 1, 62, 96
1, 59880, Note_off_c, 1, 66, 96
1, 59880, Note_off_c, 1, 74, 96
1, 59880, Note_off_c, 1, 60, 96
1, 59880, Note_off_c, 1, 54, 96
1, 59979, Note_on_c, 1, 69, 96
1, 59979, Note_on_c, 1, 72, 96
1, 59979, Note_on_c, 1, 33, 96
1, 59979, Note_on_c, 1, 45, 96
1, 59980, Note_off_c, 1, 69, 96
1, 59980, Note_off_c, 1, 72, 96
1, 59980, Note_off_c, 1, 33, 96
1, 59980, Note_off_c, 1, 45, 96
1, 60028, Note_on_c, 1, 72, 96
1, 60029, Note_off_c, 1, 72, 96
1, 60078, Note_on_c, 1, 76, 96
1, 60078, Note_on_c, 1, 45, 96
1, 60079, Note_off_c, 1, 76, 96
1, 60079, Note_off_c, 1, 45, 96
1, 60127, Note_on_c, 1, 74, 96
1, 60128, Note_off_c, 1, 74, 96
1, 60179, Note_on_c, 1, 81, 96
1, 60179, Note_on_c, 1, 54, 96
1, 60179, Note_on_c, 1, 50, 96
1, 60179, Note_on_c, 1, 60, 96
1, 60180, Note_off_c, 1, 81, 96
1, 60180, Note_off_c, 1, 54, 96
1, 60180, Note_off_c, 1, 50, 96
1, 60180, Note_off_c, 1, 60, 96
1, 60278, Note_on_c, 1, 67, 96
1, 60278, Note_on_c, 1, 62, 96
1, 60278, Note_on_c, 1, 50, 96
1, 60279, Note_off_c, 1, 67, 96
1, 60279, Note_off_c, 1, 62, 96
1, 60279, Note_off_c, 1, 50, 96
1, 60377, Note_on_c, 1, 69, 96
1, 60377, Note_on_c, 1, 53, 96
1, 60377, Note_on_c, 1, 57, 96
1, 60378, Note_off_c, 1, 69, 96
1, 60378, Note_off_c, 1, 53, 96
1, 60378, Note_off_c, 1, 57, 96
1, 60427, Note_on_c, 1, 69, 96
1, 60427, Note_on_c, 1, 72, 96
1, 60428, Note_off_c, 1, 69, 96
1, 60428, Note_off_c, 1, 72, 96
1, 60476, Note_on_c, 1, 50, 96
1, 60477, Note_off_c, 1, 50, 96
1, 60525, Note_on_c, 1, 72, 96
1, 60526, Note_off_c, 1, 72, 96
1, 60575, Note_on_c, 1, 66, 96
1, 60575, Note_on_c, 1, 54, 96
1, 60576, Note_off_c, 1, 66, 96
1, 60576, Note_off_c, 1, 54, 96
1, 60672, Note_on_c, 1, 70, 96
1, 60673, Note_off_c, 1, 70, 96
1, 60772, Note_on_c, 1, 66, 96
1, 60772, Note_on_c, 1, 74, 96
1, 60772, Note_on_c, 1, 57, 96
1, 60772, Note_on_c, 1, 45, 96
1, 60773, Note_off_c, 1, 66, 96
1, 60773, Note_off_c, 1, 74, 96
1, 60773, Note_off_c, 1, 57, 96
1, 60773, Note_off_c, 1, 45, 96
1, 60869, Note_on_c, 1, 65, 96
1, 60870, Note_off_c, 1, 65, 96
1, 60918, Note_on_c, 1, 73, 96
1, 60919, Note_off_c, 1, 73, 96
1, 60969, Note_on_c, 1, 73, 96
1, 60969, Note_on_c, 1, 53, 96
1, 60969, Note_on_c, 1, 50, 96
1, 60970, Note_off_c, 1, 73, 96
1, 60970, Note_off_c, 1, 53, 96
1, 60970, Note_off_c, 1, 50, 96
1, 61018, Note_on_c, 1, 65, 96
1, 61019, Note_off_c, 1, 65, 96
1, 61070, Note_on_c, 1, 79, 96
1, 61070, Note_on_c, 1, 50, 96
1, 61070, Note_on_c, 1, 55, 96
1, 61070, Note_on_c, 1, 59, 96
1, 61071, Note_off_c, 1, 79, 96
1, 61071, Note_off_c, 1, 50, 96
1, 61071, Note_off_c, 1, 55, 96
1, 61071, Note_off_c, 1, 59, 96
1, 61119, Note_on_c, 1, 65, 96
1, 61120, Note_off_c, 1, 65, 96
1, 61170, Note_on_c, 1, 65, 96
1, 61170, Note_on_c, 1, 74, 96
1, 61170, Note_on_c, 1, 71, 96
1, 61171, Note_off_c, 1, 65, 96
1, 61171, Note_off_c, 1, 74, 96
1, 61171, Note_off_c, 1, 71, 96
1, 61219, Note_on_c, 1, 73, 96
1, 61220, Note_off_c, 1, 73, 96
1, 61270, Note_on_c, 1, 74, 96
1, 61270, Note_on_c, 1, 55, 96
1, 61270, Note_on_c, 1, 43, 96
1, 61271, Note_off_c, 1, 74, 96
1, 61271, Note_off_c, 1, 55, 96
1, 61271, Note_off_c, 1, 43, 96
1, 61319, Note_on_c, 1, 79, 96
1, 61320, Note_off_c, 1, 79, 96
1, 61371, Note_on_c, 1, 75, 96
1, 61371, Note_on_c, 1, 72, 96
1, 61371, Note_on_c, 1, 54, 96
1, 61371, Note_on_c, 1, 42, 96
1, 61372, Note_off_c, 1, 75, 96
1, 61372, Note_off_c, 1, 72, 96
1, 61372, Note_off_c, 1, 54, 96
1, 61372, Note_off_c, 1, 42, 96
1, 61468, Note_on_c, 1, 48, 96
1, 61469, Note_off_c, 1, 48, 96
1, 61517, Note_on_c, 1, 69, 96
1, 61518, Note_off_c, 1, 69, 96
1, 61569, Note_on_c, 1, 65, 96
1, 61569, Note_on_c, 1, 67, 96
1, 61569, Note_on_c, 1, 47, 96
1, 61569, Note_on_c, 1, 59, 96
1, 61570, Note_off_c, 1, 65, 96
1, 61570, Note_off_c, 1, 67, 96
1, 61570, Note_off_c, 1, 47, 96
1, 61570, Note_off_c, 1, 59, 96
1, 61618, Note_on_c, 1, 73, 96
1, 61619, Note_off_c, 1, 73, 96
1, 61669, Note_on_c, 1, 76, 96
1, 61669, Note_on_c, 1, 67, 96
1, 61669, Note_on_c, 1, 64, 96
1, 61670, Note_off_c, 1, 76, 96
1, 61670, Note_off_c, 1, 67, 96
1, 61670, Note_off_c, 1, 64, 96
1, 61718, Note_on_c, 1, 76, 96
1, 61719, Note_off_c, 1, 76, 96
1, 61768, Note_on_c, 1, 62, 96
1, 61768, Note_on_c, 1, 65, 96
1, 61769, Note_off_c, 1, 62, 96
1, 61769, Note_off_c, 1, 65, 96
1, 61817, Note_on_c, 1, 64, 96
1, 61818, Note_off_c, 1, 64, 96
1, 61867, Note_on_c, 1, 64, 96
1, 61867, Note_on_c, 1, 52, 96
1, 61868, Note_off_c, 1, 64, 96
1, 61868, Note_off_c, 1, 52, 96
1, 61917, Note_on_c, 1, 61, 96
1, 61917, Note_on_c, 1, 64, 96
1, 61918, Note_off_c, 1, 61, 96
1, 61918, Note_off_c, 1, 64, 96
1, 61967, Note_on_c, 1, 67, 96
1, 61967, Note_on_c, 1, 55, 96
1, 61968, Note_off_c, 1, 67, 96
1, 61968, Note_off_c, 1, 55, 96
1, 62065, Note_on_c, 1, 68, 96
1, 62065, Note_on_c, 1, 52, 96
1, 62066, Note_off_c, 1, 68, 96
1, 62066, Note_off_c, 1, 52, 96
1, 62128, Note_on_c, 1, 56, 96
1, 62128, Note_on_c, 1, 61, 96
1, 62128, Note_on_c, 1, 64, 96
1, 62128, Note_on_c, 1, 52, 96
1, 62129, Note_off_c, 1, 56, 96
1, 62129, Note_off_c, 1, 61, 96
1, 62129, Note_off_c, 1, 64, 96
1, 62129, Note_off_c, 1, 52, 96
1, 62251, Note_on_c, 1, 61, 96
1, 62251, Note_on_c, 1, 57, 96
1, 62252, Note_off_c, 1, 61, 96
1, 62252, Note_off_c, 1, 57, 96
1, 62312, Note_on_c, 1, 76, 96
1, 62313, Note_off_c, 1, 76, 96
1, 62375, Note_on_c, 1, 76, 96
1, 62375, Note_on_c, 1, 64, 96
1, 62375, Note_on_c, 1, 57, 96
1, 62376, Note_off_c, 1, 76, 96
1, 62376, Note_off_c, 1, 64, 96
1, 62376, Note_off_c, 1, 57, 96
1, 62499, Note_on_c, 1, 66, 96
1, 62499, Note_on_c, 1, 69, 96
1, 62499, Note_on_c, 1, 62, 96
1, 62500, Note_off_c, 1, 66, 96
1, 62500, Note_off_c, 1, 69, 96
1, 62500, Note_off_c, 1, 62, 96
1, 62560, Note_on_c, 1, 74, 96
1, 62561, Note_off_c, 1, 74, 96
1, 62623, Note_on_c, 1, 69, 96
1, 62623, Note_on_c, 1, 57, 96
1, 62623, Note_on_c, 1, 50, 96
1, 62624, Note_off_c, 1, 69, 96
1, 62624, Note_off_c, 1, 57, 96
1, 62624, Note_off_c, 1, 50, 96
1, 62684, Note_on_c, 1, 76, 96
1, 62685, Note_off_c, 1, 76, 96
1, 62747, Note_on_c, 1, 71, 96
1, 62747, Note_on_c, 1, 62, 96
1, 62747, Note_on_c, 1, 50, 96
1, 62748, Note_off_c, 1, 71, 96
1, 62748, Note_off_c, 1, 62, 96
1, 62748, Note_off_c, 1, 50, 96
1, 62808, Note_on_c, 1, 74, 96
1, 62809, Note_off_c, 1, 74, 96
1, 62872, Note_on_c, 1, 74, 96
1, 62872, Note_on_c, 1, 78, 96
1, 62872, Note_on_c, 1, 43, 96
1, 62872, Note_on_c, 1, 38, 96
1, 62873, Note_off_c, 1, 74, 96
1, 62873, Note_off_c, 1, 78, 96
1, 62873, Note_off_c, 1, 43, 96
1, 62873, Note_off_c, 1, 38, 96
1, 62993, Note_on_c, 1, 47, 96
1, 62993, Note_on_c, 1, 35, 96
1, 62994, Note_off_c, 1, 47, 96
1, 62994, Note_off_c, 1, 35, 96
1, 63115, Note_on_c, 1, 44, 96
1, 63115, Note_on_c, 1, 56, 96
1, 63116, Note_off_c, 1, 44, 96
1, 63116, Note_off_c, 1, 56, 96
1, 63239, Note_on_c, 1, 67, 96
1, 63239, Note_on_c, 1, 79, 96
1, 63239, Note_on_c, 1, 63, 96
1, 63239, Note_on_c, 1, 59, 96
1, 63239, Note_on_c, 1, 55, 96
1, 63240, Note_off_c, 1, 67, 96
1, 63240, Note_off_c, 1, 79, 96
1, 63240, Note_off_c, 1, 63, 96
1, 63240, Note_off_c, 1, 59, 96
1, 63240, Note_off_c, 1, 55, 96
1, 63277, Note_on_c, 1, 79, 96
1, 63278, Note_off_c, 1, 79, 96
1, 63304, Note_on_c, 1, 75, 96
1, 63304, Note_on_c, 1, 55, 96
1, 63304, Note_on_c, 1, 63, 96
1, 63304, Note_on_c, 1, 60, 96
1, 63305, Note_off_c, 1, 75, 96
1, 63305, Note_off_c, 1, 55, 96
1, 63305, Note_off_c, 1, 63, 96
1, 63305, Note_off_c, 1, 60, 96
1, 63329, Note_on_c, 1, 79, 96
1, 63330, Note_off_c, 1, 79, 96
1, 63357, Note_on_c, 1, 84, 96
1, 63357, Note_on_c, 1, 55, 96
1, 63357, Note_on_c, 1, 60, 96
1, 63357, Note_on_c, 1, 63, 96
1, 63358, Note_off_c, 1, 84, 96
1, 63358, Note_off_c, 1, 55, 96
1, 63358, Note_off_c, 1, 60, 96
1, 63358, Note_off_c, 1, 63, 96
1, 63382, Note_on_c, 1, 82, 96
1, 63383, Note_off_c, 1, 82, 96
1, 63408, Note_on_c, 1, 77, 96
1, 63408, Note_on_c, 1, 58, 96
1, 63409, Note_off_c, 1, 77, 96
1, 63409, Note_off_c, 1, 58, 96
1, 63433, Note_on_c, 1, 79, 96
1, 63434, Note_off_c, 1, 79, 96
1, 63460, Note_on_c, 1, 74, 96
1, 63460, Note_on_c, 1, 45, 96
1, 63460, Note_on_c, 1, 57, 96
1, 63461, Note_off_c, 1, 74, 96
1, 63461, Note_off_c, 1, 45, 96
1, 63461, Note_off_c, 1, 57, 96
1, 63485, Note_on_c, 1, 79, 96
1, 63486, Note_off_c, 1, 79, 96
1, 63512, Note_on_c, 1, 53, 96
1, 63512, Note_on_c, 1, 57, 96
1, 63512, Note_on_c, 1, 63, 96
1, 63513, Note_off_c, 1, 53, 96
1, 63513, Note_off_c, 1, 57, 96
1, 63513, Note_off_c, 1, 63, 96
1, 63537, Note_on_c, 1, 72, 96
1, 63538, Note_off_c, 1, 72, 96
1, 63563, Note_on_c, 1, 55, 96
1, 63563, Note_on_c, 1, 43, 96
1, 63564, Note_off_c, 1, 55, 96
1, 63564, Note_off_c, 1, 43, 96
1, 63588, Note_on_c, 1, 72, 96
1, 63589, Note_off_c, 1, 72, 96
1, 63615, Note_on_c, 1, 74, 96
1, 63615, Note_on_c, 1, 62, 96
1, 63615, Note_on_c, 1, 50, 96
1, 63616, Note_off_c, 1, 74, 96
1, 63616, Note_off_c, 1, 62, 96
1, 63616, Note_off_c, 1, 50, 96
1, 63668, Note_on_c, 1, 74, 96
1, 63668, Note_on_c, 1, 70, 96
1, 63668, Note_on_c, 1, 53, 96
1, 63668, Note_on_c, 1, 58, 96
1, 63668, Note_on_c, 1, 62, 96
1, 63669, Note_off_c, 1, 74, 96
1, 63669, Note_off_c, 1, 70, 96
1, 63669, Note_off_c, 1, 53, 96
1, 63669, Note_off_c, 1, 58, 96
1, 63669, Note_off_c, 1, 62, 96
1, 63765, Note_on_c, 1, 53, 96
1, 63766, Note_off_c, 1, 53, 96
1, 63792, Note_on_c, 1, 41, 96
1, 63792, Note_on_c, 1, 53, 96
1, 63793, Note_off_c, 1, 41, 96
1, 63793, Note_off_c, 1, 53, 96
1, 63845, Note_on_c, 1, 74, 96
1, 63845, Note_on_c, 1, 68, 96
1, 63845, Note_on_c, 1, 62, 96
1, 63845, Note_on_c, 1, 56, 96
1, 63845, Note_on_c, 1, 46, 96
1, 63846, Note_off_c, 1, 74, 96
1, 63846, Note_off_c, 1, 68, 96
1, 63846, Note_off_c, 1, 62, 96
1, 63846, Note_off_c, 1, 56, 96
1, 63846, Note_off_c, 1, 46, 96
1, 63895, Note_on_c, 1, 68, 96
1, 63895, Note_on_c, 1, 74, 96
1, 63896, Note_off_c, 1, 68, 96
1, 63896, Note_off_c, 1, 74, 96
1, 63921, Note_on_c, 1, 50, 96
1, 63921, Note_on_c, 1, 62, 96
1, 63922, Note_off_c, 1, 50, 96
1, 63922, Note_off_c, 1, 62, 96
1, 63973, Note_on_c, 1, 66, 96
1, 63973, Note_on_c, 1, 70, 96
1, 63973, Note_on_c, 1, 63, 96
1, 63973, Note_on_c, 1, 58, 96
1, 63974, Note_off_c, 1, 66, 96
1, 63974, Note_off_c, 1, 70, 96
1, 63974, Note_off_c, 1, 63, 96
1, 63974, Note_off_c, 1, 58, 96
1, 64024, Note_on_c, 1, 78, 96
1, 64024, Note_on_c, 1, 75, 96
1, 64024, Note_on_c, 1, 70, 96
1, 64025, Note_off_c, 1, 78, 96
1, 64025, Note_off_c, 1, 75, 96
1, 64025, Note_off_c, 1, 70, 96
1, 64078, Note_on_c, 1, 66, 96
1, 64078, Note_on_c, 1, 69, 96
1, 64078, Note_on_c, 1, 75, 96
1, 64078, Note_on_c, 1, 78, 96
1, 64078, Note_on_c, 1, 57, 96
1, 64078, Note_on_c, 1, 63, 96
1, 64079, Note_off_c, 1, 66, 96
1, 64079, Note_off_c, 1, 69, 96
1, 64079, Note_off_c, 1, 75, 96
1, 64079, Note_off_c, 1, 78, 96
1, 64079, Note_off_c, 1, 57, 96
1, 64079, Note_off_c, 1, 63, 96
1, 64140, Note_on_c, 1, 50, 96
1, 64140, Note_on_c, 1, 38, 96
1, 64141, Note_off_c, 1, 50, 96
1, 64141, Note_off_c, 1, 38, 96
1, 64201, Note_on_c, 1, 63, 96
1, 64202, Note_off_c, 1, 63, 96
1, 64262, Note_on_c, 1, 30, 96
1, 64263, Note_off_c, 1, 30, 96
1, 64327, Note_on_c, 1, 80, 96
1, 64327, Note_on_c, 1, 68, 96
1, 64327, Note_on_c, 1, 77, 96
1, 64327, Note_on_c, 1, 72, 96
1, 64327, Note_on_c, 1, 60, 96
1, 64328, Note_off_c, 1, 80, 96
1, 64328, Note_off_c, 1, 68, 96
1, 64328, Note_off_c, 1, 77, 96
1, 64328, Note_off_c, 1, 72, 96
1, 64328, Note_off_c, 1, 60, 96
1, 64390, Note_on_c, 1, 75, 96
1, 64390, Note_on_c, 1, 70, 96
1, 64390, Note_on_c, 1, 48, 96
1, 64391, Note_off_c, 1, 75, 96
1, 64391, Note_off_c, 1, 70, 96
1, 64391, Note_off_c, 1, 48, 96
1, 64451, Note_on_c, 1, 72, 96
1, 64452, Note_off_c, 1, 72, 96
1, 64512, Note_on_c, 1, 74, 96
1, 64513, Note_off_c, 1, 74, 96
1, 64564, Note_on_c, 1, 77, 96
1, 64564, Note_on_c, 1, 74, 96
1, 64564, Note_on_c, 1, 56, 96
1, 64564, Note_on_c, 1, 46, 96
1, 64565, Note_off_c, 1, 77, 96
1, 64565, Note_off_c, 1, 74, 96
1, 64565, Note_off_c, 1, 56, 96
1, 64565, Note_off_c, 1, 46, 96
1, 64662, Note_on_c, 1, 51, 96
1, 64662, Note_on_c, 1, 63, 96
1, 64663, Note_off_c, 1, 51, 96
1, 64663, Note_off_c, 1, 63, 96
1, 64763, Note_on_c, 1, 79, 96
1, 64763, Note_on_c, 1, 75, 96
1, 64763, Note_on_c, 1, 87, 96
1, 64763, Note_on_c, 1, 51, 96
1, 64763, Note_on_c, 1, 39, 96
1, 64764, Note_off_c, 1, 79, 96
1, 64764, Note_off_c, 1, 75, 96
1, 64764, Note_off_c, 1, 87, 96
1, 64764, Note_off_c, 1, 51, 96
1, 64764, Note_off_c, 1, 39, 96
1, 64812, Note_on_c, 1, 82, 96
1, 64813, Note_off_c, 1, 82, 96
1, 64862, Note_on_c, 1, 75, 96
1, 64862, Note_on_c, 1, 84, 96
1, 64863, Note_off_c, 1, 75, 96
1, 64863, Note_off_c, 1, 84, 96
1, 64912, Note_on_c, 1, 72, 96
1, 64912, Note_on_c, 1, 84, 96
1, 64913, Note_off_c, 1, 72, 96
1, 64913, Note_off_c, 1, 84, 96
1, 64965, Note_on_c, 1, 84, 96
1, 64965, Note_on_c, 1, 81, 96
1, 64965, Note_on_c, 1, 72, 96
1, 64965, Note_on_c, 1, 69, 96
1, 64965, Note_on_c, 1, 60, 96
1, 64966, Note_off_c, 1, 84, 96
1, 64966, Note_off_c, 1, 81, 96
1, 64966, Note_off_c, 1, 72, 96
1, 64966, Note_off_c, 1, 69, 96
1, 64966, Note_off_c, 1, 60, 96
1, 65015, Note_on_c, 1, 72, 96
1, 65015, Note_on_c, 1, 84, 96
1, 65016, Note_off_c, 1, 72, 96
1, 65016, Note_off_c, 1, 84, 96
1, 65042, Note_on_c, 1, 81, 96
1, 65042, Note_on_c, 1, 69, 96
1, 65042, Note_on_c, 1, 57, 96
1, 65043, Note_off_c, 1, 81, 96
1, 65043, Note_off_c, 1, 69, 96
1, 65043, Note_off_c, 1, 57, 96
1, 65145, Note_on_c, 1, 83, 96
1, 65145, Note_on_c, 1, 77, 96
1, 65145, Note_on_c, 1, 89, 96
1, 65145, Note_on_c, 1, 83, 96
1, 65145, Note_on_c, 1, 88, 96
1, 65145, Note_on_c, 1, 68, 96
1, 65145, Note_on_c, 1, 62, 96
1, 65146, Note_off_c, 1, 83, 96
1, 65146, Note_off_c, 1, 77, 96
1, 65146, Note_off_c, 1, 89, 96
1, 65146, Note_off_c, 1, 83, 96
1, 65146, Note_off_c, 1, 88, 96
1, 65146, Note_off_c, 1, 68, 96
1, 65146, Note_off_c, 1, 62, 96
1, 65195, Note_on_c, 1, 61, 96
1, 65195, Note_on_c, 1, 69, 96
1, 65196, Note_off_c, 1, 61, 96
1, 65196, Note_off_c, 1, 69, 96
1, 65245, Note_on_c, 1, 85, 96
1, 65245, Note_on_c, 1, 73, 96
1, 65246, Note_off_c, 1, 85, 96
1, 65246, Note_off_c, 1, 73, 96
1, 65294, Note_on_c, 1, 81, 96
1, 65295, Note_off_c, 1, 81, 96
1, 65422, Note_on_c, 1, 90, 96
1, 65422, Note_on_c, 1, 102, 96
1, 65422, Note_on_c, 1, 97, 96
1, 65422, Note_on_c, 1, 85, 96
1, 65422, Note_on_c, 1, 67, 96
1, 65422, Note_on_c, 1, 57, 96
1, 65422, Note_on_c, 1, 61, 96
1, 65423, Note_off_c, 1, 90, 96
1, 65423, Note_off_c, 1, 102, 96
1, 65423, Note_off_c, 1, 97, 96
1, 65423, Note_off_c, 1, 85, 96
1, 65423, Note_off_c, 1, 67, 96
1, 65423, Note_off_c, 1, 57, 96
1, 65423, Note_off_c, 1, 61, 96
1, 65547, Note_on_c, 1, 90, 96
1, 65547, Note_on_c, 1, 85, 96
1, 65547, Note_on_c, 1, 81, 96
1, 65547, Note_on_c, 1, 62, 96
1, 65547, Note_on_c, 1, 57, 96
1, 65548, Note_off_c, 1, 90, 96
1, 65548, Note_off_c, 1, 85, 96
1, 65548, Note_off_c, 1, 81, 96
1, 65548, Note_off_c, 1, 62, 96
1, 65548, Note_off_c, 1, 57, 96
1, 65670, Note_on_c, 1, 61, 96
1, 65670, Note_on_c, 1, 57, 96
1, 65670, Note_on_c, 1, 55, 96
1, 65671, Note_off_c, 1, 61, 96
1, 65671, Note_off_c, 1, 57, 96
1, 65671, Note_off_c, 1, 55, 96
1, 65791, Note_on_c, 1, 45, 96
1, 65791, Note_on_c, 1, 57, 96
1, 65792, Note_off_c, 1, 45, 96
1, 65792, Note_off_c, 1, 57, 96
1, 65852, Note_on_c, 1, 73, 96
1, 65853, Note_off_c, 1, 73, 96
1, 65917, Note_on_c, 1, 78, 96
1, 65917, Note_on_c, 1, 69, 96
1, 65917, Note_on_c, 1, 61, 96
1, 65917, Note_on_c, 1, 57, 96
1, 65917, Note_on_c, 1, 64, 96
1, 65918, Note_off_c, 1, 78, 96
1, 65918, Note_off_c, 1, 69, 96
1, 65918, Note_off_c, 1, 61, 96
1, 65918, Note_off_c, 1, 57, 96
1, 65918, Note_off_c, 1, 64, 96
1, 66035, Note_on_c, 1, 57, 96
1, 66037, Note_off_c, 1, 57, 96
1, 66037, Note_on_c, 1, 67, 96
1, 66039, Note_off_c, 1, 67, 96
1, 66039, Note_on_c, 1, 78, 96
1, 66041, Note_off_c, 1, 78, 96
1, 66041, Note_on_c, 1, 63, 96
1, 66043, Note_off_c, 1, 63, 96
1, 66043, Note_on_c, 1, 69, 96
1, 66044, Note_off_c, 1, 69, 96
1, 66103, Note_on_c, 1, 81, 96
1, 66103, Note_on_c, 1, 85, 96
1, 66104, Note_off_c, 1, 81, 96
1, 66104, Note_off_c, 1, 85, 96
1, 66160, Note_on_c, 1, 60, 96
1, 66161, Note_off_c, 1, 60, 96
1, 66164, Note_on_c, 1, 81, 96
1, 66165, Note_off_c, 1, 81, 96
1, 66330, Note_on_c, 1, 84, 96
1, 66330, Note_on_c, 1, 50, 96
1, 66331, Note_off_c, 1, 84, 96
1, 66331, Note_off_c, 1, 50, 96
1, 66453, Note_on_c, 1, 85, 96
1, 66453, Note_on_c, 1, 73, 96
1, 66454, Note_off_c, 1, 85, 96
1, 66454, Note_off_c, 1, 73, 96
1, 66576, Note_on_c, 1, 85, 96
1, 66576, Note_on_c, 1, 81, 96
1, 66577, Note_off_c, 1, 85, 96
1, 66577, Note_off_c, 1, 81, 96
1, 66637, Note_on_c, 1, 102, 96
1, 66638, Note_off_c, 1, 102, 96
1, 66700, Note_on_c, 1, 89, 96
1, 66700, Note_on_c, 1, 94, 96
1, 66700, Note_on_c, 1, 61, 96
1, 66701, Note_off_c, 1, 89, 96
1, 66701, Note_off_c, 1, 94, 96
1, 66701, Note_off_c, 1, 61, 96
1, 66763, Note_on_c, 1, 69, 96
1, 66763, Note_on_c, 1, 65, 96
1, 66763, Note_on_c, 1, 60, 96
1, 66764, Note_off_c, 1, 69, 96
1, 66764, Note_off_c, 1, 65, 96
1, 66764, Note_off_c, 1, 60, 96
1, 66824, Note_on_c, 1, 79, 96
1, 66825, Note_off_c, 1, 79, 96
1, 66889, Note_on_c, 1, 82, 96
1, 66889, Note_on_c, 1, 73, 96
1, 66889, Note_on_c, 1, 70, 96
1, 66889, Note_on_c, 1, 55, 96
1, 66889, Note_on_c, 1, 43, 96
1, 66890, Note_off_c, 1, 82, 96
1, 66890, Note_off_c, 1, 73, 96
1, 66890, Note_off_c, 1, 70, 96
1, 66890, Note_off_c, 1, 55, 96
1, 66890, Note_off_c, 1, 43, 96
1, 67010, Note_on_c, 1, 82, 96
1, 67011, Note_off_c, 1, 82, 96
1, 67071, Note_on_c, 1, 72, 96
1, 67072, Note_off_c, 1, 72, 96
1, 67132, Note_on_c, 1, 77, 96
1, 67133, Note_off_c, 1, 77, 96
1, 67194, Note_on_c, 1, 86, 96
1, 67194, Note_on_c, 1, 53, 96
1, 67195, Note_off_c, 1, 86, 96
1, 67195, Note_off_c, 1, 53, 96
1, 67256, Note_on_c, 1, 83, 96
1, 67256, Note_on_c, 1, 71, 96
1, 67257, Note_off_c, 1, 83, 96
1, 67257, Note_off_c, 1, 71, 96
1, 67317, Note_on_c, 1, 53, 96
1, 67318, Note_off_c, 1, 53, 96
1, 67379, Note_on_c, 1, 72, 96
1, 67379, Note_on_c, 1, 60, 96
1, 67380, Note_off_c, 1, 72, 96
1, 67380, Note_off_c, 1, 60, 96
1, 67440, Note_on_c, 1, 59, 96
1, 67441, Note_off_c, 1, 59, 96
1, 67501, Note_on_c, 1, 83, 96
1, 67502, Note_off_c, 1, 83, 96
1, 67565, Note_on_c, 1, 83, 96
1, 67565, Note_on_c, 1, 62, 96
1, 67565, Note_on_c, 1, 65, 96
1, 67565, Note_on_c, 1, 59, 96
1, 67566, Note_off_c, 1, 83, 96
1, 67566, Note_off_c, 1, 62, 96
1, 67566, Note_off_c, 1, 65, 96
1, 67566, Note_off_c, 1, 59, 96
1, 67691, Note_on_c, 1, 83, 96
1, 67691, Note_on_c, 1, 74, 96
1, 67691, Note_on_c, 1, 71, 96
1, 67691, Note_on_c, 1, 53, 96
1, 67691, Note_on_c, 1, 59, 96
1, 67691, Note_on_c, 1, 62, 96
1, 67692, Note_off_c, 1, 83, 96
1, 67692, Note_off_c, 1, 74, 96
1, 67692, Note_off_c, 1, 71, 96
1, 67692, Note_off_c, 1, 53, 96
1, 67692, Note_off_c, 1, 59, 96
1, 67692, Note_off_c, 1, 62, 96
1, 67752, Note_on_c, 1, 80, 96
1, 67753, Note_off_c, 1, 80, 96
1, 67773, Note_on_c, 1, 70, 96
1, 67774, Note_off_c, 1, 70, 96
1, 67795, Note_on_c, 1, 59, 96
1, 67795, Note_on_c, 1, 65, 96
1, 67795, Note_on_c, 1, 50, 96
1, 67796, Note_off_c, 1, 59, 96
1, 67796, Note_off_c, 1, 65, 96
1, 67796, Note_off_c, 1, 50, 96
1, 67874, Note_on_c, 1, 74, 96
1, 67875, Note_off_c, 1, 74, 96
1, 67885, Note_on_c, 1, 69, 96
1, 67886, Note_off_c, 1, 69, 96
1, 67897, Note_on_c, 1, 69, 96
1, 67897, Note_on_c, 1, 57, 96
1, 67897, Note_on_c, 1, 60, 96
1, 67897, Note_on_c, 1, 65, 96
1, 67898, Note_off_c, 1, 69, 96
1, 67898, Note_off_c, 1, 57, 96
1, 67898, Note_off_c, 1, 60, 96
1, 67898, Note_off_c, 1, 65, 96
1, 67914, Note_on_c, 1, 69, 96
1, 67915, Note_off_c, 1, 69, 96
1, 67932, Note_on_c, 1, 71, 96
1, 67933, Note_off_c, 1, 71, 96
1, 67949, Note_on_c, 1, 77, 96
1, 67949, Note_on_c, 1, 56, 96
1, 67949, Note_on_c, 1, 44, 96
1, 67949, Note_on_c, 1, 65, 96
1, 67950, Note_off_c, 1, 77, 96
1, 67950, Note_off_c, 1, 56, 96
1, 67950, Note_off_c, 1, 44, 96
1, 67950, Note_off_c, 1, 65, 96
1, 67984, Note_on_c, 1, 80, 96
1, 67984, Note_on_c, 1, 75, 96
1, 67984, Note_on_c, 1, 68, 96
1, 67985, Note_off_c, 1, 80, 96
1, 67985, Note_off_c, 1, 75, 96
1, 67985, Note_off_c, 1, 68, 96
1, 68014, Note_on_c, 1, 63, 96
1, 68014, Note_on_c, 1, 58, 96
1, 68014, Note_on_c, 1, 70, 96
1, 68015, Note_off_c, 1, 63, 96
1, 68015, Note_off_c, 1, 58, 96
1, 68015, Note_off_c, 1, 70, 96
1, 68048, Note_on_c, 1, 74, 96
1, 68049, Note_off_c, 1, 74, 96
1, 68078, Note_on_c, 1, 62, 96
1, 68078, Note_on_c, 1, 56, 96
1, 68078, Note_on_c, 1, 58, 96
1, 68079, Note_off_c, 1, 62, 96
1, 68079, Note_off_c, 1, 56, 96
1, 68079, Note_off_c, 1, 58, 96
1, 68113, Note_on_c, 1, 70, 96
1, 68113, Note_on_c, 1, 74, 96
1, 68114, Note_off_c, 1, 70, 96
1, 68114, Note_off_c, 1, 74, 96
1, 68143, Note_on_c, 1, 62, 96
1, 68143, Note_on_c, 1, 50, 96
1, 68143, Note_on_c, 1, 56, 96
1, 68144, Note_off_c, 1, 62, 96
1, 68144, Note_off_c, 1, 50, 96
1, 68144, Note_off_c, 1, 56, 96
1, 68205, Note_on_c, 1, 58, 96
1, 68206, Note_off_c, 1, 58, 96
1, 68236, Note_on_c, 1, 53, 96
1, 68237, Note_off_c, 1, 53, 96
1, 68239, Note_on_c, 1, 65, 96
1, 68240, Note_off_c, 1, 65, 96
1, 68264, Note_on_c, 1, 56, 96
1, 68265, Note_off_c, 1, 56, 96
1, 68275, Note_on_c, 1, 56, 96
1, 68275, Note_on_c, 1, 62, 96
1, 68275, Note_on_c, 1, 39, 96
1, 68276, Note_off_c, 1, 56, 96
1, 68276, Note_off_c, 1, 62, 96
1, 68276, Note_off_c, 1, 39, 96
1, 68339, Note_on_c, 1, 75, 96
1, 68339, Note_on_c, 1, 63, 96
1, 68339, Note_on_c, 1, 53, 96
1, 68339, Note_on_c, 1, 57, 96
1, 68340, Note_off_c, 1, 75, 96
1, 68340, Note_off_c, 1, 63, 96
1, 68340, Note_off_c, 1, 53, 96
1, 68340, Note_off_c, 1, 57, 96
1, 68400, Note_on_c, 1, 46, 96
1, 68401, Note_off_c, 1, 46, 96
1, 68430, Note_on_c, 1, 74, 96
1, 68431, Note_off_c, 1, 74, 96
1, 68463, Note_on_c, 1, 58, 96
1, 68463, Note_on_c, 1, 63, 96
1, 68463, Note_on_c, 1, 67, 96
1, 68464, Note_off_c, 1, 58, 96
1, 68464, Note_off_c, 1, 63, 96
1, 68464, Note_off_c, 1, 67, 96
1, 68494, Note_on_c, 1, 75, 96
1, 68495, Note_off_c, 1, 75, 96
1, 68527, Note_on_c, 1, 58, 96
1, 68527, Note_on_c, 1, 63, 96
1, 68527, Note_on_c, 1, 55, 96
1, 68528, Note_off_c, 1, 58, 96
1, 68528, Note_off_c, 1, 63, 96
1, 68528, Note_off_c, 1, 55, 96
1, 68588, Note_on_c, 1, 46, 96
1, 68590, Note_off_c, 1, 46, 96
1, 68590, Note_on_c, 1, 58, 96
1, 68591, Note_off_c, 1, 58, 96
1, 68622, Note_on_c, 1, 70, 96
1, 68622, Note_on_c, 1, 63, 96
1, 68623, Note_off_c, 1, 70, 96
1, 68623, Note_off_c, 1, 63, 96
1, 68654, Note_on_c, 1, 58, 96
1, 68654, Note_on_c, 1, 55, 96
1, 68655, Note_off_c, 1, 58, 96
1, 68655, Note_off_c, 1, 55, 96
1, 68717, Note_on_c, 1, 70, 96
1, 68717, Note_on_c, 1, 74, 96
1, 68717, Note_on_c, 1, 40, 96
1, 68718, Note_off_c, 1, 70, 96
1, 68718, Note_off_c, 1, 74, 96
1, 68718, Note_off_c, 1, 40, 96
1, 68751, Note_on_c, 1, 68, 96
1, 68751, Note_on_c, 1, 65, 96
1, 68751, Note_on_c, 1, 74, 96
1, 68751, Note_on_c, 1, 62, 96
1, 68752, Note_off_c, 1, 68, 96
1, 68752, Note_off_c, 1, 65, 96
1, 68752, Note_off_c, 1, 74, 96
1, 68752, Note_off_c, 1, 62, 96
1, 68782, Note_on_c, 1, 38, 96
1, 68783, Note_off_c, 1, 38, 96
1, 68814, Note_on_c, 1, 65, 96
1, 68814, Note_on_c, 1, 53, 96
1, 68815, Note_off_c, 1, 65, 96
1, 68815, Note_off_c, 1, 53, 96
1, 68877, Note_on_c, 1, 67, 96
1, 68877, Note_on_c, 1, 63, 96
1, 68877, Note_on_c, 1, 58, 96
1, 68878, Note_off_c, 1, 67, 96
1, 68878, Note_off_c, 1, 63, 96
1, 68878, Note_off_c, 1, 58, 96
1, 68940, Note_on_c, 1, 68, 96
1, 68940, Note_on_c, 1, 48, 96
1, 68940, Note_on_c, 1, 36, 96
1, 68941, Note_off_c, 1, 68, 96
1, 68941, Note_off_c, 1, 48, 96
1, 68941, Note_off_c, 1, 36, 96
1, 69004, Note_on_c, 1, 65, 96
1, 69004, Note_on_c, 1, 62, 96
1, 69004, Note_on_c, 1, 58, 96
1, 69004, Note_on_c, 1, 46, 96
1, 69005, Note_off_c, 1, 65, 96
1, 69005, Note_off_c, 1, 62, 96
1, 69005, Note_off_c, 1, 58, 96
1, 69005, Note_off_c, 1, 46, 96
1, 69066, Note_on_c, 1, 58, 96
1, 69066, Note_on_c, 1, 46, 96
1, 69067, Note_off_c, 1, 58, 96
1, 69067, Note_off_c, 1, 46, 96
1, 69100, Note_on_c, 1, 39, 96
1, 69100, Note_on_c, 1, 66, 96
1, 69100, Note_on_c, 1, 58, 96
1, 69100, Note_on_c, 1, 51, 96
1, 69101, Note_off_c, 1, 39, 96
1, 69101, Note_off_c, 1, 66, 96
1, 69101, Note_off_c, 1, 58, 96
1, 69101, Note_off_c, 1, 51, 96
1, 69131, Note_on_c, 1, 67, 96
1, 69132, Note_off_c, 1, 67, 96
1, 69163, Note_on_c, 1, 63, 96
1, 69163, Note_on_c, 1, 58, 96
1, 69164, Note_off_c, 1, 63, 96
1, 69164, Note_off_c, 1, 58, 96
1, 69224, Note_on_c, 1, 62, 96
1, 69226, Note_off_c, 1, 62, 96
1, 69226, Note_on_c, 1, 58, 96
1, 69228, Note_off_c, 1, 58, 96
1, 69228, Note_on_c, 1, 53, 96
1, 69229, Note_off_c, 1, 53, 96
1, 69290, Note_on_c, 1, 53, 96
1, 69290, Note_on_c, 1, 58, 96
1, 69290, Note_on_c, 1, 61, 96
1, 69291, Note_off_c, 1, 53, 96
1, 69291, Note_off_c, 1, 58, 96
1, 69291, Note_off_c, 1, 61, 96
1, 69352, Note_on_c, 1, 53, 96
1, 69352, Note_on_c, 1, 41, 96
1, 69353, Note_off_c, 1, 53, 96
1, 69353, Note_off_c, 1, 41, 96
1, 69413, Note_on_c, 1, 50, 96
1, 69414, Note_off_c, 1, 50, 96
1, 69416, Note_on_c, 1, 38, 96
1, 69417, Note_off_c, 1, 38, 96
1, 69478, Note_on_c, 1, 65, 96
1, 69479, Note_off_c, 1, 65, 96
1, 69512, Note_on_c, 1, 65, 96
1, 69514, Note_off_c, 1, 65, 96
1, 69514, Note_on_c, 1, 46, 96
1, 69517, Note_off_c, 1, 46, 96
1, 69517, Note_on_c, 1, 65, 96
1, 69517, Note_on_c, 1, 62, 96
1, 69518, Note_off_c, 1, 65, 96
1, 69518, Note_off_c, 1, 62, 96
1, 69576, Note_on_c, 1, 49, 96
1, 69578, Note_off_c, 1, 49, 96
1, 69578, Note_on_c, 1, 37, 96
1, 69579, Note_off_c, 1, 37, 96
1, 69638, Note_on_c, 1, 55, 96
1, 69639, Note_off_c, 1, 55, 96
1, 69763, Note_on_c, 1, 48, 96
1, 69764, Note_off_c, 1, 48, 96
1, 69767, Note_on_c, 1, 60, 96
1, 69768, Note_off_c, 1, 60, 96
1, 69976, Note_on_c, 1, 67, 96
1, 69977, Note_off_c, 1, 67, 96
1, 69979, Note_on_c, 1, 62, 96
1, 69980, Note_off_c, 1, 62, 96
1, 70096, Note_on_c, 1, 68, 96
1, 70097, Note_off_c, 1, 68, 96
1, 70213, Note_on_c, 1, 65, 96
1, 70214, Note_off_c, 1, 65, 96
1, 70335, Note_on_c, 1, 44, 96
1, 70336, Note_off_c, 1, 44, 96
1, 70338, Note_on_c, 1, 71, 96
1, 70339, Note_off_c, 1, 71, 96
1, 70341, Note_on_c, 1, 59, 96
1, 70342, Note_off_c, 1, 59, 96
1, 70577, Note_on_c, 1, 75, 96
1, 70578, Note_off_c, 1, 75, 96
1, 70583, Note_on_c, 1, 70, 96
1, 70586, Note_off_c, 1, 70, 96
1, 70586, Note_on_c, 1, 79, 96
1, 70586, Note_on_c, 1, 67, 96
1, 70587, Note_off_c, 1, 79, 96
1, 70587, Note_off_c, 1, 67, 96
1, 70705, Note_on_c, 1, 70, 96
1, 70705, Note_on_c, 1, 67, 96
1, 70706, Note_off_c, 1, 70, 96
1, 70706, Note_off_c, 1, 67, 96
1, 70710, Note_on_c, 1, 43, 96
1, 70711, Note_off_c, 1, 43, 96
1, 70832, Note_on_c, 1, 50, 96
1, 70833, Note_off_c, 1, 50, 96
1, 70888, Note_on_c, 1, 68, 96
1, 70889, Note_off_c, 1, 68, 96
1, 70949, Note_on_c, 1, 60, 96
1, 70951, Note_off_c, 1, 60, 96
1, 70951, Note_on_c, 1, 72, 96
1, 70954, Note_off_c, 1, 72, 96
1, 70954, Note_on_c, 1, 67, 96
1, 70954, Note_on_c, 1, 51, 96
1, 70955, Note_off_c, 1, 67, 96
1, 70955, Note_off_c, 1, 51, 96
1, 71073, Note_on_c, 1, 63, 96
1, 71073, Note_on_c, 1, 72, 96
1, 71074, Note_off_c, 1, 63, 96
1, 71074, Note_off_c, 1, 72, 96
1, 71081, Note_on_c, 1, 46, 96
1, 71082, Note_off_c, 1, 46, 96
1, 71143, Note_on_c, 1, 70, 96
1, 71145, Note_off_c, 1, 70, 96
1, 71145, Note_on_c, 1, 82, 96
1, 71146, Note_off_c, 1, 82, 96
1, 71197, Note_on_c, 1, 38, 96
1, 71198, Note_off_c, 1, 38, 96
1, 71200, Note_on_c, 1, 50, 96
1, 71203, Note_off_c, 1, 50, 96
1, 71203, Note_on_c, 1, 86, 96
1, 71203, Note_on_c, 1, 77, 96
1, 71204, Note_off_c, 1, 86, 96
1, 71204, Note_off_c, 1, 77, 96
1, 71259, Note_on_c, 1, 84, 96
1, 71260, Note_off_c, 1, 84, 96
1, 71263, Note_on_c, 1, 79, 96
1, 71264, Note_off_c, 1, 79, 96
1, 71266, Note_on_c, 1, 76, 96
1, 71267, Note_off_c, 1, 76, 96
1, 71323, Note_on_c, 1, 67, 96
1, 71323, Note_on_c, 1, 62, 96
1, 71326, Note_off_c, 1, 67, 96
1, 71326, Note_off_c, 1, 62, 96
1, 71326, Note_on_c, 1, 79, 96
1, 71326, Note_on_c, 1, 55, 96
1, 71327, Note_off_c, 1, 79, 96
1, 71327, Note_off_c, 1, 55, 96
1, 71329, Note_on_c, 1, 58, 96
1, 71330, Note_off_c, 1, 58, 96
1, 71449, Note_on_c, 1, 58, 96
1, 71451, Note_off_c, 1, 58, 96
1, 71451, Note_on_c, 1, 62, 96
1, 71454, Note_off_c, 1, 62, 96
1, 71454, Note_on_c, 1, 79, 96
1, 71454, Note_on_c, 1, 55, 96
1, 71455, Note_off_c, 1, 79, 96
1, 71455, Note_off_c, 1, 55, 96
1, 71572, Note_on_c, 1, 74, 96
1, 71574, Note_off_c, 1, 74, 96
1, 71574, Note_on_c, 1, 77, 96
1, 71575, Note_off_c, 1, 77, 96
1, 71577, Note_on_c, 1, 81, 96
1, 71579, Note_off_c, 1, 81, 96
1, 71579, Note_on_c, 1, 41, 96
1, 71581, Note_off_c, 1, 41, 96
1, 71581, Note_on_c, 1, 86, 96
1, 71582, Note_off_c, 1, 86, 96
1, 71698, Note_on_c, 1, 48, 96
1, 71700, Note_off_c, 1, 48, 96
1, 71700, Note_on_c, 1, 62, 96
1, 71701, Note_off_c, 1, 62, 96
1, 71758, Note_on_c, 1, 46, 96
1, 71760, Note_off_c, 1, 46, 96
1, 71760, Note_on_c, 1, 58, 96
1, 71762, Note_off_c, 1, 58, 96
1, 71762, Note_on_c, 1, 56, 96
1, 71763, Note_off_c, 1, 56, 96
1, 71824, Note_on_c, 1, 82, 96
1, 71825, Note_off_c, 1, 82, 96
1, 71880, Note_on_c, 1, 51, 96
1, 71882, Note_off_c, 1, 51, 96
1, 71882, Note_on_c, 1, 72, 96
1, 71884, Note_off_c, 1, 72, 96
1, 71884, Note_on_c, 1, 39, 96
1, 71887, Note_off_c, 1, 39, 96
1, 71887, Note_on_c, 1, 94, 96
1, 71887, Note_on_c, 1, 84, 96
1, 71888, Note_off_c, 1, 94, 96
1, 71888, Note_off_c, 1, 84, 96
1, 71950, Note_on_c, 1, 91, 96
1, 71950, Note_on_c, 1, 79, 96
1, 71951, Note_off_c, 1, 91, 96
1, 71951, Note_off_c, 1, 79, 96
1, 72008, Note_on_c, 1, 58, 96
1, 72009, Note_off_c, 1, 58, 96
1, 72013, Note_on_c, 1, 55, 96
1, 72015, Note_off_c, 1, 55, 96
1, 72015, Note_on_c, 1, 63, 96
1, 72016, Note_off_c, 1, 63, 96
1, 72376, Note_on_c, 1, 70, 96
1, 72377, Note_off_c, 1, 70, 96
1, 72379, Note_on_c, 1, 70, 96
1, 72380, Note_off_c, 1, 70, 96
1, 72624, Note_on_c, 1, 79, 96
1, 72626, Note_off_c, 1, 79, 96
1, 72626, Note_on_c, 1, 55, 96
1, 72627, Note_off_c, 1, 55, 96
1, 72746, Note_on_c, 1, 72, 96
1, 72746, Note_on_c, 1, 57, 96
1, 72748, Note_off_c, 1, 72, 96
1, 72748, Note_off_c, 1, 57, 96
1, 72748, Note_on_c, 1, 69, 96
1, 72749, Note_off_c, 1, 69, 96
1, 72752, Note_on_c, 1, 60, 96
1, 72752, Note_on_c, 1, 64, 96
1, 72754, Note_off_c, 1, 60, 96
1, 72754, Note_off_c, 1, 64, 96
1, 72754, Note_on_c, 1, 66, 96
1, 72755, Note_off_c, 1, 66, 96
1, 72810, Note_on_c, 1, 81, 96
1, 72811, Note_off_c, 1, 81, 96
1, 72816, Note_on_c, 1, 69, 96
1, 72817, Note_off_c, 1, 69, 96
1, 72873, Note_on_c, 1, 43, 96
1, 72874, Note_off_c, 1, 43, 96
1, 72937, Note_on_c, 1, 78, 96
1, 72938, Note_off_c, 1, 78, 96
1, 72994, Note_on_c, 1, 60, 96
1, 72996, Note_off_c, 1, 60, 96
1, 72996, Note_on_c, 1, 63, 96
1, 72997, Note_off_c, 1, 63, 96
1, 72999, Note_on_c, 1, 78, 96
1, 73000, Note_off_c, 1, 78, 96
1, 73002, Note_on_c, 1, 57, 96
1, 73003, Note_off_c, 1, 57, 96
1, 73115, Note_on_c, 1, 60, 96
1, 73117, Note_off_c, 1, 60, 96
1, 73117, Note_on_c, 1, 57, 96
1, 73120, Note_off_c, 1, 57, 96
1, 73120, Note_on_c, 1, 76, 96
1, 73120, Note_on_c, 1, 54, 96
1, 73121, Note_off_c, 1, 76, 96
1, 73121, Note_off_c, 1, 54, 96
1, 73244, Note_on_c, 1, 69, 96
1, 73245, Note_off_c, 1, 69, 96
1, 73304, Note_on_c, 1, 79, 96
1, 73304, Note_on_c, 1, 51, 96
1, 73305, Note_off_c, 1, 79, 96
1, 73305, Note_off_c, 1, 51, 96
1, 73363, Note_on_c, 1, 73, 96
1, 73364, Note_off_c, 1, 73, 96
1, 73422, Note_on_c, 1, 70, 96
1, 73423, Note_off_c, 1, 70, 96
1, 73482, Note_on_c, 1, 55, 96
1, 73483, Note_off_c, 1, 55, 96
1, 73488, Note_on_c, 1, 67, 96
1, 73489, Note_off_c, 1, 67, 96
1, 73546, Note_on_c, 1, 36, 96
1, 73547, Note_off_c, 1, 36, 96
1, 73549, Note_on_c, 1, 48, 96
1, 73551, Note_off_c, 1, 48, 96
1, 73551, Note_on_c, 1, 77, 96
1, 73552, Note_off_c, 1, 77, 96
1, 73671, Note_on_c, 1, 58, 96
1, 73671, Note_on_c, 1, 46, 96
1, 73672, Note_off_c, 1, 58, 96
1, 73672, Note_off_c, 1, 46, 96
1, 73788, Note_on_c, 1, 63, 96
1, 73789, Note_off_c, 1, 63, 96
1, 73791, Note_on_c, 1, 55, 96
1, 73793, Note_off_c, 1, 55, 96
1, 73793, Note_on_c, 1, 58, 96
1, 73794, Note_off_c, 1, 58, 96
1, 73796, Note_on_c, 1, 72, 96
1, 73797, Note_off_c, 1, 72, 96
1, 73912, Note_on_c, 1, 56, 96
1, 73913, Note_off_c, 1, 56, 96
1, 73916, Note_on_c, 1, 44, 96
1, 73917, Note_off_c, 1, 44, 96
1, 74156, Note_on_c, 1, 75, 96
1, 74157, Note_off_c, 1, 75, 96
1, 74159, Note_on_c, 1, 32, 96
1, 74160, Note_off_c, 1, 32, 96
1, 74165, Note_on_c, 1, 75, 96
1, 74165, Note_on_c, 1, 68, 96
1, 74165, Note_on_c, 1, 80, 96
1, 74165, Note_on_c, 1, 72, 96
1, 74167, Note_off_c, 1, 75, 96
1, 74167, Note_off_c, 1, 68, 96
1, 74167, Note_off_c, 1, 80, 96
1, 74167, Note_off_c, 1, 72, 96
1, 74167, Note_on_c, 1, 44, 96
1, 74168, Note_off_c, 1, 44, 96
1, 74302, Note_on_c, 1, 82, 96
1, 74304, Note_off_c, 1, 82, 96
1, 74304, Note_on_c, 1, 79, 96
1, 74305, Note_off_c, 1, 79, 96
1, 74357, Note_on_c, 1, 60, 96
1, 74358, Note_off_c, 1, 60, 96
1, 74363, Note_on_c, 1, 72, 96
1, 74364, Note_off_c, 1, 72, 96
1, 74420, Note_on_c, 1, 55, 96
1, 74421, Note_off_c, 1, 55, 96
1, 74423, Note_on_c, 1, 43, 96
1, 74424, Note_off_c, 1, 43, 96
1, 74426, Note_on_c, 1, 79, 96
1, 74427, Note_off_c, 1, 79, 96
1, 74547, Note_on_c, 1, 84, 96
1, 74548, Note_off_c, 1, 84, 96
1, 74551, Note_on_c, 1, 78, 96
1, 74551, Note_on_c, 1, 48, 96
1, 74552, Note_off_c, 1, 78, 96
1, 74552, Note_off_c, 1, 48, 96
1, 74672, Note_on_c, 1, 76, 96
1, 74675, Note_off_c, 1, 76, 96
1, 74675, Note_on_c, 1, 55, 96
1, 74675, Note_on_c, 1, 58, 96
1, 74677, Note_off_c, 1, 55, 96
1, 74677, Note_off_c, 1, 58, 96
1, 74677, Note_on_c, 1, 60, 96
1, 74678, Note_off_c, 1, 60, 96
1, 74908, Note_on_c, 1, 41, 96
1, 74910, Note_off_c, 1, 41, 96
1, 74910, Note_on_c, 1, 53, 96
1, 74911, Note_off_c, 1, 53, 96
1, 74913, Note_on_c, 1, 72, 96
1, 74915, Note_off_c, 1, 72, 96
1, 74915, Note_on_c, 1, 69, 96
1, 74916, Note_off_c, 1, 69, 96
1, 74918, Note_on_c, 1, 77, 96
1, 74919, Note_off_c, 1, 77, 96
1, 75038, Note_on_c, 1, 75, 96
1, 75041, Note_off_c, 1, 75, 96
1, 75041, Note_on_c, 1, 72, 96
1, 75041, Note_on_c, 1, 48, 96
1, 75042, Note_off_c, 1, 72, 96
1, 75042, Note_off_c, 1, 48, 96
1, 75157, Note_on_c, 1, 66, 96
1, 75159, Note_off_c, 1, 66, 96
1, 75159, Note_on_c, 1, 72, 96
1, 75161, Note_off_c, 1, 72, 96
1, 75161, Note_on_c, 1, 57, 96
1, 75163, Note_off_c, 1, 57, 96
1, 75163, Note_on_c, 1, 60, 96
1, 75165, Note_off_c, 1, 60, 96
1, 75165, Note_on_c, 1, 78, 96
1, 75166, Note_off_c, 1, 78, 96
1, 75168, Note_on_c, 1, 63, 96
1, 75169, Note_off_c, 1, 63, 96
1, 75283, Note_on_c, 1, 77, 96
1, 75284, Note_off_c, 1, 77, 96
1, 75287, Note_on_c, 1, 69, 96
1, 75287, Note_on_c, 1, 41, 96
1, 75290, Note_off_c, 1, 69, 96
1, 75290, Note_off_c, 1, 41, 96
1, 75290, Note_on_c, 1, 75, 96
1, 75290, Note_on_c, 1, 53, 96
1, 75291, Note_off_c, 1, 75, 96
1, 75291, Note_off_c, 1, 53, 96
1, 75293, Note_on_c, 1, 72, 96
1, 75294, Note_off_c, 1, 72, 96
1, 75408, Note_on_c, 1, 77, 96
1, 75409, Note_off_c, 1, 77, 96
1, 75411, Note_on_c, 1, 65, 96
1, 75412, Note_off_c, 1, 65, 96
1, 75416, Note_on_c, 1, 69, 96
1, 75416, Note_on_c, 1, 53, 96
1, 75416, Note_on_c, 1, 57, 96
1, 75418, Note_off_c, 1, 69, 96
1, 75418, Note_off_c, 1, 53, 96
1, 75418, Note_off_c, 1, 57, 96
1, 75418, Note_on_c, 1, 48, 96
1, 75419, Note_off_c, 1, 48, 96
1, 75536, Note_on_c, 1, 53, 96
1, 75538, Note_off_c, 1, 53, 96
1, 75538, Note_on_c, 1, 72, 96
1, 75539, Note_off_c, 1, 72, 96
1, 75908, Note_on_c, 1, 67, 96
1, 75909, Note_off_c, 1, 67, 96
1, 75911, Note_on_c, 1, 46, 96
1, 75912, Note_off_c, 1, 46, 96
1, 76029, Note_on_c, 1, 48, 96
1, 76030, Note_off_c, 1, 48, 96
1, 76147, Note_on_c, 1, 50, 96
1, 76149, Note_off_c, 1, 50, 96
1, 76149, Note_on_c, 1, 59, 96
1, 76150, Note_off_c, 1, 59, 96
1, 76152, Note_on_c, 1, 65, 96
1, 76153, Note_off_c, 1, 65, 96
1, 76272, Note_on_c, 1, 41, 96
1, 76272, Note_on_c, 1, 53, 96
1, 76274, Note_off_c, 1, 41, 96
1, 76274, Note_off_c, 1, 53, 96
1, 76274, Note_on_c, 1, 65, 96
1, 76275, Note_off_c, 1, 65, 96
1, 76516, Note_on_c, 1, 57, 96
1, 76516, Note_on_c, 1, 60, 96
1, 76517, Note_off_c, 1, 57, 96
1, 76517, Note_off_c, 1, 60, 96
1, 76519, Note_on_c, 1, 53, 96
1, 76520, Note_off_c, 1, 53, 96
1, 76522, Note_on_c, 1, 74, 96
1, 76523, Note_off_c, 1, 74, 96
1, 76637, Note_on_c, 1, 65, 96
1, 76638, Note_off_c, 1, 65, 96
1, 76641, Note_on_c, 1, 79, 96
1, 76643, Note_off_c, 1, 79, 96
1, 76643, Note_on_c, 1, 43, 96
1, 76645, Note_off_c, 1, 43, 96
1, 76645, Note_on_c, 1, 55, 96
1, 76647, Note_off_c, 1, 55, 96
1, 76647, Note_on_c, 1, 77, 96
1, 76648, Note_off_c, 1, 77, 96
1, 76709, Note_on_c, 1, 79, 96
1, 76710, Note_off_c, 1, 79, 96
1, 76768, Note_on_c, 1, 43, 96
1, 76769, Note_off_c, 1, 43, 96
1, 76772, Note_on_c, 1, 71, 96
1, 76772, Note_on_c, 1, 76, 96
1, 76774, Note_off_c, 1, 71, 96
1, 76774, Note_off_c, 1, 76, 96
1, 76774, Note_on_c, 1, 79, 96
1, 76776, Note_off_c, 1, 79, 96
1, 76776, Note_on_c, 1, 31, 96
1, 76777, Note_off_c, 1, 31, 96
1, 76893, Note_on_c, 1, 52, 96
1, 76894, Note_off_c, 1, 52, 96
1, 77011, Note_on_c, 1, 79, 96
1, 77014, Note_off_c, 1, 79, 96
1, 77014, Note_on_c, 1, 60, 96
1, 77014, Note_on_c, 1, 55, 96
1, 77016, Note_off_c, 1, 60, 96
1, 77016, Note_off_c, 1, 55, 96
1, 77016, Note_on_c, 1, 76, 96
1, 77017, Note_off_c, 1, 76, 96
1, 77023, Note_on_c, 1, 64, 96
1, 77023, Note_on_c, 1, 58, 96
1, 77024, Note_off_c, 1, 64, 96
1, 77024, Note_off_c, 1, 58, 96
1, 77143, Note_on_c, 1, 77, 96
1, 77143, Note_on_c, 1, 41, 96
1, 77145, Note_off_c, 1, 77, 96
1, 77145, Note_off_c, 1, 41, 96
1, 77145, Note_on_c, 1, 69, 96
1, 77147, Note_off_c, 1, 69, 96
1, 77147, Note_on_c, 1, 65, 96
1, 77148, Note_off_c, 1, 65, 96
1, 77150, Note_on_c, 1, 53, 96
1, 77151, Note_off_c, 1, 53, 96
1, 77264, Note_on_c, 1, 45, 96
1, 77265, Note_off_c, 1, 45, 96
1, 77268, Note_on_c, 1, 41, 96
1, 77270, Note_off_c, 1, 41, 96
1, 77270, Note_on_c, 1, 57, 96
1, 77271, Note_off_c, 1, 57, 96
1, 77273, Note_on_c, 1, 53, 96
1, 77274, Note_off_c, 1, 53, 96
1, 77390, Note_on_c, 1, 57, 96
1, 77391, Note_off_c, 1, 57, 96
1, 77394, Note_on_c, 1, 53, 96
1, 77396, Note_off_c, 1, 53, 96
1, 77396, Note_on_c, 1, 63, 96
1, 77397, Note_off_c, 1, 63, 96
1, 77516, Note_on_c, 1, 65, 96
1, 77516, Note_on_c, 1, 57, 96
1, 77517, Note_off_c, 1, 65, 96
1, 77517, Note_off_c, 1, 57, 96
1, 77521, Note_on_c, 1, 68, 96
1, 77524, Note_off_c, 1, 68, 96
1, 77524, Note_on_c, 1, 77, 96
1, 77524, Note_on_c, 1, 60, 96
1, 77525, Note_off_c, 1, 77, 96
1, 77525, Note_off_c, 1, 60, 96
1, 77581, Note_on_c, 1, 65, 96
1, 77582, Note_off_c, 1, 65, 96
1, 77585, Note_on_c, 1, 60, 96
1, 77585, Note_on_c, 1, 69, 96
1, 77586, Note_off_c, 1, 60, 96
1, 77586, Note_off_c, 1, 69, 96
1, 77588, Note_on_c, 1, 57, 96
1, 77589, Note_off_c, 1, 57, 96
1, 77704, Note_on_c, 1, 74, 96
1, 77704, Note_on_c, 1, 65, 96
1, 77705, Note_off_c, 1, 74, 96
1, 77705, Note_off_c, 1, 65, 96
1, 77707, Note_on_c, 1, 57, 96
1, 77708, Note_off_c, 1, 57, 96
1, 77711, Note_on_c, 1, 69, 96
1, 77711, Note_on_c, 1, 62, 96
1, 77712, Note_off_c, 1, 69, 96
1, 77712, Note_off_c, 1, 62, 96
1, 77827, Note_on_c, 1, 62, 96
1, 77828, Note_off_c, 1, 62, 96
1, 77946, Note_on_c, 1, 81, 96
1, 77947, Note_off_c, 1, 81, 96
1, 77952, Note_on_c, 1, 69, 96
1, 77954, Note_off_c, 1, 69, 96
1, 77954, Note_on_c, 1, 65, 96
1, 77955, Note_off_c, 1, 65, 96
1, 78071, Note_on_c, 1, 77, 96
1, 78072, Note_off_c, 1, 77, 96
1, 78129, Note_on_c, 1, 64, 96
1, 78130, Note_off_c, 1, 64, 96
1, 78190, Note_on_c, 1, 57, 96
1, 78191, Note_off_c, 1, 57, 96
1, 78194, Note_on_c, 1, 76, 96
1, 78194, Note_on_c, 1, 45, 96
1, 78195, Note_off_c, 1, 76, 96
1, 78195, Note_off_c, 1, 45, 96
1, 78313, Note_on_c, 1, 76, 96
1, 78314, Note_off_c, 1, 76, 96
1, 78319, Note_on_c, 1, 64, 96
1, 78319, Note_on_c, 1, 69, 96
1, 78319, Note_on_c, 1, 60, 96
1, 78320, Note_off_c, 1, 64, 96
1, 78320, Note_off_c, 1, 69, 96
1, 78320, Note_off_c, 1, 60, 96
1, 78323, Note_on_c, 1, 57, 96
1, 78324, Note_off_c, 1, 57, 96
1, 78442, Note_on_c, 1, 33, 96
1, 78444, Note_off_c, 1, 33, 96
1, 78444, Note_on_c, 1, 45, 96
1, 78445, Note_off_c, 1, 45, 96
1, 78448, Note_on_c, 1, 69, 96
1, 78448, Note_on_c, 1, 81, 96
1, 78449, Note_off_c, 1, 69, 96
1, 78449, Note_off_c, 1, 81, 96
1, 78565, Note_on_c, 1, 76, 96
1, 78567, Note_off_c, 1, 76, 96
1, 78567, Note_on_c, 1, 72, 96
1, 78568, Note_off_c, 1, 72, 96
1, 78630, Note_on_c, 1, 48, 96
1, 78631, Note_off_c, 1, 48, 96
1, 78634, Note_on_c, 1, 60, 96
1, 78635, Note_off_c, 1, 60, 96
1, 78872, Note_on_c, 1, 62, 96
1, 78873, Note_off_c, 1, 62, 96
1, 78877, Note_on_c, 1, 50, 96
1, 78879, Note_off_c, 1, 50, 96
1, 78879, Note_on_c, 1, 74, 96
1, 78880, Note_off_c, 1, 74, 96
1, 78994, Note_on_c, 1, 68, 96
1, 78995, Note_off_c, 1, 68, 96
1, 79114, Note_on_c, 1, 58, 96
1, 79115, Note_off_c, 1, 58, 96
1, 79118, Note_on_c, 1, 72, 96
1, 79119, Note_off_c, 1, 72, 96
1, 79121, Note_on_c, 1, 64, 96
1, 79123, Note_off_c, 1, 64, 96
1, 79123, Note_on_c, 1, 60, 96
1, 79124, Note_off_c, 1, 60, 96
1, 79178, Note_on_c, 1, 74, 96
1, 79179, Note_off_c, 1, 74, 96
1, 79239, Note_on_c, 1, 48, 96
1, 79240, Note_off_c, 1, 48, 96
1, 79245, Note_on_c, 1, 76, 96
1, 79246, Note_off_c, 1, 76, 96
1, 79300, Note_on_c, 1, 76, 96
1, 79301, Note_off_c, 1, 76, 96
1, 79303, Note_on_c, 1, 70, 96
1, 79304, Note_off_c, 1, 70, 96
1, 79365, Note_on_c, 1, 70, 96
1, 79365, Note_on_c, 1, 52, 96
1, 79367, Note_off_c, 1, 70, 96
1, 79367, Note_off_c, 1, 52, 96
1, 79367, Note_on_c, 1, 76, 96
1, 79368, Note_off_c, 1, 76, 96
1, 79489, Note_on_c, 1, 53, 96
1, 79493, Note_off_c, 1, 53, 96
1, 79493, Note_on_c, 1, 74, 96
1, 79493, Note_on_c, 1, 65, 96
1, 79493, Note_on_c, 1, 72, 96
1, 79495, Note_off_c, 1, 74, 96
1, 79495, Note_off_c, 1, 65, 96
1, 79495, Note_off_c, 1, 72, 96
1, 79495, Note_on_c, 1, 70, 96
1, 79496, Note_off_c, 1, 70, 96
1, 79616, Note_on_c, 1, 50, 96
1, 79618, Note_off_c, 1, 50, 96
1, 79618, Note_on_c, 1, 67, 96
1, 79620, Note_off_c, 1, 67, 96
1, 79620, Note_on_c, 1, 62, 96
1, 79622, Note_off_c, 1, 62, 96
1, 79622, Note_on_c, 1, 74, 96
1, 79623, Note_off_c, 1, 74, 96
1, 79737, Note_on_c, 1, 39, 96
1, 79738, Note_off_c, 1, 39, 96
1, 79744, Note_on_c, 1, 70, 96
1, 79744, Note_on_c, 1, 51, 96
1, 79745, Note_off_c, 1, 70, 96
1, 79745, Note_off_c, 1, 51, 96
1, 79805, Note_on_c, 1, 71, 96
1, 79806, Note_off_c, 1, 71, 96
1, 79861, Note_on_c, 1, 65, 96
1, 79864, Note_off_c, 1, 65, 96
1, 79864, Note_on_c, 1, 59, 96
1, 79864, Note_on_c, 1, 53, 96
1, 79865, Note_off_c, 1, 59, 96
1, 79865, Note_off_c, 1, 53, 96
1, 79867, Note_on_c, 1, 67, 96
1, 79868, Note_off_c, 1, 67, 96
1, 79870, Note_on_c, 1, 43, 96
1, 79871, Note_off_c, 1, 43, 96
1, 79988, Note_on_c, 1, 67, 96
1, 79989, Note_off_c, 1, 67, 96
1, 79993, Note_on_c, 1, 43, 96
1, 79994, Note_off_c, 1, 43, 96
1, 80111, Note_on_c, 1, 65, 96
1, 80114, Note_off_c, 1, 65, 96
1, 80114, Note_on_c, 1, 55, 96
1, 80114, Note_on_c, 1, 50, 96
1, 80115, Note_off_c, 1, 55, 96
1, 80115, Note_off_c, 1, 50, 96
1, 80117, Note_on_c, 1, 74, 96
1, 80119, Note_off_c, 1, 74, 96
1, 80119, Note_on_c, 1, 59, 96
1, 80120, Note_off_c, 1, 59, 96
1, 80235, Note_on_c, 1, 72, 96
1, 80235, Note_on_c, 1, 48, 96
1, 80237, Note_off_c, 1, 72, 96
1, 80237, Note_off_c, 1, 48, 96
1, 80237, Note_on_c, 1, 72, 96
1, 80238, Note_off_c, 1, 72, 96
1, 80478, Note_on_c, 1, 74, 96
1, 80479, Note_off_c, 1, 74, 96
1, 80483, Note_on_c, 1, 72, 96
1, 80483, Note_on_c, 1, 48, 96
1, 80484, Note_off_c, 1, 72, 96
1, 80484, Note_off_c, 1, 48, 96
1, 80596, Note_on_c, 1, 65, 96
1, 80597, Note_off_c, 1, 65, 96
1, 80599, Note_on_c, 1, 74, 96
1, 80600, Note_off_c, 1, 74, 96
1, 80602, Note_on_c, 1, 55, 96
1, 80603, Note_off_c, 1, 55, 96
1, 80606, Note_on_c, 1, 53, 96
1, 80606, Note_on_c, 1, 59, 96
1, 80608, Note_off_c, 1, 53, 96
1, 80608, Note_off_c, 1, 59, 96
1, 80608, Note_on_c, 1, 67, 96
1, 80609, Note_off_c, 1, 67, 96
1, 80726, Note_on_c, 1, 43, 96
1, 80727, Note_off_c, 1, 43, 96
1, 80844, Note_on_c, 1, 43, 96
1, 80845, Note_off_c, 1, 43, 96
1, 80908, Note_on_c, 1, 67, 96
1, 80910, Note_off_c, 1, 67, 96
1, 80910, Note_on_c, 1, 55, 96
1, 80911, Note_off_c, 1, 55, 96
1, 80969, Note_on_c, 1, 67, 96
1, 80970, Note_off_c, 1, 67, 96
1, 81031, Note_on_c, 1, 69, 96
1, 81032, Note_off_c, 1, 69, 96
1, 81092, Note_on_c, 1, 72, 96
1, 81093, Note_off_c, 1, 72, 96
1, 81096, Note_on_c, 1, 48, 96
1, 81097, Note_off_c, 1, 48, 96
1, 81214, Note_on_c, 1, 67, 96
1, 81215, Note_off_c, 1, 67, 96
1, 81336, Note_on_c, 1, 43, 96
1, 81337, Note_off_c, 1, 43, 96
1, 81580, Note_on_c, 1, 75, 96
1, 81580, Note_on_c, 1, 87, 96
1, 81582, Note_off_c, 1, 75, 96
1, 81582, Note_off_c, 1, 87, 96
1, 81582, Note_on_c, 1, 48, 96
1, 81583, Note_off_c, 1, 48, 96
1, 81587, Note_on_c, 1, 81, 96
1, 81587, Note_on_c, 1, 60, 96
1, 81589, Note_off_c, 1, 81, 96
1, 81589, Note_off_c, 1, 60, 96
1, 81589, Note_on_c, 1, 36, 96
1, 81590, Note_off_c, 1, 36, 96
1, 81706, Note_on_c, 1, 83, 96
1, 81707, Note_off_c, 1, 83, 96
1, 81767, Note_on_c, 1, 83, 96
1, 81768, Note_off_c, 1, 83, 96
1, 81823, Note_on_c, 1, 55, 96
1, 81825, Note_off_c, 1, 55, 96
1, 81825, Note_on_c, 1, 64, 96
1, 81826, Note_off_c, 1, 64, 96
1, 81828, Note_on_c, 1, 86, 96
1, 81830, Note_off_c, 1, 86, 96
1, 81830, Note_on_c, 1, 60, 96
1, 81831, Note_off_c, 1, 60, 96
1, 81950, Note_on_c, 1, 64, 96
1, 81951, Note_off_c, 1, 64, 96
1, 81955, Note_on_c, 1, 74, 96
1, 81956, Note_off_c, 1, 74, 96
1, 82073, Note_on_c, 1, 43, 96
1, 82074, Note_off_c, 1, 43, 96
1, 82076, Note_on_c, 1, 83, 96
1, 82077, Note_off_c, 1, 83, 96
1, 82080, Note_on_c, 1, 71, 96
1, 82081, Note_off_c, 1, 71, 96
1, 82314, Note_on_c, 1, 64, 96
1, 82316, Note_off_c, 1, 64, 96
1, 82316, Note_on_c, 1, 48, 96
1, 82318, Note_off_c, 1, 48, 96
1, 82318, Note_on_c, 1, 67, 96
1, 82319, Note_off_c, 1, 67, 96
1, 82321, Note_on_c, 1, 58, 96
1, 82322, Note_off_c, 1, 58, 96
1, 82324, Note_on_c, 1, 79, 96
1, 82325, Note_off_c, 1, 79, 96
1, 82442, Note_on_c, 1, 64, 96
1, 82444, Note_off_c, 1, 64, 96
1, 82444, Note_on_c, 1, 81, 96
1, 82446, Note_off_c, 1, 81, 96
1, 82446, Note_on_c, 1, 60, 96
1, 82448, Note_off_c, 1, 60, 96
1, 82448, Note_on_c, 1, 69, 96
1, 82449, Note_off_c, 1, 69, 96
1, 82451, Note_on_c, 1, 58, 96
1, 82452, Note_off_c, 1, 58, 96
1, 82688, Note_on_c, 1, 55, 96
1, 82689, Note_off_c, 1, 55, 96
1, 82692, Note_on_c, 1, 76, 96
1, 82693, Note_off_c, 1, 76, 96
1, 82696, Note_on_c, 1, 67, 96
1, 82697, Note_off_c, 1, 67, 96
1, 82872, Note_on_c, 1, 69, 96
1, 82873, Note_off_c, 1, 69, 96
1, 82878, Note_on_c, 1, 76, 96
1, 82879, Note_off_c, 1, 76, 96
1, 82991, Note_on_c, 1, 67, 96
1, 82992, Note_off_c, 1, 67, 96
1, 82998, Note_on_c, 1, 76, 96
1, 82999, Note_off_c, 1, 76, 96
1, 83120, Note_on_c, 1, 43, 96
1, 83121, Note_off_c, 1, 43, 96
1, 83358, Note_on_c, 1, 43, 96
1, 83359, Note_off_c, 1, 43, 96
1, 83537, Note_on_c, 1, 72, 96
1, 83539, Note_off_c, 1, 72, 96
1, 83539, Note_on_c, 1, 36, 96
1, 83540, Note_off_c, 1, 36, 96
1, 83545, Note_on_c, 1, 76, 96
1, 83545, Note_on_c, 1, 48, 96
1, 83546, Note_off_c, 1, 76, 96
1, 83546, Note_off_c, 1, 48, 96
1, 83777, Note_on_c, 1, 64, 96
1, 83777, Note_on_c, 1, 74, 96
1, 83778, Note_off_c, 1, 64, 96
1, 83778, Note_off_c, 1, 74, 96
1, 83782, Note_on_c, 1, 36, 96
1, 83783, Note_off_c, 1, 36, 96
1, 83786, Note_on_c, 1, 70, 96
1, 83787, Note_off_c, 1, 70, 96
1, 84024, Note_on_c, 1, 74, 96
1, 84025, Note_off_c, 1, 74, 96
1, 84028, Note_on_c, 1, 46, 96
1, 84030, Note_off_c, 1, 46, 96
1, 84030, Note_on_c, 1, 68, 96
1, 84031, Note_off_c, 1, 68, 96
1, 84263, Note_on_c, 1, 57, 96
1, 84264, Note_off_c, 1, 57, 96
1, 84267, Note_on_c, 1, 69, 96
1, 84268, Note_off_c, 1, 69, 96
1, 84390, Note_on_c, 1, 38, 96
1, 84390, Note_on_c, 1, 50, 96
1, 84391, Note_off_c, 1, 38, 96
1, 84391, Note_off_c, 1, 50, 96
1, 84394, Note_on_c, 1, 66, 96
1, 84395, Note_off_c, 1, 66, 96
1, 84630, Note_on_c, 1, 60, 96
1, 84631, Note_off_c, 1, 60, 96
1, 84635, Note_on_c, 1, 50, 96
1, 84635, Note_on_c, 1, 74, 96
1, 84635, Note_on_c, 1, 54, 96
1, 84636, Note_off_c, 1, 50, 96
1, 84636, Note_off_c, 1, 74, 96
1, 84636, Note_off_c, 1, 54, 96
1, 84638, Note_on_c, 1, 72, 96
1, 84639, Note_off_c, 1, 72, 96
1, 84812, Note_on_c, 1, 72, 96
1, 84813, Note_off_c, 1, 72, 96
1, 84872, Note_on_c, 1, 54, 96
1, 84874, Note_off_c, 1, 54, 96
1, 84874, Note_on_c, 1, 50, 96
1, 84875, Note_off_c, 1, 50, 96
1, 84878, Note_on_c, 1, 72, 96
1, 84878, Note_on_c, 1, 60, 96
1, 84879, Note_off_c, 1, 72, 96
1, 84879, Note_off_c, 1, 60, 96
1, 85000, Note_on_c, 1, 76, 96
1, 85001, Note_off_c, 1, 76, 96
1, 85004, Note_on_c, 1, 70, 96
1, 85005, Note_off_c, 1, 70, 96
1, 85125, Note_on_c, 1, 50, 96
1, 85126, Note_off_c, 1, 50, 96
1, 85129, Note_on_c, 1, 77, 96
1, 85129, Note_on_c, 1, 59, 96
1, 85131, Note_off_c, 1, 77, 96
1, 85131, Note_off_c, 1, 59, 96
1, 85131, Note_on_c, 1, 55, 96
1, 85132, Note_off_c, 1, 55, 96
1, 85368, Note_on_c, 1, 61, 96
1, 85368, Note_on_c, 1, 67, 96
1, 85369, Note_off_c, 1, 61, 96
1, 85369, Note_off_c, 1, 67, 96
1, 85372, Note_on_c, 1, 71, 96
1, 85374, Note_off_c, 1, 71, 96
1, 85374, Note_on_c, 1, 43, 96
1, 85375, Note_off_c, 1, 43, 96
1, 85488, Note_on_c, 1, 55, 96
1, 85489, Note_off_c, 1, 55, 96
1, 85497, Note_on_c, 1, 74, 96
1, 85497, Note_on_c, 1, 53, 96
1, 85498, Note_off_c, 1, 74, 96
1, 85498, Note_off_c, 1, 53, 96
1, 85501, Note_on_c, 1, 71, 96
1, 85501, Note_on_c, 1, 59, 96
1, 85502, Note_off_c, 1, 71, 96
1, 85502, Note_off_c, 1, 59, 96
1, 85616, Note_on_c, 1, 43, 96
1, 85617, Note_off_c, 1, 43, 96
1, 85620, Note_on_c, 1, 68, 96
1, 85620, Note_on_c, 1, 74, 96
1, 85622, Note_off_c, 1, 68, 96
1, 85622, Note_off_c, 1, 74, 96
1, 85622, Note_on_c, 1, 65, 96
1, 85623, Note_off_c, 1, 65, 96
1, 85743, Note_on_c, 1, 71, 96
1, 85744, Note_off_c, 1, 71, 96
1, 85861, Note_on_c, 1, 77, 96
1, 85862, Note_off_c, 1, 77, 96
1, 85864, Note_on_c, 1, 51, 96
1, 85865, Note_off_c, 1, 51, 96
1, 85921, Note_on_c, 1, 80, 96
1, 85921, Note_on_c, 1, 76, 96
1, 85922, Note_off_c, 1, 80, 96
1, 85922, Note_off_c, 1, 76, 96
1, 85927, Note_on_c, 1, 73, 96
1, 85930, Note_off_c, 1, 73, 96
1, 85930, Note_on_c, 1, 74, 96
1, 85930, Note_on_c, 1, 68, 96
1, 85931, Note_off_c, 1, 74, 96
1, 85931, Note_off_c, 1, 68, 96
1, 86045, Note_on_c, 1, 59, 96
1, 86046, Note_off_c, 1, 59, 96
1, 86048, Note_on_c, 1, 54, 96
1, 86049, Note_off_c, 1, 54, 96
1, 86052, Note_on_c, 1, 61, 96
1, 86053, Note_off_c, 1, 61, 96
1, 86174, Note_on_c, 1, 71, 96
1, 86175, Note_off_c, 1, 71, 96
1, 86178, Note_on_c, 1, 55, 96
1, 86180, Note_off_c, 1, 55, 96
1, 86180, Note_on_c, 1, 58, 96
1, 86181, Note_off_c, 1, 58, 96
1, 86292, Note_on_c, 1, 74, 96
1, 86293, Note_off_c, 1, 74, 96
1, 86299, Note_on_c, 1, 70, 96
1, 86301, Note_off_c, 1, 70, 96
1, 86301, Note_on_c, 1, 79, 96
1, 86302, Note_off_c, 1, 79, 96
1, 86304, Note_on_c, 1, 62, 96
1, 86305, Note_off_c, 1, 62, 96
1, 86540, Note_on_c, 1, 50, 96
1, 86541, Note_off_c, 1, 50, 96
1, 86544, Note_on_c, 1, 62, 96
1, 86545, Note_off_c, 1, 62, 96
1, 86780, Note_on_c, 1, 65, 96
1, 86782, Note_off_c, 1, 65, 96
1, 86782, Note_on_c, 1, 69, 96
1, 86783, Note_off_c, 1, 69, 96
1, 86788, Note_on_c, 1, 63, 96
1, 86789, Note_off_c, 1, 63, 96
1, 87025, Note_on_c, 1, 64, 96
1, 87026, Note_off_c, 1, 64, 96
1, 87031, Note_on_c, 1, 84, 96
1, 87031, Note_on_c, 1, 72, 96
1, 87034, Note_off_c, 1, 84, 96
1, 87034, Note_off_c, 1, 72, 96
1, 87034, Note_on_c, 1, 76, 96
1, 87034, Note_on_c, 1, 48, 96
1, 87035, Note_off_c, 1, 76, 96
1, 87035, Note_off_c, 1, 48, 96
1, 87352, Note_on_c, 1, 76, 96
1, 87353, Note_off_c, 1, 76, 96
1, 87409, Note_on_c, 1, 78, 96
1, 87409, Note_on_c, 1, 60, 96
1, 87410, Note_off_c, 1, 78, 96
1, 87410, Note_off_c, 1, 60, 96
1, 87414, Note_on_c, 1, 57, 96
1, 87416, Note_off_c, 1, 57, 96
1, 87416, Note_on_c, 1, 86, 96
1, 87418, Note_off_c, 1, 86, 96
1, 87418, Note_on_c, 1, 63, 96
1, 87419, Note_off_c, 1, 63, 96
1, 87533, Note_on_c, 1, 67, 96
1, 87534, Note_off_c, 1, 67, 96
1, 87538, Note_on_c, 1, 76, 96
1, 87540, Note_off_c, 1, 76, 96
1, 87540, Note_on_c, 1, 43, 96
1, 87541, Note_off_c, 1, 43, 96
1, 87654, Note_on_c, 1, 43, 96
1, 87655, Note_off_c, 1, 43, 96
1, 87657, Note_on_c, 1, 64, 96
1, 87659, Note_off_c, 1, 64, 96
1, 87659, Note_on_c, 1, 79, 96
1, 87660, Note_off_c, 1, 79, 96
1, 87662, Note_on_c, 1, 72, 96
1, 87663, Note_off_c, 1, 72, 96
1, 87665, Note_on_c, 1, 55, 96
1, 87666, Note_off_c, 1, 55, 96
1, 87902, Note_on_c, 1, 71, 96
1, 87903, Note_off_c, 1, 71, 96
1, 87905, Note_on_c, 1, 79, 96
1, 87906, Note_off_c, 1, 79, 96
1, 87911, Note_on_c, 1, 38, 96
1, 87911, Note_on_c, 1, 50, 96
1, 87912, Note_off_c, 1, 38, 96
1, 87912, Note_off_c, 1, 50, 96
1, 88265, Note_on_c, 1, 71, 96
1, 88266, Note_off_c, 1, 71, 96
1, 88386, Note_on_c, 1, 72, 96
1, 88387, Note_off_c, 1, 72, 96
1, 88514, Note_on_c, 1, 50, 96
1, 88515, Note_off_c, 1, 50, 96
1, 88750, Note_on_c, 1, 72, 96
1, 88751, Note_off_c, 1, 72, 96
1, 88755, Note_on_c, 1, 45, 96
1, 88756, Note_off_c, 1, 45, 96
1, 88876, Note_on_c, 1, 33, 96
1, 88877, Note_off_c, 1, 33, 96
1, 89118, Note_on_c, 1, 69, 96
1, 89119, Note_off_c, 1, 69, 96
1, 89122, Note_on_c, 1, 50, 96
1, 89123, Note_off_c, 1, 50, 96
1, 89125, Note_on_c, 1, 66, 96
1, 89126, Note_off_c, 1, 66, 96
1, 89128, Note_on_c, 1, 60, 96
1, 89129, Note_off_c, 1, 60, 96
1, 89368, Note_on_c, 1, 62, 96
1, 89369, Note_off_c, 1, 62, 96
1, 89490, Note_on_c, 1, 50, 96
1, 89491, Note_off_c, 1, 50, 96
1, 89734, Note_on_c, 1, 64, 96
1, 89735, Note_off_c, 1, 64, 96
1, 89738, Note_on_c, 1, 40, 96
1, 89738, Note_on_c, 1, 52, 96
1, 89740, Note_off_c, 1, 40, 96
1, 89740, Note_off_c, 1, 52, 96
1, 89740, Note_on_c, 1, 78, 96
1, 89741, Note_off_c, 1, 78, 96
1, 89984, Note_on_c, 1, 59, 96
1, 89986, Note_off_c, 1, 59, 96
1, 89986, Note_on_c, 1, 74, 96
1, 89987, Note_off_c, 1, 74, 96
1, 90108, Note_on_c, 1, 66, 96
1, 90109, Note_off_c, 1, 66, 96
1, 90113, Note_on_c, 1, 38, 96
1, 90114, Note_off_c, 1, 38, 96
1, 90348, Note_on_c, 1, 74, 96
1, 90350, Note_off_c, 1, 74, 96
1, 90350, Note_on_c, 1, 45, 96
1, 90351, Note_off_c, 1, 45, 96
1, 90531, Note_on_c, 1, 74, 96
1, 90532, Note_off_c, 1, 74, 96
1, 90660, Note_on_c, 1, 71, 96
1, 90661, Note_off_c, 1, 71, 96
1, 90715, Note_on_c, 1, 78, 96
1, 90715, Note_on_c, 1, 45, 96
1, 90716, Note_off_c, 1, 78, 96
1, 90716, Note_off_c, 1, 45, 96
1, 90956, Note_on_c, 1, 72, 96
1, 90957, Note_off_c, 1, 72, 96
1, 90960, Note_on_c, 1, 78, 96
1, 90960, Note_on_c, 1, 38, 96
1, 90961, Note_off_c, 1, 78, 96
1, 90961, Note_off_c, 1, 38, 96
1, 91200, Note_on_c, 1, 43, 96
1, 91201, Note_off_c, 1, 43, 96
1, 91749, Note_on_c, 1, 63, 96
1, 91750, Note_off_c, 1, 63, 96
1, 91752, Note_on_c, 1, 47, 96
1, 91753, Note_off_c, 1, 47, 96
1, 91756, Note_on_c, 1, 75, 96
1, 91756, Note_on_c, 1, 59, 96
1, 91757, Note_off_c, 1, 75, 96
1, 91757, Note_off_c, 1, 59, 96
1, 91873, Note_on_c, 1, 37, 96
1, 91874, Note_off_c, 1, 37, 96
1, 91877, Note_on_c, 1, 73, 96
1, 91877, Note_on_c, 1, 67, 96
1, 91878, Note_off_c, 1, 73, 96
1, 91878, Note_off_c, 1, 67, 96
1, 91880, Note_on_c, 1, 55, 96
1, 91881, Note_off_c, 1, 55, 96
1, 91883, Note_on_c, 1, 76, 96
1, 91884, Note_off_c, 1, 76, 96
1, 91943, Note_on_c, 1, 73, 96
1, 91944, Note_off_c, 1, 73, 96
1, 92004, Note_on_c, 1, 74, 96
1, 92004, Note_on_c, 1, 54, 96
1, 92006, Note_off_c, 1, 74, 96
1, 92006, Note_off_c, 1, 54, 96
1, 92006, Note_on_c, 1, 50, 96
1, 92008, Note_off_c, 1, 50, 96
1, 92008, Note_on_c, 1, 57, 96
1, 92009, Note_off_c, 1, 57, 96
1, 92060, Note_on_c, 1, 74, 96
1, 92061, Note_off_c, 1, 74, 96
1, 92123, Note_on_c, 1, 54, 96
1, 92125, Note_off_c, 1, 54, 96
1, 92125, Note_on_c, 1, 57, 96
1, 92126, Note_off_c, 1, 57, 96
1, 92181, Note_on_c, 1, 66, 96
1, 92182, Note_off_c, 1, 66, 96
1, 92243, Note_on_c, 1, 71, 96
1, 92244, Note_off_c, 1, 71, 96
1, 92246, Note_on_c, 1, 38, 96
1, 92247, Note_off_c, 1, 38, 96
1, 92369, Note_on_c, 1, 59, 96
1, 92369, Note_on_c, 1, 66, 96
1, 92370, Note_off_c, 1, 59, 96
1, 92370, Note_off_c, 1, 66, 96
1, 92373, Note_on_c, 1, 47, 96
1, 92374, Note_off_c, 1, 47, 96
1, 92377, Note_on_c, 1, 74, 96
1, 92378, Note_off_c, 1, 74, 96
1, 92380, Note_on_c, 1, 71, 96
1, 92381, Note_off_c, 1, 71, 96
1, 92496, Note_on_c, 1, 72, 96
1, 92497, Note_off_c, 1, 72, 96
1, 92618, Note_on_c, 1, 69, 96
1, 92619, Note_off_c, 1, 69, 96
1, 92738, Note_on_c, 1, 71, 96
1, 92739, Note_off_c, 1, 71, 96
1, 92863, Note_on_c, 1, 71, 96
1, 92865, Note_off_c, 1, 71, 96
1, 92865, Note_on_c, 1, 65, 96
1, 92867, Note_off_c, 1, 65, 96
1, 92867, Note_on_c, 1, 62, 96
1, 92868, Note_off_c, 1, 62, 96
1, 93049, Note_on_c, 1, 50, 96
1, 93050, Note_off_c, 1, 50, 96
1, 93414, Note_on_c, 1, 59, 96
1, 93415, Note_off_c, 1, 59, 96
1, 93417, Note_on_c, 1, 67, 96
1, 93418, Note_off_c, 1, 67, 96
1, 93621, Note_on_c, 1, 68, 96
1, 93622, Note_off_c, 1, 68, 96
1, 93865, Note_on_c, 1, 71, 96
1, 93866, Note_off_c, 1, 71, 96
1, 93988, Note_on_c, 1, 69, 96
1, 93989, Note_off_c, 1, 69, 96
1, 93991, Note_on_c, 1, 65, 96
1, 93992, Note_off_c, 1, 65, 96
1, 94228, Note_on_c, 1, 71, 96
1, 94229, Note_off_c, 1, 71, 96
1, 94233, Note_on_c, 1, 35, 96
1, 94234, Note_off_c, 1, 35, 96
1, 94237, Note_on_c, 1, 47, 96
1, 94239, Note_off_c, 1, 47, 96
1, 94239, Note_on_c, 1, 54, 96
1, 94240, Note_off_c, 1, 54, 96
1, 94544, Note_on_c, 1, 79, 96
1, 94545, Note_off_c, 1, 79, 96
1, 94733, Note_on_c, 1, 45, 96
1, 94734, Note_off_c, 1, 45, 96
1, 94736, Note_on_c, 1, 77, 96
1, 94738, Note_off_c, 1, 77, 96
1, 94738, Note_on_c, 1, 57, 96
1, 94739, Note_off_c, 1, 57, 96
1, 94860, Note_on_c, 1, 72, 96
1, 94860, Note_on_c, 1, 74, 96
1, 94861, Note_off_c, 1, 72, 96
1, 94861, Note_off_c, 1, 74, 96
1, 94978, Note_on_c, 1, 77, 96
1, 94979, Note_off_c, 1, 77, 96
1, 94982, Note_on_c, 1, 71, 96
1, 94982, Note_on_c, 1, 53, 96
1, 94983, Note_off_c, 1, 71, 96
1, 94983, Note_off_c, 1, 53, 96
1, 94986, Note_on_c, 1, 41, 96
1, 94987, Note_off_c, 1, 41, 96
1, 94989, Note_on_c, 1, 81, 96
1, 94990, Note_off_c, 1, 81, 96
1, 95104, Note_on_c, 1, 53, 96
1, 95106, Note_off_c, 1, 53, 96
1, 95106, Note_on_c, 1, 68, 96
1, 95108, Note_off_c, 1, 68, 96
1, 95108, Note_on_c, 1, 57, 96
1, 95110, Note_off_c, 1, 57, 96
1, 95110, Note_on_c, 1, 80, 96
1, 95112, Note_off_c, 1, 80, 96
1, 95112, Note_on_c, 1, 76, 96
1, 95116, Note_off_c, 1, 76, 96
1, 95116, Note_on_c, 1, 81, 96
1, 95116, Note_on_c, 1, 72, 96
1, 95116, Note_on_c, 1, 62, 96
1, 95117, Note_off_c, 1, 81, 96
1, 95117, Note_off_c, 1, 72, 96
1, 95117, Note_off_c, 1, 62, 96
1, 95233, Note_on_c, 1, 41, 96
1, 95235, Note_off_c, 1, 41, 96
1, 95235, Note_on_c, 1, 81, 96
1, 95236, Note_off_c, 1, 81, 96
1, 95241, Note_on_c, 1, 74, 96
1, 95242, Note_off_c, 1, 74, 96
1, 95357, Note_on_c, 1, 86, 96
1, 95357, Note_on_c, 1, 57, 96
1, 95357, Note_on_c, 1, 69, 96
1, 95360, Note_off_c, 1, 86, 96
1, 95360, Note_off_c, 1, 57, 96
1, 95360, Note_off_c, 1, 69, 96
1, 95360, Note_on_c, 1, 73, 96
1, 95360, Note_on_c, 1, 60, 96
1, 95361, Note_off_c, 1, 73, 96
1, 95361, Note_off_c, 1, 60, 96
1, 95364, Note_on_c, 1, 53, 96
1, 95366, Note_off_c, 1, 53, 96
1, 95366, Note_on_c, 1, 62, 96
1, 95367, Note_off_c, 1, 62, 96
1, 95483, Note_on_c, 1, 60, 96
1, 95483, Note_on_c, 1, 57, 96
1, 95484, Note_off_c, 1, 60, 96
1, 95484, Note_off_c, 1, 57, 96
1, 95488, Note_on_c, 1, 69, 96
1, 95488, Note_on_c, 1, 69, 96
1, 95489, Note_off_c, 1, 69, 96
1, 95489, Note_off_c, 1, 69, 96
1, 95491, Note_on_c, 1, 81, 96
1, 95493, Note_off_c, 1, 81, 96
1, 95493, Note_on_c, 1, 65, 96
1, 95494, Note_off_c, 1, 65, 96
1, 95614, End_track
0, 0, End_of_file