0, 0, Header, 0, 1, 240
1, 0, Start_track
1, 0, Tempo, 759494
1, 3, Note_on_c, 1, 72, 96
1, 3, Note_on_c, 1, 72, 96
1, 3, Note_on_c, 1, 48, 96
1, 5, Note_off_c, 1, 72, 96
1, 5, Note_off_c, 1, 72, 96
1, 5, Note_off_c, 1, 48, 96
1, 5, Note_on_c, 1, 79, 96
1, 6, Note_off_c, 1, 79, 96
1, 78, Note_on_c, 1, 79, 96
1, 79, Note_off_c, 1, 79, 96
1, 122, Note_on_c, 1, 43, 96
1, 125, Note_off_c, 1, 43, 96
1, 125, Note_on_c, 1, 77, 96
1, 125, Note_on_c, 1, 55, 96
1, 127, Note_off_c, 1, 77, 96
1, 127, Note_off_c, 1, 55, 96
1, 127, Note_on_c, 1, 81, 96
1, 128, Note_off_c, 1, 81, 96
1, 243, Note_on_c, 1, 59, 96
1, 246, Note_off_c, 1, 59, 96
1, 246, Note_on_c, 1, 62, 96
1, 246, Note_on_c, 1, 65, 96
1, 248, Note_off_c, 1, 62, 96
1, 248, Note_off_c, 1, 65, 96
1, 248, Note_on_c, 1, 55, 96
1, 249, Note_off_c, 1, 55, 96
1, 365, Note_on_c, 1, 41, 96
1, 366, Note_off_c, 1, 41, 96
1, 429, Note_on_c, 1, 84, 96
1, 430, Note_off_c, 1, 84, 96
1, 483, Note_on_c, 1, 58, 96
1, 485, Note_off_c, 1, 58, 96
1, 485, Note_on_c, 1, 84, 96
1, 487, Note_off_c, 1, 84, 96
1, 487, Note_on_c, 1, 55, 96
1, 489, Note_off_c, 1, 55, 96
1, 489, Note_on_c, 1, 58, 96
1, 490, Note_off_c, 1, 58, 96
1, 556, Note_on_c, 1, 73, 96
1, 557, Note_off_c, 1, 73, 96
1, 613, Note_on_c, 1, 80, 96
1, 614, Note_off_c, 1, 80, 96
1, 618, Note_on_c, 1, 56, 96
1, 618, Note_on_c, 1, 58, 96
1, 621, Note_off_c, 1, 56, 96
1, 621, Note_off_c, 1, 58, 96
1, 621, Note_on_c, 1, 62, 96
1, 621, Note_on_c, 1, 65, 96
1, 622, Note_off_c, 1, 62, 96
1, 622, Note_off_c, 1, 65, 96
1, 734, Note_on_c, 1, 41, 96
1, 735, Note_off_c, 1, 41, 96
1, 737, Note_on_c, 1, 53, 96
1, 738, Note_off_c, 1, 53, 96
1, 741, Note_on_c, 1, 34, 96
1, 742, Note_off_c, 1, 34, 96
1, 984, Note_on_c, 1, 79, 96
1, 984, Note_on_c, 1, 59, 96
1, 989, Note_off_c, 1, 79, 96
1, 989, Note_off_c, 1, 59, 96
1, 989, Note_on_c, 1, 75, 96
1, 989, Note_on_c, 1, 81, 96
1, 989, Note_on_c, 1, 72, 96
1, 989, Note_on_c, 1, 47, 96
1, 990, Note_off_c, 1, 75, 96
1, 990, Note_off_c, 1, 81, 96
1, 990, Note_off_c, 1, 72, 96
1, 990, Note_off_c, 1, 47, 96
1, 1110, Note_on_c, 1, 62, 96
1, 1111, Note_off_c, 1, 62, 96
1, 1113, Note_on_c, 1, 50, 96
1, 1114, Note_off_c, 1, 50, 96
1, 1168, Note_on_c, 1, 76, 96
1, 1170, Note_off_c, 1, 76, 96
1, 1170, Note_on_c, 1, 81, 96
1, 1171, Note_off_c, 1, 81, 96
1, 1173, Note_on_c, 1, 72, 96
1, 1174, Note_off_c, 1, 72, 96
1, 1228, Note_on_c, 1, 55, 96
1, 1229, Note_off_c, 1, 55, 96
1, 1236, Note_on_c, 1, 43, 96
1, 1237, Note_off_c, 1, 43, 96
1, 1294, Note_on_c, 1, 47, 96
1, 1295, Note_off_c, 1, 47, 96
1, 1353, Note_on_c, 1, 53, 96
1, 1354, Note_off_c, 1, 53, 96
1, 1474, Note_on_c, 1, 53, 96
1, 1475, Note_off_c, 1, 53, 96
1, 1478, Note_on_c, 1, 59, 96
1, 1478, Note_on_c, 1, 50, 96
1, 1479, Note_off_c, 1, 59, 96
1, 1479, Note_off_c, 1, 50, 96
1, 1596, Note_on_c, 1, 38, 96
1, 1598, Note_off_c, 1, 38, 96
1, 1598, Note_on_c, 1, 50, 96
1, 1599, Note_off_c, 1, 50, 96
1, 1721, Note_on_c, 1, 65, 96
1, 1721, Note_on_c, 1, 55, 96
1, 1722, Note_off_c, 1, 65, 96
1, 1722, Note_off_c, 1, 55, 96
1, 1724, Note_on_c, 1, 59, 96
1, 1725, Note_off_c, 1, 59, 96
1, 1841, Note_on_c, 1, 65, 96
1, 1843, Note_off_c, 1, 65, 96
1, 1843, Note_on_c, 1, 59, 96
1, 1844, Note_off_c, 1, 59, 96
1, 1847, Note_on_c, 1, 53, 96
1, 1848, Note_off_c, 1, 53, 96
1, 1964, Note_on_c, 1, 48, 96
1, 1965, Note_off_c, 1, 48, 96
1, 1968, Note_on_c, 1, 60, 96
1, 1969, Note_off_c, 1, 60, 96
1, 2026, Note_on_c, 1, 52, 96
1, 2027, Note_off_c, 1, 52, 96
1, 2089, Note_on_c, 1, 43, 96
1, 2090, Note_off_c, 1, 43, 96
1, 2148, Note_on_c, 1, 79, 96
1, 2150, Note_off_c, 1, 79, 96
1, 2150, Note_on_c, 1, 75, 96
1, 2151, Note_off_c, 1, 75, 96
1, 2210, Note_on_c, 1, 77, 96
1, 2210, Note_on_c, 1, 55, 96
1, 2211, Note_off_c, 1, 77, 96
1, 2211, Note_off_c, 1, 55, 96
1, 2275, Note_on_c, 1, 75, 96
1, 2276, Note_off_c, 1, 75, 96
1, 2332, Note_on_c, 1, 65, 96
1, 2334, Note_off_c, 1, 65, 96
1, 2334, Note_on_c, 1, 55, 96
1, 2336, Note_off_c, 1, 55, 96
1, 2336, Note_on_c, 1, 59, 96
1, 2337, Note_off_c, 1, 59, 96
1, 2341, Note_on_c, 1, 76, 96
1, 2342, Note_off_c, 1, 76, 96
1, 2396, Note_on_c, 1, 76, 96
1, 2397, Note_off_c, 1, 76, 96
1, 2460, Note_on_c, 1, 80, 96
1, 2460, Note_on_c, 1, 60, 96
1, 2460, Note_on_c, 1, 51, 96
1, 2461, Note_off_c, 1, 80, 96
1, 2461, Note_off_c, 1, 60, 96
1, 2461, Note_off_c, 1, 51, 96
1, 2465, Note_on_c, 1, 56, 96
1, 2466, Note_off_c, 1, 56, 96
1, 2524, Note_on_c, 1, 68, 96
1, 2526, Note_off_c, 1, 68, 96
1, 2526, Note_on_c, 1, 80, 96
1, 2527, Note_off_c, 1, 80, 96
1, 2583, Note_on_c, 1, 56, 96
1, 2583, Note_on_c, 1, 51, 96
1, 2584, Note_off_c, 1, 56, 96
1, 2584, Note_off_c, 1, 51, 96
1, 2590, Note_on_c, 1, 60, 96
1, 2591, Note_off_c, 1, 60, 96
1, 2648, Note_on_c, 1, 72, 96
1, 2650, Note_off_c, 1, 72, 96
1, 2650, Note_on_c, 1, 76, 96
1, 2651, Note_off_c, 1, 76, 96
1, 2653, Note_on_c, 1, 84, 96
1, 2654, Note_off_c, 1, 84, 96
1, 2709, Note_on_c, 1, 53, 96
1, 2710, Note_off_c, 1, 53, 96
1, 2772, Note_on_c, 1, 75, 96
1, 2773, Note_off_c, 1, 75, 96
1, 2833, Note_on_c, 1, 82, 96
1, 2833, Note_on_c, 1, 70, 96
1, 2835, Note_off_c, 1, 82, 96
1, 2835, Note_off_c, 1, 70, 96
1, 2835, Note_on_c, 1, 39, 96
1, 2837, Note_off_c, 1, 39, 96
1, 2837, Note_on_c, 1, 75, 96
1, 2838, Note_off_c, 1, 75, 96
1, 2954, Note_on_c, 1, 79, 96
1, 2956, Note_off_c, 1, 79, 96
1, 2956, Note_on_c, 1, 67, 96
1, 2957, Note_off_c, 1, 67, 96
1, 2960, Note_on_c, 1, 51, 96
1, 2961, Note_off_c, 1, 51, 96
1, 3018, Note_on_c, 1, 77, 96
1, 3019, Note_off_c, 1, 77, 96
1, 3081, Note_on_c, 1, 77, 96
1, 3081, Note_on_c, 1, 56, 96
1, 3081, Note_on_c, 1, 60, 96
1, 3082, Note_off_c, 1, 77, 96
1, 3082, Note_off_c, 1, 56, 96
1, 3082, Note_off_c, 1, 60, 96
1, 3084, Note_on_c, 1, 68, 96
1, 3086, Note_off_c, 1, 68, 96
1, 3086, Note_on_c, 1, 65, 96
1, 3087, Note_off_c, 1, 65, 96
1, 3201, Note_on_c, 1, 73, 96
1, 3203, Note_off_c, 1, 73, 96
1, 3203, Note_on_c, 1, 79, 96
1, 3204, Note_off_c, 1, 79, 96
1, 3206, Note_on_c, 1, 46, 96
1, 3208, Note_off_c, 1, 46, 96
1, 3208, Note_on_c, 1, 67, 96
1, 3209, Note_off_c, 1, 67, 96
1, 3211, Note_on_c, 1, 34, 96
1, 3212, Note_off_c, 1, 34, 96
1, 3270, Note_on_c, 1, 84, 96
1, 3271, Note_off_c, 1, 84, 96
1, 3273, Note_on_c, 1, 72, 96
1, 3274, Note_off_c, 1, 72, 96
1, 3329, Note_on_c, 1, 39, 96
1, 3331, Note_off_c, 1, 39, 96
1, 3331, Note_on_c, 1, 79, 96
1, 3333, Note_off_c, 1, 79, 96
1, 3333, Note_on_c, 1, 67, 96
1, 3334, Note_off_c, 1, 67, 96
1, 3338, Note_on_c, 1, 75, 96
1, 3339, Note_off_c, 1, 75, 96
1, 3394, Note_on_c, 1, 75, 96
1, 3395, Note_off_c, 1, 75, 96
1, 3455, Note_on_c, 1, 55, 96
1, 3456, Note_off_c, 1, 55, 96
1, 3458, Note_on_c, 1, 61, 96
1, 3460, Note_off_c, 1, 61, 96
1, 3460, Note_on_c, 1, 58, 96
1, 3461, Note_off_c, 1, 58, 96
1, 3522, Note_on_c, 1, 73, 96
1, 3523, Note_off_c, 1, 73, 96
1, 3580, Note_on_c, 1, 51, 96
1, 3581, Note_off_c, 1, 51, 96
1, 3645, Note_on_c, 1, 75, 96
1, 3646, Note_off_c, 1, 75, 96
1, 3701, Note_on_c, 1, 67, 96
1, 3702, Note_off_c, 1, 67, 96
1, 3704, Note_on_c, 1, 51, 96
1, 3705, Note_off_c, 1, 51, 96
1, 3707, Note_on_c, 1, 62, 96
1, 3708, Note_off_c, 1, 62, 96
1, 3765, Note_on_c, 1, 84, 96
1, 3765, Note_on_c, 1, 78, 96
1, 3766, Note_off_c, 1, 84, 96
1, 3766, Note_off_c, 1, 78, 96
1, 3770, Note_on_c, 1, 72, 96
1, 3771, Note_off_c, 1, 72, 96
1, 3828, Note_on_c, 1, 63, 96
1, 3830, Note_off_c, 1, 63, 96
1, 3830, Note_on_c, 1, 51, 96
1, 3831, Note_off_c, 1, 51, 96
1, 3891, Note_on_c, 1, 73, 96
1, 3892, Note_off_c, 1, 73, 96
1, 3948, Note_on_c, 1, 77, 96
1, 3949, Note_off_c, 1, 77, 96
1, 3952, Note_on_c, 1, 65, 96
1, 3953, Note_off_c, 1, 65, 96
1, 3955, Note_on_c, 1, 61, 96
1, 3957, Note_off_c, 1, 61, 96
1, 3957, Note_on_c, 1, 56, 96
1, 3958, Note_off_c, 1, 56, 96
1, 4072, Note_on_c, 1, 76, 96
1, 4073, Note_off_c, 1, 76, 96
1, 4190, Note_on_c, 1, 75, 96
1, 4191, Note_off_c, 1, 75, 96
1, 4196, Note_on_c, 1, 65, 96
1, 4196, Note_on_c, 1, 61, 96
1, 4197, Note_off_c, 1, 65, 96
1, 4197, Note_off_c, 1, 61, 96
1, 4199, Note_on_c, 1, 70, 96
1, 4200, Note_off_c, 1, 70, 96
1, 4320, Note_on_c, 1, 73, 96
1, 4321, Note_off_c, 1, 73, 96
1, 4556, Note_on_c, 1, 65, 96
1, 4557, Note_off_c, 1, 65, 96
1, 4559, Note_on_c, 1, 73, 96
1, 4561, Note_off_c, 1, 73, 96
1, 4561, Note_on_c, 1, 49, 96
1, 4562, Note_off_c, 1, 49, 96
1, 4565, Note_on_c, 1, 77, 96
1, 4566, Note_off_c, 1, 77, 96
1, 4680, Note_on_c, 1, 44, 96
1, 4682, Note_off_c, 1, 44, 96
1, 4682, Note_on_c, 1, 73, 96
1, 4683, Note_off_c, 1, 73, 96
1, 4686, Note_on_c, 1, 65, 96
1, 4688, Note_off_c, 1, 65, 96
1, 4688, Note_on_c, 1, 68, 96
1, 4689, Note_off_c, 1, 68, 96
1, 4746, Note_on_c, 1, 74, 96
1, 4747, Note_off_c, 1, 74, 96
1, 4807, Note_on_c, 1, 64, 96
1, 4809, Note_off_c, 1, 64, 96
1, 4809, Note_on_c, 1, 48, 96
1, 4811, Note_off_c, 1, 48, 96
1, 4811, Note_on_c, 1, 67, 96
1, 4813, Note_off_c, 1, 67, 96
1, 4813, Note_on_c, 1, 60, 96
1, 4814, Note_off_c, 1, 60, 96
1, 4929, Note_on_c, 1, 60, 96
1, 4931, Note_off_c, 1, 60, 96
1, 4931, Note_on_c, 1, 48, 96
1, 4932, Note_off_c, 1, 48, 96
1, 4936, Note_on_c, 1, 70, 96
1, 4937, Note_off_c, 1, 70, 96
1, 5051, Note_on_c, 1, 70, 96
1, 5054, Note_off_c, 1, 70, 96
1, 5054, Note_on_c, 1, 58, 96
1, 5054, Note_on_c, 1, 52, 96
1, 5055, Note_off_c, 1, 58, 96
1, 5055, Note_off_c, 1, 52, 96
1, 5060, Note_on_c, 1, 72, 96
1, 5060, Note_on_c, 1, 60, 96
1, 5061, Note_off_c, 1, 72, 96
1, 5061, Note_off_c, 1, 60, 96
1, 5175, Note_on_c, 1, 58, 96
1, 5178, Note_off_c, 1, 58, 96
1, 5178, Note_on_c, 1, 72, 96
1, 5178, Note_on_c, 1, 64, 96
1, 5179, Note_off_c, 1, 72, 96
1, 5179, Note_off_c, 1, 64, 96
1, 5181, Note_on_c, 1, 70, 96
1, 5182, Note_off_c, 1, 70, 96
1, 5187, Note_on_c, 1, 55, 96
1, 5187, Note_on_c, 1, 60, 96
1, 5188, Note_off_c, 1, 55, 96
1, 5188, Note_off_c, 1, 60, 96
1, 5242, Note_on_c, 1, 72, 96
1, 5243, Note_off_c, 1, 72, 96
1, 5306, Note_on_c, 1, 70, 96
1, 5310, Note_off_c, 1, 70, 96
1, 5310, Note_on_c, 1, 72, 96
1, 5310, Note_on_c, 1, 58, 96
1, 5310, Note_on_c, 1, 55, 96
1, 5312, Note_off_c, 1, 72, 96
1, 5312, Note_off_c, 1, 58, 96
1, 5312, Note_off_c, 1, 55, 96
1, 5312, Note_on_c, 1, 64, 96
1, 5314, Note_off_c, 1, 64, 96
1, 5314, Note_on_c, 1, 60, 96
1, 5315, Note_off_c, 1, 60, 96
1, 5429, Note_on_c, 1, 76, 96
1, 5430, Note_off_c, 1, 76, 96
1, 5433, Note_on_c, 1, 48, 96
1, 5434, Note_off_c, 1, 48, 96
1, 5436, Note_on_c, 1, 67, 96
1, 5437, Note_off_c, 1, 67, 96
1, 5495, Note_on_c, 1, 72, 96
1, 5496, Note_off_c, 1, 72, 96
1, 5555, Note_on_c, 1, 72, 96
1, 5555, Note_on_c, 1, 41, 96
1, 5557, Note_off_c, 1, 72, 96
1, 5557, Note_off_c, 1, 41, 96
1, 5557, Note_on_c, 1, 53, 96
1, 5558, Note_off_c, 1, 53, 96
1, 5680, Note_on_c, 1, 71, 96
1, 5681, Note_off_c, 1, 71, 96
1, 5803, Note_on_c, 1, 71, 96
1, 5803, Note_on_c, 1, 65, 96
1, 5803, Note_on_c, 1, 44, 96
1, 5804, Note_off_c, 1, 71, 96
1, 5804, Note_off_c, 1, 65, 96
1, 5804, Note_off_c, 1, 44, 96
1, 5807, Note_on_c, 1, 56, 96
1, 5808, Note_off_c, 1, 56, 96
1, 5864, Note_on_c, 1, 79, 96
1, 5865, Note_off_c, 1, 79, 96
1, 5870, Note_on_c, 1, 67, 96
1, 5871, Note_off_c, 1, 67, 96
1, 5929, Note_on_c, 1, 62, 96
1, 5932, Note_off_c, 1, 62, 96
1, 5932, Note_on_c, 1, 71, 96
1, 5932, Note_on_c, 1, 65, 96
1, 5933, Note_off_c, 1, 71, 96
1, 5933, Note_off_c, 1, 65, 96
1, 6051, Note_on_c, 1, 43, 96
1, 6053, Note_off_c, 1, 43, 96
1, 6053, Note_on_c, 1, 74, 96
1, 6054, Note_off_c, 1, 74, 96
1, 6296, Note_on_c, 1, 67, 96
1, 6298, Note_off_c, 1, 67, 96
1, 6298, Note_on_c, 1, 76, 96
1, 6301, Note_off_c, 1, 76, 96
1, 6301, Note_on_c, 1, 58, 96
1, 6301, Note_on_c, 1, 55, 96
1, 6302, Note_off_c, 1, 58, 96
1, 6302, Note_off_c, 1, 55, 96
1, 6321, Note_on_c, 1, 72, 96
1, 6322, Note_off_c, 1, 72, 96
1, 6354, Note_on_c, 1, 71, 96
1, 6355, Note_off_c, 1, 71, 96
1, 6362, Note_on_c, 1, 71, 96
1, 6363, Note_off_c, 1, 71, 96
1, 6375, Note_on_c, 1, 62, 96
1, 6376, Note_off_c, 1, 62, 96
1, 6382, Note_on_c, 1, 58, 96
1, 6383, Note_off_c, 1, 58, 96
1, 6426, Note_on_c, 1, 64, 96
1, 6428, Note_off_c, 1, 64, 96
1, 6428, Note_on_c, 1, 52, 96
1, 6429, Note_off_c, 1, 52, 96
1, 6598, Note_on_c, 1, 76, 96
1, 6599, Note_off_c, 1, 76, 96
1, 6642, Note_on_c, 1, 60, 96
1, 6643, Note_off_c, 1, 60, 96
1, 6646, Note_on_c, 1, 79, 96
1, 6647, Note_off_c, 1, 79, 96
1, 6654, Note_on_c, 1, 67, 96
1, 6655, Note_off_c, 1, 67, 96
1, 6724, Note_on_c, 1, 67, 96
1, 6725, Note_off_c, 1, 67, 96
1, 6776, Note_on_c, 1, 51, 96
1, 6777, Note_off_c, 1, 51, 96
1, 6782, Note_on_c, 1, 60, 96
1, 6782, Note_on_c, 1, 55, 96
1, 6783, Note_off_c, 1, 60, 96
1, 6783, Note_off_c, 1, 55, 96
1, 6801, Note_on_c, 1, 65, 96
1, 6802, Note_off_c, 1, 65, 96
1, 6828, Note_on_c, 1, 63, 96
1, 6828, Note_on_c, 1, 48, 96
1, 6830, Note_off_c, 1, 63, 96
1, 6830, Note_off_c, 1, 48, 96
1, 6830, Note_on_c, 1, 57, 96
1, 6831, Note_off_c, 1, 57, 96
1, 6926, Note_on_c, 1, 43, 96
1, 6927, Note_off_c, 1, 43, 96
1, 6937, Note_on_c, 1, 52, 96
1, 6939, Note_off_c, 1, 52, 96
1, 6939, Note_on_c, 1, 64, 96
1, 6940, Note_off_c, 1, 64, 96
1, 7020, Note_on_c, 1, 62, 96
1, 7020, Note_on_c, 1, 50, 96
1, 7021, Note_off_c, 1, 62, 96
1, 7021, Note_off_c, 1, 50, 96
1, 7118, Note_on_c, 1, 60, 96
1, 7119, Note_off_c, 1, 60, 96
1, 7121, Note_on_c, 1, 64, 96
1, 7123, Note_off_c, 1, 64, 96
1, 7123, Note_on_c, 1, 48, 96
1, 7124, Note_off_c, 1, 48, 96
1, 7225, Note_on_c, 1, 66, 96
1, 7226, Note_off_c, 1, 66, 96
1, 7245, Note_on_c, 1, 64, 96
1, 7246, Note_off_c, 1, 64, 96
1, 7249, Note_on_c, 1, 55, 96
1, 7251, Note_off_c, 1, 55, 96
1, 7251, Note_on_c, 1, 60, 96
1, 7252, Note_off_c, 1, 60, 96
1, 7350, Note_on_c, 1, 43, 96
1, 7351, Note_off_c, 1, 43, 96
1, 7358, Note_on_c, 1, 48, 96
1, 7360, Note_off_c, 1, 48, 96
1, 7360, Note_on_c, 1, 36, 96
1, 7362, Note_off_c, 1, 36, 96
1, 7362, Note_on_c, 1, 52, 96
1, 7363, Note_off_c, 1, 52, 96
1, 7752, Note_on_c, 1, 69, 96
1, 7752, Note_on_c, 1, 64, 96
1, 7752, Note_on_c, 1, 48, 96
1, 7754, Note_off_c, 1, 69, 96
1, 7754, Note_off_c, 1, 64, 96
1, 7754, Note_off_c, 1, 48, 96
1, 7754, Note_on_c, 1, 58, 96
1, 7755, Note_off_c, 1, 58, 96
1, 7948, Note_on_c, 1, 60, 96
1, 7949, Note_off_c, 1, 60, 96
1, 7954, Note_on_c, 1, 65, 96
1, 7955, Note_off_c, 1, 65, 96
1, 8141, Note_on_c, 1, 65, 96
1, 8141, Note_on_c, 1, 60, 96
1, 8141, Note_on_c, 1, 57, 96
1, 8142, Note_off_c, 1, 65, 96
1, 8142, Note_off_c, 1, 60, 96
1, 8142, Note_off_c, 1, 57, 96
1, 8304, Note_on_c, 1, 76, 96
1, 8305, Note_off_c, 1, 76, 96
1, 8374, Note_on_c, 1, 74, 96
1, 8375, Note_off_c, 1, 74, 96
1, 8377, Note_on_c, 1, 53, 96
1, 8378, Note_off_c, 1, 53, 96
1, 8498, Note_on_c, 1, 75, 96
1, 8499, Note_off_c, 1, 75, 96
1, 8501, Note_on_c, 1, 53, 96
1, 8502, Note_off_c, 1, 53, 96
1, 8506, Note_on_c, 1, 69, 96
1, 8506, Note_on_c, 1, 41, 96
1, 8507, Note_off_c, 1, 69, 96
1, 8507, Note_off_c, 1, 41, 96
1, 8733, Note_on_c, 1, 41, 96
1, 8734, Note_off_c, 1, 41, 96
1, 8795, Note_on_c, 1, 53, 96
1, 8797, Note_off_c, 1, 53, 96
1, 8797, Note_on_c, 1, 57, 96
1, 8798, Note_off_c, 1, 57, 96
1, 8858, Note_on_c, 1, 74, 96
1, 8859, Note_off_c, 1, 74, 96
1, 8916, Note_on_c, 1, 62, 96
1, 8918, Note_off_c, 1, 62, 96
1, 8918, Note_on_c, 1, 58, 96
1, 8919, Note_off_c, 1, 58, 96
1, 8923, Note_on_c, 1, 68, 96
1, 8924, Note_off_c, 1, 68, 96
1, 9036, Note_on_c, 1, 72, 96
1, 9039, Note_off_c, 1, 72, 96
1, 9039, Note_on_c, 1, 70, 96
1, 9039, Note_on_c, 1, 47, 96
1, 9040, Note_off_c, 1, 70, 96
1, 9040, Note_off_c, 1, 47, 96
1, 9161, Note_on_c, 1, 73, 96
1, 9163, Note_off_c, 1, 73, 96
1, 9163, Note_on_c, 1, 61, 96
1, 9164, Note_off_c, 1, 61, 96
1, 9166, Note_on_c, 1, 70, 96
1, 9167, Note_off_c, 1, 70, 96
1, 9285, Note_on_c, 1, 44, 96
1, 9286, Note_off_c, 1, 44, 96
1, 9288, Note_on_c, 1, 56, 96
1, 9289, Note_off_c, 1, 56, 96
1, 9403, Note_on_c, 1, 51, 96
1, 9405, Note_off_c, 1, 51, 96
1, 9405, Note_on_c, 1, 75, 96
1, 9407, Note_off_c, 1, 75, 96
1, 9407, Note_on_c, 1, 61, 96
1, 9409, Note_off_c, 1, 61, 96
1, 9409, Note_on_c, 1, 55, 96
1, 9410, Note_off_c, 1, 55, 96
1, 9465, Note_on_c, 1, 74, 96
1, 9467, Note_off_c, 1, 74, 96
1, 9467, Note_on_c, 1, 64, 96
1, 9468, Note_off_c, 1, 64, 96
1, 9529, Note_on_c, 1, 64, 96
1, 9530, Note_off_c, 1, 64, 96
1, 9534, Note_on_c, 1, 70, 96
1, 9534, Note_on_c, 1, 55, 96
1, 9535, Note_off_c, 1, 70, 96
1, 9535, Note_off_c, 1, 55, 96
1, 9648, Note_on_c, 1, 57, 96
1, 9650, Note_off_c, 1, 57, 96
1, 9650, Note_on_c, 1, 65, 96
1, 9651, Note_off_c, 1, 65, 96
1, 9654, Note_on_c, 1, 60, 96
1, 9656, Note_off_c, 1, 60, 96
1, 9656, Note_on_c, 1, 41, 96
1, 9657, Note_off_c, 1, 41, 96
1, 9771, Note_on_c, 1, 53, 96
1, 9772, Note_off_c, 1, 53, 96
1, 9777, Note_on_c, 1, 41, 96
1, 9778, Note_off_c, 1, 41, 96
1, 9833, Note_on_c, 1, 57, 96
1, 9834, Note_off_c, 1, 57, 96
1, 9836, Note_on_c, 1, 72, 96
1, 9837, Note_off_c, 1, 72, 96
1, 9839, Note_on_c, 1, 60, 96
1, 9840, Note_off_c, 1, 60, 96
1, 9955, Note_on_c, 1, 67, 96
1, 9955, Note_on_c, 1, 44, 96
1, 9956, Note_off_c, 1, 67, 96
1, 9956, Note_off_c, 1, 44, 96
1, 9958, Note_on_c, 1, 65, 96
1, 9959, Note_off_c, 1, 65, 96
1, 9963, Note_on_c, 1, 71, 96
1, 9963, Note_on_c, 1, 75, 96
1, 9963, Note_on_c, 1, 59, 96
1, 9966, Note_off_c, 1, 71, 96
1, 9966, Note_off_c, 1, 75, 96
1, 9966, Note_off_c, 1, 59, 96
1, 9966, Note_on_c, 1, 65, 96
1, 9966, Note_on_c, 1, 53, 96
1, 9967, Note_off_c, 1, 65, 96
1, 9967, Note_off_c, 1, 53, 96
1, 10149, Note_on_c, 1, 78, 96
1, 10150, Note_off_c, 1, 78, 96
1, 10205, Note_on_c, 1, 55, 96
1, 10207, Note_off_c, 1, 55, 96
1, 10207, Note_on_c, 1, 60, 96
1, 10209, Note_off_c, 1, 60, 96
1, 10209, Note_on_c, 1, 52, 96
1, 10210, Note_off_c, 1, 52, 96
1, 10214, Note_on_c, 1, 79, 96
1, 10214, Note_on_c, 1, 58, 96
1, 10215, Note_off_c, 1, 79, 96
1, 10215, Note_off_c, 1, 58, 96
1, 10330, Note_on_c, 1, 58, 96
1, 10331, Note_off_c, 1, 58, 96
1, 10334, Note_on_c, 1, 75, 96
1, 10335, Note_off_c, 1, 75, 96
1, 10337, Note_on_c, 1, 55, 96
1, 10338, Note_off_c, 1, 55, 96
1, 10340, Note_on_c, 1, 60, 96
1, 10341, Note_off_c, 1, 60, 96
1, 10455, Note_on_c, 1, 68, 96
1, 10455, Note_on_c, 1, 39, 96
1, 10458, Note_off_c, 1, 68, 96
1, 10458, Note_off_c, 1, 39, 96
1, 10458, Note_on_c, 1, 75, 96
1, 10458, Note_on_c, 1, 51, 96
1, 10459, Note_off_c, 1, 75, 96
1, 10459, Note_off_c, 1, 51, 96
1, 10462, Note_on_c, 1, 65, 96
1, 10463, Note_off_c, 1, 65, 96
1, 10581, Note_on_c, 1, 58, 96
1, 10581, Note_on_c, 1, 63, 96
1, 10583, Note_off_c, 1, 58, 96
1, 10583, Note_off_c, 1, 63, 96
1, 10583, Note_on_c, 1, 82, 96
1, 10585, Note_off_c, 1, 82, 96
1, 10585, Note_on_c, 1, 55, 96
1, 10586, Note_off_c, 1, 55, 96
1, 10706, Note_on_c, 1, 63, 96
1, 10708, Note_off_c, 1, 63, 96
1, 10708, Note_on_c, 1, 55, 96
1, 10710, Note_off_c, 1, 55, 96
1, 10710, Note_on_c, 1, 72, 96
1, 10712, Note_off_c, 1, 72, 96
1, 10712, Note_on_c, 1, 58, 96
1, 10713, Note_off_c, 1, 58, 96
1, 10768, Note_on_c, 1, 81, 96
1, 10769, Note_off_c, 1, 81, 96
1, 10827, Note_on_c, 1, 67, 96
1, 10827, Note_on_c, 1, 40, 96
1, 10829, Note_off_c, 1, 67, 96
1, 10829, Note_off_c, 1, 40, 96
1, 10829, Note_on_c, 1, 52, 96
1, 10830, Note_off_c, 1, 52, 96
1, 10832, Note_on_c, 1, 76, 96
1, 10833, Note_off_c, 1, 76, 96
1, 10894, Note_on_c, 1, 77, 96
1, 10895, Note_off_c, 1, 77, 96
1, 10951, Note_on_c, 1, 72, 96
1, 10952, Note_off_c, 1, 72, 96
1, 10957, Note_on_c, 1, 48, 96
1, 10958, Note_off_c, 1, 48, 96
1, 11075, Note_on_c, 1, 76, 96
1, 11075, Note_on_c, 1, 60, 96
1, 11078, Note_off_c, 1, 76, 96
1, 11078, Note_off_c, 1, 60, 96
1, 11078, Note_on_c, 1, 64, 96
1, 11078, Note_on_c, 1, 55, 96
1, 11080, Note_off_c, 1, 64, 96
1, 11080, Note_off_c, 1, 55, 96
1, 11080, Note_on_c, 1, 67, 96
1, 11082, Note_off_c, 1, 67, 96
1, 11082, Note_on_c, 1, 70, 96
1, 11083, Note_off_c, 1, 70, 96
1, 11198, Note_on_c, 1, 76, 96
1, 11198, Note_on_c, 1, 43, 96
1, 11200, Note_off_c, 1, 76, 96
1, 11200, Note_off_c, 1, 43, 96
1, 11200, Note_on_c, 1, 72, 96
1, 11201, Note_off_c, 1, 72, 96
1, 11206, Note_on_c, 1, 84, 96
1, 11208, Note_off_c, 1, 84, 96
1, 11208, Note_on_c, 1, 55, 96
1, 11209, Note_off_c, 1, 55, 96
1, 11325, Note_on_c, 1, 38, 96
1, 11328, Note_off_c, 1, 38, 96
1, 11328, Note_on_c, 1, 74, 96
1, 11328, Note_on_c, 1, 79, 96
1, 11329, Note_off_c, 1, 74, 96
1, 11329, Note_off_c, 1, 79, 96
1, 11448, Note_on_c, 1, 55, 96
1, 11449, Note_off_c, 1, 55, 96
1, 11452, Note_on_c, 1, 43, 96
1, 11453, Note_off_c, 1, 43, 96
1, 11567, Note_on_c, 1, 72, 96
1, 11568, Note_off_c, 1, 72, 96
1, 11571, Note_on_c, 1, 64, 96
1, 11572, Note_off_c, 1, 64, 96
1, 11578, Note_on_c, 1, 67, 96
1, 11579, Note_off_c, 1, 67, 96
1, 11694, Note_on_c, 1, 60, 96
1, 11695, Note_off_c, 1, 60, 96
1, 11812, Note_on_c, 1, 59, 96
1, 11813, Note_off_c, 1, 59, 96
1, 11817, Note_on_c, 1, 65, 96
1, 11817, Note_on_c, 1, 62, 96
1, 11818, Note_off_c, 1, 65, 96
1, 11818, Note_off_c, 1, 62, 96
1, 11821, Note_on_c, 1, 55, 96
1, 11822, Note_off_c, 1, 55, 96
1, 11940, Note_on_c, 1, 79, 96
1, 11941, Note_off_c, 1, 79, 96
1, 12058, Note_on_c, 1, 55, 96
1, 12058, Note_on_c, 1, 50, 96
1, 12061, Note_off_c, 1, 55, 96
1, 12061, Note_off_c, 1, 50, 96
1, 12061, Note_on_c, 1, 71, 96
1, 12061, Note_on_c, 1, 74, 96
1, 12062, Note_off_c, 1, 71, 96
1, 12062, Note_off_c, 1, 74, 96
1, 12066, Note_on_c, 1, 59, 96
1, 12067, Note_off_c, 1, 59, 96
1, 12182, Note_on_c, 1, 71, 96
1, 12183, Note_off_c, 1, 71, 96
1, 12186, Note_on_c, 1, 65, 96
1, 12187, Note_off_c, 1, 65, 96
1, 12189, Note_on_c, 1, 43, 96
1, 12192, Note_off_c, 1, 43, 96
1, 12192, Note_on_c, 1, 76, 96
1, 12192, Note_on_c, 1, 55, 96
1, 12193, Note_off_c, 1, 76, 96
1, 12193, Note_off_c, 1, 55, 96
1, 12310, Note_on_c, 1, 77, 96
1, 12311, Note_off_c, 1, 77, 96
1, 12315, Note_on_c, 1, 69, 96
1, 12315, Note_on_c, 1, 74, 96
1, 12318, Note_off_c, 1, 69, 96
1, 12318, Note_off_c, 1, 74, 96
1, 12318, Note_on_c, 1, 65, 96
1, 12318, Note_on_c, 1, 50, 96
1, 12319, Note_off_c, 1, 65, 96
1, 12319, Note_off_c, 1, 50, 96
1, 12435, Note_on_c, 1, 77, 96
1, 12437, Note_off_c, 1, 77, 96
1, 12437, Note_on_c, 1, 57, 96
1, 12438, Note_off_c, 1, 57, 96
1, 12443, Note_on_c, 1, 60, 96
1, 12443, Note_on_c, 1, 65, 96
1, 12444, Note_off_c, 1, 60, 96
1, 12444, Note_off_c, 1, 65, 96
1, 12561, Note_on_c, 1, 72, 96
1, 12561, Note_on_c, 1, 60, 96
1, 12561, Note_on_c, 1, 48, 96
1, 12562, Note_off_c, 1, 72, 96
1, 12562, Note_off_c, 1, 60, 96
1, 12562, Note_off_c, 1, 48, 96
1, 12564, Note_on_c, 1, 69, 96
1, 12565, Note_off_c, 1, 69, 96
1, 12681, Note_on_c, 1, 65, 96
1, 12682, Note_off_c, 1, 65, 96
1, 12685, Note_on_c, 1, 69, 96
1, 12685, Note_on_c, 1, 60, 96
1, 12687, Note_off_c, 1, 69, 96
1, 12687, Note_off_c, 1, 60, 96
1, 12687, Note_on_c, 1, 72, 96
1, 12688, Note_off_c, 1, 72, 96
1, 12805, Note_on_c, 1, 69, 96
1, 12806, Note_off_c, 1, 69, 96
1, 12808, Note_on_c, 1, 72, 96
1, 12810, Note_off_c, 1, 72, 96
1, 12810, Note_on_c, 1, 65, 96
1, 12811, Note_off_c, 1, 65, 96
1, 12929, Note_on_c, 1, 74, 96
1, 12929, Note_on_c, 1, 53, 96
1, 12930, Note_off_c, 1, 74, 96
1, 12930, Note_off_c, 1, 53, 96
1, 12935, Note_on_c, 1, 86, 96
1, 12936, Note_off_c, 1, 86, 96
1, 13053, Note_on_c, 1, 81, 96
1, 13055, Note_off_c, 1, 81, 96
1, 13055, Note_on_c, 1, 46, 96
1, 13058, Note_off_c, 1, 46, 96
1, 13058, Note_on_c, 1, 69, 96
1, 13058, Note_on_c, 1, 57, 96
1, 13059, Note_off_c, 1, 69, 96
1, 13059, Note_off_c, 1, 57, 96
1, 13176, Note_on_c, 1, 72, 96
1, 13176, Note_on_c, 1, 53, 96
1, 13178, Note_off_c, 1, 72, 96
1, 13178, Note_off_c, 1, 53, 96
1, 13178, Note_on_c, 1, 42, 96
1, 13179, Note_off_c, 1, 42, 96
1, 13182, Note_on_c, 1, 84, 96
1, 13184, Note_off_c, 1, 84, 96
1, 13184, Note_on_c, 1, 76, 96
1, 13185, Note_off_c, 1, 76, 96
1, 13300, Note_on_c, 1, 50, 96
1, 13300, Note_on_c, 1, 60, 96
1, 13302, Note_off_c, 1, 50, 96
1, 13302, Note_off_c, 1, 60, 96
1, 13302, Note_on_c, 1, 72, 96
1, 13304, Note_off_c, 1, 72, 96
1, 13304, Note_on_c, 1, 81, 96
1, 13306, Note_off_c, 1, 81, 96
1, 13306, Note_on_c, 1, 54, 96
1, 13308, Note_off_c, 1, 54, 96
1, 13308, Note_on_c, 1, 69, 96
1, 13310, Note_off_c, 1, 69, 96
1, 13310, Note_on_c, 1, 76, 96
1, 13311, Note_off_c, 1, 76, 96
1, 13425, Note_on_c, 1, 54, 96
1, 13426, Note_off_c, 1, 54, 96
1, 13429, Note_on_c, 1, 50, 96
1, 13431, Note_off_c, 1, 50, 96
1, 13431, Note_on_c, 1, 60, 96
1, 13432, Note_off_c, 1, 60, 96
1, 13523, Note_on_c, 1, 75, 96
1, 13525, Note_off_c, 1, 75, 96
1, 13525, Note_on_c, 1, 54, 96
1, 13526, Note_off_c, 1, 54, 96
1, 13537, Note_on_c, 1, 69, 96
1, 13538, Note_off_c, 1, 69, 96
1, 13555, Note_on_c, 1, 74, 96
1, 13556, Note_off_c, 1, 74, 96
1, 13650, Note_on_c, 1, 66, 96
1, 13651, Note_off_c, 1, 66, 96
1, 13653, Note_on_c, 1, 57, 96
1, 13654, Note_off_c, 1, 57, 96
1, 13721, Note_on_c, 1, 67, 96
1, 13721, Note_on_c, 1, 51, 96
1, 13723, Note_off_c, 1, 67, 96
1, 13723, Note_off_c, 1, 51, 96
1, 13723, Note_on_c, 1, 75, 96
1, 13724, Note_off_c, 1, 75, 96
1, 13727, Note_on_c, 1, 39, 96
1, 13728, Note_off_c, 1, 39, 96
1, 13786, Note_on_c, 1, 73, 96
1, 13787, Note_off_c, 1, 73, 96
1, 13789, Note_on_c, 1, 51, 96
1, 13790, Note_off_c, 1, 51, 96
1, 13905, Note_on_c, 1, 60, 96
1, 13907, Note_off_c, 1, 60, 96
1, 13907, Note_on_c, 1, 54, 96
1, 13909, Note_off_c, 1, 54, 96
1, 13909, Note_on_c, 1, 63, 96
1, 13910, Note_off_c, 1, 63, 96
1, 14029, Note_on_c, 1, 77, 96
1, 14030, Note_off_c, 1, 77, 96
1, 14036, Note_on_c, 1, 72, 96
1, 14037, Note_off_c, 1, 72, 96
1, 14264, Note_on_c, 1, 65, 96
1, 14265, Note_off_c, 1, 65, 96
1, 14269, Note_on_c, 1, 57, 96
1, 14269, Note_on_c, 1, 53, 96
1, 14271, Note_off_c, 1, 57, 96
1, 14271, Note_off_c, 1, 53, 96
1, 14271, Note_on_c, 1, 62, 96
1, 14272, Note_off_c, 1, 62, 96
1, 14275, Note_on_c, 1, 69, 96
1, 14276, Note_off_c, 1, 69, 96
1, 14394, Note_on_c, 1, 62, 96
1, 14394, Note_on_c, 1, 65, 96
1, 14394, Note_on_c, 1, 59, 96
1, 14394, Note_on_c, 1, 53, 96
1, 14394, Note_on_c, 1, 55, 96
1, 14397, Note_off_c, 1, 62, 96
1, 14397, Note_off_c, 1, 65, 96
1, 14397, Note_off_c, 1, 59, 96
1, 14397, Note_off_c, 1, 53, 96
1, 14397, Note_off_c, 1, 55, 96
1, 14397, Note_on_c, 1, 70, 96
1, 14397, Note_on_c, 1, 43, 96
1, 14398, Note_off_c, 1, 70, 96
1, 14398, Note_off_c, 1, 43, 96
1, 14402, Note_on_c, 1, 55, 96
1, 14403, Note_off_c, 1, 55, 96
1, 14520, Note_on_c, 1, 50, 96
1, 14521, Note_off_c, 1, 50, 96
1, 14639, Note_on_c, 1, 55, 96
1, 14640, Note_off_c, 1, 55, 96
1, 14644, Note_on_c, 1, 43, 96
1, 14646, Note_off_c, 1, 43, 96
1, 14646, Note_on_c, 1, 65, 96
1, 14647, Note_off_c, 1, 65, 96
1, 14760, Note_on_c, 1, 65, 96
1, 14761, Note_off_c, 1, 65, 96
1, 14765, Note_on_c, 1, 69, 96
1, 14766, Note_off_c, 1, 69, 96
1, 14882, Note_on_c, 1, 67, 96
1, 14883, Note_off_c, 1, 67, 96
1, 14888, Note_on_c, 1, 72, 96
1, 14888, Note_on_c, 1, 63, 96
1, 14888, Note_on_c, 1, 51, 96
1, 14891, Note_off_c, 1, 72, 96
1, 14891, Note_off_c, 1, 63, 96
1, 14891, Note_off_c, 1, 51, 96
1, 14891, Note_on_c, 1, 75, 96
1, 14891, Note_on_c, 1, 48, 96
1, 14892, Note_off_c, 1, 75, 96
1, 14892, Note_off_c, 1, 48, 96
1, 15007, Note_on_c, 1, 57, 96
1, 15008, Note_off_c, 1, 57, 96
1, 15011, Note_on_c, 1, 44, 96
1, 15012, Note_off_c, 1, 44, 96
1, 15133, Note_on_c, 1, 74, 96
1, 15135, Note_off_c, 1, 74, 96
1, 15135, Note_on_c, 1, 59, 96
1, 15137, Note_off_c, 1, 59, 96
1, 15137, Note_on_c, 1, 47, 96
1, 15138, Note_off_c, 1, 47, 96
1, 15255, Note_on_c, 1, 61, 96
1, 15256, Note_off_c, 1, 61, 96
1, 15259, Note_on_c, 1, 53, 96
1, 15261, Note_off_c, 1, 53, 96
1, 15261, Note_on_c, 1, 57, 96
1, 15262, Note_off_c, 1, 57, 96
1, 15382, Note_on_c, 1, 48, 96
1, 15383, Note_off_c, 1, 48, 96
1, 15501, Note_on_c, 1, 40, 96
1, 15502, Note_off_c, 1, 40, 96
1, 15505, Note_on_c, 1, 52, 96
1, 15506, Note_off_c, 1, 52, 96
1, 15736, Note_on_c, 1, 50, 96
1, 15737, Note_off_c, 1, 50, 96
1, 15848, Note_on_c, 1, 51, 96
1, 15850, Note_off_c, 1, 51, 96
1, 15850, Note_on_c, 1, 39, 96
1, 15851, Note_off_c, 1, 39, 96
1, 15974, Note_on_c, 1, 47, 96
1, 15975, Note_off_c, 1, 47, 96
1, 16091, Note_on_c, 1, 67, 96
1, 16093, Note_off_c, 1, 67, 96
1, 16093, Note_on_c, 1, 55, 96
1, 16094, Note_off_c, 1, 55, 96
1, 16216, Note_on_c, 1, 64, 96
1, 16217, Note_off_c, 1, 64, 96
1, 16220, Note_on_c, 1, 60, 96
1, 16220, Note_on_c, 1, 67, 96
1, 16221, Note_off_c, 1, 60, 96
1, 16221, Note_off_c, 1, 67, 96
1, 16338, Note_on_c, 1, 65, 96
1, 16340, Note_off_c, 1, 65, 96
1, 16340, Note_on_c, 1, 62, 96
1, 16341, Note_off_c, 1, 62, 96
1, 16343, Note_on_c, 1, 70, 96
1, 16345, Note_off_c, 1, 70, 96
1, 16345, Note_on_c, 1, 58, 96
1, 16346, Note_off_c, 1, 58, 96
1, 16405, Note_on_c, 1, 63, 96
1, 16406, Note_off_c, 1, 63, 96
1, 16464, Note_on_c, 1, 48, 96
1, 16465, Note_off_c, 1, 48, 96
1, 16522, Note_on_c, 1, 41, 96
1, 16524, Note_off_c, 1, 41, 96
1, 16524, Note_on_c, 1, 65, 96
1, 16525, Note_off_c, 1, 65, 96
1, 16528, Note_on_c, 1, 50, 96
1, 16528, Note_on_c, 1, 53, 96
1, 16529, Note_off_c, 1, 50, 96
1, 16529, Note_off_c, 1, 53, 96
1, 16531, Note_on_c, 1, 62, 96
1, 16532, Note_off_c, 1, 62, 96
1, 16593, Note_on_c, 1, 65, 96
1, 16594, Note_off_c, 1, 65, 96
1, 16650, Note_on_c, 1, 41, 96
1, 16651, Note_off_c, 1, 41, 96
1, 16772, Note_on_c, 1, 53, 96
1, 16774, Note_off_c, 1, 53, 96
1, 16774, Note_on_c, 1, 58, 96
1, 16776, Note_off_c, 1, 58, 96
1, 16776, Note_on_c, 1, 65, 96
1, 16777, Note_off_c, 1, 65, 96
1, 16896, Note_on_c, 1, 58, 96
1, 16897, Note_off_c, 1, 58, 96
1, 16955, Note_on_c, 1, 58, 96
1, 16956, Note_off_c, 1, 58, 96
1, 16959, Note_on_c, 1, 34, 96
1, 16960, Note_off_c, 1, 34, 96
1, 17020, Note_on_c, 1, 57, 96
1, 17021, Note_off_c, 1, 57, 96
1, 17079, Note_on_c, 1, 58, 96
1, 17079, Note_on_c, 1, 43, 96
1, 17080, Note_off_c, 1, 58, 96
1, 17080, Note_off_c, 1, 43, 96
1, 17084, Note_on_c, 1, 67, 96
1, 17086, Note_off_c, 1, 67, 96
1, 17086, Note_on_c, 1, 55, 96
1, 17087, Note_off_c, 1, 55, 96
1, 17144, Note_on_c, 1, 67, 96
1, 17145, Note_off_c, 1, 67, 96
1, 17202, Note_on_c, 1, 55, 96
1, 17203, Note_off_c, 1, 55, 96
1, 17206, Note_on_c, 1, 53, 96
1, 17208, Note_off_c, 1, 53, 96
1, 17208, Note_on_c, 1, 53, 96
1, 17210, Note_off_c, 1, 53, 96
1, 17210, Note_on_c, 1, 62, 96
1, 17212, Note_off_c, 1, 62, 96
1, 17212, Note_on_c, 1, 58, 96
1, 17213, Note_off_c, 1, 58, 96
1, 17331, Note_on_c, 1, 43, 96
1, 17333, Note_off_c, 1, 43, 96
1, 17333, Note_on_c, 1, 62, 96
1, 17335, Note_off_c, 1, 62, 96
1, 17335, Note_on_c, 1, 65, 96
1, 17336, Note_off_c, 1, 65, 96
1, 17394, Note_on_c, 1, 60, 96
1, 17395, Note_off_c, 1, 60, 96
1, 17397, Note_on_c, 1, 48, 96
1, 17398, Note_off_c, 1, 48, 96
1, 17462, Note_on_c, 1, 42, 96
1, 17463, Note_off_c, 1, 42, 96
1, 17579, Note_on_c, 1, 63, 96
1, 17579, Note_on_c, 1, 54, 96
1, 17581, Note_off_c, 1, 63, 96
1, 17581, Note_off_c, 1, 54, 96
1, 17581, Note_on_c, 1, 57, 96
1, 17582, Note_off_c, 1, 57, 96
1, 17584, Note_on_c, 1, 60, 96
1, 17585, Note_off_c, 1, 60, 96
1, 17704, Note_on_c, 1, 45, 96
1, 17705, Note_off_c, 1, 45, 96
1, 17745, Note_on_c, 1, 65, 96
1, 17746, Note_off_c, 1, 65, 96
1, 17783, Note_on_c, 1, 43, 96
1, 17784, Note_off_c, 1, 43, 96
1, 17844, Note_on_c, 1, 63, 96
1, 17845, Note_off_c, 1, 63, 96
1, 17906, Note_on_c, 1, 65, 96
1, 17906, Note_on_c, 1, 55, 96
1, 17908, Note_off_c, 1, 65, 96
1, 17908, Note_off_c, 1, 55, 96
1, 17908, Note_on_c, 1, 50, 96
1, 17910, Note_off_c, 1, 50, 96
1, 17910, Note_on_c, 1, 59, 96
1, 17911, Note_off_c, 1, 59, 96
1, 18028, Note_on_c, 1, 55, 96
1, 18029, Note_off_c, 1, 55, 96
1, 18033, Note_on_c, 1, 65, 96
1, 18033, Note_on_c, 1, 61, 96
1, 18036, Note_off_c, 1, 65, 96
1, 18036, Note_off_c, 1, 61, 96
1, 18036, Note_on_c, 1, 67, 96
1, 18036, Note_on_c, 1, 71, 96
1, 18038, Note_off_c, 1, 67, 96
1, 18038, Note_off_c, 1, 71, 96
1, 18038, Note_on_c, 1, 43, 96
1, 18039, Note_off_c, 1, 43, 96
1, 18153, Note_on_c, 1, 55, 96
1, 18155, Note_off_c, 1, 55, 96
1, 18155, Note_on_c, 1, 65, 96
1, 18156, Note_off_c, 1, 65, 96
1, 18158, Note_on_c, 1, 69, 96
1, 18160, Note_off_c, 1, 69, 96
1, 18160, Note_on_c, 1, 59, 96
1, 18161, Note_off_c, 1, 59, 96
1, 18276, Note_on_c, 1, 53, 96
1, 18278, Note_off_c, 1, 53, 96
1, 18278, Note_on_c, 1, 61, 96
1, 18279, Note_off_c, 1, 61, 96
1, 18284, Note_on_c, 1, 67, 96
1, 18284, Note_on_c, 1, 58, 96
1, 18284, Note_on_c, 1, 55, 96
1, 18285, Note_off_c, 1, 67, 96
1, 18285, Note_off_c, 1, 58, 96
1, 18285, Note_off_c, 1, 55, 96
1, 18400, Note_on_c, 1, 65, 96
1, 18401, Note_off_c, 1, 65, 96
1, 18403, Note_on_c, 1, 58, 96
1, 18404, Note_off_c, 1, 58, 96
1, 18465, Note_on_c, 1, 63, 96
1, 18466, Note_off_c, 1, 63, 96
1, 18530, Note_on_c, 1, 67, 96
1, 18530, Note_on_c, 1, 59, 96
1, 18533, Note_off_c, 1, 67, 96
1, 18533, Note_off_c, 1, 59, 96
1, 18533, Note_on_c, 1, 57, 96
1, 18533, Note_on_c, 1, 63, 96
1, 18534, Note_off_c, 1, 57, 96
1, 18534, Note_off_c, 1, 63, 96
1, 18648, Note_on_c, 1, 71, 96
1, 18650, Note_off_c, 1, 71, 96
1, 18650, Note_on_c, 1, 33, 96
1, 18652, Note_off_c, 1, 33, 96
1, 18652, Note_on_c, 1, 66, 96
1, 18653, Note_off_c, 1, 66, 96
1, 18658, Note_on_c, 1, 45, 96
1, 18659, Note_off_c, 1, 45, 96
1, 18773, Note_on_c, 1, 54, 96
1, 18774, Note_off_c, 1, 54, 96
1, 18776, Note_on_c, 1, 50, 96
1, 18778, Note_off_c, 1, 50, 96
1, 18778, Note_on_c, 1, 60, 96
1, 18779, Note_off_c, 1, 60, 96
1, 18900, Note_on_c, 1, 59, 96
1, 18900, Note_on_c, 1, 55, 96
1, 18901, Note_off_c, 1, 59, 96
1, 18901, Note_off_c, 1, 55, 96
1, 18905, Note_on_c, 1, 66, 96
1, 18905, Note_on_c, 1, 47, 96
1, 18906, Note_off_c, 1, 66, 96
1, 18906, Note_off_c, 1, 47, 96
1, 18959, Note_on_c, 1, 54, 96
1, 18960, Note_off_c, 1, 54, 96
1, 18963, Note_on_c, 1, 60, 96
1, 18964, Note_off_c, 1, 60, 96
1, 19024, Note_on_c, 1, 70, 96
1, 19024, Note_on_c, 1, 64, 96
1, 19024, Note_on_c, 1, 36, 96
1, 19025, Note_off_c, 1, 70, 96
1, 19025, Note_off_c, 1, 64, 96
1, 19025, Note_off_c, 1, 36, 96
1, 19028, Note_on_c, 1, 60, 96
1, 19029, Note_off_c, 1, 60, 96
1, 19031, Note_on_c, 1, 48, 96
1, 19032, Note_off_c, 1, 48, 96
1, 19089, Note_on_c, 1, 70, 96
1, 19090, Note_off_c, 1, 70, 96
1, 19145, Note_on_c, 1, 41, 96
1, 19146, Note_off_c, 1, 41, 96
1, 19149, Note_on_c, 1, 67, 96
1, 19150, Note_off_c, 1, 67, 96
1, 19154, Note_on_c, 1, 53, 96
1, 19155, Note_off_c, 1, 53, 96
1, 19213, Note_on_c, 1, 69, 96
1, 19214, Note_off_c, 1, 69, 96
1, 19271, Note_on_c, 1, 72, 96
1, 19271, Note_on_c, 1, 65, 96
1, 19273, Note_off_c, 1, 72, 96
1, 19273, Note_off_c, 1, 65, 96
1, 19273, Note_on_c, 1, 46, 96
1, 19274, Note_off_c, 1, 46, 96
1, 19278, Note_on_c, 1, 58, 96
1, 19279, Note_off_c, 1, 58, 96
1, 19338, Note_on_c, 1, 73, 96
1, 19339, Note_off_c, 1, 73, 96
1, 19397, Note_on_c, 1, 38, 96
1, 19399, Note_off_c, 1, 38, 96
1, 19399, Note_on_c, 1, 74, 96
1, 19400, Note_off_c, 1, 74, 96
1, 19402, Note_on_c, 1, 50, 96
1, 19403, Note_off_c, 1, 50, 96
1, 19521, Note_on_c, 1, 49, 96
1, 19522, Note_off_c, 1, 49, 96
1, 19641, Note_on_c, 1, 70, 96
1, 19642, Note_off_c, 1, 70, 96
1, 19645, Note_on_c, 1, 70, 96
1, 19646, Note_off_c, 1, 70, 96
1, 19763, Note_on_c, 1, 72, 96
1, 19765, Note_off_c, 1, 72, 96
1, 19765, Note_on_c, 1, 63, 96
1, 19766, Note_off_c, 1, 63, 96
1, 19769, Note_on_c, 1, 57, 96
1, 19770, Note_off_c, 1, 57, 96
1, 19772, Note_on_c, 1, 48, 96
1, 19773, Note_off_c, 1, 48, 96
1, 19888, Note_on_c, 1, 39, 96
1, 19889, Note_off_c, 1, 39, 96
1, 19895, Note_on_c, 1, 51, 96
1, 19896, Note_off_c, 1, 51, 96
1, 20016, Note_on_c, 1, 65, 96
1, 20018, Note_off_c, 1, 65, 96
1, 20018, Note_on_c, 1, 72, 96
1, 20019, Note_off_c, 1, 72, 96
1, 20139, Note_on_c, 1, 55, 96
1, 20142, Note_off_c, 1, 55, 96
1, 20142, Note_on_c, 1, 70, 96
1, 20142, Note_on_c, 1, 43, 96
1, 20144, Note_off_c, 1, 70, 96
1, 20144, Note_off_c, 1, 43, 96
1, 20144, Note_on_c, 1, 67, 96
1, 20145, Note_off_c, 1, 67, 96
1, 20203, Note_on_c, 1, 50, 96
1, 20204, Note_off_c, 1, 50, 96
1, 20207, Note_on_c, 1, 38, 96
1, 20208, Note_off_c, 1, 38, 96
1, 20326, Note_on_c, 1, 63, 96
1, 20328, Note_off_c, 1, 63, 96
1, 20328, Note_on_c, 1, 49, 96
1, 20329, Note_off_c, 1, 49, 96
1, 20331, Note_on_c, 1, 61, 96
1, 20332, Note_off_c, 1, 61, 96
1, 20387, Note_on_c, 1, 70, 96
1, 20388, Note_off_c, 1, 70, 96
1, 20448, Note_on_c, 1, 66, 96
1, 20450, Note_off_c, 1, 66, 96
1, 20450, Note_on_c, 1, 54, 96
1, 20451, Note_off_c, 1, 54, 96
1, 20572, Note_on_c, 1, 50, 96
1, 20574, Note_off_c, 1, 50, 96
1, 20574, Note_on_c, 1, 58, 96
1, 20578, Note_off_c, 1, 58, 96
1, 20578, Note_on_c, 1, 67, 96
1, 20578, Note_on_c, 1, 62, 96
1, 20578, Note_on_c, 1, 38, 96
1, 20579, Note_off_c, 1, 67, 96
1, 20579, Note_off_c, 1, 62, 96
1, 20579, Note_off_c, 1, 38, 96
1, 20693, Note_on_c, 1, 52, 96
1, 20695, Note_off_c, 1, 52, 96
1, 20695, Note_on_c, 1, 40, 96
1, 20696, Note_off_c, 1, 40, 96
1, 20817, Note_on_c, 1, 38, 96
1, 20817, Note_on_c, 1, 50, 96
1, 20818, Note_off_c, 1, 38, 96
1, 20818, Note_off_c, 1, 50, 96
1, 20823, Note_on_c, 1, 36, 96
1, 20824, Note_off_c, 1, 36, 96
1, 20940, Note_on_c, 1, 79, 96
1, 20942, Note_off_c, 1, 79, 96
1, 20942, Note_on_c, 1, 58, 96
1, 20944, Note_off_c, 1, 58, 96
1, 20944, Note_on_c, 1, 60, 96
1, 20945, Note_off_c, 1, 60, 96
1, 20947, Note_on_c, 1, 70, 96
1, 20949, Note_off_c, 1, 70, 96
1, 20949, Note_on_c, 1, 76, 96
1, 20950, Note_off_c, 1, 76, 96
1, 21067, Note_on_c, 1, 41, 96
1, 21069, Note_off_c, 1, 41, 96
1, 21069, Note_on_c, 1, 53, 96
1, 21072, Note_off_c, 1, 53, 96
1, 21072, Note_on_c, 1, 72, 96
1, 21072, Note_on_c, 1, 80, 96
1, 21073, Note_off_c, 1, 72, 96
1, 21073, Note_off_c, 1, 80, 96
1, 21132, Note_on_c, 1, 74, 96
1, 21132, Note_on_c, 1, 77, 96
1, 21133, Note_off_c, 1, 74, 96
1, 21133, Note_off_c, 1, 77, 96
1, 21135, Note_on_c, 1, 68, 96
1, 21136, Note_off_c, 1, 68, 96
1, 21196, Note_on_c, 1, 41, 96
1, 21197, Note_off_c, 1, 41, 96
1, 21251, Note_on_c, 1, 75, 96
1, 21252, Note_off_c, 1, 75, 96
1, 21256, Note_on_c, 1, 72, 96
1, 21257, Note_off_c, 1, 72, 96
1, 21313, Note_on_c, 1, 69, 96
1, 21317, Note_off_c, 1, 69, 96
1, 21317, Note_on_c, 1, 67, 96
1, 21317, Note_on_c, 1, 60, 96
1, 21317, Note_on_c, 1, 57, 96
1, 21318, Note_off_c, 1, 67, 96
1, 21318, Note_off_c, 1, 60, 96
1, 21318, Note_off_c, 1, 57, 96
1, 21320, Note_on_c, 1, 72, 96
1, 21321, Note_off_c, 1, 72, 96
1, 21323, Note_on_c, 1, 77, 96
1, 21324, Note_off_c, 1, 77, 96
1, 21382, Note_on_c, 1, 77, 96
1, 21384, Note_off_c, 1, 77, 96
1, 21384, Note_on_c, 1, 65, 96
1, 21385, Note_off_c, 1, 65, 96
1, 21444, Note_on_c, 1, 36, 96
1, 21445, Note_off_c, 1, 36, 96
1, 21502, Note_on_c, 1, 55, 96
1, 21503, Note_off_c, 1, 55, 96
1, 21507, Note_on_c, 1, 76, 96
1, 21509, Note_off_c, 1, 76, 96
1, 21509, Note_on_c, 1, 67, 96
1, 21510, Note_off_c, 1, 67, 96
1, 21562, Note_on_c, 1, 41, 96
1, 21562, Note_on_c, 1, 53, 96
1, 21563, Note_off_c, 1, 41, 96
1, 21563, Note_off_c, 1, 53, 96
1, 21624, Note_on_c, 1, 77, 96
1, 21625, Note_off_c, 1, 77, 96
1, 21685, Note_on_c, 1, 77, 96
1, 21685, Note_on_c, 1, 64, 96
1, 21686, Note_off_c, 1, 77, 96
1, 21686, Note_off_c, 1, 64, 96
1, 21690, Note_on_c, 1, 55, 96
1, 21690, Note_on_c, 1, 60, 96
1, 21691, Note_off_c, 1, 55, 96
1, 21691, Note_off_c, 1, 60, 96
1, 21749, Note_on_c, 1, 63, 96
1, 21750, Note_off_c, 1, 63, 96
1, 21808, Note_on_c, 1, 59, 96
1, 21810, Note_off_c, 1, 59, 96
1, 21810, Note_on_c, 1, 65, 96
1, 21811, Note_off_c, 1, 65, 96
1, 21813, Note_on_c, 1, 55, 96
1, 21815, Note_off_c, 1, 55, 96
1, 21815, Note_on_c, 1, 72, 96
1, 21817, Note_off_c, 1, 72, 96
1, 21817, Note_on_c, 1, 75, 96
1, 21818, Note_off_c, 1, 75, 96
1, 21935, Note_on_c, 1, 43, 96
1, 21939, Note_off_c, 1, 43, 96
1, 21939, Note_on_c, 1, 65, 96
1, 21939, Note_on_c, 1, 77, 96
1, 21939, Note_on_c, 1, 55, 96
1, 21941, Note_off_c, 1, 65, 96
1, 21941, Note_off_c, 1, 77, 96
1, 21941, Note_off_c, 1, 55, 96
1, 21941, Note_on_c, 1, 71, 96
1, 21942, Note_off_c, 1, 71, 96
1, 22059, Note_on_c, 1, 67, 96
1, 22062, Note_off_c, 1, 67, 96
1, 22062, Note_on_c, 1, 65, 96
1, 22062, Note_on_c, 1, 50, 96
1, 22063, Note_off_c, 1, 65, 96
1, 22063, Note_off_c, 1, 50, 96
1, 22179, Note_on_c, 1, 64, 96
1, 22181, Note_off_c, 1, 64, 96
1, 22181, Note_on_c, 1, 67, 96
1, 22182, Note_off_c, 1, 67, 96
1, 22184, Note_on_c, 1, 60, 96
1, 22185, Note_off_c, 1, 60, 96
1, 22187, Note_on_c, 1, 55, 96
1, 22188, Note_off_c, 1, 55, 96
1, 22245, Note_on_c, 1, 63, 96
1, 22246, Note_off_c, 1, 63, 96
1, 22304, Note_on_c, 1, 62, 96
1, 22305, Note_off_c, 1, 62, 96
1, 22308, Note_on_c, 1, 50, 96
1, 22309, Note_off_c, 1, 50, 96
1, 22426, Note_on_c, 1, 55, 96
1, 22428, Note_off_c, 1, 55, 96
1, 22428, Note_on_c, 1, 43, 96
1, 22429, Note_off_c, 1, 43, 96
1, 22554, Note_on_c, 1, 67, 96
1, 22555, Note_off_c, 1, 67, 96
1, 22670, Note_on_c, 1, 72, 96
1, 22670, Note_on_c, 1, 60, 96
1, 22671, Note_off_c, 1, 72, 96
1, 22671, Note_off_c, 1, 60, 96
1, 22674, Note_on_c, 1, 55, 96
1, 22675, Note_off_c, 1, 55, 96
1, 22736, Note_on_c, 1, 67, 96
1, 22737, Note_off_c, 1, 67, 96
1, 22793, Note_on_c, 1, 64, 96
1, 22794, Note_off_c, 1, 64, 96
1, 22796, Note_on_c, 1, 42, 96
1, 22797, Note_off_c, 1, 42, 96
1, 22800, Note_on_c, 1, 67, 96
1, 22800, Note_on_c, 1, 35, 96
1, 22801, Note_off_c, 1, 67, 96
1, 22801, Note_off_c, 1, 35, 96
1, 22856, Note_on_c, 1, 72, 96
1, 22857, Note_off_c, 1, 72, 96
1, 22918, Note_on_c, 1, 71, 96
1, 22920, Note_off_c, 1, 71, 96
1, 22920, Note_on_c, 1, 67, 96
1, 22921, Note_off_c, 1, 67, 96
1, 22923, Note_on_c, 1, 62, 96
1, 22926, Note_off_c, 1, 62, 96
1, 22926, Note_on_c, 1, 59, 96
1, 22926, Note_on_c, 1, 55, 96
1, 22927, Note_off_c, 1, 59, 96
1, 22927, Note_off_c, 1, 55, 96
1, 22984, Note_on_c, 1, 74, 96
1, 22985, Note_off_c, 1, 74, 96
1, 22987, Note_on_c, 1, 67, 96
1, 22988, Note_off_c, 1, 67, 96
1, 23050, Note_on_c, 1, 48, 96
1, 23051, Note_off_c, 1, 48, 96
1, 23109, Note_on_c, 1, 71, 96
1, 23110, Note_off_c, 1, 71, 96
1, 23114, Note_on_c, 1, 67, 96
1, 23114, Note_on_c, 1, 65, 96
1, 23115, Note_off_c, 1, 67, 96
1, 23115, Note_off_c, 1, 65, 96
1, 23171, Note_on_c, 1, 65, 96
1, 23172, Note_off_c, 1, 65, 96
1, 23175, Note_on_c, 1, 62, 96
1, 23178, Note_off_c, 1, 62, 96
1, 23178, Note_on_c, 1, 67, 96
1, 23178, Note_on_c, 1, 55, 96
1, 23179, Note_off_c, 1, 67, 96
1, 23179, Note_off_c, 1, 55, 96
1, 23181, Note_on_c, 1, 43, 96
1, 23182, Note_off_c, 1, 43, 96
1, 23298, Note_on_c, 1, 55, 96
1, 23300, Note_off_c, 1, 55, 96
1, 23300, Note_on_c, 1, 72, 96
1, 23301, Note_off_c, 1, 72, 96
1, 23303, Note_on_c, 1, 65, 96
1, 23305, Note_off_c, 1, 65, 96
1, 23305, Note_on_c, 1, 43, 96
1, 23306, Note_off_c, 1, 43, 96
1, 23422, Note_on_c, 1, 65, 96
1, 23425, Note_off_c, 1, 65, 96
1, 23425, Note_on_c, 1, 67, 96
1, 23425, Note_on_c, 1, 59, 96
1, 23426, Note_off_c, 1, 67, 96
1, 23426, Note_off_c, 1, 59, 96
1, 23663, Note_on_c, 1, 41, 96
1, 23664, Note_off_c, 1, 41, 96
1, 23666, Note_on_c, 1, 74, 96
1, 23667, Note_off_c, 1, 74, 96
1, 23670, Note_on_c, 1, 77, 96
1, 23671, Note_off_c, 1, 77, 96
1, 23727, Note_on_c, 1, 77, 96
1, 23728, Note_off_c, 1, 77, 96
1, 23732, Note_on_c, 1, 65, 96
1, 23733, Note_off_c, 1, 65, 96
1, 23789, Note_on_c, 1, 74, 96
1, 23791, Note_off_c, 1, 74, 96
1, 23791, Note_on_c, 1, 62, 96
1, 23793, Note_off_c, 1, 62, 96
1, 23793, Note_on_c, 1, 58, 96
1, 23794, Note_off_c, 1, 58, 96
1, 23852, Note_on_c, 1, 74, 96
1, 23853, Note_off_c, 1, 74, 96
1, 23910, Note_on_c, 1, 58, 96
1, 23911, Note_off_c, 1, 58, 96
1, 23913, Note_on_c, 1, 77, 96
1, 23914, Note_off_c, 1, 77, 96
1, 23918, Note_on_c, 1, 46, 96
1, 23919, Note_off_c, 1, 46, 96
1, 23974, Note_on_c, 1, 73, 96
1, 23975, Note_off_c, 1, 73, 96
1, 24035, Note_on_c, 1, 75, 96
1, 24037, Note_off_c, 1, 75, 96
1, 24037, Note_on_c, 1, 36, 96
1, 24040, Note_off_c, 1, 36, 96
1, 24040, Note_on_c, 1, 79, 96
1, 24040, Note_on_c, 1, 48, 96
1, 24041, Note_off_c, 1, 79, 96
1, 24041, Note_off_c, 1, 48, 96
1, 24100, Note_on_c, 1, 79, 96
1, 24101, Note_off_c, 1, 79, 96
1, 24160, Note_on_c, 1, 68, 96
1, 24160, Note_on_c, 1, 53, 96
1, 24161, Note_off_c, 1, 68, 96
1, 24161, Note_off_c, 1, 53, 96
1, 24165, Note_on_c, 1, 72, 96
1, 24167, Note_off_c, 1, 72, 96
1, 24167, Note_on_c, 1, 62, 96
1, 24168, Note_off_c, 1, 62, 96
1, 24170, Note_on_c, 1, 58, 96
1, 24171, Note_off_c, 1, 58, 96
1, 24227, Note_on_c, 1, 82, 96
1, 24228, Note_off_c, 1, 82, 96
1, 24232, Note_on_c, 1, 74, 96
1, 24232, Note_on_c, 1, 70, 96
1, 24233, Note_off_c, 1, 74, 96
1, 24233, Note_off_c, 1, 70, 96
1, 24289, Note_on_c, 1, 41, 96
1, 24290, Note_off_c, 1, 41, 96
1, 24293, Note_on_c, 1, 53, 96
1, 24294, Note_off_c, 1, 53, 96
1, 24354, Note_on_c, 1, 74, 96
1, 24355, Note_off_c, 1, 74, 96
1, 24411, Note_on_c, 1, 39, 96
1, 24414, Note_off_c, 1, 39, 96
1, 24414, Note_on_c, 1, 87, 96
1, 24414, Note_on_c, 1, 75, 96
1, 24415, Note_off_c, 1, 87, 96
1, 24415, Note_off_c, 1, 75, 96
1, 24417, Note_on_c, 1, 51, 96
1, 24418, Note_off_c, 1, 51, 96
1, 24479, Note_on_c, 1, 80, 96
1, 24480, Note_off_c, 1, 80, 96
1, 24536, Note_on_c, 1, 63, 96
1, 24537, Note_off_c, 1, 63, 96
1, 24541, Note_on_c, 1, 58, 96
1, 24541, Note_on_c, 1, 55, 96
1, 24542, Note_off_c, 1, 58, 96
1, 24542, Note_off_c, 1, 55, 96
1, 24602, Note_on_c, 1, 85, 96
1, 24603, Note_off_c, 1, 85, 96
1, 24659, Note_on_c, 1, 74, 96
1, 24660, Note_off_c, 1, 74, 96
1, 24663, Note_on_c, 1, 82, 96
1, 24663, Note_on_c, 1, 43, 96
1, 24664, Note_off_c, 1, 82, 96
1, 24664, Note_off_c, 1, 43, 96
1, 24666, Note_on_c, 1, 86, 96
1, 24668, Note_off_c, 1, 86, 96
1, 24668, Note_on_c, 1, 55, 96
1, 24669, Note_off_c, 1, 55, 96
1, 24723, Note_on_c, 1, 77, 96
1, 24724, Note_off_c, 1, 77, 96
1, 24727, Note_on_c, 1, 89, 96
1, 24728, Note_off_c, 1, 89, 96
1, 24783, Note_on_c, 1, 58, 96
1, 24784, Note_off_c, 1, 58, 96
1, 24787, Note_on_c, 1, 53, 96
1, 24788, Note_off_c, 1, 53, 96
1, 24790, Note_on_c, 1, 62, 96
1, 24791, Note_off_c, 1, 62, 96
1, 24847, Note_on_c, 1, 87, 96
1, 24847, Note_on_c, 1, 81, 96
1, 24848, Note_off_c, 1, 87, 96
1, 24848, Note_off_c, 1, 81, 96
1, 24912, Note_on_c, 1, 60, 96
1, 24912, Note_on_c, 1, 54, 96
1, 24913, Note_off_c, 1, 60, 96
1, 24913, Note_off_c, 1, 54, 96
1, 24977, Note_on_c, 1, 87, 96
1, 24977, Note_on_c, 1, 75, 96
1, 24978, Note_off_c, 1, 87, 96
1, 24978, Note_off_c, 1, 75, 96
1, 25037, Note_on_c, 1, 54, 96
1, 25038, Note_off_c, 1, 54, 96
1, 25040, Note_on_c, 1, 42, 96
1, 25041, Note_off_c, 1, 42, 96
1, 25097, Note_on_c, 1, 90, 96
1, 25098, Note_off_c, 1, 90, 96
1, 25160, Note_on_c, 1, 98, 96
1, 25161, Note_off_c, 1, 98, 96
1, 25165, Note_on_c, 1, 86, 96
1, 25165, Note_on_c, 1, 46, 96
1, 25166, Note_off_c, 1, 86, 96
1, 25166, Note_off_c, 1, 46, 96
1, 25168, Note_on_c, 1, 54, 96
1, 25170, Note_off_c, 1, 54, 96
1, 25170, Note_on_c, 1, 58, 96
1, 25171, Note_off_c, 1, 58, 96
1, 25284, Note_on_c, 1, 58, 96
1, 25285, Note_off_c, 1, 58, 96
1, 25289, Note_on_c, 1, 82, 96
1, 25291, Note_off_c, 1, 82, 96
1, 25291, Note_on_c, 1, 66, 96
1, 25292, Note_off_c, 1, 66, 96
1, 25409, Note_on_c, 1, 91, 96
1, 25410, Note_off_c, 1, 91, 96
1, 25474, Note_on_c, 1, 90, 96
1, 25475, Note_off_c, 1, 90, 96
1, 25592, Note_on_c, 1, 87, 96
1, 25594, Note_off_c, 1, 87, 96
1, 25594, Note_on_c, 1, 78, 96
1, 25597, Note_off_c, 1, 78, 96
1, 25597, Note_on_c, 1, 75, 96
1, 25597, Note_on_c, 1, 51, 96
1, 25598, Note_off_c, 1, 75, 96
1, 25598, Note_off_c, 1, 51, 96
1, 25654, Note_on_c, 1, 79, 96
1, 25656, Note_off_c, 1, 79, 96
1, 25656, Note_on_c, 1, 75, 96
1, 25657, Note_off_c, 1, 75, 96
1, 25659, Note_on_c, 1, 82, 96
1, 25661, Note_off_c, 1, 82, 96
1, 25661, Note_on_c, 1, 86, 96
1, 25662, Note_off_c, 1, 86, 96
1, 25717, Note_on_c, 1, 57, 96
1, 25718, Note_off_c, 1, 57, 96
1, 25721, Note_on_c, 1, 74, 96
1, 25722, Note_off_c, 1, 74, 96
1, 25726, Note_on_c, 1, 86, 96
1, 25726, Note_on_c, 1, 54, 96
1, 25726, Note_on_c, 1, 62, 96
1, 25727, Note_off_c, 1, 86, 96
1, 25727, Note_off_c, 1, 54, 96
1, 25727, Note_off_c, 1, 62, 96
1, 25842, Note_on_c, 1, 78, 96
1, 25843, Note_off_c, 1, 78, 96
1, 25845, Note_on_c, 1, 45, 96
1, 25846, Note_off_c, 1, 45, 96
1, 25848, Note_on_c, 1, 81, 96
1, 25850, Note_off_c, 1, 81, 96
1, 25850, Note_on_c, 1, 85, 96
1, 25853, Note_off_c, 1, 85, 96
1, 25853, Note_on_c, 1, 72, 96
1, 25853, Note_on_c, 1, 50, 96
1, 25854, Note_off_c, 1, 72, 96
1, 25854, Note_off_c, 1, 50, 96
1, 25906, Note_on_c, 1, 75, 96
1, 25907, Note_off_c, 1, 75, 96
1, 25911, Note_on_c, 1, 86, 96
1, 25912, Note_off_c, 1, 86, 96
1, 25970, Note_on_c, 1, 62, 96
1, 25971, Note_off_c, 1, 62, 96
1, 25976, Note_on_c, 1, 78, 96
1, 25976, Note_on_c, 1, 57, 96
1, 25976, Note_on_c, 1, 50, 96
1, 25978, Note_off_c, 1, 78, 96
1, 25978, Note_off_c, 1, 57, 96
1, 25978, Note_off_c, 1, 50, 96
1, 25978, Note_on_c, 1, 74, 96
1, 25981, Note_off_c, 1, 74, 96
1, 25981, Note_on_c, 1, 84, 96
1, 25981, Note_on_c, 1, 72, 96
1, 25983, Note_off_c, 1, 84, 96
1, 25983, Note_off_c, 1, 72, 96
1, 25983, Note_on_c, 1, 54, 96
1, 25984, Note_off_c, 1, 54, 96
1, 26098, Note_on_c, 1, 51, 96
1, 26100, Note_off_c, 1, 51, 96
1, 26100, Note_on_c, 1, 39, 96
1, 26101, Note_off_c, 1, 39, 96
1, 26221, Note_on_c, 1, 55, 96
1, 26222, Note_off_c, 1, 55, 96
1, 26225, Note_on_c, 1, 52, 96
1, 26225, Note_on_c, 1, 43, 96
1, 26226, Note_off_c, 1, 52, 96
1, 26226, Note_off_c, 1, 43, 96
1, 26230, Note_on_c, 1, 76, 96
1, 26230, Note_on_c, 1, 72, 96
1, 26230, Note_on_c, 1, 79, 96
1, 26231, Note_off_c, 1, 76, 96
1, 26231, Note_off_c, 1, 72, 96
1, 26231, Note_off_c, 1, 79, 96
1, 26287, Note_on_c, 1, 83, 96
1, 26289, Note_off_c, 1, 83, 96
1, 26289, Note_on_c, 1, 76, 96
1, 26290, Note_off_c, 1, 76, 96
1, 26292, Note_on_c, 1, 88, 96
1, 26293, Note_off_c, 1, 88, 96
1, 26351, Note_on_c, 1, 93, 96
1, 26352, Note_off_c, 1, 93, 96
1, 26356, Note_on_c, 1, 79, 96
1, 26356, Note_on_c, 1, 88, 96
1, 26357, Note_off_c, 1, 79, 96
1, 26357, Note_off_c, 1, 88, 96
1, 26415, Note_on_c, 1, 88, 96
1, 26416, Note_off_c, 1, 88, 96
1, 26418, Note_on_c, 1, 76, 96
1, 26419, Note_off_c, 1, 76, 96
1, 26421, Note_on_c, 1, 84, 96
1, 26422, Note_off_c, 1, 84, 96
1, 26475, Note_on_c, 1, 85, 96
1, 26476, Note_off_c, 1, 85, 96
1, 26479, Note_on_c, 1, 88, 96
1, 26479, Note_on_c, 1, 76, 96
1, 26480, Note_off_c, 1, 88, 96
1, 26480, Note_off_c, 1, 76, 96
1, 26483, Note_on_c, 1, 50, 96
1, 26484, Note_off_c, 1, 50, 96
1, 26603, Note_on_c, 1, 85, 96
1, 26603, Note_on_c, 1, 57, 96
1, 26604, Note_off_c, 1, 85, 96
1, 26604, Note_off_c, 1, 57, 96
1, 26606, Note_on_c, 1, 78, 96
1, 26608, Note_off_c, 1, 78, 96
1, 26608, Note_on_c, 1, 61, 96
1, 26611, Note_off_c, 1, 61, 96
1, 26611, Note_on_c, 1, 76, 96
1, 26611, Note_on_c, 1, 67, 96
1, 26612, Note_off_c, 1, 76, 96
1, 26612, Note_off_c, 1, 67, 96
1, 26847, Note_on_c, 1, 57, 96
1, 26849, Note_off_c, 1, 57, 96
1, 26849, Note_on_c, 1, 61, 96
1, 26850, Note_off_c, 1, 61, 96
1, 27094, Note_on_c, 1, 81, 96
1, 27094, Note_on_c, 1, 50, 96
1, 27096, Note_off_c, 1, 81, 96
1, 27096, Note_off_c, 1, 50, 96
1, 27096, Note_on_c, 1, 77, 96
1, 27097, Note_off_c, 1, 77, 96
1, 27099, Note_on_c, 1, 74, 96
1, 27100, Note_off_c, 1, 74, 96
1, 27103, Note_on_c, 1, 69, 96
1, 27104, Note_off_c, 1, 69, 96
1, 27162, Note_on_c, 1, 57, 96
1, 27164, Note_off_c, 1, 57, 96
1, 27164, Note_on_c, 1, 50, 96
1, 27165, Note_off_c, 1, 50, 96
1, 27222, Note_on_c, 1, 59, 96
1, 27223, Note_off_c, 1, 59, 96
1, 27225, Note_on_c, 1, 62, 96
1, 27226, Note_off_c, 1, 62, 96
1, 27229, Note_on_c, 1, 68, 96
1, 27229, Note_on_c, 1, 74, 96
1, 27231, Note_off_c, 1, 68, 96
1, 27231, Note_off_c, 1, 74, 96
1, 27231, Note_on_c, 1, 71, 96
1, 27232, Note_off_c, 1, 71, 96
1, 27287, Note_on_c, 1, 65, 96
1, 27288, Note_off_c, 1, 65, 96
1, 27352, Note_on_c, 1, 85, 96
1, 27352, Note_on_c, 1, 72, 96
1, 27353, Note_off_c, 1, 85, 96
1, 27353, Note_off_c, 1, 72, 96
1, 27355, Note_on_c, 1, 54, 96
1, 27357, Note_off_c, 1, 54, 96
1, 27357, Note_on_c, 1, 78, 96
1, 27358, Note_off_c, 1, 78, 96
1, 27473, Note_on_c, 1, 69, 96
1, 27474, Note_off_c, 1, 69, 96
1, 27538, Note_on_c, 1, 87, 96
1, 27540, Note_off_c, 1, 87, 96
1, 27540, Note_on_c, 1, 75, 96
1, 27542, Note_off_c, 1, 75, 96
1, 27542, Note_on_c, 1, 66, 96
1, 27543, Note_off_c, 1, 66, 96
1, 27602, Note_on_c, 1, 54, 96
1, 27603, Note_off_c, 1, 54, 96
1, 27657, Note_on_c, 1, 50, 96
1, 27659, Note_off_c, 1, 50, 96
1, 27659, Note_on_c, 1, 59, 96
1, 27660, Note_off_c, 1, 59, 96
1, 27664, Note_on_c, 1, 71, 96
1, 27664, Note_on_c, 1, 67, 96
1, 27665, Note_off_c, 1, 71, 96
1, 27665, Note_off_c, 1, 67, 96
1, 27697, Note_on_c, 1, 74, 96
1, 27698, Note_off_c, 1, 74, 96
1, 27700, Note_on_c, 1, 86, 96
1, 27701, Note_off_c, 1, 86, 96
1, 27823, Note_on_c, 1, 40, 96
1, 27823, Note_on_c, 1, 52, 96
1, 27824, Note_off_c, 1, 40, 96
1, 27824, Note_off_c, 1, 52, 96
1, 27878, Note_on_c, 1, 78, 96
1, 27879, Note_off_c, 1, 78, 96
1, 27887, Note_on_c, 1, 75, 96
1, 27888, Note_off_c, 1, 75, 96
1, 27905, Note_on_c, 1, 81, 96
1, 27905, Note_on_c, 1, 70, 96
1, 27905, Note_on_c, 1, 76, 96
1, 27906, Note_off_c, 1, 81, 96
1, 27906, Note_off_c, 1, 70, 96
1, 27906, Note_off_c, 1, 76, 96
1, 27955, Note_on_c, 1, 72, 96
1, 27956, Note_off_c, 1, 72, 96
1, 27966, Note_on_c, 1, 43, 96
1, 27966, Note_on_c, 1, 55, 96
1, 27967, Note_off_c, 1, 43, 96
1, 27967, Note_off_c, 1, 55, 96
1, 27971, Note_on_c, 1, 43, 96
1, 27972, Note_off_c, 1, 43, 96
1, 27978, Note_on_c, 1, 78, 96
1, 27979, Note_off_c, 1, 78, 96
1, 27988, Note_on_c, 1, 71, 96
1, 27989, Note_off_c, 1, 71, 96
1, 27995, Note_on_c, 1, 82, 96
1, 27996, Note_off_c, 1, 82, 96
1, 28012, Note_on_c, 1, 91, 96
1, 28013, Note_off_c, 1, 91, 96
1, 28095, Note_on_c, 1, 77, 96
1, 28096, Note_off_c, 1, 77, 96
1, 28143, Note_on_c, 1, 74, 96
1, 28143, Note_on_c, 1, 76, 96
1, 28143, Note_on_c, 1, 86, 96
1, 28143, Note_on_c, 1, 82, 96
1, 28143, Note_on_c, 1, 57, 96
1, 28143, Note_on_c, 1, 55, 96
1, 28143, Note_on_c, 1, 59, 96
1, 28143, Note_on_c, 1, 62, 96
1, 28144, Note_off_c, 1, 74, 96
1, 28144, Note_off_c, 1, 76, 96
1, 28144, Note_off_c, 1, 86, 96
1, 28144, Note_off_c, 1, 82, 96
1, 28144, Note_off_c, 1, 57, 96
1, 28144, Note_off_c, 1, 55, 96
1, 28144, Note_off_c, 1, 59, 96
1, 28144, Note_off_c, 1, 62, 96
1, 28239, Note_on_c, 1, 79, 96
1, 28240, Note_off_c, 1, 79, 96
1, 28358, Note_on_c, 1, 67, 96
1, 28360, Note_off_c, 1, 67, 96
1, 28360, Note_on_c, 1, 76, 96
1, 28363, Note_off_c, 1, 76, 96
1, 28363, Note_on_c, 1, 61, 96
1, 28363, Note_on_c, 1, 56, 96
1, 28364, Note_off_c, 1, 61, 96
1, 28364, Note_off_c, 1, 56, 96
1, 28366, Note_on_c, 1, 52, 96
1, 28367, Note_off_c, 1, 52, 96
1, 28483, Note_on_c, 1, 85, 96
1, 28484, Note_off_c, 1, 85, 96
1, 28548, Note_on_c, 1, 78, 96
1, 28548, Note_on_c, 1, 74, 96
1, 28548, Note_on_c, 1, 83, 96
1, 28549, Note_off_c, 1, 78, 96
1, 28549, Note_off_c, 1, 74, 96
1, 28549, Note_off_c, 1, 83, 96
1, 28611, Note_on_c, 1, 54, 96
1, 28611, Note_on_c, 1, 62, 96
1, 28611, Note_on_c, 1, 59, 96
1, 28612, Note_off_c, 1, 54, 96
1, 28612, Note_off_c, 1, 62, 96
1, 28612, Note_off_c, 1, 59, 96
1, 28737, Note_on_c, 1, 85, 96
1, 28737, Note_on_c, 1, 73, 96
1, 28737, Note_on_c, 1, 62, 96
1, 28737, Note_on_c, 1, 59, 96
1, 28737, Note_on_c, 1, 54, 96
1, 28738, Note_off_c, 1, 85, 96
1, 28738, Note_off_c, 1, 73, 96
1, 28738, Note_off_c, 1, 62, 96
1, 28738, Note_off_c, 1, 59, 96
1, 28738, Note_off_c, 1, 54, 96
1, 28798, Note_on_c, 1, 67, 96
1, 28799, Note_off_c, 1, 67, 96
1, 28842, Note_on_c, 1, 79, 96
1, 28842, Note_on_c, 1, 52, 96
1, 28842, Note_on_c, 1, 55, 96
1, 28842, Note_on_c, 1, 59, 96
1, 28843, Note_off_c, 1, 79, 96
1, 28843, Note_off_c, 1, 52, 96
1, 28843, Note_off_c, 1, 55, 96
1, 28843, Note_off_c, 1, 59, 96
1, 28884, Note_on_c, 1, 83, 96
1, 28884, Note_on_c, 1, 71, 96
1, 28885, Note_off_c, 1, 83, 96
1, 28885, Note_off_c, 1, 71, 96
1, 28893, Note_on_c, 1, 43, 96
1, 28894, Note_off_c, 1, 43, 96
1, 28934, Note_on_c, 1, 81, 96
1, 28935, Note_off_c, 1, 81, 96
1, 28957, Note_on_c, 1, 84, 96
1, 28957, Note_on_c, 1, 82, 96
1, 28957, Note_on_c, 1, 76, 96
1, 28957, Note_on_c, 1, 60, 96
1, 28957, Note_on_c, 1, 64, 96
1, 28958, Note_off_c, 1, 84, 96
1, 28958, Note_off_c, 1, 82, 96
1, 28958, Note_off_c, 1, 76, 96
1, 28958, Note_off_c, 1, 60, 96
1, 28958, Note_off_c, 1, 64, 96
1, 29023, Note_on_c, 1, 79, 96
1, 29023, Note_on_c, 1, 76, 96
1, 29023, Note_on_c, 1, 72, 96
1, 29023, Note_on_c, 1, 84, 96
1, 29023, Note_on_c, 1, 55, 96
1, 29023, Note_on_c, 1, 60, 96
1, 29023, Note_on_c, 1, 64, 96
1, 29024, Note_off_c, 1, 79, 96
1, 29024, Note_off_c, 1, 76, 96
1, 29024, Note_off_c, 1, 72, 96
1, 29024, Note_off_c, 1, 84, 96
1, 29024, Note_off_c, 1, 55, 96
1, 29024, Note_off_c, 1, 60, 96
1, 29024, Note_off_c, 1, 64, 96
1, 29121, Note_on_c, 1, 55, 96
1, 29121, Note_on_c, 1, 43, 96
1, 29122, Note_off_c, 1, 55, 96
1, 29122, Note_off_c, 1, 43, 96
1, 29220, Note_on_c, 1, 64, 96
1, 29220, Note_on_c, 1, 60, 96
1, 29220, Note_on_c, 1, 58, 96
1, 29221, Note_off_c, 1, 64, 96
1, 29221, Note_off_c, 1, 60, 96
1, 29221, Note_off_c, 1, 58, 96
1, 29322, Note_on_c, 1, 77, 96
1, 29322, Note_on_c, 1, 72, 96
1, 29322, Note_on_c, 1, 84, 96
1, 29322, Note_on_c, 1, 80, 96
1, 29322, Note_on_c, 1, 29, 96
1, 29322, Note_on_c, 1, 41, 96
1, 29323, Note_off_c, 1, 77, 96
1, 29323, Note_off_c, 1, 72, 96
1, 29323, Note_off_c, 1, 84, 96
1, 29323, Note_off_c, 1, 80, 96
1, 29323, Note_off_c, 1, 29, 96
1, 29323, Note_off_c, 1, 41, 96
1, 29372, Note_on_c, 1, 77, 96
1, 29372, Note_on_c, 1, 89, 96
1, 29373, Note_off_c, 1, 77, 96
1, 29373, Note_off_c, 1, 89, 96
1, 29424, Note_on_c, 1, 94, 96
1, 29424, Note_on_c, 1, 82, 96
1, 29424, Note_on_c, 1, 50, 96
1, 29424, Note_on_c, 1, 38, 96
1, 29425, Note_off_c, 1, 94, 96
1, 29425, Note_off_c, 1, 82, 96
1, 29425, Note_off_c, 1, 50, 96
1, 29425, Note_off_c, 1, 38, 96
1, 29496, Note_on_c, 1, 86, 96
1, 29497, Note_off_c, 1, 86, 96
1, 29522, Note_on_c, 1, 86, 96
1, 29522, Note_on_c, 1, 64, 96
1, 29522, Note_on_c, 1, 58, 96
1, 29522, Note_on_c, 1, 60, 96
1, 29523, Note_off_c, 1, 86, 96
1, 29523, Note_off_c, 1, 64, 96
1, 29523, Note_off_c, 1, 58, 96
1, 29523, Note_off_c, 1, 60, 96
1, 29647, Note_on_c, 1, 72, 96
1, 29647, Note_on_c, 1, 65, 96
1, 29647, Note_on_c, 1, 63, 96
1, 29647, Note_on_c, 1, 57, 96
1, 29648, Note_off_c, 1, 72, 96
1, 29648, Note_off_c, 1, 65, 96
1, 29648, Note_off_c, 1, 63, 96
1, 29648, Note_off_c, 1, 57, 96
1, 29772, Note_on_c, 1, 74, 96
1, 29772, Note_on_c, 1, 86, 96
1, 29772, Note_on_c, 1, 65, 96
1, 29772, Note_on_c, 1, 57, 96
1, 29772, Note_on_c, 1, 60, 96
1, 29773, Note_off_c, 1, 74, 96
1, 29773, Note_off_c, 1, 86, 96
1, 29773, Note_off_c, 1, 65, 96
1, 29773, Note_off_c, 1, 57, 96
1, 29773, Note_off_c, 1, 60, 96
1, 29834, Note_on_c, 1, 84, 96
1, 29834, Note_on_c, 1, 77, 96
1, 29835, Note_off_c, 1, 84, 96
1, 29835, Note_off_c, 1, 77, 96
1, 29896, Note_on_c, 1, 85, 96
1, 29896, Note_on_c, 1, 42, 96
1, 29897, Note_off_c, 1, 85, 96
1, 29897, Note_off_c, 1, 42, 96
1, 29958, Note_on_c, 1, 81, 96
1, 29958, Note_on_c, 1, 93, 96
1, 29959, Note_off_c, 1, 81, 96
1, 29959, Note_off_c, 1, 93, 96
1, 30018, Note_on_c, 1, 48, 96
1, 30019, Note_off_c, 1, 48, 96
1, 30118, Note_on_c, 1, 67, 96
1, 30118, Note_on_c, 1, 64, 96
1, 30118, Note_on_c, 1, 60, 96
1, 30118, Note_on_c, 1, 55, 96
1, 30119, Note_off_c, 1, 67, 96
1, 30119, Note_off_c, 1, 64, 96
1, 30119, Note_off_c, 1, 60, 96
1, 30119, Note_off_c, 1, 55, 96
1, 30462, Note_on_c, 1, 73, 96
1, 30462, Note_on_c, 1, 67, 96
1, 30462, Note_on_c, 1, 79, 96
1, 30463, Note_off_c, 1, 73, 96
1, 30463, Note_off_c, 1, 67, 96
1, 30463, Note_off_c, 1, 79, 96
1, 30656, Note_on_c, 1, 84, 96
1, 30657, Note_off_c, 1, 84, 96
1, 30755, Note_on_c, 1, 86, 96
1, 30755, Note_on_c, 1, 47, 96
1, 30755, Note_on_c, 1, 59, 96
1, 30756, Note_off_c, 1, 86, 96
1, 30756, Note_off_c, 1, 47, 96
1, 30756, Note_off_c, 1, 59, 96
1, 30853, Note_on_c, 1, 88, 96
1, 30854, Note_off_c, 1, 88, 96
1, 31089, Note_on_c, 1, 91, 96
1, 31090, Note_off_c, 1, 91, 96
1, 31095, Note_on_c, 1, 84, 96
1, 31096, Note_off_c, 1, 84, 96
1, 31183, Note_on_c, 1, 76, 96
1, 31184, Note_off_c, 1, 76, 96
1, 31217, Note_on_c, 1, 65, 96
1, 31217, Note_on_c, 1, 71, 96
1, 31218, Note_off_c, 1, 65, 96
1, 31218, Note_off_c, 1, 71, 96
1, 31410, Note_on_c, 1, 83, 96
1, 31410, Note_on_c, 1, 86, 96
1, 31410, Note_on_c, 1, 74, 96
1, 31410, Note_on_c, 1, 0, 96
1, 31411, Note_off_c, 1, 83, 96
1, 31411, Note_off_c, 1, 86, 96
1, 31411, Note_off_c, 1, 74, 96
1, 31411, Note_off_c, 1, 0, 96
1, 31651, Note_on_c, 1, 88, 96
1, 31653, Note_off_c, 1, 88, 96
1, 31653, Note_on_c, 1, 64, 96
1, 31654, Note_off_c, 1, 64, 96
1, 31713, Note_on_c, 1, 74, 96
1, 31714, Note_off_c, 1, 74, 96
1, 31717, Note_on_c, 1, 86, 96
1, 31718, Note_off_c, 1, 86, 96
1, 31778, Note_on_c, 1, 72, 96
1, 31778, Note_on_c, 1, 84, 96
1, 31779, Note_off_c, 1, 72, 96
1, 31779, Note_off_c, 1, 84, 96
1, 31781, Note_on_c, 1, 58, 96
1, 31784, Note_off_c, 1, 58, 96
1, 31784, Note_on_c, 1, 84, 96
1, 31784, Note_on_c, 1, 64, 96
1, 31786, Note_off_c, 1, 84, 96
1, 31786, Note_off_c, 1, 64, 96
1, 31786, Note_on_c, 1, 60, 96
1, 31787, Note_off_c, 1, 60, 96
1, 31902, Note_on_c, 1, 38, 96
1, 31904, Note_off_c, 1, 38, 96
1, 31904, Note_on_c, 1, 50, 96
1, 31905, Note_off_c, 1, 50, 96
1, 31907, Note_on_c, 1, 74, 96
1, 31908, Note_off_c, 1, 74, 96
1, 31912, Note_on_c, 1, 81, 96
1, 31914, Note_off_c, 1, 81, 96
1, 31914, Note_on_c, 1, 86, 96
1, 31915, Note_off_c, 1, 86, 96
1, 31918, Note_on_c, 1, 78, 96
1, 31918, Note_on_c, 1, 90, 96
1, 31919, Note_off_c, 1, 78, 96
1, 31919, Note_off_c, 1, 90, 96
1, 32031, Note_on_c, 1, 58, 96
1, 32032, Note_off_c, 1, 58, 96
1, 32034, Note_on_c, 1, 46, 96
1, 32035, Note_off_c, 1, 46, 96
1, 32037, Note_on_c, 1, 89, 96
1, 32040, Note_off_c, 1, 89, 96
1, 32040, Note_on_c, 1, 86, 96
1, 32040, Note_on_c, 1, 79, 96
1, 32041, Note_off_c, 1, 86, 96
1, 32041, Note_off_c, 1, 79, 96
1, 32098, Note_on_c, 1, 89, 96
1, 32099, Note_off_c, 1, 89, 96
1, 32162, Note_on_c, 1, 89, 96
1, 32162, Note_on_c, 1, 77, 96
1, 32163, Note_off_c, 1, 89, 96
1, 32163, Note_off_c, 1, 77, 96
1, 32165, Note_on_c, 1, 34, 96
1, 32167, Note_off_c, 1, 34, 96
1, 32167, Note_on_c, 1, 46, 96
1, 32168, Note_off_c, 1, 46, 96
1, 32282, Note_on_c, 1, 75, 96
1, 32283, Note_off_c, 1, 75, 96
1, 32288, Note_on_c, 1, 72, 96
1, 32288, Note_on_c, 1, 84, 96
1, 32289, Note_off_c, 1, 72, 96
1, 32289, Note_off_c, 1, 84, 96
1, 32293, Note_on_c, 1, 46, 96
1, 32293, Note_on_c, 1, 34, 96
1, 32294, Note_off_c, 1, 46, 96
1, 32294, Note_off_c, 1, 34, 96
1, 32411, Note_on_c, 1, 45, 96
1, 32413, Note_off_c, 1, 45, 96
1, 32413, Note_on_c, 1, 57, 96
1, 32414, Note_off_c, 1, 57, 96
1, 32651, Note_on_c, 1, 82, 96
1, 32653, Note_off_c, 1, 82, 96
1, 32653, Note_on_c, 1, 58, 96
1, 32654, Note_off_c, 1, 58, 96
1, 32657, Note_on_c, 1, 70, 96
1, 32658, Note_off_c, 1, 70, 96
1, 32715, Note_on_c, 1, 80, 96
1, 32715, Note_on_c, 1, 77, 96
1, 32715, Note_on_c, 1, 84, 96
1, 32716, Note_off_c, 1, 80, 96
1, 32716, Note_off_c, 1, 77, 96
1, 32716, Note_off_c, 1, 84, 96
1, 32776, Note_on_c, 1, 50, 96
1, 32776, Note_on_c, 1, 38, 96
1, 32778, Note_off_c, 1, 50, 96
1, 32778, Note_off_c, 1, 38, 96
1, 32778, Note_on_c, 1, 66, 96
1, 32780, Note_off_c, 1, 66, 96
1, 32780, Note_on_c, 1, 78, 96
1, 32781, Note_off_c, 1, 78, 96
1, 32837, Note_on_c, 1, 74, 96
1, 32838, Note_off_c, 1, 74, 96
1, 32841, Note_on_c, 1, 86, 96
1, 32842, Note_off_c, 1, 86, 96
1, 32903, Note_on_c, 1, 54, 96
1, 32905, Note_off_c, 1, 54, 96
1, 32905, Note_on_c, 1, 57, 96
1, 32906, Note_off_c, 1, 57, 96
1, 32962, Note_on_c, 1, 75, 96
1, 32964, Note_off_c, 1, 75, 96
1, 32964, Note_on_c, 1, 87, 96
1, 32965, Note_off_c, 1, 87, 96
1, 33023, Note_on_c, 1, 54, 96
1, 33023, Note_on_c, 1, 57, 96
1, 33024, Note_off_c, 1, 54, 96
1, 33024, Note_off_c, 1, 57, 96
1, 33027, Note_on_c, 1, 62, 96
1, 33028, Note_off_c, 1, 62, 96
1, 33091, Note_on_c, 1, 73, 96
1, 33091, Note_on_c, 1, 85, 96
1, 33093, Note_off_c, 1, 73, 96
1, 33093, Note_off_c, 1, 85, 96
1, 33093, Note_on_c, 1, 58, 96
1, 33094, Note_off_c, 1, 58, 96
1, 33146, Note_on_c, 1, 63, 96
1, 33147, Note_off_c, 1, 63, 96
1, 33209, Note_on_c, 1, 46, 96
1, 33211, Note_off_c, 1, 46, 96
1, 33211, Note_on_c, 1, 80, 96
1, 33212, Note_off_c, 1, 80, 96
1, 33215, Note_on_c, 1, 89, 96
1, 33216, Note_off_c, 1, 89, 96
1, 33273, Note_on_c, 1, 82, 96
1, 33275, Note_off_c, 1, 82, 96
1, 33275, Note_on_c, 1, 67, 96
1, 33276, Note_off_c, 1, 67, 96
1, 33335, Note_on_c, 1, 68, 96
1, 33337, Note_off_c, 1, 68, 96
1, 33337, Note_on_c, 1, 44, 96
1, 33338, Note_off_c, 1, 44, 96
1, 33341, Note_on_c, 1, 80, 96
1, 33342, Note_off_c, 1, 80, 96
1, 33398, Note_on_c, 1, 85, 96
1, 33399, Note_off_c, 1, 85, 96
1, 33458, Note_on_c, 1, 77, 96
1, 33459, Note_off_c, 1, 77, 96
1, 33461, Note_on_c, 1, 48, 96
1, 33463, Note_off_c, 1, 48, 96
1, 33463, Note_on_c, 1, 60, 96
1, 33464, Note_off_c, 1, 60, 96
1, 33579, Note_on_c, 1, 37, 96
1, 33580, Note_off_c, 1, 37, 96
1, 33584, Note_on_c, 1, 49, 96
1, 33585, Note_off_c, 1, 49, 96
1, 33641, Note_on_c, 1, 77, 96
1, 33642, Note_off_c, 1, 77, 96
1, 33644, Note_on_c, 1, 85, 96
1, 33645, Note_off_c, 1, 85, 96
1, 33647, Note_on_c, 1, 73, 96
1, 33648, Note_off_c, 1, 73, 96
1, 33704, Note_on_c, 1, 49, 96
1, 33705, Note_off_c, 1, 49, 96
1, 33767, Note_on_c, 1, 75, 96
1, 33770, Note_off_c, 1, 75, 96
1, 33770, Note_on_c, 1, 84, 96
1, 33770, Note_on_c, 1, 72, 96
1, 33771, Note_off_c, 1, 84, 96
1, 33771, Note_off_c, 1, 72, 96
1, 33828, Note_on_c, 1, 51, 96
1, 33829, Note_off_c, 1, 51, 96
1, 33891, Note_on_c, 1, 77, 96
1, 33892, Note_off_c, 1, 77, 96
1, 34018, Note_on_c, 1, 79, 96
1, 34019, Note_off_c, 1, 79, 96
1, 34077, Note_on_c, 1, 54, 96
1, 34077, Note_on_c, 1, 51, 96
1, 34078, Note_off_c, 1, 54, 96
1, 34078, Note_off_c, 1, 51, 96
1, 34080, Note_on_c, 1, 42, 96
1, 34081, Note_off_c, 1, 42, 96
1, 34083, Note_on_c, 1, 69, 96
1, 34084, Note_off_c, 1, 69, 96
1, 34143, Note_on_c, 1, 71, 96
1, 34143, Note_on_c, 1, 68, 96
1, 34144, Note_off_c, 1, 71, 96
1, 34144, Note_off_c, 1, 68, 96
1, 34201, Note_on_c, 1, 51, 96
1, 34203, Note_off_c, 1, 51, 96
1, 34203, Note_on_c, 1, 61, 96
1, 34204, Note_off_c, 1, 61, 96
1, 34208, Note_on_c, 1, 77, 96
1, 34209, Note_off_c, 1, 77, 96
1, 34328, Note_on_c, 1, 75, 96
1, 34328, Note_on_c, 1, 49, 96
1, 34330, Note_off_c, 1, 75, 96
1, 34330, Note_off_c, 1, 49, 96
1, 34330, Note_on_c, 1, 75, 96
1, 34331, Note_off_c, 1, 75, 96
1, 34388, Note_on_c, 1, 78, 96
1, 34389, Note_off_c, 1, 78, 96
1, 34453, Note_on_c, 1, 77, 96
1, 34454, Note_off_c, 1, 77, 96
1, 34571, Note_on_c, 1, 52, 96
1, 34574, Note_off_c, 1, 52, 96
1, 34574, Note_on_c, 1, 56, 96
1, 34574, Note_on_c, 1, 64, 96
1, 34577, Note_off_c, 1, 56, 96
1, 34577, Note_off_c, 1, 64, 96
1, 34577, Note_on_c, 1, 72, 96
1, 34577, Note_on_c, 1, 74, 96
1, 34578, Note_off_c, 1, 72, 96
1, 34578, Note_off_c, 1, 74, 96
1, 34695, Note_on_c, 1, 50, 96
1, 34696, Note_off_c, 1, 50, 96
1, 34698, Note_on_c, 1, 81, 96
1, 34699, Note_off_c, 1, 81, 96
1, 34701, Note_on_c, 1, 77, 96
1, 34705, Note_off_c, 1, 77, 96
1, 34705, Note_on_c, 1, 72, 96
1, 34705, Note_on_c, 1, 65, 96
1, 34705, Note_on_c, 1, 60, 96
1, 34706, Note_off_c, 1, 72, 96
1, 34706, Note_off_c, 1, 65, 96
1, 34706, Note_off_c, 1, 60, 96
1, 34710, Note_on_c, 1, 69, 96
1, 34711, Note_off_c, 1, 69, 96
1, 34768, Note_on_c, 1, 86, 96
1, 34769, Note_off_c, 1, 86, 96
1, 34824, Note_on_c, 1, 75, 96
1, 34825, Note_off_c, 1, 75, 96
1, 34827, Note_on_c, 1, 63, 96
1, 34828, Note_off_c, 1, 63, 96
1, 34831, Note_on_c, 1, 53, 96
1, 34831, Note_on_c, 1, 57, 96
1, 34833, Note_off_c, 1, 53, 96
1, 34833, Note_off_c, 1, 57, 96
1, 34833, Note_on_c, 1, 87, 96
1, 34834, Note_off_c, 1, 87, 96
1, 34949, Note_on_c, 1, 72, 96
1, 34949, Note_on_c, 1, 57, 96
1, 34952, Note_off_c, 1, 72, 96
1, 34952, Note_off_c, 1, 57, 96
1, 34952, Note_on_c, 1, 84, 96
1, 34952, Note_on_c, 1, 60, 96
1, 34954, Note_off_c, 1, 84, 96
1, 34954, Note_off_c, 1, 60, 96
1, 34954, Note_on_c, 1, 81, 96
1, 34956, Note_off_c, 1, 81, 96
1, 34956, Note_on_c, 1, 65, 96
1, 34957, Note_off_c, 1, 65, 96
1, 35192, Note_on_c, 1, 53, 96
1, 35193, Note_off_c, 1, 53, 96
1, 35196, Note_on_c, 1, 57, 96
1, 35197, Note_off_c, 1, 57, 96
1, 35199, Note_on_c, 1, 84, 96
1, 35201, Note_off_c, 1, 84, 96
1, 35201, Note_on_c, 1, 79, 96
1, 35203, Note_off_c, 1, 79, 96
1, 35203, Note_on_c, 1, 48, 96
1, 35204, Note_off_c, 1, 48, 96
1, 35206, Note_on_c, 1, 77, 96
1, 35207, Note_off_c, 1, 77, 96
1, 35321, Note_on_c, 1, 57, 96
1, 35322, Note_off_c, 1, 57, 96
1, 35327, Note_on_c, 1, 65, 96
1, 35329, Note_off_c, 1, 65, 96
1, 35329, Note_on_c, 1, 69, 96
1, 35330, Note_off_c, 1, 69, 96
1, 35452, Note_on_c, 1, 72, 96
1, 35452, Note_on_c, 1, 81, 96
1, 35452, Note_on_c, 1, 84, 96
1, 35453, Note_off_c, 1, 72, 96
1, 35453, Note_off_c, 1, 81, 96
1, 35453, Note_off_c, 1, 84, 96
1, 35509, Note_on_c, 1, 77, 96
1, 35512, Note_off_c, 1, 77, 96
1, 35512, Note_on_c, 1, 81, 96
1, 35512, Note_on_c, 1, 72, 96
1, 35513, Note_off_c, 1, 81, 96
1, 35513, Note_off_c, 1, 72, 96
1, 35515, Note_on_c, 1, 84, 96
1, 35516, Note_off_c, 1, 84, 96
1, 35575, Note_on_c, 1, 36, 96
1, 35576, Note_off_c, 1, 36, 96
1, 35579, Note_on_c, 1, 48, 96
1, 35580, Note_off_c, 1, 48, 96
1, 35634, Note_on_c, 1, 76, 96
1, 35635, Note_off_c, 1, 76, 96
1, 35640, Note_on_c, 1, 79, 96
1, 35641, Note_off_c, 1, 79, 96
1, 35698, Note_on_c, 1, 64, 96
1, 35698, Note_on_c, 1, 58, 96
1, 35700, Note_off_c, 1, 64, 96
1, 35700, Note_off_c, 1, 58, 96
1, 35700, Note_on_c, 1, 60, 96
1, 35701, Note_off_c, 1, 60, 96
1, 35703, Note_on_c, 1, 82, 96
1, 35704, Note_off_c, 1, 82, 96
1, 35761, Note_on_c, 1, 85, 96
1, 35762, Note_off_c, 1, 85, 96
1, 35765, Note_on_c, 1, 82, 96
1, 35766, Note_off_c, 1, 82, 96
1, 35824, Note_on_c, 1, 58, 96
1, 35824, Note_on_c, 1, 55, 96
1, 35824, Note_on_c, 1, 64, 96
1, 35825, Note_off_c, 1, 58, 96
1, 35825, Note_off_c, 1, 55, 96
1, 35825, Note_off_c, 1, 64, 96
1, 35944, Note_on_c, 1, 67, 96
1, 35946, Note_off_c, 1, 67, 96
1, 35946, Note_on_c, 1, 58, 96
1, 35948, Note_off_c, 1, 58, 96
1, 35948, Note_on_c, 1, 72, 96
1, 35950, Note_off_c, 1, 72, 96
1, 35950, Note_on_c, 1, 76, 96
1, 35951, Note_off_c, 1, 76, 96
1, 36013, Note_on_c, 1, 79, 96
1, 36013, Note_on_c, 1, 84, 96
1, 36014, Note_off_c, 1, 79, 96
1, 36014, Note_off_c, 1, 84, 96
1, 36071, Note_on_c, 1, 57, 96
1, 36072, Note_off_c, 1, 57, 96
1, 36129, Note_on_c, 1, 67, 96
1, 36131, Note_off_c, 1, 67, 96
1, 36131, Note_on_c, 1, 79, 96
1, 36132, Note_off_c, 1, 79, 96
1, 36194, Note_on_c, 1, 55, 96
1, 36194, Note_on_c, 1, 43, 96
1, 36195, Note_off_c, 1, 55, 96
1, 36195, Note_off_c, 1, 43, 96
1, 36199, Note_on_c, 1, 82, 96
1, 36199, Note_on_c, 1, 70, 96
1, 36200, Note_off_c, 1, 82, 96
1, 36200, Note_off_c, 1, 70, 96
1, 36318, Note_on_c, 1, 74, 96
1, 36319, Note_off_c, 1, 74, 96
1, 36322, Note_on_c, 1, 70, 96
1, 36323, Note_off_c, 1, 70, 96
1, 36442, Note_on_c, 1, 92, 96
1, 36443, Note_off_c, 1, 92, 96
1, 36447, Note_on_c, 1, 46, 96
1, 36448, Note_off_c, 1, 46, 96
1, 36562, Note_on_c, 1, 82, 96
1, 36562, Note_on_c, 1, 51, 96
1, 36563, Note_off_c, 1, 82, 96
1, 36563, Note_off_c, 1, 51, 96
1, 36565, Note_on_c, 1, 70, 96
1, 36567, Note_off_c, 1, 70, 96
1, 36567, Note_on_c, 1, 55, 96
1, 36569, Note_off_c, 1, 55, 96
1, 36569, Note_on_c, 1, 61, 96
1, 36570, Note_off_c, 1, 61, 96
1, 36687, Note_on_c, 1, 82, 96
1, 36688, Note_off_c, 1, 82, 96
1, 36690, Note_on_c, 1, 46, 96
1, 36692, Note_off_c, 1, 46, 96
1, 36692, Note_on_c, 1, 77, 96
1, 36694, Note_off_c, 1, 77, 96
1, 36694, Note_on_c, 1, 65, 96
1, 36695, Note_off_c, 1, 65, 96
1, 36932, Note_on_c, 1, 55, 96
1, 36932, Note_on_c, 1, 67, 96
1, 36932, Note_on_c, 1, 63, 96
1, 36934, Note_off_c, 1, 55, 96
1, 36934, Note_off_c, 1, 67, 96
1, 36934, Note_off_c, 1, 63, 96
1, 36934, Note_on_c, 1, 72, 96
1, 36935, Note_off_c, 1, 72, 96
1, 36939, Note_on_c, 1, 75, 96
1, 36940, Note_off_c, 1, 75, 96
1, 37001, Note_on_c, 1, 76, 96
1, 37001, Note_on_c, 1, 51, 96
1, 37002, Note_off_c, 1, 76, 96
1, 37002, Note_off_c, 1, 51, 96
1, 37063, Note_on_c, 1, 65, 96
1, 37063, Note_on_c, 1, 77, 96
1, 37064, Note_off_c, 1, 65, 96
1, 37064, Note_off_c, 1, 77, 96
1, 37120, Note_on_c, 1, 57, 96
1, 37121, Note_off_c, 1, 57, 96
1, 37185, Note_on_c, 1, 65, 96
1, 37185, Note_on_c, 1, 53, 96
1, 37186, Note_off_c, 1, 65, 96
1, 37186, Note_off_c, 1, 53, 96
1, 37307, Note_on_c, 1, 55, 96
1, 37307, Note_on_c, 1, 67, 96
1, 37308, Note_off_c, 1, 55, 96
1, 37308, Note_off_c, 1, 67, 96
1, 37426, Note_on_c, 1, 77, 96
1, 37427, Note_off_c, 1, 77, 96
1, 37488, Note_on_c, 1, 57, 96
1, 37489, Note_off_c, 1, 57, 96
1, 37614, Note_on_c, 1, 76, 96
1, 37616, Note_off_c, 1, 76, 96
1, 37616, Note_on_c, 1, 72, 96
1, 37618, Note_off_c, 1, 72, 96
1, 37618, Note_on_c, 1, 69, 96
1, 37619, Note_off_c, 1, 69, 96
1, 37735, Note_on_c, 1, 79, 96
1, 37735, Note_on_c, 1, 67, 96
1, 37736, Note_off_c, 1, 79, 96
1, 37736, Note_off_c, 1, 67, 96
1, 37742, Note_on_c, 1, 71, 96
1, 37743, Note_off_c, 1, 71, 96
1, 37858, Note_on_c, 1, 77, 96
1, 37859, Note_off_c, 1, 77, 96
1, 37862, Note_on_c, 1, 81, 96
1, 37864, Note_off_c, 1, 81, 96
1, 37864, Note_on_c, 1, 55, 96
1, 37865, Note_off_c, 1, 55, 96
1, 37924, Note_on_c, 1, 67, 96
1, 37925, Note_off_c, 1, 67, 96
1, 37927, Note_on_c, 1, 76, 96
1, 37928, Note_off_c, 1, 76, 96
1, 37985, Note_on_c, 1, 66, 96
1, 37988, Note_off_c, 1, 66, 96
1, 37988, Note_on_c, 1, 55, 96
1, 37988, Note_on_c, 1, 59, 96
1, 37989, Note_off_c, 1, 55, 96
1, 37989, Note_off_c, 1, 59, 96
1, 38046, Note_on_c, 1, 81, 96
1, 38047, Note_off_c, 1, 81, 96
1, 38052, Note_on_c, 1, 85, 96
1, 38053, Note_off_c, 1, 85, 96
1, 38110, Note_on_c, 1, 54, 96
1, 38113, Note_off_c, 1, 54, 96
1, 38113, Note_on_c, 1, 84, 96
1, 38113, Note_on_c, 1, 63, 96
1, 38116, Note_off_c, 1, 84, 96
1, 38116, Note_off_c, 1, 63, 96
1, 38116, Note_on_c, 1, 81, 96
1, 38116, Note_on_c, 1, 57, 96
1, 38117, Note_off_c, 1, 81, 96
1, 38117, Note_off_c, 1, 57, 96
1, 38231, Note_on_c, 1, 91, 96
1, 38232, Note_off_c, 1, 91, 96
1, 38235, Note_on_c, 1, 57, 96
1, 38236, Note_off_c, 1, 57, 96
1, 38238, Note_on_c, 1, 61, 96
1, 38240, Note_off_c, 1, 61, 96
1, 38240, Note_on_c, 1, 45, 96
1, 38241, Note_off_c, 1, 45, 96
1, 38358, Note_on_c, 1, 57, 96
1, 38359, Note_off_c, 1, 57, 96
1, 38364, Note_on_c, 1, 67, 96
1, 38364, Note_on_c, 1, 61, 96
1, 38365, Note_off_c, 1, 67, 96
1, 38365, Note_off_c, 1, 61, 96
1, 38368, Note_on_c, 1, 76, 96
1, 38368, Note_on_c, 1, 67, 96
1, 38369, Note_off_c, 1, 76, 96
1, 38369, Note_off_c, 1, 67, 96
1, 38423, Note_on_c, 1, 77, 96
1, 38425, Note_off_c, 1, 77, 96
1, 38425, Note_on_c, 1, 89, 96
1, 38426, Note_off_c, 1, 89, 96
1, 38483, Note_on_c, 1, 59, 96
1, 38486, Note_off_c, 1, 59, 96
1, 38486, Note_on_c, 1, 55, 96
1, 38486, Note_on_c, 1, 53, 96
1, 38487, Note_off_c, 1, 55, 96
1, 38487, Note_off_c, 1, 53, 96
1, 38605, Note_on_c, 1, 79, 96
1, 38606, Note_off_c, 1, 79, 96
1, 38608, Note_on_c, 1, 71, 96
1, 38609, Note_off_c, 1, 71, 96
1, 38611, Note_on_c, 1, 50, 96
1, 38612, Note_off_c, 1, 50, 96
1, 38614, Note_on_c, 1, 76, 96
1, 38615, Note_off_c, 1, 76, 96
1, 38735, Note_on_c, 1, 78, 96
1, 38735, Note_on_c, 1, 72, 96
1, 38735, Note_on_c, 1, 66, 96
1, 38736, Note_off_c, 1, 78, 96
1, 38736, Note_off_c, 1, 72, 96
1, 38736, Note_off_c, 1, 66, 96
1, 38740, Note_on_c, 1, 45, 96
1, 38740, Note_on_c, 1, 57, 96
1, 38742, Note_off_c, 1, 45, 96
1, 38742, Note_off_c, 1, 57, 96
1, 38742, Note_on_c, 1, 87, 96
1, 38743, Note_off_c, 1, 87, 96
1, 38798, Note_on_c, 1, 85, 96
1, 38799, Note_off_c, 1, 85, 96
1, 38804, Note_on_c, 1, 73, 96
1, 38805, Note_off_c, 1, 73, 96
1, 38807, Note_on_c, 1, 78, 96
1, 38809, Note_off_c, 1, 78, 96
1, 38809, Note_on_c, 1, 82, 96
1, 38810, Note_off_c, 1, 82, 96
1, 38857, Note_on_c, 1, 39, 96
1, 38858, Note_off_c, 1, 39, 96
1, 38861, Note_on_c, 1, 51, 96
1, 38862, Note_off_c, 1, 51, 96
1, 38980, Note_on_c, 1, 87, 96
1, 38980, Note_on_c, 1, 58, 96
1, 38982, Note_off_c, 1, 87, 96
1, 38982, Note_off_c, 1, 58, 96
1, 38982, Note_on_c, 1, 77, 96
1, 38983, Note_off_c, 1, 77, 96
1, 38986, Note_on_c, 1, 46, 96
1, 38987, Note_off_c, 1, 46, 96
1, 39047, Note_on_c, 1, 87, 96
1, 39050, Note_off_c, 1, 87, 96
1, 39050, Note_on_c, 1, 78, 96
1, 39050, Note_on_c, 1, 75, 96
1, 39051, Note_off_c, 1, 78, 96
1, 39051, Note_off_c, 1, 75, 96
1, 39109, Note_on_c, 1, 51, 96
1, 39110, Note_off_c, 1, 51, 96
1, 39112, Note_on_c, 1, 58, 96
1, 39114, Note_off_c, 1, 58, 96
1, 39114, Note_on_c, 1, 55, 96
1, 39115, Note_off_c, 1, 55, 96
1, 39173, Note_on_c, 1, 86, 96
1, 39173, Note_on_c, 1, 75, 96
1, 39175, Note_off_c, 1, 86, 96
1, 39175, Note_off_c, 1, 75, 96
1, 39175, Note_on_c, 1, 82, 96
1, 39177, Note_off_c, 1, 82, 96
1, 39177, Note_on_c, 1, 80, 96
1, 39178, Note_off_c, 1, 80, 96
1, 39232, Note_on_c, 1, 58, 96
1, 39235, Note_off_c, 1, 58, 96
1, 39235, Note_on_c, 1, 62, 96
1, 39235, Note_on_c, 1, 56, 96
1, 39236, Note_off_c, 1, 62, 96
1, 39236, Note_off_c, 1, 56, 96
1, 39241, Note_on_c, 1, 74, 96
1, 39242, Note_off_c, 1, 74, 96
1, 39299, Note_on_c, 1, 80, 96
1, 39300, Note_off_c, 1, 80, 96
1, 39304, Note_on_c, 1, 68, 96
1, 39305, Note_off_c, 1, 68, 96
1, 39359, Note_on_c, 1, 56, 96
1, 39360, Note_off_c, 1, 56, 96
1, 39363, Note_on_c, 1, 60, 96
1, 39363, Note_on_c, 1, 53, 96
1, 39364, Note_off_c, 1, 60, 96
1, 39364, Note_off_c, 1, 53, 96
1, 39422, Note_on_c, 1, 91, 96
1, 39423, Note_off_c, 1, 91, 96
1, 39482, Note_on_c, 1, 60, 96
1, 39482, Note_on_c, 1, 53, 96
1, 39483, Note_off_c, 1, 60, 96
1, 39483, Note_off_c, 1, 53, 96
1, 39486, Note_on_c, 1, 57, 96
1, 39487, Note_off_c, 1, 57, 96
1, 39605, Note_on_c, 1, 81, 96
1, 39606, Note_off_c, 1, 81, 96
1, 39608, Note_on_c, 1, 53, 96
1, 39610, Note_off_c, 1, 53, 96
1, 39610, Note_on_c, 1, 84, 96
1, 39611, Note_off_c, 1, 84, 96
1, 39613, Note_on_c, 1, 41, 96
1, 39614, Note_off_c, 1, 41, 96
1, 39728, Note_on_c, 1, 50, 96
1, 39729, Note_off_c, 1, 50, 96
1, 39732, Note_on_c, 1, 74, 96
1, 39733, Note_off_c, 1, 74, 96
1, 39800, Note_on_c, 1, 72, 96
1, 39800, Note_on_c, 1, 75, 96
1, 39800, Note_on_c, 1, 80, 96
1, 39801, Note_off_c, 1, 72, 96
1, 39801, Note_off_c, 1, 75, 96
1, 39801, Note_off_c, 1, 80, 96
1, 39860, Note_on_c, 1, 60, 96
1, 39860, Note_on_c, 1, 63, 96
1, 39862, Note_off_c, 1, 60, 96
1, 39862, Note_off_c, 1, 63, 96
1, 39862, Note_on_c, 1, 56, 96
1, 39863, Note_off_c, 1, 56, 96
1, 39920, Note_on_c, 1, 73, 96
1, 39921, Note_off_c, 1, 73, 96
1, 39925, Note_on_c, 1, 68, 96
1, 39926, Note_off_c, 1, 68, 96
1, 39979, Note_on_c, 1, 77, 96
1, 39979, Note_on_c, 1, 53, 96
1, 39981, Note_off_c, 1, 77, 96
1, 39981, Note_off_c, 1, 53, 96
1, 39981, Note_on_c, 1, 65, 96
1, 39982, Note_off_c, 1, 65, 96
1, 39987, Note_on_c, 1, 41, 96
1, 39988, Note_off_c, 1, 41, 96
1, 40103, Note_on_c, 1, 61, 96
1, 40105, Note_off_c, 1, 61, 96
1, 40105, Note_on_c, 1, 85, 96
1, 40107, Note_off_c, 1, 85, 96
1, 40107, Note_on_c, 1, 61, 96
1, 40108, Note_off_c, 1, 61, 96
1, 40112, Note_on_c, 1, 73, 96
1, 40113, Note_off_c, 1, 73, 96
1, 40229, Note_on_c, 1, 79, 96
1, 40230, Note_off_c, 1, 79, 96
1, 40232, Note_on_c, 1, 73, 96
1, 40233, Note_off_c, 1, 73, 96
1, 40235, Note_on_c, 1, 67, 96
1, 40238, Note_off_c, 1, 67, 96
1, 40238, Note_on_c, 1, 51, 96
1, 40238, Note_on_c, 1, 58, 96
1, 40239, Note_off_c, 1, 51, 96
1, 40239, Note_off_c, 1, 58, 96
1, 40353, Note_on_c, 1, 73, 96
1, 40353, Note_on_c, 1, 39, 96
1, 40355, Note_off_c, 1, 73, 96
1, 40355, Note_off_c, 1, 39, 96
1, 40355, Note_on_c, 1, 73, 96
1, 40357, Note_off_c, 1, 73, 96
1, 40357, Note_on_c, 1, 77, 96
1, 40358, Note_off_c, 1, 77, 96
1, 40361, Note_on_c, 1, 67, 96
1, 40361, Note_on_c, 1, 49, 96
1, 40362, Note_off_c, 1, 67, 96
1, 40362, Note_off_c, 1, 49, 96
1, 40478, Note_on_c, 1, 77, 96
1, 40481, Note_off_c, 1, 77, 96
1, 40481, Note_on_c, 1, 68, 96
1, 40481, Note_on_c, 1, 58, 96
1, 40484, Note_off_c, 1, 68, 96
1, 40484, Note_off_c, 1, 58, 96
1, 40484, Note_on_c, 1, 65, 96
1, 40484, Note_on_c, 1, 61, 96
1, 40485, Note_off_c, 1, 65, 96
1, 40485, Note_off_c, 1, 61, 96
1, 40487, Note_on_c, 1, 73, 96
1, 40488, Note_off_c, 1, 73, 96
1, 40606, Note_on_c, 1, 61, 96
1, 40607, Note_off_c, 1, 61, 96
1, 40610, Note_on_c, 1, 49, 96
1, 40611, Note_off_c, 1, 49, 96
1, 40667, Note_on_c, 1, 77, 96
1, 40669, Note_off_c, 1, 77, 96
1, 40669, Note_on_c, 1, 73, 96
1, 40670, Note_off_c, 1, 73, 96
1, 40672, Note_on_c, 1, 68, 96
1, 40673, Note_off_c, 1, 68, 96
1, 40728, Note_on_c, 1, 51, 96
1, 40729, Note_off_c, 1, 51, 96
1, 40735, Note_on_c, 1, 84, 96
1, 40735, Note_on_c, 1, 72, 96
1, 40735, Note_on_c, 1, 39, 96
1, 40737, Note_off_c, 1, 84, 96
1, 40737, Note_off_c, 1, 72, 96
1, 40737, Note_off_c, 1, 39, 96
1, 40737, Note_on_c, 1, 78, 96
1, 40738, Note_off_c, 1, 78, 96
1, 40796, Note_on_c, 1, 79, 96
1, 40797, Note_off_c, 1, 79, 96
1, 40799, Note_on_c, 1, 75, 96
1, 40803, Note_off_c, 1, 75, 96
1, 40803, Note_on_c, 1, 63, 96
1, 40803, Note_on_c, 1, 72, 96
1, 40803, Note_on_c, 1, 67, 96
1, 40804, Note_off_c, 1, 63, 96
1, 40804, Note_off_c, 1, 72, 96
1, 40804, Note_off_c, 1, 67, 96
1, 40866, Note_on_c, 1, 61, 96
1, 40866, Note_on_c, 1, 49, 96
1, 40867, Note_off_c, 1, 61, 96
1, 40867, Note_off_c, 1, 49, 96
1, 40929, Note_on_c, 1, 89, 96
1, 40929, Note_on_c, 1, 51, 96
1, 40930, Note_off_c, 1, 89, 96
1, 40930, Note_off_c, 1, 51, 96
1, 40988, Note_on_c, 1, 56, 96
1, 40989, Note_off_c, 1, 56, 96
1, 40991, Note_on_c, 1, 60, 96
1, 40992, Note_off_c, 1, 60, 96
1, 40995, Note_on_c, 1, 65, 96
1, 40997, Note_off_c, 1, 65, 96
1, 40997, Note_on_c, 1, 84, 96
1, 40998, Note_off_c, 1, 84, 96
1, 41054, Note_on_c, 1, 90, 96
1, 41055, Note_off_c, 1, 90, 96
1, 41114, Note_on_c, 1, 65, 96
1, 41116, Note_off_c, 1, 65, 96
1, 41116, Note_on_c, 1, 60, 96
1, 41117, Note_off_c, 1, 60, 96
1, 41119, Note_on_c, 1, 84, 96
1, 41120, Note_off_c, 1, 84, 96
1, 41123, Note_on_c, 1, 77, 96
1, 41123, Note_on_c, 1, 56, 96
1, 41124, Note_off_c, 1, 77, 96
1, 41124, Note_off_c, 1, 56, 96
1, 41182, Note_on_c, 1, 84, 96
1, 41182, Note_on_c, 1, 72, 96
1, 41182, Note_on_c, 1, 44, 96
1, 41182, Note_on_c, 1, 56, 96
1, 41183, Note_off_c, 1, 84, 96
1, 41183, Note_off_c, 1, 72, 96
1, 41183, Note_off_c, 1, 44, 96
1, 41183, Note_off_c, 1, 56, 96
1, 41307, Note_on_c, 1, 80, 96
1, 41307, Note_on_c, 1, 53, 96
1, 41308, Note_off_c, 1, 80, 96
1, 41308, Note_off_c, 1, 53, 96
1, 41312, Note_on_c, 1, 75, 96
1, 41312, Note_on_c, 1, 72, 96
1, 41312, Note_on_c, 1, 41, 96
1, 41313, Note_off_c, 1, 75, 96
1, 41313, Note_off_c, 1, 72, 96
1, 41313, Note_off_c, 1, 41, 96
1, 41428, Note_on_c, 1, 64, 96
1, 41430, Note_off_c, 1, 64, 96
1, 41430, Note_on_c, 1, 60, 96
1, 41431, Note_off_c, 1, 60, 96
1, 41433, Note_on_c, 1, 55, 96
1, 41435, Note_off_c, 1, 55, 96
1, 41435, Note_on_c, 1, 67, 96
1, 41438, Note_off_c, 1, 67, 96
1, 41438, Note_on_c, 1, 79, 96
1, 41438, Note_on_c, 1, 58, 96
1, 41439, Note_off_c, 1, 79, 96
1, 41439, Note_off_c, 1, 58, 96
1, 41442, Note_on_c, 1, 79, 96
1, 41443, Note_off_c, 1, 79, 96
1, 41499, Note_on_c, 1, 70, 96
1, 41501, Note_off_c, 1, 70, 96
1, 41501, Note_on_c, 1, 82, 96
1, 41502, Note_off_c, 1, 82, 96
1, 41560, Note_on_c, 1, 56, 96
1, 41561, Note_off_c, 1, 56, 96
1, 41563, Note_on_c, 1, 77, 96
1, 41564, Note_off_c, 1, 77, 96
1, 41567, Note_on_c, 1, 68, 96
1, 41567, Note_on_c, 1, 62, 96
1, 41569, Note_off_c, 1, 68, 96
1, 41569, Note_off_c, 1, 62, 96
1, 41569, Note_on_c, 1, 58, 96
1, 41570, Note_off_c, 1, 58, 96
1, 41685, Note_on_c, 1, 62, 96
1, 41687, Note_off_c, 1, 62, 96
1, 41687, Note_on_c, 1, 52, 96
1, 41689, Note_off_c, 1, 52, 96
1, 41689, Note_on_c, 1, 56, 96
1, 41690, Note_off_c, 1, 56, 96
1, 42175, Note_on_c, 1, 44, 96
1, 42177, Note_off_c, 1, 44, 96
1, 42177, Note_on_c, 1, 50, 96
1, 42178, Note_off_c, 1, 50, 96
1, 42305, Note_on_c, 1, 79, 96
1, 42305, Note_on_c, 1, 59, 96
1, 42305, Note_on_c, 1, 56, 96
1, 42305, Note_on_c, 1, 53, 96
1, 42305, Note_on_c, 1, 59, 96
1, 42305, Note_on_c, 1, 47, 96
1, 42306, Note_off_c, 1, 79, 96
1, 42306, Note_off_c, 1, 59, 96
1, 42306, Note_off_c, 1, 56, 96
1, 42306, Note_off_c, 1, 53, 96
1, 42306, Note_off_c, 1, 59, 96
1, 42306, Note_off_c, 1, 47, 96
1, 42407, Note_on_c, 1, 84, 96
1, 42407, Note_on_c, 1, 77, 96
1, 42407, Note_on_c, 1, 72, 96
1, 42407, Note_on_c, 1, 56, 96
1, 42407, Note_on_c, 1, 60, 96
1, 42408, Note_off_c, 1, 84, 96
1, 42408, Note_off_c, 1, 77, 96
1, 42408, Note_off_c, 1, 72, 96
1, 42408, Note_off_c, 1, 56, 96
1, 42408, Note_off_c, 1, 60, 96
1, 42528, Note_on_c, 1, 39, 96
1, 42528, Note_on_c, 1, 51, 96
1, 42529, Note_off_c, 1, 39, 96
1, 42529, Note_off_c, 1, 51, 96
1, 42591, Note_on_c, 1, 70, 96
1, 42591, Note_on_c, 1, 51, 96
1, 42591, Note_on_c, 1, 39, 96
1, 42592, Note_off_c, 1, 70, 96
1, 42592, Note_off_c, 1, 51, 96
1, 42592, Note_off_c, 1, 39, 96
1, 42653, Note_on_c, 1, 79, 96
1, 42653, Note_on_c, 1, 82, 96
1, 42653, Note_on_c, 1, 39, 96
1, 42654, Note_off_c, 1, 79, 96
1, 42654, Note_off_c, 1, 82, 96
1, 42654, Note_off_c, 1, 39, 96
1, 42773, Note_on_c, 1, 43, 96
1, 42777, Note_off_c, 1, 43, 96
1, 42777, Note_on_c, 1, 54, 96
1, 42777, Note_on_c, 1, 98, 96
1, 42777, Note_on_c, 1, 86, 96
1, 42778, Note_off_c, 1, 54, 96
1, 42778, Note_off_c, 1, 98, 96
1, 42778, Note_off_c, 1, 86, 96
1, 42900, Note_on_c, 1, 81, 96
1, 42900, Note_on_c, 1, 61, 96
1, 42900, Note_on_c, 1, 66, 96
1, 42900, Note_on_c, 1, 69, 96
1, 42901, Note_off_c, 1, 81, 96
1, 42901, Note_off_c, 1, 61, 96
1, 42901, Note_off_c, 1, 66, 96
1, 42901, Note_off_c, 1, 69, 96
1, 43021, Note_on_c, 1, 34, 96
1, 43022, Note_off_c, 1, 34, 96
1, 43086, Note_on_c, 1, 82, 96
1, 43086, Note_on_c, 1, 76, 96
1, 43086, Note_on_c, 1, 70, 96
1, 43086, Note_on_c, 1, 73, 96
1, 43086, Note_on_c, 1, 46, 96
1, 43087, Note_off_c, 1, 82, 96
1, 43087, Note_off_c, 1, 76, 96
1, 43087, Note_off_c, 1, 70, 96
1, 43087, Note_off_c, 1, 73, 96
1, 43087, Note_off_c, 1, 46, 96
1, 43150, Note_on_c, 1, 75, 96
1, 43150, Note_on_c, 1, 77, 96
1, 43150, Note_on_c, 1, 70, 96
1, 43150, Note_on_c, 1, 67, 96
1, 43151, Note_off_c, 1, 75, 96
1, 43151, Note_off_c, 1, 77, 96
1, 43151, Note_off_c, 1, 70, 96
1, 43151, Note_off_c, 1, 67, 96
1, 43211, Note_on_c, 1, 41, 96
1, 43212, Note_off_c, 1, 41, 96
1, 43309, Note_on_c, 1, 79, 96
1, 43309, Note_on_c, 1, 55, 96
1, 43310, Note_off_c, 1, 79, 96
1, 43310, Note_off_c, 1, 55, 96
1, 43359, Note_on_c, 1, 82, 96
1, 43359, Note_on_c, 1, 46, 96
1, 43360, Note_off_c, 1, 82, 96
1, 43360, Note_off_c, 1, 46, 96
1, 43408, Note_on_c, 1, 70, 96
1, 43409, Note_off_c, 1, 70, 96
1, 43457, Note_on_c, 1, 53, 96
1, 43458, Note_off_c, 1, 53, 96
1, 43506, Note_on_c, 1, 70, 96
1, 43507, Note_off_c, 1, 70, 96
1, 43555, Note_on_c, 1, 43, 96
1, 43556, Note_off_c, 1, 43, 96
1, 43653, Note_on_c, 1, 78, 96
1, 43653, Note_on_c, 1, 66, 96
1, 43654, Note_off_c, 1, 78, 96
1, 43654, Note_off_c, 1, 66, 96
1, 43702, Note_on_c, 1, 78, 96
1, 43702, Note_on_c, 1, 75, 96
1, 43703, Note_off_c, 1, 78, 96
1, 43703, Note_off_c, 1, 75, 96
1, 43801, Note_on_c, 1, 72, 96
1, 43801, Note_on_c, 1, 63, 96
1, 43802, Note_off_c, 1, 72, 96
1, 43802, Note_off_c, 1, 63, 96
1, 43900, Note_on_c, 1, 75, 96
1, 43900, Note_on_c, 1, 70, 96
1, 43900, Note_on_c, 1, 67, 96
1, 43901, Note_off_c, 1, 75, 96
1, 43901, Note_off_c, 1, 70, 96
1, 43901, Note_off_c, 1, 67, 96
1, 44002, Note_on_c, 1, 67, 96
1, 44002, Note_on_c, 1, 75, 96
1, 44002, Note_on_c, 1, 61, 96
1, 44002, Note_on_c, 1, 51, 96
1, 44002, Note_on_c, 1, 58, 96
1, 44003, Note_off_c, 1, 67, 96
1, 44003, Note_off_c, 1, 75, 96
1, 44003, Note_off_c, 1, 61, 96
1, 44003, Note_off_c, 1, 51, 96
1, 44003, Note_off_c, 1, 58, 96
1, 44099, Note_on_c, 1, 63, 96
1, 44099, Note_on_c, 1, 53, 96
1, 44100, Note_off_c, 1, 63, 96
1, 44100, Note_off_c, 1, 53, 96
1, 44148, Note_on_c, 1, 70, 96
1, 44149, Note_off_c, 1, 70, 96
1, 44201, Note_on_c, 1, 68, 96
1, 44201, Note_on_c, 1, 74, 96
1, 44201, Note_on_c, 1, 62, 96
1, 44201, Note_on_c, 1, 58, 96
1, 44201, Note_on_c, 1, 56, 96
1, 44202, Note_off_c, 1, 68, 96
1, 44202, Note_off_c, 1, 74, 96
1, 44202, Note_off_c, 1, 62, 96
1, 44202, Note_off_c, 1, 58, 96
1, 44202, Note_off_c, 1, 56, 96
1, 44301, Note_on_c, 1, 75, 96
1, 44301, Note_on_c, 1, 67, 96
1, 44301, Note_on_c, 1, 46, 96
1, 44301, Note_on_c, 1, 34, 96
1, 44302, Note_off_c, 1, 75, 96
1, 44302, Note_off_c, 1, 67, 96
1, 44302, Note_off_c, 1, 46, 96
1, 44302, Note_off_c, 1, 34, 96
1, 44353, Note_on_c, 1, 70, 96
1, 44353, Note_on_c, 1, 75, 96
1, 44353, Note_on_c, 1, 63, 96
1, 44353, Note_on_c, 1, 79, 96
1, 44354, Note_off_c, 1, 70, 96
1, 44354, Note_off_c, 1, 75, 96
1, 44354, Note_off_c, 1, 63, 96
1, 44354, Note_off_c, 1, 79, 96
1, 44402, Note_on_c, 1, 43, 96
1, 44403, Note_off_c, 1, 43, 96
1, 44505, Note_on_c, 1, 77, 96
1, 44505, Note_on_c, 1, 72, 96
1, 44505, Note_on_c, 1, 74, 96
1, 44505, Note_on_c, 1, 62, 96
1, 44505, Note_on_c, 1, 56, 96
1, 44505, Note_on_c, 1, 53, 96
1, 44505, Note_on_c, 1, 62, 96
1, 44506, Note_off_c, 1, 77, 96
1, 44506, Note_off_c, 1, 72, 96
1, 44506, Note_off_c, 1, 74, 96
1, 44506, Note_off_c, 1, 62, 96
1, 44506, Note_off_c, 1, 56, 96
1, 44506, Note_off_c, 1, 53, 96
1, 44506, Note_off_c, 1, 62, 96
1, 44604, Note_on_c, 1, 76, 96
1, 44604, Note_on_c, 1, 67, 96
1, 44604, Note_on_c, 1, 70, 96
1, 44605, Note_off_c, 1, 76, 96
1, 44605, Note_off_c, 1, 67, 96
1, 44605, Note_off_c, 1, 70, 96
1, 44704, Note_on_c, 1, 63, 96
1, 44704, Note_on_c, 1, 68, 96
1, 44704, Note_on_c, 1, 48, 96
1, 44704, Note_on_c, 1, 36, 96
1, 44705, Note_off_c, 1, 63, 96
1, 44705, Note_off_c, 1, 68, 96
1, 44705, Note_off_c, 1, 48, 96
1, 44705, Note_off_c, 1, 36, 96
1, 44803, Note_on_c, 1, 72, 96
1, 44803, Note_on_c, 1, 51, 96
1, 44803, Note_on_c, 1, 39, 96
1, 44804, Note_off_c, 1, 72, 96
1, 44804, Note_off_c, 1, 51, 96
1, 44804, Note_off_c, 1, 39, 96
1, 44852, Note_on_c, 1, 66, 96
1, 44853, Note_off_c, 1, 66, 96
1, 44901, Note_on_c, 1, 75, 96
1, 44902, Note_off_c, 1, 75, 96
1, 44950, Note_on_c, 1, 72, 96
1, 44951, Note_off_c, 1, 72, 96
1, 45002, Note_on_c, 1, 66, 96
1, 45002, Note_on_c, 1, 60, 96
1, 45002, Note_on_c, 1, 54, 96
1, 45002, Note_on_c, 1, 50, 96
1, 45003, Note_off_c, 1, 66, 96
1, 45003, Note_off_c, 1, 60, 96
1, 45003, Note_off_c, 1, 54, 96
1, 45003, Note_off_c, 1, 50, 96
1, 45101, Note_on_c, 1, 69, 96
1, 45101, Note_on_c, 1, 59, 96
1, 45101, Note_on_c, 1, 50, 96
1, 45102, Note_off_c, 1, 69, 96
1, 45102, Note_off_c, 1, 59, 96
1, 45102, Note_off_c, 1, 50, 96
1, 45150, Note_on_c, 1, 70, 96
1, 45151, Note_off_c, 1, 70, 96
1, 45202, Note_on_c, 1, 67, 96
1, 45202, Note_on_c, 1, 55, 96
1, 45202, Note_on_c, 1, 58, 96
1, 45202, Note_on_c, 1, 62, 96
1, 45203, Note_off_c, 1, 67, 96
1, 45203, Note_off_c, 1, 55, 96
1, 45203, Note_off_c, 1, 58, 96
1, 45203, Note_off_c, 1, 62, 96
1, 45251, Note_on_c, 1, 70, 96
1, 45252, Note_off_c, 1, 70, 96
1, 45302, Note_on_c, 1, 63, 96
1, 45302, Note_on_c, 1, 67, 96
1, 45302, Note_on_c, 1, 58, 96
1, 45303, Note_off_c, 1, 63, 96
1, 45303, Note_off_c, 1, 67, 96
1, 45303, Note_off_c, 1, 58, 96
1, 45401, Note_on_c, 1, 62, 96
1, 45401, Note_on_c, 1, 55, 96
1, 45401, Note_on_c, 1, 58, 96
1, 45402, Note_off_c, 1, 62, 96
1, 45402, Note_off_c, 1, 55, 96
1, 45402, Note_off_c, 1, 58, 96
1, 45502, Note_on_c, 1, 63, 96
1, 45502, Note_on_c, 1, 66, 96
1, 45502, Note_on_c, 1, 72, 96
1, 45502, Note_on_c, 1, 51, 96
1, 45502, Note_on_c, 1, 63, 96
1, 45503, Note_off_c, 1, 63, 96
1, 45503, Note_off_c, 1, 66, 96
1, 45503, Note_off_c, 1, 72, 96
1, 45503, Note_off_c, 1, 51, 96
1, 45503, Note_off_c, 1, 63, 96
1, 45604, Note_on_c, 1, 70, 96
1, 45604, Note_on_c, 1, 67, 96
1, 45604, Note_on_c, 1, 63, 96
1, 45604, Note_on_c, 1, 58, 96
1, 45604, Note_on_c, 1, 40, 96
1, 45604, Note_on_c, 1, 52, 96
1, 45605, Note_off_c, 1, 70, 96
1, 45605, Note_off_c, 1, 67, 96
1, 45605, Note_off_c, 1, 63, 96
1, 45605, Note_off_c, 1, 58, 96
1, 45605, Note_off_c, 1, 40, 96
1, 45605, Note_off_c, 1, 52, 96
1, 45657, Note_on_c, 1, 79, 96
1, 45657, Note_on_c, 1, 72, 96
1, 45657, Note_on_c, 1, 75, 96
1, 45657, Note_on_c, 1, 70, 96
1, 45657, Note_on_c, 1, 68, 96
1, 45658, Note_off_c, 1, 79, 96
1, 45658, Note_off_c, 1, 72, 96
1, 45658, Note_off_c, 1, 75, 96
1, 45658, Note_off_c, 1, 70, 96
1, 45658, Note_off_c, 1, 68, 96
1, 45719, Note_on_c, 1, 73, 96
1, 45719, Note_on_c, 1, 65, 96
1, 45720, Note_off_c, 1, 73, 96
1, 45720, Note_off_c, 1, 65, 96
1, 45769, Note_on_c, 1, 79, 96
1, 45769, Note_on_c, 1, 73, 96
1, 45770, Note_off_c, 1, 79, 96
1, 45770, Note_off_c, 1, 73, 96
1, 45821, Note_on_c, 1, 65, 96
1, 45821, Note_on_c, 1, 69, 96
1, 45821, Note_on_c, 1, 74, 96
1, 45821, Note_on_c, 1, 53, 96
1, 45822, Note_off_c, 1, 65, 96
1, 45822, Note_off_c, 1, 69, 96
1, 45822, Note_off_c, 1, 74, 96
1, 45822, Note_off_c, 1, 53, 96
1, 45918, Note_on_c, 1, 48, 96
1, 45919, Note_off_c, 1, 48, 96
1, 45967, Note_on_c, 1, 65, 96
1, 45968, Note_off_c, 1, 65, 96
1, 46018, Note_on_c, 1, 63, 96
1, 46018, Note_on_c, 1, 57, 96
1, 46018, Note_on_c, 1, 53, 96
1, 46019, Note_off_c, 1, 63, 96
1, 46019, Note_off_c, 1, 57, 96
1, 46019, Note_off_c, 1, 53, 96
1, 46067, Note_on_c, 1, 82, 96
1, 46068, Note_off_c, 1, 82, 96
1, 46120, Note_on_c, 1, 77, 96
1, 46120, Note_on_c, 1, 70, 96
1, 46120, Note_on_c, 1, 75, 96
1, 46120, Note_on_c, 1, 62, 96
1, 46120, Note_on_c, 1, 65, 96
1, 46121, Note_off_c, 1, 77, 96
1, 46121, Note_off_c, 1, 70, 96
1, 46121, Note_off_c, 1, 75, 96
1, 46121, Note_off_c, 1, 62, 96
1, 46121, Note_off_c, 1, 65, 96
1, 46169, Note_on_c, 1, 70, 96
1, 46170, Note_off_c, 1, 70, 96
1, 46218, Note_on_c, 1, 38, 96
1, 46219, Note_off_c, 1, 38, 96
1, 46267, Note_on_c, 1, 71, 96
1, 46268, Note_off_c, 1, 71, 96
1, 46317, Note_on_c, 1, 72, 96
1, 46317, Note_on_c, 1, 54, 96
1, 46318, Note_off_c, 1, 72, 96
1, 46318, Note_off_c, 1, 54, 96
1, 46366, Note_on_c, 1, 62, 96
1, 46367, Note_off_c, 1, 62, 96
1, 46417, Note_on_c, 1, 70, 96
1, 46417, Note_on_c, 1, 61, 96
1, 46417, Note_on_c, 1, 58, 96
1, 46418, Note_off_c, 1, 70, 96
1, 46418, Note_off_c, 1, 61, 96
1, 46418, Note_off_c, 1, 58, 96
1, 46466, Note_on_c, 1, 70, 96
1, 46467, Note_off_c, 1, 70, 96
1, 46516, Note_on_c, 1, 75, 96
1, 46516, Note_on_c, 1, 46, 96
1, 46517, Note_off_c, 1, 75, 96
1, 46517, Note_off_c, 1, 46, 96
1, 46613, Note_on_c, 1, 74, 96
1, 46614, Note_off_c, 1, 74, 96
1, 46662, Note_on_c, 1, 77, 96
1, 46663, Note_off_c, 1, 77, 96
1, 46759, Note_on_c, 1, 73, 96
1, 46760, Note_off_c, 1, 73, 96
1, 46858, Note_on_c, 1, 72, 96
1, 46858, Note_on_c, 1, 62, 96
1, 46858, Note_on_c, 1, 53, 96
1, 46859, Note_off_c, 1, 72, 96
1, 46859, Note_off_c, 1, 62, 96
1, 46859, Note_off_c, 1, 53, 96
1, 46955, Note_on_c, 1, 39, 96
1, 46956, Note_off_c, 1, 39, 96
1, 46978, Note_on_c, 1, 72, 96
1, 46978, Note_on_c, 1, 63, 96
1, 46978, Note_on_c, 1, 54, 96
1, 46979, Note_off_c, 1, 72, 96
1, 46979, Note_off_c, 1, 63, 96
1, 46979, Note_off_c, 1, 54, 96
1, 47028, Note_on_c, 1, 51, 96
1, 47029, Note_off_c, 1, 51, 96
1, 47078, Note_on_c, 1, 73, 96
1, 47078, Note_on_c, 1, 46, 96
1, 47079, Note_off_c, 1, 73, 96
1, 47079, Note_off_c, 1, 46, 96
1, 47127, Note_on_c, 1, 75, 96
1, 47128, Note_off_c, 1, 75, 96
1, 47177, Note_on_c, 1, 70, 96
1, 47177, Note_on_c, 1, 61, 96
1, 47178, Note_off_c, 1, 70, 96
1, 47178, Note_off_c, 1, 61, 96
1, 47275, Note_on_c, 1, 67, 96
1, 47275, Note_on_c, 1, 55, 96
1, 47276, Note_off_c, 1, 67, 96
1, 47276, Note_off_c, 1, 55, 96
1, 47324, Note_on_c, 1, 72, 96
1, 47325, Note_off_c, 1, 72, 96
1, 47375, Note_on_c, 1, 65, 96
1, 47375, Note_on_c, 1, 62, 96
1, 47375, Note_on_c, 1, 58, 96
1, 47376, Note_off_c, 1, 65, 96
1, 47376, Note_off_c, 1, 62, 96
1, 47376, Note_off_c, 1, 58, 96
1, 47424, Note_on_c, 1, 70, 96
1, 47425, Note_off_c, 1, 70, 96
1, 47474, Note_on_c, 1, 70, 96
1, 47474, Note_on_c, 1, 62, 96
1, 47475, Note_off_c, 1, 70, 96
1, 47475, Note_off_c, 1, 62, 96
1, 47523, Note_on_c, 1, 72, 96
1, 47524, Note_off_c, 1, 72, 96
1, 47574, Note_on_c, 1, 74, 96
1, 47574, Note_on_c, 1, 58, 96
1, 47574, Note_on_c, 1, 62, 96
1, 47575, Note_off_c, 1, 74, 96
1, 47575, Note_off_c, 1, 58, 96
1, 47575, Note_off_c, 1, 62, 96
1, 47624, Note_on_c, 1, 65, 96
1, 47624, Note_on_c, 1, 77, 96
1, 47625, Note_off_c, 1, 65, 96
1, 47625, Note_off_c, 1, 77, 96
1, 47675, Note_on_c, 1, 53, 96
1, 47675, Note_on_c, 1, 58, 96
1, 47675, Note_on_c, 1, 62, 96
1, 47676, Note_off_c, 1, 53, 96
1, 47676, Note_off_c, 1, 58, 96
1, 47676, Note_off_c, 1, 62, 96
1, 47772, Note_on_c, 1, 50, 96
1, 47773, Note_off_c, 1, 50, 96
1, 48107, Note_on_c, 1, 79, 96
1, 48107, Note_on_c, 1, 76, 96
1, 48107, Note_on_c, 1, 58, 96
1, 48107, Note_on_c, 1, 60, 96
1, 48107, Note_on_c, 1, 64, 96
1, 48108, Note_off_c, 1, 79, 96
1, 48108, Note_off_c, 1, 76, 96
1, 48108, Note_off_c, 1, 58, 96
1, 48108, Note_off_c, 1, 60, 96
1, 48108, Note_off_c, 1, 64, 96
1, 48496, Note_on_c, 1, 74, 96
1, 48496, Note_on_c, 1, 62, 96
1, 48497, Note_off_c, 1, 74, 96
1, 48497, Note_off_c, 1, 62, 96
1, 48872, Note_on_c, 1, 63, 96
1, 48872, Note_on_c, 1, 67, 96
1, 48873, Note_off_c, 1, 63, 96
1, 48873, Note_off_c, 1, 67, 96
1, 49168, Note_on_c, 1, 57, 96
1, 49168, Note_on_c, 1, 41, 96
1, 49169, Note_off_c, 1, 57, 96
1, 49169, Note_off_c, 1, 41, 96
1, 49179, Note_on_c, 1, 60, 96
1, 49180, Note_off_c, 1, 60, 96
1, 49200, Note_on_c, 1, 48, 96
1, 49201, Note_off_c, 1, 48, 96
1, 49297, Note_on_c, 1, 67, 96
1, 49297, Note_on_c, 1, 58, 96
1, 49298, Note_off_c, 1, 67, 96
1, 49298, Note_off_c, 1, 58, 96
1, 49476, Note_on_c, 1, 62, 96
1, 49476, Note_on_c, 1, 58, 96
1, 49477, Note_off_c, 1, 62, 96
1, 49477, Note_off_c, 1, 58, 96
1, 49574, Note_on_c, 1, 70, 96
1, 49574, Note_on_c, 1, 58, 96
1, 49575, Note_off_c, 1, 70, 96
1, 49575, Note_off_c, 1, 58, 96
1, 49624, Note_on_c, 1, 64, 96
1, 49624, Note_on_c, 1, 52, 96
1, 49625, Note_off_c, 1, 64, 96
1, 49625, Note_off_c, 1, 52, 96
1, 49673, Note_on_c, 1, 48, 96
1, 49674, Note_off_c, 1, 48, 96
1, 49772, Note_on_c, 1, 82, 96
1, 49772, Note_on_c, 1, 74, 96
1, 49772, Note_on_c, 1, 58, 96
1, 49773, Note_off_c, 1, 82, 96
1, 49773, Note_off_c, 1, 74, 96
1, 49773, Note_off_c, 1, 58, 96
1, 49822, Note_on_c, 1, 82, 96
1, 49822, Note_on_c, 1, 67, 96
1, 49823, Note_off_c, 1, 82, 96
1, 49823, Note_off_c, 1, 67, 96
1, 49844, Note_on_c, 1, 64, 96
1, 49844, Note_on_c, 1, 52, 96
1, 49845, Note_off_c, 1, 64, 96
1, 49845, Note_off_c, 1, 52, 96
1, 49941, Note_on_c, 1, 70, 96
1, 49941, Note_on_c, 1, 55, 96
1, 49942, Note_off_c, 1, 70, 96
1, 49942, Note_off_c, 1, 55, 96
1, 49990, Note_on_c, 1, 62, 96
1, 49991, Note_off_c, 1, 62, 96
1, 50042, Note_on_c, 1, 60, 96
1, 50042, Note_on_c, 1, 72, 96
1, 50042, Note_on_c, 1, 64, 96
1, 50042, Note_on_c, 1, 58, 96
1, 50043, Note_off_c, 1, 60, 96
1, 50043, Note_off_c, 1, 72, 96
1, 50043, Note_off_c, 1, 64, 96
1, 50043, Note_off_c, 1, 58, 96
1, 50142, Note_on_c, 1, 70, 96
1, 50142, Note_on_c, 1, 55, 96
1, 50142, Note_on_c, 1, 52, 96
1, 50142, Note_on_c, 1, 40, 96
1, 50143, Note_off_c, 1, 70, 96
1, 50143, Note_off_c, 1, 55, 96
1, 50143, Note_off_c, 1, 52, 96
1, 50143, Note_off_c, 1, 40, 96
1, 50200, Note_on_c, 1, 67, 96
1, 50201, Note_off_c, 1, 67, 96
1, 50261, Note_on_c, 1, 71, 96
1, 50263, Note_off_c, 1, 71, 96
1, 50263, Note_on_c, 1, 57, 96
1, 50266, Note_off_c, 1, 57, 96
1, 50266, Note_on_c, 1, 69, 96
1, 50266, Note_on_c, 1, 63, 96
1, 50267, Note_off_c, 1, 69, 96
1, 50267, Note_off_c, 1, 63, 96
1, 50327, Note_on_c, 1, 72, 96
1, 50328, Note_off_c, 1, 72, 96
1, 50330, Note_on_c, 1, 64, 96
1, 50331, Note_off_c, 1, 64, 96
1, 50389, Note_on_c, 1, 64, 96
1, 50390, Note_off_c, 1, 64, 96
1, 50393, Note_on_c, 1, 55, 96
1, 50393, Note_on_c, 1, 60, 96
1, 50394, Note_off_c, 1, 55, 96
1, 50394, Note_off_c, 1, 60, 96
1, 50453, Note_on_c, 1, 64, 96
1, 50454, Note_off_c, 1, 64, 96
1, 50514, Note_on_c, 1, 67, 96
1, 50517, Note_off_c, 1, 67, 96
1, 50517, Note_on_c, 1, 65, 96
1, 50517, Note_on_c, 1, 59, 96
1, 50519, Note_off_c, 1, 65, 96
1, 50519, Note_off_c, 1, 59, 96
1, 50519, Note_on_c, 1, 43, 96
1, 50520, Note_off_c, 1, 43, 96
1, 50580, Note_on_c, 1, 45, 96
1, 50581, Note_off_c, 1, 45, 96
1, 50583, Note_on_c, 1, 63, 96
1, 50584, Note_off_c, 1, 63, 96
1, 50704, Note_on_c, 1, 65, 96
1, 50706, Note_off_c, 1, 65, 96
1, 50706, Note_on_c, 1, 59, 96
1, 50707, Note_off_c, 1, 59, 96
1, 50710, Note_on_c, 1, 69, 96
1, 50710, Note_on_c, 1, 55, 96
1, 50711, Note_off_c, 1, 69, 96
1, 50711, Note_off_c, 1, 55, 96
1, 50766, Note_on_c, 1, 77, 96
1, 50767, Note_off_c, 1, 77, 96
1, 50830, Note_on_c, 1, 50, 96
1, 50830, Note_on_c, 1, 55, 96
1, 50830, Note_on_c, 1, 59, 96
1, 50831, Note_off_c, 1, 50, 96
1, 50831, Note_off_c, 1, 55, 96
1, 50831, Note_off_c, 1, 59, 96
1, 50834, Note_on_c, 1, 74, 96
1, 50835, Note_off_c, 1, 74, 96
1, 50892, Note_on_c, 1, 55, 96
1, 50892, Note_on_c, 1, 65, 96
1, 50894, Note_off_c, 1, 55, 96
1, 50894, Note_off_c, 1, 65, 96
1, 50894, Note_on_c, 1, 62, 96
1, 50896, Note_off_c, 1, 62, 96
1, 50896, Note_on_c, 1, 59, 96
1, 50897, Note_off_c, 1, 59, 96
1, 50959, Note_on_c, 1, 67, 96
1, 50959, Note_on_c, 1, 48, 96
1, 50960, Note_off_c, 1, 67, 96
1, 50960, Note_off_c, 1, 48, 96
1, 50965, Note_on_c, 1, 55, 96
1, 50965, Note_on_c, 1, 60, 96
1, 50965, Note_on_c, 1, 64, 96
1, 50965, Note_on_c, 1, 72, 96
1, 50966, Note_off_c, 1, 55, 96
1, 50966, Note_off_c, 1, 60, 96
1, 50966, Note_off_c, 1, 64, 96
1, 50966, Note_off_c, 1, 72, 96
1, 51023, Note_on_c, 1, 64, 96
1, 51024, Note_off_c, 1, 64, 96
1, 51083, Note_on_c, 1, 84, 96
1, 51085, Note_off_c, 1, 84, 96
1, 51085, Note_on_c, 1, 52, 96
1, 51086, Note_off_c, 1, 52, 96
1, 51090, Note_on_c, 1, 72, 96
1, 51090, Note_on_c, 1, 58, 96
1, 51092, Note_off_c, 1, 72, 96
1, 51092, Note_off_c, 1, 58, 96
1, 51092, Note_on_c, 1, 60, 96
1, 51093, Note_off_c, 1, 60, 96
1, 51150, Note_on_c, 1, 81, 96
1, 51151, Note_off_c, 1, 81, 96
1, 51155, Note_on_c, 1, 69, 96
1, 51156, Note_off_c, 1, 69, 96
1, 51213, Note_on_c, 1, 48, 96
1, 51214, Note_off_c, 1, 48, 96
1, 51332, Note_on_c, 1, 50, 96
1, 51333, Note_off_c, 1, 50, 96
1, 51335, Note_on_c, 1, 62, 96
1, 51336, Note_off_c, 1, 62, 96
1, 51339, Note_on_c, 1, 74, 96
1, 51339, Note_on_c, 1, 38, 96
1, 51340, Note_off_c, 1, 74, 96
1, 51340, Note_off_c, 1, 38, 96
1, 51455, Note_on_c, 1, 45, 96
1, 51456, Note_off_c, 1, 45, 96
1, 51458, Note_on_c, 1, 50, 96
1, 51459, Note_off_c, 1, 50, 96
1, 51461, Note_on_c, 1, 54, 96
1, 51462, Note_off_c, 1, 54, 96
1, 51696, Note_on_c, 1, 50, 96
1, 51697, Note_off_c, 1, 50, 96
1, 51702, Note_on_c, 1, 62, 96
1, 51704, Note_off_c, 1, 62, 96
1, 51704, Note_on_c, 1, 50, 96
1, 51705, Note_off_c, 1, 50, 96
1, 51886, Note_on_c, 1, 62, 96
1, 51887, Note_off_c, 1, 62, 96
1, 51945, Note_on_c, 1, 67, 96
1, 51946, Note_off_c, 1, 67, 96
1, 52004, Note_on_c, 1, 51, 96
1, 52005, Note_off_c, 1, 51, 96
1, 52009, Note_on_c, 1, 39, 96
1, 52010, Note_off_c, 1, 39, 96
1, 52071, Note_on_c, 1, 52, 96
1, 52073, Note_off_c, 1, 52, 96
1, 52073, Note_on_c, 1, 64, 96
1, 52075, Note_off_c, 1, 64, 96
1, 52075, Note_on_c, 1, 40, 96
1, 52076, Note_off_c, 1, 40, 96
1, 52194, Note_on_c, 1, 44, 96
1, 52195, Note_off_c, 1, 44, 96
1, 52199, Note_on_c, 1, 54, 96
1, 52200, Note_off_c, 1, 54, 96
1, 52203, Note_on_c, 1, 58, 96
1, 52203, Note_on_c, 1, 64, 96
1, 52204, Note_off_c, 1, 58, 96
1, 52204, Note_off_c, 1, 64, 96
1, 52440, Note_on_c, 1, 67, 96
1, 52443, Note_off_c, 1, 67, 96
1, 52443, Note_on_c, 1, 43, 96
1, 52443, Note_on_c, 1, 52, 96
1, 52444, Note_off_c, 1, 43, 96
1, 52444, Note_off_c, 1, 52, 96
1, 52446, Note_on_c, 1, 60, 96
1, 52448, Note_off_c, 1, 60, 96
1, 52448, Note_on_c, 1, 55, 96
1, 52449, Note_off_c, 1, 55, 96
1, 52567, Note_on_c, 1, 66, 96
1, 52567, Note_on_c, 1, 49, 96
1, 52568, Note_off_c, 1, 66, 96
1, 52568, Note_off_c, 1, 49, 96
1, 52570, Note_on_c, 1, 71, 96
1, 52571, Note_off_c, 1, 71, 96
1, 52574, Note_on_c, 1, 64, 96
1, 52574, Note_on_c, 1, 57, 96
1, 52575, Note_off_c, 1, 64, 96
1, 52575, Note_off_c, 1, 57, 96
1, 52755, Note_on_c, 1, 51, 96
1, 52756, Note_off_c, 1, 51, 96
1, 52758, Note_on_c, 1, 57, 96
1, 52760, Note_off_c, 1, 57, 96
1, 52760, Note_on_c, 1, 76, 96
1, 52762, Note_off_c, 1, 76, 96
1, 52762, Note_on_c, 1, 29, 96
1, 52763, Note_off_c, 1, 29, 96
1, 52878, Note_on_c, 1, 41, 96
1, 52879, Note_off_c, 1, 41, 96
1, 52885, Note_on_c, 1, 53, 96
1, 52886, Note_off_c, 1, 53, 96
1, 52997, Note_on_c, 1, 57, 96
1, 53000, Note_off_c, 1, 57, 96
1, 53000, Note_on_c, 1, 66, 96
1, 53000, Note_on_c, 1, 62, 96
1, 53001, Note_off_c, 1, 66, 96
1, 53001, Note_off_c, 1, 62, 96
1, 53003, Note_on_c, 1, 69, 96
1, 53005, Note_off_c, 1, 69, 96
1, 53005, Note_on_c, 1, 66, 96
1, 53006, Note_off_c, 1, 66, 96
1, 53246, Note_on_c, 1, 64, 96
1, 53247, Note_off_c, 1, 64, 96
1, 53249, Note_on_c, 1, 67, 96
1, 53251, Note_off_c, 1, 67, 96
1, 53251, Note_on_c, 1, 55, 96
1, 53252, Note_off_c, 1, 55, 96
1, 53367, Note_on_c, 1, 60, 96
1, 53369, Note_off_c, 1, 60, 96
1, 53369, Note_on_c, 1, 53, 96
1, 53370, Note_off_c, 1, 53, 96
1, 53375, Note_on_c, 1, 65, 96
1, 53375, Note_on_c, 1, 57, 96
1, 53376, Note_off_c, 1, 65, 96
1, 53376, Note_off_c, 1, 57, 96
1, 53435, Note_on_c, 1, 65, 96
1, 53436, Note_off_c, 1, 65, 96
1, 53493, Note_on_c, 1, 53, 96
1, 53495, Note_off_c, 1, 53, 96
1, 53495, Note_on_c, 1, 57, 96
1, 53496, Note_off_c, 1, 57, 96
1, 53499, Note_on_c, 1, 53, 96
1, 53501, Note_off_c, 1, 53, 96
1, 53501, Note_on_c, 1, 65, 96
1, 53502, Note_off_c, 1, 65, 96
1, 53865, Note_on_c, 1, 43, 96
1, 53867, Note_off_c, 1, 43, 96
1, 53867, Note_on_c, 1, 55, 96
1, 53868, Note_off_c, 1, 55, 96
1, 54224, Note_on_c, 1, 71, 96
1, 54225, Note_off_c, 1, 71, 96
1, 54284, Note_on_c, 1, 72, 96
1, 54285, Note_off_c, 1, 72, 96
1, 54349, Note_on_c, 1, 74, 96
1, 54350, Note_off_c, 1, 74, 96
1, 54456, Note_on_c, 1, 65, 96
1, 54457, Note_off_c, 1, 65, 96
1, 54500, Note_on_c, 1, 65, 96
1, 54502, Note_off_c, 1, 65, 96
1, 54502, Note_on_c, 1, 69, 96
1, 54503, Note_off_c, 1, 69, 96
1, 54505, Note_on_c, 1, 50, 96
1, 54506, Note_off_c, 1, 50, 96
1, 54619, Note_on_c, 1, 58, 96
1, 54621, Note_off_c, 1, 58, 96
1, 54621, Note_on_c, 1, 46, 96
1, 54622, Note_off_c, 1, 46, 96
1, 54624, Note_on_c, 1, 53, 96
1, 54625, Note_off_c, 1, 53, 96
1, 54627, Note_on_c, 1, 65, 96
1, 54628, Note_off_c, 1, 65, 96
1, 54630, Note_on_c, 1, 74, 96
1, 54631, Note_off_c, 1, 74, 96
1, 54868, Note_on_c, 1, 82, 96
1, 54870, Note_off_c, 1, 82, 96
1, 54870, Note_on_c, 1, 86, 96
1, 54871, Note_off_c, 1, 86, 96
1, 54875, Note_on_c, 1, 50, 96
1, 54875, Note_on_c, 1, 62, 96
1, 54878, Note_off_c, 1, 50, 96
1, 54878, Note_off_c, 1, 62, 96
1, 54878, Note_on_c, 1, 74, 96
1, 54878, Note_on_c, 1, 70, 96
1, 54879, Note_off_c, 1, 74, 96
1, 54879, Note_off_c, 1, 70, 96
1, 54995, Note_on_c, 1, 72, 96
1, 54995, Note_on_c, 1, 53, 96
1, 54996, Note_off_c, 1, 72, 96
1, 54996, Note_off_c, 1, 53, 96
1, 54998, Note_on_c, 1, 60, 96
1, 55001, Note_off_c, 1, 60, 96
1, 55001, Note_on_c, 1, 80, 96
1, 55001, Note_on_c, 1, 84, 96
1, 55002, Note_off_c, 1, 80, 96
1, 55002, Note_off_c, 1, 84, 96
1, 55065, Note_on_c, 1, 42, 96
1, 55066, Note_off_c, 1, 42, 96
1, 55068, Note_on_c, 1, 54, 96
1, 55069, Note_off_c, 1, 54, 96
1, 55192, Note_on_c, 1, 98, 96
1, 55194, Note_off_c, 1, 98, 96
1, 55194, Note_on_c, 1, 62, 96
1, 55195, Note_off_c, 1, 62, 96
1, 55437, Note_on_c, 1, 83, 96
1, 55438, Note_off_c, 1, 83, 96
1, 55564, Note_on_c, 1, 84, 96
1, 55565, Note_off_c, 1, 84, 96
1, 55685, Note_on_c, 1, 77, 96
1, 55686, Note_off_c, 1, 77, 96
1, 55689, Note_on_c, 1, 86, 96
1, 55690, Note_off_c, 1, 86, 96
1, 55693, Note_on_c, 1, 80, 96
1, 55694, Note_off_c, 1, 80, 96
1, 55762, Note_on_c, 1, 81, 96
1, 55763, Note_off_c, 1, 81, 96
1, 55765, Note_on_c, 1, 72, 96
1, 55766, Note_off_c, 1, 72, 96
1, 55875, Note_on_c, 1, 89, 96
1, 55876, Note_off_c, 1, 89, 96
1, 56005, Note_on_c, 1, 50, 96
1, 56006, Note_off_c, 1, 50, 96
1, 56009, Note_on_c, 1, 74, 96
1, 56010, Note_off_c, 1, 74, 96
1, 56012, Note_on_c, 1, 86, 96
1, 56013, Note_off_c, 1, 86, 96
1, 56018, Note_on_c, 1, 62, 96
1, 56019, Note_off_c, 1, 62, 96
1, 56227, Note_on_c, 1, 83, 96
1, 56228, Note_off_c, 1, 83, 96
1, 56298, Note_on_c, 1, 93, 96
1, 56299, Note_off_c, 1, 93, 96
1, 56328, Note_on_c, 1, 88, 96
1, 56329, Note_off_c, 1, 88, 96
1, 56357, Note_on_c, 1, 80, 96
1, 56357, Note_on_c, 1, 87, 96
1, 56358, Note_off_c, 1, 80, 96
1, 56358, Note_off_c, 1, 87, 96
1, 56362, Note_on_c, 1, 77, 96
1, 56362, Note_on_c, 1, 63, 96
1, 56362, Note_on_c, 1, 65, 96
1, 56363, Note_off_c, 1, 77, 96
1, 56363, Note_off_c, 1, 63, 96
1, 56363, Note_off_c, 1, 65, 96
1, 56423, Note_on_c, 1, 60, 96
1, 56424, Note_off_c, 1, 60, 96
1, 56426, Note_on_c, 1, 84, 96
1, 56427, Note_off_c, 1, 84, 96
1, 56429, Note_on_c, 1, 72, 96
1, 56430, Note_off_c, 1, 72, 96
1, 56549, Note_on_c, 1, 51, 96
1, 56549, Note_on_c, 1, 57, 96
1, 56550, Note_off_c, 1, 51, 96
1, 56550, Note_off_c, 1, 57, 96
1, 56674, Note_on_c, 1, 73, 96
1, 56674, Note_on_c, 1, 61, 96
1, 56675, Note_off_c, 1, 73, 96
1, 56675, Note_off_c, 1, 61, 96
1, 56759, Note_on_c, 1, 75, 96
1, 56760, Note_off_c, 1, 75, 96
1, 56809, Note_on_c, 1, 82, 96
1, 56809, Note_on_c, 1, 86, 96
1, 56810, Note_off_c, 1, 82, 96
1, 56810, Note_off_c, 1, 86, 96
1, 56932, Note_on_c, 1, 56, 96
1, 56933, Note_off_c, 1, 56, 96
1, 56940, Note_on_c, 1, 65, 96
1, 56941, Note_off_c, 1, 65, 96
1, 57040, Note_on_c, 1, 84, 96
1, 57040, Note_on_c, 1, 72, 96
1, 57041, Note_off_c, 1, 84, 96
1, 57041, Note_off_c, 1, 72, 96
1, 57043, Note_on_c, 1, 64, 96
1, 57044, Note_off_c, 1, 64, 96
1, 57164, Note_on_c, 1, 77, 96
1, 57165, Note_off_c, 1, 77, 96
1, 57330, Note_on_c, 1, 75, 96
1, 57331, Note_off_c, 1, 75, 96
1, 57334, Note_on_c, 1, 82, 96
1, 57334, Note_on_c, 1, 87, 96
1, 57335, Note_off_c, 1, 82, 96
1, 57335, Note_off_c, 1, 87, 96
1, 57391, Note_on_c, 1, 57, 96
1, 57392, Note_off_c, 1, 57, 96
1, 57397, Note_on_c, 1, 74, 96
1, 57397, Note_on_c, 1, 86, 96
1, 57400, Note_off_c, 1, 74, 96
1, 57400, Note_off_c, 1, 86, 96
1, 57400, Note_on_c, 1, 66, 96
1, 57400, Note_on_c, 1, 60, 96
1, 57401, Note_off_c, 1, 66, 96
1, 57401, Note_off_c, 1, 60, 96
1, 57457, Note_on_c, 1, 83, 96
1, 57459, Note_off_c, 1, 83, 96
1, 57459, Note_on_c, 1, 80, 96
1, 57460, Note_off_c, 1, 80, 96
1, 57462, Note_on_c, 1, 71, 96
1, 57463, Note_off_c, 1, 71, 96
1, 57519, Note_on_c, 1, 59, 96
1, 57521, Note_off_c, 1, 59, 96
1, 57521, Note_on_c, 1, 83, 96
1, 57523, Note_off_c, 1, 83, 96
1, 57523, Note_on_c, 1, 76, 96
1, 57524, Note_off_c, 1, 76, 96
1, 57527, Note_on_c, 1, 47, 96
1, 57528, Note_off_c, 1, 47, 96
1, 57642, Note_on_c, 1, 64, 96
1, 57643, Note_off_c, 1, 64, 96
1, 57645, Note_on_c, 1, 84, 96
1, 57646, Note_off_c, 1, 84, 96
1, 57648, Note_on_c, 1, 76, 96
1, 57651, Note_off_c, 1, 76, 96
1, 57651, Note_on_c, 1, 55, 96
1, 57651, Note_on_c, 1, 60, 96
1, 57652, Note_off_c, 1, 55, 96
1, 57652, Note_off_c, 1, 60, 96
1, 57768, Note_on_c, 1, 76, 96
1, 57769, Note_off_c, 1, 76, 96
1, 57773, Note_on_c, 1, 80, 96
1, 57773, Note_on_c, 1, 84, 96
1, 57773, Note_on_c, 1, 48, 96
1, 57776, Note_off_c, 1, 80, 96
1, 57776, Note_off_c, 1, 84, 96
1, 57776, Note_off_c, 1, 48, 96
1, 57776, Note_on_c, 1, 72, 96
1, 57776, Note_on_c, 1, 36, 96
1, 57777, Note_off_c, 1, 72, 96
1, 57777, Note_off_c, 1, 36, 96
1, 57892, Note_on_c, 1, 69, 96
1, 57894, Note_off_c, 1, 69, 96
1, 57894, Note_on_c, 1, 38, 96
1, 57896, Note_off_c, 1, 38, 96
1, 57896, Note_on_c, 1, 81, 96
1, 57898, Note_off_c, 1, 81, 96
1, 57898, Note_on_c, 1, 50, 96
1, 57899, Note_off_c, 1, 50, 96
1, 57901, Note_on_c, 1, 74, 96
1, 57902, Note_off_c, 1, 74, 96
1, 58016, Note_on_c, 1, 50, 96
1, 58017, Note_off_c, 1, 50, 96
1, 58021, Note_on_c, 1, 54, 96
1, 58023, Note_off_c, 1, 54, 96
1, 58023, Note_on_c, 1, 60, 96
1, 58024, Note_off_c, 1, 60, 96
1, 58260, Note_on_c, 1, 41, 96
1, 58262, Note_off_c, 1, 41, 96
1, 58262, Note_on_c, 1, 53, 96
1, 58263, Note_off_c, 1, 53, 96
1, 58267, Note_on_c, 1, 62, 96
1, 58268, Note_off_c, 1, 62, 96
1, 58382, Note_on_c, 1, 72, 96
1, 58382, Note_on_c, 1, 59, 96
1, 58383, Note_off_c, 1, 72, 96
1, 58383, Note_off_c, 1, 59, 96
1, 58387, Note_on_c, 1, 83, 96
1, 58389, Note_off_c, 1, 83, 96
1, 58389, Note_on_c, 1, 47, 96
1, 58390, Note_off_c, 1, 47, 96
1, 58392, Note_on_c, 1, 80, 96
1, 58393, Note_off_c, 1, 80, 96
1, 58506, Note_on_c, 1, 65, 96
1, 58507, Note_off_c, 1, 65, 96
1, 58509, Note_on_c, 1, 59, 96
1, 58510, Note_off_c, 1, 59, 96
1, 58513, Note_on_c, 1, 53, 96
1, 58513, Note_on_c, 1, 74, 96
1, 58514, Note_off_c, 1, 53, 96
1, 58514, Note_off_c, 1, 74, 96
1, 58632, Note_on_c, 1, 64, 96
1, 58633, Note_off_c, 1, 64, 96
1, 58638, Note_on_c, 1, 68, 96
1, 58638, Note_on_c, 1, 86, 96
1, 58639, Note_off_c, 1, 68, 96
1, 58639, Note_off_c, 1, 86, 96
1, 58752, Note_on_c, 1, 48, 96
1, 58753, Note_off_c, 1, 48, 96
1, 58872, Note_on_c, 1, 72, 96
1, 58874, Note_off_c, 1, 72, 96
1, 58874, Note_on_c, 1, 59, 96
1, 58875, Note_off_c, 1, 59, 96
1, 58879, Note_on_c, 1, 83, 96
1, 58879, Note_on_c, 1, 63, 96
1, 58879, Note_on_c, 1, 54, 96
1, 58881, Note_off_c, 1, 83, 96
1, 58881, Note_off_c, 1, 63, 96
1, 58881, Note_off_c, 1, 54, 96
1, 58881, Note_on_c, 1, 79, 96
1, 58882, Note_off_c, 1, 79, 96
1, 58998, Note_on_c, 1, 72, 96
1, 59000, Note_off_c, 1, 72, 96
1, 59000, Note_on_c, 1, 39, 96
1, 59003, Note_off_c, 1, 39, 96
1, 59003, Note_on_c, 1, 66, 96
1, 59003, Note_on_c, 1, 78, 96
1, 59004, Note_off_c, 1, 66, 96
1, 59004, Note_off_c, 1, 78, 96
1, 59127, Note_on_c, 1, 51, 96
1, 59128, Note_off_c, 1, 51, 96
1, 59240, Note_on_c, 1, 72, 96
1, 59241, Note_off_c, 1, 72, 96
1, 59244, Note_on_c, 1, 80, 96
1, 59245, Note_off_c, 1, 80, 96
1, 59247, Note_on_c, 1, 77, 96
1, 59248, Note_off_c, 1, 77, 96
1, 59251, Note_on_c, 1, 68, 96
1, 59252, Note_off_c, 1, 68, 96
1, 59368, Note_on_c, 1, 75, 96
1, 59368, Note_on_c, 1, 58, 96
1, 59370, Note_off_c, 1, 75, 96
1, 59370, Note_off_c, 1, 58, 96
1, 59370, Note_on_c, 1, 70, 96
1, 59372, Note_off_c, 1, 70, 96
1, 59372, Note_on_c, 1, 67, 96
1, 59373, Note_off_c, 1, 67, 96
1, 59376, Note_on_c, 1, 63, 96
1, 59377, Note_off_c, 1, 63, 96
1, 59432, Note_on_c, 1, 46, 96
1, 59433, Note_off_c, 1, 46, 96
1, 59492, Note_on_c, 1, 65, 96
1, 59494, Note_off_c, 1, 65, 96
1, 59494, Note_on_c, 1, 53, 96
1, 59495, Note_off_c, 1, 53, 96
1, 59498, Note_on_c, 1, 74, 96
1, 59499, Note_off_c, 1, 74, 96
1, 59501, Note_on_c, 1, 77, 96
1, 59502, Note_off_c, 1, 77, 96
1, 59738, Note_on_c, 1, 80, 96
1, 59740, Note_off_c, 1, 80, 96
1, 59740, Note_on_c, 1, 68, 96
1, 59741, Note_off_c, 1, 68, 96
1, 59743, Note_on_c, 1, 80, 96
1, 59744, Note_off_c, 1, 80, 96
1, 59863, Note_on_c, 1, 80, 96
1, 59865, Note_off_c, 1, 80, 96
1, 59865, Note_on_c, 1, 68, 96
1, 59867, Note_off_c, 1, 68, 96
1, 59867, Note_on_c, 1, 58, 96
1, 59869, Note_off_c, 1, 58, 96
1, 59869, Note_on_c, 1, 72, 96
1, 59870, Note_off_c, 1, 72, 96
1, 59988, Note_on_c, 1, 55, 96
1, 59988, Note_on_c, 1, 46, 96
1, 59989, Note_off_c, 1, 55, 96
1, 59989, Note_off_c, 1, 46, 96
1, 60108, Note_on_c, 1, 80, 96
1, 60110, Note_off_c, 1, 80, 96
1, 60110, Note_on_c, 1, 56, 96
1, 60111, Note_off_c, 1, 56, 96
1, 60113, Note_on_c, 1, 87, 96
1, 60115, Note_off_c, 1, 87, 96
1, 60115, Note_on_c, 1, 44, 96
1, 60116, Note_off_c, 1, 44, 96
1, 60119, Note_on_c, 1, 77, 96
1, 60120, Note_off_c, 1, 77, 96
1, 60238, Note_on_c, 1, 51, 96
1, 60240, Note_off_c, 1, 51, 96
1, 60240, Note_on_c, 1, 56, 96
1, 60242, Note_off_c, 1, 56, 96
1, 60242, Note_on_c, 1, 60, 96
1, 60243, Note_off_c, 1, 60, 96
1, 60357, Note_on_c, 1, 39, 96
1, 60358, Note_off_c, 1, 39, 96
1, 60361, Note_on_c, 1, 51, 96
1, 60362, Note_off_c, 1, 51, 96
1, 60481, Note_on_c, 1, 77, 96
1, 60483, Note_off_c, 1, 77, 96
1, 60483, Note_on_c, 1, 89, 96
1, 60484, Note_off_c, 1, 89, 96
1, 60487, Note_on_c, 1, 84, 96
1, 60487, Note_on_c, 1, 60, 96
1, 60488, Note_off_c, 1, 84, 96
1, 60488, Note_off_c, 1, 60, 96
1, 60490, Note_on_c, 1, 44, 96
1, 60491, Note_off_c, 1, 44, 96
1, 60609, Note_on_c, 1, 55, 96
1, 60612, Note_off_c, 1, 55, 96
1, 60612, Note_on_c, 1, 87, 96
1, 60612, Note_on_c, 1, 94, 96
1, 60613, Note_off_c, 1, 87, 96
1, 60613, Note_off_c, 1, 94, 96
1, 60673, Note_on_c, 1, 82, 96
1, 60674, Note_off_c, 1, 82, 96
1, 60729, Note_on_c, 1, 51, 96
1, 60730, Note_off_c, 1, 51, 96
1, 60732, Note_on_c, 1, 75, 96
1, 60733, Note_off_c, 1, 75, 96
1, 60790, Note_on_c, 1, 84, 96
1, 60791, Note_off_c, 1, 84, 96
1, 60850, Note_on_c, 1, 44, 96
1, 60851, Note_off_c, 1, 44, 96
1, 60915, Note_on_c, 1, 79, 96
1, 60916, Note_off_c, 1, 79, 96
1, 60977, Note_on_c, 1, 63, 96
1, 60977, Note_on_c, 1, 60, 96
1, 60979, Note_off_c, 1, 63, 96
1, 60979, Note_off_c, 1, 60, 96
1, 60979, Note_on_c, 1, 56, 96
1, 60980, Note_off_c, 1, 56, 96
1, 61036, Note_on_c, 1, 77, 96
1, 61037, Note_off_c, 1, 77, 96
1, 61099, Note_on_c, 1, 74, 96
1, 61099, Note_on_c, 1, 80, 96
1, 61099, Note_on_c, 1, 68, 96
1, 61100, Note_off_c, 1, 74, 96
1, 61100, Note_off_c, 1, 80, 96
1, 61100, Note_off_c, 1, 68, 96
1, 61102, Note_on_c, 1, 47, 96
1, 61104, Note_off_c, 1, 47, 96
1, 61104, Note_on_c, 1, 59, 96
1, 61105, Note_off_c, 1, 59, 96
1, 61220, Note_on_c, 1, 69, 96
1, 61222, Note_off_c, 1, 69, 96
1, 61222, Note_on_c, 1, 81, 96
1, 61225, Note_off_c, 1, 81, 96
1, 61225, Note_on_c, 1, 76, 96
1, 61225, Note_on_c, 1, 72, 96
1, 61227, Note_off_c, 1, 76, 96
1, 61227, Note_off_c, 1, 72, 96
1, 61227, Note_on_c, 1, 45, 96
1, 61228, Note_off_c, 1, 45, 96
1, 61344, Note_on_c, 1, 65, 96
1, 61346, Note_off_c, 1, 65, 96
1, 61346, Note_on_c, 1, 62, 96
1, 61348, Note_off_c, 1, 62, 96
1, 61348, Note_on_c, 1, 57, 96
1, 61349, Note_off_c, 1, 57, 96
1, 61466, Note_on_c, 1, 71, 96
1, 61468, Note_off_c, 1, 71, 96
1, 61468, Note_on_c, 1, 51, 96
1, 61470, Note_off_c, 1, 51, 96
1, 61470, Note_on_c, 1, 79, 96
1, 61471, Note_off_c, 1, 79, 96
1, 61587, Note_on_c, 1, 63, 96
1, 61588, Note_off_c, 1, 63, 96
1, 61708, Note_on_c, 1, 55, 96
1, 61711, Note_off_c, 1, 55, 96
1, 61711, Note_on_c, 1, 75, 96
1, 61711, Note_on_c, 1, 60, 96
1, 61712, Note_off_c, 1, 75, 96
1, 61712, Note_off_c, 1, 60, 96
1, 61715, Note_on_c, 1, 63, 96
1, 61716, Note_off_c, 1, 63, 96
1, 61771, Note_on_c, 1, 70, 96
1, 61772, Note_off_c, 1, 70, 96
1, 61835, Note_on_c, 1, 58, 96
1, 61835, Note_on_c, 1, 55, 96
1, 61837, Note_off_c, 1, 58, 96
1, 61837, Note_off_c, 1, 55, 96
1, 61837, Note_on_c, 1, 70, 96
1, 61840, Note_off_c, 1, 70, 96
1, 61840, Note_on_c, 1, 75, 96
1, 61840, Note_on_c, 1, 63, 96
1, 61841, Note_off_c, 1, 75, 96
1, 61841, Note_off_c, 1, 63, 96
1, 61959, Note_on_c, 1, 46, 96
1, 61960, Note_off_c, 1, 46, 96
1, 61962, Note_on_c, 1, 34, 96
1, 61963, Note_off_c, 1, 34, 96
1, 62019, Note_on_c, 1, 70, 96
1, 62020, Note_off_c, 1, 70, 96
1, 62080, Note_on_c, 1, 68, 96
1, 62082, Note_off_c, 1, 68, 96
1, 62082, Note_on_c, 1, 56, 96
1, 62085, Note_off_c, 1, 56, 96
1, 62085, Note_on_c, 1, 58, 96
1, 62085, Note_on_c, 1, 62, 96
1, 62086, Note_off_c, 1, 58, 96
1, 62086, Note_off_c, 1, 62, 96
1, 62089, Note_on_c, 1, 74, 96
1, 62090, Note_off_c, 1, 74, 96
1, 62208, Note_on_c, 1, 53, 96
1, 62211, Note_off_c, 1, 53, 96
1, 62211, Note_on_c, 1, 68, 96
1, 62211, Note_on_c, 1, 72, 96
1, 62213, Note_off_c, 1, 68, 96
1, 62213, Note_off_c, 1, 72, 96
1, 62213, Note_on_c, 1, 62, 96
1, 62215, Note_off_c, 1, 62, 96
1, 62215, Note_on_c, 1, 58, 96
1, 62216, Note_off_c, 1, 58, 96
1, 62332, Note_on_c, 1, 62, 96
1, 62334, Note_off_c, 1, 62, 96
1, 62334, Note_on_c, 1, 51, 96
1, 62336, Note_off_c, 1, 51, 96
1, 62336, Note_on_c, 1, 75, 96
1, 62338, Note_off_c, 1, 75, 96
1, 62338, Note_on_c, 1, 68, 96
1, 62339, Note_off_c, 1, 68, 96
1, 62341, Note_on_c, 1, 53, 96
1, 62342, Note_off_c, 1, 53, 96
1, 62345, Note_on_c, 1, 70, 96
1, 62345, Note_on_c, 1, 58, 96
1, 62346, Note_off_c, 1, 70, 96
1, 62346, Note_off_c, 1, 58, 96
1, 62459, Note_on_c, 1, 67, 96
1, 62461, Note_off_c, 1, 67, 96
1, 62461, Note_on_c, 1, 51, 96
1, 62463, Note_off_c, 1, 51, 96
1, 62463, Note_on_c, 1, 70, 96
1, 62464, Note_off_c, 1, 70, 96
1, 62585, Note_on_c, 1, 46, 96
1, 62586, Note_off_c, 1, 46, 96
1, 62704, Note_on_c, 1, 63, 96
1, 62704, Note_on_c, 1, 58, 96
1, 62705, Note_off_c, 1, 63, 96
1, 62705, Note_off_c, 1, 58, 96
1, 62709, Note_on_c, 1, 58, 96
1, 62710, Note_off_c, 1, 58, 96
1, 62712, Note_on_c, 1, 72, 96
1, 62713, Note_off_c, 1, 72, 96
1, 62827, Note_on_c, 1, 43, 96
1, 62828, Note_off_c, 1, 43, 96
1, 62832, Note_on_c, 1, 55, 96
1, 62833, Note_off_c, 1, 55, 96
1, 62953, Note_on_c, 1, 73, 96
1, 62953, Note_on_c, 1, 61, 96
1, 62954, Note_off_c, 1, 73, 96
1, 62954, Note_off_c, 1, 61, 96
1, 62958, Note_on_c, 1, 67, 96
1, 62960, Note_off_c, 1, 67, 96
1, 62960, Note_on_c, 1, 58, 96
1, 62961, Note_off_c, 1, 58, 96
1, 63019, Note_on_c, 1, 73, 96
1, 63020, Note_off_c, 1, 73, 96
1, 63077, Note_on_c, 1, 77, 96
1, 63080, Note_off_c, 1, 77, 96
1, 63080, Note_on_c, 1, 73, 96
1, 63080, Note_on_c, 1, 51, 96
1, 63083, Note_off_c, 1, 73, 96
1, 63083, Note_off_c, 1, 51, 96
1, 63083, Note_on_c, 1, 61, 96
1, 63083, Note_on_c, 1, 55, 96
1, 63085, Note_off_c, 1, 61, 96
1, 63085, Note_off_c, 1, 55, 96
1, 63085, Note_on_c, 1, 67, 96
1, 63086, Note_off_c, 1, 67, 96
1, 63139, Note_on_c, 1, 73, 96
1, 63140, Note_off_c, 1, 73, 96
1, 63145, Note_on_c, 1, 76, 96
1, 63146, Note_off_c, 1, 76, 96
1, 63203, Note_on_c, 1, 39, 96
1, 63204, Note_off_c, 1, 39, 96
1, 63262, Note_on_c, 1, 73, 96
1, 63262, Note_on_c, 1, 70, 96
1, 63263, Note_off_c, 1, 73, 96
1, 63263, Note_off_c, 1, 70, 96
1, 63266, Note_on_c, 1, 67, 96
1, 63268, Note_off_c, 1, 67, 96
1, 63268, Note_on_c, 1, 61, 96
1, 63269, Note_off_c, 1, 61, 96
1, 63389, Note_on_c, 1, 58, 96
1, 63390, Note_off_c, 1, 58, 96
1, 63392, Note_on_c, 1, 63, 96
1, 63393, Note_off_c, 1, 63, 96
1, 63451, Note_on_c, 1, 67, 96
1, 63452, Note_off_c, 1, 67, 96
1, 63509, Note_on_c, 1, 61, 96
1, 63512, Note_off_c, 1, 61, 96
1, 63512, Note_on_c, 1, 67, 96
1, 63512, Note_on_c, 1, 51, 96
1, 63513, Note_off_c, 1, 67, 96
1, 63513, Note_off_c, 1, 51, 96
1, 63516, Note_on_c, 1, 73, 96
1, 63518, Note_off_c, 1, 73, 96
1, 63518, Note_on_c, 1, 58, 96
1, 63519, Note_off_c, 1, 58, 96
1, 63636, Note_on_c, 1, 70, 96
1, 63636, Note_on_c, 1, 68, 96
1, 63636, Note_on_c, 1, 61, 96
1, 63637, Note_off_c, 1, 70, 96
1, 63637, Note_off_c, 1, 68, 96
1, 63637, Note_off_c, 1, 61, 96
1, 63640, Note_on_c, 1, 73, 96
1, 63642, Note_off_c, 1, 73, 96
1, 63642, Note_on_c, 1, 65, 96
1, 63643, Note_off_c, 1, 65, 96
1, 63760, Note_on_c, 1, 56, 96
1, 63762, Note_off_c, 1, 56, 96
1, 63762, Note_on_c, 1, 53, 96
1, 63763, Note_off_c, 1, 53, 96
1, 63879, Note_on_c, 1, 70, 96
1, 63882, Note_off_c, 1, 70, 96
1, 63882, Note_on_c, 1, 68, 96
1, 63882, Note_on_c, 1, 61, 96
1, 63884, Note_off_c, 1, 68, 96
1, 63884, Note_off_c, 1, 61, 96
1, 63884, Note_on_c, 1, 65, 96
1, 63885, Note_off_c, 1, 65, 96
1, 63887, Note_on_c, 1, 51, 96
1, 63888, Note_off_c, 1, 51, 96
1, 64007, Note_on_c, 1, 68, 96
1, 64009, Note_off_c, 1, 68, 96
1, 64009, Note_on_c, 1, 49, 96
1, 64010, Note_off_c, 1, 49, 96
1, 64070, Note_on_c, 1, 63, 96
1, 64071, Note_off_c, 1, 63, 96
1, 64127, Note_on_c, 1, 41, 96
1, 64128, Note_off_c, 1, 41, 96
1, 64247, Note_on_c, 1, 34, 96
1, 64248, Note_off_c, 1, 34, 96
1, 64307, Note_on_c, 1, 63, 96
1, 64308, Note_off_c, 1, 63, 96
1, 64370, Note_on_c, 1, 72, 96
1, 64371, Note_off_c, 1, 72, 96
1, 64373, Note_on_c, 1, 43, 96
1, 64374, Note_off_c, 1, 43, 96
1, 64491, Note_on_c, 1, 71, 96
1, 64493, Note_off_c, 1, 71, 96
1, 64493, Note_on_c, 1, 51, 96
1, 64494, Note_off_c, 1, 51, 96
1, 64614, Note_on_c, 1, 51, 96
1, 64616, Note_off_c, 1, 51, 96
1, 64616, Note_on_c, 1, 72, 96
1, 64617, Note_off_c, 1, 72, 96
1, 64735, Note_on_c, 1, 60, 96
1, 64737, Note_off_c, 1, 60, 96
1, 64737, Note_on_c, 1, 51, 96
1, 64739, Note_off_c, 1, 51, 96
1, 64739, Note_on_c, 1, 56, 96
1, 64740, Note_off_c, 1, 56, 96
1, 64856, Note_on_c, 1, 51, 96
1, 64857, Note_off_c, 1, 51, 96
1, 64860, Note_on_c, 1, 63, 96
1, 64861, Note_off_c, 1, 63, 96
1, 64978, Note_on_c, 1, 63, 96
1, 64980, Note_off_c, 1, 63, 96
1, 64980, Note_on_c, 1, 56, 96
1, 64981, Note_off_c, 1, 56, 96
1, 64985, Note_on_c, 1, 60, 96
1, 64985, Note_on_c, 1, 53, 96
1, 64986, Note_off_c, 1, 60, 96
1, 64986, Note_off_c, 1, 53, 96
1, 65103, Note_on_c, 1, 72, 96
1, 65104, Note_off_c, 1, 72, 96
1, 65108, Note_on_c, 1, 44, 96
1, 65110, Note_off_c, 1, 44, 96
1, 65110, Note_on_c, 1, 51, 96
1, 65111, Note_off_c, 1, 51, 96
1, 65226, Note_on_c, 1, 56, 96
1, 65227, Note_off_c, 1, 56, 96
1, 65229, Note_on_c, 1, 44, 96
1, 65230, Note_off_c, 1, 44, 96
1, 65350, Note_on_c, 1, 60, 96
1, 65352, Note_off_c, 1, 60, 96
1, 65352, Note_on_c, 1, 51, 96
1, 65354, Note_off_c, 1, 51, 96
1, 65354, Note_on_c, 1, 56, 96
1, 65355, Note_off_c, 1, 56, 96
1, 65470, Note_on_c, 1, 60, 96
1, 65471, Note_off_c, 1, 60, 96
1, 65477, Note_on_c, 1, 56, 96
1, 65478, Note_off_c, 1, 56, 96
1, 65594, Note_on_c, 1, 51, 96
1, 65595, Note_off_c, 1, 51, 96
1, 65599, Note_on_c, 1, 63, 96
1, 65600, Note_off_c, 1, 63, 96
1, 65718, Note_on_c, 1, 63, 96
1, 65719, Note_off_c, 1, 63, 96
1, 65837, Note_on_c, 1, 56, 96
1, 65839, Note_off_c, 1, 56, 96
1, 65839, Note_on_c, 1, 51, 96
1, 65840, Note_off_c, 1, 51, 96
1, 65843, Note_on_c, 1, 56, 96
1, 65844, Note_off_c, 1, 56, 96
1, 65967, Note_on_c, 1, 60, 96
1, 65967, Note_on_c, 1, 56, 96
1, 65968, Note_off_c, 1, 60, 96
1, 65968, Note_off_c, 1, 56, 96
1, 66210, Note_on_c, 1, 66, 96
1, 66211, Note_off_c, 1, 66, 96
1, 66214, Note_on_c, 1, 39, 96
1, 66216, Note_off_c, 1, 39, 96
1, 66216, Note_on_c, 1, 75, 96
1, 66217, Note_off_c, 1, 75, 96
1, 66334, Note_on_c, 1, 51, 96
1, 66335, Note_off_c, 1, 51, 96
1, 66337, Note_on_c, 1, 75, 96
1, 66339, Note_off_c, 1, 75, 96
1, 66339, Note_on_c, 1, 67, 96
1, 66340, Note_off_c, 1, 67, 96
1, 66454, Note_on_c, 1, 72, 96
1, 66455, Note_off_c, 1, 72, 96
1, 66459, Note_on_c, 1, 79, 96
1, 66459, Note_on_c, 1, 60, 96
1, 66460, Note_off_c, 1, 79, 96
1, 66460, Note_off_c, 1, 60, 96
1, 66462, Note_on_c, 1, 63, 96
1, 66464, Note_off_c, 1, 63, 96
1, 66464, Note_on_c, 1, 55, 96
1, 66465, Note_off_c, 1, 55, 96
1, 66579, Note_on_c, 1, 55, 96
1, 66580, Note_off_c, 1, 55, 96
1, 66584, Note_on_c, 1, 48, 96
1, 66588, Note_off_c, 1, 48, 96
1, 66588, Note_on_c, 1, 72, 96
1, 66588, Note_on_c, 1, 79, 96
1, 66588, Note_on_c, 1, 76, 96
1, 66589, Note_off_c, 1, 72, 96
1, 66589, Note_off_c, 1, 79, 96
1, 66589, Note_off_c, 1, 76, 96
1, 66591, Note_on_c, 1, 58, 96
1, 66592, Note_off_c, 1, 58, 96
1, 66768, Note_on_c, 1, 69, 96
1, 66769, Note_off_c, 1, 69, 96
1, 66771, Note_on_c, 1, 61, 96
1, 66774, Note_off_c, 1, 61, 96
1, 66774, Note_on_c, 1, 79, 96
1, 66774, Note_on_c, 1, 49, 96
1, 66775, Note_off_c, 1, 79, 96
1, 66775, Note_off_c, 1, 49, 96
1, 66891, Note_on_c, 1, 78, 96
1, 66891, Note_on_c, 1, 69, 96
1, 66892, Note_off_c, 1, 78, 96
1, 66892, Note_off_c, 1, 69, 96
1, 67137, Note_on_c, 1, 76, 96
1, 67137, Note_on_c, 1, 62, 96
1, 67139, Note_off_c, 1, 76, 96
1, 67139, Note_off_c, 1, 62, 96
1, 67139, Note_on_c, 1, 66, 96
1, 67140, Note_off_c, 1, 66, 96
1, 67142, Note_on_c, 1, 69, 96
1, 67143, Note_off_c, 1, 69, 96
1, 67381, Note_on_c, 1, 74, 96
1, 67382, Note_off_c, 1, 74, 96
1, 67385, Note_on_c, 1, 66, 96
1, 67386, Note_off_c, 1, 66, 96
1, 67388, Note_on_c, 1, 69, 96
1, 67391, Note_off_c, 1, 69, 96
1, 67391, Note_on_c, 1, 77, 96
1, 67391, Note_on_c, 1, 62, 96
1, 67392, Note_off_c, 1, 77, 96
1, 67392, Note_off_c, 1, 62, 96
1, 67508, Note_on_c, 1, 66, 96
1, 67508, Note_on_c, 1, 50, 96
1, 67509, Note_off_c, 1, 66, 96
1, 67509, Note_off_c, 1, 50, 96
1, 67512, Note_on_c, 1, 60, 96
1, 67513, Note_off_c, 1, 60, 96
1, 67515, Note_on_c, 1, 54, 96
1, 67516, Note_off_c, 1, 54, 96
1, 67746, Note_on_c, 1, 70, 96
1, 67748, Note_off_c, 1, 70, 96
1, 67748, Note_on_c, 1, 62, 96
1, 67749, Note_off_c, 1, 62, 96
1, 67752, Note_on_c, 1, 79, 96
1, 67752, Note_on_c, 1, 67, 96
1, 67753, Note_off_c, 1, 79, 96
1, 67753, Note_off_c, 1, 67, 96
1, 67759, Note_on_c, 1, 59, 96
1, 67759, Note_on_c, 1, 55, 96
1, 67760, Note_off_c, 1, 59, 96
1, 67760, Note_off_c, 1, 55, 96
1, 67997, Note_on_c, 1, 55, 96
1, 67998, Note_off_c, 1, 55, 96
1, 68000, Note_on_c, 1, 65, 96
1, 68001, Note_off_c, 1, 65, 96
1, 68003, Note_on_c, 1, 43, 96
1, 68005, Note_off_c, 1, 43, 96
1, 68005, Note_on_c, 1, 71, 96
1, 68006, Note_off_c, 1, 71, 96
1, 68008, Note_on_c, 1, 76, 96
1, 68009, Note_off_c, 1, 76, 96
1, 68123, Note_on_c, 1, 78, 96
1, 68124, Note_off_c, 1, 78, 96
1, 68127, Note_on_c, 1, 73, 96
1, 68128, Note_off_c, 1, 73, 96
1, 68130, Note_on_c, 1, 40, 96
1, 68131, Note_off_c, 1, 40, 96
1, 68307, Note_on_c, 1, 75, 96
1, 68308, Note_off_c, 1, 75, 96
1, 68354, Note_on_c, 1, 74, 96
1, 68355, Note_off_c, 1, 74, 96
1, 68404, Note_on_c, 1, 54, 96
1, 68405, Note_off_c, 1, 54, 96
1, 68407, Note_on_c, 1, 71, 96
1, 68409, Note_off_c, 1, 71, 96
1, 68409, Note_on_c, 1, 81, 96
1, 68410, Note_off_c, 1, 81, 96
1, 68652, Note_on_c, 1, 57, 96
1, 68654, Note_off_c, 1, 57, 96
1, 68654, Note_on_c, 1, 62, 96
1, 68655, Note_off_c, 1, 62, 96
1, 68657, Note_on_c, 1, 66, 96
1, 68658, Note_off_c, 1, 66, 96
1, 68895, Note_on_c, 1, 66, 96
1, 68896, Note_off_c, 1, 66, 96
1, 68901, Note_on_c, 1, 72, 96
1, 68901, Note_on_c, 1, 62, 96
1, 68902, Note_off_c, 1, 72, 96
1, 68902, Note_off_c, 1, 62, 96
1, 69258, Note_on_c, 1, 73, 96
1, 69259, Note_off_c, 1, 73, 96
1, 69313, Note_on_c, 1, 57, 96
1, 69314, Note_off_c, 1, 57, 96
1, 69317, Note_on_c, 1, 69, 96
1, 69318, Note_off_c, 1, 69, 96
1, 69556, Note_on_c, 1, 72, 96
1, 69557, Note_off_c, 1, 72, 96
1, 69561, Note_on_c, 1, 54, 96
1, 69565, Note_off_c, 1, 54, 96
1, 69565, Note_on_c, 1, 66, 96
1, 69565, Note_on_c, 1, 60, 96
1, 69565, Note_on_c, 1, 57, 96
1, 69566, Note_off_c, 1, 66, 96
1, 69566, Note_off_c, 1, 60, 96
1, 69566, Note_off_c, 1, 57, 96
1, 69806, Note_on_c, 1, 66, 96
1, 69807, Note_off_c, 1, 66, 96
1, 69811, Note_on_c, 1, 50, 96
1, 69811, Note_on_c, 1, 54, 96
1, 69813, Note_off_c, 1, 50, 96
1, 69813, Note_off_c, 1, 54, 96
1, 69813, Note_on_c, 1, 60, 96
1, 69814, Note_off_c, 1, 60, 96
1, 70046, Note_on_c, 1, 60, 96
1, 70047, Note_off_c, 1, 60, 96
1, 70049, Note_on_c, 1, 54, 96
1, 70050, Note_off_c, 1, 54, 96
1, 70053, Note_on_c, 1, 69, 96
1, 70054, Note_off_c, 1, 69, 96
1, 70169, Note_on_c, 1, 38, 96
1, 70170, Note_off_c, 1, 38, 96
1, 70413, Note_on_c, 1, 66, 96
1, 70414, Note_off_c, 1, 66, 96
1, 70417, Note_on_c, 1, 62, 96
1, 70418, Note_off_c, 1, 62, 96
1, 70664, Note_on_c, 1, 62, 96
1, 70664, Note_on_c, 1, 50, 96
1, 70665, Note_off_c, 1, 62, 96
1, 70665, Note_off_c, 1, 50, 96
1, 70779, Note_on_c, 1, 64, 96
1, 70779, Note_on_c, 1, 66, 96
1, 70780, Note_off_c, 1, 64, 96
1, 70780, Note_off_c, 1, 66, 96
1, 70840, Note_on_c, 1, 61, 96
1, 70841, Note_off_c, 1, 61, 96
1, 70844, Note_on_c, 1, 67, 96
1, 70845, Note_off_c, 1, 67, 96
1, 70951, Note_on_c, 1, 67, 96
1, 70953, Note_off_c, 1, 67, 96
1, 70953, Note_on_c, 1, 45, 96
1, 70954, Note_off_c, 1, 45, 96
1, 71195, Note_on_c, 1, 71, 96
1, 71197, Note_off_c, 1, 71, 96
1, 71197, Note_on_c, 1, 69, 96
1, 71198, Note_off_c, 1, 69, 96
1, 71201, Note_on_c, 1, 74, 96
1, 71201, Note_on_c, 1, 54, 96
1, 71203, Note_off_c, 1, 74, 96
1, 71203, Note_off_c, 1, 54, 96
1, 71203, Note_on_c, 1, 50, 96
1, 71204, Note_off_c, 1, 50, 96
1, 71207, Note_on_c, 1, 60, 96
1, 71208, Note_off_c, 1, 60, 96
1, 71440, Note_on_c, 1, 54, 96
1, 71442, Note_off_c, 1, 54, 96
1, 71442, Note_on_c, 1, 62, 96
1, 71444, Note_off_c, 1, 62, 96
1, 71444, Note_on_c, 1, 66, 96
1, 71445, Note_off_c, 1, 66, 96
1, 71450, Note_on_c, 1, 60, 96
1, 71452, Note_off_c, 1, 60, 96
1, 71452, Note_on_c, 1, 45, 96
1, 71453, Note_off_c, 1, 45, 96
1, 71688, Note_on_c, 1, 52, 96
1, 71689, Note_off_c, 1, 52, 96
1, 71693, Note_on_c, 1, 40, 96
1, 71694, Note_off_c, 1, 40, 96
1, 71876, Note_on_c, 1, 73, 96
1, 71877, Note_off_c, 1, 73, 96
1, 71930, Note_on_c, 1, 59, 96
1, 71931, Note_off_c, 1, 59, 96
1, 71935, Note_on_c, 1, 69, 96
1, 71937, Note_off_c, 1, 69, 96
1, 71937, Note_on_c, 1, 54, 96
1, 71939, Note_off_c, 1, 54, 96
1, 71939, Note_on_c, 1, 62, 96
1, 71940, Note_off_c, 1, 62, 96
1, 72115, Note_on_c, 1, 71, 96
1, 72115, Note_on_c, 1, 59, 96
1, 72116, Note_off_c, 1, 71, 96
1, 72116, Note_off_c, 1, 59, 96
1, 72118, Note_on_c, 1, 62, 96
1, 72119, Note_off_c, 1, 62, 96
1, 72179, Note_on_c, 1, 67, 96
1, 72180, Note_off_c, 1, 67, 96
1, 72183, Note_on_c, 1, 73, 96
1, 72184, Note_off_c, 1, 73, 96
1, 72295, Note_on_c, 1, 67, 96
1, 72296, Note_off_c, 1, 67, 96
1, 72416, Note_on_c, 1, 64, 96
1, 72417, Note_off_c, 1, 64, 96
1, 72474, Note_on_c, 1, 66, 96
1, 72475, Note_off_c, 1, 66, 96
1, 72477, Note_on_c, 1, 69, 96
1, 72478, Note_off_c, 1, 69, 96
1, 72594, Note_on_c, 1, 77, 96
1, 72596, Note_off_c, 1, 77, 96
1, 72596, Note_on_c, 1, 59, 96
1, 72597, Note_off_c, 1, 59, 96
1, 72601, Note_on_c, 1, 71, 96
1, 72601, Note_on_c, 1, 74, 96
1, 72602, Note_off_c, 1, 71, 96
1, 72602, Note_off_c, 1, 74, 96
1, 72607, Note_on_c, 1, 55, 96
1, 72608, Note_off_c, 1, 55, 96
1, 72719, Note_on_c, 1, 79, 96
1, 72721, Note_off_c, 1, 79, 96
1, 72721, Note_on_c, 1, 59, 96
1, 72722, Note_off_c, 1, 59, 96
1, 72726, Note_on_c, 1, 50, 96
1, 72727, Note_off_c, 1, 50, 96
1, 72729, Note_on_c, 1, 55, 96
1, 72730, Note_off_c, 1, 55, 96
1, 72964, Note_on_c, 1, 77, 96
1, 72965, Note_off_c, 1, 77, 96
1, 72969, Note_on_c, 1, 71, 96
1, 72969, Note_on_c, 1, 81, 96
1, 72970, Note_off_c, 1, 71, 96
1, 72970, Note_off_c, 1, 81, 96
1, 73207, Note_on_c, 1, 81, 96
1, 73207, Note_on_c, 1, 43, 96
1, 73211, Note_off_c, 1, 81, 96
1, 73211, Note_off_c, 1, 43, 96
1, 73211, Note_on_c, 1, 86, 96
1, 73211, Note_on_c, 1, 77, 96
1, 73211, Note_on_c, 1, 74, 96
1, 73212, Note_off_c, 1, 86, 96
1, 73212, Note_off_c, 1, 77, 96
1, 73212, Note_off_c, 1, 74, 96
1, 73336, Note_on_c, 1, 37, 96
1, 73338, Note_off_c, 1, 37, 96
1, 73338, Note_on_c, 1, 49, 96
1, 73339, Note_off_c, 1, 49, 96
1, 73455, Note_on_c, 1, 55, 96
1, 73456, Note_off_c, 1, 55, 96
1, 73458, Note_on_c, 1, 79, 96
1, 73461, Note_off_c, 1, 79, 96
1, 73461, Note_on_c, 1, 67, 96
1, 73461, Note_on_c, 1, 59, 96
1, 73462, Note_off_c, 1, 67, 96
1, 73462, Note_off_c, 1, 59, 96
1, 73517, Note_on_c, 1, 83, 96
1, 73518, Note_off_c, 1, 83, 96
1, 73577, Note_on_c, 1, 43, 96
1, 73578, Note_off_c, 1, 43, 96
1, 73582, Note_on_c, 1, 86, 96
1, 73582, Note_on_c, 1, 74, 96
1, 73583, Note_off_c, 1, 86, 96
1, 73583, Note_off_c, 1, 74, 96
1, 73646, Note_on_c, 1, 71, 96
1, 73646, Note_on_c, 1, 74, 96
1, 73649, Note_off_c, 1, 71, 96
1, 73649, Note_off_c, 1, 74, 96
1, 73649, Note_on_c, 1, 77, 96
1, 73649, Note_on_c, 1, 81, 96
1, 73650, Note_off_c, 1, 77, 96
1, 73650, Note_off_c, 1, 81, 96
1, 73705, Note_on_c, 1, 62, 96
1, 73707, Note_off_c, 1, 62, 96
1, 73707, Note_on_c, 1, 57, 96
1, 73708, Note_off_c, 1, 57, 96
1, 73714, Note_on_c, 1, 65, 96
1, 73714, Note_on_c, 1, 53, 96
1, 73715, Note_off_c, 1, 65, 96
1, 73715, Note_off_c, 1, 53, 96
1, 73834, Note_on_c, 1, 60, 96
1, 73834, Note_on_c, 1, 72, 96
1, 73834, Note_on_c, 1, 62, 96
1, 73835, Note_off_c, 1, 60, 96
1, 73835, Note_off_c, 1, 72, 96
1, 73835, Note_off_c, 1, 62, 96
1, 73838, Note_on_c, 1, 69, 96
1, 73839, Note_off_c, 1, 69, 96
1, 73897, Note_on_c, 1, 67, 96
1, 73897, Note_on_c, 1, 76, 96
1, 73898, Note_off_c, 1, 67, 96
1, 73898, Note_off_c, 1, 76, 96
1, 73901, Note_on_c, 1, 71, 96
1, 73903, Note_off_c, 1, 71, 96
1, 73903, Note_on_c, 1, 80, 96
1, 73904, Note_off_c, 1, 80, 96
1, 74021, Note_on_c, 1, 74, 96
1, 74023, Note_off_c, 1, 74, 96
1, 74023, Note_on_c, 1, 62, 96
1, 74024, Note_off_c, 1, 62, 96
1, 74029, Note_on_c, 1, 71, 96
1, 74030, Note_off_c, 1, 71, 96
1, 74088, Note_on_c, 1, 71, 96
1, 74089, Note_off_c, 1, 71, 96
1, 74092, Note_on_c, 1, 77, 96
1, 74093, Note_off_c, 1, 77, 96
1, 74147, Note_on_c, 1, 77, 96
1, 74148, Note_off_c, 1, 77, 96
1, 74150, Note_on_c, 1, 49, 96
1, 74151, Note_off_c, 1, 49, 96
1, 74209, Note_on_c, 1, 45, 96
1, 74210, Note_off_c, 1, 45, 96
1, 74214, Note_on_c, 1, 81, 96
1, 74215, Note_off_c, 1, 81, 96
1, 74218, Note_on_c, 1, 69, 96
1, 74219, Note_off_c, 1, 69, 96
1, 74221, Note_on_c, 1, 76, 96
1, 74222, Note_off_c, 1, 76, 96
1, 74336, Note_on_c, 1, 57, 96
1, 74337, Note_off_c, 1, 57, 96
1, 74340, Note_on_c, 1, 67, 96
1, 74343, Note_off_c, 1, 67, 96
1, 74343, Note_on_c, 1, 76, 96
1, 74343, Note_on_c, 1, 61, 96
1, 74344, Note_off_c, 1, 76, 96
1, 74344, Note_off_c, 1, 61, 96
1, 74462, Note_on_c, 1, 54, 96
1, 74463, Note_off_c, 1, 54, 96
1, 74467, Note_on_c, 1, 66, 96
1, 74467, Note_on_c, 1, 74, 96
1, 74468, Note_off_c, 1, 66, 96
1, 74468, Note_off_c, 1, 74, 96
1, 74472, Note_on_c, 1, 57, 96
1, 74473, Note_off_c, 1, 57, 96
1, 74475, Note_on_c, 1, 83, 96
1, 74476, Note_off_c, 1, 83, 96
1, 74594, Note_on_c, 1, 76, 96
1, 74597, Note_off_c, 1, 76, 96
1, 74597, Note_on_c, 1, 38, 96
1, 74597, Note_on_c, 1, 50, 96
1, 74598, Note_off_c, 1, 38, 96
1, 74598, Note_off_c, 1, 50, 96
1, 74713, Note_on_c, 1, 80, 96
1, 74714, Note_off_c, 1, 80, 96
1, 74835, Note_on_c, 1, 76, 96
1, 74836, Note_off_c, 1, 76, 96
1, 74857, Note_on_c, 1, 66, 96
1, 74858, Note_off_c, 1, 66, 96
1, 74897, Note_on_c, 1, 78, 96
1, 74897, Note_on_c, 1, 45, 96
1, 74898, Note_off_c, 1, 78, 96
1, 74898, Note_off_c, 1, 45, 96
1, 74980, Note_on_c, 1, 78, 96
1, 74984, Note_off_c, 1, 78, 96
1, 74984, Note_on_c, 1, 72, 96
1, 74984, Note_on_c, 1, 66, 96
1, 74984, Note_on_c, 1, 62, 96
1, 74985, Note_off_c, 1, 72, 96
1, 74985, Note_off_c, 1, 66, 96
1, 74985, Note_off_c, 1, 62, 96
1, 75164, Note_on_c, 1, 69, 96
1, 75165, Note_off_c, 1, 69, 96
1, 75226, Note_on_c, 1, 62, 96
1, 75227, Note_off_c, 1, 62, 96
1, 75230, Note_on_c, 1, 50, 96
1, 75231, Note_off_c, 1, 50, 96
1, 75344, Note_on_c, 1, 54, 96
1, 75346, Note_off_c, 1, 54, 96
1, 75346, Note_on_c, 1, 57, 96
1, 75347, Note_off_c, 1, 57, 96
1, 75350, Note_on_c, 1, 66, 96
1, 75352, Note_off_c, 1, 66, 96
1, 75352, Note_on_c, 1, 62, 96
1, 75353, Note_off_c, 1, 62, 96
1, 75471, Note_on_c, 1, 64, 96
1, 75472, Note_off_c, 1, 64, 96
1, 75476, Note_on_c, 1, 59, 96
1, 75477, Note_off_c, 1, 59, 96
1, 75532, Note_on_c, 1, 63, 96
1, 75532, Note_on_c, 1, 66, 96
1, 75534, Note_off_c, 1, 63, 96
1, 75534, Note_off_c, 1, 66, 96
1, 75534, Note_on_c, 1, 59, 96
1, 75536, Note_off_c, 1, 59, 96
1, 75536, Note_on_c, 1, 63, 96
1, 75537, Note_off_c, 1, 63, 96
1, 75539, Note_on_c, 1, 56, 96
1, 75540, Note_off_c, 1, 56, 96
1, 75656, Note_on_c, 1, 59, 96
1, 75657, Note_off_c, 1, 59, 96
1, 75662, Note_on_c, 1, 62, 96
1, 75663, Note_off_c, 1, 62, 96
1, 75780, Note_on_c, 1, 57, 96
1, 75781, Note_off_c, 1, 57, 96
1, 75783, Note_on_c, 1, 66, 96
1, 75784, Note_off_c, 1, 66, 96
1, 75841, Note_on_c, 1, 57, 96
1, 75842, Note_off_c, 1, 57, 96
1, 76027, Note_on_c, 1, 62, 96
1, 76029, Note_off_c, 1, 62, 96
1, 76029, Note_on_c, 1, 42, 96
1, 76030, Note_off_c, 1, 42, 96
1, 76032, Note_on_c, 1, 54, 96
1, 76033, Note_off_c, 1, 54, 96
1, 76154, Note_on_c, 1, 47, 96
1, 76155, Note_off_c, 1, 47, 96
1, 76327, Note_on_c, 1, 52, 96
1, 76328, Note_off_c, 1, 52, 96
1, 76380, Note_on_c, 1, 57, 96
1, 76381, Note_off_c, 1, 57, 96
1, 76437, Note_on_c, 1, 40, 96
1, 76438, Note_off_c, 1, 40, 96
1, 76442, Note_on_c, 1, 69, 96
1, 76443, Note_off_c, 1, 69, 96
1, 76445, Note_on_c, 1, 57, 96
1, 76446, Note_off_c, 1, 57, 96
1, 76503, Note_on_c, 1, 66, 96
1, 76506, Note_off_c, 1, 66, 96
1, 76506, Note_on_c, 1, 57, 96
1, 76506, Note_on_c, 1, 62, 96
1, 76507, Note_off_c, 1, 57, 96
1, 76507, Note_off_c, 1, 62, 96
1, 76683, Note_on_c, 1, 67, 96
1, 76684, Note_off_c, 1, 67, 96
1, 76686, Note_on_c, 1, 62, 96
1, 76687, Note_off_c, 1, 62, 96
1, 76745, Note_on_c, 1, 61, 96
1, 76745, Note_on_c, 1, 76, 96
1, 76746, Note_off_c, 1, 61, 96
1, 76746, Note_off_c, 1, 76, 96
1, 76808, Note_on_c, 1, 64, 96
1, 76809, Note_off_c, 1, 64, 96
1, 76869, Note_on_c, 1, 56, 96
1, 76870, Note_off_c, 1, 56, 96
1, 76873, Note_on_c, 1, 64, 96
1, 76873, Note_on_c, 1, 68, 96
1, 76874, Note_off_c, 1, 64, 96
1, 76874, Note_off_c, 1, 68, 96
1, 76933, Note_on_c, 1, 69, 96
1, 76934, Note_off_c, 1, 69, 96
1, 76995, Note_on_c, 1, 59, 96
1, 76995, Note_on_c, 1, 47, 96
1, 76997, Note_off_c, 1, 59, 96
1, 76997, Note_off_c, 1, 47, 96
1, 76997, Note_on_c, 1, 71, 96
1, 76998, Note_off_c, 1, 71, 96
1, 77062, Note_on_c, 1, 71, 96
1, 77062, Note_on_c, 1, 67, 96
1, 77063, Note_off_c, 1, 71, 96
1, 77063, Note_off_c, 1, 67, 96
1, 77119, Note_on_c, 1, 40, 96
1, 77120, Note_off_c, 1, 40, 96
1, 77178, Note_on_c, 1, 52, 96
1, 77179, Note_off_c, 1, 52, 96
1, 77182, Note_on_c, 1, 62, 96
1, 77182, Note_on_c, 1, 59, 96
1, 77185, Note_off_c, 1, 62, 96
1, 77185, Note_off_c, 1, 59, 96
1, 77185, Note_on_c, 1, 62, 96
1, 77185, Note_on_c, 1, 64, 96
1, 77187, Note_off_c, 1, 62, 96
1, 77187, Note_off_c, 1, 64, 96
1, 77187, Note_on_c, 1, 73, 96
1, 77188, Note_off_c, 1, 73, 96
1, 77190, Note_on_c, 1, 56, 96
1, 77191, Note_off_c, 1, 56, 96
1, 77244, Note_on_c, 1, 69, 96
1, 77245, Note_off_c, 1, 69, 96
1, 77308, Note_on_c, 1, 62, 96
1, 77308, Note_on_c, 1, 66, 96
1, 77309, Note_off_c, 1, 62, 96
1, 77309, Note_off_c, 1, 66, 96
1, 77314, Note_on_c, 1, 74, 96
1, 77314, Note_on_c, 1, 57, 96
1, 77315, Note_off_c, 1, 74, 96
1, 77315, Note_off_c, 1, 57, 96
1, 77372, Note_on_c, 1, 67, 96
1, 77374, Note_off_c, 1, 67, 96
1, 77374, Note_on_c, 1, 61, 96
1, 77375, Note_off_c, 1, 61, 96
1, 77378, Note_on_c, 1, 45, 96
1, 77379, Note_off_c, 1, 45, 96
1, 77620, Note_on_c, 1, 57, 96
1, 77620, Note_on_c, 1, 60, 96
1, 77623, Note_off_c, 1, 57, 96
1, 77623, Note_off_c, 1, 60, 96
1, 77623, Note_on_c, 1, 64, 96
1, 77623, Note_on_c, 1, 45, 96
1, 77624, Note_off_c, 1, 64, 96
1, 77624, Note_off_c, 1, 45, 96
1, 77627, Note_on_c, 1, 50, 96
1, 77628, Note_off_c, 1, 50, 96
1, 77859, Note_on_c, 1, 57, 96
1, 77860, Note_off_c, 1, 57, 96
1, 77865, Note_on_c, 1, 64, 96
1, 77865, Note_on_c, 1, 55, 96
1, 77867, Note_off_c, 1, 64, 96
1, 77867, Note_off_c, 1, 55, 96
1, 77867, Note_on_c, 1, 69, 96
1, 77869, Note_off_c, 1, 69, 96
1, 77869, Note_on_c, 1, 61, 96
1, 77870, Note_off_c, 1, 61, 96
1, 77872, Note_on_c, 1, 45, 96
1, 77873, Note_off_c, 1, 45, 96
1, 78110, Note_on_c, 1, 61, 96
1, 78113, Note_off_c, 1, 61, 96
1, 78113, Note_on_c, 1, 57, 96
1, 78113, Note_on_c, 1, 45, 96
1, 78114, Note_off_c, 1, 57, 96
1, 78114, Note_off_c, 1, 45, 96
1, 78235, Note_on_c, 1, 64, 96
1, 78235, Note_on_c, 1, 61, 96
1, 78236, Note_off_c, 1, 64, 96
1, 78236, Note_off_c, 1, 61, 96
1, 78354, Note_on_c, 1, 61, 96
1, 78355, Note_off_c, 1, 61, 96
1, 78358, Note_on_c, 1, 64, 96
1, 78359, Note_off_c, 1, 64, 96
1, 78476, Note_on_c, 1, 57, 96
1, 78480, Note_off_c, 1, 57, 96
1, 78480, Note_on_c, 1, 71, 96
1, 78480, Note_on_c, 1, 55, 96
1, 78480, Note_on_c, 1, 61, 96
1, 78481, Note_off_c, 1, 71, 96
1, 78481, Note_off_c, 1, 55, 96
1, 78481, Note_off_c, 1, 61, 96
1, 78485, Note_on_c, 1, 48, 96
1, 78486, Note_off_c, 1, 48, 96
1, 78962, Note_on_c, 1, 68, 96
1, 78964, Note_off_c, 1, 68, 96
1, 78964, Note_on_c, 1, 76, 96
1, 78965, Note_off_c, 1, 76, 96
1, 78967, Note_on_c, 1, 68, 96
1, 78968, Note_off_c, 1, 68, 96
1, 79016, Note_on_c, 1, 41, 96
1, 79017, Note_off_c, 1, 41, 96
1, 79033, Note_on_c, 1, 81, 96
1, 79034, Note_off_c, 1, 81, 96
1, 79036, Note_on_c, 1, 57, 96
1, 79037, Note_off_c, 1, 57, 96
1, 79040, Note_on_c, 1, 69, 96
1, 79040, Note_on_c, 1, 77, 96
1, 79041, Note_off_c, 1, 69, 96
1, 79041, Note_off_c, 1, 77, 96
1, 79137, Note_on_c, 1, 76, 96
1, 79137, Note_on_c, 1, 57, 96
1, 79137, Note_on_c, 1, 64, 96
1, 79139, Note_off_c, 1, 76, 96
1, 79139, Note_off_c, 1, 57, 96
1, 79139, Note_off_c, 1, 64, 96
1, 79139, Note_on_c, 1, 67, 96
1, 79140, Note_off_c, 1, 67, 96
1, 79375, Note_on_c, 1, 78, 96
1, 79376, Note_off_c, 1, 78, 96
1, 79394, Note_on_c, 1, 45, 96
1, 79395, Note_off_c, 1, 45, 96
1, 79569, Note_on_c, 1, 76, 96
1, 79570, Note_off_c, 1, 76, 96
1, 79574, Note_on_c, 1, 40, 96
1, 79575, Note_off_c, 1, 40, 96
1, 79622, Note_on_c, 1, 59, 96
1, 79623, Note_off_c, 1, 59, 96
1, 79646, Note_on_c, 1, 54, 96
1, 79648, Note_off_c, 1, 54, 96
1, 79648, Note_on_c, 1, 58, 96
1, 79649, Note_off_c, 1, 58, 96
1, 79691, Note_on_c, 1, 78, 96
1, 79692, Note_off_c, 1, 78, 96
1, 79870, Note_on_c, 1, 76, 96
1, 79871, Note_off_c, 1, 76, 96
1, 80121, Note_on_c, 1, 47, 96
1, 80121, Note_on_c, 1, 35, 96
1, 80122, Note_off_c, 1, 47, 96
1, 80122, Note_off_c, 1, 35, 96
1, 80134, Note_on_c, 1, 74, 96
1, 80135, Note_off_c, 1, 74, 96
1, 80316, Note_on_c, 1, 47, 96
1, 80317, Note_off_c, 1, 47, 96
1, 80633, Note_on_c, 1, 44, 96
1, 80634, Note_off_c, 1, 44, 96
1, 80645, Note_on_c, 1, 56, 96
1, 80646, Note_off_c, 1, 56, 96
1, 80650, Note_on_c, 1, 62, 96
1, 80651, Note_off_c, 1, 62, 96
1, 80842, Note_on_c, 1, 71, 96
1, 80843, Note_off_c, 1, 71, 96
1, 81210, Note_on_c, 1, 59, 96
1, 81210, Note_on_c, 1, 62, 96
1, 81211, Note_off_c, 1, 59, 96
1, 81211, Note_off_c, 1, 62, 96
1, 81386, Note_on_c, 1, 40, 96
1, 81387, Note_off_c, 1, 40, 96
1, 81442, Note_on_c, 1, 67, 96
1, 81442, Note_on_c, 1, 71, 96
1, 81442, Note_on_c, 1, 76, 96
1, 81442, Note_on_c, 1, 59, 96
1, 81442, Note_on_c, 1, 52, 96
1, 81442, Note_on_c, 1, 43, 96
1, 81443, Note_off_c, 1, 67, 96
1, 81443, Note_off_c, 1, 71, 96
1, 81443, Note_off_c, 1, 76, 96
1, 81443, Note_off_c, 1, 59, 96
1, 81443, Note_off_c, 1, 52, 96
1, 81443, Note_off_c, 1, 43, 96
1, 81505, Note_on_c, 1, 75, 96
1, 81505, Note_on_c, 1, 81, 96
1, 81505, Note_on_c, 1, 69, 96
1, 81506, Note_off_c, 1, 75, 96
1, 81506, Note_off_c, 1, 81, 96
1, 81506, Note_off_c, 1, 69, 96
1, 81555, Note_on_c, 1, 44, 96
1, 81555, Note_on_c, 1, 32, 96
1, 81556, Note_off_c, 1, 44, 96
1, 81556, Note_off_c, 1, 32, 96
1, 81606, Note_on_c, 1, 74, 96
1, 81606, Note_on_c, 1, 77, 96
1, 81606, Note_on_c, 1, 65, 96
1, 81607, Note_off_c, 1, 74, 96
1, 81607, Note_off_c, 1, 77, 96
1, 81607, Note_off_c, 1, 65, 96
1, 81658, Note_on_c, 1, 81, 96
1, 81658, Note_on_c, 1, 69, 96
1, 81658, Note_on_c, 1, 62, 96
1, 81658, Note_on_c, 1, 65, 96
1, 81659, Note_off_c, 1, 81, 96
1, 81659, Note_off_c, 1, 69, 96
1, 81659, Note_off_c, 1, 62, 96
1, 81659, Note_off_c, 1, 65, 96
1, 81903, Note_on_c, 1, 76, 96
1, 81903, Note_on_c, 1, 79, 96
1, 81903, Note_on_c, 1, 40, 96
1, 81903, Note_on_c, 1, 28, 96
1, 81904, Note_off_c, 1, 76, 96
1, 81904, Note_off_c, 1, 79, 96
1, 81904, Note_off_c, 1, 40, 96
1, 81904, Note_off_c, 1, 28, 96
1, 82143, Note_on_c, 1, 70, 96
1, 82143, Note_on_c, 1, 41, 96
1, 82144, Note_off_c, 1, 70, 96
1, 82144, Note_off_c, 1, 41, 96
1, 82147, Note_on_c, 1, 53, 96
1, 82147, Note_on_c, 1, 29, 96
1, 82148, Note_off_c, 1, 53, 96
1, 82148, Note_off_c, 1, 29, 96
1, 82246, Note_on_c, 1, 55, 96
1, 82246, Note_on_c, 1, 43, 96
1, 82247, Note_off_c, 1, 55, 96
1, 82247, Note_off_c, 1, 43, 96
1, 82344, Note_on_c, 1, 55, 96
1, 82344, Note_on_c, 1, 58, 96
1, 82345, Note_off_c, 1, 55, 96
1, 82345, Note_off_c, 1, 58, 96
1, 82394, Note_on_c, 1, 65, 96
1, 82394, Note_on_c, 1, 41, 96
1, 82395, Note_off_c, 1, 65, 96
1, 82395, Note_off_c, 1, 41, 96
1, 82491, Note_on_c, 1, 47, 96
1, 82492, Note_off_c, 1, 47, 96
1, 83155, Note_on_c, 1, 62, 96
1, 83155, Note_on_c, 1, 69, 96
1, 83156, Note_off_c, 1, 62, 96
1, 83156, Note_off_c, 1, 69, 96
1, 83372, Note_on_c, 1, 74, 96
1, 83372, Note_on_c, 1, 70, 96
1, 83372, Note_on_c, 1, 53, 96
1, 83373, Note_off_c, 1, 74, 96
1, 83373, Note_off_c, 1, 70, 96
1, 83373, Note_off_c, 1, 53, 96
1, 83531, Note_on_c, 1, 65, 96
1, 83531, Note_on_c, 1, 68, 96
1, 83531, Note_on_c, 1, 59, 96
1, 83532, Note_off_c, 1, 65, 96
1, 83532, Note_off_c, 1, 68, 96
1, 83532, Note_off_c, 1, 59, 96
1, 83826, Note_on_c, 1, 69, 96
1, 83827, Note_off_c, 1, 69, 96
1, 84016, Note_on_c, 1, 46, 96
1, 84017, Note_off_c, 1, 46, 96
1, 84116, Note_on_c, 1, 72, 96
1, 84116, Note_on_c, 1, 65, 96
1, 84116, Note_on_c, 1, 63, 96
1, 84117, Note_off_c, 1, 72, 96
1, 84117, Note_off_c, 1, 65, 96
1, 84117, Note_off_c, 1, 63, 96
1, 84273, Note_on_c, 1, 69, 96
1, 84273, Note_on_c, 1, 53, 96
1, 84274, Note_off_c, 1, 69, 96
1, 84274, Note_off_c, 1, 53, 96
1, 84322, Note_on_c, 1, 69, 96
1, 84322, Note_on_c, 1, 72, 96
1, 84323, Note_off_c, 1, 69, 96
1, 84323, Note_off_c, 1, 72, 96
1, 84371, Note_on_c, 1, 39, 96
1, 84372, Note_off_c, 1, 39, 96
1, 84421, Note_on_c, 1, 72, 96
1, 84421, Note_on_c, 1, 57, 96
1, 84422, Note_off_c, 1, 72, 96
1, 84422, Note_off_c, 1, 57, 96
1, 84472, Note_on_c, 1, 65, 96
1, 84472, Note_on_c, 1, 62, 96
1, 84472, Note_on_c, 1, 58, 96
1, 84473, Note_off_c, 1, 65, 96
1, 84473, Note_off_c, 1, 62, 96
1, 84473, Note_off_c, 1, 58, 96
1, 84521, Note_on_c, 1, 69, 96
1, 84522, Note_off_c, 1, 69, 96
1, 84572, Note_on_c, 1, 65, 96
1, 84572, Note_on_c, 1, 58, 96
1, 84572, Note_on_c, 1, 55, 96
1, 84573, Note_off_c, 1, 65, 96
1, 84573, Note_off_c, 1, 58, 96
1, 84573, Note_off_c, 1, 55, 96
1, 84621, Note_on_c, 1, 72, 96
1, 84622, Note_off_c, 1, 72, 96
1, 84673, Note_on_c, 1, 74, 96
1, 84673, Note_on_c, 1, 53, 96
1, 84673, Note_on_c, 1, 58, 96
1, 84673, Note_on_c, 1, 62, 96
1, 84674, Note_off_c, 1, 74, 96
1, 84674, Note_off_c, 1, 53, 96
1, 84674, Note_off_c, 1, 58, 96
1, 84674, Note_off_c, 1, 62, 96
1, 84771, Note_on_c, 1, 53, 96
1, 84771, Note_on_c, 1, 41, 96
1, 84772, Note_off_c, 1, 53, 96
1, 84772, Note_off_c, 1, 41, 96
1, 84868, Note_on_c, 1, 45, 96
1, 84869, Note_off_c, 1, 45, 96
1, 84919, Note_on_c, 1, 61, 96
1, 84919, Note_on_c, 1, 57, 96
1, 84919, Note_on_c, 1, 53, 96
1, 84920, Note_off_c, 1, 61, 96
1, 84920, Note_off_c, 1, 57, 96
1, 84920, Note_off_c, 1, 53, 96
1, 85017, Note_on_c, 1, 53, 96
1, 85017, Note_on_c, 1, 41, 96
1, 85018, Note_off_c, 1, 53, 96
1, 85018, Note_off_c, 1, 41, 96
1, 85066, Note_on_c, 1, 69, 96
1, 85067, Note_off_c, 1, 69, 96
1, 85116, Note_on_c, 1, 74, 96
1, 85116, Note_on_c, 1, 46, 96
1, 85117, Note_off_c, 1, 74, 96
1, 85117, Note_off_c, 1, 46, 96
1, 85165, Note_on_c, 1, 74, 96
1, 85166, Note_off_c, 1, 74, 96
1, 85217, Note_on_c, 1, 65, 96
1, 85217, Note_on_c, 1, 58, 96
1, 85217, Note_on_c, 1, 62, 96
1, 85217, Note_on_c, 1, 55, 96
1, 85218, Note_off_c, 1, 65, 96
1, 85218, Note_off_c, 1, 58, 96
1, 85218, Note_off_c, 1, 62, 96
1, 85218, Note_off_c, 1, 55, 96
1, 85268, Note_on_c, 1, 62, 96
1, 85268, Note_on_c, 1, 68, 96
1, 85268, Note_on_c, 1, 70, 96
1, 85269, Note_off_c, 1, 62, 96
1, 85269, Note_off_c, 1, 68, 96
1, 85269, Note_off_c, 1, 70, 96
1, 85317, Note_on_c, 1, 53, 96
1, 85318, Note_off_c, 1, 53, 96
1, 85366, Note_on_c, 1, 68, 96
1, 85367, Note_off_c, 1, 68, 96
1, 85417, Note_on_c, 1, 65, 96
1, 85417, Note_on_c, 1, 62, 96
1, 85417, Note_on_c, 1, 58, 96
1, 85418, Note_off_c, 1, 65, 96
1, 85418, Note_off_c, 1, 62, 96
1, 85418, Note_off_c, 1, 58, 96
1, 85466, Note_on_c, 1, 67, 96
1, 85467, Note_off_c, 1, 67, 96
1, 85517, Note_on_c, 1, 62, 96
1, 85517, Note_on_c, 1, 58, 96
1, 85517, Note_on_c, 1, 53, 96
1, 85518, Note_off_c, 1, 62, 96
1, 85518, Note_off_c, 1, 58, 96
1, 85518, Note_off_c, 1, 53, 96
1, 85617, Note_on_c, 1, 77, 96
1, 85617, Note_on_c, 1, 73, 96
1, 85617, Note_on_c, 1, 55, 96
1, 85617, Note_on_c, 1, 64, 96
1, 85618, Note_off_c, 1, 77, 96
1, 85618, Note_off_c, 1, 73, 96
1, 85618, Note_off_c, 1, 55, 96
1, 85618, Note_off_c, 1, 64, 96
1, 85666, Note_on_c, 1, 76, 96
1, 85667, Note_off_c, 1, 76, 96
1, 85717, Note_on_c, 1, 79, 96
1, 85717, Note_on_c, 1, 58, 96
1, 85717, Note_on_c, 1, 62, 96
1, 85718, Note_off_c, 1, 79, 96
1, 85718, Note_off_c, 1, 58, 96
1, 85718, Note_off_c, 1, 62, 96
1, 85741, Note_on_c, 1, 76, 96
1, 85742, Note_off_c, 1, 76, 96
1, 85766, Note_on_c, 1, 63, 96
1, 85767, Note_off_c, 1, 63, 96
1, 85792, Note_on_c, 1, 77, 96
1, 85792, Note_on_c, 1, 65, 96
1, 85793, Note_off_c, 1, 77, 96
1, 85793, Note_off_c, 1, 65, 96
1, 85817, Note_on_c, 1, 48, 96
1, 85818, Note_off_c, 1, 48, 96
1, 85842, Note_on_c, 1, 77, 96
1, 85843, Note_off_c, 1, 77, 96
1, 85871, Note_on_c, 1, 69, 96
1, 85871, Note_on_c, 1, 75, 96
1, 85871, Note_on_c, 1, 53, 96
1, 85871, Note_on_c, 1, 57, 96
1, 85871, Note_on_c, 1, 63, 96
1, 85872, Note_off_c, 1, 69, 96
1, 85872, Note_off_c, 1, 75, 96
1, 85872, Note_off_c, 1, 53, 96
1, 85872, Note_off_c, 1, 57, 96
1, 85872, Note_off_c, 1, 63, 96
1, 85896, Note_on_c, 1, 81, 96
1, 85897, Note_off_c, 1, 81, 96
1, 85924, Note_on_c, 1, 79, 96
1, 85924, Note_on_c, 1, 59, 96
1, 85924, Note_on_c, 1, 65, 96
1, 85924, Note_on_c, 1, 62, 96
1, 85925, Note_off_c, 1, 79, 96
1, 85925, Note_off_c, 1, 59, 96
1, 85925, Note_off_c, 1, 65, 96
1, 85925, Note_off_c, 1, 62, 96
1, 85976, Note_on_c, 1, 75, 96
1, 85976, Note_on_c, 1, 55, 96
1, 85976, Note_on_c, 1, 59, 96
1, 85976, Note_on_c, 1, 53, 96
1, 85977, Note_off_c, 1, 75, 96
1, 85977, Note_off_c, 1, 55, 96
1, 85977, Note_off_c, 1, 59, 96
1, 85977, Note_off_c, 1, 53, 96
1, 86025, Note_on_c, 1, 49, 96
1, 86026, Note_off_c, 1, 49, 96
1, 86077, Note_on_c, 1, 72, 96
1, 86077, Note_on_c, 1, 65, 96
1, 86077, Note_on_c, 1, 60, 96
1, 86077, Note_on_c, 1, 57, 96
1, 86078, Note_off_c, 1, 72, 96
1, 86078, Note_off_c, 1, 65, 96
1, 86078, Note_off_c, 1, 60, 96
1, 86078, Note_off_c, 1, 57, 96
1, 86130, Note_on_c, 1, 65, 96
1, 86130, Note_on_c, 1, 75, 96
1, 86130, Note_on_c, 1, 69, 96
1, 86130, Note_on_c, 1, 48, 96
1, 86130, Note_on_c, 1, 36, 96
1, 86131, Note_off_c, 1, 65, 96
1, 86131, Note_off_c, 1, 75, 96
1, 86131, Note_off_c, 1, 69, 96
1, 86131, Note_off_c, 1, 48, 96
1, 86131, Note_off_c, 1, 36, 96
1, 86191, Note_on_c, 1, 72, 96
1, 86192, Note_off_c, 1, 72, 96
1, 86254, Note_on_c, 1, 64, 96
1, 86254, Note_on_c, 1, 52, 96
1, 86254, Note_on_c, 1, 40, 96
1, 86255, Note_off_c, 1, 64, 96
1, 86255, Note_off_c, 1, 52, 96
1, 86255, Note_off_c, 1, 40, 96
1, 86315, Note_on_c, 1, 77, 96
1, 86316, Note_off_c, 1, 77, 96
1, 86377, Note_on_c, 1, 47, 96
1, 86377, Note_on_c, 1, 59, 96
1, 86378, Note_off_c, 1, 47, 96
1, 86378, Note_off_c, 1, 59, 96
1, 86438, Note_on_c, 1, 79, 96
1, 86439, Note_off_c, 1, 79, 96
1, 86501, Note_on_c, 1, 81, 96
1, 86501, Note_on_c, 1, 55, 96
1, 86501, Note_on_c, 1, 43, 96
1, 86502, Note_off_c, 1, 81, 96
1, 86502, Note_off_c, 1, 55, 96
1, 86502, Note_off_c, 1, 43, 96
1, 86562, Note_on_c, 1, 79, 96
1, 86563, Note_off_c, 1, 79, 96
1, 86624, Note_on_c, 1, 77, 96
1, 86624, Note_on_c, 1, 50, 96
1, 86625, Note_off_c, 1, 77, 96
1, 86625, Note_off_c, 1, 50, 96
1, 86685, Note_on_c, 1, 77, 96
1, 86686, Note_off_c, 1, 77, 96
1, 86748, Note_on_c, 1, 69, 96
1, 86748, Note_on_c, 1, 60, 96
1, 86748, Note_on_c, 1, 48, 96
1, 86749, Note_off_c, 1, 69, 96
1, 86749, Note_off_c, 1, 60, 96
1, 86749, Note_off_c, 1, 48, 96
1, 86809, Note_on_c, 1, 71, 96
1, 86810, Note_off_c, 1, 71, 96
1, 86873, Note_on_c, 1, 71, 96
1, 86873, Note_on_c, 1, 56, 96
1, 86873, Note_on_c, 1, 59, 96
1, 86873, Note_on_c, 1, 64, 96
1, 86874, Note_off_c, 1, 71, 96
1, 86874, Note_off_c, 1, 56, 96
1, 86874, Note_off_c, 1, 59, 96
1, 86874, Note_off_c, 1, 64, 96
1, 86996, Note_on_c, 1, 55, 96
1, 86996, Note_on_c, 1, 62, 96
1, 86996, Note_on_c, 1, 59, 96
1, 86997, Note_off_c, 1, 55, 96
1, 86997, Note_off_c, 1, 62, 96
1, 86997, Note_off_c, 1, 59, 96
1, 87057, Note_on_c, 1, 68, 96
1, 87058, Note_off_c, 1, 68, 96
1, 87119, Note_on_c, 1, 57, 96
1, 87119, Note_on_c, 1, 45, 96
1, 87120, Note_off_c, 1, 57, 96
1, 87120, Note_off_c, 1, 45, 96
1, 87181, Note_on_c, 1, 69, 96
1, 87181, Note_on_c, 1, 74, 96
1, 87182, Note_off_c, 1, 69, 96
1, 87182, Note_off_c, 1, 74, 96
1, 87244, Note_on_c, 1, 65, 96
1, 87244, Note_on_c, 1, 55, 96
1, 87244, Note_on_c, 1, 59, 96
1, 87245, Note_off_c, 1, 65, 96
1, 87245, Note_off_c, 1, 55, 96
1, 87245, Note_off_c, 1, 59, 96
1, 87305, Note_on_c, 1, 74, 96
1, 87306, Note_off_c, 1, 74, 96
1, 87369, Note_on_c, 1, 69, 96
1, 87369, Note_on_c, 1, 64, 96
1, 87369, Note_on_c, 1, 55, 96
1, 87369, Note_on_c, 1, 43, 96
1, 87370, Note_off_c, 1, 69, 96
1, 87370, Note_off_c, 1, 64, 96
1, 87370, Note_off_c, 1, 55, 96
1, 87370, Note_off_c, 1, 43, 96
1, 87430, Note_on_c, 1, 76, 96
1, 87431, Note_off_c, 1, 76, 96
1, 87494, Note_on_c, 1, 74, 96
1, 87494, Note_on_c, 1, 62, 96
1, 87494, Note_on_c, 1, 59, 96
1, 87494, Note_on_c, 1, 54, 96
1, 87495, Note_off_c, 1, 74, 96
1, 87495, Note_off_c, 1, 62, 96
1, 87495, Note_off_c, 1, 59, 96
1, 87495, Note_off_c, 1, 54, 96
1, 87556, Note_on_c, 1, 67, 96
1, 87556, Note_on_c, 1, 76, 96
1, 87557, Note_off_c, 1, 67, 96
1, 87557, Note_off_c, 1, 76, 96
1, 87619, Note_on_c, 1, 55, 96
1, 87619, Note_on_c, 1, 60, 96
1, 87619, Note_on_c, 1, 64, 96
1, 87620, Note_off_c, 1, 55, 96
1, 87620, Note_off_c, 1, 60, 96
1, 87620, Note_off_c, 1, 64, 96
1, 87682, Note_on_c, 1, 72, 96
1, 87682, Note_on_c, 1, 70, 96
1, 87682, Note_on_c, 1, 67, 96
1, 87683, Note_off_c, 1, 72, 96
1, 87683, Note_off_c, 1, 70, 96
1, 87683, Note_off_c, 1, 67, 96
1, 87746, Note_on_c, 1, 76, 96
1, 87746, Note_on_c, 1, 64, 96
1, 87746, Note_on_c, 1, 49, 96
1, 87746, Note_on_c, 1, 37, 96
1, 87747, Note_off_c, 1, 76, 96
1, 87747, Note_off_c, 1, 64, 96
1, 87747, Note_off_c, 1, 49, 96
1, 87747, Note_off_c, 1, 37, 96
1, 87807, Note_on_c, 1, 73, 96
1, 87808, Note_off_c, 1, 73, 96
1, 87870, Note_on_c, 1, 54, 96
1, 87870, Note_on_c, 1, 57, 96
1, 87870, Note_on_c, 1, 62, 96
1, 87871, Note_off_c, 1, 54, 96
1, 87871, Note_off_c, 1, 57, 96
1, 87871, Note_off_c, 1, 62, 96
1, 87931, Note_on_c, 1, 68, 96
1, 87932, Note_off_c, 1, 68, 96
1, 87993, Note_on_c, 1, 53, 96
1, 87993, Note_on_c, 1, 41, 96
1, 87994, Note_off_c, 1, 53, 96
1, 87994, Note_off_c, 1, 41, 96
1, 88054, Note_on_c, 1, 72, 96
1, 88055, Note_off_c, 1, 72, 96
1, 88118, Note_on_c, 1, 75, 96
1, 88118, Note_on_c, 1, 55, 96
1, 88118, Note_on_c, 1, 58, 96
1, 88118, Note_on_c, 1, 63, 96
1, 88119, Note_off_c, 1, 75, 96
1, 88119, Note_off_c, 1, 55, 96
1, 88119, Note_off_c, 1, 58, 96
1, 88119, Note_off_c, 1, 63, 96
1, 88242, Note_on_c, 1, 68, 96
1, 88242, Note_on_c, 1, 65, 96
1, 88242, Note_on_c, 1, 56, 96
1, 88242, Note_on_c, 1, 58, 96
1, 88243, Note_off_c, 1, 68, 96
1, 88243, Note_off_c, 1, 65, 96
1, 88243, Note_off_c, 1, 56, 96
1, 88243, Note_off_c, 1, 58, 96
1, 88303, Note_on_c, 1, 66, 96
1, 88304, Note_off_c, 1, 66, 96
1, 88366, Note_on_c, 1, 71, 96
1, 88366, Note_on_c, 1, 59, 96
1, 88366, Note_on_c, 1, 47, 96
1, 88367, Note_off_c, 1, 71, 96
1, 88367, Note_off_c, 1, 59, 96
1, 88367, Note_off_c, 1, 47, 96
1, 88428, Note_on_c, 1, 68, 96
1, 88428, Note_on_c, 1, 77, 96
1, 88429, Note_off_c, 1, 68, 96
1, 88429, Note_off_c, 1, 77, 96
1, 88492, Note_on_c, 1, 68, 96
1, 88492, Note_on_c, 1, 74, 96
1, 88492, Note_on_c, 1, 46, 96
1, 88492, Note_on_c, 1, 56, 96
1, 88493, Note_off_c, 1, 68, 96
1, 88493, Note_off_c, 1, 74, 96
1, 88493, Note_off_c, 1, 46, 96
1, 88493, Note_off_c, 1, 56, 96
1, 88613, Note_on_c, 1, 50, 96
1, 88613, Note_on_c, 1, 38, 96
1, 88614, Note_off_c, 1, 50, 96
1, 88614, Note_off_c, 1, 38, 96
1, 88675, Note_on_c, 1, 73, 96
1, 88675, Note_on_c, 1, 77, 96
1, 88676, Note_off_c, 1, 73, 96
1, 88676, Note_off_c, 1, 77, 96
1, 88738, Note_on_c, 1, 63, 96
1, 88738, Note_on_c, 1, 58, 96
1, 88738, Note_on_c, 1, 55, 96
1, 88739, Note_off_c, 1, 63, 96
1, 88739, Note_off_c, 1, 58, 96
1, 88739, Note_off_c, 1, 55, 96
1, 88799, Note_on_c, 1, 75, 96
1, 88800, Note_off_c, 1, 75, 96
1, 88864, Note_on_c, 1, 75, 96
1, 88864, Note_on_c, 1, 67, 96
1, 88864, Note_on_c, 1, 51, 96
1, 88864, Note_on_c, 1, 61, 96
1, 88864, Note_on_c, 1, 55, 96
1, 88865, Note_off_c, 1, 75, 96
1, 88865, Note_off_c, 1, 67, 96
1, 88865, Note_off_c, 1, 51, 96
1, 88865, Note_off_c, 1, 61, 96
1, 88865, Note_off_c, 1, 55, 96
1, 88925, Note_on_c, 1, 75, 96
1, 88926, Note_off_c, 1, 75, 96
1, 88989, Note_on_c, 1, 68, 96
1, 88989, Note_on_c, 1, 65, 96
1, 88989, Note_on_c, 1, 59, 96
1, 88989, Note_on_c, 1, 47, 96
1, 88990, Note_off_c, 1, 68, 96
1, 88990, Note_off_c, 1, 65, 96
1, 88990, Note_off_c, 1, 59, 96
1, 88990, Note_off_c, 1, 47, 96
1, 89053, Note_on_c, 1, 72, 96
1, 89053, Note_on_c, 1, 70, 96
1, 89053, Note_on_c, 1, 64, 96
1, 89053, Note_on_c, 1, 67, 96
1, 89054, Note_off_c, 1, 72, 96
1, 89054, Note_off_c, 1, 70, 96
1, 89054, Note_off_c, 1, 64, 96
1, 89054, Note_off_c, 1, 67, 96
1, 89113, Note_on_c, 1, 46, 96
1, 89114, Note_off_c, 1, 46, 96
1, 89174, Note_on_c, 1, 44, 96
1, 89175, Note_off_c, 1, 44, 96
1, 89296, Note_on_c, 1, 37, 96
1, 89297, Note_off_c, 1, 37, 96
1, 89357, Note_on_c, 1, 61, 96
1, 89358, Note_off_c, 1, 61, 96
1, 89418, Note_on_c, 1, 51, 96
1, 89419, Note_off_c, 1, 51, 96
1, 89480, Note_on_c, 1, 82, 96
1, 89481, Note_off_c, 1, 82, 96
1, 89543, Note_on_c, 1, 74, 96
1, 89543, Note_on_c, 1, 66, 96
1, 89543, Note_on_c, 1, 50, 96
1, 89544, Note_off_c, 1, 74, 96
1, 89544, Note_off_c, 1, 66, 96
1, 89544, Note_off_c, 1, 50, 96
1, 89604, Note_on_c, 1, 34, 96
1, 89605, Note_off_c, 1, 34, 96
1, 89666, Note_on_c, 1, 82, 96
1, 89666, Note_on_c, 1, 53, 96
1, 89667, Note_off_c, 1, 82, 96
1, 89667, Note_off_c, 1, 53, 96
1, 89727, Note_on_c, 1, 73, 96
1, 89728, Note_off_c, 1, 73, 96
1, 89788, Note_on_c, 1, 56, 96
1, 89789, Note_off_c, 1, 56, 96
1, 89849, Note_on_c, 1, 53, 96
1, 89850, Note_off_c, 1, 53, 96
1, 89910, Note_on_c, 1, 82, 96
1, 89911, Note_off_c, 1, 82, 96
1, 89972, Note_on_c, 1, 83, 96
1, 89972, Note_on_c, 1, 60, 96
1, 89973, Note_off_c, 1, 83, 96
1, 89973, Note_off_c, 1, 60, 96
1, 90033, Note_on_c, 1, 77, 96
1, 90034, Note_off_c, 1, 77, 96
1, 90094, Note_on_c, 1, 79, 96
1, 90095, Note_off_c, 1, 79, 96
1, 90160, Note_on_c, 1, 69, 96
1, 90160, Note_on_c, 1, 75, 96
1, 90160, Note_on_c, 1, 80, 96
1, 90160, Note_on_c, 1, 72, 96
1, 90160, Note_on_c, 1, 56, 96
1, 90160, Note_on_c, 1, 44, 96
1, 90161, Note_off_c, 1, 69, 96
1, 90161, Note_off_c, 1, 75, 96
1, 90161, Note_off_c, 1, 80, 96
1, 90161, Note_off_c, 1, 72, 96
1, 90161, Note_off_c, 1, 56, 96
1, 90161, Note_off_c, 1, 44, 96
1, 90280, Note_on_c, 1, 56, 96
1, 90281, Note_off_c, 1, 56, 96
1, 90402, Note_on_c, 1, 56, 96
1, 90402, Note_on_c, 1, 65, 96
1, 90403, Note_off_c, 1, 56, 96
1, 90403, Note_off_c, 1, 65, 96
1, 90501, Note_on_c, 1, 72, 96
1, 90501, Note_on_c, 1, 75, 96
1, 90501, Note_on_c, 1, 48, 96
1, 90502, Note_off_c, 1, 72, 96
1, 90502, Note_off_c, 1, 75, 96
1, 90502, Note_off_c, 1, 48, 96
1, 90601, Note_on_c, 1, 63, 96
1, 90601, Note_on_c, 1, 60, 96
1, 90601, Note_on_c, 1, 56, 96
1, 90602, Note_off_c, 1, 63, 96
1, 90602, Note_off_c, 1, 60, 96
1, 90602, Note_off_c, 1, 56, 96
1, 90650, Note_on_c, 1, 72, 96
1, 90651, Note_off_c, 1, 72, 96
1, 90702, Note_on_c, 1, 61, 96
1, 90702, Note_on_c, 1, 65, 96
1, 90702, Note_on_c, 1, 56, 96
1, 90702, Note_on_c, 1, 49, 96
1, 90703, Note_off_c, 1, 61, 96
1, 90703, Note_off_c, 1, 65, 96
1, 90703, Note_off_c, 1, 56, 96
1, 90703, Note_off_c, 1, 49, 96
1, 90801, Note_on_c, 1, 65, 96
1, 90801, Note_on_c, 1, 63, 96
1, 90801, Note_on_c, 1, 57, 96
1, 90802, Note_off_c, 1, 65, 96
1, 90802, Note_off_c, 1, 63, 96
1, 90802, Note_off_c, 1, 57, 96
1, 90851, Note_on_c, 1, 57, 96
1, 90851, Note_on_c, 1, 45, 96
1, 90852, Note_off_c, 1, 57, 96
1, 90852, Note_off_c, 1, 45, 96
1, 90950, Note_on_c, 1, 73, 96
1, 90950, Note_on_c, 1, 65, 96
1, 90950, Note_on_c, 1, 49, 96
1, 90951, Note_off_c, 1, 73, 96
1, 90951, Note_off_c, 1, 65, 96
1, 90951, Note_off_c, 1, 49, 96
1, 91049, Note_on_c, 1, 65, 96
1, 91049, Note_on_c, 1, 60, 96
1, 91049, Note_on_c, 1, 57, 96
1, 91050, Note_off_c, 1, 65, 96
1, 91050, Note_off_c, 1, 60, 96
1, 91050, Note_off_c, 1, 57, 96
1, 91149, Note_on_c, 1, 69, 96
1, 91149, Note_on_c, 1, 60, 96
1, 91149, Note_on_c, 1, 54, 96
1, 91149, Note_on_c, 1, 42, 96
1, 91150, Note_off_c, 1, 69, 96
1, 91150, Note_off_c, 1, 60, 96
1, 91150, Note_off_c, 1, 54, 96
1, 91150, Note_off_c, 1, 42, 96
1, 91248, Note_on_c, 1, 51, 96
1, 91248, Note_on_c, 1, 63, 96
1, 91248, Note_on_c, 1, 67, 96
1, 91249, Note_off_c, 1, 51, 96
1, 91249, Note_off_c, 1, 63, 96
1, 91249, Note_off_c, 1, 67, 96
1, 91346, Note_on_c, 1, 70, 96
1, 91346, Note_on_c, 1, 54, 96
1, 91347, Note_off_c, 1, 70, 96
1, 91347, Note_off_c, 1, 54, 96
1, 91445, Note_on_c, 1, 66, 96
1, 91445, Note_on_c, 1, 77, 96
1, 91445, Note_on_c, 1, 50, 96
1, 91446, Note_off_c, 1, 66, 96
1, 91446, Note_off_c, 1, 77, 96
1, 91446, Note_off_c, 1, 50, 96
1, 91495, Note_on_c, 1, 79, 96
1, 91495, Note_on_c, 1, 67, 96
1, 91496, Note_off_c, 1, 79, 96
1, 91496, Note_off_c, 1, 67, 96
1, 91546, Note_on_c, 1, 78, 96
1, 91546, Note_on_c, 1, 71, 96
1, 91546, Note_on_c, 1, 50, 96
1, 91547, Note_off_c, 1, 78, 96
1, 91547, Note_off_c, 1, 71, 96
1, 91547, Note_off_c, 1, 50, 96
1, 91597, Note_on_c, 1, 63, 96
1, 91597, Note_on_c, 1, 58, 96
1, 91597, Note_on_c, 1, 55, 96
1, 91598, Note_off_c, 1, 63, 96
1, 91598, Note_off_c, 1, 58, 96
1, 91598, Note_off_c, 1, 55, 96
1, 91649, Note_on_c, 1, 53, 96
1, 91649, Note_on_c, 1, 60, 96
1, 91649, Note_on_c, 1, 51, 96
1, 91649, Note_on_c, 1, 57, 96
1, 91650, Note_off_c, 1, 53, 96
1, 91650, Note_off_c, 1, 60, 96
1, 91650, Note_off_c, 1, 51, 96
1, 91650, Note_off_c, 1, 57, 96
1, 91713, Note_on_c, 1, 74, 96
1, 91713, Note_on_c, 1, 77, 96
1, 91713, Note_on_c, 1, 59, 96
1, 91713, Note_on_c, 1, 65, 96
1, 91714, Note_off_c, 1, 74, 96
1, 91714, Note_off_c, 1, 77, 96
1, 91714, Note_off_c, 1, 59, 96
1, 91714, Note_off_c, 1, 65, 96
1, 91776, Note_on_c, 1, 73, 96
1, 91776, Note_on_c, 1, 78, 96
1, 91776, Note_on_c, 1, 63, 96
1, 91777, Note_off_c, 1, 73, 96
1, 91777, Note_off_c, 1, 78, 96
1, 91777, Note_off_c, 1, 63, 96
1, 91837, Note_on_c, 1, 35, 96
1, 91838, Note_off_c, 1, 35, 96
1, 91899, Note_on_c, 1, 57, 96
1, 91899, Note_on_c, 1, 45, 96
1, 91900, Note_off_c, 1, 57, 96
1, 91900, Note_off_c, 1, 45, 96
1, 91964, Note_on_c, 1, 70, 96
1, 91964, Note_on_c, 1, 73, 96
1, 91964, Note_on_c, 1, 66, 96
1, 91964, Note_on_c, 1, 45, 96
1, 91964, Note_on_c, 1, 57, 96
1, 91965, Note_off_c, 1, 70, 96
1, 91965, Note_off_c, 1, 73, 96
1, 91965, Note_off_c, 1, 66, 96
1, 91965, Note_off_c, 1, 45, 96
1, 91965, Note_off_c, 1, 57, 96
1, 92026, Note_on_c, 1, 45, 96
1, 92026, Note_on_c, 1, 33, 96
1, 92027, Note_off_c, 1, 45, 96
1, 92027, Note_off_c, 1, 33, 96
1, 92088, Note_on_c, 1, 69, 96
1, 92088, Note_on_c, 1, 69, 96
1, 92089, Note_off_c, 1, 69, 96
1, 92089, Note_off_c, 1, 69, 96
1, 92153, Note_on_c, 1, 76, 96
1, 92153, Note_on_c, 1, 69, 96
1, 92153, Note_on_c, 1, 64, 96
1, 92153, Note_on_c, 1, 61, 96
1, 92153, Note_on_c, 1, 57, 96
1, 92154, Note_off_c, 1, 76, 96
1, 92154, Note_off_c, 1, 69, 96
1, 92154, Note_off_c, 1, 64, 96
1, 92154, Note_off_c, 1, 61, 96
1, 92154, Note_off_c, 1, 57, 96
1, 92214, Note_on_c, 1, 78, 96
1, 92215, Note_off_c, 1, 78, 96
1, 92277, Note_on_c, 1, 68, 96
1, 92277, Note_on_c, 1, 40, 96
1, 92277, Note_on_c, 1, 52, 96
1, 92278, Note_off_c, 1, 68, 96
1, 92278, Note_off_c, 1, 40, 96
1, 92278, Note_off_c, 1, 52, 96
1, 92339, Note_on_c, 1, 68, 96
1, 92339, Note_on_c, 1, 77, 96
1, 92340, Note_off_c, 1, 68, 96
1, 92340, Note_off_c, 1, 77, 96
1, 92403, Note_on_c, 1, 76, 96
1, 92403, Note_on_c, 1, 55, 96
1, 92403, Note_on_c, 1, 61, 96
1, 92403, Note_on_c, 1, 57, 96
1, 92404, Note_off_c, 1, 76, 96
1, 92404, Note_off_c, 1, 55, 96
1, 92404, Note_off_c, 1, 61, 96
1, 92404, Note_off_c, 1, 57, 96
1, 92526, Note_on_c, 1, 61, 96
1, 92526, Note_on_c, 1, 64, 96
1, 92526, Note_on_c, 1, 57, 96
1, 92527, Note_off_c, 1, 61, 96
1, 92527, Note_off_c, 1, 64, 96
1, 92527, Note_off_c, 1, 57, 96
1, 92649, Note_on_c, 1, 61, 96
1, 92649, Note_on_c, 1, 57, 96
1, 92649, Note_on_c, 1, 55, 96
1, 92650, Note_off_c, 1, 61, 96
1, 92650, Note_off_c, 1, 57, 96
1, 92650, Note_off_c, 1, 55, 96
1, 92711, Note_on_c, 1, 69, 96
1, 92711, Note_on_c, 1, 57, 96
1, 92712, Note_off_c, 1, 69, 96
1, 92712, Note_off_c, 1, 57, 96
1, 92774, Note_on_c, 1, 74, 96
1, 92774, Note_on_c, 1, 43, 96
1, 92774, Note_on_c, 1, 31, 96
1, 92775, Note_off_c, 1, 74, 96
1, 92775, Note_off_c, 1, 43, 96
1, 92775, Note_off_c, 1, 31, 96
1, 92835, Note_on_c, 1, 71, 96
1, 92836, Note_off_c, 1, 71, 96
1, 92897, Note_on_c, 1, 40, 96
1, 92897, Note_on_c, 1, 52, 96
1, 92898, Note_off_c, 1, 40, 96
1, 92898, Note_off_c, 1, 52, 96
1, 92958, Note_on_c, 1, 67, 96
1, 92959, Note_off_c, 1, 67, 96
1, 93019, Note_on_c, 1, 62, 96
1, 93021, Note_off_c, 1, 62, 96
1, 93021, Note_on_c, 1, 43, 96
1, 93022, Note_off_c, 1, 43, 96
1, 93082, Note_on_c, 1, 54, 96
1, 93082, Note_on_c, 1, 42, 96
1, 93083, Note_off_c, 1, 54, 96
1, 93083, Note_off_c, 1, 42, 96
1, 93141, Note_on_c, 1, 55, 96
1, 93143, Note_off_c, 1, 55, 96
1, 93143, Note_on_c, 1, 67, 96
1, 93144, Note_off_c, 1, 67, 96
1, 93202, Note_on_c, 1, 67, 96
1, 93203, Note_off_c, 1, 67, 96
1, 93208, Note_on_c, 1, 64, 96
1, 93209, Note_off_c, 1, 64, 96
1, 93265, Note_on_c, 1, 66, 96
1, 93266, Note_off_c, 1, 66, 96
1, 93325, Note_on_c, 1, 67, 96
1, 93326, Note_off_c, 1, 67, 96
1, 93331, Note_on_c, 1, 50, 96
1, 93332, Note_off_c, 1, 50, 96
1, 93386, Note_on_c, 1, 68, 96
1, 93387, Note_off_c, 1, 68, 96
1, 93447, Note_on_c, 1, 76, 96
1, 93448, Note_off_c, 1, 76, 96
1, 93453, Note_on_c, 1, 62, 96
1, 93453, Note_on_c, 1, 60, 96
1, 93453, Note_on_c, 1, 57, 96
1, 93454, Note_off_c, 1, 62, 96
1, 93454, Note_off_c, 1, 60, 96
1, 93454, Note_off_c, 1, 57, 96
1, 93572, Note_on_c, 1, 76, 96
1, 93573, Note_off_c, 1, 76, 96
1, 93578, Note_on_c, 1, 64, 96
1, 93578, Note_on_c, 1, 57, 96
1, 93578, Note_on_c, 1, 60, 96
1, 93579, Note_off_c, 1, 64, 96
1, 93579, Note_off_c, 1, 57, 96
1, 93579, Note_off_c, 1, 60, 96
1, 93700, Note_on_c, 1, 74, 96
1, 93700, Note_on_c, 1, 46, 96
1, 93703, Note_off_c, 1, 74, 96
1, 93703, Note_off_c, 1, 46, 96
1, 93703, Note_on_c, 1, 64, 96
1, 93703, Note_on_c, 1, 58, 96
1, 93704, Note_off_c, 1, 64, 96
1, 93704, Note_off_c, 1, 58, 96
1, 93761, Note_on_c, 1, 68, 96
1, 93762, Note_off_c, 1, 68, 96
1, 93824, Note_on_c, 1, 53, 96
1, 93824, Note_on_c, 1, 72, 96
1, 93826, Note_off_c, 1, 53, 96
1, 93826, Note_off_c, 1, 72, 96
1, 93826, Note_on_c, 1, 41, 96
1, 93827, Note_off_c, 1, 41, 96
1, 93947, Note_on_c, 1, 43, 96
1, 93948, Note_off_c, 1, 43, 96
1, 93950, Note_on_c, 1, 67, 96
1, 93951, Note_off_c, 1, 67, 96
1, 94069, Note_on_c, 1, 41, 96
1, 94069, Note_on_c, 1, 53, 96
1, 94072, Note_off_c, 1, 41, 96
1, 94072, Note_off_c, 1, 53, 96
1, 94072, Note_on_c, 1, 62, 96
1, 94072, Note_on_c, 1, 70, 96
1, 94074, Note_off_c, 1, 62, 96
1, 94074, Note_off_c, 1, 70, 96
1, 94074, Note_on_c, 1, 68, 96
1, 94075, Note_off_c, 1, 68, 96
1, 94194, Note_on_c, 1, 56, 96
1, 94198, Note_off_c, 1, 56, 96
1, 94198, Note_on_c, 1, 65, 96
1, 94198, Note_on_c, 1, 72, 96
1, 94198, Note_on_c, 1, 58, 96
1, 94200, Note_off_c, 1, 65, 96
1, 94200, Note_off_c, 1, 72, 96
1, 94200, Note_off_c, 1, 58, 96
1, 94200, Note_on_c, 1, 62, 96
1, 94201, Note_off_c, 1, 62, 96
1, 94262, Note_on_c, 1, 62, 96
1, 94263, Note_off_c, 1, 62, 96
1, 94322, Note_on_c, 1, 58, 96
1, 94324, Note_off_c, 1, 58, 96
1, 94324, Note_on_c, 1, 46, 96
1, 94326, Note_off_c, 1, 46, 96
1, 94326, Note_on_c, 1, 73, 96
1, 94327, Note_off_c, 1, 73, 96
1, 94383, Note_on_c, 1, 61, 96
1, 94385, Note_off_c, 1, 61, 96
1, 94385, Note_on_c, 1, 73, 96
1, 94386, Note_off_c, 1, 73, 96
1, 94390, Note_on_c, 1, 67, 96
1, 94390, Note_on_c, 1, 65, 96
1, 94391, Note_off_c, 1, 67, 96
1, 94391, Note_off_c, 1, 65, 96
1, 94453, Note_on_c, 1, 41, 96
1, 94454, Note_off_c, 1, 41, 96
1, 94571, Note_on_c, 1, 60, 96
1, 94571, Note_on_c, 1, 72, 96
1, 94572, Note_off_c, 1, 60, 96
1, 94572, Note_off_c, 1, 72, 96
1, 94574, Note_on_c, 1, 56, 96
1, 94575, Note_off_c, 1, 56, 96
1, 94579, Note_on_c, 1, 66, 96
1, 94579, Note_on_c, 1, 44, 96
1, 94580, Note_off_c, 1, 66, 96
1, 94580, Note_off_c, 1, 44, 96
1, 94695, Note_on_c, 1, 51, 96
1, 94697, Note_off_c, 1, 51, 96
1, 94697, Note_on_c, 1, 60, 96
1, 94700, Note_off_c, 1, 60, 96
1, 94700, Note_on_c, 1, 72, 96
1, 94700, Note_on_c, 1, 65, 96
1, 94701, Note_off_c, 1, 72, 96
1, 94701, Note_off_c, 1, 65, 96
1, 94762, Note_on_c, 1, 72, 96
1, 94763, Note_off_c, 1, 72, 96
1, 94820, Note_on_c, 1, 69, 96
1, 94820, Note_on_c, 1, 56, 96
1, 94822, Note_off_c, 1, 69, 96
1, 94822, Note_off_c, 1, 56, 96
1, 94822, Note_on_c, 1, 59, 96
1, 94823, Note_off_c, 1, 59, 96
1, 94827, Note_on_c, 1, 44, 96
1, 94828, Note_off_c, 1, 44, 96
1, 94888, Note_on_c, 1, 75, 96
1, 94889, Note_off_c, 1, 75, 96
1, 94943, Note_on_c, 1, 72, 96
1, 94945, Note_off_c, 1, 72, 96
1, 94945, Note_on_c, 1, 44, 96
1, 94946, Note_off_c, 1, 44, 96
1, 94949, Note_on_c, 1, 56, 96
1, 94950, Note_off_c, 1, 56, 96
1, 95008, Note_on_c, 1, 72, 96
1, 95011, Note_off_c, 1, 72, 96
1, 95011, Note_on_c, 1, 70, 96
1, 95011, Note_on_c, 1, 63, 96
1, 95013, Note_off_c, 1, 70, 96
1, 95013, Note_off_c, 1, 63, 96
1, 95013, Note_on_c, 1, 67, 96
1, 95014, Note_off_c, 1, 67, 96
1, 95073, Note_on_c, 1, 27, 96
1, 95073, Note_on_c, 1, 39, 96
1, 95074, Note_off_c, 1, 27, 96
1, 95074, Note_off_c, 1, 39, 96
1, 95133, Note_on_c, 1, 77, 96
1, 95134, Note_off_c, 1, 77, 96
1, 95138, Note_on_c, 1, 68, 96
1, 95139, Note_off_c, 1, 68, 96
1, 95195, Note_on_c, 1, 38, 96
1, 95196, Note_off_c, 1, 38, 96
1, 95199, Note_on_c, 1, 50, 96
1, 95200, Note_off_c, 1, 50, 96
1, 95256, Note_on_c, 1, 65, 96
1, 95257, Note_off_c, 1, 65, 96
1, 95318, Note_on_c, 1, 72, 96
1, 95320, Note_off_c, 1, 72, 96
1, 95320, Note_on_c, 1, 45, 96
1, 95323, Note_off_c, 1, 45, 96
1, 95323, Note_on_c, 1, 65, 96
1, 95323, Note_on_c, 1, 48, 96
1, 95324, Note_off_c, 1, 65, 96
1, 95324, Note_off_c, 1, 48, 96
1, 95384, Note_on_c, 1, 77, 96
1, 95385, Note_off_c, 1, 77, 96
1, 95439, Note_on_c, 1, 73, 96
1, 95440, Note_off_c, 1, 73, 96
1, 95444, Note_on_c, 1, 57, 96
1, 95446, Note_off_c, 1, 57, 96
1, 95446, Note_on_c, 1, 60, 96
1, 95447, Note_off_c, 1, 60, 96
1, 95450, Note_on_c, 1, 67, 96
1, 95451, Note_off_c, 1, 67, 96
1, 95507, Note_on_c, 1, 79, 96
1, 95508, Note_off_c, 1, 79, 96
1, 95565, Note_on_c, 1, 72, 96
1, 95566, Note_off_c, 1, 72, 96
1, 95568, Note_on_c, 1, 36, 96
1, 95571, Note_off_c, 1, 36, 96
1, 95571, Note_on_c, 1, 84, 96
1, 95571, Note_on_c, 1, 48, 96
1, 95572, Note_off_c, 1, 84, 96
1, 95572, Note_off_c, 1, 48, 96
1, 95574, Note_on_c, 1, 76, 96
1, 95575, Note_off_c, 1, 76, 96
1, 95631, Note_on_c, 1, 81, 96
1, 95633, Note_off_c, 1, 81, 96
1, 95633, Note_on_c, 1, 72, 96
1, 95634, Note_off_c, 1, 72, 96
1, 95693, Note_on_c, 1, 67, 96
1, 95694, Note_off_c, 1, 67, 96
1, 95697, Note_on_c, 1, 72, 96
1, 95697, Note_on_c, 1, 76, 96
1, 95699, Note_off_c, 1, 72, 96
1, 95699, Note_off_c, 1, 76, 96
1, 95699, Note_on_c, 1, 79, 96
1, 95700, Note_off_c, 1, 79, 96
1, 95756, Note_on_c, 1, 76, 96
1, 95758, Note_off_c, 1, 76, 96
1, 95758, Note_on_c, 1, 72, 96
1, 95760, Note_off_c, 1, 72, 96
1, 95760, Note_on_c, 1, 81, 96
1, 95761, Note_off_c, 1, 81, 96
1, 95764, Note_on_c, 1, 84, 96
1, 95765, Note_off_c, 1, 84, 96
1, 95823, Note_on_c, 1, 67, 96
1, 95824, Note_off_c, 1, 67, 96
1, 95826, Note_on_c, 1, 77, 96
1, 95827, Note_off_c, 1, 77, 96
1, 95945, Note_on_c, 1, 81, 96
1, 95946, Note_off_c, 1, 81, 96
1, 95948, Note_on_c, 1, 55, 96
1, 95951, Note_off_c, 1, 55, 96
1, 95951, Note_on_c, 1, 69, 96
1, 95951, Note_on_c, 1, 53, 96
1, 95953, Note_off_c, 1, 69, 96
1, 95953, Note_off_c, 1, 53, 96
1, 95953, Note_on_c, 1, 59, 96
1, 95954, Note_off_c, 1, 59, 96
1, 96070, Note_on_c, 1, 50, 96
1, 96071, Note_off_c, 1, 50, 96
1, 96075, Note_on_c, 1, 79, 96
1, 96075, Note_on_c, 1, 71, 96
1, 96076, Note_off_c, 1, 79, 96
1, 96076, Note_off_c, 1, 71, 96
1, 96130, Note_on_c, 1, 50, 96
1, 96131, Note_off_c, 1, 50, 96
1, 96190, Note_on_c, 1, 76, 96
1, 96191, Note_off_c, 1, 76, 96
1, 96255, Note_on_c, 1, 76, 96
1, 96255, Note_on_c, 1, 58, 96
1, 96255, Note_on_c, 1, 60, 96
1, 96256, Note_off_c, 1, 76, 96
1, 96256, Note_off_c, 1, 58, 96
1, 96256, Note_off_c, 1, 60, 96
1, 96258, Note_on_c, 1, 64, 96
1, 96259, Note_off_c, 1, 64, 96
1, 96315, Note_on_c, 1, 74, 96
1, 96316, Note_off_c, 1, 74, 96
1, 96320, Note_on_c, 1, 38, 96
1, 96320, Note_on_c, 1, 50, 96
1, 96323, Note_off_c, 1, 38, 96
1, 96323, Note_off_c, 1, 50, 96
1, 96323, Note_on_c, 1, 81, 96
1, 96323, Note_on_c, 1, 86, 96
1, 96324, Note_off_c, 1, 81, 96
1, 96324, Note_off_c, 1, 86, 96
1, 96380, Note_on_c, 1, 84, 96
1, 96381, Note_off_c, 1, 84, 96
1, 96384, Note_on_c, 1, 76, 96
1, 96385, Note_off_c, 1, 76, 96
1, 96441, Note_on_c, 1, 81, 96
1, 96441, Note_on_c, 1, 64, 96
1, 96442, Note_off_c, 1, 81, 96
1, 96442, Note_off_c, 1, 64, 96
1, 96444, Note_on_c, 1, 74, 96
1, 96446, Note_off_c, 1, 74, 96
1, 96446, Note_on_c, 1, 58, 96
1, 96449, Note_off_c, 1, 58, 96
1, 96449, Note_on_c, 1, 86, 96
1, 96449, Note_on_c, 1, 60, 96
1, 96450, Note_off_c, 1, 86, 96
1, 96450, Note_off_c, 1, 60, 96
1, 96505, Note_on_c, 1, 76, 96
1, 96506, Note_off_c, 1, 76, 96
1, 96509, Note_on_c, 1, 84, 96
1, 96511, Note_off_c, 1, 84, 96
1, 96511, Note_on_c, 1, 72, 96
1, 96512, Note_off_c, 1, 72, 96
1, 96572, Note_on_c, 1, 79, 96
1, 96572, Note_on_c, 1, 60, 96
1, 96576, Note_off_c, 1, 79, 96
1, 96576, Note_off_c, 1, 60, 96
1, 96576, Note_on_c, 1, 81, 96
1, 96576, Note_on_c, 1, 64, 96
1, 96576, Note_on_c, 1, 48, 96
1, 96578, Note_off_c, 1, 81, 96
1, 96578, Note_off_c, 1, 64, 96
1, 96578, Note_off_c, 1, 48, 96
1, 96578, Note_on_c, 1, 76, 96
1, 96579, Note_off_c, 1, 76, 96
1, 96636, Note_on_c, 1, 81, 96
1, 96637, Note_off_c, 1, 81, 96
1, 96640, Note_on_c, 1, 76, 96
1, 96640, Note_on_c, 1, 73, 96
1, 96641, Note_off_c, 1, 76, 96
1, 96641, Note_off_c, 1, 73, 96
1, 96696, Note_on_c, 1, 69, 96
1, 96697, Note_off_c, 1, 69, 96
1, 96701, Note_on_c, 1, 81, 96
1, 96701, Note_on_c, 1, 53, 96
1, 96703, Note_off_c, 1, 81, 96
1, 96703, Note_off_c, 1, 53, 96
1, 96703, Note_on_c, 1, 74, 96
1, 96704, Note_off_c, 1, 74, 96
1, 96764, Note_on_c, 1, 70, 96
1, 96764, Note_on_c, 1, 82, 96
1, 96765, Note_off_c, 1, 70, 96
1, 96765, Note_off_c, 1, 82, 96
1, 96825, Note_on_c, 1, 74, 96
1, 96827, Note_off_c, 1, 74, 96
1, 96827, Note_on_c, 1, 46, 96
1, 96828, Note_off_c, 1, 46, 96
1, 96889, Note_on_c, 1, 84, 96
1, 96891, Note_off_c, 1, 84, 96
1, 96891, Note_on_c, 1, 75, 96
1, 96892, Note_off_c, 1, 75, 96
1, 96951, Note_on_c, 1, 70, 96
1, 96953, Note_off_c, 1, 70, 96
1, 96953, Note_on_c, 1, 74, 96
1, 96956, Note_off_c, 1, 74, 96
1, 96956, Note_on_c, 1, 65, 96
1, 96956, Note_on_c, 1, 62, 96
1, 96957, Note_off_c, 1, 65, 96
1, 96957, Note_off_c, 1, 62, 96
1, 96959, Note_on_c, 1, 77, 96
1, 96960, Note_off_c, 1, 77, 96
1, 97018, Note_on_c, 1, 79, 96
1, 97020, Note_off_c, 1, 79, 96
1, 97020, Note_on_c, 1, 70, 96
1, 97021, Note_off_c, 1, 70, 96
1, 97079, Note_on_c, 1, 57, 96
1, 97080, Note_off_c, 1, 57, 96
1, 97082, Note_on_c, 1, 63, 96
1, 97083, Note_off_c, 1, 63, 96
1, 97087, Note_on_c, 1, 53, 96
1, 97088, Note_off_c, 1, 53, 96
1, 97202, Note_on_c, 1, 48, 96
1, 97204, Note_off_c, 1, 48, 96
1, 97204, Note_on_c, 1, 63, 96
1, 97206, Note_off_c, 1, 63, 96
1, 97206, Note_on_c, 1, 57, 96
1, 97207, Note_off_c, 1, 57, 96
1, 97211, Note_on_c, 1, 75, 96
1, 97211, Note_on_c, 1, 81, 96
1, 97211, Note_on_c, 1, 69, 96
1, 97212, Note_off_c, 1, 75, 96
1, 97212, Note_off_c, 1, 81, 96
1, 97212, Note_off_c, 1, 69, 96
1, 97334, Note_on_c, 1, 72, 96
1, 97335, Note_off_c, 1, 72, 96
1, 97393, Note_on_c, 1, 75, 96
1, 97393, Note_on_c, 1, 43, 96
1, 97394, Note_off_c, 1, 75, 96
1, 97394, Note_off_c, 1, 43, 96
1, 97516, Note_on_c, 1, 43, 96
1, 97518, Note_off_c, 1, 43, 96
1, 97518, Note_on_c, 1, 55, 96
1, 97519, Note_off_c, 1, 55, 96
1, 97577, Note_on_c, 1, 79, 96
1, 97578, Note_off_c, 1, 79, 96
1, 97634, Note_on_c, 1, 80, 96
1, 97638, Note_off_c, 1, 80, 96
1, 97638, Note_on_c, 1, 72, 96
1, 97638, Note_on_c, 1, 67, 96
1, 97638, Note_on_c, 1, 45, 96
1, 97639, Note_off_c, 1, 72, 96
1, 97639, Note_off_c, 1, 67, 96
1, 97639, Note_off_c, 1, 45, 96
1, 97644, Note_on_c, 1, 57, 96
1, 97645, Note_off_c, 1, 57, 96
1, 97760, Note_on_c, 1, 77, 96
1, 97761, Note_off_c, 1, 77, 96
1, 97764, Note_on_c, 1, 69, 96
1, 97767, Note_off_c, 1, 69, 96
1, 97767, Note_on_c, 1, 72, 96
1, 97767, Note_on_c, 1, 62, 96
1, 97768, Note_off_c, 1, 72, 96
1, 97768, Note_off_c, 1, 62, 96
1, 97772, Note_on_c, 1, 65, 96
1, 97772, Note_on_c, 1, 57, 96
1, 97772, Note_on_c, 1, 45, 96
1, 97773, Note_off_c, 1, 65, 96
1, 97773, Note_off_c, 1, 57, 96
1, 97773, Note_off_c, 1, 45, 96
1, 97888, Note_on_c, 1, 67, 96
1, 97891, Note_off_c, 1, 67, 96
1, 97891, Note_on_c, 1, 59, 96
1, 97891, Note_on_c, 1, 47, 96
1, 97893, Note_off_c, 1, 59, 96
1, 97893, Note_off_c, 1, 47, 96
1, 97893, Note_on_c, 1, 76, 96
1, 97894, Note_off_c, 1, 76, 96
1, 97897, Note_on_c, 1, 71, 96
1, 97898, Note_off_c, 1, 71, 96
1, 98012, Note_on_c, 1, 62, 96
1, 98012, Note_on_c, 1, 50, 96
1, 98013, Note_off_c, 1, 62, 96
1, 98013, Note_off_c, 1, 50, 96
1, 98075, Note_on_c, 1, 86, 96
1, 98076, Note_off_c, 1, 86, 96
1, 98134, Note_on_c, 1, 77, 96
1, 98136, Note_off_c, 1, 77, 96
1, 98136, Note_on_c, 1, 43, 96
1, 98137, Note_off_c, 1, 43, 96
1, 98198, Note_on_c, 1, 83, 96
1, 98199, Note_off_c, 1, 83, 96
1, 98256, Note_on_c, 1, 67, 96
1, 98258, Note_off_c, 1, 67, 96
1, 98258, Note_on_c, 1, 62, 96
1, 98260, Note_off_c, 1, 62, 96
1, 98260, Note_on_c, 1, 55, 96
1, 98261, Note_off_c, 1, 55, 96
1, 98265, Note_on_c, 1, 65, 96
1, 98265, Note_on_c, 1, 80, 96
1, 98265, Note_on_c, 1, 59, 96
1, 98266, Note_off_c, 1, 65, 96
1, 98266, Note_off_c, 1, 80, 96
1, 98266, Note_off_c, 1, 59, 96
1, 98384, Note_on_c, 1, 52, 96
1, 98386, Note_off_c, 1, 52, 96
1, 98386, Note_on_c, 1, 84, 96
1, 98389, Note_off_c, 1, 84, 96
1, 98389, Note_on_c, 1, 74, 96
1, 98389, Note_on_c, 1, 48, 96
1, 98391, Note_off_c, 1, 74, 96
1, 98391, Note_off_c, 1, 48, 96
1, 98391, Note_on_c, 1, 72, 96
1, 98392, Note_off_c, 1, 72, 96
1, 98395, Note_on_c, 1, 72, 96
1, 98395, Note_on_c, 1, 81, 96
1, 98396, Note_off_c, 1, 72, 96
1, 98396, Note_off_c, 1, 81, 96
1, 98512, Note_on_c, 1, 75, 96
1, 98514, Note_off_c, 1, 75, 96
1, 98514, Note_on_c, 1, 40, 96
1, 98515, Note_off_c, 1, 40, 96
1, 98517, Note_on_c, 1, 79, 96
1, 98518, Note_off_c, 1, 79, 96
1, 98520, Note_on_c, 1, 87, 96
1, 98521, Note_off_c, 1, 87, 96
1, 98640, Note_on_c, 1, 60, 96
1, 98640, Note_on_c, 1, 55, 96
1, 98640, Note_on_c, 1, 52, 96
1, 98641, Note_off_c, 1, 60, 96
1, 98641, Note_off_c, 1, 55, 96
1, 98641, Note_off_c, 1, 52, 96
1, 98702, Note_on_c, 1, 86, 96
1, 98704, Note_off_c, 1, 86, 96
1, 98704, Note_on_c, 1, 75, 96
1, 98705, Note_off_c, 1, 75, 96
1, 98762, Note_on_c, 1, 55, 96
1, 98763, Note_off_c, 1, 55, 96
1, 98884, Note_on_c, 1, 72, 96
1, 98884, Note_on_c, 1, 84, 96
1, 98885, Note_off_c, 1, 72, 96
1, 98885, Note_off_c, 1, 84, 96
1, 98890, Note_on_c, 1, 79, 96
1, 98890, Note_on_c, 1, 48, 96
1, 98890, Note_on_c, 1, 76, 96
1, 98892, Note_off_c, 1, 79, 96
1, 98892, Note_off_c, 1, 48, 96
1, 98892, Note_off_c, 1, 76, 96
1, 98892, Note_on_c, 1, 36, 96
1, 98893, Note_off_c, 1, 36, 96
1, 99006, Note_on_c, 1, 86, 96
1, 99008, Note_off_c, 1, 86, 96
1, 99008, Note_on_c, 1, 64, 96
1, 99009, Note_off_c, 1, 64, 96
1, 99011, Note_on_c, 1, 74, 96
1, 99012, Note_off_c, 1, 74, 96
1, 99015, Note_on_c, 1, 82, 96
1, 99015, Note_on_c, 1, 41, 96
1, 99017, Note_off_c, 1, 82, 96
1, 99017, Note_off_c, 1, 41, 96
1, 99017, Note_on_c, 1, 77, 96
1, 99018, Note_off_c, 1, 77, 96
1, 99137, End_track
0, 0, End_of_file