0, 0, Header, 0, 1, 180
1, 0, Start_track
1, 0, Tempo, 555555
1, 4, Note_on_c, 1, 76, 96
1, 4, Note_on_c, 1, 79, 96
1, 4, Note_on_c, 1, 67, 96
1, 4, Note_on_c, 1, 62, 96
1, 5, Note_off_c, 1, 76, 96
1, 5, Note_off_c, 1, 79, 96
1, 5, Note_off_c, 1, 67, 96
1, 5, Note_off_c, 1, 62, 96
1, 36, Note_on_c, 1, 74, 96
1, 37, Note_off_c, 1, 74, 96
1, 68, Note_on_c, 1, 79, 96
1, 68, Note_on_c, 1, 67, 96
1, 68, Note_on_c, 1, 55, 96
1, 69, Note_off_c, 1, 79, 96
1, 69, Note_off_c, 1, 67, 96
1, 69, Note_off_c, 1, 55, 96
1, 99, Note_on_c, 1, 68, 96
1, 100, Note_off_c, 1, 68, 96
1, 133, Note_on_c, 1, 79, 96
1, 133, Note_on_c, 1, 58, 96
1, 133, Note_on_c, 1, 53, 96
1, 133, Note_on_c, 1, 62, 96
1, 134, Note_off_c, 1, 79, 96
1, 134, Note_off_c, 1, 58, 96
1, 134, Note_off_c, 1, 53, 96
1, 134, Note_off_c, 1, 62, 96
1, 195, Note_on_c, 1, 62, 96
1, 195, Note_on_c, 1, 46, 96
1, 196, Note_off_c, 1, 62, 96
1, 196, Note_off_c, 1, 46, 96
1, 227, Note_on_c, 1, 70, 96
1, 227, Note_on_c, 1, 58, 96
1, 228, Note_off_c, 1, 70, 96
1, 228, Note_off_c, 1, 58, 96
1, 259, Note_on_c, 1, 70, 96
1, 259, Note_on_c, 1, 55, 96
1, 260, Note_off_c, 1, 70, 96
1, 260, Note_off_c, 1, 55, 96
1, 321, Note_on_c, 1, 67, 96
1, 321, Note_on_c, 1, 53, 96
1, 322, Note_off_c, 1, 67, 96
1, 322, Note_off_c, 1, 53, 96
1, 383, Note_on_c, 1, 65, 96
1, 383, Note_on_c, 1, 47, 96
1, 384, Note_off_c, 1, 65, 96
1, 384, Note_off_c, 1, 47, 96
1, 447, Note_on_c, 1, 77, 96
1, 447, Note_on_c, 1, 74, 96
1, 447, Note_on_c, 1, 80, 96
1, 447, Note_on_c, 1, 71, 96
1, 448, Note_off_c, 1, 77, 96
1, 448, Note_off_c, 1, 74, 96
1, 448, Note_off_c, 1, 80, 96
1, 448, Note_off_c, 1, 71, 96
1, 479, Note_on_c, 1, 52, 96
1, 480, Note_off_c, 1, 52, 96
1, 510, Note_on_c, 1, 52, 96
1, 511, Note_off_c, 1, 52, 96
1, 543, Note_on_c, 1, 66, 96
1, 543, Note_on_c, 1, 75, 96
1, 543, Note_on_c, 1, 78, 96
1, 544, Note_off_c, 1, 66, 96
1, 544, Note_off_c, 1, 75, 96
1, 544, Note_off_c, 1, 78, 96
1, 574, Note_on_c, 1, 57, 96
1, 575, Note_off_c, 1, 57, 96
1, 605, Note_on_c, 1, 81, 96
1, 606, Note_off_c, 1, 81, 96
1, 639, Note_on_c, 1, 78, 96
1, 639, Note_on_c, 1, 66, 96
1, 639, Note_on_c, 1, 62, 96
1, 639, Note_on_c, 1, 57, 96
1, 640, Note_off_c, 1, 78, 96
1, 640, Note_off_c, 1, 66, 96
1, 640, Note_off_c, 1, 62, 96
1, 640, Note_off_c, 1, 57, 96
1, 670, Note_on_c, 1, 79, 96
1, 671, Note_off_c, 1, 79, 96
1, 703, Note_on_c, 1, 84, 96
1, 703, Note_on_c, 1, 57, 96
1, 703, Note_on_c, 1, 45, 96
1, 704, Note_off_c, 1, 84, 96
1, 704, Note_off_c, 1, 57, 96
1, 704, Note_off_c, 1, 45, 96
1, 734, Note_on_c, 1, 78, 96
1, 735, Note_off_c, 1, 78, 96
1, 768, Note_on_c, 1, 81, 96
1, 768, Note_on_c, 1, 60, 96
1, 768, Note_on_c, 1, 57, 96
1, 768, Note_on_c, 1, 62, 96
1, 769, Note_off_c, 1, 81, 96
1, 769, Note_off_c, 1, 60, 96
1, 769, Note_off_c, 1, 57, 96
1, 769, Note_off_c, 1, 62, 96
1, 801, Note_on_c, 1, 81, 96
1, 801, Note_on_c, 1, 78, 96
1, 801, Note_on_c, 1, 74, 96
1, 802, Note_off_c, 1, 81, 96
1, 802, Note_off_c, 1, 78, 96
1, 802, Note_off_c, 1, 74, 96
1, 832, Note_on_c, 1, 38, 96
1, 833, Note_off_c, 1, 38, 96
1, 863, Note_on_c, 1, 78, 96
1, 864, Note_off_c, 1, 78, 96
1, 898, Note_on_c, 1, 76, 96
1, 898, Note_on_c, 1, 67, 96
1, 898, Note_on_c, 1, 64, 96
1, 898, Note_on_c, 1, 61, 96
1, 898, Note_on_c, 1, 57, 96
1, 899, Note_off_c, 1, 76, 96
1, 899, Note_off_c, 1, 67, 96
1, 899, Note_off_c, 1, 64, 96
1, 899, Note_off_c, 1, 61, 96
1, 899, Note_off_c, 1, 57, 96
1, 962, Note_on_c, 1, 61, 96
1, 962, Note_on_c, 1, 71, 96
1, 962, Note_on_c, 1, 67, 96
1, 962, Note_on_c, 1, 73, 96
1, 963, Note_off_c, 1, 61, 96
1, 963, Note_off_c, 1, 71, 96
1, 963, Note_off_c, 1, 67, 96
1, 963, Note_off_c, 1, 73, 96
1, 1029, Note_on_c, 1, 81, 96
1, 1029, Note_on_c, 1, 73, 96
1, 1029, Note_on_c, 1, 69, 96
1, 1029, Note_on_c, 1, 64, 96
1, 1029, Note_on_c, 1, 61, 96
1, 1029, Note_on_c, 1, 57, 96
1, 1029, Note_on_c, 1, 67, 96
1, 1030, Note_off_c, 1, 81, 96
1, 1030, Note_off_c, 1, 73, 96
1, 1030, Note_off_c, 1, 69, 96
1, 1030, Note_off_c, 1, 64, 96
1, 1030, Note_off_c, 1, 61, 96
1, 1030, Note_off_c, 1, 57, 96
1, 1030, Note_off_c, 1, 67, 96
1, 1061, Note_on_c, 1, 84, 96
1, 1061, Note_on_c, 1, 76, 96
1, 1062, Note_off_c, 1, 84, 96
1, 1062, Note_off_c, 1, 76, 96
1, 1093, Note_on_c, 1, 73, 96
1, 1093, Note_on_c, 1, 61, 96
1, 1094, Note_off_c, 1, 73, 96
1, 1094, Note_off_c, 1, 61, 96
1, 1124, Note_on_c, 1, 76, 96
1, 1125, Note_off_c, 1, 76, 96
1, 1158, Note_on_c, 1, 81, 96
1, 1158, Note_on_c, 1, 69, 96
1, 1158, Note_on_c, 1, 61, 96
1, 1158, Note_on_c, 1, 49, 96
1, 1159, Note_off_c, 1, 81, 96
1, 1159, Note_off_c, 1, 69, 96
1, 1159, Note_off_c, 1, 61, 96
1, 1159, Note_off_c, 1, 49, 96
1, 1189, Note_on_c, 1, 73, 96
1, 1190, Note_off_c, 1, 73, 96
1, 1223, Note_on_c, 1, 76, 96
1, 1223, Note_on_c, 1, 71, 96
1, 1223, Note_on_c, 1, 64, 96
1, 1223, Note_on_c, 1, 55, 96
1, 1224, Note_off_c, 1, 76, 96
1, 1224, Note_off_c, 1, 71, 96
1, 1224, Note_off_c, 1, 64, 96
1, 1224, Note_off_c, 1, 55, 96
1, 1254, Note_on_c, 1, 80, 96
1, 1255, Note_off_c, 1, 80, 96
1, 1287, Note_on_c, 1, 67, 96
1, 1287, Note_on_c, 1, 69, 96
1, 1287, Note_on_c, 1, 45, 96
1, 1288, Note_off_c, 1, 67, 96
1, 1288, Note_off_c, 1, 69, 96
1, 1288, Note_off_c, 1, 45, 96
1, 1318, Note_on_c, 1, 69, 96
1, 1319, Note_off_c, 1, 69, 96
1, 1353, Note_on_c, 1, 69, 96
1, 1353, Note_on_c, 1, 75, 96
1, 1353, Note_on_c, 1, 66, 96
1, 1353, Note_on_c, 1, 61, 96
1, 1353, Note_on_c, 1, 57, 96
1, 1354, Note_off_c, 1, 69, 96
1, 1354, Note_off_c, 1, 75, 96
1, 1354, Note_off_c, 1, 66, 96
1, 1354, Note_off_c, 1, 61, 96
1, 1354, Note_off_c, 1, 57, 96
1, 1384, Note_on_c, 1, 70, 96
1, 1385, Note_off_c, 1, 70, 96
1, 1417, Note_on_c, 1, 76, 96
1, 1417, Note_on_c, 1, 67, 96
1, 1417, Note_on_c, 1, 40, 96
1, 1418, Note_off_c, 1, 76, 96
1, 1418, Note_off_c, 1, 67, 96
1, 1418, Note_off_c, 1, 40, 96
1, 1448, Note_on_c, 1, 76, 96
1, 1449, Note_off_c, 1, 76, 96
1, 1482, Note_on_c, 1, 78, 96
1, 1482, Note_on_c, 1, 61, 96
1, 1482, Note_on_c, 1, 55, 96
1, 1482, Note_on_c, 1, 52, 96
1, 1483, Note_off_c, 1, 78, 96
1, 1483, Note_off_c, 1, 61, 96
1, 1483, Note_off_c, 1, 55, 96
1, 1483, Note_off_c, 1, 52, 96
1, 1514, Note_on_c, 1, 81, 96
1, 1514, Note_on_c, 1, 69, 96
1, 1515, Note_off_c, 1, 81, 96
1, 1515, Note_off_c, 1, 69, 96
1, 1547, Note_on_c, 1, 66, 96
1, 1547, Note_on_c, 1, 57, 96
1, 1547, Note_on_c, 1, 62, 96
1, 1548, Note_off_c, 1, 66, 96
1, 1548, Note_off_c, 1, 57, 96
1, 1548, Note_off_c, 1, 62, 96
1, 1578, Note_on_c, 1, 74, 96
1, 1579, Note_off_c, 1, 74, 96
1, 1611, Note_on_c, 1, 67, 96
1, 1611, Note_on_c, 1, 62, 96
1, 1611, Note_on_c, 1, 52, 96
1, 1612, Note_off_c, 1, 67, 96
1, 1612, Note_off_c, 1, 62, 96
1, 1612, Note_off_c, 1, 52, 96
1, 1642, Note_on_c, 1, 66, 96
1, 1643, Note_off_c, 1, 66, 96
1, 1676, Note_on_c, 1, 72, 96
1, 1676, Note_on_c, 1, 64, 96
1, 1676, Note_on_c, 1, 60, 96
1, 1676, Note_on_c, 1, 55, 96
1, 1677, Note_off_c, 1, 72, 96
1, 1677, Note_off_c, 1, 64, 96
1, 1677, Note_off_c, 1, 60, 96
1, 1677, Note_off_c, 1, 55, 96
1, 1708, Note_on_c, 1, 79, 96
1, 1708, Note_on_c, 1, 67, 96
1, 1709, Note_off_c, 1, 79, 96
1, 1709, Note_off_c, 1, 67, 96
1, 1743, Note_on_c, 1, 67, 96
1, 1743, Note_on_c, 1, 76, 96
1, 1743, Note_on_c, 1, 79, 96
1, 1743, Note_on_c, 1, 49, 96
1, 1743, Note_on_c, 1, 61, 96
1, 1744, Note_off_c, 1, 67, 96
1, 1744, Note_off_c, 1, 76, 96
1, 1744, Note_off_c, 1, 79, 96
1, 1744, Note_off_c, 1, 49, 96
1, 1744, Note_off_c, 1, 61, 96
1, 1774, Note_on_c, 1, 76, 96
1, 1775, Note_off_c, 1, 76, 96
1, 1808, Note_on_c, 1, 80, 96
1, 1808, Note_on_c, 1, 62, 96
1, 1808, Note_on_c, 1, 56, 96
1, 1808, Note_on_c, 1, 52, 96
1, 1809, Note_off_c, 1, 80, 96
1, 1809, Note_off_c, 1, 62, 96
1, 1809, Note_off_c, 1, 56, 96
1, 1809, Note_off_c, 1, 52, 96
1, 1839, Note_on_c, 1, 76, 96
1, 1840, Note_off_c, 1, 76, 96
1, 1873, Note_on_c, 1, 79, 96
1, 1873, Note_on_c, 1, 55, 96
1, 1873, Note_on_c, 1, 62, 96
1, 1873, Note_on_c, 1, 58, 96
1, 1874, Note_off_c, 1, 79, 96
1, 1874, Note_off_c, 1, 55, 96
1, 1874, Note_off_c, 1, 62, 96
1, 1874, Note_off_c, 1, 58, 96
1, 1904, Note_on_c, 1, 76, 96
1, 1905, Note_off_c, 1, 76, 96
1, 1937, Note_on_c, 1, 76, 96
1, 1937, Note_on_c, 1, 64, 96
1, 1937, Note_on_c, 1, 52, 96
1, 1938, Note_off_c, 1, 76, 96
1, 1938, Note_off_c, 1, 64, 96
1, 1938, Note_off_c, 1, 52, 96
1, 1968, Note_on_c, 1, 72, 96
1, 1969, Note_off_c, 1, 72, 96
1, 2001, Note_on_c, 1, 76, 96
1, 2001, Note_on_c, 1, 64, 96
1, 2001, Note_on_c, 1, 52, 96
1, 2002, Note_off_c, 1, 76, 96
1, 2002, Note_off_c, 1, 64, 96
1, 2002, Note_off_c, 1, 52, 96
1, 2032, Note_on_c, 1, 76, 96
1, 2033, Note_off_c, 1, 76, 96
1, 2064, Note_on_c, 1, 76, 96
1, 2064, Note_on_c, 1, 47, 96
1, 2065, Note_off_c, 1, 76, 96
1, 2065, Note_off_c, 1, 47, 96
1, 2095, Note_on_c, 1, 79, 96
1, 2096, Note_off_c, 1, 79, 96
1, 2129, Note_on_c, 1, 79, 96
1, 2129, Note_on_c, 1, 59, 96
1, 2129, Note_on_c, 1, 55, 96
1, 2129, Note_on_c, 1, 52, 96
1, 2130, Note_off_c, 1, 79, 96
1, 2130, Note_off_c, 1, 59, 96
1, 2130, Note_off_c, 1, 55, 96
1, 2130, Note_off_c, 1, 52, 96
1, 2160, Note_on_c, 1, 73, 96
1, 2161, Note_off_c, 1, 73, 96
1, 2193, Note_on_c, 1, 76, 96
1, 2193, Note_on_c, 1, 60, 96
1, 2193, Note_on_c, 1, 52, 96
1, 2194, Note_off_c, 1, 76, 96
1, 2194, Note_off_c, 1, 60, 96
1, 2194, Note_off_c, 1, 52, 96
1, 2224, Note_on_c, 1, 76, 96
1, 2225, Note_off_c, 1, 76, 96
1, 2259, Note_on_c, 1, 78, 96
1, 2259, Note_on_c, 1, 64, 96
1, 2259, Note_on_c, 1, 61, 96
1, 2259, Note_on_c, 1, 58, 96
1, 2259, Note_on_c, 1, 55, 96
1, 2260, Note_off_c, 1, 78, 96
1, 2260, Note_off_c, 1, 64, 96
1, 2260, Note_off_c, 1, 61, 96
1, 2260, Note_off_c, 1, 58, 96
1, 2260, Note_off_c, 1, 55, 96
1, 2291, Note_on_c, 1, 76, 96
1, 2291, Note_on_c, 1, 81, 96
1, 2292, Note_off_c, 1, 76, 96
1, 2292, Note_off_c, 1, 81, 96
1, 2322, Note_on_c, 1, 42, 96
1, 2323, Note_off_c, 1, 42, 96
1, 2354, Note_on_c, 1, 73, 96
1, 2354, Note_on_c, 1, 66, 96
1, 2355, Note_off_c, 1, 73, 96
1, 2355, Note_off_c, 1, 66, 96
1, 2388, Note_on_c, 1, 81, 96
1, 2388, Note_on_c, 1, 69, 96
1, 2388, Note_on_c, 1, 61, 96
1, 2388, Note_on_c, 1, 49, 96
1, 2389, Note_off_c, 1, 81, 96
1, 2389, Note_off_c, 1, 69, 96
1, 2389, Note_off_c, 1, 61, 96
1, 2389, Note_off_c, 1, 49, 96
1, 2420, Note_on_c, 1, 79, 96
1, 2420, Note_on_c, 1, 73, 96
1, 2421, Note_off_c, 1, 79, 96
1, 2421, Note_off_c, 1, 73, 96
1, 2454, Note_on_c, 1, 80, 96
1, 2454, Note_on_c, 1, 74, 96
1, 2454, Note_on_c, 1, 47, 96
1, 2454, Note_on_c, 1, 59, 96
1, 2455, Note_off_c, 1, 80, 96
1, 2455, Note_off_c, 1, 74, 96
1, 2455, Note_off_c, 1, 47, 96
1, 2455, Note_off_c, 1, 59, 96
1, 2487, Note_on_c, 1, 67, 96
1, 2487, Note_on_c, 1, 74, 96
1, 2487, Note_on_c, 1, 79, 96
1, 2488, Note_off_c, 1, 67, 96
1, 2488, Note_off_c, 1, 74, 96
1, 2488, Note_off_c, 1, 79, 96
1, 2518, Note_on_c, 1, 43, 96
1, 2519, Note_off_c, 1, 43, 96
1, 2551, Note_on_c, 1, 83, 96
1, 2551, Note_on_c, 1, 71, 96
1, 2551, Note_on_c, 1, 76, 96
1, 2552, Note_off_c, 1, 83, 96
1, 2552, Note_off_c, 1, 71, 96
1, 2552, Note_off_c, 1, 76, 96
1, 2586, Note_on_c, 1, 81, 96
1, 2586, Note_on_c, 1, 69, 96
1, 2586, Note_on_c, 1, 55, 96
1, 2586, Note_on_c, 1, 57, 96
1, 2586, Note_on_c, 1, 61, 96
1, 2587, Note_off_c, 1, 81, 96
1, 2587, Note_off_c, 1, 69, 96
1, 2587, Note_off_c, 1, 55, 96
1, 2587, Note_off_c, 1, 57, 96
1, 2587, Note_off_c, 1, 61, 96
1, 2617, Note_on_c, 1, 67, 96
1, 2618, Note_off_c, 1, 67, 96
1, 2650, Note_on_c, 1, 71, 96
1, 2650, Note_on_c, 1, 64, 96
1, 2650, Note_on_c, 1, 52, 96
1, 2651, Note_off_c, 1, 71, 96
1, 2651, Note_off_c, 1, 64, 96
1, 2651, Note_off_c, 1, 52, 96
1, 2681, Note_on_c, 1, 77, 96
1, 2682, Note_off_c, 1, 77, 96
1, 2715, Note_on_c, 1, 79, 96
1, 2715, Note_on_c, 1, 61, 96
1, 2715, Note_on_c, 1, 57, 96
1, 2715, Note_on_c, 1, 55, 96
1, 2716, Note_off_c, 1, 79, 96
1, 2716, Note_off_c, 1, 61, 96
1, 2716, Note_off_c, 1, 57, 96
1, 2716, Note_off_c, 1, 55, 96
1, 2746, Note_on_c, 1, 75, 96
1, 2747, Note_off_c, 1, 75, 96
1, 2781, Note_on_c, 1, 74, 96
1, 2781, Note_on_c, 1, 78, 96
1, 2781, Note_on_c, 1, 50, 96
1, 2781, Note_on_c, 1, 60, 96
1, 2781, Note_on_c, 1, 54, 96
1, 2782, Note_off_c, 1, 74, 96
1, 2782, Note_off_c, 1, 78, 96
1, 2782, Note_off_c, 1, 50, 96
1, 2782, Note_off_c, 1, 60, 96
1, 2782, Note_off_c, 1, 54, 96
1, 2813, Note_on_c, 1, 75, 96
1, 2813, Note_on_c, 1, 78, 96
1, 2814, Note_off_c, 1, 75, 96
1, 2814, Note_off_c, 1, 78, 96
1, 2847, Note_on_c, 1, 83, 96
1, 2847, Note_on_c, 1, 79, 96
1, 2847, Note_on_c, 1, 57, 96
1, 2847, Note_on_c, 1, 45, 96
1, 2848, Note_off_c, 1, 83, 96
1, 2848, Note_off_c, 1, 79, 96
1, 2848, Note_off_c, 1, 57, 96
1, 2848, Note_off_c, 1, 45, 96
1, 2878, Note_on_c, 1, 76, 96
1, 2879, Note_off_c, 1, 76, 96
1, 2909, Note_on_c, 1, 74, 96
1, 2910, Note_off_c, 1, 74, 96
1, 2940, Note_on_c, 1, 67, 96
1, 2941, Note_off_c, 1, 67, 96
1, 2974, Note_on_c, 1, 66, 96
1, 2974, Note_on_c, 1, 60, 96
1, 2974, Note_on_c, 1, 57, 96
1, 2974, Note_on_c, 1, 50, 96
1, 2975, Note_off_c, 1, 66, 96
1, 2975, Note_off_c, 1, 60, 96
1, 2975, Note_off_c, 1, 57, 96
1, 2975, Note_off_c, 1, 50, 96
1, 3005, Note_on_c, 1, 76, 96
1, 3006, Note_off_c, 1, 76, 96
1, 3039, Note_on_c, 1, 78, 96
1, 3039, Note_on_c, 1, 59, 96
1, 3039, Note_on_c, 1, 62, 96
1, 3039, Note_on_c, 1, 54, 96
1, 3040, Note_off_c, 1, 78, 96
1, 3040, Note_off_c, 1, 59, 96
1, 3040, Note_off_c, 1, 62, 96
1, 3040, Note_off_c, 1, 54, 96
1, 3070, Note_on_c, 1, 71, 96
1, 3071, Note_off_c, 1, 71, 96
1, 3101, Note_on_c, 1, 43, 96
1, 3102, Note_off_c, 1, 43, 96
1, 3132, Note_on_c, 1, 70, 96
1, 3133, Note_off_c, 1, 70, 96
1, 3164, Note_on_c, 1, 57, 96
1, 3164, Note_on_c, 1, 45, 96
1, 3165, Note_off_c, 1, 57, 96
1, 3165, Note_off_c, 1, 45, 96
1, 3196, Note_on_c, 1, 81, 96
1, 3196, Note_on_c, 1, 78, 96
1, 3197, Note_off_c, 1, 81, 96
1, 3197, Note_off_c, 1, 78, 96
1, 3227, Note_on_c, 1, 74, 96
1, 3228, Note_off_c, 1, 74, 96
1, 3258, Note_on_c, 1, 74, 96
1, 3259, Note_off_c, 1, 74, 96
1, 3289, Note_on_c, 1, 81, 96
1, 3290, Note_off_c, 1, 81, 96
1, 3320, Note_on_c, 1, 81, 96
1, 3321, Note_off_c, 1, 81, 96
1, 3351, Note_on_c, 1, 84, 96
1, 3352, Note_off_c, 1, 84, 96
1, 3382, Note_on_c, 1, 74, 96
1, 3383, Note_off_c, 1, 74, 96
1, 3413, Note_on_c, 1, 84, 96
1, 3414, Note_off_c, 1, 84, 96
1, 3447, Note_on_c, 1, 86, 96
1, 3447, Note_on_c, 1, 78, 96
1, 3447, Note_on_c, 1, 74, 96
1, 3447, Note_on_c, 1, 50, 96
1, 3448, Note_off_c, 1, 86, 96
1, 3448, Note_off_c, 1, 78, 96
1, 3448, Note_off_c, 1, 74, 96
1, 3448, Note_off_c, 1, 50, 96
1, 3512, Note_on_c, 1, 77, 96
1, 3512, Note_on_c, 1, 83, 96
1, 3512, Note_on_c, 1, 57, 96
1, 3512, Note_on_c, 1, 65, 96
1, 3512, Note_on_c, 1, 62, 96
1, 3513, Note_off_c, 1, 77, 96
1, 3513, Note_off_c, 1, 83, 96
1, 3513, Note_off_c, 1, 57, 96
1, 3513, Note_off_c, 1, 65, 96
1, 3513, Note_off_c, 1, 62, 96
1, 3543, Note_on_c, 1, 74, 96
1, 3544, Note_off_c, 1, 74, 96
1, 3577, Note_on_c, 1, 77, 96
1, 3577, Note_on_c, 1, 62, 96
1, 3577, Note_on_c, 1, 54, 96
1, 3577, Note_on_c, 1, 57, 96
1, 3578, Note_off_c, 1, 77, 96
1, 3578, Note_off_c, 1, 62, 96
1, 3578, Note_off_c, 1, 54, 96
1, 3578, Note_off_c, 1, 57, 96
1, 3608, Note_on_c, 1, 83, 96
1, 3609, Note_off_c, 1, 83, 96
1, 3641, Note_on_c, 1, 69, 96
1, 3641, Note_on_c, 1, 60, 96
1, 3641, Note_on_c, 1, 62, 96
1, 3642, Note_off_c, 1, 69, 96
1, 3642, Note_off_c, 1, 60, 96
1, 3642, Note_off_c, 1, 62, 96
1, 3672, Note_on_c, 1, 72, 96
1, 3673, Note_off_c, 1, 72, 96
1, 3704, Note_on_c, 1, 77, 96
1, 3704, Note_on_c, 1, 47, 96
1, 3705, Note_off_c, 1, 77, 96
1, 3705, Note_off_c, 1, 47, 96
1, 3735, Note_on_c, 1, 81, 96
1, 3736, Note_off_c, 1, 81, 96
1, 3769, Note_on_c, 1, 79, 96
1, 3769, Note_on_c, 1, 59, 96
1, 3769, Note_on_c, 1, 65, 96
1, 3769, Note_on_c, 1, 55, 96
1, 3770, Note_off_c, 1, 79, 96
1, 3770, Note_off_c, 1, 59, 96
1, 3770, Note_off_c, 1, 65, 96
1, 3770, Note_off_c, 1, 55, 96
1, 3800, Note_on_c, 1, 79, 96
1, 3801, Note_off_c, 1, 79, 96
1, 3833, Note_on_c, 1, 76, 96
1, 3833, Note_on_c, 1, 74, 96
1, 3833, Note_on_c, 1, 48, 96
1, 3834, Note_off_c, 1, 76, 96
1, 3834, Note_off_c, 1, 74, 96
1, 3834, Note_off_c, 1, 48, 96
1, 3865, Note_on_c, 1, 79, 96
1, 3865, Note_on_c, 1, 71, 96
1, 3866, Note_off_c, 1, 79, 96
1, 3866, Note_off_c, 1, 71, 96
1, 3902, Note_on_c, 1, 67, 96
1, 3902, Note_on_c, 1, 72, 96
1, 3902, Note_on_c, 1, 76, 96
1, 3902, Note_on_c, 1, 79, 96
1, 3902, Note_on_c, 1, 52, 96
1, 3902, Note_on_c, 1, 60, 96
1, 3902, Note_on_c, 1, 55, 96
1, 3903, Note_off_c, 1, 67, 96
1, 3903, Note_off_c, 1, 72, 96
1, 3903, Note_off_c, 1, 76, 96
1, 3903, Note_off_c, 1, 79, 96
1, 3903, Note_off_c, 1, 52, 96
1, 3903, Note_off_c, 1, 60, 96
1, 3903, Note_off_c, 1, 55, 96
1, 3966, Note_on_c, 1, 79, 96
1, 3966, Note_on_c, 1, 67, 96
1, 3966, Note_on_c, 1, 55, 96
1, 3966, Note_on_c, 1, 43, 96
1, 3967, Note_off_c, 1, 79, 96
1, 3967, Note_off_c, 1, 67, 96
1, 3967, Note_off_c, 1, 55, 96
1, 3967, Note_off_c, 1, 43, 96
1, 4027, Note_on_c, 1, 48, 96
1, 4028, Note_off_c, 1, 48, 96
1, 4091, Note_on_c, 1, 64, 96
1, 4091, Note_on_c, 1, 76, 96
1, 4091, Note_on_c, 1, 55, 96
1, 4091, Note_on_c, 1, 60, 96
1, 4092, Note_off_c, 1, 64, 96
1, 4092, Note_off_c, 1, 76, 96
1, 4092, Note_off_c, 1, 55, 96
1, 4092, Note_off_c, 1, 60, 96
1, 4154, Note_on_c, 1, 64, 96
1, 4154, Note_on_c, 1, 74, 96
1, 4154, Note_on_c, 1, 43, 96
1, 4155, Note_off_c, 1, 64, 96
1, 4155, Note_off_c, 1, 74, 96
1, 4155, Note_off_c, 1, 43, 96
1, 4217, Note_on_c, 1, 55, 96
1, 4217, Note_on_c, 1, 76, 96
1, 4217, Note_on_c, 1, 67, 96
1, 4218, Note_off_c, 1, 55, 96
1, 4218, Note_off_c, 1, 76, 96
1, 4218, Note_off_c, 1, 67, 96
1, 4280, Note_on_c, 1, 55, 96
1, 4280, Note_on_c, 1, 52, 96
1, 4280, Note_on_c, 1, 43, 96
1, 4281, Note_off_c, 1, 55, 96
1, 4281, Note_off_c, 1, 52, 96
1, 4281, Note_off_c, 1, 43, 96
1, 4343, Note_on_c, 1, 67, 96
1, 4343, Note_on_c, 1, 55, 96
1, 4343, Note_on_c, 1, 43, 96
1, 4344, Note_off_c, 1, 67, 96
1, 4344, Note_off_c, 1, 55, 96
1, 4344, Note_off_c, 1, 43, 96
1, 4406, Note_on_c, 1, 59, 96
1, 4406, Note_on_c, 1, 55, 96
1, 4406, Note_on_c, 1, 50, 96
1, 4407, Note_off_c, 1, 59, 96
1, 4407, Note_off_c, 1, 55, 96
1, 4407, Note_off_c, 1, 50, 96
1, 4468, Note_on_c, 1, 55, 96
1, 4468, Note_on_c, 1, 51, 96
1, 4469, Note_off_c, 1, 55, 96
1, 4469, Note_off_c, 1, 51, 96
1, 4499, Note_on_c, 1, 70, 96
1, 4500, Note_off_c, 1, 70, 96
1, 4531, Note_on_c, 1, 72, 96
1, 4531, Note_on_c, 1, 39, 96
1, 4531, Note_on_c, 1, 51, 96
1, 4532, Note_off_c, 1, 72, 96
1, 4532, Note_off_c, 1, 39, 96
1, 4532, Note_off_c, 1, 51, 96
1, 4562, Note_on_c, 1, 65, 96
1, 4563, Note_off_c, 1, 65, 96
1, 4593, Note_on_c, 1, 67, 96
1, 4594, Note_off_c, 1, 67, 96
1, 4655, Note_on_c, 1, 43, 96
1, 4655, Note_on_c, 1, 55, 96
1, 4656, Note_off_c, 1, 43, 96
1, 4656, Note_off_c, 1, 55, 96
1, 4687, Note_on_c, 1, 75, 96
1, 4687, Note_on_c, 1, 68, 96
1, 4688, Note_off_c, 1, 75, 96
1, 4688, Note_off_c, 1, 68, 96
1, 4719, Note_on_c, 1, 49, 96
1, 4719, Note_on_c, 1, 61, 96
1, 4720, Note_off_c, 1, 49, 96
1, 4720, Note_off_c, 1, 61, 96
1, 4751, Note_on_c, 1, 66, 96
1, 4751, Note_on_c, 1, 78, 96
1, 4752, Note_off_c, 1, 66, 96
1, 4752, Note_off_c, 1, 78, 96
1, 4783, Note_on_c, 1, 55, 96
1, 4783, Note_on_c, 1, 61, 96
1, 4784, Note_off_c, 1, 55, 96
1, 4784, Note_off_c, 1, 61, 96
1, 4814, Note_on_c, 1, 75, 96
1, 4815, Note_off_c, 1, 75, 96
1, 4848, Note_on_c, 1, 76, 96
1, 4848, Note_on_c, 1, 50, 96
1, 4848, Note_on_c, 1, 60, 96
1, 4848, Note_on_c, 1, 55, 96
1, 4849, Note_off_c, 1, 76, 96
1, 4849, Note_off_c, 1, 50, 96
1, 4849, Note_off_c, 1, 60, 96
1, 4849, Note_off_c, 1, 55, 96
1, 4879, Note_on_c, 1, 71, 96
1, 4880, Note_off_c, 1, 71, 96
1, 4912, Note_on_c, 1, 70, 96
1, 4912, Note_on_c, 1, 43, 96
1, 4912, Note_on_c, 1, 55, 96
1, 4913, Note_off_c, 1, 70, 96
1, 4913, Note_off_c, 1, 43, 96
1, 4913, Note_off_c, 1, 55, 96
1, 4944, Note_on_c, 1, 72, 96
1, 4944, Note_on_c, 1, 64, 96
1, 4945, Note_off_c, 1, 72, 96
1, 4945, Note_off_c, 1, 64, 96
1, 4976, Note_on_c, 1, 60, 96
1, 4976, Note_on_c, 1, 48, 96
1, 4977, Note_off_c, 1, 60, 96
1, 4977, Note_off_c, 1, 48, 96
1, 5007, Note_on_c, 1, 78, 96
1, 5008, Note_off_c, 1, 78, 96
1, 5041, Note_on_c, 1, 78, 96
1, 5041, Note_on_c, 1, 60, 96
1, 5041, Note_on_c, 1, 64, 96
1, 5041, Note_on_c, 1, 55, 96
1, 5042, Note_off_c, 1, 78, 96
1, 5042, Note_off_c, 1, 60, 96
1, 5042, Note_off_c, 1, 64, 96
1, 5042, Note_off_c, 1, 55, 96
1, 5073, Note_on_c, 1, 80, 96
1, 5073, Note_on_c, 1, 75, 96
1, 5074, Note_off_c, 1, 80, 96
1, 5074, Note_off_c, 1, 75, 96
1, 5105, Note_on_c, 1, 55, 96
1, 5105, Note_on_c, 1, 52, 96
1, 5106, Note_off_c, 1, 55, 96
1, 5106, Note_off_c, 1, 52, 96
1, 5136, Note_on_c, 1, 74, 96
1, 5137, Note_off_c, 1, 74, 96
1, 5170, Note_on_c, 1, 74, 96
1, 5170, Note_on_c, 1, 59, 96
1, 5170, Note_on_c, 1, 62, 96
1, 5170, Note_on_c, 1, 55, 96
1, 5171, Note_off_c, 1, 74, 96
1, 5171, Note_off_c, 1, 59, 96
1, 5171, Note_off_c, 1, 62, 96
1, 5171, Note_off_c, 1, 55, 96
1, 5232, Note_on_c, 1, 55, 96
1, 5232, Note_on_c, 1, 43, 96
1, 5233, Note_off_c, 1, 55, 96
1, 5233, Note_off_c, 1, 43, 96
1, 5263, Note_on_c, 1, 67, 96
1, 5264, Note_off_c, 1, 67, 96
1, 5296, Note_on_c, 1, 73, 96
1, 5296, Note_on_c, 1, 46, 96
1, 5296, Note_on_c, 1, 58, 96
1, 5297, Note_off_c, 1, 73, 96
1, 5297, Note_off_c, 1, 46, 96
1, 5297, Note_off_c, 1, 58, 96
1, 5327, Note_on_c, 1, 67, 96
1, 5328, Note_off_c, 1, 67, 96
1, 5362, Note_on_c, 1, 67, 96
1, 5362, Note_on_c, 1, 76, 96
1, 5362, Note_on_c, 1, 64, 96
1, 5362, Note_on_c, 1, 55, 96
1, 5362, Note_on_c, 1, 59, 96
1, 5363, Note_off_c, 1, 67, 96
1, 5363, Note_off_c, 1, 76, 96
1, 5363, Note_off_c, 1, 64, 96
1, 5363, Note_off_c, 1, 55, 96
1, 5363, Note_off_c, 1, 59, 96
1, 5426, Note_on_c, 1, 69, 96
1, 5426, Note_on_c, 1, 67, 96
1, 5426, Note_on_c, 1, 57, 96
1, 5426, Note_on_c, 1, 49, 96
1, 5427, Note_off_c, 1, 69, 96
1, 5427, Note_off_c, 1, 67, 96
1, 5427, Note_off_c, 1, 57, 96
1, 5427, Note_off_c, 1, 49, 96
1, 5489, Note_on_c, 1, 67, 96
1, 5489, Note_on_c, 1, 69, 96
1, 5489, Note_on_c, 1, 37, 96
1, 5490, Note_off_c, 1, 67, 96
1, 5490, Note_off_c, 1, 69, 96
1, 5490, Note_off_c, 1, 37, 96
1, 5521, Note_on_c, 1, 75, 96
1, 5521, Note_on_c, 1, 78, 96
1, 5522, Note_off_c, 1, 75, 96
1, 5522, Note_off_c, 1, 78, 96
1, 5554, Note_on_c, 1, 57, 96
1, 5554, Note_on_c, 1, 61, 96
1, 5554, Note_on_c, 1, 55, 96
1, 5555, Note_off_c, 1, 57, 96
1, 5555, Note_off_c, 1, 61, 96
1, 5555, Note_off_c, 1, 55, 96
1, 5619, Note_on_c, 1, 84, 96
1, 5619, Note_on_c, 1, 79, 96
1, 5619, Note_on_c, 1, 76, 96
1, 5619, Note_on_c, 1, 55, 96
1, 5619, Note_on_c, 1, 43, 96
1, 5620, Note_off_c, 1, 84, 96
1, 5620, Note_off_c, 1, 79, 96
1, 5620, Note_off_c, 1, 76, 96
1, 5620, Note_off_c, 1, 55, 96
1, 5620, Note_off_c, 1, 43, 96
1, 5651, Note_on_c, 1, 76, 96
1, 5651, Note_on_c, 1, 79, 96
1, 5652, Note_off_c, 1, 76, 96
1, 5652, Note_off_c, 1, 79, 96
1, 5683, Note_on_c, 1, 57, 96
1, 5683, Note_on_c, 1, 45, 96
1, 5684, Note_off_c, 1, 57, 96
1, 5684, Note_off_c, 1, 45, 96
1, 5714, Note_on_c, 1, 67, 96
1, 5715, Note_off_c, 1, 67, 96
1, 5746, Note_on_c, 1, 76, 96
1, 5746, Note_on_c, 1, 52, 96
1, 5747, Note_off_c, 1, 76, 96
1, 5747, Note_off_c, 1, 52, 96
1, 5778, Note_on_c, 1, 71, 96
1, 5778, Note_on_c, 1, 83, 96
1, 5779, Note_off_c, 1, 71, 96
1, 5779, Note_off_c, 1, 83, 96
1, 5813, Note_on_c, 1, 83, 96
1, 5813, Note_on_c, 1, 71, 96
1, 5813, Note_on_c, 1, 62, 96
1, 5813, Note_on_c, 1, 59, 96
1, 5813, Note_on_c, 1, 65, 96
1, 5814, Note_off_c, 1, 83, 96
1, 5814, Note_off_c, 1, 71, 96
1, 5814, Note_off_c, 1, 62, 96
1, 5814, Note_off_c, 1, 59, 96
1, 5814, Note_off_c, 1, 65, 96
1, 5876, Note_on_c, 1, 78, 96
1, 5876, Note_on_c, 1, 73, 96
1, 5876, Note_on_c, 1, 69, 96
1, 5877, Note_off_c, 1, 78, 96
1, 5877, Note_off_c, 1, 73, 96
1, 5877, Note_off_c, 1, 69, 96
1, 5908, Note_on_c, 1, 81, 96
1, 5908, Note_on_c, 1, 69, 96
1, 5909, Note_off_c, 1, 81, 96
1, 5909, Note_off_c, 1, 69, 96
1, 5942, Note_on_c, 1, 81, 96
1, 5942, Note_on_c, 1, 73, 96
1, 5942, Note_on_c, 1, 69, 96
1, 5942, Note_on_c, 1, 76, 96
1, 5943, Note_off_c, 1, 81, 96
1, 5943, Note_off_c, 1, 73, 96
1, 5943, Note_off_c, 1, 69, 96
1, 5943, Note_off_c, 1, 76, 96
1, 5974, Note_on_c, 1, 81, 96
1, 5974, Note_on_c, 1, 69, 96
1, 5975, Note_off_c, 1, 81, 96
1, 5975, Note_off_c, 1, 69, 96
1, 6006, Note_on_c, 1, 73, 96
1, 6006, Note_on_c, 1, 81, 96
1, 6007, Note_off_c, 1, 73, 96
1, 6007, Note_off_c, 1, 81, 96
1, 6038, Note_on_c, 1, 73, 96
1, 6038, Note_on_c, 1, 57, 96
1, 6039, Note_off_c, 1, 73, 96
1, 6039, Note_off_c, 1, 57, 96
1, 6069, Note_on_c, 1, 76, 96
1, 6070, Note_off_c, 1, 76, 96
1, 6100, Note_on_c, 1, 69, 96
1, 6101, Note_off_c, 1, 69, 96
1, 6131, Note_on_c, 1, 76, 96
1, 6132, Note_off_c, 1, 76, 96
1, 6163, Note_on_c, 1, 77, 96
1, 6163, Note_on_c, 1, 67, 96
1, 6164, Note_off_c, 1, 77, 96
1, 6164, Note_off_c, 1, 67, 96
1, 6225, Note_on_c, 1, 62, 96
1, 6225, Note_on_c, 1, 50, 96
1, 6226, Note_off_c, 1, 62, 96
1, 6226, Note_off_c, 1, 50, 96
1, 6287, Note_on_c, 1, 58, 96
1, 6287, Note_on_c, 1, 46, 96
1, 6288, Note_off_c, 1, 58, 96
1, 6288, Note_off_c, 1, 46, 96
1, 6318, Note_on_c, 1, 72, 96
1, 6319, Note_off_c, 1, 72, 96
1, 6351, Note_on_c, 1, 74, 96
1, 6351, Note_on_c, 1, 48, 96
1, 6351, Note_on_c, 1, 34, 96
1, 6352, Note_off_c, 1, 74, 96
1, 6352, Note_off_c, 1, 48, 96
1, 6352, Note_off_c, 1, 34, 96
1, 6382, Note_on_c, 1, 74, 96
1, 6383, Note_off_c, 1, 74, 96
1, 6415, Note_on_c, 1, 53, 96
1, 6415, Note_on_c, 1, 58, 96
1, 6415, Note_on_c, 1, 62, 96
1, 6416, Note_off_c, 1, 53, 96
1, 6416, Note_off_c, 1, 58, 96
1, 6416, Note_off_c, 1, 62, 96
1, 6476, Note_on_c, 1, 62, 96
1, 6477, Note_off_c, 1, 62, 96
1, 6537, Note_on_c, 1, 61, 96
1, 6538, Note_off_c, 1, 61, 96
1, 6571, Note_on_c, 1, 73, 96
1, 6571, Note_on_c, 1, 64, 96
1, 6571, Note_on_c, 1, 61, 96
1, 6572, Note_off_c, 1, 73, 96
1, 6572, Note_off_c, 1, 64, 96
1, 6572, Note_off_c, 1, 61, 96
1, 6604, Note_on_c, 1, 77, 96
1, 6604, Note_on_c, 1, 74, 96
1, 6604, Note_on_c, 1, 50, 96
1, 6605, Note_off_c, 1, 77, 96
1, 6605, Note_off_c, 1, 74, 96
1, 6605, Note_off_c, 1, 50, 96
1, 6669, Note_on_c, 1, 67, 96
1, 6669, Note_on_c, 1, 79, 96
1, 6669, Note_on_c, 1, 74, 96
1, 6669, Note_on_c, 1, 35, 96
1, 6669, Note_on_c, 1, 47, 96
1, 6670, Note_off_c, 1, 67, 96
1, 6670, Note_off_c, 1, 79, 96
1, 6670, Note_off_c, 1, 74, 96
1, 6670, Note_off_c, 1, 35, 96
1, 6670, Note_off_c, 1, 47, 96
1, 6731, Note_on_c, 1, 60, 96
1, 6731, Note_on_c, 1, 48, 96
1, 6732, Note_off_c, 1, 60, 96
1, 6732, Note_off_c, 1, 48, 96
1, 6793, Note_on_c, 1, 60, 96
1, 6793, Note_on_c, 1, 57, 96
1, 6794, Note_off_c, 1, 60, 96
1, 6794, Note_off_c, 1, 57, 96
1, 6857, Note_on_c, 1, 71, 96
1, 6857, Note_on_c, 1, 60, 96
1, 6857, Note_on_c, 1, 54, 96
1, 6857, Note_on_c, 1, 57, 96
1, 6858, Note_off_c, 1, 71, 96
1, 6858, Note_off_c, 1, 60, 96
1, 6858, Note_off_c, 1, 54, 96
1, 6858, Note_off_c, 1, 57, 96
1, 6921, Note_on_c, 1, 66, 96
1, 6921, Note_on_c, 1, 69, 96
1, 6921, Note_on_c, 1, 38, 96
1, 6921, Note_on_c, 1, 50, 96
1, 6922, Note_off_c, 1, 66, 96
1, 6922, Note_off_c, 1, 69, 96
1, 6922, Note_off_c, 1, 38, 96
1, 6922, Note_off_c, 1, 50, 96
1, 6983, Note_on_c, 1, 71, 96
1, 6983, Note_on_c, 1, 79, 96
1, 6984, Note_off_c, 1, 71, 96
1, 6984, Note_off_c, 1, 79, 96
1, 7044, Note_on_c, 1, 43, 96
1, 7045, Note_off_c, 1, 43, 96
1, 7106, Note_on_c, 1, 52, 96
1, 7106, Note_on_c, 1, 40, 96
1, 7107, Note_off_c, 1, 52, 96
1, 7107, Note_off_c, 1, 40, 96
1, 7168, Note_on_c, 1, 60, 96
1, 7168, Note_on_c, 1, 48, 96
1, 7169, Note_off_c, 1, 60, 96
1, 7169, Note_off_c, 1, 48, 96
1, 7232, Note_on_c, 1, 67, 96
1, 7232, Note_on_c, 1, 64, 96
1, 7232, Note_on_c, 1, 60, 96
1, 7232, Note_on_c, 1, 55, 96
1, 7233, Note_off_c, 1, 67, 96
1, 7233, Note_off_c, 1, 64, 96
1, 7233, Note_off_c, 1, 60, 96
1, 7233, Note_off_c, 1, 55, 96
1, 7305, Note_on_c, 1, 70, 96
1, 7306, Note_off_c, 1, 70, 96
1, 7401, Note_on_c, 1, 43, 96
1, 7402, Note_off_c, 1, 43, 96
1, 7422, Note_on_c, 1, 65, 96
1, 7423, Note_off_c, 1, 65, 96
1, 7600, Note_on_c, 1, 58, 96
1, 7600, Note_on_c, 1, 78, 96
1, 7600, Note_on_c, 1, 70, 96
1, 7601, Note_off_c, 1, 58, 96
1, 7601, Note_off_c, 1, 78, 96
1, 7601, Note_off_c, 1, 70, 96
1, 7700, Note_on_c, 1, 55, 96
1, 7700, Note_on_c, 1, 58, 96
1, 7701, Note_off_c, 1, 55, 96
1, 7701, Note_off_c, 1, 58, 96
1, 7801, Note_on_c, 1, 74, 96
1, 7801, Note_on_c, 1, 62, 96
1, 7802, Note_off_c, 1, 74, 96
1, 7802, Note_off_c, 1, 62, 96
1, 7876, Note_on_c, 1, 79, 96
1, 7877, Note_off_c, 1, 79, 96
1, 7930, Note_on_c, 1, 75, 96
1, 7931, Note_off_c, 1, 75, 96
1, 8046, Note_on_c, 1, 81, 96
1, 8047, Note_off_c, 1, 81, 96
1, 8049, Note_on_c, 1, 65, 96
1, 8050, Note_off_c, 1, 65, 96
1, 8163, Note_on_c, 1, 78, 96
1, 8165, Note_off_c, 1, 78, 96
1, 8165, Note_on_c, 1, 58, 96
1, 8166, Note_off_c, 1, 58, 96
1, 8222, Note_on_c, 1, 70, 96
1, 8223, Note_off_c, 1, 70, 96
1, 8288, Note_on_c, 1, 64, 96
1, 8288, Note_on_c, 1, 52, 96
1, 8289, Note_off_c, 1, 64, 96
1, 8289, Note_off_c, 1, 52, 96
1, 8405, Note_on_c, 1, 38, 96
1, 8406, Note_off_c, 1, 38, 96
1, 8409, Note_on_c, 1, 58, 96
1, 8410, Note_off_c, 1, 58, 96
1, 8471, Note_on_c, 1, 67, 96
1, 8472, Note_off_c, 1, 67, 96
1, 8590, Note_on_c, 1, 67, 96
1, 8591, Note_off_c, 1, 67, 96
1, 8945, Note_on_c, 1, 59, 96
1, 8947, Note_off_c, 1, 59, 96
1, 8947, Note_on_c, 1, 47, 96
1, 8948, Note_off_c, 1, 47, 96
1, 9197, Note_on_c, 1, 41, 96
1, 9199, Note_off_c, 1, 41, 96
1, 9199, Note_on_c, 1, 65, 96
1, 9200, Note_off_c, 1, 65, 96
1, 9316, Note_on_c, 1, 60, 96
1, 9317, Note_off_c, 1, 60, 96
1, 9320, Note_on_c, 1, 65, 96
1, 9322, Note_off_c, 1, 65, 96
1, 9322, Note_on_c, 1, 57, 96
1, 9323, Note_off_c, 1, 57, 96
1, 9561, Note_on_c, 1, 69, 96
1, 9561, Note_on_c, 1, 66, 96
1, 9563, Note_off_c, 1, 69, 96
1, 9563, Note_off_c, 1, 66, 96
1, 9563, Note_on_c, 1, 45, 96
1, 9564, Note_off_c, 1, 45, 96
1, 9804, Note_on_c, 1, 77, 96
1, 9805, Note_off_c, 1, 77, 96
1, 9811, Note_on_c, 1, 55, 96
1, 9812, Note_off_c, 1, 55, 96
1, 9814, Note_on_c, 1, 65, 96
1, 9815, Note_off_c, 1, 65, 96
1, 9817, Note_on_c, 1, 59, 96
1, 9818, Note_off_c, 1, 59, 96
1, 9932, Note_on_c, 1, 50, 96
1, 9933, Note_off_c, 1, 50, 96
1, 10060, Note_on_c, 1, 74, 96
1, 10061, Note_off_c, 1, 74, 96
1, 10176, Note_on_c, 1, 60, 96
1, 10177, Note_off_c, 1, 60, 96
1, 10180, Note_on_c, 1, 64, 96
1, 10182, Note_off_c, 1, 64, 96
1, 10182, Note_on_c, 1, 76, 96
1, 10184, Note_off_c, 1, 76, 96
1, 10184, Note_on_c, 1, 48, 96
1, 10186, Note_off_c, 1, 48, 96
1, 10186, Note_on_c, 1, 67, 96
1, 10187, Note_off_c, 1, 67, 96
1, 10302, Note_on_c, 1, 69, 96
1, 10304, Note_off_c, 1, 69, 96
1, 10304, Note_on_c, 1, 55, 96
1, 10306, Note_off_c, 1, 55, 96
1, 10306, Note_on_c, 1, 64, 96
1, 10309, Note_off_c, 1, 64, 96
1, 10309, Note_on_c, 1, 52, 96
1, 10309, Note_on_c, 1, 60, 96
1, 10310, Note_off_c, 1, 52, 96
1, 10310, Note_off_c, 1, 60, 96
1, 10312, Note_on_c, 1, 67, 96
1, 10313, Note_off_c, 1, 67, 96
1, 10430, Note_on_c, 1, 54, 96
1, 10431, Note_off_c, 1, 54, 96
1, 10435, Note_on_c, 1, 60, 96
1, 10436, Note_off_c, 1, 60, 96
1, 10556, Note_on_c, 1, 48, 96
1, 10557, Note_off_c, 1, 48, 96
1, 10559, Note_on_c, 1, 64, 96
1, 10560, Note_off_c, 1, 64, 96
1, 10563, Note_on_c, 1, 72, 96
1, 10563, Note_on_c, 1, 60, 96
1, 10564, Note_off_c, 1, 72, 96
1, 10564, Note_off_c, 1, 60, 96
1, 10679, Note_on_c, 1, 76, 96
1, 10679, Note_on_c, 1, 56, 96
1, 10681, Note_off_c, 1, 76, 96
1, 10681, Note_off_c, 1, 56, 96
1, 10681, Note_on_c, 1, 62, 96
1, 10682, Note_off_c, 1, 62, 96
1, 10686, Note_on_c, 1, 44, 96
1, 10687, Note_off_c, 1, 44, 96
1, 10743, Note_on_c, 1, 65, 96
1, 10744, Note_off_c, 1, 65, 96
1, 10746, Note_on_c, 1, 74, 96
1, 10747, Note_off_c, 1, 74, 96
1, 10805, Note_on_c, 1, 43, 96
1, 10806, Note_off_c, 1, 43, 96
1, 10808, Note_on_c, 1, 54, 96
1, 10809, Note_off_c, 1, 54, 96
1, 10867, Note_on_c, 1, 76, 96
1, 10868, Note_off_c, 1, 76, 96
1, 10928, Note_on_c, 1, 74, 96
1, 10929, Note_off_c, 1, 74, 96
1, 10932, Note_on_c, 1, 38, 96
1, 10933, Note_off_c, 1, 38, 96
1, 11046, Note_on_c, 1, 71, 96
1, 11048, Note_off_c, 1, 71, 96
1, 11048, Note_on_c, 1, 59, 96
1, 11049, Note_off_c, 1, 59, 96
1, 11051, Note_on_c, 1, 50, 96
1, 11052, Note_off_c, 1, 50, 96
1, 11054, Note_on_c, 1, 55, 96
1, 11055, Note_off_c, 1, 55, 96
1, 11115, Note_on_c, 1, 71, 96
1, 11116, Note_off_c, 1, 71, 96
1, 11119, Note_on_c, 1, 67, 96
1, 11120, Note_off_c, 1, 67, 96
1, 11176, Note_on_c, 1, 62, 96
1, 11177, Note_off_c, 1, 62, 96
1, 11180, Note_on_c, 1, 55, 96
1, 11182, Note_off_c, 1, 55, 96
1, 11182, Note_on_c, 1, 65, 96
1, 11185, Note_off_c, 1, 65, 96
1, 11185, Note_on_c, 1, 65, 96
1, 11185, Note_on_c, 1, 59, 96
1, 11186, Note_off_c, 1, 65, 96
1, 11186, Note_off_c, 1, 59, 96
1, 11245, Note_on_c, 1, 71, 96
1, 11246, Note_off_c, 1, 71, 96
1, 11305, Note_on_c, 1, 67, 96
1, 11306, Note_off_c, 1, 67, 96
1, 11309, Note_on_c, 1, 64, 96
1, 11310, Note_off_c, 1, 64, 96
1, 11312, Note_on_c, 1, 48, 96
1, 11313, Note_off_c, 1, 48, 96
1, 11370, Note_on_c, 1, 69, 96
1, 11371, Note_off_c, 1, 69, 96
1, 11428, Note_on_c, 1, 57, 96
1, 11429, Note_off_c, 1, 57, 96
1, 11433, Note_on_c, 1, 45, 96
1, 11434, Note_off_c, 1, 45, 96
1, 11436, Note_on_c, 1, 65, 96
1, 11438, Note_off_c, 1, 65, 96
1, 11438, Note_on_c, 1, 72, 96
1, 11439, Note_off_c, 1, 72, 96
1, 11492, Note_on_c, 1, 65, 96
1, 11494, Note_off_c, 1, 65, 96
1, 11494, Note_on_c, 1, 71, 96
1, 11495, Note_off_c, 1, 71, 96
1, 11554, Note_on_c, 1, 79, 96
1, 11556, Note_off_c, 1, 79, 96
1, 11556, Note_on_c, 1, 70, 96
1, 11557, Note_off_c, 1, 70, 96
1, 11560, Note_on_c, 1, 43, 96
1, 11562, Note_off_c, 1, 43, 96
1, 11562, Note_on_c, 1, 67, 96
1, 11563, Note_off_c, 1, 67, 96
1, 11682, Note_on_c, 1, 58, 96
1, 11682, Note_on_c, 1, 53, 96
1, 11683, Note_off_c, 1, 58, 96
1, 11683, Note_off_c, 1, 53, 96
1, 11685, Note_on_c, 1, 62, 96
1, 11687, Note_off_c, 1, 62, 96
1, 11687, Note_on_c, 1, 64, 96
1, 11688, Note_off_c, 1, 64, 96
1, 11803, Note_on_c, 1, 58, 96
1, 11804, Note_off_c, 1, 58, 96
1, 11811, Note_on_c, 1, 74, 96
1, 11811, Note_on_c, 1, 62, 96
1, 11812, Note_off_c, 1, 74, 96
1, 11812, Note_off_c, 1, 62, 96
1, 11814, Note_on_c, 1, 65, 96
1, 11815, Note_off_c, 1, 65, 96
1, 11875, Note_on_c, 1, 68, 96
1, 11875, Note_on_c, 1, 56, 96
1, 11876, Note_off_c, 1, 68, 96
1, 11876, Note_off_c, 1, 56, 96
1, 11933, Note_on_c, 1, 52, 96
1, 11934, Note_off_c, 1, 52, 96
1, 11941, Note_on_c, 1, 64, 96
1, 11942, Note_off_c, 1, 64, 96
1, 11998, Note_on_c, 1, 65, 96
1, 11999, Note_off_c, 1, 65, 96
1, 12003, Note_on_c, 1, 53, 96
1, 12004, Note_off_c, 1, 53, 96
1, 12058, Note_on_c, 1, 57, 96
1, 12060, Note_off_c, 1, 57, 96
1, 12060, Note_on_c, 1, 45, 96
1, 12061, Note_off_c, 1, 45, 96
1, 12180, Note_on_c, 1, 44, 96
1, 12182, Note_off_c, 1, 44, 96
1, 12182, Note_on_c, 1, 66, 96
1, 12183, Note_off_c, 1, 66, 96
1, 12188, Note_on_c, 1, 56, 96
1, 12189, Note_off_c, 1, 56, 96
1, 12304, Note_on_c, 1, 40, 96
1, 12306, Note_off_c, 1, 40, 96
1, 12306, Note_on_c, 1, 57, 96
1, 12307, Note_off_c, 1, 57, 96
1, 12429, Note_on_c, 1, 54, 96
1, 12430, Note_off_c, 1, 54, 96
1, 12432, Note_on_c, 1, 60, 96
1, 12434, Note_off_c, 1, 60, 96
1, 12434, Note_on_c, 1, 66, 96
1, 12436, Note_off_c, 1, 66, 96
1, 12436, Note_on_c, 1, 50, 96
1, 12437, Note_off_c, 1, 50, 96
1, 12552, Note_on_c, 1, 72, 96
1, 12553, Note_off_c, 1, 72, 96
1, 12672, Note_on_c, 1, 67, 96
1, 12674, Note_off_c, 1, 67, 96
1, 12674, Note_on_c, 1, 65, 96
1, 12675, Note_off_c, 1, 65, 96
1, 12679, Note_on_c, 1, 59, 96
1, 12679, Note_on_c, 1, 55, 96
1, 12680, Note_off_c, 1, 59, 96
1, 12680, Note_off_c, 1, 55, 96
1, 12798, Note_on_c, 1, 62, 96
1, 12798, Note_on_c, 1, 65, 96
1, 12799, Note_off_c, 1, 62, 96
1, 12799, Note_off_c, 1, 65, 96
1, 12801, Note_on_c, 1, 67, 96
1, 12802, Note_off_c, 1, 67, 96
1, 12805, Note_on_c, 1, 55, 96
1, 12805, Note_on_c, 1, 59, 96
1, 12806, Note_off_c, 1, 55, 96
1, 12806, Note_off_c, 1, 59, 96
1, 12923, Note_on_c, 1, 55, 96
1, 12925, Note_off_c, 1, 55, 96
1, 12925, Note_on_c, 1, 65, 96
1, 12926, Note_off_c, 1, 65, 96
1, 12928, Note_on_c, 1, 71, 96
1, 12929, Note_off_c, 1, 71, 96
1, 12932, Note_on_c, 1, 74, 96
1, 12932, Note_on_c, 1, 59, 96
1, 12933, Note_off_c, 1, 74, 96
1, 12933, Note_off_c, 1, 59, 96
1, 13175, Note_on_c, 1, 72, 96
1, 13176, Note_off_c, 1, 72, 96
1, 13178, Note_on_c, 1, 50, 96
1, 13179, Note_off_c, 1, 50, 96
1, 13293, Note_on_c, 1, 69, 96
1, 13294, Note_off_c, 1, 69, 96
1, 13420, Note_on_c, 1, 43, 96
1, 13421, Note_off_c, 1, 43, 96
1, 13480, Note_on_c, 1, 67, 96
1, 13481, Note_off_c, 1, 67, 96
1, 13542, Note_on_c, 1, 76, 96
1, 13544, Note_off_c, 1, 76, 96
1, 13544, Note_on_c, 1, 55, 96
1, 13545, Note_off_c, 1, 55, 96
1, 13548, Note_on_c, 1, 60, 96
1, 13549, Note_off_c, 1, 60, 96
1, 13551, Note_on_c, 1, 64, 96
1, 13552, Note_off_c, 1, 64, 96
1, 13608, Note_on_c, 1, 64, 96
1, 13609, Note_off_c, 1, 64, 96
1, 13612, Note_on_c, 1, 76, 96
1, 13613, Note_off_c, 1, 76, 96
1, 13672, Note_on_c, 1, 65, 96
1, 13672, Note_on_c, 1, 60, 96
1, 13673, Note_off_c, 1, 65, 96
1, 13673, Note_off_c, 1, 60, 96
1, 13675, Note_on_c, 1, 55, 96
1, 13676, Note_off_c, 1, 55, 96
1, 13733, Note_on_c, 1, 74, 96
1, 13734, Note_off_c, 1, 74, 96
1, 13795, Note_on_c, 1, 76, 96
1, 13795, Note_on_c, 1, 43, 96
1, 13796, Note_off_c, 1, 76, 96
1, 13796, Note_off_c, 1, 43, 96
1, 13801, Note_on_c, 1, 55, 96
1, 13802, Note_off_c, 1, 55, 96
1, 13861, Note_on_c, 1, 72, 96
1, 13862, Note_off_c, 1, 72, 96
1, 13919, Note_on_c, 1, 67, 96
1, 13920, Note_off_c, 1, 67, 96
1, 13922, Note_on_c, 1, 60, 96
1, 13923, Note_off_c, 1, 60, 96
1, 13925, Note_on_c, 1, 55, 96
1, 13927, Note_off_c, 1, 55, 96
1, 13927, Note_on_c, 1, 64, 96
1, 13928, Note_off_c, 1, 64, 96
1, 13983, Note_on_c, 1, 69, 96
1, 13984, Note_off_c, 1, 69, 96
1, 14042, Note_on_c, 1, 55, 96
1, 14044, Note_off_c, 1, 55, 96
1, 14044, Note_on_c, 1, 50, 96
1, 14046, Note_off_c, 1, 50, 96
1, 14046, Note_on_c, 1, 67, 96
1, 14047, Note_off_c, 1, 67, 96
1, 14050, Note_on_c, 1, 59, 96
1, 14051, Note_off_c, 1, 59, 96
1, 14168, Note_on_c, 1, 36, 96
1, 14169, Note_off_c, 1, 36, 96
1, 14171, Note_on_c, 1, 60, 96
1, 14173, Note_off_c, 1, 60, 96
1, 14173, Note_on_c, 1, 48, 96
1, 14174, Note_off_c, 1, 48, 96
1, 14293, Note_on_c, 1, 60, 96
1, 14294, Note_off_c, 1, 60, 96
1, 14297, Note_on_c, 1, 76, 96
1, 14297, Note_on_c, 1, 67, 96
1, 14298, Note_off_c, 1, 76, 96
1, 14298, Note_off_c, 1, 67, 96
1, 14301, Note_on_c, 1, 55, 96
1, 14303, Note_off_c, 1, 55, 96
1, 14303, Note_on_c, 1, 52, 96
1, 14304, Note_off_c, 1, 52, 96
1, 14421, Note_on_c, 1, 76, 96
1, 14422, Note_off_c, 1, 76, 96
1, 14425, Note_on_c, 1, 67, 96
1, 14426, Note_off_c, 1, 67, 96
1, 14480, Note_on_c, 1, 76, 96
1, 14482, Note_off_c, 1, 76, 96
1, 14482, Note_on_c, 1, 72, 96
1, 14483, Note_off_c, 1, 72, 96
1, 14487, Note_on_c, 1, 67, 96
1, 14489, Note_off_c, 1, 67, 96
1, 14489, Note_on_c, 1, 60, 96
1, 14490, Note_off_c, 1, 60, 96
1, 14492, Note_on_c, 1, 52, 96
1, 14493, Note_off_c, 1, 52, 96
1, 14548, Note_on_c, 1, 67, 96
1, 14548, Note_on_c, 1, 80, 96
1, 14549, Note_off_c, 1, 67, 96
1, 14549, Note_off_c, 1, 80, 96
1, 14612, Note_on_c, 1, 48, 96
1, 14613, Note_off_c, 1, 48, 96
1, 14671, Note_on_c, 1, 79, 96
1, 14672, Note_off_c, 1, 79, 96
1, 14731, Note_on_c, 1, 74, 96
1, 14731, Note_on_c, 1, 55, 96
1, 14732, Note_off_c, 1, 74, 96
1, 14732, Note_off_c, 1, 55, 96
1, 14736, Note_on_c, 1, 60, 96
1, 14738, Note_off_c, 1, 60, 96
1, 14738, Note_on_c, 1, 64, 96
1, 14739, Note_off_c, 1, 64, 96
1, 14797, Note_on_c, 1, 76, 96
1, 14798, Note_off_c, 1, 76, 96
1, 14855, Note_on_c, 1, 64, 96
1, 14856, Note_off_c, 1, 64, 96
1, 14859, Note_on_c, 1, 69, 96
1, 14862, Note_off_c, 1, 69, 96
1, 14862, Note_on_c, 1, 48, 96
1, 14862, Note_on_c, 1, 60, 96
1, 14863, Note_off_c, 1, 48, 96
1, 14863, Note_off_c, 1, 60, 96
1, 14917, Note_on_c, 1, 76, 96
1, 14918, Note_off_c, 1, 76, 96
1, 14923, Note_on_c, 1, 69, 96
1, 14924, Note_off_c, 1, 69, 96
1, 14979, Note_on_c, 1, 55, 96
1, 14981, Note_off_c, 1, 55, 96
1, 14981, Note_on_c, 1, 60, 96
1, 14982, Note_off_c, 1, 60, 96
1, 15045, Note_on_c, 1, 76, 96
1, 15046, Note_off_c, 1, 76, 96
1, 15104, Note_on_c, 1, 75, 96
1, 15106, Note_off_c, 1, 75, 96
1, 15106, Note_on_c, 1, 81, 96
1, 15108, Note_off_c, 1, 81, 96
1, 15108, Note_on_c, 1, 48, 96
1, 15109, Note_off_c, 1, 48, 96
1, 15229, Note_on_c, 1, 43, 96
1, 15230, Note_off_c, 1, 43, 96
1, 15232, Note_on_c, 1, 72, 96
1, 15233, Note_off_c, 1, 72, 96
1, 15235, Note_on_c, 1, 76, 96
1, 15236, Note_off_c, 1, 76, 96
1, 15292, Note_on_c, 1, 76, 96
1, 15293, Note_off_c, 1, 76, 96
1, 15350, Note_on_c, 1, 71, 96
1, 15351, Note_off_c, 1, 71, 96
1, 15354, Note_on_c, 1, 43, 96
1, 15355, Note_off_c, 1, 43, 96
1, 15415, Note_on_c, 1, 77, 96
1, 15416, Note_off_c, 1, 77, 96
1, 15473, Note_on_c, 1, 53, 96
1, 15475, Note_off_c, 1, 53, 96
1, 15475, Note_on_c, 1, 65, 96
1, 15478, Note_off_c, 1, 65, 96
1, 15478, Note_on_c, 1, 59, 96
1, 15478, Note_on_c, 1, 55, 96
1, 15479, Note_off_c, 1, 59, 96
1, 15479, Note_off_c, 1, 55, 96
1, 15483, Note_on_c, 1, 74, 96
1, 15484, Note_off_c, 1, 74, 96
1, 15542, Note_on_c, 1, 74, 96
1, 15543, Note_off_c, 1, 74, 96
1, 15605, Note_on_c, 1, 76, 96
1, 15607, Note_off_c, 1, 76, 96
1, 15607, Note_on_c, 1, 48, 96
1, 15608, Note_off_c, 1, 48, 96
1, 15668, Note_on_c, 1, 74, 96
1, 15669, Note_off_c, 1, 74, 96
1, 15726, Note_on_c, 1, 50, 96
1, 15727, Note_off_c, 1, 50, 96
1, 15729, Note_on_c, 1, 71, 96
1, 15730, Note_off_c, 1, 71, 96
1, 15848, Note_on_c, 1, 75, 96
1, 15850, Note_off_c, 1, 75, 96
1, 15850, Note_on_c, 1, 84, 96
1, 15851, Note_off_c, 1, 84, 96
1, 15853, Note_on_c, 1, 67, 96
1, 15854, Note_off_c, 1, 67, 96
1, 15859, Note_on_c, 1, 55, 96
1, 15861, Note_off_c, 1, 55, 96
1, 15861, Note_on_c, 1, 52, 96
1, 15863, Note_off_c, 1, 52, 96
1, 15863, Note_on_c, 1, 60, 96
1, 15864, Note_off_c, 1, 60, 96
1, 15920, Note_on_c, 1, 78, 96
1, 15921, Note_off_c, 1, 78, 96
1, 15980, Note_on_c, 1, 50, 96
1, 15981, Note_off_c, 1, 50, 96
1, 15984, Note_on_c, 1, 71, 96
1, 15984, Note_on_c, 1, 74, 96
1, 15986, Note_off_c, 1, 71, 96
1, 15986, Note_off_c, 1, 74, 96
1, 15986, Note_on_c, 1, 62, 96
1, 15988, Note_off_c, 1, 62, 96
1, 15988, Note_on_c, 1, 38, 96
1, 15990, Note_off_c, 1, 38, 96
1, 15990, Note_on_c, 1, 83, 96
1, 15991, Note_off_c, 1, 83, 96
1, 16044, Note_on_c, 1, 58, 96
1, 16045, Note_off_c, 1, 58, 96
1, 16047, Note_on_c, 1, 55, 96
1, 16049, Note_off_c, 1, 55, 96
1, 16049, Note_on_c, 1, 91, 96
1, 16051, Note_off_c, 1, 91, 96
1, 16051, Note_on_c, 1, 63, 96
1, 16053, Note_off_c, 1, 63, 96
1, 16053, Note_on_c, 1, 81, 96
1, 16055, Note_off_c, 1, 81, 96
1, 16055, Note_on_c, 1, 78, 96
1, 16056, Note_off_c, 1, 78, 96
1, 16166, Note_on_c, 1, 52, 96
1, 16167, Note_off_c, 1, 52, 96
1, 16172, Note_on_c, 1, 58, 96
1, 16173, Note_off_c, 1, 58, 96
1, 16175, Note_on_c, 1, 48, 96
1, 16176, Note_off_c, 1, 48, 96
1, 16179, Note_on_c, 1, 70, 96
1, 16179, Note_on_c, 1, 82, 96
1, 16180, Note_off_c, 1, 70, 96
1, 16180, Note_off_c, 1, 82, 96
1, 16297, Note_on_c, 1, 83, 96
1, 16297, Note_on_c, 1, 71, 96
1, 16300, Note_off_c, 1, 83, 96
1, 16300, Note_off_c, 1, 71, 96
1, 16300, Note_on_c, 1, 74, 96
1, 16300, Note_on_c, 1, 79, 96
1, 16301, Note_off_c, 1, 74, 96
1, 16301, Note_off_c, 1, 79, 96
1, 16420, Note_on_c, 1, 50, 96
1, 16421, Note_off_c, 1, 50, 96
1, 16423, Note_on_c, 1, 62, 96
1, 16424, Note_off_c, 1, 62, 96
1, 16659, Note_on_c, 1, 84, 96
1, 16659, Note_on_c, 1, 63, 96
1, 16661, Note_off_c, 1, 84, 96
1, 16661, Note_off_c, 1, 63, 96
1, 16661, Note_on_c, 1, 79, 96
1, 16663, Note_off_c, 1, 79, 96
1, 16663, Note_on_c, 1, 69, 96
1, 16665, Note_off_c, 1, 69, 96
1, 16665, Note_on_c, 1, 72, 96
1, 16666, Note_off_c, 1, 72, 96
1, 16669, Note_on_c, 1, 55, 96
1, 16671, Note_off_c, 1, 55, 96
1, 16671, Note_on_c, 1, 60, 96
1, 16672, Note_off_c, 1, 60, 96
1, 16790, Note_on_c, 1, 88, 96
1, 16790, Note_on_c, 1, 76, 96
1, 16791, Note_off_c, 1, 88, 96
1, 16791, Note_off_c, 1, 76, 96
1, 16796, Note_on_c, 1, 82, 96
1, 16796, Note_on_c, 1, 79, 96
1, 16796, Note_on_c, 1, 46, 96
1, 16796, Note_on_c, 1, 58, 96
1, 16797, Note_off_c, 1, 82, 96
1, 16797, Note_off_c, 1, 79, 96
1, 16797, Note_off_c, 1, 46, 96
1, 16797, Note_off_c, 1, 58, 96
1, 16915, Note_on_c, 1, 48, 96
1, 16916, Note_off_c, 1, 48, 96
1, 16920, Note_on_c, 1, 36, 96
1, 16921, Note_off_c, 1, 36, 96
1, 17038, Note_on_c, 1, 48, 96
1, 17039, Note_off_c, 1, 48, 96
1, 17041, Note_on_c, 1, 84, 96
1, 17044, Note_off_c, 1, 84, 96
1, 17044, Note_on_c, 1, 76, 96
1, 17044, Note_on_c, 1, 36, 96
1, 17047, Note_off_c, 1, 76, 96
1, 17047, Note_off_c, 1, 36, 96
1, 17047, Note_on_c, 1, 72, 96
1, 17047, Note_on_c, 1, 79, 96
1, 17048, Note_off_c, 1, 72, 96
1, 17048, Note_off_c, 1, 79, 96
1, 17163, Note_on_c, 1, 41, 96
1, 17164, Note_off_c, 1, 41, 96
1, 17169, Note_on_c, 1, 53, 96
1, 17170, Note_off_c, 1, 53, 96
1, 17289, Note_on_c, 1, 50, 96
1, 17290, Note_off_c, 1, 50, 96
1, 17292, Note_on_c, 1, 77, 96
1, 17293, Note_off_c, 1, 77, 96
1, 17399, Note_on_c, 1, 67, 96
1, 17400, Note_off_c, 1, 67, 96
1, 17405, Note_on_c, 1, 53, 96
1, 17406, Note_off_c, 1, 53, 96
1, 17424, Note_on_c, 1, 69, 96
1, 17425, Note_off_c, 1, 69, 96
1, 17446, Note_on_c, 1, 72, 96
1, 17447, Note_off_c, 1, 72, 96
1, 17467, Note_on_c, 1, 71, 96
1, 17468, Note_off_c, 1, 71, 96
1, 17488, Note_on_c, 1, 69, 96
1, 17490, Note_off_c, 1, 69, 96
1, 17490, Note_on_c, 1, 65, 96
1, 17491, Note_off_c, 1, 65, 96
1, 17559, Note_on_c, 1, 60, 96
1, 17561, Note_off_c, 1, 60, 96
1, 17561, Note_on_c, 1, 48, 96
1, 17562, Note_off_c, 1, 48, 96
1, 17792, Note_on_c, 1, 48, 96
1, 17793, Note_off_c, 1, 48, 96
1, 17803, Note_on_c, 1, 57, 96
1, 17804, Note_off_c, 1, 57, 96
1, 17810, Note_on_c, 1, 52, 96
1, 17812, Note_off_c, 1, 52, 96
1, 17812, Note_on_c, 1, 64, 96
1, 17813, Note_off_c, 1, 64, 96
1, 18046, Note_on_c, 1, 62, 96
1, 18047, Note_off_c, 1, 62, 96
1, 18052, Note_on_c, 1, 53, 96
1, 18053, Note_off_c, 1, 53, 96
1, 18352, Note_on_c, 1, 62, 96
1, 18353, Note_off_c, 1, 62, 96
1, 18541, Note_on_c, 1, 81, 96
1, 18541, Note_on_c, 1, 74, 96
1, 18541, Note_on_c, 1, 72, 96
1, 18541, Note_on_c, 1, 60, 96
1, 18541, Note_on_c, 1, 65, 96
1, 18542, Note_off_c, 1, 81, 96
1, 18542, Note_off_c, 1, 74, 96
1, 18542, Note_off_c, 1, 72, 96
1, 18542, Note_off_c, 1, 60, 96
1, 18542, Note_off_c, 1, 65, 96
1, 18785, Note_on_c, 1, 59, 96
1, 18788, Note_off_c, 1, 59, 96
1, 18788, Note_on_c, 1, 65, 96
1, 18788, Note_on_c, 1, 62, 96
1, 18790, Note_off_c, 1, 65, 96
1, 18790, Note_off_c, 1, 62, 96
1, 18790, Note_on_c, 1, 56, 96
1, 18791, Note_off_c, 1, 56, 96
1, 19019, Note_on_c, 1, 87, 96
1, 19019, Note_on_c, 1, 44, 96
1, 19020, Note_off_c, 1, 87, 96
1, 19020, Note_off_c, 1, 44, 96
1, 19023, Note_on_c, 1, 51, 96
1, 19024, Note_off_c, 1, 51, 96
1, 19148, Note_on_c, 1, 65, 96
1, 19152, Note_off_c, 1, 65, 96
1, 19152, Note_on_c, 1, 86, 96
1, 19152, Note_on_c, 1, 59, 96
1, 19152, Note_on_c, 1, 56, 96
1, 19154, Note_off_c, 1, 86, 96
1, 19154, Note_off_c, 1, 59, 96
1, 19154, Note_off_c, 1, 56, 96
1, 19154, Note_on_c, 1, 77, 96
1, 19155, Note_off_c, 1, 77, 96
1, 19388, Note_on_c, 1, 62, 96
1, 19388, Note_on_c, 1, 55, 96
1, 19389, Note_off_c, 1, 62, 96
1, 19389, Note_off_c, 1, 55, 96
1, 19392, Note_on_c, 1, 83, 96
1, 19392, Note_on_c, 1, 59, 96
1, 19393, Note_off_c, 1, 83, 96
1, 19393, Note_off_c, 1, 59, 96
1, 19396, Note_on_c, 1, 77, 96
1, 19397, Note_off_c, 1, 77, 96
1, 19510, Note_on_c, 1, 75, 96
1, 19512, Note_off_c, 1, 75, 96
1, 19512, Note_on_c, 1, 78, 96
1, 19513, Note_off_c, 1, 78, 96
1, 19637, Note_on_c, 1, 75, 96
1, 19637, Note_on_c, 1, 56, 96
1, 19639, Note_off_c, 1, 75, 96
1, 19639, Note_off_c, 1, 56, 96
1, 19639, Note_on_c, 1, 61, 96
1, 19640, Note_off_c, 1, 61, 96
1, 19644, Note_on_c, 1, 52, 96
1, 19645, Note_off_c, 1, 52, 96
1, 19760, Note_on_c, 1, 70, 96
1, 19761, Note_off_c, 1, 70, 96
1, 19876, Note_on_c, 1, 38, 96
1, 19877, Note_off_c, 1, 38, 96
1, 19881, Note_on_c, 1, 71, 96
1, 19882, Note_off_c, 1, 71, 96
1, 19942, Note_on_c, 1, 67, 96
1, 19943, Note_off_c, 1, 67, 96
1, 19945, Note_on_c, 1, 63, 96
1, 19946, Note_off_c, 1, 63, 96
1, 20058, Note_on_c, 1, 67, 96
1, 20058, Note_on_c, 1, 58, 96
1, 20059, Note_off_c, 1, 67, 96
1, 20059, Note_off_c, 1, 58, 96
1, 20063, Note_on_c, 1, 65, 96
1, 20064, Note_off_c, 1, 65, 96
1, 20119, Note_on_c, 1, 71, 96
1, 20120, Note_off_c, 1, 71, 96
1, 20125, Note_on_c, 1, 65, 96
1, 20126, Note_off_c, 1, 65, 96
1, 20180, Note_on_c, 1, 71, 96
1, 20181, Note_off_c, 1, 71, 96
1, 20184, Note_on_c, 1, 68, 96
1, 20185, Note_off_c, 1, 68, 96
1, 20305, Note_on_c, 1, 59, 96
1, 20306, Note_off_c, 1, 59, 96
1, 20308, Note_on_c, 1, 65, 96
1, 20309, Note_off_c, 1, 65, 96
1, 20312, Note_on_c, 1, 69, 96
1, 20314, Note_off_c, 1, 69, 96
1, 20314, Note_on_c, 1, 53, 96
1, 20315, Note_off_c, 1, 53, 96
1, 20317, Note_on_c, 1, 77, 96
1, 20318, Note_off_c, 1, 77, 96
1, 20553, Note_on_c, 1, 64, 96
1, 20553, Note_on_c, 1, 43, 96
1, 20555, Note_off_c, 1, 64, 96
1, 20555, Note_off_c, 1, 43, 96
1, 20555, Note_on_c, 1, 60, 96
1, 20556, Note_off_c, 1, 60, 96
1, 20560, Note_on_c, 1, 55, 96
1, 20561, Note_off_c, 1, 55, 96
1, 20618, Note_on_c, 1, 60, 96
1, 20619, Note_off_c, 1, 60, 96
1, 20623, Note_on_c, 1, 71, 96
1, 20624, Note_off_c, 1, 71, 96
1, 20678, Note_on_c, 1, 74, 96
1, 20679, Note_off_c, 1, 74, 96
1, 20797, Note_on_c, 1, 64, 96
1, 20798, Note_off_c, 1, 64, 96
1, 20802, Note_on_c, 1, 55, 96
1, 20802, Note_on_c, 1, 76, 96
1, 20804, Note_off_c, 1, 55, 96
1, 20804, Note_off_c, 1, 76, 96
1, 20804, Note_on_c, 1, 60, 96
1, 20805, Note_off_c, 1, 60, 96
1, 20922, Note_on_c, 1, 67, 96
1, 20923, Note_off_c, 1, 67, 96
1, 21046, Note_on_c, 1, 67, 96
1, 21048, Note_off_c, 1, 67, 96
1, 21048, Note_on_c, 1, 43, 96
1, 21049, Note_off_c, 1, 43, 96
1, 21286, Note_on_c, 1, 52, 96
1, 21287, Note_off_c, 1, 52, 96
1, 21291, Note_on_c, 1, 64, 96
1, 21292, Note_off_c, 1, 64, 96
1, 21294, Note_on_c, 1, 60, 96
1, 21296, Note_off_c, 1, 60, 96
1, 21296, Note_on_c, 1, 58, 96
1, 21297, Note_off_c, 1, 58, 96
1, 21415, Note_on_c, 1, 65, 96
1, 21416, Note_off_c, 1, 65, 96
1, 21420, Note_on_c, 1, 57, 96
1, 21421, Note_off_c, 1, 57, 96
1, 21477, Note_on_c, 1, 62, 96
1, 21478, Note_off_c, 1, 62, 96
1, 21709, Note_on_c, 1, 60, 96
1, 21710, Note_off_c, 1, 60, 96
1, 21712, Note_on_c, 1, 72, 96
1, 21713, Note_off_c, 1, 72, 96
1, 21830, Note_on_c, 1, 69, 96
1, 21831, Note_off_c, 1, 69, 96
1, 21834, Note_on_c, 1, 62, 96
1, 21835, Note_off_c, 1, 62, 96
1, 21951, Note_on_c, 1, 48, 96
1, 21952, Note_off_c, 1, 48, 96
1, 21959, Note_on_c, 1, 36, 96
1, 21960, Note_off_c, 1, 36, 96
1, 22080, Note_on_c, 1, 67, 96
1, 22081, Note_off_c, 1, 67, 96
1, 22199, Note_on_c, 1, 62, 96
1, 22199, Note_on_c, 1, 67, 96
1, 22200, Note_off_c, 1, 62, 96
1, 22200, Note_off_c, 1, 67, 96
1, 22202, Note_on_c, 1, 43, 96
1, 22203, Note_off_c, 1, 43, 96
1, 22321, Note_on_c, 1, 62, 96
1, 22322, Note_off_c, 1, 62, 96
1, 22324, Note_on_c, 1, 53, 96
1, 22325, Note_off_c, 1, 53, 96
1, 22327, Note_on_c, 1, 59, 96
1, 22328, Note_off_c, 1, 59, 96
1, 22387, Note_on_c, 1, 62, 96
1, 22388, Note_off_c, 1, 62, 96
1, 22447, Note_on_c, 1, 64, 96
1, 22448, Note_off_c, 1, 64, 96
1, 22453, Note_on_c, 1, 60, 96
1, 22454, Note_off_c, 1, 60, 96
1, 22567, Note_on_c, 1, 50, 96
1, 22568, Note_off_c, 1, 50, 96
1, 22571, Note_on_c, 1, 62, 96
1, 22572, Note_off_c, 1, 62, 96
1, 22635, Note_on_c, 1, 69, 96
1, 22635, Note_on_c, 1, 57, 96
1, 22636, Note_off_c, 1, 69, 96
1, 22636, Note_off_c, 1, 57, 96
1, 22691, Note_on_c, 1, 52, 96
1, 22692, Note_off_c, 1, 52, 96
1, 22696, Note_on_c, 1, 64, 96
1, 22698, Note_off_c, 1, 64, 96
1, 22698, Note_on_c, 1, 67, 96
1, 22700, Note_off_c, 1, 67, 96
1, 22700, Note_on_c, 1, 64, 96
1, 22701, Note_off_c, 1, 64, 96
1, 22819, Note_on_c, 1, 69, 96
1, 22820, Note_off_c, 1, 69, 96
1, 22823, Note_on_c, 1, 53, 96
1, 22825, Note_off_c, 1, 53, 96
1, 22825, Note_on_c, 1, 65, 96
1, 22826, Note_off_c, 1, 65, 96
1, 22885, Note_on_c, 1, 78, 96
1, 22886, Note_off_c, 1, 78, 96
1, 22889, Note_on_c, 1, 69, 96
1, 22890, Note_off_c, 1, 69, 96
1, 22943, Note_on_c, 1, 50, 96
1, 22944, Note_off_c, 1, 50, 96
1, 22949, Note_on_c, 1, 60, 96
1, 22951, Note_off_c, 1, 60, 96
1, 22951, Note_on_c, 1, 54, 96
1, 22952, Note_off_c, 1, 54, 96
1, 23008, Note_on_c, 1, 72, 96
1, 23009, Note_off_c, 1, 72, 96
1, 23067, Note_on_c, 1, 66, 96
1, 23068, Note_off_c, 1, 66, 96
1, 23072, Note_on_c, 1, 74, 96
1, 23073, Note_off_c, 1, 74, 96
1, 23075, Note_on_c, 1, 38, 96
1, 23076, Note_off_c, 1, 38, 96
1, 23130, Note_on_c, 1, 76, 96
1, 23131, Note_off_c, 1, 76, 96
1, 23191, Note_on_c, 1, 55, 96
1, 23191, Note_on_c, 1, 59, 96
1, 23192, Note_off_c, 1, 55, 96
1, 23192, Note_off_c, 1, 59, 96
1, 23195, Note_on_c, 1, 62, 96
1, 23196, Note_off_c, 1, 62, 96
1, 23254, Note_on_c, 1, 79, 96
1, 23255, Note_off_c, 1, 79, 96
1, 23260, Note_on_c, 1, 67, 96
1, 23261, Note_off_c, 1, 67, 96
1, 23317, Note_on_c, 1, 38, 96
1, 23318, Note_off_c, 1, 38, 96
1, 23380, Note_on_c, 1, 71, 96
1, 23381, Note_off_c, 1, 71, 96
1, 23438, Note_on_c, 1, 50, 96
1, 23439, Note_off_c, 1, 50, 96
1, 23441, Note_on_c, 1, 67, 96
1, 23442, Note_off_c, 1, 67, 96
1, 23444, Note_on_c, 1, 62, 96
1, 23445, Note_off_c, 1, 62, 96
1, 23504, Note_on_c, 1, 72, 96
1, 23505, Note_off_c, 1, 72, 96
1, 23563, Note_on_c, 1, 58, 96
1, 23565, Note_off_c, 1, 58, 96
1, 23565, Note_on_c, 1, 69, 96
1, 23568, Note_off_c, 1, 69, 96
1, 23568, Note_on_c, 1, 55, 96
1, 23568, Note_on_c, 1, 50, 96
1, 23569, Note_off_c, 1, 55, 96
1, 23569, Note_off_c, 1, 50, 96
1, 23571, Note_on_c, 1, 62, 96
1, 23572, Note_off_c, 1, 62, 96
1, 23625, Note_on_c, 1, 76, 96
1, 23626, Note_off_c, 1, 76, 96
1, 23630, Note_on_c, 1, 64, 96
1, 23631, Note_off_c, 1, 64, 96
1, 23689, Note_on_c, 1, 74, 96
1, 23692, Note_off_c, 1, 74, 96
1, 23692, Note_on_c, 1, 62, 96
1, 23692, Note_on_c, 1, 67, 96
1, 23694, Note_off_c, 1, 62, 96
1, 23694, Note_off_c, 1, 67, 96
1, 23694, Note_on_c, 1, 55, 96
1, 23695, Note_off_c, 1, 55, 96
1, 23697, Note_on_c, 1, 58, 96
1, 23698, Note_off_c, 1, 58, 96
1, 23752, Note_on_c, 1, 67, 96
1, 23753, Note_off_c, 1, 67, 96
1, 23812, Note_on_c, 1, 59, 96
1, 23813, Note_off_c, 1, 59, 96
1, 23818, Note_on_c, 1, 67, 96
1, 23818, Note_on_c, 1, 55, 96
1, 23819, Note_off_c, 1, 67, 96
1, 23819, Note_off_c, 1, 55, 96
1, 23933, Note_on_c, 1, 74, 96
1, 23935, Note_off_c, 1, 74, 96
1, 23935, Note_on_c, 1, 55, 96
1, 23936, Note_off_c, 1, 55, 96
1, 23940, Note_on_c, 1, 53, 96
1, 23942, Note_off_c, 1, 53, 96
1, 23942, Note_on_c, 1, 59, 96
1, 23943, Note_off_c, 1, 59, 96
1, 24000, Note_on_c, 1, 67, 96
1, 24001, Note_off_c, 1, 67, 96
1, 24003, Note_on_c, 1, 72, 96
1, 24004, Note_off_c, 1, 72, 96
1, 24063, Note_on_c, 1, 43, 96
1, 24064, Note_off_c, 1, 43, 96
1, 24121, Note_on_c, 1, 67, 96
1, 24122, Note_off_c, 1, 67, 96
1, 24182, Note_on_c, 1, 47, 96
1, 24183, Note_off_c, 1, 47, 96
1, 24190, Note_on_c, 1, 74, 96
1, 24191, Note_off_c, 1, 74, 96
1, 24247, Note_on_c, 1, 74, 96
1, 24248, Note_off_c, 1, 74, 96
1, 24306, Note_on_c, 1, 72, 96
1, 24306, Note_on_c, 1, 60, 96
1, 24307, Note_off_c, 1, 72, 96
1, 24307, Note_off_c, 1, 60, 96
1, 24309, Note_on_c, 1, 48, 96
1, 24310, Note_off_c, 1, 48, 96
1, 24372, Note_on_c, 1, 65, 96
1, 24373, Note_off_c, 1, 65, 96
1, 24435, Note_on_c, 1, 71, 96
1, 24437, Note_off_c, 1, 71, 96
1, 24437, Note_on_c, 1, 43, 96
1, 24438, Note_off_c, 1, 43, 96
1, 24553, Note_on_c, 1, 74, 96
1, 24553, Note_on_c, 1, 55, 96
1, 24554, Note_off_c, 1, 74, 96
1, 24554, Note_off_c, 1, 55, 96
1, 24562, Note_on_c, 1, 53, 96
1, 24562, Note_on_c, 1, 57, 96
1, 24563, Note_off_c, 1, 53, 96
1, 24563, Note_off_c, 1, 57, 96
1, 24677, Note_on_c, 1, 67, 96
1, 24680, Note_off_c, 1, 67, 96
1, 24680, Note_on_c, 1, 43, 96
1, 24680, Note_on_c, 1, 55, 96
1, 24681, Note_off_c, 1, 43, 96
1, 24681, Note_off_c, 1, 55, 96
1, 24927, Note_on_c, 1, 81, 96
1, 24927, Note_on_c, 1, 36, 96
1, 24930, Note_off_c, 1, 81, 96
1, 24930, Note_off_c, 1, 36, 96
1, 24930, Note_on_c, 1, 93, 96
1, 24930, Note_on_c, 1, 48, 96
1, 24932, Note_off_c, 1, 93, 96
1, 24932, Note_off_c, 1, 48, 96
1, 24932, Note_on_c, 1, 71, 96
1, 24933, Note_off_c, 1, 71, 96
1, 25047, Note_on_c, 1, 74, 96
1, 25049, Note_off_c, 1, 74, 96
1, 25049, Note_on_c, 1, 84, 96
1, 25050, Note_off_c, 1, 84, 96
1, 25165, Note_on_c, 1, 48, 96
1, 25166, Note_off_c, 1, 48, 96
1, 25171, Note_on_c, 1, 75, 96
1, 25172, Note_off_c, 1, 75, 96
1, 25174, Note_on_c, 1, 84, 96
1, 25175, Note_off_c, 1, 84, 96
1, 25292, Note_on_c, 1, 55, 96
1, 25292, Note_on_c, 1, 59, 96
1, 25293, Note_off_c, 1, 55, 96
1, 25293, Note_off_c, 1, 59, 96
1, 25295, Note_on_c, 1, 67, 96
1, 25296, Note_off_c, 1, 67, 96
1, 25299, Note_on_c, 1, 91, 96
1, 25299, Note_on_c, 1, 79, 96
1, 25301, Note_off_c, 1, 91, 96
1, 25301, Note_off_c, 1, 79, 96
1, 25301, Note_on_c, 1, 62, 96
1, 25302, Note_off_c, 1, 62, 96
1, 25420, Note_on_c, 1, 43, 96
1, 25420, Note_on_c, 1, 55, 96
1, 25421, Note_off_c, 1, 43, 96
1, 25421, Note_off_c, 1, 55, 96
1, 25546, Note_on_c, 1, 81, 96
1, 25546, Note_on_c, 1, 59, 96
1, 25547, Note_off_c, 1, 81, 96
1, 25547, Note_off_c, 1, 59, 96
1, 25553, Note_on_c, 1, 65, 96
1, 25553, Note_on_c, 1, 55, 96
1, 25554, Note_off_c, 1, 65, 96
1, 25554, Note_off_c, 1, 55, 96
1, 25608, Note_on_c, 1, 76, 96
1, 25609, Note_off_c, 1, 76, 96
1, 25667, Note_on_c, 1, 55, 96
1, 25668, Note_off_c, 1, 55, 96
1, 25670, Note_on_c, 1, 43, 96
1, 25672, Note_off_c, 1, 43, 96
1, 25672, Note_on_c, 1, 84, 96
1, 25673, Note_off_c, 1, 84, 96
1, 25797, Note_on_c, 1, 50, 96
1, 25799, Note_off_c, 1, 50, 96
1, 25799, Note_on_c, 1, 83, 96
1, 25801, Note_off_c, 1, 83, 96
1, 25801, Note_on_c, 1, 62, 96
1, 25802, Note_off_c, 1, 62, 96
1, 25917, Note_on_c, 1, 88, 96
1, 25918, Note_off_c, 1, 88, 96
1, 26039, Note_on_c, 1, 79, 96
1, 26039, Note_on_c, 1, 76, 96
1, 26041, Note_off_c, 1, 79, 96
1, 26041, Note_off_c, 1, 76, 96
1, 26041, Note_on_c, 1, 60, 96
1, 26042, Note_off_c, 1, 60, 96
1, 26046, Note_on_c, 1, 55, 96
1, 26046, Note_on_c, 1, 52, 96
1, 26047, Note_off_c, 1, 55, 96
1, 26047, Note_off_c, 1, 52, 96
1, 26109, Note_on_c, 1, 88, 96
1, 26110, Note_off_c, 1, 88, 96
1, 26166, Note_on_c, 1, 79, 96
1, 26168, Note_off_c, 1, 79, 96
1, 26168, Note_on_c, 1, 84, 96
1, 26170, Note_off_c, 1, 84, 96
1, 26170, Note_on_c, 1, 76, 96
1, 26171, Note_off_c, 1, 76, 96
1, 26176, Note_on_c, 1, 88, 96
1, 26176, Note_on_c, 1, 48, 96
1, 26176, Note_on_c, 1, 60, 96
1, 26177, Note_off_c, 1, 88, 96
1, 26177, Note_off_c, 1, 48, 96
1, 26177, Note_off_c, 1, 60, 96
1, 26229, Note_on_c, 1, 84, 96
1, 26230, Note_off_c, 1, 84, 96
1, 26292, Note_on_c, 1, 69, 96
1, 26294, Note_off_c, 1, 69, 96
1, 26294, Note_on_c, 1, 57, 96
1, 26296, Note_off_c, 1, 57, 96
1, 26296, Note_on_c, 1, 62, 96
1, 26297, Note_off_c, 1, 62, 96
1, 26410, Note_on_c, 1, 79, 96
1, 26411, Note_off_c, 1, 79, 96
1, 26415, Note_on_c, 1, 50, 96
1, 26416, Note_off_c, 1, 50, 96
1, 26531, Note_on_c, 1, 78, 96
1, 26532, Note_off_c, 1, 78, 96
1, 26535, Note_on_c, 1, 45, 96
1, 26536, Note_off_c, 1, 45, 96
1, 26538, Note_on_c, 1, 74, 96
1, 26539, Note_off_c, 1, 74, 96
1, 26596, Note_on_c, 1, 78, 96
1, 26597, Note_off_c, 1, 78, 96
1, 26655, Note_on_c, 1, 55, 96
1, 26655, Note_on_c, 1, 44, 96
1, 26657, Note_off_c, 1, 55, 96
1, 26657, Note_off_c, 1, 44, 96
1, 26657, Note_on_c, 1, 71, 96
1, 26659, Note_off_c, 1, 71, 96
1, 26659, Note_on_c, 1, 76, 96
1, 26660, Note_off_c, 1, 76, 96
1, 26721, Note_on_c, 1, 81, 96
1, 26722, Note_off_c, 1, 81, 96
1, 26781, Note_on_c, 1, 43, 96
1, 26782, Note_off_c, 1, 43, 96
1, 26785, Note_on_c, 1, 79, 96
1, 26787, Note_off_c, 1, 79, 96
1, 26787, Note_on_c, 1, 55, 96
1, 26788, Note_off_c, 1, 55, 96
1, 26845, Note_on_c, 1, 74, 96
1, 26846, Note_off_c, 1, 74, 96
1, 26903, Note_on_c, 1, 59, 96
1, 26905, Note_off_c, 1, 59, 96
1, 26905, Note_on_c, 1, 55, 96
1, 26906, Note_off_c, 1, 55, 96
1, 26910, Note_on_c, 1, 71, 96
1, 26911, Note_off_c, 1, 71, 96
1, 26973, Note_on_c, 1, 71, 96
1, 26974, Note_off_c, 1, 71, 96
1, 27030, Note_on_c, 1, 50, 96
1, 27031, Note_off_c, 1, 50, 96
1, 27033, Note_on_c, 1, 65, 96
1, 27034, Note_off_c, 1, 65, 96
1, 27094, Note_on_c, 1, 71, 96
1, 27095, Note_off_c, 1, 71, 96
1, 27154, Note_on_c, 1, 70, 96
1, 27155, Note_off_c, 1, 70, 96
1, 27273, Note_on_c, 1, 53, 96
1, 27274, Note_off_c, 1, 53, 96
1, 27300, Note_on_c, 1, 74, 96
1, 27301, Note_off_c, 1, 74, 96
1, 27315, Note_on_c, 1, 77, 96
1, 27316, Note_off_c, 1, 77, 96
1, 27318, Note_on_c, 1, 41, 96
1, 27319, Note_off_c, 1, 41, 96
1, 27432, Note_on_c, 1, 69, 96
1, 27434, Note_off_c, 1, 69, 96
1, 27434, Note_on_c, 1, 63, 96
1, 27436, Note_off_c, 1, 63, 96
1, 27436, Note_on_c, 1, 75, 96
1, 27437, Note_off_c, 1, 75, 96
1, 27553, Note_on_c, 1, 55, 96
1, 27553, Note_on_c, 1, 36, 96
1, 27555, Note_off_c, 1, 55, 96
1, 27555, Note_off_c, 1, 36, 96
1, 27555, Note_on_c, 1, 48, 96
1, 27556, Note_off_c, 1, 48, 96
1, 27623, Note_on_c, 1, 72, 96
1, 27624, Note_off_c, 1, 72, 96
1, 27677, Note_on_c, 1, 65, 96
1, 27679, Note_off_c, 1, 65, 96
1, 27679, Note_on_c, 1, 57, 96
1, 27680, Note_off_c, 1, 57, 96
1, 27683, Note_on_c, 1, 69, 96
1, 27684, Note_off_c, 1, 69, 96
1, 27686, Note_on_c, 1, 60, 96
1, 27687, Note_off_c, 1, 60, 96
1, 27743, Note_on_c, 1, 70, 96
1, 27744, Note_off_c, 1, 70, 96
1, 27805, Note_on_c, 1, 45, 96
1, 27807, Note_off_c, 1, 45, 96
1, 27807, Note_on_c, 1, 64, 96
1, 27808, Note_off_c, 1, 64, 96
1, 27866, Note_on_c, 1, 73, 96
1, 27867, Note_off_c, 1, 73, 96
1, 27927, Note_on_c, 1, 74, 96
1, 27927, Note_on_c, 1, 38, 96
1, 27928, Note_off_c, 1, 74, 96
1, 27928, Note_off_c, 1, 38, 96
1, 27930, Note_on_c, 1, 50, 96
1, 27931, Note_off_c, 1, 50, 96
1, 27992, Note_on_c, 1, 69, 96
1, 27994, Note_off_c, 1, 69, 96
1, 27994, Note_on_c, 1, 62, 96
1, 27995, Note_off_c, 1, 62, 96
1, 28053, Note_on_c, 1, 44, 96
1, 28054, Note_off_c, 1, 44, 96
1, 28057, Note_on_c, 1, 56, 96
1, 28058, Note_off_c, 1, 56, 96
1, 28117, Note_on_c, 1, 72, 96
1, 28118, Note_off_c, 1, 72, 96
1, 28175, Note_on_c, 1, 48, 96
1, 28177, Note_off_c, 1, 48, 96
1, 28177, Note_on_c, 1, 60, 96
1, 28179, Note_off_c, 1, 60, 96
1, 28179, Note_on_c, 1, 72, 96
1, 28180, Note_off_c, 1, 72, 96
1, 28240, Note_on_c, 1, 72, 96
1, 28241, Note_off_c, 1, 72, 96
1, 28300, Note_on_c, 1, 74, 96
1, 28302, Note_off_c, 1, 74, 96
1, 28302, Note_on_c, 1, 57, 96
1, 28303, Note_off_c, 1, 57, 96
1, 28307, Note_on_c, 1, 53, 96
1, 28309, Note_off_c, 1, 53, 96
1, 28309, Note_on_c, 1, 60, 96
1, 28310, Note_off_c, 1, 60, 96
1, 28371, Note_on_c, 1, 73, 96
1, 28372, Note_off_c, 1, 73, 96
1, 28427, Note_on_c, 1, 74, 96
1, 28428, Note_off_c, 1, 74, 96
1, 28431, Note_on_c, 1, 69, 96
1, 28432, Note_off_c, 1, 69, 96
1, 28434, Note_on_c, 1, 48, 96
1, 28435, Note_off_c, 1, 48, 96
1, 28549, Note_on_c, 1, 60, 96
1, 28551, Note_off_c, 1, 60, 96
1, 28551, Note_on_c, 1, 55, 96
1, 28552, Note_off_c, 1, 55, 96
1, 28555, Note_on_c, 1, 64, 96
1, 28557, Note_off_c, 1, 64, 96
1, 28557, Note_on_c, 1, 67, 96
1, 28558, Note_off_c, 1, 67, 96
1, 28672, Note_on_c, 1, 69, 96
1, 28674, Note_off_c, 1, 69, 96
1, 28674, Note_on_c, 1, 64, 96
1, 28675, Note_off_c, 1, 64, 96
1, 28679, Note_on_c, 1, 52, 96
1, 28680, Note_off_c, 1, 52, 96
1, 28800, Note_on_c, 1, 53, 96
1, 28800, Note_on_c, 1, 57, 96
1, 28802, Note_off_c, 1, 53, 96
1, 28802, Note_off_c, 1, 57, 96
1, 28802, Note_on_c, 1, 41, 96
1, 28803, Note_off_c, 1, 41, 96
1, 28805, Note_on_c, 1, 63, 96
1, 28806, Note_off_c, 1, 63, 96
1, 28808, Note_on_c, 1, 67, 96
1, 28809, Note_off_c, 1, 67, 96
1, 28923, Note_on_c, 1, 62, 96
1, 28923, Note_on_c, 1, 65, 96
1, 28924, Note_off_c, 1, 62, 96
1, 28924, Note_off_c, 1, 65, 96
1, 28933, Note_on_c, 1, 71, 96
1, 28934, Note_off_c, 1, 71, 96
1, 29045, Note_on_c, 1, 67, 96
1, 29046, Note_off_c, 1, 67, 96
1, 29049, Note_on_c, 1, 46, 96
1, 29050, Note_off_c, 1, 46, 96
1, 29054, Note_on_c, 1, 62, 96
1, 29055, Note_off_c, 1, 62, 96
1, 29110, Note_on_c, 1, 62, 96
1, 29111, Note_off_c, 1, 62, 96
1, 29168, Note_on_c, 1, 65, 96
1, 29170, Note_off_c, 1, 65, 96
1, 29170, Note_on_c, 1, 53, 96
1, 29171, Note_off_c, 1, 53, 96
1, 29173, Note_on_c, 1, 57, 96
1, 29174, Note_off_c, 1, 57, 96
1, 29231, Note_on_c, 1, 70, 96
1, 29232, Note_off_c, 1, 70, 96
1, 29294, Note_on_c, 1, 38, 96
1, 29295, Note_off_c, 1, 38, 96
1, 29297, Note_on_c, 1, 50, 96
1, 29298, Note_off_c, 1, 50, 96
1, 29357, Note_on_c, 1, 43, 96
1, 29357, Note_on_c, 1, 55, 96
1, 29358, Note_off_c, 1, 43, 96
1, 29358, Note_off_c, 1, 55, 96
1, 29419, Note_on_c, 1, 66, 96
1, 29420, Note_off_c, 1, 66, 96
1, 29476, Note_on_c, 1, 65, 96
1, 29478, Note_off_c, 1, 65, 96
1, 29478, Note_on_c, 1, 55, 96
1, 29479, Note_off_c, 1, 55, 96
1, 29481, Note_on_c, 1, 71, 96
1, 29483, Note_off_c, 1, 71, 96
1, 29483, Note_on_c, 1, 60, 96
1, 29484, Note_off_c, 1, 60, 96
1, 29486, Note_on_c, 1, 43, 96
1, 29487, Note_off_c, 1, 43, 96
1, 29540, Note_on_c, 1, 71, 96
1, 29541, Note_off_c, 1, 71, 96
1, 29543, Note_on_c, 1, 53, 96
1, 29545, Note_off_c, 1, 53, 96
1, 29545, Note_on_c, 1, 65, 96
1, 29546, Note_off_c, 1, 65, 96
1, 29606, Note_on_c, 1, 70, 96
1, 29607, Note_off_c, 1, 70, 96
1, 29609, Note_on_c, 1, 65, 96
1, 29610, Note_off_c, 1, 65, 96
1, 29612, Note_on_c, 1, 53, 96
1, 29613, Note_off_c, 1, 53, 96
1, 29669, Note_on_c, 1, 70, 96
1, 29669, Note_on_c, 1, 65, 96
1, 29670, Note_off_c, 1, 70, 96
1, 29670, Note_off_c, 1, 65, 96
1, 29734, Note_on_c, 1, 67, 96
1, 29734, Note_on_c, 1, 58, 96
1, 29735, Note_off_c, 1, 67, 96
1, 29735, Note_off_c, 1, 58, 96
1, 29737, Note_on_c, 1, 53, 96
1, 29741, Note_off_c, 1, 53, 96
1, 29741, Note_on_c, 1, 79, 96
1, 29741, Note_on_c, 1, 55, 96
1, 29741, Note_on_c, 1, 62, 96
1, 29742, Note_off_c, 1, 79, 96
1, 29742, Note_off_c, 1, 55, 96
1, 29742, Note_off_c, 1, 62, 96
1, 29802, Note_on_c, 1, 77, 96
1, 29802, Note_on_c, 1, 70, 96
1, 29803, Note_off_c, 1, 77, 96
1, 29803, Note_off_c, 1, 70, 96
1, 29859, Note_on_c, 1, 50, 96
1, 29861, Note_off_c, 1, 50, 96
1, 29861, Note_on_c, 1, 38, 96
1, 29862, Note_off_c, 1, 38, 96
1, 29925, Note_on_c, 1, 70, 96
1, 29925, Note_on_c, 1, 66, 96
1, 29926, Note_off_c, 1, 70, 96
1, 29926, Note_off_c, 1, 66, 96
1, 29984, Note_on_c, 1, 38, 96
1, 29985, Note_off_c, 1, 38, 96
1, 30047, Note_on_c, 1, 38, 96
1, 30049, Note_off_c, 1, 38, 96
1, 30049, Note_on_c, 1, 50, 96
1, 30050, Note_off_c, 1, 50, 96
1, 30110, Note_on_c, 1, 70, 96
1, 30110, Note_on_c, 1, 74, 96
1, 30111, Note_off_c, 1, 70, 96
1, 30111, Note_off_c, 1, 74, 96
1, 30117, Note_on_c, 1, 65, 96
1, 30117, Note_on_c, 1, 58, 96
1, 30117, Note_on_c, 1, 53, 96
1, 30117, Note_on_c, 1, 62, 96
1, 30117, Note_on_c, 1, 50, 96
1, 30118, Note_off_c, 1, 65, 96
1, 30118, Note_off_c, 1, 58, 96
1, 30118, Note_off_c, 1, 53, 96
1, 30118, Note_off_c, 1, 62, 96
1, 30118, Note_off_c, 1, 50, 96
1, 30236, Note_on_c, 1, 77, 96
1, 30237, Note_off_c, 1, 77, 96
1, 30239, Note_on_c, 1, 69, 96
1, 30240, Note_off_c, 1, 69, 96
1, 30354, Note_on_c, 1, 65, 96
1, 30356, Note_off_c, 1, 65, 96
1, 30356, Note_on_c, 1, 57, 96
1, 30357, Note_off_c, 1, 57, 96
1, 30361, Note_on_c, 1, 62, 96
1, 30364, Note_off_c, 1, 62, 96
1, 30364, Note_on_c, 1, 72, 96
1, 30364, Note_on_c, 1, 69, 96
1, 30365, Note_off_c, 1, 72, 96
1, 30365, Note_off_c, 1, 69, 96
1, 30483, Note_on_c, 1, 65, 96
1, 30483, Note_on_c, 1, 41, 96
1, 30484, Note_off_c, 1, 65, 96
1, 30484, Note_off_c, 1, 41, 96
1, 30488, Note_on_c, 1, 60, 96
1, 30489, Note_off_c, 1, 60, 96
1, 30727, Note_on_c, 1, 77, 96
1, 30727, Note_on_c, 1, 57, 96
1, 30729, Note_off_c, 1, 77, 96
1, 30729, Note_off_c, 1, 57, 96
1, 30729, Note_on_c, 1, 45, 96
1, 30730, Note_off_c, 1, 45, 96
1, 30732, Note_on_c, 1, 86, 96
1, 30734, Note_off_c, 1, 86, 96
1, 30734, Note_on_c, 1, 84, 96
1, 30736, Note_off_c, 1, 84, 96
1, 30736, Note_on_c, 1, 79, 96
1, 30737, Note_off_c, 1, 79, 96
1, 30739, Note_on_c, 1, 74, 96
1, 30740, Note_off_c, 1, 74, 96
1, 30856, Note_on_c, 1, 64, 96
1, 30859, Note_off_c, 1, 64, 96
1, 30859, Note_on_c, 1, 60, 96
1, 30859, Note_on_c, 1, 57, 96
1, 30860, Note_off_c, 1, 60, 96
1, 30860, Note_off_c, 1, 57, 96
1, 30862, Note_on_c, 1, 69, 96
1, 30863, Note_off_c, 1, 69, 96
1, 30866, Note_on_c, 1, 76, 96
1, 30867, Note_off_c, 1, 76, 96
1, 30980, Note_on_c, 1, 72, 96
1, 30981, Note_off_c, 1, 72, 96
1, 30987, Note_on_c, 1, 81, 96
1, 30987, Note_on_c, 1, 84, 96
1, 30988, Note_off_c, 1, 81, 96
1, 30988, Note_off_c, 1, 84, 96
1, 31108, Note_on_c, 1, 60, 96
1, 31109, Note_off_c, 1, 60, 96
1, 31111, Note_on_c, 1, 67, 96
1, 31113, Note_off_c, 1, 67, 96
1, 31113, Note_on_c, 1, 64, 96
1, 31114, Note_off_c, 1, 64, 96
1, 31170, Note_on_c, 1, 84, 96
1, 31171, Note_off_c, 1, 84, 96
1, 31231, Note_on_c, 1, 65, 96
1, 31233, Note_off_c, 1, 65, 96
1, 31233, Note_on_c, 1, 72, 96
1, 31234, Note_off_c, 1, 72, 96
1, 31237, Note_on_c, 1, 77, 96
1, 31238, Note_off_c, 1, 77, 96
1, 31240, Note_on_c, 1, 57, 96
1, 31242, Note_off_c, 1, 57, 96
1, 31242, Note_on_c, 1, 60, 96
1, 31243, Note_off_c, 1, 60, 96
1, 31299, Note_on_c, 1, 81, 96
1, 31300, Note_off_c, 1, 81, 96
1, 31302, Note_on_c, 1, 84, 96
1, 31303, Note_off_c, 1, 84, 96
1, 31363, Note_on_c, 1, 86, 96
1, 31363, Note_on_c, 1, 44, 96
1, 31364, Note_off_c, 1, 86, 96
1, 31364, Note_off_c, 1, 44, 96
1, 31429, Note_on_c, 1, 89, 96
1, 31430, Note_off_c, 1, 89, 96
1, 31490, Note_on_c, 1, 74, 96
1, 31490, Note_on_c, 1, 59, 96
1, 31490, Note_on_c, 1, 65, 96
1, 31490, Note_on_c, 1, 55, 96
1, 31491, Note_off_c, 1, 74, 96
1, 31491, Note_off_c, 1, 59, 96
1, 31491, Note_off_c, 1, 65, 96
1, 31491, Note_off_c, 1, 55, 96
1, 31495, Note_on_c, 1, 79, 96
1, 31496, Note_off_c, 1, 79, 96
1, 31551, Note_on_c, 1, 89, 96
1, 31552, Note_off_c, 1, 89, 96
1, 31554, Note_on_c, 1, 86, 96
1, 31555, Note_off_c, 1, 86, 96
1, 31611, Note_on_c, 1, 55, 96
1, 31612, Note_off_c, 1, 55, 96
1, 31614, Note_on_c, 1, 59, 96
1, 31615, Note_off_c, 1, 59, 96
1, 31617, Note_on_c, 1, 65, 96
1, 31618, Note_off_c, 1, 65, 96
1, 31675, Note_on_c, 1, 95, 96
1, 31676, Note_off_c, 1, 95, 96
1, 31679, Note_on_c, 1, 83, 96
1, 31680, Note_off_c, 1, 83, 96
1, 31737, Note_on_c, 1, 55, 96
1, 31738, Note_off_c, 1, 55, 96
1, 31745, Note_on_c, 1, 43, 96
1, 31746, Note_off_c, 1, 43, 96
1, 31859, Note_on_c, 1, 77, 96
1, 31860, Note_off_c, 1, 77, 96
1, 31864, Note_on_c, 1, 43, 96
1, 31865, Note_off_c, 1, 43, 96
1, 31926, Note_on_c, 1, 86, 96
1, 31927, Note_off_c, 1, 86, 96
1, 31983, Note_on_c, 1, 38, 96
1, 31984, Note_off_c, 1, 38, 96
1, 31988, Note_on_c, 1, 86, 96
1, 31989, Note_off_c, 1, 86, 96
1, 32045, Note_on_c, 1, 71, 96
1, 32046, Note_off_c, 1, 71, 96
1, 32108, Note_on_c, 1, 74, 96
1, 32110, Note_off_c, 1, 74, 96
1, 32110, Note_on_c, 1, 71, 96
1, 32111, Note_off_c, 1, 71, 96
1, 32171, Note_on_c, 1, 95, 96
1, 32172, Note_off_c, 1, 95, 96
1, 32228, Note_on_c, 1, 86, 96
1, 32229, Note_off_c, 1, 86, 96
1, 32232, Note_on_c, 1, 55, 96
1, 32232, Note_on_c, 1, 65, 96
1, 32233, Note_off_c, 1, 55, 96
1, 32233, Note_off_c, 1, 65, 96
1, 32238, Note_on_c, 1, 74, 96
1, 32238, Note_on_c, 1, 59, 96
1, 32239, Note_off_c, 1, 74, 96
1, 32239, Note_off_c, 1, 59, 96
1, 32296, Note_on_c, 1, 83, 96
1, 32297, Note_off_c, 1, 83, 96
1, 32359, Note_on_c, 1, 43, 96
1, 32360, Note_off_c, 1, 43, 96
1, 32418, Note_on_c, 1, 88, 96
1, 32419, Note_off_c, 1, 88, 96
1, 32477, Note_on_c, 1, 55, 96
1, 32478, Note_off_c, 1, 55, 96
1, 32481, Note_on_c, 1, 86, 96
1, 32482, Note_off_c, 1, 86, 96
1, 32541, Note_on_c, 1, 82, 96
1, 32542, Note_off_c, 1, 82, 96
1, 32600, Note_on_c, 1, 83, 96
1, 32601, Note_off_c, 1, 83, 96
1, 32604, Note_on_c, 1, 43, 96
1, 32606, Note_off_c, 1, 43, 96
1, 32606, Note_on_c, 1, 91, 96
1, 32607, Note_off_c, 1, 91, 96
1, 32609, Note_on_c, 1, 55, 96
1, 32610, Note_off_c, 1, 55, 96
1, 32660, Note_on_c, 1, 79, 96
1, 32661, Note_off_c, 1, 79, 96
1, 32668, Note_on_c, 1, 91, 96
1, 32669, Note_off_c, 1, 91, 96
1, 32724, Note_on_c, 1, 55, 96
1, 32726, Note_off_c, 1, 55, 96
1, 32726, Note_on_c, 1, 50, 96
1, 32728, Note_off_c, 1, 50, 96
1, 32728, Note_on_c, 1, 59, 96
1, 32729, Note_off_c, 1, 59, 96
1, 32731, Note_on_c, 1, 62, 96
1, 32732, Note_off_c, 1, 62, 96
1, 32735, Note_on_c, 1, 75, 96
1, 32736, Note_off_c, 1, 75, 96
1, 32788, Note_on_c, 1, 78, 96
1, 32789, Note_off_c, 1, 78, 96
1, 32792, Note_on_c, 1, 90, 96
1, 32793, Note_off_c, 1, 90, 96
1, 32852, Note_on_c, 1, 49, 96
1, 32853, Note_off_c, 1, 49, 96
1, 32858, Note_on_c, 1, 61, 96
1, 32859, Note_off_c, 1, 61, 96
1, 32913, Note_on_c, 1, 82, 96
1, 32914, Note_off_c, 1, 82, 96
1, 32917, Note_on_c, 1, 88, 96
1, 32918, Note_off_c, 1, 88, 96
1, 32972, Note_on_c, 1, 93, 96
1, 32974, Note_off_c, 1, 93, 96
1, 32974, Note_on_c, 1, 60, 96
1, 32975, Note_off_c, 1, 60, 96
1, 33042, Note_on_c, 1, 89, 96
1, 33043, Note_off_c, 1, 89, 96
1, 33100, Note_on_c, 1, 82, 96
1, 33102, Note_off_c, 1, 82, 96
1, 33102, Note_on_c, 1, 38, 96
1, 33103, Note_off_c, 1, 38, 96
1, 33107, Note_on_c, 1, 70, 96
1, 33107, Note_on_c, 1, 53, 96
1, 33108, Note_off_c, 1, 70, 96
1, 33108, Note_off_c, 1, 53, 96
1, 33225, Note_on_c, 1, 86, 96
1, 33226, Note_off_c, 1, 86, 96
1, 33229, Note_on_c, 1, 74, 96
1, 33229, Note_on_c, 1, 52, 96
1, 33230, Note_off_c, 1, 74, 96
1, 33230, Note_off_c, 1, 52, 96
1, 33232, Note_on_c, 1, 40, 96
1, 33233, Note_off_c, 1, 40, 96
1, 33350, Note_on_c, 1, 79, 96
1, 33352, Note_off_c, 1, 79, 96
1, 33352, Note_on_c, 1, 48, 96
1, 33354, Note_off_c, 1, 48, 96
1, 33354, Note_on_c, 1, 52, 96
1, 33355, Note_off_c, 1, 52, 96
1, 33357, Note_on_c, 1, 60, 96
1, 33358, Note_off_c, 1, 60, 96
1, 33415, Note_on_c, 1, 72, 96
1, 33416, Note_off_c, 1, 72, 96
1, 33438, Note_on_c, 1, 83, 96
1, 33439, Note_off_c, 1, 83, 96
1, 33464, Note_on_c, 1, 81, 96
1, 33465, Note_off_c, 1, 81, 96
1, 33481, Note_on_c, 1, 76, 96
1, 33482, Note_off_c, 1, 76, 96
1, 33487, Note_on_c, 1, 60, 96
1, 33489, Note_off_c, 1, 60, 96
1, 33489, Note_on_c, 1, 55, 96
1, 33490, Note_off_c, 1, 55, 96
1, 33603, Note_on_c, 1, 43, 96
1, 33605, Note_off_c, 1, 43, 96
1, 33605, Note_on_c, 1, 83, 96
1, 33607, Note_off_c, 1, 83, 96
1, 33607, Note_on_c, 1, 65, 96
1, 33608, Note_off_c, 1, 65, 96
1, 33723, Note_on_c, 1, 36, 96
1, 33725, Note_off_c, 1, 36, 96
1, 33725, Note_on_c, 1, 48, 96
1, 33726, Note_off_c, 1, 48, 96
1, 33853, Note_on_c, 1, 82, 96
1, 33853, Note_on_c, 1, 51, 96
1, 33853, Note_on_c, 1, 60, 96
1, 33855, Note_off_c, 1, 82, 96
1, 33855, Note_off_c, 1, 51, 96
1, 33855, Note_off_c, 1, 60, 96
1, 33855, Note_on_c, 1, 54, 96
1, 33856, Note_off_c, 1, 54, 96
1, 33914, Note_on_c, 1, 79, 96
1, 33915, Note_off_c, 1, 79, 96
1, 33972, Note_on_c, 1, 60, 96
1, 33973, Note_off_c, 1, 60, 96
1, 33977, Note_on_c, 1, 83, 96
1, 33978, Note_off_c, 1, 83, 96
1, 33981, Note_on_c, 1, 55, 96
1, 33981, Note_on_c, 1, 64, 96
1, 33982, Note_off_c, 1, 55, 96
1, 33982, Note_off_c, 1, 64, 96
1, 34041, Note_on_c, 1, 83, 96
1, 34042, Note_off_c, 1, 83, 96
1, 34101, Note_on_c, 1, 84, 96
1, 34103, Note_off_c, 1, 84, 96
1, 34103, Note_on_c, 1, 48, 96
1, 34105, Note_off_c, 1, 48, 96
1, 34105, Note_on_c, 1, 81, 96
1, 34106, Note_off_c, 1, 81, 96
1, 34165, Note_on_c, 1, 81, 96
1, 34166, Note_off_c, 1, 81, 96
1, 34224, Note_on_c, 1, 79, 96
1, 34225, Note_off_c, 1, 79, 96
1, 34228, Note_on_c, 1, 55, 96
1, 34231, Note_off_c, 1, 55, 96
1, 34231, Note_on_c, 1, 59, 96
1, 34231, Note_on_c, 1, 50, 96
1, 34232, Note_off_c, 1, 59, 96
1, 34232, Note_off_c, 1, 50, 96
1, 34290, Note_on_c, 1, 79, 96
1, 34290, Note_on_c, 1, 83, 96
1, 34291, Note_off_c, 1, 79, 96
1, 34291, Note_off_c, 1, 83, 96
1, 34351, Note_on_c, 1, 47, 96
1, 34352, Note_off_c, 1, 47, 96
1, 34355, Note_on_c, 1, 59, 96
1, 34356, Note_off_c, 1, 59, 96
1, 34411, Note_on_c, 1, 83, 96
1, 34412, Note_off_c, 1, 83, 96
1, 34474, Note_on_c, 1, 55, 96
1, 34475, Note_off_c, 1, 55, 96
1, 34480, Note_on_c, 1, 59, 96
1, 34480, Note_on_c, 1, 43, 96
1, 34481, Note_off_c, 1, 59, 96
1, 34481, Note_off_c, 1, 43, 96
1, 34538, Note_on_c, 1, 79, 96
1, 34539, Note_off_c, 1, 79, 96
1, 34600, Note_on_c, 1, 74, 96
1, 34600, Note_on_c, 1, 43, 96
1, 34600, Note_on_c, 1, 55, 96
1, 34601, Note_off_c, 1, 74, 96
1, 34601, Note_off_c, 1, 43, 96
1, 34601, Note_off_c, 1, 55, 96
1, 34663, Note_on_c, 1, 72, 96
1, 34664, Note_off_c, 1, 72, 96
1, 34721, Note_on_c, 1, 59, 96
1, 34722, Note_off_c, 1, 59, 96
1, 34726, Note_on_c, 1, 67, 96
1, 34728, Note_off_c, 1, 67, 96
1, 34728, Note_on_c, 1, 55, 96
1, 34729, Note_off_c, 1, 55, 96
1, 34788, Note_on_c, 1, 73, 96
1, 34789, Note_off_c, 1, 73, 96
1, 34847, Note_on_c, 1, 55, 96
1, 34847, Note_on_c, 1, 53, 96
1, 34849, Note_off_c, 1, 55, 96
1, 34849, Note_off_c, 1, 53, 96
1, 34849, Note_on_c, 1, 74, 96
1, 34851, Note_off_c, 1, 74, 96
1, 34851, Note_on_c, 1, 59, 96
1, 34852, Note_off_c, 1, 59, 96
1, 34910, Note_on_c, 1, 74, 96
1, 34911, Note_off_c, 1, 74, 96
1, 34971, Note_on_c, 1, 48, 96
1, 34972, Note_off_c, 1, 48, 96
1, 34976, Note_on_c, 1, 72, 96
1, 34977, Note_off_c, 1, 72, 96
1, 35034, Note_on_c, 1, 69, 96
1, 35035, Note_off_c, 1, 69, 96
1, 35095, Note_on_c, 1, 76, 96
1, 35096, Note_off_c, 1, 76, 96
1, 35100, Note_on_c, 1, 40, 96
1, 35100, Note_on_c, 1, 52, 96
1, 35101, Note_off_c, 1, 40, 96
1, 35101, Note_off_c, 1, 52, 96
1, 35162, Note_on_c, 1, 76, 96
1, 35163, Note_off_c, 1, 76, 96
1, 35221, Note_on_c, 1, 64, 96
1, 35224, Note_off_c, 1, 64, 96
1, 35224, Note_on_c, 1, 76, 96
1, 35224, Note_on_c, 1, 57, 96
1, 35225, Note_off_c, 1, 76, 96
1, 35225, Note_off_c, 1, 57, 96
1, 35227, Note_on_c, 1, 60, 96
1, 35228, Note_off_c, 1, 60, 96
1, 35341, Note_on_c, 1, 38, 96
1, 35342, Note_off_c, 1, 38, 96
1, 35344, Note_on_c, 1, 74, 96
1, 35346, Note_off_c, 1, 74, 96
1, 35346, Note_on_c, 1, 50, 96
1, 35347, Note_off_c, 1, 50, 96
1, 35468, Note_on_c, 1, 57, 96
1, 35470, Note_off_c, 1, 57, 96
1, 35470, Note_on_c, 1, 47, 96
1, 35472, Note_off_c, 1, 47, 96
1, 35472, Note_on_c, 1, 69, 96
1, 35473, Note_off_c, 1, 69, 96
1, 35535, Note_on_c, 1, 72, 96
1, 35536, Note_off_c, 1, 72, 96
1, 35590, Note_on_c, 1, 38, 96
1, 35591, Note_off_c, 1, 38, 96
1, 35595, Note_on_c, 1, 71, 96
1, 35596, Note_off_c, 1, 71, 96
1, 35652, Note_on_c, 1, 72, 96
1, 35653, Note_off_c, 1, 72, 96
1, 35713, Note_on_c, 1, 74, 96
1, 35714, Note_off_c, 1, 74, 96
1, 35717, Note_on_c, 1, 48, 96
1, 35718, Note_off_c, 1, 48, 96
1, 35774, Note_on_c, 1, 66, 96
1, 35775, Note_off_c, 1, 66, 96
1, 35777, Note_on_c, 1, 74, 96
1, 35778, Note_off_c, 1, 74, 96
1, 35836, Note_on_c, 1, 70, 96
1, 35837, Note_off_c, 1, 70, 96
1, 35839, Note_on_c, 1, 50, 96
1, 35841, Note_off_c, 1, 50, 96
1, 35841, Note_on_c, 1, 62, 96
1, 35842, Note_off_c, 1, 62, 96
1, 35898, Note_on_c, 1, 67, 96
1, 35899, Note_off_c, 1, 67, 96
1, 35960, Note_on_c, 1, 78, 96
1, 35960, Note_on_c, 1, 38, 96
1, 35962, Note_off_c, 1, 78, 96
1, 35962, Note_off_c, 1, 38, 96
1, 35962, Note_on_c, 1, 69, 96
1, 35963, Note_off_c, 1, 69, 96
1, 36026, Note_on_c, 1, 69, 96
1, 36027, Note_off_c, 1, 69, 96
1, 36090, Note_on_c, 1, 43, 96
1, 36091, Note_off_c, 1, 43, 96
1, 36148, Note_on_c, 1, 70, 96
1, 36149, Note_off_c, 1, 70, 96
1, 36208, Note_on_c, 1, 46, 96
1, 36209, Note_off_c, 1, 46, 96
1, 36211, Note_on_c, 1, 66, 96
1, 36212, Note_off_c, 1, 66, 96
1, 36272, Note_on_c, 1, 67, 96
1, 36273, Note_off_c, 1, 67, 96
1, 36330, Note_on_c, 1, 62, 96
1, 36331, Note_off_c, 1, 62, 96
1, 36333, Note_on_c, 1, 58, 96
1, 36334, Note_off_c, 1, 58, 96
1, 36336, Note_on_c, 1, 70, 96
1, 36337, Note_off_c, 1, 70, 96
1, 36339, Note_on_c, 1, 53, 96
1, 36340, Note_off_c, 1, 53, 96
1, 36455, Note_on_c, 1, 62, 96
1, 36457, Note_off_c, 1, 62, 96
1, 36457, Note_on_c, 1, 74, 96
1, 36458, Note_off_c, 1, 74, 96
1, 36461, Note_on_c, 1, 65, 96
1, 36462, Note_off_c, 1, 65, 96
1, 36515, Note_on_c, 1, 70, 96
1, 36516, Note_off_c, 1, 70, 96
1, 36576, Note_on_c, 1, 58, 96
1, 36577, Note_off_c, 1, 58, 96
1, 36580, Note_on_c, 1, 67, 96
1, 36581, Note_off_c, 1, 67, 96
1, 36584, Note_on_c, 1, 62, 96
1, 36584, Note_on_c, 1, 55, 96
1, 36585, Note_off_c, 1, 62, 96
1, 36585, Note_off_c, 1, 55, 96
1, 36640, Note_on_c, 1, 68, 96
1, 36641, Note_off_c, 1, 68, 96
1, 36706, Note_on_c, 1, 58, 96
1, 36707, Note_off_c, 1, 58, 96
1, 36709, Note_on_c, 1, 70, 96
1, 36710, Note_off_c, 1, 70, 96
1, 36764, Note_on_c, 1, 73, 96
1, 36765, Note_off_c, 1, 73, 96
1, 36827, Note_on_c, 1, 73, 96
1, 36829, Note_off_c, 1, 73, 96
1, 36829, Note_on_c, 1, 61, 96
1, 36830, Note_off_c, 1, 61, 96
1, 36884, Note_on_c, 1, 78, 96
1, 36885, Note_off_c, 1, 78, 96
1, 36889, Note_on_c, 1, 66, 96
1, 36890, Note_off_c, 1, 66, 96
1, 36930, Note_on_c, 1, 74, 96
1, 36931, Note_off_c, 1, 74, 96
1, 36967, Note_on_c, 1, 74, 96
1, 36967, Note_on_c, 1, 65, 96
1, 36968, Note_off_c, 1, 74, 96
1, 36968, Note_off_c, 1, 65, 96
1, 36971, Note_on_c, 1, 70, 96
1, 36973, Note_off_c, 1, 70, 96
1, 36973, Note_on_c, 1, 46, 96
1, 36974, Note_off_c, 1, 46, 96
1, 37031, Note_on_c, 1, 73, 96
1, 37032, Note_off_c, 1, 73, 96
1, 37091, Note_on_c, 1, 74, 96
1, 37091, Note_on_c, 1, 58, 96
1, 37093, Note_off_c, 1, 74, 96
1, 37093, Note_off_c, 1, 58, 96
1, 37093, Note_on_c, 1, 53, 96
1, 37094, Note_off_c, 1, 53, 96
1, 37096, Note_on_c, 1, 62, 96
1, 37097, Note_off_c, 1, 62, 96
1, 37158, Note_on_c, 1, 74, 96
1, 37159, Note_off_c, 1, 74, 96
1, 37215, Note_on_c, 1, 53, 96
1, 37216, Note_off_c, 1, 53, 96
1, 37218, Note_on_c, 1, 62, 96
1, 37220, Note_off_c, 1, 62, 96
1, 37220, Note_on_c, 1, 58, 96
1, 37221, Note_off_c, 1, 58, 96
1, 37280, Note_on_c, 1, 71, 96
1, 37281, Note_off_c, 1, 71, 96
1, 37342, Note_on_c, 1, 79, 96
1, 37343, Note_off_c, 1, 79, 96
1, 37401, Note_on_c, 1, 71, 96
1, 37402, Note_off_c, 1, 71, 96
1, 37459, Note_on_c, 1, 59, 96
1, 37460, Note_off_c, 1, 59, 96
1, 37464, Note_on_c, 1, 62, 96
1, 37465, Note_off_c, 1, 62, 96
1, 37470, Note_on_c, 1, 67, 96
1, 37470, Note_on_c, 1, 55, 96
1, 37471, Note_off_c, 1, 67, 96
1, 37471, Note_off_c, 1, 55, 96
1, 37526, Note_on_c, 1, 73, 96
1, 37527, Note_off_c, 1, 73, 96
1, 37586, Note_on_c, 1, 74, 96
1, 37587, Note_off_c, 1, 74, 96
1, 37590, Note_on_c, 1, 65, 96
1, 37592, Note_off_c, 1, 65, 96
1, 37592, Note_on_c, 1, 43, 96
1, 37593, Note_off_c, 1, 43, 96
1, 37650, Note_on_c, 1, 74, 96
1, 37651, Note_off_c, 1, 74, 96
1, 37707, Note_on_c, 1, 55, 96
1, 37708, Note_off_c, 1, 55, 96
1, 37710, Note_on_c, 1, 59, 96
1, 37711, Note_off_c, 1, 59, 96
1, 37714, Note_on_c, 1, 69, 96
1, 37716, Note_off_c, 1, 69, 96
1, 37716, Note_on_c, 1, 65, 96
1, 37717, Note_off_c, 1, 65, 96
1, 37775, Note_on_c, 1, 71, 96
1, 37777, Note_off_c, 1, 71, 96
1, 37777, Note_on_c, 1, 79, 96
1, 37778, Note_off_c, 1, 79, 96
1, 37833, Note_on_c, 1, 74, 96
1, 37835, Note_off_c, 1, 74, 96
1, 37835, Note_on_c, 1, 55, 96
1, 37836, Note_off_c, 1, 55, 96
1, 37841, Note_on_c, 1, 71, 96
1, 37842, Note_off_c, 1, 71, 96
1, 37899, Note_on_c, 1, 69, 96
1, 37900, Note_off_c, 1, 69, 96
1, 37961, Note_on_c, 1, 52, 96
1, 37962, Note_off_c, 1, 52, 96
1, 38018, Note_on_c, 1, 74, 96
1, 38019, Note_off_c, 1, 74, 96
1, 38081, Note_on_c, 1, 48, 96
1, 38082, Note_off_c, 1, 48, 96
1, 38084, Note_on_c, 1, 36, 96
1, 38085, Note_off_c, 1, 36, 96
1, 38204, Note_on_c, 1, 64, 96
1, 38204, Note_on_c, 1, 72, 96
1, 38206, Note_off_c, 1, 64, 96
1, 38206, Note_off_c, 1, 72, 96
1, 38206, Note_on_c, 1, 72, 96
1, 38207, Note_off_c, 1, 72, 96
1, 38210, Note_on_c, 1, 60, 96
1, 38213, Note_off_c, 1, 60, 96
1, 38213, Note_on_c, 1, 70, 96
1, 38213, Note_on_c, 1, 58, 96
1, 38214, Note_off_c, 1, 70, 96
1, 38214, Note_off_c, 1, 58, 96
1, 38268, Note_on_c, 1, 69, 96
1, 38269, Note_off_c, 1, 69, 96
1, 38271, Note_on_c, 1, 64, 96
1, 38272, Note_off_c, 1, 64, 96
1, 38274, Note_on_c, 1, 76, 96
1, 38275, Note_off_c, 1, 76, 96
1, 38333, Note_on_c, 1, 55, 96
1, 38334, Note_off_c, 1, 55, 96
1, 38336, Note_on_c, 1, 43, 96
1, 38337, Note_off_c, 1, 43, 96
1, 38397, Note_on_c, 1, 67, 96
1, 38398, Note_off_c, 1, 67, 96
1, 38455, Note_on_c, 1, 69, 96
1, 38456, Note_off_c, 1, 69, 96
1, 38459, Note_on_c, 1, 45, 96
1, 38460, Note_off_c, 1, 45, 96
1, 38518, Note_on_c, 1, 72, 96
1, 38519, Note_off_c, 1, 72, 96
1, 38581, Note_on_c, 1, 52, 96
1, 38582, Note_off_c, 1, 52, 96
1, 38584, Note_on_c, 1, 64, 96
1, 38585, Note_off_c, 1, 64, 96
1, 38587, Note_on_c, 1, 72, 96
1, 38588, Note_off_c, 1, 72, 96
1, 38651, Note_on_c, 1, 65, 96
1, 38651, Note_on_c, 1, 74, 96
1, 38652, Note_off_c, 1, 65, 96
1, 38652, Note_off_c, 1, 74, 96
1, 38708, Note_on_c, 1, 62, 96
1, 38710, Note_off_c, 1, 62, 96
1, 38710, Note_on_c, 1, 69, 96
1, 38711, Note_off_c, 1, 69, 96
1, 38713, Note_on_c, 1, 65, 96
1, 38714, Note_off_c, 1, 65, 96
1, 38772, Note_on_c, 1, 64, 96
1, 38772, Note_on_c, 1, 71, 96
1, 38773, Note_off_c, 1, 64, 96
1, 38773, Note_off_c, 1, 71, 96
1, 38832, Note_on_c, 1, 57, 96
1, 38833, Note_off_c, 1, 57, 96
1, 38836, Note_on_c, 1, 60, 96
1, 38837, Note_off_c, 1, 60, 96
1, 38893, Note_on_c, 1, 74, 96
1, 38894, Note_off_c, 1, 74, 96
1, 38897, Note_on_c, 1, 71, 96
1, 38898, Note_off_c, 1, 71, 96
1, 38953, Note_on_c, 1, 38, 96
1, 38954, Note_off_c, 1, 38, 96
1, 38957, Note_on_c, 1, 50, 96
1, 38958, Note_off_c, 1, 50, 96
1, 39080, Note_on_c, 1, 62, 96
1, 39080, Note_on_c, 1, 56, 96
1, 39081, Note_off_c, 1, 62, 96
1, 39081, Note_off_c, 1, 56, 96
1, 39137, Note_on_c, 1, 59, 96
1, 39138, Note_off_c, 1, 59, 96
1, 39196, Note_on_c, 1, 69, 96
1, 39197, Note_off_c, 1, 69, 96
1, 39201, Note_on_c, 1, 52, 96
1, 39202, Note_off_c, 1, 52, 96
1, 39257, Note_on_c, 1, 69, 96
1, 39258, Note_off_c, 1, 69, 96
1, 39263, Note_on_c, 1, 36, 96
1, 39264, Note_off_c, 1, 36, 96
1, 39319, Note_on_c, 1, 68, 96
1, 39320, Note_off_c, 1, 68, 96
1, 39382, Note_on_c, 1, 36, 96
1, 39383, Note_off_c, 1, 36, 96
1, 39388, Note_on_c, 1, 64, 96
1, 39389, Note_off_c, 1, 64, 96
1, 39447, Note_on_c, 1, 76, 96
1, 39448, Note_off_c, 1, 76, 96
1, 39505, Note_on_c, 1, 43, 96
1, 39506, Note_off_c, 1, 43, 96
1, 39631, Note_on_c, 1, 45, 96
1, 39631, Note_on_c, 1, 57, 96
1, 39632, Note_off_c, 1, 45, 96
1, 39632, Note_off_c, 1, 57, 96
1, 39747, Note_on_c, 1, 63, 96
1, 39750, Note_off_c, 1, 63, 96
1, 39750, Note_on_c, 1, 75, 96
1, 39750, Note_on_c, 1, 69, 96
1, 39752, Note_off_c, 1, 75, 96
1, 39752, Note_off_c, 1, 69, 96
1, 39752, Note_on_c, 1, 60, 96
1, 39753, Note_off_c, 1, 60, 96
1, 39756, Note_on_c, 1, 54, 96
1, 39756, Note_on_c, 1, 57, 96
1, 39757, Note_off_c, 1, 54, 96
1, 39757, Note_off_c, 1, 57, 96
1, 39877, Note_on_c, 1, 50, 96
1, 39877, Note_on_c, 1, 54, 96
1, 39877, Note_on_c, 1, 60, 96
1, 39879, Note_off_c, 1, 50, 96
1, 39879, Note_off_c, 1, 54, 96
1, 39879, Note_off_c, 1, 60, 96
1, 39879, Note_on_c, 1, 64, 96
1, 39880, Note_off_c, 1, 64, 96
1, 39934, Note_on_c, 1, 69, 96
1, 39935, Note_off_c, 1, 69, 96
1, 39993, Note_on_c, 1, 54, 96
1, 39995, Note_off_c, 1, 54, 96
1, 39995, Note_on_c, 1, 50, 96
1, 39997, Note_off_c, 1, 50, 96
1, 39997, Note_on_c, 1, 72, 96
1, 39998, Note_off_c, 1, 72, 96
1, 40003, Note_on_c, 1, 60, 96
1, 40004, Note_off_c, 1, 60, 96
1, 40126, Note_on_c, 1, 46, 96
1, 40127, Note_off_c, 1, 46, 96
1, 40244, Note_on_c, 1, 44, 96
1, 40245, Note_off_c, 1, 44, 96
1, 40247, Note_on_c, 1, 32, 96
1, 40248, Note_off_c, 1, 32, 96
1, 40306, Note_on_c, 1, 46, 96
1, 40307, Note_off_c, 1, 46, 96
1, 40311, Note_on_c, 1, 58, 96
1, 40311, Note_on_c, 1, 57, 96
1, 40311, Note_on_c, 1, 62, 96
1, 40312, Note_off_c, 1, 58, 96
1, 40312, Note_off_c, 1, 57, 96
1, 40312, Note_off_c, 1, 62, 96
1, 40336, Note_on_c, 1, 62, 96
1, 40337, Note_off_c, 1, 62, 96
1, 40361, Note_on_c, 1, 62, 96
1, 40361, Note_on_c, 1, 39, 96
1, 40361, Note_on_c, 1, 51, 96
1, 40362, Note_off_c, 1, 62, 96
1, 40362, Note_off_c, 1, 39, 96
1, 40362, Note_off_c, 1, 51, 96
1, 40419, Note_on_c, 1, 67, 96
1, 40420, Note_off_c, 1, 67, 96
1, 40481, Note_on_c, 1, 70, 96
1, 40481, Note_on_c, 1, 51, 96
1, 40483, Note_off_c, 1, 70, 96
1, 40483, Note_off_c, 1, 51, 96
1, 40483, Note_on_c, 1, 58, 96
1, 40484, Note_off_c, 1, 58, 96
1, 40487, Note_on_c, 1, 63, 96
1, 40488, Note_off_c, 1, 63, 96
1, 40547, Note_on_c, 1, 63, 96
1, 40548, Note_off_c, 1, 63, 96
1, 40605, Note_on_c, 1, 55, 96
1, 40608, Note_off_c, 1, 55, 96
1, 40608, Note_on_c, 1, 58, 96
1, 40608, Note_on_c, 1, 63, 96
1, 40609, Note_off_c, 1, 58, 96
1, 40609, Note_off_c, 1, 63, 96
1, 40728, Note_on_c, 1, 63, 96
1, 40729, Note_off_c, 1, 63, 96
1, 40732, Note_on_c, 1, 48, 96
1, 40733, Note_off_c, 1, 48, 96
1, 40848, Note_on_c, 1, 72, 96
1, 40849, Note_off_c, 1, 72, 96
1, 40894, Note_on_c, 1, 67, 96
1, 40894, Note_on_c, 1, 63, 96
1, 40895, Note_off_c, 1, 67, 96
1, 40895, Note_off_c, 1, 63, 96
1, 40934, Note_on_c, 1, 49, 96
1, 40935, Note_off_c, 1, 49, 96
1, 40971, Note_on_c, 1, 61, 96
1, 40971, Note_on_c, 1, 44, 96
1, 40972, Note_off_c, 1, 61, 96
1, 40972, Note_off_c, 1, 44, 96
1, 41028, Note_on_c, 1, 56, 96
1, 41029, Note_off_c, 1, 56, 96
1, 41034, Note_on_c, 1, 60, 96
1, 41035, Note_off_c, 1, 60, 96
1, 41150, Note_on_c, 1, 77, 96
1, 41150, Note_on_c, 1, 61, 96
1, 41151, Note_off_c, 1, 77, 96
1, 41151, Note_off_c, 1, 61, 96
1, 41153, Note_on_c, 1, 49, 96
1, 41154, Note_off_c, 1, 49, 96
1, 41273, Note_on_c, 1, 61, 96
1, 41275, Note_off_c, 1, 61, 96
1, 41275, Note_on_c, 1, 71, 96
1, 41278, Note_off_c, 1, 71, 96
1, 41278, Note_on_c, 1, 68, 96
1, 41278, Note_on_c, 1, 56, 96
1, 41279, Note_off_c, 1, 68, 96
1, 41279, Note_off_c, 1, 56, 96
1, 41281, Note_on_c, 1, 80, 96
1, 41282, Note_off_c, 1, 80, 96
1, 41403, Note_on_c, 1, 44, 96
1, 41404, Note_off_c, 1, 44, 96
1, 41406, Note_on_c, 1, 56, 96
1, 41407, Note_off_c, 1, 56, 96
1, 41521, Note_on_c, 1, 77, 96
1, 41522, Note_off_c, 1, 77, 96
1, 41525, Note_on_c, 1, 68, 96
1, 41527, Note_off_c, 1, 68, 96
1, 41527, Note_on_c, 1, 73, 96
1, 41528, Note_off_c, 1, 73, 96
1, 41533, Note_on_c, 1, 65, 96
1, 41533, Note_on_c, 1, 56, 96
1, 41533, Note_on_c, 1, 61, 96
1, 41534, Note_off_c, 1, 65, 96
1, 41534, Note_off_c, 1, 56, 96
1, 41534, Note_off_c, 1, 61, 96
1, 41647, Note_on_c, 1, 77, 96
1, 41649, Note_off_c, 1, 77, 96
1, 41649, Note_on_c, 1, 46, 96
1, 41653, Note_off_c, 1, 46, 96
1, 41653, Note_on_c, 1, 73, 96
1, 41653, Note_on_c, 1, 73, 96
1, 41653, Note_on_c, 1, 65, 96
1, 41654, Note_off_c, 1, 73, 96
1, 41654, Note_off_c, 1, 73, 96
1, 41654, Note_off_c, 1, 65, 96
1, 41657, Note_on_c, 1, 58, 96
1, 41658, Note_off_c, 1, 58, 96
1, 41773, Note_on_c, 1, 58, 96
1, 41774, Note_off_c, 1, 58, 96
1, 41776, Note_on_c, 1, 61, 96
1, 41777, Note_off_c, 1, 61, 96
1, 41779, Note_on_c, 1, 67, 96
1, 41780, Note_off_c, 1, 67, 96
1, 41782, Note_on_c, 1, 75, 96
1, 41783, Note_off_c, 1, 75, 96
1, 41899, Note_on_c, 1, 56, 96
1, 41899, Note_on_c, 1, 44, 96
1, 41900, Note_off_c, 1, 56, 96
1, 41900, Note_off_c, 1, 44, 96
1, 42023, Note_on_c, 1, 82, 96
1, 42024, Note_off_c, 1, 82, 96
1, 42029, Note_on_c, 1, 70, 96
1, 42030, Note_off_c, 1, 70, 96
1, 42148, Note_on_c, 1, 44, 96
1, 42149, Note_off_c, 1, 44, 96
1, 42151, Note_on_c, 1, 77, 96
1, 42152, Note_off_c, 1, 77, 96
1, 42156, Note_on_c, 1, 72, 96
1, 42156, Note_on_c, 1, 32, 96
1, 42157, Note_off_c, 1, 72, 96
1, 42157, Note_off_c, 1, 32, 96
1, 42211, Note_on_c, 1, 79, 96
1, 42212, Note_off_c, 1, 79, 96
1, 42274, Note_on_c, 1, 67, 96
1, 42275, Note_off_c, 1, 67, 96
1, 42397, Note_on_c, 1, 65, 96
1, 42399, Note_off_c, 1, 65, 96
1, 42399, Note_on_c, 1, 48, 96
1, 42401, Note_off_c, 1, 48, 96
1, 42401, Note_on_c, 1, 57, 96
1, 42402, Note_off_c, 1, 57, 96
1, 42519, Note_on_c, 1, 51, 96
1, 42520, Note_off_c, 1, 51, 96
1, 42583, Note_on_c, 1, 73, 96
1, 42584, Note_off_c, 1, 73, 96
1, 42644, Note_on_c, 1, 56, 96
1, 42644, Note_on_c, 1, 51, 96
1, 42645, Note_off_c, 1, 56, 96
1, 42645, Note_off_c, 1, 51, 96
1, 42648, Note_on_c, 1, 77, 96
1, 42649, Note_off_c, 1, 77, 96
1, 42709, Note_on_c, 1, 75, 96
1, 42710, Note_off_c, 1, 75, 96
1, 42747, Note_on_c, 1, 72, 96
1, 42748, Note_off_c, 1, 72, 96
1, 42769, Note_on_c, 1, 72, 96
1, 42772, Note_off_c, 1, 72, 96
1, 42772, Note_on_c, 1, 39, 96
1, 42772, Note_on_c, 1, 51, 96
1, 42774, Note_off_c, 1, 39, 96
1, 42774, Note_off_c, 1, 51, 96
1, 42774, Note_on_c, 1, 75, 96
1, 42775, Note_off_c, 1, 75, 96
1, 42830, Note_on_c, 1, 68, 96
1, 42831, Note_off_c, 1, 68, 96
1, 42889, Note_on_c, 1, 63, 96
1, 42892, Note_off_c, 1, 63, 96
1, 42892, Note_on_c, 1, 72, 96
1, 42892, Note_on_c, 1, 56, 96
1, 42894, Note_off_c, 1, 72, 96
1, 42894, Note_off_c, 1, 56, 96
1, 42894, Note_on_c, 1, 60, 96
1, 42895, Note_off_c, 1, 60, 96
1, 42953, Note_on_c, 1, 72, 96
1, 42954, Note_off_c, 1, 72, 96
1, 43016, Note_on_c, 1, 70, 96
1, 43019, Note_off_c, 1, 70, 96
1, 43019, Note_on_c, 1, 74, 96
1, 43019, Note_on_c, 1, 62, 96
1, 43020, Note_off_c, 1, 74, 96
1, 43020, Note_off_c, 1, 62, 96
1, 43024, Note_on_c, 1, 65, 96
1, 43025, Note_off_c, 1, 65, 96
1, 43082, Note_on_c, 1, 75, 96
1, 43083, Note_off_c, 1, 75, 96
1, 43144, Note_on_c, 1, 34, 96
1, 43146, Note_off_c, 1, 34, 96
1, 43146, Note_on_c, 1, 46, 96
1, 43147, Note_off_c, 1, 46, 96
1, 43205, Note_on_c, 1, 72, 96
1, 43206, Note_off_c, 1, 72, 96
1, 43267, Note_on_c, 1, 56, 96
1, 43268, Note_off_c, 1, 56, 96
1, 43270, Note_on_c, 1, 60, 96
1, 43271, Note_off_c, 1, 60, 96
1, 43332, Note_on_c, 1, 73, 96
1, 43333, Note_off_c, 1, 73, 96
1, 43388, Note_on_c, 1, 55, 96
1, 43388, Note_on_c, 1, 43, 96
1, 43389, Note_off_c, 1, 55, 96
1, 43389, Note_off_c, 1, 43, 96
1, 43392, Note_on_c, 1, 72, 96
1, 43393, Note_off_c, 1, 72, 96
1, 43453, Note_on_c, 1, 73, 96
1, 43454, Note_off_c, 1, 73, 96
1, 43511, Note_on_c, 1, 59, 96
1, 43512, Note_off_c, 1, 59, 96
1, 43517, Note_on_c, 1, 74, 96
1, 43517, Note_on_c, 1, 54, 96
1, 43518, Note_off_c, 1, 74, 96
1, 43518, Note_off_c, 1, 54, 96
1, 43520, Note_on_c, 1, 63, 96
1, 43521, Note_off_c, 1, 63, 96
1, 43635, Note_on_c, 1, 72, 96
1, 43635, Note_on_c, 1, 56, 96
1, 43636, Note_off_c, 1, 72, 96
1, 43636, Note_off_c, 1, 56, 96
1, 43641, Note_on_c, 1, 60, 96
1, 43643, Note_off_c, 1, 60, 96
1, 43643, Note_on_c, 1, 51, 96
1, 43644, Note_off_c, 1, 51, 96
1, 43702, Note_on_c, 1, 60, 96
1, 43703, Note_off_c, 1, 60, 96
1, 43705, Note_on_c, 1, 72, 96
1, 43706, Note_off_c, 1, 72, 96
1, 43767, Note_on_c, 1, 72, 96
1, 43767, Note_on_c, 1, 51, 96
1, 43768, Note_off_c, 1, 72, 96
1, 43768, Note_off_c, 1, 51, 96
1, 43831, Note_on_c, 1, 68, 96
1, 43832, Note_off_c, 1, 68, 96
1, 43888, Note_on_c, 1, 56, 96
1, 43889, Note_off_c, 1, 56, 96
1, 43892, Note_on_c, 1, 60, 96
1, 43894, Note_off_c, 1, 60, 96
1, 43894, Note_on_c, 1, 66, 96
1, 43895, Note_off_c, 1, 66, 96
1, 43954, Note_on_c, 1, 63, 96
1, 43955, Note_off_c, 1, 63, 96
1, 44015, Note_on_c, 1, 68, 96
1, 44016, Note_off_c, 1, 68, 96
1, 44018, Note_on_c, 1, 56, 96
1, 44020, Note_off_c, 1, 56, 96
1, 44020, Note_on_c, 1, 60, 96
1, 44022, Note_off_c, 1, 60, 96
1, 44022, Note_on_c, 1, 44, 96
1, 44023, Note_off_c, 1, 44, 96
1, 44138, Note_on_c, 1, 60, 96
1, 44139, Note_off_c, 1, 60, 96
1, 44141, Note_on_c, 1, 56, 96
1, 44143, Note_off_c, 1, 56, 96
1, 44143, Note_on_c, 1, 53, 96
1, 44144, Note_off_c, 1, 53, 96
1, 44146, Note_on_c, 1, 72, 96
1, 44147, Note_off_c, 1, 72, 96
1, 44265, Note_on_c, 1, 60, 96
1, 44267, Note_off_c, 1, 60, 96
1, 44267, Note_on_c, 1, 51, 96
1, 44269, Note_off_c, 1, 51, 96
1, 44269, Note_on_c, 1, 56, 96
1, 44270, Note_off_c, 1, 56, 96
1, 44388, Note_on_c, 1, 63, 96
1, 44389, Note_off_c, 1, 63, 96
1, 44394, Note_on_c, 1, 56, 96
1, 44395, Note_off_c, 1, 56, 96
1, 44451, Note_on_c, 1, 72, 96
1, 44452, Note_off_c, 1, 72, 96
1, 44454, Note_on_c, 1, 60, 96
1, 44456, Note_off_c, 1, 60, 96
1, 44456, Note_on_c, 1, 48, 96
1, 44457, Note_off_c, 1, 48, 96
1, 44511, Note_on_c, 1, 37, 96
1, 44513, Note_off_c, 1, 37, 96
1, 44513, Note_on_c, 1, 53, 96
1, 44514, Note_off_c, 1, 53, 96
1, 44520, Note_on_c, 1, 49, 96
1, 44521, Note_off_c, 1, 49, 96
1, 44635, Note_on_c, 1, 73, 96
1, 44637, Note_off_c, 1, 73, 96
1, 44637, Note_on_c, 1, 46, 96
1, 44639, Note_off_c, 1, 46, 96
1, 44639, Note_on_c, 1, 62, 96
1, 44640, Note_off_c, 1, 62, 96
1, 44643, Note_on_c, 1, 58, 96
1, 44644, Note_off_c, 1, 58, 96
1, 44701, Note_on_c, 1, 61, 96
1, 44702, Note_off_c, 1, 61, 96
1, 44706, Note_on_c, 1, 49, 96
1, 44707, Note_off_c, 1, 49, 96
1, 44761, Note_on_c, 1, 68, 96
1, 44761, Note_on_c, 1, 60, 96
1, 44762, Note_off_c, 1, 68, 96
1, 44762, Note_off_c, 1, 60, 96
1, 44764, Note_on_c, 1, 51, 96
1, 44765, Note_off_c, 1, 51, 96
1, 44768, Note_on_c, 1, 56, 96
1, 44769, Note_off_c, 1, 56, 96
1, 44888, Note_on_c, 1, 72, 96
1, 44890, Note_off_c, 1, 72, 96
1, 44890, Note_on_c, 1, 51, 96
1, 44891, Note_off_c, 1, 51, 96
1, 44947, Note_on_c, 1, 75, 96
1, 44948, Note_off_c, 1, 75, 96
1, 45007, Note_on_c, 1, 58, 96
1, 45008, Note_off_c, 1, 58, 96
1, 45011, Note_on_c, 1, 70, 96
1, 45013, Note_off_c, 1, 70, 96
1, 45013, Note_on_c, 1, 61, 96
1, 45015, Note_off_c, 1, 61, 96
1, 45015, Note_on_c, 1, 66, 96
1, 45017, Note_off_c, 1, 66, 96
1, 45017, Note_on_c, 1, 54, 96
1, 45018, Note_off_c, 1, 54, 96
1, 45073, Note_on_c, 1, 66, 96
1, 45075, Note_off_c, 1, 66, 96
1, 45075, Note_on_c, 1, 75, 96
1, 45076, Note_off_c, 1, 75, 96
1, 45139, Note_on_c, 1, 51, 96
1, 45139, Note_on_c, 1, 61, 96
1, 45141, Note_off_c, 1, 51, 96
1, 45141, Note_off_c, 1, 61, 96
1, 45141, Note_on_c, 1, 58, 96
1, 45142, Note_off_c, 1, 58, 96
1, 45144, Note_on_c, 1, 55, 96
1, 45145, Note_off_c, 1, 55, 96
1, 45199, Note_on_c, 1, 73, 96
1, 45200, Note_off_c, 1, 73, 96
1, 45204, Note_on_c, 1, 75, 96
1, 45205, Note_off_c, 1, 75, 96
1, 45207, Note_on_c, 1, 67, 96
1, 45208, Note_off_c, 1, 67, 96
1, 45264, Note_on_c, 1, 51, 96
1, 45265, Note_off_c, 1, 51, 96
1, 45267, Note_on_c, 1, 55, 96
1, 45269, Note_off_c, 1, 55, 96
1, 45269, Note_on_c, 1, 61, 96
1, 45270, Note_off_c, 1, 61, 96
1, 45330, Note_on_c, 1, 76, 96
1, 45331, Note_off_c, 1, 76, 96
1, 45333, Note_on_c, 1, 67, 96
1, 45334, Note_off_c, 1, 67, 96
1, 45392, Note_on_c, 1, 39, 96
1, 45393, Note_off_c, 1, 39, 96
1, 45395, Note_on_c, 1, 51, 96
1, 45396, Note_off_c, 1, 51, 96
1, 45457, Note_on_c, 1, 73, 96
1, 45457, Note_on_c, 1, 66, 96
1, 45458, Note_off_c, 1, 73, 96
1, 45458, Note_off_c, 1, 66, 96
1, 45514, Note_on_c, 1, 51, 96
1, 45515, Note_off_c, 1, 51, 96
1, 45519, Note_on_c, 1, 68, 96
1, 45519, Note_on_c, 1, 39, 96
1, 45520, Note_off_c, 1, 68, 96
1, 45520, Note_off_c, 1, 39, 96
1, 45522, Note_on_c, 1, 73, 96
1, 45523, Note_off_c, 1, 73, 96
1, 45577, Note_on_c, 1, 70, 96
1, 45577, Note_on_c, 1, 64, 96
1, 45578, Note_off_c, 1, 70, 96
1, 45578, Note_off_c, 1, 64, 96
1, 45580, Note_on_c, 1, 73, 96
1, 45581, Note_off_c, 1, 73, 96
1, 45585, Note_on_c, 1, 67, 96
1, 45586, Note_off_c, 1, 67, 96
1, 45644, Note_on_c, 1, 56, 96
1, 45645, Note_off_c, 1, 56, 96
1, 45647, Note_on_c, 1, 44, 96
1, 45648, Note_off_c, 1, 44, 96
1, 45707, Note_on_c, 1, 74, 96
1, 45708, Note_off_c, 1, 74, 96
1, 45769, Note_on_c, 1, 74, 96
1, 45769, Note_on_c, 1, 65, 96
1, 45769, Note_on_c, 1, 53, 96
1, 45770, Note_off_c, 1, 74, 96
1, 45770, Note_off_c, 1, 65, 96
1, 45770, Note_off_c, 1, 53, 96
1, 45827, Note_on_c, 1, 65, 96
1, 45828, Note_off_c, 1, 65, 96
1, 45831, Note_on_c, 1, 73, 96
1, 45832, Note_off_c, 1, 73, 96
1, 45890, Note_on_c, 1, 68, 96
1, 45891, Note_off_c, 1, 68, 96
1, 45954, Note_on_c, 1, 73, 96
1, 45957, Note_off_c, 1, 73, 96
1, 45957, Note_on_c, 1, 70, 96
1, 45957, Note_on_c, 1, 67, 96
1, 45958, Note_off_c, 1, 70, 96
1, 45958, Note_off_c, 1, 67, 96
1, 46013, Note_on_c, 1, 56, 96
1, 46014, Note_off_c, 1, 56, 96
1, 46016, Note_on_c, 1, 65, 96
1, 46019, Note_off_c, 1, 65, 96
1, 46019, Note_on_c, 1, 61, 96
1, 46019, Note_on_c, 1, 53, 96
1, 46020, Note_off_c, 1, 61, 96
1, 46020, Note_off_c, 1, 53, 96
1, 46022, Note_on_c, 1, 72, 96
1, 46023, Note_off_c, 1, 72, 96
1, 46081, Note_on_c, 1, 72, 96
1, 46083, Note_off_c, 1, 72, 96
1, 46083, Note_on_c, 1, 80, 96
1, 46085, Note_off_c, 1, 80, 96
1, 46085, Note_on_c, 1, 68, 96
1, 46086, Note_off_c, 1, 68, 96
1, 46141, Note_on_c, 1, 49, 96
1, 46142, Note_off_c, 1, 49, 96
1, 46144, Note_on_c, 1, 61, 96
1, 46145, Note_off_c, 1, 61, 96
1, 46203, Note_on_c, 1, 84, 96
1, 46204, Note_off_c, 1, 84, 96
1, 46208, Note_on_c, 1, 79, 96
1, 46208, Note_on_c, 1, 72, 96
1, 46209, Note_off_c, 1, 79, 96
1, 46209, Note_off_c, 1, 72, 96
1, 46270, Note_on_c, 1, 63, 96
1, 46271, Note_off_c, 1, 63, 96
1, 46273, Note_on_c, 1, 53, 96
1, 46274, Note_off_c, 1, 53, 96
1, 46278, Note_on_c, 1, 56, 96
1, 46280, Note_off_c, 1, 56, 96
1, 46280, Note_on_c, 1, 59, 96
1, 46281, Note_off_c, 1, 59, 96
1, 46396, Note_on_c, 1, 58, 96
1, 46397, Note_off_c, 1, 58, 96
1, 46400, Note_on_c, 1, 65, 96
1, 46402, Note_off_c, 1, 65, 96
1, 46402, Note_on_c, 1, 70, 96
1, 46406, Note_off_c, 1, 70, 96
1, 46406, Note_on_c, 1, 77, 96
1, 46406, Note_on_c, 1, 68, 96
1, 46406, Note_on_c, 1, 60, 96
1, 46407, Note_off_c, 1, 77, 96
1, 46407, Note_off_c, 1, 68, 96
1, 46407, Note_off_c, 1, 60, 96
1, 46524, Note_on_c, 1, 58, 96
1, 46524, Note_on_c, 1, 62, 96
1, 46526, Note_off_c, 1, 58, 96
1, 46526, Note_off_c, 1, 62, 96
1, 46526, Note_on_c, 1, 80, 96
1, 46527, Note_off_c, 1, 80, 96
1, 46529, Note_on_c, 1, 70, 96
1, 46530, Note_off_c, 1, 70, 96
1, 46644, Note_on_c, 1, 79, 96
1, 46645, Note_off_c, 1, 79, 96
1, 46649, Note_on_c, 1, 67, 96
1, 46649, Note_on_c, 1, 56, 96
1, 46652, Note_off_c, 1, 67, 96
1, 46652, Note_off_c, 1, 56, 96
1, 46652, Note_on_c, 1, 75, 96
1, 46652, Note_on_c, 1, 72, 96
1, 46654, Note_off_c, 1, 75, 96
1, 46654, Note_off_c, 1, 72, 96
1, 46654, Note_on_c, 1, 68, 96
1, 46655, Note_off_c, 1, 68, 96
1, 46657, Note_on_c, 1, 44, 96
1, 46658, Note_off_c, 1, 44, 96
1, 46777, Note_on_c, 1, 77, 96
1, 46777, Note_on_c, 1, 68, 96
1, 46777, Note_on_c, 1, 65, 96
1, 46779, Note_off_c, 1, 77, 96
1, 46779, Note_off_c, 1, 68, 96
1, 46779, Note_off_c, 1, 65, 96
1, 46779, Note_on_c, 1, 72, 96
1, 46780, Note_off_c, 1, 72, 96
1, 46783, Note_on_c, 1, 44, 96
1, 46786, Note_off_c, 1, 44, 96
1, 46786, Note_on_c, 1, 75, 96
1, 46786, Note_on_c, 1, 56, 96
1, 46787, Note_off_c, 1, 75, 96
1, 46787, Note_off_c, 1, 56, 96
1, 46884, Note_on_c, 1, 77, 96
1, 46885, Note_off_c, 1, 77, 96
1, 46888, Note_on_c, 1, 56, 96
1, 46891, Note_off_c, 1, 56, 96
1, 46891, Note_on_c, 1, 75, 96
1, 46891, Note_on_c, 1, 44, 96
1, 46892, Note_off_c, 1, 75, 96
1, 46892, Note_off_c, 1, 44, 96
1, 46950, Note_on_c, 1, 84, 96
1, 46952, Note_off_c, 1, 84, 96
1, 46952, Note_on_c, 1, 72, 96
1, 46953, Note_off_c, 1, 72, 96
1, 46993, Note_on_c, 1, 84, 96
1, 46993, Note_on_c, 1, 51, 96
1, 46993, Note_on_c, 1, 39, 96
1, 46994, Note_off_c, 1, 84, 96
1, 46994, Note_off_c, 1, 51, 96
1, 46994, Note_off_c, 1, 39, 96
1, 47049, Note_on_c, 1, 80, 96
1, 47050, Note_off_c, 1, 80, 96
1, 47091, Note_on_c, 1, 83, 96
1, 47091, Note_on_c, 1, 55, 96
1, 47094, Note_off_c, 1, 83, 96
1, 47094, Note_off_c, 1, 55, 96
1, 47094, Note_on_c, 1, 63, 96
1, 47094, Note_on_c, 1, 60, 96
1, 47095, Note_off_c, 1, 63, 96
1, 47095, Note_off_c, 1, 60, 96
1, 47208, Note_on_c, 1, 44, 96
1, 47210, Note_off_c, 1, 44, 96
1, 47210, Note_on_c, 1, 68, 96
1, 47212, Note_off_c, 1, 68, 96
1, 47212, Note_on_c, 1, 56, 96
1, 47214, Note_off_c, 1, 56, 96
1, 47214, Note_on_c, 1, 80, 96
1, 47215, Note_off_c, 1, 80, 96
1, 47219, Note_on_c, 1, 72, 96
1, 47220, Note_off_c, 1, 72, 96
1, 47258, Note_on_c, 1, 57, 96
1, 47259, Note_off_c, 1, 57, 96
1, 47312, Note_on_c, 1, 76, 96
1, 47314, Note_off_c, 1, 76, 96
1, 47314, Note_on_c, 1, 76, 96
1, 47315, Note_off_c, 1, 76, 96
1, 47317, Note_on_c, 1, 64, 96
1, 47318, Note_off_c, 1, 64, 96
1, 47357, Note_on_c, 1, 43, 96
1, 47359, Note_off_c, 1, 43, 96
1, 47359, Note_on_c, 1, 55, 96
1, 47360, Note_off_c, 1, 55, 96
1, 47419, Note_on_c, 1, 75, 96
1, 47420, Note_off_c, 1, 75, 96
1, 47458, Note_on_c, 1, 76, 96
1, 47458, Note_on_c, 1, 72, 96
1, 47458, Note_on_c, 1, 69, 96
1, 47458, Note_on_c, 1, 58, 96
1, 47460, Note_off_c, 1, 76, 96
1, 47460, Note_off_c, 1, 72, 96
1, 47460, Note_off_c, 1, 69, 96
1, 47460, Note_off_c, 1, 58, 96
1, 47460, Note_on_c, 1, 64, 96
1, 47463, Note_off_c, 1, 64, 96
1, 47463, Note_on_c, 1, 60, 96
1, 47463, Note_on_c, 1, 52, 96
1, 47464, Note_off_c, 1, 60, 96
1, 47464, Note_off_c, 1, 52, 96
1, 47522, Note_on_c, 1, 55, 96
1, 47524, Note_off_c, 1, 55, 96
1, 47524, Note_on_c, 1, 43, 96
1, 47525, Note_off_c, 1, 43, 96
1, 47583, Note_on_c, 1, 77, 96
1, 47584, Note_off_c, 1, 77, 96
1, 47625, Note_on_c, 1, 70, 96
1, 47627, Note_off_c, 1, 70, 96
1, 47627, Note_on_c, 1, 62, 96
1, 47630, Note_off_c, 1, 62, 96
1, 47630, Note_on_c, 1, 74, 96
1, 47630, Note_on_c, 1, 53, 96
1, 47632, Note_off_c, 1, 74, 96
1, 47632, Note_off_c, 1, 53, 96
1, 47632, Note_on_c, 1, 58, 96
1, 47633, Note_off_c, 1, 58, 96
1, 47689, Note_on_c, 1, 74, 96
1, 47690, Note_off_c, 1, 74, 96
1, 47729, Note_on_c, 1, 77, 96
1, 47729, Note_on_c, 1, 53, 96
1, 47733, Note_off_c, 1, 77, 96
1, 47733, Note_off_c, 1, 53, 96
1, 47733, Note_on_c, 1, 70, 96
1, 47733, Note_on_c, 1, 62, 96
1, 47733, Note_on_c, 1, 58, 96
1, 47734, Note_off_c, 1, 70, 96
1, 47734, Note_off_c, 1, 62, 96
1, 47734, Note_off_c, 1, 58, 96
1, 47757, Note_on_c, 1, 76, 96
1, 47758, Note_off_c, 1, 76, 96
1, 47784, Note_on_c, 1, 74, 96
1, 47784, Note_on_c, 1, 67, 96
1, 47784, Note_on_c, 1, 41, 96
1, 47784, Note_on_c, 1, 53, 96
1, 47786, Note_off_c, 1, 74, 96
1, 47786, Note_off_c, 1, 67, 96
1, 47786, Note_off_c, 1, 41, 96
1, 47786, Note_off_c, 1, 53, 96
1, 47786, Note_on_c, 1, 34, 96
1, 47787, Note_off_c, 1, 34, 96
1, 47841, Note_on_c, 1, 65, 96
1, 47842, Note_off_c, 1, 65, 96
1, 47880, Note_on_c, 1, 65, 96
1, 47880, Note_on_c, 1, 62, 96
1, 47881, Note_off_c, 1, 65, 96
1, 47881, Note_off_c, 1, 62, 96
1, 47884, Note_on_c, 1, 56, 96
1, 47884, Note_on_c, 1, 58, 96
1, 47885, Note_off_c, 1, 56, 96
1, 47885, Note_off_c, 1, 58, 96
1, 48002, Note_on_c, 1, 60, 96
1, 48004, Note_off_c, 1, 60, 96
1, 48004, Note_on_c, 1, 48, 96
1, 48007, Note_off_c, 1, 48, 96
1, 48007, Note_on_c, 1, 72, 96
1, 48007, Note_on_c, 1, 51, 96
1, 48008, Note_off_c, 1, 72, 96
1, 48008, Note_off_c, 1, 51, 96
1, 48010, Note_on_c, 1, 68, 96
1, 48012, Note_off_c, 1, 68, 96
1, 48012, Note_on_c, 1, 60, 96
1, 48013, Note_off_c, 1, 60, 96
1, 48068, Note_on_c, 1, 61, 96
1, 48068, Note_on_c, 1, 55, 96
1, 48071, Note_off_c, 1, 61, 96
1, 48071, Note_off_c, 1, 55, 96
1, 48071, Note_on_c, 1, 70, 96
1, 48071, Note_on_c, 1, 51, 96
1, 48074, Note_off_c, 1, 70, 96
1, 48074, Note_off_c, 1, 51, 96
1, 48074, Note_on_c, 1, 73, 96
1, 48074, Note_on_c, 1, 58, 96
1, 48075, Note_off_c, 1, 73, 96
1, 48075, Note_off_c, 1, 58, 96
1, 48130, Note_on_c, 1, 63, 96
1, 48132, Note_off_c, 1, 63, 96
1, 48132, Note_on_c, 1, 54, 96
1, 48133, Note_off_c, 1, 54, 96
1, 48173, Note_on_c, 1, 58, 96
1, 48176, Note_off_c, 1, 58, 96
1, 48176, Note_on_c, 1, 73, 96
1, 48176, Note_on_c, 1, 54, 96
1, 48177, Note_off_c, 1, 73, 96
1, 48177, Note_off_c, 1, 54, 96
1, 48293, Note_on_c, 1, 61, 96
1, 48295, Note_off_c, 1, 61, 96
1, 48295, Note_on_c, 1, 55, 96
1, 48296, Note_off_c, 1, 55, 96
1, 48298, Note_on_c, 1, 51, 96
1, 48301, Note_off_c, 1, 51, 96
1, 48301, Note_on_c, 1, 51, 96
1, 48301, Note_on_c, 1, 58, 96
1, 48303, Note_off_c, 1, 51, 96
1, 48303, Note_off_c, 1, 58, 96
1, 48303, Note_on_c, 1, 51, 96
1, 48304, Note_off_c, 1, 51, 96
1, 48362, Note_on_c, 1, 59, 96
1, 48366, Note_off_c, 1, 59, 96
1, 48366, Note_on_c, 1, 75, 96
1, 48366, Note_on_c, 1, 68, 96
1, 48366, Note_on_c, 1, 47, 96
1, 48367, Note_off_c, 1, 75, 96
1, 48367, Note_off_c, 1, 68, 96
1, 48367, Note_off_c, 1, 47, 96
1, 48426, Note_on_c, 1, 48, 96
1, 48429, Note_off_c, 1, 48, 96
1, 48429, Note_on_c, 1, 60, 96
1, 48429, Note_on_c, 1, 36, 96
1, 48430, Note_off_c, 1, 60, 96
1, 48430, Note_off_c, 1, 36, 96
1, 48488, Note_on_c, 1, 68, 96
1, 48488, Note_on_c, 1, 59, 96
1, 48489, Note_off_c, 1, 68, 96
1, 48489, Note_off_c, 1, 59, 96
1, 48491, Note_on_c, 1, 47, 96
1, 48492, Note_off_c, 1, 47, 96
1, 48547, Note_on_c, 1, 76, 96
1, 48549, Note_off_c, 1, 76, 96
1, 48549, Note_on_c, 1, 48, 96
1, 48550, Note_off_c, 1, 48, 96
1, 48552, Note_on_c, 1, 36, 96
1, 48554, Note_off_c, 1, 36, 96
1, 48554, Note_on_c, 1, 72, 96
1, 48555, Note_off_c, 1, 72, 96
1, 48670, Note_on_c, 1, 72, 96
1, 48671, Note_off_c, 1, 72, 96
1, 48673, Note_on_c, 1, 84, 96
1, 48674, Note_off_c, 1, 84, 96
1, 48677, Note_on_c, 1, 76, 96
1, 48677, Note_on_c, 1, 48, 96
1, 48679, Note_off_c, 1, 76, 96
1, 48679, Note_off_c, 1, 48, 96
1, 48679, Note_on_c, 1, 36, 96
1, 48680, Note_off_c, 1, 36, 96
1, 48737, Note_on_c, 1, 72, 96
1, 48738, Note_off_c, 1, 72, 96
1, 48741, Note_on_c, 1, 81, 96
1, 48741, Note_on_c, 1, 69, 96
1, 48742, Note_off_c, 1, 81, 96
1, 48742, Note_off_c, 1, 69, 96
1, 48797, Note_on_c, 1, 37, 96
1, 48799, Note_off_c, 1, 37, 96
1, 48799, Note_on_c, 1, 58, 96
1, 48800, Note_off_c, 1, 58, 96
1, 48805, Note_on_c, 1, 49, 96
1, 48806, Note_off_c, 1, 49, 96
1, 48865, Note_on_c, 1, 76, 96
1, 48865, Note_on_c, 1, 73, 96
1, 48865, Note_on_c, 1, 67, 96
1, 48866, Note_off_c, 1, 76, 96
1, 48866, Note_off_c, 1, 73, 96
1, 48866, Note_off_c, 1, 67, 96
1, 48907, Note_on_c, 1, 66, 96
1, 48911, Note_off_c, 1, 66, 96
1, 48911, Note_on_c, 1, 73, 96
1, 48911, Note_on_c, 1, 61, 96
1, 48911, Note_on_c, 1, 58, 96
1, 48912, Note_off_c, 1, 73, 96
1, 48912, Note_off_c, 1, 61, 96
1, 48912, Note_off_c, 1, 58, 96
1, 48915, Note_on_c, 1, 79, 96
1, 48915, Note_on_c, 1, 51, 96
1, 48916, Note_off_c, 1, 79, 96
1, 48916, Note_off_c, 1, 51, 96
1, 48991, Note_on_c, 1, 75, 96
1, 48992, Note_off_c, 1, 75, 96
1, 49037, Note_on_c, 1, 77, 96
1, 49037, Note_on_c, 1, 60, 96
1, 49039, Note_off_c, 1, 77, 96
1, 49039, Note_off_c, 1, 60, 96
1, 49039, Note_on_c, 1, 65, 96
1, 49042, Note_off_c, 1, 65, 96
1, 49042, Note_on_c, 1, 51, 96
1, 49042, Note_on_c, 1, 39, 96
1, 49043, Note_off_c, 1, 51, 96
1, 49043, Note_off_c, 1, 39, 96
1, 49098, Note_on_c, 1, 75, 96
1, 49100, Note_off_c, 1, 75, 96
1, 49100, Note_on_c, 1, 72, 96
1, 49102, Note_off_c, 1, 72, 96
1, 49102, Note_on_c, 1, 78, 96
1, 49104, Note_off_c, 1, 78, 96
1, 49104, Note_on_c, 1, 68, 96
1, 49105, Note_off_c, 1, 68, 96
1, 49143, Note_on_c, 1, 42, 96
1, 49144, Note_off_c, 1, 42, 96
1, 49201, Note_on_c, 1, 73, 96
1, 49202, Note_off_c, 1, 73, 96
1, 49239, Note_on_c, 1, 72, 96
1, 49240, Note_off_c, 1, 72, 96
1, 49243, Note_on_c, 1, 51, 96
1, 49245, Note_off_c, 1, 51, 96
1, 49245, Note_on_c, 1, 61, 96
1, 49247, Note_off_c, 1, 61, 96
1, 49247, Note_on_c, 1, 58, 96
1, 49248, Note_off_c, 1, 58, 96
1, 49301, Note_on_c, 1, 70, 96
1, 49302, Note_off_c, 1, 70, 96
1, 49342, Note_on_c, 1, 67, 96
1, 49343, Note_off_c, 1, 67, 96
1, 49367, Note_on_c, 1, 67, 96
1, 49369, Note_off_c, 1, 67, 96
1, 49369, Note_on_c, 1, 39, 96
1, 49371, Note_off_c, 1, 39, 96
1, 49371, Note_on_c, 1, 61, 96
1, 49372, Note_off_c, 1, 61, 96
1, 49488, Note_on_c, 1, 75, 96
1, 49489, Note_off_c, 1, 75, 96
1, 49491, Note_on_c, 1, 61, 96
1, 49492, Note_off_c, 1, 61, 96
1, 49550, Note_on_c, 1, 56, 96
1, 49552, Note_off_c, 1, 56, 96
1, 49552, Note_on_c, 1, 58, 96
1, 49554, Note_off_c, 1, 58, 96
1, 49554, Note_on_c, 1, 49, 96
1, 49557, Note_off_c, 1, 49, 96
1, 49557, Note_on_c, 1, 73, 96
1, 49557, Note_on_c, 1, 65, 96
1, 49558, Note_off_c, 1, 73, 96
1, 49558, Note_off_c, 1, 65, 96
1, 49614, Note_on_c, 1, 65, 96
1, 49615, Note_off_c, 1, 65, 96
1, 49658, Note_on_c, 1, 73, 96
1, 49658, Note_on_c, 1, 42, 96
1, 49659, Note_off_c, 1, 73, 96
1, 49659, Note_off_c, 1, 42, 96
1, 49662, Note_on_c, 1, 77, 96
1, 49662, Note_on_c, 1, 53, 96
1, 49664, Note_off_c, 1, 77, 96
1, 49664, Note_off_c, 1, 53, 96
1, 49664, Note_on_c, 1, 68, 96
1, 49665, Note_off_c, 1, 68, 96
1, 49721, Note_on_c, 1, 73, 96
1, 49722, Note_off_c, 1, 73, 96
1, 49764, Note_on_c, 1, 73, 96
1, 49764, Note_on_c, 1, 49, 96
1, 49764, Note_on_c, 1, 61, 96
1, 49765, Note_off_c, 1, 73, 96
1, 49765, Note_off_c, 1, 49, 96
1, 49765, Note_off_c, 1, 61, 96
1, 49820, Note_on_c, 1, 71, 96
1, 49821, Note_off_c, 1, 71, 96
1, 49862, Note_on_c, 1, 48, 96
1, 49862, Note_on_c, 1, 36, 96
1, 49863, Note_off_c, 1, 48, 96
1, 49863, Note_off_c, 1, 36, 96
1, 49919, Note_on_c, 1, 71, 96
1, 49920, Note_off_c, 1, 71, 96
1, 49962, Note_on_c, 1, 67, 96
1, 49962, Note_on_c, 1, 58, 96
1, 49962, Note_on_c, 1, 51, 96
1, 49963, Note_off_c, 1, 67, 96
1, 49963, Note_off_c, 1, 58, 96
1, 49963, Note_off_c, 1, 51, 96
1, 49966, Note_on_c, 1, 75, 96
1, 49966, Note_on_c, 1, 39, 96
1, 49967, Note_off_c, 1, 75, 96
1, 49967, Note_off_c, 1, 39, 96
1, 50020, Note_on_c, 1, 71, 96
1, 50021, Note_off_c, 1, 71, 96
1, 50025, Note_on_c, 1, 68, 96
1, 50026, Note_off_c, 1, 68, 96
1, 50065, Note_on_c, 1, 53, 96
1, 50065, Note_on_c, 1, 41, 96
1, 50066, Note_off_c, 1, 53, 96
1, 50066, Note_off_c, 1, 41, 96
1, 50188, Note_on_c, 1, 45, 96
1, 50189, Note_off_c, 1, 45, 96
1, 50250, Note_on_c, 1, 54, 96
1, 50250, Note_on_c, 1, 42, 96
1, 50251, Note_off_c, 1, 54, 96
1, 50251, Note_off_c, 1, 42, 96
1, 50291, Note_on_c, 1, 48, 96
1, 50291, Note_on_c, 1, 60, 96
1, 50292, Note_off_c, 1, 48, 96
1, 50292, Note_off_c, 1, 60, 96
1, 50380, Note_on_c, 1, 68, 96
1, 50381, Note_off_c, 1, 68, 96
1, 50409, Note_on_c, 1, 56, 96
1, 50410, Note_off_c, 1, 56, 96
1, 50417, Note_on_c, 1, 44, 96
1, 50418, Note_off_c, 1, 44, 96
1, 50469, Note_on_c, 1, 68, 96
1, 50470, Note_off_c, 1, 68, 96
1, 50489, Note_on_c, 1, 65, 96
1, 50490, Note_off_c, 1, 65, 96
1, 50513, Note_on_c, 1, 69, 96
1, 50513, Note_on_c, 1, 53, 96
1, 50513, Note_on_c, 1, 41, 96
1, 50514, Note_off_c, 1, 69, 96
1, 50514, Note_off_c, 1, 53, 96
1, 50514, Note_off_c, 1, 41, 96
1, 50571, Note_on_c, 1, 67, 96
1, 50572, Note_off_c, 1, 67, 96
1, 50611, Note_on_c, 1, 41, 96
1, 50614, Note_off_c, 1, 41, 96
1, 50614, Note_on_c, 1, 69, 96
1, 50614, Note_on_c, 1, 77, 96
1, 50615, Note_off_c, 1, 69, 96
1, 50615, Note_off_c, 1, 77, 96
1, 50671, Note_on_c, 1, 83, 96
1, 50672, Note_off_c, 1, 83, 96
1, 50674, Note_on_c, 1, 71, 96
1, 50675, Note_off_c, 1, 71, 96
1, 50714, Note_on_c, 1, 86, 96
1, 50714, Note_on_c, 1, 50, 96
1, 50717, Note_off_c, 1, 86, 96
1, 50717, Note_off_c, 1, 50, 96
1, 50717, Note_on_c, 1, 73, 96
1, 50717, Note_on_c, 1, 77, 96
1, 50718, Note_off_c, 1, 73, 96
1, 50718, Note_off_c, 1, 77, 96
1, 50772, Note_on_c, 1, 79, 96
1, 50773, Note_off_c, 1, 79, 96
1, 50776, Note_on_c, 1, 85, 96
1, 50776, Note_on_c, 1, 82, 96
1, 50777, Note_off_c, 1, 85, 96
1, 50777, Note_off_c, 1, 82, 96
1, 50822, Note_on_c, 1, 77, 96
1, 50822, Note_on_c, 1, 85, 96
1, 50822, Note_on_c, 1, 61, 96
1, 50822, Note_on_c, 1, 51, 96
1, 50822, Note_on_c, 1, 55, 96
1, 50822, Note_on_c, 1, 80, 96
1, 50824, Note_off_c, 1, 77, 96
1, 50824, Note_off_c, 1, 85, 96
1, 50824, Note_off_c, 1, 61, 96
1, 50824, Note_off_c, 1, 51, 96
1, 50824, Note_off_c, 1, 55, 96
1, 50824, Note_off_c, 1, 80, 96
1, 50824, Note_on_c, 1, 55, 96
1, 50825, Note_off_c, 1, 55, 96
1, 50879, Note_on_c, 1, 77, 96
1, 50883, Note_off_c, 1, 77, 96
1, 50883, Note_on_c, 1, 84, 96
1, 50883, Note_on_c, 1, 89, 96
1, 50883, Note_on_c, 1, 78, 96
1, 50885, Note_off_c, 1, 84, 96
1, 50885, Note_off_c, 1, 89, 96
1, 50885, Note_off_c, 1, 78, 96
1, 50885, Note_on_c, 1, 84, 96
1, 50886, Note_off_c, 1, 84, 96
1, 50924, Note_on_c, 1, 49, 96
1, 50925, Note_off_c, 1, 49, 96
1, 50927, Note_on_c, 1, 37, 96
1, 50928, Note_off_c, 1, 37, 96
1, 50970, Note_on_c, 1, 37, 96
1, 50970, Note_on_c, 1, 49, 96
1, 50971, Note_off_c, 1, 37, 96
1, 50971, Note_off_c, 1, 49, 96
1, 51030, Note_on_c, 1, 80, 96
1, 51030, Note_on_c, 1, 56, 96
1, 51033, Note_off_c, 1, 80, 96
1, 51033, Note_off_c, 1, 56, 96
1, 51033, Note_on_c, 1, 80, 96
1, 51033, Note_on_c, 1, 44, 96
1, 51034, Note_off_c, 1, 80, 96
1, 51034, Note_off_c, 1, 44, 96
1, 51039, Note_on_c, 1, 92, 96
1, 51039, Note_on_c, 1, 84, 96
1, 51039, Note_on_c, 1, 72, 96
1, 51039, Note_on_c, 1, 84, 96
1, 51040, Note_off_c, 1, 92, 96
1, 51040, Note_off_c, 1, 84, 96
1, 51040, Note_off_c, 1, 72, 96
1, 51040, Note_off_c, 1, 84, 96
1, 51093, Note_on_c, 1, 74, 96
1, 51094, Note_off_c, 1, 74, 96
1, 51134, Note_on_c, 1, 75, 96
1, 51138, Note_off_c, 1, 75, 96
1, 51138, Note_on_c, 1, 79, 96
1, 51138, Note_on_c, 1, 39, 96
1, 51138, Note_on_c, 1, 51, 96
1, 51139, Note_off_c, 1, 79, 96
1, 51139, Note_off_c, 1, 39, 96
1, 51139, Note_off_c, 1, 51, 96
1, 51194, Note_on_c, 1, 84, 96
1, 51194, Note_on_c, 1, 72, 96
1, 51198, Note_off_c, 1, 84, 96
1, 51198, Note_off_c, 1, 72, 96
1, 51198, Note_on_c, 1, 80, 96
1, 51198, Note_on_c, 1, 44, 96
1, 51198, Note_on_c, 1, 32, 96
1, 51199, Note_off_c, 1, 80, 96
1, 51199, Note_off_c, 1, 44, 96
1, 51199, Note_off_c, 1, 32, 96
1, 51202, Note_on_c, 1, 80, 96
1, 51202, Note_on_c, 1, 56, 96
1, 51203, Note_off_c, 1, 80, 96
1, 51203, Note_off_c, 1, 56, 96
1, 51325, Note_on_c, 1, 87, 96
1, 51325, Note_on_c, 1, 84, 96
1, 51325, Note_on_c, 1, 60, 96
1, 51325, Note_on_c, 1, 56, 96
1, 51328, Note_off_c, 1, 87, 96
1, 51328, Note_off_c, 1, 84, 96
1, 51328, Note_off_c, 1, 60, 96
1, 51328, Note_off_c, 1, 56, 96
1, 51328, Note_on_c, 1, 75, 96
1, 51328, Note_on_c, 1, 84, 96
1, 51329, Note_off_c, 1, 75, 96
1, 51329, Note_off_c, 1, 84, 96
1, 51331, Note_on_c, 1, 80, 96
1, 51332, Note_off_c, 1, 80, 96
1, 51427, Note_on_c, 1, 78, 96
1, 51427, Note_on_c, 1, 66, 96
1, 51428, Note_off_c, 1, 78, 96
1, 51428, Note_off_c, 1, 66, 96
1, 51430, Note_on_c, 1, 60, 96
1, 51433, Note_off_c, 1, 60, 96
1, 51433, Note_on_c, 1, 87, 96
1, 51433, Note_on_c, 1, 56, 96
1, 51434, Note_off_c, 1, 87, 96
1, 51434, Note_off_c, 1, 56, 96
1, 51488, Note_on_c, 1, 84, 96
1, 51489, Note_off_c, 1, 84, 96
1, 51491, Note_on_c, 1, 80, 96
1, 51493, Note_off_c, 1, 80, 96
1, 51493, Note_on_c, 1, 92, 96
1, 51494, Note_off_c, 1, 92, 96
1, 51533, Note_on_c, 1, 56, 96
1, 51533, Note_on_c, 1, 68, 96
1, 51535, Note_off_c, 1, 56, 96
1, 51535, Note_off_c, 1, 68, 96
1, 51535, Note_on_c, 1, 75, 96
1, 51536, Note_off_c, 1, 75, 96
1, 51540, Note_on_c, 1, 78, 96
1, 51540, Note_on_c, 1, 63, 96
1, 51540, Note_on_c, 1, 66, 96
1, 51541, Note_off_c, 1, 78, 96
1, 51541, Note_off_c, 1, 63, 96
1, 51541, Note_off_c, 1, 66, 96
1, 51594, Note_on_c, 1, 88, 96
1, 51595, Note_off_c, 1, 88, 96
1, 51597, Note_on_c, 1, 85, 96
1, 51599, Note_off_c, 1, 85, 96
1, 51599, Note_on_c, 1, 76, 96
1, 51600, Note_off_c, 1, 76, 96
1, 51641, Note_on_c, 1, 63, 96
1, 51641, Note_on_c, 1, 51, 96
1, 51641, Note_on_c, 1, 90, 96
1, 51641, Note_on_c, 1, 36, 96
1, 51643, Note_off_c, 1, 63, 96
1, 51643, Note_off_c, 1, 51, 96
1, 51643, Note_off_c, 1, 90, 96
1, 51643, Note_off_c, 1, 36, 96
1, 51643, Note_on_c, 1, 78, 96
1, 51646, Note_off_c, 1, 78, 96
1, 51646, Note_on_c, 1, 60, 96
1, 51646, Note_on_c, 1, 56, 96
1, 51647, Note_off_c, 1, 60, 96
1, 51647, Note_off_c, 1, 56, 96
1, 51649, Note_on_c, 1, 56, 96
1, 51650, Note_off_c, 1, 56, 96
1, 51688, Note_on_c, 1, 77, 96
1, 51690, Note_off_c, 1, 77, 96
1, 51690, Note_on_c, 1, 68, 96
1, 51691, Note_off_c, 1, 68, 96
1, 51731, Note_on_c, 1, 44, 96
1, 51733, Note_off_c, 1, 44, 96
1, 51733, Note_on_c, 1, 56, 96
1, 51734, Note_off_c, 1, 56, 96
1, 51788, Note_on_c, 1, 77, 96
1, 51790, Note_off_c, 1, 77, 96
1, 51790, Note_on_c, 1, 87, 96
1, 51791, Note_off_c, 1, 87, 96
1, 51834, Note_on_c, 1, 85, 96
1, 51834, Note_on_c, 1, 89, 96
1, 51834, Note_on_c, 1, 82, 96
1, 51834, Note_on_c, 1, 61, 96
1, 51835, Note_off_c, 1, 85, 96
1, 51835, Note_off_c, 1, 89, 96
1, 51835, Note_off_c, 1, 82, 96
1, 51835, Note_off_c, 1, 61, 96
1, 51837, Note_on_c, 1, 49, 96
1, 51838, Note_off_c, 1, 49, 96
1, 51929, Note_on_c, 1, 27, 96
1, 51930, Note_off_c, 1, 27, 96
1, 51962, Note_on_c, 1, 87, 96
1, 51964, Note_off_c, 1, 87, 96
1, 51964, Note_on_c, 1, 85, 96
1, 51965, Note_off_c, 1, 85, 96
1, 51969, Note_on_c, 1, 39, 96
1, 51969, Note_on_c, 1, 51, 96
1, 51970, Note_off_c, 1, 39, 96
1, 51970, Note_off_c, 1, 51, 96
1, 51990, Note_on_c, 1, 92, 96
1, 51990, Note_on_c, 1, 80, 96
1, 51991, Note_off_c, 1, 92, 96
1, 51991, Note_off_c, 1, 80, 96
1, 52000, Note_on_c, 1, 97, 96
1, 52001, Note_off_c, 1, 97, 96
1, 52013, Note_on_c, 1, 87, 96
1, 52015, Note_off_c, 1, 87, 96
1, 52015, Note_on_c, 1, 77, 96
1, 52016, Note_off_c, 1, 77, 96
1, 52018, Note_on_c, 1, 51, 96
1, 52019, Note_off_c, 1, 51, 96
1, 52092, Note_on_c, 1, 44, 96
1, 52093, Note_off_c, 1, 44, 96
1, 52152, Note_on_c, 1, 87, 96
1, 52153, Note_off_c, 1, 87, 96
1, 52266, Note_on_c, 1, 96, 96
1, 52268, Note_off_c, 1, 96, 96
1, 52268, Note_on_c, 1, 48, 96
1, 52269, Note_off_c, 1, 48, 96
1, 52274, Note_on_c, 1, 84, 96
1, 52274, Note_on_c, 1, 60, 96
1, 52274, Note_on_c, 1, 77, 96
1, 52276, Note_off_c, 1, 84, 96
1, 52276, Note_off_c, 1, 60, 96
1, 52276, Note_off_c, 1, 77, 96
1, 52276, Note_on_c, 1, 80, 96
1, 52277, Note_off_c, 1, 80, 96
1, 52285, Note_on_c, 1, 84, 96
1, 52286, Note_off_c, 1, 84, 96
1, 52289, Note_on_c, 1, 75, 96
1, 52290, Note_off_c, 1, 75, 96
1, 52298, Note_on_c, 1, 94, 96
1, 52299, Note_off_c, 1, 94, 96
1, 52371, Note_on_c, 1, 68, 96
1, 52372, Note_off_c, 1, 68, 96
1, 52376, Note_on_c, 1, 60, 96
1, 52377, Note_off_c, 1, 60, 96
1, 52379, Note_on_c, 1, 51, 96
1, 52380, Note_off_c, 1, 51, 96
1, 52648, Note_on_c, 1, 49, 96
1, 52650, Note_off_c, 1, 49, 96
1, 52650, Note_on_c, 1, 37, 96
1, 52651, Note_off_c, 1, 37, 96
1, 52669, Note_on_c, 1, 37, 96
1, 52671, Note_off_c, 1, 37, 96
1, 52671, Note_on_c, 1, 61, 96
1, 52672, Note_off_c, 1, 61, 96
1, 52714, Note_on_c, 1, 61, 96
1, 52714, Note_on_c, 1, 66, 96
1, 52714, Note_on_c, 1, 65, 96
1, 52715, Note_off_c, 1, 61, 96
1, 52715, Note_off_c, 1, 66, 96
1, 52715, Note_off_c, 1, 65, 96
1, 52837, Note_on_c, 1, 53, 96
1, 52837, Note_on_c, 1, 41, 96
1, 52838, Note_off_c, 1, 53, 96
1, 52838, Note_off_c, 1, 41, 96
1, 52909, Note_on_c, 1, 58, 96
1, 52909, Note_on_c, 1, 51, 96
1, 52910, Note_off_c, 1, 58, 96
1, 52910, Note_off_c, 1, 51, 96
1, 52913, Note_on_c, 1, 55, 96
1, 52913, Note_on_c, 1, 61, 96
1, 52914, Note_off_c, 1, 55, 96
1, 52914, Note_off_c, 1, 61, 96
1, 52973, Note_on_c, 1, 39, 96
1, 52973, Note_on_c, 1, 51, 96
1, 52974, Note_off_c, 1, 39, 96
1, 52974, Note_off_c, 1, 51, 96
1, 53000, Note_on_c, 1, 53, 96
1, 53001, Note_off_c, 1, 53, 96
1, 53024, Note_on_c, 1, 58, 96
1, 53024, Note_on_c, 1, 46, 96
1, 53025, Note_off_c, 1, 58, 96
1, 53025, Note_off_c, 1, 46, 96
1, 53081, Note_on_c, 1, 74, 96
1, 53082, Note_off_c, 1, 74, 96
1, 53121, Note_on_c, 1, 48, 96
1, 53122, Note_off_c, 1, 48, 96
1, 53125, Note_on_c, 1, 77, 96
1, 53125, Note_on_c, 1, 68, 96
1, 53127, Note_off_c, 1, 77, 96
1, 53127, Note_off_c, 1, 68, 96
1, 53127, Note_on_c, 1, 73, 96
1, 53128, Note_off_c, 1, 73, 96
1, 53184, Note_on_c, 1, 65, 96
1, 53184, Note_on_c, 1, 73, 96
1, 53186, Note_off_c, 1, 65, 96
1, 53186, Note_off_c, 1, 73, 96
1, 53186, Note_on_c, 1, 75, 96
1, 53188, Note_off_c, 1, 75, 96
1, 53188, Note_on_c, 1, 68, 96
1, 53189, Note_off_c, 1, 68, 96
1, 53230, Note_on_c, 1, 56, 96
1, 53230, Note_on_c, 1, 61, 96
1, 53231, Note_off_c, 1, 56, 96
1, 53231, Note_off_c, 1, 61, 96
1, 53234, Note_on_c, 1, 73, 96
1, 53234, Note_on_c, 1, 73, 96
1, 53235, Note_off_c, 1, 73, 96
1, 53235, Note_off_c, 1, 73, 96
1, 53292, Note_on_c, 1, 73, 96
1, 53294, Note_off_c, 1, 73, 96
1, 53294, Note_on_c, 1, 63, 96
1, 53295, Note_off_c, 1, 63, 96
1, 53298, Note_on_c, 1, 61, 96
1, 53298, Note_on_c, 1, 51, 96
1, 53299, Note_off_c, 1, 61, 96
1, 53299, Note_off_c, 1, 51, 96
1, 53355, Note_on_c, 1, 63, 96
1, 53355, Note_on_c, 1, 66, 96
1, 53356, Note_off_c, 1, 63, 96
1, 53356, Note_off_c, 1, 66, 96
1, 53399, Note_on_c, 1, 56, 96
1, 53399, Note_on_c, 1, 65, 96
1, 53401, Note_off_c, 1, 56, 96
1, 53401, Note_off_c, 1, 65, 96
1, 53401, Note_on_c, 1, 68, 96
1, 53404, Note_off_c, 1, 68, 96
1, 53404, Note_on_c, 1, 73, 96
1, 53404, Note_on_c, 1, 61, 96
1, 53405, Note_off_c, 1, 73, 96
1, 53405, Note_off_c, 1, 61, 96
1, 53499, Note_on_c, 1, 71, 96
1, 53500, Note_off_c, 1, 71, 96
1, 53502, Note_on_c, 1, 62, 96
1, 53504, Note_off_c, 1, 62, 96
1, 53504, Note_on_c, 1, 55, 96
1, 53505, Note_off_c, 1, 55, 96
1, 53600, Note_on_c, 1, 59, 96
1, 53602, Note_off_c, 1, 59, 96
1, 53602, Note_on_c, 1, 65, 96
1, 53604, Note_off_c, 1, 65, 96
1, 53604, Note_on_c, 1, 62, 96
1, 53605, Note_off_c, 1, 62, 96
1, 53773, Note_on_c, 1, 63, 96
1, 53773, Note_on_c, 1, 56, 96
1, 53774, Note_off_c, 1, 63, 96
1, 53774, Note_off_c, 1, 56, 96
1, 53899, Note_on_c, 1, 51, 96
1, 53901, Note_off_c, 1, 51, 96
1, 53901, Note_on_c, 1, 63, 96
1, 53905, Note_off_c, 1, 63, 96
1, 53905, Note_on_c, 1, 70, 96
1, 53905, Note_on_c, 1, 60, 96
1, 53905, Note_on_c, 1, 58, 96
1, 53906, Note_off_c, 1, 70, 96
1, 53906, Note_off_c, 1, 60, 96
1, 53906, Note_off_c, 1, 58, 96
1, 54027, Note_on_c, 1, 72, 96
1, 54028, Note_off_c, 1, 72, 96
1, 54143, Note_on_c, 1, 44, 96
1, 54144, Note_off_c, 1, 44, 96
1, 54151, Note_on_c, 1, 32, 96
1, 54151, Note_on_c, 1, 63, 96
1, 54152, Note_off_c, 1, 32, 96
1, 54152, Note_off_c, 1, 63, 96
1, 54208, Note_on_c, 1, 53, 96
1, 54209, Note_off_c, 1, 53, 96
1, 54213, Note_on_c, 1, 58, 96
1, 54213, Note_on_c, 1, 60, 96
1, 54214, Note_off_c, 1, 58, 96
1, 54214, Note_off_c, 1, 60, 96
1, 54273, Note_on_c, 1, 66, 96
1, 54274, Note_off_c, 1, 66, 96
1, 54313, Note_on_c, 1, 66, 96
1, 54313, Note_on_c, 1, 51, 96
1, 54313, Note_on_c, 1, 55, 96
1, 54314, Note_off_c, 1, 66, 96
1, 54314, Note_off_c, 1, 51, 96
1, 54314, Note_off_c, 1, 55, 96
1, 54316, Note_on_c, 1, 61, 96
1, 54318, Note_off_c, 1, 61, 96
1, 54318, Note_on_c, 1, 67, 96
1, 54319, Note_off_c, 1, 67, 96
1, 54375, Note_on_c, 1, 66, 96
1, 54376, Note_off_c, 1, 66, 96
1, 54404, Note_on_c, 1, 58, 96
1, 54405, Note_off_c, 1, 58, 96
1, 54408, Note_on_c, 1, 51, 96
1, 54408, Note_on_c, 1, 39, 96
1, 54409, Note_off_c, 1, 51, 96
1, 54409, Note_off_c, 1, 39, 96
1, 54466, Note_on_c, 1, 59, 96
1, 54468, Note_off_c, 1, 59, 96
1, 54468, Note_on_c, 1, 49, 96
1, 54469, Note_off_c, 1, 49, 96
1, 54502, Note_on_c, 1, 65, 96
1, 54503, Note_off_c, 1, 65, 96
1, 54532, Note_on_c, 1, 49, 96
1, 54533, Note_off_c, 1, 49, 96
1, 54564, Note_on_c, 1, 67, 96
1, 54565, Note_off_c, 1, 67, 96
1, 54593, Note_on_c, 1, 67, 96
1, 54594, Note_off_c, 1, 67, 96
1, 54711, Note_on_c, 1, 71, 96
1, 54713, Note_off_c, 1, 71, 96
1, 54713, Note_on_c, 1, 62, 96
1, 54714, Note_off_c, 1, 62, 96
1, 54718, Note_on_c, 1, 67, 96
1, 54719, Note_off_c, 1, 67, 96
1, 54724, Note_on_c, 1, 43, 96
1, 54724, Note_on_c, 1, 31, 96
1, 54725, Note_off_c, 1, 43, 96
1, 54725, Note_off_c, 1, 31, 96
1, 54781, Note_on_c, 1, 72, 96
1, 54782, Note_off_c, 1, 72, 96
1, 54838, Note_on_c, 1, 54, 96
1, 54839, Note_off_c, 1, 54, 96
1, 54844, Note_on_c, 1, 74, 96
1, 54844, Note_on_c, 1, 50, 96
1, 54846, Note_off_c, 1, 74, 96
1, 54846, Note_off_c, 1, 50, 96
1, 54846, Note_on_c, 1, 60, 96
1, 54847, Note_off_c, 1, 60, 96
1, 54900, Note_on_c, 1, 82, 96
1, 54900, Note_on_c, 1, 78, 96
1, 54901, Note_off_c, 1, 82, 96
1, 54901, Note_off_c, 1, 78, 96
1, 54906, Note_on_c, 1, 74, 96
1, 54906, Note_on_c, 1, 66, 96
1, 54907, Note_off_c, 1, 74, 96
1, 54907, Note_off_c, 1, 66, 96
1, 54963, Note_on_c, 1, 78, 96
1, 54966, Note_off_c, 1, 78, 96
1, 54966, Note_on_c, 1, 51, 96
1, 54966, Note_on_c, 1, 60, 96
1, 54969, Note_off_c, 1, 51, 96
1, 54969, Note_off_c, 1, 60, 96
1, 54969, Note_on_c, 1, 72, 96
1, 54969, Note_on_c, 1, 57, 96
1, 54970, Note_off_c, 1, 72, 96
1, 54970, Note_off_c, 1, 57, 96
1, 54973, Note_on_c, 1, 66, 96
1, 54974, Note_off_c, 1, 66, 96
1, 55029, Note_on_c, 1, 86, 96
1, 55030, Note_off_c, 1, 86, 96
1, 55033, Note_on_c, 1, 74, 96
1, 55035, Note_off_c, 1, 74, 96
1, 55035, Note_on_c, 1, 80, 96
1, 55036, Note_off_c, 1, 80, 96
1, 55095, Note_on_c, 1, 66, 96
1, 55095, Note_on_c, 1, 60, 96
1, 55097, Note_off_c, 1, 66, 96
1, 55097, Note_off_c, 1, 60, 96
1, 55097, Note_on_c, 1, 69, 96
1, 55099, Note_off_c, 1, 69, 96
1, 55099, Note_on_c, 1, 84, 96
1, 55100, Note_off_c, 1, 84, 96
1, 55161, Note_on_c, 1, 73, 96
1, 55161, Note_on_c, 1, 82, 96
1, 55162, Note_off_c, 1, 73, 96
1, 55162, Note_off_c, 1, 82, 96
1, 55217, Note_on_c, 1, 58, 96
1, 55220, Note_off_c, 1, 58, 96
1, 55220, Note_on_c, 1, 70, 96
1, 55220, Note_on_c, 1, 46, 96
1, 55222, Note_off_c, 1, 70, 96
1, 55222, Note_off_c, 1, 46, 96
1, 55222, Note_on_c, 1, 78, 96
1, 55223, Note_off_c, 1, 78, 96
1, 55226, Note_on_c, 1, 66, 96
1, 55228, Note_off_c, 1, 66, 96
1, 55228, Note_on_c, 1, 73, 96
1, 55230, Note_off_c, 1, 73, 96
1, 55230, Note_on_c, 1, 72, 96
1, 55231, Note_off_c, 1, 72, 96
1, 55285, Note_on_c, 1, 75, 96
1, 55287, Note_off_c, 1, 75, 96
1, 55287, Note_on_c, 1, 78, 96
1, 55288, Note_off_c, 1, 78, 96
1, 55330, Note_on_c, 1, 76, 96
1, 55330, Note_on_c, 1, 56, 96
1, 55333, Note_off_c, 1, 76, 96
1, 55333, Note_off_c, 1, 56, 96
1, 55333, Note_on_c, 1, 58, 96
1, 55333, Note_on_c, 1, 63, 96
1, 55335, Note_off_c, 1, 58, 96
1, 55335, Note_off_c, 1, 63, 96
1, 55335, Note_on_c, 1, 67, 96
1, 55336, Note_off_c, 1, 67, 96
1, 55389, Note_on_c, 1, 79, 96
1, 55389, Note_on_c, 1, 76, 96
1, 55390, Note_off_c, 1, 79, 96
1, 55390, Note_off_c, 1, 76, 96
1, 55393, Note_on_c, 1, 67, 96
1, 55394, Note_off_c, 1, 67, 96
1, 55435, Note_on_c, 1, 38, 96
1, 55435, Note_on_c, 1, 50, 96
1, 55436, Note_off_c, 1, 38, 96
1, 55436, Note_off_c, 1, 50, 96
1, 55491, Note_on_c, 1, 78, 96
1, 55492, Note_off_c, 1, 78, 96
1, 55531, Note_on_c, 1, 76, 96
1, 55531, Note_on_c, 1, 45, 96
1, 55533, Note_off_c, 1, 76, 96
1, 55533, Note_off_c, 1, 45, 96
1, 55533, Note_on_c, 1, 68, 96
1, 55534, Note_off_c, 1, 68, 96
1, 55619, Note_on_c, 1, 54, 96
1, 55620, Note_off_c, 1, 54, 96
1, 55622, Note_on_c, 1, 63, 96
1, 55626, Note_off_c, 1, 63, 96
1, 55626, Note_on_c, 1, 75, 96
1, 55626, Note_on_c, 1, 66, 96
1, 55626, Note_on_c, 1, 72, 96
1, 55627, Note_off_c, 1, 75, 96
1, 55627, Note_off_c, 1, 66, 96
1, 55627, Note_off_c, 1, 72, 96
1, 55695, Note_on_c, 1, 87, 96
1, 55697, Note_off_c, 1, 87, 96
1, 55697, Note_on_c, 1, 79, 96
1, 55698, Note_off_c, 1, 79, 96
1, 55738, Note_on_c, 1, 57, 96
1, 55743, Note_off_c, 1, 57, 96
1, 55743, Note_on_c, 1, 69, 96
1, 55743, Note_on_c, 1, 72, 96
1, 55743, Note_on_c, 1, 54, 96
1, 55743, Note_on_c, 1, 62, 96
1, 55745, Note_off_c, 1, 69, 96
1, 55745, Note_off_c, 1, 72, 96
1, 55745, Note_off_c, 1, 54, 96
1, 55745, Note_off_c, 1, 62, 96
1, 55745, Note_on_c, 1, 75, 96
1, 55746, Note_off_c, 1, 75, 96
1, 55807, Note_on_c, 1, 79, 96
1, 55808, Note_off_c, 1, 79, 96
1, 55866, Note_on_c, 1, 75, 96
1, 55868, Note_off_c, 1, 75, 96
1, 55868, Note_on_c, 1, 66, 96
1, 55871, Note_off_c, 1, 66, 96
1, 55871, Note_on_c, 1, 72, 96
1, 55871, Note_on_c, 1, 54, 96
1, 55874, Note_off_c, 1, 72, 96
1, 55874, Note_off_c, 1, 54, 96
1, 55874, Note_on_c, 1, 42, 96
1, 55874, Note_on_c, 1, 57, 96
1, 55875, Note_off_c, 1, 42, 96
1, 55875, Note_off_c, 1, 57, 96
1, 55935, Note_on_c, 1, 91, 96
1, 55935, Note_on_c, 1, 79, 96
1, 55935, Note_on_c, 1, 31, 96
1, 55935, Note_on_c, 1, 43, 96
1, 55936, Note_off_c, 1, 91, 96
1, 55936, Note_off_c, 1, 79, 96
1, 55936, Note_off_c, 1, 31, 96
1, 55936, Note_off_c, 1, 43, 96
1, 55968, Note_on_c, 1, 83, 96
1, 55970, Note_off_c, 1, 83, 96
1, 55970, Note_on_c, 1, 79, 96
1, 55971, Note_off_c, 1, 79, 96
1, 55997, Note_on_c, 1, 59, 96
1, 55998, Note_off_c, 1, 59, 96
1, 56002, Note_on_c, 1, 67, 96
1, 56002, Note_on_c, 1, 67, 96
1, 56002, Note_on_c, 1, 55, 96
1, 56005, Note_off_c, 1, 67, 96
1, 56005, Note_off_c, 1, 67, 96
1, 56005, Note_off_c, 1, 55, 96
1, 56005, Note_on_c, 1, 62, 96
1, 56005, Note_on_c, 1, 50, 96
1, 56006, Note_off_c, 1, 62, 96
1, 56006, Note_off_c, 1, 50, 96
1, 56066, Note_on_c, 1, 48, 96
1, 56066, Note_on_c, 1, 36, 96
1, 56067, Note_off_c, 1, 48, 96
1, 56067, Note_off_c, 1, 36, 96
1, 56127, Note_on_c, 1, 55, 96
1, 56128, Note_off_c, 1, 55, 96
1, 56130, Note_on_c, 1, 43, 96
1, 56131, Note_off_c, 1, 43, 96
1, 56248, Note_on_c, 1, 76, 96
1, 56248, Note_on_c, 1, 49, 96
1, 56249, Note_off_c, 1, 76, 96
1, 56249, Note_off_c, 1, 49, 96
1, 56251, Note_on_c, 1, 61, 96
1, 56253, Note_off_c, 1, 61, 96
1, 56253, Note_on_c, 1, 73, 96
1, 56254, Note_off_c, 1, 73, 96
1, 56284, Note_on_c, 1, 78, 96
1, 56285, Note_off_c, 1, 78, 96
1, 56313, Note_on_c, 1, 57, 96
1, 56313, Note_on_c, 1, 45, 96
1, 56314, Note_off_c, 1, 57, 96
1, 56314, Note_off_c, 1, 45, 96
1, 56317, Note_on_c, 1, 73, 96
1, 56317, Note_on_c, 1, 64, 96
1, 56319, Note_off_c, 1, 73, 96
1, 56319, Note_off_c, 1, 64, 96
1, 56319, Note_on_c, 1, 76, 96
1, 56320, Note_off_c, 1, 76, 96
1, 56353, Note_on_c, 1, 73, 96
1, 56353, Note_on_c, 1, 77, 96
1, 56354, Note_off_c, 1, 73, 96
1, 56354, Note_off_c, 1, 77, 96
1, 56381, Note_on_c, 1, 54, 96
1, 56381, Note_on_c, 1, 60, 96
1, 56383, Note_off_c, 1, 54, 96
1, 56383, Note_off_c, 1, 60, 96
1, 56383, Note_on_c, 1, 50, 96
1, 56384, Note_off_c, 1, 50, 96
1, 56415, Note_on_c, 1, 86, 96
1, 56415, Note_on_c, 1, 74, 96
1, 56416, Note_off_c, 1, 86, 96
1, 56416, Note_off_c, 1, 74, 96
1, 56449, Note_on_c, 1, 72, 96
1, 56449, Note_on_c, 1, 76, 96
1, 56449, Note_on_c, 1, 38, 96
1, 56449, Note_on_c, 1, 50, 96
1, 56450, Note_off_c, 1, 72, 96
1, 56450, Note_off_c, 1, 76, 96
1, 56450, Note_off_c, 1, 38, 96
1, 56450, Note_off_c, 1, 50, 96
1, 56510, Note_on_c, 1, 54, 96
1, 56513, Note_off_c, 1, 54, 96
1, 56513, Note_on_c, 1, 66, 96
1, 56513, Note_on_c, 1, 42, 96
1, 56514, Note_off_c, 1, 66, 96
1, 56514, Note_off_c, 1, 42, 96
1, 56574, Note_on_c, 1, 58, 96
1, 56574, Note_on_c, 1, 62, 96
1, 56576, Note_off_c, 1, 58, 96
1, 56576, Note_off_c, 1, 62, 96
1, 56576, Note_on_c, 1, 55, 96
1, 56578, Note_off_c, 1, 55, 96
1, 56578, Note_on_c, 1, 65, 96
1, 56579, Note_off_c, 1, 65, 96
1, 56639, Note_on_c, 1, 67, 96
1, 56639, Note_on_c, 1, 74, 96
1, 56639, Note_on_c, 1, 71, 96
1, 56644, Note_off_c, 1, 67, 96
1, 56644, Note_off_c, 1, 74, 96
1, 56644, Note_off_c, 1, 71, 96
1, 56644, Note_on_c, 1, 51, 96
1, 56644, Note_on_c, 1, 55, 96
1, 56644, Note_on_c, 1, 63, 96
1, 56644, Note_on_c, 1, 58, 96
1, 56645, Note_off_c, 1, 51, 96
1, 56645, Note_off_c, 1, 55, 96
1, 56645, Note_off_c, 1, 63, 96
1, 56645, Note_off_c, 1, 58, 96
1, 56672, Note_on_c, 1, 76, 96
1, 56673, Note_off_c, 1, 76, 96
1, 56705, Note_on_c, 1, 70, 96
1, 56705, Note_on_c, 1, 74, 96
1, 56708, Note_off_c, 1, 70, 96
1, 56708, Note_off_c, 1, 74, 96
1, 56708, Note_on_c, 1, 64, 96
1, 56708, Note_on_c, 1, 52, 96
1, 56711, Note_off_c, 1, 64, 96
1, 56711, Note_off_c, 1, 52, 96
1, 56711, Note_on_c, 1, 40, 96
1, 56711, Note_on_c, 1, 52, 96
1, 56712, Note_off_c, 1, 40, 96
1, 56712, Note_off_c, 1, 52, 96
1, 56743, Note_on_c, 1, 74, 96
1, 56745, Note_off_c, 1, 74, 96
1, 56745, Note_on_c, 1, 76, 96
1, 56746, Note_off_c, 1, 76, 96
1, 56773, Note_on_c, 1, 53, 96
1, 56774, Note_off_c, 1, 53, 96
1, 56776, Note_on_c, 1, 43, 96
1, 56777, Note_off_c, 1, 43, 96
1, 56807, Note_on_c, 1, 76, 96
1, 56808, Note_off_c, 1, 76, 96
1, 56838, Note_on_c, 1, 76, 96
1, 56838, Note_on_c, 1, 48, 96
1, 56839, Note_off_c, 1, 76, 96
1, 56839, Note_off_c, 1, 48, 96
1, 56903, Note_on_c, 1, 66, 96
1, 56903, Note_on_c, 1, 57, 96
1, 56903, Note_on_c, 1, 45, 96
1, 56904, Note_off_c, 1, 66, 96
1, 56904, Note_off_c, 1, 57, 96
1, 56904, Note_off_c, 1, 45, 96
1, 56935, Note_on_c, 1, 74, 96
1, 56937, Note_off_c, 1, 74, 96
1, 56937, Note_on_c, 1, 71, 96
1, 56938, Note_off_c, 1, 71, 96
1, 56966, Note_on_c, 1, 65, 96
1, 56969, Note_off_c, 1, 65, 96
1, 56969, Note_on_c, 1, 71, 96
1, 56969, Note_on_c, 1, 55, 96
1, 56971, Note_off_c, 1, 71, 96
1, 56971, Note_off_c, 1, 55, 96
1, 56971, Note_on_c, 1, 59, 96
1, 56972, Note_off_c, 1, 59, 96
1, 57032, Note_on_c, 1, 72, 96
1, 57032, Note_on_c, 1, 64, 96
1, 57034, Note_off_c, 1, 72, 96
1, 57034, Note_off_c, 1, 64, 96
1, 57034, Note_on_c, 1, 67, 96
1, 57035, Note_off_c, 1, 67, 96
1, 57097, Note_on_c, 1, 48, 96
1, 57097, Note_on_c, 1, 60, 96
1, 57098, Note_off_c, 1, 48, 96
1, 57098, Note_off_c, 1, 60, 96
1, 57156, Note_on_c, 1, 64, 96
1, 57157, Note_off_c, 1, 64, 96
1, 57159, Note_on_c, 1, 67, 96
1, 57160, Note_off_c, 1, 67, 96
1, 57196, Note_on_c, 1, 72, 96
1, 57199, Note_off_c, 1, 72, 96
1, 57199, Note_on_c, 1, 48, 96
1, 57199, Note_on_c, 1, 64, 96
1, 57200, Note_off_c, 1, 48, 96
1, 57200, Note_off_c, 1, 64, 96
1, 57254, Note_on_c, 1, 64, 96
1, 57255, Note_off_c, 1, 64, 96
1, 57299, Note_on_c, 1, 55, 96
1, 57299, Note_on_c, 1, 50, 96
1, 57299, Note_on_c, 1, 48, 96
1, 57301, Note_off_c, 1, 55, 96
1, 57301, Note_off_c, 1, 50, 96
1, 57301, Note_off_c, 1, 48, 96
1, 57301, Note_on_c, 1, 64, 96
1, 57304, Note_off_c, 1, 64, 96
1, 57304, Note_on_c, 1, 60, 96
1, 57304, Note_on_c, 1, 55, 96
1, 57305, Note_off_c, 1, 60, 96
1, 57305, Note_off_c, 1, 55, 96
1, 57363, Note_on_c, 1, 67, 96
1, 57364, Note_off_c, 1, 67, 96
1, 57403, Note_on_c, 1, 64, 96
1, 57403, Note_on_c, 1, 57, 96
1, 57404, Note_off_c, 1, 64, 96
1, 57404, Note_off_c, 1, 57, 96
1, 57407, Note_on_c, 1, 69, 96
1, 57407, Note_on_c, 1, 45, 96
1, 57408, Note_off_c, 1, 69, 96
1, 57408, Note_off_c, 1, 45, 96
1, 57502, Note_on_c, 1, 48, 96
1, 57503, Note_off_c, 1, 48, 96
1, 57507, Note_on_c, 1, 64, 96
1, 57507, Note_on_c, 1, 57, 96
1, 57508, Note_off_c, 1, 64, 96
1, 57508, Note_off_c, 1, 57, 96
1, 57603, Note_on_c, 1, 59, 96
1, 57605, Note_off_c, 1, 59, 96
1, 57605, Note_on_c, 1, 72, 96
1, 57606, Note_off_c, 1, 72, 96
1, 57610, Note_on_c, 1, 68, 96
1, 57610, Note_on_c, 1, 64, 96
1, 57611, Note_off_c, 1, 68, 96
1, 57611, Note_off_c, 1, 64, 96
1, 57730, Note_on_c, 1, 64, 96
1, 57730, Note_on_c, 1, 72, 96
1, 57732, Note_off_c, 1, 64, 96
1, 57732, Note_off_c, 1, 72, 96
1, 57732, Note_on_c, 1, 55, 96
1, 57733, Note_off_c, 1, 55, 96
1, 57735, Note_on_c, 1, 60, 96
1, 57736, Note_off_c, 1, 60, 96
1, 57794, Note_on_c, 1, 65, 96
1, 57795, Note_off_c, 1, 65, 96
1, 57798, Note_on_c, 1, 69, 96
1, 57799, Note_off_c, 1, 69, 96
1, 57837, Note_on_c, 1, 48, 96
1, 57839, Note_off_c, 1, 48, 96
1, 57839, Note_on_c, 1, 52, 96
1, 57840, Note_off_c, 1, 52, 96
1, 57936, Note_on_c, 1, 75, 96
1, 57937, Note_off_c, 1, 75, 96
1, 57965, Note_on_c, 1, 48, 96
1, 57967, Note_off_c, 1, 48, 96
1, 57967, Note_on_c, 1, 76, 96
1, 57968, Note_off_c, 1, 76, 96
1, 58028, Note_on_c, 1, 67, 96
1, 58029, Note_off_c, 1, 67, 96
1, 58031, Note_on_c, 1, 79, 96
1, 58032, Note_off_c, 1, 79, 96
1, 58072, Note_on_c, 1, 43, 96
1, 58072, Note_on_c, 1, 55, 96
1, 58073, Note_off_c, 1, 43, 96
1, 58073, Note_off_c, 1, 55, 96
1, 58104, Note_on_c, 1, 83, 96
1, 58105, Note_off_c, 1, 83, 96
1, 58136, Note_on_c, 1, 66, 96
1, 58136, Note_on_c, 1, 45, 96
1, 58136, Note_on_c, 1, 57, 96
1, 58140, Note_off_c, 1, 66, 96
1, 58140, Note_off_c, 1, 45, 96
1, 58140, Note_off_c, 1, 57, 96
1, 58140, Note_on_c, 1, 72, 96
1, 58140, Note_on_c, 1, 81, 96
1, 58140, Note_on_c, 1, 75, 96
1, 58141, Note_off_c, 1, 72, 96
1, 58141, Note_off_c, 1, 81, 96
1, 58141, Note_off_c, 1, 75, 96
1, 58259, Note_on_c, 1, 78, 96
1, 58259, Note_on_c, 1, 50, 96
1, 58261, Note_off_c, 1, 78, 96
1, 58261, Note_off_c, 1, 50, 96
1, 58261, Note_on_c, 1, 38, 96
1, 58263, Note_off_c, 1, 38, 96
1, 58263, Note_on_c, 1, 81, 96
1, 58265, Note_off_c, 1, 81, 96
1, 58265, Note_on_c, 1, 86, 96
1, 58266, Note_off_c, 1, 86, 96
1, 58364, Note_on_c, 1, 73, 96
1, 58365, Note_off_c, 1, 73, 96
1, 58369, Note_on_c, 1, 64, 96
1, 58369, Note_on_c, 1, 67, 96
1, 58369, Note_on_c, 1, 61, 96
1, 58371, Note_off_c, 1, 64, 96
1, 58371, Note_off_c, 1, 67, 96
1, 58371, Note_off_c, 1, 61, 96
1, 58371, Note_on_c, 1, 57, 96
1, 58372, Note_off_c, 1, 57, 96
1, 58374, Note_on_c, 1, 85, 96
1, 58375, Note_off_c, 1, 85, 96
1, 58608, Note_on_c, 1, 35, 96
1, 58610, Note_off_c, 1, 35, 96
1, 58610, Note_on_c, 1, 75, 96
1, 58611, Note_off_c, 1, 75, 96
1, 58615, Note_on_c, 1, 47, 96
1, 58616, Note_off_c, 1, 47, 96
1, 58665, Note_on_c, 1, 77, 96
1, 58666, Note_off_c, 1, 77, 96
1, 58668, Note_on_c, 1, 41, 96
1, 58670, Note_off_c, 1, 41, 96
1, 58670, Note_on_c, 1, 80, 96
1, 58674, Note_off_c, 1, 80, 96
1, 58674, Note_on_c, 1, 84, 96
1, 58674, Note_on_c, 1, 89, 96
1, 58674, Note_on_c, 1, 53, 96
1, 58675, Note_off_c, 1, 84, 96
1, 58675, Note_off_c, 1, 89, 96
1, 58675, Note_off_c, 1, 53, 96
1, 58790, Note_on_c, 1, 86, 96
1, 58792, Note_off_c, 1, 86, 96
1, 58792, Note_on_c, 1, 74, 96
1, 58793, Note_off_c, 1, 74, 96
1, 58797, Note_on_c, 1, 53, 96
1, 58798, Note_off_c, 1, 53, 96
1, 58854, Note_on_c, 1, 83, 96
1, 58856, Note_off_c, 1, 83, 96
1, 58856, Note_on_c, 1, 95, 96
1, 58857, Note_off_c, 1, 95, 96
1, 58913, Note_on_c, 1, 79, 96
1, 58914, Note_off_c, 1, 79, 96
1, 58916, Note_on_c, 1, 77, 96
1, 58918, Note_off_c, 1, 77, 96
1, 58918, Note_on_c, 1, 55, 96
1, 58920, Note_off_c, 1, 55, 96
1, 58920, Note_on_c, 1, 43, 96
1, 58921, Note_off_c, 1, 43, 96
1, 58977, Note_on_c, 1, 81, 96
1, 58978, Note_off_c, 1, 81, 96
1, 59042, Note_on_c, 1, 62, 96
1, 59042, Note_on_c, 1, 55, 96
1, 59043, Note_off_c, 1, 62, 96
1, 59043, Note_off_c, 1, 55, 96
1, 59048, Note_on_c, 1, 74, 96
1, 59048, Note_on_c, 1, 79, 96
1, 59048, Note_on_c, 1, 65, 96
1, 59049, Note_off_c, 1, 74, 96
1, 59049, Note_off_c, 1, 79, 96
1, 59049, Note_off_c, 1, 65, 96
1, 59165, Note_on_c, 1, 74, 96
1, 59167, Note_off_c, 1, 74, 96
1, 59167, Note_on_c, 1, 55, 96
1, 59169, Note_off_c, 1, 55, 96
1, 59169, Note_on_c, 1, 71, 96
1, 59171, Note_off_c, 1, 71, 96
1, 59171, Note_on_c, 1, 65, 96
1, 59173, Note_off_c, 1, 65, 96
1, 59173, Note_on_c, 1, 59, 96
1, 59175, Note_off_c, 1, 59, 96
1, 59175, Note_on_c, 1, 67, 96
1, 59176, Note_off_c, 1, 67, 96
1, 59291, Note_on_c, 1, 88, 96
1, 59293, Note_off_c, 1, 88, 96
1, 59293, Note_on_c, 1, 84, 96
1, 59294, Note_off_c, 1, 84, 96
1, 59296, Note_on_c, 1, 48, 96
1, 59298, Note_off_c, 1, 48, 96
1, 59298, Note_on_c, 1, 76, 96
1, 59300, Note_off_c, 1, 76, 96
1, 59300, Note_on_c, 1, 60, 96
1, 59301, Note_off_c, 1, 60, 96
1, 59417, Note_on_c, 1, 40, 96
1, 59417, Note_on_c, 1, 52, 96
1, 59418, Note_off_c, 1, 40, 96
1, 59418, Note_off_c, 1, 52, 96
1, 59535, Note_on_c, 1, 79, 96
1, 59537, Note_off_c, 1, 79, 96
1, 59537, Note_on_c, 1, 88, 96
1, 59539, Note_off_c, 1, 88, 96
1, 59539, Note_on_c, 1, 76, 96
1, 59541, Note_off_c, 1, 76, 96
1, 59541, Note_on_c, 1, 83, 96
1, 59542, Note_off_c, 1, 83, 96
1, 59599, Note_on_c, 1, 72, 96
1, 59600, Note_off_c, 1, 72, 96
1, 59603, Note_on_c, 1, 84, 96
1, 59604, Note_off_c, 1, 84, 96
1, 59660, Note_on_c, 1, 48, 96
1, 59662, Note_off_c, 1, 48, 96
1, 59662, Note_on_c, 1, 62, 96
1, 59663, Note_off_c, 1, 62, 96
1, 59669, Note_on_c, 1, 57, 96
1, 59670, Note_off_c, 1, 57, 96
1, 59731, Note_on_c, 1, 84, 96
1, 59731, Note_on_c, 1, 72, 96
1, 59732, Note_off_c, 1, 84, 96
1, 59732, Note_off_c, 1, 72, 96
1, 59788, Note_on_c, 1, 48, 96
1, 59789, Note_off_c, 1, 48, 96
1, 59794, Note_on_c, 1, 76, 96
1, 59794, Note_on_c, 1, 79, 96
1, 59794, Note_on_c, 1, 72, 96
1, 59795, Note_off_c, 1, 76, 96
1, 59795, Note_off_c, 1, 79, 96
1, 59795, Note_off_c, 1, 72, 96
1, 59850, Note_on_c, 1, 76, 96
1, 59851, Note_off_c, 1, 76, 96
1, 59857, Note_on_c, 1, 84, 96
1, 59858, Note_off_c, 1, 84, 96
1, 59913, Note_on_c, 1, 43, 96
1, 59914, Note_off_c, 1, 43, 96
1, 59918, Note_on_c, 1, 79, 96
1, 59918, Note_on_c, 1, 76, 96
1, 59919, Note_off_c, 1, 79, 96
1, 59919, Note_off_c, 1, 76, 96
1, 59980, Note_on_c, 1, 79, 96
1, 59981, Note_off_c, 1, 79, 96
1, 60037, Note_on_c, 1, 72, 96
1, 60037, Note_on_c, 1, 76, 96
1, 60038, Note_off_c, 1, 72, 96
1, 60038, Note_off_c, 1, 76, 96
1, 60040, Note_on_c, 1, 48, 96
1, 60041, Note_off_c, 1, 48, 96
1, 60044, Note_on_c, 1, 84, 96
1, 60045, Note_off_c, 1, 84, 96
1, 60048, Note_on_c, 1, 60, 96
1, 60049, Note_off_c, 1, 60, 96
1, 60102, Note_on_c, 1, 76, 96
1, 60103, Note_off_c, 1, 76, 96
1, 60106, Note_on_c, 1, 79, 96
1, 60107, Note_off_c, 1, 79, 96
1, 60166, Note_on_c, 1, 43, 96
1, 60168, Note_off_c, 1, 43, 96
1, 60168, Note_on_c, 1, 72, 96
1, 60170, Note_off_c, 1, 72, 96
1, 60170, Note_on_c, 1, 76, 96
1, 60171, Note_off_c, 1, 76, 96
1, 60174, Note_on_c, 1, 84, 96
1, 60174, Note_on_c, 1, 55, 96
1, 60175, Note_off_c, 1, 84, 96
1, 60175, Note_off_c, 1, 55, 96
1, 60293, Note_on_c, 1, 43, 96
1, 60294, Note_off_c, 1, 43, 96
1, 60351, Note_on_c, 1, 58, 96
1, 60353, Note_off_c, 1, 58, 96
1, 60353, Note_on_c, 1, 74, 96
1, 60356, Note_off_c, 1, 74, 96
1, 60356, Note_on_c, 1, 84, 96
1, 60356, Note_on_c, 1, 72, 96
1, 60357, Note_off_c, 1, 84, 96
1, 60357, Note_off_c, 1, 72, 96
1, 60359, Note_on_c, 1, 46, 96
1, 60360, Note_off_c, 1, 46, 96
1, 60362, Note_on_c, 1, 79, 96
1, 60363, Note_off_c, 1, 79, 96
1, 60418, Note_on_c, 1, 77, 96
1, 60419, Note_off_c, 1, 77, 96
1, 60478, Note_on_c, 1, 72, 96
1, 60480, Note_off_c, 1, 72, 96
1, 60480, Note_on_c, 1, 60, 96
1, 60482, Note_off_c, 1, 60, 96
1, 60482, Note_on_c, 1, 57, 96
1, 60484, Note_off_c, 1, 57, 96
1, 60484, Note_on_c, 1, 81, 96
1, 60486, Note_off_c, 1, 81, 96
1, 60486, Note_on_c, 1, 69, 96
1, 60487, Note_off_c, 1, 69, 96
1, 60546, Note_on_c, 1, 84, 96
1, 60547, Note_off_c, 1, 84, 96
1, 60549, Note_on_c, 1, 72, 96
1, 60550, Note_off_c, 1, 72, 96
1, 60609, Note_on_c, 1, 41, 96
1, 60611, Note_off_c, 1, 41, 96
1, 60611, Note_on_c, 1, 53, 96
1, 60613, Note_off_c, 1, 53, 96
1, 60613, Note_on_c, 1, 77, 96
1, 60614, Note_off_c, 1, 77, 96
1, 60673, Note_on_c, 1, 74, 96
1, 60674, Note_off_c, 1, 74, 96
1, 60734, Note_on_c, 1, 65, 96
1, 60735, Note_off_c, 1, 65, 96
1, 60737, Note_on_c, 1, 77, 96
1, 60739, Note_off_c, 1, 77, 96
1, 60739, Note_on_c, 1, 57, 96
1, 60740, Note_off_c, 1, 57, 96
1, 60742, Note_on_c, 1, 60, 96
1, 60743, Note_off_c, 1, 60, 96
1, 60796, Note_on_c, 1, 83, 96
1, 60797, Note_off_c, 1, 83, 96
1, 60857, Note_on_c, 1, 65, 96
1, 60860, Note_off_c, 1, 65, 96
1, 60860, Note_on_c, 1, 55, 96
1, 60860, Note_on_c, 1, 59, 96
1, 60861, Note_off_c, 1, 55, 96
1, 60861, Note_off_c, 1, 59, 96
1, 60924, Note_on_c, 1, 74, 96
1, 60925, Note_off_c, 1, 74, 96
1, 60982, Note_on_c, 1, 79, 96
1, 60983, Note_off_c, 1, 79, 96
1, 60985, Note_on_c, 1, 48, 96
1, 60986, Note_off_c, 1, 48, 96
1, 61047, Note_on_c, 1, 79, 96
1, 61048, Note_off_c, 1, 79, 96
1, 61105, Note_on_c, 1, 55, 96
1, 61105, Note_on_c, 1, 60, 96
1, 61106, Note_off_c, 1, 55, 96
1, 61106, Note_off_c, 1, 60, 96
1, 61110, Note_on_c, 1, 64, 96
1, 61112, Note_off_c, 1, 64, 96
1, 61112, Note_on_c, 1, 79, 96
1, 61113, Note_off_c, 1, 79, 96
1, 61169, Note_on_c, 1, 75, 96
1, 61171, Note_off_c, 1, 75, 96
1, 61171, Note_on_c, 1, 71, 96
1, 61172, Note_off_c, 1, 71, 96
1, 61228, Note_on_c, 1, 60, 96
1, 61229, Note_off_c, 1, 60, 96
1, 61231, Note_on_c, 1, 55, 96
1, 61232, Note_off_c, 1, 55, 96
1, 61234, Note_on_c, 1, 64, 96
1, 61235, Note_off_c, 1, 64, 96
1, 61237, Note_on_c, 1, 79, 96
1, 61238, Note_off_c, 1, 79, 96
1, 61294, Note_on_c, 1, 76, 96
1, 61295, Note_off_c, 1, 76, 96
1, 61297, Note_on_c, 1, 72, 96
1, 61298, Note_off_c, 1, 72, 96
1, 61357, Note_on_c, 1, 55, 96
1, 61357, Note_on_c, 1, 43, 96
1, 61358, Note_off_c, 1, 55, 96
1, 61358, Note_off_c, 1, 43, 96
1, 61418, Note_on_c, 1, 79, 96
1, 61418, Note_on_c, 1, 52, 96
1, 61420, Note_off_c, 1, 79, 96
1, 61420, Note_off_c, 1, 52, 96
1, 61420, Note_on_c, 1, 67, 96
1, 61421, Note_off_c, 1, 67, 96
1, 61477, Note_on_c, 1, 79, 96
1, 61478, Note_off_c, 1, 79, 96
1, 61540, Note_on_c, 1, 72, 96
1, 61541, Note_off_c, 1, 72, 96
1, 61664, Note_on_c, 1, 72, 96
1, 61664, Note_on_c, 1, 60, 96
1, 61665, Note_off_c, 1, 72, 96
1, 61665, Note_off_c, 1, 60, 96
1, 61670, Note_on_c, 1, 48, 96
1, 61671, Note_off_c, 1, 48, 96
1, 61787, Note_on_c, 1, 69, 96
1, 61787, Note_on_c, 1, 67, 96
1, 61787, Note_on_c, 1, 57, 96
1, 61788, Note_off_c, 1, 69, 96
1, 61788, Note_off_c, 1, 67, 96
1, 61788, Note_off_c, 1, 57, 96
1, 61791, Note_on_c, 1, 74, 96
1, 61793, Note_off_c, 1, 74, 96
1, 61793, Note_on_c, 1, 62, 96
1, 61794, Note_off_c, 1, 62, 96
1, 61914, Note_on_c, 1, 59, 96
1, 61916, Note_off_c, 1, 59, 96
1, 61916, Note_on_c, 1, 65, 96
1, 61918, Note_off_c, 1, 65, 96
1, 61918, Note_on_c, 1, 55, 96
1, 61919, Note_off_c, 1, 55, 96
1, 62036, Note_on_c, 1, 64, 96
1, 62036, Note_on_c, 1, 36, 96
1, 62040, Note_off_c, 1, 64, 96
1, 62040, Note_off_c, 1, 36, 96
1, 62040, Note_on_c, 1, 70, 96
1, 62040, Note_on_c, 1, 72, 96
1, 62040, Note_on_c, 1, 48, 96
1, 62041, Note_off_c, 1, 70, 96
1, 62041, Note_off_c, 1, 72, 96
1, 62041, Note_off_c, 1, 48, 96
1, 62043, Note_on_c, 1, 76, 96
1, 62044, Note_off_c, 1, 76, 96
1, 62100, Note_on_c, 1, 81, 96
1, 62101, Note_off_c, 1, 81, 96
1, 62105, Note_on_c, 1, 76, 96
1, 62105, Note_on_c, 1, 69, 96
1, 62106, Note_off_c, 1, 76, 96
1, 62106, Note_off_c, 1, 69, 96
1, 62164, Note_on_c, 1, 55, 96
1, 62166, Note_off_c, 1, 55, 96
1, 62166, Note_on_c, 1, 43, 96
1, 62167, Note_off_c, 1, 43, 96
1, 62226, Note_on_c, 1, 70, 96
1, 62228, Note_off_c, 1, 70, 96
1, 62228, Note_on_c, 1, 67, 96
1, 62229, Note_off_c, 1, 67, 96
1, 62232, Note_on_c, 1, 79, 96
1, 62233, Note_off_c, 1, 79, 96
1, 62289, Note_on_c, 1, 70, 96
1, 62289, Note_on_c, 1, 58, 96
1, 62289, Note_on_c, 1, 36, 96
1, 62291, Note_off_c, 1, 70, 96
1, 62291, Note_off_c, 1, 58, 96
1, 62291, Note_off_c, 1, 36, 96
1, 62291, Note_on_c, 1, 62, 96
1, 62293, Note_off_c, 1, 62, 96
1, 62293, Note_on_c, 1, 76, 96
1, 62295, Note_off_c, 1, 76, 96
1, 62295, Note_on_c, 1, 82, 96
1, 62296, Note_off_c, 1, 82, 96
1, 62352, Note_on_c, 1, 81, 96
1, 62352, Note_on_c, 1, 69, 96
1, 62353, Note_off_c, 1, 81, 96
1, 62353, Note_off_c, 1, 69, 96
1, 62356, Note_on_c, 1, 76, 96
1, 62358, Note_off_c, 1, 76, 96
1, 62358, Note_on_c, 1, 64, 96
1, 62360, Note_off_c, 1, 64, 96
1, 62360, Note_on_c, 1, 72, 96
1, 62361, Note_off_c, 1, 72, 96
1, 62415, Note_on_c, 1, 46, 96
1, 62416, Note_off_c, 1, 46, 96
1, 62419, Note_on_c, 1, 58, 96
1, 62422, Note_off_c, 1, 58, 96
1, 62422, Note_on_c, 1, 74, 96
1, 62422, Note_on_c, 1, 70, 96
1, 62424, Note_off_c, 1, 74, 96
1, 62424, Note_off_c, 1, 70, 96
1, 62424, Note_on_c, 1, 82, 96
1, 62425, Note_off_c, 1, 82, 96
1, 62481, Note_on_c, 1, 70, 96
1, 62482, Note_off_c, 1, 70, 96
1, 62485, Note_on_c, 1, 82, 96
1, 62486, Note_off_c, 1, 82, 96
1, 62545, Note_on_c, 1, 79, 96
1, 62545, Note_on_c, 1, 75, 96
1, 62548, Note_off_c, 1, 79, 96
1, 62548, Note_off_c, 1, 75, 96
1, 62548, Note_on_c, 1, 67, 96
1, 62548, Note_on_c, 1, 51, 96
1, 62551, Note_off_c, 1, 67, 96
1, 62551, Note_off_c, 1, 51, 96
1, 62551, Note_on_c, 1, 58, 96
1, 62551, Note_on_c, 1, 46, 96
1, 62552, Note_off_c, 1, 58, 96
1, 62552, Note_off_c, 1, 46, 96
1, 62608, Note_on_c, 1, 79, 96
1, 62609, Note_off_c, 1, 79, 96
1, 62666, Note_on_c, 1, 58, 96
1, 62667, Note_off_c, 1, 58, 96
1, 62670, Note_on_c, 1, 46, 96
1, 62671, Note_off_c, 1, 46, 96
1, 62675, Note_on_c, 1, 69, 96
1, 62677, Note_off_c, 1, 69, 96
1, 62677, Note_on_c, 1, 77, 96
1, 62678, Note_off_c, 1, 77, 96
1, 62681, Note_on_c, 1, 72, 96
1, 62682, Note_off_c, 1, 72, 96
1, 62795, Note_on_c, 1, 69, 96
1, 62797, Note_off_c, 1, 69, 96
1, 62797, Note_on_c, 1, 75, 96
1, 62798, Note_off_c, 1, 75, 96
1, 62800, Note_on_c, 1, 72, 96
1, 62802, Note_off_c, 1, 72, 96
1, 62802, Note_on_c, 1, 42, 96
1, 62804, Note_off_c, 1, 42, 96
1, 62804, Note_on_c, 1, 54, 96
1, 62808, Note_off_c, 1, 54, 96
1, 62808, Note_on_c, 1, 78, 96
1, 62808, Note_on_c, 1, 75, 96
1, 62808, Note_on_c, 1, 63, 96
1, 62809, Note_off_c, 1, 78, 96
1, 62809, Note_off_c, 1, 75, 96
1, 62809, Note_off_c, 1, 63, 96
1, 62924, Note_on_c, 1, 76, 96
1, 62925, Note_off_c, 1, 76, 96
1, 62989, Note_on_c, 1, 50, 96
1, 62989, Note_on_c, 1, 38, 96
1, 62990, Note_off_c, 1, 50, 96
1, 62990, Note_off_c, 1, 38, 96
1, 62992, Note_on_c, 1, 78, 96
1, 62993, Note_off_c, 1, 78, 96
1, 63118, Note_on_c, 1, 66, 96
1, 63118, Note_on_c, 1, 50, 96
1, 63120, Note_off_c, 1, 66, 96
1, 63120, Note_off_c, 1, 50, 96
1, 63120, Note_on_c, 1, 38, 96
1, 63122, Note_off_c, 1, 38, 96
1, 63122, Note_on_c, 1, 72, 96
1, 63123, Note_off_c, 1, 72, 96
1, 63238, Note_on_c, 1, 38, 96
1, 63239, Note_off_c, 1, 38, 96
1, 63241, Note_on_c, 1, 76, 96
1, 63242, Note_off_c, 1, 76, 96
1, 63245, Note_on_c, 1, 66, 96
1, 63245, Note_on_c, 1, 50, 96
1, 63246, Note_off_c, 1, 66, 96
1, 63246, Note_off_c, 1, 50, 96
1, 63363, Note_on_c, 1, 79, 96
1, 63363, Note_on_c, 1, 75, 96
1, 63365, Note_off_c, 1, 79, 96
1, 63365, Note_off_c, 1, 75, 96
1, 63365, Note_on_c, 1, 55, 96
1, 63366, Note_off_c, 1, 55, 96
1, 63369, Note_on_c, 1, 67, 96
1, 63369, Note_on_c, 1, 47, 96
1, 63371, Note_off_c, 1, 67, 96
1, 63371, Note_off_c, 1, 47, 96
1, 63371, Note_on_c, 1, 60, 96
1, 63372, Note_off_c, 1, 60, 96
1, 63489, Note_on_c, 1, 79, 96
1, 63491, Note_off_c, 1, 79, 96
1, 63491, Note_on_c, 1, 60, 96
1, 63492, Note_off_c, 1, 60, 96
1, 63494, Note_on_c, 1, 76, 96
1, 63499, Note_off_c, 1, 76, 96
1, 63499, Note_on_c, 1, 67, 96
1, 63499, Note_on_c, 1, 64, 96
1, 63499, Note_on_c, 1, 48, 96
1, 63499, Note_on_c, 1, 55, 96
1, 63500, Note_off_c, 1, 67, 96
1, 63500, Note_off_c, 1, 64, 96
1, 63500, Note_off_c, 1, 48, 96
1, 63500, Note_off_c, 1, 55, 96
1, 63618, Note_on_c, 1, 71, 96
1, 63618, Note_on_c, 1, 67, 96
1, 63620, Note_off_c, 1, 71, 96
1, 63620, Note_off_c, 1, 67, 96
1, 63620, Note_on_c, 1, 59, 96
1, 63622, Note_off_c, 1, 59, 96
1, 63622, Note_on_c, 1, 47, 96
1, 63623, Note_off_c, 1, 47, 96
1, 63743, Note_on_c, 1, 71, 96
1, 63744, Note_off_c, 1, 71, 96
1, 63748, Note_on_c, 1, 67, 96
1, 63748, Note_on_c, 1, 74, 96
1, 63749, Note_off_c, 1, 67, 96
1, 63749, Note_off_c, 1, 74, 96
1, 63752, Note_on_c, 1, 77, 96
1, 63753, Note_off_c, 1, 77, 96
1, 63804, Note_on_c, 1, 76, 96
1, 63806, Note_off_c, 1, 76, 96
1, 63806, Note_on_c, 1, 69, 96
1, 63809, Note_off_c, 1, 69, 96
1, 63809, Note_on_c, 1, 72, 96
1, 63809, Note_on_c, 1, 64, 96
1, 63810, Note_off_c, 1, 72, 96
1, 63810, Note_off_c, 1, 64, 96
1, 63869, Note_on_c, 1, 60, 96
1, 63871, Note_off_c, 1, 60, 96
1, 63871, Note_on_c, 1, 55, 96
1, 63874, Note_off_c, 1, 55, 96
1, 63874, Note_on_c, 1, 76, 96
1, 63874, Note_on_c, 1, 64, 96
1, 63876, Note_off_c, 1, 76, 96
1, 63876, Note_off_c, 1, 64, 96
1, 63876, Note_on_c, 1, 79, 96
1, 63877, Note_off_c, 1, 79, 96
1, 63879, Note_on_c, 1, 72, 96
1, 63880, Note_off_c, 1, 72, 96
1, 63996, Note_on_c, 1, 67, 96
1, 63997, Note_off_c, 1, 67, 96
1, 64000, Note_on_c, 1, 75, 96
1, 64000, Note_on_c, 1, 48, 96
1, 64001, Note_off_c, 1, 75, 96
1, 64001, Note_off_c, 1, 48, 96
1, 64063, Note_on_c, 1, 67, 96
1, 64064, Note_off_c, 1, 67, 96
1, 64121, Note_on_c, 1, 69, 96
1, 64122, Note_off_c, 1, 69, 96
1, 64130, Note_on_c, 1, 48, 96
1, 64131, Note_off_c, 1, 48, 96
1, 64187, Note_on_c, 1, 77, 96
1, 64188, Note_off_c, 1, 77, 96
1, 64230, Note_on_c, 1, 72, 96
1, 64230, Note_on_c, 1, 48, 96
1, 64232, Note_off_c, 1, 72, 96
1, 64232, Note_off_c, 1, 48, 96
1, 64232, Note_on_c, 1, 57, 96
1, 64233, Note_off_c, 1, 57, 96
1, 64235, Note_on_c, 1, 53, 96
1, 64236, Note_off_c, 1, 53, 96
1, 64334, Note_on_c, 1, 69, 96
1, 64336, Note_off_c, 1, 69, 96
1, 64336, Note_on_c, 1, 45, 96
1, 64337, Note_off_c, 1, 45, 96
1, 64340, Note_on_c, 1, 57, 96
1, 64341, Note_off_c, 1, 57, 96
1, 64398, Note_on_c, 1, 72, 96
1, 64399, Note_off_c, 1, 72, 96
1, 64454, Note_on_c, 1, 62, 96
1, 64455, Note_off_c, 1, 62, 96
1, 64457, Note_on_c, 1, 67, 96
1, 64458, Note_off_c, 1, 67, 96
1, 64461, Note_on_c, 1, 43, 96
1, 64462, Note_off_c, 1, 43, 96
1, 64520, Note_on_c, 1, 74, 96
1, 64521, Note_off_c, 1, 74, 96
1, 64582, Note_on_c, 1, 59, 96
1, 64582, Note_on_c, 1, 65, 96
1, 64583, Note_off_c, 1, 59, 96
1, 64583, Note_off_c, 1, 65, 96
1, 64587, Note_on_c, 1, 74, 96
1, 64587, Note_on_c, 1, 55, 96
1, 64588, Note_off_c, 1, 74, 96
1, 64588, Note_off_c, 1, 55, 96
1, 64649, Note_on_c, 1, 74, 96
1, 64650, Note_off_c, 1, 74, 96
1, 64708, Note_on_c, 1, 43, 96
1, 64710, Note_off_c, 1, 43, 96
1, 64710, Note_on_c, 1, 70, 96
1, 64711, Note_off_c, 1, 70, 96
1, 64714, Note_on_c, 1, 76, 96
1, 64715, Note_off_c, 1, 76, 96
1, 64770, Note_on_c, 1, 67, 96
1, 64771, Note_off_c, 1, 67, 96
1, 64835, Note_on_c, 1, 52, 96
1, 64837, Note_off_c, 1, 52, 96
1, 64837, Note_on_c, 1, 55, 96
1, 64840, Note_off_c, 1, 55, 96
1, 64840, Note_on_c, 1, 72, 96
1, 64840, Note_on_c, 1, 60, 96
1, 64841, Note_off_c, 1, 72, 96
1, 64841, Note_off_c, 1, 60, 96
1, 64898, Note_on_c, 1, 64, 96
1, 64899, Note_off_c, 1, 64, 96
1, 64958, Note_on_c, 1, 57, 96
1, 64959, Note_off_c, 1, 57, 96
1, 64961, Note_on_c, 1, 45, 96
1, 64963, Note_off_c, 1, 45, 96
1, 64963, Note_on_c, 1, 69, 96
1, 64964, Note_off_c, 1, 69, 96
1, 65079, Note_on_c, 1, 55, 96
1, 65080, Note_off_c, 1, 55, 96
1, 65082, Note_on_c, 1, 67, 96
1, 65083, Note_off_c, 1, 67, 96
1, 65086, Note_on_c, 1, 43, 96
1, 65087, Note_off_c, 1, 43, 96
1, 65148, Note_on_c, 1, 60, 96
1, 65148, Note_on_c, 1, 48, 96
1, 65151, Note_off_c, 1, 60, 96
1, 65151, Note_off_c, 1, 48, 96
1, 65151, Note_on_c, 1, 67, 96
1, 65151, Note_on_c, 1, 72, 96
1, 65152, Note_off_c, 1, 67, 96
1, 65152, Note_off_c, 1, 72, 96
1, 65267, Note_on_c, 1, 64, 96
1, 65267, Note_on_c, 1, 48, 96
1, 65268, Note_off_c, 1, 64, 96
1, 65268, Note_off_c, 1, 48, 96
1, 65271, Note_on_c, 1, 72, 96
1, 65271, Note_on_c, 1, 52, 96
1, 65272, Note_off_c, 1, 72, 96
1, 65272, Note_off_c, 1, 52, 96
1, 65275, Note_on_c, 1, 69, 96
1, 65277, Note_off_c, 1, 69, 96
1, 65277, Note_on_c, 1, 60, 96
1, 65278, Note_off_c, 1, 60, 96
1, 65333, Note_on_c, 1, 76, 96
1, 65334, Note_off_c, 1, 76, 96
1, 65397, Note_on_c, 1, 67, 96
1, 65398, Note_off_c, 1, 67, 96
1, 65401, Note_on_c, 1, 50, 96
1, 65401, Note_on_c, 1, 62, 96
1, 65402, Note_off_c, 1, 50, 96
1, 65402, Note_off_c, 1, 62, 96
1, 65456, Note_on_c, 1, 76, 96
1, 65457, Note_off_c, 1, 76, 96
1, 65518, Note_on_c, 1, 52, 96
1, 65519, Note_off_c, 1, 52, 96
1, 65521, Note_on_c, 1, 55, 96
1, 65522, Note_off_c, 1, 55, 96
1, 65524, Note_on_c, 1, 60, 96
1, 65525, Note_off_c, 1, 60, 96
1, 65583, Note_on_c, 1, 76, 96
1, 65584, Note_off_c, 1, 76, 96
1, 65641, Note_on_c, 1, 43, 96
1, 65642, Note_off_c, 1, 43, 96
1, 65708, Note_on_c, 1, 76, 96
1, 65709, Note_off_c, 1, 76, 96
1, 65766, Note_on_c, 1, 76, 96
1, 65768, Note_off_c, 1, 76, 96
1, 65768, Note_on_c, 1, 79, 96
1, 65769, Note_off_c, 1, 79, 96
1, 65771, Note_on_c, 1, 43, 96
1, 65772, Note_off_c, 1, 43, 96
1, 65888, Note_on_c, 1, 60, 96
1, 65889, Note_off_c, 1, 60, 96
1, 65891, Note_on_c, 1, 76, 96
1, 65894, Note_off_c, 1, 76, 96
1, 65894, Note_on_c, 1, 64, 96
1, 65894, Note_on_c, 1, 57, 96
1, 65896, Note_off_c, 1, 64, 96
1, 65896, Note_off_c, 1, 57, 96
1, 65896, Note_on_c, 1, 69, 96
1, 65897, Note_off_c, 1, 69, 96
1, 66014, Note_on_c, 1, 45, 96
1, 66015, Note_off_c, 1, 45, 96
1, 66017, Note_on_c, 1, 57, 96
1, 66018, Note_off_c, 1, 57, 96
1, 66136, Note_on_c, 1, 69, 96
1, 66138, Note_off_c, 1, 69, 96
1, 66138, Note_on_c, 1, 71, 96
1, 66139, Note_off_c, 1, 71, 96
1, 66260, Note_on_c, 1, 61, 96
1, 66260, Note_on_c, 1, 73, 96
1, 66261, Note_off_c, 1, 61, 96
1, 66261, Note_off_c, 1, 73, 96
1, 66264, Note_on_c, 1, 57, 96
1, 66267, Note_off_c, 1, 57, 96
1, 66267, Note_on_c, 1, 67, 96
1, 66267, Note_on_c, 1, 79, 96
1, 66268, Note_off_c, 1, 67, 96
1, 66268, Note_off_c, 1, 79, 96
1, 66384, Note_on_c, 1, 61, 96
1, 66386, Note_off_c, 1, 61, 96
1, 66386, Note_on_c, 1, 64, 96
1, 66387, Note_off_c, 1, 64, 96
1, 66391, Note_on_c, 1, 58, 96
1, 66392, Note_off_c, 1, 58, 96
1, 66449, Note_on_c, 1, 76, 96
1, 66450, Note_off_c, 1, 76, 96
1, 66509, Note_on_c, 1, 77, 96
1, 66510, Note_off_c, 1, 77, 96
1, 66573, Note_on_c, 1, 70, 96
1, 66574, Note_off_c, 1, 70, 96
1, 66634, Note_on_c, 1, 75, 96
1, 66634, Note_on_c, 1, 45, 96
1, 66635, Note_off_c, 1, 75, 96
1, 66635, Note_off_c, 1, 45, 96
1, 66755, Note_on_c, 1, 50, 96
1, 66755, Note_on_c, 1, 62, 96
1, 66757, Note_off_c, 1, 50, 96
1, 66757, Note_off_c, 1, 62, 96
1, 66757, Note_on_c, 1, 65, 96
1, 66758, Note_off_c, 1, 65, 96
1, 66760, Note_on_c, 1, 77, 96
1, 66761, Note_off_c, 1, 77, 96
1, 66879, Note_on_c, 1, 73, 96
1, 66880, Note_off_c, 1, 73, 96
1, 66882, Note_on_c, 1, 79, 96
1, 66883, Note_off_c, 1, 79, 96
1, 66887, Note_on_c, 1, 67, 96
1, 66887, Note_on_c, 1, 57, 96
1, 66887, Note_on_c, 1, 67, 96
1, 66888, Note_off_c, 1, 67, 96
1, 66888, Note_off_c, 1, 57, 96
1, 66888, Note_off_c, 1, 67, 96
1, 67005, Note_on_c, 1, 54, 96
1, 67007, Note_off_c, 1, 54, 96
1, 67007, Note_on_c, 1, 62, 96
1, 67009, Note_off_c, 1, 62, 96
1, 67009, Note_on_c, 1, 69, 96
1, 67011, Note_off_c, 1, 69, 96
1, 67011, Note_on_c, 1, 74, 96
1, 67013, Note_off_c, 1, 74, 96
1, 67013, Note_on_c, 1, 60, 96
1, 67014, Note_off_c, 1, 60, 96
1, 67070, Note_on_c, 1, 67, 96
1, 67070, Note_on_c, 1, 64, 96
1, 67071, Note_off_c, 1, 67, 96
1, 67071, Note_off_c, 1, 64, 96
1, 67075, Note_on_c, 1, 70, 96
1, 67077, Note_off_c, 1, 70, 96
1, 67077, Note_on_c, 1, 74, 96
1, 67078, Note_off_c, 1, 74, 96
1, 67132, Note_on_c, 1, 64, 96
1, 67132, Note_on_c, 1, 49, 96
1, 67133, Note_off_c, 1, 64, 96
1, 67133, Note_off_c, 1, 49, 96
1, 67135, Note_on_c, 1, 37, 96
1, 67136, Note_off_c, 1, 37, 96
1, 67139, Note_on_c, 1, 70, 96
1, 67141, Note_off_c, 1, 70, 96
1, 67141, Note_on_c, 1, 73, 96
1, 67143, Note_off_c, 1, 73, 96
1, 67143, Note_on_c, 1, 58, 96
1, 67144, Note_off_c, 1, 58, 96
1, 67201, Note_on_c, 1, 70, 96
1, 67203, Note_off_c, 1, 70, 96
1, 67203, Note_on_c, 1, 66, 96
1, 67204, Note_off_c, 1, 66, 96
1, 67262, Note_on_c, 1, 70, 96
1, 67262, Note_on_c, 1, 42, 96
1, 67264, Note_off_c, 1, 70, 96
1, 67264, Note_off_c, 1, 42, 96
1, 67264, Note_on_c, 1, 73, 96
1, 67266, Note_off_c, 1, 73, 96
1, 67266, Note_on_c, 1, 54, 96
1, 67267, Note_off_c, 1, 54, 96
1, 67385, Note_on_c, 1, 76, 96
1, 67387, Note_off_c, 1, 76, 96
1, 67387, Note_on_c, 1, 69, 96
1, 67389, Note_off_c, 1, 69, 96
1, 67389, Note_on_c, 1, 64, 96
1, 67390, Note_off_c, 1, 64, 96
1, 67393, Note_on_c, 1, 59, 96
1, 67394, Note_off_c, 1, 59, 96
1, 67453, Note_on_c, 1, 71, 96
1, 67455, Note_off_c, 1, 71, 96
1, 67455, Note_on_c, 1, 74, 96
1, 67457, Note_off_c, 1, 74, 96
1, 67457, Note_on_c, 1, 67, 96
1, 67458, Note_off_c, 1, 67, 96
1, 67519, Note_on_c, 1, 59, 96
1, 67519, Note_on_c, 1, 50, 96
1, 67521, Note_off_c, 1, 59, 96
1, 67521, Note_off_c, 1, 50, 96
1, 67521, Note_on_c, 1, 55, 96
1, 67522, Note_off_c, 1, 55, 96
1, 67580, Note_on_c, 1, 73, 96
1, 67580, Note_on_c, 1, 70, 96
1, 67581, Note_off_c, 1, 73, 96
1, 67581, Note_off_c, 1, 70, 96
1, 67643, Note_on_c, 1, 38, 96
1, 67644, Note_off_c, 1, 38, 96
1, 67705, Note_on_c, 1, 43, 96
1, 67706, Note_off_c, 1, 43, 96
1, 67766, Note_on_c, 1, 64, 96
1, 67766, Note_on_c, 1, 55, 96
1, 67768, Note_off_c, 1, 64, 96
1, 67768, Note_off_c, 1, 55, 96
1, 67768, Note_on_c, 1, 59, 96
1, 67771, Note_off_c, 1, 59, 96
1, 67771, Note_on_c, 1, 69, 96
1, 67771, Note_on_c, 1, 60, 96
1, 67773, Note_off_c, 1, 69, 96
1, 67773, Note_off_c, 1, 60, 96
1, 67773, Note_on_c, 1, 64, 96
1, 67774, Note_off_c, 1, 64, 96
1, 67815, Note_on_c, 1, 72, 96
1, 67816, Note_off_c, 1, 72, 96
1, 67856, Note_on_c, 1, 69, 96
1, 67856, Note_on_c, 1, 54, 96
1, 67858, Note_off_c, 1, 69, 96
1, 67858, Note_off_c, 1, 54, 96
1, 67858, Note_on_c, 1, 60, 96
1, 67859, Note_off_c, 1, 60, 96
1, 67918, Note_on_c, 1, 73, 96
1, 67919, Note_off_c, 1, 73, 96
1, 67978, Note_on_c, 1, 47, 96
1, 67980, Note_off_c, 1, 47, 96
1, 67980, Note_on_c, 1, 59, 96
1, 67981, Note_off_c, 1, 59, 96
1, 68040, Note_on_c, 1, 67, 96
1, 68041, Note_off_c, 1, 67, 96
1, 68100, Note_on_c, 1, 50, 96
1, 68101, Note_off_c, 1, 50, 96
1, 68104, Note_on_c, 1, 62, 96
1, 68105, Note_off_c, 1, 62, 96
1, 68161, Note_on_c, 1, 75, 96
1, 68162, Note_off_c, 1, 75, 96
1, 68225, Note_on_c, 1, 64, 96
1, 68228, Note_off_c, 1, 64, 96
1, 68228, Note_on_c, 1, 72, 96
1, 68228, Note_on_c, 1, 43, 96
1, 68229, Note_off_c, 1, 72, 96
1, 68229, Note_off_c, 1, 43, 96
1, 68288, Note_on_c, 1, 69, 96
1, 68290, Note_off_c, 1, 69, 96
1, 68290, Note_on_c, 1, 66, 96
1, 68291, Note_off_c, 1, 66, 96
1, 68348, Note_on_c, 1, 45, 96
1, 68349, Note_off_c, 1, 45, 96
1, 68353, Note_on_c, 1, 57, 96
1, 68354, Note_off_c, 1, 57, 96
1, 68410, Note_on_c, 1, 71, 96
1, 68411, Note_off_c, 1, 71, 96
1, 68468, Note_on_c, 1, 54, 96
1, 68470, Note_off_c, 1, 54, 96
1, 68470, Note_on_c, 1, 50, 96
1, 68472, Note_off_c, 1, 50, 96
1, 68472, Note_on_c, 1, 71, 96
1, 68474, Note_off_c, 1, 71, 96
1, 68474, Note_on_c, 1, 60, 96
1, 68475, Note_off_c, 1, 60, 96
1, 68531, Note_on_c, 1, 67, 96
1, 68532, Note_off_c, 1, 67, 96
1, 68592, Note_on_c, 1, 52, 96
1, 68593, Note_off_c, 1, 52, 96
1, 68597, Note_on_c, 1, 40, 96
1, 68598, Note_off_c, 1, 40, 96
1, 68654, Note_on_c, 1, 66, 96
1, 68656, Note_off_c, 1, 66, 96
1, 68656, Note_on_c, 1, 78, 96
1, 68657, Note_off_c, 1, 78, 96
1, 68717, Note_on_c, 1, 50, 96
1, 68718, Note_off_c, 1, 50, 96
1, 68721, Note_on_c, 1, 38, 96
1, 68722, Note_off_c, 1, 38, 96
1, 68785, Note_on_c, 1, 73, 96
1, 68786, Note_off_c, 1, 73, 96
1, 68826, Note_on_c, 1, 77, 96
1, 68826, Note_on_c, 1, 35, 96
1, 68827, Note_off_c, 1, 77, 96
1, 68827, Note_off_c, 1, 35, 96
1, 68881, Note_on_c, 1, 65, 96
1, 68882, Note_off_c, 1, 65, 96
1, 68941, Note_on_c, 1, 62, 96
1, 68941, Note_on_c, 1, 50, 96
1, 68942, Note_off_c, 1, 62, 96
1, 68942, Note_off_c, 1, 50, 96
1, 68945, Note_on_c, 1, 67, 96
1, 68946, Note_off_c, 1, 67, 96
1, 69003, Note_on_c, 1, 63, 96
1, 69004, Note_off_c, 1, 63, 96
1, 69006, Note_on_c, 1, 51, 96
1, 69009, Note_off_c, 1, 51, 96
1, 69009, Note_on_c, 1, 54, 96
1, 69009, Note_on_c, 1, 44, 96
1, 69012, Note_off_c, 1, 54, 96
1, 69012, Note_off_c, 1, 44, 96
1, 69012, Note_on_c, 1, 68, 96
1, 69012, Note_on_c, 1, 71, 96
1, 69013, Note_off_c, 1, 68, 96
1, 69013, Note_off_c, 1, 71, 96
1, 69069, Note_on_c, 1, 67, 96
1, 69072, Note_off_c, 1, 67, 96
1, 69072, Note_on_c, 1, 58, 96
1, 69072, Note_on_c, 1, 63, 96
1, 69073, Note_off_c, 1, 58, 96
1, 69073, Note_off_c, 1, 63, 96
1, 69112, Note_on_c, 1, 63, 96
1, 69114, Note_off_c, 1, 63, 96
1, 69114, Note_on_c, 1, 36, 96
1, 69118, Note_off_c, 1, 36, 96
1, 69118, Note_on_c, 1, 70, 96
1, 69118, Note_on_c, 1, 48, 96
1, 69118, Note_on_c, 1, 57, 96
1, 69119, Note_off_c, 1, 70, 96
1, 69119, Note_off_c, 1, 48, 96
1, 69119, Note_off_c, 1, 57, 96
1, 69173, Note_on_c, 1, 63, 96
1, 69173, Note_on_c, 1, 69, 96
1, 69174, Note_off_c, 1, 63, 96
1, 69174, Note_off_c, 1, 69, 96
1, 69176, Note_on_c, 1, 51, 96
1, 69178, Note_off_c, 1, 51, 96
1, 69178, Note_on_c, 1, 67, 96
1, 69179, Note_off_c, 1, 67, 96
1, 69218, Note_on_c, 1, 36, 96
1, 69219, Note_off_c, 1, 36, 96
1, 69277, Note_on_c, 1, 74, 96
1, 69279, Note_off_c, 1, 74, 96
1, 69279, Note_on_c, 1, 69, 96
1, 69280, Note_off_c, 1, 69, 96
1, 69319, Note_on_c, 1, 67, 96
1, 69319, Note_on_c, 1, 39, 96
1, 69322, Note_off_c, 1, 67, 96
1, 69322, Note_off_c, 1, 39, 96
1, 69322, Note_on_c, 1, 55, 96
1, 69322, Note_on_c, 1, 51, 96
1, 69323, Note_off_c, 1, 55, 96
1, 69323, Note_off_c, 1, 51, 96
1, 69325, Note_on_c, 1, 39, 96
1, 69326, Note_off_c, 1, 39, 96
1, 69380, Note_on_c, 1, 67, 96
1, 69381, Note_off_c, 1, 67, 96
1, 69383, Note_on_c, 1, 79, 96
1, 69384, Note_off_c, 1, 79, 96
1, 69425, Note_on_c, 1, 68, 96
1, 69425, Note_on_c, 1, 80, 96
1, 69425, Note_on_c, 1, 56, 96
1, 69426, Note_off_c, 1, 68, 96
1, 69426, Note_off_c, 1, 80, 96
1, 69426, Note_off_c, 1, 56, 96
1, 69429, Note_on_c, 1, 73, 96
1, 69429, Note_on_c, 1, 43, 96
1, 69430, Note_off_c, 1, 73, 96
1, 69430, Note_off_c, 1, 43, 96
1, 69483, Note_on_c, 1, 70, 96
1, 69484, Note_off_c, 1, 70, 96
1, 69486, Note_on_c, 1, 82, 96
1, 69487, Note_off_c, 1, 82, 96
1, 69530, Note_on_c, 1, 65, 96
1, 69530, Note_on_c, 1, 68, 96
1, 69530, Note_on_c, 1, 77, 96
1, 69530, Note_on_c, 1, 46, 96
1, 69531, Note_off_c, 1, 65, 96
1, 69531, Note_off_c, 1, 68, 96
1, 69531, Note_off_c, 1, 77, 96
1, 69531, Note_off_c, 1, 46, 96
1, 69586, Note_on_c, 1, 80, 96
1, 69587, Note_off_c, 1, 80, 96
1, 69631, Note_on_c, 1, 60, 96
1, 69631, Note_on_c, 1, 66, 96
1, 69631, Note_on_c, 1, 56, 96
1, 69635, Note_off_c, 1, 60, 96
1, 69635, Note_off_c, 1, 66, 96
1, 69635, Note_off_c, 1, 56, 96
1, 69635, Note_on_c, 1, 74, 96
1, 69635, Note_on_c, 1, 73, 96
1, 69635, Note_on_c, 1, 58, 96
1, 69636, Note_off_c, 1, 74, 96
1, 69636, Note_off_c, 1, 73, 96
1, 69636, Note_off_c, 1, 58, 96
1, 69691, Note_on_c, 1, 75, 96
1, 69692, Note_off_c, 1, 75, 96
1, 69732, Note_on_c, 1, 56, 96
1, 69732, Note_on_c, 1, 44, 96
1, 69733, Note_off_c, 1, 56, 96
1, 69733, Note_off_c, 1, 44, 96
1, 69799, Note_on_c, 1, 73, 96
1, 69800, Note_off_c, 1, 73, 96
1, 69840, Note_on_c, 1, 72, 96
1, 69840, Note_on_c, 1, 56, 96
1, 69843, Note_off_c, 1, 72, 96
1, 69843, Note_off_c, 1, 56, 96
1, 69843, Note_on_c, 1, 66, 96
1, 69843, Note_on_c, 1, 44, 96
1, 69845, Note_off_c, 1, 66, 96
1, 69845, Note_off_c, 1, 44, 96
1, 69845, Note_on_c, 1, 75, 96
1, 69846, Note_off_c, 1, 75, 96
1, 69903, Note_on_c, 1, 75, 96
1, 69904, Note_off_c, 1, 75, 96
1, 69944, Note_on_c, 1, 79, 96
1, 69944, Note_on_c, 1, 46, 96
1, 69944, Note_on_c, 1, 34, 96
1, 69950, Note_off_c, 1, 79, 96
1, 69950, Note_off_c, 1, 46, 96
1, 69950, Note_off_c, 1, 34, 96
1, 69950, Note_on_c, 1, 67, 96
1, 69950, Note_on_c, 1, 58, 96
1, 69950, Note_on_c, 1, 61, 96
1, 69950, Note_on_c, 1, 65, 96
1, 69950, Note_on_c, 1, 56, 96
1, 69951, Note_off_c, 1, 67, 96
1, 69951, Note_off_c, 1, 58, 96
1, 69951, Note_off_c, 1, 61, 96
1, 69951, Note_off_c, 1, 65, 96
1, 69951, Note_off_c, 1, 56, 96
1, 70010, Note_on_c, 1, 65, 96
1, 70013, Note_off_c, 1, 65, 96
1, 70013, Note_on_c, 1, 77, 96
1, 70013, Note_on_c, 1, 72, 96
1, 70014, Note_off_c, 1, 77, 96
1, 70014, Note_off_c, 1, 72, 96
1, 70053, Note_on_c, 1, 56, 96
1, 70053, Note_on_c, 1, 61, 96
1, 70054, Note_off_c, 1, 56, 96
1, 70054, Note_off_c, 1, 61, 96
1, 70056, Note_on_c, 1, 65, 96
1, 70057, Note_off_c, 1, 65, 96
1, 70153, Note_on_c, 1, 56, 96
1, 70153, Note_on_c, 1, 44, 96
1, 70154, Note_off_c, 1, 56, 96
1, 70154, Note_off_c, 1, 44, 96
1, 70159, Note_on_c, 1, 78, 96
1, 70159, Note_on_c, 1, 84, 96
1, 70159, Note_on_c, 1, 72, 96
1, 70159, Note_on_c, 1, 66, 96
1, 70160, Note_off_c, 1, 78, 96
1, 70160, Note_off_c, 1, 84, 96
1, 70160, Note_off_c, 1, 72, 96
1, 70160, Note_off_c, 1, 66, 96
1, 70254, Note_on_c, 1, 56, 96
1, 70259, Note_off_c, 1, 56, 96
1, 70259, Note_on_c, 1, 68, 96
1, 70259, Note_on_c, 1, 70, 96
1, 70259, Note_on_c, 1, 75, 96
1, 70259, Note_on_c, 1, 60, 96
1, 70264, Note_off_c, 1, 68, 96
1, 70264, Note_off_c, 1, 70, 96
1, 70264, Note_off_c, 1, 75, 96
1, 70264, Note_off_c, 1, 60, 96
1, 70264, Note_on_c, 1, 66, 96
1, 70264, Note_on_c, 1, 84, 96
1, 70264, Note_on_c, 1, 72, 96
1, 70264, Note_on_c, 1, 60, 96
1, 70265, Note_off_c, 1, 66, 96
1, 70265, Note_off_c, 1, 84, 96
1, 70265, Note_off_c, 1, 72, 96
1, 70265, Note_off_c, 1, 60, 96
1, 70361, Note_on_c, 1, 65, 96
1, 70364, Note_off_c, 1, 65, 96
1, 70364, Note_on_c, 1, 84, 96
1, 70364, Note_on_c, 1, 72, 96
1, 70367, Note_off_c, 1, 84, 96
1, 70367, Note_off_c, 1, 72, 96
1, 70367, Note_on_c, 1, 77, 96
1, 70367, Note_on_c, 1, 41, 96
1, 70368, Note_off_c, 1, 77, 96
1, 70368, Note_off_c, 1, 41, 96
1, 70463, Note_on_c, 1, 73, 96
1, 70463, Note_on_c, 1, 47, 96
1, 70465, Note_off_c, 1, 73, 96
1, 70465, Note_off_c, 1, 47, 96
1, 70465, Note_on_c, 1, 77, 96
1, 70467, Note_off_c, 1, 77, 96
1, 70467, Note_on_c, 1, 85, 96
1, 70469, Note_off_c, 1, 85, 96
1, 70469, Note_on_c, 1, 60, 96
1, 70470, Note_off_c, 1, 60, 96
1, 70566, Note_on_c, 1, 54, 96
1, 70568, Note_off_c, 1, 54, 96
1, 70568, Note_on_c, 1, 42, 96
1, 70569, Note_off_c, 1, 42, 96
1, 70628, Note_on_c, 1, 60, 96
1, 70628, Note_on_c, 1, 64, 96
1, 70629, Note_off_c, 1, 60, 96
1, 70629, Note_off_c, 1, 64, 96
1, 70691, Note_on_c, 1, 77, 96
1, 70691, Note_on_c, 1, 89, 96
1, 70691, Note_on_c, 1, 44, 96
1, 70691, Note_on_c, 1, 56, 96
1, 70692, Note_off_c, 1, 77, 96
1, 70692, Note_off_c, 1, 89, 96
1, 70692, Note_off_c, 1, 44, 96
1, 70692, Note_off_c, 1, 56, 96
1, 70750, Note_on_c, 1, 87, 96
1, 70751, Note_off_c, 1, 87, 96
1, 70754, Note_on_c, 1, 75, 96
1, 70754, Note_on_c, 1, 60, 96
1, 70755, Note_off_c, 1, 75, 96
1, 70755, Note_off_c, 1, 60, 96
1, 70759, Note_on_c, 1, 78, 96
1, 70759, Note_on_c, 1, 56, 96
1, 70759, Note_on_c, 1, 51, 96
1, 70760, Note_off_c, 1, 78, 96
1, 70760, Note_off_c, 1, 56, 96
1, 70760, Note_off_c, 1, 51, 96
1, 70879, Note_on_c, 1, 64, 96
1, 70879, Note_on_c, 1, 60, 96
1, 70880, Note_off_c, 1, 64, 96
1, 70880, Note_off_c, 1, 60, 96
1, 70883, Note_on_c, 1, 58, 96
1, 70884, Note_off_c, 1, 58, 96
1, 71001, Note_on_c, 1, 70, 96
1, 71003, Note_off_c, 1, 70, 96
1, 71003, Note_on_c, 1, 58, 96
1, 71006, Note_off_c, 1, 58, 96
1, 71006, Note_on_c, 1, 74, 96
1, 71006, Note_on_c, 1, 62, 96
1, 71008, Note_off_c, 1, 74, 96
1, 71008, Note_off_c, 1, 62, 96
1, 71008, Note_on_c, 1, 82, 96
1, 71009, Note_off_c, 1, 82, 96
1, 71130, Note_on_c, 1, 80, 96
1, 71130, Note_on_c, 1, 72, 96
1, 71130, Note_on_c, 1, 60, 96
1, 71131, Note_off_c, 1, 80, 96
1, 71131, Note_off_c, 1, 72, 96
1, 71131, Note_off_c, 1, 60, 96
1, 71135, Note_on_c, 1, 75, 96
1, 71136, Note_off_c, 1, 75, 96
1, 71231, Note_on_c, 1, 72, 96
1, 71232, Note_off_c, 1, 72, 96
1, 71254, Note_on_c, 1, 82, 96
1, 71255, Note_off_c, 1, 82, 96
1, 71257, Note_on_c, 1, 70, 96
1, 71258, Note_off_c, 1, 70, 96
1, 71279, Note_on_c, 1, 49, 96
1, 71280, Note_off_c, 1, 49, 96
1, 71286, Note_on_c, 1, 53, 96
1, 71286, Note_on_c, 1, 58, 96
1, 71286, Note_on_c, 1, 82, 96
1, 71286, Note_on_c, 1, 73, 96
1, 71286, Note_on_c, 1, 70, 96
1, 71287, Note_off_c, 1, 53, 96
1, 71287, Note_off_c, 1, 58, 96
1, 71287, Note_off_c, 1, 82, 96
1, 71287, Note_off_c, 1, 73, 96
1, 71287, Note_off_c, 1, 70, 96
1, 71345, Note_on_c, 1, 76, 96
1, 71345, Note_on_c, 1, 73, 96
1, 71346, Note_off_c, 1, 76, 96
1, 71346, Note_off_c, 1, 73, 96
1, 71349, Note_on_c, 1, 84, 96
1, 71350, Note_off_c, 1, 84, 96
1, 71406, Note_on_c, 1, 39, 96
1, 71408, Note_off_c, 1, 39, 96
1, 71408, Note_on_c, 1, 51, 96
1, 71409, Note_off_c, 1, 51, 96
1, 71471, Note_on_c, 1, 72, 96
1, 71472, Note_off_c, 1, 72, 96
1, 71529, Note_on_c, 1, 65, 96
1, 71531, Note_off_c, 1, 65, 96
1, 71531, Note_on_c, 1, 61, 96
1, 71532, Note_off_c, 1, 61, 96
1, 71534, Note_on_c, 1, 82, 96
1, 71535, Note_off_c, 1, 82, 96
1, 71537, Note_on_c, 1, 56, 96
1, 71538, Note_off_c, 1, 56, 96
1, 71593, Note_on_c, 1, 85, 96
1, 71594, Note_off_c, 1, 85, 96
1, 71620, Note_on_c, 1, 49, 96
1, 71621, Note_off_c, 1, 49, 96
1, 71624, Note_on_c, 1, 44, 96
1, 71625, Note_off_c, 1, 44, 96
1, 71633, Note_on_c, 1, 92, 96
1, 71634, Note_off_c, 1, 92, 96
1, 71636, Note_on_c, 1, 80, 96
1, 71637, Note_off_c, 1, 80, 96
1, 71642, Note_on_c, 1, 92, 96
1, 71643, Note_off_c, 1, 92, 96
1, 71686, Note_on_c, 1, 84, 96
1, 71687, Note_off_c, 1, 84, 96
1, 71689, Note_on_c, 1, 75, 96
1, 71690, Note_off_c, 1, 75, 96
1, 71702, Note_on_c, 1, 84, 96
1, 71703, Note_off_c, 1, 84, 96
1, 71717, Note_on_c, 1, 84, 96
1, 71718, Note_off_c, 1, 84, 96
1, 71754, Note_on_c, 1, 67, 96
1, 71755, Note_off_c, 1, 67, 96
1, 71766, Note_on_c, 1, 73, 96
1, 71767, Note_off_c, 1, 73, 96
1, 71842, Note_on_c, 1, 66, 96
1, 71843, Note_off_c, 1, 66, 96
1, 71845, Note_on_c, 1, 89, 96
1, 71846, Note_off_c, 1, 89, 96
1, 71850, Note_on_c, 1, 61, 96
1, 71851, Note_off_c, 1, 61, 96
1, 71979, Note_on_c, 1, 85, 96
1, 71979, Note_on_c, 1, 49, 96
1, 71980, Note_off_c, 1, 85, 96
1, 71980, Note_off_c, 1, 49, 96
1, 71983, Note_on_c, 1, 37, 96
1, 71985, Note_off_c, 1, 37, 96
1, 71985, Note_on_c, 1, 75, 96
1, 71986, Note_off_c, 1, 75, 96
1, 72079, Note_on_c, 1, 53, 96
1, 72081, Note_off_c, 1, 53, 96
1, 72081, Note_on_c, 1, 41, 96
1, 72084, Note_off_c, 1, 41, 96
1, 72084, Note_on_c, 1, 70, 96
1, 72084, Note_on_c, 1, 77, 96
1, 72085, Note_off_c, 1, 70, 96
1, 72085, Note_off_c, 1, 77, 96
1, 72180, Note_on_c, 1, 58, 96
1, 72180, Note_on_c, 1, 46, 96
1, 72181, Note_off_c, 1, 58, 96
1, 72181, Note_off_c, 1, 46, 96
1, 72277, Note_on_c, 1, 79, 96
1, 72277, Note_on_c, 1, 45, 96
1, 72281, Note_off_c, 1, 79, 96
1, 72281, Note_off_c, 1, 45, 96
1, 72281, Note_on_c, 1, 85, 96
1, 72281, Note_on_c, 1, 73, 96
1, 72281, Note_on_c, 1, 55, 96
1, 72282, Note_off_c, 1, 85, 96
1, 72282, Note_off_c, 1, 73, 96
1, 72282, Note_off_c, 1, 55, 96
1, 72337, Note_on_c, 1, 68, 96
1, 72338, Note_off_c, 1, 68, 96
1, 72340, Note_on_c, 1, 80, 96
1, 72341, Note_off_c, 1, 80, 96
1, 72343, Note_on_c, 1, 77, 96
1, 72344, Note_off_c, 1, 77, 96
1, 72406, Note_on_c, 1, 76, 96
1, 72406, Note_on_c, 1, 88, 96
1, 72407, Note_off_c, 1, 76, 96
1, 72407, Note_off_c, 1, 88, 96
1, 72409, Note_on_c, 1, 85, 96
1, 72410, Note_off_c, 1, 85, 96
1, 72527, Note_on_c, 1, 54, 96
1, 72528, Note_off_c, 1, 54, 96
1, 72650, Note_on_c, 1, 58, 96
1, 72651, Note_off_c, 1, 58, 96
1, 72707, Note_on_c, 1, 70, 96
1, 72708, Note_off_c, 1, 70, 96
1, 72831, Note_on_c, 1, 77, 96
1, 72832, Note_off_c, 1, 77, 96
1, 72834, Note_on_c, 1, 49, 96
1, 72835, Note_off_c, 1, 49, 96
1, 72953, Note_on_c, 1, 37, 96
1, 72954, Note_off_c, 1, 37, 96
1, 72962, Note_on_c, 1, 73, 96
1, 72964, Note_off_c, 1, 73, 96
1, 72964, Note_on_c, 1, 49, 96
1, 72965, Note_off_c, 1, 49, 96
1, 73045, Note_on_c, 1, 85, 96
1, 73046, Note_off_c, 1, 85, 96
1, 73052, Note_on_c, 1, 77, 96
1, 73053, Note_off_c, 1, 77, 96
1, 73141, Note_on_c, 1, 56, 96
1, 73144, Note_off_c, 1, 56, 96
1, 73144, Note_on_c, 1, 65, 96
1, 73144, Note_on_c, 1, 53, 96
1, 73146, Note_off_c, 1, 65, 96
1, 73146, Note_off_c, 1, 53, 96
1, 73146, Note_on_c, 1, 61, 96
1, 73147, Note_off_c, 1, 61, 96
1, 73151, Note_on_c, 1, 77, 96
1, 73152, Note_off_c, 1, 77, 96
1, 73364, Note_on_c, 1, 70, 96
1, 73365, Note_off_c, 1, 70, 96
1, 73485, Note_on_c, 1, 82, 96
1, 73486, Note_off_c, 1, 82, 96
1, 73606, Note_on_c, 1, 56, 96
1, 73607, Note_off_c, 1, 56, 96
1, 73610, Note_on_c, 1, 65, 96
1, 73611, Note_off_c, 1, 65, 96
1, 73614, Note_on_c, 1, 73, 96
1, 73614, Note_on_c, 1, 44, 96
1, 73615, Note_off_c, 1, 73, 96
1, 73615, Note_off_c, 1, 44, 96
1, 73731, Note_on_c, 1, 58, 96
1, 73732, Note_off_c, 1, 58, 96
1, 73735, Note_on_c, 1, 70, 96
1, 73735, Note_on_c, 1, 82, 96
1, 73737, Note_off_c, 1, 70, 96
1, 73737, Note_off_c, 1, 82, 96
1, 73737, Note_on_c, 1, 53, 96
1, 73738, Note_off_c, 1, 53, 96
1, 73740, Note_on_c, 1, 61, 96
1, 73741, Note_off_c, 1, 61, 96
1, 73860, Note_on_c, 1, 84, 96
1, 73861, Note_off_c, 1, 84, 96
1, 73981, Note_on_c, 1, 44, 96
1, 73983, Note_off_c, 1, 44, 96
1, 73983, Note_on_c, 1, 72, 96
1, 73985, Note_off_c, 1, 72, 96
1, 73985, Note_on_c, 1, 84, 96
1, 73986, Note_off_c, 1, 84, 96
1, 73988, Note_on_c, 1, 51, 96
1, 73989, Note_off_c, 1, 51, 96
1, 74101, Note_on_c, 1, 63, 96
1, 74102, Note_off_c, 1, 63, 96
1, 74106, Note_on_c, 1, 56, 96
1, 74106, Note_on_c, 1, 60, 96
1, 74108, Note_off_c, 1, 56, 96
1, 74108, Note_off_c, 1, 60, 96
1, 74108, Note_on_c, 1, 68, 96
1, 74110, Note_off_c, 1, 68, 96
1, 74110, Note_on_c, 1, 72, 96
1, 74111, Note_off_c, 1, 72, 96
1, 74231, Note_on_c, 1, 72, 96
1, 74231, Note_on_c, 1, 44, 96
1, 74233, Note_off_c, 1, 72, 96
1, 74233, Note_off_c, 1, 44, 96
1, 74233, Note_on_c, 1, 84, 96
1, 74234, Note_off_c, 1, 84, 96
1, 74236, Note_on_c, 1, 56, 96
1, 74237, Note_off_c, 1, 56, 96
1, 74357, Note_on_c, 1, 52, 96
1, 74359, Note_off_c, 1, 52, 96
1, 74359, Note_on_c, 1, 56, 96
1, 74360, Note_off_c, 1, 56, 96
1, 74479, Note_on_c, 1, 81, 96
1, 74482, Note_off_c, 1, 81, 96
1, 74482, Note_on_c, 1, 60, 96
1, 74482, Note_on_c, 1, 64, 96
1, 74483, Note_off_c, 1, 60, 96
1, 74483, Note_off_c, 1, 64, 96
1, 74487, Note_on_c, 1, 72, 96
1, 74488, Note_off_c, 1, 72, 96
1, 74603, Note_on_c, 1, 81, 96
1, 74604, Note_off_c, 1, 81, 96
1, 74723, Note_on_c, 1, 79, 96
1, 74724, Note_off_c, 1, 79, 96
1, 74726, Note_on_c, 1, 75, 96
1, 74727, Note_off_c, 1, 75, 96
1, 74729, Note_on_c, 1, 70, 96
1, 74731, Note_off_c, 1, 70, 96
1, 74731, Note_on_c, 1, 55, 96
1, 74732, Note_off_c, 1, 55, 96
1, 74848, Note_on_c, 1, 76, 96
1, 74850, Note_off_c, 1, 76, 96
1, 74850, Note_on_c, 1, 79, 96
1, 74853, Note_off_c, 1, 79, 96
1, 74853, Note_on_c, 1, 55, 96
1, 74853, Note_on_c, 1, 43, 96
1, 74854, Note_off_c, 1, 55, 96
1, 74854, Note_off_c, 1, 43, 96
1, 74976, Note_on_c, 1, 58, 96
1, 74978, Note_off_c, 1, 58, 96
1, 74978, Note_on_c, 1, 46, 96
1, 74979, Note_off_c, 1, 46, 96
1, 75094, Note_on_c, 1, 56, 96
1, 75096, Note_off_c, 1, 56, 96
1, 75096, Note_on_c, 1, 68, 96
1, 75097, Note_off_c, 1, 68, 96
1, 75102, Note_on_c, 1, 50, 96
1, 75102, Note_on_c, 1, 59, 96
1, 75103, Note_off_c, 1, 50, 96
1, 75103, Note_off_c, 1, 59, 96
1, 75105, Note_on_c, 1, 74, 96
1, 75106, Note_off_c, 1, 74, 96
1, 75341, Note_on_c, 1, 62, 96
1, 75341, Note_on_c, 1, 58, 96
1, 75343, Note_off_c, 1, 62, 96
1, 75343, Note_off_c, 1, 58, 96
1, 75343, Note_on_c, 1, 77, 96
1, 75345, Note_off_c, 1, 77, 96
1, 75345, Note_on_c, 1, 56, 96
1, 75347, Note_off_c, 1, 56, 96
1, 75347, Note_on_c, 1, 74, 96
1, 75348, Note_off_c, 1, 74, 96
1, 75471, Note_on_c, 1, 74, 96
1, 75472, Note_off_c, 1, 74, 96
1, 75585, Note_on_c, 1, 51, 96
1, 75586, Note_off_c, 1, 51, 96
1, 75588, Note_on_c, 1, 63, 96
1, 75590, Note_off_c, 1, 63, 96
1, 75590, Note_on_c, 1, 70, 96
1, 75591, Note_off_c, 1, 70, 96
1, 75707, Note_on_c, 1, 39, 96
1, 75708, Note_off_c, 1, 39, 96
1, 75713, Note_on_c, 1, 67, 96
1, 75715, Note_off_c, 1, 67, 96
1, 75715, Note_on_c, 1, 73, 96
1, 75717, Note_off_c, 1, 73, 96
1, 75717, Note_on_c, 1, 51, 96
1, 75718, Note_off_c, 1, 51, 96
1, 75838, Note_on_c, 1, 51, 96
1, 75839, Note_off_c, 1, 51, 96
1, 75958, Note_on_c, 1, 67, 96
1, 75958, Note_on_c, 1, 46, 96
1, 75963, Note_off_c, 1, 67, 96
1, 75963, Note_off_c, 1, 46, 96
1, 75963, Note_on_c, 1, 73, 96
1, 75963, Note_on_c, 1, 63, 96
1, 75963, Note_on_c, 1, 61, 96
1, 75963, Note_on_c, 1, 58, 96
1, 75964, Note_off_c, 1, 73, 96
1, 75964, Note_off_c, 1, 63, 96
1, 75964, Note_off_c, 1, 61, 96
1, 75964, Note_off_c, 1, 58, 96
1, 76082, Note_on_c, 1, 46, 96
1, 76083, Note_off_c, 1, 46, 96
1, 76321, Note_on_c, 1, 51, 96
1, 76322, Note_off_c, 1, 51, 96
1, 76442, Note_on_c, 1, 51, 96
1, 76443, Note_off_c, 1, 51, 96
1, 76447, Note_on_c, 1, 63, 96
1, 76448, Note_off_c, 1, 63, 96
1, 76563, Note_on_c, 1, 61, 96
1, 76564, Note_off_c, 1, 61, 96
1, 76568, Note_on_c, 1, 56, 96
1, 76569, Note_off_c, 1, 56, 96
1, 76629, Note_on_c, 1, 58, 96
1, 76630, Note_off_c, 1, 58, 96
1, 76690, Note_on_c, 1, 44, 96
1, 76691, Note_off_c, 1, 44, 96
1, 76817, Note_on_c, 1, 67, 96
1, 76817, Note_on_c, 1, 43, 96
1, 76817, Note_on_c, 1, 36, 96
1, 76818, Note_off_c, 1, 67, 96
1, 76818, Note_off_c, 1, 43, 96
1, 76818, Note_off_c, 1, 36, 96
1, 76938, Note_on_c, 1, 60, 96
1, 76939, Note_off_c, 1, 60, 96
1, 77061, Note_on_c, 1, 69, 96
1, 77062, Note_off_c, 1, 69, 96
1, 77066, Note_on_c, 1, 62, 96
1, 77067, Note_off_c, 1, 62, 96
1, 77186, Note_on_c, 1, 57, 96
1, 77187, Note_off_c, 1, 57, 96
1, 77302, Note_on_c, 1, 63, 96
1, 77303, Note_off_c, 1, 63, 96
1, 77306, Note_on_c, 1, 48, 96
1, 77307, Note_off_c, 1, 48, 96
1, 77427, Note_on_c, 1, 60, 96
1, 77428, Note_off_c, 1, 60, 96
1, 77546, Note_on_c, 1, 62, 96
1, 77547, Note_off_c, 1, 62, 96
1, 77670, Note_on_c, 1, 65, 96
1, 77670, Note_on_c, 1, 60, 96
1, 77671, Note_off_c, 1, 65, 96
1, 77671, Note_off_c, 1, 60, 96
1, 77788, Note_on_c, 1, 59, 96
1, 77789, Note_off_c, 1, 59, 96
1, 77791, Note_on_c, 1, 47, 96
1, 77792, Note_off_c, 1, 47, 96
1, 77858, Note_on_c, 1, 62, 96
1, 77859, Note_off_c, 1, 62, 96
1, 77917, Note_on_c, 1, 67, 96
1, 77918, Note_off_c, 1, 67, 96
1, 77920, Note_on_c, 1, 55, 96
1, 77921, Note_off_c, 1, 55, 96
1, 78043, Note_on_c, 1, 43, 96
1, 78044, Note_off_c, 1, 43, 96
1, 78164, Note_on_c, 1, 50, 96
1, 78165, Note_off_c, 1, 50, 96
1, 78167, Note_on_c, 1, 60, 96
1, 78169, Note_off_c, 1, 60, 96
1, 78169, Note_on_c, 1, 43, 96
1, 78170, Note_off_c, 1, 43, 96
1, 78288, Note_on_c, 1, 57, 96
1, 78288, Note_on_c, 1, 45, 96
1, 78289, Note_off_c, 1, 57, 96
1, 78289, Note_off_c, 1, 45, 96
1, 78410, Note_on_c, 1, 57, 96
1, 78410, Note_on_c, 1, 65, 96
1, 78411, Note_off_c, 1, 57, 96
1, 78411, Note_off_c, 1, 65, 96
1, 78533, Note_on_c, 1, 46, 96
1, 78535, Note_off_c, 1, 46, 96
1, 78535, Note_on_c, 1, 34, 96
1, 78538, Note_off_c, 1, 34, 96
1, 78538, Note_on_c, 1, 58, 96
1, 78538, Note_on_c, 1, 53, 96
1, 78539, Note_off_c, 1, 58, 96
1, 78539, Note_off_c, 1, 53, 96
1, 78653, Note_on_c, 1, 57, 96
1, 78654, Note_off_c, 1, 57, 96
1, 78660, Note_on_c, 1, 45, 96
1, 78660, Note_on_c, 1, 52, 96
1, 78661, Note_off_c, 1, 45, 96
1, 78661, Note_off_c, 1, 52, 96
1, 78780, Note_on_c, 1, 48, 96
1, 78781, Note_off_c, 1, 48, 96
1, 78897, Note_on_c, 1, 65, 96
1, 78898, Note_off_c, 1, 65, 96
1, 79020, Note_on_c, 1, 58, 96
1, 79022, Note_off_c, 1, 58, 96
1, 79022, Note_on_c, 1, 46, 96
1, 79023, Note_off_c, 1, 46, 96
1, 79142, Note_on_c, 1, 66, 96
1, 79143, Note_off_c, 1, 66, 96
1, 79264, Note_on_c, 1, 58, 96
1, 79266, Note_off_c, 1, 58, 96
1, 79266, Note_on_c, 1, 67, 96
1, 79267, Note_off_c, 1, 67, 96
1, 79269, Note_on_c, 1, 64, 96
1, 79270, Note_off_c, 1, 64, 96
1, 79390, Note_on_c, 1, 70, 96
1, 79392, Note_off_c, 1, 70, 96
1, 79392, Note_on_c, 1, 67, 96
1, 79393, Note_off_c, 1, 67, 96
1, 79506, Note_on_c, 1, 52, 96
1, 79507, Note_off_c, 1, 52, 96
1, 79511, Note_on_c, 1, 64, 96
1, 79511, Note_on_c, 1, 60, 96
1, 79511, Note_on_c, 1, 58, 96
1, 79513, Note_off_c, 1, 64, 96
1, 79513, Note_off_c, 1, 60, 96
1, 79513, Note_off_c, 1, 58, 96
1, 79513, Note_on_c, 1, 58, 96
1, 79515, Note_off_c, 1, 58, 96
1, 79515, Note_on_c, 1, 67, 96
1, 79516, Note_off_c, 1, 67, 96
1, 79634, Note_on_c, 1, 65, 96
1, 79636, Note_off_c, 1, 65, 96
1, 79636, Note_on_c, 1, 41, 96
1, 79637, Note_off_c, 1, 41, 96
1, 79642, Note_on_c, 1, 60, 96
1, 79642, Note_on_c, 1, 57, 96
1, 79643, Note_off_c, 1, 60, 96
1, 79643, Note_off_c, 1, 57, 96
1, 79763, Note_on_c, 1, 60, 96
1, 79763, Note_on_c, 1, 57, 96
1, 79765, Note_off_c, 1, 60, 96
1, 79765, Note_off_c, 1, 57, 96
1, 79765, Note_on_c, 1, 65, 96
1, 79766, Note_off_c, 1, 65, 96
1, 79883, Note_on_c, 1, 69, 96
1, 79884, Note_off_c, 1, 69, 96
1, 79888, Note_on_c, 1, 60, 96
1, 79888, Note_on_c, 1, 48, 96
1, 79889, Note_off_c, 1, 60, 96
1, 79889, Note_off_c, 1, 48, 96
1, 80011, Note_on_c, 1, 70, 96
1, 80012, Note_off_c, 1, 70, 96
1, 80132, Note_on_c, 1, 72, 96
1, 80133, Note_off_c, 1, 72, 96
1, 80250, Note_on_c, 1, 57, 96
1, 80251, Note_off_c, 1, 57, 96
1, 80257, Note_on_c, 1, 60, 96
1, 80257, Note_on_c, 1, 65, 96
1, 80258, Note_off_c, 1, 60, 96
1, 80258, Note_off_c, 1, 65, 96
1, 80372, Note_on_c, 1, 69, 96
1, 80373, Note_off_c, 1, 69, 96
1, 80375, Note_on_c, 1, 76, 96
1, 80376, Note_off_c, 1, 76, 96
1, 80381, Note_on_c, 1, 60, 96
1, 80382, Note_off_c, 1, 60, 96
1, 80384, Note_on_c, 1, 65, 96
1, 80385, Note_off_c, 1, 65, 96
1, 80501, Note_on_c, 1, 74, 96
1, 80502, Note_off_c, 1, 74, 96
1, 80505, Note_on_c, 1, 54, 96
1, 80507, Note_off_c, 1, 54, 96
1, 80507, Note_on_c, 1, 66, 96
1, 80508, Note_off_c, 1, 66, 96
1, 80511, Note_on_c, 1, 72, 96
1, 80512, Note_off_c, 1, 72, 96
1, 80567, Note_on_c, 1, 74, 96
1, 80569, Note_off_c, 1, 74, 96
1, 80569, Note_on_c, 1, 62, 96
1, 80570, Note_off_c, 1, 62, 96
1, 80795, Note_on_c, 1, 75, 96
1, 80796, Note_off_c, 1, 75, 96
1, 80855, Note_on_c, 1, 67, 96
1, 80856, Note_off_c, 1, 67, 96
1, 80860, Note_on_c, 1, 55, 96
1, 80861, Note_off_c, 1, 55, 96
1, 80980, Note_on_c, 1, 43, 96
1, 80982, Note_off_c, 1, 43, 96
1, 80982, Note_on_c, 1, 64, 96
1, 80983, Note_off_c, 1, 64, 96
1, 81103, Note_on_c, 1, 67, 96
1, 81104, Note_off_c, 1, 67, 96
1, 81107, Note_on_c, 1, 72, 96
1, 81108, Note_off_c, 1, 72, 96
1, 81224, Note_on_c, 1, 45, 96
1, 81225, Note_off_c, 1, 45, 96
1, 81346, Note_on_c, 1, 60, 96
1, 81347, Note_off_c, 1, 60, 96
1, 81352, Note_on_c, 1, 33, 96
1, 81353, Note_off_c, 1, 33, 96
1, 81469, Note_on_c, 1, 53, 96
1, 81470, Note_off_c, 1, 53, 96
1, 81709, Note_on_c, 1, 77, 96
1, 81710, Note_off_c, 1, 77, 96
1, 81715, Note_on_c, 1, 81, 96
1, 81715, Note_on_c, 1, 65, 96
1, 81716, Note_off_c, 1, 81, 96
1, 81716, Note_off_c, 1, 65, 96
1, 81718, Note_on_c, 1, 41, 96
1, 81719, Note_off_c, 1, 41, 96
1, 81955, Note_on_c, 1, 81, 96
1, 81956, Note_off_c, 1, 81, 96
1, 82072, Note_on_c, 1, 81, 96
1, 82073, Note_off_c, 1, 81, 96
1, 82076, Note_on_c, 1, 48, 96
1, 82077, Note_off_c, 1, 48, 96
1, 82080, Note_on_c, 1, 36, 96
1, 82080, Note_on_c, 1, 52, 96
1, 82081, Note_off_c, 1, 36, 96
1, 82081, Note_off_c, 1, 52, 96
1, 82260, Note_on_c, 1, 81, 96
1, 82261, Note_off_c, 1, 81, 96
1, 82324, Note_on_c, 1, 71, 96
1, 82324, Note_on_c, 1, 64, 96
1, 82326, Note_off_c, 1, 71, 96
1, 82326, Note_off_c, 1, 64, 96
1, 82326, Note_on_c, 1, 60, 96
1, 82329, Note_off_c, 1, 60, 96
1, 82329, Note_on_c, 1, 84, 96
1, 82329, Note_on_c, 1, 57, 96
1, 82330, Note_off_c, 1, 84, 96
1, 82330, Note_off_c, 1, 57, 96
1, 82386, Note_on_c, 1, 79, 96
1, 82387, Note_off_c, 1, 79, 96
1, 82451, Note_on_c, 1, 72, 96
1, 82451, Note_on_c, 1, 43, 96
1, 82452, Note_off_c, 1, 72, 96
1, 82452, Note_off_c, 1, 43, 96
1, 82568, Note_on_c, 1, 48, 96
1, 82569, Note_off_c, 1, 48, 96
1, 82575, Note_on_c, 1, 84, 96
1, 82575, Note_on_c, 1, 72, 96
1, 82575, Note_on_c, 1, 36, 96
1, 82576, Note_off_c, 1, 84, 96
1, 82576, Note_off_c, 1, 72, 96
1, 82576, Note_off_c, 1, 36, 96
1, 82820, Note_on_c, 1, 84, 96
1, 82820, Note_on_c, 1, 72, 96
1, 82820, Note_on_c, 1, 64, 96
1, 82822, Note_off_c, 1, 84, 96
1, 82822, Note_off_c, 1, 72, 96
1, 82822, Note_off_c, 1, 64, 96
1, 82822, Note_on_c, 1, 55, 96
1, 82823, Note_off_c, 1, 55, 96
1, 82826, Note_on_c, 1, 79, 96
1, 82827, Note_off_c, 1, 79, 96
1, 82941, Note_on_c, 1, 56, 96
1, 82942, Note_off_c, 1, 56, 96
1, 82945, Note_on_c, 1, 35, 96
1, 82947, Note_off_c, 1, 35, 96
1, 82947, Note_on_c, 1, 76, 96
1, 82948, Note_off_c, 1, 76, 96
1, 83067, Note_on_c, 1, 55, 96
1, 83069, Note_off_c, 1, 55, 96
1, 83069, Note_on_c, 1, 71, 96
1, 83070, Note_off_c, 1, 71, 96
1, 83072, Note_on_c, 1, 74, 96
1, 83073, Note_off_c, 1, 74, 96
1, 83075, Note_on_c, 1, 59, 96
1, 83077, Note_off_c, 1, 59, 96
1, 83077, Note_on_c, 1, 65, 96
1, 83078, Note_off_c, 1, 65, 96
1, 83136, Note_on_c, 1, 75, 96
1, 83137, Note_off_c, 1, 75, 96
1, 83196, Note_on_c, 1, 67, 96
1, 83197, Note_off_c, 1, 67, 96
1, 83258, Note_on_c, 1, 73, 96
1, 83259, Note_off_c, 1, 73, 96
1, 83314, Note_on_c, 1, 74, 96
1, 83314, Note_on_c, 1, 59, 96
1, 83315, Note_off_c, 1, 74, 96
1, 83315, Note_off_c, 1, 59, 96
1, 83317, Note_on_c, 1, 47, 96
1, 83318, Note_off_c, 1, 47, 96
1, 83323, Note_on_c, 1, 65, 96
1, 83324, Note_off_c, 1, 65, 96
1, 83382, Note_on_c, 1, 71, 96
1, 83383, Note_off_c, 1, 71, 96
1, 83440, Note_on_c, 1, 45, 96
1, 83441, Note_off_c, 1, 45, 96
1, 83444, Note_on_c, 1, 71, 96
1, 83444, Note_on_c, 1, 33, 96
1, 83445, Note_off_c, 1, 71, 96
1, 83445, Note_off_c, 1, 33, 96
1, 83506, Note_on_c, 1, 72, 96
1, 83507, Note_off_c, 1, 72, 96
1, 83566, Note_on_c, 1, 77, 96
1, 83567, Note_off_c, 1, 77, 96
1, 83569, Note_on_c, 1, 43, 96
1, 83570, Note_off_c, 1, 43, 96
1, 83686, Note_on_c, 1, 69, 96
1, 83688, Note_off_c, 1, 69, 96
1, 83688, Note_on_c, 1, 60, 96
1, 83689, Note_off_c, 1, 60, 96
1, 83691, Note_on_c, 1, 65, 96
1, 83692, Note_off_c, 1, 65, 96
1, 83751, Note_on_c, 1, 47, 96
1, 83752, Note_off_c, 1, 47, 96
1, 83813, Note_on_c, 1, 74, 96
1, 83814, Note_off_c, 1, 74, 96
1, 83816, Note_on_c, 1, 65, 96
1, 83817, Note_off_c, 1, 65, 96
1, 83873, Note_on_c, 1, 71, 96
1, 83874, Note_off_c, 1, 71, 96
1, 83879, Note_on_c, 1, 65, 96
1, 83880, Note_off_c, 1, 65, 96
1, 83883, Note_on_c, 1, 59, 96
1, 83884, Note_off_c, 1, 59, 96
1, 83995, Note_on_c, 1, 57, 96
1, 83997, Note_off_c, 1, 57, 96
1, 83997, Note_on_c, 1, 48, 96
1, 83998, Note_off_c, 1, 48, 96
1, 84003, Note_on_c, 1, 74, 96
1, 84004, Note_off_c, 1, 74, 96
1, 84116, Note_on_c, 1, 74, 96
1, 84117, Note_off_c, 1, 74, 96
1, 84236, Note_on_c, 1, 60, 96
1, 84238, Note_off_c, 1, 60, 96
1, 84238, Note_on_c, 1, 53, 96
1, 84239, Note_off_c, 1, 53, 96
1, 84242, Note_on_c, 1, 55, 96
1, 84243, Note_off_c, 1, 55, 96
1, 84363, Note_on_c, 1, 65, 96
1, 84363, Note_on_c, 1, 55, 96
1, 84364, Note_off_c, 1, 65, 96
1, 84364, Note_off_c, 1, 55, 96
1, 84367, Note_on_c, 1, 59, 96
1, 84368, Note_off_c, 1, 59, 96
1, 84608, Note_on_c, 1, 36, 96
1, 84609, Note_off_c, 1, 36, 96
1, 84612, Note_on_c, 1, 84, 96
1, 84613, Note_off_c, 1, 84, 96
1, 84615, Note_on_c, 1, 75, 96
1, 84616, Note_off_c, 1, 75, 96
1, 84618, Note_on_c, 1, 48, 96
1, 84619, Note_off_c, 1, 48, 96
1, 84623, Note_on_c, 1, 88, 96
1, 84624, Note_off_c, 1, 88, 96
1, 84771, Note_on_c, 1, 72, 96
1, 84772, Note_off_c, 1, 72, 96
1, 84774, Note_on_c, 1, 76, 96
1, 84777, Note_off_c, 1, 76, 96
1, 84777, Note_on_c, 1, 81, 96
1, 84777, Note_on_c, 1, 69, 96
1, 84778, Note_off_c, 1, 81, 96
1, 84778, Note_off_c, 1, 69, 96
1, 84810, Note_on_c, 1, 83, 96
1, 84810, Note_on_c, 1, 72, 96
1, 84811, Note_off_c, 1, 83, 96
1, 84811, Note_off_c, 1, 72, 96
1, 84815, Note_on_c, 1, 45, 96
1, 84816, Note_off_c, 1, 45, 96
1, 84876, Note_on_c, 1, 75, 96
1, 84876, Note_on_c, 1, 87, 96
1, 84877, Note_off_c, 1, 75, 96
1, 84877, Note_off_c, 1, 87, 96
1, 84914, Note_on_c, 1, 64, 96
1, 84915, Note_off_c, 1, 64, 96
1, 84917, Note_on_c, 1, 52, 96
1, 84918, Note_off_c, 1, 52, 96
1, 84920, Note_on_c, 1, 83, 96
1, 84921, Note_off_c, 1, 83, 96
1, 85004, Note_on_c, 1, 40, 96
1, 85005, Note_off_c, 1, 40, 96
1, 85026, Note_on_c, 1, 81, 96
1, 85027, Note_off_c, 1, 81, 96
1, 85095, Note_on_c, 1, 57, 96
1, 85097, Note_off_c, 1, 57, 96
1, 85097, Note_on_c, 1, 78, 96
1, 85098, Note_off_c, 1, 78, 96
1, 85100, Note_on_c, 1, 45, 96
1, 85101, Note_off_c, 1, 45, 96
1, 85155, Note_on_c, 1, 80, 96
1, 85157, Note_off_c, 1, 80, 96
1, 85157, Note_on_c, 1, 84, 96
1, 85158, Note_off_c, 1, 84, 96
1, 85160, Note_on_c, 1, 77, 96
1, 85161, Note_off_c, 1, 77, 96
1, 85201, Note_on_c, 1, 45, 96
1, 85201, Note_on_c, 1, 57, 96
1, 85202, Note_off_c, 1, 45, 96
1, 85202, Note_off_c, 1, 57, 96
1, 85294, Note_on_c, 1, 50, 96
1, 85295, Note_off_c, 1, 50, 96
1, 85300, Note_on_c, 1, 81, 96
1, 85300, Note_on_c, 1, 77, 96
1, 85300, Note_on_c, 1, 69, 96
1, 85300, Note_on_c, 1, 38, 96
1, 85301, Note_off_c, 1, 81, 96
1, 85301, Note_off_c, 1, 77, 96
1, 85301, Note_off_c, 1, 69, 96
1, 85301, Note_off_c, 1, 38, 96
1, 85386, Note_on_c, 1, 76, 96
1, 85387, Note_off_c, 1, 76, 96
1, 85475, Note_on_c, 1, 77, 96
1, 85476, Note_off_c, 1, 77, 96
1, 85481, Note_on_c, 1, 65, 96
1, 85482, Note_off_c, 1, 65, 96
1, 85560, Note_on_c, 1, 43, 96
1, 85561, Note_off_c, 1, 43, 96
1, 85565, Note_on_c, 1, 50, 96
1, 85566, Note_off_c, 1, 50, 96
1, 85581, Note_on_c, 1, 84, 96
1, 85582, Note_off_c, 1, 84, 96
1, 85584, Note_on_c, 1, 36, 96
1, 85585, Note_off_c, 1, 36, 96
1, 85588, Note_on_c, 1, 76, 96
1, 85588, Note_on_c, 1, 72, 96
1, 85589, Note_off_c, 1, 76, 96
1, 85589, Note_off_c, 1, 72, 96
1, 85696, Note_on_c, 1, 82, 96
1, 85696, Note_on_c, 1, 74, 96
1, 85698, Note_off_c, 1, 82, 96
1, 85698, Note_off_c, 1, 74, 96
1, 85698, Note_on_c, 1, 62, 96
1, 85699, Note_off_c, 1, 62, 96
1, 85702, Note_on_c, 1, 70, 96
1, 85703, Note_off_c, 1, 70, 96
1, 85706, Note_on_c, 1, 65, 96
1, 85707, Note_off_c, 1, 65, 96
1, 85824, Note_on_c, 1, 40, 96
1, 85824, Note_on_c, 1, 52, 96
1, 85825, Note_off_c, 1, 40, 96
1, 85825, Note_off_c, 1, 52, 96
1, 85945, Note_on_c, 1, 38, 96
1, 85946, Note_off_c, 1, 38, 96
1, 85950, Note_on_c, 1, 78, 96
1, 85950, Note_on_c, 1, 81, 96
1, 85950, Note_on_c, 1, 69, 96
1, 85952, Note_off_c, 1, 78, 96
1, 85952, Note_off_c, 1, 81, 96
1, 85952, Note_off_c, 1, 69, 96
1, 85952, Note_on_c, 1, 50, 96
1, 85953, Note_off_c, 1, 50, 96
1, 86068, Note_on_c, 1, 72, 96
1, 86071, Note_off_c, 1, 72, 96
1, 86071, Note_on_c, 1, 84, 96
1, 86071, Note_on_c, 1, 81, 96
1, 86072, Note_off_c, 1, 84, 96
1, 86072, Note_off_c, 1, 81, 96
1, 86074, Note_on_c, 1, 78, 96
1, 86075, Note_off_c, 1, 78, 96
1, 86129, Note_on_c, 1, 46, 96
1, 86130, Note_off_c, 1, 46, 96
1, 86132, Note_on_c, 1, 58, 96
1, 86133, Note_off_c, 1, 58, 96
1, 86190, Note_on_c, 1, 64, 96
1, 86192, Note_off_c, 1, 64, 96
1, 86192, Note_on_c, 1, 76, 96
1, 86193, Note_off_c, 1, 76, 96
1, 86195, Note_on_c, 1, 79, 96
1, 86196, Note_off_c, 1, 79, 96
1, 86198, Note_on_c, 1, 88, 96
1, 86199, Note_off_c, 1, 88, 96
1, 86258, Note_on_c, 1, 38, 96
1, 86258, Note_on_c, 1, 50, 96
1, 86259, Note_off_c, 1, 38, 96
1, 86259, Note_off_c, 1, 50, 96
1, 86376, Note_on_c, 1, 50, 96
1, 86377, Note_off_c, 1, 50, 96
1, 86381, Note_on_c, 1, 62, 96
1, 86381, Note_on_c, 1, 38, 96
1, 86382, Note_off_c, 1, 62, 96
1, 86382, Note_off_c, 1, 38, 96
1, 86500, Note_on_c, 1, 55, 96
1, 86502, Note_off_c, 1, 55, 96
1, 86502, Note_on_c, 1, 86, 96
1, 86504, Note_off_c, 1, 86, 96
1, 86504, Note_on_c, 1, 55, 96
1, 86506, Note_off_c, 1, 55, 96
1, 86506, Note_on_c, 1, 74, 96
1, 86507, Note_off_c, 1, 74, 96
1, 86512, Note_on_c, 1, 83, 96
1, 86513, Note_off_c, 1, 83, 96
1, 86516, Note_on_c, 1, 43, 96
1, 86516, Note_on_c, 1, 79, 96
1, 86517, Note_off_c, 1, 43, 96
1, 86517, Note_off_c, 1, 79, 96
1, 86570, Note_on_c, 1, 71, 96
1, 86572, Note_off_c, 1, 71, 96
1, 86572, Note_on_c, 1, 79, 96
1, 86573, Note_off_c, 1, 79, 96
1, 86580, Note_on_c, 1, 74, 96
1, 86581, Note_off_c, 1, 74, 96
1, 86636, Note_on_c, 1, 62, 96
1, 86638, Note_off_c, 1, 62, 96
1, 86638, Note_on_c, 1, 59, 96
1, 86639, Note_off_c, 1, 59, 96
1, 86641, Note_on_c, 1, 55, 96
1, 86642, Note_off_c, 1, 55, 96
1, 86645, Note_on_c, 1, 79, 96
1, 86645, Note_on_c, 1, 76, 96
1, 86646, Note_off_c, 1, 79, 96
1, 86646, Note_off_c, 1, 76, 96
1, 86764, Note_on_c, 1, 79, 96
1, 86766, Note_off_c, 1, 79, 96
1, 86766, Note_on_c, 1, 67, 96
1, 86767, Note_off_c, 1, 67, 96
1, 86771, Note_on_c, 1, 76, 96
1, 86772, Note_off_c, 1, 76, 96
1, 86887, Note_on_c, 1, 81, 96
1, 86888, Note_off_c, 1, 81, 96
1, 87009, Note_on_c, 1, 79, 96
1, 87010, Note_off_c, 1, 79, 96
1, 87129, Note_on_c, 1, 65, 96
1, 87131, Note_off_c, 1, 65, 96
1, 87131, Note_on_c, 1, 55, 96
1, 87133, Note_off_c, 1, 55, 96
1, 87133, Note_on_c, 1, 59, 96
1, 87134, Note_off_c, 1, 59, 96
1, 87136, Note_on_c, 1, 81, 96
1, 87137, Note_off_c, 1, 81, 96
1, 87374, Note_on_c, 1, 55, 96
1, 87376, Note_off_c, 1, 55, 96
1, 87376, Note_on_c, 1, 59, 96
1, 87378, Note_off_c, 1, 59, 96
1, 87378, Note_on_c, 1, 65, 96
1, 87379, Note_off_c, 1, 65, 96
1, 87381, Note_on_c, 1, 67, 96
1, 87382, Note_off_c, 1, 67, 96
1, 87384, Note_on_c, 1, 79, 96
1, 87385, Note_off_c, 1, 79, 96
1, 87501, Note_on_c, 1, 71, 96
1, 87504, Note_off_c, 1, 71, 96
1, 87504, Note_on_c, 1, 79, 96
1, 87504, Note_on_c, 1, 76, 96
1, 87506, Note_off_c, 1, 79, 96
1, 87506, Note_off_c, 1, 76, 96
1, 87506, Note_on_c, 1, 81, 96
1, 87507, Note_off_c, 1, 81, 96
1, 87569, Note_on_c, 1, 81, 96
1, 87572, Note_off_c, 1, 81, 96
1, 87572, Note_on_c, 1, 76, 96
1, 87572, Note_on_c, 1, 72, 96
1, 87575, Note_off_c, 1, 76, 96
1, 87575, Note_off_c, 1, 72, 96
1, 87575, Note_on_c, 1, 69, 96
1, 87575, Note_on_c, 1, 48, 96
1, 87576, Note_off_c, 1, 69, 96
1, 87576, Note_off_c, 1, 48, 96
1, 87578, Note_on_c, 1, 60, 96
1, 87579, Note_off_c, 1, 60, 96
1, 87696, Note_on_c, 1, 74, 96
1, 87696, Note_on_c, 1, 71, 96
1, 87697, Note_off_c, 1, 74, 96
1, 87697, Note_off_c, 1, 71, 96
1, 87700, Note_on_c, 1, 68, 96
1, 87702, Note_off_c, 1, 68, 96
1, 87702, Note_on_c, 1, 80, 96
1, 87703, Note_off_c, 1, 80, 96
1, 87820, Note_on_c, 1, 70, 96
1, 87821, Note_off_c, 1, 70, 96
1, 87824, Note_on_c, 1, 82, 96
1, 87824, Note_on_c, 1, 74, 96
1, 87825, Note_off_c, 1, 82, 96
1, 87825, Note_off_c, 1, 74, 96
1, 87941, Note_on_c, 1, 41, 96
1, 87943, Note_off_c, 1, 41, 96
1, 87943, Note_on_c, 1, 53, 96
1, 87944, Note_off_c, 1, 53, 96
1, 87949, Note_on_c, 1, 57, 96
1, 87950, Note_off_c, 1, 57, 96
1, 88064, Note_on_c, 1, 48, 96
1, 88066, Note_off_c, 1, 48, 96
1, 88066, Note_on_c, 1, 36, 96
1, 88067, Note_off_c, 1, 36, 96
1, 88069, Note_on_c, 1, 57, 96
1, 88070, Note_off_c, 1, 57, 96
1, 88076, Note_on_c, 1, 75, 96
1, 88076, Note_on_c, 1, 81, 96
1, 88076, Note_on_c, 1, 69, 96
1, 88077, Note_off_c, 1, 75, 96
1, 88077, Note_off_c, 1, 81, 96
1, 88077, Note_off_c, 1, 69, 96
1, 88197, Note_on_c, 1, 41, 96
1, 88198, Note_off_c, 1, 41, 96
1, 88318, Note_on_c, 1, 74, 96
1, 88319, Note_off_c, 1, 74, 96
1, 88321, Note_on_c, 1, 62, 96
1, 88322, Note_off_c, 1, 62, 96
1, 88440, Note_on_c, 1, 82, 96
1, 88441, Note_off_c, 1, 82, 96
1, 88561, Note_on_c, 1, 58, 96
1, 88562, Note_off_c, 1, 58, 96
1, 88564, Note_on_c, 1, 82, 96
1, 88565, Note_off_c, 1, 82, 96
1, 88568, Note_on_c, 1, 64, 96
1, 88568, Note_on_c, 1, 60, 96
1, 88569, Note_off_c, 1, 64, 96
1, 88569, Note_off_c, 1, 60, 96
1, 88683, Note_on_c, 1, 72, 96
1, 88685, Note_off_c, 1, 72, 96
1, 88685, Note_on_c, 1, 51, 96
1, 88686, Note_off_c, 1, 51, 96
1, 88689, Note_on_c, 1, 84, 96
1, 88691, Note_off_c, 1, 84, 96
1, 88691, Note_on_c, 1, 79, 96
1, 88692, Note_off_c, 1, 79, 96
1, 88811, Note_on_c, 1, 74, 96
1, 88813, Note_off_c, 1, 74, 96
1, 88813, Note_on_c, 1, 38, 96
1, 88814, Note_off_c, 1, 38, 96
1, 88816, Note_on_c, 1, 71, 96
1, 88817, Note_off_c, 1, 71, 96
1, 88932, Note_on_c, 1, 83, 96
1, 88933, Note_off_c, 1, 83, 96
1, 88935, Note_on_c, 1, 71, 96
1, 88936, Note_off_c, 1, 71, 96
1, 88938, Note_on_c, 1, 76, 96
1, 88939, Note_off_c, 1, 76, 96
1, 89062, Note_on_c, 1, 43, 96
1, 89062, Note_on_c, 1, 55, 96
1, 89063, Note_off_c, 1, 43, 96
1, 89063, Note_off_c, 1, 55, 96
1, 89181, Note_on_c, 1, 79, 96
1, 89182, Note_off_c, 1, 79, 96
1, 89185, Note_on_c, 1, 70, 96
1, 89186, Note_off_c, 1, 70, 96
1, 89305, Note_on_c, 1, 71, 96
1, 89305, Note_on_c, 1, 77, 96
1, 89306, Note_off_c, 1, 71, 96
1, 89306, Note_off_c, 1, 77, 96
1, 89308, Note_on_c, 1, 67, 96
1, 89309, Note_off_c, 1, 67, 96
1, 89429, Note_on_c, 1, 75, 96
1, 89430, Note_off_c, 1, 75, 96
1, 89432, Note_on_c, 1, 77, 96
1, 89433, Note_off_c, 1, 77, 96
1, 89436, Note_on_c, 1, 66, 96
1, 89436, Note_on_c, 1, 69, 96
1, 89438, Note_off_c, 1, 66, 96
1, 89438, Note_off_c, 1, 69, 96
1, 89438, Note_on_c, 1, 72, 96
1, 89439, Note_off_c, 1, 72, 96
1, 89496, Note_on_c, 1, 53, 96
1, 89497, Note_off_c, 1, 53, 96
1, 89499, Note_on_c, 1, 41, 96
1, 89500, Note_off_c, 1, 41, 96
1, 89618, Note_on_c, 1, 71, 96
1, 89620, Note_off_c, 1, 71, 96
1, 89620, Note_on_c, 1, 77, 96
1, 89622, Note_off_c, 1, 77, 96
1, 89622, Note_on_c, 1, 65, 96
1, 89624, Note_off_c, 1, 65, 96
1, 89624, Note_on_c, 1, 55, 96
1, 89625, Note_off_c, 1, 55, 96
1, 89627, Note_on_c, 1, 43, 96
1, 89628, Note_off_c, 1, 43, 96
1, 89742, Note_on_c, 1, 55, 96
1, 89743, Note_off_c, 1, 55, 96
1, 89745, Note_on_c, 1, 67, 96
1, 89746, Note_off_c, 1, 67, 96
1, 89749, Note_on_c, 1, 65, 96
1, 89750, Note_off_c, 1, 65, 96
1, 89754, Note_on_c, 1, 59, 96
1, 89755, Note_off_c, 1, 59, 96
1, 89870, Note_on_c, 1, 38, 96
1, 89871, Note_off_c, 1, 38, 96
1, 89990, Note_on_c, 1, 53, 96
1, 89992, Note_off_c, 1, 53, 96
1, 89992, Note_on_c, 1, 59, 96
1, 89994, Note_off_c, 1, 59, 96
1, 89994, Note_on_c, 1, 76, 96
1, 89996, Note_off_c, 1, 76, 96
1, 89996, Note_on_c, 1, 71, 96
1, 89998, Note_off_c, 1, 71, 96
1, 89998, Note_on_c, 1, 55, 96
1, 89999, Note_off_c, 1, 55, 96
1, 90117, Note_on_c, 1, 71, 96
1, 90118, Note_off_c, 1, 71, 96
1, 90122, Note_on_c, 1, 68, 96
1, 90124, Note_off_c, 1, 68, 96
1, 90124, Note_on_c, 1, 76, 96
1, 90125, Note_off_c, 1, 76, 96
1, 90310, Note_on_c, 1, 72, 96
1, 90311, Note_off_c, 1, 72, 96
1, 90428, Note_on_c, 1, 64, 96
1, 90429, Note_off_c, 1, 64, 96
1, 90433, Note_on_c, 1, 67, 96
1, 90434, Note_off_c, 1, 67, 96
1, 90437, Note_on_c, 1, 59, 96
1, 90437, Note_on_c, 1, 52, 96
1, 90438, Note_off_c, 1, 59, 96
1, 90438, Note_off_c, 1, 52, 96
1, 90677, Note_on_c, 1, 52, 96
1, 90678, Note_off_c, 1, 52, 96
1, 90681, Note_on_c, 1, 64, 96
1, 90682, Note_off_c, 1, 64, 96
1, 90800, Note_on_c, 1, 74, 96
1, 90801, Note_off_c, 1, 74, 96
1, 90915, Note_on_c, 1, 71, 96
1, 90916, Note_off_c, 1, 71, 96
1, 90919, Note_on_c, 1, 50, 96
1, 90919, Note_on_c, 1, 55, 96
1, 90920, Note_off_c, 1, 50, 96
1, 90920, Note_off_c, 1, 55, 96
1, 90922, Note_on_c, 1, 59, 96
1, 90923, Note_off_c, 1, 59, 96
1, 91161, Note_on_c, 1, 69, 96
1, 91162, Note_off_c, 1, 69, 96
1, 91165, Note_on_c, 1, 57, 96
1, 91166, Note_off_c, 1, 57, 96
1, 91287, Note_on_c, 1, 66, 96
1, 91288, Note_off_c, 1, 66, 96
1, 91405, Note_on_c, 1, 52, 96
1, 91407, Note_off_c, 1, 52, 96
1, 91407, Note_on_c, 1, 57, 96
1, 91408, Note_off_c, 1, 57, 96
1, 91411, Note_on_c, 1, 60, 96
1, 91411, Note_on_c, 1, 67, 96
1, 91412, Note_off_c, 1, 60, 96
1, 91412, Note_off_c, 1, 67, 96
1, 91533, Note_on_c, 1, 39, 96
1, 91534, Note_off_c, 1, 39, 96
1, 91775, Note_on_c, 1, 43, 96
1, 91777, Note_off_c, 1, 43, 96
1, 91777, Note_on_c, 1, 55, 96
1, 91778, Note_off_c, 1, 55, 96
1, 92018, Note_on_c, 1, 74, 96
1, 92018, Note_on_c, 1, 65, 96
1, 92019, Note_off_c, 1, 74, 96
1, 92019, Note_off_c, 1, 65, 96
1, 92021, Note_on_c, 1, 71, 96
1, 92022, Note_off_c, 1, 71, 96
1, 92078, Note_on_c, 1, 62, 96
1, 92079, Note_off_c, 1, 62, 96
1, 92199, Note_on_c, 1, 65, 96
1, 92201, Note_off_c, 1, 65, 96
1, 92201, Note_on_c, 1, 55, 96
1, 92203, Note_off_c, 1, 55, 96
1, 92203, Note_on_c, 1, 55, 96
1, 92204, Note_off_c, 1, 55, 96
1, 92332, Note_on_c, 1, 57, 96
1, 92333, Note_off_c, 1, 57, 96
1, 92335, Note_on_c, 1, 45, 96
1, 92336, Note_off_c, 1, 45, 96
1, 92573, Note_on_c, 1, 69, 96
1, 92575, Note_off_c, 1, 69, 96
1, 92575, Note_on_c, 1, 66, 96
1, 92577, Note_off_c, 1, 66, 96
1, 92577, Note_on_c, 1, 75, 96
1, 92578, Note_off_c, 1, 75, 96
1, 92816, Note_on_c, 1, 50, 96
1, 92817, Note_off_c, 1, 50, 96
1, 92819, Note_on_c, 1, 57, 96
1, 92820, Note_off_c, 1, 57, 96
1, 92944, Note_on_c, 1, 74, 96
1, 92945, Note_off_c, 1, 74, 96
1, 93060, Note_on_c, 1, 62, 96
1, 93061, Note_off_c, 1, 62, 96
1, 93066, Note_on_c, 1, 67, 96
1, 93067, Note_off_c, 1, 67, 96
1, 93183, Note_on_c, 1, 49, 96
1, 93184, Note_off_c, 1, 49, 96
1, 93428, Note_on_c, 1, 51, 96
1, 93429, Note_off_c, 1, 51, 96
1, 93552, Note_on_c, 1, 58, 96
1, 93552, Note_on_c, 1, 55, 96
1, 93553, Note_off_c, 1, 58, 96
1, 93553, Note_off_c, 1, 55, 96
1, 93558, Note_on_c, 1, 70, 96
1, 93559, Note_off_c, 1, 70, 96
1, 93673, Note_on_c, 1, 62, 96
1, 93674, Note_off_c, 1, 62, 96
1, 93678, Note_on_c, 1, 67, 96
1, 93679, Note_off_c, 1, 67, 96
1, 93795, Note_on_c, 1, 59, 96
1, 93797, Note_off_c, 1, 59, 96
1, 93797, Note_on_c, 1, 71, 96
1, 93798, Note_off_c, 1, 71, 96
1, 93916, Note_on_c, 1, 55, 96
1, 93917, Note_off_c, 1, 55, 96
1, 93920, Note_on_c, 1, 65, 96
1, 93921, Note_off_c, 1, 65, 96
1, 93923, Note_on_c, 1, 74, 96
1, 93924, Note_off_c, 1, 74, 96
1, 93927, Note_on_c, 1, 43, 96
1, 93928, Note_off_c, 1, 43, 96
1, 94162, Note_on_c, 1, 83, 96
1, 94164, Note_off_c, 1, 83, 96
1, 94164, Note_on_c, 1, 41, 96
1, 94165, Note_off_c, 1, 41, 96
1, 94168, Note_on_c, 1, 71, 96
1, 94168, Note_on_c, 1, 53, 96
1, 94170, Note_off_c, 1, 71, 96
1, 94170, Note_off_c, 1, 53, 96
1, 94170, Note_on_c, 1, 77, 96
1, 94171, Note_off_c, 1, 77, 96
1, 94173, Note_on_c, 1, 81, 96
1, 94174, Note_off_c, 1, 81, 96
1, 94287, Note_on_c, 1, 88, 96
1, 94288, Note_off_c, 1, 88, 96
1, 94352, Note_on_c, 1, 58, 96
1, 94355, Note_off_c, 1, 58, 96
1, 94355, Note_on_c, 1, 64, 96
1, 94355, Note_on_c, 1, 60, 96
1, 94357, Note_off_c, 1, 64, 96
1, 94357, Note_off_c, 1, 60, 96
1, 94357, Note_on_c, 1, 81, 96
1, 94358, Note_off_c, 1, 81, 96
1, 94476, Note_on_c, 1, 60, 96
1, 94476, Note_on_c, 1, 64, 96
1, 94478, Note_off_c, 1, 60, 96
1, 94478, Note_off_c, 1, 64, 96
1, 94478, Note_on_c, 1, 55, 96
1, 94480, Note_off_c, 1, 55, 96
1, 94480, Note_on_c, 1, 82, 96
1, 94482, Note_off_c, 1, 82, 96
1, 94482, Note_on_c, 1, 76, 96
1, 94483, Note_off_c, 1, 76, 96
1, 94485, Note_on_c, 1, 58, 96
1, 94486, Note_off_c, 1, 58, 96
1, 94544, Note_on_c, 1, 79, 96
1, 94545, Note_off_c, 1, 79, 96
1, 94601, Note_on_c, 1, 73, 96
1, 94601, Note_on_c, 1, 81, 96
1, 94603, Note_off_c, 1, 73, 96
1, 94603, Note_off_c, 1, 81, 96
1, 94603, Note_on_c, 1, 76, 96
1, 94605, Note_off_c, 1, 76, 96
1, 94605, Note_on_c, 1, 36, 96
1, 94606, Note_off_c, 1, 36, 96
1, 94609, Note_on_c, 1, 48, 96
1, 94610, Note_off_c, 1, 48, 96
1, 94724, Note_on_c, 1, 76, 96
1, 94725, Note_off_c, 1, 76, 96
1, 94730, Note_on_c, 1, 52, 96
1, 94730, Note_on_c, 1, 57, 96
1, 94731, Note_off_c, 1, 52, 96
1, 94731, Note_off_c, 1, 57, 96
1, 94733, Note_on_c, 1, 45, 96
1, 94734, Note_off_c, 1, 45, 96
1, 94791, Note_on_c, 1, 76, 96
1, 94792, Note_off_c, 1, 76, 96
1, 94852, Note_on_c, 1, 61, 96
1, 94852, Note_on_c, 1, 57, 96
1, 94853, Note_off_c, 1, 61, 96
1, 94853, Note_off_c, 1, 57, 96
1, 94857, Note_on_c, 1, 52, 96
1, 94859, Note_off_c, 1, 52, 96
1, 94859, Note_on_c, 1, 67, 96
1, 94860, Note_off_c, 1, 67, 96
1, 94911, Note_on_c, 1, 76, 96
1, 94912, Note_off_c, 1, 76, 96
1, 94973, Note_on_c, 1, 38, 96
1, 94974, Note_off_c, 1, 38, 96
1, 95094, Note_on_c, 1, 39, 96
1, 95095, Note_off_c, 1, 39, 96
1, 95099, Note_on_c, 1, 51, 96
1, 95100, Note_off_c, 1, 51, 96
1, 95221, Note_on_c, 1, 65, 96
1, 95223, Note_off_c, 1, 65, 96
1, 95223, Note_on_c, 1, 77, 96
1, 95224, Note_off_c, 1, 77, 96
1, 95344, Note_on_c, 1, 57, 96
1, 95344, Note_on_c, 1, 48, 96
1, 95345, Note_off_c, 1, 57, 96
1, 95345, Note_off_c, 1, 48, 96
1, 95347, Note_on_c, 1, 66, 96
1, 95348, Note_off_c, 1, 66, 96
1, 95351, Note_on_c, 1, 74, 96
1, 95351, Note_on_c, 1, 72, 96
1, 95353, Note_off_c, 1, 74, 96
1, 95353, Note_off_c, 1, 72, 96
1, 95353, Note_on_c, 1, 60, 96
1, 95354, Note_off_c, 1, 60, 96
1, 95590, Note_on_c, 1, 69, 96
1, 95590, Note_on_c, 1, 42, 96
1, 95591, Note_off_c, 1, 69, 96
1, 95591, Note_off_c, 1, 42, 96
1, 95593, Note_on_c, 1, 54, 96
1, 95595, Note_off_c, 1, 54, 96
1, 95595, Note_on_c, 1, 83, 96
1, 95596, Note_off_c, 1, 83, 96
1, 95598, Note_on_c, 1, 74, 96
1, 95599, Note_off_c, 1, 74, 96
1, 95711, Note_on_c, 1, 59, 96
1, 95712, Note_off_c, 1, 59, 96
1, 95714, Note_on_c, 1, 88, 96
1, 95716, Note_off_c, 1, 88, 96
1, 95716, Note_on_c, 1, 81, 96
1, 95719, Note_off_c, 1, 81, 96
1, 95719, Note_on_c, 1, 55, 96
1, 95719, Note_on_c, 1, 50, 96
1, 95720, Note_off_c, 1, 55, 96
1, 95720, Note_off_c, 1, 50, 96
1, 95722, Note_on_c, 1, 78, 96
1, 95723, Note_off_c, 1, 78, 96
1, 95842, Note_on_c, 1, 79, 96
1, 95844, Note_off_c, 1, 79, 96
1, 95844, Note_on_c, 1, 67, 96
1, 95845, Note_off_c, 1, 67, 96
1, 96083, Note_on_c, 1, 50, 96
1, 96085, Note_off_c, 1, 50, 96
1, 96085, Note_on_c, 1, 78, 96
1, 96087, Note_off_c, 1, 78, 96
1, 96087, Note_on_c, 1, 38, 96
1, 96088, Note_off_c, 1, 38, 96
1, 96090, Note_on_c, 1, 74, 96
1, 96091, Note_off_c, 1, 74, 96
1, 96328, Note_on_c, 1, 55, 96
1, 96329, Note_off_c, 1, 55, 96
1, 96332, Note_on_c, 1, 59, 96
1, 96334, Note_off_c, 1, 59, 96
1, 96334, Note_on_c, 1, 50, 96
1, 96336, Note_off_c, 1, 50, 96
1, 96336, Note_on_c, 1, 62, 96
1, 96337, Note_off_c, 1, 62, 96
1, 96454, Note_on_c, 1, 70, 96
1, 96455, Note_off_c, 1, 70, 96
1, 96460, Note_on_c, 1, 66, 96
1, 96461, Note_off_c, 1, 66, 96
1, 96575, Note_on_c, 1, 72, 96
1, 96576, Note_off_c, 1, 72, 96
1, 96580, Note_on_c, 1, 76, 96
1, 96580, Note_on_c, 1, 69, 96
1, 96581, Note_off_c, 1, 76, 96
1, 96581, Note_off_c, 1, 69, 96
1, 96583, Note_on_c, 1, 64, 96
1, 96585, Note_off_c, 1, 64, 96
1, 96585, Note_on_c, 1, 60, 96
1, 96587, Note_off_c, 1, 60, 96
1, 96587, Note_on_c, 1, 48, 96
1, 96588, Note_off_c, 1, 48, 96
1, 96824, Note_on_c, 1, 43, 96
1, 96824, Note_on_c, 1, 55, 96
1, 96825, Note_off_c, 1, 43, 96
1, 96825, Note_off_c, 1, 55, 96
1, 96946, Note_on_c, 1, 67, 96
1, 96946, Note_on_c, 1, 79, 96
1, 96947, Note_off_c, 1, 67, 96
1, 96947, Note_off_c, 1, 79, 96
1, 97005, Note_on_c, 1, 36, 96
1, 97006, Note_off_c, 1, 36, 96
1, 97011, Note_on_c, 1, 48, 96
1, 97012, Note_off_c, 1, 48, 96
1, 97130, Note_on_c, 1, 50, 96
1, 97132, Note_off_c, 1, 50, 96
1, 97132, Note_on_c, 1, 71, 96
1, 97136, Note_off_c, 1, 71, 96
1, 97136, Note_on_c, 1, 83, 96
1, 97136, Note_on_c, 1, 75, 96
1, 97136, Note_on_c, 1, 38, 96
1, 97137, Note_off_c, 1, 83, 96
1, 97137, Note_off_c, 1, 75, 96
1, 97137, Note_off_c, 1, 38, 96
1, 97258, Note_on_c, 1, 83, 96
1, 97259, Note_off_c, 1, 83, 96
1, 97262, Note_on_c, 1, 74, 96
1, 97262, Note_on_c, 1, 50, 96
1, 97263, Note_off_c, 1, 74, 96
1, 97263, Note_off_c, 1, 50, 96
1, 97377, Note_on_c, 1, 79, 96
1, 97378, Note_off_c, 1, 79, 96
1, 97499, Note_on_c, 1, 43, 96
1, 97501, Note_off_c, 1, 43, 96
1, 97501, Note_on_c, 1, 70, 96
1, 97502, Note_off_c, 1, 70, 96
1, 97506, Note_on_c, 1, 77, 96
1, 97509, Note_off_c, 1, 77, 96
1, 97509, Note_on_c, 1, 65, 96
1, 97509, Note_on_c, 1, 55, 96
1, 97510, Note_off_c, 1, 65, 96
1, 97510, Note_off_c, 1, 55, 96
1, 97625, Note_on_c, 1, 81, 96
1, 97625, Note_on_c, 1, 74, 96
1, 97626, Note_off_c, 1, 81, 96
1, 97626, Note_off_c, 1, 74, 96
1, 97629, Note_on_c, 1, 67, 96
1, 97630, Note_off_c, 1, 67, 96
1, 97751, Note_on_c, 1, 60, 96
1, 97752, Note_off_c, 1, 60, 96
1, 97755, Note_on_c, 1, 48, 96
1, 97756, Note_off_c, 1, 48, 96
1, 97874, Note_on_c, 1, 74, 96
1, 97874, Note_on_c, 1, 64, 96
1, 97875, Note_off_c, 1, 74, 96
1, 97875, Note_off_c, 1, 64, 96
1, 97877, Note_on_c, 1, 48, 96
1, 97878, Note_off_c, 1, 48, 96
1, 97880, Note_on_c, 1, 70, 96
1, 97881, Note_off_c, 1, 70, 96
1, 97996, Note_on_c, 1, 47, 96
1, 97997, Note_off_c, 1, 47, 96
1, 97999, Note_on_c, 1, 65, 96
1, 98000, Note_off_c, 1, 65, 96
1, 98002, Note_on_c, 1, 77, 96
1, 98003, Note_off_c, 1, 77, 96
1, 98120, Note_on_c, 1, 62, 96
1, 98121, Note_off_c, 1, 62, 96
1, 98124, Note_on_c, 1, 69, 96
1, 98127, Note_off_c, 1, 69, 96
1, 98127, Note_on_c, 1, 56, 96
1, 98127, Note_on_c, 1, 44, 96
1, 98128, Note_off_c, 1, 56, 96
1, 98128, Note_off_c, 1, 44, 96
1, 98242, Note_on_c, 1, 73, 96
1, 98242, Note_on_c, 1, 58, 96
1, 98243, Note_off_c, 1, 73, 96
1, 98243, Note_off_c, 1, 58, 96
1, 98247, Note_on_c, 1, 68, 96
1, 98249, Note_off_c, 1, 68, 96
1, 98249, Note_on_c, 1, 77, 96
1, 98250, Note_off_c, 1, 77, 96
1, 98255, Note_on_c, 1, 53, 96
1, 98255, Note_on_c, 1, 62, 96
1, 98256, Note_off_c, 1, 53, 96
1, 98256, Note_off_c, 1, 62, 96
1, 98371, Note_on_c, 1, 41, 96
1, 98372, Note_off_c, 1, 41, 96
1, 98431, Note_on_c, 1, 76, 96
1, 98432, Note_off_c, 1, 76, 96
1, 98490, Note_on_c, 1, 72, 96
1, 98491, Note_off_c, 1, 72, 96
1, 98496, Note_on_c, 1, 48, 96
1, 98497, Note_off_c, 1, 48, 96
1, 98556, Note_on_c, 1, 70, 96
1, 98558, Note_off_c, 1, 70, 96
1, 98558, Note_on_c, 1, 76, 96
1, 98559, Note_off_c, 1, 76, 96
1, 98616, Note_on_c, 1, 36, 96
1, 98617, Note_off_c, 1, 36, 96
1, 98677, Note_on_c, 1, 69, 96
1, 98678, Note_off_c, 1, 69, 96
1, 98681, Note_on_c, 1, 81, 96
1, 98682, Note_off_c, 1, 81, 96
1, 98743, Note_on_c, 1, 60, 96
1, 98743, Note_on_c, 1, 65, 96
1, 98745, Note_off_c, 1, 60, 96
1, 98745, Note_off_c, 1, 65, 96
1, 98745, Note_on_c, 1, 57, 96
1, 98746, Note_off_c, 1, 57, 96
1, 98806, Note_on_c, 1, 69, 96
1, 98806, Note_on_c, 1, 81, 96
1, 98807, Note_off_c, 1, 69, 96
1, 98807, Note_off_c, 1, 81, 96
1, 98868, Note_on_c, 1, 36, 96
1, 98869, Note_off_c, 1, 36, 96
1, 98988, Note_on_c, 1, 81, 96
1, 98989, Note_off_c, 1, 81, 96
1, 98991, Note_on_c, 1, 60, 96
1, 98992, Note_off_c, 1, 60, 96
1, 98995, Note_on_c, 1, 66, 96
1, 98995, Note_on_c, 1, 57, 96
1, 98996, Note_off_c, 1, 66, 96
1, 98996, Note_off_c, 1, 57, 96
1, 99057, Note_on_c, 1, 72, 96
1, 99057, Note_on_c, 1, 70, 96
1, 99059, Note_off_c, 1, 72, 96
1, 99059, Note_off_c, 1, 70, 96
1, 99059, Note_on_c, 1, 79, 96
1, 99060, Note_off_c, 1, 79, 96
1, 99114, Note_on_c, 1, 60, 96
1, 99116, Note_off_c, 1, 60, 96
1, 99116, Note_on_c, 1, 58, 96
1, 99118, Note_off_c, 1, 58, 96
1, 99118, Note_on_c, 1, 55, 96
1, 99119, Note_off_c, 1, 55, 96
1, 99178, Note_on_c, 1, 77, 96
1, 99180, Note_off_c, 1, 77, 96
1, 99180, Note_on_c, 1, 57, 96
1, 99181, Note_off_c, 1, 57, 96
1, 99184, Note_on_c, 1, 60, 96
1, 99186, Note_off_c, 1, 60, 96
1, 99186, Note_on_c, 1, 65, 96
1, 99187, Note_off_c, 1, 65, 96
1, 99244, Note_on_c, 1, 76, 96
1, 99245, Note_off_c, 1, 76, 96
1, 99303, Note_on_c, 1, 65, 96
1, 99304, Note_off_c, 1, 65, 96
1, 99308, Note_on_c, 1, 74, 96
1, 99308, Note_on_c, 1, 55, 96
1, 99311, Note_off_c, 1, 74, 96
1, 99311, Note_off_c, 1, 55, 96
1, 99311, Note_on_c, 1, 67, 96
1, 99311, Note_on_c, 1, 57, 96
1, 99312, Note_off_c, 1, 67, 96
1, 99312, Note_off_c, 1, 57, 96
1, 99314, Note_on_c, 1, 71, 96
1, 99315, Note_off_c, 1, 71, 96
1, 99430, Note_on_c, 1, 69, 96
1, 99431, Note_off_c, 1, 69, 96
1, 99434, Note_on_c, 1, 48, 96
1, 99435, Note_off_c, 1, 48, 96
1, 99437, Note_on_c, 1, 76, 96
1, 99438, Note_off_c, 1, 76, 96
1, 99497, Note_on_c, 1, 72, 96
1, 99498, Note_off_c, 1, 72, 96
1, 99500, Note_on_c, 1, 75, 96
1, 99501, Note_off_c, 1, 75, 96
1, 99560, Note_on_c, 1, 54, 96
1, 99561, Note_off_c, 1, 54, 96
1, 99618, Note_on_c, 1, 72, 96
1, 99619, Note_off_c, 1, 72, 96
1, 99681, Note_on_c, 1, 73, 96
1, 99682, Note_off_c, 1, 73, 96
1, 99686, Note_on_c, 1, 66, 96
1, 99687, Note_off_c, 1, 66, 96
1, 99723, Note_on_c, 1, 78, 96
1, 99724, Note_off_c, 1, 78, 96
1, 99729, Note_on_c, 1, 86, 96
1, 99730, Note_off_c, 1, 86, 96
1, 99807, Note_on_c, 1, 74, 96
1, 99809, Note_off_c, 1, 74, 96
1, 99809, Note_on_c, 1, 86, 96
1, 99810, Note_off_c, 1, 86, 96
1, 99926, Note_on_c, 1, 53, 96
1, 99928, Note_off_c, 1, 53, 96
1, 99928, Note_on_c, 1, 74, 96
1, 99929, Note_off_c, 1, 74, 96
1, 99931, Note_on_c, 1, 86, 96
1, 99933, Note_off_c, 1, 86, 96
1, 99933, Note_on_c, 1, 57, 96
1, 99934, Note_off_c, 1, 57, 96
1, 99936, Note_on_c, 1, 50, 96
1, 99937, Note_off_c, 1, 50, 96
1, 100177, Note_on_c, 1, 54, 96
1, 100179, Note_off_c, 1, 54, 96
1, 100179, Note_on_c, 1, 76, 96
1, 100180, Note_off_c, 1, 76, 96
1, 100182, Note_on_c, 1, 42, 96
1, 100183, Note_off_c, 1, 42, 96
1, 100243, Note_on_c, 1, 68, 96
1, 100244, Note_off_c, 1, 68, 96
1, 100299, Note_on_c, 1, 55, 96
1, 100299, Note_on_c, 1, 43, 96
1, 100300, Note_off_c, 1, 55, 96
1, 100300, Note_off_c, 1, 43, 96
1, 100542, Note_on_c, 1, 64, 96
1, 100542, Note_on_c, 1, 36, 96
1, 100542, Note_on_c, 1, 48, 96
1, 100543, Note_off_c, 1, 64, 96
1, 100543, Note_off_c, 1, 36, 96
1, 100543, Note_off_c, 1, 48, 96
1, 100546, Note_on_c, 1, 67, 96
1, 100546, Note_on_c, 1, 72, 96
1, 100547, Note_off_c, 1, 67, 96
1, 100547, Note_off_c, 1, 72, 96
1, 100785, Note_on_c, 1, 76, 96
1, 100786, Note_off_c, 1, 76, 96
1, 100789, Note_on_c, 1, 55, 96
1, 100790, Note_off_c, 1, 55, 96
1, 100874, Note_on_c, 1, 72, 96
1, 100875, Note_off_c, 1, 72, 96
1, 100902, Note_on_c, 1, 74, 96
1, 100903, Note_off_c, 1, 74, 96
1, 101022, Note_on_c, 1, 76, 96
1, 101023, Note_off_c, 1, 76, 96
1, 101027, Note_on_c, 1, 60, 96
1, 101028, Note_off_c, 1, 60, 96
1, 101030, Note_on_c, 1, 64, 96
1, 101032, Note_off_c, 1, 64, 96
1, 101032, Note_on_c, 1, 58, 96
1, 101033, Note_off_c, 1, 58, 96
1, 101147, Note_on_c, 1, 45, 96
1, 101148, Note_off_c, 1, 45, 96
1, 101152, Note_on_c, 1, 75, 96
1, 101153, Note_off_c, 1, 75, 96
1, 101156, Note_on_c, 1, 68, 96
1, 101156, Note_on_c, 1, 57, 96
1, 101157, Note_off_c, 1, 68, 96
1, 101157, Note_off_c, 1, 57, 96
1, 101273, Note_on_c, 1, 67, 96
1, 101275, Note_off_c, 1, 67, 96
1, 101275, Note_on_c, 1, 55, 96
1, 101276, Note_off_c, 1, 55, 96
1, 101278, Note_on_c, 1, 60, 96
1, 101279, Note_off_c, 1, 60, 96
1, 101517, Note_on_c, 1, 60, 96
1, 101517, Note_on_c, 1, 64, 96
1, 101519, Note_off_c, 1, 60, 96
1, 101519, Note_off_c, 1, 64, 96
1, 101519, Note_on_c, 1, 76, 96
1, 101520, Note_off_c, 1, 76, 96
1, 101524, Note_on_c, 1, 55, 96
1, 101526, Note_off_c, 1, 55, 96
1, 101526, Note_on_c, 1, 69, 96
1, 101527, Note_off_c, 1, 69, 96
1, 101644, Note_on_c, 1, 71, 96
1, 101645, Note_off_c, 1, 71, 96
1, 101648, Note_on_c, 1, 77, 96
1, 101648, Note_on_c, 1, 50, 96
1, 101649, Note_off_c, 1, 77, 96
1, 101649, Note_off_c, 1, 50, 96
1, 101710, Note_on_c, 1, 76, 96
1, 101711, Note_off_c, 1, 76, 96
1, 101714, Note_on_c, 1, 79, 96
1, 101715, Note_off_c, 1, 79, 96
1, 101774, Note_on_c, 1, 72, 96
1, 101774, Note_on_c, 1, 55, 96
1, 101776, Note_off_c, 1, 72, 96
1, 101776, Note_off_c, 1, 55, 96
1, 101776, Note_on_c, 1, 64, 96
1, 101779, Note_off_c, 1, 64, 96
1, 101779, Note_on_c, 1, 76, 96
1, 101779, Note_on_c, 1, 60, 96
1, 101780, Note_off_c, 1, 76, 96
1, 101780, Note_off_c, 1, 60, 96
1, 101835, Note_on_c, 1, 72, 96
1, 101836, Note_off_c, 1, 72, 96
1, 101841, Note_on_c, 1, 76, 96
1, 101842, Note_off_c, 1, 76, 96
1, 101901, Note_on_c, 1, 43, 96
1, 101901, Note_on_c, 1, 55, 96
1, 101902, Note_off_c, 1, 43, 96
1, 101902, Note_off_c, 1, 55, 96
1, 101962, Note_on_c, 1, 81, 96
1, 101962, Note_on_c, 1, 69, 96
1, 101963, Note_off_c, 1, 81, 96
1, 101963, Note_off_c, 1, 69, 96
1, 102020, Note_on_c, 1, 52, 96
1, 102023, Note_off_c, 1, 52, 96
1, 102023, Note_on_c, 1, 76, 96
1, 102023, Note_on_c, 1, 40, 96
1, 102025, Note_off_c, 1, 76, 96
1, 102025, Note_off_c, 1, 40, 96
1, 102025, Note_on_c, 1, 80, 96
1, 102026, Note_off_c, 1, 80, 96
1, 102029, Note_on_c, 1, 71, 96
1, 102030, Note_off_c, 1, 71, 96
1, 102271, Note_on_c, 1, 40, 96
1, 102272, Note_off_c, 1, 40, 96
1, 102274, Note_on_c, 1, 52, 96
1, 102275, Note_off_c, 1, 52, 96
1, 102332, Note_on_c, 1, 62, 96
1, 102333, Note_off_c, 1, 62, 96
1, 102335, Note_on_c, 1, 79, 96
1, 102337, Note_off_c, 1, 79, 96
1, 102337, Note_on_c, 1, 67, 96
1, 102338, Note_off_c, 1, 67, 96
1, 102396, Note_on_c, 1, 81, 96
1, 102398, Note_off_c, 1, 81, 96
1, 102398, Note_on_c, 1, 69, 96
1, 102399, Note_off_c, 1, 69, 96
1, 102460, Note_on_c, 1, 71, 96
1, 102461, Note_off_c, 1, 71, 96
1, 102521, Note_on_c, 1, 59, 96
1, 102522, Note_off_c, 1, 59, 96
1, 102525, Note_on_c, 1, 71, 96
1, 102526, Note_off_c, 1, 71, 96
1, 102581, Note_on_c, 1, 69, 96
1, 102582, Note_off_c, 1, 69, 96
1, 102640, Note_on_c, 1, 43, 96
1, 102641, Note_off_c, 1, 43, 96
1, 102705, Note_on_c, 1, 73, 96
1, 102706, Note_off_c, 1, 73, 96
1, 102762, Note_on_c, 1, 45, 96
1, 102763, Note_off_c, 1, 45, 96
1, 102822, Note_on_c, 1, 66, 96
1, 102823, Note_off_c, 1, 66, 96
1, 102886, Note_on_c, 1, 55, 96
1, 102887, Note_off_c, 1, 55, 96
1, 102891, Note_on_c, 1, 67, 96
1, 102893, Note_off_c, 1, 67, 96
1, 102893, Note_on_c, 1, 59, 96
1, 102895, Note_off_c, 1, 59, 96
1, 102895, Note_on_c, 1, 50, 96
1, 102896, Note_off_c, 1, 50, 96
1, 103134, Note_on_c, 1, 58, 96
1, 103134, Note_on_c, 1, 53, 96
1, 103137, Note_off_c, 1, 58, 96
1, 103137, Note_off_c, 1, 53, 96
1, 103137, Note_on_c, 1, 50, 96
1, 103137, Note_on_c, 1, 55, 96
1, 103138, Note_off_c, 1, 50, 96
1, 103138, Note_off_c, 1, 55, 96
1, 103140, Note_on_c, 1, 58, 96
1, 103141, Note_off_c, 1, 58, 96
1, 103385, Note_on_c, 1, 79, 96
1, 103387, Note_off_c, 1, 79, 96
1, 103387, Note_on_c, 1, 43, 96
1, 103388, Note_off_c, 1, 43, 96
1, 103390, Note_on_c, 1, 67, 96
1, 103391, Note_off_c, 1, 67, 96
1, 103508, Note_on_c, 1, 55, 96
1, 103508, Note_on_c, 1, 43, 96
1, 103509, Note_off_c, 1, 55, 96
1, 103509, Note_off_c, 1, 43, 96
1, 103750, Note_on_c, 1, 77, 96
1, 103751, Note_off_c, 1, 77, 96
1, 103753, Note_on_c, 1, 55, 96
1, 103756, Note_off_c, 1, 55, 96
1, 103756, Note_on_c, 1, 59, 96
1, 103756, Note_on_c, 1, 53, 96
1, 103757, Note_off_c, 1, 59, 96
1, 103757, Note_off_c, 1, 53, 96
1, 103761, Note_on_c, 1, 83, 96
1, 103762, Note_off_c, 1, 83, 96
1, 103877, Note_on_c, 1, 62, 96
1, 103877, Note_on_c, 1, 65, 96
1, 103879, Note_off_c, 1, 62, 96
1, 103879, Note_off_c, 1, 65, 96
1, 103879, Note_on_c, 1, 86, 96
1, 103882, Note_off_c, 1, 86, 96
1, 103882, Note_on_c, 1, 76, 96
1, 103882, Note_on_c, 1, 55, 96
1, 103883, Note_off_c, 1, 76, 96
1, 103883, Note_off_c, 1, 55, 96
1, 103886, Note_on_c, 1, 74, 96
1, 103887, Note_off_c, 1, 74, 96
1, 103999, Note_on_c, 1, 59, 96
1, 104000, Note_off_c, 1, 59, 96
1, 104004, Note_on_c, 1, 62, 96
1, 104005, Note_off_c, 1, 62, 96
1, 104245, Note_on_c, 1, 71, 96
1, 104245, Note_on_c, 1, 55, 96
1, 104246, Note_off_c, 1, 71, 96
1, 104246, Note_off_c, 1, 55, 96
1, 104250, Note_on_c, 1, 81, 96
1, 104250, Note_on_c, 1, 43, 96
1, 104252, Note_off_c, 1, 81, 96
1, 104252, Note_off_c, 1, 43, 96
1, 104252, Note_on_c, 1, 77, 96
1, 104253, Note_off_c, 1, 77, 96
1, 104369, Note_on_c, 1, 77, 96
1, 104369, Note_on_c, 1, 65, 96
1, 104369, Note_on_c, 1, 62, 96
1, 104371, Note_off_c, 1, 77, 96
1, 104371, Note_off_c, 1, 65, 96
1, 104371, Note_off_c, 1, 62, 96
1, 104371, Note_on_c, 1, 55, 96
1, 104373, Note_off_c, 1, 55, 96
1, 104373, Note_on_c, 1, 59, 96
1, 104374, Note_off_c, 1, 59, 96
1, 104556, Note_on_c, 1, 79, 96
1, 104557, Note_off_c, 1, 79, 96
1, 104615, Note_on_c, 1, 48, 96
1, 104616, Note_off_c, 1, 48, 96
1, 104619, Note_on_c, 1, 72, 96
1, 104620, Note_off_c, 1, 72, 96
1, 104740, Note_on_c, 1, 76, 96
1, 104741, Note_off_c, 1, 76, 96
1, 104861, Note_on_c, 1, 72, 96
1, 104861, Note_on_c, 1, 64, 96
1, 104862, Note_off_c, 1, 72, 96
1, 104862, Note_off_c, 1, 64, 96
1, 104869, Note_on_c, 1, 79, 96
1, 104869, Note_on_c, 1, 55, 96
1, 104871, Note_off_c, 1, 79, 96
1, 104871, Note_off_c, 1, 55, 96
1, 104871, Note_on_c, 1, 60, 96
1, 104872, Note_off_c, 1, 60, 96
1, 104929, Note_on_c, 1, 81, 96
1, 104930, Note_off_c, 1, 81, 96
1, 104988, Note_on_c, 1, 74, 96
1, 104989, Note_off_c, 1, 74, 96
1, 105112, Note_on_c, 1, 79, 96
1, 105113, Note_off_c, 1, 79, 96
1, 105234, Note_on_c, 1, 72, 96
1, 105237, Note_off_c, 1, 72, 96
1, 105237, Note_on_c, 1, 78, 96
1, 105237, Note_on_c, 1, 52, 96
1, 105238, Note_off_c, 1, 78, 96
1, 105238, Note_off_c, 1, 52, 96
1, 105240, Note_on_c, 1, 40, 96
1, 105241, Note_off_c, 1, 40, 96
1, 105360, Note_on_c, 1, 75, 96
1, 105361, Note_off_c, 1, 75, 96
1, 105479, Note_on_c, 1, 69, 96
1, 105480, Note_off_c, 1, 69, 96
1, 105483, Note_on_c, 1, 45, 96
1, 105485, Note_off_c, 1, 45, 96
1, 105485, Note_on_c, 1, 57, 96
1, 105487, Note_off_c, 1, 57, 96
1, 105487, Note_on_c, 1, 81, 96
1, 105488, Note_off_c, 1, 81, 96
1, 105603, Note_on_c, 1, 54, 96
1, 105604, Note_off_c, 1, 54, 96
1, 105610, Note_on_c, 1, 60, 96
1, 105610, Note_on_c, 1, 50, 96
1, 105611, Note_off_c, 1, 60, 96
1, 105611, Note_off_c, 1, 50, 96
1, 105642, Note_on_c, 1, 71, 96
1, 105643, Note_off_c, 1, 71, 96
1, 105800, Note_on_c, 1, 72, 96
1, 105801, Note_off_c, 1, 72, 96
1, 105834, Note_on_c, 1, 54, 96
1, 105835, Note_off_c, 1, 54, 96
1, 105839, Note_on_c, 1, 60, 96
1, 105840, Note_off_c, 1, 60, 96
1, 105842, Note_on_c, 1, 50, 96
1, 105843, Note_off_c, 1, 50, 96
1, 105962, Note_on_c, 1, 55, 96
1, 105963, Note_off_c, 1, 55, 96
1, 105965, Note_on_c, 1, 43, 96
1, 105966, Note_off_c, 1, 43, 96
1, 106049, Note_on_c, 1, 69, 96
1, 106050, Note_off_c, 1, 69, 96
1, 106077, Note_on_c, 1, 67, 96
1, 106078, Note_off_c, 1, 67, 96
1, 106080, Note_on_c, 1, 55, 96
1, 106081, Note_off_c, 1, 55, 96
1, 106084, Note_on_c, 1, 59, 96
1, 106085, Note_off_c, 1, 59, 96
1, 106087, Note_on_c, 1, 53, 96
1, 106088, Note_off_c, 1, 53, 96
1, 106176, Note_on_c, 1, 66, 96
1, 106177, Note_off_c, 1, 66, 96
1, 106204, Note_on_c, 1, 73, 96
1, 106204, Note_on_c, 1, 41, 96
1, 106204, Note_on_c, 1, 53, 96
1, 106205, Note_off_c, 1, 73, 96
1, 106205, Note_off_c, 1, 41, 96
1, 106205, Note_off_c, 1, 53, 96
1, 106267, Note_on_c, 1, 65, 96
1, 106269, Note_off_c, 1, 65, 96
1, 106269, Note_on_c, 1, 69, 96
1, 106271, Note_off_c, 1, 69, 96
1, 106271, Note_on_c, 1, 74, 96
1, 106272, Note_off_c, 1, 74, 96
1, 106312, Note_on_c, 1, 69, 96
1, 106312, Note_on_c, 1, 48, 96
1, 106312, Note_on_c, 1, 41, 96
1, 106313, Note_off_c, 1, 69, 96
1, 106313, Note_off_c, 1, 48, 96
1, 106313, Note_off_c, 1, 41, 96
1, 106411, Note_on_c, 1, 65, 96
1, 106412, Note_off_c, 1, 65, 96
1, 106415, Note_on_c, 1, 57, 96
1, 106416, Note_off_c, 1, 57, 96
1, 106421, Note_on_c, 1, 53, 96
1, 106422, Note_off_c, 1, 53, 96
1, 106581, Note_on_c, 1, 71, 96
1, 106582, Note_off_c, 1, 71, 96
1, 106591, Note_on_c, 1, 43, 96
1, 106591, Note_on_c, 1, 55, 96
1, 106592, Note_off_c, 1, 43, 96
1, 106592, Note_off_c, 1, 55, 96
1, 106635, Note_on_c, 1, 35, 96
1, 106636, Note_off_c, 1, 35, 96
1, 107219, Note_on_c, 1, 79, 96
1, 107219, Note_on_c, 1, 55, 96
1, 107219, Note_on_c, 1, 64, 96
1, 107219, Note_on_c, 1, 60, 96
1, 107220, Note_off_c, 1, 79, 96
1, 107220, Note_off_c, 1, 55, 96
1, 107220, Note_off_c, 1, 64, 96
1, 107220, Note_off_c, 1, 60, 96
1, 107223, Note_on_c, 1, 76, 96
1, 107224, Note_off_c, 1, 76, 96
1, 107226, Note_on_c, 1, 84, 96
1, 107227, Note_off_c, 1, 84, 96
1, 107343, Note_on_c, 1, 76, 96
1, 107345, Note_off_c, 1, 76, 96
1, 107345, Note_on_c, 1, 69, 96
1, 107346, Note_off_c, 1, 69, 96
1, 107349, Note_on_c, 1, 81, 96
1, 107350, Note_off_c, 1, 81, 96
1, 107467, Note_on_c, 1, 74, 96
1, 107468, Note_off_c, 1, 74, 96
1, 107471, Note_on_c, 1, 81, 96
1, 107472, Note_off_c, 1, 81, 96
1, 107474, Note_on_c, 1, 62, 96
1, 107475, Note_off_c, 1, 62, 96
1, 107589, Note_on_c, 1, 52, 96
1, 107590, Note_off_c, 1, 52, 96
1, 107592, Note_on_c, 1, 79, 96
1, 107594, Note_off_c, 1, 79, 96
1, 107594, Note_on_c, 1, 72, 96
1, 107596, Note_off_c, 1, 72, 96
1, 107596, Note_on_c, 1, 84, 96
1, 107597, Note_off_c, 1, 84, 96
1, 107711, Note_on_c, 1, 87, 96
1, 107713, Note_off_c, 1, 87, 96
1, 107713, Note_on_c, 1, 81, 96
1, 107715, Note_off_c, 1, 81, 96
1, 107715, Note_on_c, 1, 78, 96
1, 107716, Note_off_c, 1, 78, 96
1, 107836, Note_on_c, 1, 50, 96
1, 107837, Note_off_c, 1, 50, 96
1, 107840, Note_on_c, 1, 38, 96
1, 107841, Note_off_c, 1, 38, 96
1, 107960, Note_on_c, 1, 76, 96
1, 107961, Note_off_c, 1, 76, 96
1, 107963, Note_on_c, 1, 86, 96
1, 107965, Note_off_c, 1, 86, 96
1, 107965, Note_on_c, 1, 88, 96
1, 107966, Note_off_c, 1, 88, 96
1, 108025, Note_on_c, 1, 83, 96
1, 108027, Note_off_c, 1, 83, 96
1, 108027, Note_on_c, 1, 71, 96
1, 108028, Note_off_c, 1, 71, 96
1, 108143, Note_on_c, 1, 38, 96
1, 108144, Note_off_c, 1, 38, 96
1, 108150, Note_on_c, 1, 50, 96
1, 108151, Note_off_c, 1, 50, 96
1, 108265, Note_on_c, 1, 79, 96
1, 108266, Note_off_c, 1, 79, 96
1, 108388, Note_on_c, 1, 77, 96
1, 108389, Note_off_c, 1, 77, 96
1, 108394, Note_on_c, 1, 59, 96
1, 108396, Note_off_c, 1, 59, 96
1, 108396, Note_on_c, 1, 47, 96
1, 108397, Note_off_c, 1, 47, 96
1, 108511, Note_on_c, 1, 48, 96
1, 108512, Note_off_c, 1, 48, 96
1, 108516, Note_on_c, 1, 36, 96
1, 108517, Note_off_c, 1, 36, 96
1, 108635, Note_on_c, 1, 57, 96
1, 108636, Note_off_c, 1, 57, 96
1, 108638, Note_on_c, 1, 65, 96
1, 108639, Note_off_c, 1, 65, 96
1, 108641, Note_on_c, 1, 60, 96
1, 108642, Note_off_c, 1, 60, 96
1, 108758, Note_on_c, 1, 36, 96
1, 108759, Note_off_c, 1, 36, 96
1, 108764, Note_on_c, 1, 48, 96
1, 108765, Note_off_c, 1, 48, 96
1, 108881, Note_on_c, 1, 58, 96
1, 108882, Note_off_c, 1, 58, 96
1, 108884, Note_on_c, 1, 64, 96
1, 108886, Note_off_c, 1, 64, 96
1, 108886, Note_on_c, 1, 60, 96
1, 108887, Note_off_c, 1, 60, 96
1, 109010, Note_on_c, 1, 72, 96
1, 109010, Note_on_c, 1, 70, 96
1, 109010, Note_on_c, 1, 64, 96
1, 109011, Note_off_c, 1, 72, 96
1, 109011, Note_off_c, 1, 70, 96
1, 109011, Note_off_c, 1, 64, 96
1, 109128, Note_on_c, 1, 41, 96
1, 109129, Note_off_c, 1, 41, 96
1, 109131, Note_on_c, 1, 53, 96
1, 109132, Note_off_c, 1, 53, 96
1, 109371, Note_on_c, 1, 63, 96
1, 109373, Note_off_c, 1, 63, 96
1, 109373, Note_on_c, 1, 57, 96
1, 109374, Note_off_c, 1, 57, 96
1, 109379, Note_on_c, 1, 72, 96
1, 109379, Note_on_c, 1, 72, 96
1, 109380, Note_off_c, 1, 72, 96
1, 109380, Note_off_c, 1, 72, 96
1, 109382, Note_on_c, 1, 60, 96
1, 109383, Note_off_c, 1, 60, 96
1, 109622, Note_on_c, 1, 76, 96
1, 109622, Note_on_c, 1, 48, 96
1, 109623, Note_off_c, 1, 76, 96
1, 109623, Note_off_c, 1, 48, 96
1, 109626, Note_on_c, 1, 60, 96
1, 109628, Note_off_c, 1, 60, 96
1, 109628, Note_on_c, 1, 79, 96
1, 109629, Note_off_c, 1, 79, 96
1, 109869, Note_on_c, 1, 79, 96
1, 109871, Note_off_c, 1, 79, 96
1, 109871, Note_on_c, 1, 58, 96
1, 109872, Note_off_c, 1, 58, 96
1, 109874, Note_on_c, 1, 60, 96
1, 109875, Note_off_c, 1, 60, 96
1, 109877, Note_on_c, 1, 64, 96
1, 109880, Note_off_c, 1, 64, 96
1, 109880, Note_on_c, 1, 67, 96
1, 109880, Note_on_c, 1, 72, 96
1, 109881, Note_off_c, 1, 67, 96
1, 109881, Note_off_c, 1, 72, 96
1, 109998, Note_on_c, 1, 79, 96
1, 110000, Note_off_c, 1, 79, 96
1, 110000, Note_on_c, 1, 67, 96
1, 110001, Note_off_c, 1, 67, 96
1, 110003, Note_on_c, 1, 76, 96
1, 110004, Note_off_c, 1, 76, 96
1, 110125, Note_on_c, 1, 41, 96
1, 110126, Note_off_c, 1, 41, 96
1, 110128, Note_on_c, 1, 53, 96
1, 110129, Note_off_c, 1, 53, 96
1, 110246, Note_on_c, 1, 81, 96
1, 110247, Note_off_c, 1, 81, 96
1, 110249, Note_on_c, 1, 69, 96
1, 110250, Note_off_c, 1, 69, 96
1, 110374, Note_on_c, 1, 81, 96
1, 110374, Note_on_c, 1, 89, 96
1, 110375, Note_off_c, 1, 81, 96
1, 110375, Note_off_c, 1, 89, 96
1, 110489, Note_on_c, 1, 79, 96
1, 110490, Note_off_c, 1, 79, 96
1, 110492, Note_on_c, 1, 74, 96
1, 110493, Note_off_c, 1, 74, 96
1, 110497, Note_on_c, 1, 70, 96
1, 110497, Note_on_c, 1, 82, 96
1, 110498, Note_off_c, 1, 70, 96
1, 110498, Note_off_c, 1, 82, 96
1, 110614, Note_on_c, 1, 74, 96
1, 110616, Note_off_c, 1, 74, 96
1, 110616, Note_on_c, 1, 86, 96
1, 110618, Note_off_c, 1, 86, 96
1, 110618, Note_on_c, 1, 62, 96
1, 110620, Note_off_c, 1, 62, 96
1, 110620, Note_on_c, 1, 82, 96
1, 110621, Note_off_c, 1, 82, 96
1, 110740, Note_on_c, 1, 86, 96
1, 110743, Note_off_c, 1, 86, 96
1, 110743, Note_on_c, 1, 74, 96
1, 110743, Note_on_c, 1, 82, 96
1, 110744, Note_off_c, 1, 74, 96
1, 110744, Note_off_c, 1, 82, 96
1, 110864, Note_on_c, 1, 77, 96
1, 110865, Note_off_c, 1, 77, 96
1, 110870, Note_on_c, 1, 89, 96
1, 110871, Note_off_c, 1, 89, 96
1, 110873, Note_on_c, 1, 41, 96
1, 110874, Note_off_c, 1, 41, 96
1, 110989, Note_on_c, 1, 53, 96
1, 110990, Note_off_c, 1, 53, 96
1, 110992, Note_on_c, 1, 41, 96
1, 110993, Note_off_c, 1, 41, 96
1, 111115, Note_on_c, 1, 82, 96
1, 111116, Note_off_c, 1, 82, 96
1, 111118, Note_on_c, 1, 86, 96
1, 111119, Note_off_c, 1, 86, 96
1, 111123, Note_on_c, 1, 74, 96
1, 111123, Note_on_c, 1, 58, 96
1, 111123, Note_on_c, 1, 46, 96
1, 111124, Note_off_c, 1, 74, 96
1, 111124, Note_off_c, 1, 58, 96
1, 111124, Note_off_c, 1, 46, 96
1, 111236, Note_on_c, 1, 77, 96
1, 111237, Note_off_c, 1, 77, 96
1, 111239, Note_on_c, 1, 89, 96
1, 111240, Note_off_c, 1, 89, 96
1, 111301, Note_on_c, 1, 86, 96
1, 111301, Note_on_c, 1, 79, 96
1, 111302, Note_off_c, 1, 86, 96
1, 111302, Note_off_c, 1, 79, 96
1, 111304, Note_on_c, 1, 55, 96
1, 111306, Note_off_c, 1, 55, 96
1, 111306, Note_on_c, 1, 43, 96
1, 111309, Note_off_c, 1, 43, 96
1, 111309, Note_on_c, 1, 89, 96
1, 111309, Note_on_c, 1, 77, 96
1, 111310, Note_off_c, 1, 89, 96
1, 111310, Note_off_c, 1, 77, 96
1, 111422, Note_on_c, 1, 55, 96
1, 111425, Note_off_c, 1, 55, 96
1, 111425, Note_on_c, 1, 60, 96
1, 111425, Note_on_c, 1, 50, 96
1, 111426, Note_off_c, 1, 60, 96
1, 111426, Note_off_c, 1, 50, 96
1, 111428, Note_on_c, 1, 89, 96
1, 111430, Note_off_c, 1, 89, 96
1, 111430, Note_on_c, 1, 84, 96
1, 111431, Note_off_c, 1, 84, 96
1, 111547, Note_on_c, 1, 84, 96
1, 111548, Note_off_c, 1, 84, 96
1, 111554, Note_on_c, 1, 43, 96
1, 111557, Note_off_c, 1, 43, 96
1, 111557, Note_on_c, 1, 74, 96
1, 111557, Note_on_c, 1, 55, 96
1, 111558, Note_off_c, 1, 74, 96
1, 111558, Note_off_c, 1, 55, 96
1, 111614, Note_on_c, 1, 72, 96
1, 111615, Note_off_c, 1, 72, 96
1, 111621, Note_on_c, 1, 84, 96
1, 111622, Note_off_c, 1, 84, 96
1, 111674, Note_on_c, 1, 62, 96
1, 111675, Note_off_c, 1, 62, 96
1, 111678, Note_on_c, 1, 59, 96
1, 111679, Note_off_c, 1, 59, 96
1, 111682, Note_on_c, 1, 55, 96
1, 111682, Note_on_c, 1, 65, 96
1, 111683, Note_off_c, 1, 55, 96
1, 111683, Note_off_c, 1, 65, 96
1, 111741, Note_on_c, 1, 88, 96
1, 111742, Note_off_c, 1, 88, 96
1, 111800, Note_on_c, 1, 84, 96
1, 111803, Note_off_c, 1, 84, 96
1, 111803, Note_on_c, 1, 57, 96
1, 111803, Note_on_c, 1, 45, 96
1, 111804, Note_off_c, 1, 57, 96
1, 111804, Note_off_c, 1, 45, 96
1, 111868, Note_on_c, 1, 81, 96
1, 111869, Note_off_c, 1, 81, 96
1, 111927, Note_on_c, 1, 65, 96
1, 111927, Note_on_c, 1, 59, 96
1, 111929, Note_off_c, 1, 65, 96
1, 111929, Note_off_c, 1, 59, 96
1, 111929, Note_on_c, 1, 79, 96
1, 111931, Note_off_c, 1, 79, 96
1, 111931, Note_on_c, 1, 55, 96
1, 111932, Note_off_c, 1, 55, 96
1, 111988, Note_on_c, 1, 84, 96
1, 111989, Note_off_c, 1, 84, 96
1, 112048, Note_on_c, 1, 55, 96
1, 112049, Note_off_c, 1, 55, 96
1, 112053, Note_on_c, 1, 65, 96
1, 112054, Note_off_c, 1, 65, 96
1, 112056, Note_on_c, 1, 65, 96
1, 112057, Note_off_c, 1, 65, 96
1, 112059, Note_on_c, 1, 59, 96
1, 112061, Note_off_c, 1, 59, 96
1, 112061, Note_on_c, 1, 86, 96
1, 112062, Note_off_c, 1, 86, 96
1, 112176, Note_on_c, 1, 50, 96
1, 112177, Note_off_c, 1, 50, 96
1, 112236, Note_on_c, 1, 77, 96
1, 112237, Note_off_c, 1, 77, 96
1, 112298, Note_on_c, 1, 67, 96
1, 112300, Note_off_c, 1, 67, 96
1, 112300, Note_on_c, 1, 57, 96
1, 112301, Note_off_c, 1, 57, 96
1, 112303, Note_on_c, 1, 69, 96
1, 112305, Note_off_c, 1, 69, 96
1, 112305, Note_on_c, 1, 45, 96
1, 112306, Note_off_c, 1, 45, 96
1, 112423, Note_on_c, 1, 45, 96
1, 112424, Note_off_c, 1, 45, 96
1, 112426, Note_on_c, 1, 66, 96
1, 112427, Note_off_c, 1, 66, 96
1, 112429, Note_on_c, 1, 76, 96
1, 112430, Note_off_c, 1, 76, 96
1, 112544, Note_on_c, 1, 50, 96
1, 112545, Note_off_c, 1, 50, 96
1, 112669, Note_on_c, 1, 64, 96
1, 112669, Note_on_c, 1, 67, 96
1, 112670, Note_off_c, 1, 64, 96
1, 112670, Note_off_c, 1, 67, 96
1, 112672, Note_on_c, 1, 76, 96
1, 112674, Note_off_c, 1, 76, 96
1, 112674, Note_on_c, 1, 60, 96
1, 112676, Note_off_c, 1, 60, 96
1, 112676, Note_on_c, 1, 55, 96
1, 112678, Note_off_c, 1, 55, 96
1, 112678, Note_on_c, 1, 79, 96
1, 112679, Note_off_c, 1, 79, 96
1, 112795, Note_on_c, 1, 78, 96
1, 112795, Note_on_c, 1, 49, 96
1, 112796, Note_off_c, 1, 78, 96
1, 112796, Note_off_c, 1, 49, 96
1, 112802, Note_on_c, 1, 37, 96
1, 112803, Note_off_c, 1, 37, 96
1, 112861, Note_on_c, 1, 76, 96
1, 112862, Note_off_c, 1, 76, 96
1, 112919, Note_on_c, 1, 55, 96
1, 112920, Note_off_c, 1, 55, 96
1, 112925, Note_on_c, 1, 77, 96
1, 112925, Note_on_c, 1, 59, 96
1, 112926, Note_off_c, 1, 77, 96
1, 112926, Note_off_c, 1, 59, 96
1, 113039, Note_on_c, 1, 57, 96
1, 113040, Note_off_c, 1, 57, 96
1, 113043, Note_on_c, 1, 78, 96
1, 113044, Note_off_c, 1, 78, 96
1, 113048, Note_on_c, 1, 74, 96
1, 113048, Note_on_c, 1, 62, 96
1, 113049, Note_off_c, 1, 74, 96
1, 113049, Note_off_c, 1, 62, 96
1, 113052, Note_on_c, 1, 86, 96
1, 113053, Note_off_c, 1, 86, 96
1, 113171, Note_on_c, 1, 54, 96
1, 113171, Note_on_c, 1, 50, 96
1, 113172, Note_off_c, 1, 54, 96
1, 113172, Note_off_c, 1, 50, 96
1, 113175, Note_on_c, 1, 60, 96
1, 113176, Note_off_c, 1, 60, 96
1, 113295, Note_on_c, 1, 67, 96
1, 113296, Note_off_c, 1, 67, 96
1, 113300, Note_on_c, 1, 79, 96
1, 113301, Note_off_c, 1, 79, 96
1, 113419, Note_on_c, 1, 43, 96
1, 113420, Note_off_c, 1, 43, 96
1, 113422, Note_on_c, 1, 88, 96
1, 113423, Note_off_c, 1, 88, 96
1, 113426, Note_on_c, 1, 76, 96
1, 113426, Note_on_c, 1, 55, 96
1, 113428, Note_off_c, 1, 76, 96
1, 113428, Note_off_c, 1, 55, 96
1, 113428, Note_on_c, 1, 79, 96
1, 113429, Note_off_c, 1, 79, 96
1, 113482, Note_on_c, 1, 76, 96
1, 113483, Note_off_c, 1, 76, 96
1, 113486, Note_on_c, 1, 79, 96
1, 113487, Note_off_c, 1, 79, 96
1, 113546, Note_on_c, 1, 60, 96
1, 113546, Note_on_c, 1, 64, 96
1, 113547, Note_off_c, 1, 60, 96
1, 113547, Note_off_c, 1, 64, 96
1, 113550, Note_on_c, 1, 55, 96
1, 113551, Note_off_c, 1, 55, 96
1, 113613, Note_on_c, 1, 81, 96
1, 113614, Note_off_c, 1, 81, 96
1, 113668, Note_on_c, 1, 54, 96
1, 113669, Note_off_c, 1, 54, 96
1, 113674, Note_on_c, 1, 50, 96
1, 113676, Note_off_c, 1, 50, 96
1, 113676, Note_on_c, 1, 60, 96
1, 113677, Note_off_c, 1, 60, 96
1, 113735, Note_on_c, 1, 79, 96
1, 113736, Note_off_c, 1, 79, 96
1, 113794, Note_on_c, 1, 60, 96
1, 113797, Note_off_c, 1, 60, 96
1, 113797, Note_on_c, 1, 72, 96
1, 113797, Note_on_c, 1, 66, 96
1, 113798, Note_off_c, 1, 72, 96
1, 113798, Note_off_c, 1, 66, 96
1, 113801, Note_on_c, 1, 50, 96
1, 113803, Note_off_c, 1, 50, 96
1, 113803, Note_on_c, 1, 62, 96
1, 113804, Note_off_c, 1, 62, 96
1, 113863, Note_on_c, 1, 79, 96
1, 113864, Note_off_c, 1, 79, 96
1, 113920, Note_on_c, 1, 70, 96
1, 113920, Note_on_c, 1, 55, 96
1, 113921, Note_off_c, 1, 70, 96
1, 113921, Note_off_c, 1, 55, 96
1, 113923, Note_on_c, 1, 76, 96
1, 113924, Note_off_c, 1, 76, 96
1, 113926, Note_on_c, 1, 43, 96
1, 113927, Note_off_c, 1, 43, 96
1, 113987, Note_on_c, 1, 67, 96
1, 113988, Note_off_c, 1, 67, 96
1, 114045, Note_on_c, 1, 76, 96
1, 114045, Note_on_c, 1, 36, 96
1, 114047, Note_off_c, 1, 76, 96
1, 114047, Note_off_c, 1, 36, 96
1, 114047, Note_on_c, 1, 72, 96
1, 114048, Note_off_c, 1, 72, 96
1, 114051, Note_on_c, 1, 64, 96
1, 114051, Note_on_c, 1, 48, 96
1, 114053, Note_off_c, 1, 64, 96
1, 114053, Note_off_c, 1, 48, 96
1, 114053, Note_on_c, 1, 69, 96
1, 114054, Note_off_c, 1, 69, 96
1, 114172, Note_on_c, 1, 69, 96
1, 114174, Note_off_c, 1, 69, 96
1, 114174, Note_on_c, 1, 72, 96
1, 114175, Note_off_c, 1, 72, 96
1, 114299, Note_on_c, 1, 79, 96
1, 114299, Note_on_c, 1, 52, 96
1, 114299, Note_on_c, 1, 55, 96
1, 114301, Note_off_c, 1, 79, 96
1, 114301, Note_off_c, 1, 52, 96
1, 114301, Note_off_c, 1, 55, 96
1, 114301, Note_on_c, 1, 60, 96
1, 114303, Note_off_c, 1, 60, 96
1, 114303, Note_on_c, 1, 70, 96
1, 114305, Note_off_c, 1, 70, 96
1, 114305, Note_on_c, 1, 58, 96
1, 114306, Note_off_c, 1, 58, 96
1, 114423, Note_on_c, 1, 72, 96
1, 114423, Note_on_c, 1, 65, 96
1, 114423, Note_on_c, 1, 63, 96
1, 114424, Note_off_c, 1, 72, 96
1, 114424, Note_off_c, 1, 65, 96
1, 114424, Note_off_c, 1, 63, 96
1, 114426, Note_on_c, 1, 57, 96
1, 114427, Note_off_c, 1, 57, 96
1, 114430, Note_on_c, 1, 77, 96
1, 114430, Note_on_c, 1, 60, 96
1, 114431, Note_off_c, 1, 77, 96
1, 114431, Note_off_c, 1, 60, 96
1, 114547, Note_on_c, 1, 48, 96
1, 114548, Note_off_c, 1, 48, 96
1, 114552, Note_on_c, 1, 74, 96
1, 114552, Note_on_c, 1, 70, 96
1, 114553, Note_off_c, 1, 74, 96
1, 114553, Note_off_c, 1, 70, 96
1, 114555, Note_on_c, 1, 79, 96
1, 114556, Note_off_c, 1, 79, 96
1, 114615, Note_on_c, 1, 78, 96
1, 114616, Note_off_c, 1, 78, 96
1, 114674, Note_on_c, 1, 70, 96
1, 114675, Note_off_c, 1, 70, 96
1, 114678, Note_on_c, 1, 76, 96
1, 114678, Note_on_c, 1, 48, 96
1, 114679, Note_off_c, 1, 76, 96
1, 114679, Note_off_c, 1, 48, 96
1, 114682, Note_on_c, 1, 60, 96
1, 114683, Note_off_c, 1, 60, 96
1, 114741, Note_on_c, 1, 76, 96
1, 114742, Note_off_c, 1, 76, 96
1, 114797, Note_on_c, 1, 58, 96
1, 114801, Note_off_c, 1, 58, 96
1, 114801, Note_on_c, 1, 70, 96
1, 114801, Note_on_c, 1, 64, 96
1, 114801, Note_on_c, 1, 52, 96
1, 114802, Note_off_c, 1, 70, 96
1, 114802, Note_off_c, 1, 64, 96
1, 114802, Note_off_c, 1, 52, 96
1, 114806, Note_on_c, 1, 64, 96
1, 114806, Note_on_c, 1, 48, 96
1, 114808, Note_off_c, 1, 64, 96
1, 114808, Note_off_c, 1, 48, 96
1, 114808, Note_on_c, 1, 76, 96
1, 114809, Note_off_c, 1, 76, 96
1, 115046, Note_on_c, 1, 69, 96
1, 115048, Note_off_c, 1, 69, 96
1, 115048, Note_on_c, 1, 41, 96
1, 115050, Note_off_c, 1, 41, 96
1, 115050, Note_on_c, 1, 81, 96
1, 115051, Note_off_c, 1, 81, 96
1, 115057, Note_on_c, 1, 77, 96
1, 115058, Note_off_c, 1, 77, 96
1, 115179, Note_on_c, 1, 84, 96
1, 115179, Note_on_c, 1, 75, 96
1, 115181, Note_off_c, 1, 84, 96
1, 115181, Note_off_c, 1, 75, 96
1, 115181, Note_on_c, 1, 41, 96
1, 115183, Note_off_c, 1, 41, 96
1, 115183, Note_on_c, 1, 53, 96
1, 115185, Note_off_c, 1, 53, 96
1, 115185, Note_on_c, 1, 77, 96
1, 115186, Note_off_c, 1, 77, 96
1, 115301, Note_on_c, 1, 74, 96
1, 115303, Note_off_c, 1, 74, 96
1, 115303, Note_on_c, 1, 78, 96
1, 115304, Note_off_c, 1, 78, 96
1, 115425, Note_on_c, 1, 76, 96
1, 115427, Note_off_c, 1, 76, 96
1, 115427, Note_on_c, 1, 60, 96
1, 115428, Note_off_c, 1, 60, 96
1, 115430, Note_on_c, 1, 55, 96
1, 115432, Note_off_c, 1, 55, 96
1, 115432, Note_on_c, 1, 64, 96
1, 115433, Note_off_c, 1, 64, 96
1, 115550, Note_on_c, 1, 69, 96
1, 115551, Note_off_c, 1, 69, 96
1, 115555, Note_on_c, 1, 81, 96
1, 115556, Note_off_c, 1, 81, 96
1, 115558, Note_on_c, 1, 72, 96
1, 115559, Note_off_c, 1, 72, 96
1, 115671, Note_on_c, 1, 72, 96
1, 115674, Note_off_c, 1, 72, 96
1, 115674, Note_on_c, 1, 79, 96
1, 115674, Note_on_c, 1, 51, 96
1, 115675, Note_off_c, 1, 79, 96
1, 115675, Note_off_c, 1, 51, 96
1, 115734, Note_on_c, 1, 72, 96
1, 115735, Note_off_c, 1, 72, 96
1, 115738, Note_on_c, 1, 81, 96
1, 115739, Note_off_c, 1, 81, 96
1, 115798, Note_on_c, 1, 75, 96
1, 115799, Note_off_c, 1, 75, 96
1, 115802, Note_on_c, 1, 40, 96
1, 115802, Note_on_c, 1, 51, 96
1, 115803, Note_off_c, 1, 40, 96
1, 115803, Note_off_c, 1, 51, 96
1, 115916, Note_on_c, 1, 79, 96
1, 115918, Note_off_c, 1, 79, 96
1, 115918, Note_on_c, 1, 75, 96
1, 115919, Note_off_c, 1, 75, 96
1, 115923, Note_on_c, 1, 69, 96
1, 115924, Note_off_c, 1, 69, 96
1, 115926, Note_on_c, 1, 43, 96
1, 115928, Note_off_c, 1, 43, 96
1, 115928, Note_on_c, 1, 55, 96
1, 115929, Note_off_c, 1, 55, 96
1, 116048, Note_on_c, 1, 39, 96
1, 116050, Note_off_c, 1, 39, 96
1, 116050, Note_on_c, 1, 51, 96
1, 116051, Note_off_c, 1, 51, 96
1, 116169, Note_on_c, 1, 44, 96
1, 116170, Note_off_c, 1, 44, 96
1, 116173, Note_on_c, 1, 63, 96
1, 116173, Note_on_c, 1, 56, 96
1, 116174, Note_off_c, 1, 63, 96
1, 116174, Note_off_c, 1, 56, 96
1, 116238, Note_on_c, 1, 77, 96
1, 116239, Note_off_c, 1, 77, 96
1, 116295, Note_on_c, 1, 56, 96
1, 116295, Note_on_c, 1, 60, 96
1, 116298, Note_off_c, 1, 56, 96
1, 116298, Note_off_c, 1, 60, 96
1, 116298, Note_on_c, 1, 66, 96
1, 116298, Note_on_c, 1, 51, 96
1, 116299, Note_off_c, 1, 66, 96
1, 116299, Note_off_c, 1, 51, 96
1, 116304, Note_on_c, 1, 68, 96
1, 116305, Note_off_c, 1, 68, 96
1, 116358, Note_on_c, 1, 72, 96
1, 116361, Note_off_c, 1, 72, 96
1, 116361, Note_on_c, 1, 75, 96
1, 116361, Note_on_c, 1, 66, 96
1, 116362, Note_off_c, 1, 75, 96
1, 116362, Note_off_c, 1, 66, 96
1, 116425, Note_on_c, 1, 75, 96
1, 116425, Note_on_c, 1, 63, 96
1, 116427, Note_off_c, 1, 75, 96
1, 116427, Note_off_c, 1, 63, 96
1, 116427, Note_on_c, 1, 63, 96
1, 116429, Note_off_c, 1, 63, 96
1, 116429, Note_on_c, 1, 58, 96
1, 116433, Note_off_c, 1, 58, 96
1, 116433, Note_on_c, 1, 75, 96
1, 116433, Note_on_c, 1, 74, 96
1, 116433, Note_on_c, 1, 54, 96
1, 116434, Note_off_c, 1, 75, 96
1, 116434, Note_off_c, 1, 74, 96
1, 116434, Note_off_c, 1, 54, 96
1, 116489, Note_on_c, 1, 70, 96
1, 116491, Note_off_c, 1, 70, 96
1, 116491, Note_on_c, 1, 75, 96
1, 116493, Note_off_c, 1, 75, 96
1, 116493, Note_on_c, 1, 79, 96
1, 116494, Note_off_c, 1, 79, 96
1, 116496, Note_on_c, 1, 67, 96
1, 116497, Note_off_c, 1, 67, 96
1, 116556, Note_on_c, 1, 63, 96
1, 116557, Note_off_c, 1, 63, 96
1, 116561, Note_on_c, 1, 79, 96
1, 116561, Note_on_c, 1, 75, 96
1, 116561, Note_on_c, 1, 72, 96
1, 116563, Note_off_c, 1, 79, 96
1, 116563, Note_off_c, 1, 75, 96
1, 116563, Note_off_c, 1, 72, 96
1, 116563, Note_on_c, 1, 58, 96
1, 116565, Note_off_c, 1, 58, 96
1, 116565, Note_on_c, 1, 67, 96
1, 116566, Note_off_c, 1, 67, 96
1, 116623, Note_on_c, 1, 70, 96
1, 116625, Note_off_c, 1, 70, 96
1, 116625, Note_on_c, 1, 78, 96
1, 116627, Note_off_c, 1, 78, 96
1, 116627, Note_on_c, 1, 66, 96
1, 116628, Note_off_c, 1, 66, 96
1, 116687, Note_on_c, 1, 78, 96
1, 116687, Note_on_c, 1, 55, 96
1, 116687, Note_on_c, 1, 67, 96
1, 116687, Note_on_c, 1, 43, 96
1, 116688, Note_off_c, 1, 78, 96
1, 116688, Note_off_c, 1, 55, 96
1, 116688, Note_off_c, 1, 67, 96
1, 116688, Note_off_c, 1, 43, 96
1, 116813, Note_on_c, 1, 70, 96
1, 116813, Note_on_c, 1, 75, 96
1, 116813, Note_on_c, 1, 67, 96
1, 116815, Note_off_c, 1, 70, 96
1, 116815, Note_off_c, 1, 75, 96
1, 116815, Note_off_c, 1, 67, 96
1, 116815, Note_on_c, 1, 51, 96
1, 116816, Note_off_c, 1, 51, 96
1, 116875, Note_on_c, 1, 75, 96
1, 116876, Note_off_c, 1, 75, 96
1, 116880, Note_on_c, 1, 69, 96
1, 116880, Note_on_c, 1, 66, 96
1, 116881, Note_off_c, 1, 69, 96
1, 116881, Note_off_c, 1, 66, 96
1, 116939, Note_on_c, 1, 79, 96
1, 116942, Note_off_c, 1, 79, 96
1, 116942, Note_on_c, 1, 67, 96
1, 116942, Note_on_c, 1, 57, 96
1, 116945, Note_off_c, 1, 67, 96
1, 116945, Note_off_c, 1, 57, 96
1, 116945, Note_on_c, 1, 75, 96
1, 116945, Note_on_c, 1, 45, 96
1, 116946, Note_off_c, 1, 75, 96
1, 116946, Note_off_c, 1, 45, 96
1, 117063, Note_on_c, 1, 73, 96
1, 117063, Note_on_c, 1, 65, 96
1, 117064, Note_off_c, 1, 73, 96
1, 117064, Note_off_c, 1, 65, 96
1, 117069, Note_on_c, 1, 77, 96
1, 117069, Note_on_c, 1, 43, 96
1, 117070, Note_off_c, 1, 77, 96
1, 117070, Note_off_c, 1, 43, 96
1, 117184, Note_on_c, 1, 68, 96
1, 117185, Note_off_c, 1, 68, 96
1, 117192, Note_on_c, 1, 51, 96
1, 117192, Note_on_c, 1, 39, 96
1, 117194, Note_off_c, 1, 51, 96
1, 117194, Note_off_c, 1, 39, 96
1, 117194, Note_on_c, 1, 77, 96
1, 117195, Note_off_c, 1, 77, 96
1, 117197, Note_on_c, 1, 73, 96
1, 117198, Note_off_c, 1, 73, 96
1, 117249, Note_on_c, 1, 73, 96
1, 117250, Note_off_c, 1, 73, 96
1, 117253, Note_on_c, 1, 75, 96
1, 117254, Note_off_c, 1, 75, 96
1, 117256, Note_on_c, 1, 67, 96
1, 117257, Note_off_c, 1, 67, 96
1, 117318, Note_on_c, 1, 46, 96
1, 117319, Note_off_c, 1, 46, 96
1, 117437, Note_on_c, 1, 53, 96
1, 117437, Note_on_c, 1, 58, 96
1, 117439, Note_off_c, 1, 53, 96
1, 117439, Note_off_c, 1, 58, 96
1, 117439, Note_on_c, 1, 80, 96
1, 117441, Note_off_c, 1, 80, 96
1, 117441, Note_on_c, 1, 56, 96
1, 117443, Note_off_c, 1, 56, 96
1, 117443, Note_on_c, 1, 61, 96
1, 117444, Note_off_c, 1, 61, 96
1, 117447, Note_on_c, 1, 68, 96
1, 117448, Note_off_c, 1, 68, 96
1, 117566, Note_on_c, 1, 55, 96
1, 117567, Note_off_c, 1, 55, 96
1, 117573, Note_on_c, 1, 63, 96
1, 117573, Note_on_c, 1, 61, 96
1, 117574, Note_off_c, 1, 63, 96
1, 117574, Note_off_c, 1, 61, 96
1, 117689, Note_on_c, 1, 87, 96
1, 117690, Note_off_c, 1, 87, 96
1, 117696, Note_on_c, 1, 75, 96
1, 117696, Note_on_c, 1, 51, 96
1, 117697, Note_off_c, 1, 75, 96
1, 117697, Note_off_c, 1, 51, 96
1, 117752, Note_on_c, 1, 58, 96
1, 117754, Note_off_c, 1, 58, 96
1, 117754, Note_on_c, 1, 49, 96
1, 117755, Note_off_c, 1, 49, 96
1, 117820, Note_on_c, 1, 75, 96
1, 117820, Note_on_c, 1, 72, 96
1, 117822, Note_off_c, 1, 75, 96
1, 117822, Note_off_c, 1, 72, 96
1, 117822, Note_on_c, 1, 68, 96
1, 117823, Note_off_c, 1, 68, 96
1, 117825, Note_on_c, 1, 78, 96
1, 117826, Note_off_c, 1, 78, 96
1, 117880, Note_on_c, 1, 48, 96
1, 117881, Note_off_c, 1, 48, 96
1, 117885, Note_on_c, 1, 60, 96
1, 117886, Note_off_c, 1, 60, 96
1, 117942, Note_on_c, 1, 82, 96
1, 117943, Note_off_c, 1, 82, 96
1, 118002, Note_on_c, 1, 80, 96
1, 118002, Note_on_c, 1, 72, 96
1, 118003, Note_off_c, 1, 80, 96
1, 118003, Note_off_c, 1, 72, 96
1, 118006, Note_on_c, 1, 84, 96
1, 118006, Note_on_c, 1, 51, 96
1, 118007, Note_off_c, 1, 84, 96
1, 118007, Note_off_c, 1, 51, 96
1, 118009, Note_on_c, 1, 56, 96
1, 118011, Note_off_c, 1, 56, 96
1, 118011, Note_on_c, 1, 60, 96
1, 118012, Note_off_c, 1, 60, 96
1, 118127, Note_on_c, 1, 51, 96
1, 118128, Note_off_c, 1, 51, 96
1, 118131, Note_on_c, 1, 84, 96
1, 118134, Note_off_c, 1, 84, 96
1, 118134, Note_on_c, 1, 77, 96
1, 118134, Note_on_c, 1, 39, 96
1, 118136, Note_off_c, 1, 77, 96
1, 118136, Note_off_c, 1, 39, 96
1, 118136, Note_on_c, 1, 72, 96
1, 118137, Note_off_c, 1, 72, 96
1, 118251, Note_on_c, 1, 55, 96
1, 118252, Note_off_c, 1, 55, 96
1, 118254, Note_on_c, 1, 63, 96
1, 118255, Note_off_c, 1, 63, 96
1, 118259, Note_on_c, 1, 75, 96
1, 118260, Note_off_c, 1, 75, 96
1, 118263, Note_on_c, 1, 58, 96
1, 118264, Note_off_c, 1, 58, 96
1, 118318, Note_on_c, 1, 75, 96
1, 118319, Note_off_c, 1, 75, 96
1, 118322, Note_on_c, 1, 84, 96
1, 118323, Note_off_c, 1, 84, 96
1, 118381, Note_on_c, 1, 72, 96
1, 118381, Note_on_c, 1, 75, 96
1, 118381, Note_on_c, 1, 44, 96
1, 118382, Note_off_c, 1, 72, 96
1, 118382, Note_off_c, 1, 75, 96
1, 118382, Note_off_c, 1, 44, 96
1, 118385, Note_on_c, 1, 84, 96
1, 118385, Note_on_c, 1, 56, 96
1, 118386, Note_off_c, 1, 84, 96
1, 118386, Note_off_c, 1, 56, 96
1, 118505, Note_on_c, 1, 77, 96
1, 118506, Note_off_c, 1, 77, 96
1, 118508, Note_on_c, 1, 59, 96
1, 118510, Note_off_c, 1, 59, 96
1, 118510, Note_on_c, 1, 65, 96
1, 118512, Note_off_c, 1, 65, 96
1, 118512, Note_on_c, 1, 56, 96
1, 118515, Note_off_c, 1, 56, 96
1, 118515, Note_on_c, 1, 87, 96
1, 118515, Note_on_c, 1, 82, 96
1, 118516, Note_off_c, 1, 87, 96
1, 118516, Note_off_c, 1, 82, 96
1, 118576, Note_on_c, 1, 87, 96
1, 118576, Note_on_c, 1, 78, 96
1, 118576, Note_on_c, 1, 75, 96
1, 118577, Note_off_c, 1, 87, 96
1, 118577, Note_off_c, 1, 78, 96
1, 118577, Note_off_c, 1, 75, 96
1, 118579, Note_on_c, 1, 84, 96
1, 118581, Note_off_c, 1, 84, 96
1, 118581, Note_on_c, 1, 72, 96
1, 118582, Note_off_c, 1, 72, 96
1, 118637, Note_on_c, 1, 56, 96
1, 118637, Note_on_c, 1, 51, 96
1, 118638, Note_off_c, 1, 56, 96
1, 118638, Note_off_c, 1, 51, 96
1, 118640, Note_on_c, 1, 60, 96
1, 118641, Note_off_c, 1, 60, 96
1, 118700, Note_on_c, 1, 68, 96
1, 118701, Note_off_c, 1, 68, 96
1, 118707, Note_on_c, 1, 80, 96
1, 118708, Note_off_c, 1, 80, 96
1, 118766, Note_on_c, 1, 75, 96
1, 118766, Note_on_c, 1, 48, 96
1, 118768, Note_off_c, 1, 75, 96
1, 118768, Note_off_c, 1, 48, 96
1, 118768, Note_on_c, 1, 36, 96
1, 118769, Note_off_c, 1, 36, 96
1, 118772, Note_on_c, 1, 80, 96
1, 118772, Note_on_c, 1, 72, 96
1, 118773, Note_off_c, 1, 80, 96
1, 118773, Note_off_c, 1, 72, 96
1, 118832, Note_on_c, 1, 72, 96
1, 118833, Note_off_c, 1, 72, 96
1, 118890, Note_on_c, 1, 51, 96
1, 118891, Note_off_c, 1, 51, 96
1, 118894, Note_on_c, 1, 72, 96
1, 118894, Note_on_c, 1, 84, 96
1, 118895, Note_off_c, 1, 72, 96
1, 118895, Note_off_c, 1, 84, 96
1, 118898, Note_on_c, 1, 75, 96
1, 118898, Note_on_c, 1, 56, 96
1, 118900, Note_off_c, 1, 75, 96
1, 118900, Note_off_c, 1, 56, 96
1, 118900, Note_on_c, 1, 60, 96
1, 118901, Note_off_c, 1, 60, 96
1, 118959, Note_on_c, 1, 80, 96
1, 118960, Note_off_c, 1, 80, 96
1, 119019, Note_on_c, 1, 72, 96
1, 119021, Note_off_c, 1, 72, 96
1, 119021, Note_on_c, 1, 56, 96
1, 119022, Note_off_c, 1, 56, 96
1, 119024, Note_on_c, 1, 44, 96
1, 119026, Note_off_c, 1, 44, 96
1, 119026, Note_on_c, 1, 84, 96
1, 119027, Note_off_c, 1, 84, 96
1, 119086, Note_on_c, 1, 84, 96
1, 119086, Note_on_c, 1, 78, 96
1, 119088, Note_off_c, 1, 84, 96
1, 119088, Note_off_c, 1, 78, 96
1, 119088, Note_on_c, 1, 72, 96
1, 119089, Note_off_c, 1, 72, 96
1, 119144, Note_on_c, 1, 63, 96
1, 119145, Note_off_c, 1, 63, 96
1, 119148, Note_on_c, 1, 51, 96
1, 119149, Note_off_c, 1, 51, 96
1, 119153, Note_on_c, 1, 39, 96
1, 119154, Note_off_c, 1, 39, 96
1, 119210, Note_on_c, 1, 72, 96
1, 119211, Note_off_c, 1, 72, 96
1, 119214, Note_on_c, 1, 84, 96
1, 119214, Note_on_c, 1, 80, 96
1, 119215, Note_off_c, 1, 84, 96
1, 119215, Note_off_c, 1, 80, 96
1, 119270, Note_on_c, 1, 65, 96
1, 119272, Note_off_c, 1, 65, 96
1, 119272, Note_on_c, 1, 53, 96
1, 119273, Note_off_c, 1, 53, 96
1, 119278, Note_on_c, 1, 77, 96
1, 119280, Note_off_c, 1, 77, 96
1, 119280, Note_on_c, 1, 41, 96
1, 119282, Note_off_c, 1, 41, 96
1, 119282, Note_on_c, 1, 69, 96
1, 119283, Note_off_c, 1, 69, 96
1, 119397, Note_on_c, 1, 58, 96
1, 119400, Note_off_c, 1, 58, 96
1, 119400, Note_on_c, 1, 78, 96
1, 119400, Note_on_c, 1, 60, 96
1, 119401, Note_off_c, 1, 78, 96
1, 119401, Note_off_c, 1, 60, 96
1, 119407, Note_on_c, 1, 81, 96
1, 119407, Note_on_c, 1, 55, 96
1, 119408, Note_off_c, 1, 81, 96
1, 119408, Note_off_c, 1, 55, 96
1, 119464, Note_on_c, 1, 84, 96
1, 119465, Note_off_c, 1, 84, 96
1, 119469, Note_on_c, 1, 79, 96
1, 119470, Note_off_c, 1, 79, 96
1, 119530, Note_on_c, 1, 51, 96
1, 119531, Note_off_c, 1, 51, 96
1, 119533, Note_on_c, 1, 39, 96
1, 119534, Note_off_c, 1, 39, 96
1, 119593, Note_on_c, 1, 80, 96
1, 119594, Note_off_c, 1, 80, 96
1, 119650, Note_on_c, 1, 78, 96
1, 119652, Note_off_c, 1, 78, 96
1, 119652, Note_on_c, 1, 68, 96
1, 119653, Note_off_c, 1, 68, 96
1, 119656, Note_on_c, 1, 56, 96
1, 119656, Note_on_c, 1, 60, 96
1, 119658, Note_off_c, 1, 56, 96
1, 119658, Note_off_c, 1, 60, 96
1, 119658, Note_on_c, 1, 51, 96
1, 119659, Note_off_c, 1, 51, 96
1, 119717, Note_on_c, 1, 80, 96
1, 119718, Note_off_c, 1, 80, 96
1, 119777, Note_on_c, 1, 49, 96
1, 119778, Note_off_c, 1, 49, 96
1, 119780, Note_on_c, 1, 77, 96
1, 119782, Note_off_c, 1, 77, 96
1, 119782, Note_on_c, 1, 68, 96
1, 119784, Note_off_c, 1, 68, 96
1, 119784, Note_on_c, 1, 61, 96
1, 119785, Note_off_c, 1, 61, 96
1, 119839, Note_on_c, 1, 73, 96
1, 119840, Note_off_c, 1, 73, 96
1, 119904, Note_on_c, 1, 73, 96
1, 119904, Note_on_c, 1, 42, 96
1, 119905, Note_off_c, 1, 73, 96
1, 119905, Note_off_c, 1, 42, 96
1, 119908, Note_on_c, 1, 77, 96
1, 119909, Note_off_c, 1, 77, 96
1, 119967, Note_on_c, 1, 80, 96
1, 119968, Note_off_c, 1, 80, 96
1, 120023, Note_on_c, 1, 61, 96
1, 120025, Note_off_c, 1, 61, 96
1, 120025, Note_on_c, 1, 73, 96
1, 120027, Note_off_c, 1, 73, 96
1, 120027, Note_on_c, 1, 56, 96
1, 120028, Note_off_c, 1, 56, 96
1, 120031, Note_on_c, 1, 65, 96
1, 120034, Note_off_c, 1, 65, 96
1, 120034, Note_on_c, 1, 76, 96
1, 120034, Note_on_c, 1, 59, 96
1, 120035, Note_off_c, 1, 76, 96
1, 120035, Note_off_c, 1, 59, 96
1, 120153, Note_on_c, 1, 72, 96
1, 120153, Note_on_c, 1, 63, 96
1, 120153, Note_on_c, 1, 75, 96
1, 120154, Note_off_c, 1, 72, 96
1, 120154, Note_off_c, 1, 63, 96
1, 120154, Note_off_c, 1, 75, 96
1, 120158, Note_on_c, 1, 66, 96
1, 120158, Note_on_c, 1, 56, 96
1, 120160, Note_off_c, 1, 66, 96
1, 120160, Note_off_c, 1, 56, 96
1, 120160, Note_on_c, 1, 75, 96
1, 120162, Note_off_c, 1, 75, 96
1, 120162, Note_on_c, 1, 60, 96
1, 120163, Note_off_c, 1, 60, 96
1, 120224, Note_on_c, 1, 75, 96
1, 120224, Note_on_c, 1, 66, 96
1, 120225, Note_off_c, 1, 75, 96
1, 120225, Note_off_c, 1, 66, 96
1, 120281, Note_on_c, 1, 41, 96
1, 120282, Note_off_c, 1, 41, 96
1, 120286, Note_on_c, 1, 65, 96
1, 120287, Note_off_c, 1, 65, 96
1, 120347, Note_on_c, 1, 74, 96
1, 120348, Note_off_c, 1, 74, 96
1, 120404, Note_on_c, 1, 77, 96
1, 120404, Note_on_c, 1, 62, 96
1, 120404, Note_on_c, 1, 56, 96
1, 120405, Note_off_c, 1, 77, 96
1, 120405, Note_off_c, 1, 62, 96
1, 120405, Note_off_c, 1, 56, 96
1, 120411, Note_on_c, 1, 74, 96
1, 120411, Note_on_c, 1, 58, 96
1, 120412, Note_off_c, 1, 74, 96
1, 120412, Note_off_c, 1, 58, 96
1, 120466, Note_on_c, 1, 72, 96
1, 120467, Note_off_c, 1, 72, 96
1, 120471, Note_on_c, 1, 75, 96
1, 120472, Note_off_c, 1, 75, 96
1, 120529, Note_on_c, 1, 75, 96
1, 120530, Note_off_c, 1, 75, 96
1, 120533, Note_on_c, 1, 63, 96
1, 120533, Note_on_c, 1, 51, 96
1, 120534, Note_off_c, 1, 63, 96
1, 120534, Note_off_c, 1, 51, 96
1, 120536, Note_on_c, 1, 67, 96
1, 120537, Note_off_c, 1, 67, 96
1, 120593, Note_on_c, 1, 75, 96
1, 120594, Note_off_c, 1, 75, 96
1, 120653, Note_on_c, 1, 58, 96
1, 120654, Note_off_c, 1, 58, 96
1, 120656, Note_on_c, 1, 70, 96
1, 120658, Note_off_c, 1, 70, 96
1, 120658, Note_on_c, 1, 51, 96
1, 120659, Note_off_c, 1, 51, 96
1, 120663, Note_on_c, 1, 67, 96
1, 120663, Note_on_c, 1, 61, 96
1, 120663, Note_on_c, 1, 55, 96
1, 120664, Note_off_c, 1, 67, 96
1, 120664, Note_off_c, 1, 61, 96
1, 120664, Note_off_c, 1, 55, 96
1, 120722, Note_on_c, 1, 73, 96
1, 120723, Note_off_c, 1, 73, 96
1, 120726, Note_on_c, 1, 75, 96
1, 120727, Note_off_c, 1, 75, 96
1, 120783, Note_on_c, 1, 51, 96
1, 120784, Note_off_c, 1, 51, 96
1, 120786, Note_on_c, 1, 84, 96
1, 120787, Note_off_c, 1, 84, 96
1, 120789, Note_on_c, 1, 73, 96
1, 120790, Note_off_c, 1, 73, 96
1, 120845, Note_on_c, 1, 70, 96
1, 120846, Note_off_c, 1, 70, 96
1, 120849, Note_on_c, 1, 63, 96
1, 120850, Note_off_c, 1, 63, 96
1, 120852, Note_on_c, 1, 75, 96
1, 120853, Note_off_c, 1, 75, 96
1, 120907, Note_on_c, 1, 71, 96
1, 120908, Note_off_c, 1, 71, 96
1, 120910, Note_on_c, 1, 68, 96
1, 120911, Note_off_c, 1, 68, 96
1, 120914, Note_on_c, 1, 67, 96
1, 120915, Note_off_c, 1, 67, 96
1, 120972, Note_on_c, 1, 73, 96
1, 120973, Note_off_c, 1, 73, 96
1, 120977, Note_on_c, 1, 79, 96
1, 120977, Note_on_c, 1, 70, 96
1, 120978, Note_off_c, 1, 79, 96
1, 120978, Note_off_c, 1, 70, 96
1, 121035, Note_on_c, 1, 46, 96
1, 121036, Note_off_c, 1, 46, 96
1, 121155, Note_on_c, 1, 73, 96
1, 121157, Note_off_c, 1, 73, 96
1, 121157, Note_on_c, 1, 39, 96
1, 121158, Note_off_c, 1, 39, 96
1, 121161, Note_on_c, 1, 51, 96
1, 121162, Note_off_c, 1, 51, 96
1, 121165, Note_on_c, 1, 67, 96
1, 121165, Note_on_c, 1, 61, 96
1, 121166, Note_off_c, 1, 67, 96
1, 121166, Note_off_c, 1, 61, 96
1, 121226, Note_on_c, 1, 67, 96
1, 121227, Note_off_c, 1, 67, 96
1, 121285, Note_on_c, 1, 73, 96
1, 121286, Note_off_c, 1, 73, 96
1, 121291, Note_on_c, 1, 61, 96
1, 121291, Note_on_c, 1, 49, 96
1, 121293, Note_off_c, 1, 61, 96
1, 121293, Note_off_c, 1, 49, 96
1, 121293, Note_on_c, 1, 65, 96
1, 121294, Note_off_c, 1, 65, 96
1, 121348, Note_on_c, 1, 77, 96
1, 121349, Note_off_c, 1, 77, 96
1, 121409, Note_on_c, 1, 65, 96
1, 121410, Note_off_c, 1, 65, 96
1, 121413, Note_on_c, 1, 49, 96
1, 121414, Note_off_c, 1, 49, 96
1, 121417, Note_on_c, 1, 59, 96
1, 121418, Note_off_c, 1, 59, 96
1, 121479, Note_on_c, 1, 70, 96
1, 121481, Note_off_c, 1, 70, 96
1, 121481, Note_on_c, 1, 73, 96
1, 121482, Note_off_c, 1, 73, 96
1, 121539, Note_on_c, 1, 44, 96
1, 121540, Note_off_c, 1, 44, 96
1, 121602, Note_on_c, 1, 68, 96
1, 121603, Note_off_c, 1, 68, 96
1, 121658, Note_on_c, 1, 48, 96
1, 121661, Note_off_c, 1, 48, 96
1, 121661, Note_on_c, 1, 70, 96
1, 121661, Note_on_c, 1, 60, 96
1, 121662, Note_off_c, 1, 70, 96
1, 121662, Note_off_c, 1, 60, 96
1, 121665, Note_on_c, 1, 66, 96
1, 121666, Note_off_c, 1, 66, 96
1, 121786, Note_on_c, 1, 58, 96
1, 121787, Note_off_c, 1, 58, 96
1, 121790, Note_on_c, 1, 72, 96
1, 121790, Note_on_c, 1, 46, 96
1, 121791, Note_off_c, 1, 72, 96
1, 121791, Note_off_c, 1, 46, 96
1, 121907, Note_on_c, 1, 66, 96
1, 121907, Note_on_c, 1, 63, 96
1, 121908, Note_off_c, 1, 66, 96
1, 121908, Note_off_c, 1, 63, 96
1, 121968, Note_on_c, 1, 62, 96
1, 121969, Note_off_c, 1, 62, 96
1, 121971, Note_on_c, 1, 74, 96
1, 121973, Note_off_c, 1, 74, 96
1, 121973, Note_on_c, 1, 50, 96
1, 121974, Note_off_c, 1, 50, 96
1, 122091, Note_on_c, 1, 86, 96
1, 122093, Note_off_c, 1, 86, 96
1, 122093, Note_on_c, 1, 77, 96
1, 122094, Note_off_c, 1, 77, 96
1, 122149, Note_on_c, 1, 66, 96
1, 122151, Note_off_c, 1, 66, 96
1, 122151, Note_on_c, 1, 78, 96
1, 122152, Note_off_c, 1, 78, 96
1, 122210, Note_on_c, 1, 65, 96
1, 122211, Note_off_c, 1, 65, 96
1, 122271, Note_on_c, 1, 73, 96
1, 122273, Note_off_c, 1, 73, 96
1, 122273, Note_on_c, 1, 82, 96
1, 122274, Note_off_c, 1, 82, 96
1, 122331, Note_on_c, 1, 51, 96
1, 122333, Note_off_c, 1, 51, 96
1, 122333, Note_on_c, 1, 39, 96
1, 122334, Note_off_c, 1, 39, 96
1, 122453, Note_on_c, 1, 72, 96
1, 122454, Note_off_c, 1, 72, 96
1, 122456, Note_on_c, 1, 60, 96
1, 122457, Note_off_c, 1, 60, 96
1, 122460, Note_on_c, 1, 75, 96
1, 122462, Note_off_c, 1, 75, 96
1, 122462, Note_on_c, 1, 48, 96
1, 122463, Note_off_c, 1, 48, 96
1, 122523, Note_on_c, 1, 70, 96
1, 122524, Note_off_c, 1, 70, 96
1, 122581, Note_on_c, 1, 77, 96
1, 122582, Note_off_c, 1, 77, 96
1, 122584, Note_on_c, 1, 53, 96
1, 122585, Note_off_c, 1, 53, 96
1, 122641, Note_on_c, 1, 70, 96
1, 122642, Note_off_c, 1, 70, 96
1, 122702, Note_on_c, 1, 72, 96
1, 122703, Note_off_c, 1, 72, 96
1, 122705, Note_on_c, 1, 51, 96
1, 122706, Note_off_c, 1, 51, 96
1, 122710, Note_on_c, 1, 84, 96
1, 122713, Note_off_c, 1, 84, 96
1, 122713, Note_on_c, 1, 55, 96
1, 122713, Note_on_c, 1, 61, 96
1, 122715, Note_off_c, 1, 55, 96
1, 122715, Note_off_c, 1, 61, 96
1, 122715, Note_on_c, 1, 79, 96
1, 122716, Note_off_c, 1, 79, 96
1, 122770, Note_on_c, 1, 72, 96
1, 122772, Note_off_c, 1, 72, 96
1, 122772, Note_on_c, 1, 75, 96
1, 122773, Note_off_c, 1, 75, 96
1, 122776, Note_on_c, 1, 84, 96
1, 122777, Note_off_c, 1, 84, 96
1, 122831, Note_on_c, 1, 67, 96
1, 122832, Note_off_c, 1, 67, 96
1, 122838, Note_on_c, 1, 58, 96
1, 122839, Note_off_c, 1, 58, 96
1, 122899, Note_on_c, 1, 82, 96
1, 122901, Note_off_c, 1, 82, 96
1, 122901, Note_on_c, 1, 70, 96
1, 122902, Note_off_c, 1, 70, 96
1, 122959, Note_on_c, 1, 79, 96
1, 122959, Note_on_c, 1, 63, 96
1, 122960, Note_off_c, 1, 79, 96
1, 122960, Note_off_c, 1, 63, 96
1, 122964, Note_on_c, 1, 75, 96
1, 122964, Note_on_c, 1, 51, 96
1, 122966, Note_off_c, 1, 75, 96
1, 122966, Note_off_c, 1, 51, 96
1, 122966, Note_on_c, 1, 63, 96
1, 122967, Note_off_c, 1, 63, 96
1, 123023, Note_on_c, 1, 72, 96
1, 123025, Note_off_c, 1, 72, 96
1, 123025, Note_on_c, 1, 84, 96
1, 123026, Note_off_c, 1, 84, 96
1, 123028, Note_on_c, 1, 79, 96
1, 123029, Note_off_c, 1, 79, 96
1, 123087, Note_on_c, 1, 51, 96
1, 123087, Note_on_c, 1, 39, 96
1, 123088, Note_off_c, 1, 51, 96
1, 123088, Note_off_c, 1, 39, 96
1, 123206, Note_on_c, 1, 77, 96
1, 123207, Note_off_c, 1, 77, 96
1, 123209, Note_on_c, 1, 63, 96
1, 123210, Note_off_c, 1, 63, 96
1, 123215, Note_on_c, 1, 58, 96
1, 123216, Note_off_c, 1, 58, 96
1, 123219, Note_on_c, 1, 73, 96
1, 123220, Note_off_c, 1, 73, 96
1, 123337, Note_on_c, 1, 65, 96
1, 123339, Note_off_c, 1, 65, 96
1, 123339, Note_on_c, 1, 85, 96
1, 123340, Note_off_c, 1, 85, 96
1, 123343, Note_on_c, 1, 77, 96
1, 123344, Note_off_c, 1, 77, 96
1, 123458, Note_on_c, 1, 65, 96
1, 123459, Note_off_c, 1, 65, 96
1, 123466, Note_on_c, 1, 61, 96
1, 123467, Note_off_c, 1, 61, 96
1, 123583, Note_on_c, 1, 80, 96
1, 123584, Note_off_c, 1, 80, 96
1, 123588, Note_on_c, 1, 68, 96
1, 123589, Note_off_c, 1, 68, 96
1, 123702, Note_on_c, 1, 58, 96
1, 123703, Note_off_c, 1, 58, 96
1, 123705, Note_on_c, 1, 85, 96
1, 123707, Note_off_c, 1, 85, 96
1, 123707, Note_on_c, 1, 73, 96
1, 123710, Note_off_c, 1, 73, 96
1, 123710, Note_on_c, 1, 55, 96
1, 123710, Note_on_c, 1, 46, 96
1, 123711, Note_off_c, 1, 55, 96
1, 123711, Note_off_c, 1, 46, 96
1, 123826, Note_on_c, 1, 84, 96
1, 123827, Note_off_c, 1, 84, 96
1, 123832, Note_on_c, 1, 89, 96
1, 123832, Note_on_c, 1, 56, 96
1, 123833, Note_off_c, 1, 89, 96
1, 123833, Note_off_c, 1, 56, 96
1, 123835, Note_on_c, 1, 60, 96
1, 123838, Note_off_c, 1, 60, 96
1, 123838, Note_on_c, 1, 77, 96
1, 123838, Note_on_c, 1, 81, 96
1, 123839, Note_off_c, 1, 77, 96
1, 123839, Note_off_c, 1, 81, 96
1, 123953, Note_on_c, 1, 62, 96
1, 123955, Note_off_c, 1, 62, 96
1, 123955, Note_on_c, 1, 84, 96
1, 123957, Note_off_c, 1, 84, 96
1, 123957, Note_on_c, 1, 84, 96
1, 123959, Note_off_c, 1, 84, 96
1, 123959, Note_on_c, 1, 80, 96
1, 123960, Note_off_c, 1, 80, 96
1, 123962, Note_on_c, 1, 80, 96
1, 123965, Note_off_c, 1, 80, 96
1, 123965, Note_on_c, 1, 56, 96
1, 123965, Note_on_c, 1, 58, 96
1, 123966, Note_off_c, 1, 56, 96
1, 123966, Note_off_c, 1, 58, 96
1, 124085, Note_on_c, 1, 39, 96
1, 124086, Note_off_c, 1, 39, 96
1, 124205, Note_on_c, 1, 51, 96
1, 124206, Note_off_c, 1, 51, 96
1, 124269, Note_on_c, 1, 48, 96
1, 124270, Note_off_c, 1, 48, 96
1, 124272, Note_on_c, 1, 36, 96
1, 124273, Note_off_c, 1, 36, 96
1, 124330, Note_on_c, 1, 78, 96
1, 124331, Note_off_c, 1, 78, 96
1, 124392, Note_on_c, 1, 36, 96
1, 124393, Note_off_c, 1, 36, 96
1, 124398, Note_on_c, 1, 48, 96
1, 124399, Note_off_c, 1, 48, 96
1, 124515, Note_on_c, 1, 71, 96
1, 124515, Note_on_c, 1, 41, 96
1, 124518, Note_off_c, 1, 71, 96
1, 124518, Note_off_c, 1, 41, 96
1, 124518, Note_on_c, 1, 80, 96
1, 124518, Note_on_c, 1, 53, 96
1, 124519, Note_off_c, 1, 80, 96
1, 124519, Note_off_c, 1, 53, 96
1, 124637, Note_on_c, 1, 44, 96
1, 124639, Note_off_c, 1, 44, 96
1, 124639, Note_on_c, 1, 84, 96
1, 124641, Note_off_c, 1, 84, 96
1, 124641, Note_on_c, 1, 56, 96
1, 124642, Note_off_c, 1, 56, 96
1, 124645, Note_on_c, 1, 75, 96
1, 124646, Note_off_c, 1, 75, 96
1, 124764, Note_on_c, 1, 55, 96
1, 124766, Note_off_c, 1, 55, 96
1, 124766, Note_on_c, 1, 63, 96
1, 124769, Note_off_c, 1, 63, 96
1, 124769, Note_on_c, 1, 75, 96
1, 124769, Note_on_c, 1, 60, 96
1, 124770, Note_off_c, 1, 75, 96
1, 124770, Note_off_c, 1, 60, 96
1, 124887, Note_on_c, 1, 85, 96
1, 124889, Note_off_c, 1, 85, 96
1, 124889, Note_on_c, 1, 73, 96
1, 124890, Note_off_c, 1, 73, 96
1, 124947, Note_on_c, 1, 86, 96
1, 124948, Note_off_c, 1, 86, 96
1, 124951, Note_on_c, 1, 74, 96
1, 124952, Note_off_c, 1, 74, 96
1, 125009, Note_on_c, 1, 56, 96
1, 125011, Note_off_c, 1, 56, 96
1, 125011, Note_on_c, 1, 51, 96
1, 125012, Note_off_c, 1, 51, 96
1, 125017, Note_on_c, 1, 60, 96
1, 125018, Note_off_c, 1, 60, 96
1, 125077, Note_on_c, 1, 46, 96
1, 125078, Note_off_c, 1, 46, 96
1, 125141, Note_on_c, 1, 87, 96
1, 125141, Note_on_c, 1, 82, 96
1, 125141, Note_on_c, 1, 79, 96
1, 125143, Note_off_c, 1, 87, 96
1, 125143, Note_off_c, 1, 82, 96
1, 125143, Note_off_c, 1, 79, 96
1, 125143, Note_on_c, 1, 75, 96
1, 125144, Note_off_c, 1, 75, 96
1, 125199, Note_on_c, 1, 58, 96
1, 125201, Note_off_c, 1, 58, 96
1, 125201, Note_on_c, 1, 63, 96
1, 125202, Note_off_c, 1, 63, 96
1, 125205, Note_on_c, 1, 55, 96
1, 125206, Note_off_c, 1, 55, 96
1, 125324, Note_on_c, 1, 55, 96
1, 125325, Note_off_c, 1, 55, 96
1, 125327, Note_on_c, 1, 70, 96
1, 125330, Note_off_c, 1, 70, 96
1, 125330, Note_on_c, 1, 79, 96
1, 125330, Note_on_c, 1, 67, 96
1, 125331, Note_off_c, 1, 79, 96
1, 125331, Note_off_c, 1, 67, 96
1, 125444, Note_on_c, 1, 79, 96
1, 125446, Note_off_c, 1, 79, 96
1, 125446, Note_on_c, 1, 55, 96
1, 125447, Note_off_c, 1, 55, 96
1, 125449, Note_on_c, 1, 75, 96
1, 125452, Note_off_c, 1, 75, 96
1, 125452, Note_on_c, 1, 84, 96
1, 125452, Note_on_c, 1, 51, 96
1, 125454, Note_off_c, 1, 84, 96
1, 125454, Note_off_c, 1, 51, 96
1, 125454, Note_on_c, 1, 63, 96
1, 125456, Note_off_c, 1, 63, 96
1, 125456, Note_on_c, 1, 87, 96
1, 125458, Note_off_c, 1, 87, 96
1, 125458, Note_on_c, 1, 82, 96
1, 125459, Note_off_c, 1, 82, 96
1, 125513, Note_on_c, 1, 58, 96
1, 125514, Note_off_c, 1, 58, 96
1, 125574, Note_on_c, 1, 56, 96
1, 125574, Note_on_c, 1, 65, 96
1, 125575, Note_off_c, 1, 56, 96
1, 125575, Note_off_c, 1, 65, 96
1, 125699, Note_on_c, 1, 68, 96
1, 125699, Note_on_c, 1, 54, 96
1, 125700, Note_off_c, 1, 68, 96
1, 125700, Note_off_c, 1, 54, 96
1, 125702, Note_on_c, 1, 63, 96
1, 125703, Note_off_c, 1, 63, 96
1, 125819, Note_on_c, 1, 50, 96
1, 125820, Note_off_c, 1, 50, 96
1, 125824, Note_on_c, 1, 38, 96
1, 125825, Note_off_c, 1, 38, 96
1, 125828, Note_on_c, 1, 83, 96
1, 125829, Note_off_c, 1, 83, 96
1, 125948, Note_on_c, 1, 79, 96
1, 125948, Note_on_c, 1, 43, 96
1, 125949, Note_off_c, 1, 79, 96
1, 125949, Note_off_c, 1, 43, 96
1, 125952, Note_on_c, 1, 71, 96
1, 125952, Note_on_c, 1, 55, 96
1, 125953, Note_off_c, 1, 71, 96
1, 125953, Note_off_c, 1, 55, 96
1, 126069, Note_on_c, 1, 79, 96
1, 126070, Note_off_c, 1, 79, 96
1, 126132, Note_on_c, 1, 74, 96
1, 126133, Note_off_c, 1, 74, 96
1, 126135, Note_on_c, 1, 38, 96
1, 126137, Note_off_c, 1, 38, 96
1, 126137, Note_on_c, 1, 50, 96
1, 126138, Note_off_c, 1, 50, 96
1, 126176, Note_on_c, 1, 78, 96
1, 126177, Note_off_c, 1, 78, 96
1, 126195, Note_on_c, 1, 79, 96
1, 126196, Note_off_c, 1, 79, 96
1, 126216, Note_on_c, 1, 67, 96
1, 126216, Note_on_c, 1, 55, 96
1, 126218, Note_off_c, 1, 67, 96
1, 126218, Note_off_c, 1, 55, 96
1, 126218, Note_on_c, 1, 59, 96
1, 126220, Note_off_c, 1, 59, 96
1, 126220, Note_on_c, 1, 71, 96
1, 126221, Note_off_c, 1, 71, 96
1, 126224, Note_on_c, 1, 50, 96
1, 126225, Note_off_c, 1, 50, 96
1, 126283, Note_on_c, 1, 78, 96
1, 126284, Note_off_c, 1, 78, 96
1, 126341, Note_on_c, 1, 38, 96
1, 126342, Note_off_c, 1, 38, 96
1, 126459, Note_on_c, 1, 57, 96
1, 126461, Note_off_c, 1, 57, 96
1, 126461, Note_on_c, 1, 45, 96
1, 126462, Note_off_c, 1, 45, 96
1, 126468, Note_on_c, 1, 74, 96
1, 126469, Note_off_c, 1, 74, 96
1, 126586, Note_on_c, 1, 54, 96
1, 126587, Note_off_c, 1, 54, 96
1, 126589, Note_on_c, 1, 60, 96
1, 126590, Note_off_c, 1, 60, 96
1, 126593, Note_on_c, 1, 69, 96
1, 126595, Note_off_c, 1, 69, 96
1, 126595, Note_on_c, 1, 50, 96
1, 126596, Note_off_c, 1, 50, 96
1, 126713, Note_on_c, 1, 72, 96
1, 126713, Note_on_c, 1, 62, 96
1, 126713, Note_on_c, 1, 38, 96
1, 126714, Note_off_c, 1, 72, 96
1, 126714, Note_off_c, 1, 62, 96
1, 126714, Note_off_c, 1, 38, 96
1, 126777, Note_on_c, 1, 74, 96
1, 126778, Note_off_c, 1, 74, 96
1, 126834, Note_on_c, 1, 65, 96
1, 126834, Note_on_c, 1, 50, 96
1, 126835, Note_off_c, 1, 65, 96
1, 126835, Note_off_c, 1, 50, 96
1, 126842, Note_on_c, 1, 69, 96
1, 126843, Note_off_c, 1, 69, 96
1, 126903, Note_on_c, 1, 74, 96
1, 126904, Note_off_c, 1, 74, 96
1, 126962, Note_on_c, 1, 50, 96
1, 126962, Note_on_c, 1, 38, 96
1, 126963, Note_off_c, 1, 50, 96
1, 126963, Note_off_c, 1, 38, 96
1, 126967, Note_on_c, 1, 73, 96
1, 126968, Note_off_c, 1, 73, 96
1, 127024, Note_on_c, 1, 76, 96
1, 127025, Note_off_c, 1, 76, 96
1, 127082, Note_on_c, 1, 76, 96
1, 127083, Note_off_c, 1, 76, 96
1, 127086, Note_on_c, 1, 73, 96
1, 127086, Note_on_c, 1, 45, 96
1, 127087, Note_off_c, 1, 73, 96
1, 127087, Note_off_c, 1, 45, 96
1, 127089, Note_on_c, 1, 64, 96
1, 127091, Note_off_c, 1, 64, 96
1, 127091, Note_on_c, 1, 68, 96
1, 127094, Note_off_c, 1, 68, 96
1, 127094, Note_on_c, 1, 58, 96
1, 127094, Note_on_c, 1, 58, 96
1, 127095, Note_off_c, 1, 58, 96
1, 127095, Note_off_c, 1, 58, 96
1, 127150, Note_on_c, 1, 76, 96
1, 127151, Note_off_c, 1, 76, 96
1, 127211, Note_on_c, 1, 45, 96
1, 127212, Note_off_c, 1, 45, 96
1, 127220, Note_on_c, 1, 74, 96
1, 127220, Note_on_c, 1, 60, 96
1, 127222, Note_off_c, 1, 74, 96
1, 127222, Note_off_c, 1, 60, 96
1, 127222, Note_on_c, 1, 68, 96
1, 127223, Note_off_c, 1, 68, 96
1, 127281, Note_on_c, 1, 74, 96
1, 127282, Note_off_c, 1, 74, 96
1, 127299, Note_on_c, 1, 74, 96
1, 127300, Note_off_c, 1, 74, 96
1, 127319, Note_on_c, 1, 69, 96
1, 127319, Note_on_c, 1, 41, 96
1, 127319, Note_on_c, 1, 53, 96
1, 127320, Note_off_c, 1, 69, 96
1, 127320, Note_off_c, 1, 41, 96
1, 127320, Note_off_c, 1, 53, 96
1, 127380, Note_on_c, 1, 72, 96
1, 127381, Note_off_c, 1, 72, 96
1, 127441, Note_on_c, 1, 66, 96
1, 127442, Note_off_c, 1, 66, 96
1, 127560, Note_on_c, 1, 64, 96
1, 127562, Note_off_c, 1, 64, 96
1, 127562, Note_on_c, 1, 65, 96
1, 127563, Note_off_c, 1, 65, 96
1, 127567, Note_on_c, 1, 53, 96
1, 127568, Note_off_c, 1, 53, 96
1, 127684, Note_on_c, 1, 52, 96
1, 127686, Note_off_c, 1, 52, 96
1, 127686, Note_on_c, 1, 58, 96
1, 127688, Note_off_c, 1, 58, 96
1, 127688, Note_on_c, 1, 48, 96
1, 127690, Note_off_c, 1, 48, 96
1, 127690, Note_on_c, 1, 69, 96
1, 127691, Note_off_c, 1, 69, 96
1, 127809, Note_on_c, 1, 41, 96
1, 127811, Note_off_c, 1, 41, 96
1, 127811, Note_on_c, 1, 63, 96
1, 127814, Note_off_c, 1, 63, 96
1, 127814, Note_on_c, 1, 60, 96
1, 127814, Note_on_c, 1, 53, 96
1, 127815, Note_off_c, 1, 60, 96
1, 127815, Note_off_c, 1, 53, 96
1, 127817, Note_on_c, 1, 69, 96
1, 127818, Note_off_c, 1, 69, 96
1, 127937, Note_on_c, 1, 48, 96
1, 127940, Note_off_c, 1, 48, 96
1, 127940, Note_on_c, 1, 58, 96
1, 127940, Note_on_c, 1, 52, 96
1, 127941, Note_off_c, 1, 58, 96
1, 127941, Note_off_c, 1, 52, 96
1, 128004, Note_on_c, 1, 58, 96
1, 128004, Note_on_c, 1, 61, 96
1, 128005, Note_off_c, 1, 58, 96
1, 128005, Note_off_c, 1, 61, 96
1, 128065, Note_on_c, 1, 67, 96
1, 128065, Note_on_c, 1, 58, 96
1, 128065, Note_on_c, 1, 55, 96
1, 128065, Note_on_c, 1, 50, 96
1, 128066, Note_off_c, 1, 67, 96
1, 128066, Note_off_c, 1, 58, 96
1, 128066, Note_off_c, 1, 55, 96
1, 128066, Note_off_c, 1, 50, 96
1, 128070, Note_on_c, 1, 62, 96
1, 128070, Note_on_c, 1, 71, 96
1, 128071, Note_off_c, 1, 62, 96
1, 128071, Note_off_c, 1, 71, 96
1, 128127, Note_on_c, 1, 74, 96
1, 128128, Note_off_c, 1, 74, 96
1, 128188, Note_on_c, 1, 52, 96
1, 128190, Note_off_c, 1, 52, 96
1, 128190, Note_on_c, 1, 40, 96
1, 128191, Note_off_c, 1, 40, 96
1, 128252, Note_on_c, 1, 62, 96
1, 128253, Note_off_c, 1, 62, 96
1, 128312, Note_on_c, 1, 69, 96
1, 128314, Note_off_c, 1, 69, 96
1, 128314, Note_on_c, 1, 51, 96
1, 128315, Note_off_c, 1, 51, 96
1, 128377, Note_on_c, 1, 76, 96
1, 128378, Note_off_c, 1, 76, 96
1, 128439, Note_on_c, 1, 55, 96
1, 128440, Note_off_c, 1, 55, 96
1, 128498, Note_on_c, 1, 67, 96
1, 128499, Note_off_c, 1, 67, 96
1, 128558, Note_on_c, 1, 49, 96
1, 128559, Note_off_c, 1, 49, 96
1, 128562, Note_on_c, 1, 61, 96
1, 128563, Note_off_c, 1, 61, 96
1, 128678, Note_on_c, 1, 52, 96
1, 128679, Note_off_c, 1, 52, 96
1, 128682, Note_on_c, 1, 69, 96
1, 128684, Note_off_c, 1, 69, 96
1, 128684, Note_on_c, 1, 64, 96
1, 128685, Note_off_c, 1, 64, 96
1, 128806, Note_on_c, 1, 51, 96
1, 128807, Note_off_c, 1, 51, 96
1, 129051, Note_on_c, 1, 56, 96
1, 129052, Note_off_c, 1, 56, 96
1, 129057, Note_on_c, 1, 44, 96
1, 129061, Note_off_c, 1, 44, 96
1, 129061, Note_on_c, 1, 72, 96
1, 129061, Note_on_c, 1, 78, 96
1, 129061, Note_on_c, 1, 84, 96
1, 129062, Note_off_c, 1, 72, 96
1, 129062, Note_off_c, 1, 78, 96
1, 129062, Note_off_c, 1, 84, 96
1, 129180, Note_on_c, 1, 79, 96
1, 129182, Note_off_c, 1, 79, 96
1, 129182, Note_on_c, 1, 76, 96
1, 129184, Note_off_c, 1, 76, 96
1, 129184, Note_on_c, 1, 46, 96
1, 129187, Note_off_c, 1, 46, 96
1, 129187, Note_on_c, 1, 70, 96
1, 129187, Note_on_c, 1, 58, 96
1, 129188, Note_off_c, 1, 70, 96
1, 129188, Note_off_c, 1, 58, 96
1, 129247, Note_on_c, 1, 78, 96
1, 129247, Note_on_c, 1, 75, 96
1, 129249, Note_off_c, 1, 78, 96
1, 129249, Note_off_c, 1, 75, 96
1, 129249, Note_on_c, 1, 78, 96
1, 129250, Note_off_c, 1, 78, 96
1, 129308, Note_on_c, 1, 82, 96
1, 129310, Note_off_c, 1, 82, 96
1, 129310, Note_on_c, 1, 54, 96
1, 129311, Note_off_c, 1, 54, 96
1, 129314, Note_on_c, 1, 42, 96
1, 129315, Note_off_c, 1, 42, 96
1, 129370, Note_on_c, 1, 80, 96
1, 129371, Note_off_c, 1, 80, 96
1, 129373, Note_on_c, 1, 77, 96
1, 129374, Note_off_c, 1, 77, 96
1, 129376, Note_on_c, 1, 74, 96
1, 129377, Note_off_c, 1, 74, 96
1, 129432, Note_on_c, 1, 62, 96
1, 129433, Note_off_c, 1, 62, 96
1, 129438, Note_on_c, 1, 58, 96
1, 129439, Note_off_c, 1, 58, 96
1, 129441, Note_on_c, 1, 53, 96
1, 129442, Note_off_c, 1, 53, 96
1, 129496, Note_on_c, 1, 86, 96
1, 129497, Note_off_c, 1, 86, 96
1, 129501, Note_on_c, 1, 74, 96
1, 129502, Note_off_c, 1, 74, 96
1, 129559, Note_on_c, 1, 48, 96
1, 129560, Note_off_c, 1, 48, 96
1, 129563, Note_on_c, 1, 36, 96
1, 129564, Note_off_c, 1, 36, 96
1, 129620, Note_on_c, 1, 79, 96
1, 129622, Note_off_c, 1, 79, 96
1, 129622, Note_on_c, 1, 76, 96
1, 129623, Note_off_c, 1, 76, 96
1, 129625, Note_on_c, 1, 72, 96
1, 129626, Note_off_c, 1, 72, 96
1, 129628, Note_on_c, 1, 84, 96
1, 129629, Note_off_c, 1, 84, 96
1, 129684, Note_on_c, 1, 43, 96
1, 129685, Note_off_c, 1, 43, 96
1, 129687, Note_on_c, 1, 55, 96
1, 129688, Note_off_c, 1, 55, 96
1, 129750, Note_on_c, 1, 70, 96
1, 129752, Note_off_c, 1, 70, 96
1, 129752, Note_on_c, 1, 82, 96
1, 129753, Note_off_c, 1, 82, 96
1, 129812, Note_on_c, 1, 38, 96
1, 129812, Note_on_c, 1, 50, 96
1, 129813, Note_off_c, 1, 38, 96
1, 129813, Note_off_c, 1, 50, 96
1, 129870, Note_on_c, 1, 87, 96
1, 129871, Note_off_c, 1, 87, 96
1, 129933, Note_on_c, 1, 88, 96
1, 129933, Note_on_c, 1, 55, 96
1, 129933, Note_on_c, 1, 59, 96
1, 129935, Note_off_c, 1, 88, 96
1, 129935, Note_off_c, 1, 55, 96
1, 129935, Note_off_c, 1, 59, 96
1, 129935, Note_on_c, 1, 62, 96
1, 129936, Note_off_c, 1, 62, 96
1, 129995, Note_on_c, 1, 79, 96
1, 129997, Note_off_c, 1, 79, 96
1, 129997, Note_on_c, 1, 91, 96
1, 129998, Note_off_c, 1, 91, 96
1, 130058, Note_on_c, 1, 62, 96
1, 130061, Note_off_c, 1, 62, 96
1, 130061, Note_on_c, 1, 59, 96
1, 130061, Note_on_c, 1, 55, 96
1, 130062, Note_off_c, 1, 59, 96
1, 130062, Note_off_c, 1, 55, 96
1, 130064, Note_on_c, 1, 65, 96
1, 130065, Note_off_c, 1, 65, 96
1, 130127, Note_on_c, 1, 83, 96
1, 130128, Note_off_c, 1, 83, 96
1, 130185, Note_on_c, 1, 55, 96
1, 130185, Note_on_c, 1, 59, 96
1, 130186, Note_off_c, 1, 55, 96
1, 130186, Note_off_c, 1, 59, 96
1, 130188, Note_on_c, 1, 65, 96
1, 130190, Note_off_c, 1, 65, 96
1, 130190, Note_on_c, 1, 83, 96
1, 130191, Note_off_c, 1, 83, 96
1, 130247, Note_on_c, 1, 79, 96
1, 130248, Note_off_c, 1, 79, 96
1, 130310, Note_on_c, 1, 37, 96
1, 130311, Note_off_c, 1, 37, 96
1, 130313, Note_on_c, 1, 65, 96
1, 130315, Note_off_c, 1, 65, 96
1, 130315, Note_on_c, 1, 77, 96
1, 130316, Note_off_c, 1, 77, 96
1, 130318, Note_on_c, 1, 49, 96
1, 130319, Note_off_c, 1, 49, 96
1, 130378, Note_on_c, 1, 73, 96
1, 130378, Note_on_c, 1, 80, 96
1, 130379, Note_off_c, 1, 73, 96
1, 130379, Note_off_c, 1, 80, 96
1, 130436, Note_on_c, 1, 44, 96
1, 130437, Note_off_c, 1, 44, 96
1, 130495, Note_on_c, 1, 67, 96
1, 130496, Note_off_c, 1, 67, 96
1, 130500, Note_on_c, 1, 76, 96
1, 130501, Note_off_c, 1, 76, 96
1, 130542, Note_on_c, 1, 77, 96
1, 130542, Note_on_c, 1, 49, 96
1, 130543, Note_off_c, 1, 77, 96
1, 130543, Note_off_c, 1, 49, 96
1, 130599, Note_on_c, 1, 73, 96
1, 130600, Note_off_c, 1, 73, 96
1, 130602, Note_on_c, 1, 77, 96
1, 130603, Note_off_c, 1, 77, 96
1, 130660, Note_on_c, 1, 34, 96
1, 130661, Note_off_c, 1, 34, 96
1, 130720, Note_on_c, 1, 77, 96
1, 130721, Note_off_c, 1, 77, 96
1, 130762, Note_on_c, 1, 34, 96
1, 130763, Note_off_c, 1, 34, 96
1, 130765, Note_on_c, 1, 75, 96
1, 130767, Note_off_c, 1, 75, 96
1, 130767, Note_on_c, 1, 46, 96
1, 130769, Note_off_c, 1, 46, 96
1, 130769, Note_on_c, 1, 70, 96
1, 130770, Note_off_c, 1, 70, 96
1, 130889, Note_on_c, 1, 71, 96
1, 130889, Note_on_c, 1, 68, 96
1, 130894, Note_off_c, 1, 71, 96
1, 130894, Note_off_c, 1, 68, 96
1, 130894, Note_on_c, 1, 71, 96
1, 130894, Note_on_c, 1, 68, 96
1, 130894, Note_on_c, 1, 65, 96
1, 130894, Note_on_c, 1, 61, 96
1, 130896, Note_off_c, 1, 71, 96
1, 130896, Note_off_c, 1, 68, 96
1, 130896, Note_off_c, 1, 65, 96
1, 130896, Note_off_c, 1, 61, 96
1, 130896, Note_on_c, 1, 77, 96
1, 130897, Note_off_c, 1, 77, 96
1, 130956, Note_on_c, 1, 75, 96
1, 130956, Note_on_c, 1, 68, 96
1, 130957, Note_off_c, 1, 75, 96
1, 130957, Note_off_c, 1, 68, 96
1, 130959, Note_on_c, 1, 72, 96
1, 130960, Note_off_c, 1, 72, 96
1, 131017, Note_on_c, 1, 51, 96
1, 131019, Note_off_c, 1, 51, 96
1, 131019, Note_on_c, 1, 75, 96
1, 131021, Note_off_c, 1, 75, 96
1, 131021, Note_on_c, 1, 63, 96
1, 131022, Note_off_c, 1, 63, 96
1, 131082, Note_on_c, 1, 76, 96
1, 131083, Note_off_c, 1, 76, 96
1, 131122, Note_on_c, 1, 75, 96
1, 131123, Note_off_c, 1, 75, 96
1, 131156, Note_on_c, 1, 68, 96
1, 131157, Note_off_c, 1, 68, 96
1, 131197, Note_on_c, 1, 69, 96
1, 131199, Note_off_c, 1, 69, 96
1, 131199, Note_on_c, 1, 37, 96
1, 131201, Note_off_c, 1, 37, 96
1, 131201, Note_on_c, 1, 49, 96
1, 131202, Note_off_c, 1, 49, 96
1, 131257, Note_on_c, 1, 67, 96
1, 131258, Note_off_c, 1, 67, 96
1, 131298, Note_on_c, 1, 74, 96
1, 131301, Note_off_c, 1, 74, 96
1, 131301, Note_on_c, 1, 43, 96
1, 131301, Note_on_c, 1, 50, 96
1, 131302, Note_off_c, 1, 43, 96
1, 131302, Note_off_c, 1, 50, 96
1, 131357, Note_on_c, 1, 65, 96
1, 131358, Note_off_c, 1, 65, 96
1, 131399, Note_on_c, 1, 44, 96
1, 131400, Note_off_c, 1, 44, 96
1, 131458, Note_on_c, 1, 75, 96
1, 131459, Note_off_c, 1, 75, 96
1, 131498, Note_on_c, 1, 43, 96
1, 131500, Note_off_c, 1, 43, 96
1, 131500, Note_on_c, 1, 48, 96
1, 131501, Note_off_c, 1, 48, 96
1, 131504, Note_on_c, 1, 74, 96
1, 131505, Note_off_c, 1, 74, 96
1, 131623, Note_on_c, 1, 58, 96
1, 131625, Note_off_c, 1, 58, 96
1, 131625, Note_on_c, 1, 46, 96
1, 131626, Note_off_c, 1, 46, 96
1, 131686, Note_on_c, 1, 82, 96
1, 131688, Note_off_c, 1, 82, 96
1, 131688, Note_on_c, 1, 70, 96
1, 131689, Note_off_c, 1, 70, 96
1, 131726, Note_on_c, 1, 79, 96
1, 131728, Note_off_c, 1, 79, 96
1, 131728, Note_on_c, 1, 38, 96
1, 131729, Note_off_c, 1, 38, 96
1, 131732, Note_on_c, 1, 50, 96
1, 131733, Note_off_c, 1, 50, 96
1, 131760, Note_on_c, 1, 62, 96
1, 131761, Note_off_c, 1, 62, 96
1, 131788, Note_on_c, 1, 74, 96
1, 131789, Note_off_c, 1, 74, 96
1, 131818, Note_on_c, 1, 70, 96
1, 131820, Note_off_c, 1, 70, 96
1, 131820, Note_on_c, 1, 82, 96
1, 131821, Note_off_c, 1, 82, 96
1, 131849, Note_on_c, 1, 38, 96
1, 131850, Note_off_c, 1, 38, 96
1, 131882, Note_on_c, 1, 73, 96
1, 131882, Note_on_c, 1, 65, 96
1, 131882, Note_on_c, 1, 77, 96
1, 131883, Note_off_c, 1, 73, 96
1, 131883, Note_off_c, 1, 65, 96
1, 131883, Note_off_c, 1, 77, 96
1, 131913, Note_on_c, 1, 46, 96
1, 131913, Note_on_c, 1, 58, 96
1, 131914, Note_off_c, 1, 46, 96
1, 131914, Note_off_c, 1, 58, 96
1, 131946, Note_on_c, 1, 79, 96
1, 131947, Note_off_c, 1, 79, 96
1, 131978, Note_on_c, 1, 69, 96
1, 131978, Note_on_c, 1, 53, 96
1, 131980, Note_off_c, 1, 69, 96
1, 131980, Note_off_c, 1, 53, 96
1, 131980, Note_on_c, 1, 41, 96
1, 131981, Note_off_c, 1, 41, 96
1, 132011, Note_on_c, 1, 74, 96
1, 132012, Note_off_c, 1, 74, 96
1, 132042, Note_on_c, 1, 50, 96
1, 132045, Note_off_c, 1, 50, 96
1, 132045, Note_on_c, 1, 62, 96
1, 132045, Note_on_c, 1, 38, 96
1, 132046, Note_off_c, 1, 62, 96
1, 132046, Note_off_c, 1, 38, 96
1, 132077, Note_on_c, 1, 80, 96
1, 132078, Note_off_c, 1, 80, 96
1, 132107, Note_on_c, 1, 82, 96
1, 132107, Note_on_c, 1, 79, 96
1, 132109, Note_off_c, 1, 82, 96
1, 132109, Note_off_c, 1, 79, 96
1, 132109, Note_on_c, 1, 40, 96
1, 132111, Note_off_c, 1, 40, 96
1, 132111, Note_on_c, 1, 52, 96
1, 132112, Note_off_c, 1, 52, 96
1, 132143, Note_on_c, 1, 78, 96
1, 132144, Note_off_c, 1, 78, 96
1, 132175, Note_on_c, 1, 72, 96
1, 132175, Note_on_c, 1, 67, 96
1, 132176, Note_off_c, 1, 72, 96
1, 132176, Note_off_c, 1, 67, 96
1, 132179, Note_on_c, 1, 79, 96
1, 132179, Note_on_c, 1, 55, 96
1, 132181, Note_off_c, 1, 79, 96
1, 132181, Note_off_c, 1, 55, 96
1, 132181, Note_on_c, 1, 43, 96
1, 132182, Note_off_c, 1, 43, 96
1, 132212, Note_on_c, 1, 74, 96
1, 132213, Note_off_c, 1, 74, 96
1, 132242, Note_on_c, 1, 79, 96
1, 132245, Note_off_c, 1, 79, 96
1, 132245, Note_on_c, 1, 59, 96
1, 132245, Note_on_c, 1, 55, 96
1, 132247, Note_off_c, 1, 59, 96
1, 132247, Note_off_c, 1, 55, 96
1, 132247, Note_on_c, 1, 50, 96
1, 132248, Note_off_c, 1, 50, 96
1, 132279, Note_on_c, 1, 69, 96
1, 132279, Note_on_c, 1, 78, 96
1, 132280, Note_off_c, 1, 69, 96
1, 132280, Note_off_c, 1, 78, 96
1, 132309, Note_on_c, 1, 49, 96
1, 132310, Note_off_c, 1, 49, 96
1, 132313, Note_on_c, 1, 67, 96
1, 132313, Note_on_c, 1, 61, 96
1, 132314, Note_off_c, 1, 67, 96
1, 132314, Note_off_c, 1, 61, 96
1, 132347, Note_on_c, 1, 78, 96
1, 132347, Note_on_c, 1, 70, 96
1, 132348, Note_off_c, 1, 78, 96
1, 132348, Note_off_c, 1, 70, 96
1, 132376, Note_on_c, 1, 45, 96
1, 132377, Note_off_c, 1, 45, 96
1, 132410, Note_on_c, 1, 67, 96
1, 132411, Note_off_c, 1, 67, 96
1, 132441, Note_on_c, 1, 65, 96
1, 132441, Note_on_c, 1, 74, 96
1, 132441, Note_on_c, 1, 55, 96
1, 132443, Note_off_c, 1, 65, 96
1, 132443, Note_off_c, 1, 74, 96
1, 132443, Note_off_c, 1, 55, 96
1, 132443, Note_on_c, 1, 59, 96
1, 132444, Note_off_c, 1, 59, 96
1, 132475, Note_on_c, 1, 71, 96
1, 132477, Note_off_c, 1, 71, 96
1, 132477, Note_on_c, 1, 81, 96
1, 132478, Note_off_c, 1, 81, 96
1, 132480, Note_on_c, 1, 77, 96
1, 132481, Note_off_c, 1, 77, 96
1, 132508, Note_on_c, 1, 53, 96
1, 132511, Note_off_c, 1, 53, 96
1, 132511, Note_on_c, 1, 55, 96
1, 132511, Note_on_c, 1, 59, 96
1, 132512, Note_off_c, 1, 55, 96
1, 132512, Note_off_c, 1, 59, 96
1, 132573, Note_on_c, 1, 41, 96
1, 132573, Note_on_c, 1, 53, 96
1, 132574, Note_off_c, 1, 41, 96
1, 132574, Note_off_c, 1, 53, 96
1, 132604, Note_on_c, 1, 74, 96
1, 132605, Note_off_c, 1, 74, 96
1, 132635, Note_on_c, 1, 73, 96
1, 132635, Note_on_c, 1, 56, 96
1, 132637, Note_off_c, 1, 73, 96
1, 132637, Note_off_c, 1, 56, 96
1, 132637, Note_on_c, 1, 72, 96
1, 132639, Note_off_c, 1, 72, 96
1, 132639, Note_on_c, 1, 44, 96
1, 132640, Note_off_c, 1, 44, 96
1, 132670, Note_on_c, 1, 76, 96
1, 132671, Note_off_c, 1, 76, 96
1, 132703, Note_on_c, 1, 74, 96
1, 132703, Note_on_c, 1, 55, 96
1, 132703, Note_on_c, 1, 50, 96
1, 132705, Note_off_c, 1, 74, 96
1, 132705, Note_off_c, 1, 55, 96
1, 132705, Note_off_c, 1, 50, 96
1, 132705, Note_on_c, 1, 62, 96
1, 132706, Note_off_c, 1, 62, 96
1, 132737, Note_on_c, 1, 82, 96
1, 132737, Note_on_c, 1, 74, 96
1, 132739, Note_off_c, 1, 82, 96
1, 132739, Note_off_c, 1, 74, 96
1, 132739, Note_on_c, 1, 70, 96
1, 132740, Note_off_c, 1, 70, 96
1, 132766, Note_on_c, 1, 69, 96
1, 132769, Note_off_c, 1, 69, 96
1, 132769, Note_on_c, 1, 81, 96
1, 132769, Note_on_c, 1, 42, 96
1, 132771, Note_off_c, 1, 81, 96
1, 132771, Note_off_c, 1, 42, 96
1, 132771, Note_on_c, 1, 54, 96
1, 132772, Note_off_c, 1, 54, 96
1, 132803, Note_on_c, 1, 78, 96
1, 132804, Note_off_c, 1, 78, 96
1, 132831, Note_on_c, 1, 48, 96
1, 132832, Note_off_c, 1, 48, 96
1, 132836, Note_on_c, 1, 78, 96
1, 132836, Note_on_c, 1, 66, 96
1, 132836, Note_on_c, 1, 72, 96
1, 132837, Note_off_c, 1, 78, 96
1, 132837, Note_off_c, 1, 66, 96
1, 132837, Note_off_c, 1, 72, 96
1, 132896, Note_on_c, 1, 38, 96
1, 132898, Note_off_c, 1, 38, 96
1, 132898, Note_on_c, 1, 50, 96
1, 132899, Note_off_c, 1, 50, 96
1, 132959, Note_on_c, 1, 43, 96
1, 132959, Note_on_c, 1, 55, 96
1, 132960, Note_off_c, 1, 43, 96
1, 132960, Note_off_c, 1, 55, 96
1, 132991, Note_on_c, 1, 52, 96
1, 132992, Note_off_c, 1, 52, 96
1, 133054, Note_on_c, 1, 41, 96
1, 133056, Note_off_c, 1, 41, 96
1, 133056, Note_on_c, 1, 53, 96
1, 133057, Note_off_c, 1, 53, 96
1, 133087, Note_on_c, 1, 76, 96
1, 133087, Note_on_c, 1, 72, 96
1, 133088, Note_off_c, 1, 76, 96
1, 133088, Note_off_c, 1, 72, 96
1, 133118, Note_on_c, 1, 63, 96
1, 133121, Note_off_c, 1, 63, 96
1, 133121, Note_on_c, 1, 69, 96
1, 133121, Note_on_c, 1, 60, 96
1, 133122, Note_off_c, 1, 69, 96
1, 133122, Note_off_c, 1, 60, 96
1, 133183, Note_on_c, 1, 75, 96
1, 133184, Note_off_c, 1, 75, 96
1, 133213, Note_on_c, 1, 77, 96
1, 133213, Note_on_c, 1, 53, 96
1, 133213, Note_on_c, 1, 62, 96
1, 133215, Note_off_c, 1, 77, 96
1, 133215, Note_off_c, 1, 53, 96
1, 133215, Note_off_c, 1, 62, 96
1, 133215, Note_on_c, 1, 57, 96
1, 133216, Note_off_c, 1, 57, 96
1, 133274, Note_on_c, 1, 58, 96
1, 133275, Note_off_c, 1, 58, 96
1, 133278, Note_on_c, 1, 46, 96
1, 133279, Note_off_c, 1, 46, 96
1, 133338, Note_on_c, 1, 36, 96
1, 133340, Note_off_c, 1, 36, 96
1, 133340, Note_on_c, 1, 48, 96
1, 133341, Note_off_c, 1, 48, 96
1, 133371, Note_on_c, 1, 73, 96
1, 133373, Note_off_c, 1, 73, 96
1, 133373, Note_on_c, 1, 79, 96
1, 133374, Note_off_c, 1, 79, 96
1, 133403, Note_on_c, 1, 55, 96
1, 133405, Note_off_c, 1, 55, 96
1, 133405, Note_on_c, 1, 43, 96
1, 133406, Note_off_c, 1, 43, 96
1, 133466, Note_on_c, 1, 85, 96
1, 133466, Note_on_c, 1, 73, 96
1, 133468, Note_off_c, 1, 85, 96
1, 133468, Note_off_c, 1, 73, 96
1, 133468, Note_on_c, 1, 58, 96
1, 133471, Note_off_c, 1, 58, 96
1, 133471, Note_on_c, 1, 61, 96
1, 133471, Note_on_c, 1, 64, 96
1, 133472, Note_off_c, 1, 61, 96
1, 133472, Note_off_c, 1, 64, 96
1, 133503, Note_on_c, 1, 81, 96
1, 133504, Note_off_c, 1, 81, 96
1, 133535, Note_on_c, 1, 85, 96
1, 133535, Note_on_c, 1, 62, 96
1, 133539, Note_off_c, 1, 85, 96
1, 133539, Note_off_c, 1, 62, 96
1, 133539, Note_on_c, 1, 74, 96
1, 133539, Note_on_c, 1, 60, 96
1, 133539, Note_on_c, 1, 57, 96
1, 133540, Note_off_c, 1, 74, 96
1, 133540, Note_off_c, 1, 60, 96
1, 133540, Note_off_c, 1, 57, 96
1, 133600, Note_on_c, 1, 60, 96
1, 133600, Note_on_c, 1, 57, 96
1, 133601, Note_off_c, 1, 60, 96
1, 133601, Note_off_c, 1, 57, 96
1, 133604, Note_on_c, 1, 51, 96
1, 133605, Note_off_c, 1, 51, 96
1, 133662, End_track
0, 0, End_of_file
