0, 0, Header, 0, 1, 120
1, 0, Start_track
1, 0, Tempo, 810714
1, 4, Note_on_c, 1, 73, 96
1, 4, Note_on_c, 1, 62, 96
1, 4, Note_on_c, 1, 57, 96
1, 4, Note_on_c, 1, 69, 96
1, 5, Note_off_c, 1, 73, 96
1, 5, Note_off_c, 1, 62, 96
1, 5, Note_off_c, 1, 57, 96
1, 5, Note_off_c, 1, 69, 96
1, 67, Note_on_c, 1, 60, 96
1, 67, Note_on_c, 1, 65, 96
1, 67, Note_on_c, 1, 57, 96
1, 68, Note_off_c, 1, 60, 96
1, 68, Note_off_c, 1, 65, 96
1, 68, Note_off_c, 1, 57, 96
1, 99, Note_on_c, 1, 69, 96
1, 99, Note_on_c, 1, 81, 96
1, 100, Note_off_c, 1, 69, 96
1, 100, Note_off_c, 1, 81, 96
1, 131, Note_on_c, 1, 56, 96
1, 131, Note_on_c, 1, 44, 96
1, 132, Note_off_c, 1, 56, 96
1, 132, Note_off_c, 1, 44, 96
1, 163, Note_on_c, 1, 73, 96
1, 163, Note_on_c, 1, 85, 96
1, 164, Note_off_c, 1, 73, 96
1, 164, Note_off_c, 1, 85, 96
1, 196, Note_on_c, 1, 61, 96
1, 196, Note_on_c, 1, 66, 96
1, 196, Note_on_c, 1, 58, 96
1, 197, Note_off_c, 1, 61, 96
1, 197, Note_off_c, 1, 66, 96
1, 197, Note_off_c, 1, 58, 96
1, 228, Note_on_c, 1, 76, 96
1, 228, Note_on_c, 1, 88, 96
1, 229, Note_off_c, 1, 76, 96
1, 229, Note_off_c, 1, 88, 96
1, 263, Note_on_c, 1, 74, 96
1, 263, Note_on_c, 1, 86, 96
1, 263, Note_on_c, 1, 62, 96
1, 263, Note_on_c, 1, 60, 96
1, 263, Note_on_c, 1, 66, 96
1, 264, Note_off_c, 1, 74, 96
1, 264, Note_off_c, 1, 86, 96
1, 264, Note_off_c, 1, 62, 96
1, 264, Note_off_c, 1, 60, 96
1, 264, Note_off_c, 1, 66, 96
1, 295, Note_on_c, 1, 78, 96
1, 295, Note_on_c, 1, 84, 96
1, 296, Note_off_c, 1, 78, 96
1, 296, Note_off_c, 1, 84, 96
1, 327, Note_on_c, 1, 55, 96
1, 327, Note_on_c, 1, 43, 96
1, 328, Note_off_c, 1, 55, 96
1, 328, Note_off_c, 1, 43, 96
1, 359, Note_on_c, 1, 66, 96
1, 359, Note_on_c, 1, 78, 96
1, 360, Note_off_c, 1, 66, 96
1, 360, Note_off_c, 1, 78, 96
1, 393, Note_on_c, 1, 79, 96
1, 393, Note_on_c, 1, 67, 96
1, 393, Note_on_c, 1, 58, 96
1, 393, Note_on_c, 1, 46, 96
1, 394, Note_off_c, 1, 79, 96
1, 394, Note_off_c, 1, 67, 96
1, 394, Note_off_c, 1, 58, 96
1, 394, Note_off_c, 1, 46, 96
1, 426, Note_on_c, 1, 81, 96
1, 426, Note_on_c, 1, 78, 96
1, 426, Note_on_c, 1, 72, 96
1, 427, Note_off_c, 1, 81, 96
1, 427, Note_off_c, 1, 78, 96
1, 427, Note_off_c, 1, 72, 96
1, 458, Note_on_c, 1, 60, 96
1, 458, Note_on_c, 1, 48, 96
1, 459, Note_off_c, 1, 60, 96
1, 459, Note_off_c, 1, 48, 96
1, 489, Note_on_c, 1, 75, 96
1, 490, Note_off_c, 1, 75, 96
1, 523, Note_on_c, 1, 77, 96
1, 523, Note_on_c, 1, 84, 96
1, 523, Note_on_c, 1, 57, 96
1, 523, Note_on_c, 1, 45, 96
1, 524, Note_off_c, 1, 77, 96
1, 524, Note_off_c, 1, 84, 96
1, 524, Note_off_c, 1, 57, 96
1, 524, Note_off_c, 1, 45, 96
1, 588, Note_on_c, 1, 88, 96
1, 588, Note_on_c, 1, 76, 96
1, 588, Note_on_c, 1, 55, 96
1, 588, Note_on_c, 1, 57, 96
1, 588, Note_on_c, 1, 61, 96
1, 589, Note_off_c, 1, 88, 96
1, 589, Note_off_c, 1, 76, 96
1, 589, Note_off_c, 1, 55, 96
1, 589, Note_off_c, 1, 57, 96
1, 589, Note_off_c, 1, 61, 96
1, 653, Note_on_c, 1, 73, 96
1, 653, Note_on_c, 1, 85, 96
1, 653, Note_on_c, 1, 61, 96
1, 653, Note_on_c, 1, 57, 96
1, 653, Note_on_c, 1, 55, 96
1, 654, Note_off_c, 1, 73, 96
1, 654, Note_off_c, 1, 85, 96
1, 654, Note_off_c, 1, 61, 96
1, 654, Note_off_c, 1, 57, 96
1, 654, Note_off_c, 1, 55, 96
1, 686, Note_on_c, 1, 76, 96
1, 686, Note_on_c, 1, 73, 96
1, 686, Note_on_c, 1, 81, 96
1, 687, Note_off_c, 1, 76, 96
1, 687, Note_off_c, 1, 73, 96
1, 687, Note_off_c, 1, 81, 96
1, 719, Note_on_c, 1, 55, 96
1, 719, Note_on_c, 1, 57, 96
1, 719, Note_on_c, 1, 61, 96
1, 720, Note_off_c, 1, 55, 96
1, 720, Note_off_c, 1, 57, 96
1, 720, Note_off_c, 1, 61, 96
1, 751, Note_on_c, 1, 81, 96
1, 751, Note_on_c, 1, 78, 96
1, 752, Note_off_c, 1, 81, 96
1, 752, Note_off_c, 1, 78, 96
1, 782, Note_on_c, 1, 38, 96
1, 783, Note_off_c, 1, 38, 96
1, 813, Note_on_c, 1, 74, 96
1, 814, Note_off_c, 1, 74, 96
1, 847, Note_on_c, 1, 78, 96
1, 847, Note_on_c, 1, 62, 96
1, 847, Note_on_c, 1, 57, 96
1, 847, Note_on_c, 1, 67, 96
1, 848, Note_off_c, 1, 78, 96
1, 848, Note_off_c, 1, 62, 96
1, 848, Note_off_c, 1, 57, 96
1, 848, Note_off_c, 1, 67, 96
1, 879, Note_on_c, 1, 72, 96
1, 879, Note_on_c, 1, 75, 96
1, 880, Note_off_c, 1, 72, 96
1, 880, Note_off_c, 1, 75, 96
1, 910, Note_on_c, 1, 43, 96
1, 911, Note_off_c, 1, 43, 96
1, 941, Note_on_c, 1, 74, 96
1, 942, Note_off_c, 1, 74, 96
1, 976, Note_on_c, 1, 67, 96
1, 976, Note_on_c, 1, 79, 96
1, 976, Note_on_c, 1, 62, 96
1, 976, Note_on_c, 1, 59, 96
1, 976, Note_on_c, 1, 50, 96
1, 977, Note_off_c, 1, 67, 96
1, 977, Note_off_c, 1, 79, 96
1, 977, Note_off_c, 1, 62, 96
1, 977, Note_off_c, 1, 59, 96
1, 977, Note_off_c, 1, 50, 96
1, 1007, Note_on_c, 1, 71, 96
1, 1008, Note_off_c, 1, 71, 96
1, 1042, Note_on_c, 1, 79, 96
1, 1042, Note_on_c, 1, 74, 96
1, 1042, Note_on_c, 1, 55, 96
1, 1042, Note_on_c, 1, 59, 96
1, 1042, Note_on_c, 1, 65, 96
1, 1043, Note_off_c, 1, 79, 96
1, 1043, Note_off_c, 1, 74, 96
1, 1043, Note_off_c, 1, 55, 96
1, 1043, Note_off_c, 1, 59, 96
1, 1043, Note_off_c, 1, 65, 96
1, 1073, Note_on_c, 1, 76, 96
1, 1074, Note_off_c, 1, 76, 96
1, 1106, Note_on_c, 1, 79, 96
1, 1106, Note_on_c, 1, 50, 96
1, 1106, Note_on_c, 1, 62, 96
1, 1107, Note_off_c, 1, 79, 96
1, 1107, Note_off_c, 1, 50, 96
1, 1107, Note_off_c, 1, 62, 96
1, 1138, Note_on_c, 1, 77, 96
1, 1138, Note_on_c, 1, 83, 96
1, 1139, Note_off_c, 1, 77, 96
1, 1139, Note_off_c, 1, 83, 96
1, 1170, Note_on_c, 1, 43, 96
1, 1170, Note_on_c, 1, 55, 96
1, 1171, Note_off_c, 1, 43, 96
1, 1171, Note_off_c, 1, 55, 96
1, 1201, Note_on_c, 1, 79, 96
1, 1202, Note_off_c, 1, 79, 96
1, 1235, Note_on_c, 1, 81, 96
1, 1235, Note_on_c, 1, 59, 96
1, 1235, Note_on_c, 1, 55, 96
1, 1235, Note_on_c, 1, 65, 96
1, 1236, Note_off_c, 1, 81, 96
1, 1236, Note_off_c, 1, 59, 96
1, 1236, Note_off_c, 1, 55, 96
1, 1236, Note_off_c, 1, 65, 96
1, 1266, Note_on_c, 1, 83, 96
1, 1267, Note_off_c, 1, 83, 96
1, 1300, Note_on_c, 1, 83, 96
1, 1300, Note_on_c, 1, 55, 96
1, 1300, Note_on_c, 1, 59, 96
1, 1300, Note_on_c, 1, 65, 96
1, 1301, Note_off_c, 1, 83, 96
1, 1301, Note_off_c, 1, 55, 96
1, 1301, Note_off_c, 1, 59, 96
1, 1301, Note_off_c, 1, 65, 96
1, 1331, Note_on_c, 1, 81, 96
1, 1332, Note_off_c, 1, 81, 96
1, 1365, Note_on_c, 1, 83, 96
1, 1365, Note_on_c, 1, 53, 96
1, 1365, Note_on_c, 1, 62, 96
1, 1365, Note_on_c, 1, 57, 96
1, 1366, Note_off_c, 1, 83, 96
1, 1366, Note_off_c, 1, 53, 96
1, 1366, Note_off_c, 1, 62, 96
1, 1366, Note_off_c, 1, 57, 96
1, 1427, Note_on_c, 1, 74, 96
1, 1427, Note_on_c, 1, 65, 96
1, 1428, Note_off_c, 1, 74, 96
1, 1428, Note_off_c, 1, 65, 96
1, 1490, Note_on_c, 1, 82, 96
1, 1490, Note_on_c, 1, 73, 96
1, 1490, Note_on_c, 1, 46, 96
1, 1491, Note_off_c, 1, 82, 96
1, 1491, Note_off_c, 1, 73, 96
1, 1491, Note_off_c, 1, 46, 96
1, 1555, Note_on_c, 1, 81, 96
1, 1555, Note_on_c, 1, 73, 96
1, 1555, Note_on_c, 1, 69, 96
1, 1555, Note_on_c, 1, 45, 96
1, 1555, Note_on_c, 1, 57, 96
1, 1556, Note_off_c, 1, 81, 96
1, 1556, Note_off_c, 1, 73, 96
1, 1556, Note_off_c, 1, 69, 96
1, 1556, Note_off_c, 1, 45, 96
1, 1556, Note_off_c, 1, 57, 96
1, 1587, Note_on_c, 1, 79, 96
1, 1587, Note_on_c, 1, 91, 96
1, 1588, Note_off_c, 1, 79, 96
1, 1588, Note_off_c, 1, 91, 96
1, 1620, Note_on_c, 1, 61, 96
1, 1620, Note_on_c, 1, 64, 96
1, 1620, Note_on_c, 1, 55, 96
1, 1621, Note_off_c, 1, 61, 96
1, 1621, Note_off_c, 1, 64, 96
1, 1621, Note_off_c, 1, 55, 96
1, 1652, Note_on_c, 1, 81, 96
1, 1652, Note_on_c, 1, 77, 96
1, 1653, Note_off_c, 1, 81, 96
1, 1653, Note_off_c, 1, 77, 96
1, 1684, Note_on_c, 1, 64, 96
1, 1684, Note_on_c, 1, 69, 96
1, 1685, Note_off_c, 1, 64, 96
1, 1685, Note_off_c, 1, 69, 96
1, 1715, Note_on_c, 1, 65, 96
1, 1716, Note_off_c, 1, 65, 96
1, 1749, Note_on_c, 1, 76, 96
1, 1749, Note_on_c, 1, 52, 96
1, 1749, Note_on_c, 1, 57, 96
1, 1749, Note_on_c, 1, 61, 96
1, 1750, Note_off_c, 1, 76, 96
1, 1750, Note_off_c, 1, 52, 96
1, 1750, Note_off_c, 1, 57, 96
1, 1750, Note_off_c, 1, 61, 96
1, 1780, Note_on_c, 1, 82, 96
1, 1781, Note_off_c, 1, 82, 96
1, 1814, Note_on_c, 1, 82, 96
1, 1814, Note_on_c, 1, 60, 96
1, 1814, Note_on_c, 1, 58, 96
1, 1814, Note_on_c, 1, 64, 96
1, 1815, Note_off_c, 1, 82, 96
1, 1815, Note_off_c, 1, 60, 96
1, 1815, Note_off_c, 1, 58, 96
1, 1815, Note_off_c, 1, 64, 96
1, 1845, Note_on_c, 1, 74, 96
1, 1846, Note_off_c, 1, 74, 96
1, 1879, Note_on_c, 1, 76, 96
1, 1879, Note_on_c, 1, 55, 96
1, 1879, Note_on_c, 1, 60, 96
1, 1879, Note_on_c, 1, 64, 96
1, 1880, Note_off_c, 1, 76, 96
1, 1880, Note_off_c, 1, 55, 96
1, 1880, Note_off_c, 1, 60, 96
1, 1880, Note_off_c, 1, 64, 96
1, 1911, Note_on_c, 1, 76, 96
1, 1911, Note_on_c, 1, 79, 96
1, 1912, Note_off_c, 1, 76, 96
1, 1912, Note_off_c, 1, 79, 96
1, 1943, Note_on_c, 1, 52, 96
1, 1943, Note_on_c, 1, 64, 96
1, 1944, Note_off_c, 1, 52, 96
1, 1944, Note_off_c, 1, 64, 96
1, 1974, Note_on_c, 1, 79, 96
1, 1975, Note_off_c, 1, 79, 96
1, 2009, Note_on_c, 1, 79, 96
1, 2009, Note_on_c, 1, 67, 96
1, 2009, Note_on_c, 1, 55, 96
1, 2009, Note_on_c, 1, 60, 96
1, 2009, Note_on_c, 1, 64, 96
1, 2010, Note_off_c, 1, 79, 96
1, 2010, Note_off_c, 1, 67, 96
1, 2010, Note_off_c, 1, 55, 96
1, 2010, Note_off_c, 1, 60, 96
1, 2010, Note_off_c, 1, 64, 96
1, 2041, Note_on_c, 1, 72, 96
1, 2041, Note_on_c, 1, 84, 96
1, 2042, Note_off_c, 1, 72, 96
1, 2042, Note_off_c, 1, 84, 96
1, 2076, Note_on_c, 1, 83, 96
1, 2076, Note_on_c, 1, 79, 96
1, 2076, Note_on_c, 1, 55, 96
1, 2076, Note_on_c, 1, 60, 96
1, 2076, Note_on_c, 1, 64, 96
1, 2077, Note_off_c, 1, 83, 96
1, 2077, Note_off_c, 1, 79, 96
1, 2077, Note_off_c, 1, 55, 96
1, 2077, Note_off_c, 1, 60, 96
1, 2077, Note_off_c, 1, 64, 96
1, 2108, Note_on_c, 1, 76, 96
1, 2108, Note_on_c, 1, 72, 96
1, 2109, Note_off_c, 1, 76, 96
1, 2109, Note_off_c, 1, 72, 96
1, 2139, Note_on_c, 1, 43, 96
1, 2140, Note_off_c, 1, 43, 96
1, 2170, Note_on_c, 1, 86, 96
1, 2171, Note_off_c, 1, 86, 96
1, 2204, Note_on_c, 1, 88, 96
1, 2204, Note_on_c, 1, 55, 96
1, 2204, Note_on_c, 1, 64, 96
1, 2204, Note_on_c, 1, 60, 96
1, 2205, Note_off_c, 1, 88, 96
1, 2205, Note_off_c, 1, 55, 96
1, 2205, Note_off_c, 1, 64, 96
1, 2205, Note_off_c, 1, 60, 96
1, 2235, Note_on_c, 1, 83, 96
1, 2236, Note_off_c, 1, 83, 96
1, 2269, Note_on_c, 1, 83, 96
1, 2269, Note_on_c, 1, 55, 96
1, 2269, Note_on_c, 1, 59, 96
1, 2269, Note_on_c, 1, 65, 96
1, 2270, Note_off_c, 1, 83, 96
1, 2270, Note_off_c, 1, 55, 96
1, 2270, Note_off_c, 1, 59, 96
1, 2270, Note_off_c, 1, 65, 96
1, 2301, Note_on_c, 1, 74, 96
1, 2301, Note_on_c, 1, 86, 96
1, 2302, Note_off_c, 1, 74, 96
1, 2302, Note_off_c, 1, 86, 96
1, 2332, Note_on_c, 1, 41, 96
1, 2333, Note_off_c, 1, 41, 96
1, 2363, Note_on_c, 1, 76, 96
1, 2364, Note_off_c, 1, 76, 96
1, 2398, Note_on_c, 1, 76, 96
1, 2398, Note_on_c, 1, 64, 96
1, 2398, Note_on_c, 1, 60, 96
1, 2398, Note_on_c, 1, 57, 96
1, 2398, Note_on_c, 1, 55, 96
1, 2399, Note_off_c, 1, 76, 96
1, 2399, Note_off_c, 1, 64, 96
1, 2399, Note_off_c, 1, 60, 96
1, 2399, Note_off_c, 1, 57, 96
1, 2399, Note_off_c, 1, 55, 96
1, 2462, Note_on_c, 1, 72, 96
1, 2462, Note_on_c, 1, 60, 96
1, 2462, Note_on_c, 1, 56, 96
1, 2462, Note_on_c, 1, 52, 96
1, 2463, Note_off_c, 1, 72, 96
1, 2463, Note_off_c, 1, 60, 96
1, 2463, Note_off_c, 1, 56, 96
1, 2463, Note_off_c, 1, 52, 96
1, 2493, Note_on_c, 1, 66, 96
1, 2494, Note_off_c, 1, 66, 96
1, 2527, Note_on_c, 1, 67, 96
1, 2527, Note_on_c, 1, 64, 96
1, 2527, Note_on_c, 1, 55, 96
1, 2527, Note_on_c, 1, 60, 96
1, 2528, Note_off_c, 1, 67, 96
1, 2528, Note_off_c, 1, 64, 96
1, 2528, Note_off_c, 1, 55, 96
1, 2528, Note_off_c, 1, 60, 96
1, 2558, Note_on_c, 1, 69, 96
1, 2559, Note_off_c, 1, 69, 96
1, 2592, Note_on_c, 1, 67, 96
1, 2592, Note_on_c, 1, 69, 96
1, 2592, Note_on_c, 1, 55, 96
1, 2592, Note_on_c, 1, 60, 96
1, 2593, Note_off_c, 1, 67, 96
1, 2593, Note_off_c, 1, 69, 96
1, 2593, Note_off_c, 1, 55, 96
1, 2593, Note_off_c, 1, 60, 96
1, 2657, Note_on_c, 1, 59, 96
1, 2657, Note_on_c, 1, 65, 96
1, 2657, Note_on_c, 1, 69, 96
1, 2657, Note_on_c, 1, 50, 96
1, 2657, Note_on_c, 1, 43, 96
1, 2658, Note_off_c, 1, 59, 96
1, 2658, Note_off_c, 1, 65, 96
1, 2658, Note_off_c, 1, 69, 96
1, 2658, Note_off_c, 1, 50, 96
1, 2658, Note_off_c, 1, 43, 96
1, 2720, Note_on_c, 1, 67, 96
1, 2720, Note_on_c, 1, 64, 96
1, 2720, Note_on_c, 1, 48, 96
1, 2721, Note_off_c, 1, 67, 96
1, 2721, Note_off_c, 1, 64, 96
1, 2721, Note_off_c, 1, 48, 96
1, 2785, Note_on_c, 1, 64, 96
1, 2785, Note_on_c, 1, 69, 96
1, 2785, Note_on_c, 1, 52, 96
1, 2785, Note_on_c, 1, 57, 96
1, 2785, Note_on_c, 1, 60, 96
1, 2786, Note_off_c, 1, 64, 96
1, 2786, Note_off_c, 1, 69, 96
1, 2786, Note_off_c, 1, 52, 96
1, 2786, Note_off_c, 1, 57, 96
1, 2786, Note_off_c, 1, 60, 96
1, 2816, Note_on_c, 1, 68, 96
1, 2817, Note_off_c, 1, 68, 96
1, 2847, Note_on_c, 1, 69, 96
1, 2848, Note_off_c, 1, 69, 96
1, 2878, Note_on_c, 1, 67, 96
1, 2879, Note_off_c, 1, 67, 96
1, 2909, Note_on_c, 1, 67, 96
1, 2910, Note_off_c, 1, 67, 96
1, 2940, Note_on_c, 1, 70, 96
1, 2941, Note_off_c, 1, 70, 96
1, 2972, Note_on_c, 1, 77, 96
1, 2972, Note_on_c, 1, 40, 96
1, 2973, Note_off_c, 1, 77, 96
1, 2973, Note_off_c, 1, 40, 96
1, 3003, Note_on_c, 1, 75, 96
1, 3004, Note_off_c, 1, 75, 96
1, 3036, Note_on_c, 1, 64, 96
1, 3036, Note_on_c, 1, 60, 96
1, 3036, Note_on_c, 1, 55, 96
1, 3037, Note_off_c, 1, 64, 96
1, 3037, Note_off_c, 1, 60, 96
1, 3037, Note_off_c, 1, 55, 96
1, 3067, Note_on_c, 1, 67, 96
1, 3068, Note_off_c, 1, 67, 96
1, 3100, Note_on_c, 1, 81, 96
1, 3100, Note_on_c, 1, 54, 96
1, 3100, Note_on_c, 1, 62, 96
1, 3101, Note_off_c, 1, 81, 96
1, 3101, Note_off_c, 1, 54, 96
1, 3101, Note_off_c, 1, 62, 96
1, 3131, Note_on_c, 1, 82, 96
1, 3132, Note_off_c, 1, 82, 96
1, 3165, Note_on_c, 1, 83, 96
1, 3165, Note_on_c, 1, 76, 96
1, 3165, Note_on_c, 1, 71, 96
1, 3165, Note_on_c, 1, 52, 96
1, 3166, Note_off_c, 1, 83, 96
1, 3166, Note_off_c, 1, 76, 96
1, 3166, Note_off_c, 1, 71, 96
1, 3166, Note_off_c, 1, 52, 96
1, 3227, Note_on_c, 1, 59, 96
1, 3227, Note_on_c, 1, 62, 96
1, 3228, Note_off_c, 1, 59, 96
1, 3228, Note_off_c, 1, 62, 96
1, 3293, Note_on_c, 1, 75, 96
1, 3293, Note_on_c, 1, 87, 96
1, 3293, Note_on_c, 1, 63, 96
1, 3293, Note_on_c, 1, 60, 96
1, 3293, Note_on_c, 1, 57, 96
1, 3293, Note_on_c, 1, 54, 96
1, 3294, Note_off_c, 1, 75, 96
1, 3294, Note_off_c, 1, 87, 96
1, 3294, Note_off_c, 1, 63, 96
1, 3294, Note_off_c, 1, 60, 96
1, 3294, Note_off_c, 1, 57, 96
1, 3294, Note_off_c, 1, 54, 96
1, 3326, Note_on_c, 1, 76, 96
1, 3326, Note_on_c, 1, 88, 96
1, 3326, Note_on_c, 1, 81, 96
1, 3327, Note_off_c, 1, 76, 96
1, 3327, Note_off_c, 1, 88, 96
1, 3327, Note_off_c, 1, 81, 96
1, 3358, Note_on_c, 1, 57, 96
1, 3358, Note_on_c, 1, 45, 96
1, 3359, Note_off_c, 1, 57, 96
1, 3359, Note_off_c, 1, 45, 96
1, 3390, Note_on_c, 1, 88, 96
1, 3390, Note_on_c, 1, 76, 96
1, 3391, Note_off_c, 1, 88, 96
1, 3391, Note_off_c, 1, 76, 96
1, 3422, Note_on_c, 1, 49, 96
1, 3422, Note_on_c, 1, 61, 96
1, 3423, Note_off_c, 1, 49, 96
1, 3423, Note_off_c, 1, 61, 96
1, 3454, Note_on_c, 1, 74, 96
1, 3454, Note_on_c, 1, 86, 96
1, 3455, Note_off_c, 1, 74, 96
1, 3455, Note_off_c, 1, 86, 96
1, 3489, Note_on_c, 1, 52, 96
1, 3489, Note_on_c, 1, 81, 96
1, 3489, Note_on_c, 1, 78, 96
1, 3489, Note_on_c, 1, 69, 96
1, 3489, Note_on_c, 1, 40, 96
1, 3490, Note_off_c, 1, 52, 96
1, 3490, Note_off_c, 1, 81, 96
1, 3490, Note_off_c, 1, 78, 96
1, 3490, Note_off_c, 1, 69, 96
1, 3490, Note_off_c, 1, 40, 96
1, 3551, Note_on_c, 1, 42, 96
1, 3551, Note_on_c, 1, 54, 96
1, 3552, Note_off_c, 1, 42, 96
1, 3552, Note_off_c, 1, 54, 96
1, 3618, Note_on_c, 1, 79, 96
1, 3618, Note_on_c, 1, 76, 96
1, 3618, Note_on_c, 1, 85, 96
1, 3618, Note_on_c, 1, 88, 96
1, 3618, Note_on_c, 1, 55, 96
1, 3618, Note_on_c, 1, 61, 96
1, 3618, Note_on_c, 1, 57, 96
1, 3619, Note_off_c, 1, 79, 96
1, 3619, Note_off_c, 1, 76, 96
1, 3619, Note_off_c, 1, 85, 96
1, 3619, Note_off_c, 1, 88, 96
1, 3619, Note_off_c, 1, 55, 96
1, 3619, Note_off_c, 1, 61, 96
1, 3619, Note_off_c, 1, 57, 96
1, 3682, Note_on_c, 1, 74, 96
1, 3682, Note_on_c, 1, 86, 96
1, 3682, Note_on_c, 1, 47, 96
1, 3682, Note_on_c, 1, 59, 96
1, 3683, Note_off_c, 1, 74, 96
1, 3683, Note_off_c, 1, 86, 96
1, 3683, Note_off_c, 1, 47, 96
1, 3683, Note_off_c, 1, 59, 96
1, 3714, Note_on_c, 1, 88, 96
1, 3714, Note_on_c, 1, 76, 96
1, 3715, Note_off_c, 1, 88, 96
1, 3715, Note_off_c, 1, 76, 96
1, 3745, Note_on_c, 1, 40, 96
1, 3746, Note_off_c, 1, 40, 96
1, 3778, Note_on_c, 1, 85, 96
1, 3778, Note_on_c, 1, 76, 96
1, 3778, Note_on_c, 1, 73, 96
1, 3779, Note_off_c, 1, 85, 96
1, 3779, Note_off_c, 1, 76, 96
1, 3779, Note_off_c, 1, 73, 96
1, 3810, Note_on_c, 1, 57, 96
1, 3810, Note_on_c, 1, 45, 96
1, 3811, Note_off_c, 1, 57, 96
1, 3811, Note_off_c, 1, 45, 96
1, 3843, Note_on_c, 1, 80, 96
1, 3843, Note_on_c, 1, 88, 96
1, 3843, Note_on_c, 1, 83, 96
1, 3844, Note_off_c, 1, 80, 96
1, 3844, Note_off_c, 1, 88, 96
1, 3844, Note_off_c, 1, 83, 96
1, 3876, Note_on_c, 1, 56, 96
1, 3876, Note_on_c, 1, 52, 96
1, 3876, Note_on_c, 1, 61, 96
1, 3877, Note_off_c, 1, 56, 96
1, 3877, Note_off_c, 1, 52, 96
1, 3877, Note_off_c, 1, 61, 96
1, 3908, Note_on_c, 1, 81, 96
1, 3908, Note_on_c, 1, 69, 96
1, 3909, Note_off_c, 1, 81, 96
1, 3909, Note_off_c, 1, 69, 96
1, 3939, Note_on_c, 1, 52, 96
1, 3940, Note_off_c, 1, 52, 96
1, 3972, Note_on_c, 1, 76, 96
1, 3972, Note_on_c, 1, 88, 96
1, 3972, Note_on_c, 1, 79, 96
1, 3973, Note_off_c, 1, 76, 96
1, 3973, Note_off_c, 1, 88, 96
1, 3973, Note_off_c, 1, 79, 96
1, 4004, Note_on_c, 1, 57, 96
1, 4004, Note_on_c, 1, 45, 96
1, 4005, Note_off_c, 1, 57, 96
1, 4005, Note_off_c, 1, 45, 96
1, 4035, Note_on_c, 1, 67, 96
1, 4036, Note_off_c, 1, 67, 96
1, 4069, Note_on_c, 1, 81, 96
1, 4069, Note_on_c, 1, 61, 96
1, 4069, Note_on_c, 1, 55, 96
1, 4069, Note_on_c, 1, 57, 96
1, 4070, Note_off_c, 1, 81, 96
1, 4070, Note_off_c, 1, 61, 96
1, 4070, Note_off_c, 1, 55, 96
1, 4070, Note_off_c, 1, 57, 96
1, 4101, Note_on_c, 1, 75, 96
1, 4101, Note_on_c, 1, 66, 96
1, 4102, Note_off_c, 1, 75, 96
1, 4102, Note_off_c, 1, 66, 96
1, 4136, Note_on_c, 1, 76, 96
1, 4136, Note_on_c, 1, 73, 96
1, 4136, Note_on_c, 1, 61, 96
1, 4136, Note_on_c, 1, 64, 96
1, 4136, Note_on_c, 1, 57, 96
1, 4137, Note_off_c, 1, 76, 96
1, 4137, Note_off_c, 1, 73, 96
1, 4137, Note_off_c, 1, 61, 96
1, 4137, Note_off_c, 1, 64, 96
1, 4137, Note_off_c, 1, 57, 96
1, 4168, Note_on_c, 1, 80, 96
1, 4168, Note_on_c, 1, 84, 96
1, 4169, Note_off_c, 1, 80, 96
1, 4169, Note_off_c, 1, 84, 96
1, 4204, Note_on_c, 1, 76, 96
1, 4204, Note_on_c, 1, 79, 96
1, 4204, Note_on_c, 1, 72, 96
1, 4204, Note_on_c, 1, 67, 96
1, 4204, Note_on_c, 1, 55, 96
1, 4204, Note_on_c, 1, 60, 96
1, 4205, Note_off_c, 1, 76, 96
1, 4205, Note_off_c, 1, 79, 96
1, 4205, Note_off_c, 1, 72, 96
1, 4205, Note_off_c, 1, 67, 96
1, 4205, Note_off_c, 1, 55, 96
1, 4205, Note_off_c, 1, 60, 96
1, 4269, Note_on_c, 1, 66, 96
1, 4269, Note_on_c, 1, 84, 96
1, 4269, Note_on_c, 1, 60, 96
1, 4269, Note_on_c, 1, 54, 96
1, 4269, Note_on_c, 1, 50, 96
1, 4270, Note_off_c, 1, 66, 96
1, 4270, Note_off_c, 1, 84, 96
1, 4270, Note_off_c, 1, 60, 96
1, 4270, Note_off_c, 1, 54, 96
1, 4270, Note_off_c, 1, 50, 96
1, 4331, Note_on_c, 1, 63, 96
1, 4331, Note_on_c, 1, 51, 96
1, 4332, Note_off_c, 1, 63, 96
1, 4332, Note_off_c, 1, 51, 96
1, 4365, Note_on_c, 1, 70, 96
1, 4365, Note_on_c, 1, 65, 96
1, 4365, Note_on_c, 1, 74, 96
1, 4365, Note_on_c, 1, 77, 96
1, 4366, Note_off_c, 1, 70, 96
1, 4366, Note_off_c, 1, 65, 96
1, 4366, Note_off_c, 1, 74, 96
1, 4366, Note_off_c, 1, 77, 96
1, 4400, Note_on_c, 1, 76, 96
1, 4400, Note_on_c, 1, 79, 96
1, 4400, Note_on_c, 1, 53, 96
1, 4400, Note_on_c, 1, 58, 96
1, 4400, Note_on_c, 1, 62, 96
1, 4401, Note_off_c, 1, 76, 96
1, 4401, Note_off_c, 1, 79, 96
1, 4401, Note_off_c, 1, 53, 96
1, 4401, Note_off_c, 1, 58, 96
1, 4401, Note_off_c, 1, 62, 96
1, 4462, Note_on_c, 1, 53, 96
1, 4462, Note_on_c, 1, 41, 96
1, 4463, Note_off_c, 1, 53, 96
1, 4463, Note_off_c, 1, 41, 96
1, 4494, Note_on_c, 1, 76, 96
1, 4494, Note_on_c, 1, 79, 96
1, 4495, Note_off_c, 1, 76, 96
1, 4495, Note_off_c, 1, 79, 96
1, 4525, Note_on_c, 1, 58, 96
1, 4526, Note_off_c, 1, 58, 96
1, 4556, Note_on_c, 1, 72, 96
1, 4557, Note_off_c, 1, 72, 96
1, 4590, Note_on_c, 1, 73, 96
1, 4590, Note_on_c, 1, 79, 96
1, 4590, Note_on_c, 1, 64, 96
1, 4590, Note_on_c, 1, 52, 96
1, 4591, Note_off_c, 1, 73, 96
1, 4591, Note_off_c, 1, 79, 96
1, 4591, Note_off_c, 1, 64, 96
1, 4591, Note_off_c, 1, 52, 96
1, 4622, Note_on_c, 1, 71, 96
1, 4622, Note_on_c, 1, 74, 96
1, 4623, Note_off_c, 1, 71, 96
1, 4623, Note_off_c, 1, 74, 96
1, 4655, Note_on_c, 1, 76, 96
1, 4655, Note_on_c, 1, 81, 96
1, 4655, Note_on_c, 1, 48, 96
1, 4656, Note_off_c, 1, 76, 96
1, 4656, Note_off_c, 1, 81, 96
1, 4656, Note_off_c, 1, 48, 96
1, 4686, Note_on_c, 1, 79, 96
1, 4687, Note_off_c, 1, 79, 96
1, 4721, Note_on_c, 1, 73, 96
1, 4721, Note_on_c, 1, 64, 96
1, 4721, Note_on_c, 1, 61, 96
1, 4721, Note_on_c, 1, 57, 96
1, 4721, Note_on_c, 1, 55, 96
1, 4722, Note_off_c, 1, 73, 96
1, 4722, Note_off_c, 1, 64, 96
1, 4722, Note_off_c, 1, 61, 96
1, 4722, Note_off_c, 1, 57, 96
1, 4722, Note_off_c, 1, 55, 96
1, 4753, Note_on_c, 1, 79, 96
1, 4753, Note_on_c, 1, 70, 96
1, 4754, Note_off_c, 1, 79, 96
1, 4754, Note_off_c, 1, 70, 96
1, 4789, Note_on_c, 1, 81, 96
1, 4789, Note_on_c, 1, 73, 96
1, 4789, Note_on_c, 1, 76, 96
1, 4789, Note_on_c, 1, 69, 96
1, 4789, Note_on_c, 1, 40, 96
1, 4789, Note_on_c, 1, 52, 96
1, 4790, Note_off_c, 1, 81, 96
1, 4790, Note_off_c, 1, 73, 96
1, 4790, Note_off_c, 1, 76, 96
1, 4790, Note_off_c, 1, 69, 96
1, 4790, Note_off_c, 1, 40, 96
1, 4790, Note_off_c, 1, 52, 96
1, 4853, Note_on_c, 1, 76, 96
1, 4853, Note_on_c, 1, 64, 96
1, 4853, Note_on_c, 1, 57, 96
1, 4853, Note_on_c, 1, 45, 96
1, 4854, Note_off_c, 1, 76, 96
1, 4854, Note_off_c, 1, 64, 96
1, 4854, Note_off_c, 1, 57, 96
1, 4854, Note_off_c, 1, 45, 96
1, 4885, Note_on_c, 1, 81, 96
1, 4885, Note_on_c, 1, 73, 96
1, 4886, Note_off_c, 1, 81, 96
1, 4886, Note_off_c, 1, 73, 96
1, 4919, Note_on_c, 1, 66, 96
1, 4919, Note_on_c, 1, 57, 96
1, 4919, Note_on_c, 1, 61, 96
1, 4919, Note_on_c, 1, 55, 96
1, 4920, Note_off_c, 1, 66, 96
1, 4920, Note_off_c, 1, 57, 96
1, 4920, Note_off_c, 1, 61, 96
1, 4920, Note_off_c, 1, 55, 96
1, 4950, Note_on_c, 1, 76, 96
1, 4951, Note_off_c, 1, 76, 96
1, 4985, Note_on_c, 1, 81, 96
1, 4985, Note_on_c, 1, 76, 96
1, 4985, Note_on_c, 1, 57, 96
1, 4985, Note_on_c, 1, 61, 96
1, 4985, Note_on_c, 1, 67, 96
1, 4986, Note_off_c, 1, 81, 96
1, 4986, Note_off_c, 1, 76, 96
1, 4986, Note_off_c, 1, 57, 96
1, 4986, Note_off_c, 1, 61, 96
1, 4986, Note_off_c, 1, 67, 96
1, 5016, Note_on_c, 1, 67, 96
1, 5017, Note_off_c, 1, 67, 96
1, 5050, Note_on_c, 1, 74, 96
1, 5050, Note_on_c, 1, 62, 96
1, 5050, Note_on_c, 1, 55, 96
1, 5050, Note_on_c, 1, 65, 96
1, 5051, Note_off_c, 1, 74, 96
1, 5051, Note_off_c, 1, 62, 96
1, 5051, Note_off_c, 1, 55, 96
1, 5051, Note_off_c, 1, 65, 96
1, 5111, Note_on_c, 1, 50, 96
1, 5112, Note_off_c, 1, 50, 96
1, 5175, Note_on_c, 1, 78, 96
1, 5175, Note_on_c, 1, 66, 96
1, 5175, Note_on_c, 1, 54, 96
1, 5175, Note_on_c, 1, 66, 96
1, 5176, Note_off_c, 1, 78, 96
1, 5176, Note_off_c, 1, 66, 96
1, 5176, Note_off_c, 1, 54, 96
1, 5176, Note_off_c, 1, 66, 96
1, 5237, Note_on_c, 1, 71, 96
1, 5237, Note_on_c, 1, 83, 96
1, 5238, Note_off_c, 1, 71, 96
1, 5238, Note_off_c, 1, 83, 96
1, 5269, Note_on_c, 1, 74, 96
1, 5269, Note_on_c, 1, 77, 96
1, 5270, Note_off_c, 1, 74, 96
1, 5270, Note_off_c, 1, 77, 96
1, 5301, Note_on_c, 1, 76, 96
1, 5301, Note_on_c, 1, 84, 96
1, 5302, Note_off_c, 1, 76, 96
1, 5302, Note_off_c, 1, 84, 96
1, 5334, Note_on_c, 1, 84, 96
1, 5334, Note_on_c, 1, 72, 96
1, 5334, Note_on_c, 1, 84, 96
1, 5335, Note_off_c, 1, 84, 96
1, 5335, Note_off_c, 1, 72, 96
1, 5335, Note_off_c, 1, 84, 96
1, 5395, Note_on_c, 1, 50, 96
1, 5396, Note_off_c, 1, 50, 96
1, 5457, Note_on_c, 1, 83, 96
1, 5457, Note_on_c, 1, 71, 96
1, 5458, Note_off_c, 1, 83, 96
1, 5458, Note_off_c, 1, 71, 96
1, 5488, Note_on_c, 1, 67, 96
1, 5489, Note_off_c, 1, 67, 96
1, 5519, Note_on_c, 1, 76, 96
1, 5520, Note_off_c, 1, 76, 96
1, 5550, Note_on_c, 1, 74, 96
1, 5551, Note_off_c, 1, 74, 96
1, 5581, Note_on_c, 1, 72, 96
1, 5582, Note_off_c, 1, 72, 96
1, 5613, Note_on_c, 1, 65, 96
1, 5613, Note_on_c, 1, 74, 96
1, 5614, Note_off_c, 1, 65, 96
1, 5614, Note_off_c, 1, 74, 96
1, 5677, Note_on_c, 1, 71, 96
1, 5677, Note_on_c, 1, 64, 96
1, 5677, Note_on_c, 1, 43, 96
1, 5677, Note_on_c, 1, 55, 96
1, 5678, Note_off_c, 1, 71, 96
1, 5678, Note_off_c, 1, 64, 96
1, 5678, Note_off_c, 1, 43, 96
1, 5678, Note_off_c, 1, 55, 96
1, 5739, Note_on_c, 1, 31, 96
1, 5739, Note_on_c, 1, 43, 96
1, 5740, Note_off_c, 1, 31, 96
1, 5740, Note_off_c, 1, 43, 96
1, 5800, Note_on_c, 1, 36, 96
1, 5801, Note_off_c, 1, 36, 96
1, 5864, Note_on_c, 1, 69, 96
1, 5864, Note_on_c, 1, 60, 96
1, 5864, Note_on_c, 1, 63, 96
1, 5864, Note_on_c, 1, 53, 96
1, 5865, Note_off_c, 1, 69, 96
1, 5865, Note_off_c, 1, 60, 96
1, 5865, Note_off_c, 1, 63, 96
1, 5865, Note_off_c, 1, 53, 96
1, 5927, Note_on_c, 1, 76, 96
1, 5927, Note_on_c, 1, 70, 96
1, 5927, Note_on_c, 1, 52, 96
1, 5928, Note_off_c, 1, 76, 96
1, 5928, Note_off_c, 1, 70, 96
1, 5928, Note_off_c, 1, 52, 96
1, 5958, Note_on_c, 1, 74, 96
1, 5959, Note_off_c, 1, 74, 96
1, 5992, Note_on_c, 1, 77, 96
1, 5992, Note_on_c, 1, 58, 96
1, 5992, Note_on_c, 1, 62, 96
1, 5992, Note_on_c, 1, 53, 96
1, 5993, Note_off_c, 1, 77, 96
1, 5993, Note_off_c, 1, 58, 96
1, 5993, Note_off_c, 1, 62, 96
1, 5993, Note_off_c, 1, 53, 96
1, 6024, Note_on_c, 1, 81, 96
1, 6024, Note_on_c, 1, 69, 96
1, 6025, Note_off_c, 1, 81, 96
1, 6025, Note_off_c, 1, 69, 96
1, 6056, Note_on_c, 1, 34, 96
1, 6056, Note_on_c, 1, 46, 96
1, 6057, Note_off_c, 1, 34, 96
1, 6057, Note_off_c, 1, 46, 96
1, 6088, Note_on_c, 1, 70, 96
1, 6088, Note_on_c, 1, 82, 96
1, 6089, Note_off_c, 1, 70, 96
1, 6089, Note_off_c, 1, 82, 96
1, 6120, Note_on_c, 1, 62, 96
1, 6120, Note_on_c, 1, 58, 96
1, 6121, Note_off_c, 1, 62, 96
1, 6121, Note_off_c, 1, 58, 96
1, 6151, Note_on_c, 1, 79, 96
1, 6152, Note_off_c, 1, 79, 96
1, 6186, Note_on_c, 1, 77, 96
1, 6186, Note_on_c, 1, 86, 96
1, 6186, Note_on_c, 1, 62, 96
1, 6186, Note_on_c, 1, 58, 96
1, 6186, Note_on_c, 1, 53, 96
1, 6187, Note_off_c, 1, 77, 96
1, 6187, Note_off_c, 1, 86, 96
1, 6187, Note_off_c, 1, 62, 96
1, 6187, Note_off_c, 1, 58, 96
1, 6187, Note_off_c, 1, 53, 96
1, 6217, Note_on_c, 1, 82, 96
1, 6218, Note_off_c, 1, 82, 96
1, 6251, Note_on_c, 1, 84, 96
1, 6251, Note_on_c, 1, 62, 96
1, 6251, Note_on_c, 1, 58, 96
1, 6251, Note_on_c, 1, 55, 96
1, 6252, Note_off_c, 1, 84, 96
1, 6252, Note_off_c, 1, 62, 96
1, 6252, Note_off_c, 1, 58, 96
1, 6252, Note_off_c, 1, 55, 96
1, 6282, Note_on_c, 1, 74, 96
1, 6283, Note_off_c, 1, 74, 96
1, 6316, Note_on_c, 1, 74, 96
1, 6316, Note_on_c, 1, 70, 96
1, 6316, Note_on_c, 1, 58, 96
1, 6316, Note_on_c, 1, 46, 96
1, 6317, Note_off_c, 1, 74, 96
1, 6317, Note_off_c, 1, 70, 96
1, 6317, Note_off_c, 1, 58, 96
1, 6317, Note_off_c, 1, 46, 96
1, 6348, Note_on_c, 1, 74, 96
1, 6348, Note_on_c, 1, 77, 96
1, 6349, Note_off_c, 1, 74, 96
1, 6349, Note_off_c, 1, 77, 96
1, 6381, Note_on_c, 1, 58, 96
1, 6381, Note_on_c, 1, 62, 96
1, 6381, Note_on_c, 1, 53, 96
1, 6382, Note_off_c, 1, 58, 96
1, 6382, Note_off_c, 1, 62, 96
1, 6382, Note_off_c, 1, 53, 96
1, 6412, Note_on_c, 1, 88, 96
1, 6413, Note_off_c, 1, 88, 96
1, 6447, Note_on_c, 1, 78, 96
1, 6447, Note_on_c, 1, 63, 96
1, 6447, Note_on_c, 1, 60, 96
1, 6447, Note_on_c, 1, 67, 96
1, 6447, Note_on_c, 1, 70, 96
1, 6448, Note_off_c, 1, 78, 96
1, 6448, Note_off_c, 1, 63, 96
1, 6448, Note_off_c, 1, 60, 96
1, 6448, Note_off_c, 1, 67, 96
1, 6448, Note_off_c, 1, 70, 96
1, 6478, Note_on_c, 1, 73, 96
1, 6479, Note_off_c, 1, 73, 96
1, 6512, Note_on_c, 1, 77, 96
1, 6512, Note_on_c, 1, 58, 96
1, 6512, Note_on_c, 1, 62, 96
1, 6512, Note_on_c, 1, 53, 96
1, 6513, Note_off_c, 1, 77, 96
1, 6513, Note_off_c, 1, 58, 96
1, 6513, Note_off_c, 1, 62, 96
1, 6513, Note_off_c, 1, 53, 96
1, 6543, Note_on_c, 1, 81, 96
1, 6544, Note_off_c, 1, 81, 96
1, 6576, Note_on_c, 1, 79, 96
1, 6576, Note_on_c, 1, 61, 96
1, 6576, Note_on_c, 1, 49, 96
1, 6577, Note_off_c, 1, 79, 96
1, 6577, Note_off_c, 1, 61, 96
1, 6577, Note_off_c, 1, 49, 96
1, 6607, Note_on_c, 1, 67, 96
1, 6608, Note_off_c, 1, 67, 96
1, 6641, Note_on_c, 1, 74, 96
1, 6641, Note_on_c, 1, 57, 96
1, 6641, Note_on_c, 1, 62, 96
1, 6641, Note_on_c, 1, 65, 96
1, 6642, Note_off_c, 1, 74, 96
1, 6642, Note_off_c, 1, 57, 96
1, 6642, Note_off_c, 1, 62, 96
1, 6642, Note_off_c, 1, 65, 96
1, 6672, Note_on_c, 1, 65, 96
1, 6673, Note_off_c, 1, 65, 96
1, 6706, Note_on_c, 1, 67, 96
1, 6706, Note_on_c, 1, 55, 96
1, 6706, Note_on_c, 1, 58, 96
1, 6706, Note_on_c, 1, 62, 96
1, 6707, Note_off_c, 1, 67, 96
1, 6707, Note_off_c, 1, 55, 96
1, 6707, Note_off_c, 1, 58, 96
1, 6707, Note_off_c, 1, 62, 96
1, 6737, Note_on_c, 1, 72, 96
1, 6738, Note_off_c, 1, 72, 96
1, 6770, Note_on_c, 1, 79, 96
1, 6770, Note_on_c, 1, 55, 96
1, 6770, Note_on_c, 1, 43, 96
1, 6771, Note_off_c, 1, 79, 96
1, 6771, Note_off_c, 1, 55, 96
1, 6771, Note_off_c, 1, 43, 96
1, 6802, Note_on_c, 1, 81, 96
1, 6802, Note_on_c, 1, 69, 96
1, 6803, Note_off_c, 1, 81, 96
1, 6803, Note_off_c, 1, 69, 96
1, 6834, Note_on_c, 1, 58, 96
1, 6834, Note_on_c, 1, 46, 96
1, 6835, Note_off_c, 1, 58, 96
1, 6835, Note_off_c, 1, 46, 96
1, 6896, Note_on_c, 1, 60, 96
1, 6896, Note_on_c, 1, 48, 96
1, 6897, Note_off_c, 1, 60, 96
1, 6897, Note_off_c, 1, 48, 96
1, 6927, Note_on_c, 1, 65, 96
1, 6928, Note_off_c, 1, 65, 96
1, 6959, Note_on_c, 1, 68, 96
1, 6959, Note_on_c, 1, 80, 96
1, 6960, Note_off_c, 1, 68, 96
1, 6960, Note_off_c, 1, 80, 96
1, 6993, Note_on_c, 1, 81, 96
1, 6993, Note_on_c, 1, 64, 96
1, 6993, Note_on_c, 1, 60, 96
1, 6993, Note_on_c, 1, 57, 96
1, 6994, Note_off_c, 1, 81, 96
1, 6994, Note_off_c, 1, 64, 96
1, 6994, Note_off_c, 1, 60, 96
1, 6994, Note_off_c, 1, 57, 96
1, 7024, Note_on_c, 1, 81, 96
1, 7025, Note_off_c, 1, 81, 96
1, 7055, Note_on_c, 1, 76, 96
1, 7056, Note_off_c, 1, 76, 96
1, 7087, Note_on_c, 1, 79, 96
1, 7087, Note_on_c, 1, 67, 96
1, 7088, Note_off_c, 1, 79, 96
1, 7088, Note_off_c, 1, 67, 96
1, 7123, Note_on_c, 1, 82, 96
1, 7123, Note_on_c, 1, 70, 96
1, 7123, Note_on_c, 1, 79, 96
1, 7123, Note_on_c, 1, 74, 96
1, 7123, Note_on_c, 1, 43, 96
1, 7123, Note_on_c, 1, 55, 96
1, 7124, Note_off_c, 1, 82, 96
1, 7124, Note_off_c, 1, 70, 96
1, 7124, Note_off_c, 1, 79, 96
1, 7124, Note_off_c, 1, 74, 96
1, 7124, Note_off_c, 1, 43, 96
1, 7124, Note_off_c, 1, 55, 96
1, 7187, Note_on_c, 1, 79, 96
1, 7187, Note_on_c, 1, 67, 96
1, 7187, Note_on_c, 1, 40, 96
1, 7187, Note_on_c, 1, 52, 96
1, 7188, Note_off_c, 1, 79, 96
1, 7188, Note_off_c, 1, 67, 96
1, 7188, Note_off_c, 1, 40, 96
1, 7188, Note_off_c, 1, 52, 96
1, 7250, Note_on_c, 1, 72, 96
1, 7250, Note_on_c, 1, 39, 96
1, 7250, Note_on_c, 1, 51, 96
1, 7251, Note_off_c, 1, 72, 96
1, 7251, Note_off_c, 1, 39, 96
1, 7251, Note_off_c, 1, 51, 96
1, 7312, Note_on_c, 1, 57, 96
1, 7312, Note_on_c, 1, 45, 96
1, 7313, Note_off_c, 1, 57, 96
1, 7313, Note_off_c, 1, 45, 96
1, 7345, Note_on_c, 1, 64, 96
1, 7345, Note_on_c, 1, 70, 96
1, 7345, Note_on_c, 1, 73, 96
1, 7346, Note_off_c, 1, 64, 96
1, 7346, Note_off_c, 1, 70, 96
1, 7346, Note_off_c, 1, 73, 96
1, 7377, Note_on_c, 1, 61, 96
1, 7377, Note_on_c, 1, 58, 96
1, 7378, Note_off_c, 1, 61, 96
1, 7378, Note_off_c, 1, 58, 96
1, 7408, Note_on_c, 1, 73, 96
1, 7409, Note_off_c, 1, 73, 96
1, 7442, Note_on_c, 1, 74, 96
1, 7442, Note_on_c, 1, 62, 96
1, 7442, Note_on_c, 1, 41, 96
1, 7442, Note_on_c, 1, 53, 96
1, 7443, Note_off_c, 1, 74, 96
1, 7443, Note_off_c, 1, 62, 96
1, 7443, Note_off_c, 1, 41, 96
1, 7443, Note_off_c, 1, 53, 96
1, 7474, Note_on_c, 1, 76, 96
1, 7474, Note_on_c, 1, 64, 96
1, 7475, Note_off_c, 1, 76, 96
1, 7475, Note_off_c, 1, 64, 96
1, 7509, Note_on_c, 1, 52, 96
1, 7509, Note_on_c, 1, 67, 96
1, 7509, Note_on_c, 1, 55, 96
1, 7509, Note_on_c, 1, 60, 96
1, 7509, Note_on_c, 1, 58, 96
1, 7510, Note_off_c, 1, 52, 96
1, 7510, Note_off_c, 1, 67, 96
1, 7510, Note_off_c, 1, 55, 96
1, 7510, Note_off_c, 1, 60, 96
1, 7510, Note_off_c, 1, 58, 96
1, 7540, Note_on_c, 1, 69, 96
1, 7541, Note_off_c, 1, 69, 96
1, 7573, Note_on_c, 1, 69, 96
1, 7573, Note_on_c, 1, 43, 96
1, 7573, Note_on_c, 1, 55, 96
1, 7574, Note_off_c, 1, 69, 96
1, 7574, Note_off_c, 1, 43, 96
1, 7574, Note_off_c, 1, 55, 96
1, 7604, Note_on_c, 1, 72, 96
1, 7605, Note_off_c, 1, 72, 96
1, 7639, Note_on_c, 1, 74, 96
1, 7639, Note_on_c, 1, 64, 96
1, 7639, Note_on_c, 1, 58, 96
1, 7639, Note_on_c, 1, 52, 96
1, 7639, Note_on_c, 1, 48, 96
1, 7640, Note_off_c, 1, 74, 96
1, 7640, Note_off_c, 1, 64, 96
1, 7640, Note_off_c, 1, 58, 96
1, 7640, Note_off_c, 1, 52, 96
1, 7640, Note_off_c, 1, 48, 96
1, 7703, Note_on_c, 1, 62, 96
1, 7703, Note_on_c, 1, 74, 96
1, 7703, Note_on_c, 1, 59, 96
1, 7703, Note_on_c, 1, 47, 96
1, 7704, Note_off_c, 1, 62, 96
1, 7704, Note_off_c, 1, 74, 96
1, 7704, Note_off_c, 1, 59, 96
1, 7704, Note_off_c, 1, 47, 96
1, 7734, Note_on_c, 1, 67, 96
1, 7735, Note_off_c, 1, 67, 96
1, 7767, Note_on_c, 1, 71, 96
1, 7767, Note_on_c, 1, 67, 96
1, 7767, Note_on_c, 1, 43, 96
1, 7768, Note_off_c, 1, 71, 96
1, 7768, Note_off_c, 1, 67, 96
1, 7768, Note_off_c, 1, 43, 96
1, 7829, Note_on_c, 1, 69, 96
1, 7829, Note_on_c, 1, 53, 96
1, 7830, Note_off_c, 1, 69, 96
1, 7830, Note_off_c, 1, 53, 96
1, 7861, Note_on_c, 1, 72, 96
1, 7861, Note_on_c, 1, 65, 96
1, 7862, Note_off_c, 1, 72, 96
1, 7862, Note_off_c, 1, 65, 96
1, 7894, Note_on_c, 1, 67, 96
1, 7894, Note_on_c, 1, 64, 96
1, 7894, Note_on_c, 1, 52, 96
1, 7895, Note_off_c, 1, 67, 96
1, 7895, Note_off_c, 1, 64, 96
1, 7895, Note_off_c, 1, 52, 96
1, 7925, Note_on_c, 1, 71, 96
1, 7926, Note_off_c, 1, 71, 96
1, 7959, Note_on_c, 1, 67, 96
1, 7959, Note_on_c, 1, 55, 96
1, 7959, Note_on_c, 1, 50, 96
1, 7959, Note_on_c, 1, 59, 96
1, 7960, Note_off_c, 1, 67, 96
1, 7960, Note_off_c, 1, 55, 96
1, 7960, Note_off_c, 1, 50, 96
1, 7960, Note_off_c, 1, 59, 96
1, 7991, Note_on_c, 1, 76, 96
1, 7991, Note_on_c, 1, 67, 96
1, 7992, Note_off_c, 1, 76, 96
1, 7992, Note_off_c, 1, 67, 96
1, 8022, Note_on_c, 1, 43, 96
1, 8023, Note_off_c, 1, 43, 96
1, 8053, Note_on_c, 1, 67, 96
1, 8054, Note_off_c, 1, 67, 96
1, 8086, Note_on_c, 1, 71, 96
1, 8086, Note_on_c, 1, 55, 96
1, 8086, Note_on_c, 1, 60, 96
1, 8087, Note_off_c, 1, 71, 96
1, 8087, Note_off_c, 1, 55, 96
1, 8087, Note_off_c, 1, 60, 96
1, 8118, Note_on_c, 1, 76, 96
1, 8118, Note_on_c, 1, 66, 96
1, 8119, Note_off_c, 1, 76, 96
1, 8119, Note_off_c, 1, 66, 96
1, 8153, Note_on_c, 1, 67, 96
1, 8153, Note_on_c, 1, 76, 96
1, 8153, Note_on_c, 1, 81, 96
1, 8153, Note_on_c, 1, 60, 96
1, 8153, Note_on_c, 1, 48, 96
1, 8154, Note_off_c, 1, 67, 96
1, 8154, Note_off_c, 1, 76, 96
1, 8154, Note_off_c, 1, 81, 96
1, 8154, Note_off_c, 1, 60, 96
1, 8154, Note_off_c, 1, 48, 96
1, 8184, Note_on_c, 1, 76, 96
1, 8185, Note_off_c, 1, 76, 96
1, 8216, Note_on_c, 1, 60, 96
1, 8216, Note_on_c, 1, 64, 96
1, 8217, Note_off_c, 1, 60, 96
1, 8217, Note_off_c, 1, 64, 96
1, 8248, Note_on_c, 1, 79, 96
1, 8248, Note_on_c, 1, 67, 96
1, 8249, Note_off_c, 1, 79, 96
1, 8249, Note_off_c, 1, 67, 96
1, 8281, Note_on_c, 1, 84, 96
1, 8281, Note_on_c, 1, 76, 96
1, 8281, Note_on_c, 1, 55, 96
1, 8282, Note_off_c, 1, 84, 96
1, 8282, Note_off_c, 1, 76, 96
1, 8282, Note_off_c, 1, 55, 96
1, 8312, Note_on_c, 1, 78, 96
1, 8313, Note_off_c, 1, 78, 96
1, 8344, Note_on_c, 1, 78, 96
1, 8344, Note_on_c, 1, 47, 96
1, 8345, Note_off_c, 1, 78, 96
1, 8345, Note_off_c, 1, 47, 96
1, 8376, Note_on_c, 1, 74, 96
1, 8376, Note_on_c, 1, 86, 96
1, 8377, Note_off_c, 1, 74, 96
1, 8377, Note_off_c, 1, 86, 96
1, 8408, Note_on_c, 1, 50, 96
1, 8408, Note_on_c, 1, 38, 96
1, 8409, Note_off_c, 1, 50, 96
1, 8409, Note_off_c, 1, 38, 96
1, 8440, Note_on_c, 1, 74, 96
1, 8440, Note_on_c, 1, 86, 96
1, 8441, Note_off_c, 1, 74, 96
1, 8441, Note_off_c, 1, 86, 96
1, 8475, Note_on_c, 1, 81, 96
1, 8475, Note_on_c, 1, 69, 96
1, 8475, Note_on_c, 1, 59, 96
1, 8475, Note_on_c, 1, 50, 96
1, 8475, Note_on_c, 1, 55, 96
1, 8476, Note_off_c, 1, 81, 96
1, 8476, Note_off_c, 1, 69, 96
1, 8476, Note_off_c, 1, 59, 96
1, 8476, Note_off_c, 1, 50, 96
1, 8476, Note_off_c, 1, 55, 96
1, 8508, Note_on_c, 1, 88, 96
1, 8508, Note_on_c, 1, 76, 96
1, 8508, Note_on_c, 1, 74, 96
1, 8509, Note_off_c, 1, 88, 96
1, 8509, Note_off_c, 1, 76, 96
1, 8509, Note_off_c, 1, 74, 96
1, 8541, Note_on_c, 1, 55, 96
1, 8541, Note_on_c, 1, 59, 96
1, 8541, Note_on_c, 1, 62, 96
1, 8542, Note_off_c, 1, 55, 96
1, 8542, Note_off_c, 1, 59, 96
1, 8542, Note_off_c, 1, 62, 96
1, 8573, Note_on_c, 1, 83, 96
1, 8573, Note_on_c, 1, 79, 96
1, 8574, Note_off_c, 1, 83, 96
1, 8574, Note_off_c, 1, 79, 96
1, 8607, Note_on_c, 1, 79, 96
1, 8607, Note_on_c, 1, 67, 96
1, 8607, Note_on_c, 1, 55, 96
1, 8607, Note_on_c, 1, 59, 96
1, 8608, Note_off_c, 1, 79, 96
1, 8608, Note_off_c, 1, 67, 96
1, 8608, Note_off_c, 1, 55, 96
1, 8608, Note_off_c, 1, 59, 96
1, 8639, Note_on_c, 1, 73, 96
1, 8639, Note_on_c, 1, 85, 96
1, 8640, Note_off_c, 1, 73, 96
1, 8640, Note_off_c, 1, 85, 96
1, 8673, Note_on_c, 1, 76, 96
1, 8673, Note_on_c, 1, 88, 96
1, 8673, Note_on_c, 1, 57, 96
1, 8673, Note_on_c, 1, 45, 96
1, 8674, Note_off_c, 1, 76, 96
1, 8674, Note_off_c, 1, 88, 96
1, 8674, Note_off_c, 1, 57, 96
1, 8674, Note_off_c, 1, 45, 96
1, 8704, Note_on_c, 1, 81, 96
1, 8705, Note_off_c, 1, 81, 96
1, 8738, Note_on_c, 1, 76, 96
1, 8738, Note_on_c, 1, 61, 96
1, 8738, Note_on_c, 1, 57, 96
1, 8738, Note_on_c, 1, 55, 96
1, 8739, Note_off_c, 1, 76, 96
1, 8739, Note_off_c, 1, 61, 96
1, 8739, Note_off_c, 1, 57, 96
1, 8739, Note_off_c, 1, 55, 96
1, 8769, Note_on_c, 1, 74, 96
1, 8770, Note_off_c, 1, 74, 96
1, 8801, Note_on_c, 1, 67, 96
1, 8801, Note_on_c, 1, 79, 96
1, 8802, Note_off_c, 1, 67, 96
1, 8802, Note_off_c, 1, 79, 96
1, 8833, Note_on_c, 1, 83, 96
1, 8833, Note_on_c, 1, 74, 96
1, 8834, Note_off_c, 1, 83, 96
1, 8834, Note_off_c, 1, 74, 96
1, 8865, Note_on_c, 1, 59, 96
1, 8865, Note_on_c, 1, 47, 96
1, 8866, Note_off_c, 1, 59, 96
1, 8866, Note_off_c, 1, 47, 96
1, 8896, Note_on_c, 1, 79, 96
1, 8897, Note_off_c, 1, 79, 96
1, 8928, Note_on_c, 1, 58, 96
1, 8928, Note_on_c, 1, 46, 96
1, 8929, Note_off_c, 1, 58, 96
1, 8929, Note_off_c, 1, 46, 96
1, 8992, Note_on_c, 1, 67, 96
1, 8992, Note_on_c, 1, 62, 96
1, 8992, Note_on_c, 1, 55, 96
1, 8992, Note_on_c, 1, 58, 96
1, 8993, Note_off_c, 1, 67, 96
1, 8993, Note_off_c, 1, 62, 96
1, 8993, Note_off_c, 1, 55, 96
1, 8993, Note_off_c, 1, 58, 96
1, 9056, Note_on_c, 1, 65, 96
1, 9056, Note_on_c, 1, 57, 96
1, 9056, Note_on_c, 1, 53, 96
1, 9056, Note_on_c, 1, 48, 96
1, 9057, Note_off_c, 1, 65, 96
1, 9057, Note_off_c, 1, 57, 96
1, 9057, Note_off_c, 1, 53, 96
1, 9057, Note_off_c, 1, 48, 96
1, 9120, Note_on_c, 1, 72, 96
1, 9120, Note_on_c, 1, 84, 96
1, 9120, Note_on_c, 1, 62, 96
1, 9120, Note_on_c, 1, 57, 96
1, 9121, Note_off_c, 1, 72, 96
1, 9121, Note_off_c, 1, 84, 96
1, 9121, Note_off_c, 1, 62, 96
1, 9121, Note_off_c, 1, 57, 96
1, 9183, Note_on_c, 1, 69, 96
1, 9183, Note_on_c, 1, 81, 96
1, 9183, Note_on_c, 1, 54, 96
1, 9184, Note_off_c, 1, 69, 96
1, 9184, Note_off_c, 1, 81, 96
1, 9184, Note_off_c, 1, 54, 96
1, 9214, Note_on_c, 1, 83, 96
1, 9215, Note_off_c, 1, 83, 96
1, 9245, Note_on_c, 1, 75, 96
1, 9246, Note_off_c, 1, 75, 96
1, 9277, Note_on_c, 1, 79, 96
1, 9277, Note_on_c, 1, 50, 96
1, 9278, Note_off_c, 1, 79, 96
1, 9278, Note_off_c, 1, 50, 96
1, 9308, Note_on_c, 1, 74, 96
1, 9309, Note_off_c, 1, 74, 96
1, 9341, Note_on_c, 1, 67, 96
1, 9341, Note_on_c, 1, 59, 96
1, 9341, Note_on_c, 1, 55, 96
1, 9342, Note_off_c, 1, 67, 96
1, 9342, Note_off_c, 1, 59, 96
1, 9342, Note_off_c, 1, 55, 96
1, 9372, Note_on_c, 1, 79, 96
1, 9373, Note_off_c, 1, 79, 96
1, 9405, Note_on_c, 1, 59, 96
1, 9405, Note_on_c, 1, 55, 96
1, 9405, Note_on_c, 1, 65, 96
1, 9406, Note_off_c, 1, 59, 96
1, 9406, Note_off_c, 1, 55, 96
1, 9406, Note_off_c, 1, 65, 96
1, 9437, Note_on_c, 1, 81, 96
1, 9437, Note_on_c, 1, 65, 96
1, 9438, Note_off_c, 1, 81, 96
1, 9438, Note_off_c, 1, 65, 96
1, 9471, Note_on_c, 1, 79, 96
1, 9471, Note_on_c, 1, 59, 96
1, 9471, Note_on_c, 1, 55, 96
1, 9471, Note_on_c, 1, 65, 96
1, 9472, Note_off_c, 1, 79, 96
1, 9472, Note_off_c, 1, 59, 96
1, 9472, Note_off_c, 1, 55, 96
1, 9472, Note_off_c, 1, 65, 96
1, 9502, Note_on_c, 1, 74, 96
1, 9503, Note_off_c, 1, 74, 96
1, 9536, Note_on_c, 1, 71, 96
1, 9536, Note_on_c, 1, 55, 96
1, 9536, Note_on_c, 1, 59, 96
1, 9536, Note_on_c, 1, 65, 96
1, 9537, Note_off_c, 1, 71, 96
1, 9537, Note_off_c, 1, 55, 96
1, 9537, Note_off_c, 1, 59, 96
1, 9537, Note_off_c, 1, 65, 96
1, 9598, Note_on_c, 1, 69, 96
1, 9598, Note_on_c, 1, 43, 96
1, 9599, Note_off_c, 1, 69, 96
1, 9599, Note_off_c, 1, 43, 96
1, 9662, Note_on_c, 1, 74, 96
1, 9662, Note_on_c, 1, 60, 96
1, 9662, Note_on_c, 1, 55, 96
1, 9662, Note_on_c, 1, 52, 96
1, 9663, Note_off_c, 1, 74, 96
1, 9663, Note_off_c, 1, 60, 96
1, 9663, Note_off_c, 1, 55, 96
1, 9663, Note_off_c, 1, 52, 96
1, 9725, Note_on_c, 1, 69, 96
1, 9725, Note_on_c, 1, 64, 96
1, 9725, Note_on_c, 1, 55, 96
1, 9726, Note_off_c, 1, 69, 96
1, 9726, Note_off_c, 1, 64, 96
1, 9726, Note_off_c, 1, 55, 96
1, 9790, Note_on_c, 1, 74, 96
1, 9790, Note_on_c, 1, 65, 96
1, 9790, Note_on_c, 1, 74, 96
1, 9790, Note_on_c, 1, 43, 96
1, 9790, Note_on_c, 1, 55, 96
1, 9791, Note_off_c, 1, 74, 96
1, 9791, Note_off_c, 1, 65, 96
1, 9791, Note_off_c, 1, 74, 96
1, 9791, Note_off_c, 1, 43, 96
1, 9791, Note_off_c, 1, 55, 96
1, 9945, Note_on_c, 1, 71, 96
1, 9946, Note_off_c, 1, 71, 96
1, 9978, Note_on_c, 1, 72, 96
1, 9978, Note_on_c, 1, 59, 96
1, 9978, Note_on_c, 1, 55, 96
1, 9978, Note_on_c, 1, 65, 96
1, 9979, Note_off_c, 1, 72, 96
1, 9979, Note_off_c, 1, 59, 96
1, 9979, Note_off_c, 1, 55, 96
1, 9979, Note_off_c, 1, 65, 96
1, 10010, Note_on_c, 1, 79, 96
1, 10010, Note_on_c, 1, 67, 96
1, 10011, Note_off_c, 1, 79, 96
1, 10011, Note_off_c, 1, 67, 96
1, 10043, Note_on_c, 1, 59, 96
1, 10043, Note_on_c, 1, 55, 96
1, 10043, Note_on_c, 1, 65, 96
1, 10044, Note_off_c, 1, 59, 96
1, 10044, Note_off_c, 1, 55, 96
1, 10044, Note_off_c, 1, 65, 96
1, 10106, Note_on_c, 1, 53, 96
1, 10106, Note_on_c, 1, 59, 96
1, 10106, Note_on_c, 1, 55, 96
1, 10107, Note_off_c, 1, 53, 96
1, 10107, Note_off_c, 1, 59, 96
1, 10107, Note_off_c, 1, 55, 96
1, 10169, Note_on_c, 1, 75, 96
1, 10169, Note_on_c, 1, 55, 96
1, 10169, Note_on_c, 1, 43, 96
1, 10170, Note_off_c, 1, 75, 96
1, 10170, Note_off_c, 1, 55, 96
1, 10170, Note_off_c, 1, 43, 96
1, 10200, Note_on_c, 1, 71, 96
1, 10201, Note_off_c, 1, 71, 96
1, 10233, Note_on_c, 1, 72, 96
1, 10233, Note_on_c, 1, 48, 96
1, 10233, Note_on_c, 1, 60, 96
1, 10234, Note_off_c, 1, 72, 96
1, 10234, Note_off_c, 1, 48, 96
1, 10234, Note_off_c, 1, 60, 96
1, 10295, Note_on_c, 1, 57, 96
1, 10295, Note_on_c, 1, 45, 96
1, 10296, Note_off_c, 1, 57, 96
1, 10296, Note_off_c, 1, 45, 96
1, 10357, Note_on_c, 1, 43, 96
1, 10357, Note_on_c, 1, 55, 96
1, 10358, Note_off_c, 1, 43, 96
1, 10358, Note_off_c, 1, 55, 96
1, 10388, Note_on_c, 1, 69, 96
1, 10389, Note_off_c, 1, 69, 96
1, 10422, Note_on_c, 1, 77, 96
1, 10422, Note_on_c, 1, 65, 96
1, 10422, Note_on_c, 1, 55, 96
1, 10422, Note_on_c, 1, 59, 96
1, 10423, Note_off_c, 1, 77, 96
1, 10423, Note_off_c, 1, 65, 96
1, 10423, Note_off_c, 1, 55, 96
1, 10423, Note_off_c, 1, 59, 96
1, 10486, Note_on_c, 1, 76, 96
1, 10486, Note_on_c, 1, 64, 96
1, 10486, Note_on_c, 1, 48, 96
1, 10486, Note_on_c, 1, 60, 96
1, 10487, Note_off_c, 1, 76, 96
1, 10487, Note_off_c, 1, 64, 96
1, 10487, Note_off_c, 1, 48, 96
1, 10487, Note_off_c, 1, 60, 96
1, 10549, Note_on_c, 1, 76, 96
1, 10549, Note_on_c, 1, 64, 96
1, 10549, Note_on_c, 1, 55, 96
1, 10550, Note_off_c, 1, 76, 96
1, 10550, Note_off_c, 1, 64, 96
1, 10550, Note_off_c, 1, 55, 96
1, 10611, Note_on_c, 1, 74, 96
1, 10611, Note_on_c, 1, 65, 96
1, 10612, Note_off_c, 1, 74, 96
1, 10612, Note_off_c, 1, 65, 96
1, 10672, Note_on_c, 1, 48, 96
1, 10673, Note_off_c, 1, 48, 96
1, 10703, Note_on_c, 1, 73, 96
1, 10704, Note_off_c, 1, 73, 96
1, 10737, Note_on_c, 1, 74, 96
1, 10737, Note_on_c, 1, 53, 96
1, 10737, Note_on_c, 1, 55, 96
1, 10737, Note_on_c, 1, 59, 96
1, 10738, Note_off_c, 1, 74, 96
1, 10738, Note_off_c, 1, 53, 96
1, 10738, Note_off_c, 1, 55, 96
1, 10738, Note_off_c, 1, 59, 96
1, 10769, Note_on_c, 1, 62, 96
1, 10769, Note_on_c, 1, 50, 96
1, 10770, Note_off_c, 1, 62, 96
1, 10770, Note_off_c, 1, 50, 96
1, 10800, Note_on_c, 1, 69, 96
1, 10801, Note_off_c, 1, 69, 96
1, 10831, Note_on_c, 1, 76, 96
1, 10832, Note_off_c, 1, 76, 96
1, 10862, Note_on_c, 1, 76, 96
1, 10863, Note_off_c, 1, 76, 96
1, 10893, Note_on_c, 1, 77, 96
1, 10894, Note_off_c, 1, 77, 96
1, 10924, Note_on_c, 1, 81, 96
1, 10925, Note_off_c, 1, 81, 96
1, 10955, Note_on_c, 1, 81, 96
1, 10956, Note_off_c, 1, 81, 96
1, 10986, Note_on_c, 1, 79, 96
1, 10987, Note_off_c, 1, 79, 96
1, 11017, Note_on_c, 1, 77, 96
1, 11018, Note_off_c, 1, 77, 96
1, 11049, Note_on_c, 1, 77, 96
1, 11049, Note_on_c, 1, 69, 96
1, 11050, Note_off_c, 1, 77, 96
1, 11050, Note_off_c, 1, 69, 96
1, 11111, Note_on_c, 1, 68, 96
1, 11111, Note_on_c, 1, 56, 96
1, 11112, Note_off_c, 1, 68, 96
1, 11112, Note_off_c, 1, 56, 96
1, 11177, Note_on_c, 1, 73, 96
1, 11177, Note_on_c, 1, 67, 96
1, 11177, Note_on_c, 1, 76, 96
1, 11177, Note_on_c, 1, 57, 96
1, 11177, Note_on_c, 1, 61, 96
1, 11177, Note_on_c, 1, 55, 96
1, 11178, Note_off_c, 1, 73, 96
1, 11178, Note_off_c, 1, 67, 96
1, 11178, Note_off_c, 1, 76, 96
1, 11178, Note_off_c, 1, 57, 96
1, 11178, Note_off_c, 1, 61, 96
1, 11178, Note_off_c, 1, 55, 96
1, 11243, Note_on_c, 1, 73, 96
1, 11243, Note_on_c, 1, 77, 96
1, 11243, Note_on_c, 1, 69, 96
1, 11243, Note_on_c, 1, 65, 96
1, 11243, Note_on_c, 1, 45, 96
1, 11243, Note_on_c, 1, 57, 96
1, 11244, Note_off_c, 1, 73, 96
1, 11244, Note_off_c, 1, 77, 96
1, 11244, Note_off_c, 1, 69, 96
1, 11244, Note_off_c, 1, 65, 96
1, 11244, Note_off_c, 1, 45, 96
1, 11244, Note_off_c, 1, 57, 96
1, 11429, Note_on_c, 1, 74, 96
1, 11429, Note_on_c, 1, 65, 96
1, 11429, Note_on_c, 1, 73, 96
1, 11429, Note_on_c, 1, 44, 96
1, 11429, Note_on_c, 1, 56, 96
1, 11430, Note_off_c, 1, 74, 96
1, 11430, Note_off_c, 1, 65, 96
1, 11430, Note_off_c, 1, 73, 96
1, 11430, Note_off_c, 1, 44, 96
1, 11430, Note_off_c, 1, 56, 96
1, 11553, Note_on_c, 1, 74, 96
1, 11553, Note_on_c, 1, 66, 96
1, 11553, Note_on_c, 1, 38, 96
1, 11553, Note_on_c, 1, 50, 96
1, 11554, Note_off_c, 1, 74, 96
1, 11554, Note_off_c, 1, 66, 96
1, 11554, Note_off_c, 1, 38, 96
1, 11554, Note_off_c, 1, 50, 96
1, 11584, Note_on_c, 1, 67, 96
1, 11585, Note_off_c, 1, 67, 96
1, 11615, Note_on_c, 1, 74, 96
1, 11616, Note_off_c, 1, 74, 96
1, 11646, Note_on_c, 1, 83, 96
1, 11647, Note_off_c, 1, 83, 96
1, 11683, Note_on_c, 1, 84, 96
1, 11683, Note_on_c, 1, 75, 96
1, 11683, Note_on_c, 1, 64, 96
1, 11683, Note_on_c, 1, 72, 96
1, 11683, Note_on_c, 1, 76, 96
1, 11683, Note_on_c, 1, 60, 96
1, 11683, Note_on_c, 1, 48, 96
1, 11684, Note_off_c, 1, 84, 96
1, 11684, Note_off_c, 1, 75, 96
1, 11684, Note_off_c, 1, 64, 96
1, 11684, Note_off_c, 1, 72, 96
1, 11684, Note_off_c, 1, 76, 96
1, 11684, Note_off_c, 1, 60, 96
1, 11684, Note_off_c, 1, 48, 96
1, 11714, Note_on_c, 1, 79, 96
1, 11715, Note_off_c, 1, 79, 96
1, 11749, Note_on_c, 1, 76, 96
1, 11749, Note_on_c, 1, 84, 96
1, 11749, Note_on_c, 1, 60, 96
1, 11749, Note_on_c, 1, 55, 96
1, 11749, Note_on_c, 1, 64, 96
1, 11750, Note_off_c, 1, 76, 96
1, 11750, Note_off_c, 1, 84, 96
1, 11750, Note_off_c, 1, 60, 96
1, 11750, Note_off_c, 1, 55, 96
1, 11750, Note_off_c, 1, 64, 96
1, 11814, Note_on_c, 1, 82, 96
1, 11814, Note_on_c, 1, 76, 96
1, 11814, Note_on_c, 1, 70, 96
1, 11814, Note_on_c, 1, 60, 96
1, 11814, Note_on_c, 1, 48, 96
1, 11815, Note_off_c, 1, 82, 96
1, 11815, Note_off_c, 1, 76, 96
1, 11815, Note_off_c, 1, 70, 96
1, 11815, Note_off_c, 1, 60, 96
1, 11815, Note_off_c, 1, 48, 96
1, 11876, Note_on_c, 1, 36, 96
1, 11876, Note_on_c, 1, 48, 96
1, 11877, Note_off_c, 1, 36, 96
1, 11877, Note_off_c, 1, 48, 96
1, 11939, Note_on_c, 1, 77, 96
1, 11939, Note_on_c, 1, 53, 96
1, 11939, Note_on_c, 1, 57, 96
1, 11940, Note_off_c, 1, 77, 96
1, 11940, Note_off_c, 1, 53, 96
1, 11940, Note_off_c, 1, 57, 96
1, 11972, Note_on_c, 1, 77, 96
1, 11972, Note_on_c, 1, 75, 96
1, 11972, Note_on_c, 1, 81, 96
1, 11973, Note_off_c, 1, 77, 96
1, 11973, Note_off_c, 1, 75, 96
1, 11973, Note_off_c, 1, 81, 96
1, 12005, Note_on_c, 1, 86, 96
1, 12005, Note_on_c, 1, 74, 96
1, 12005, Note_on_c, 1, 42, 96
1, 12006, Note_off_c, 1, 86, 96
1, 12006, Note_off_c, 1, 74, 96
1, 12006, Note_off_c, 1, 42, 96
1, 12038, Note_on_c, 1, 86, 96
1, 12038, Note_on_c, 1, 81, 96
1, 12038, Note_on_c, 1, 78, 96
1, 12039, Note_off_c, 1, 86, 96
1, 12039, Note_off_c, 1, 81, 96
1, 12039, Note_off_c, 1, 78, 96
1, 12073, Note_on_c, 1, 85, 96
1, 12073, Note_on_c, 1, 73, 96
1, 12073, Note_on_c, 1, 59, 96
1, 12073, Note_on_c, 1, 54, 96
1, 12073, Note_on_c, 1, 50, 96
1, 12074, Note_off_c, 1, 85, 96
1, 12074, Note_off_c, 1, 73, 96
1, 12074, Note_off_c, 1, 59, 96
1, 12074, Note_off_c, 1, 54, 96
1, 12074, Note_off_c, 1, 50, 96
1, 12106, Note_on_c, 1, 74, 96
1, 12106, Note_on_c, 1, 86, 96
1, 12106, Note_on_c, 1, 81, 96
1, 12107, Note_off_c, 1, 74, 96
1, 12107, Note_off_c, 1, 86, 96
1, 12107, Note_off_c, 1, 81, 96
1, 12138, Note_on_c, 1, 58, 96
1, 12138, Note_on_c, 1, 46, 96
1, 12139, Note_off_c, 1, 58, 96
1, 12139, Note_off_c, 1, 46, 96
1, 12169, Note_on_c, 1, 81, 96
1, 12170, Note_off_c, 1, 81, 96
1, 12204, Note_on_c, 1, 85, 96
1, 12204, Note_on_c, 1, 73, 96
1, 12204, Note_on_c, 1, 54, 96
1, 12204, Note_on_c, 1, 62, 96
1, 12204, Note_on_c, 1, 57, 96
1, 12205, Note_off_c, 1, 85, 96
1, 12205, Note_off_c, 1, 73, 96
1, 12205, Note_off_c, 1, 54, 96
1, 12205, Note_off_c, 1, 62, 96
1, 12205, Note_off_c, 1, 57, 96
1, 12237, Note_on_c, 1, 75, 96
1, 12237, Note_on_c, 1, 87, 96
1, 12237, Note_on_c, 1, 84, 96
1, 12238, Note_off_c, 1, 75, 96
1, 12238, Note_off_c, 1, 87, 96
1, 12238, Note_off_c, 1, 84, 96
1, 12268, Note_on_c, 1, 45, 96
1, 12269, Note_off_c, 1, 45, 96
1, 12301, Note_on_c, 1, 74, 96
1, 12301, Note_on_c, 1, 86, 96
1, 12301, Note_on_c, 1, 78, 96
1, 12302, Note_off_c, 1, 74, 96
1, 12302, Note_off_c, 1, 86, 96
1, 12302, Note_off_c, 1, 78, 96
1, 12335, Note_on_c, 1, 81, 96
1, 12335, Note_on_c, 1, 72, 96
1, 12335, Note_on_c, 1, 50, 96
1, 12335, Note_on_c, 1, 62, 96
1, 12336, Note_off_c, 1, 81, 96
1, 12336, Note_off_c, 1, 72, 96
1, 12336, Note_off_c, 1, 50, 96
1, 12336, Note_off_c, 1, 62, 96
1, 12368, Note_on_c, 1, 78, 96
1, 12368, Note_on_c, 1, 81, 96
1, 12368, Note_on_c, 1, 85, 96
1, 12369, Note_off_c, 1, 78, 96
1, 12369, Note_off_c, 1, 81, 96
1, 12369, Note_off_c, 1, 85, 96
1, 12401, Note_on_c, 1, 61, 96
1, 12401, Note_on_c, 1, 57, 96
1, 12401, Note_on_c, 1, 55, 96
1, 12402, Note_off_c, 1, 61, 96
1, 12402, Note_off_c, 1, 57, 96
1, 12402, Note_off_c, 1, 55, 96
1, 12434, Note_on_c, 1, 88, 96
1, 12434, Note_on_c, 1, 76, 96
1, 12434, Note_on_c, 1, 79, 96
1, 12435, Note_off_c, 1, 88, 96
1, 12435, Note_off_c, 1, 76, 96
1, 12435, Note_off_c, 1, 79, 96
1, 12467, Note_on_c, 1, 57, 96
1, 12467, Note_on_c, 1, 61, 96
1, 12467, Note_on_c, 1, 67, 96
1, 12468, Note_off_c, 1, 57, 96
1, 12468, Note_off_c, 1, 61, 96
1, 12468, Note_off_c, 1, 67, 96
1, 12499, Note_on_c, 1, 79, 96
1, 12499, Note_on_c, 1, 82, 96
1, 12500, Note_off_c, 1, 79, 96
1, 12500, Note_off_c, 1, 82, 96
1, 12534, Note_on_c, 1, 81, 96
1, 12534, Note_on_c, 1, 73, 96
1, 12534, Note_on_c, 1, 61, 96
1, 12534, Note_on_c, 1, 55, 96
1, 12534, Note_on_c, 1, 57, 96
1, 12535, Note_off_c, 1, 81, 96
1, 12535, Note_off_c, 1, 73, 96
1, 12535, Note_off_c, 1, 61, 96
1, 12535, Note_off_c, 1, 55, 96
1, 12535, Note_off_c, 1, 57, 96
1, 12566, Note_on_c, 1, 90, 96
1, 12566, Note_on_c, 1, 78, 96
1, 12567, Note_off_c, 1, 90, 96
1, 12567, Note_off_c, 1, 78, 96
1, 12600, Note_on_c, 1, 79, 96
1, 12600, Note_on_c, 1, 91, 96
1, 12600, Note_on_c, 1, 62, 96
1, 12600, Note_on_c, 1, 50, 96
1, 12601, Note_off_c, 1, 79, 96
1, 12601, Note_off_c, 1, 91, 96
1, 12601, Note_off_c, 1, 62, 96
1, 12601, Note_off_c, 1, 50, 96
1, 12666, Note_on_c, 1, 82, 96
1, 12666, Note_on_c, 1, 79, 96
1, 12666, Note_on_c, 1, 74, 96
1, 12666, Note_on_c, 1, 86, 96
1, 12666, Note_on_c, 1, 46, 96
1, 12666, Note_on_c, 1, 58, 96
1, 12667, Note_off_c, 1, 82, 96
1, 12667, Note_off_c, 1, 79, 96
1, 12667, Note_off_c, 1, 74, 96
1, 12667, Note_off_c, 1, 86, 96
1, 12667, Note_off_c, 1, 46, 96
1, 12667, Note_off_c, 1, 58, 96
1, 12729, Note_on_c, 1, 53, 96
1, 12729, Note_on_c, 1, 62, 96
1, 12729, Note_on_c, 1, 58, 96
1, 12730, Note_off_c, 1, 53, 96
1, 12730, Note_off_c, 1, 62, 96
1, 12730, Note_off_c, 1, 58, 96
1, 12761, Note_on_c, 1, 65, 96
1, 12761, Note_on_c, 1, 77, 96
1, 12762, Note_off_c, 1, 65, 96
1, 12762, Note_off_c, 1, 77, 96
1, 12794, Note_on_c, 1, 65, 96
1, 12794, Note_on_c, 1, 58, 96
1, 12794, Note_on_c, 1, 55, 96
1, 12795, Note_off_c, 1, 65, 96
1, 12795, Note_off_c, 1, 58, 96
1, 12795, Note_off_c, 1, 55, 96
1, 12826, Note_on_c, 1, 79, 96
1, 12826, Note_on_c, 1, 67, 96
1, 12827, Note_off_c, 1, 79, 96
1, 12827, Note_off_c, 1, 67, 96
1, 12860, Note_on_c, 1, 71, 96
1, 12860, Note_on_c, 1, 79, 96
1, 12860, Note_on_c, 1, 62, 96
1, 12860, Note_on_c, 1, 67, 96
1, 12861, Note_off_c, 1, 71, 96
1, 12861, Note_off_c, 1, 79, 96
1, 12861, Note_off_c, 1, 62, 96
1, 12861, Note_off_c, 1, 67, 96
1, 12891, Note_on_c, 1, 79, 96
1, 12892, Note_off_c, 1, 79, 96
1, 12925, Note_on_c, 1, 81, 96
1, 12925, Note_on_c, 1, 62, 96
1, 12925, Note_on_c, 1, 58, 96
1, 12925, Note_on_c, 1, 70, 96
1, 12926, Note_off_c, 1, 81, 96
1, 12926, Note_off_c, 1, 62, 96
1, 12926, Note_off_c, 1, 58, 96
1, 12926, Note_off_c, 1, 70, 96
1, 12957, Note_on_c, 1, 85, 96
1, 12957, Note_on_c, 1, 73, 96
1, 12958, Note_off_c, 1, 85, 96
1, 12958, Note_off_c, 1, 73, 96
1, 12990, Note_on_c, 1, 61, 96
1, 12990, Note_on_c, 1, 58, 96
1, 12990, Note_on_c, 1, 55, 96
1, 12991, Note_off_c, 1, 61, 96
1, 12991, Note_off_c, 1, 58, 96
1, 12991, Note_off_c, 1, 55, 96
1, 13022, Note_on_c, 1, 89, 96
1, 13022, Note_on_c, 1, 82, 96
1, 13023, Note_off_c, 1, 89, 96
1, 13023, Note_off_c, 1, 82, 96
1, 13058, Note_on_c, 1, 67, 96
1, 13058, Note_on_c, 1, 79, 96
1, 13058, Note_on_c, 1, 73, 96
1, 13058, Note_on_c, 1, 57, 96
1, 13058, Note_on_c, 1, 61, 96
1, 13058, Note_on_c, 1, 52, 96
1, 13059, Note_off_c, 1, 67, 96
1, 13059, Note_off_c, 1, 79, 96
1, 13059, Note_off_c, 1, 73, 96
1, 13059, Note_off_c, 1, 57, 96
1, 13059, Note_off_c, 1, 61, 96
1, 13059, Note_off_c, 1, 52, 96
1, 13091, Note_on_c, 1, 71, 96
1, 13091, Note_on_c, 1, 76, 96
1, 13091, Note_on_c, 1, 82, 96
1, 13092, Note_off_c, 1, 71, 96
1, 13092, Note_off_c, 1, 76, 96
1, 13092, Note_off_c, 1, 82, 96
1, 13123, Note_on_c, 1, 40, 96
1, 13123, Note_on_c, 1, 52, 96
1, 13124, Note_off_c, 1, 40, 96
1, 13124, Note_off_c, 1, 52, 96
1, 13160, Note_on_c, 1, 77, 96
1, 13160, Note_on_c, 1, 70, 96
1, 13160, Note_on_c, 1, 82, 96
1, 13160, Note_on_c, 1, 89, 96
1, 13160, Note_on_c, 1, 62, 96
1, 13160, Note_on_c, 1, 53, 96
1, 13160, Note_on_c, 1, 58, 96
1, 13161, Note_off_c, 1, 77, 96
1, 13161, Note_off_c, 1, 70, 96
1, 13161, Note_off_c, 1, 82, 96
1, 13161, Note_off_c, 1, 89, 96
1, 13161, Note_off_c, 1, 62, 96
1, 13161, Note_off_c, 1, 53, 96
1, 13161, Note_off_c, 1, 58, 96
1, 13222, Note_on_c, 1, 74, 96
1, 13222, Note_on_c, 1, 62, 96
1, 13223, Note_off_c, 1, 74, 96
1, 13223, Note_off_c, 1, 62, 96
1, 13349, Note_on_c, 1, 55, 96
1, 13349, Note_on_c, 1, 61, 96
1, 13349, Note_on_c, 1, 57, 96
1, 13350, Note_off_c, 1, 55, 96
1, 13350, Note_off_c, 1, 61, 96
1, 13350, Note_off_c, 1, 57, 96
1, 13380, Note_on_c, 1, 77, 96
1, 13381, Note_off_c, 1, 77, 96
1, 13414, Note_on_c, 1, 79, 96
1, 13414, Note_on_c, 1, 75, 96
1, 13414, Note_on_c, 1, 53, 96
1, 13414, Note_on_c, 1, 41, 96
1, 13415, Note_off_c, 1, 79, 96
1, 13415, Note_off_c, 1, 75, 96
1, 13415, Note_off_c, 1, 53, 96
1, 13415, Note_off_c, 1, 41, 96
1, 13445, Note_on_c, 1, 71, 96
1, 13446, Note_off_c, 1, 71, 96
1, 13480, Note_on_c, 1, 71, 96
1, 13480, Note_on_c, 1, 80, 96
1, 13480, Note_on_c, 1, 73, 96
1, 13480, Note_on_c, 1, 37, 96
1, 13480, Note_on_c, 1, 49, 96
1, 13481, Note_off_c, 1, 71, 96
1, 13481, Note_off_c, 1, 80, 96
1, 13481, Note_off_c, 1, 73, 96
1, 13481, Note_off_c, 1, 37, 96
1, 13481, Note_off_c, 1, 49, 96
1, 13512, Note_on_c, 1, 81, 96
1, 13512, Note_on_c, 1, 69, 96
1, 13513, Note_off_c, 1, 81, 96
1, 13513, Note_off_c, 1, 69, 96
1, 13544, Note_on_c, 1, 62, 96
1, 13544, Note_on_c, 1, 50, 96
1, 13545, Note_off_c, 1, 62, 96
1, 13545, Note_off_c, 1, 50, 96
1, 13575, Note_on_c, 1, 79, 96
1, 13576, Note_off_c, 1, 79, 96
1, 13610, Note_on_c, 1, 83, 96
1, 13610, Note_on_c, 1, 74, 96
1, 13610, Note_on_c, 1, 62, 96
1, 13610, Note_on_c, 1, 55, 96
1, 13610, Note_on_c, 1, 59, 96
1, 13611, Note_off_c, 1, 83, 96
1, 13611, Note_off_c, 1, 74, 96
1, 13611, Note_off_c, 1, 62, 96
1, 13611, Note_off_c, 1, 55, 96
1, 13611, Note_off_c, 1, 59, 96
1, 13674, Note_on_c, 1, 74, 96
1, 13674, Note_on_c, 1, 86, 96
1, 13674, Note_on_c, 1, 59, 96
1, 13674, Note_on_c, 1, 47, 96
1, 13675, Note_off_c, 1, 74, 96
1, 13675, Note_off_c, 1, 86, 96
1, 13675, Note_off_c, 1, 59, 96
1, 13675, Note_off_c, 1, 47, 96
1, 13736, Note_on_c, 1, 45, 96
1, 13736, Note_on_c, 1, 57, 96
1, 13737, Note_off_c, 1, 45, 96
1, 13737, Note_off_c, 1, 57, 96
1, 13767, Note_on_c, 1, 72, 96
1, 13768, Note_off_c, 1, 72, 96
1, 13800, Note_on_c, 1, 78, 96
1, 13800, Note_on_c, 1, 86, 96
1, 13800, Note_on_c, 1, 38, 96
1, 13801, Note_off_c, 1, 78, 96
1, 13801, Note_off_c, 1, 86, 96
1, 13801, Note_off_c, 1, 38, 96
1, 13862, Note_on_c, 1, 66, 96
1, 13862, Note_on_c, 1, 54, 96
1, 13863, Note_off_c, 1, 66, 96
1, 13863, Note_off_c, 1, 54, 96
1, 13893, Note_on_c, 1, 78, 96
1, 13894, Note_off_c, 1, 78, 96
1, 13927, Note_on_c, 1, 84, 96
1, 13927, Note_on_c, 1, 60, 96
1, 13927, Note_on_c, 1, 57, 96
1, 13927, Note_on_c, 1, 54, 96
1, 13928, Note_off_c, 1, 84, 96
1, 13928, Note_off_c, 1, 60, 96
1, 13928, Note_off_c, 1, 57, 96
1, 13928, Note_off_c, 1, 54, 96
1, 13958, Note_on_c, 1, 81, 96
1, 13959, Note_off_c, 1, 81, 96
1, 13989, Note_on_c, 1, 50, 96
1, 13990, Note_off_c, 1, 50, 96
1, 14020, Note_on_c, 1, 76, 96
1, 14021, Note_off_c, 1, 76, 96
1, 14054, Note_on_c, 1, 79, 96
1, 14054, Note_on_c, 1, 60, 96
1, 14054, Note_on_c, 1, 55, 96
1, 14054, Note_on_c, 1, 58, 96
1, 14055, Note_off_c, 1, 79, 96
1, 14055, Note_off_c, 1, 60, 96
1, 14055, Note_off_c, 1, 55, 96
1, 14055, Note_off_c, 1, 58, 96
1, 14086, Note_on_c, 1, 83, 96
1, 14086, Note_on_c, 1, 88, 96
1, 14087, Note_off_c, 1, 83, 96
1, 14087, Note_off_c, 1, 88, 96
1, 14121, Note_on_c, 1, 83, 96
1, 14121, Note_on_c, 1, 79, 96
1, 14121, Note_on_c, 1, 55, 96
1, 14121, Note_on_c, 1, 50, 96
1, 14121, Note_on_c, 1, 59, 96
1, 14122, Note_off_c, 1, 83, 96
1, 14122, Note_off_c, 1, 79, 96
1, 14122, Note_off_c, 1, 55, 96
1, 14122, Note_off_c, 1, 50, 96
1, 14122, Note_off_c, 1, 59, 96
1, 14155, Note_on_c, 1, 71, 96
1, 14155, Note_on_c, 1, 74, 96
1, 14155, Note_on_c, 1, 79, 96
1, 14155, Note_on_c, 1, 83, 96
1, 14156, Note_off_c, 1, 71, 96
1, 14156, Note_off_c, 1, 74, 96
1, 14156, Note_off_c, 1, 79, 96
1, 14156, Note_off_c, 1, 83, 96
1, 14187, Note_on_c, 1, 40, 96
1, 14187, Note_on_c, 1, 52, 96
1, 14188, Note_off_c, 1, 40, 96
1, 14188, Note_off_c, 1, 52, 96
1, 14218, Note_on_c, 1, 67, 96
1, 14219, Note_off_c, 1, 67, 96
1, 14252, Note_on_c, 1, 79, 96
1, 14252, Note_on_c, 1, 55, 96
1, 14252, Note_on_c, 1, 59, 96
1, 14252, Note_on_c, 1, 65, 96
1, 14253, Note_off_c, 1, 79, 96
1, 14253, Note_off_c, 1, 55, 96
1, 14253, Note_off_c, 1, 59, 96
1, 14253, Note_off_c, 1, 65, 96
1, 14284, Note_on_c, 1, 81, 96
1, 14284, Note_on_c, 1, 86, 96
1, 14285, Note_off_c, 1, 81, 96
1, 14285, Note_off_c, 1, 86, 96
1, 14315, Note_on_c, 1, 43, 96
1, 14316, Note_off_c, 1, 43, 96
1, 14346, Note_on_c, 1, 70, 96
1, 14347, Note_off_c, 1, 70, 96
1, 14381, Note_on_c, 1, 70, 96
1, 14381, Note_on_c, 1, 79, 96
1, 14381, Note_on_c, 1, 62, 96
1, 14381, Note_on_c, 1, 58, 96
1, 14381, Note_on_c, 1, 53, 96
1, 14382, Note_off_c, 1, 70, 96
1, 14382, Note_off_c, 1, 79, 96
1, 14382, Note_off_c, 1, 62, 96
1, 14382, Note_off_c, 1, 58, 96
1, 14382, Note_off_c, 1, 53, 96
1, 14412, Note_on_c, 1, 62, 96
1, 14413, Note_off_c, 1, 62, 96
1, 14444, Note_on_c, 1, 46, 96
1, 14444, Note_on_c, 1, 34, 96
1, 14445, Note_off_c, 1, 46, 96
1, 14445, Note_off_c, 1, 34, 96
1, 14506, Note_on_c, 1, 33, 96
1, 14506, Note_on_c, 1, 45, 96
1, 14507, Note_off_c, 1, 33, 96
1, 14507, Note_off_c, 1, 45, 96
1, 14569, Note_on_c, 1, 54, 96
1, 14569, Note_on_c, 1, 57, 96
1, 14569, Note_on_c, 1, 45, 96
1, 14570, Note_off_c, 1, 54, 96
1, 14570, Note_off_c, 1, 57, 96
1, 14570, Note_off_c, 1, 45, 96
1, 14600, Note_on_c, 1, 66, 96
1, 14601, Note_off_c, 1, 66, 96
1, 14633, Note_on_c, 1, 72, 96
1, 14633, Note_on_c, 1, 61, 96
1, 14633, Note_on_c, 1, 49, 96
1, 14634, Note_off_c, 1, 72, 96
1, 14634, Note_off_c, 1, 61, 96
1, 14634, Note_off_c, 1, 49, 96
1, 14664, Note_on_c, 1, 73, 96
1, 14665, Note_off_c, 1, 73, 96
1, 14699, Note_on_c, 1, 69, 96
1, 14699, Note_on_c, 1, 50, 96
1, 14699, Note_on_c, 1, 66, 96
1, 14699, Note_on_c, 1, 60, 96
1, 14699, Note_on_c, 1, 57, 96
1, 14700, Note_off_c, 1, 69, 96
1, 14700, Note_off_c, 1, 50, 96
1, 14700, Note_off_c, 1, 66, 96
1, 14700, Note_off_c, 1, 60, 96
1, 14700, Note_off_c, 1, 57, 96
1, 14730, Note_on_c, 1, 71, 96
1, 14731, Note_off_c, 1, 71, 96
1, 14764, Note_on_c, 1, 72, 96
1, 14764, Note_on_c, 1, 50, 96
1, 14764, Note_on_c, 1, 54, 96
1, 14764, Note_on_c, 1, 60, 96
1, 14765, Note_off_c, 1, 72, 96
1, 14765, Note_off_c, 1, 50, 96
1, 14765, Note_off_c, 1, 54, 96
1, 14765, Note_off_c, 1, 60, 96
1, 14828, Note_on_c, 1, 74, 96
1, 14828, Note_on_c, 1, 65, 96
1, 14828, Note_on_c, 1, 55, 96
1, 14828, Note_on_c, 1, 43, 96
1, 14829, Note_off_c, 1, 74, 96
1, 14829, Note_off_c, 1, 65, 96
1, 14829, Note_off_c, 1, 55, 96
1, 14829, Note_off_c, 1, 43, 96
1, 14892, Note_on_c, 1, 64, 96
1, 14892, Note_on_c, 1, 72, 96
1, 14892, Note_on_c, 1, 55, 96
1, 14892, Note_on_c, 1, 48, 96
1, 14893, Note_off_c, 1, 64, 96
1, 14893, Note_off_c, 1, 72, 96
1, 14893, Note_off_c, 1, 55, 96
1, 14893, Note_off_c, 1, 48, 96
1, 14954, Note_on_c, 1, 80, 96
1, 14954, Note_on_c, 1, 40, 96
1, 14955, Note_off_c, 1, 80, 96
1, 14955, Note_off_c, 1, 40, 96
1, 15019, Note_on_c, 1, 78, 96
1, 15019, Note_on_c, 1, 69, 96
1, 15019, Note_on_c, 1, 60, 96
1, 15019, Note_on_c, 1, 52, 96
1, 15019, Note_on_c, 1, 57, 96
1, 15020, Note_off_c, 1, 78, 96
1, 15020, Note_off_c, 1, 69, 96
1, 15020, Note_off_c, 1, 60, 96
1, 15020, Note_off_c, 1, 52, 96
1, 15020, Note_off_c, 1, 57, 96
1, 15050, Note_on_c, 1, 79, 96
1, 15051, Note_off_c, 1, 79, 96
1, 15083, Note_on_c, 1, 79, 96
1, 15083, Note_on_c, 1, 45, 96
1, 15083, Note_on_c, 1, 72, 96
1, 15084, Note_off_c, 1, 79, 96
1, 15084, Note_off_c, 1, 45, 96
1, 15084, Note_off_c, 1, 72, 96
1, 15145, Note_on_c, 1, 43, 96
1, 15145, Note_on_c, 1, 55, 96
1, 15146, Note_off_c, 1, 43, 96
1, 15146, Note_off_c, 1, 55, 96
1, 15208, Note_on_c, 1, 55, 96
1, 15208, Note_on_c, 1, 59, 96
1, 15208, Note_on_c, 1, 65, 96
1, 15209, Note_off_c, 1, 55, 96
1, 15209, Note_off_c, 1, 59, 96
1, 15209, Note_off_c, 1, 65, 96
1, 15269, Note_on_c, 1, 74, 96
1, 15270, Note_off_c, 1, 74, 96
1, 15333, Note_on_c, 1, 72, 96
1, 15333, Note_on_c, 1, 64, 96
1, 15333, Note_on_c, 1, 60, 96
1, 15333, Note_on_c, 1, 55, 96
1, 15334, Note_off_c, 1, 72, 96
1, 15334, Note_off_c, 1, 64, 96
1, 15334, Note_off_c, 1, 60, 96
1, 15334, Note_off_c, 1, 55, 96
1, 15395, Note_on_c, 1, 74, 96
1, 15395, Note_on_c, 1, 67, 96
1, 15396, Note_off_c, 1, 74, 96
1, 15396, Note_off_c, 1, 67, 96
1, 15583, Note_on_c, 1, 48, 96
1, 15583, Note_on_c, 1, 60, 96
1, 15584, Note_off_c, 1, 48, 96
1, 15584, Note_off_c, 1, 60, 96
1, 15614, Note_on_c, 1, 66, 96
1, 15615, Note_off_c, 1, 66, 96
1, 15648, Note_on_c, 1, 69, 96
1, 15648, Note_on_c, 1, 63, 96
1, 15648, Note_on_c, 1, 58, 96
1, 15648, Note_on_c, 1, 55, 96
1, 15649, Note_off_c, 1, 69, 96
1, 15649, Note_off_c, 1, 63, 96
1, 15649, Note_off_c, 1, 58, 96
1, 15649, Note_off_c, 1, 55, 96
1, 15680, Note_on_c, 1, 65, 96
1, 15680, Note_on_c, 1, 53, 96
1, 15681, Note_off_c, 1, 65, 96
1, 15681, Note_off_c, 1, 53, 96
1, 15712, Note_on_c, 1, 74, 96
1, 15712, Note_on_c, 1, 62, 96
1, 15713, Note_off_c, 1, 74, 96
1, 15713, Note_off_c, 1, 62, 96
1, 15744, Note_on_c, 1, 65, 96
1, 15744, Note_on_c, 1, 77, 96
1, 15745, Note_off_c, 1, 65, 96
1, 15745, Note_off_c, 1, 77, 96
1, 15777, Note_on_c, 1, 69, 96
1, 15777, Note_on_c, 1, 72, 96
1, 15777, Note_on_c, 1, 52, 96
1, 15778, Note_off_c, 1, 69, 96
1, 15778, Note_off_c, 1, 72, 96
1, 15778, Note_off_c, 1, 52, 96
1, 15808, Note_on_c, 1, 72, 96
1, 15809, Note_off_c, 1, 72, 96
1, 15842, Note_on_c, 1, 79, 96
1, 15842, Note_on_c, 1, 58, 96
1, 15842, Note_on_c, 1, 55, 96
1, 15842, Note_on_c, 1, 64, 96
1, 15843, Note_off_c, 1, 79, 96
1, 15843, Note_off_c, 1, 58, 96
1, 15843, Note_off_c, 1, 55, 96
1, 15843, Note_off_c, 1, 64, 96
1, 15873, Note_on_c, 1, 81, 96
1, 15874, Note_off_c, 1, 81, 96
1, 15907, Note_on_c, 1, 81, 96
1, 15907, Note_on_c, 1, 60, 96
1, 15907, Note_on_c, 1, 63, 96
1, 15907, Note_on_c, 1, 54, 96
1, 15908, Note_off_c, 1, 81, 96
1, 15908, Note_off_c, 1, 60, 96
1, 15908, Note_off_c, 1, 63, 96
1, 15908, Note_off_c, 1, 54, 96
1, 15938, Note_on_c, 1, 76, 96
1, 15939, Note_off_c, 1, 76, 96
1, 15971, Note_on_c, 1, 79, 96
1, 15971, Note_on_c, 1, 43, 96
1, 15971, Note_on_c, 1, 55, 96
1, 15972, Note_off_c, 1, 79, 96
1, 15972, Note_off_c, 1, 43, 96
1, 15972, Note_off_c, 1, 55, 96
1, 16002, Note_on_c, 1, 67, 96
1, 16003, Note_off_c, 1, 67, 96
1, 16036, Note_on_c, 1, 76, 96
1, 16036, Note_on_c, 1, 64, 96
1, 16036, Note_on_c, 1, 55, 96
1, 16036, Note_on_c, 1, 60, 96
1, 16037, Note_off_c, 1, 76, 96
1, 16037, Note_off_c, 1, 64, 96
1, 16037, Note_off_c, 1, 55, 96
1, 16037, Note_off_c, 1, 60, 96
1, 16069, Note_on_c, 1, 67, 96
1, 16069, Note_on_c, 1, 76, 96
1, 16069, Note_on_c, 1, 64, 96
1, 16070, Note_off_c, 1, 67, 96
1, 16070, Note_off_c, 1, 76, 96
1, 16070, Note_off_c, 1, 64, 96
1, 16101, Note_on_c, 1, 52, 96
1, 16101, Note_on_c, 1, 64, 96
1, 16102, Note_off_c, 1, 52, 96
1, 16102, Note_off_c, 1, 64, 96
1, 16133, Note_on_c, 1, 67, 96
1, 16133, Note_on_c, 1, 79, 96
1, 16134, Note_off_c, 1, 67, 96
1, 16134, Note_off_c, 1, 79, 96
1, 16165, Note_on_c, 1, 57, 96
1, 16165, Note_on_c, 1, 45, 96
1, 16166, Note_off_c, 1, 57, 96
1, 16166, Note_off_c, 1, 45, 96
1, 16196, Note_on_c, 1, 73, 96
1, 16197, Note_off_c, 1, 73, 96
1, 16232, Note_on_c, 1, 81, 96
1, 16232, Note_on_c, 1, 76, 96
1, 16232, Note_on_c, 1, 64, 96
1, 16232, Note_on_c, 1, 61, 96
1, 16232, Note_on_c, 1, 55, 96
1, 16232, Note_on_c, 1, 57, 96
1, 16233, Note_off_c, 1, 81, 96
1, 16233, Note_off_c, 1, 76, 96
1, 16233, Note_off_c, 1, 64, 96
1, 16233, Note_off_c, 1, 61, 96
1, 16233, Note_off_c, 1, 55, 96
1, 16233, Note_off_c, 1, 57, 96
1, 16264, Note_on_c, 1, 80, 96
1, 16264, Note_on_c, 1, 76, 96
1, 16265, Note_off_c, 1, 80, 96
1, 16265, Note_off_c, 1, 76, 96
1, 16297, Note_on_c, 1, 57, 96
1, 16297, Note_on_c, 1, 61, 96
1, 16297, Note_on_c, 1, 67, 96
1, 16298, Note_off_c, 1, 57, 96
1, 16298, Note_off_c, 1, 61, 96
1, 16298, Note_off_c, 1, 67, 96
1, 16328, Note_on_c, 1, 76, 96
1, 16329, Note_off_c, 1, 76, 96
1, 16363, Note_on_c, 1, 76, 96
1, 16363, Note_on_c, 1, 64, 96
1, 16363, Note_on_c, 1, 57, 96
1, 16363, Note_on_c, 1, 61, 96
1, 16363, Note_on_c, 1, 67, 96
1, 16364, Note_off_c, 1, 76, 96
1, 16364, Note_off_c, 1, 64, 96
1, 16364, Note_off_c, 1, 57, 96
1, 16364, Note_off_c, 1, 61, 96
1, 16364, Note_off_c, 1, 67, 96
1, 16394, Note_on_c, 1, 69, 96
1, 16395, Note_off_c, 1, 69, 96
1, 16428, Note_on_c, 1, 74, 96
1, 16428, Note_on_c, 1, 77, 96
1, 16428, Note_on_c, 1, 62, 96
1, 16428, Note_on_c, 1, 50, 96
1, 16429, Note_off_c, 1, 74, 96
1, 16429, Note_off_c, 1, 77, 96
1, 16429, Note_off_c, 1, 62, 96
1, 16429, Note_off_c, 1, 50, 96
1, 16460, Note_on_c, 1, 70, 96
1, 16460, Note_on_c, 1, 74, 96
1, 16461, Note_off_c, 1, 70, 96
1, 16461, Note_off_c, 1, 74, 96
1, 16491, Note_on_c, 1, 43, 96
1, 16492, Note_off_c, 1, 43, 96
1, 16524, Note_on_c, 1, 67, 96
1, 16524, Note_on_c, 1, 74, 96
1, 16524, Note_on_c, 1, 77, 96
1, 16525, Note_off_c, 1, 67, 96
1, 16525, Note_off_c, 1, 74, 96
1, 16525, Note_off_c, 1, 77, 96
1, 16555, Note_on_c, 1, 43, 96
1, 16556, Note_off_c, 1, 43, 96
1, 16586, Note_on_c, 1, 69, 96
1, 16587, Note_off_c, 1, 69, 96
1, 16618, Note_on_c, 1, 43, 96
1, 16618, Note_on_c, 1, 55, 96
1, 16619, Note_off_c, 1, 43, 96
1, 16619, Note_off_c, 1, 55, 96
1, 16650, Note_on_c, 1, 71, 96
1, 16650, Note_on_c, 1, 74, 96
1, 16651, Note_off_c, 1, 71, 96
1, 16651, Note_off_c, 1, 74, 96
1, 16683, Note_on_c, 1, 50, 96
1, 16683, Note_on_c, 1, 59, 96
1, 16683, Note_on_c, 1, 55, 96
1, 16684, Note_off_c, 1, 50, 96
1, 16684, Note_off_c, 1, 59, 96
1, 16684, Note_off_c, 1, 55, 96
1, 16714, Note_on_c, 1, 74, 96
1, 16715, Note_off_c, 1, 74, 96
1, 16746, Note_on_c, 1, 76, 96
1, 16746, Note_on_c, 1, 48, 96
1, 16747, Note_off_c, 1, 76, 96
1, 16747, Note_off_c, 1, 48, 96
1, 16777, Note_on_c, 1, 72, 96
1, 16778, Note_off_c, 1, 72, 96
1, 16811, Note_on_c, 1, 76, 96
1, 16811, Note_on_c, 1, 55, 96
1, 16811, Note_on_c, 1, 60, 96
1, 16811, Note_on_c, 1, 64, 96
1, 16812, Note_off_c, 1, 76, 96
1, 16812, Note_off_c, 1, 55, 96
1, 16812, Note_off_c, 1, 60, 96
1, 16812, Note_off_c, 1, 64, 96
1, 16843, Note_on_c, 1, 76, 96
1, 16843, Note_on_c, 1, 66, 96
1, 16844, Note_off_c, 1, 76, 96
1, 16844, Note_off_c, 1, 66, 96
1, 16874, Note_on_c, 1, 43, 96
1, 16875, Note_off_c, 1, 43, 96
1, 16905, Note_on_c, 1, 74, 96
1, 16906, Note_off_c, 1, 74, 96
1, 16939, Note_on_c, 1, 81, 96
1, 16939, Note_on_c, 1, 64, 96
1, 16939, Note_on_c, 1, 60, 96
1, 16939, Note_on_c, 1, 55, 96
1, 16940, Note_off_c, 1, 81, 96
1, 16940, Note_off_c, 1, 64, 96
1, 16940, Note_off_c, 1, 60, 96
1, 16940, Note_off_c, 1, 55, 96
1, 16970, Note_on_c, 1, 84, 96
1, 16971, Note_off_c, 1, 84, 96
1, 17004, Note_on_c, 1, 81, 96
1, 17004, Note_on_c, 1, 55, 96
1, 17004, Note_on_c, 1, 60, 96
1, 17004, Note_on_c, 1, 64, 96
1, 17005, Note_off_c, 1, 81, 96
1, 17005, Note_off_c, 1, 55, 96
1, 17005, Note_off_c, 1, 60, 96
1, 17005, Note_off_c, 1, 64, 96
1, 17036, Note_on_c, 1, 76, 96
1, 17036, Note_on_c, 1, 81, 96
1, 17037, Note_off_c, 1, 76, 96
1, 17037, Note_off_c, 1, 81, 96
1, 17067, Note_on_c, 1, 52, 96
1, 17068, Note_off_c, 1, 52, 96
1, 17099, Note_on_c, 1, 72, 96
1, 17099, Note_on_c, 1, 84, 96
1, 17100, Note_off_c, 1, 72, 96
1, 17100, Note_off_c, 1, 84, 96
1, 17132, Note_on_c, 1, 83, 96
1, 17132, Note_on_c, 1, 59, 96
1, 17132, Note_on_c, 1, 50, 96
1, 17133, Note_off_c, 1, 83, 96
1, 17133, Note_off_c, 1, 59, 96
1, 17133, Note_off_c, 1, 50, 96
1, 17198, Note_on_c, 1, 83, 96
1, 17198, Note_on_c, 1, 79, 96
1, 17198, Note_on_c, 1, 91, 96
1, 17198, Note_on_c, 1, 79, 96
1, 17198, Note_on_c, 1, 55, 96
1, 17198, Note_on_c, 1, 43, 96
1, 17199, Note_off_c, 1, 83, 96
1, 17199, Note_off_c, 1, 79, 96
1, 17199, Note_off_c, 1, 91, 96
1, 17199, Note_off_c, 1, 79, 96
1, 17199, Note_off_c, 1, 55, 96
1, 17199, Note_off_c, 1, 43, 96
1, 17229, Note_on_c, 1, 79, 96
1, 17230, Note_off_c, 1, 79, 96
1, 17264, Note_on_c, 1, 84, 96
1, 17264, Note_on_c, 1, 64, 96
1, 17264, Note_on_c, 1, 76, 96
1, 17264, Note_on_c, 1, 60, 96
1, 17264, Note_on_c, 1, 48, 96
1, 17265, Note_off_c, 1, 84, 96
1, 17265, Note_off_c, 1, 64, 96
1, 17265, Note_off_c, 1, 76, 96
1, 17265, Note_off_c, 1, 60, 96
1, 17265, Note_off_c, 1, 48, 96
1, 17296, Note_on_c, 1, 68, 96
1, 17296, Note_on_c, 1, 80, 96
1, 17297, Note_off_c, 1, 68, 96
1, 17297, Note_off_c, 1, 80, 96
1, 17331, Note_on_c, 1, 84, 96
1, 17331, Note_on_c, 1, 72, 96
1, 17331, Note_on_c, 1, 56, 96
1, 17331, Note_on_c, 1, 66, 96
1, 17331, Note_on_c, 1, 60, 96
1, 17332, Note_off_c, 1, 84, 96
1, 17332, Note_off_c, 1, 72, 96
1, 17332, Note_off_c, 1, 56, 96
1, 17332, Note_off_c, 1, 66, 96
1, 17332, Note_off_c, 1, 60, 96
1, 17362, Note_on_c, 1, 81, 96
1, 17363, Note_off_c, 1, 81, 96
1, 17396, Note_on_c, 1, 83, 96
1, 17396, Note_on_c, 1, 52, 96
1, 17396, Note_on_c, 1, 56, 96
1, 17396, Note_on_c, 1, 62, 96
1, 17397, Note_off_c, 1, 83, 96
1, 17397, Note_off_c, 1, 52, 96
1, 17397, Note_off_c, 1, 56, 96
1, 17397, Note_off_c, 1, 62, 96
1, 17427, Note_on_c, 1, 84, 96
1, 17428, Note_off_c, 1, 84, 96
1, 17461, Note_on_c, 1, 88, 96
1, 17461, Note_on_c, 1, 50, 96
1, 17461, Note_on_c, 1, 55, 96
1, 17461, Note_on_c, 1, 59, 96
1, 17462, Note_off_c, 1, 88, 96
1, 17462, Note_off_c, 1, 50, 96
1, 17462, Note_off_c, 1, 55, 96
1, 17462, Note_off_c, 1, 59, 96
1, 17492, Note_on_c, 1, 83, 96
1, 17493, Note_off_c, 1, 83, 96
1, 17527, Note_on_c, 1, 74, 96
1, 17527, Note_on_c, 1, 83, 96
1, 17527, Note_on_c, 1, 77, 96
1, 17527, Note_on_c, 1, 59, 96
1, 17527, Note_on_c, 1, 47, 96
1, 17528, Note_off_c, 1, 74, 96
1, 17528, Note_off_c, 1, 83, 96
1, 17528, Note_off_c, 1, 77, 96
1, 17528, Note_off_c, 1, 59, 96
1, 17528, Note_off_c, 1, 47, 96
1, 17559, Note_on_c, 1, 74, 96
1, 17559, Note_on_c, 1, 86, 96
1, 17560, Note_off_c, 1, 74, 96
1, 17560, Note_off_c, 1, 86, 96
1, 17592, Note_on_c, 1, 55, 96
1, 17592, Note_on_c, 1, 59, 96
1, 17592, Note_on_c, 1, 65, 96
1, 17593, Note_off_c, 1, 55, 96
1, 17593, Note_off_c, 1, 59, 96
1, 17593, Note_off_c, 1, 65, 96
1, 17623, Note_on_c, 1, 71, 96
1, 17624, Note_off_c, 1, 71, 96
1, 17656, Note_on_c, 1, 83, 96
1, 17656, Note_on_c, 1, 79, 96
1, 17656, Note_on_c, 1, 43, 96
1, 17657, Note_off_c, 1, 83, 96
1, 17657, Note_off_c, 1, 79, 96
1, 17657, Note_off_c, 1, 43, 96
1, 17687, Note_on_c, 1, 83, 96
1, 17688, Note_off_c, 1, 83, 96
1, 17721, Note_on_c, 1, 83, 96
1, 17721, Note_on_c, 1, 55, 96
1, 17721, Note_on_c, 1, 59, 96
1, 17721, Note_on_c, 1, 65, 96
1, 17722, Note_off_c, 1, 83, 96
1, 17722, Note_off_c, 1, 55, 96
1, 17722, Note_off_c, 1, 59, 96
1, 17722, Note_off_c, 1, 65, 96
1, 17752, Note_on_c, 1, 76, 96
1, 17753, Note_off_c, 1, 76, 96
1, 17786, Note_on_c, 1, 76, 96
1, 17786, Note_on_c, 1, 55, 96
1, 17786, Note_on_c, 1, 59, 96
1, 17786, Note_on_c, 1, 65, 96
1, 17787, Note_off_c, 1, 76, 96
1, 17787, Note_off_c, 1, 55, 96
1, 17787, Note_off_c, 1, 59, 96
1, 17787, Note_off_c, 1, 65, 96
1, 17817, Note_on_c, 1, 71, 96
1, 17818, Note_off_c, 1, 71, 96
1, 17848, Note_on_c, 1, 43, 96
1, 17849, Note_off_c, 1, 43, 96
1, 17879, Note_on_c, 1, 74, 96
1, 17880, Note_off_c, 1, 74, 96
1, 17913, Note_on_c, 1, 76, 96
1, 17913, Note_on_c, 1, 52, 96
1, 17913, Note_on_c, 1, 60, 96
1, 17913, Note_on_c, 1, 57, 96
1, 17914, Note_off_c, 1, 76, 96
1, 17914, Note_off_c, 1, 52, 96
1, 17914, Note_off_c, 1, 60, 96
1, 17914, Note_off_c, 1, 57, 96
1, 17944, Note_on_c, 1, 72, 96
1, 17945, Note_off_c, 1, 72, 96
1, 17975, Note_on_c, 1, 45, 96
1, 17976, Note_off_c, 1, 45, 96
1, 18006, Note_on_c, 1, 72, 96
1, 18007, Note_off_c, 1, 72, 96
1, 18039, Note_on_c, 1, 66, 96
1, 18039, Note_on_c, 1, 74, 96
1, 18039, Note_on_c, 1, 50, 96
1, 18040, Note_off_c, 1, 66, 96
1, 18040, Note_off_c, 1, 74, 96
1, 18040, Note_off_c, 1, 50, 96
1, 18071, Note_on_c, 1, 62, 96
1, 18071, Note_on_c, 1, 67, 96
1, 18072, Note_off_c, 1, 62, 96
1, 18072, Note_off_c, 1, 67, 96
1, 18103, Note_on_c, 1, 57, 96
1, 18103, Note_on_c, 1, 45, 96
1, 18104, Note_off_c, 1, 57, 96
1, 18104, Note_off_c, 1, 45, 96
1, 18134, Note_on_c, 1, 72, 96
1, 18135, Note_off_c, 1, 72, 96
1, 18167, Note_on_c, 1, 74, 96
1, 18167, Note_on_c, 1, 62, 96
1, 18167, Note_on_c, 1, 43, 96
1, 18168, Note_off_c, 1, 74, 96
1, 18168, Note_off_c, 1, 62, 96
1, 18168, Note_off_c, 1, 43, 96
1, 18228, Note_on_c, 1, 67, 96
1, 18229, Note_off_c, 1, 67, 96
1, 18262, Note_on_c, 1, 75, 96
1, 18262, Note_on_c, 1, 65, 96
1, 18262, Note_on_c, 1, 55, 96
1, 18262, Note_on_c, 1, 59, 96
1, 18263, Note_off_c, 1, 75, 96
1, 18263, Note_off_c, 1, 65, 96
1, 18263, Note_off_c, 1, 55, 96
1, 18263, Note_off_c, 1, 59, 96
1, 18294, Note_on_c, 1, 67, 96
1, 18294, Note_on_c, 1, 79, 96
1, 18295, Note_off_c, 1, 67, 96
1, 18295, Note_off_c, 1, 79, 96
1, 18325, Note_on_c, 1, 43, 96
1, 18326, Note_off_c, 1, 43, 96
1, 18357, Note_on_c, 1, 67, 96
1, 18357, Note_on_c, 1, 79, 96
1, 18358, Note_off_c, 1, 67, 96
1, 18358, Note_off_c, 1, 79, 96
1, 18391, Note_on_c, 1, 74, 96
1, 18391, Note_on_c, 1, 79, 96
1, 18391, Note_on_c, 1, 59, 96
1, 18391, Note_on_c, 1, 47, 96
1, 18392, Note_off_c, 1, 74, 96
1, 18392, Note_off_c, 1, 79, 96
1, 18392, Note_off_c, 1, 59, 96
1, 18392, Note_off_c, 1, 47, 96
1, 18423, Note_on_c, 1, 71, 96
1, 18423, Note_on_c, 1, 59, 96
1, 18424, Note_off_c, 1, 71, 96
1, 18424, Note_off_c, 1, 59, 96
1, 18454, Note_on_c, 1, 64, 96
1, 18455, Note_off_c, 1, 64, 96
1, 18485, Note_on_c, 1, 76, 96
1, 18486, Note_off_c, 1, 76, 96
1, 18519, Note_on_c, 1, 78, 96
1, 18519, Note_on_c, 1, 67, 96
1, 18519, Note_on_c, 1, 57, 96
1, 18519, Note_on_c, 1, 45, 96
1, 18520, Note_off_c, 1, 78, 96
1, 18520, Note_off_c, 1, 67, 96
1, 18520, Note_off_c, 1, 57, 96
1, 18520, Note_off_c, 1, 45, 96
1, 18550, Note_on_c, 1, 76, 96
1, 18551, Note_off_c, 1, 76, 96
1, 18582, Note_on_c, 1, 71, 96
1, 18582, Note_on_c, 1, 43, 96
1, 18583, Note_off_c, 1, 71, 96
1, 18583, Note_off_c, 1, 43, 96
1, 18613, Note_on_c, 1, 73, 96
1, 18614, Note_off_c, 1, 73, 96
1, 18645, Note_on_c, 1, 61, 96
1, 18645, Note_on_c, 1, 49, 96
1, 18646, Note_off_c, 1, 61, 96
1, 18646, Note_off_c, 1, 49, 96
1, 18676, Note_on_c, 1, 74, 96
1, 18677, Note_off_c, 1, 74, 96
1, 18709, Note_on_c, 1, 71, 96
1, 18709, Note_on_c, 1, 55, 96
1, 18709, Note_on_c, 1, 59, 96
1, 18710, Note_off_c, 1, 71, 96
1, 18710, Note_off_c, 1, 55, 96
1, 18710, Note_off_c, 1, 59, 96
1, 18741, Note_on_c, 1, 76, 96
1, 18741, Note_on_c, 1, 64, 96
1, 18742, Note_off_c, 1, 76, 96
1, 18742, Note_off_c, 1, 64, 96
1, 18773, Note_on_c, 1, 57, 96
1, 18773, Note_on_c, 1, 45, 96
1, 18774, Note_off_c, 1, 57, 96
1, 18774, Note_off_c, 1, 45, 96
1, 18804, Note_on_c, 1, 68, 96
1, 18805, Note_off_c, 1, 68, 96
1, 18838, Note_on_c, 1, 76, 96
1, 18838, Note_on_c, 1, 72, 96
1, 18838, Note_on_c, 1, 45, 96
1, 18838, Note_on_c, 1, 57, 96
1, 18839, Note_off_c, 1, 76, 96
1, 18839, Note_off_c, 1, 72, 96
1, 18839, Note_off_c, 1, 45, 96
1, 18839, Note_off_c, 1, 57, 96
1, 18904, Note_on_c, 1, 76, 96
1, 18904, Note_on_c, 1, 71, 96
1, 18904, Note_on_c, 1, 68, 96
1, 18904, Note_on_c, 1, 62, 96
1, 18904, Note_on_c, 1, 40, 96
1, 18904, Note_on_c, 1, 52, 96
1, 18905, Note_off_c, 1, 76, 96
1, 18905, Note_off_c, 1, 71, 96
1, 18905, Note_off_c, 1, 68, 96
1, 18905, Note_off_c, 1, 62, 96
1, 18905, Note_off_c, 1, 40, 96
1, 18905, Note_off_c, 1, 52, 96
1, 18965, Note_on_c, 1, 49, 96
1, 18966, Note_off_c, 1, 49, 96
1, 19027, Note_on_c, 1, 66, 96
1, 19027, Note_on_c, 1, 54, 96
1, 19028, Note_off_c, 1, 66, 96
1, 19028, Note_off_c, 1, 54, 96
1, 19088, Note_on_c, 1, 50, 96
1, 19089, Note_off_c, 1, 50, 96
1, 19120, Note_on_c, 1, 61, 96
1, 19120, Note_on_c, 1, 52, 96
1, 19121, Note_off_c, 1, 61, 96
1, 19121, Note_off_c, 1, 52, 96
1, 19182, Note_on_c, 1, 60, 96
1, 19182, Note_on_c, 1, 57, 96
1, 19183, Note_off_c, 1, 60, 96
1, 19183, Note_off_c, 1, 57, 96
1, 19243, Note_on_c, 1, 74, 96
1, 19244, Note_off_c, 1, 74, 96
1, 19274, Note_on_c, 1, 72, 96
1, 19275, Note_off_c, 1, 72, 96
1, 19305, Note_on_c, 1, 75, 96
1, 19306, Note_off_c, 1, 75, 96
1, 19336, Note_on_c, 1, 77, 96
1, 19337, Note_off_c, 1, 77, 96
1, 19367, Note_on_c, 1, 73, 96
1, 19368, Note_off_c, 1, 73, 96
1, 19400, Note_on_c, 1, 74, 96
1, 19400, Note_on_c, 1, 62, 96
1, 19400, Note_on_c, 1, 65, 96
1, 19401, Note_off_c, 1, 74, 96
1, 19401, Note_off_c, 1, 62, 96
1, 19401, Note_off_c, 1, 65, 96
1, 19432, Note_on_c, 1, 64, 96
1, 19432, Note_on_c, 1, 76, 96
1, 19433, Note_off_c, 1, 64, 96
1, 19433, Note_off_c, 1, 76, 96
1, 19493, Note_on_c, 1, 55, 96
1, 19494, Note_off_c, 1, 55, 96
1, 19555, Note_on_c, 1, 79, 96
1, 19555, Note_on_c, 1, 67, 96
1, 19556, Note_off_c, 1, 79, 96
1, 19556, Note_off_c, 1, 67, 96
1, 19745, Note_on_c, 1, 71, 96
1, 19745, Note_on_c, 1, 74, 96
1, 19745, Note_on_c, 1, 65, 96
1, 19745, Note_on_c, 1, 55, 96
1, 19746, Note_off_c, 1, 71, 96
1, 19746, Note_off_c, 1, 74, 96
1, 19746, Note_off_c, 1, 65, 96
1, 19746, Note_off_c, 1, 55, 96
1, 19808, Note_on_c, 1, 71, 96
1, 19808, Note_on_c, 1, 79, 96
1, 19808, Note_on_c, 1, 67, 96
1, 19809, Note_off_c, 1, 71, 96
1, 19809, Note_off_c, 1, 79, 96
1, 19809, Note_off_c, 1, 67, 96
1, 19871, Note_on_c, 1, 52, 96
1, 19871, Note_on_c, 1, 55, 96
1, 19871, Note_on_c, 1, 60, 96
1, 19872, Note_off_c, 1, 52, 96
1, 19872, Note_off_c, 1, 55, 96
1, 19872, Note_off_c, 1, 60, 96
1, 19936, Note_on_c, 1, 63, 96
1, 19936, Note_on_c, 1, 75, 96
1, 19936, Note_on_c, 1, 69, 96
1, 19936, Note_on_c, 1, 54, 96
1, 19936, Note_on_c, 1, 42, 96
1, 19937, Note_off_c, 1, 63, 96
1, 19937, Note_off_c, 1, 75, 96
1, 19937, Note_off_c, 1, 69, 96
1, 19937, Note_off_c, 1, 54, 96
1, 19937, Note_off_c, 1, 42, 96
1, 19999, Note_on_c, 1, 69, 96
1, 19999, Note_on_c, 1, 60, 96
1, 19999, Note_on_c, 1, 48, 96
1, 20000, Note_off_c, 1, 69, 96
1, 20000, Note_off_c, 1, 60, 96
1, 20000, Note_off_c, 1, 48, 96
1, 20062, Note_on_c, 1, 67, 96
1, 20062, Note_on_c, 1, 48, 96
1, 20062, Note_on_c, 1, 36, 96
1, 20063, Note_off_c, 1, 67, 96
1, 20063, Note_off_c, 1, 48, 96
1, 20063, Note_off_c, 1, 36, 96
1, 20093, Note_on_c, 1, 69, 96
1, 20094, Note_off_c, 1, 69, 96
1, 20126, Note_on_c, 1, 71, 96
1, 20126, Note_on_c, 1, 61, 96
1, 20126, Note_on_c, 1, 55, 96
1, 20127, Note_off_c, 1, 71, 96
1, 20127, Note_off_c, 1, 61, 96
1, 20127, Note_off_c, 1, 55, 96
1, 20158, Note_on_c, 1, 69, 96
1, 20158, Note_on_c, 1, 73, 96
1, 20159, Note_off_c, 1, 69, 96
1, 20159, Note_off_c, 1, 73, 96
1, 20189, Note_on_c, 1, 45, 96
1, 20190, Note_off_c, 1, 45, 96
1, 20220, Note_on_c, 1, 73, 96
1, 20221, Note_off_c, 1, 73, 96
1, 20255, Note_on_c, 1, 74, 96
1, 20255, Note_on_c, 1, 62, 96
1, 20255, Note_on_c, 1, 65, 96
1, 20255, Note_on_c, 1, 69, 96
1, 20255, Note_on_c, 1, 57, 96
1, 20256, Note_off_c, 1, 74, 96
1, 20256, Note_off_c, 1, 62, 96
1, 20256, Note_off_c, 1, 65, 96
1, 20256, Note_off_c, 1, 69, 96
1, 20256, Note_off_c, 1, 57, 96
1, 20318, Note_on_c, 1, 62, 96
1, 20318, Note_on_c, 1, 75, 96
1, 20318, Note_on_c, 1, 65, 96
1, 20319, Note_off_c, 1, 62, 96
1, 20319, Note_off_c, 1, 75, 96
1, 20319, Note_off_c, 1, 65, 96
1, 20380, Note_on_c, 1, 74, 96
1, 20380, Note_on_c, 1, 65, 96
1, 20381, Note_off_c, 1, 74, 96
1, 20381, Note_off_c, 1, 65, 96
1, 20441, Note_on_c, 1, 57, 96
1, 20442, Note_off_c, 1, 57, 96
1, 20503, Note_on_c, 1, 73, 96
1, 20503, Note_on_c, 1, 65, 96
1, 20504, Note_off_c, 1, 73, 96
1, 20504, Note_off_c, 1, 65, 96
1, 20536, Note_on_c, 1, 67, 96
1, 20536, Note_on_c, 1, 64, 96
1, 20537, Note_off_c, 1, 67, 96
1, 20537, Note_off_c, 1, 64, 96
1, 20569, Note_on_c, 1, 64, 96
1, 20569, Note_on_c, 1, 60, 96
1, 20569, Note_on_c, 1, 55, 96
1, 20570, Note_off_c, 1, 64, 96
1, 20570, Note_off_c, 1, 60, 96
1, 20570, Note_off_c, 1, 55, 96
1, 20600, Note_on_c, 1, 67, 96
1, 20601, Note_off_c, 1, 67, 96
1, 20633, Note_on_c, 1, 71, 96
1, 20633, Note_on_c, 1, 55, 96
1, 20633, Note_on_c, 1, 62, 96
1, 20634, Note_off_c, 1, 71, 96
1, 20634, Note_off_c, 1, 55, 96
1, 20634, Note_off_c, 1, 62, 96
1, 20664, Note_on_c, 1, 67, 96
1, 20665, Note_off_c, 1, 67, 96
1, 20695, Note_on_c, 1, 67, 96
1, 20696, Note_off_c, 1, 67, 96
1, 20726, Note_on_c, 1, 64, 96
1, 20727, Note_off_c, 1, 64, 96
1, 20760, Note_on_c, 1, 71, 96
1, 20760, Note_on_c, 1, 62, 96
1, 20760, Note_on_c, 1, 59, 96
1, 20760, Note_on_c, 1, 55, 96
1, 20761, Note_off_c, 1, 71, 96
1, 20761, Note_off_c, 1, 62, 96
1, 20761, Note_off_c, 1, 59, 96
1, 20761, Note_off_c, 1, 55, 96
1, 20821, Note_on_c, 1, 50, 96
1, 20822, Note_off_c, 1, 50, 96
1, 20883, Note_on_c, 1, 67, 96
1, 20883, Note_on_c, 1, 55, 96
1, 20884, Note_off_c, 1, 67, 96
1, 20884, Note_off_c, 1, 55, 96
1, 20915, Note_on_c, 1, 69, 96
1, 20915, Note_on_c, 1, 62, 96
1, 20916, Note_off_c, 1, 69, 96
1, 20916, Note_off_c, 1, 62, 96
1, 20948, Note_on_c, 1, 59, 96
1, 20948, Note_on_c, 1, 62, 96
1, 20948, Note_on_c, 1, 43, 96
1, 20949, Note_off_c, 1, 59, 96
1, 20949, Note_off_c, 1, 62, 96
1, 20949, Note_off_c, 1, 43, 96
1, 20979, Note_on_c, 1, 69, 96
1, 20980, Note_off_c, 1, 69, 96
1, 21012, Note_on_c, 1, 71, 96
1, 21012, Note_on_c, 1, 56, 96
1, 21012, Note_on_c, 1, 61, 96
1, 21013, Note_off_c, 1, 71, 96
1, 21013, Note_off_c, 1, 56, 96
1, 21013, Note_off_c, 1, 61, 96
1, 21043, Note_on_c, 1, 71, 96
1, 21044, Note_off_c, 1, 71, 96
1, 21075, Note_on_c, 1, 67, 96
1, 21075, Note_on_c, 1, 38, 96
1, 21076, Note_off_c, 1, 67, 96
1, 21076, Note_off_c, 1, 38, 96
1, 21106, Note_on_c, 1, 62, 96
1, 21107, Note_off_c, 1, 62, 96
1, 21139, Note_on_c, 1, 62, 96
1, 21139, Note_on_c, 1, 50, 96
1, 21139, Note_on_c, 1, 54, 96
1, 21140, Note_off_c, 1, 62, 96
1, 21140, Note_off_c, 1, 50, 96
1, 21140, Note_off_c, 1, 54, 96
1, 21170, Note_on_c, 1, 69, 96
1, 21171, Note_off_c, 1, 69, 96
1, 21203, Note_on_c, 1, 71, 96
1, 21203, Note_on_c, 1, 43, 96
1, 21203, Note_on_c, 1, 55, 96
1, 21204, Note_off_c, 1, 71, 96
1, 21204, Note_off_c, 1, 43, 96
1, 21204, Note_off_c, 1, 55, 96
1, 21234, Note_on_c, 1, 67, 96
1, 21235, Note_off_c, 1, 67, 96
1, 21268, Note_on_c, 1, 71, 96
1, 21268, Note_on_c, 1, 55, 96
1, 21268, Note_on_c, 1, 50, 96
1, 21268, Note_on_c, 1, 59, 96
1, 21269, Note_off_c, 1, 71, 96
1, 21269, Note_off_c, 1, 55, 96
1, 21269, Note_off_c, 1, 50, 96
1, 21269, Note_off_c, 1, 59, 96
1, 21299, Note_on_c, 1, 69, 96
1, 21300, Note_off_c, 1, 69, 96
1, 21333, Note_on_c, 1, 67, 96
1, 21333, Note_on_c, 1, 50, 96
1, 21333, Note_on_c, 1, 55, 96
1, 21333, Note_on_c, 1, 59, 96
1, 21334, Note_off_c, 1, 67, 96
1, 21334, Note_off_c, 1, 50, 96
1, 21334, Note_off_c, 1, 55, 96
1, 21334, Note_off_c, 1, 59, 96
1, 21364, Note_on_c, 1, 71, 96
1, 21365, Note_off_c, 1, 71, 96
1, 21396, Note_on_c, 1, 67, 96
1, 21396, Note_on_c, 1, 38, 96
1, 21397, Note_off_c, 1, 67, 96
1, 21397, Note_off_c, 1, 38, 96
1, 21428, Note_on_c, 1, 67, 96
1, 21428, Note_on_c, 1, 73, 96
1, 21429, Note_off_c, 1, 67, 96
1, 21429, Note_off_c, 1, 73, 96
1, 21460, Note_on_c, 1, 58, 96
1, 21460, Note_on_c, 1, 46, 96
1, 21461, Note_off_c, 1, 58, 96
1, 21461, Note_off_c, 1, 46, 96
1, 21491, Note_on_c, 1, 71, 96
1, 21492, Note_off_c, 1, 71, 96
1, 21525, Note_on_c, 1, 76, 96
1, 21525, Note_on_c, 1, 62, 96
1, 21525, Note_on_c, 1, 55, 96
1, 21525, Note_on_c, 1, 58, 96
1, 21526, Note_off_c, 1, 76, 96
1, 21526, Note_off_c, 1, 62, 96
1, 21526, Note_off_c, 1, 55, 96
1, 21526, Note_off_c, 1, 58, 96
1, 21556, Note_on_c, 1, 67, 96
1, 21557, Note_off_c, 1, 67, 96
1, 21587, Note_on_c, 1, 73, 96
1, 21588, Note_off_c, 1, 73, 96
1, 21618, Note_on_c, 1, 77, 96
1, 21619, Note_off_c, 1, 77, 96
1, 21650, Note_on_c, 1, 62, 96
1, 21650, Note_on_c, 1, 58, 96
1, 21651, Note_off_c, 1, 62, 96
1, 21651, Note_off_c, 1, 58, 96
1, 21774, Note_on_c, 1, 86, 96
1, 21774, Note_on_c, 1, 74, 96
1, 21774, Note_on_c, 1, 41, 96
1, 21774, Note_on_c, 1, 53, 96
1, 21775, Note_off_c, 1, 86, 96
1, 21775, Note_off_c, 1, 74, 96
1, 21775, Note_off_c, 1, 41, 96
1, 21775, Note_off_c, 1, 53, 96
1, 21837, Note_on_c, 1, 58, 96
1, 21837, Note_on_c, 1, 62, 96
1, 21837, Note_on_c, 1, 53, 96
1, 21838, Note_off_c, 1, 58, 96
1, 21838, Note_off_c, 1, 62, 96
1, 21838, Note_off_c, 1, 53, 96
1, 22024, Note_on_c, 1, 70, 96
1, 22024, Note_on_c, 1, 82, 96
1, 22024, Note_on_c, 1, 74, 96
1, 22024, Note_on_c, 1, 77, 96
1, 22024, Note_on_c, 1, 34, 96
1, 22024, Note_on_c, 1, 46, 96
1, 22025, Note_off_c, 1, 70, 96
1, 22025, Note_off_c, 1, 82, 96
1, 22025, Note_off_c, 1, 74, 96
1, 22025, Note_off_c, 1, 77, 96
1, 22025, Note_off_c, 1, 34, 96
1, 22025, Note_off_c, 1, 46, 96
1, 22211, Note_on_c, 1, 82, 96
1, 22211, Note_on_c, 1, 70, 96
1, 22212, Note_off_c, 1, 82, 96
1, 22212, Note_off_c, 1, 70, 96
1, 22334, Note_on_c, 1, 82, 96
1, 22334, Note_on_c, 1, 91, 96
1, 22334, Note_on_c, 1, 39, 96
1, 22335, Note_off_c, 1, 82, 96
1, 22335, Note_off_c, 1, 91, 96
1, 22335, Note_off_c, 1, 39, 96
1, 22538, Note_on_c, 1, 81, 96
1, 22539, Note_off_c, 1, 81, 96
1, 22642, Note_on_c, 1, 80, 96
1, 22643, Note_off_c, 1, 80, 96
1, 22795, Note_on_c, 1, 74, 96
1, 22795, Note_on_c, 1, 82, 96
1, 22795, Note_on_c, 1, 56, 96
1, 22795, Note_on_c, 1, 58, 96
1, 22795, Note_on_c, 1, 62, 96
1, 22796, Note_off_c, 1, 74, 96
1, 22796, Note_off_c, 1, 82, 96
1, 22796, Note_off_c, 1, 56, 96
1, 22796, Note_off_c, 1, 58, 96
1, 22796, Note_off_c, 1, 62, 96
1, 22917, Note_on_c, 1, 80, 96
1, 22918, Note_off_c, 1, 80, 96
1, 22980, Note_on_c, 1, 75, 96
1, 22980, Note_on_c, 1, 43, 96
1, 22980, Note_on_c, 1, 55, 96
1, 22981, Note_off_c, 1, 75, 96
1, 22981, Note_off_c, 1, 43, 96
1, 22981, Note_off_c, 1, 55, 96
1, 23102, Note_on_c, 1, 82, 96
1, 23102, Note_on_c, 1, 91, 96
1, 23103, Note_off_c, 1, 82, 96
1, 23103, Note_off_c, 1, 91, 96
1, 23169, Note_on_c, 1, 80, 96
1, 23169, Note_on_c, 1, 92, 96
1, 23169, Note_on_c, 1, 63, 96
1, 23169, Note_on_c, 1, 72, 96
1, 23169, Note_on_c, 1, 60, 96
1, 23169, Note_on_c, 1, 57, 96
1, 23169, Note_on_c, 1, 63, 96
1, 23170, Note_off_c, 1, 80, 96
1, 23170, Note_off_c, 1, 92, 96
1, 23170, Note_off_c, 1, 63, 96
1, 23170, Note_off_c, 1, 72, 96
1, 23170, Note_off_c, 1, 60, 96
1, 23170, Note_off_c, 1, 57, 96
1, 23170, Note_off_c, 1, 63, 96
1, 23231, Note_on_c, 1, 96, 96
1, 23231, Note_on_c, 1, 84, 96
1, 23232, Note_off_c, 1, 96, 96
1, 23232, Note_off_c, 1, 84, 96
1, 23295, Note_on_c, 1, 91, 96
1, 23295, Note_on_c, 1, 55, 96
1, 23295, Note_on_c, 1, 61, 96
1, 23295, Note_on_c, 1, 57, 96
1, 23296, Note_off_c, 1, 91, 96
1, 23296, Note_off_c, 1, 55, 96
1, 23296, Note_off_c, 1, 61, 96
1, 23296, Note_off_c, 1, 57, 96
1, 23356, Note_on_c, 1, 88, 96
1, 23357, Note_off_c, 1, 88, 96
1, 23420, Note_on_c, 1, 85, 96
1, 23420, Note_on_c, 1, 58, 96
1, 23420, Note_on_c, 1, 65, 96
1, 23420, Note_on_c, 1, 61, 96
1, 23421, Note_off_c, 1, 85, 96
1, 23421, Note_off_c, 1, 58, 96
1, 23421, Note_off_c, 1, 65, 96
1, 23421, Note_off_c, 1, 61, 96
1, 23482, Note_on_c, 1, 85, 96
1, 23482, Note_on_c, 1, 73, 96
1, 23483, Note_off_c, 1, 85, 96
1, 23483, Note_off_c, 1, 73, 96
1, 23548, Note_on_c, 1, 73, 96
1, 23548, Note_on_c, 1, 85, 96
1, 23548, Note_on_c, 1, 56, 96
1, 23548, Note_on_c, 1, 77, 96
1, 23548, Note_on_c, 1, 61, 96
1, 23548, Note_on_c, 1, 51, 96
1, 23549, Note_off_c, 1, 73, 96
1, 23549, Note_off_c, 1, 85, 96
1, 23549, Note_off_c, 1, 56, 96
1, 23549, Note_off_c, 1, 77, 96
1, 23549, Note_off_c, 1, 61, 96
1, 23549, Note_off_c, 1, 51, 96
1, 23674, Note_on_c, 1, 86, 96
1, 23674, Note_on_c, 1, 80, 96
1, 23674, Note_on_c, 1, 75, 96
1, 23674, Note_on_c, 1, 72, 96
1, 23674, Note_on_c, 1, 32, 96
1, 23674, Note_on_c, 1, 44, 96
1, 23675, Note_off_c, 1, 86, 96
1, 23675, Note_off_c, 1, 80, 96
1, 23675, Note_off_c, 1, 75, 96
1, 23675, Note_off_c, 1, 72, 96
1, 23675, Note_off_c, 1, 32, 96
1, 23675, Note_off_c, 1, 44, 96
1, 23799, Note_on_c, 1, 80, 96
1, 23799, Note_on_c, 1, 73, 96
1, 23799, Note_on_c, 1, 92, 96
1, 23799, Note_on_c, 1, 59, 96
1, 23799, Note_on_c, 1, 49, 96
1, 23800, Note_off_c, 1, 80, 96
1, 23800, Note_off_c, 1, 73, 96
1, 23800, Note_off_c, 1, 92, 96
1, 23800, Note_off_c, 1, 59, 96
1, 23800, Note_off_c, 1, 49, 96
1, 24034, Note_on_c, 1, 72, 96
1, 24034, Note_on_c, 1, 84, 96
1, 24034, Note_on_c, 1, 60, 96
1, 24034, Note_on_c, 1, 48, 96
1, 24035, Note_off_c, 1, 72, 96
1, 24035, Note_off_c, 1, 84, 96
1, 24035, Note_off_c, 1, 60, 96
1, 24035, Note_off_c, 1, 48, 96
1, 24133, Note_on_c, 1, 72, 96
1, 24133, Note_on_c, 1, 75, 96
1, 24133, Note_on_c, 1, 84, 96
1, 24134, Note_off_c, 1, 72, 96
1, 24134, Note_off_c, 1, 75, 96
1, 24134, Note_off_c, 1, 84, 96
1, 24384, Note_on_c, 1, 83, 96
1, 24384, Note_on_c, 1, 72, 96
1, 24384, Note_on_c, 1, 77, 96
1, 24384, Note_on_c, 1, 56, 96
1, 24384, Note_on_c, 1, 65, 96
1, 24384, Note_on_c, 1, 59, 96
1, 24385, Note_off_c, 1, 83, 96
1, 24385, Note_off_c, 1, 72, 96
1, 24385, Note_off_c, 1, 77, 96
1, 24385, Note_off_c, 1, 56, 96
1, 24385, Note_off_c, 1, 65, 96
1, 24385, Note_off_c, 1, 59, 96
1, 24625, Note_on_c, 1, 77, 96
1, 24625, Note_on_c, 1, 81, 96
1, 24626, Note_off_c, 1, 77, 96
1, 24626, Note_off_c, 1, 81, 96
1, 24875, Note_on_c, 1, 84, 96
1, 24875, Note_on_c, 1, 80, 96
1, 24875, Note_on_c, 1, 60, 96
1, 24875, Note_on_c, 1, 56, 96
1, 24875, Note_on_c, 1, 53, 96
1, 24876, Note_off_c, 1, 84, 96
1, 24876, Note_off_c, 1, 80, 96
1, 24876, Note_off_c, 1, 60, 96
1, 24876, Note_off_c, 1, 56, 96
1, 24876, Note_off_c, 1, 53, 96
1, 25071, Note_on_c, 1, 66, 96
1, 25072, Note_off_c, 1, 66, 96
1, 25264, Note_on_c, 1, 70, 96
1, 25264, Note_on_c, 1, 63, 96
1, 25264, Note_on_c, 1, 58, 96
1, 25264, Note_on_c, 1, 55, 96
1, 25265, Note_off_c, 1, 70, 96
1, 25265, Note_off_c, 1, 63, 96
1, 25265, Note_off_c, 1, 58, 96
1, 25265, Note_off_c, 1, 55, 96
1, 25509, Note_on_c, 1, 77, 96
1, 25509, Note_on_c, 1, 74, 96
1, 25509, Note_on_c, 1, 68, 96
1, 25510, Note_off_c, 1, 77, 96
1, 25510, Note_off_c, 1, 74, 96
1, 25510, Note_off_c, 1, 68, 96
1, 25757, Note_on_c, 1, 39, 96
1, 25757, Note_on_c, 1, 51, 96
1, 25758, Note_off_c, 1, 39, 96
1, 25758, Note_off_c, 1, 51, 96
1, 26000, Note_on_c, 1, 72, 96
1, 26000, Note_on_c, 1, 68, 96
1, 26001, Note_off_c, 1, 72, 96
1, 26001, Note_off_c, 1, 68, 96
1, 26249, Note_on_c, 1, 73, 96
1, 26249, Note_on_c, 1, 66, 96
1, 26249, Note_on_c, 1, 77, 96
1, 26249, Note_on_c, 1, 59, 96
1, 26249, Note_on_c, 1, 47, 96
1, 26250, Note_off_c, 1, 73, 96
1, 26250, Note_off_c, 1, 66, 96
1, 26250, Note_off_c, 1, 77, 96
1, 26250, Note_off_c, 1, 59, 96
1, 26250, Note_off_c, 1, 47, 96
1, 26492, Note_on_c, 1, 73, 96
1, 26492, Note_on_c, 1, 69, 96
1, 26492, Note_on_c, 1, 65, 96
1, 26492, Note_on_c, 1, 56, 96
1, 26492, Note_on_c, 1, 56, 96
1, 26492, Note_on_c, 1, 61, 96
1, 26493, Note_off_c, 1, 73, 96
1, 26493, Note_off_c, 1, 69, 96
1, 26493, Note_off_c, 1, 65, 96
1, 26493, Note_off_c, 1, 56, 96
1, 26493, Note_off_c, 1, 56, 96
1, 26493, Note_off_c, 1, 61, 96
1, 26768, Note_on_c, 1, 75, 96
1, 26768, Note_on_c, 1, 80, 96
1, 26768, Note_on_c, 1, 72, 96
1, 26769, Note_off_c, 1, 75, 96
1, 26769, Note_off_c, 1, 80, 96
1, 26769, Note_off_c, 1, 72, 96
1, 26834, Note_on_c, 1, 72, 96
1, 26834, Note_on_c, 1, 84, 96
1, 26834, Note_on_c, 1, 77, 96
1, 26834, Note_on_c, 1, 79, 96
1, 26834, Note_on_c, 1, 40, 96
1, 26834, Note_on_c, 1, 52, 96
1, 26835, Note_off_c, 1, 72, 96
1, 26835, Note_off_c, 1, 84, 96
1, 26835, Note_off_c, 1, 77, 96
1, 26835, Note_off_c, 1, 79, 96
1, 26835, Note_off_c, 1, 40, 96
1, 26835, Note_off_c, 1, 52, 96
1, 27081, Note_on_c, 1, 80, 96
1, 27081, Note_on_c, 1, 64, 96
1, 27081, Note_on_c, 1, 60, 96
1, 27081, Note_on_c, 1, 56, 96
1, 27082, Note_off_c, 1, 80, 96
1, 27082, Note_off_c, 1, 64, 96
1, 27082, Note_off_c, 1, 60, 96
1, 27082, Note_off_c, 1, 56, 96
1, 27143, Note_on_c, 1, 82, 96
1, 27143, Note_on_c, 1, 90, 96
1, 27144, Note_off_c, 1, 82, 96
1, 27144, Note_off_c, 1, 90, 96
1, 27205, Note_on_c, 1, 39, 96
1, 27205, Note_on_c, 1, 51, 96
1, 27206, Note_off_c, 1, 39, 96
1, 27206, Note_off_c, 1, 51, 96
1, 27267, Note_on_c, 1, 82, 96
1, 27267, Note_on_c, 1, 87, 96
1, 27268, Note_off_c, 1, 82, 96
1, 27268, Note_off_c, 1, 87, 96
1, 27330, Note_on_c, 1, 82, 96
1, 27330, Note_on_c, 1, 91, 96
1, 27330, Note_on_c, 1, 79, 96
1, 27331, Note_off_c, 1, 82, 96
1, 27331, Note_off_c, 1, 91, 96
1, 27331, Note_off_c, 1, 79, 96
1, 27391, Note_on_c, 1, 70, 96
1, 27392, Note_off_c, 1, 70, 96
1, 27455, Note_on_c, 1, 50, 96
1, 27455, Note_on_c, 1, 62, 96
1, 27455, Note_on_c, 1, 84, 96
1, 27455, Note_on_c, 1, 82, 96
1, 27456, Note_off_c, 1, 50, 96
1, 27456, Note_off_c, 1, 62, 96
1, 27456, Note_off_c, 1, 84, 96
1, 27456, Note_off_c, 1, 82, 96
1, 27580, Note_on_c, 1, 87, 96
1, 27580, Note_on_c, 1, 75, 96
1, 27580, Note_on_c, 1, 80, 96
1, 27580, Note_on_c, 1, 42, 96
1, 27580, Note_on_c, 1, 54, 96
1, 27581, Note_off_c, 1, 87, 96
1, 27581, Note_off_c, 1, 75, 96
1, 27581, Note_off_c, 1, 80, 96
1, 27581, Note_off_c, 1, 42, 96
1, 27581, Note_off_c, 1, 54, 96
1, 27642, Note_on_c, 1, 82, 96
1, 27642, Note_on_c, 1, 78, 96
1, 27643, Note_off_c, 1, 82, 96
1, 27643, Note_off_c, 1, 78, 96
1, 27707, Note_on_c, 1, 70, 96
1, 27707, Note_on_c, 1, 82, 96
1, 27707, Note_on_c, 1, 64, 96
1, 27707, Note_on_c, 1, 61, 96
1, 27707, Note_on_c, 1, 54, 96
1, 27708, Note_off_c, 1, 70, 96
1, 27708, Note_off_c, 1, 82, 96
1, 27708, Note_off_c, 1, 64, 96
1, 27708, Note_off_c, 1, 61, 96
1, 27708, Note_off_c, 1, 54, 96
1, 27768, Note_on_c, 1, 78, 96
1, 27769, Note_off_c, 1, 78, 96
1, 27832, Note_on_c, 1, 85, 96
1, 27832, Note_on_c, 1, 73, 96
1, 27832, Note_on_c, 1, 76, 96
1, 27832, Note_on_c, 1, 48, 96
1, 27833, Note_off_c, 1, 85, 96
1, 27833, Note_off_c, 1, 73, 96
1, 27833, Note_off_c, 1, 76, 96
1, 27833, Note_off_c, 1, 48, 96
1, 27894, Note_on_c, 1, 71, 96
1, 27894, Note_on_c, 1, 78, 96
1, 27895, Note_off_c, 1, 71, 96
1, 27895, Note_off_c, 1, 78, 96
1, 27958, Note_on_c, 1, 64, 96
1, 27958, Note_on_c, 1, 61, 96
1, 27958, Note_on_c, 1, 55, 96
1, 27958, Note_on_c, 1, 69, 96
1, 27959, Note_off_c, 1, 64, 96
1, 27959, Note_off_c, 1, 61, 96
1, 27959, Note_off_c, 1, 55, 96
1, 27959, Note_off_c, 1, 69, 96
1, 28019, Note_on_c, 1, 76, 96
1, 28020, Note_off_c, 1, 76, 96
1, 28082, Note_on_c, 1, 77, 96
1, 28082, Note_on_c, 1, 87, 96
1, 28082, Note_on_c, 1, 60, 96
1, 28083, Note_off_c, 1, 77, 96
1, 28083, Note_off_c, 1, 87, 96
1, 28083, Note_off_c, 1, 60, 96
1, 28205, Note_on_c, 1, 56, 96
1, 28205, Note_on_c, 1, 85, 96
1, 28205, Note_on_c, 1, 44, 96
1, 28206, Note_off_c, 1, 56, 96
1, 28206, Note_off_c, 1, 85, 96
1, 28206, Note_off_c, 1, 44, 96
1, 28331, Note_on_c, 1, 85, 96
1, 28331, Note_on_c, 1, 73, 96
1, 28331, Note_on_c, 1, 82, 96
1, 28331, Note_on_c, 1, 54, 96
1, 28331, Note_on_c, 1, 61, 96
1, 28331, Note_on_c, 1, 58, 96
1, 28332, Note_off_c, 1, 85, 96
1, 28332, Note_off_c, 1, 73, 96
1, 28332, Note_off_c, 1, 82, 96
1, 28332, Note_off_c, 1, 54, 96
1, 28332, Note_off_c, 1, 61, 96
1, 28332, Note_off_c, 1, 58, 96
1, 28453, Note_on_c, 1, 63, 96
1, 28453, Note_on_c, 1, 51, 96
1, 28454, Note_off_c, 1, 63, 96
1, 28454, Note_off_c, 1, 51, 96
1, 28577, Note_on_c, 1, 89, 96
1, 28577, Note_on_c, 1, 53, 96
1, 28577, Note_on_c, 1, 72, 96
1, 28577, Note_on_c, 1, 60, 96
1, 28578, Note_off_c, 1, 89, 96
1, 28578, Note_off_c, 1, 53, 96
1, 28578, Note_off_c, 1, 72, 96
1, 28578, Note_off_c, 1, 60, 96
1, 28707, Note_on_c, 1, 94, 96
1, 28707, Note_on_c, 1, 87, 96
1, 28707, Note_on_c, 1, 66, 96
1, 28707, Note_on_c, 1, 63, 96
1, 28707, Note_on_c, 1, 60, 96
1, 28707, Note_on_c, 1, 68, 96
1, 28707, Note_on_c, 1, 80, 96
1, 28707, Note_on_c, 1, 78, 96
1, 28707, Note_on_c, 1, 39, 96
1, 28707, Note_on_c, 1, 80, 96
1, 28708, Note_off_c, 1, 94, 96
1, 28708, Note_off_c, 1, 87, 96
1, 28708, Note_off_c, 1, 66, 96
1, 28708, Note_off_c, 1, 63, 96
1, 28708, Note_off_c, 1, 60, 96
1, 28708, Note_off_c, 1, 68, 96
1, 28708, Note_off_c, 1, 80, 96
1, 28708, Note_off_c, 1, 78, 96
1, 28708, Note_off_c, 1, 39, 96
1, 28708, Note_off_c, 1, 80, 96
1, 28834, Note_on_c, 1, 75, 96
1, 28834, Note_on_c, 1, 84, 96
1, 28834, Note_on_c, 1, 72, 96
1, 28834, Note_on_c, 1, 67, 96
1, 28834, Note_on_c, 1, 63, 96
1, 28834, Note_on_c, 1, 60, 96
1, 28835, Note_off_c, 1, 75, 96
1, 28835, Note_off_c, 1, 84, 96
1, 28835, Note_off_c, 1, 72, 96
1, 28835, Note_off_c, 1, 67, 96
1, 28835, Note_off_c, 1, 63, 96
1, 28835, Note_off_c, 1, 60, 96
1, 28959, Note_on_c, 1, 89, 96
1, 28959, Note_on_c, 1, 82, 96
1, 28959, Note_on_c, 1, 77, 96
1, 28959, Note_on_c, 1, 44, 96
1, 28959, Note_on_c, 1, 56, 96
1, 28960, Note_off_c, 1, 89, 96
1, 28960, Note_off_c, 1, 82, 96
1, 28960, Note_off_c, 1, 77, 96
1, 28960, Note_off_c, 1, 44, 96
1, 28960, Note_off_c, 1, 56, 96
1, 29085, Note_on_c, 1, 82, 96
1, 29085, Note_on_c, 1, 87, 96
1, 29085, Note_on_c, 1, 75, 96
1, 29085, Note_on_c, 1, 56, 96
1, 29085, Note_on_c, 1, 60, 96
1, 29085, Note_on_c, 1, 51, 96
1, 29086, Note_off_c, 1, 82, 96
1, 29086, Note_off_c, 1, 87, 96
1, 29086, Note_off_c, 1, 75, 96
1, 29086, Note_off_c, 1, 56, 96
1, 29086, Note_off_c, 1, 60, 96
1, 29086, Note_off_c, 1, 51, 96
1, 29328, Note_on_c, 1, 44, 96
1, 29328, Note_on_c, 1, 56, 96
1, 29329, Note_off_c, 1, 44, 96
1, 29329, Note_off_c, 1, 56, 96
1, 29390, Note_on_c, 1, 84, 96
1, 29390, Note_on_c, 1, 72, 96
1, 29391, Note_off_c, 1, 84, 96
1, 29391, Note_off_c, 1, 72, 96
1, 29454, Note_on_c, 1, 72, 96
1, 29454, Note_on_c, 1, 84, 96
1, 29454, Note_on_c, 1, 39, 96
1, 29454, Note_on_c, 1, 51, 96
1, 29455, Note_off_c, 1, 72, 96
1, 29455, Note_off_c, 1, 84, 96
1, 29455, Note_off_c, 1, 39, 96
1, 29455, Note_off_c, 1, 51, 96
1, 29515, Note_on_c, 1, 87, 96
1, 29516, Note_off_c, 1, 87, 96
1, 29580, Note_on_c, 1, 92, 96
1, 29580, Note_on_c, 1, 80, 96
1, 29580, Note_on_c, 1, 84, 96
1, 29580, Note_on_c, 1, 48, 96
1, 29580, Note_on_c, 1, 60, 96
1, 29581, Note_off_c, 1, 92, 96
1, 29581, Note_off_c, 1, 80, 96
1, 29581, Note_off_c, 1, 84, 96
1, 29581, Note_off_c, 1, 48, 96
1, 29581, Note_off_c, 1, 60, 96
1, 29702, Note_on_c, 1, 80, 96
1, 29702, Note_on_c, 1, 77, 96
1, 29703, Note_off_c, 1, 80, 96
1, 29703, Note_off_c, 1, 77, 96
1, 29764, Note_on_c, 1, 32, 96
1, 29764, Note_on_c, 1, 44, 96
1, 29765, Note_off_c, 1, 32, 96
1, 29765, Note_off_c, 1, 44, 96
1, 29827, Note_on_c, 1, 80, 96
1, 29827, Note_on_c, 1, 88, 96
1, 29827, Note_on_c, 1, 76, 96
1, 29828, Note_off_c, 1, 80, 96
1, 29828, Note_off_c, 1, 88, 96
1, 29828, Note_off_c, 1, 76, 96
1, 29949, Note_on_c, 1, 44, 96
1, 29949, Note_on_c, 1, 56, 96
1, 29950, Note_off_c, 1, 44, 96
1, 29950, Note_off_c, 1, 56, 96
1, 30193, Note_on_c, 1, 43, 96
1, 30194, Note_off_c, 1, 43, 96
1, 30496, Note_on_c, 1, 91, 96
1, 30496, Note_on_c, 1, 81, 96
1, 30496, Note_on_c, 1, 86, 96
1, 30497, Note_off_c, 1, 91, 96
1, 30497, Note_off_c, 1, 81, 96
1, 30497, Note_off_c, 1, 86, 96
1, 30753, Note_on_c, 1, 64, 96
1, 30753, Note_on_c, 1, 60, 96
1, 30753, Note_on_c, 1, 55, 96
1, 30753, Note_on_c, 1, 58, 96
1, 30754, Note_off_c, 1, 64, 96
1, 30754, Note_off_c, 1, 60, 96
1, 30754, Note_off_c, 1, 55, 96
1, 30754, Note_off_c, 1, 58, 96
1, 31108, Note_on_c, 1, 70, 96
1, 31108, Note_on_c, 1, 55, 96
1, 31108, Note_on_c, 1, 43, 96
1, 31109, Note_off_c, 1, 70, 96
1, 31109, Note_off_c, 1, 55, 96
1, 31109, Note_off_c, 1, 43, 96
1, 31169, Note_on_c, 1, 65, 96
1, 31170, Note_off_c, 1, 65, 96
1, 31293, Note_on_c, 1, 69, 96
1, 31293, Note_on_c, 1, 65, 96
1, 31293, Note_on_c, 1, 60, 96
1, 31293, Note_on_c, 1, 57, 96
1, 31294, Note_off_c, 1, 69, 96
1, 31294, Note_off_c, 1, 65, 96
1, 31294, Note_off_c, 1, 60, 96
1, 31294, Note_off_c, 1, 57, 96
1, 31354, Note_on_c, 1, 74, 96
1, 31355, Note_off_c, 1, 74, 96
1, 31416, Note_on_c, 1, 53, 96
1, 31416, Note_on_c, 1, 41, 96
1, 31417, Note_off_c, 1, 53, 96
1, 31417, Note_off_c, 1, 41, 96
1, 31447, Note_on_c, 1, 69, 96
1, 31448, Note_off_c, 1, 69, 96
1, 31478, Note_on_c, 1, 41, 96
1, 31478, Note_on_c, 1, 52, 96
1, 31479, Note_off_c, 1, 41, 96
1, 31479, Note_off_c, 1, 52, 96
1, 31509, Note_on_c, 1, 69, 96
1, 31510, Note_off_c, 1, 69, 96
1, 31542, Note_on_c, 1, 65, 96
1, 31542, Note_on_c, 1, 53, 96
1, 31542, Note_on_c, 1, 57, 96
1, 31543, Note_off_c, 1, 65, 96
1, 31543, Note_off_c, 1, 53, 96
1, 31543, Note_off_c, 1, 57, 96
1, 31573, Note_on_c, 1, 72, 96
1, 31574, Note_off_c, 1, 72, 96
1, 31607, Note_on_c, 1, 62, 96
1, 31607, Note_on_c, 1, 67, 96
1, 31607, Note_on_c, 1, 58, 96
1, 31607, Note_on_c, 1, 55, 96
1, 31608, Note_off_c, 1, 62, 96
1, 31608, Note_off_c, 1, 67, 96
1, 31608, Note_off_c, 1, 58, 96
1, 31608, Note_off_c, 1, 55, 96
1, 31670, Note_on_c, 1, 58, 96
1, 31670, Note_on_c, 1, 55, 96
1, 31670, Note_on_c, 1, 62, 96
1, 31671, Note_off_c, 1, 58, 96
1, 31671, Note_off_c, 1, 55, 96
1, 31671, Note_off_c, 1, 62, 96
1, 31734, Note_on_c, 1, 64, 96
1, 31734, Note_on_c, 1, 70, 96
1, 31734, Note_on_c, 1, 52, 96
1, 31734, Note_on_c, 1, 40, 96
1, 31735, Note_off_c, 1, 64, 96
1, 31735, Note_off_c, 1, 70, 96
1, 31735, Note_off_c, 1, 52, 96
1, 31735, Note_off_c, 1, 40, 96
1, 31766, Note_on_c, 1, 74, 96
1, 31767, Note_off_c, 1, 74, 96
1, 31799, Note_on_c, 1, 69, 96
1, 31799, Note_on_c, 1, 54, 96
1, 31799, Note_on_c, 1, 60, 96
1, 31799, Note_on_c, 1, 50, 96
1, 31800, Note_off_c, 1, 69, 96
1, 31800, Note_off_c, 1, 54, 96
1, 31800, Note_off_c, 1, 60, 96
1, 31800, Note_off_c, 1, 50, 96
1, 31830, Note_on_c, 1, 70, 96
1, 31831, Note_off_c, 1, 70, 96
1, 31863, Note_on_c, 1, 70, 96
1, 31863, Note_on_c, 1, 43, 96
1, 31863, Note_on_c, 1, 55, 96
1, 31864, Note_off_c, 1, 70, 96
1, 31864, Note_off_c, 1, 43, 96
1, 31864, Note_off_c, 1, 55, 96
1, 31924, Note_on_c, 1, 45, 96
1, 31925, Note_off_c, 1, 45, 96
1, 31986, Note_on_c, 1, 47, 96
1, 31986, Note_on_c, 1, 59, 96
1, 31987, Note_off_c, 1, 47, 96
1, 31987, Note_off_c, 1, 59, 96
1, 32018, Note_on_c, 1, 76, 96
1, 32018, Note_on_c, 1, 67, 96
1, 32019, Note_off_c, 1, 76, 96
1, 32019, Note_off_c, 1, 67, 96
1, 32050, Note_on_c, 1, 57, 96
1, 32050, Note_on_c, 1, 45, 96
1, 32051, Note_off_c, 1, 57, 96
1, 32051, Note_off_c, 1, 45, 96
1, 32112, Note_on_c, 1, 73, 96
1, 32112, Note_on_c, 1, 67, 96
1, 32113, Note_off_c, 1, 73, 96
1, 32113, Note_off_c, 1, 67, 96
1, 32143, Note_on_c, 1, 74, 96
1, 32144, Note_off_c, 1, 74, 96
1, 32178, Note_on_c, 1, 81, 96
1, 32178, Note_on_c, 1, 73, 96
1, 32178, Note_on_c, 1, 69, 96
1, 32178, Note_on_c, 1, 40, 96
1, 32178, Note_on_c, 1, 52, 96
1, 32179, Note_off_c, 1, 81, 96
1, 32179, Note_off_c, 1, 73, 96
1, 32179, Note_off_c, 1, 69, 96
1, 32179, Note_off_c, 1, 40, 96
1, 32179, Note_off_c, 1, 52, 96
1, 32241, Note_on_c, 1, 76, 96
1, 32241, Note_on_c, 1, 79, 96
1, 32241, Note_on_c, 1, 52, 96
1, 32242, Note_off_c, 1, 76, 96
1, 32242, Note_off_c, 1, 79, 96
1, 32242, Note_off_c, 1, 52, 96
1, 32305, Note_on_c, 1, 74, 96
1, 32305, Note_on_c, 1, 55, 96
1, 32305, Note_on_c, 1, 53, 96
1, 32305, Note_on_c, 1, 59, 96
1, 32306, Note_off_c, 1, 74, 96
1, 32306, Note_off_c, 1, 55, 96
1, 32306, Note_off_c, 1, 53, 96
1, 32306, Note_off_c, 1, 59, 96
1, 32368, Note_on_c, 1, 76, 96
1, 32368, Note_on_c, 1, 48, 96
1, 32368, Note_on_c, 1, 60, 96
1, 32369, Note_off_c, 1, 76, 96
1, 32369, Note_off_c, 1, 48, 96
1, 32369, Note_off_c, 1, 60, 96
1, 32401, Note_on_c, 1, 77, 96
1, 32401, Note_on_c, 1, 75, 96
1, 32401, Note_on_c, 1, 67, 96
1, 32402, Note_off_c, 1, 77, 96
1, 32402, Note_off_c, 1, 75, 96
1, 32402, Note_off_c, 1, 67, 96
1, 32435, Note_on_c, 1, 83, 96
1, 32435, Note_on_c, 1, 71, 96
1, 32435, Note_on_c, 1, 59, 96
1, 32435, Note_on_c, 1, 47, 96
1, 32436, Note_off_c, 1, 83, 96
1, 32436, Note_off_c, 1, 71, 96
1, 32436, Note_off_c, 1, 59, 96
1, 32436, Note_off_c, 1, 47, 96
1, 32466, Note_on_c, 1, 78, 96
1, 32467, Note_off_c, 1, 78, 96
1, 32500, Note_on_c, 1, 79, 96
1, 32500, Note_on_c, 1, 73, 96
1, 32500, Note_on_c, 1, 52, 96
1, 32500, Note_on_c, 1, 40, 96
1, 32501, Note_off_c, 1, 79, 96
1, 32501, Note_off_c, 1, 73, 96
1, 32501, Note_off_c, 1, 52, 96
1, 32501, Note_off_c, 1, 40, 96
1, 32562, Note_on_c, 1, 50, 96
1, 32562, Note_on_c, 1, 62, 96
1, 32563, Note_off_c, 1, 50, 96
1, 32563, Note_off_c, 1, 62, 96
1, 32593, Note_on_c, 1, 79, 96
1, 32594, Note_off_c, 1, 79, 96
1, 32627, Note_on_c, 1, 77, 96
1, 32627, Note_on_c, 1, 65, 96
1, 32627, Note_on_c, 1, 59, 96
1, 32627, Note_on_c, 1, 55, 96
1, 32628, Note_off_c, 1, 77, 96
1, 32628, Note_off_c, 1, 65, 96
1, 32628, Note_off_c, 1, 59, 96
1, 32628, Note_off_c, 1, 55, 96
1, 32658, Note_on_c, 1, 67, 96
1, 32659, Note_off_c, 1, 67, 96
1, 32692, Note_on_c, 1, 65, 96
1, 32692, Note_on_c, 1, 69, 96
1, 32692, Note_on_c, 1, 55, 96
1, 32692, Note_on_c, 1, 59, 96
1, 32693, Note_off_c, 1, 65, 96
1, 32693, Note_off_c, 1, 69, 96
1, 32693, Note_off_c, 1, 55, 96
1, 32693, Note_off_c, 1, 59, 96
1, 32724, Note_on_c, 1, 65, 96
1, 32724, Note_on_c, 1, 74, 96
1, 32725, Note_off_c, 1, 65, 96
1, 32725, Note_off_c, 1, 74, 96
1, 32757, Note_on_c, 1, 59, 96
1, 32757, Note_on_c, 1, 55, 96
1, 32757, Note_on_c, 1, 62, 96
1, 32758, Note_off_c, 1, 59, 96
1, 32758, Note_off_c, 1, 55, 96
1, 32758, Note_off_c, 1, 62, 96
1, 32818, Note_on_c, 1, 71, 96
1, 32819, Note_off_c, 1, 71, 96
1, 32850, Note_on_c, 1, 69, 96
1, 32850, Note_on_c, 1, 48, 96
1, 32851, Note_off_c, 1, 69, 96
1, 32851, Note_off_c, 1, 48, 96
1, 32882, Note_on_c, 1, 74, 96
1, 32882, Note_on_c, 1, 62, 96
1, 32883, Note_off_c, 1, 74, 96
1, 32883, Note_off_c, 1, 62, 96
1, 32916, Note_on_c, 1, 79, 96
1, 32916, Note_on_c, 1, 67, 96
1, 32916, Note_on_c, 1, 55, 96
1, 32916, Note_on_c, 1, 43, 96
1, 32917, Note_off_c, 1, 79, 96
1, 32917, Note_off_c, 1, 67, 96
1, 32917, Note_off_c, 1, 55, 96
1, 32917, Note_off_c, 1, 43, 96
1, 32947, Note_on_c, 1, 79, 96
1, 32948, Note_off_c, 1, 79, 96
1, 32981, Note_on_c, 1, 77, 96
1, 32981, Note_on_c, 1, 62, 96
1, 32981, Note_on_c, 1, 55, 96
1, 32981, Note_on_c, 1, 65, 96
1, 32982, Note_off_c, 1, 77, 96
1, 32982, Note_off_c, 1, 62, 96
1, 32982, Note_off_c, 1, 55, 96
1, 32982, Note_off_c, 1, 65, 96
1, 33012, Note_on_c, 1, 74, 96
1, 33013, Note_off_c, 1, 74, 96
1, 33046, Note_on_c, 1, 79, 96
1, 33046, Note_on_c, 1, 65, 96
1, 33046, Note_on_c, 1, 59, 96
1, 33046, Note_on_c, 1, 62, 96
1, 33047, Note_off_c, 1, 79, 96
1, 33047, Note_off_c, 1, 65, 96
1, 33047, Note_off_c, 1, 59, 96
1, 33047, Note_off_c, 1, 62, 96
1, 33111, Note_on_c, 1, 69, 96
1, 33111, Note_on_c, 1, 75, 96
1, 33111, Note_on_c, 1, 63, 96
1, 33111, Note_on_c, 1, 55, 96
1, 33111, Note_on_c, 1, 59, 96
1, 33112, Note_off_c, 1, 69, 96
1, 33112, Note_off_c, 1, 75, 96
1, 33112, Note_off_c, 1, 63, 96
1, 33112, Note_off_c, 1, 55, 96
1, 33112, Note_off_c, 1, 59, 96
1, 33172, Note_on_c, 1, 50, 96
1, 33173, Note_off_c, 1, 50, 96
1, 33204, Note_on_c, 1, 66, 96
1, 33204, Note_on_c, 1, 52, 96
1, 33205, Note_off_c, 1, 66, 96
1, 33205, Note_off_c, 1, 52, 96
1, 33235, Note_on_c, 1, 78, 96
1, 33236, Note_off_c, 1, 78, 96
1, 33269, Note_on_c, 1, 79, 96
1, 33269, Note_on_c, 1, 52, 96
1, 33269, Note_on_c, 1, 56, 96
1, 33269, Note_on_c, 1, 59, 96
1, 33270, Note_off_c, 1, 79, 96
1, 33270, Note_off_c, 1, 52, 96
1, 33270, Note_off_c, 1, 56, 96
1, 33270, Note_off_c, 1, 59, 96
1, 33300, Note_on_c, 1, 71, 96
1, 33301, Note_off_c, 1, 71, 96
1, 33331, Note_on_c, 1, 43, 96
1, 33332, Note_off_c, 1, 43, 96
1, 33362, Note_on_c, 1, 76, 96
1, 33363, Note_off_c, 1, 76, 96
1, 33396, Note_on_c, 1, 77, 96
1, 33396, Note_on_c, 1, 59, 96
1, 33396, Note_on_c, 1, 55, 96
1, 33396, Note_on_c, 1, 62, 96
1, 33397, Note_off_c, 1, 77, 96
1, 33397, Note_off_c, 1, 59, 96
1, 33397, Note_off_c, 1, 55, 96
1, 33397, Note_off_c, 1, 62, 96
1, 33459, Note_on_c, 1, 72, 96
1, 33459, Note_on_c, 1, 60, 96
1, 33459, Note_on_c, 1, 48, 96
1, 33460, Note_off_c, 1, 72, 96
1, 33460, Note_off_c, 1, 60, 96
1, 33460, Note_off_c, 1, 48, 96
1, 33521, Note_on_c, 1, 55, 96
1, 33521, Note_on_c, 1, 43, 96
1, 33522, Note_off_c, 1, 55, 96
1, 33522, Note_off_c, 1, 43, 96
1, 33554, Note_on_c, 1, 72, 96
1, 33554, Note_on_c, 1, 63, 96
1, 33554, Note_on_c, 1, 69, 96
1, 33555, Note_off_c, 1, 72, 96
1, 33555, Note_off_c, 1, 63, 96
1, 33555, Note_off_c, 1, 69, 96
1, 33586, Note_on_c, 1, 60, 96
1, 33586, Note_on_c, 1, 48, 96
1, 33587, Note_off_c, 1, 60, 96
1, 33587, Note_off_c, 1, 48, 96
1, 33618, Note_on_c, 1, 69, 96
1, 33618, Note_on_c, 1, 75, 96
1, 33619, Note_off_c, 1, 69, 96
1, 33619, Note_off_c, 1, 75, 96
1, 33649, Note_on_c, 1, 45, 96
1, 33650, Note_off_c, 1, 45, 96
1, 33680, Note_on_c, 1, 72, 96
1, 33681, Note_off_c, 1, 72, 96
1, 33713, Note_on_c, 1, 77, 96
1, 33713, Note_on_c, 1, 35, 96
1, 33713, Note_on_c, 1, 47, 96
1, 33714, Note_off_c, 1, 77, 96
1, 33714, Note_off_c, 1, 35, 96
1, 33714, Note_off_c, 1, 47, 96
1, 33744, Note_on_c, 1, 76, 96
1, 33745, Note_off_c, 1, 76, 96
1, 33778, Note_on_c, 1, 70, 96
1, 33778, Note_on_c, 1, 50, 96
1, 33778, Note_on_c, 1, 55, 96
1, 33778, Note_on_c, 1, 59, 96
1, 33779, Note_off_c, 1, 70, 96
1, 33779, Note_off_c, 1, 50, 96
1, 33779, Note_off_c, 1, 55, 96
1, 33779, Note_off_c, 1, 59, 96
1, 33843, Note_on_c, 1, 79, 96
1, 33843, Note_on_c, 1, 67, 96
1, 33843, Note_on_c, 1, 55, 96
1, 33843, Note_on_c, 1, 62, 96
1, 33843, Note_on_c, 1, 59, 96
1, 33844, Note_off_c, 1, 79, 96
1, 33844, Note_off_c, 1, 67, 96
1, 33844, Note_off_c, 1, 55, 96
1, 33844, Note_off_c, 1, 62, 96
1, 33844, Note_off_c, 1, 59, 96
1, 33907, Note_on_c, 1, 79, 96
1, 33907, Note_on_c, 1, 67, 96
1, 33907, Note_on_c, 1, 55, 96
1, 33907, Note_on_c, 1, 43, 96
1, 33908, Note_off_c, 1, 79, 96
1, 33908, Note_off_c, 1, 67, 96
1, 33908, Note_off_c, 1, 55, 96
1, 33908, Note_off_c, 1, 43, 96
1, 33970, Note_on_c, 1, 67, 96
1, 33970, Note_on_c, 1, 60, 96
1, 33970, Note_on_c, 1, 64, 96
1, 33971, Note_off_c, 1, 67, 96
1, 33971, Note_off_c, 1, 60, 96
1, 33971, Note_off_c, 1, 64, 96
1, 34093, Note_on_c, 1, 76, 96
1, 34093, Note_on_c, 1, 64, 96
1, 34093, Note_on_c, 1, 60, 96
1, 34093, Note_on_c, 1, 55, 96
1, 34094, Note_off_c, 1, 76, 96
1, 34094, Note_off_c, 1, 64, 96
1, 34094, Note_off_c, 1, 60, 96
1, 34094, Note_off_c, 1, 55, 96
1, 34155, Note_on_c, 1, 48, 96
1, 34155, Note_on_c, 1, 60, 96
1, 34156, Note_off_c, 1, 48, 96
1, 34156, Note_off_c, 1, 60, 96
1, 34217, Note_on_c, 1, 55, 96
1, 34217, Note_on_c, 1, 43, 96
1, 34218, Note_off_c, 1, 55, 96
1, 34218, Note_off_c, 1, 43, 96
1, 34282, Note_on_c, 1, 79, 96
1, 34282, Note_on_c, 1, 72, 96
1, 34282, Note_on_c, 1, 76, 96
1, 34282, Note_on_c, 1, 52, 96
1, 34282, Note_on_c, 1, 40, 96
1, 34283, Note_off_c, 1, 79, 96
1, 34283, Note_off_c, 1, 72, 96
1, 34283, Note_off_c, 1, 76, 96
1, 34283, Note_off_c, 1, 52, 96
1, 34283, Note_off_c, 1, 40, 96
1, 34347, Note_on_c, 1, 79, 96
1, 34347, Note_on_c, 1, 67, 96
1, 34347, Note_on_c, 1, 60, 96
1, 34347, Note_on_c, 1, 55, 96
1, 34347, Note_on_c, 1, 64, 96
1, 34348, Note_off_c, 1, 79, 96
1, 34348, Note_off_c, 1, 67, 96
1, 34348, Note_off_c, 1, 60, 96
1, 34348, Note_off_c, 1, 55, 96
1, 34348, Note_off_c, 1, 64, 96
1, 34379, Note_on_c, 1, 71, 96
1, 34379, Note_on_c, 1, 79, 96
1, 34380, Note_off_c, 1, 71, 96
1, 34380, Note_off_c, 1, 79, 96
1, 34410, Note_on_c, 1, 43, 96
1, 34411, Note_off_c, 1, 43, 96
1, 34441, Note_on_c, 1, 81, 96
1, 34442, Note_off_c, 1, 81, 96
1, 34476, Note_on_c, 1, 76, 96
1, 34476, Note_on_c, 1, 83, 96
1, 34476, Note_on_c, 1, 60, 96
1, 34476, Note_on_c, 1, 54, 96
1, 34476, Note_on_c, 1, 50, 96
1, 34477, Note_off_c, 1, 76, 96
1, 34477, Note_off_c, 1, 83, 96
1, 34477, Note_off_c, 1, 60, 96
1, 34477, Note_off_c, 1, 54, 96
1, 34477, Note_off_c, 1, 50, 96
1, 34509, Note_on_c, 1, 79, 96
1, 34509, Note_on_c, 1, 71, 96
1, 34509, Note_on_c, 1, 67, 96
1, 34510, Note_off_c, 1, 79, 96
1, 34510, Note_off_c, 1, 71, 96
1, 34510, Note_off_c, 1, 67, 96
1, 34542, Note_on_c, 1, 59, 96
1, 34542, Note_on_c, 1, 65, 96
1, 34542, Note_on_c, 1, 55, 96
1, 34543, Note_off_c, 1, 59, 96
1, 34543, Note_off_c, 1, 65, 96
1, 34543, Note_off_c, 1, 55, 96
1, 34574, Note_on_c, 1, 79, 96
1, 34574, Note_on_c, 1, 83, 96
1, 34575, Note_off_c, 1, 79, 96
1, 34575, Note_off_c, 1, 83, 96
1, 34606, Note_on_c, 1, 61, 96
1, 34606, Note_on_c, 1, 49, 96
1, 34607, Note_off_c, 1, 61, 96
1, 34607, Note_off_c, 1, 49, 96
1, 34638, Note_on_c, 1, 77, 96
1, 34638, Note_on_c, 1, 81, 96
1, 34639, Note_off_c, 1, 77, 96
1, 34639, Note_off_c, 1, 81, 96
1, 34673, Note_on_c, 1, 76, 96
1, 34673, Note_on_c, 1, 64, 96
1, 34673, Note_on_c, 1, 61, 96
1, 34673, Note_on_c, 1, 57, 96
1, 34673, Note_on_c, 1, 55, 96
1, 34674, Note_off_c, 1, 76, 96
1, 34674, Note_off_c, 1, 64, 96
1, 34674, Note_off_c, 1, 61, 96
1, 34674, Note_off_c, 1, 57, 96
1, 34674, Note_off_c, 1, 55, 96
1, 34705, Note_on_c, 1, 76, 96
1, 34705, Note_on_c, 1, 66, 96
1, 34706, Note_off_c, 1, 76, 96
1, 34706, Note_off_c, 1, 66, 96
1, 34736, Note_on_c, 1, 49, 96
1, 34737, Note_off_c, 1, 49, 96
1, 34767, Note_on_c, 1, 80, 96
1, 34768, Note_off_c, 1, 80, 96
1, 34800, Note_on_c, 1, 73, 96
1, 34800, Note_on_c, 1, 45, 96
1, 34800, Note_on_c, 1, 57, 96
1, 34801, Note_off_c, 1, 73, 96
1, 34801, Note_off_c, 1, 45, 96
1, 34801, Note_off_c, 1, 57, 96
1, 34831, Note_on_c, 1, 73, 96
1, 34832, Note_off_c, 1, 73, 96
1, 34866, Note_on_c, 1, 73, 96
1, 34866, Note_on_c, 1, 69, 96
1, 34866, Note_on_c, 1, 67, 96
1, 34866, Note_on_c, 1, 61, 96
1, 34866, Note_on_c, 1, 57, 96
1, 34867, Note_off_c, 1, 73, 96
1, 34867, Note_off_c, 1, 69, 96
1, 34867, Note_off_c, 1, 67, 96
1, 34867, Note_off_c, 1, 61, 96
1, 34867, Note_off_c, 1, 57, 96
1, 34897, Note_on_c, 1, 78, 96
1, 34898, Note_off_c, 1, 78, 96
1, 34932, Note_on_c, 1, 81, 96
1, 34932, Note_on_c, 1, 61, 96
1, 34932, Note_on_c, 1, 64, 96
1, 34932, Note_on_c, 1, 55, 96
1, 34932, Note_on_c, 1, 57, 96
1, 34933, Note_off_c, 1, 81, 96
1, 34933, Note_off_c, 1, 61, 96
1, 34933, Note_off_c, 1, 64, 96
1, 34933, Note_off_c, 1, 55, 96
1, 34933, Note_off_c, 1, 57, 96
1, 34963, Note_on_c, 1, 69, 96
1, 34964, Note_off_c, 1, 69, 96
1, 34997, Note_on_c, 1, 73, 96
1, 34997, Note_on_c, 1, 69, 96
1, 34997, Note_on_c, 1, 81, 96
1, 34997, Note_on_c, 1, 76, 96
1, 34998, Note_off_c, 1, 73, 96
1, 34998, Note_off_c, 1, 69, 96
1, 34998, Note_off_c, 1, 81, 96
1, 34998, Note_off_c, 1, 76, 96
1, 35059, Note_on_c, 1, 50, 96
1, 35059, Note_on_c, 1, 62, 96
1, 35060, Note_off_c, 1, 50, 96
1, 35060, Note_off_c, 1, 62, 96
1, 35120, Note_on_c, 1, 52, 96
1, 35121, Note_off_c, 1, 52, 96
1, 35151, Note_on_c, 1, 72, 96
1, 35152, Note_off_c, 1, 72, 96
1, 35182, Note_on_c, 1, 81, 96
1, 35183, Note_off_c, 1, 81, 96
1, 35213, Note_on_c, 1, 76, 96
1, 35214, Note_off_c, 1, 76, 96
1, 35244, Note_on_c, 1, 76, 96
1, 35245, Note_off_c, 1, 76, 96
1, 35275, Note_on_c, 1, 74, 96
1, 35276, Note_off_c, 1, 74, 96
1, 35306, Note_on_c, 1, 74, 96
1, 35307, Note_off_c, 1, 74, 96
1, 35339, Note_on_c, 1, 79, 96
1, 35339, Note_on_c, 1, 50, 96
1, 35339, Note_on_c, 1, 59, 96
1, 35340, Note_off_c, 1, 79, 96
1, 35340, Note_off_c, 1, 50, 96
1, 35340, Note_off_c, 1, 59, 96
1, 35370, Note_on_c, 1, 79, 96
1, 35371, Note_off_c, 1, 79, 96
1, 35403, Note_on_c, 1, 81, 96
1, 35403, Note_on_c, 1, 62, 96
1, 35403, Note_on_c, 1, 50, 96
1, 35404, Note_off_c, 1, 81, 96
1, 35404, Note_off_c, 1, 62, 96
1, 35404, Note_off_c, 1, 50, 96
1, 35434, Note_on_c, 1, 86, 96
1, 35435, Note_off_c, 1, 86, 96
1, 35469, Note_on_c, 1, 83, 96
1, 35469, Note_on_c, 1, 74, 96
1, 35469, Note_on_c, 1, 64, 96
1, 35469, Note_on_c, 1, 59, 96
1, 35469, Note_on_c, 1, 56, 96
1, 35470, Note_off_c, 1, 83, 96
1, 35470, Note_off_c, 1, 74, 96
1, 35470, Note_off_c, 1, 64, 96
1, 35470, Note_off_c, 1, 59, 96
1, 35470, Note_off_c, 1, 56, 96
1, 35501, Note_on_c, 1, 81, 96
1, 35501, Note_on_c, 1, 88, 96
1, 35502, Note_off_c, 1, 81, 96
1, 35502, Note_off_c, 1, 88, 96
1, 35536, Note_on_c, 1, 81, 96
1, 35536, Note_on_c, 1, 76, 96
1, 35536, Note_on_c, 1, 55, 96
1, 35536, Note_on_c, 1, 60, 96
1, 35536, Note_on_c, 1, 64, 96
1, 35537, Note_off_c, 1, 81, 96
1, 35537, Note_off_c, 1, 76, 96
1, 35537, Note_off_c, 1, 55, 96
1, 35537, Note_off_c, 1, 60, 96
1, 35537, Note_off_c, 1, 64, 96
1, 35568, Note_on_c, 1, 72, 96
1, 35568, Note_on_c, 1, 81, 96
1, 35569, Note_off_c, 1, 72, 96
1, 35569, Note_off_c, 1, 81, 96
1, 35600, Note_on_c, 1, 48, 96
1, 35600, Note_on_c, 1, 60, 96
1, 35601, Note_off_c, 1, 48, 96
1, 35601, Note_off_c, 1, 60, 96
1, 35631, Note_on_c, 1, 76, 96
1, 35632, Note_off_c, 1, 76, 96
1, 35665, Note_on_c, 1, 76, 96
1, 35665, Note_on_c, 1, 64, 96
1, 35665, Note_on_c, 1, 60, 96
1, 35665, Note_on_c, 1, 48, 96
1, 35666, Note_off_c, 1, 76, 96
1, 35666, Note_off_c, 1, 64, 96
1, 35666, Note_off_c, 1, 60, 96
1, 35666, Note_off_c, 1, 48, 96
1, 35729, Note_on_c, 1, 79, 96
1, 35729, Note_on_c, 1, 60, 96
1, 35729, Note_on_c, 1, 64, 96
1, 35729, Note_on_c, 1, 48, 96
1, 35730, Note_off_c, 1, 79, 96
1, 35730, Note_off_c, 1, 60, 96
1, 35730, Note_off_c, 1, 64, 96
1, 35730, Note_off_c, 1, 48, 96
1, 35760, Note_on_c, 1, 81, 96
1, 35761, Note_off_c, 1, 81, 96
1, 35795, Note_on_c, 1, 76, 96
1, 35795, Note_on_c, 1, 72, 96
1, 35795, Note_on_c, 1, 56, 96
1, 35795, Note_on_c, 1, 52, 96
1, 35795, Note_on_c, 1, 60, 96
1, 35796, Note_off_c, 1, 76, 96
1, 35796, Note_off_c, 1, 72, 96
1, 35796, Note_off_c, 1, 56, 96
1, 35796, Note_off_c, 1, 52, 96
1, 35796, Note_off_c, 1, 60, 96
1, 35826, Note_on_c, 1, 71, 96
1, 35827, Note_off_c, 1, 71, 96
1, 35860, Note_on_c, 1, 76, 96
1, 35860, Note_on_c, 1, 56, 96
1, 35860, Note_on_c, 1, 52, 96
1, 35860, Note_on_c, 1, 62, 96
1, 35861, Note_off_c, 1, 76, 96
1, 35861, Note_off_c, 1, 56, 96
1, 35861, Note_off_c, 1, 52, 96
1, 35861, Note_off_c, 1, 62, 96
1, 35892, Note_on_c, 1, 79, 96
1, 35892, Note_on_c, 1, 71, 96
1, 35893, Note_off_c, 1, 79, 96
1, 35893, Note_off_c, 1, 71, 96
1, 35923, Note_on_c, 1, 43, 96
1, 35924, Note_off_c, 1, 43, 96
1, 35954, Note_on_c, 1, 74, 96
1, 35955, Note_off_c, 1, 74, 96
1, 35988, Note_on_c, 1, 76, 96
1, 35988, Note_on_c, 1, 60, 96
1, 35988, Note_on_c, 1, 64, 96
1, 35988, Note_on_c, 1, 55, 96
1, 35989, Note_off_c, 1, 76, 96
1, 35989, Note_off_c, 1, 60, 96
1, 35989, Note_off_c, 1, 64, 96
1, 35989, Note_off_c, 1, 55, 96
1, 36019, Note_on_c, 1, 76, 96
1, 36020, Note_off_c, 1, 76, 96
1, 36053, Note_on_c, 1, 76, 96
1, 36053, Note_on_c, 1, 55, 96
1, 36053, Note_on_c, 1, 64, 96
1, 36053, Note_on_c, 1, 60, 96
1, 36054, Note_off_c, 1, 76, 96
1, 36054, Note_off_c, 1, 55, 96
1, 36054, Note_off_c, 1, 64, 96
1, 36054, Note_off_c, 1, 60, 96
1, 36085, Note_on_c, 1, 81, 96
1, 36085, Note_on_c, 1, 76, 96
1, 36086, Note_off_c, 1, 81, 96
1, 36086, Note_off_c, 1, 76, 96
1, 36117, Note_on_c, 1, 61, 96
1, 36117, Note_on_c, 1, 49, 96
1, 36118, Note_off_c, 1, 61, 96
1, 36118, Note_off_c, 1, 49, 96
1, 36148, Note_on_c, 1, 86, 96
1, 36149, Note_off_c, 1, 86, 96
1, 36183, Note_on_c, 1, 74, 96
1, 36183, Note_on_c, 1, 86, 96
1, 36183, Note_on_c, 1, 83, 96
1, 36183, Note_on_c, 1, 59, 96
1, 36183, Note_on_c, 1, 47, 96
1, 36184, Note_off_c, 1, 74, 96
1, 36184, Note_off_c, 1, 86, 96
1, 36184, Note_off_c, 1, 83, 96
1, 36184, Note_off_c, 1, 59, 96
1, 36184, Note_off_c, 1, 47, 96
1, 36249, Note_on_c, 1, 77, 96
1, 36249, Note_on_c, 1, 83, 96
1, 36249, Note_on_c, 1, 71, 96
1, 36249, Note_on_c, 1, 55, 96
1, 36249, Note_on_c, 1, 62, 96
1, 36249, Note_on_c, 1, 59, 96
1, 36250, Note_off_c, 1, 77, 96
1, 36250, Note_off_c, 1, 83, 96
1, 36250, Note_off_c, 1, 71, 96
1, 36250, Note_off_c, 1, 55, 96
1, 36250, Note_off_c, 1, 62, 96
1, 36250, Note_off_c, 1, 59, 96
1, 36313, Note_on_c, 1, 83, 96
1, 36313, Note_on_c, 1, 77, 96
1, 36313, Note_on_c, 1, 62, 96
1, 36313, Note_on_c, 1, 55, 96
1, 36314, Note_off_c, 1, 83, 96
1, 36314, Note_off_c, 1, 77, 96
1, 36314, Note_off_c, 1, 62, 96
1, 36314, Note_off_c, 1, 55, 96
1, 36374, Note_on_c, 1, 55, 96
1, 36375, Note_off_c, 1, 55, 96
1, 36435, Note_on_c, 1, 43, 96
1, 36436, Note_off_c, 1, 43, 96
1, 36499, Note_on_c, 1, 74, 96
1, 36499, Note_on_c, 1, 86, 96
1, 36499, Note_on_c, 1, 44, 96
1, 36499, Note_on_c, 1, 56, 96
1, 36500, Note_off_c, 1, 74, 96
1, 36500, Note_off_c, 1, 86, 96
1, 36500, Note_off_c, 1, 44, 96
1, 36500, Note_off_c, 1, 56, 96
1, 36564, Note_on_c, 1, 77, 96
1, 36564, Note_on_c, 1, 81, 96
1, 36564, Note_on_c, 1, 69, 96
1, 36564, Note_on_c, 1, 62, 96
1, 36564, Note_on_c, 1, 50, 96
1, 36565, Note_off_c, 1, 77, 96
1, 36565, Note_off_c, 1, 81, 96
1, 36565, Note_off_c, 1, 69, 96
1, 36565, Note_off_c, 1, 62, 96
1, 36565, Note_off_c, 1, 50, 96
1, 36626, Note_on_c, 1, 59, 96
1, 36626, Note_on_c, 1, 47, 96
1, 36627, Note_off_c, 1, 59, 96
1, 36627, Note_off_c, 1, 47, 96
1, 36692, Note_on_c, 1, 89, 96
1, 36692, Note_on_c, 1, 77, 96
1, 36692, Note_on_c, 1, 86, 96
1, 36692, Note_on_c, 1, 62, 96
1, 36692, Note_on_c, 1, 53, 96
1, 36692, Note_on_c, 1, 57, 96
1, 36693, Note_off_c, 1, 89, 96
1, 36693, Note_off_c, 1, 77, 96
1, 36693, Note_off_c, 1, 86, 96
1, 36693, Note_off_c, 1, 62, 96
1, 36693, Note_off_c, 1, 53, 96
1, 36693, Note_off_c, 1, 57, 96
1, 36758, Note_on_c, 1, 93, 96
1, 36758, Note_on_c, 1, 84, 96
1, 36758, Note_on_c, 1, 81, 96
1, 36758, Note_on_c, 1, 72, 96
1, 36758, Note_on_c, 1, 51, 96
1, 36758, Note_on_c, 1, 39, 96
1, 36759, Note_off_c, 1, 93, 96
1, 36759, Note_off_c, 1, 84, 96
1, 36759, Note_off_c, 1, 81, 96
1, 36759, Note_off_c, 1, 72, 96
1, 36759, Note_off_c, 1, 51, 96
1, 36759, Note_off_c, 1, 39, 96
1, 36821, Note_on_c, 1, 72, 96
1, 36821, Note_on_c, 1, 84, 96
1, 36821, Note_on_c, 1, 34, 96
1, 36822, Note_off_c, 1, 72, 96
1, 36822, Note_off_c, 1, 84, 96
1, 36822, Note_off_c, 1, 34, 96
1, 36947, Note_on_c, 1, 67, 96
1, 36947, Note_on_c, 1, 53, 96
1, 36947, Note_on_c, 1, 55, 96
1, 36947, Note_on_c, 1, 58, 96
1, 36947, Note_on_c, 1, 61, 96
1, 36948, Note_off_c, 1, 67, 96
1, 36948, Note_off_c, 1, 53, 96
1, 36948, Note_off_c, 1, 55, 96
1, 36948, Note_off_c, 1, 58, 96
1, 36948, Note_off_c, 1, 61, 96
1, 37013, Note_on_c, 1, 74, 96
1, 37013, Note_on_c, 1, 82, 96
1, 37013, Note_on_c, 1, 69, 96
1, 37013, Note_on_c, 1, 58, 96
1, 37013, Note_on_c, 1, 62, 96
1, 37013, Note_on_c, 1, 53, 96
1, 37014, Note_off_c, 1, 74, 96
1, 37014, Note_off_c, 1, 82, 96
1, 37014, Note_off_c, 1, 69, 96
1, 37014, Note_off_c, 1, 58, 96
1, 37014, Note_off_c, 1, 62, 96
1, 37014, Note_off_c, 1, 53, 96
1, 37077, Note_on_c, 1, 65, 96
1, 37077, Note_on_c, 1, 58, 96
1, 37077, Note_on_c, 1, 53, 96
1, 37077, Note_on_c, 1, 62, 96
1, 37078, Note_off_c, 1, 65, 96
1, 37078, Note_off_c, 1, 58, 96
1, 37078, Note_off_c, 1, 53, 96
1, 37078, Note_off_c, 1, 62, 96
1, 37139, Note_on_c, 1, 62, 96
1, 37139, Note_on_c, 1, 50, 96
1, 37140, Note_off_c, 1, 62, 96
1, 37140, Note_off_c, 1, 50, 96
1, 37201, Note_on_c, 1, 57, 96
1, 37201, Note_on_c, 1, 48, 96
1, 37202, Note_off_c, 1, 57, 96
1, 37202, Note_off_c, 1, 48, 96
1, 37263, Note_on_c, 1, 62, 96
1, 37263, Note_on_c, 1, 50, 96
1, 37264, Note_off_c, 1, 62, 96
1, 37264, Note_off_c, 1, 50, 96
1, 37328, Note_on_c, 1, 66, 96
1, 37328, Note_on_c, 1, 72, 96
1, 37328, Note_on_c, 1, 57, 96
1, 37328, Note_on_c, 1, 50, 96
1, 37328, Note_on_c, 1, 62, 96
1, 37329, Note_off_c, 1, 66, 96
1, 37329, Note_off_c, 1, 72, 96
1, 37329, Note_off_c, 1, 57, 96
1, 37329, Note_off_c, 1, 50, 96
1, 37329, Note_off_c, 1, 62, 96
1, 37389, Note_on_c, 1, 72, 96
1, 37390, Note_off_c, 1, 72, 96
1, 37452, Note_on_c, 1, 55, 96
1, 37452, Note_on_c, 1, 58, 96
1, 37452, Note_on_c, 1, 62, 96
1, 37453, Note_off_c, 1, 55, 96
1, 37453, Note_off_c, 1, 58, 96
1, 37453, Note_off_c, 1, 62, 96
1, 37513, Note_on_c, 1, 67, 96
1, 37514, Note_off_c, 1, 67, 96
1, 37577, Note_on_c, 1, 69, 96
1, 37577, Note_on_c, 1, 55, 96
1, 37577, Note_on_c, 1, 62, 96
1, 37577, Note_on_c, 1, 58, 96
1, 37578, Note_off_c, 1, 69, 96
1, 37578, Note_off_c, 1, 55, 96
1, 37578, Note_off_c, 1, 62, 96
1, 37578, Note_off_c, 1, 58, 96
1, 37638, Note_on_c, 1, 67, 96
1, 37639, Note_off_c, 1, 67, 96
1, 37700, Note_on_c, 1, 50, 96
1, 37700, Note_on_c, 1, 38, 96
1, 37701, Note_off_c, 1, 50, 96
1, 37701, Note_off_c, 1, 38, 96
1, 37822, Note_on_c, 1, 72, 96
1, 37822, Note_on_c, 1, 51, 96
1, 37823, Note_off_c, 1, 72, 96
1, 37823, Note_off_c, 1, 51, 96
1, 37883, Note_on_c, 1, 41, 96
1, 37884, Note_off_c, 1, 41, 96
1, 38008, Note_on_c, 1, 67, 96
1, 38008, Note_on_c, 1, 53, 96
1, 38008, Note_on_c, 1, 58, 96
1, 38008, Note_on_c, 1, 43, 96
1, 38009, Note_off_c, 1, 67, 96
1, 38009, Note_off_c, 1, 53, 96
1, 38009, Note_off_c, 1, 58, 96
1, 38009, Note_off_c, 1, 43, 96
1, 38131, Note_on_c, 1, 65, 96
1, 38131, Note_on_c, 1, 61, 96
1, 38131, Note_on_c, 1, 58, 96
1, 38132, Note_off_c, 1, 65, 96
1, 38132, Note_off_c, 1, 61, 96
1, 38132, Note_off_c, 1, 58, 96
1, 38254, Note_on_c, 1, 60, 96
1, 38254, Note_on_c, 1, 51, 96
1, 38254, Note_on_c, 1, 39, 96
1, 38255, Note_off_c, 1, 60, 96
1, 38255, Note_off_c, 1, 51, 96
1, 38255, Note_off_c, 1, 39, 96
1, 38315, Note_on_c, 1, 75, 96
1, 38316, Note_off_c, 1, 75, 96
1, 38380, Note_on_c, 1, 67, 96
1, 38380, Note_on_c, 1, 51, 96
1, 38380, Note_on_c, 1, 55, 96
1, 38380, Note_on_c, 1, 58, 96
1, 38380, Note_on_c, 1, 61, 96
1, 38381, Note_off_c, 1, 67, 96
1, 38381, Note_off_c, 1, 51, 96
1, 38381, Note_off_c, 1, 55, 96
1, 38381, Note_off_c, 1, 58, 96
1, 38381, Note_off_c, 1, 61, 96
1, 38442, Note_on_c, 1, 65, 96
1, 38442, Note_on_c, 1, 63, 96
1, 38443, Note_off_c, 1, 65, 96
1, 38443, Note_off_c, 1, 63, 96
1, 38565, Note_on_c, 1, 65, 96
1, 38565, Note_on_c, 1, 41, 96
1, 38566, Note_off_c, 1, 65, 96
1, 38566, Note_off_c, 1, 41, 96
1, 38627, Note_on_c, 1, 78, 96
1, 38627, Note_on_c, 1, 75, 96
1, 38628, Note_off_c, 1, 78, 96
1, 38628, Note_off_c, 1, 75, 96
1, 38691, Note_on_c, 1, 75, 96
1, 38691, Note_on_c, 1, 66, 96
1, 38691, Note_on_c, 1, 57, 96
1, 38691, Note_on_c, 1, 60, 96
1, 38692, Note_off_c, 1, 75, 96
1, 38692, Note_off_c, 1, 66, 96
1, 38692, Note_off_c, 1, 57, 96
1, 38692, Note_off_c, 1, 60, 96
1, 38814, Note_on_c, 1, 75, 96
1, 38814, Note_on_c, 1, 53, 96
1, 38815, Note_off_c, 1, 75, 96
1, 38815, Note_off_c, 1, 53, 96
1, 38875, Note_on_c, 1, 72, 96
1, 38876, Note_off_c, 1, 72, 96
1, 38937, Note_on_c, 1, 58, 96
1, 38937, Note_on_c, 1, 46, 96
1, 38938, Note_off_c, 1, 58, 96
1, 38938, Note_off_c, 1, 46, 96
1, 38998, Note_on_c, 1, 65, 96
1, 38999, Note_off_c, 1, 65, 96
1, 39062, Note_on_c, 1, 70, 96
1, 39062, Note_on_c, 1, 66, 96
1, 39062, Note_on_c, 1, 54, 96
1, 39062, Note_on_c, 1, 42, 96
1, 39063, Note_off_c, 1, 70, 96
1, 39063, Note_off_c, 1, 66, 96
1, 39063, Note_off_c, 1, 54, 96
1, 39063, Note_off_c, 1, 42, 96
1, 39124, Note_on_c, 1, 65, 96
1, 39124, Note_on_c, 1, 62, 96
1, 39125, Note_off_c, 1, 65, 96
1, 39125, Note_off_c, 1, 62, 96
1, 39186, Note_on_c, 1, 37, 96
1, 39186, Note_on_c, 1, 49, 96
1, 39187, Note_off_c, 1, 37, 96
1, 39187, Note_off_c, 1, 49, 96
1, 39308, Note_on_c, 1, 56, 96
1, 39308, Note_on_c, 1, 44, 96
1, 39309, Note_off_c, 1, 56, 96
1, 39309, Note_off_c, 1, 44, 96
1, 39431, Note_on_c, 1, 71, 96
1, 39431, Note_on_c, 1, 59, 96
1, 39431, Note_on_c, 1, 47, 96
1, 39432, Note_off_c, 1, 71, 96
1, 39432, Note_off_c, 1, 59, 96
1, 39432, Note_off_c, 1, 47, 96
1, 39662, Note_on_c, 1, 59, 96
1, 39663, Note_off_c, 1, 59, 96
1, 39790, Note_on_c, 1, 66, 96
1, 39790, Note_on_c, 1, 74, 96
1, 39790, Note_on_c, 1, 69, 96
1, 39791, Note_off_c, 1, 66, 96
1, 39791, Note_off_c, 1, 74, 96
1, 39791, Note_off_c, 1, 69, 96
1, 39851, Note_on_c, 1, 67, 96
1, 39852, Note_off_c, 1, 67, 96
1, 39913, Note_on_c, 1, 69, 96
1, 39913, Note_on_c, 1, 51, 96
1, 39914, Note_off_c, 1, 69, 96
1, 39914, Note_off_c, 1, 51, 96
1, 40034, Note_on_c, 1, 54, 96
1, 40035, Note_off_c, 1, 54, 96
1, 40059, Note_on_c, 1, 60, 96
1, 40060, Note_off_c, 1, 60, 96
1, 40120, Note_on_c, 1, 75, 96
1, 40121, Note_off_c, 1, 75, 96
1, 40181, Note_on_c, 1, 70, 96
1, 40182, Note_off_c, 1, 70, 96
1, 40245, Note_on_c, 1, 75, 96
1, 40245, Note_on_c, 1, 71, 96
1, 40245, Note_on_c, 1, 63, 96
1, 40245, Note_on_c, 1, 57, 96
1, 40246, Note_off_c, 1, 75, 96
1, 40246, Note_off_c, 1, 71, 96
1, 40246, Note_off_c, 1, 63, 96
1, 40246, Note_off_c, 1, 57, 96
1, 40370, Note_on_c, 1, 57, 96
1, 40370, Note_on_c, 1, 53, 96
1, 40372, Note_off_c, 1, 57, 96
1, 40372, Note_off_c, 1, 53, 96
1, 40372, Note_on_c, 1, 60, 96
1, 40373, Note_off_c, 1, 60, 96
1, 40433, Note_on_c, 1, 72, 96
1, 40434, Note_off_c, 1, 72, 96
1, 40496, Note_on_c, 1, 65, 96
1, 40496, Note_on_c, 1, 58, 96
1, 40496, Note_on_c, 1, 55, 96
1, 40497, Note_off_c, 1, 65, 96
1, 40497, Note_off_c, 1, 58, 96
1, 40497, Note_off_c, 1, 55, 96
1, 40619, Note_on_c, 1, 67, 96
1, 40619, Note_on_c, 1, 52, 96
1, 40619, Note_on_c, 1, 40, 96
1, 40620, Note_off_c, 1, 67, 96
1, 40620, Note_off_c, 1, 52, 96
1, 40620, Note_off_c, 1, 40, 96
1, 40680, Note_on_c, 1, 72, 96
1, 40681, Note_off_c, 1, 72, 96
1, 40744, Note_on_c, 1, 74, 96
1, 40744, Note_on_c, 1, 55, 96
1, 40744, Note_on_c, 1, 58, 96
1, 40744, Note_on_c, 1, 60, 96
1, 40745, Note_off_c, 1, 74, 96
1, 40745, Note_off_c, 1, 55, 96
1, 40745, Note_off_c, 1, 58, 96
1, 40745, Note_off_c, 1, 60, 96
1, 40805, Note_on_c, 1, 61, 96
1, 40806, Note_off_c, 1, 61, 96
1, 40866, Note_on_c, 1, 59, 96
1, 40867, Note_off_c, 1, 59, 96
1, 40989, Note_on_c, 1, 71, 96
1, 40989, Note_on_c, 1, 38, 96
1, 40989, Note_on_c, 1, 50, 96
1, 40990, Note_off_c, 1, 71, 96
1, 40990, Note_off_c, 1, 38, 96
1, 40990, Note_off_c, 1, 50, 96
1, 41110, Note_on_c, 1, 67, 96
1, 41111, Note_off_c, 1, 67, 96
1, 41231, Note_on_c, 1, 71, 96
1, 41232, Note_off_c, 1, 71, 96
1, 41354, Note_on_c, 1, 64, 96
1, 41354, Note_on_c, 1, 55, 96
1, 41354, Note_on_c, 1, 58, 96
1, 41355, Note_off_c, 1, 64, 96
1, 41355, Note_off_c, 1, 55, 96
1, 41355, Note_off_c, 1, 58, 96
1, 41415, Note_on_c, 1, 62, 96
1, 41416, Note_off_c, 1, 62, 96
1, 41477, Note_on_c, 1, 60, 96
1, 41477, Note_on_c, 1, 57, 96
1, 41478, Note_off_c, 1, 60, 96
1, 41478, Note_off_c, 1, 57, 96
1, 41598, Note_on_c, 1, 45, 96
1, 41599, Note_off_c, 1, 45, 96
1, 41719, Note_on_c, 1, 59, 96
1, 41720, Note_off_c, 1, 59, 96
1, 41841, Note_on_c, 1, 59, 96
1, 41841, Note_on_c, 1, 50, 96
1, 41842, Note_off_c, 1, 59, 96
1, 41842, Note_off_c, 1, 50, 96
1, 41955, Note_on_c, 1, 79, 96
1, 41955, Note_on_c, 1, 74, 96
1, 41956, Note_off_c, 1, 79, 96
1, 41956, Note_off_c, 1, 74, 96
1, 42021, Note_on_c, 1, 74, 96
1, 42021, Note_on_c, 1, 86, 96
1, 42021, Note_on_c, 1, 62, 96
1, 42021, Note_on_c, 1, 58, 96
1, 42021, Note_on_c, 1, 50, 96
1, 42021, Note_on_c, 1, 53, 96
1, 42022, Note_off_c, 1, 74, 96
1, 42022, Note_off_c, 1, 86, 96
1, 42022, Note_off_c, 1, 62, 96
1, 42022, Note_off_c, 1, 58, 96
1, 42022, Note_off_c, 1, 50, 96
1, 42022, Note_off_c, 1, 53, 96
1, 42082, Note_on_c, 1, 77, 96
1, 42083, Note_off_c, 1, 77, 96
1, 42146, Note_on_c, 1, 84, 96
1, 42146, Note_on_c, 1, 53, 96
1, 42146, Note_on_c, 1, 58, 96
1, 42146, Note_on_c, 1, 62, 96
1, 42147, Note_off_c, 1, 84, 96
1, 42147, Note_off_c, 1, 53, 96
1, 42147, Note_off_c, 1, 58, 96
1, 42147, Note_off_c, 1, 62, 96
1, 42271, Note_on_c, 1, 85, 96
1, 42271, Note_on_c, 1, 77, 96
1, 42271, Note_on_c, 1, 58, 96
1, 42271, Note_on_c, 1, 62, 96
1, 42271, Note_on_c, 1, 53, 96
1, 42272, Note_off_c, 1, 85, 96
1, 42272, Note_off_c, 1, 77, 96
1, 42272, Note_off_c, 1, 58, 96
1, 42272, Note_off_c, 1, 62, 96
1, 42272, Note_off_c, 1, 53, 96
1, 42396, Note_on_c, 1, 84, 96
1, 42396, Note_on_c, 1, 72, 96
1, 42396, Note_on_c, 1, 76, 96
1, 42396, Note_on_c, 1, 64, 96
1, 42396, Note_on_c, 1, 52, 96
1, 42397, Note_off_c, 1, 84, 96
1, 42397, Note_off_c, 1, 72, 96
1, 42397, Note_off_c, 1, 76, 96
1, 42397, Note_off_c, 1, 64, 96
1, 42397, Note_off_c, 1, 52, 96
1, 42518, Note_on_c, 1, 42, 96
1, 42518, Note_on_c, 1, 54, 96
1, 42519, Note_off_c, 1, 42, 96
1, 42519, Note_off_c, 1, 54, 96
1, 42644, Note_on_c, 1, 67, 96
1, 42644, Note_on_c, 1, 79, 96
1, 42644, Note_on_c, 1, 74, 96
1, 42644, Note_on_c, 1, 86, 96
1, 42644, Note_on_c, 1, 35, 96
1, 42644, Note_on_c, 1, 47, 96
1, 42645, Note_off_c, 1, 67, 96
1, 42645, Note_off_c, 1, 79, 96
1, 42645, Note_off_c, 1, 74, 96
1, 42645, Note_off_c, 1, 86, 96
1, 42645, Note_off_c, 1, 35, 96
1, 42645, Note_off_c, 1, 47, 96
1, 42706, Note_on_c, 1, 79, 96
1, 42706, Note_on_c, 1, 84, 96
1, 42707, Note_off_c, 1, 79, 96
1, 42707, Note_off_c, 1, 84, 96
1, 42769, Note_on_c, 1, 55, 96
1, 42769, Note_on_c, 1, 60, 96
1, 42769, Note_on_c, 1, 64, 96
1, 42770, Note_off_c, 1, 55, 96
1, 42770, Note_off_c, 1, 60, 96
1, 42770, Note_off_c, 1, 64, 96
1, 42832, Note_on_c, 1, 74, 96
1, 42832, Note_on_c, 1, 79, 96
1, 42832, Note_on_c, 1, 86, 96
1, 42833, Note_off_c, 1, 74, 96
1, 42833, Note_off_c, 1, 79, 96
1, 42833, Note_off_c, 1, 86, 96
1, 42897, Note_on_c, 1, 84, 96
1, 42897, Note_on_c, 1, 79, 96
1, 42897, Note_on_c, 1, 76, 96
1, 42897, Note_on_c, 1, 48, 96
1, 42897, Note_on_c, 1, 60, 96
1, 42898, Note_off_c, 1, 84, 96
1, 42898, Note_off_c, 1, 79, 96
1, 42898, Note_off_c, 1, 76, 96
1, 42898, Note_off_c, 1, 48, 96
1, 42898, Note_off_c, 1, 60, 96
1, 43019, Note_on_c, 1, 79, 96
1, 43019, Note_on_c, 1, 87, 96
1, 43020, Note_off_c, 1, 79, 96
1, 43020, Note_off_c, 1, 87, 96
1, 43081, Note_on_c, 1, 43, 96
1, 43081, Note_on_c, 1, 55, 96
1, 43082, Note_off_c, 1, 43, 96
1, 43082, Note_off_c, 1, 55, 96
1, 43142, Note_on_c, 1, 91, 96
1, 43143, Note_off_c, 1, 91, 96
1, 43207, Note_on_c, 1, 84, 96
1, 43207, Note_on_c, 1, 88, 96
1, 43207, Note_on_c, 1, 55, 96
1, 43207, Note_on_c, 1, 60, 96
1, 43207, Note_on_c, 1, 64, 96
1, 43208, Note_off_c, 1, 84, 96
1, 43208, Note_off_c, 1, 88, 96
1, 43208, Note_off_c, 1, 55, 96
1, 43208, Note_off_c, 1, 60, 96
1, 43208, Note_off_c, 1, 64, 96
1, 43268, Note_on_c, 1, 78, 96
1, 43269, Note_off_c, 1, 78, 96
1, 43330, Note_on_c, 1, 83, 96
1, 43330, Note_on_c, 1, 48, 96
1, 43331, Note_off_c, 1, 83, 96
1, 43331, Note_off_c, 1, 48, 96
1, 43391, Note_on_c, 1, 81, 96
1, 43392, Note_off_c, 1, 81, 96
1, 43454, Note_on_c, 1, 83, 96
1, 43454, Note_on_c, 1, 79, 96
1, 43454, Note_on_c, 1, 40, 96
1, 43455, Note_off_c, 1, 83, 96
1, 43455, Note_off_c, 1, 79, 96
1, 43455, Note_off_c, 1, 40, 96
1, 43578, Note_on_c, 1, 81, 96
1, 43578, Note_on_c, 1, 84, 96
1, 43578, Note_on_c, 1, 57, 96
1, 43578, Note_on_c, 1, 45, 96
1, 43579, Note_off_c, 1, 81, 96
1, 43579, Note_off_c, 1, 84, 96
1, 43579, Note_off_c, 1, 57, 96
1, 43579, Note_off_c, 1, 45, 96
1, 43639, Note_on_c, 1, 81, 96
1, 43640, Note_off_c, 1, 81, 96
1, 43703, Note_on_c, 1, 77, 96
1, 43703, Note_on_c, 1, 61, 96
1, 43703, Note_on_c, 1, 55, 96
1, 43703, Note_on_c, 1, 57, 96
1, 43704, Note_off_c, 1, 77, 96
1, 43704, Note_off_c, 1, 61, 96
1, 43704, Note_off_c, 1, 55, 96
1, 43704, Note_off_c, 1, 57, 96
1, 43764, Note_on_c, 1, 83, 96
1, 43765, Note_off_c, 1, 83, 96
1, 43828, Note_on_c, 1, 74, 96
1, 43828, Note_on_c, 1, 56, 96
1, 43828, Note_on_c, 1, 59, 96
1, 43828, Note_on_c, 1, 62, 96
1, 43829, Note_off_c, 1, 74, 96
1, 43829, Note_off_c, 1, 56, 96
1, 43829, Note_off_c, 1, 59, 96
1, 43829, Note_off_c, 1, 62, 96
1, 43950, Note_on_c, 1, 43, 96
1, 43950, Note_on_c, 1, 55, 96
1, 43951, Note_off_c, 1, 43, 96
1, 43951, Note_off_c, 1, 55, 96
1, 44011, Note_on_c, 1, 62, 96
1, 44012, Note_off_c, 1, 62, 96
1, 44073, Note_on_c, 1, 60, 96
1, 44073, Note_on_c, 1, 55, 96
1, 44074, Note_off_c, 1, 60, 96
1, 44074, Note_off_c, 1, 55, 96
1, 44135, Note_on_c, 1, 72, 96
1, 44135, Note_on_c, 1, 57, 96
1, 44136, Note_off_c, 1, 72, 96
1, 44136, Note_off_c, 1, 57, 96
1, 44198, Note_on_c, 1, 74, 96
1, 44198, Note_on_c, 1, 55, 96
1, 44198, Note_on_c, 1, 43, 96
1, 44199, Note_off_c, 1, 74, 96
1, 44199, Note_off_c, 1, 55, 96
1, 44199, Note_off_c, 1, 43, 96
1, 44319, Note_on_c, 1, 77, 96
1, 44320, Note_off_c, 1, 77, 96
1, 44380, Note_on_c, 1, 76, 96
1, 44381, Note_off_c, 1, 76, 96
1, 44442, Note_on_c, 1, 50, 96
1, 44442, Note_on_c, 1, 38, 96
1, 44443, Note_off_c, 1, 50, 96
1, 44443, Note_off_c, 1, 38, 96
1, 44504, Note_on_c, 1, 84, 96
1, 44504, Note_on_c, 1, 72, 96
1, 44505, Note_off_c, 1, 84, 96
1, 44505, Note_off_c, 1, 72, 96
1, 44568, Note_on_c, 1, 83, 96
1, 44568, Note_on_c, 1, 64, 96
1, 44568, Note_on_c, 1, 59, 96
1, 44568, Note_on_c, 1, 55, 96
1, 44569, Note_off_c, 1, 83, 96
1, 44569, Note_off_c, 1, 64, 96
1, 44569, Note_off_c, 1, 59, 96
1, 44569, Note_off_c, 1, 55, 96
1, 44629, Note_on_c, 1, 79, 96
1, 44630, Note_off_c, 1, 79, 96
1, 44693, Note_on_c, 1, 79, 96
1, 44693, Note_on_c, 1, 71, 96
1, 44693, Note_on_c, 1, 43, 96
1, 44693, Note_on_c, 1, 55, 96
1, 44694, Note_off_c, 1, 79, 96
1, 44694, Note_off_c, 1, 71, 96
1, 44694, Note_off_c, 1, 43, 96
1, 44694, Note_off_c, 1, 55, 96
1, 44815, Note_on_c, 1, 41, 96
1, 44815, Note_on_c, 1, 53, 96
1, 44816, Note_off_c, 1, 41, 96
1, 44816, Note_off_c, 1, 53, 96
1, 44941, Note_on_c, 1, 70, 96
1, 44941, Note_on_c, 1, 74, 96
1, 44941, Note_on_c, 1, 77, 96
1, 44941, Note_on_c, 1, 82, 96
1, 44941, Note_on_c, 1, 46, 96
1, 44941, Note_on_c, 1, 58, 96
1, 44942, Note_off_c, 1, 70, 96
1, 44942, Note_off_c, 1, 74, 96
1, 44942, Note_off_c, 1, 77, 96
1, 44942, Note_off_c, 1, 82, 96
1, 44942, Note_off_c, 1, 46, 96
1, 44942, Note_off_c, 1, 58, 96
1, 45066, Note_on_c, 1, 79, 96
1, 45066, Note_on_c, 1, 72, 96
1, 45066, Note_on_c, 1, 84, 96
1, 45066, Note_on_c, 1, 51, 96
1, 45066, Note_on_c, 1, 39, 96
1, 45067, Note_off_c, 1, 79, 96
1, 45067, Note_off_c, 1, 72, 96
1, 45067, Note_off_c, 1, 84, 96
1, 45067, Note_off_c, 1, 51, 96
1, 45067, Note_off_c, 1, 39, 96
1, 45128, Note_on_c, 1, 72, 96
1, 45128, Note_on_c, 1, 80, 96
1, 45129, Note_off_c, 1, 72, 96
1, 45129, Note_off_c, 1, 80, 96
1, 45194, Note_on_c, 1, 44, 96
1, 45194, Note_on_c, 1, 75, 96
1, 45194, Note_on_c, 1, 84, 96
1, 45194, Note_on_c, 1, 78, 96
1, 45194, Note_on_c, 1, 72, 96
1, 45194, Note_on_c, 1, 56, 96
1, 45195, Note_off_c, 1, 44, 96
1, 45195, Note_off_c, 1, 75, 96
1, 45195, Note_off_c, 1, 84, 96
1, 45195, Note_off_c, 1, 78, 96
1, 45195, Note_off_c, 1, 72, 96
1, 45195, Note_off_c, 1, 56, 96
1, 45257, Note_on_c, 1, 75, 96
1, 45257, Note_on_c, 1, 78, 96
1, 45257, Note_on_c, 1, 78, 96
1, 45258, Note_off_c, 1, 75, 96
1, 45258, Note_off_c, 1, 78, 96
1, 45258, Note_off_c, 1, 78, 96
1, 45319, Note_on_c, 1, 55, 96
1, 45319, Note_on_c, 1, 43, 96
1, 45320, Note_off_c, 1, 55, 96
1, 45320, Note_off_c, 1, 43, 96
1, 45381, Note_on_c, 1, 73, 96
1, 45381, Note_on_c, 1, 82, 96
1, 45382, Note_off_c, 1, 73, 96
1, 45382, Note_off_c, 1, 82, 96
1, 45443, Note_on_c, 1, 49, 96
1, 45443, Note_on_c, 1, 37, 96
1, 45444, Note_off_c, 1, 49, 96
1, 45444, Note_off_c, 1, 37, 96
1, 45504, Note_on_c, 1, 80, 96
1, 45505, Note_off_c, 1, 80, 96
1, 45567, Note_on_c, 1, 85, 96
1, 45567, Note_on_c, 1, 61, 96
1, 45567, Note_on_c, 1, 56, 96
1, 45568, Note_off_c, 1, 85, 96
1, 45568, Note_off_c, 1, 61, 96
1, 45568, Note_off_c, 1, 56, 96
1, 45628, Note_on_c, 1, 74, 96
1, 45629, Note_off_c, 1, 74, 96
1, 45691, Note_on_c, 1, 85, 96
1, 45691, Note_on_c, 1, 80, 96
1, 45691, Note_on_c, 1, 72, 96
1, 45692, Note_off_c, 1, 85, 96
1, 45692, Note_off_c, 1, 80, 96
1, 45692, Note_off_c, 1, 72, 96
1, 45758, Note_on_c, 1, 82, 96
1, 45758, Note_on_c, 1, 80, 96
1, 45758, Note_on_c, 1, 56, 96
1, 45758, Note_on_c, 1, 72, 96
1, 45758, Note_on_c, 1, 62, 96
1, 45758, Note_on_c, 1, 56, 96
1, 45758, Note_on_c, 1, 62, 96
1, 45759, Note_off_c, 1, 82, 96
1, 45759, Note_off_c, 1, 80, 96
1, 45759, Note_off_c, 1, 56, 96
1, 45759, Note_off_c, 1, 72, 96
1, 45759, Note_off_c, 1, 62, 96
1, 45759, Note_off_c, 1, 56, 96
1, 45759, Note_off_c, 1, 62, 96
1, 45819, Note_on_c, 1, 85, 96
1, 45820, Note_off_c, 1, 85, 96
1, 45882, Note_on_c, 1, 73, 96
1, 45882, Note_on_c, 1, 85, 96
1, 45882, Note_on_c, 1, 49, 96
1, 45883, Note_off_c, 1, 73, 96
1, 45883, Note_off_c, 1, 85, 96
1, 45883, Note_off_c, 1, 49, 96
1, 45944, Note_on_c, 1, 89, 96
1, 45944, Note_on_c, 1, 84, 96
1, 45945, Note_off_c, 1, 89, 96
1, 45945, Note_off_c, 1, 84, 96
1, 46008, Note_on_c, 1, 82, 96
1, 46008, Note_on_c, 1, 92, 96
1, 46008, Note_on_c, 1, 68, 96
1, 46008, Note_on_c, 1, 58, 96
1, 46009, Note_off_c, 1, 82, 96
1, 46009, Note_off_c, 1, 92, 96
1, 46009, Note_off_c, 1, 68, 96
1, 46009, Note_off_c, 1, 58, 96
1, 46198, Note_on_c, 1, 53, 96
1, 46198, Note_on_c, 1, 41, 96
1, 46199, Note_off_c, 1, 53, 96
1, 46199, Note_off_c, 1, 41, 96
1, 46453, Note_on_c, 1, 87, 96
1, 46453, Note_on_c, 1, 75, 96
1, 46453, Note_on_c, 1, 82, 96
1, 46453, Note_on_c, 1, 61, 96
1, 46453, Note_on_c, 1, 51, 96
1, 46453, Note_on_c, 1, 55, 96
1, 46454, Note_off_c, 1, 87, 96
1, 46454, Note_off_c, 1, 75, 96
1, 46454, Note_off_c, 1, 82, 96
1, 46454, Note_off_c, 1, 61, 96
1, 46454, Note_off_c, 1, 51, 96
1, 46454, Note_off_c, 1, 55, 96
1, 46700, Note_on_c, 1, 72, 96
1, 46700, Note_on_c, 1, 68, 96
1, 46700, Note_on_c, 1, 79, 96
1, 46701, Note_off_c, 1, 72, 96
1, 46701, Note_off_c, 1, 68, 96
1, 46701, Note_off_c, 1, 79, 96
1, 46880, Note_on_c, 1, 68, 96
1, 46880, Note_on_c, 1, 72, 96
1, 46880, Note_on_c, 1, 77, 96
1, 46880, Note_on_c, 1, 60, 96
1, 46880, Note_on_c, 1, 56, 96
1, 46881, Note_off_c, 1, 68, 96
1, 46881, Note_off_c, 1, 72, 96
1, 46881, Note_off_c, 1, 77, 96
1, 46881, Note_off_c, 1, 60, 96
1, 46881, Note_off_c, 1, 56, 96
1, 47127, Note_on_c, 1, 73, 96
1, 47127, Note_on_c, 1, 78, 96
1, 47127, Note_on_c, 1, 75, 96
1, 47127, Note_on_c, 1, 63, 96
1, 47128, Note_off_c, 1, 73, 96
1, 47128, Note_off_c, 1, 78, 96
1, 47128, Note_off_c, 1, 75, 96
1, 47128, Note_off_c, 1, 63, 96
1, 47370, Note_on_c, 1, 75, 96
1, 47370, Note_on_c, 1, 72, 96
1, 47370, Note_on_c, 1, 80, 96
1, 47370, Note_on_c, 1, 68, 96
1, 47371, Note_off_c, 1, 75, 96
1, 47371, Note_off_c, 1, 72, 96
1, 47371, Note_off_c, 1, 80, 96
1, 47371, Note_off_c, 1, 68, 96
1, 47668, Note_on_c, 1, 73, 96
1, 47669, Note_off_c, 1, 73, 96
1, 47689, Note_on_c, 1, 75, 96
1, 47690, Note_off_c, 1, 75, 96
1, 47710, Note_on_c, 1, 70, 96
1, 47711, Note_off_c, 1, 70, 96
1, 47733, Note_on_c, 1, 75, 96
1, 47733, Note_on_c, 1, 67, 96
1, 47734, Note_off_c, 1, 75, 96
1, 47734, Note_off_c, 1, 67, 96
1, 47796, Note_on_c, 1, 56, 96
1, 47796, Note_on_c, 1, 61, 96
1, 47796, Note_on_c, 1, 51, 96
1, 47797, Note_off_c, 1, 56, 96
1, 47797, Note_off_c, 1, 61, 96
1, 47797, Note_off_c, 1, 51, 96
1, 47857, Note_on_c, 1, 67, 96
1, 47858, Note_off_c, 1, 67, 96
1, 47920, Note_on_c, 1, 72, 96
1, 47920, Note_on_c, 1, 56, 96
1, 47920, Note_on_c, 1, 44, 96
1, 47921, Note_off_c, 1, 72, 96
1, 47921, Note_off_c, 1, 56, 96
1, 47921, Note_off_c, 1, 44, 96
1, 48041, Note_on_c, 1, 70, 96
1, 48042, Note_off_c, 1, 70, 96
1, 48164, Note_on_c, 1, 60, 96
1, 48164, Note_on_c, 1, 51, 96
1, 48164, Note_on_c, 1, 39, 96
1, 48165, Note_off_c, 1, 60, 96
1, 48165, Note_off_c, 1, 51, 96
1, 48165, Note_off_c, 1, 39, 96
1, 48286, Note_on_c, 1, 59, 96
1, 48286, Note_on_c, 1, 47, 96
1, 48287, Note_off_c, 1, 59, 96
1, 48287, Note_off_c, 1, 47, 96
1, 48523, Note_on_c, 1, 68, 96
1, 48524, Note_off_c, 1, 68, 96
1, 48683, Note_on_c, 1, 68, 96
1, 48684, Note_off_c, 1, 68, 96
1, 48744, Note_on_c, 1, 46, 96
1, 48745, Note_off_c, 1, 46, 96
1, 48868, Note_on_c, 1, 72, 96
1, 48868, Note_on_c, 1, 66, 96
1, 48868, Note_on_c, 1, 32, 96
1, 48869, Note_off_c, 1, 72, 96
1, 48869, Note_off_c, 1, 66, 96
1, 48869, Note_off_c, 1, 32, 96
1, 48993, Note_on_c, 1, 77, 96
1, 48993, Note_on_c, 1, 65, 96
1, 48993, Note_on_c, 1, 68, 96
1, 48993, Note_on_c, 1, 53, 96
1, 48993, Note_on_c, 1, 41, 96
1, 48994, Note_off_c, 1, 77, 96
1, 48994, Note_off_c, 1, 65, 96
1, 48994, Note_off_c, 1, 68, 96
1, 48994, Note_off_c, 1, 53, 96
1, 48994, Note_off_c, 1, 41, 96
1, 49118, Note_on_c, 1, 62, 96
1, 49118, Note_on_c, 1, 67, 96
1, 49118, Note_on_c, 1, 71, 96
1, 49118, Note_on_c, 1, 59, 96
1, 49118, Note_on_c, 1, 53, 96
1, 49119, Note_off_c, 1, 62, 96
1, 49119, Note_off_c, 1, 67, 96
1, 49119, Note_off_c, 1, 71, 96
1, 49119, Note_off_c, 1, 59, 96
1, 49119, Note_off_c, 1, 53, 96
1, 49181, Note_on_c, 1, 76, 96
1, 49181, Note_on_c, 1, 73, 96
1, 49181, Note_on_c, 1, 68, 96
1, 49182, Note_off_c, 1, 76, 96
1, 49182, Note_off_c, 1, 73, 96
1, 49182, Note_off_c, 1, 68, 96
1, 49243, Note_on_c, 1, 39, 96
1, 49243, Note_on_c, 1, 51, 96
1, 49244, Note_off_c, 1, 39, 96
1, 49244, Note_off_c, 1, 51, 96
1, 49370, Note_on_c, 1, 80, 96
1, 49370, Note_on_c, 1, 77, 96
1, 49370, Note_on_c, 1, 73, 96
1, 49370, Note_on_c, 1, 68, 96
1, 49370, Note_on_c, 1, 61, 96
1, 49370, Note_on_c, 1, 56, 96
1, 49370, Note_on_c, 1, 65, 96
1, 49371, Note_off_c, 1, 80, 96
1, 49371, Note_off_c, 1, 77, 96
1, 49371, Note_off_c, 1, 73, 96
1, 49371, Note_off_c, 1, 68, 96
1, 49371, Note_off_c, 1, 61, 96
1, 49371, Note_off_c, 1, 56, 96
1, 49371, Note_off_c, 1, 65, 96
1, 49493, Note_on_c, 1, 82, 96
1, 49493, Note_on_c, 1, 39, 96
1, 49493, Note_on_c, 1, 27, 96
1, 49494, Note_off_c, 1, 82, 96
1, 49494, Note_off_c, 1, 39, 96
1, 49494, Note_off_c, 1, 27, 96
1, 49554, Note_on_c, 1, 79, 96
1, 49555, Note_off_c, 1, 79, 96
1, 49619, Note_on_c, 1, 78, 96
1, 49619, Note_on_c, 1, 60, 96
1, 49619, Note_on_c, 1, 66, 96
1, 49619, Note_on_c, 1, 63, 96
1, 49619, Note_on_c, 1, 56, 96
1, 49620, Note_off_c, 1, 78, 96
1, 49620, Note_off_c, 1, 60, 96
1, 49620, Note_off_c, 1, 66, 96
1, 49620, Note_off_c, 1, 63, 96
1, 49620, Note_off_c, 1, 56, 96
1, 49680, Note_on_c, 1, 79, 96
1, 49681, Note_off_c, 1, 79, 96
1, 49745, Note_on_c, 1, 76, 96
1, 49745, Note_on_c, 1, 67, 96
1, 49745, Note_on_c, 1, 60, 96
1, 49745, Note_on_c, 1, 64, 96
1, 49745, Note_on_c, 1, 55, 96
1, 49746, Note_off_c, 1, 76, 96
1, 49746, Note_off_c, 1, 67, 96
1, 49746, Note_off_c, 1, 60, 96
1, 49746, Note_off_c, 1, 64, 96
1, 49746, Note_off_c, 1, 55, 96
1, 49807, Note_on_c, 1, 84, 96
1, 49807, Note_on_c, 1, 76, 96
1, 49808, Note_off_c, 1, 84, 96
1, 49808, Note_off_c, 1, 76, 96
1, 49872, Note_on_c, 1, 76, 96
1, 49872, Note_on_c, 1, 79, 96
1, 49872, Note_on_c, 1, 56, 96
1, 49872, Note_on_c, 1, 64, 96
1, 49872, Note_on_c, 1, 60, 96
1, 49873, Note_off_c, 1, 76, 96
1, 49873, Note_off_c, 1, 79, 96
1, 49873, Note_off_c, 1, 56, 96
1, 49873, Note_off_c, 1, 64, 96
1, 49873, Note_off_c, 1, 60, 96
1, 49935, Note_on_c, 1, 80, 96
1, 49935, Note_on_c, 1, 68, 96
1, 49935, Note_on_c, 1, 74, 96
1, 49936, Note_off_c, 1, 80, 96
1, 49936, Note_off_c, 1, 68, 96
1, 49936, Note_off_c, 1, 74, 96
1, 49997, Note_on_c, 1, 52, 96
1, 49997, Note_on_c, 1, 40, 96
1, 49998, Note_off_c, 1, 52, 96
1, 49998, Note_off_c, 1, 40, 96
1, 50058, Note_on_c, 1, 78, 96
1, 50059, Note_off_c, 1, 78, 96
1, 50122, Note_on_c, 1, 62, 96
1, 50122, Note_on_c, 1, 74, 96
1, 50122, Note_on_c, 1, 56, 96
1, 50122, Note_on_c, 1, 52, 96
1, 50123, Note_off_c, 1, 62, 96
1, 50123, Note_off_c, 1, 74, 96
1, 50123, Note_off_c, 1, 56, 96
1, 50123, Note_off_c, 1, 52, 96
1, 50185, Note_on_c, 1, 68, 96
1, 50185, Note_on_c, 1, 71, 96
1, 50185, Note_on_c, 1, 74, 96
1, 50186, Note_off_c, 1, 68, 96
1, 50186, Note_off_c, 1, 71, 96
1, 50186, Note_off_c, 1, 74, 96
1, 50247, Note_on_c, 1, 50, 96
1, 50247, Note_on_c, 1, 38, 96
1, 50248, Note_off_c, 1, 50, 96
1, 50248, Note_off_c, 1, 38, 96
1, 50308, Note_on_c, 1, 78, 96
1, 50309, Note_off_c, 1, 78, 96
1, 50372, Note_on_c, 1, 81, 96
1, 50372, Note_on_c, 1, 60, 96
1, 50372, Note_on_c, 1, 64, 96
1, 50372, Note_on_c, 1, 55, 96
1, 50373, Note_off_c, 1, 81, 96
1, 50373, Note_off_c, 1, 60, 96
1, 50373, Note_off_c, 1, 64, 96
1, 50373, Note_off_c, 1, 55, 96
1, 50614, Note_on_c, 1, 40, 96
1, 50614, Note_on_c, 1, 52, 96
1, 50615, Note_off_c, 1, 40, 96
1, 50615, Note_off_c, 1, 52, 96
1, 50915, Note_on_c, 1, 76, 96
1, 50915, Note_on_c, 1, 67, 96
1, 50915, Note_on_c, 1, 64, 96
1, 50916, Note_off_c, 1, 76, 96
1, 50916, Note_off_c, 1, 67, 96
1, 50916, Note_off_c, 1, 64, 96
1, 51430, Note_on_c, 1, 67, 96
1, 51430, Note_on_c, 1, 70, 96
1, 51430, Note_on_c, 1, 74, 96
1, 51430, Note_on_c, 1, 64, 96
1, 51430, Note_on_c, 1, 48, 96
1, 51430, Note_on_c, 1, 36, 96
1, 51431, Note_off_c, 1, 67, 96
1, 51431, Note_off_c, 1, 70, 96
1, 51431, Note_off_c, 1, 74, 96
1, 51431, Note_off_c, 1, 64, 96
1, 51431, Note_off_c, 1, 48, 96
1, 51431, Note_off_c, 1, 36, 96
1, 51674, Note_on_c, 1, 74, 96
1, 51674, Note_on_c, 1, 70, 96
1, 51674, Note_on_c, 1, 64, 96
1, 51674, Note_on_c, 1, 58, 96
1, 51674, Note_on_c, 1, 60, 96
1, 51675, Note_off_c, 1, 74, 96
1, 51675, Note_off_c, 1, 70, 96
1, 51675, Note_off_c, 1, 64, 96
1, 51675, Note_off_c, 1, 58, 96
1, 51675, Note_off_c, 1, 60, 96
1, 52529, Note_on_c, 1, 55, 96
1, 52529, Note_on_c, 1, 43, 96
1, 52530, Note_off_c, 1, 55, 96
1, 52530, Note_off_c, 1, 43, 96
1, 52865, Note_on_c, 1, 60, 96
1, 52866, Note_off_c, 1, 60, 96
1, 52892, Note_on_c, 1, 69, 96
1, 52893, Note_off_c, 1, 69, 96
1, 52994, Note_on_c, 1, 72, 96
1, 52995, Note_off_c, 1, 72, 96
1, 53258, Note_on_c, 1, 71, 96
1, 53258, Note_on_c, 1, 55, 96
1, 53259, Note_off_c, 1, 71, 96
1, 53259, Note_off_c, 1, 55, 96
1, 53459, Note_on_c, 1, 69, 96
1, 53460, Note_off_c, 1, 69, 96
1, 53705, Note_on_c, 1, 36, 96
1, 53705, Note_on_c, 1, 48, 96
1, 53705, Note_on_c, 1, 72, 96
1, 53706, Note_off_c, 1, 36, 96
1, 53706, Note_off_c, 1, 48, 96
1, 53706, Note_off_c, 1, 72, 96
1, 53948, Note_on_c, 1, 69, 96
1, 53948, Note_on_c, 1, 74, 96
1, 53949, Note_off_c, 1, 69, 96
1, 53949, Note_off_c, 1, 74, 96
1, 54183, Note_on_c, 1, 57, 96
1, 54183, Note_on_c, 1, 60, 96
1, 54183, Note_on_c, 1, 65, 96
1, 54184, Note_off_c, 1, 57, 96
1, 54184, Note_off_c, 1, 60, 96
1, 54184, Note_off_c, 1, 65, 96
1, 54429, Note_on_c, 1, 60, 96
1, 54429, Note_on_c, 1, 57, 96
1, 54429, Note_on_c, 1, 65, 96
1, 54430, Note_off_c, 1, 60, 96
1, 54430, Note_off_c, 1, 57, 96
1, 54430, Note_off_c, 1, 65, 96
1, 54834, Note_on_c, 1, 76, 96
1, 54834, Note_on_c, 1, 71, 96
1, 54834, Note_on_c, 1, 62, 96
1, 54834, Note_on_c, 1, 55, 96
1, 54834, Note_on_c, 1, 59, 96
1, 54834, Note_on_c, 1, 65, 96
1, 54835, Note_off_c, 1, 76, 96
1, 54835, Note_off_c, 1, 71, 96
1, 54835, Note_off_c, 1, 62, 96
1, 54835, Note_off_c, 1, 55, 96
1, 54835, Note_off_c, 1, 59, 96
1, 54835, Note_off_c, 1, 65, 96
1, 55078, Note_on_c, 1, 64, 96
1, 55079, Note_off_c, 1, 64, 96
1, 55200, Note_on_c, 1, 48, 96
1, 55201, Note_off_c, 1, 48, 96
1, 55443, Note_on_c, 1, 76, 96
1, 55443, Note_on_c, 1, 67, 96
1, 55443, Note_on_c, 1, 57, 96
1, 55444, Note_off_c, 1, 76, 96
1, 55444, Note_off_c, 1, 67, 96
1, 55444, Note_off_c, 1, 57, 96
1, 55690, Note_on_c, 1, 84, 96
1, 55690, Note_on_c, 1, 72, 96
1, 55690, Note_on_c, 1, 57, 96
1, 55690, Note_on_c, 1, 62, 96
1, 55691, Note_off_c, 1, 84, 96
1, 55691, Note_off_c, 1, 72, 96
1, 55691, Note_off_c, 1, 57, 96
1, 55691, Note_off_c, 1, 62, 96
1, 55934, Note_on_c, 1, 83, 96
1, 55934, Note_on_c, 1, 77, 96
1, 55934, Note_on_c, 1, 71, 96
1, 55935, Note_off_c, 1, 83, 96
1, 55935, Note_off_c, 1, 77, 96
1, 55935, Note_off_c, 1, 71, 96
1, 56187, Note_on_c, 1, 56, 96
1, 56187, Note_on_c, 1, 65, 96
1, 56187, Note_on_c, 1, 59, 96
1, 56188, Note_off_c, 1, 56, 96
1, 56188, Note_off_c, 1, 65, 96
1, 56188, Note_off_c, 1, 59, 96
1, 56491, Note_on_c, 1, 74, 96
1, 56491, Note_on_c, 1, 68, 96
1, 56491, Note_on_c, 1, 79, 96
1, 56491, Note_on_c, 1, 58, 96
1, 56491, Note_on_c, 1, 46, 96
1, 56491, Note_on_c, 1, 53, 96
1, 56492, Note_off_c, 1, 74, 96
1, 56492, Note_off_c, 1, 68, 96
1, 56492, Note_off_c, 1, 79, 96
1, 56492, Note_off_c, 1, 58, 96
1, 56492, Note_off_c, 1, 46, 96
1, 56492, Note_off_c, 1, 53, 96
1, 56741, Note_on_c, 1, 65, 96
1, 56741, Note_on_c, 1, 69, 96
1, 56741, Note_on_c, 1, 71, 96
1, 56741, Note_on_c, 1, 62, 96
1, 56741, Note_on_c, 1, 46, 96
1, 56741, Note_on_c, 1, 34, 96
1, 56742, Note_off_c, 1, 65, 96
1, 56742, Note_off_c, 1, 69, 96
1, 56742, Note_off_c, 1, 71, 96
1, 56742, Note_off_c, 1, 62, 96
1, 56742, Note_off_c, 1, 46, 96
1, 56742, Note_off_c, 1, 34, 96
1, 56986, Note_on_c, 1, 87, 96
1, 56986, Note_on_c, 1, 75, 96
1, 56986, Note_on_c, 1, 80, 96
1, 56987, Note_off_c, 1, 87, 96
1, 56987, Note_off_c, 1, 75, 96
1, 56987, Note_off_c, 1, 80, 96
1, 57083, Note_on_c, 1, 32, 96
1, 57084, Note_off_c, 1, 32, 96
1, 57140, Note_on_c, 1, 56, 96
1, 57141, Note_off_c, 1, 56, 96
1, 57201, Note_on_c, 1, 53, 96
1, 57202, Note_off_c, 1, 53, 96
1, 57326, Note_on_c, 1, 62, 96
1, 57326, Note_on_c, 1, 68, 96
1, 57326, Note_on_c, 1, 72, 96
1, 57326, Note_on_c, 1, 79, 96
1, 57327, Note_off_c, 1, 62, 96
1, 57327, Note_off_c, 1, 68, 96
1, 57327, Note_off_c, 1, 72, 96
1, 57327, Note_off_c, 1, 79, 96
1, 57447, Note_on_c, 1, 41, 96
1, 57448, Note_off_c, 1, 41, 96
1, 57572, Note_on_c, 1, 60, 96
1, 57572, Note_on_c, 1, 65, 96
1, 57572, Note_on_c, 1, 72, 96
1, 57572, Note_on_c, 1, 45, 96
1, 57572, Note_on_c, 1, 33, 96
1, 57573, Note_off_c, 1, 60, 96
1, 57573, Note_off_c, 1, 65, 96
1, 57573, Note_off_c, 1, 72, 96
1, 57573, Note_off_c, 1, 45, 96
1, 57573, Note_off_c, 1, 33, 96
1, 57697, Note_on_c, 1, 64, 96
1, 57697, Note_on_c, 1, 76, 96
1, 57697, Note_on_c, 1, 66, 96
1, 57697, Note_on_c, 1, 45, 96
1, 57697, Note_on_c, 1, 57, 96
1, 57698, Note_off_c, 1, 64, 96
1, 57698, Note_off_c, 1, 76, 96
1, 57698, Note_off_c, 1, 66, 96
1, 57698, Note_off_c, 1, 45, 96
1, 57698, Note_off_c, 1, 57, 96
1, 57820, Note_on_c, 1, 71, 96
1, 57820, Note_on_c, 1, 83, 96
1, 57820, Note_on_c, 1, 36, 96
1, 57821, Note_off_c, 1, 71, 96
1, 57821, Note_off_c, 1, 83, 96
1, 57821, Note_off_c, 1, 36, 96
1, 57881, Note_on_c, 1, 83, 96
1, 57882, Note_off_c, 1, 83, 96
1, 57946, Note_on_c, 1, 81, 96
1, 57946, Note_on_c, 1, 84, 96
1, 57946, Note_on_c, 1, 93, 96
1, 57946, Note_on_c, 1, 51, 96
1, 57946, Note_on_c, 1, 42, 96
1, 57947, Note_off_c, 1, 81, 96
1, 57947, Note_off_c, 1, 84, 96
1, 57947, Note_off_c, 1, 93, 96
1, 57947, Note_off_c, 1, 51, 96
1, 57947, Note_off_c, 1, 42, 96
1, 58071, Note_on_c, 1, 84, 96
1, 58071, Note_on_c, 1, 74, 96
1, 58071, Note_on_c, 1, 38, 96
1, 58071, Note_on_c, 1, 50, 96
1, 58072, Note_off_c, 1, 84, 96
1, 58072, Note_off_c, 1, 74, 96
1, 58072, Note_off_c, 1, 38, 96
1, 58072, Note_off_c, 1, 50, 96
1, 58192, Note_on_c, 1, 47, 96
1, 58193, Note_off_c, 1, 47, 96
1, 58313, Note_on_c, 1, 60, 96
1, 58314, Note_off_c, 1, 60, 96
1, 58436, Note_on_c, 1, 75, 96
1, 58436, Note_on_c, 1, 87, 96
1, 58436, Note_on_c, 1, 48, 96
1, 58437, Note_off_c, 1, 75, 96
1, 58437, Note_off_c, 1, 87, 96
1, 58437, Note_off_c, 1, 48, 96
1, 58770, Note_on_c, 1, 92, 96
1, 58770, Note_on_c, 1, 92, 96
1, 58771, Note_off_c, 1, 92, 96
1, 58771, Note_off_c, 1, 92, 96
1, 58832, Note_on_c, 1, 94, 96
1, 58833, Note_off_c, 1, 94, 96
1, 58957, Note_on_c, 1, 82, 96
1, 58957, Note_on_c, 1, 63, 96
1, 58957, Note_on_c, 1, 56, 96
1, 58957, Note_on_c, 1, 58, 96
1, 58958, Note_off_c, 1, 82, 96
1, 58958, Note_off_c, 1, 63, 96
1, 58958, Note_off_c, 1, 56, 96
1, 58958, Note_off_c, 1, 58, 96
1, 59078, Note_on_c, 1, 87, 96
1, 59079, Note_off_c, 1, 87, 96
1, 59199, Note_on_c, 1, 88, 96
1, 59200, Note_off_c, 1, 88, 96
1, 59321, Note_on_c, 1, 39, 96
1, 59321, Note_on_c, 1, 48, 96
1, 59322, Note_off_c, 1, 39, 96
1, 59322, Note_off_c, 1, 48, 96
1, 59444, Note_on_c, 1, 82, 96
1, 59444, Note_on_c, 1, 76, 96
1, 59444, Note_on_c, 1, 69, 96
1, 59445, Note_off_c, 1, 82, 96
1, 59445, Note_off_c, 1, 76, 96
1, 59445, Note_off_c, 1, 69, 96
1, 59508, Note_on_c, 1, 81, 96
1, 59508, Note_on_c, 1, 77, 96
1, 59508, Note_on_c, 1, 75, 96
1, 59508, Note_on_c, 1, 72, 96
1, 59509, Note_off_c, 1, 81, 96
1, 59509, Note_off_c, 1, 77, 96
1, 59509, Note_off_c, 1, 75, 96
1, 59509, Note_off_c, 1, 72, 96
1, 59868, End_track
0, 0, End_of_file